<?xml version="1.0" standalone="no"?>
<!DOCTYPE svg PUBLIC "-//W3C//DTD SVG 20010904//EN"
 "http://www.w3.org/TR/2001/REC-SVG-20010904/DTD/svg10.dtd">
<svg version="1.0" xmlns="http://www.w3.org/2000/svg"
 width="181.000000pt" height="181.000000pt" viewBox="0 0 181.000000 181.000000"
 preserveAspectRatio="xMidYMid meet">
<metadata>
Created by potrace 1.14, written by Peter Selinger 2001-2017
</metadata>
<g transform="translate(0.000000,181.000000) scale(0.100000,-0.100000)"
fill="#000000" stroke="none">
<path d="M878 1804 c-2 -1 -20 -5 -41 -8 -21 -3 -59 -17 -85 -31 -117 -60
-180 -161 -183 -292 -2 -85 -16 -129 -54 -169 -45 -46 -91 -64 -168 -64 -104
0 -187 -36 -255 -109 -161 -176 -84 -466 142 -541 22 -7 72 -14 112 -16 84 -4
108 -12 154 -50 45 -39 70 -98 69 -170 0 -75 5 -96 36 -161 32 -65 110 -136
178 -162 75 -29 194 -24 262 11 227 116 256 419 54 571 -51 39 -113 58 -203
63 -154 10 -221 76 -225 225 -3 75 15 128 57 172 42 44 75 57 160 62 151 8
254 71 312 189 104 211 -38 457 -277 479 -24 2 -44 3 -45 1z"/>
<path d="M1382 1223 c-236 -68 -317 -365 -147 -538 74 -76 130 -100 235 -99
65 0 96 5 132 22 67 30 130 91 163 159 40 81 41 192 4 273 -70 150 -234 228
-387 183z"/>
</g>
</svg>
