<svg xmlns="http://www.w3.org/2000/svg" width="169.771" height="13.658" viewBox="0 0 169.771 13.658">
					<path id="Контур_1755" data-name="Контур 1755"
						d="M6.234.226a4.941,4.941,0,0,1-3.626-1.5A4.941,4.941,0,0,1,1.107-4.9a4.941,4.941,0,0,1,1.5-3.626,4.941,4.941,0,0,1,3.626-1.5,4.933,4.933,0,0,1,3.62,1.5,4.941,4.941,0,0,1,1.5,3.626,4.941,4.941,0,0,1-1.5,3.626A4.933,4.933,0,0,1,6.234.226Zm0-9.652A4.36,4.36,0,0,0,3.035-8.1,4.36,4.36,0,0,0,1.709-4.9a4.349,4.349,0,0,0,1.326,3.2,4.365,4.365,0,0,0,3.2,1.323,4.354,4.354,0,0,0,3.2-1.323,4.354,4.354,0,0,0,1.323-3.2A4.365,4.365,0,0,0,9.43-8.1,4.349,4.349,0,0,0,6.234-9.427ZM8.087-2.249a3.016,3.016,0,0,1-1.7.472,3.052,3.052,0,0,1-2.2-.854A2.845,2.845,0,0,1,3.3-4.771,3.175,3.175,0,0,1,4.211-7.15a3.24,3.24,0,0,1,2.365-.889,3.017,3.017,0,0,1,1.483.362v1.025a2.359,2.359,0,0,0-1.565-.492A2.172,2.172,0,0,0,4.9-6.528a2.215,2.215,0,0,0-.625,1.654,2.132,2.132,0,0,0,.639,1.62,2.26,2.26,0,0,0,1.624.608,2.341,2.341,0,0,0,1.545-.533ZM18.368-.321a3.643,3.643,0,0,1-1.914.485A3.169,3.169,0,0,1,14.038-.81a3.53,3.53,0,0,1-.919-2.526,3.881,3.881,0,0,1,.991-2.779,3.467,3.467,0,0,1,2.646-1.049,3.682,3.682,0,0,1,1.627.342v1.148a2.85,2.85,0,0,0-1.668-.547,2.254,2.254,0,0,0-1.76.769,2.918,2.918,0,0,0-.687,2.02,2.779,2.779,0,0,0,.646,1.941,2.227,2.227,0,0,0,1.733.711,2.81,2.81,0,0,0,1.723-.608Zm4.621.485a3.247,3.247,0,0,1-2.478-.981,3.633,3.633,0,0,1-.926-2.6,3.785,3.785,0,0,1,.964-2.755,3.465,3.465,0,0,1,2.6-.991A3.14,3.14,0,0,1,25.6-6.2a3.822,3.822,0,0,1,.878,2.673,3.761,3.761,0,0,1-.947,2.683A3.317,3.317,0,0,1,22.989.164Zm.082-6.385a2.132,2.132,0,0,0-1.709.735,3.018,3.018,0,0,0-.629,2.027A2.854,2.854,0,0,0,21.369-1.5a2.161,2.161,0,0,0,1.7.718,2.049,2.049,0,0,0,1.671-.7,3.055,3.055,0,0,0,.584-2,3.108,3.108,0,0,0-.584-2.023A2.04,2.04,0,0,0,23.071-6.221Zm6.344,5.209h-.027V3.22H28.267V-7h1.121v1.23h.027a2.651,2.651,0,0,1,2.42-1.395,2.563,2.563,0,0,1,2.112.94,3.893,3.893,0,0,1,.759,2.519,4.339,4.339,0,0,1-.854,2.813A2.845,2.845,0,0,1,31.514.164,2.342,2.342,0,0,1,29.415-1.012Zm-.027-2.823v.978a2.081,2.081,0,0,0,.564,1.473,1.873,1.873,0,0,0,1.432.6,1.876,1.876,0,0,0,1.6-.779,3.575,3.575,0,0,0,.578-2.167,2.822,2.822,0,0,0-.54-1.832,1.787,1.787,0,0,0-1.463-.663,1.986,1.986,0,0,0-1.572.68A2.5,2.5,0,0,0,29.388-3.835ZM42.068-7l-3.22,8.121q-.861,2.174-2.42,2.174a2.565,2.565,0,0,1-.731-.089v-1a2.078,2.078,0,0,0,.663.123,1.374,1.374,0,0,0,1.271-1.012l.561-1.326L35.458-7H36.7L38.6-1.613q.034.1.144.533h.041q.034-.164.137-.52L40.906-7Zm4.854,1.135a1.371,1.371,0,0,0-.848-.226,1.431,1.431,0,0,0-1.2.677,3.129,3.129,0,0,0-.482,1.846V0H43.271V-7h1.121v1.442h.027a2.444,2.444,0,0,1,.731-1.152,1.668,1.668,0,0,1,1.1-.414,1.83,1.83,0,0,1,.67.1Zm1.791-2.912a.71.71,0,0,1-.513-.205.692.692,0,0,1-.212-.52.7.7,0,0,1,.212-.523.7.7,0,0,1,.513-.208.724.724,0,0,1,.523.208.7.7,0,0,1,.215.523.693.693,0,0,1-.215.513A.718.718,0,0,1,48.713-8.777ZM49.26,0H48.139V-7H49.26ZM57.5-.561q0,3.855-3.691,3.855a4.956,4.956,0,0,1-2.27-.492V1.682a4.661,4.661,0,0,0,2.256.656q2.584,0,2.584-2.748v-.766h-.027A2.622,2.622,0,0,1,53.949.164a2.628,2.628,0,0,1-2.1-.933,3.73,3.73,0,0,1-.8-2.505,4.358,4.358,0,0,1,.858-2.837,2.866,2.866,0,0,1,2.348-1.053,2.282,2.282,0,0,1,2.1,1.135h.027V-7H57.5Zm-1.121-2.6V-4.2a2,2,0,0,0-.564-1.429,1.857,1.857,0,0,0-1.4-.595,1.947,1.947,0,0,0-1.627.755A3.372,3.372,0,0,0,52.2-3.35a2.894,2.894,0,0,0,.564,1.87,1.822,1.822,0,0,0,1.494.7,1.951,1.951,0,0,0,1.535-.67A2.5,2.5,0,0,0,56.383-3.165ZM65.584,0H64.463V-4.033q0-2.188-1.627-2.187a1.774,1.774,0,0,0-1.381.632,2.356,2.356,0,0,0-.561,1.624V0H59.773V-10.363h1.121v4.525h.027a2.546,2.546,0,0,1,2.3-1.326q2.365,0,2.365,2.851Zm5.359-.068A2.161,2.161,0,0,1,69.9.15Q68.059.15,68.059-1.9V-6.043h-1.2V-7h1.2V-8.709l1.121-.362V-7h1.764v.957H69.18V-2.1a1.635,1.635,0,0,0,.239,1,.955.955,0,0,0,.793.3,1.179,1.179,0,0,0,.731-.232Zm9.475-7.164a2.027,2.027,0,0,0-.14-.786,1.557,1.557,0,0,0-.383-.557,1.568,1.568,0,0,0-.571-.332,2.235,2.235,0,0,0-.711-.109,2.352,2.352,0,0,0-.643.089,3.124,3.124,0,0,0-.612.246,3.764,3.764,0,0,0-.574.376,4.148,4.148,0,0,0-.516.485v-1.2a3.352,3.352,0,0,1,1.056-.7,3.719,3.719,0,0,1,1.425-.243,3.441,3.441,0,0,1,1.114.174,2.555,2.555,0,0,1,.889.509,2.354,2.354,0,0,1,.591.827,2.79,2.79,0,0,1,.215,1.128,3.868,3.868,0,0,1-.133,1.053,3.256,3.256,0,0,1-.4.889,4.288,4.288,0,0,1-.68.8,9.635,9.635,0,0,1-.964.779q-.69.492-1.138.841a5.031,5.031,0,0,0-.711.653,1.9,1.9,0,0,0-.369.608,2.127,2.127,0,0,0-.106.7h4.881V0h-6.05V-.485a4.044,4.044,0,0,1,.137-1.107,2.876,2.876,0,0,1,.451-.909,5.046,5.046,0,0,1,.824-.861q.509-.431,1.248-.971a7.887,7.887,0,0,0,.892-.731,3.8,3.8,0,0,0,.578-.7,2.5,2.5,0,0,0,.311-.708A3.051,3.051,0,0,0,80.418-7.232Zm9.242,2.29a9.63,9.63,0,0,1-.222,2.181,5.081,5.081,0,0,1-.643,1.6,2.892,2.892,0,0,1-1.032.991,2.826,2.826,0,0,1-1.391.338,2.639,2.639,0,0,1-1.316-.325,2.758,2.758,0,0,1-.974-.947,4.8,4.8,0,0,1-.6-1.528A9.447,9.447,0,0,1,83.275-4.7a10.694,10.694,0,0,1,.215-2.27,5.191,5.191,0,0,1,.632-1.651,2.814,2.814,0,0,1,1.036-1,2.908,2.908,0,0,1,1.418-.338Q89.66-9.967,89.66-4.942Zm-1.148.109q0-4.184-1.989-4.184-2.1,0-2.1,4.259,0,3.972,2.058,3.972Q88.512-.786,88.512-4.833Zm7-2.4a2.027,2.027,0,0,0-.14-.786,1.557,1.557,0,0,0-.383-.557,1.568,1.568,0,0,0-.571-.332,2.235,2.235,0,0,0-.711-.109,2.352,2.352,0,0,0-.643.089,3.124,3.124,0,0,0-.612.246,3.764,3.764,0,0,0-.574.376,4.148,4.148,0,0,0-.516.485v-1.2a3.352,3.352,0,0,1,1.056-.7,3.719,3.719,0,0,1,1.425-.243,3.441,3.441,0,0,1,1.114.174,2.555,2.555,0,0,1,.889.509,2.354,2.354,0,0,1,.591.827,2.79,2.79,0,0,1,.215,1.128,3.868,3.868,0,0,1-.133,1.053,3.256,3.256,0,0,1-.4.889,4.288,4.288,0,0,1-.68.8,9.635,9.635,0,0,1-.964.779q-.69.492-1.138.841a5.031,5.031,0,0,0-.711.653,1.9,1.9,0,0,0-.369.608,2.127,2.127,0,0,0-.106.7h4.881V0h-6.05V-.485a4.044,4.044,0,0,1,.137-1.107,2.876,2.876,0,0,1,.451-.909,5.046,5.046,0,0,1,.824-.861q.509-.431,1.248-.971a7.887,7.887,0,0,0,.892-.731,3.8,3.8,0,0,0,.578-.7,2.5,2.5,0,0,0,.311-.708A3.051,3.051,0,0,0,95.512-7.232Zm9.242,2.29a9.63,9.63,0,0,1-.222,2.181,5.081,5.081,0,0,1-.643,1.6,2.892,2.892,0,0,1-1.032.991,2.826,2.826,0,0,1-1.391.338,2.639,2.639,0,0,1-1.316-.325,2.758,2.758,0,0,1-.974-.947,4.8,4.8,0,0,1-.6-1.528A9.447,9.447,0,0,1,98.369-4.7a10.694,10.694,0,0,1,.215-2.27,5.191,5.191,0,0,1,.632-1.651,2.814,2.814,0,0,1,1.036-1,2.908,2.908,0,0,1,1.418-.338Q104.754-9.967,104.754-4.942Zm-1.148.109q0-4.184-1.989-4.184-2.1,0-2.1,4.259,0,3.972,2.058,3.972Q103.605-.786,103.605-4.833ZM117.12-.41a5.749,5.749,0,0,1-2.707.574,4.366,4.366,0,0,1-3.35-1.347,4.969,4.969,0,0,1-1.258-3.534,5.208,5.208,0,0,1,1.415-3.8,4.8,4.8,0,0,1,3.589-1.449,5.754,5.754,0,0,1,2.311.4V-8.34a4.686,4.686,0,0,0-2.324-.588A3.566,3.566,0,0,0,112.058-7.8a4.249,4.249,0,0,0-1.049,3.015,4.043,4.043,0,0,0,.981,2.854,3.338,3.338,0,0,0,2.574,1.063,4.828,4.828,0,0,0,2.557-.656ZM126.7,0h-1.271l-1.039-2.748h-4.156L119.26,0h-1.278l3.76-9.8h1.189Zm-2.687-3.78-1.538-4.177a4,4,0,0,1-.15-.656H122.3a3.661,3.661,0,0,1-.157.656L120.62-3.78ZM135.174,0h-1.367l-1.641-2.748a5.984,5.984,0,0,0-.437-.653,2.494,2.494,0,0,0-.434-.441,1.5,1.5,0,0,0-.479-.25,1.968,1.968,0,0,0-.578-.079h-.943V0h-1.148V-9.8h2.926a4.17,4.17,0,0,1,1.186.161,2.654,2.654,0,0,1,.943.489,2.271,2.271,0,0,1,.625.817,2.709,2.709,0,0,1,.226,1.145,2.757,2.757,0,0,1-.154.94,2.455,2.455,0,0,1-.437.762,2.652,2.652,0,0,1-.684.571,3.49,3.49,0,0,1-.9.366v.027a2.068,2.068,0,0,1,.427.25,2.351,2.351,0,0,1,.345.332,4.392,4.392,0,0,1,.325.434q.161.243.359.564Zm-5.879-8.764v3.555h1.559a2.364,2.364,0,0,0,.8-.13,1.844,1.844,0,0,0,.632-.373,1.69,1.69,0,0,0,.417-.595,1.991,1.991,0,0,0,.15-.79,1.537,1.537,0,0,0-.509-1.227,2.188,2.188,0,0,0-1.473-.441ZM141.716,0h-5.2V-9.8H141.5v1.039h-3.828V-5.5h3.541v1.032h-3.541v3.432h4.047Zm6.973,0H143.6V-9.8h1.148v8.764h3.938Zm1.928-8.777a.71.71,0,0,1-.513-.205.692.692,0,0,1-.212-.52.7.7,0,0,1,.212-.523.7.7,0,0,1,.513-.208.724.724,0,0,1,.523.208.7.7,0,0,1,.215.523.693.693,0,0,1-.215.513A.718.718,0,0,1,150.616-8.777ZM151.163,0h-1.121V-7h1.121Zm10.322,0h-1.408l-5.045-7.813a3.265,3.265,0,0,1-.314-.615h-.041a10.093,10.093,0,0,1,.055,1.347V0h-1.148V-9.8h1.49l4.908,7.69q.308.479.4.656h.027a10.371,10.371,0,0,1-.068-1.442V-9.8h1.148Zm9.393,0h-1.6l-3.787-4.484a2.733,2.733,0,0,1-.26-.342H165.2V0h-1.148V-9.8H165.2V-5.2h.027a2.7,2.7,0,0,1,.26-.335L169.155-9.8h1.429l-4.2,4.7Z"
						transform="translate(-1.107 10.363)" fill="#fff" />
				</svg>