<svg xmlns="http://www.w3.org/2000/svg" xmlns:xlink="http://www.w3.org/1999/xlink" width="168" height="38.539" viewBox="0 0 168 38.539">
  <defs>
    <clipPath id="clip-path">
      <rect id="Прямоугольник_147" data-name="Прямоугольник 147" width="168" height="38.539" transform="translate(0 0)" fill="none"/>
    </clipPath>
  </defs>
  <g id="Сгруппировать_252" data-name="Сгруппировать 252" transform="translate(0 0)" clip-path="url(#clip-path)">
    <text id="よくあるご質問" transform="translate(14 17.6)" fill="#215f87" font-size="20" font-family="YuGothicUI-Regular, Yu Gothic UI"><tspan x="0" y="0">よくあるご質問</tspan></text>
    <path id="Контур_1361" data-name="Контур 1361" d="M167.8,26.349c.248.056.159-.573.2-.686-.415.139-.186.85-.2.686" fill="#fb808d"/>
    <path id="Контур_1362" data-name="Контур 1362" d="M163.709,27.775l.072-.256-.6.628Z" fill="#fb808d"/>
    <path id="Контур_1363" data-name="Контур 1363" d="M159.88,27.764c.362,1.071,1.387-.173,2.07.208l.112.245.308-.863c-.829.137-1.906.709-2.49.41" fill="#fb808d"/>
    <path id="Контур_1364" data-name="Контур 1364" d="M157.839,25.449c.126.416-.442.357.476.129a.852.852,0,0,1-.086-.106,1.713,1.713,0,0,1-.39-.023" fill="#fb808d"/>
    <path id="Контур_1365" data-name="Контур 1365" d="M158.229,25.473c.4-.03-.264-.349,0,0" fill="#fb808d"/>
    <path id="Контур_1366" data-name="Контур 1366" d="M156.367,25.712l.531-.372c-.111-.246-.584-.3-.408-.481-.545.2-.433.449-.123.853" fill="#fb808d"/>
    <path id="Контур_1367" data-name="Контур 1367" d="M155.863,26.493l.275-.158c-.048-.1-.121-.139-.275.158" fill="#fb808d"/>
    <path id="Контур_1368" data-name="Контур 1368" d="M156.722,26l-.584.332c.077.172.085.52.268-.12-.047.317.068.012.316-.212" fill="#fb808d"/>
    <path id="Контур_1369" data-name="Контур 1369" d="M157.053,26.166c.3.233.683.38.149.75,1.017-.147.867-.9-.149-.75" fill="#fb808d"/>
    <path id="Контур_1370" data-name="Контур 1370" d="M159.685,28.871l.4.315.345-.36c-.172.178-.768-.29-.743.045" fill="#fb808d"/>
    <path id="Контур_1371" data-name="Контур 1371" d="M153.058,25.157c-.033.228.179.607.218.9l.393-.262c-.2-.156-.584-.3-.611-.637" fill="#fb808d"/>
    <path id="Контур_1372" data-name="Контур 1372" d="M153.276,26.056l-.587.391c.524.046.62-.14.587-.391" fill="#fb808d"/>
    <path id="Контур_1373" data-name="Контур 1373" d="M155.768,27.682l.964-.822-1.15.833Z" fill="#fb808d"/>
    <path id="Контур_1374" data-name="Контур 1374" d="M150.816,25.129l.333-.527-.593.8Z" fill="#fb808d"/>
    <path id="Контур_1375" data-name="Контур 1375" d="M149.329,25.221c.246-.437-.338-.739-.077-1.008a2.254,2.254,0,0,0-1.06.791c.33-.188.682-.14,1.137.217" fill="#fb808d"/>
    <path id="Контур_1376" data-name="Контур 1376" d="M147.671,25.5a3.072,3.072,0,0,0,.521-.491,1.612,1.612,0,0,0-.521.491" fill="#fb808d"/>
    <path id="Контур_1377" data-name="Контур 1377" d="M151.689,26.335a.967.967,0,0,0-.462-.65l.231.641.231.009" fill="#fb808d"/>
    <path id="Контур_1378" data-name="Контур 1378" d="M151.466,26.345l-.008-.02c-.251-.015-.424-.029-.5-.036.064.005.217.023.507.056" fill="#fb808d"/>
    <path id="Контур_1379" data-name="Контур 1379" d="M151.748,26.337l-.058,0c.022.064.035.084.058,0" fill="#fb808d"/>
    <path id="Контур_1380" data-name="Контур 1380" d="M154.23,27.1c-.345.358-1.064.742-.368,1.289.247-.439-.151-.75.368-1.289" fill="#fb808d"/>
    <path id="Контур_1381" data-name="Контур 1381" d="M152.034,27.138l.623.146c-.012-.168-.124-.416.047-.593Z" fill="#fb808d"/>
    <path id="Контур_1382" data-name="Контур 1382" d="M151.729,27.342l.3-.2-.231-.054Z" fill="#fb808d"/>
    <path id="Контур_1383" data-name="Контур 1383" d="M148.739,26.095a1.322,1.322,0,0,1-.9.347,3.215,3.215,0,0,0,1.076.193c.049-.2.2-.563-.179-.54" fill="#fb808d"/>
    <path id="Контур_1384" data-name="Контур 1384" d="M150.064,26.273c-.019.015-.042.022-.06.037.037.054.066.071.06-.037" fill="#fb808d"/>
    <path id="Контур_1385" data-name="Контур 1385" d="M144.566,26.438c.018.035.034.08.053.117,0-.037.007-.074.012-.112Z" fill="#fb808d"/>
    <path id="Контур_1386" data-name="Контур 1386" d="M148.978,26.754c.268.124.428-.033.581-.229a2.288,2.288,0,0,1-.641.109c-.022.092-.026.152.06.12" fill="#fb808d"/>
    <path id="Контур_1387" data-name="Контур 1387" d="M146.757,25.8a2.805,2.805,0,0,0,.464.352c-.136-.2-.415-.519-.464-.352" fill="#fb808d"/>
    <path id="Контур_1388" data-name="Контур 1388" d="M149.914,26.132a.271.271,0,0,1,.04-.029c-.088-.136-.077-.07-.04.029" fill="#fb808d"/>
    <path id="Контур_1389" data-name="Контур 1389" d="M149.914,26.132a1.708,1.708,0,0,0-.355.393,1.558,1.558,0,0,0,.445-.216.837.837,0,0,1-.09-.177" fill="#fb808d"/>
    <path id="Контур_1390" data-name="Контур 1390" d="M143.574,30.553a.773.773,0,0,1,1.361-.507c.6-.445.207-2.4-.316-3.491-.018.258-.018.5-.635.849.216.324,1.368.759.848,1.3-.816.306-.669-.21-1.066-.524.337.74-1.038,1.077-.86,2.166l.715-.384c.014.17-.246.44-.047.595" fill="#fb808d"/>
    <path id="Контур_1391" data-name="Контур 1391" d="M145.793,26.615l.254-.074c-.289-.1-.5-.341-.877-.806-.422.291-.51.511-.539.709l1.249.082Z" fill="#fb808d"/>
    <path id="Контур_1392" data-name="Контур 1392" d="M147.185,26.539c-.2.646-.807.922-.434,1.621.744-.045.521-.54.966-.821-1.2.161.345-.36-.523-.726a2.11,2.11,0,0,1,.649-.171,3.4,3.4,0,0,1-.621-.3c.011.015.018.026.027.04h.006v.009c.052.081.069.131.01.084,0,.007-.018.01-.025.013a1.109,1.109,0,0,1-.054.243c-.348-.133-.055-.166.054-.243a.981.981,0,0,0,.015-.1l-.005-.008-1.2.354a2.563,2.563,0,0,0,1.138,0" fill="#fb808d"/>
    <path id="Контур_1393" data-name="Контур 1393" d="M153.22,29.781a.258.258,0,0,1-.038-.15c-.078.08-.108.133.038.15" fill="#fb808d"/>
    <path id="Контур_1394" data-name="Контур 1394" d="M152.725,29.391c.088-.09.16-.348.445-.282.246.194,0,.309.011.522.172-.172.6-.464.063-.779l-.085.089c-.485-.222-1.107-1.029-1.022-1.117a5.427,5.427,0,0,0,.588,1.567" fill="#fb808d"/>
    <path id="Контур_1395" data-name="Контур 1395" d="M149.92,28.13l-1,.316.511.56-.026-.336c.569.132.446-.282.517-.54" fill="#fb808d"/>
    <path id="Контур_1396" data-name="Контур 1396" d="M144.452,26.117l.133-.684-.579.966Z" fill="#fb808d"/>
    <path id="Контур_1397" data-name="Контур 1397" d="M143.15,26.2l.048-.593-.343.358Z" fill="#fb808d"/>
    <path id="Контур_1398" data-name="Контур 1398" d="M69.705,33.563l-.294.168a.862.862,0,0,0,.294-.168" fill="#fb808d"/>
    <path id="Контур_1399" data-name="Контур 1399" d="M71.836,33.6l.052-.292c-.1.161-.139.279-.052.292" fill="#fb808d"/>
    <path id="Контур_1400" data-name="Контур 1400" d="M111.186,26.265c-.429-.555-.908-1.415-.857-.747l.133.651a.71.71,0,0,1,.724.1" fill="#fb808d"/>
    <path id="Контур_1401" data-name="Контур 1401" d="M89.294,30.15c.041.062.083.131.125.2.1-.222.2-.428.29-.622-.125.133-.266.275-.415.425" fill="#fb808d"/>
    <path id="Контур_1402" data-name="Контур 1402" d="M88.992,32.843l-.565-.42a1.887,1.887,0,0,0,.565.42" fill="#fb808d"/>
    <path id="Контур_1403" data-name="Контур 1403" d="M58.069,34.254l-.343.662c.537,0,.3-.337.343-.662" fill="#fb808d"/>
    <path id="Контур_1404" data-name="Контур 1404" d="M129.82,26.438a2.053,2.053,0,0,0-.923-.393c.446.373.8.934.923.393" fill="#fb808d"/>
    <path id="Контур_1405" data-name="Контур 1405" d="M70.544,26.657a.456.456,0,0,0-.252.4c.186-.111.29-.236.252-.4" fill="#fb808d"/>
    <path id="Контур_1406" data-name="Контур 1406" d="M127.829,26.047a2.209,2.209,0,0,0,.195.153,1.687,1.687,0,0,1,.873-.155c-.329-.277-.706-.45-1.068,0" fill="#fb808d"/>
    <path id="Контур_1407" data-name="Контур 1407" d="M15.869,33.714a.7.7,0,0,1-.1-.078c-.009.089.034.093.1.078" fill="#fb808d"/>
    <path id="Контур_1408" data-name="Контур 1408" d="M3.575,27.149a2.171,2.171,0,0,1,.5-.051.7.7,0,0,0-.5.051" fill="#fb808d"/>
    <path id="Контур_1409" data-name="Контур 1409" d="M137.913,25.914c.276-.043.044-.072,0,0" fill="#fb808d"/>
    <path id="Контур_1410" data-name="Контур 1410" d="M139.256,28.488a.511.511,0,0,0-.11.317.652.652,0,0,1,.11-.317" fill="#fb808d"/>
    <path id="Контур_1411" data-name="Контур 1411" d="M125.079,30.1l-.024,0c.082.127.068.1.024,0" fill="#fb808d"/>
    <path id="Контур_1412" data-name="Контур 1412" d="M138.329,26.21a1.31,1.31,0,0,0-.353-.193,1.38,1.38,0,0,0,.353.193" fill="#fb808d"/>
    <path id="Контур_1413" data-name="Контур 1413" d="M138.273,25.9c.1.029.17.045.241.063.035-.108,0-.176-.241-.063" fill="#fb808d"/>
    <path id="Контур_1414" data-name="Контур 1414" d="M137.529,25.949a1.151,1.151,0,0,1,.447.067c-.054-.044-.077-.08-.062-.1-.081.01-.2.023-.385.035" fill="#fb808d"/>
    <path id="Контур_1415" data-name="Контур 1415" d="M38.48,31.972a.722.722,0,0,1-.059-.062c-.279.271-.156.228.059.062" fill="#fb808d"/>
    <path id="Контур_1416" data-name="Контур 1416" d="M104,33.023c.013-.006.02-.023.032-.03-.013-.008-.03-.016-.041-.024Z" fill="#fb808d"/>
    <path id="Контур_1417" data-name="Контур 1417" d="M103.01,33.507c.422-.81.662-.71.982-.539l-.328-1.876Z" fill="#fb808d"/>
    <path id="Контур_1418" data-name="Контур 1418" d="M64.6,33.75l.7.586c-.84.963-1.448.631-.794,1.452.1-2.038,2.706-.207,2.8-2.244l.459.429c-.132-.02-.153.1-.283.08.893.975.663-1.472,1.813-1.183.4.155.681.451.408.693l.893-.5a.181.181,0,1,1-.063.355l1.362-.163-.01.06a6.992,6.992,0,0,1,.85-1.023c.346.293-.173.216-.085.469l.754-.493c.308.529-.317,1.041-.838.964.7,2.034.625-.511,2.145.677L74,34.163c.459,1.155,1.015.736,1.82,1.457-.191-.377-1.612-1.815-.793-2.323.231.153.535.226.976-.184,0,.725.436.547.975.506l-.037.96c.584-.278.538-.766.881-1.2.65.1.785.838.938,1.464,1.041.152-.719-1.192.513-1.373.866.367,1.474-.025,2.51-.6.606.332-.106.587.111.862l.538-.766c.131.019.089.254.067.372.453-.3.037-.959.749-1.219.192-1.057,1.461,1.544,2.342.344.217.273-.105.589-.039.96a6.575,6.575,0,0,0,2.029-1.633l.845.63c-.621-.72.172-1.572.867-2.273a8.869,8.869,0,0,0-.534-.8l1.109-.515c.134.158.022.488-.16.889a3.052,3.052,0,0,0,.2-.231c.4.355.191.909-.094,1.445-.135-.19-.269-.391-.4-.592a3.684,3.684,0,0,0-.473,1.79.731.731,0,0,1,.363-.26.62.62,0,0,0-.084.4c.038.1.153-.111.335-.356l.252,1.07.061-.425,1.451.669c1.039-1.076,1.942-2.662,3.59-3.1-.409.784-.088,1.281-.11,2.21-.45-.984-1.277.418-2.131.219a.432.432,0,0,1,.235.7l1.523-.9c-.034.761.323.57.721.885-.3-1.5,1.136-1,1.756-1.461.038.5-.11,1.019-.867.9.835,1.131,1.078-1.764,1.9-.8-.184.012-.284-.065-.357.192.431-.449,1.486-.093,1.238.345l-.184.011c1.225.178,3.731.011,3.914-1.265a14.86,14.86,0,0,1-.235,1.8l2.188-4.292c-.193,1.1.547,3.705-.47,4.326a1.078,1.078,0,0,0,1.268-.05c-.2-.156-.5-1.584-.224-1.685.747,1.22.519.653,1.439,1.693-.3-.234.033-1.953.505-1.9-.074.257.039,1.7-.133,1.874l1.174-1.686c-.293.3-.052,1.429.211,1.907-.122-.331,1.015.03,1.328-.137l-.5-.391c1.325.255,1.309-2.372,2.624-2.284-.159.349-.393,2.145.276,2.357.306-.864,1.357-4.155,2.52-4.821l.223.5.893-.564a31.057,31.057,0,0,1-2.968,5.1c.5.391.139.584.881.538.263.463-.4.7-.623.729l1.729.3c-.077-1.009,1.323-1.012,1.257-1.851l-1.878,1.045c-.077-1.007,1.086-2.862,2.311-2.685.312.4-.233,1.795-.208,2.132.159-.347,1.163-.664,1.276-.417l-.52.539c.682.379,1.113-1.337,1.933-.374.283.065.845,1.3.894.7a13.852,13.852,0,0,1-.244-5.575,9.482,9.482,0,0,1,1.809,1.669c.466.9-.7,2.151-.3,2.925a1.431,1.431,0,0,1,.382-.725c.3.235-.123.853.522.728.108-1.02,1.313.087.305-.863.632-.292.672.211,1.413.165a3.059,3.059,0,0,1,1.3-2.54,1.588,1.588,0,0,0,.174.754c1.294.092,1.989.556,3.2.565.111.248.693.547.445.987.174-.181.333-.527.706-.552.72.884-.83.137-.281,1.2.047-.594.963-.822,1.493-1.192-.163-.918-1.225-.176-1.756.194a3.734,3.734,0,0,1,2.184-3.176c1-.315.434.818.609.638,1.883.221,1.6-2.21,3.168-1.3.621.805.028,1.6.166,2.185-.817.305-1.254-.512-1.808-.479l.682.382c-.26.268-.8.47-1.1.238.52.724,3.182.138,4.635.807.258-.269.7-.55.493-.874l-.46.112c-.422-.65.866-.9.284-1.2.617-.457,1.308-1.176,2.176-.808l.164.92c-.019-.27-.568-.548-.812-.268.362-.408,1.331,1.245,1.728.04l-.609-.637c.62-.462,1.385-1.438,2.155-1.148-.351-.908-.178.1-.725-.959.474,1.323-1.968-.055-1.207,1.334-.561-1.234-.971-.523-1.7-1.575.022.3.259.581-.387.431a1.318,1.318,0,0,1-.141.267.2.2,0,0,1-.044-.023c.013.013.023.026.036.037-.028.045-.031.055.013.011a1.058,1.058,0,0,1,.329.462c-.321.7-1.348.675-1.7,1.036-.384-.145.16-.349-.049-.673l-.519.54c-.052-.673-1.019-1.12-.116-1.514l-.813-.03a1.382,1.382,0,0,0-1.542-.246c-.384-.144-.969.747-.635.219l-1.274.418-.012-.168c-1.258-.085-2.589,1.116-4.027-.1a2.173,2.173,0,0,1-1.57.187l-.138-.582c-.543.2-1.633-.584-1.866.023-.587-1.568-2.639-.342-3.595-.621l-.036.762a5.152,5.152,0,0,0-2.106.478l.05.672c-.7.552-1.811-.478-2.925-.409.076-.257.358-.191.558-.034-1.331-1.52-2.808,1.1-4.015,0a.5.5,0,0,1-.729-.007.116.116,0,0,0,.074-.036.5.5,0,0,0-.123-.008c-.133-.116-.27-.251-.418-.358a1.524,1.524,0,0,0,.351.36,2.616,2.616,0,0,0-.928.266l-.147-.722c-.028.01-.051.008-.08.02-.339-.266-.272.342-.092.886a1.8,1.8,0,0,0-.456.435c-.275-1.166-.9.393-1.28-.85-.232.606-1.734.456-1.918,1.733-.011-.167-.113-.247.073-.257-.384-.145-.768-.291-1.113.069l-.163-.918-.84,1.233c-.51-.559-.721-.884-.215-1.59-1.223,1.088-.992.409-2.032,1.486l.05-.594c-.371.023-.966.82-1.19.328-.831-1.13-4.114-.156-6.249-1.206.414,1.749-.992-.782-1.077.573-.124-.414-.422-.647-.076-1.006-1.089.405-1.637-.657-2.389.486-.124-.416.233-.6.122-.853-.087.091-.346.361-.459.113s.16-.346.332-.526c-1.113.07-1.225,1.344-1.306,2.539-.564-.565-.846-.486-1.253.3-.2-.391-.524-.8.168-.941-.389-.058-2.377-.573-2.416.385-.122-.244-.544-.071-.646.04A7.365,7.365,0,0,0,84.15,28l.238.156c-.339,1.157-.713.258-1.4.4l.02-.117c-1.585-.835-.684.4-2.247-.554l.085.72c-.146,1.547-1.385-.913-2.292-.321l.327.411c-.495.53-1.385-2.1-1.882-2.3-.109-.135.171-.215.322-.314-1.3-.915-.168.94-1.139,1.161-.179-.509.231-1.294-.423-1.389-.325-.41-1.895,1.651-2.786.676.2.392.391.783-.06,1.077-.691.141-1.868-1.48-2.492-.244a.512.512,0,0,1-.125-.308c-.528.318-1.717.529-2.035,1.2-.488-2.484-3.284,1.209-3.272-1.083l-1.625.123.042-.234A1.6,1.6,0,0,0,61.631,28c-.24-.156-.065-.371-.045-.49-1.518-.462-1.668-.365-2.941.778l-.132-.744c-.345.432-2.194-1.167-3.683-.3a.556.556,0,0,1,.164-.334c-1.675.873-4.01-2.061-4.623.646l-1.1.667c1.429.21-.213,1.176.375,1.624-.563.159-1.454-.816-.763-.956l.108.136c.254-1.411-1.777-.5-1.738-1.461-2.814.071-5.556-.712-8.191-.772l.3,1.1-.919-.063c-.241-.254-.324-.858.332-.814-.345-.621-1.1.523-1.119.761-1.284-.445.5-1.28.108-1.306l-.535.082.121.128c-.433.448-.472.924-1.26.87-.5-.221-.256-.677-.452-.719,0-.079-.066-.115-.3-.032l-1.159-.094.463.866c-.513.428-1.089-.045-.554.936-.785-1.513-4.321-.543-4.8-1.012a2.718,2.718,0,0,1-2.308.543c.219.181.349,1.155-.409,1.036.277-2.01-1.388-.873-2-2.319.547.959-2.156.237-1.3,1.6-.632-.164-.038-.753-.518-1.226-1.506.779-3.319-.506-5.18-.243-.029.265.282.667-.117,1.06l-.983-1.319c-.367.129-.338,1.523-1.01.607.1.222.237.556-.01.641C11.8,26.594,8,28.932,4.3,26.517c.5.512.168.562-.215.581.249.122-.006.651.043,1.009l-1.551-.994C2.29,28.106.91,27.181.748,28.13l.491-.172c-.653,1.121.914,2.489.818,3.926.732-1.273,1.928,1.885,3.128.063.265.294-.226.464-.085.8.305-.616.672-.744,1.352-.469l-.077.153c1.912-.15,2.732.457,4.879.861l-.159-.71a1.4,1.4,0,0,1,.775.5c.529-1.078-1.3-.061-.814-1.249.612,1.445,3.255.022,3.668,1.665.71.009-.208-.823.5-.813l.188.444.18-.573a1.089,1.089,0,0,1,.717,1.027c-.113-.044-.321.106-.442.138.6.524,1.7-.178,1.909-.008l-.682-.274c1.938-.416,4.3.168,6.175-.737l-.142-.334c1.43-.62,1.145.368,2.714.081l-.057.079a1.422,1.422,0,0,1,1.163-.464c-.4.393.746.763.226,1.2,1.55-.666.767-.523,1.791-1.769l.236.557c.349-.5.378-.77,1.162-.913-.643.477.5.847-.22,1.478,1.645,1.217,2.442-1.228,3.2.551.755-1.54-1.424-.854-1-1.184-.354-.5.624-1.151,1.14-1,.526.035.893,1.971,2.215,1.941-.131-.007-.14.11-.271.1.494.394.969-.531,1.575.108.341-.932.788.053.886-1.134l-1.212.275c.687-.312,1.332-1.7,2.464-1.026a2.177,2.177,0,0,1-.657.729c.331.35.638-.231.981.128-.1,1.189-1.473.258-2.21,1.164.356.5,1.393-.86,1.023.426.532-1.635,1.3.208,2.2-1.043l-.059.712c.141-.111.435-.447.7-.429l-.472.922c.725-.787,1.4.69,2.092.261-1.455.021-.326-.858-.941-1.378,1.794-.952,1.032,1.863,3.041,1.521-.272.1-1.021-.427-.6-.758a2.367,2.367,0,0,1,1.123.795c1.331-.149-.2-.733.362-1.171.454.867.654-.353,1.238-.63l0,.723c1.517.465.4-1.508,1.768-.946l-.577,1,.712-.259-.147.823c.775-.61,1.016-.453,1.775-.221-.176-.509.1-1.313.771-1.336.459.429-.256.688.7.585-.215.452-.45,1.02-.865.355-.042.236-.212.453-.256.687.494.493,1.241.112,1.585.1a.638.638,0,0,1-.372-.168l1.38-1c.218.272.045.49-.125.7.279-.08.473-.412.884-.474-.106.588-.081,1.195-.663,1.472l1.316-.653c.088.256.675.7.5.92.73.345,1.789-1.142,2.756-.685a.6.6,0,0,1,.357-.308c.909.133,1.714.855,2.791.049l.612,1.054c.843-.239-.828-1.329.577-1.726.995-.337.371.9.72,1.192.495-.531,1.355-1.613,2.268-.754-.3.2-.539.043-.822.12m10.405-.466c-.2.151-.6.62-.751.193.23-.83.407-.433.751-.193m15.817-1.742c-.15.238-.381.12-.643-.154a.674.674,0,0,1,.643.154m44.062-5.04a.182.182,0,0,0-.022.036c-.449-.282-.29-.17.022-.036m.934.315a.263.263,0,0,0,.048-.3c-.066.183-.275.2-.514.145.066.189.187.32.466.158M35.532,27.1l.182.189c-.411.209-.3.02-.182-.189" fill="#fb808d"/>
    <path id="Контур_1419" data-name="Контур 1419" d="M89.033,32.531a1.187,1.187,0,0,1-.086-.393.269.269,0,0,0,.086.393" fill="#fb808d"/>
    <path id="Контур_1420" data-name="Контур 1420" d="M58.133,34.131c-.011-.006-.021,0-.032-.008a.569.569,0,0,0-.032.131Z" fill="#fb808d"/>
    <path id="Контур_1421" data-name="Контур 1421" d="M121.355,32.953a.862.862,0,0,1-.371-.374c-.01.177.077.327.371.374" fill="#fb808d"/>
    <path id="Контур_1422" data-name="Контур 1422" d="M140.77,25.587l-.6.188c.289-.036.392.123.538.238-.013-.169-.127-.414.06-.426" fill="#fb808d"/>
    <path id="Контур_1423" data-name="Контур 1423" d="M145.963,30.066c.087-.089.185-.01.272-.1l-.024-.336c-.373.022-.633.293-.248.436" fill="#fb808d"/>
    <path id="Контур_1424" data-name="Контур 1424" d="M141.324,27.992c.047.609.423.4.842.289a.184.184,0,0,1-.074,0c.123-.851-.323-.57-.768-.289" fill="#fb808d"/>
    <path id="Контур_1425" data-name="Контур 1425" d="M142.263,28.26a.906.906,0,0,1,.387-.015c.049-.341-.157-.071-.387.015" fill="#fb808d"/>
    <path id="Контур_1426" data-name="Контур 1426" d="M137.006,26.413c.2.156.125-.778.237-.531.222-.774-1.325.938-.237.531" fill="#fb808d"/>
    <path id="Контур_1427" data-name="Контур 1427" d="M141.664,30l-.15-.751-.235.6Z" fill="#fb808d"/>
    <path id="Контур_1428" data-name="Контур 1428" d="M138.355,29.445l.67.209c-.011-.126.074-.2.179-.255-.413-.027-.865-.176-.849.046" fill="#fb808d"/>
    <path id="Контур_1429" data-name="Контур 1429" d="M139.2,29.4a.688.688,0,0,0,.539-.126,1.457,1.457,0,0,0-.539.126" fill="#fb808d"/>
    <path id="Контур_1430" data-name="Контур 1430" d="M140.748,30.223l-.2-.157-.473-.054Z" fill="#fb808d"/>
    <path id="Контур_1431" data-name="Контур 1431" d="M131.157,29.3l-.731.215c-.074.258.125.415.4.313.175-.18.446-.279.334-.528" fill="#fb808d"/>
    <path id="Контур_1432" data-name="Контур 1432" d="M133.367,31.359c-.2-.156-.211-.324-.322-.571l-.023.931Z" fill="#fb808d"/>
    <path id="Контур_1433" data-name="Контур 1433" d="M131.236,31.576c-.073.258-1.061.742-.134.683.074-.256.806-.471.134-.683" fill="#fb808d"/>
    <path id="Контур_1434" data-name="Контур 1434" d="M120.226,30.4l.186-.012-.027-1.528Z" fill="#fb808d"/>
    <path id="Контур_1435" data-name="Контур 1435" d="M110.521,34.053c.866.366.206-.943.988-.486.2-.361-.639-.373-.431-.685-.523.381-.8.167-.557,1.171" fill="#fb808d"/>
    <path id="Контур_1436" data-name="Контур 1436" d="M111.078,32.882a1.924,1.924,0,0,0,.267-.231.848.848,0,0,0-.267.231" fill="#fb808d"/>
    <path id="Контур_1437" data-name="Контур 1437" d="M1.535,26.327l-.557-.318.36.513Z" fill="#fb808d"/>
    <path id="Контур_1438" data-name="Контур 1438" d="M.466,27.461l-.131-.974L0,27.368c.126-.043.37-.127.466.093" fill="#fb808d"/>
    <path id="Контур_1439" data-name="Контур 1439" d="M76.556,35.245l.042-.234c-.086-.254-.216-.272-.477-.312Z" fill="#fb808d"/>
    <path id="Контур_1440" data-name="Контур 1440" d="M69,34.516l.13.02-.243-.88Z" fill="#fb808d"/>
    <path id="Контур_1441" data-name="Контур 1441" d="M62.666,35.639c.259.037.563-.159.823-.121-.564.158-.893-.976-.823.121" fill="#fb808d"/>
  </g>
</svg>
