	<svg xmlns="http://www.w3.org/2000/svg" width="155.442" height="140.694" viewBox="0 0 155.442 140.694">
						<path id="Контур_1756" data-name="Контур 1756"
							d="M12.865-2.085a.1.1,0,0,1-.109.109L10.794-2H8.832v.055L8.866-.759a.1.1,0,0,1-.116.116H8.162q-.109,0-.109-.116L8.08-1.948V-2H6.344l-1.962.027a.1.1,0,0,1-.109-.109V-2.6a.1.1,0,0,1,.109-.109l1.962.027H8.08v-.882H7.068L5.25-3.541q-.1,0-.1-.109L5.168-4.84V-6.228L5.154-7.4q0-.109.1-.109l1.818.027H8.08V-8.34h-1l-1.593.027a.1.1,0,0,1-.109-.109v-.492q0-.116.109-.116L7.082-9h1A5.193,5.193,0,0,0,8-9.939a7.252,7.252,0,0,1,.82.075q.157.021.157.1a.484.484,0,0,1-.055.2,1.123,1.123,0,0,0-.089.513V-9h1.224l1.593-.034a.1.1,0,0,1,.116.116v.492q0,.109-.116.109L10.056-8.34H8.832v.854h1.183l1.818-.027a.1.1,0,0,1,.109.109l-.027,1.176V-4.84l.027,1.189a.1.1,0,0,1-.109.109l-1.818-.027H8.832v.882h1.962l1.962-.027a.1.1,0,0,1,.109.109Zm-1.709-2.1V-5.277H8.832v1.094Zm-3.076,0V-5.277H5.913v1.094Zm3.076-1.7v-1H8.832v1Zm-3.076,0v-1H5.913v1ZM13.6-.376A1.063,1.063,0,0,0,13.344.2a.529.529,0,0,1-.089.253A.6.6,0,0,1,13.009.5Q10.3.67,8.107.67A9.277,9.277,0,0,1,4.594.205,2.733,2.733,0,0,1,3.268-1.162,14.805,14.805,0,0,1,1.777.185,1.193,1.193,0,0,0,1.47.479Q1.388.6,1.306.6T1.135.479a6.953,6.953,0,0,1-.39-.718,6.337,6.337,0,0,0,.868-.52,7.6,7.6,0,0,0,1.23-1.1v-3.5H1.853L.9-5.332q-.123,0-.123-.13v-.6q0-.109.123-.109l.957.027h.725l1-.027a.1.1,0,0,1,.109.109L3.657-4.73V-1.8A2.4,2.4,0,0,0,4.9-.465,7.994,7.994,0,0,0,7.8-.1Q10.644-.1,13.6-.376ZM12.94-8.613q0,.1-.116.1h-.6q-.109,0-.109-.1v-1.641H5.031v1.641q0,.1-.109.1H4.334q-.116,0-.116-.1l.027-1.292v-.349l-.027-.615a.1.1,0,0,1,.109-.109l1.989.027h4.525l1.989-.027a.1.1,0,0,1,.109.109l-.027.547v.417ZM3.616-9.058a.139.139,0,0,1,.027.075q0,.048-.123.15l-.342.267A.476.476,0,0,1,3-8.47q-.034,0-.089-.082a10.729,10.729,0,0,0-1.545-2.017q-.055-.041-.055-.068t.13-.13l.328-.226a.544.544,0,0,1,.157-.082.149.149,0,0,1,.089.055A12.2,12.2,0,0,1,3.616-9.058ZM25.6.827a.085.085,0,0,1-.1.1h-.649q-.109,0-.109-.1V.294h-7.5V.882a.085.085,0,0,1-.1.1h-.663q-.109,0-.109-.1l.027-2v-.745l-.027-1.148a.1.1,0,0,1,.109-.109l2,.014h1.258a9.942,9.942,0,0,0,.533-1.374H19.53l-1.825.027q-.1,0-.1-.116l.027-.95v-.93l-.027-.943q0-.116.1-.116l1.825.027h2.905l1.825-.027q.1,0,.1.116l-.027.943v.93l.027.95q0,.116-.1.116l-1.825-.027H21.15A11.677,11.677,0,0,1,20.617-3.1H23.5l2-.014q.1,0,.1.109l-.014.991v.868ZM24.746-.431V-2.379h-7.5V-.431Zm-1.23-4.724V-6.809H18.45v1.654ZM26.694-6.61a.1.1,0,0,1-.109.109h-.636a.1.1,0,0,1-.109-.109V-8.668H16.153V-6.61a.1.1,0,0,1-.109.109h-.629q-.116,0-.116-.109l.027-1.47v-.465L15.3-9.283a.1.1,0,0,1,.109-.109l1.948.027h5.893a13.453,13.453,0,0,0,.937-1.709,2.181,2.181,0,0,0,.185-.574q.5.157.793.28.171.082.171.171a.175.175,0,0,1-.109.164,1,1,0,0,0-.294.369q-.479.841-.8,1.3h.52l1.935-.027a.1.1,0,0,1,.109.109l-.027.656v.547Zm-8.23-3.356a.207.207,0,0,1,.021.068q0,.034-.137.1l-.39.185a.481.481,0,0,1-.157.055q-.062,0-.123-.15a5.122,5.122,0,0,0-.882-1.442.166.166,0,0,1-.041-.082q0-.041.157-.1l.362-.137a.412.412,0,0,1,.144-.041.132.132,0,0,1,.1.055A8.159,8.159,0,0,1,18.464-9.967Zm3.124-.1a.266.266,0,0,1,.021.075q0,.048-.164.123l-.362.171a.552.552,0,0,1-.15.048q-.055,0-.1-.123a6.8,6.8,0,0,0-.786-1.538.148.148,0,0,1-.034-.075q0-.034.15-.089l.39-.157a.328.328,0,0,1,.1-.021q.048,0,.116.075A7.236,7.236,0,0,1,21.588-10.069Zm19,6.31a.1.1,0,0,1-.109.109l-1.935-.027H34.262q-.718,1.8-1.456,3.233Q35.164-.6,37.98-.916q-.574-.738-1.312-1.545a.131.131,0,0,1-.048-.082q0-.048.13-.109l.41-.226a.315.315,0,0,1,.123-.041.118.118,0,0,1,.082.041A25.858,25.858,0,0,1,40.059.438a.15.15,0,0,1,.034.082q0,.062-.109.13l-.431.294a.419.419,0,0,1-.157.068q-.048,0-.109-.082-.561-.854-.8-1.176-3.5.458-7.711.766a1.14,1.14,0,0,0-.533.13.255.255,0,0,1-.185.082q-.1,0-.15-.15A7.485,7.485,0,0,1,29.7-.362q.342.021.7.021t.827-.021q.185,0,.6-.027a24.839,24.839,0,0,0,1.47-3.288H31.616L29.7-3.65q-.123,0-.123-.109v-.622q0-.109.123-.109l1.921.027h6.925l1.935-.027a.1.1,0,0,1,.109.109Zm1.066-2.81a2.084,2.084,0,0,0-.4.561q-.123.226-.185.226a.58.58,0,0,1-.2-.082,13.725,13.725,0,0,1-5.879-4.648A14.434,14.434,0,0,1,29.36-5.838a.552.552,0,0,1-.212.082q-.068,0-.185-.212a1.539,1.539,0,0,0-.431-.472,13.76,13.76,0,0,0,3.562-2.14,10.486,10.486,0,0,0,2.14-2.4,4.04,4.04,0,0,0,.362-.779,5.441,5.441,0,0,1,.875.178q.2.062.2.171a.158.158,0,0,1-.1.15l-.15.1A13,13,0,0,0,38.4-8.237,14.558,14.558,0,0,0,41.651-6.569Zm-3.712.246a.1.1,0,0,1-.109.109l-1.641-.027H33.92l-1.634.027q-.116,0-.116-.109v-.608q0-.109.116-.109l1.634.027h2.27l1.641-.027a.1.1,0,0,1,.109.109ZM55.282.335a.1.1,0,0,1-.109.109L53.252.417H49.294L47.373.444q-.123,0-.123-.109V-.287q0-.109.123-.109l1.921.027h1.415V-6.152h-.882l-1.8.027a.1.1,0,0,1-.109-.109V-6.85q0-.116.109-.116l1.8.027h.882V-9.666a12.076,12.076,0,0,0-.1-1.921q.54.027.943.089.171.021.171.109a1.159,1.159,0,0,1-.062.239,6.4,6.4,0,0,0-.1,1.456v2.755h1.189l1.791-.027q.109,0,.109.116v.615a.1.1,0,0,1-.109.109l-1.791-.027H51.563V-.369h1.688L55.173-.4a.1.1,0,0,1,.109.109Zm-7.116-4.56a1.847,1.847,0,0,0-.4.513q-.075.157-.15.157a.337.337,0,0,1-.185-.1,9.663,9.663,0,0,1-1.579-1.559V-.841l.027,1.75a.1.1,0,0,1-.116.116H45.11Q45,1.025,45,.909l.027-1.75v-3.9A15.056,15.056,0,0,1,43.189-3.1a.546.546,0,0,1-.205.109q-.062,0-.144-.185a1.572,1.572,0,0,0-.335-.52,10.9,10.9,0,0,0,2.6-2.352,10.323,10.323,0,0,0,1.483-2.42h-2.03l-1.429.027a.1.1,0,0,1-.109-.109v-.574q0-.116.109-.116l1.429.027h.465v-.807a8.452,8.452,0,0,0-.1-1.586q.451.021.916.082.185.027.185.116a.853.853,0,0,1-.089.267,3.972,3.972,0,0,0-.082,1.094v.834h.95a.443.443,0,0,0,.253-.055.434.434,0,0,1,.123-.027q.116,0,.355.239t.239.335a.258.258,0,0,1-.116.185.941.941,0,0,0-.28.335,13.99,13.99,0,0,1-1.347,2.256A9.761,9.761,0,0,0,48.166-4.225ZM7,25.226q0,.116-.109.116l-1.668-.034H4.792a13.192,13.192,0,0,0,2.194,3.015,2.3,2.3,0,0,0-.376.547q-.075.15-.13.15T6.33,28.9a12.67,12.67,0,0,1-1.791-3q.007,2.4.062,5.059.014.629.034,1.49.014.41.014.451,0,.116-.109.116h-.7q-.109,0-.109-.116s.009-.369.027-1.094q.089-3.179.1-5.886A17.613,17.613,0,0,1,1.2,30.489q-.1.144-.164.144t-.13-.157A1.588,1.588,0,0,0,.533,29.9a15.973,15.973,0,0,0,3.008-4.594H2.563L.9,25.342q-.1,0-.1-.116v-.547q0-.109.1-.109l1.668.027H3.78V22.382q-1.025.294-2.03.492a1.755,1.755,0,0,1-.185.021q-.109,0-.219-.219A1.626,1.626,0,0,0,1,22.259,19.536,19.536,0,0,0,3.63,21.65a13.69,13.69,0,0,0,1.688-.622,2.74,2.74,0,0,0,.636-.41,5.662,5.662,0,0,1,.6.492.35.35,0,0,1,.123.239q0,.1-.226.123a2.487,2.487,0,0,0-.6.185q-.52.219-1.244.465V24.6h.615l1.668-.027A.1.1,0,0,1,7,24.679ZM12.421,20.9a.853.853,0,0,1-.089.267,5.361,5.361,0,0,0-.068,1.217v6.877l.014,2.112a1.252,1.252,0,0,1-.4,1.094,1.427,1.427,0,0,1-.643.232,11.506,11.506,0,0,1-1.278.048A.411.411,0,0,1,9.7,32.7a.8.8,0,0,1-.1-.246,2,2,0,0,0-.294-.649,9.246,9.246,0,0,0,1.388.089.816.816,0,0,0,.574-.144.766.766,0,0,0,.137-.533V22.4a10.853,10.853,0,0,0-.1-1.709,7.706,7.706,0,0,1,.937.089Q12.421,20.8,12.421,20.9ZM9.03,21.91q0,.014-.068.219a9.265,9.265,0,0,0-.055,1.442v3.808l.027,1.812a.1.1,0,0,1-.109.109H8.162a.1.1,0,0,1-.109-.109l.027-1.812V23.6a12.069,12.069,0,0,0-.1-1.9,8.745,8.745,0,0,1,.909.082Q9.03,21.8,9.03,21.91ZM26.3,21.281l-.027,2.194v6.214l.014,1.88a1.126,1.126,0,0,1-.41.964,3.382,3.382,0,0,1-1.736.28.484.484,0,0,1-.267-.041.581.581,0,0,1-.082-.239,1.71,1.71,0,0,0-.253-.643q.636.055,1.388.055.492,0,.492-.561V28.432H21.506V30.1l.027,2.317a.1.1,0,0,1-.116.116h-.67q-.109,0-.109-.116l.027-2.317V28.432H16.912a9.556,9.556,0,0,1-.547,2.557,7.734,7.734,0,0,1-.882,1.613q-.123.171-.164.171t-.2-.144a2.739,2.739,0,0,0-.588-.349,6.672,6.672,0,0,0,1.292-2.646,18.46,18.46,0,0,0,.349-4.061v-2.1l-.027-2.194q0-.116.109-.116l1.989.027h5.947l2-.027A.1.1,0,0,1,26.3,21.281Zm-.882,3.158V21.965H21.506v2.475Zm0,3.233V25.2H21.506v2.475Zm-4.758,0V25.2H17.028v.376q0,.916-.062,2.1Zm0-3.233V21.965H17.028v2.475Zm20.761,6.4a4.341,4.341,0,0,1-.212,1.087,1.159,1.159,0,0,1-.342.472,2.317,2.317,0,0,1-1.449.362,4.718,4.718,0,0,1-1.21-.123q-.492-.15-.492-.889V28.534H36.627A4.459,4.459,0,0,1,33.1,32.923a.656.656,0,0,1-.191.041q-.082,0-.239-.2a1.782,1.782,0,0,0-.451-.431q3.391-.69,3.575-3.8-.54.007-.957.021l-.294.007a.1.1,0,0,1-.109-.109l.027-1.716V22.888l-.027-1.723a.1.1,0,0,1,.109-.109l1.654.027h2.194l1.654-.027a.1.1,0,0,1,.109.109l-.027,1.723v3.849l.027,1.716a.1.1,0,0,1-.109.109l-1.511-.027v2.837a1.115,1.115,0,0,0,.048.4.3.3,0,0,0,.205.15,3.059,3.059,0,0,0,.7.055,1.41,1.41,0,0,0,.827-.2.886.886,0,0,0,.294-.595,7.324,7.324,0,0,0,.068-.984,1.946,1.946,0,0,0,.547.294q.212.068.212.239Q41.433,30.756,41.426,30.838Zm-2.112-3.049V26.2H35.26v1.586Zm0-2.283V24H35.26v1.5Zm0-2.2V21.842H35.26V23.3Zm-5.387,6.412a1.755,1.755,0,0,0-.424.4q-.123.164-.178.164t-.2-.171a7.912,7.912,0,0,1-1.4-2.126A8.473,8.473,0,0,1,29.6,32.116q-.157.15-.212.15T29.2,32.1a2.051,2.051,0,0,0-.451-.376A7.18,7.18,0,0,0,31.069,27.2l.041-.4h-.656l-1.5.027q-.1,0-.1-.109v-.588q0-.109.1-.109l1.5.027h.725q.062-.861.062-2.16h-.52l-1.374.027a.1.1,0,0,1-.109-.109v-.588a.1.1,0,0,1,.109-.109l1.374.027h.533V22.088a8.624,8.624,0,0,0-.1-1.47q.342.014.882.068.171.027.171.13a2.444,2.444,0,0,1-.055.253,2.514,2.514,0,0,0-.075.629l-.027,1.442h.171l1.374-.027a.1.1,0,0,1,.109.109v.588a.1.1,0,0,1-.109.109l-1.374-.027h-.2q-.014.923-.068,2.16h.321l1.5-.027q.116,0,.116.109v.588q0,.109-.116.109l-1.5-.027H31.91l-.014.068A8.086,8.086,0,0,0,33.927,29.717Zm14.506-2.208a.268.268,0,0,1,.021.089q0,.075-.178.13l-.321.1a.579.579,0,0,1-.137.027q-.062,0-.082-.089-.205-.629-.267-.807l-1.347.137v3.753l.027,2.044q0,.1-.109.1H45.4q-.109,0-.109-.1l.027-2.044V27.167l-1.538.116a1.534,1.534,0,0,0-.533.109.422.422,0,0,1-.157.055q-.089,0-.137-.178-.055-.212-.144-.772.444.041.882.041h.171q.5-.649,1.053-1.456a19.585,19.585,0,0,0-2.064-2.153.146.146,0,0,1-.062-.1q0-.041.109-.157l.239-.294q.089-.1.13-.1t.089.062l.533.52q.52-.807.923-1.586a3.59,3.59,0,0,0,.369-.95q.376.15.779.349.157.075.157.185,0,.075-.123.15a.821.821,0,0,0-.239.294q-.738,1.224-1.347,2.085.479.479.937,1.025.52-.834.909-1.5a6.472,6.472,0,0,0,.561-1.189,5.8,5.8,0,0,1,.772.39.209.209,0,0,1,.123.171q0,.089-.137.178a2.63,2.63,0,0,0-.492.615q-1.155,1.846-2.338,3.418,1.354-.075,2.468-.164a10.8,10.8,0,0,0-.547-1.08.168.168,0,0,1-.027-.075q0-.055.164-.123l.253-.1a.369.369,0,0,1,.15-.048q.055,0,.1.075A14.107,14.107,0,0,1,48.433,27.509Zm6.31-4.58q-.027.355-.027,1.066a45.94,45.94,0,0,1-.451,6.788,3.462,3.462,0,0,1-.608,1.634,1.439,1.439,0,0,1-1.142.479,10.86,10.86,0,0,1-1.3-.068.457.457,0,0,1-.267-.075.769.769,0,0,1-.082-.26,2.124,2.124,0,0,0-.226-.629,12.161,12.161,0,0,0,1.818.191.759.759,0,0,0,.69-.506,4.283,4.283,0,0,0,.294-1.073,44.315,44.315,0,0,0,.39-6.87H49.745a11.224,11.224,0,0,1-1.176,1.818q-.116.157-.2.157t-.205-.144a1.731,1.731,0,0,0-.451-.335,10.017,10.017,0,0,0,2.03-3.568,5.634,5.634,0,0,0,.267-1.237,6.023,6.023,0,0,1,.868.226q.2.068.2.171a.392.392,0,0,1-.123.246,1.736,1.736,0,0,0-.355.677q-.144.451-.479,1.217h2.987l1.511-.027A.109.109,0,0,1,54.742,22.929Zm-2.9,5.558a.221.221,0,0,1,.034.089q0,.055-.144.137l-.39.219a.535.535,0,0,1-.185.089q-.041,0-.082-.082a11.6,11.6,0,0,0-1.7-2.68.131.131,0,0,1-.048-.082q0-.048.144-.137l.349-.212a.282.282,0,0,1,.13-.062q.034,0,.082.062A11.163,11.163,0,0,1,51.844,28.486ZM44.5,28.473a.658.658,0,0,1-.068.164,1.3,1.3,0,0,0-.1.41,11.775,11.775,0,0,1-.684,2.728q-.055.2-.123.2a.525.525,0,0,1-.212-.109,1.1,1.1,0,0,0-.479-.212,10.723,10.723,0,0,0,.759-2.762,2.92,2.92,0,0,0,.034-.437q0-.089-.007-.232a5.671,5.671,0,0,1,.684.109Q44.5,28.37,44.5,28.473Zm3.9,2.475a.225.225,0,0,1,.007.055q0,.1-.171.157l-.335.1a.612.612,0,0,1-.157.034q-.055,0-.082-.1a14.686,14.686,0,0,0-.731-2.687.262.262,0,0,1-.021-.082q0-.075.164-.116l.294-.082a.561.561,0,0,1,.116-.021q.068,0,.123.1A13.74,13.74,0,0,1,48.4,30.947Zm21-10.678a8.836,8.836,0,0,0-2.529,3.247,8.068,8.068,0,0,0-.581,3.165,7.883,7.883,0,0,0,.772,3.582,9.239,9.239,0,0,0,2.338,2.83l-.349.4a9.614,9.614,0,0,1-2.939-3.37,7.781,7.781,0,0,1-.731-3.445,7.659,7.659,0,0,1,.964-3.89,10.156,10.156,0,0,1,2.707-2.926Zm8.593,10.637h2.728v.937H70.7v-.937h6.187l.629-7.95H71.8V22.02h6.9Zm4.115-4.648h7.615V27.3H82.106ZM94.315,23.7h3.514V21.124h1.053V23.7h2.249v.937H98.882v.991q0,3.445-1.47,5.052A7.427,7.427,0,0,1,93.6,32.615l-.567-.8a6.161,6.161,0,0,0,3.753-1.962,6.7,6.7,0,0,0,1.046-4.095V24.638H94.315v3.65H93.263v-3.65h-2.14V23.7h2.14v-2.83h1.053Zm4.7-3.445.718-.226a16.106,16.106,0,0,1,.848,2.447l-.766.239A14.888,14.888,0,0,0,99.019,20.256Zm1.511-.349.718-.2a10.333,10.333,0,0,1,.807,2.365l-.738.239A13.188,13.188,0,0,0,100.529,19.907Zm2.229,6.351h7.615V27.3h-7.615Zm8.948-5.988.349-.4a9.614,9.614,0,0,1,2.939,3.37,7.781,7.781,0,0,1,.731,3.445,7.659,7.659,0,0,1-.964,3.89,10.156,10.156,0,0,1-2.707,2.926l-.349-.4a8.836,8.836,0,0,0,2.529-3.247,8.068,8.068,0,0,0,.581-3.165,7.883,7.883,0,0,0-.772-3.582A9.239,9.239,0,0,0,111.706,20.27ZM8.524,54.758a13.225,13.225,0,0,1-1.367,5.927,8.91,8.91,0,0,1-5.113,3.9l-.588-.841A8.527,8.527,0,0,0,6.009,60.5a10.554,10.554,0,0,0,1.367-5.742H.841v-.937H7.547a1.43,1.43,0,0,1-.1-.547,1.5,1.5,0,0,1,.513-1.162,1.53,1.53,0,0,1,1.053-.4,1.5,1.5,0,0,1,1.162.513,1.569,1.569,0,0,1-1.162,2.625A1.366,1.366,0,0,1,8.524,54.758Zm.492-2.447a.939.939,0,0,0-.725.314.954.954,0,0,0-.239.649A.939.939,0,0,0,8.367,54a.923.923,0,0,0,.649.246.939.939,0,0,0,.725-.314.963.963,0,0,0,.239-.656.954.954,0,0,0-.964-.964Zm3.363,1.08h6.344v.937H12.38Zm-.854,2.98h7.909q-.157,4-1.955,5.961a8.381,8.381,0,0,1-4.3,2.27l-.506-.8a7.477,7.477,0,0,0,4.238-2.413,6.915,6.915,0,0,0,1.36-4.081H11.525Zm14.007.752A32.432,32.432,0,0,1,21.6,59.755l-.574-.807A25.788,25.788,0,0,0,25.4,55.94a19.643,19.643,0,0,0,3.1-3.268l.923.574a22.1,22.1,0,0,1-2.8,2.98v8.333h-1.08Zm12.592-4.238.718-.28a18.274,18.274,0,0,1,1.032,2.365l-.752.308A14.831,14.831,0,0,0,38.124,52.885ZM30.775,63.733A14.255,14.255,0,0,0,32.73,59.27a33.729,33.729,0,0,0,.861-5.489l1.114.109a33.409,33.409,0,0,1-1.135,6.337,14.743,14.743,0,0,1-1.859,4.026Zm8.907-11.327.7-.253a11.327,11.327,0,0,1,.991,2.3l-.725.294A13.487,13.487,0,0,0,39.683,52.406ZM36.75,53.862l1.066-.1a26.085,26.085,0,0,0,2.912,9.9l-1.032.588A29.376,29.376,0,0,1,36.75,53.862Zm5.838,3.4.479-.841a28.874,28.874,0,0,1,3.288,1.429l-.52.937A19.993,19.993,0,0,0,42.588,57.267Zm1.258-2.994.52-.827a20.246,20.246,0,0,1,3.192,1.524L47,55.893A17.538,17.538,0,0,0,43.846,54.272Zm7.335.923.971.547A14.6,14.6,0,0,1,51,58.894a9.741,9.741,0,0,1-1.47,2.235,10.073,10.073,0,0,1-5.558,2.994l-.574-.882a9.086,9.086,0,0,0,5.318-2.8A11.559,11.559,0,0,0,51.181,55.2ZM53.5,58.258H61.12V59.3H53.5Zm14.622-3.035h4.437v.923H68.127v8.429H67.061V56.146H62.679v-.923h4.382V52.8h1.066Zm-2.762,2.816a17.192,17.192,0,0,1-2.03,5.469L62.4,63a14.227,14.227,0,0,0,1.948-5.271Zm4.354.1.978-.362a24.765,24.765,0,0,0,1.989,5.12l-1.019.547A37.42,37.42,0,0,1,69.72,58.135Zm1.989-6.426a1.5,1.5,0,0,1,1.162.513,1.569,1.569,0,0,1-1.162,2.625,1.5,1.5,0,0,1-1.162-.52,1.565,1.565,0,0,1,1.162-2.618Zm0,.6a.939.939,0,0,0-.725.314.954.954,0,0,0-.239.649A.939.939,0,0,0,71.06,54a.978.978,0,0,0,1.367-.068.947.947,0,0,0,.246-.656.954.954,0,0,0-.964-.964Zm4.826.923V60.1h-1.08V53.233Zm-.4,10.5a5.626,5.626,0,0,0,3.473-1.812,6.149,6.149,0,0,0,.9-3.664V53.151h1.08V58.4a6.3,6.3,0,0,1-1.354,4.457,6.837,6.837,0,0,1-3.589,1.716Zm8.251-6.467.479-.841a28.873,28.873,0,0,1,3.288,1.429l-.52.937A19.992,19.992,0,0,0,84.39,57.267Zm1.258-2.994.52-.827a20.246,20.246,0,0,1,3.192,1.524l-.561.923A17.538,17.538,0,0,0,85.647,54.272Zm7.335.923.971.547A14.6,14.6,0,0,1,92.8,58.894a9.741,9.741,0,0,1-1.47,2.235,10.073,10.073,0,0,1-5.558,2.994l-.574-.882a9.086,9.086,0,0,0,5.318-2.8A11.559,11.559,0,0,0,92.982,55.2Zm2.324,3.063h7.615V59.3H95.307ZM5.5,88.146q0,.109-.123.109l-1.347-.027H3.944v2.844q.8-.4,1.5-.786-.007.109-.007.226a2.381,2.381,0,0,0,.021.321A1.631,1.631,0,0,1,5.469,91q0,.123-.239.246-1.073.554-1.285.656v2.55l.027,2.475q0,.116-.123.116H3.213q-.109,0-.109-.116l.027-2.461V92.3l-1.23.574a1.474,1.474,0,0,0-.465.294q-.109.144-.191.144H1.224q-.089,0-.164-.157a7.8,7.8,0,0,1-.349-.813,7.46,7.46,0,0,0,1.23-.376q.957-.4,1.189-.506V88.228H1.914A13.912,13.912,0,0,1,1.49,90q-.082.226-.137.226a.5.5,0,0,1-.212-.082A1.337,1.337,0,0,0,.684,90a14.449,14.449,0,0,0,.7-3.5q.021-.308.021-.526a3.127,3.127,0,0,0-.021-.383,4.073,4.073,0,0,1,.752.13q.185.041.185.15a.4.4,0,0,1-.068.171.905.905,0,0,0-.082.362q-.014.068-.062.547-.034.3-.068.506H3.131V86.341a14.072,14.072,0,0,0-.1-1.921q.314.014.9.075.171.021.171.137a1.065,1.065,0,0,1-.068.239,6.364,6.364,0,0,0-.089,1.442v1.148h.082l1.347-.027q.123,0,.123.109Zm7.827,1.319a.1.1,0,0,1-.109.109l-1.935-.027H7.314l-1.928.027q-.116,0-.116-.109V88.87q0-.1.116-.1l1.928.027H8.62V86.956H7.793l-1.764.027q-.123,0-.123-.109V86.3q0-.109.123-.109l1.764.027H8.62A9.189,9.189,0,0,0,8.5,84.427a6.744,6.744,0,0,1,.923.082q.185.027.185.123a.908.908,0,0,1-.068.253,5.207,5.207,0,0,0-.1,1.333h1.23l1.791-.027q.116,0,.116.109v.574q0,.109-.116.109l-1.791-.027H9.434V88.8h1.846l1.935-.027q.109,0,.109.1Zm-.007,2.481q0,.109-.116.109l-1.791-.027v1.928l.027,1.791a1.091,1.091,0,0,1-.39.95,3.443,3.443,0,0,1-1.641.239.487.487,0,0,1-.26-.041.623.623,0,0,1-.089-.239,1.551,1.551,0,0,0-.28-.629q.485.048,1.025.048.171,0,.342-.007.451-.021.451-.526V92.028H7.444l-1.914.027q-.116,0-.116-.109v-.581q0-.109.116-.109l1.914.027H10.6a7.332,7.332,0,0,0-.1-1.47,5.929,5.929,0,0,1,.9.1q.185.048.185.13a1.441,1.441,0,0,1-.089.239,3.181,3.181,0,0,0-.082.978v.027l1.791-.027q.116,0,.116.109ZM8.675,94.6a.151.151,0,0,1,.034.068q0,.027-.116.13l-.362.321a.376.376,0,0,1-.171.1q-.041,0-.082-.075a8.192,8.192,0,0,0-1.415-1.8q-.048-.055-.048-.075t.13-.137l.328-.253a.266.266,0,0,1,.137-.068.166.166,0,0,1,.082.041A9.928,9.928,0,0,1,8.675,94.6Zm18.279,1a2.535,2.535,0,0,0-.2.588.528.528,0,0,1-.1.26.43.43,0,0,1-.239.048q-.9.027-1.319.027-4.074-.007-5.6-.772a3.3,3.3,0,0,1-1.162-.957,6.411,6.411,0,0,1-.588-.971A7.278,7.278,0,0,1,15.7,96.636a.644.644,0,0,1-.2.137q-.048,0-.191-.171a1.354,1.354,0,0,0-.479-.376,6.686,6.686,0,0,0,2.7-4.874,4.6,4.6,0,0,0,.048-.595q0-.089-.007-.185.362.048.813.15.212.055.212.157a.6.6,0,0,1-.1.219.746.746,0,0,0-.144.349,12.682,12.682,0,0,1-.308,1.429,4.633,4.633,0,0,0,1,1.593,3.731,3.731,0,0,0,1.572.82V89.355H19.113l-1.921.027q-.123,0-.123-.109v-.595q0-.109.123-.109l1.921.027H23l1.921-.027a.1.1,0,0,1,.109.109v.595a.1.1,0,0,1-.109.109L23,89.355H21.465V91.7H23.55l1.374-.027a.1.1,0,0,1,.109.109v.595a.1.1,0,0,1-.109.109l-1.374-.027H21.465V95.48a21.3,21.3,0,0,0,3.165.185Q25.573,95.665,26.954,95.6ZM26.7,88.706a.1.1,0,0,1-.116.116h-.643q-.109,0-.109-.116V86.778h-9.55v1.928a.1.1,0,0,1-.116.116h-.643q-.109,0-.109-.116l.027-1.436v-.437l-.027-.745q0-.1.109-.1l1.935.027H20.48v-.2a7.092,7.092,0,0,0-.1-1.429,8.839,8.839,0,0,1,.909.075q.171.021.171.109a.816.816,0,0,1-.089.253,4.573,4.573,0,0,0-.055.991v.2h3.322l1.941-.027q.116,0,.116.1l-.027.649v.533Zm13.686,6.986a1.1,1.1,0,0,1-.321.909,2.772,2.772,0,0,1-1.524.28.507.507,0,0,1-.267-.041.413.413,0,0,1-.082-.212,1.461,1.461,0,0,0-.267-.615q.526.041.991.041.588,0,.588-.506V89.205H36.4V90.34q0,.335.1.4a1.68,1.68,0,0,0,.738.1,2.334,2.334,0,0,0,.923-.109q.226-.15.294-1a1.342,1.342,0,0,0,.465.253q.205.068.205.205a.837.837,0,0,1-.014.13,1.357,1.357,0,0,1-.526,1.06,3.183,3.183,0,0,1-1.415.2,2.915,2.915,0,0,1-1.244-.157.927.927,0,0,1-.308-.807v-1.4H34.063a3.62,3.62,0,0,1-2.522,3.138.533.533,0,0,1-.191.068q-.116,0-.226-.185a1.222,1.222,0,0,0-.39-.39,4.36,4.36,0,0,0,1.907-1.094,2.525,2.525,0,0,0,.622-1.538H30.509v5.817l.027,1.846q0,.1-.109.1H29.75q-.109,0-.109-.1L29.668,95V90.463L29.641,88.6q0-.116.109-.116l1.976.027h1.066a6.054,6.054,0,0,0-.649-1.258.133.133,0,0,1-.027-.068q0-.048.157-.116l.39-.15a.31.31,0,0,1,.116-.034.152.152,0,0,1,.123.082,5.982,5.982,0,0,1,.772,1.545h2.5a8.188,8.188,0,0,0,.533-1.094,3.684,3.684,0,0,0,.15-.561,6.705,6.705,0,0,1,.8.239q.137.062.137.157,0,.062-.137.178a.836.836,0,0,0-.2.28,7.263,7.263,0,0,1-.431.8h1.285l1.962-.027q.109,0,.109.116l-.027,1.941v3.049Zm-2.967-.1q0,.1-.116.1h-.574q-.109,0-.109-.1v-.376H33.387v.574q0,.116-.109.116H32.7a.1.1,0,0,1-.116-.116L32.614,94v-.663l-.027-.991a.1.1,0,0,1,.109-.109l1.477.027h1.675l1.463-.027a.1.1,0,0,1,.109.109l-.027.813v.725Zm-.8-1.032V92.917H33.387v1.641Zm4.594-8.032q0,.109-.1.109L39.3,86.607H30.83l-1.812.027a.1.1,0,0,1-.109-.109v-.581a.1.1,0,0,1,.109-.109l1.812.027h3.664v-.321a5.759,5.759,0,0,0-.1-1.244,7.6,7.6,0,0,1,.937.068q.171.021.171.109a.9.9,0,0,1-.089.253,2.907,2.907,0,0,0-.068.813v.321H39.3l1.818-.027q.1,0,.1.109Zm8.23-.752a.1.1,0,0,1-.109.109l-.144-.007q-.438-.014-.95-.021v9.5l.027,1.5a.1.1,0,0,1-.109.109H47.51a.1.1,0,0,1-.109-.109l.027-1.5V93.929a37.083,37.083,0,0,1-3.678,1.114,1.387,1.387,0,0,0-.547.212.255.255,0,0,1-.185.082q-.075,0-.137-.15a8.475,8.475,0,0,1-.239-.813q.6-.075,1.148-.2l.28-.055V85.855q-.485.007-.861.021l-.26.007a.1.1,0,0,1-.109-.109v-.567q0-.123.109-.123l1.777.027h2.823l1.784-.027q.109,0,.109.123Zm-2.017,7.383v-1.75H44.885v2.509Q46.32,93.546,47.428,93.156Zm0-5.25V85.855H44.885v2.051Zm0,2.775V88.631H44.885v2.051Zm8.251,5.339a1.873,1.873,0,0,0-.492.5q-.1.171-.171.171a.426.426,0,0,1-.205-.123A13.19,13.19,0,0,1,52.288,93.9a13.335,13.335,0,0,1-3.008,2.748.5.5,0,0,1-.226.109q-.068,0-.185-.2a1.522,1.522,0,0,0-.4-.444,10.717,10.717,0,0,0,3.315-2.98,14.284,14.284,0,0,1-1.846-5.756q-.4.007-.718.021L49,87.407q-.116,0-.116-.109v-.608q0-.1.116-.1l1.675.027h3.254a.689.689,0,0,0,.308-.041.273.273,0,0,1,.164-.055q.116,0,.41.294.253.253.253.4,0,.055-.144.219a1.252,1.252,0,0,0-.164.533A13.382,13.382,0,0,1,52.794,93.2,12.147,12.147,0,0,0,55.679,96.021ZM53.956,87.38H50.75A13.32,13.32,0,0,0,52.288,92.4,12.3,12.3,0,0,0,53.956,87.38Zm9.324,3.76-.082.827A11.168,11.168,0,0,1,62.357,96a1.634,1.634,0,0,1-1.538.745q-.629,0-1.135-.041-.212-.021-.253-.075a.572.572,0,0,1-.068-.246,2.485,2.485,0,0,0-.2-.649,12.041,12.041,0,0,0,1.483.144,1.026,1.026,0,0,0,.9-.294,9.7,9.7,0,0,0,.786-3.814H58.393l-.267.937a.149.149,0,0,1-.15.13,2.371,2.371,0,0,1-.321-.041q-.4-.068-.4-.15a.325.325,0,0,1,.021-.089,18.947,18.947,0,0,0,.786-3.288,7.3,7.3,0,0,0,.089-1,.121.121,0,0,1,.137-.137l1.3.027h2.481v-2.29H59.274l-1.538.027a.1.1,0,0,1-.109-.109v-.595a.1.1,0,0,1,.109-.109l1.538.027h2.058l1.518-.027q.1,0,.1.109l-.027,1.21v1.21l.027,1.189q0,.109-.1.109l-1.518-.027H58.967q-.171,1.176-.4,2.16h3.063l1.531-.027A.109.109,0,0,1,63.28,91.14Zm4.457-6.549a.908.908,0,0,1-.068.253,7.528,7.528,0,0,0-.13,1.832v7.841l.027,2.352a.1.1,0,0,1-.109.109h-.718a.1.1,0,0,1-.109-.109l.027-2.338v-7.8a12.233,12.233,0,0,0-.137-2.338q.677.027,1.046.082Q67.737,84.5,67.737,84.591Zm15.449,6.754q0,.123-.1.123L81.1,91.44H78.148a33.121,33.121,0,0,1-1.429,3.849q2-.178,4.354-.547A20.523,20.523,0,0,0,79.8,93.136a.155.155,0,0,1-.048-.089q0-.055.137-.137l.349-.212a.231.231,0,0,1,.123-.055.114.114,0,0,1,.075.041,21.28,21.28,0,0,1,2.584,3.541.168.168,0,0,1,.027.075q0,.055-.116.137l-.4.253a.454.454,0,0,1-.185.1q-.034,0-.068-.068-.376-.711-.752-1.285-2.687.437-6.46.861a1.571,1.571,0,0,0-.567.13,1.187,1.187,0,0,1-.226.1q-.13,0-.185-.185-.15-.506-.226-.875.82,0,1.429-.041l.506-.041a26.784,26.784,0,0,0,1.415-3.937H76l-1.989.027q-.116,0-.116-.123V90.75q0-.109.116-.109L76,90.668h1.859v-2.55h-1.2l-1.894.027a.1.1,0,0,1-.109-.109v-.595a.1.1,0,0,1,.109-.109l1.894.027h1.2v-1a14.569,14.569,0,0,0-.082-1.825,8.168,8.168,0,0,1,.909.075q.171.021.171.123a.908.908,0,0,1-.068.253,5.7,5.7,0,0,0-.089,1.34v1.039h1.764l1.907-.027a.1.1,0,0,1,.109.109v.595a.1.1,0,0,1-.109.109l-1.907-.027H78.7v2.55H81.1l1.989-.027q.1,0,.1.109Zm-9.714,1.5q-.451,1.367-1.271,3.288a3.563,3.563,0,0,0-.239.629q-.027.171-.116.171a.448.448,0,0,1-.205-.068,6.974,6.974,0,0,1-.677-.465,5.964,5.964,0,0,0,.636-1.032,18.981,18.981,0,0,0,1.271-3.363,2.362,2.362,0,0,0,.479.424q.178.109.178.191A1.091,1.091,0,0,1,73.473,92.849Zm.561-6.562a.161.161,0,0,1,.048.1.292.292,0,0,1-.089.164l-.308.376q-.1.109-.137.109a.149.149,0,0,1-.089-.055A9.318,9.318,0,0,0,71.6,85.377q-.062-.041-.062-.075t.1-.137l.308-.321q.089-.1.144-.1a.182.182,0,0,1,.082.034A9.842,9.842,0,0,1,74.033,86.286ZM73.3,89.7a.149.149,0,0,1,.055.089q0,.034-.068.109l-.335.39q-.123.15-.157.15a.157.157,0,0,1-.082-.048A9.855,9.855,0,0,0,70.8,88.843q-.068-.034-.068-.068t.082-.123l.294-.349q.068-.1.137-.1a.268.268,0,0,1,.089.021A11.4,11.4,0,0,1,73.3,89.7Zm15.053,2.734.957.082a5.457,5.457,0,0,0-.157,1.258,1.054,1.054,0,0,0,.444.978,3.167,3.167,0,0,0,1.545.273,25.984,25.984,0,0,0,2.769-.144l.027,1.012q-1.025.082-2.659.082a4.349,4.349,0,0,1-2.44-.492,1.783,1.783,0,0,1-.636-1.552A7.22,7.22,0,0,1,88.354,92.432Zm.28-4.676V86.8q1.75-.137,3.541-.137.889,0,1.668.041v.95q-.725-.055-1.764-.055Q90.289,87.6,88.635,87.756Zm-1.511-2.413a36.344,36.344,0,0,0-.786,6.61,24.829,24.829,0,0,0,.342,4.382l-1,.082a28.849,28.849,0,0,1-.321-4.491,40.268,40.268,0,0,1,.772-6.665Zm21.355,8.374a1.653,1.653,0,0,0-.362.5q-.1.212-.185.212a.844.844,0,0,1-.205-.055,9.993,9.993,0,0,1-2.42-1.053,7.528,7.528,0,0,1-1.531-1.3h-3.753a10.382,10.382,0,0,1-3.76,2.42.839.839,0,0,1-.212.062q-.082,0-.2-.185a1.8,1.8,0,0,0-.376-.451,9.806,9.806,0,0,0,3.541-1.846H97.692l-1.825.027q-.1,0-.1-.123v-.52q0-.109.1-.109l1.825.027h1.2V86.813h-.52l-1.921.027a.1.1,0,0,1-.109-.109v-.547a.1.1,0,0,1,.109-.109l1.921.027h.52v-.055a9.958,9.958,0,0,0-.089-1.654q.437.021.9.082.157.027.157.116a.335.335,0,0,1-.034.137.447.447,0,0,0-.048.116,5.406,5.406,0,0,0-.075,1.2V86.1h4.327v-.055a10.776,10.776,0,0,0-.082-1.654q.444.021.9.082.157.027.157.116a.853.853,0,0,1-.089.267,5.7,5.7,0,0,0-.068,1.189V86.1h.684l1.921-.027a.1.1,0,0,1,.109.109v.547a.1.1,0,0,1-.109.109l-1.921-.027h-.684v4.512h1.326l1.825-.027a.1.1,0,0,1,.109.109v.52q0,.123-.109.123l-1.825-.027h-1.442A8.307,8.307,0,0,0,108.479,93.717Zm-4.45-2.393V90.2H99.7v1.121Zm0-1.777V88.494H99.7v1.053Zm0-1.709V86.813H99.7v1.025Zm3.3,8.613a.1.1,0,0,1-.109.109l-1.935-.027h-6.72l-1.941.027q-.116,0-.116-.109v-.561q0-.109.116-.109l1.941.027h2.926V94.537h-1.1l-1.812.027q-.109,0-.109-.116v-.526q0-.116.109-.116l1.812.027h1.1v-.109a7.551,7.551,0,0,0-.082-1.2q.328.014.868.068.144.021.144.109a1.146,1.146,0,0,1-.062.2,2.876,2.876,0,0,0-.068.8v.137h1.162l1.818-.027a.1.1,0,0,1,.116.116v.526a.1.1,0,0,1-.116.116l-1.818-.027h-1.162v1.271h2.994l1.935-.027a.1.1,0,0,1,.109.109Zm9.577-11.915.718-.28a18.274,18.274,0,0,1,1.032,2.365l-.752.308A14.831,14.831,0,0,0,116.908,84.536Zm1.613-.4.7-.253a11.566,11.566,0,0,1,1,2.3l-.731.294A13.488,13.488,0,0,0,118.521,84.14ZM110.106,88.6l-.28-.971a34.129,34.129,0,0,1,5.626-.991,3.159,3.159,0,0,1,2.748,1.278,5.128,5.128,0,0,1,.793,3.035,4.653,4.653,0,0,1-.615,2.393,3.914,3.914,0,0,1-1.395,1.4,11.22,11.22,0,0,1-4.368,1.2l-.355-.923A9.745,9.745,0,0,0,116.17,94a3.367,3.367,0,0,0,1.764-3.09q0-3.377-2.577-3.377A26.394,26.394,0,0,0,110.106,88.6Zm16.3-3.657.9.615q-2.119,2.454-4.382,4.607a.681.681,0,0,0-.267.479q0,.226.376.513a45.7,45.7,0,0,1,4.9,4.71l-.868.725a50.559,50.559,0,0,0-5.024-5.065,1.118,1.118,0,0,1-.465-.841,1.139,1.139,0,0,1,.362-.827A64.9,64.9,0,0,0,126.4,84.939ZM142.263,96a2.512,2.512,0,0,0-.458.547q-.137.212-.2.212a.774.774,0,0,1-.212-.068,9.158,9.158,0,0,1-5.722-5.646h-.144a11.445,11.445,0,0,1-1.538,1.4V95.61a33.716,33.716,0,0,0,3.288-.9,1.9,1.9,0,0,0-.055.485.561.561,0,0,1-.055.267.671.671,0,0,1-.239.1,45.548,45.548,0,0,1-4.874,1.217,1.355,1.355,0,0,0-.574.171.277.277,0,0,1-.164.068.18.18,0,0,1-.171-.123,7.883,7.883,0,0,1-.253-.813,13.185,13.185,0,0,0,1.572-.178l.711-.13V93.006a15.137,15.137,0,0,1-3.008,1.483.8.8,0,0,1-.2.062q-.075,0-.2-.226a1.832,1.832,0,0,0-.39-.451,13.461,13.461,0,0,0,2.98-1.265,9.334,9.334,0,0,0,2.119-1.565h-3l-1.818.027a.1.1,0,0,1-.109-.109V90.4a.1.1,0,0,1,.109-.109l1.818.027h3.726V88.856H133.3l-1.955.027q-.13,0-.13-.109v-.547q0-.109.13-.109l1.955.027h1.907v-1.36h-2.5l-1.941.027q-.13,0-.13-.109v-.561q0-.109.13-.109l1.941.027h2.5v-.28a7.217,7.217,0,0,0-.1-1.429,8.641,8.641,0,0,1,.937.082q.171.021.171.13a.956.956,0,0,1-.082.253,2.88,2.88,0,0,0-.089.964v.28h2.687l1.976-.027a.1.1,0,0,1,.109.109V86.7a.1.1,0,0,1-.109.109l-1.976-.027h-2.687v1.36h2.2l1.969-.027q.116,0,.116.109v.547q0,.109-.116.109l-1.969-.027h-2.2v1.463H140l1.818-.027a.1.1,0,0,1,.109.109v.561a.1.1,0,0,1-.109.109L140,91.044h-3.5a7.754,7.754,0,0,0,1.408,2.311,13.785,13.785,0,0,0,1.572-1.374,2.088,2.088,0,0,0,.376-.547,8.029,8.029,0,0,1,.69.492q.109.082.109.157,0,.1-.171.164a1.316,1.316,0,0,0-.458.308,17.986,17.986,0,0,1-1.627,1.319A8.6,8.6,0,0,0,142.263,96Zm13.706-1.668a3.065,3.065,0,0,1-.574,1.75,1.739,1.739,0,0,1-.984.431,11.905,11.905,0,0,1-1.928.116,4.61,4.61,0,0,1-2.311-.321.809.809,0,0,1-.273-.465,3.591,3.591,0,0,1-.062-.779V91.27l-.027-1.531a.1.1,0,0,1,.109-.109l1.5.027h2.8V86.1h-2.755l-1.545.027a.1.1,0,0,1-.109-.109V85.4q0-.116.109-.116l1.545.027h1.941l1.572-.027q.109,0,.109.116l-.027,1.456v2.769l.027,1.456q0,.116-.109.116h-.649q-.109,0-.109-.116v-.643h-3.541v4.341q0,.684.157.82a3.6,3.6,0,0,0,1.743.226,3.5,3.5,0,0,0,2.188-.417,3.124,3.124,0,0,0,.39-1.736,1.709,1.709,0,0,0,.547.28.776.776,0,0,1,.232.109.2.2,0,0,1,.041.144Q155.976,94.236,155.969,94.332Zm-7.335,2.311a.1.1,0,0,1-.109.109H147.9a.1.1,0,0,1-.109-.109V96.1h-2.447v.786q0,.1-.109.1h-.615q-.116,0-.116-.1l.027-2.03V94L144.5,92.78a.1.1,0,0,1,.109-.109l1.292.027h1.313l1.306-.027a.1.1,0,0,1,.109.109l-.027,1v.9Zm-.841-1.23v-2.03h-2.447v2.03Zm1.524-7.725q0,.123-.1.123l-1.586-.027h-2.249l-1.586.027q-.1,0-.1-.123v-.595a.085.085,0,0,1,.1-.1l1.586.027h2.249L149.222,87a.085.085,0,0,1,.1.1Zm-.52-1.921q0,.109-.123.109l-1.3-.027H145.92l-1.319.027a.1.1,0,0,1-.109-.109v-.561a.1.1,0,0,1,.109-.109l1.319.027h1.456l1.3-.027q.123,0,.123.109Zm-.273,3.808q0,.109-.13.109l-1.189-.027h-1.258l-1.2.027q-.116,0-.116-.109v-.547q0-.109.116-.109l1.2.027h1.258l1.189-.027q.13,0,.13.109Zm0,1.887q0,.1-.13.1l-1.189-.014h-1.258l-1.2.014q-.116,0-.116-.1v-.54a.1.1,0,0,1,.116-.116l1.2.027h1.258l1.189-.027q.13,0,.13.116ZM3.555,119.093V116.83h.964v2.208q1.511-.1,2.591-.219v.909q-1.224.123-2.591.205v2.707a8.692,8.692,0,0,1,2.646-.479,2.9,2.9,0,0,1,2.577,1.169,3.273,3.273,0,0,1,.533,1.894,2.654,2.654,0,0,1-1.3,2.591,6.067,6.067,0,0,1-2.707.465v-.9a3.954,3.954,0,0,0,2.167-.444,2.048,2.048,0,0,0,.772-1.825,2.11,2.11,0,0,0-.6-1.524,1.724,1.724,0,0,0-1.285-.561,7.651,7.651,0,0,0-2.8.533v3.609a1.437,1.437,0,0,1-.273,1,1.054,1.054,0,0,1-.786.26,2.259,2.259,0,0,1-1.189-.376,2.427,2.427,0,0,1-1.347-2.03q0-1.736,2.632-3.049v-3q-.813.048-2.434.075v-.9Q2.434,119.154,3.555,119.093Zm0,4.9a5.118,5.118,0,0,0-1.306,1.019,1.511,1.511,0,0,0-.39.984,1.078,1.078,0,0,0,.335.759,1.888,1.888,0,0,0,.69.458.9.9,0,0,0,.39.1q.28,0,.28-.465Zm3.9-5.64.6-.731a12.831,12.831,0,0,1,2.816,2.229l-.684.772A11,11,0,0,0,7.458,118.354Zm16.44,9.058a1.3,1.3,0,0,1-.362,1.066,1.175,1.175,0,0,1-.6.232,9.388,9.388,0,0,1-1.135.048.409.409,0,0,1-.239-.041.64.64,0,0,1-.082-.226,2.251,2.251,0,0,0-.253-.615,9.618,9.618,0,0,0,1.06.055.893.893,0,0,0,.629-.15.833.833,0,0,0,.116-.526v-5.934h-2.5l-1.518.027q-.123,0-.123-.109l.027-1.21v-1.8l-.027-1.2q0-.109.123-.109l1.518.027h1.729l1.518-.027a.1.1,0,0,1,.109.109l-.027,2v6.357Zm-.868-6.761v-1.224H19.715v1.224Zm0-1.894v-1.135H19.715v1.135Zm-5.462,2.481a.1.1,0,0,1-.109.109l-1.4-.027H13.61v4.594l.027,2.912a.1.1,0,0,1-.109.109h-.663a.1.1,0,0,1-.109-.109l.027-2.912v-5.954l-.027-2.939a.1.1,0,0,1,.109-.109l1.586.027h1.606l1.4-.027a.1.1,0,0,1,.109.109l-.027,1.285v1.641Zm-.827-.588v-1.224H13.61v1.224Zm0-1.894v-1.135H13.61v1.135Zm3.842,8.333a.1.1,0,0,1-.116.116h-.588q-.123,0-.123-.116v-.684H16.734v.937q0,.116-.109.116h-.6a.1.1,0,0,1-.116-.116l.027-2.222v-.984l-.027-1.388a.1.1,0,0,1,.109-.109l1.442.027h1.572l1.442-.027a.1.1,0,0,1,.109.109l-.027,1.148v1.053Zm-.827-1.381v-2.345H16.734v2.345Zm10.726-1.422.854.615q-.677,3.377-2.27,3.377a1.651,1.651,0,0,1-1.538-1.019,9.207,9.207,0,0,1-.718-3.227q-.109-1.312-.109-3.541l.014-2.632h1.012l-.021,2.188q0,2.646.116,3.9.267,3.22,1.217,3.22.485,0,.813-.711A11.913,11.913,0,0,0,30.481,124.288Zm2.1-5.346.909-.267a17.059,17.059,0,0,1,2.427,7.574l-1.053.171A17.589,17.589,0,0,0,32.58,118.942Zm15.176,9.8q0,.109-.123.109H46.97a.1.1,0,0,1-.109-.109v-.574H40.646v.643q0,.1-.109.1H39.86q-.109,0-.109-.1l.027-2.434v-1.135l-.027-1.572a.1.1,0,0,1,.109-.109l1.935.027h3.917l1.921-.027q.123,0,.123.109l-.027,1.374v1.285Zm-.9-1.333V124.35H40.646v3.063Zm3.541-5.824a2.1,2.1,0,0,0-.39.561q-.1.226-.185.226a.5.5,0,0,1-.219-.082,13.359,13.359,0,0,1-5.927-4.819,15.255,15.255,0,0,1-5.694,4.9.781.781,0,0,1-.212.082q-.062,0-.185-.2a1.858,1.858,0,0,0-.431-.5,12.624,12.624,0,0,0,5.742-4.737,3.55,3.55,0,0,0,.39-.793q.526.082.868.164.2.062.2.157a.208.208,0,0,1-.1.164l-.123.116A13.2,13.2,0,0,0,50.4,121.588Zm-3.794.1a.1.1,0,0,1-.109.109l-1.641-.027H42.622l-1.641.027a.1.1,0,0,1-.109-.109v-.608a.1.1,0,0,1,.109-.109l1.641.027h2.235l1.641-.027a.1.1,0,0,1,.109.109Zm8.374-4.977q-.062,1.073-.1,2.188l.444-.027.144.513q-.506.9-.649,1.237l-.014.191-.109.506.239-.417A4.712,4.712,0,0,1,58.44,119a2.9,2.9,0,0,1,2.755,1.668,5.864,5.864,0,0,1,.588,2.728q0,4.238-4.368,4.833l-.458-.827a4.592,4.592,0,0,0,2.96-1.347,4,4,0,0,0,.82-2.687,4.4,4.4,0,0,0-.711-2.591,1.942,1.942,0,0,0-1.641-.923,3.126,3.126,0,0,0-1.818.567,9.108,9.108,0,0,0-1.757,1.743q-.014.786-.014,2.7,0,2.687.014,3.739h-.964q0-3.179.041-4.771l.089-.9-.342.766q-.1.2-1.408,2.646l-.745-.67q1.169-2.126,2.42-4.225l.027-1.627q-.144.014-.54.062-.909.1-1.613.191l-.068-.827q.971-.082,2.235-.226.014-.752.062-2.311Zm15.647,4.129q-1.989.089-3.931.212-.041,1.723-.041,3.083a15.213,15.213,0,0,0,.109,2.488,1.01,1.01,0,0,0,.745.67,6.092,6.092,0,0,0,1.675.171,32.991,32.991,0,0,0,3.363-.164v.978q-1.743.1-3.336.1a6.145,6.145,0,0,1-2.536-.383,1.543,1.543,0,0,1-.848-1.019,14.347,14.347,0,0,1-.13-2.611q0-.854.034-3.24-1.456.116-2.2.185V120.4l1.2-.082q.643-.041,1.019-.075.027-.984.055-3.008h.978q-.062,2.3-.068,2.953,2.687-.144,3.931-.191.027-1.08,0-3.24h.984q0,1.579-.041,3.192.355-.014,1.128-.034.656-.021,1.012-.034v.9l-2.153.041q-.048,1.675-.171,2.912-.13,1.36-1.271,1.36a4.812,4.812,0,0,1-1.907-.376v-1.025a3.665,3.665,0,0,0,1.668.41q.492,0,.574-.7Q70.588,122.319,70.629,120.843Z"
							transform="translate(-0.533 11.758)" fill="#fff" />
					</svg>