<svg xmlns="http://www.w3.org/2000/svg" xmlns:xlink="http://www.w3.org/1999/xlink" width="257.924" height="97.441" viewBox="0 0 257.924 97.441">
  <defs>
    <clipPath id="clip-path">
      <rect id="Прямоугольник_74" data-name="Прямоугольник 74" width="246.166" height="28.441" transform="translate(0 0)" fill="none"/>
    </clipPath>
    <clipPath id="clip-path-2">
      <rect id="Прямоугольник_75" data-name="Прямоугольник 75" width="257.924" height="55.791" fill="none"/>
    </clipPath>
  </defs>
  <g id="Сгруппировать_374" data-name="Сгруппировать 374" transform="translate(-58.538 -4497)">
    <g id="Сгруппировать_103" data-name="Сгруппировать 103" transform="translate(65 4566)">
      <path id="Контур_1736" data-name="Контур 1736" d="M5.91-7.072q1-.216,2.083-.374t2.847-.34a5.5,5.5,0,0,1-.606-.722q-.374-.506-1.1-1.469a2.217,2.217,0,0,1-.349-.747.517.517,0,0,1,.149-.481.279.279,0,0,1,.282-.075.5.5,0,0,1,.266.158,4.861,4.861,0,0,1,.548.647,3.055,3.055,0,0,0,.448.631,1.228,1.228,0,0,0,.141-.465,6.624,6.624,0,0,0,.008-.78,2.35,2.35,0,0,1,.025-.349.363.363,0,0,1,.208-.266.614.614,0,0,1,.631.315,1.431,1.431,0,0,1,.149.714,10.623,10.623,0,0,1-.4,1.826q.332.481.946,1.212l.232.266q.8.9,1.652,1.834A9.47,9.47,0,0,0,15.215-4.4a6.014,6.014,0,0,1,.805.73.563.563,0,0,1,.232.382.536.536,0,0,1-.232.631.3.3,0,0,1-.291-.017,1.048,1.048,0,0,1-.257-.216Q13.5-4.864,11.438-7.205q-.116-.116-.232-.249a2.235,2.235,0,0,1,.033.365.934.934,0,0,1-.066.266q-.083.232-.448.149l-.183-.017a8.553,8.553,0,0,0-1.594.083A11.476,11.476,0,0,0,7.4-6.284q-.647.191-.9.274a.552.552,0,0,1-.481-.058,1.189,1.189,0,0,1-.415-.523q-.332.481-.979,1.378T3.154-3.071q-.365.548-.747,1.079-.448.647-.9,1.245-.382.515-.8.066A1.3,1.3,0,0,1,.531-.913a.285.285,0,0,1-.017-.249A.96.96,0,0,1,.7-1.411q.847-1.162,1.876-2.623T4.316-6.516q.714-1.021.913-1.336-.149-.116-.3-.257a6.246,6.246,0,0,1-.481-.556A.873.873,0,0,1,4.316-9a.515.515,0,0,1,.1-.382A.321.321,0,0,1,4.765-9.5a1,1,0,0,1,.382.141,5.7,5.7,0,0,0,.747.548,14.807,14.807,0,0,0,1.345-2.357,2.238,2.238,0,0,0-.73.149q-.515.166-1.312.5a.609.609,0,0,1-.5.2q-.2-.05-.382-.382a.807.807,0,0,1-.2-.506q.033-.158.481-.357,1.411-.415,2.756-.863a1.1,1.1,0,0,1,.315-.05.926.926,0,0,1,.6.232.635.635,0,0,1,.232.681,7.941,7.941,0,0,1-.764,1.677q-.548.946-1.029,1.7A10.188,10.188,0,0,1,5.91-7.072Zm5.047,3.636a1.889,1.889,0,0,1-.116.589.607.607,0,0,1-.415.357q-1.395.365-2.855.764a1.169,1.169,0,0,1-.5-.116,2.707,2.707,0,0,1-.83-.963,8.86,8.86,0,0,1-.415-1.162q-.083-.332-.183-.714.083-.448.34-.473A.9.9,0,0,1,6.541-5,10.762,10.762,0,0,1,8.3-5.4q1.229-.216,1.926-.266a1.97,1.97,0,0,1,1.112.149.514.514,0,0,1,.34.349,1,1,0,0,1-.058.506A8.658,8.658,0,0,1,10.957-3.437Zm-.5-1.328a8.413,8.413,0,0,0-1.951.257,13.594,13.594,0,0,0-1.668.49A2.511,2.511,0,0,0,7-3.237a1.371,1.371,0,0,0,.407.531q1.1-.249,1.519-.357a4.862,4.862,0,0,0,.9-.34A3.113,3.113,0,0,0,10.459-4.765ZM7.919.73A5.745,5.745,0,0,1,6.956.282a4.009,4.009,0,0,1-.93-1.046.529.529,0,0,1,.033-.481.416.416,0,0,1,.3-.125.691.691,0,0,1,.3.091,1.583,1.583,0,0,1,.6.432,3.006,3.006,0,0,0,.556.639A1.53,1.53,0,0,0,8.434.1Q9.662-.946,10.525-1.826a1,1,0,0,1,.291-.3.338.338,0,0,1,.39.017,1.2,1.2,0,0,1,.4.374.343.343,0,0,1,.017.457,3.712,3.712,0,0,1-.556.573q-.374.324-.822.689a12.984,12.984,0,0,1-1.112.8q.714-.1,1.461-.2T11.986.4A2.634,2.634,0,0,1,12.6.564q.282.116.266.274a.464.464,0,0,1-.125.274q-.108.116-.573.116-1.561.166-3.1.481a16.38,16.38,0,0,0-1.776.415q-.232.1-.681.315a1,1,0,0,1-.506.075q-.158-.042-.523-.623a.41.41,0,0,1,.066-.39.535.535,0,0,1,.365-.208q.747-.149,1.511-.332A2.348,2.348,0,0,0,7.919.73Zm5.2-8.716a.918.918,0,0,1-.183-.083q-.4-.166-.349-.365.116-.216.44-.7t.822-1.2a.446.446,0,0,1,.7-.083.727.727,0,0,1,.033,1.162q-.249.282-.5.531-.116.1-.216.2A3.081,3.081,0,0,1,13.115-7.985Zm11.7,3.254q1.063-.415,1.934-.772t1.668-.714a9.23,9.23,0,0,0,1.229-.639,2.393,2.393,0,0,0,.266-.614,2.69,2.69,0,0,0,.1-.631v-.183a.912.912,0,0,0-.423.091q-.257.108-.8.365t-1.336.623a.905.905,0,0,1-.564-.05q-.315-.083-.315-.332a1.6,1.6,0,0,1,.1-.531q1.577-.515,2.407-.805a5.68,5.68,0,0,0,1.129-.49,5.513,5.513,0,0,0,.133-.863,1.5,1.5,0,0,0-.033-.7,13.484,13.484,0,0,0-2.05.689,11.682,11.682,0,0,0-1.519.706q-.2.066-.374.141a.483.483,0,0,1-.382-.008.427.427,0,0,1-.266-.307q-.058-.224-.108-.39a14.306,14.306,0,0,1,1.951-.88q1.187-.448,2.914-1.1a.9.9,0,0,1,.249-.033,1.163,1.163,0,0,1,.365.066.589.589,0,0,1,.332.6,12.979,12.979,0,0,1-.083,1.942q-.033.349-.083.714-.1.714-.232,1.527a2.707,2.707,0,0,1,.714-.149.633.633,0,0,1,.5.349.417.417,0,0,1-.042.332.385.385,0,0,1-.34.183q-.548.232-1.511.548l.166.216q-.017.548-.083,1.1A9.443,9.443,0,0,0,30.364-3.6q-.033,1.66-.158,2.93t-.241,2.1a.528.528,0,0,1-.432.614.716.716,0,0,1-.714-.149q-.183-.183-.448-.415a1.21,1.21,0,0,1-.365-.656,4.119,4.119,0,0,1-.083-1.038,4.435,4.435,0,0,1,1.029.963A1.789,1.789,0,0,0,29.069.2q.05-.432.116-1.046a11.27,11.27,0,0,0,.066-1.212q-.664.681-.979,1.029T26.712.548a.939.939,0,0,1-.73.232.575.575,0,0,1-.465-.4.83.83,0,0,1,.133-.515q1.162-.979,2.108-1.635a17.451,17.451,0,0,1,1.594-1q.033-1.428.033-2.839-.166.066-.979.415t-1.461.656q-.647.307-.963.49l-.415.166q-.149.066-.481-.241A.642.642,0,0,1,24.819-4.731Zm6.79,2.357a9.92,9.92,0,0,1,1.22.847A11.884,11.884,0,0,1,33.983-.3q-.1.332-.3.374A.858.858,0,0,1,33.261.05a.666.666,0,0,1-.324-.183q-.432-.4-.921-.772a12.8,12.8,0,0,0-1.087-.739q-.9-.249-.332-1.062,1-1.295,2.009-2.59a.421.421,0,0,1,.2-.174.342.342,0,0,1,.282-.025.569.569,0,0,1,.415.432.92.92,0,0,1-.166.531q-.564.7-1.179,1.411Q31.858-2.706,31.609-2.374Zm-3.6-.2a.6.6,0,0,1-.78.133,4.731,4.731,0,0,0-.564-.374,1.938,1.938,0,0,1-.415-.291.4.4,0,0,1-.149-.307.833.833,0,0,1,.1-.44.854.854,0,0,1,.581-.05,2.883,2.883,0,0,1,.8.523A1.679,1.679,0,0,1,28.007-2.573ZM22.3-9.662a14.417,14.417,0,0,0-1.054,1.619q-.523.921-1,1.718,1.776-.432,3.088-.8a1.514,1.514,0,0,1,.423-.1q.208-.017.332.291a2.283,2.283,0,0,1,.158.589,14.478,14.478,0,0,1-1.411.448,6.005,6.005,0,0,1,.066.913l.664-.133a.873.873,0,0,1,.349.531l.05.166q0,.249-.183.3-.448.149-.913.315-.066.83-.1,2.274.3-.631.481-1.121a10.1,10.1,0,0,1,.432-.988,1.249,1.249,0,0,1,.581.108.753.753,0,0,1,.374.291.4.4,0,0,1-.075.415q-.764,1.378-1.411,2.44.515-.116,1.1-.232a.658.658,0,0,1,.166.291A.359.359,0,0,1,24.346,0a.443.443,0,0,1-.291.183,5.964,5.964,0,0,1-1,.481q-.963.432-1.942.9a.917.917,0,0,1-.8.033.847.847,0,0,1-.291-.174.329.329,0,0,1-.116-.307q.025-.183.058-.382A17.114,17.114,0,0,0,21.765.166q-.033-.4-.05-.78a2.212,2.212,0,0,1-1.494-.813,2.419,2.419,0,0,1-.208-.415.677.677,0,0,1-.058-.382q.05-.149.349-.158a.666.666,0,0,1,.465.133,1.272,1.272,0,0,1,.274.324,2.8,2.8,0,0,0,.772.6,10.05,10.05,0,0,0-.033-2.042l-.017-.149-.664.174a1.219,1.219,0,0,1-.515.008.638.638,0,0,1-.432-.614.271.271,0,0,1,.166-.282,1.228,1.228,0,0,1,.3-.083Q21.2-4.5,21.848-4.7a3.119,3.119,0,0,0-.116-.88,7.213,7.213,0,0,0-1.021.232.484.484,0,0,1-.432-.042.879.879,0,0,1-.357-.39,12.766,12.766,0,0,0-.672,1.154,11.584,11.584,0,0,0-.689,1.453,3.233,3.233,0,0,0-.216.847.87.87,0,0,1-.208.374.357.357,0,0,1-.39.108.591.591,0,0,1-.564-.747q.066-.166.407-.872T19.4-6.807q1.469-2.64,1.917-3.337t.647-1.013q.216-.332.332-.332a.766.766,0,0,1,.3.083.935.935,0,0,1,.315.232.683.683,0,0,1,.166.349,1.773,1.773,0,0,1-.332.465q.78.813,1.32,1.419t.838.888a.587.587,0,0,1,.1.7.493.493,0,0,1-.457.008.935.935,0,0,1-.34-.257q-.83-.88-1.627-1.76Q22.412-9.529,22.3-9.662Zm16.8,7.72a2.627,2.627,0,0,0,.614.149,5.541,5.541,0,0,0,1.544-1.66,6.8,6.8,0,0,0,.681-1.5,5.1,5.1,0,0,0,.183-.855q.033-.249-.374-.34a2.932,2.932,0,0,0-.822-.066,4.5,4.5,0,0,0-1.129.274q-.315.664-.681,1.61t-.855,2.059q-.49,1.112-.639,1.494-.2.382-.349.39a1.117,1.117,0,0,1-.34-.042A.593.593,0,0,1,36.6-.681a.455.455,0,0,1-.075-.415A10.656,10.656,0,0,1,37-2.349q.39-.921.639-1.527T38.283-5.4a4.647,4.647,0,0,0-.747.349,7.1,7.1,0,0,0-.88.581.637.637,0,0,1-.564.183,1.181,1.181,0,0,1-.481-.249.666.666,0,0,1-.249-.349q-.033-.166.3-.432a9.6,9.6,0,0,1,1.37-.755q.689-.307,1.785-.689.4-1.046.714-1.826a.831.831,0,0,1,.158-.3A.387.387,0,0,1,39.943-9h.017a.73.73,0,0,1,.3.066,1.14,1.14,0,0,1,.315.291.552.552,0,0,1,.158.34.793.793,0,0,1-.091.3q-.183.432-.432.963a4.256,4.256,0,0,1,1.444-.083,1.539,1.539,0,0,1,1.112.623,1.668,1.668,0,0,1,.365,1.1,4.721,4.721,0,0,1-.349,1.361A8.087,8.087,0,0,1,41.8-2.291,5.858,5.858,0,0,1,40.392-.847a.727.727,0,0,1-.813.083,1.061,1.061,0,0,1-.448-.573A.969.969,0,0,1,39.1-1.942Zm5.313-6.325a.954.954,0,0,1,.6.133,1.243,1.243,0,0,1,.448.448q.647.83,1.17,1.486t.963,1.129a6.982,6.982,0,0,0,.955.855.582.582,0,0,1,.183.382.343.343,0,0,1-.191.3.556.556,0,0,1-.39.083.593.593,0,0,1-.349-.2,8.205,8.205,0,0,1-1.411-1.361q-.8-.93-1.843-2.274a1.043,1.043,0,0,1-.3-.49A.432.432,0,0,1,44.409-8.268ZM57.242-3.752a.79.79,0,0,0-.672-.133A9.579,9.579,0,0,0,55.15-3.5a9.224,9.224,0,0,0-2.291,1.245q-.6.465-.946-.149a1.21,1.21,0,0,1-.249-.714,18.894,18.894,0,0,1,.448-2.416,15.863,15.863,0,0,1,.681-2.2q.2-.315.448-.241a1.008,1.008,0,0,1,.49.407.627.627,0,0,1,.166.548,1.517,1.517,0,0,1-.208.4,10.785,10.785,0,0,0-.548,1.494q-.2.714-.349,1.461,1.062-.448,1.826-.722a9.349,9.349,0,0,1,1.312-.382,3.473,3.473,0,0,1,1.1-.042,1.559,1.559,0,0,1,1.137.714,1.528,1.528,0,0,1,.174,1.361,10.759,10.759,0,0,1-.755,1.718A10.207,10.207,0,0,1,56.213.747q-.631.614-1.013-.166A.556.556,0,0,1,55.333-.1a10.318,10.318,0,0,0,1.3-1.428A6.034,6.034,0,0,0,57.2-2.648,1.358,1.358,0,0,0,57.242-3.752Zm-2.158-7.587a5.619,5.619,0,0,1,1.278,1.013,9.44,9.44,0,0,1,.863.971.933.933,0,0,1,.2.589.953.953,0,0,1-.332.481.665.665,0,0,1-.531-.232,5.13,5.13,0,0,0-1.121-1.229,4.565,4.565,0,0,1-.739-.647,1.955,1.955,0,0,1-.141-.4.476.476,0,0,1,.075-.415A.571.571,0,0,1,55-11.339Zm10.442,3.47,1.934-.473q.921-.224,1.187-.324a.692.692,0,0,1,.83.465.477.477,0,0,1-.149.6,2.269,2.269,0,0,1-.614.05q-.365.05-.913.149a.511.511,0,0,1,.075.631q-.174.4-.349.855t-.357.872a1.179,1.179,0,0,1,.73-.083.946.946,0,0,1,.266.1,1.074,1.074,0,0,1,.282.2q.116.4-.2.523t-.739.257q-.423.133-.838.282a7.217,7.217,0,0,0-.1,1.444,4.869,4.869,0,0,0,.813-.224,5.145,5.145,0,0,1,.764-.224.692.692,0,0,1-.05.78,4.332,4.332,0,0,1-.88.531,3.73,3.73,0,0,0-.714.4A16.291,16.291,0,0,0,66.381.714a4.318,4.318,0,0,0,.125,1.245,2.349,2.349,0,0,1-.033.564A.8.8,0,0,1,66,2.606a.5.5,0,0,1-.374-.249.98.98,0,0,1-.149-.448,7.918,7.918,0,0,1-.1-.913q-.033-.548,0-1.627-.614.282-.988.473T63.667.2a.775.775,0,0,1-.83.017,2.334,2.334,0,0,1-.282-.3.468.468,0,0,1-.033-.432q1.262-.647,2.922-1.361.033-.7.033-.979t-.017-.581l-.116.033a5.912,5.912,0,0,0-.913.382q-.5.249-1.146.5a.741.741,0,0,1-.515-.133,2.052,2.052,0,0,1-.274-.506.329.329,0,0,1,.141-.324q.9-.332,1.2-.465a13.068,13.068,0,0,1-.349-2.241l-.764.3q-.3.116-.83.315-.3.083-.7-.515-.183-.481.382-.581.764-.249,1.561-.481T64.281-7.5a12.366,12.366,0,0,0,.282-1.3,3.8,3.8,0,0,0,.05-.722,7.225,7.225,0,0,1-1.395.282.589.589,0,0,1-.664-.2.863.863,0,0,1-.224-.307.51.51,0,0,1-.008-.374q.083-.149.432-.208t.9-.125a7.134,7.134,0,0,0,1.087-.216q.033-.415.042-.672t.008-.639a1.02,1.02,0,0,1,.349-.066.623.623,0,0,1,.282.066.713.713,0,0,1,.382.39,2.519,2.519,0,0,1,.166.656,3.828,3.828,0,0,1,.515-.141,3.149,3.149,0,0,0,.564-.174.575.575,0,0,1,.78.315q.349.614-.349.764a9.029,9.029,0,0,1-1.677.382Q65.676-8.616,65.526-7.869Zm1.361.6a22.892,22.892,0,0,0-2.191.664A7.638,7.638,0,0,0,64.613-5.5a6.224,6.224,0,0,0,.133,1.212q.83-.266,1.411-.5.365-1.229.523-1.6A3.038,3.038,0,0,0,66.888-7.271Zm6.84,7.188q-.531.548-.755.739t-.44.357a2.874,2.874,0,0,1-.49.133.549.549,0,0,1-.415-.116,2.526,2.526,0,0,1-.423-.4A7.328,7.328,0,0,0,72.051.05q.183-.166.457-.4a1.684,1.684,0,0,0,.407-.481q-.8-.963-1.461-1.76a1.857,1.857,0,0,1-.4.216,10.556,10.556,0,0,0-.332,2.233,9.148,9.148,0,0,0,.116,1.5.472.472,0,0,1-.415.548.57.57,0,0,1-.664-.315,2.994,2.994,0,0,1-.116-.448,15.023,15.023,0,0,1,.208-2.864q.241-1.419.473-2.963.133-.847.282-1.76.149-.78.315-1.627a2.453,2.453,0,0,0-.017-.515,2.023,2.023,0,0,1-.4.158q-.166.042-.515-.241a.845.845,0,0,1-.033-.83,5.363,5.363,0,0,1,.9-.332,22.635,22.635,0,0,1,2.681-.855,8.086,8.086,0,0,1,2.183-.291,1.013,1.013,0,0,1,.523.166.556.556,0,0,1,.291.465,1.123,1.123,0,0,1-.05.515v.017a20.14,20.14,0,0,1-.813,2.158,9.318,9.318,0,0,1-1.212,1.992,1.527,1.527,0,0,1-1.345.647.892.892,0,0,1-.656-.324q-.34-.34-.3-.54t.307-.108a.861.861,0,0,0,.681-.141,5.1,5.1,0,0,0,.78-.631,4.378,4.378,0,0,0,.73-1.179q.332-.7.481-1.112l.05-.166a1.238,1.238,0,0,0,.066-.664,5.019,5.019,0,0,0-1.776.191,12.205,12.205,0,0,0-1.295.49q-.232,1.1-.415,2.092-.349,1.826-.515,3.3.282-.116.913-.357t1.527-.548a14.128,14.128,0,0,1,1.419-.423,5.919,5.919,0,0,1,.755-.133.949.949,0,0,1,.523.125.5.5,0,0,1,.266.457,1.3,1.3,0,0,1-.091.548,6.325,6.325,0,0,1-.647,1.345A13.14,13.14,0,0,1,74.358-.847q.481.415.921.805A5.84,5.84,0,0,0,76.2.631a.777.777,0,0,1,.232.88,1.3,1.3,0,0,1-.564-.05A12.584,12.584,0,0,1,74.583.672,7.982,7.982,0,0,1,73.728-.083ZM75.338-4.1a5.728,5.728,0,0,0-1.436.357q-.988.34-1.751.656a1.207,1.207,0,0,1,.374.266q.158.166.54.614a6.736,6.736,0,0,0,.647.681q.481-.6.913-1.237A7.231,7.231,0,0,0,75.338-4.1Zm11.04-2.872a4.717,4.717,0,0,0-.415.979q-.1.349-.183.614-.066.249-.116.432a.414.414,0,0,1-.432.365.391.391,0,0,1-.432-.232l-.033-.066a.909.909,0,0,1-.017-.515,9.959,9.959,0,0,0,.581-1.693,4.7,4.7,0,0,1,.249-.88.979.979,0,0,1,.191-.357.44.44,0,0,1,.357-.174q.216,0,.415.017a7.641,7.641,0,0,0,.116-1.079q0-.349-.017-.847a1.185,1.185,0,0,0-.058-.34.229.229,0,0,1,.108-.291.918.918,0,0,1,.631.083.564.564,0,0,1,.365.614q-.1,1.212-.183,2.175-.066.979-.149,1.876-.116,1.328-.249,2.474-.2,1.909-.465,4.1L86.61,1.1q-.083.581-.614.382A.807.807,0,0,1,85.581.7q.515-3.553.647-5.263.066-.647.1-1.129Q86.378-6.541,86.378-6.973Zm3.154,1.212a2.554,2.554,0,0,1-1.179-.448,1.884,1.884,0,0,1-.4-.432,2.877,2.877,0,0,1-.332-.548.5.5,0,0,1,.73-.2,2.074,2.074,0,0,1,.382.3l.133.116q.183.232.266.357a1.148,1.148,0,0,0,.448.291q.033-.3.1-1.312.083-1.013.1-1.776a7.965,7.965,0,0,0-.05-1.395q-.066-.581.515-.481a.715.715,0,0,1,.631.83Q90.794-9,90.744-8.367l-.017.133q-.05.664-.166,2.341-.133,1.843-.158,2.905t-.033,1.834A8.416,8.416,0,0,0,90.5.382.382.382,0,0,1,90.387.8a.39.39,0,0,1-.44.033.729.729,0,0,1-.531-.647q-.033-.481-.05-.963Q89.466-4.233,89.532-5.761Zm4.433-5.595L93.9-10.061q-.05.78-.083,1.561-.066,1.395-.042,3.287t.042,3.6q.017,1.71.149,3.154a1.084,1.084,0,0,1,.025.407q-.025.224-.291.257-.548,0-.689-.174a.944.944,0,0,1-.174-.506,3.2,3.2,0,0,0,.075-1.27,13.961,13.961,0,0,1-.042-2.15q.05-1.527-.042-2.963T92.77-7.9q.033-.764.05-1.544l.033-1.727q.017-.382.017-.78.033-.4.365-.4a.582.582,0,0,1,.183.033A.84.84,0,0,1,93.965-11.355Zm-3.071,4.4a1.119,1.119,0,0,1,.523-.249q.208-.017.623.4.232.382.481.764a.521.521,0,0,1,.066.365.406.406,0,0,1-.382.116,2.4,2.4,0,0,1-.8-.531A2.117,2.117,0,0,1,90.894-6.956ZM79.854-9.463a3.062,3.062,0,0,0-1,.382q-.332.116-.664-.266-.349-.448.2-.7a10.275,10.275,0,0,1,1.768-.664q1.17-.349,2.4-.73a.649.649,0,0,1,.581.149.8.8,0,0,1,.291.457.229.229,0,0,1-.166.3,3.269,3.269,0,0,1-.473.091,9.009,9.009,0,0,0-1.038.266,13.411,13.411,0,0,0-1.453.515q.465.133.54.349a2.01,2.01,0,0,1,.091.548q-.033.73-.017.913l.448-.133q.017-.847.033-1.129-.033-.6.531-.4a1.037,1.037,0,0,1,.374.473,5.466,5.466,0,0,0,.191.606,10.617,10.617,0,0,1,1.129-.315.969.969,0,0,1,.789.257.8.8,0,0,1,.274.755q-.149,1.361-.332,3.171v.033Q84.17-2.706,84-1.345a19.069,19.069,0,0,1-.481,2.557.665.665,0,0,1-.515.141.878.878,0,0,1-.34-.183A.58.58,0,0,1,82.493.8a9.175,9.175,0,0,0-1.561.448,10.494,10.494,0,0,1-1.345.448.77.77,0,0,1-.481-.166A1.631,1.631,0,0,1,78.691.8a7.3,7.3,0,0,1-.465-1.826q-.066-.415-.1-.863-.133-1.66-.166-4.2a3.715,3.715,0,0,1,.066-1q.1-.581.6-.332a1.446,1.446,0,0,1,.365.349,7.236,7.236,0,0,0,.847-.365A13.232,13.232,0,0,0,79.854-9.463ZM82.46-7.388a2.862,2.862,0,0,0-.075.623q-.008.357.017.722t.017.706a.515.515,0,0,0,.208.481,1.076,1.076,0,0,0,.747.042q.083-1.179.174-1.735a6.611,6.611,0,0,0,.091-1.071,1.428,1.428,0,0,0-.54.033Q82.858-7.521,82.46-7.388ZM79.189-.349a2.052,2.052,0,0,0,.4,1A13.164,13.164,0,0,0,80.9.34q.664-.191,1.843-.589.149-.747.216-1.428Q81.8-1.295,80.8-.971A12.891,12.891,0,0,0,79.189-.349Zm3.071-3.619a1.158,1.158,0,0,1-.672-.971,9.218,9.218,0,0,1-.183-1.278q-.025-.49-.058-.739l-.581.282q-.066.315-.174,1.1T80.235-3.37q-.05.349-.133.714-.2-.017-.382-.017a.668.668,0,0,1-.349-.1.3.3,0,0,1-.149-.307q.017-.208.033-.357.166-1.046.307-1.743A5.788,5.788,0,0,0,79.7-6.192a1.71,1.71,0,0,0-.73.548q-.05.531-.05,1.063t.025,1.054q.025.523.058,1.054a6.259,6.259,0,0,0,.133.913l.033.116q1.826-.531,2.988-1a1.107,1.107,0,0,1,.448-.042.719.719,0,0,1,.465.357q.133-.764.2-1.644a2.14,2.14,0,0,1-.266-.017A3.864,3.864,0,0,1,82.261-3.968Zm24.271-.266q.564-.581,1.087-1.179a5.822,5.822,0,0,0,.805-1.146,1.6,1.6,0,0,0-.432-.166,6.493,6.493,0,0,0-1.378,0,13.063,13.063,0,0,0-1.976.266q-.4.083-.847.2a17.9,17.9,0,0,0-3.055.971,9.739,9.739,0,0,0-1.876.988,5.351,5.351,0,0,0,.066.847q.033.116.083.249a1.122,1.122,0,0,0,.315.415.483.483,0,0,1,.1.581.374.374,0,0,1-.531.05,1.921,1.921,0,0,1-.647-.614l-.033-.033a7.652,7.652,0,0,1-.44-1.984,8.089,8.089,0,0,1,.008-1.768q.033-.166.291-.216a.722.722,0,0,1,.506.091.506.506,0,0,1,.266.44,4.062,4.062,0,0,0,.05.481q1.079-.382,2.125-.714t1.909-.531q.863-.2,1.2-.315A.688.688,0,0,1,104.208-8q1.162-1.278,2.142-2.391a.523.523,0,0,1,.73-.066.967.967,0,0,1,.3.357.476.476,0,0,1-.066.473q-.448.465-.938.913t-1.27,1.2q.83-.083,1.594-.149a9.927,9.927,0,0,1,2.108.116q1.029.133.714,1.112a3.858,3.858,0,0,1-.863,1.453,4.127,4.127,0,0,1-1.062.813,1.448,1.448,0,0,1-.706.224A.575.575,0,0,1,106.532-4.233ZM103.312.3a10.022,10.022,0,0,1-.7.789l-.955,1a3.955,3.955,0,0,1-.706.631.614.614,0,0,1-.564.05.857.857,0,0,1-.4-.415,12.855,12.855,0,0,0,1.32-1.312Q101.9.365,102.448-.3a1.387,1.387,0,0,1-.349-.266.966.966,0,0,1-.249-.5q-.166-.647.515-.581a1.363,1.363,0,0,1,.5.224q.216.158.332.257.4-.531.813-1.112a7.3,7.3,0,0,0,.7-1.2,1.311,1.311,0,0,0-.855.075q-.606.191-1.154.407a5.043,5.043,0,0,0-1.046.564.7.7,0,0,1-.863-.033.537.537,0,0,1,.116-.9q.432-.216,1.536-.623a18.075,18.075,0,0,1,2.4-.689.974.974,0,0,1,.664.033.642.642,0,0,1,.448.863,6.883,6.883,0,0,1-.623,1.262q-.44.73-.855,1.345a5.138,5.138,0,0,1-.564.747q.382.3,1.179.913t1.594,1.129a2.839,2.839,0,0,1,.415.4.718.718,0,0,1,.05.714.676.676,0,0,1-.365.116.551.551,0,0,1-.349-.133,2.993,2.993,0,0,1-.448-.315q-.913-.681-1.677-1.295T103.312.3Zm-1.179-13.248a4.3,4.3,0,0,1,.481.382.566.566,0,0,1-.2.863,10.574,10.574,0,0,0-1.2.855,12.729,12.729,0,0,0-1.552,1.436q.266.5.548,1.129a1.765,1.765,0,0,0,.6.423q.332.141.515.208.166.847-.6.78a1.557,1.557,0,0,1-.863-.448l-.631-.805a2.967,2.967,0,0,1-.349-.523,2.678,2.678,0,0,0-.589.515q-.274.315-.573.647t-.564.681a.493.493,0,0,1-.257.166.512.512,0,0,1-.34-.066.814.814,0,0,1-.133-.523,1.168,1.168,0,0,1,.166-.457,39.1,39.1,0,0,1,3.3-3.453A19.116,19.116,0,0,1,102.133-12.949Zm1,4.167a1.291,1.291,0,0,1-.066.5.36.36,0,0,1-.315.274.635.635,0,0,1-.432-.108,2.046,2.046,0,0,1-.946-1.378.594.594,0,0,1,.232-.5.617.617,0,0,1,.481.066,1.173,1.173,0,0,1,.357.432q.091.216.158.357A1.194,1.194,0,0,0,103.129-8.782Zm18.129.332a4.524,4.524,0,0,0-.017-.872q-.05-.407-.116-.938a.5.5,0,0,1,.017-.349.385.385,0,0,1,.3-.149h.066a.478.478,0,0,1,.349.149,3.606,3.606,0,0,1,.282.34,1.4,1.4,0,0,1,.166.523q.066.465.149,1.1,1.063-.1,1.61-.133.548-.05.664.075a.751.751,0,0,1,.158.232.873.873,0,0,1,.05.266.864.864,0,0,1-.058.34q-.9.083-1.32.141t-1.154.174q-.166,1-.465,2.3t-.581,2.44q-.282,1.137-.6,2.067T120.32.506a5.674,5.674,0,0,0-.224.755.369.369,0,0,1-.315.133.693.693,0,0,1-.4-.125.636.636,0,0,1-.232-.457,2.3,2.3,0,0,1,.166-.863,29.565,29.565,0,0,0,1.021-3.1q.44-1.627.623-2.59t.232-1.561a9.479,9.479,0,0,0-1.237.3,5.9,5.9,0,0,0-.888.365.741.741,0,0,1-.3.149q-.216.066-.44-.2a2.094,2.094,0,0,1-.307-.448.3.3,0,0,1,.133-.382,3.423,3.423,0,0,1,.706-.332,9.156,9.156,0,0,1,1.2-.34Q120.776-8.351,121.258-8.45Zm-5.5,6.973a2.962,2.962,0,0,1-1.146-1.328,7.1,7.1,0,0,1-.506-2.009q-.141-1.179-.183-1.818T113.9-8.019q.083-.249.2-.291a.53.53,0,0,1,.34.042,1.767,1.767,0,0,1,.481.291q.257.208.249.349t-.008.307a11.974,11.974,0,0,0,0,1.992,13.97,13.97,0,0,0,.241,1.718,4.2,4.2,0,0,0,.282.963.574.574,0,0,0,.415.282,2.693,2.693,0,0,0,.523.058.6.6,0,0,1,.008.573.561.561,0,0,1-.382.249A1.612,1.612,0,0,1,115.763-1.478ZM128.347-.1a5.429,5.429,0,0,1,.564-.432q1.81-1.162,2.93-1.785a14.242,14.242,0,0,0,1.3-.772q.033-.813.066-1.2l.017-.166q-1.328.432-2.623.847a2.814,2.814,0,0,0,.033.8l.033.133a1.76,1.76,0,0,1,.266.448q.066.432-.382.432a.8.8,0,0,1-.714-.465,4.508,4.508,0,0,1-.216-1.112q-.033-.7-.033-1.868t.025-1.976q.025-.805-.008-1.453a4.808,4.808,0,0,0-.672.282q-.208.116-.838.448a.6.6,0,0,1-.747-.1q-.581-.481.1-.83a25.314,25.314,0,0,1,3.179-1.245q1.5-.465,3.793-.979a2.729,2.729,0,0,1,.664-.083h.183a.9.9,0,0,1,.979.8.679.679,0,0,1-.73.3,2.115,2.115,0,0,0-.913.033L134.273-4.9l-.1,1.561q-.2,2.889-.382,4.7-.033.133-.066.3a.331.331,0,0,1-.174.241.322.322,0,0,1-.274.025.647.647,0,0,1-.548-.813q.149-1.378.241-2.167a4.609,4.609,0,0,0,.058-.938q-.332.249-1.187.822T129.592.4a.853.853,0,0,1-.506.166.594.594,0,0,1-.457-.2A1.416,1.416,0,0,1,128.347-.1ZM130.7-6.89a7.7,7.7,0,0,1,.913-.257q.432-.091.872-.2a2.452,2.452,0,0,1,.872-.058q.033-.631.075-1.253a8.493,8.493,0,0,0,.008-1.121,12.558,12.558,0,0,0-1.76.407q-.9.274-1.411.473a3.521,3.521,0,0,1,.4.357.7.7,0,0,1,.2.448,1.936,1.936,0,0,1-.033.506Q130.787-7.338,130.7-6.89Zm-.083,2.175q.448-.149,1.3-.374t1.353-.34q.017-.232.017-.531t.017-.664a25.788,25.788,0,0,0-2.64.9Q130.654-5.329,130.621-4.715Zm5.611,3.636q.93-.979,1.444-1.5a4.058,4.058,0,0,0,.681-.838,2.552,2.552,0,0,0-.4-.432,1.007,1.007,0,0,1-.315-.415.519.519,0,0,1,.066-.432.844.844,0,0,1,.5-.208.772.772,0,0,1,.481.158l.465.332q.349-.531.722-1.22a5.4,5.4,0,0,0,.54-1.7,7.888,7.888,0,0,0-1.287.54q-.855.423-1.826,1.013a6.831,6.831,0,0,0-1.552,1.237q-.249.2-.747-.083a.886.886,0,0,1-.349-.481.38.38,0,0,1,.1-.3q.813-.614,2.175-1.461a17.567,17.567,0,0,1,3.4-1.511,1.95,1.95,0,0,1,.232-.083.918.918,0,0,1,.847.05.852.852,0,0,1,.3.913,7.488,7.488,0,0,1-.847,2.382q-.548.9-1.013,1.668a9.017,9.017,0,0,0,1.1,1.245q.706.681,1.287,1.154a6.423,6.423,0,0,1,.747.672.423.423,0,0,1,.083.631.479.479,0,0,1-.647.166,6.124,6.124,0,0,1-.946-.789l-1.428-1.345q-.73-.689-.93-.9a8.27,8.27,0,0,1-.863.93,6.118,6.118,0,0,1-1.1.813A.621.621,0,0,1,136.232-1.079Zm12.8,4.2a1.324,1.324,0,0,1-.382-.365.746.746,0,0,1-.141-.515,2.758,2.758,0,0,1,.091-.515q1.278-3.984,2.017-6.607t1.054-3.984q.05-.448.116-.93.1-.349.332-.349a.57.57,0,0,1,.315.133,1.68,1.68,0,0,1,.473.639,1.008,1.008,0,0,1,.008.772q-.647,2.125-1.054,3.6t-.847,2.864q-.44,1.386-1.038,3.279-.133.564-.282,1.112a1.633,1.633,0,0,1-.2.54A.669.669,0,0,1,149.032,3.121ZM147.438-8.268a5.523,5.523,0,0,0-.257,1.3,3.894,3.894,0,0,0,.075,1.353,7.1,7.1,0,0,0,.963-.1.816.816,0,0,1,.133,1.046.484.484,0,0,1-.407.291,2.1,2.1,0,0,1-.556-.025,1.359,1.359,0,0,1-.946-.7,3.908,3.908,0,0,1-.357-1.685q.008-.888.058-1.328t.232-1.5q.1-.232.257-.257a.594.594,0,0,1,.407.158,1.934,1.934,0,0,1,.415.407.608.608,0,0,1,.108.506Q147.5-8.517,147.438-8.268ZM161.483-5.4q-.664.249-1.353.5a7.975,7.975,0,0,1-1.37.365.5.5,0,0,1-.531-.191,1.819,1.819,0,0,1-.266-.432.33.33,0,0,1,.017-.307q.066-.116.531-.191a6.755,6.755,0,0,0,.855-.191l.863-.257a10.256,10.256,0,0,0,1.32-.54q.017-.481.017-.855t-.017-.872a11.145,11.145,0,0,0-1.137.141,11.41,11.41,0,0,0-1.345.291q-.573.166-1.2.365a.611.611,0,0,1-.3.083.4.4,0,0,1-.282-.133,1.014,1.014,0,0,1-.216-.332.713.713,0,0,1-.05-.4,1.19,1.19,0,0,1,.689-.407,14.764,14.764,0,0,1,1.552-.365,20.915,20.915,0,0,1,2.191-.291,4.813,4.813,0,0,0-.1-.714q.017-.2.266-.249a.313.313,0,0,1,.1-.017.644.644,0,0,1,.382.149,1.471,1.471,0,0,1,.4.73q.481.066.631.083a.935.935,0,0,1,.357.174.479.479,0,0,1,.183.332,1.685,1.685,0,0,1-.008.44q-.564,0-1.112-.017.017.531.033,1.444.315-.133.681-.3a.8.8,0,0,1,.241.249.662.662,0,0,1,.083.432.74.74,0,0,1-.224.465,3.549,3.549,0,0,1-.9.481,8.187,8.187,0,0,0-.108,1q-.025.515-.174,1.727.9-.1,1.569-.166a4.406,4.406,0,0,1,1.087,0,1.1,1.1,0,0,1,.149.49.419.419,0,0,1-.108.241.8.8,0,0,1-.457.141q-.365.042-1.162.191a7.386,7.386,0,0,0-1.146.282q-.116.614-.232,1.1a2.067,2.067,0,0,1-.374.863,1.326,1.326,0,0,1-.822.515,1.848,1.848,0,0,1-1.2-.033,2.414,2.414,0,0,1-.963-.606,2.756,2.756,0,0,1-.523-.747.58.58,0,0,1-.042-.54,1.2,1.2,0,0,1,.465-.448,8.555,8.555,0,0,1,.822-.457,6.84,6.84,0,0,1,.921-.374q.465-.149.963-.315.133-.614.183-1.038T161.483-5.4Zm-.515,3.735a5.3,5.3,0,0,0-1.029.365,2.494,2.494,0,0,0-.83.548,1.192,1.192,0,0,0,.473.564.656.656,0,0,0,.639,0,1.128,1.128,0,0,0,.523-.647A5.212,5.212,0,0,0,160.969-1.66Zm13.646-5.362a.89.89,0,0,0-.548-.066q-.315.05-1.328.315a13.4,13.4,0,0,0-1.444.44,6.028,6.028,0,0,0-.639.291,1.1,1.1,0,0,1-.473.133.822.822,0,0,1-.548-.307,1.021,1.021,0,0,1-.324-.515.339.339,0,0,1,.191-.34,22.39,22.39,0,0,1,2.54-.631,26.182,26.182,0,0,1,2.706-.448.806.806,0,0,1,.656.2,2.572,2.572,0,0,1,.423.54.885.885,0,0,1,.05.739,12.984,12.984,0,0,1-.847,1.112A16.765,16.765,0,0,0,173.8-3.818q-.714,1.129-.93,1.544a.7.7,0,0,0-.05.7,1.685,1.685,0,0,0,.706.556,3.569,3.569,0,0,0,.656.291,7.074,7.074,0,0,0,.83-.033.49.49,0,0,1,.257.149.481.481,0,0,1,.125.291.729.729,0,0,1-.075.374.6.6,0,0,1-.324.3.727.727,0,0,1-.681.091,5.734,5.734,0,0,1-.888-.282,4.514,4.514,0,0,1-.872-.49,3.128,3.128,0,0,1-.747-.73,2.051,2.051,0,0,1-.332-.656,1.586,1.586,0,0,1,.216-.822q.863-1.411,1.677-2.615T174.615-7.022ZM177.537-8.2q-.149.382-.332.44a.294.294,0,0,1-.332-.125,2.45,2.45,0,0,1-.481-.581q-.266-.581-.481-1.179a.407.407,0,0,1,.066-.515q.315-.249.548-.083a1.053,1.053,0,0,1,.315.315Q177.205-8.965,177.537-8.2Zm1.112-.647a10.058,10.058,0,0,1-.249-1.262.4.4,0,0,1,.149-.481.329.329,0,0,1,.149-.033.968.968,0,0,1,.5.2,1.99,1.99,0,0,1,.3.789,3.582,3.582,0,0,1,.017,1.038.382.382,0,0,1-.291.315.379.379,0,0,1-.374-.1A.825.825,0,0,1,178.649-8.849ZM187.5-7.072a10.187,10.187,0,0,1-.739,2.125,10.488,10.488,0,0,1-1.146,1.884,5.866,5.866,0,0,1-1.6,1.436,4.805,4.805,0,0,1-.913.432.9.9,0,0,1-.564.017,1.738,1.738,0,0,1-.54-.324,1.8,1.8,0,0,1-.473-.623,2.27,2.27,0,0,1-.149-.946,4.658,4.658,0,0,1,.357-1.436,4.809,4.809,0,0,1,1.079-1.644,6.763,6.763,0,0,1,1.527-1.2A8.38,8.38,0,0,1,186.5-8.1a.9.9,0,0,1,.448-.133h.1a3.774,3.774,0,0,1,.423.1q.158.05.34.116a2.625,2.625,0,0,1,.83.324,4.083,4.083,0,0,1,.78.656,2.678,2.678,0,0,1,.631,1.345,5.409,5.409,0,0,1,.008,2.05,10.844,10.844,0,0,1-.407,1.743,7.383,7.383,0,0,1-.548,1.187,1.664,1.664,0,0,1-.191.3.428.428,0,0,1-.241.116.6.6,0,0,1-.374-.083.83.83,0,0,1-.34-.266.873.873,0,0,1-.133-.332.358.358,0,0,1,.083-.315,3.505,3.505,0,0,0,.374-.457,5.228,5.228,0,0,0,.374-.971,8.832,8.832,0,0,0,.349-1.544,4.852,4.852,0,0,0,.033-1.245,2.761,2.761,0,0,0-.158-.755,1.024,1.024,0,0,0-.324-.423,1.617,1.617,0,0,0-.506-.257A3.171,3.171,0,0,0,187.5-7.072Zm-5.146,4.831a1.122,1.122,0,0,0,.946-.216,6.816,6.816,0,0,0,1.428-1.37,7.418,7.418,0,0,0,1.013-1.718,10.381,10.381,0,0,0,.515-1.461,7.277,7.277,0,0,0-1.478.664A4.812,4.812,0,0,0,183.24-5.03a4.38,4.38,0,0,0-.805,1.519A3,3,0,0,0,182.352-2.241Zm17.913-6.076q-.73.216-1.179.365a2.551,2.551,0,0,1-.407.108.448.448,0,0,1-.39-.1.748.748,0,0,1-.232-.349q-.066-.208-.116-.39a8.3,8.3,0,0,1,1.594-.5,11.224,11.224,0,0,0,1.627-.465,4.984,4.984,0,0,0,.315-1.3q.05-.589.083-1.2.066-.415.282-.465h.1a.757.757,0,0,1,.365.1.7.7,0,0,1,.266.73q-.066.946-.075,1.262t-.008.548q.349-.05.847-.166t1.162-.249a.513.513,0,0,1,.664.166.818.818,0,0,1,.183.6.242.242,0,0,1-.2.216,1.026,1.026,0,0,1-.315.017q-.88.116-1.619.291t-1.386.34a3.072,3.072,0,0,1-.689,1.378q-.672.93-1.569,2.108.216-.05.415-.1.747-.183,1.478-.415a15.988,15.988,0,0,0,2.059-.847,1.515,1.515,0,0,1-.05-.714.311.311,0,0,1,.315-.216l.166.017a1.115,1.115,0,0,1,.564.415,8.394,8.394,0,0,0,.9.8q.531.415,1.029.747l.1.3a.581.581,0,0,1,.008.324.241.241,0,0,1-.216.2.566.566,0,0,1-.34-.058,3.678,3.678,0,0,1-.83-.515,5.427,5.427,0,0,0-.963-.614q-2.009.979-3.046,1.395a10.3,10.3,0,0,1-1.519.515,1.67,1.67,0,0,1-.78.083.919.919,0,0,1-.614-.4l-.017-.017a.841.841,0,0,1-.208-.573.987.987,0,0,1,.324-.473q.88-1.295,1.3-1.884A7,7,0,0,0,200.265-8.317Zm-2.474,9.762q.349-1.561.647-2.573t.5-1.544a1.047,1.047,0,0,1,.2-.39.293.293,0,0,1,.382-.091.77.77,0,0,1,.647.764A14.17,14.17,0,0,0,199.509-.6q-.44,1.378-.789,2.988a1.321,1.321,0,0,1-.606-.066.524.524,0,0,1-.332-.365A.858.858,0,0,1,197.791,1.444Zm3.536-4.715a1.457,1.457,0,0,1,.589.058.52.52,0,0,1,.382.4,1.183,1.183,0,0,1-.008.606,16.833,16.833,0,0,0-.382,1.644,6.177,6.177,0,0,0-.066,1.693.353.353,0,0,1-.216.349.477.477,0,0,1-.465-.05,1,1,0,0,1-.382-.946q.1-1.162.241-2.1T201.327-3.271ZM206.042.764q.946-.73,1.237-1.013a2.056,2.056,0,0,1,.589-.415.446.446,0,0,1,.224.4.532.532,0,0,1-.158.465q-.531.564-.955,1.029a5.763,5.763,0,0,1-1.071.9,1.06,1.06,0,0,1-1.444-.149A2.419,2.419,0,0,1,203.784.73a8.388,8.388,0,0,1-.232-2.772q.05-.631.116-1.278a1.418,1.418,0,0,1,.05-.357q.05-.191.3-.191a1.1,1.1,0,0,1,.6.249.742.742,0,0,1,.2.83,7.2,7.2,0,0,0-.1,3.221,1.671,1.671,0,0,0,.365.623Q205.312,1.295,206.042.764ZM192.86-.166q.465-.282,1.328-.813t3.171-1.81a.607.607,0,0,1,.158.382q.025.249-.407.664-1.2.963-1.876,1.536t-.863.755a1.1,1.1,0,0,1-.589.39q-.241.025-.739-.473A4.513,4.513,0,0,1,192.86-.166Zm3.619-4.549a2.4,2.4,0,0,1-.432.249q-1.079.183-2.158.282a.812.812,0,0,1-.623-.282,1.26,1.26,0,0,1-.307-.473q-.05-.191.083-.257a2.849,2.849,0,0,1,.4-.149q1.1-.066,2.241-.066a.908.908,0,0,1,.4.058.423.423,0,0,1,.266.266Q196.413-4.9,196.479-4.715Zm-.017-2.557q-1.361-.166-2.938-.432a.766.766,0,0,1-.589-.382,2.371,2.371,0,0,1-.241-.6.461.461,0,0,1,.664-.3q1.1.232,1.876.382a4.067,4.067,0,0,1,.979.465.706.706,0,0,1,.266.432A1.117,1.117,0,0,1,196.463-7.271ZM215.9-5.877q.9-.647,1.619-1.137t1.3-.872a.634.634,0,0,1,.8-.033A1.279,1.279,0,0,1,220-7.5a.885.885,0,0,1,.108.548,20.864,20.864,0,0,0-.141,2.133,6.561,6.561,0,0,0,.133,1.76,3.084,3.084,0,0,0,.3.772.578.578,0,0,0,.357.266,1.8,1.8,0,0,0,.863-.141,15.064,15.064,0,0,0,1.519-.6,6.551,6.551,0,0,1,1.154-.44.408.408,0,0,1,.017.374,4.2,4.2,0,0,1-.282.4,3.418,3.418,0,0,1-.838.656,5.955,5.955,0,0,1-1.436.639,1.7,1.7,0,0,1-1.378-.091A2.7,2.7,0,0,1,219.3-2.656a5.762,5.762,0,0,1-.4-2.274q.025-1.212.008-1.428a.949.949,0,0,0-.083-.349,10.355,10.355,0,0,0-1.245.8q-.681.5-1.826,1.494-.116,1.1-.125,1.818t-.008,1.453q0,.73.033,1.511a.845.845,0,0,1-.025.39q-.058.191-.465.141a.541.541,0,0,1-.506-.4q-.033-.216-.066-1.187t.083-2.714a11.006,11.006,0,0,0-1.087,1.154q-.54.656-1.17,1.37A.418.418,0,0,1,211.7-.8a.894.894,0,0,1-.382-1.1q.266-1.013.664-2.324.133-.481-.066-.531-.2-.017-.407-.042a.924.924,0,0,1-.39-.141,1.015,1.015,0,0,1-.3-.34,1.54,1.54,0,0,1-.133-.324q-.017-.116.224-.241a1.34,1.34,0,0,1,.681-.1,2.082,2.082,0,0,1,1.038.457,1.147,1.147,0,0,1,.481.988q-.017.606-.066,1.22.365-.365.822-.855t.955-1.054q.149-2.341.257-3.337t.208-1.992q.033-.531.033-.8,0-.2.149-.216h.033a1.322,1.322,0,0,1,.382.083.712.712,0,0,1,.415.365.787.787,0,0,1,.066.548q-.216,1.859-.332,3.013T215.9-5.877Z" transform="translate(13.149 19.454)" fill="#215f87"/>
      <g id="Сгруппировать_102" data-name="Сгруппировать 102">
        <g id="Сгруппировать_101" data-name="Сгруппировать 101" clip-path="url(#clip-path)">
          <line id="Линия_5" data-name="Линия 5" x2="246.166" transform="translate(0 27.691)" fill="none" stroke="#fb7180" stroke-miterlimit="10" stroke-width="1.5"/>
          <line id="Линия_6" data-name="Линия 6" x2="246.166" transform="translate(0 0.75)" fill="none" stroke="#fb7180" stroke-miterlimit="10" stroke-width="1.5"/>
        </g>
      </g>
    </g>
    <g id="Сгруппировать_105" data-name="Сгруппировать 105" transform="translate(58.538 4497)">
      <g id="Сгруппировать_104" data-name="Сгруппировать 104" clip-path="url(#clip-path-2)">
        <path id="Контур_1738" data-name="Контур 1738" d="M18.932-11.021q.264.369.58.9Q18.879-7.2,18-4.324a43.933,43.933,0,0,1-2.2,5.7q-.316.026-.58.066a.78.78,0,0,1-.527-.119.5.5,0,0,1-.25-.488A1.33,1.33,0,0,1,14.555.29q.765-2,1.45-4.219t1.107-3.863a14.311,14.311,0,0,0,.475-2.65,4.466,4.466,0,0,0-1.305.712,12.713,12.713,0,0,1-1.121.817,1.487,1.487,0,0,1-.817-.316,1.688,1.688,0,0,1-.554-1.187q.343-.211,1.556-.91a20.577,20.577,0,0,1,3.428-1.463,19.855,19.855,0,0,1,3.164-.817q.791-.132,1.608-.211a1.381,1.381,0,0,1,1.252.448,1.662,1.662,0,0,1,.382,1.318,43.5,43.5,0,0,1-1.622,8.886Q22.518-.026,22.017,1.081a3.275,3.275,0,0,1-.356.567.727.727,0,0,1-.541.277,1.5,1.5,0,0,1-.633-.079,2.052,2.052,0,0,1-.923-.7A1.769,1.769,0,0,1,19.011.053q1.028.264,1.318.026A11.162,11.162,0,0,0,21.7-2.834a20.283,20.283,0,0,0,1.318-5.471,24.906,24.906,0,0,0,.185-3.612,5.58,5.58,0,0,0-2.254.171A8.641,8.641,0,0,0,18.932-11.021Zm-9.94-.343a4.112,4.112,0,0,0-1.938.541A30.682,30.682,0,0,0,3.27-8.833a.948.948,0,0,1-.475.211.644.644,0,0,1-.5-.224,1.719,1.719,0,0,1-.409-.606,1.091,1.091,0,0,1-.092-.62,18.126,18.126,0,0,1,2.755-1.477,27.519,27.519,0,0,1,2.94-1.173A7.373,7.373,0,0,1,9.7-13.078a1.3,1.3,0,0,1,1.081.62,1.189,1.189,0,0,1,.105,1.226A9.576,9.576,0,0,1,9.9-9.439q-.62.9-1.569,2.373.475.237,1.028.475l.264.079q.448.158.923.29.185-.527.369-1.028.343-.976.606-1.951a2.58,2.58,0,0,1,.224-.62.418.418,0,0,1,.514-.2A1.072,1.072,0,0,1,13-9.65a1.036,1.036,0,0,1,.29.791l-.105.29q-.185.475-.448,1.055-.316.738-.817,1.767a1.583,1.583,0,0,1,.844.448q.448.475.211.883t-.514.409a2.75,2.75,0,0,1-.541-.053q-1.213-.475-2.03-.751a12,12,0,0,0-1.477-.409A48.33,48.33,0,0,0,7.857-.2a17.659,17.659,0,0,0,0,2.03,3.853,3.853,0,0,1-.026.989.787.787,0,0,1-.277.646.915.915,0,0,1-.8-.026q-.554-.2-.527-1.226,0-2.241.185-4.14.211-1.793.316-2.927l.026-.132a3.211,3.211,0,0,1-.237.264Q5.432-3.48,4.772-2.558A20.6,20.6,0,0,1,3.48-.844a1.007,1.007,0,0,1-.949.053A.716.716,0,0,1,2.32-1.846q.264-.369.527-.765Q4.219-4.588,5.8-6.592a33.865,33.865,0,0,0,2.5-3.454A9.657,9.657,0,0,0,8.991-11.364Zm-.633-7.567A9.925,9.925,0,0,1,8.438-16.8a24.74,24.74,0,0,1-.369,2.5,2,2,0,0,1-.567.738q-.277.185-.646-.422a4.859,4.859,0,0,1,.013-1.068q.066-.725.053-1.833a10.386,10.386,0,0,0-.25-2.162.838.838,0,0,1,.105-.5q.079-.132.343-.132a2.269,2.269,0,0,1,.422.053A1.066,1.066,0,0,1,8.358-18.932ZM42.926-1a2.262,2.262,0,0,0,1.134-.831,8.114,8.114,0,0,0,.765-1.424A14.785,14.785,0,0,0,45.5-5.234a8.049,8.049,0,0,0,.3-2.1,3.819,3.819,0,0,0-.369-1.793,3.084,3.084,0,0,0-1.463-1.358,4.1,4.1,0,0,0-2.175-.461q-.633.976-1.055,1.767T39.458-7.053q-.857,1.332-2.07,2.887.29.369.448.541a.588.588,0,0,1,.079.541.673.673,0,0,1-.461.514,1.469,1.469,0,0,1-1.173-.224,17.011,17.011,0,0,1-1.727,1.477,6.874,6.874,0,0,1-2.017,1,2.4,2.4,0,0,1-1.49,0A2.057,2.057,0,0,1,29.9-1.16a4.107,4.107,0,0,1-.316-1.477,5.034,5.034,0,0,1,.25-1.674,7.891,7.891,0,0,1,1.081-2.043,16.655,16.655,0,0,1,2.333-2.584q-.105-.659-.356-1.674t-.725-3.415q.053-.422.264-.461a1.309,1.309,0,0,1,.606.092,1.868,1.868,0,0,1,.672.382,2.144,2.144,0,0,1,.435,1.147q.264,1.45.659,2.979a14.64,14.64,0,0,1,2.9-1.661,17.262,17.262,0,0,1,2.663-.949,15.329,15.329,0,0,0,.738-1.846.956.956,0,0,1,.527-.554,1.341,1.341,0,0,1,.264-.026.584.584,0,0,1,.185.026,1.026,1.026,0,0,1,.382.3,1.993,1.993,0,0,1,.356.567,1.409,1.409,0,0,1,.105.659q-.211.5-.369.9a6.118,6.118,0,0,1,2.544.725,3.618,3.618,0,0,1,1.806,2.1,7.741,7.741,0,0,1,.475,2.979,11.415,11.415,0,0,1-.633,3.27A16.435,16.435,0,0,1,45.76-.949,7.618,7.618,0,0,1,45.114.079a.785.785,0,0,1-.606.369,2.521,2.521,0,0,1-.791-.079,1.274,1.274,0,0,1-.7-.448A.943.943,0,0,1,42.926-1ZM35.095-4.245A13.109,13.109,0,0,1,33.961-7.04a8.2,8.2,0,0,0-1.78,2.1,8.059,8.059,0,0,0-.962,1.938,2.677,2.677,0,0,0,0,1.292,3.671,3.671,0,0,0,1.147-.356,6.1,6.1,0,0,0,1.384-.949Q34.488-3.665,35.095-4.245Zm.158-3.771A14.924,14.924,0,0,0,35.714-6.5a6.4,6.4,0,0,0,.593,1.173q.633-.817,1.608-2.241a34.747,34.747,0,0,0,1.925-3.19,14.926,14.926,0,0,0-2.373,1.121A11.617,11.617,0,0,0,35.253-8.016ZM62.2-12.05a3.475,3.475,0,0,0-1.424-.079,17.457,17.457,0,0,0-2.558.686,14.556,14.556,0,0,0-2.479.976q-.686.4-.923.5a1.309,1.309,0,0,1-.844-.105,1.865,1.865,0,0,1-.686-.791A.661.661,0,0,1,53.3-11.4a4.275,4.275,0,0,1,1.4-.7,24.1,24.1,0,0,1,3.27-.962,24.856,24.856,0,0,1,3.81-.593,2.469,2.469,0,0,1,1.358.25,3.281,3.281,0,0,1,.659.712,2,2,0,0,1,.277,1.305q-.369.422-.712.765t-1.107,1.16q-.765.817-2.07,2.32t-2.07,2.5a5.468,5.468,0,0,0-.422.712q-.105.237.527.923A5.455,5.455,0,0,0,59.5-1.951a10,10,0,0,0,1.279.62,8.08,8.08,0,0,1,1,.461.851.851,0,0,1,.132.91.945.945,0,0,1-.765.488,5.843,5.843,0,0,1-1.661-.633,11.874,11.874,0,0,1-2.558-1.846,3.518,3.518,0,0,1-1-1.437A2.643,2.643,0,0,1,56.4-5.379a26.718,26.718,0,0,1,2.057-2.663q1.213-1.4,2.149-2.373T62.2-12.05Zm17.692.817a16.18,16.18,0,0,1-1.173,3.375A16.658,16.658,0,0,1,76.9-4.865a9.317,9.317,0,0,1-2.544,2.281,7.632,7.632,0,0,1-1.45.686,1.433,1.433,0,0,1-.9.026,2.76,2.76,0,0,1-.857-.514,2.866,2.866,0,0,1-.751-.989,3.605,3.605,0,0,1-.237-1.5,7.4,7.4,0,0,1,.567-2.281,7.637,7.637,0,0,1,1.714-2.61,10.741,10.741,0,0,1,2.426-1.9,13.31,13.31,0,0,1,3.441-1.2,1.435,1.435,0,0,1,.712-.211h.158a5.993,5.993,0,0,1,.672.158q.25.079.541.185a4.169,4.169,0,0,1,1.318.514,6.484,6.484,0,0,1,1.239,1.042,4.253,4.253,0,0,1,1,2.136,8.59,8.59,0,0,1,.013,3.256,17.223,17.223,0,0,1-.646,2.769,11.727,11.727,0,0,1-.87,1.885,2.643,2.643,0,0,1-.3.475.68.68,0,0,1-.382.185.945.945,0,0,1-.593-.132,1.318,1.318,0,0,1-.541-.422,1.387,1.387,0,0,1-.211-.527.569.569,0,0,1,.132-.5,5.567,5.567,0,0,0,.593-.725,8.3,8.3,0,0,0,.593-1.542,14.027,14.027,0,0,0,.554-2.452,7.706,7.706,0,0,0,.053-1.978,4.386,4.386,0,0,0-.25-1.2,1.625,1.625,0,0,0-.514-.672,2.568,2.568,0,0,0-.8-.409A5.037,5.037,0,0,0,79.893-11.232ZM71.719-3.56a1.782,1.782,0,0,0,1.5-.343,10.825,10.825,0,0,0,2.268-2.175A11.782,11.782,0,0,0,77.1-8.807a16.487,16.487,0,0,0,.817-2.32,11.557,11.557,0,0,0-2.347,1.055,7.642,7.642,0,0,0-2.439,2.083,6.956,6.956,0,0,0-1.279,2.413A4.758,4.758,0,0,0,71.719-3.56Zm29.953-.923a11.234,11.234,0,0,0-1.635,1.16.881.881,0,0,1-.844.369.942.942,0,0,1-.765-.448.686.686,0,0,1,.079-1A7.821,7.821,0,0,1,100.037-5.5q.949-.541,2.083-1.2a15.811,15.811,0,0,1,.659-2.4q.264-1.028,1.213-.4.686.633.422,1.213-.185.448-.422.923.791-.237,2-.712a18.027,18.027,0,0,0,.633-1.978q.105-.448.448-.422a1.348,1.348,0,0,1,.765.422,1.359,1.359,0,0,1,.237,1.318,9.307,9.307,0,0,1,2.228-.475,6.219,6.219,0,0,1,1.437,0,1.093,1.093,0,0,1,.9.712,2.717,2.717,0,0,1-.369,1.846,12.338,12.338,0,0,1-1.674,2.61,5.872,5.872,0,0,1-1.806,1.661,1.421,1.421,0,0,1-1.437-.145q-.646-.461-.62-.91a1.9,1.9,0,0,0,1.187-.237A8.259,8.259,0,0,0,109.107-4.9a17.846,17.846,0,0,0,1.252-1.661,2.708,2.708,0,0,0,.488-1.055,3.122,3.122,0,0,0-1.226.119q-.8.2-2.2.62-.475,1.213-.936,2.241a14.309,14.309,0,0,1-.672,1.371,1.21,1.21,0,0,1-.488.475.658.658,0,0,1-.672,0,1.319,1.319,0,0,1-.527-.5q.316-.659.712-1.424a8.156,8.156,0,0,0,.606-1.5,10.787,10.787,0,0,0-1.9.9,15.7,15.7,0,0,0-.422,3.876A3.008,3.008,0,0,0,103.9.435a2.6,2.6,0,0,0,1.991.686,6.624,6.624,0,0,0,2.927-.844q1.608-.831,3.533-1.991.369,0,.29.751A1.834,1.834,0,0,1,111.929.3a11.273,11.273,0,0,1-1.7,1.094,18.945,18.945,0,0,1-2.663,1.147,4.323,4.323,0,0,1-3.164-.066A3.845,3.845,0,0,1,102.278.751a6.755,6.755,0,0,1-.686-2.386A12.115,12.115,0,0,1,101.672-4.482ZM89.2-9.571a1.371,1.371,0,0,1-1.714-.448.632.632,0,0,1,.316-.949,13.707,13.707,0,0,1,1.542-.554q1.094-.343,2.254-.738a1.194,1.194,0,0,0,.844-1.213q.053-2.716.04-3.546t-.013-1.516q.105-.5.475-.5a1,1,0,0,1,.316.053,1.465,1.465,0,0,1,.976,1.292q-.132.9-.211,2.07a18.813,18.813,0,0,0,0,2.439q.422-.158,1.187-.369t1.793-.5q.9-.185,1.068.132a4.533,4.533,0,0,1,.277.606,1.769,1.769,0,0,1,.079.712q-1.16.185-2.2.448a8.962,8.962,0,0,0-1.912.712,1.237,1.237,0,0,1-.092.765q-.171.4-.409.844A11.315,11.315,0,0,0,92.654-7.7l1-.316q.5-.158,1.635-.4a1.527,1.527,0,0,1,1.345.4,1.4,1.4,0,0,1,.343,1.055l-.026.211A20.166,20.166,0,0,1,95.66-1.437a18.81,18.81,0,0,1-1.424,3.125,3.157,3.157,0,0,1-.844.91,1.517,1.517,0,0,1-.949.277,1.472,1.472,0,0,1-.9-.4,4.448,4.448,0,0,1-.725-.8,1.967,1.967,0,0,1-.3-1.147,7.355,7.355,0,0,0,1.437.725.841.841,0,0,0,.62-.277A18.736,18.736,0,0,0,94.1-2.1a18.289,18.289,0,0,0,1.028-3.125q.079-.422.132-.738a2.013,2.013,0,0,0,.026-.712,5.779,5.779,0,0,0-1.622.435,2.451,2.451,0,0,0-.883.686,1.989,1.989,0,0,1-.7.593.811.811,0,0,1-.751,0,9.107,9.107,0,0,0-1.187,1.925l-.316.791q-.554,1.582-.686,2.03A3.566,3.566,0,0,1,88.4-.448a.834.834,0,0,1-.475-.541,1,1,0,0,1,.013-.7,27.027,27.027,0,0,1,2.083-4.746q1.872-3.612,2.136-4.219-1.16.343-1.833.593A9.592,9.592,0,0,0,89.2-9.571Zm11.549-1.266q-.5,1.239-.765,2.136-.079.264-.132.527a12.034,12.034,0,0,0-.343,2.136,1.374,1.374,0,0,1-.936-.145q-.356-.224-.409-1.042.026-.211.079-.448a24.3,24.3,0,0,1,.923-3.612q.791-2.294,1.424-3.916t.949-2.544a1.784,1.784,0,0,1,.883.237,2.572,2.572,0,0,1,.541.448q.211.237-.158,1.266-.264.5-.646,1.411t-.778,1.938a33.523,33.523,0,0,1,5.036-1.266q1.793-.316,3.19-.527.58-.079,1.081-.158,1.081-.079,1.4.369a1.244,1.244,0,0,1,.29.672q-.026.2-.053.382t-.659.5a3.447,3.447,0,0,1-1.028-.079,9.49,9.49,0,0,0-2.742.211q-1.292.237-2.452.5-.58.132-1.134.29a8.917,8.917,0,0,0-2.07.751,1.08,1.08,0,0,1-.778.237A2.734,2.734,0,0,1,100.749-10.837Zm20.856.4a10.861,10.861,0,0,1,1.978-1.134q1.16-.527,1.978-.87v-2.479q.053-.712.224-.831a.764.764,0,0,1,.554-.053,1.019,1.019,0,0,1,.646.409,1.123,1.123,0,0,1,.264.686,9.138,9.138,0,0,1,.158,1.688,11.22,11.22,0,0,1,1.187-.369,1.106,1.106,0,0,1,.91.237,1.1,1.1,0,0,1,.435.633.629.629,0,0,1-.04.448,1.06,1.06,0,0,1-.514.264,10.86,10.86,0,0,0-1.978.633q-.105,1.028-.132,2.32-.053,1.345-.026,2.953.053,3.138-.053,4.772t-.158,2.9a.761.761,0,0,1-.3.541.873.873,0,0,1-.765.119.745.745,0,0,1-.593-.659q.105-.976.237-3.006t.158-5.221V-7.989q0-1.925-.079-2.637a11.546,11.546,0,0,0-1.806.844,11.811,11.811,0,0,1-1.094.606.773.773,0,0,1-.857-.316A1.046,1.046,0,0,1,121.605-10.441Zm-.237,8.648q.369-1.4.712-2.531.343-1.081.58-1.872l.026-.105q.185-.923,1.028-.712l.264.053a.94.94,0,0,1,.686,1.055,19.677,19.677,0,0,0-1.055,2.465,12.681,12.681,0,0,0-.527,2.123.76.76,0,0,1-.844.844q-.686-.185-.8-.554A1.724,1.724,0,0,1,121.368-1.793Zm7.778-15.873q.185-.475.554-.461a1.007,1.007,0,0,1,.672.3,1.884,1.884,0,0,1,.461.712q.5,1.978.738,3.085.87-.369,2.241-.817,1.793-.606,3.349-1.16a1.023,1.023,0,0,1,1.424.448q.422.87-.448,1.134a12.816,12.816,0,0,0-2.347.686q-1.107.448-2.769,1.213a.922.922,0,0,1-.844.185,1.334,1.334,0,0,1-.633-.422.4.4,0,0,1-.316.158.837.837,0,0,1-.765-.29,4.549,4.549,0,0,1-.488-1.411Q129.7-15.451,129.146-17.666Zm2.795,14.687a1.227,1.227,0,0,1-.488.567q-.277.145-.989-.145a17.111,17.111,0,0,0-1.226-2.123,11.129,11.129,0,0,1-1.068-1.885.65.65,0,0,1,.738-.461,1.072,1.072,0,0,1,.844.3,11.506,11.506,0,0,1,.844,1.213q.606.949.91,1.556A9.365,9.365,0,0,1,131.941-2.979ZM119.575,3.111a.845.845,0,0,1-.606.369.766.766,0,0,1-.659-.145,2.506,2.506,0,0,1-.435-.409,3.426,3.426,0,0,1-.158-1.371q-.013-1.187.3-4.667l.053-.422q.264-3.111.448-3.981a30.167,30.167,0,0,0-2.162,3.546q-.554,1.173-.686,1.371t-.475.04a1.275,1.275,0,0,1-.686-1.424,30.409,30.409,0,0,1,1.9-3.19q1.819-2.874,4.271-6.987a.947.947,0,0,1,.422-.448.671.671,0,0,1,.633,0,1.011,1.011,0,0,1,.567.514,1.216,1.216,0,0,1,.119.8,5.2,5.2,0,0,1-.712,1.055q-.554.686-1.121,1.463a5.2,5.2,0,0,0-.778,1.437q.448.738.4.976t-.422,2.9q-.053.5-.105.976-.264,2.083-.316,3.85a24.146,24.146,0,0,0-.013,2.7A6.5,6.5,0,0,0,119.575,3.111Zm-5.168-14.027q.5-.791,1.4-2.32t2.742-4.562a1.555,1.555,0,0,1,.5-.448.756.756,0,0,1,.343-.079.875.875,0,0,1,.343.079,1.947,1.947,0,0,1,.554.686.851.851,0,0,1-.026.844q-.976,1.239-2.452,3.335T116-10.784a5.248,5.248,0,0,0-.514.976q-.316.738-.593.725a.862.862,0,0,1-.488-.171.719.719,0,0,1-.25-.527A2.772,2.772,0,0,1,114.407-10.916ZM132.627,0a17.315,17.315,0,0,1,2.479,1.239q.237-.923.343-1.582t.224-3.441q.119-2.782-.013-5.55-1.239.554-2.426,1.16a1.189,1.189,0,0,1-1.424-.053,1.426,1.426,0,0,1-.4-.316.5.5,0,0,1-.105-.448,3.069,3.069,0,0,1,.132-.475q3.428-1.4,7.119-2.769a1.882,1.882,0,0,1,.659-.25q.29-.04.527.369a3.678,3.678,0,0,1,.343.751,2.279,2.279,0,0,1-.62.527,5.949,5.949,0,0,1-.778.356q-.448.171-1.028.461-.185,2.426-.33,5.142T137.057-.4q-.132,1.767-.211,2.848a1.168,1.168,0,0,1-.409.7.845.845,0,0,1-.778.171,5.981,5.981,0,0,1-1.622-1.173A7.091,7.091,0,0,1,132.759.8,1.363,1.363,0,0,1,132.627,0Zm17.851-13.289,1.055-.053a3.685,3.685,0,0,1,.923.092,1.178,1.178,0,0,1,.593.382q.25.29.158.488a5.03,5.03,0,0,1-.382.62,9.577,9.577,0,0,0-1.437.119q-.778.119-1.516.3a11.945,11.945,0,0,0-.633,1.9q-.185.817-.475,2.109l1.635-.29q.686-.105,2.083-.185a.8.8,0,0,1,.369.725.831.831,0,0,1-.316.58,2.634,2.634,0,0,1-.9.356,22.485,22.485,0,0,0-3.006.817,7.8,7.8,0,0,0-.132,1.978q.079.659.211,1.345.343,1.951,2.162,1.16a15.38,15.38,0,0,0,1.4-.857q.712-.488,2.043-1.569t1.846-1.516a3.318,3.318,0,0,1,.936-.593.306.306,0,0,1,.343.25,2,2,0,0,1,.04.514,3.416,3.416,0,0,1-.435,1.055,47.282,47.282,0,0,1-3.771,3.533,5.344,5.344,0,0,1-1.463.962,2.891,2.891,0,0,1-1.648.224,3.545,3.545,0,0,1-1.516-.738,4.943,4.943,0,0,1-1.107-1.279,3.748,3.748,0,0,1-.514-1.622q-.079-1.187-.185-2.347-.5.079-1.081.211a2.452,2.452,0,0,1-.725.105.923.923,0,0,1-.672-.29,1.309,1.309,0,0,1-.369-.659,2.617,2.617,0,0,1-.053-.738q1.529-.369,3.085-.765.264-.923.448-1.925a13.646,13.646,0,0,1,.58-2.109q-1.477.343-2.663.58a2.028,2.028,0,0,1-.712.092,1.04,1.04,0,0,1-.686-.277,1.032,1.032,0,0,1-.343-.633q-.053-.369-.079-.765,1.345-.316,2.492-.541t2.518-.567a7.453,7.453,0,0,0,.448-1.345q.211-.844.659-2.241.237-.5.554-.554h.105a.8.8,0,0,1,.5.185,1.574,1.574,0,0,1,.409.606,1.449,1.449,0,0,1-.119,1.028Q150.82-14.476,150.478-13.289ZM168.7-5.036q-1.4.4-2.676.778a24.194,24.194,0,0,0-2.413.857,1.2,1.2,0,0,1-.8.04.834.834,0,0,1-.567-.567,2.232,2.232,0,0,1-.105-.976q1.608-.527,2.452-.817t4.482-1.16q.554-2.663.87-4.113a1.3,1.3,0,0,1,1.173.356,1.19,1.19,0,0,1,.382,1.042l-.58,2.479q2.083-.369,4.72-.712.079-.738.185-1.345,0-.237.026-.593a.588.588,0,0,1,.422-.514.712.712,0,0,1,.633.105,1.589,1.589,0,0,1,.5.448,1.65,1.65,0,0,1,.211.936q-.053.409-.132.751,1-.105,2.347-.158t2.03-.053a1.456,1.456,0,0,1,.659.158.911.911,0,0,1,.514.541,1.185,1.185,0,0,1,.04.672.7.7,0,0,1-.527.475,1.144,1.144,0,0,1-.606-.053,9.925,9.925,0,0,0-2.61-.092q-1.5.119-2.136.171a23.213,23.213,0,0,1-.8,2.663,31.387,31.387,0,0,1-1.542,3.48q.448.079.857.132a2.911,2.911,0,0,0,.936-.053.685.685,0,0,1,.976.554.851.851,0,0,1-.738,1.081A4.271,4.271,0,0,1,175.3,1.5q-.8-.132-1.279-.185a7.75,7.75,0,0,1-.923,1.358,10.548,10.548,0,0,1-1.239,1.305q-.264-.132-.659-.29a.492.492,0,0,1-.343-.567,1.313,1.313,0,0,1,.211-.62Q171.7,1.74,172.31.844,172.02.738,171.4.5a8.552,8.552,0,0,1-1.542-.844A3.024,3.024,0,0,1,168.631-1.9a3.59,3.59,0,0,1-.2-1.635Q168.539-4.245,168.7-5.036Zm6.565-1.028a35.537,35.537,0,0,0-4.641.659q-.343,1.134-.475,1.78a2.343,2.343,0,0,0,0,1.107,1.656,1.656,0,0,0,.475.778,5.346,5.346,0,0,0,2.452,1.107,22.2,22.2,0,0,0,1.332-2.834A26.172,26.172,0,0,0,175.263-6.064Zm-2.083-9.255q.844-.053,2.175-.185t3.283-.264a10.334,10.334,0,0,1,3.4.264,2.526,2.526,0,0,1,1.819,1.055,1.339,1.339,0,0,1,.026,1.5q-.765.923-1.542,1.819A7.758,7.758,0,0,1,180.536-9.6a1.681,1.681,0,0,1-1.45.079q.264-.475.62-1.055a12.458,12.458,0,0,1,1.094-1.45,11.028,11.028,0,0,0,1.213-1.714,1.976,1.976,0,0,0-.58-.33,7.336,7.336,0,0,0-1.846-.185,30.892,30.892,0,0,0-4.311.316,38.254,38.254,0,0,0-5.221,1,10.848,10.848,0,0,0-3.494,1.463q-.686.422-.936.237t-.725-.606q.158,1.055.343,2.1A8.034,8.034,0,0,0,165.9-7.7a5.945,5.945,0,0,1-.831.079,1.017,1.017,0,0,1-.606-.224,1.117,1.117,0,0,1-.409-.672,20.579,20.579,0,0,1-.62-2.94,27.809,27.809,0,0,1-.25-3.467,5.523,5.523,0,0,1,.132-1.107,3.074,3.074,0,0,1,.923.185.91.91,0,0,1,.567.554,2.216,2.216,0,0,1,.145.765q-.026.976,0,1.635a13.979,13.979,0,0,1,3.349-1.292q1.872-.475,3.48-.9-.105-1.793-.25-2.914t-.145-1.332q.105-.606.554-.606a1,1,0,0,1,.316.053,1.547,1.547,0,0,1,.923,1.5,11,11,0,0,1,.04,1.885A7.23,7.23,0,0,0,173.18-15.319Zm35.464,7.146a.611.611,0,0,1,.646.646,2.789,2.789,0,0,1-.105,1.055q-.145.435-.541,1.305l-1.635,3.533a1.83,1.83,0,0,1-.58.989,1.31,1.31,0,0,1-.9.343,2.076,2.076,0,0,1-.923-.25A5.341,5.341,0,0,1,202.7-1.582a7.846,7.846,0,0,1-1.384-1.529A40.012,40.012,0,0,1,198.677-8.2q-.343-.844-.659-1.687a1.243,1.243,0,0,1-.105-.554q0-.343.422-.448a1.1,1.1,0,0,1,.817.053,1.479,1.479,0,0,1,1.055,1.292,3.558,3.558,0,0,1,.079.422A10.725,10.725,0,0,0,201.393-6.3q.844,1.477,1.872,2.927.448.5.725.778a.981.981,0,0,0,.725.277,1.321,1.321,0,0,0,.606-.488q.29-.382.5-.7,1.081-1.872,1.833-3.111T208.644-8.174Zm-15.557-3.27a3.041,3.041,0,0,1,.817.316,1.1,1.1,0,0,1,.712.409.735.735,0,0,1,.132.62,6.11,6.11,0,0,1-.185.606,26.5,26.5,0,0,0-2.03,4.852q-.4,1.292-.659,2.61a2.755,2.755,0,0,0,.132,1.951,1.223,1.223,0,0,1,0,.87,1.372,1.372,0,0,1-1,.079,1.514,1.514,0,0,1-1.028-1.661,15.07,15.07,0,0,1,.264-2.531,2.082,2.082,0,0,0,.079-.316q.765-2.479,1.345-4.206t.923-2.676A3.759,3.759,0,0,1,193.087-11.443Zm14.687-6.275h.264a3.081,3.081,0,0,1,.923.132,1.365,1.365,0,0,1,.765.87,10.335,10.335,0,0,0,.976,1.608q.211.29.448.58a1.985,1.985,0,0,1,.145.554.568.568,0,0,1-.132.4.513.513,0,0,1-.33.211.878.878,0,0,1-.369-.026,2.91,2.91,0,0,1-1.107-.738l-.105-.158q-.659-.844-1.266-1.687a4.257,4.257,0,0,1-.435-.844A.841.841,0,0,1,207.773-17.719Zm-1,5.748a1.263,1.263,0,0,1-1.608.053l-.053-.053a18,18,0,0,1-1.582-2.5,1.159,1.159,0,0,1,.053-.9,2.561,2.561,0,0,1,.541-.079,2.793,2.793,0,0,1,.659.132q.461.132.883,1.055.343.844.633,1.4l.132.211Z" transform="translate(22.386 21.094)" fill="#215f87"/>
        <path id="Контур_1737" data-name="Контур 1737" d="M13.263-7.778a1,1,0,0,1-.7-.633,1.606,1.606,0,0,1-.04-.976,15.475,15.475,0,0,0-2.241-.475q-1.635-.264-4.219-.686a1.9,1.9,0,0,1-.646-.119.946.946,0,0,1-.514-.448,1.481,1.481,0,0,1-.2-.672,1.447,1.447,0,0,1,.066-.554q.079-.211.475-.211,2.821.4,4.667.738a16.539,16.539,0,0,1,2.979.791,2,2,0,0,1,1.266,1.5,2.01,2.01,0,0,1,.119.751.766.766,0,0,1-.343.62A2.988,2.988,0,0,1,13.263-7.778ZM5.59-2.083a4.7,4.7,0,0,0,2.043.237,17.454,17.454,0,0,0,2.558-.488q1.49-.382,3.388-.8a.9.9,0,0,1,.606-.053.6.6,0,0,1,.435.409.569.569,0,0,1-.079.58,2.17,2.17,0,0,1-.461.435,13.125,13.125,0,0,1-1.885.791q-1.147.4-2.663.817A9.411,9.411,0,0,1,6.381.158,3.494,3.494,0,0,1,5.55-.053a1.077,1.077,0,0,1-.593-.514,2.376,2.376,0,0,1-.237-.844q-.053-.488.132-.62A1.124,1.124,0,0,1,5.59-2.083ZM17.9-13.632a24.424,24.424,0,0,1,.475-3.243.283.283,0,0,1,.316-.211,1.222,1.222,0,0,1,.237.026,2.231,2.231,0,0,1,.976.659,1.513,1.513,0,0,1,.158.87q-.264.686-.461,1.318a3.583,3.583,0,0,0-.145,1.345q-.316.58-.606.567a1.032,1.032,0,0,1-.646-.4A1.151,1.151,0,0,1,17.9-13.632Zm-4.034-2.953a.811.811,0,0,1,.672-.04,1.046,1.046,0,0,1,.633.422,1.507,1.507,0,0,1,.237.672,1.954,1.954,0,0,1-.04.686q0,.422.04.831a1.555,1.555,0,0,0,.25.725.686.686,0,0,1,.171.5.576.576,0,0,1-.33.475,1.1,1.1,0,0,1-.857-.145,1.532,1.532,0,0,1-.435-.58,7.643,7.643,0,0,1-.356-1.45A5.417,5.417,0,0,1,13.869-16.585ZM31.535-10.2q1.45-.343,2.9-.791a1.253,1.253,0,0,1,1.582.58,1.076,1.076,0,0,1,.105.527q-.079.4-.738.5L35.2-9.36q-1.477.264-2.215.448-.791.185-1.635.448a11.25,11.25,0,0,0-.185,1.345q.712.58,1.582,1.187.923.606,1.542.936a2.37,2.37,0,0,1,.883.725.756.756,0,0,1-1,.527q-.738-.316-1.424-.659t-1.661-.738q-.29,1.4-.541,3.784a25.068,25.068,0,0,0-.2,3.415,1.608,1.608,0,0,1,.04.62.5.5,0,0,1-.409.435A1.371,1.371,0,0,1,29,2.953a.858.858,0,0,1-.422-1.107q.237-1.582.356-2.782t.277-2.755q-1.4,1.345-2.175,2.2A9.976,9.976,0,0,1,25.655-.185a.64.64,0,0,1-.87.053q-.4-.211-.356-.527a1.5,1.5,0,0,1,.277-.659q2.109-2.215,3.138-3.507.211-.29.4-.527Q29-6.3,29.479-6.908l.211-1.134q-1.45.475-2.413.831T24.732-6.117q-.29.158-.475.237a.708.708,0,0,1-.554-.105.871.871,0,0,1-.475-.567q-.105-.382-.185-.725a13.448,13.448,0,0,1,3.072-1.332q2.518-.883,3.625-1.2a27.009,27.009,0,0,0,.132-3.876,2.9,2.9,0,0,1,.04-.712.484.484,0,0,1,.514-.422,1.6,1.6,0,0,1,.936.422,1.192,1.192,0,0,1,.409.923q-.079,1.213-.145,2.017T31.535-10.2Zm-7.119.079a1.6,1.6,0,0,1,.237-1.5q1.846-2.452,3.467-4.364T30.4-18.721a1.285,1.285,0,0,1,.58-.185.867.867,0,0,1,.211.026q.237.158.686.475a.8.8,0,0,1,0,1.213q-1,.87-2.123,2.03t-2.215,2.439q-1.094,1.279-1.964,2.228A.876.876,0,0,1,24.416-10.125ZM39.683-.316a24.734,24.734,0,0,0,3.006.844A15.132,15.132,0,0,0,43-1.516q.158-1.463.224-4.707t.04-4.931q0-1.556-.026-2.848v-.185a3.275,3.275,0,0,1,.053-.633.336.336,0,0,1,.33-.29,2.55,2.55,0,0,1,.751.079,1.172,1.172,0,0,1,.369.158.869.869,0,0,1,.264.422,1.446,1.446,0,0,1,.105.844q-.185,2.742-.3,7.515T44.4,1.556a2.992,2.992,0,0,1-.316.976,1.067,1.067,0,0,1-1.16.053q-1.239-.765-2.057-1.2A3.527,3.527,0,0,1,39.775.593.927.927,0,0,1,39.683-.316Zm.132-11.628a29.819,29.819,0,0,0-.633,3.981A30.742,30.742,0,0,0,39.1-3.718a1.4,1.4,0,0,1-.962.066,1.682,1.682,0,0,1-.62-.831,11.94,11.94,0,0,1,0-2.874q.132-1.951.343-3.533.053-.264.079-.527.264-1.767.29-2a.333.333,0,0,1,.343-.3,2.266,2.266,0,0,1,.8.171.745.745,0,0,1,.541.712,2.349,2.349,0,0,1-.079.817Zm28.9,14.581a1.083,1.083,0,0,1-1.318.158,8.758,8.758,0,0,1-1.279-.883q-.778-.62-.831-1.068a11.232,11.232,0,0,0,2.03.237A4.848,4.848,0,0,0,68-1.371q.264-2.083.4-5.511t.211-5.616q0-.29.026-.554a8.814,8.814,0,0,0-.185-2.426,20.42,20.42,0,0,0-2.953,0,21.7,21.7,0,0,0-3.56.5,1.481,1.481,0,0,1,.791,1.081q-.132,1.793-.185,2.531.738-.132,2.32-.316a15.13,15.13,0,0,1,1.529-.105,2.927,2.927,0,0,1,.554.079A1.217,1.217,0,0,1,67.5-10.23a1.43,1.43,0,0,1-1.134.316,7.124,7.124,0,0,0-1.859.105q-1.121.185-2.043.422a21.869,21.869,0,0,0-.185,2.531q1.951-.475,2.465-.659a2.744,2.744,0,0,1,1.068-.158.86.86,0,0,1,.791.448.877.877,0,0,1-.237.765,9.322,9.322,0,0,1-1.4.567q-.844.277-3.006,1.121-.079.606-.2,2.07a30.125,30.125,0,0,0-.04,3.52,1.342,1.342,0,0,1-.606.461,1.127,1.127,0,0,1-.712-.145A1.284,1.284,0,0,1,60.078.5a2.679,2.679,0,0,1-.066-.791q0-.712.066-1.872T60.2-4.245a11.936,11.936,0,0,0-1.437.475,4.319,4.319,0,0,0-.883.422,4.8,4.8,0,0,1-.554.264q-.211.079-.527-.171a1.387,1.387,0,0,1-.448-.593q-.475-.923.5-1.239.844-.29,1.964-.686a14.69,14.69,0,0,1,1.622-.5q.053-.527.132-1.239.053-.448.079-.949.026-.29.026-.58a14.579,14.579,0,0,0-2.808,1.015q-.91.488-1.134.646A1.285,1.285,0,0,1,56-7.225a1.639,1.639,0,0,1-.725-.7,1.222,1.222,0,0,1-.04-1.042Q56.531-9.519,57.2-9.8t3.467-1.121a17.791,17.791,0,0,0,.158-1.819q.026-.844-.026-1.872a12.2,12.2,0,0,0-1.859.4,13.207,13.207,0,0,0-1.925.765,19.225,19.225,0,0,1-2.123.87,34.923,34.923,0,0,0-.659,4.351q-.185,1.9-.29,3.612-.026.844-.053,1.635a7.169,7.169,0,0,0,.4,3.138,1.362,1.362,0,0,0,.29.791.716.716,0,0,1,.053.765.517.517,0,0,1-.686.369,1.715,1.715,0,0,1-1.121-.751A4.454,4.454,0,0,1,52.4.053a16.782,16.782,0,0,1-.2-2.347q-.026-.527,0-1.318.079-1.529.316-4.008.369-3.744.976-8.306.158-.5.514-.5a1.664,1.664,0,0,1,.883.369,1.935,1.935,0,0,1,.738,1,45.611,45.611,0,0,1,6.407-1.556q2.742-.422,4.061-.5.765-.053,1.582-.053.554,0,1.107.026a1.391,1.391,0,0,1,1.081.514,2.15,2.15,0,0,1,.475,1.094q0,.58-.026,1.5-.026,1.292-.132,3.27-.158,3.375-.3,6.117T69.53-.026A5.521,5.521,0,0,1,68.713,2.637ZM90.492-6.407q.29-2.742.369-5.537-.9.29-1.371.422t-2.637.659a1.426,1.426,0,0,1-.62.066q-.277-.04-.554-.606a1.8,1.8,0,0,1-.25-.831.522.522,0,0,1,.211-.4,1.262,1.262,0,0,1,.633-.158q1.318-.237,2.5-.461t2.188-.435q.053-.765.158-1.74a1.227,1.227,0,0,1,.633-.211.523.523,0,0,1,.237.053.87.87,0,0,1,.527.527,6.108,6.108,0,0,1,.29,1.107Q93-14,93.3-14.12a2.192,2.192,0,0,1,.62-.145.884.884,0,0,1,.606.185,1.2,1.2,0,0,1,.4.791,2.475,2.475,0,0,1-.949.541q-.5.145-1.16.356a6.559,6.559,0,0,0-.2,1.252q-.066.8-.224,2.043A22.684,22.684,0,0,0,92.206-6.8a12.942,12.942,0,0,0,1.542-.158q.831-.132,1.437-.211a2.228,2.228,0,0,1,1.134.132,3.321,3.321,0,0,1,.185.7q.026.25-.29.382a4.969,4.969,0,0,1-.765.237q-.448.105-1.042.211t-2.175.58a14.138,14.138,0,0,0-.3,1.516,5.946,5.946,0,0,1-.514,1.542A1.8,1.8,0,0,1,88.989-.738a3.323,3.323,0,0,1-1.753-1.226,3.487,3.487,0,0,1-.7-1.912,1.7,1.7,0,0,1,1.371-1.767Q89.279-6.091,90.492-6.407Zm-.237,1.9a6.227,6.227,0,0,0-.751.25,2.1,2.1,0,0,0-.725.461q-.633.316-.5.817a.937.937,0,0,0,.765.712.852.852,0,0,0,.87-.527Q90.07-3.56,90.255-4.509ZM82.477-.527A1.026,1.026,0,0,1,83,.119a1.108,1.108,0,0,1-.158.857,1.467,1.467,0,0,1-1.318.5l-.949-.185q-1.055-.185-1.819-1.9a10.59,10.59,0,0,1-.844-4.087,27.874,27.874,0,0,1,.264-4.838q.343-2.413.58-4.206A.745.745,0,0,1,79-14.212a.586.586,0,0,1,.33-.105,1.757,1.757,0,0,1,.62.224.957.957,0,0,1,.541.712,2.105,2.105,0,0,1-.013.91q-.316,1.819-.554,3.441T79.6-5.985A14.178,14.178,0,0,0,79.695-3.3,10.19,10.19,0,0,0,80.262-1a2.814,2.814,0,0,0,.316.606.635.635,0,0,0,.606.237A2.027,2.027,0,0,0,81.9-.316,3.849,3.849,0,0,1,82.477-.527Zm27.5-12.867a7.033,7.033,0,0,0-2.4-.04,11.237,11.237,0,0,0-2.993.7,6.294,6.294,0,0,0-1.7.87,1.077,1.077,0,0,1-.527.33.518.518,0,0,1-.382-.171,2.194,2.194,0,0,1-.382-.5,1.624,1.624,0,0,1-.158-.686q0-.343.475-.633a14.822,14.822,0,0,1,3.428-1.081,14.766,14.766,0,0,1,3.375-.422,9.573,9.573,0,0,1,1.239.079,2.1,2.1,0,0,1,1.622.962,1.7,1.7,0,0,1,.066,1.833q-.87,1.582-1.556,2.61l-1.371,2.057a20.26,20.26,0,0,0,2.637,3.494,13.515,13.515,0,0,0,1.767,1.6,3.447,3.447,0,0,0,.461.369.59.59,0,0,1,.224.435.7.7,0,0,1-.237.62,1.021,1.021,0,0,1-.659.316.78.78,0,0,1-.686-.211q-1.529-1.424-2.624-2.65a22.814,22.814,0,0,1-2.017-2.624q-.527.606-1.45,1.819t-1.885,2.492q-.962,1.279-1.384,1.806A.684.684,0,0,1,102.2.3a2.193,2.193,0,0,1-.765-.343.732.732,0,0,1-.237-.91q.817-.844,1.226-1.292t2.531-3.23q2.123-2.782,3.309-4.614t1.4-2.294A4.424,4.424,0,0,0,109.978-13.395Zm14.977,8.121q1.134-.87,2.413-1.951a22.511,22.511,0,0,0,2.4-2.36,15.3,15.3,0,0,0,1.859-2.6,3.586,3.586,0,0,0-1.055-.237,15.949,15.949,0,0,0-2.914.356,40.539,40.539,0,0,0-4.733,1.134,12.006,12.006,0,0,0-3.375,1.437q-.29.105-.527.185a.609.609,0,0,1-.527-.105,3.425,3.425,0,0,1-.606-1.042.785.785,0,0,1,.29-.831q1.9-.659,3.612-1.173a42.408,42.408,0,0,1,4.351-1,43.336,43.336,0,0,1,5.089-.646h.079a1.865,1.865,0,0,1,1.529.58,2.191,2.191,0,0,1,.567,1.2,2.016,2.016,0,0,1-.224,1.173,11.381,11.381,0,0,1-1.2,1.846,27.124,27.124,0,0,1-2.769,2.848,11.149,11.149,0,0,1-3.52,2.4,9.87,9.87,0,0,0,1.147,1.872q.8,1.081,1.437,1.978-.211.527-.527.593a1.649,1.649,0,0,1-.712-.026,1.3,1.3,0,0,1-.738-.593,18.432,18.432,0,0,1-2.03-2.755Q123.5-4.3,122.739-5.7q-.316-.923.053-1.107a1.049,1.049,0,0,1,.778-.066,1.783,1.783,0,0,1,.8.672A4.68,4.68,0,0,1,124.954-5.273Zm22.465-6.935q-.29,2.689-.58,6.051T146.575.712a2.957,2.957,0,0,1-.831.132A.825.825,0,0,1,145.085.5a1.037,1.037,0,0,1-.25-.738q0-2.268.145-4.509t.343-3.9q.2-1.661.277-3.19-1.424.316-2.887.751a14.438,14.438,0,0,0-1.938.672q-.475.237-1.371.712a1.7,1.7,0,0,1-.712.264q-.237,0-.422-.316a5.311,5.311,0,0,1-.316-.633,1.234,1.234,0,0,1-.026-.765,27.848,27.848,0,0,1,3.889-1.463q1.806-.514,3.784-.936.053-.738.026-1.7t-.053-1.727a.774.774,0,0,1,.211-.659.684.684,0,0,1,.5-.211h.026a1.412,1.412,0,0,1,.686.29,1.338,1.338,0,0,1,.5.817q.026,1.028.013,1.556t-.066,1.292q.686-.132,1.688-.25t2.136-.2a1.284,1.284,0,0,1,.962.211q.3.264.145,1.345l-1.964.158Q149.766-12.577,147.419-12.208ZM138.428.264a3.46,3.46,0,0,1-.87-.053.854.854,0,0,1-.593-.409,1.023,1.023,0,0,1-.158-.659,1.9,1.9,0,0,1,.224-.672,44.707,44.707,0,0,1,2.531-3.823q1.45-1.978,1.951-2.637.158-.5.567-.5a1.547,1.547,0,0,1,.8.237.9.9,0,0,1,.448.527.911.911,0,0,1-.158.817q-.738.949-1.661,2.123t-1.635,2.162q-.712.989-1.028,1.516A3.5,3.5,0,0,0,138.428.264Zm17.191-3.48a1.17,1.17,0,0,1-.87.5,6,6,0,0,1-1.846-.712q-.58-.4-1.121-.791a10.2,10.2,0,0,1-1.648-1.872.8.8,0,0,1,.066-.857.866.866,0,0,1,.778-.33,3.627,3.627,0,0,1,1.134.791A12,12,0,0,0,153.5-5.115a10.131,10.131,0,0,0,1.49,1.055Q155.83-3.823,155.619-3.217Zm13.447-7.937a1.414,1.414,0,0,0-.87-.105q-.5.079-2.109.5a21.283,21.283,0,0,0-2.294.7,9.573,9.573,0,0,0-1.015.461,1.739,1.739,0,0,1-.751.211,1.306,1.306,0,0,1-.87-.488,1.621,1.621,0,0,1-.514-.817.538.538,0,0,1,.3-.541,35.562,35.562,0,0,1,4.034-1,41.583,41.583,0,0,1,4.3-.712,1.279,1.279,0,0,1,1.042.316,4.084,4.084,0,0,1,.672.857,1.406,1.406,0,0,1,.079,1.173,20.618,20.618,0,0,1-1.345,1.767,26.627,26.627,0,0,0-1.951,2.769q-1.134,1.793-1.477,2.452a1.107,1.107,0,0,0-.079,1.107,2.676,2.676,0,0,0,1.121.883,5.669,5.669,0,0,0,1.042.461,11.234,11.234,0,0,0,1.318-.053.777.777,0,0,1,.409.237.763.763,0,0,1,.2.461,1.158,1.158,0,0,1-.119.593.945.945,0,0,1-.514.475A1.155,1.155,0,0,1,168.592.7,9.106,9.106,0,0,1,167.181.25,7.169,7.169,0,0,1,165.8-.527a4.968,4.968,0,0,1-1.187-1.16,3.258,3.258,0,0,1-.527-1.042,2.519,2.519,0,0,1,.343-1.305q1.371-2.241,2.663-4.153T169.066-11.153Zm4.641-1.872q-.237.606-.527.7a.466.466,0,0,1-.527-.2,3.892,3.892,0,0,1-.765-.923q-.422-.923-.765-1.872a.647.647,0,0,1,.105-.817q.5-.4.87-.132a1.673,1.673,0,0,1,.5.5Q173.18-14.238,173.707-13.025Zm1.767-1.028a15.977,15.977,0,0,1-.4-2,.636.636,0,0,1,.237-.765.523.523,0,0,1,.237-.053,1.538,1.538,0,0,1,.791.316,3.161,3.161,0,0,1,.475,1.252,5.688,5.688,0,0,1,.026,1.648.607.607,0,0,1-.461.5.6.6,0,0,1-.593-.158A1.31,1.31,0,0,1,175.474-14.054ZM188.024-2.821a3.037,3.037,0,0,0,1.345.712A40.8,40.8,0,0,0,192.2-5.748a18.13,18.13,0,0,0,2.254-4.377,3.934,3.934,0,0,0-1.384-.2,18.855,18.855,0,0,0-2.663.132q-1.569.171-2.808.435-1.4,2.584-2.808,5.379T182.672.237A3.215,3.215,0,0,1,181.854,0q-.844-.316-.448-1.187.448-1.081.949-2.162.817-1.582,1.529-3.019t1.371-2.755a13.052,13.052,0,0,0-1.371.382q-.659.224-2.136.8a2.025,2.025,0,0,1-.87.171q-.29-.04-.844-.857-.29-.659.448-1.028,1.134-.29,2.281-.646t1.727-.488q.58-.132,1.951-.475.606-1.239,1.173-2.36a35.4,35.4,0,0,0,1.437-3.494q.132-.316.316-.369h.053a1.829,1.829,0,0,1,.686.237,2.388,2.388,0,0,1,.422,1.081,7.288,7.288,0,0,1-.448,1.239q-.686,1.635-1.477,3.3,1.318-.158,2.439-.277a15.394,15.394,0,0,1,2.887.04,2.505,2.505,0,0,1,1.318.541,1.766,1.766,0,0,1,.672,1.213,2.64,2.64,0,0,1-.2,1.411,19.307,19.307,0,0,1-1.6,3.19,30.743,30.743,0,0,1-2.1,2.979q-.844,1.055-1.767,2.057a1.125,1.125,0,0,1-1.187.158q-.712-.132-.844-.633t-.224-.831A2.742,2.742,0,0,1,188.024-2.821Zm29.188-5.643q-2.848,1.582-5.023,2.94A31.248,31.248,0,0,0,208.525-2.9q-1.49,1.266-2.94,2.61a1.4,1.4,0,0,1-.857.422,1.009,1.009,0,0,1-.857-.316,1.292,1.292,0,0,1-.461-.527.659.659,0,0,1,.026-.672,1.526,1.526,0,0,1,.488-.514q1.846-1.371,3.81-2.782T211.61-7.2a30.139,30.139,0,0,1,3.322-1.7,17.294,17.294,0,0,1,2.123-.778.527.527,0,0,1,.541.132.456.456,0,0,1,.066.527A1.336,1.336,0,0,1,217.213-8.464Zm-14.66-5.326q1.187.475,1.767.778a26.314,26.314,0,0,1,2.373,1.6,1.407,1.407,0,0,1,.409,1.226q-.145.541-.369.488a1.807,1.807,0,0,1-.461-.185,19.442,19.442,0,0,0-1.819-1.134,11.162,11.162,0,0,0-1.4-.606,1.358,1.358,0,0,1-1.042-.778,2.313,2.313,0,0,1-.264-.844.8.8,0,0,1,.171-.435q.079-.132.369-.132A1.341,1.341,0,0,1,202.553-13.79Zm30.56-.448a14.175,14.175,0,0,0-3.243.488,10.169,10.169,0,0,0-2.979,1.226,8.387,8.387,0,0,0-1.9,1.793Q224.2-9.7,223.436-8.6a3.482,3.482,0,0,1-.475.554q-.185.158-.672-.079a1.349,1.349,0,0,1-.633-.514.718.718,0,0,1-.079-.527,3.515,3.515,0,0,1,.382-.778,21.69,21.69,0,0,1,1.358-2q1.094-1.5,2.386-3.164a38.452,38.452,0,0,1,2.637-3.059.9.9,0,0,1,.606-.264.97.97,0,0,1,.475.132q.686.475.725.831t-.514.936a11.794,11.794,0,0,0-1.556,1.661,9.77,9.77,0,0,1,2.149-.686,15.034,15.034,0,0,1,2.1-.29,2.192,2.192,0,0,1,1.74.316,1.571,1.571,0,0,1,.765,1.872,34.356,34.356,0,0,1-1.674,3.678q-.989,1.885-1.978,3.467t-1.833,2.795Q228.5-2.5,227.918-1.727t-1.345,2q-.765,1.226-1.582,2.7-.185.527-.475.541a1.51,1.51,0,0,1-.712-.2q-.659-.29-.514-.791a2.639,2.639,0,0,1,.33-.765q.87-1.424,1.753-2.755T226.982-3.4q.725-1.081,1.569-2.4-.527-.105-1.081-.224a5.37,5.37,0,0,1-1.081-.356,1.722,1.722,0,0,1-.778-.633,1.064,1.064,0,0,1-.145-.844.586.586,0,0,1,.606-.475,7.991,7.991,0,0,0,1.885.672l1.463.25a17.363,17.363,0,0,0,2.307-3.573A15.486,15.486,0,0,0,233.112-14.238ZM255.63-8.464q-2.848,1.582-5.023,2.94A31.248,31.248,0,0,0,246.942-2.9Q245.452-1.635,244-.29a1.4,1.4,0,0,1-.857.422,1.009,1.009,0,0,1-.857-.316,1.292,1.292,0,0,1-.461-.527.659.659,0,0,1,.026-.672,1.526,1.526,0,0,1,.488-.514q1.846-1.371,3.81-2.782T250.027-7.2a30.139,30.139,0,0,1,3.322-1.7,17.294,17.294,0,0,1,2.123-.778.527.527,0,0,1,.541.132.456.456,0,0,1,.066.527A1.336,1.336,0,0,1,255.63-8.464ZM240.97-13.79q1.187.475,1.767.778a26.314,26.314,0,0,1,2.373,1.6,1.407,1.407,0,0,1,.409,1.226q-.145.541-.369.488a1.807,1.807,0,0,1-.461-.185,19.442,19.442,0,0,0-1.819-1.134,11.162,11.162,0,0,0-1.4-.606,1.358,1.358,0,0,1-1.042-.778,2.313,2.313,0,0,1-.264-.844.8.8,0,0,1,.171-.435q.079-.132.369-.132A1.341,1.341,0,0,1,240.97-13.79Z" transform="translate(0.003 49.093)" fill="#215f87"/>
      </g>
    </g>
  </g>
</svg>
