	<svg xmlns="http://www.w3.org/2000/svg" width="58.101" height="9.219" viewBox="0 0 58.101 9.219">
						<path id="Контур_1731" data-name="Контур 1731"
							d="M5.708-.781H7.656v.669H.5V-.781H4.917L5.366-6.46H1.289v-.669H6.216ZM8.647-4.1h5.439v.742H8.647Zm8.721-1.826h2.51V-7.769h.752v1.841h1.606v.669H20.63v.708A5.228,5.228,0,0,1,19.58-.942,5.305,5.305,0,0,1,16.855.439L16.45-.132a4.4,4.4,0,0,0,2.681-1.4,4.788,4.788,0,0,0,.747-2.925v-.8h-2.51v2.607h-.752V-5.259H15.088v-.669h1.528V-7.949h.752Zm3.359-2.461.513-.161A11.5,11.5,0,0,1,21.846-6.8l-.547.171A10.634,10.634,0,0,0,20.728-8.389Zm1.079-.249.513-.142A7.38,7.38,0,0,1,22.9-7.09l-.527.171A9.42,9.42,0,0,0,21.807-8.638ZM23.4-4.1h5.439v.742H23.4ZM35.645-5.41q.015,1.978.088,3.35A5.164,5.164,0,0,1,37.5-.752l-.483.6a4.775,4.775,0,0,0-1.279-1.167,1.509,1.509,0,0,1-.5,1.26A1.788,1.788,0,0,1,34.053.3Q32.324.3,32.324-1.06a1.131,1.131,0,0,1,.518-.957,1.922,1.922,0,0,1,1.133-.322,4.887,4.887,0,0,1,1.06.107q-.063-1.338-.083-3.149-1.362.044-2.729.029v-.63q1.211.039,2.72-.01V-7.832h.713q-.01.6-.01,1.8.625-.034,1.606-.132v.63Q36.538-5.459,35.645-5.41Zm-.61,3.862a3.057,3.057,0,0,0-1.1-.2,1.239,1.239,0,0,0-.688.181.575.575,0,0,0-.288.508q0,.752,1.079.752a.9.9,0,0,0,.8-.376,1.31,1.31,0,0,0,.205-.767ZM31.592-7.739a29.509,29.509,0,0,0-.6,4.907,23.719,23.719,0,0,0,.239,3.1l-.7.063Q30.3-1.895,30.3-2.852a21.8,21.8,0,0,1,.205-2.632q.161-1.26.376-2.314ZM43.843-.122h-4.98V-.791h4.2v-5.7h-4.2v-.669h4.98Zm5.42-4.57h2.549v.664H49.263a5.189,5.189,0,0,1-.781,3.042A4.745,4.745,0,0,1,46.509.41l-.5-.542A3.942,3.942,0,0,0,47.988-1.65a4.885,4.885,0,0,0,.5-2.378h-3.1v-.664h3.1v-1.8q-1.23.229-2.422.352l-.278-.645A21.1,21.1,0,0,0,50.82-7.8l.371.63a19.547,19.547,0,0,1-1.929.518Zm4.3-2.886h4.531v.669H53.56Zm-.61,2.129H58.6a6.525,6.525,0,0,1-1.4,4.258A5.987,5.987,0,0,1,54.131.43L53.77-.142A5.34,5.34,0,0,0,56.8-1.865a4.939,4.939,0,0,0,.972-2.915H52.949Z"
							transform="translate(-0.498 8.779)" fill="#fff" />
					</svg>