<svg xmlns="http://www.w3.org/2000/svg" width="262.869" height="60.926" viewBox="0 0 262.869 60.926">
  <path id="Контур_1745" data-name="Контур 1745" d="M-102.847-12.334q-1.26.381-2.9.908t-3.047,1.084a1.438,1.438,0,0,1-.85.132,1.4,1.4,0,0,1-.732-.439,2.39,2.39,0,0,1-.5-.718q-.146-.352.439-.762,1.465-.469,2.52-.835t4.453-1.274a7.817,7.817,0,0,0-.41-1.377,8.972,8.972,0,0,1-.439-1.465.669.669,0,0,1,.234-.527.523.523,0,0,1,.381-.117,3.36,3.36,0,0,1,.41.029,1.47,1.47,0,0,1,.879.557q.205.439.483,1.1t.513,1.274q.908-.205,1.714-.4t1.626-.366a1.314,1.314,0,0,1,.659.059.958.958,0,0,1,.557.674q.19.557-.059.762a1.222,1.222,0,0,1-.542.264q-1.23.293-1.934.425a6.4,6.4,0,0,0-1.377.425,19.431,19.431,0,0,1,.5,3.281,5,5,0,0,1-.264,2.285,2.9,2.9,0,0,1-.894,1.2,1.782,1.782,0,0,1-1.055.439.745.745,0,0,1-.7-.4,1.084,1.084,0,0,1,.073-1.011,2.115,2.115,0,0,0,.747-.981,4.564,4.564,0,0,0,.088-1.567A12.313,12.313,0,0,0-102.847-12.334Zm.205,12.246q.234.85-.059,1.143a1.238,1.238,0,0,1-.908.293A4.26,4.26,0,0,1-105.22.908a10.015,10.015,0,0,1-2.827-2.124q-.981-1.128-2.007-2.563a.67.67,0,0,1-.029-.776.738.738,0,0,1,.674-.322,2.644,2.644,0,0,1,.908.205,1.645,1.645,0,0,1,.762.63,8.707,8.707,0,0,0,2.021,2.373,7.436,7.436,0,0,0,1.9,1.187Q-103.052-.205-102.642-.088Zm21.826-5.537q-.645.908-1.436,2.08a11.874,11.874,0,0,1-1.714,2.036A15.191,15.191,0,0,1-86.294.234a4.406,4.406,0,0,1,.322,1.055.713.713,0,0,1-.234.586.53.53,0,0,1-.586.19,1.478,1.478,0,0,1-.571-.337q-.249-.234-.6-.527a3.475,3.475,0,0,1-1.26.483,4.073,4.073,0,0,1-1.67-.308,1.972,1.972,0,0,1-1.377-2.432,6.988,6.988,0,0,1,.85-2.329A7.322,7.322,0,0,1-90-5.142,11.17,11.17,0,0,1-88.052-6.5q.059-.557.088-1.157t.176-2.153a11.586,11.586,0,0,1-1.143.322,3.584,3.584,0,0,1-.732.234.993.993,0,0,1-.762-.132,1.294,1.294,0,0,1-.513-.586,1.2,1.2,0,0,1-.132-.6.636.636,0,0,1,.308-.454,3.969,3.969,0,0,1,1.245-.381,18.119,18.119,0,0,0,1.9-.483q.146-1.523.264-2.314a.527.527,0,0,1,.469-.322,1.358,1.358,0,0,1,.264.029,1.47,1.47,0,0,1,.718.557,1.939,1.939,0,0,1,.278.762,6.936,6.936,0,0,1,.059.967q.7-.059,1.729-.19t2.871-.425a2.229,2.229,0,0,1,.82.161.757.757,0,0,1,.5.571.738.738,0,0,1-.293.732,1.388,1.388,0,0,1-.732.293q-1.523.205-2.769.425t-2.534.513q-.029.615-.073,1.23t-.044,1.553q1.23-.293,2.095-.41a8.339,8.339,0,0,1,1.978,0,3.815,3.815,0,0,0,.5-.879.848.848,0,0,1,.571-.22,1.516,1.516,0,0,1,.732.352,1.165,1.165,0,0,1,.483.923l-.117.527A3.721,3.721,0,0,1-77.827-5.3a5.118,5.118,0,0,1,.483,2.549A6.781,6.781,0,0,1-78.105,0a6.947,6.947,0,0,1-1.479,2.051,1.167,1.167,0,0,1-.85.322,1.138,1.138,0,0,1-.571-.249.838.838,0,0,1-.249-.6A9.887,9.887,0,0,0-80.244.1a15.924,15.924,0,0,0,.82-1.494,4.556,4.556,0,0,0,.337-1.626,2.584,2.584,0,0,0-.322-1.6A3.114,3.114,0,0,0-80.815-5.625Zm-5.654,3.75q1.084-1,2.007-1.992a12.836,12.836,0,0,0,1.685-2.314,5.648,5.648,0,0,0-1.831.176,9.065,9.065,0,0,0-1.685.645A23.816,23.816,0,0,0-86.47-1.875Zm-1.758-2.4a5.269,5.269,0,0,0-1.318,1.318,7.153,7.153,0,0,0-.923,1.67A1.788,1.788,0,0,0-90.483.146,2.248,2.248,0,0,0-89.3-.088q.483-.264,1.069-.557-.088-1.025-.088-2.08A9.843,9.843,0,0,1-88.228-4.277ZM-66.167.908a1.117,1.117,0,0,1-.132.908.893.893,0,0,1-.835.322,1.188,1.188,0,0,1-.967-.674q-.234-.41-1.1-1.611a10.331,10.331,0,0,0-1.626-1.846,2.791,2.791,0,0,1-.4-1.055.8.8,0,0,1,.088-.586,3.671,3.671,0,0,1,.337-.322.526.526,0,0,1,.322-.088,1.722,1.722,0,0,1,.41.059,9.041,9.041,0,0,1,1.685,1.743q.894,1.157,1.348,1.831T-66.167.908Zm23.2-15.029a22.63,22.63,0,0,1-1.26-1.89,3.247,3.247,0,0,0-1.992-1.45,2.158,2.158,0,0,0-1.26.132,4.632,4.632,0,0,0-1.055.659,10.186,10.186,0,0,0-2.227,2.461q-.439.762-1,1.626a11.517,11.517,0,0,0-1,1.963q-.439,1.1-.908,2.212a19.34,19.34,0,0,0-1,4.453,5.553,5.553,0,0,0,.85,3.6A2.06,2.06,0,0,0-52.28.5,6.2,6.2,0,0,0-49.731.205,24.212,24.212,0,0,0-46.3-1.245,34.064,34.064,0,0,0-43.14-2.959a1.552,1.552,0,0,1,.63-.264.966.966,0,0,1,.718.205.809.809,0,0,1,.22.674,2.518,2.518,0,0,1-.278.645,1.728,1.728,0,0,1-.5.557q-1.875.85-3.618,1.67a17.282,17.282,0,0,1-3.56,1.23,6.494,6.494,0,0,1-2.314.337,5.158,5.158,0,0,1-2.314-.674,3.7,3.7,0,0,1-1.67-2.007,6.961,6.961,0,0,1-.645-3.545,19.47,19.47,0,0,1,1.758-6.943A23.749,23.749,0,0,1-50.435-17.9a4.218,4.218,0,0,1,1.992-1.377,4.08,4.08,0,0,1,1.348-.234,3.615,3.615,0,0,1,1.025.146,6.294,6.294,0,0,1,2.168,1.2,6.251,6.251,0,0,1,1.816,2.988q.117.557-.161.776A1.443,1.443,0,0,1-42.964-14.121Zm17.578-6.152a.615.615,0,0,1,.322-.088,1.928,1.928,0,0,1,.586.117,1.975,1.975,0,0,1,.747.483,2.043,2.043,0,0,1,.19.981q.205,1.23.293,2.4.205,2.549.425,4.321t.278,2.769a3.468,3.468,0,0,1,.85.732q.205.293-.791,1.084a16.384,16.384,0,0,0,.264,2.314q.264,1.611.586,3.354A12,12,0,0,0-21.152.264q.161.322.425.938a1.268,1.268,0,0,1,.1.688.683.683,0,0,1-.513.542,1.037,1.037,0,0,1-1.26-.645,13.2,13.2,0,0,1-.688-2.476q-.308-1.567-.586-3.809t-.366-2.534q-3.486.732-5.493,1.157a29.3,29.3,0,0,0-3.3.864Q-34.2-2.461-34.775-1.26T-35.654.615a4.16,4.16,0,0,0-.366,1.406.709.709,0,0,1-.469.5,1.309,1.309,0,0,1-.85-.059.982.982,0,0,1-.7-1.377,8.21,8.21,0,0,1,.806-1.655q.659-1.128,1.23-2.241t.718-1.465a2.81,2.81,0,0,0-.981-.073,1.03,1.03,0,0,1-.952-.483,1.681,1.681,0,0,1-.059-1.084A35.285,35.285,0,0,0-33.853-6.8q2.051-3.486,4.131-6.914T-27-18Q-26.353-18.867-25.386-20.273Zm.322,2.988q-2.52,3.633-3.984,5.991t-2.49,4.116q1.611-.322,3.647-.688t2.7-.513a4.133,4.133,0,0,0,1.04-.352q-.234-2.227-.41-4.438T-25.063-17.285ZM-10.356-6.152A23.126,23.126,0,0,1-8.027-4.834q1.45.908,3.56,2.285T-1.7-.674A5.1,5.1,0,0,1-.747.205a1.258,1.258,0,0,1,.234.879.94.94,0,0,1-.542.7.845.845,0,0,1-.835.073,1.317,1.317,0,0,1-.557-.63A5.136,5.136,0,0,0-3.809.029Q-5-.82-7.09-2.212A43.349,43.349,0,0,0-12-4.98a7.991,7.991,0,0,1-1-.439q-.381,1.2-.762,2.461A12.24,12.24,0,0,0-14.238-.7,10.252,10.252,0,0,0-14.3.967a2.407,2.407,0,0,0,.4,1.2.7.7,0,0,1-.234.527.707.707,0,0,1-.776.146,1.489,1.489,0,0,1-.864-.791A4.908,4.908,0,0,1-16.245.088,37.887,37.887,0,0,1-14.81-6.035a1.058,1.058,0,0,0,.059-.762.652.652,0,0,1,.059-.6,1.318,1.318,0,0,1,.41-.425,1.271,1.271,0,0,0,.41-.7q1.348-4.746,2.036-6.65a6.32,6.32,0,0,0,.571-2.578,9.083,9.083,0,0,0-1.04.806,4.875,4.875,0,0,0-.835,1.128,1.67,1.67,0,0,1-.249.513q-.161.22-.718.015a1.228,1.228,0,0,1-.674-.747,1.757,1.757,0,0,1-.029-.952,6.984,6.984,0,0,1,3.4-2.52A8.667,8.667,0,0,1-8.335-20.1a7.316,7.316,0,0,1,1.143.088,7.813,7.813,0,0,1,2.725.879A5.883,5.883,0,0,1-2.3-17.139a3.5,3.5,0,0,1,.088,3.574A10.581,10.581,0,0,1-3.984-11a25.866,25.866,0,0,1-2.08,1.978A21.713,21.713,0,0,1-8.2-7.427Q-9.3-6.709-10.356-6.152Zm.176-12.041a2.333,2.333,0,0,1,.806.7,1.183,1.183,0,0,1,.015,1.055q-1.23,3.311-1.992,5.6t-1.084,3.164a2.83,2.83,0,0,0,1.025-.146A15.342,15.342,0,0,0-8.027-9.9a26.945,26.945,0,0,0,2.534-2.314,10.37,10.37,0,0,0,1.729-2.344,2.026,2.026,0,0,0-.615-2.754,6.039,6.039,0,0,0-3.076-1.143A5.89,5.89,0,0,0-10.181-18.193ZM4.526-15.469a1.359,1.359,0,0,1-1.055-.22,1.044,1.044,0,0,1-.527-.923.605.605,0,0,1,.439-.586,22.288,22.288,0,0,1,3.97-.791q2.681-.352,5.405-.527,2.754-.205,4.189-.234a2.138,2.138,0,0,1,.659.176.894.894,0,0,1,.483.542.71.71,0,0,1,.044.571.465.465,0,0,1-.337.22q-.234.044-.615.132-1.7.059-3.779.234-.439.059-.908.088A41.938,41.938,0,0,0,8.1-16.2a2.776,2.776,0,0,1,.073,1.362,5.321,5.321,0,0,1-.425,1.333q-.645,2.7-1.2,4.57.381.029,3.105-.264t3.472-.352q.747-.059,1.128-.059a1.209,1.209,0,0,1,.586.073,1.136,1.136,0,0,1,.41.308,2.031,2.031,0,0,1,.205,1.055q-.967.146-3.281.557t-4.219.645a4.14,4.14,0,0,1-1.216.044,4.536,4.536,0,0,1-.718-.249Q5.552-5.332,5.229-3.53A16.334,16.334,0,0,0,4.937-.352q1.025,0,3.853-.278t5.01-.615q2.183-.337,2.915-.454a3.937,3.937,0,0,0,.146.425,1.238,1.238,0,0,1-.015.571q-.073.439-.747.645A35.763,35.763,0,0,1,11,.879l-5.6.7a1.155,1.155,0,0,1-.688.5q-.308.029-.806-.439a2.22,2.22,0,0,1-.63-.879,3.062,3.062,0,0,1-.132-.937q0-.557.1-1.611t.586-3.53q.483-2.476,1.187-5.332t1-3.779a11.255,11.255,0,0,0,.381-1.45Q5.435-15.7,4.526-15.469ZM25.269-.059q.586-.088,2.988-.513t6.123-.864a11.007,11.007,0,0,1,1.934-.234,3.016,3.016,0,0,1,1.157.19,1.44,1.44,0,0,1,.7.615q.249.425-.249.6a12.753,12.753,0,0,1-1.3.176q-.688.059-1.553.22t-3.018.6q-2.153.439-3.164.659t-3.413.542a1.558,1.558,0,0,1-1.509-.41A1.91,1.91,0,0,1,23.335,0a33.552,33.552,0,0,1,1.538-8.35q1.362-4.424,2.593-8.613.234-1.143.439-1.992.205-.469.5-.469h.059a1.576,1.576,0,0,1,.6.278,2.542,2.542,0,0,1,.586.615,1.147,1.147,0,0,1,.22.835q-.029.264-.645,2.168t-1.582,4.746q-.967,2.842-1.523,4.922a20.575,20.575,0,0,0-.674,3.486Q25.327-.967,25.269-.059ZM46.479-10.342Q46.04-8.877,45.7-7.324a28.4,28.4,0,0,0-.5,3.12q-.161,1.567-.19,2.476.469,1.113.059,1.479a1.228,1.228,0,0,1-.806.366,1.179,1.179,0,0,1-.63-.146.628.628,0,0,1-.293-.41q-.059-.264-.088-.5a11.319,11.319,0,0,1-.044-2.373q.1-1.2.454-3.442t.85-5.083a1.4,1.4,0,0,1,.366-.557q.19-.146.659.088a2.094,2.094,0,0,1,.747.6,1.125,1.125,0,0,1,.278.645A3.82,3.82,0,0,1,46.479-10.342Zm-4.072-7.676q2.227-.352,4.57-.527a1.49,1.49,0,0,1,.293-.029,2.338,2.338,0,0,1,.615.088,1.817,1.817,0,0,1,.732.5,3.2,3.2,0,0,1,.41.513q.088.161-.015.22a3.14,3.14,0,0,1-.454.176q-2.314.439-4.658.82a1.2,1.2,0,0,1-1.289-.469A1.347,1.347,0,0,1,42.407-18.018ZM64.233-3.369q.205-1.494.747-4.307t1.172-5.2q.63-2.388,1.04-3.779t.791-2.5a1.076,1.076,0,0,1,.615-.469h.059a1.563,1.563,0,0,1,1.494.938q.293.732.015.938a1.937,1.937,0,0,0-.483.527,6.483,6.483,0,0,0-.615,1.45q-.381,1.128-1,3.428t-1.26,5.054a24.249,24.249,0,0,0-.7,4.57,16.863,16.863,0,0,0,.4,1.67,7.837,7.837,0,0,1,.249.967A1.071,1.071,0,0,1,66.4.557a.877.877,0,0,1-.7.293,3.935,3.935,0,0,1-1.318-1.2q-.762-.967-2.095-2.93A28.947,28.947,0,0,1,59.956-7.4q-1-2.153-1.538-3.721t-1.04-3q-.352,1.143-.732,2.593t-1.04,4.512A42.286,42.286,0,0,0,54.771-1.9a18.711,18.711,0,0,0-.088,2.988,4.1,4.1,0,0,0,.557,1.729q.176.527-.117.747a2.535,2.535,0,0,1-.542.322.814.814,0,0,1-.659-.1,1.877,1.877,0,0,1-.688-.571,3.438,3.438,0,0,1-.4-1.685,19.686,19.686,0,0,1,.088-3.809q.234-2.2,1.113-6.387t1.494-6.8a11.661,11.661,0,0,0,.293-2.344.806.806,0,0,1,.879-.908,2.32,2.32,0,0,1,.952.22,1.526,1.526,0,0,1,.6.952q.586,2.344,1.3,4.614A40.514,40.514,0,0,0,61.333-8.35a33.331,33.331,0,0,0,1.714,3.384A8.975,8.975,0,0,0,64.233-3.369ZM76.1,1.26a1.276,1.276,0,0,1-.015.688.76.76,0,0,1-.542.542,1.145,1.145,0,0,1-.937-.132,1.32,1.32,0,0,1-.454-.674A5.637,5.637,0,0,1,73.989.322a20.394,20.394,0,0,1,.1-2.285q.132-1.553.483-4.248a1.977,1.977,0,0,1-.513-.542,1.121,1.121,0,0,1-.19-.879.751.751,0,0,1,.4-.615,6.229,6.229,0,0,0,.571-.278,1.15,1.15,0,0,0,.352-.264,1.187,1.187,0,0,0,.146-.469q.439-2.08,1.011-4.175t1.011-3.794q.439-1.7.7-2.578.059-.586.381-.732a.652.652,0,0,1,.293-.059,1.194,1.194,0,0,1,.41.088,2.14,2.14,0,0,1,.732.6.892.892,0,0,1,.234.835q-.469,1.23-1.2,3.457T77.358-9.756q2.051-1.172,3.867-2.183t3.135-1.875q1.318-.864,2.549-1.626a3.017,3.017,0,0,0,.586-.5,2.017,2.017,0,0,1,.615-.454q.381-.19,1.143.542a2.143,2.143,0,0,1,.337.938.952.952,0,0,1-.454.85q-2.109,1.2-3.4,1.875T81.475-9.814q-2.974,1.7-3.6,2.051a4.19,4.19,0,0,0-1.1.879q1.055.645,4.673,2.344t6.372,3.076a1.515,1.515,0,0,1,.747.527A.8.8,0,0,1,88.74-.1a.931.931,0,0,1-.527.571A.988.988,0,0,1,87.29.205Q85.5-.762,81.313-2.739T76.362-5.127a22.729,22.729,0,0,0-.483,3.633A7.344,7.344,0,0,0,75.923.439,2.9,2.9,0,0,1,76.1,1.26Zm28.77-13.652a1.571,1.571,0,0,0-.967-.117q-.557.088-2.344.557a23.648,23.648,0,0,0-2.549.776,10.637,10.637,0,0,0-1.128.513,1.932,1.932,0,0,1-.835.234,1.451,1.451,0,0,1-.967-.542,1.8,1.8,0,0,1-.571-.908.6.6,0,0,1,.337-.6,39.513,39.513,0,0,1,4.482-1.113,46.2,46.2,0,0,1,4.775-.791,1.422,1.422,0,0,1,1.157.352,4.538,4.538,0,0,1,.747.952,1.562,1.562,0,0,1,.088,1.3A22.908,22.908,0,0,1,105.6-9.814a29.586,29.586,0,0,0-2.168,3.076q-1.26,1.992-1.641,2.725a1.23,1.23,0,0,0-.088,1.23,2.974,2.974,0,0,0,1.245.981,6.3,6.3,0,0,0,1.157.513,12.483,12.483,0,0,0,1.465-.059.864.864,0,0,1,.454.264.848.848,0,0,1,.22.513,1.286,1.286,0,0,1-.132.659,1.05,1.05,0,0,1-.571.527,1.283,1.283,0,0,1-1.2.161,10.118,10.118,0,0,1-1.567-.5,7.966,7.966,0,0,1-1.538-.864,5.52,5.52,0,0,1-1.318-1.289,3.62,3.62,0,0,1-.586-1.157,2.8,2.8,0,0,1,.381-1.45q1.523-2.49,2.959-4.614T104.868-12.393Zm5.156-2.08q-.264.674-.586.776a.518.518,0,0,1-.586-.22,4.324,4.324,0,0,1-.85-1.025q-.469-1.025-.85-2.08a.719.719,0,0,1,.117-.908q.557-.439.967-.146a1.859,1.859,0,0,1,.557.557Q109.438-15.82,110.024-14.473Zm1.963-1.143a17.752,17.752,0,0,1-.439-2.227.706.706,0,0,1,.264-.85.581.581,0,0,1,.264-.059,1.709,1.709,0,0,1,.879.352,3.512,3.512,0,0,1,.527,1.392,6.321,6.321,0,0,1,.029,1.831.675.675,0,0,1-.513.557.669.669,0,0,1-.659-.176A1.455,1.455,0,0,1,111.987-15.615ZM-109.468,25.131q-.117,1.963-.454,4.79t-.615,5.1q-.278,2.271-.352,3.062a9.26,9.26,0,0,1-.22,1.377q0,.615-.732.586a.713.713,0,0,1-.732-.7q.059-2.021.308-4.321t.483-4.6q.234-2.3.381-4.819-1.875.732-2.432.938t-1.187.454a2.909,2.909,0,0,1-1.538.1,25.457,25.457,0,0,0-.337,2.871,29,29,0,0,0-.088,3.047,9.634,9.634,0,0,0,.249,2.021.55.55,0,0,1-.176.5.5.5,0,0,1-.5.205A1.715,1.715,0,0,1-118.521,35a4.9,4.9,0,0,1-.234-1.406,36.057,36.057,0,0,1,.117-3.691q.176-2.725.264-3.867.029-.293.088-.674.088-.967.205-2.314a5.032,5.032,0,0,1,.732-2.52q2.4-2.373,3.223-3.164a12.626,12.626,0,0,1,1.23-1.084,1.318,1.318,0,0,1,1.113-.088.884.884,0,0,1,.586.879.859.859,0,0,1-.41.85,36.454,36.454,0,0,0-4.16,3.486,4.118,4.118,0,0,0-.527,1.875q0,.527-.029.967-.059.674-.117,1.025,1.963-.586,4.526-1.318t4.585-1.289a.723.723,0,0,1,.835.234,1.407,1.407,0,0,1,.425.908q-.029.41-.308.5a3.1,3.1,0,0,1-.483.117Q-107.886,24.662-109.468,25.131ZM-123.3,23.988q.439-.088,1.143-.205a1.921,1.921,0,0,1,1.641.293q.439.527.264.879a.749.749,0,0,1-.879.439,5.748,5.748,0,0,0-1.494.176q-.586.146-1.465.41.322.322.293.557-.029.293,0,1.758.469-.146.85-.234a11.188,11.188,0,0,1,1.523-.352,1.244,1.244,0,0,1,.864.278.855.855,0,0,1,.366.762q-.029.454-.586.571-.586.146-1.392.293a10.255,10.255,0,0,0-1.8.527q-.088.967-.146,1.523a7.7,7.7,0,0,0-.029,1.172,7.383,7.383,0,0,0,2.095.981q.894.22,1.978.425a.766.766,0,0,1,.132.776.97.97,0,0,1-.747.454,4.128,4.128,0,0,1-1.421-.088,11.734,11.734,0,0,1-2.3-.82q-.205,1.523-.293,3.149a8.809,8.809,0,0,1-.381,2.417,1,1,0,0,1-.967.029.946.946,0,0,1-.557-.645,1.67,1.67,0,0,1,0-.762q.205-1.758.439-4.277a5.288,5.288,0,0,0-1.084,1.084q-.762.908-1.1,1.274t-.659.688a1.089,1.089,0,0,1-1.23,0,.825.825,0,0,1-.146-1.055q.205-.293,1.948-2.373t2.446-2.783l.059-.439a19.761,19.761,0,0,0-1.8.864,21.577,21.577,0,0,0-2.358,1.538q-.293.234-.937-.088a1.653,1.653,0,0,1-.352-.264,1.3,1.3,0,0,1-.41-.674,4.09,4.09,0,0,1,1.45-1.143q1.245-.732,2.329-1.245t2.227-1.011l.117-2.373q-1.582.527-2.7.967a15.588,15.588,0,0,0-2.373,1.143.667.667,0,0,1-.41.322,2.238,2.238,0,0,1-.747-.117,1.5,1.5,0,0,1-.776-.425.9.9,0,0,1-.117-.806,12.468,12.468,0,0,1,1.714-.967,23.8,23.8,0,0,1,2.856-1.084,3.757,3.757,0,0,1-1.011-2.109q-.278-1.436-.4-2.373-.41.176-1.318.527a.93.93,0,0,1-.6-.073,1.563,1.563,0,0,1-.527-.63,1.156,1.156,0,0,1-.22-.732q.059-.234.82-.5t3.6-1.084a20.84,20.84,0,0,0-.117-2.212q-.117-1.1-.234-1.772a.716.716,0,0,1,.439-.5.553.553,0,0,1,.176-.029,1.6,1.6,0,0,1,.645.176,1.6,1.6,0,0,1,.732,1.172q.059,1.436.234,2.725,1.465-.41,2.622-.615t1.978-.322a1.177,1.177,0,0,1,1.23.264q.645.322.352,1.172a.823.823,0,0,1-1,.527q-.82-.029-1.436-.029a4.715,4.715,0,0,1,.132.718,2.908,2.908,0,0,1-.322,1.26A21.129,21.129,0,0,0-123.3,23.988Zm-3.838,1.084a7.345,7.345,0,0,0,1.787-.557q.645-2.461.908-3.574a4.161,4.161,0,0,0,.176-1.523,19.815,19.815,0,0,0-3.34.879,13.144,13.144,0,0,0-.073,2.476A5.349,5.349,0,0,0-127.134,25.072Zm33.018,10.781a4.2,4.2,0,0,1-2.109.5,2.757,2.757,0,0,1-1.9-.791A5.722,5.722,0,0,1-99.419,33.6a10.693,10.693,0,0,1-.513-3.413A39.36,39.36,0,0,1-99.8,26q.176-2.036.469-4.556a1.347,1.347,0,0,1,.176-.879.523.523,0,0,1,.381-.117,2.1,2.1,0,0,1,.439.059,1.793,1.793,0,0,1,.967.718,1.137,1.137,0,0,1,.176,1.1,38.868,38.868,0,0,0-.615,5.127,45.136,45.136,0,0,0-.088,4.717,4.687,4.687,0,0,0,.4,1.86q.308.542,2.095.073A20.285,20.285,0,0,0-92.3,32.47q1.436-.923,3.75-2.71a.435.435,0,0,1,.439.19.906.906,0,0,1,.117.586,2.03,2.03,0,0,1-.586,1q-.557.63-1.89,1.9A14.658,14.658,0,0,1-94.116,35.854Zm18.779-2.139a4.143,4.143,0,0,1-1.2,1.011,2.842,2.842,0,0,1-1.523.366,3.115,3.115,0,0,1-1.523-.454,3.513,3.513,0,0,1-1.143-1.1,12.676,12.676,0,0,1-1.26-2.622A22.24,22.24,0,0,1-82.764,28q-.308-1.553-.483-3.223.029-.645.264-.718a1.411,1.411,0,0,1,.645,0,1.867,1.867,0,0,1,.747.308,1.215,1.215,0,0,1,.469.63,3.277,3.277,0,0,1,.161.806,12.262,12.262,0,0,0,.308,2.974,15.572,15.572,0,0,0,.7,2.373,10.869,10.869,0,0,0,.981,1.831.747.747,0,0,0,1.055.264,10.307,10.307,0,0,0,1.289-1.055q.791-.732,1.538-1.538t1.421-1.479a.887.887,0,0,1,.63.278,1.086,1.086,0,0,1,.029.82,3.311,3.311,0,0,1-.454,1.1Q-73.784,31.869-75.337,33.715Zm10.107-3.076a.6.6,0,0,1-.571.454.987.987,0,0,1-.659-.1,3.4,3.4,0,0,1-.674-1.289q-.439-2.2-.688-3.94l-.337-2.358a.754.754,0,0,1,.059-.5.4.4,0,0,1,.381-.234,1.327,1.327,0,0,1,.469.088,2.6,2.6,0,0,1,.7.337,1.1,1.1,0,0,1,.439.586,2.437,2.437,0,0,1,.117.747q.264,2.9.454,4.277T-65.229,30.639Zm16.729,2.49q.7-.234,1.436-.41a2.03,2.03,0,0,1,.586.088.47.47,0,0,1,.352.381.715.715,0,0,1-.586.938,19.9,19.9,0,0,1-1.934.7q0,.762-.029,1.875,2.373-1.406,3.955-2.139a.844.844,0,0,1,0,.908,2.6,2.6,0,0,1-.762.908q-2.52,1.611-5.1,3.164a1.736,1.736,0,0,1-.937.352.983.983,0,0,1-.762-.19.819.819,0,0,1-.337-.645,3.706,3.706,0,0,1,.044-.747q1.084-.381,2.08-.791a5.482,5.482,0,0,0,.234-1.992,9.137,9.137,0,0,0-1.846.85.527.527,0,0,1-.732-.205,1.157,1.157,0,0,1-.542-.439.841.841,0,0,1-.1-.674.94.94,0,0,1,.352-.381,4.019,4.019,0,0,1,.923-.337,19.568,19.568,0,0,0,2.036-.747q-.029-.645-.088-1.816-1.523.967-2.227.557A5.954,5.954,0,0,1-53.6,30.727q-.234-.527-.5-1.172-.176-.5-.41-1.084-.469-1.348-.937-3.223a.628.628,0,0,1,.278-.469q.249-.176,1.245.234a11.946,11.946,0,0,1,1.685-.879q.894-.381,1.772-.762l.029-1.787a9.067,9.067,0,0,0-2.432.776,16.56,16.56,0,0,0-1.875.981.383.383,0,0,1-.571.015q-.278-.249-.469-.454a1.05,1.05,0,0,1-.249-.557.663.663,0,0,1,.132-.571,1.868,1.868,0,0,1,.659-.425,17.884,17.884,0,0,1,1.919-3.34q1.216-1.7,2.886-3.809a.527.527,0,0,1,.41-.205.806.806,0,0,1,.41.146,1.818,1.818,0,0,1,.645.469,1.1,1.1,0,0,1,.293.762.805.805,0,0,1-.41.439,6.206,6.206,0,0,0-1.084.938,3.253,3.253,0,0,1,1.23.674,4.369,4.369,0,0,1,.322,1.9q1.348-.293,2.754-.5a1.192,1.192,0,0,1,1.26.5.706.706,0,0,1,.293.674q-.059.381-.557.439a10.5,10.5,0,0,0-1.831.146,16.007,16.007,0,0,0-1.948.381q.029.674.029,1.787A7.847,7.847,0,0,0-47.3,22.45a7.968,7.968,0,0,1,1.436-.308q1.406-.088,1.289,1.377-.059.322-.088.615-.439,2.637-.7,4.629a2.651,2.651,0,0,1-.513,1.567,1.239,1.239,0,0,1-.981.366,8.506,8.506,0,0,0-.967.293q-.381.146-.674.264A14.572,14.572,0,0,1-48.5,33.129Zm-3.926-3.75A4.841,4.841,0,0,0-51.87,30.9a11.92,11.92,0,0,0,1.523-.5l.059-2.109A4.951,4.951,0,0,0-52.427,29.379ZM-53.716,21a22.058,22.058,0,0,1,3.193-1.084,5.975,5.975,0,0,0-.293-2.373,18.034,18.034,0,0,0-1.479,1.567A14.608,14.608,0,0,0-53.716,21Zm.879,6.855a14.212,14.212,0,0,1,2.461-1.172q0-.615-.029-1.406a7.846,7.846,0,0,0-2.783,1.2A2.724,2.724,0,0,0-52.837,27.855Zm6.211-.762A6.056,6.056,0,0,0-47.8,27.4q-.381.161-.908.366-.029,1.26-.088,2.021a4.63,4.63,0,0,0,1.7-.674A6.247,6.247,0,0,0-46.626,27.094ZM-38.8,37.318A47.546,47.546,0,0,0-37.383,32.4q.6-2.578.908-4.468t.439-2.988a15.346,15.346,0,0,0,.132-1.714q-.937.322-1.406.513A16.225,16.225,0,0,0-39.3,24.926q-.586,2.783-2.08,9.668-.352,1.611-.557,3.047-.117.674-.264,1.26l-.645-.059a.978.978,0,0,1-.571-.249,1.091,1.091,0,0,1-.337-.557,1.326,1.326,0,0,1,.015-.7q.1-.366.483-2.109t.732-3.3q.352-1.553.674-3a14.233,14.233,0,0,0,.352-2.769q-.645.674-1.113,1.23a.889.889,0,0,1-.747-.146q-.19-.205-.425-.469a2.482,2.482,0,0,1-.352-.527.751.751,0,0,1,.029-.674,11.061,11.061,0,0,1,1.377-.967,9.417,9.417,0,0,0,1.436-1.055,9.661,9.661,0,0,0,.205-1.465v-.205q.029-.674.117-2.021a5.246,5.246,0,0,1,.264-1.025,5.373,5.373,0,0,1,.938.205,1.277,1.277,0,0,1,.732.586,1.6,1.6,0,0,1,.234.938v.205q-.029.762-.088,1.553a13.081,13.081,0,0,0,2.2-.967,2.585,2.585,0,0,1,1.758-.264,1.673,1.673,0,0,1,1.23,1.67q-.352,2.461-1.245,6.782t-1.406,6.035a27.365,27.365,0,0,1-1.128,3.12,1.019,1.019,0,0,1-.908.908A1.376,1.376,0,0,1-39.8,38.93a3.991,3.991,0,0,1-.967-1.7A3.6,3.6,0,0,0-38.8,37.318ZM-57.29,40.043a1.27,1.27,0,0,1-1.172.234,1.045,1.045,0,0,1-.791-.85,5,5,0,0,1-.117-1.7q-.029-2.461.205-5.215v-.176q.234-2.871.425-5.64a32.627,32.627,0,0,0,.132-3.5,39.308,39.308,0,0,0-1.685,3.618,14.414,14.414,0,0,0-.864,2.886.578.578,0,0,1-.791.469,1.008,1.008,0,0,1-.967-.908,2.55,2.55,0,0,1,.234-.937l1.436-3.486q.938-2.256,2.314-4.863t2.4-4.307a4.428,4.428,0,0,1,.205-.454q.088-.161.469-.19a1.279,1.279,0,0,1,1.23.791,1.141,1.141,0,0,1-.117.762q-1.318,1.963-2.842,4.512a1.987,1.987,0,0,1,.879,2.168l-.645,7.178-.059,1.055q-.205,2.607-.234,4.482a16.573,16.573,0,0,0,.234,3.281A2.876,2.876,0,0,1-57.29,40.043Zm10.752-14.648.059-.205a4.293,4.293,0,0,0,.059-1.26,5.906,5.906,0,0,0-1.289.205,2.975,2.975,0,0,0-1,.439q-.088.85-.146,1.494.82-.205,1.611-.439Zm24.844,2.2q-1.641.732-2.534,1.055t-1.245.439a1.757,1.757,0,0,1-1.025.1,1.254,1.254,0,0,1-.835-.571,1.983,1.983,0,0,1-.308-1.113q1.377-.322,2.417-.674t3.413-1.348a12.637,12.637,0,0,0-.176-2.08,13.293,13.293,0,0,0-.5-2.021q-.439.117-1.465.381t-2.549.7a1.954,1.954,0,0,1-1.011.205,1.166,1.166,0,0,1-.718-.439,3.5,3.5,0,0,1-.557-.967.558.558,0,0,1,.322-.513,11.277,11.277,0,0,1,1.611-.41q1.318-.278,3.633-.835-.117-.5-.322-1.23a.639.639,0,0,1,.586-.381,1.972,1.972,0,0,1,.322.029,1.91,1.91,0,0,1,.864.542,5.233,5.233,0,0,1,.454.63q.938-.146,1.787-.264a2.509,2.509,0,0,1,1.26.059,1.224,1.224,0,0,1,.615.557,1.256,1.256,0,0,1,.146.791q-1.7.381-3.135.674.205.938.308,1.421t.425,2.271q.527-.293.938-.571a2.445,2.445,0,0,1,.762-.366,1.032,1.032,0,0,1,.791.352.664.664,0,0,1,.146.762A3.1,3.1,0,0,1-18.4,25.863q-.806.5-1.421.82.029.732-.015,1.509a6.474,6.474,0,0,1-.425,1.816,4.079,4.079,0,0,1-.762,1.421.969.969,0,0,1-.747.352,1.907,1.907,0,0,1-.674-.176q-.308-.146-.308-.762a3.459,3.459,0,0,0,.835-1.494A4.937,4.937,0,0,0-21.694,27.592ZM-22.368,38.2a10.533,10.533,0,0,1-3.56-1.582A14.787,14.787,0,0,1-28.4,34.652a1.981,1.981,0,0,1-.4-.718.817.817,0,0,1,.059-.571q.132-.264.659-.264.439.146.952.352a2.238,2.238,0,0,1,.835.557,6.124,6.124,0,0,0,1.7,1.567,14.8,14.8,0,0,0,2.637,1.1.972.972,0,0,1,.674.645.562.562,0,0,1-.234.674A1.348,1.348,0,0,1-22.368,38.2ZM2.212,22.963a2.778,2.778,0,0,1-.146,1.582q-.791,1.2-1.348,2.109-.234.381-.439.732a28.6,28.6,0,0,1,3.354-.879q1.3-.234,2.593-.352a2.725,2.725,0,0,1,1.787.513q.527.483.205,2.036a37.291,37.291,0,0,1-1.846,5.9,22.894,22.894,0,0,1-1.611,3.223,5.839,5.839,0,0,1-1.582,1.626,2.987,2.987,0,0,1-1.494.469,1.875,1.875,0,0,1-1.406-.557,4.165,4.165,0,0,1-.82-.981,8.886,8.886,0,0,1-.41-.937,1.144,1.144,0,0,1,.059-1.011A15.32,15.32,0,0,0,.645,37.45a1.807,1.807,0,0,0,1.392.249,8.013,8.013,0,0,0,2.109-3.032,24.35,24.35,0,0,0,1.6-4.146,8.782,8.782,0,0,0,.425-2.461,11.6,11.6,0,0,0-2.842.5,11.554,11.554,0,0,0-1.992.732,1.794,1.794,0,0,1-.981.264,3.242,3.242,0,0,1-1.216-.439q-1.113,1.553-1.8,2.681a35.554,35.554,0,0,0-1.919,4,2.791,2.791,0,0,1-1.084-.176.657.657,0,0,1-.425-.63,2.306,2.306,0,0,1,.1-.806A25.079,25.079,0,0,1-4.556,31.4q.732-1.172,1.611-2.637a5.172,5.172,0,0,0,.322-.557Q-1.509,26.391-.864,25.1t.7-1.494A43.583,43.583,0,0,0-4.468,24.97a23.665,23.665,0,0,0-2.959,1.362.981.981,0,0,1-1.216-.088,2.3,2.3,0,0,1-.806-1.084.769.769,0,0,1,.557-.82q3.662-1.436,5.508-1.948t3.135-.952a2.129,2.129,0,0,1-.308-.791A6.681,6.681,0,0,1-.366,19.4a18.408,18.408,0,0,0,.308-2.358q.1-1.377.1-2.549.029-.586.439-.7H.688a1.363,1.363,0,0,1,.7.234,1.786,1.786,0,0,1,.645,1,34.561,34.561,0,0,1-.278,3.486q-.22,1.641-.483,2.754,2.666-.469,4.893-.732a18,18,0,0,1,3.926-.088,1.792,1.792,0,0,1,.938.264v.029a1.052,1.052,0,0,1,.513.806,1.5,1.5,0,0,1-.249,1.04,18.536,18.536,0,0,0-3.047-.264,12.225,12.225,0,0,0-1.465.029A37.921,37.921,0,0,0,2.212,22.963ZM28.4,29.438a12.314,12.314,0,0,1,1.406,1.172,11.37,11.37,0,0,1,.938,1.055,1.066,1.066,0,0,1-.322,1,.827.827,0,0,1-.835-.029q-.308-.234-1-.688a18.223,18.223,0,0,1-1.509-1.128q-.645.7-1.187,1.333a6.874,6.874,0,0,0-1.04,1.831q-.352,1.084.381,1.436a5.163,5.163,0,0,0,2.358.19,17.974,17.974,0,0,0,3.5-.659q.557-.293.879,0a1.3,1.3,0,0,1,.381.864,1.053,1.053,0,0,1-.381.952,3.5,3.5,0,0,1-1.289.352,18.411,18.411,0,0,1-2.637.454,6.009,6.009,0,0,1-3.018-.366,3.408,3.408,0,0,1-2.109-3.6,6.154,6.154,0,0,1,.82-1.978,11.3,11.3,0,0,1,1.67-1.978A4.2,4.2,0,0,1,23.8,28.119a2.922,2.922,0,0,1-.352-1.9,17.381,17.381,0,0,1,.85-2.7q-1.875.527-2.783.82a14.771,14.771,0,0,0-1.758.7,1.594,1.594,0,0,1-.967-.542,1.237,1.237,0,0,1-.352-.718.722.722,0,0,1,.352-.557,5.881,5.881,0,0,1,1.523-.63q1.172-.366,2.637-.718.967-.234,2.139-.5.645-1.729.732-2.051.117-.381.439-1.318a.444.444,0,0,1,.352-.176.806.806,0,0,1,.41.146,1.634,1.634,0,0,1,.586.586q.117.264.234.513a2.792,2.792,0,0,1-.264,1.392q-.088.234-.176.439,1.2-.234,2.461-.439,1.875-.293,3.164-.381a.982.982,0,0,1,.85.571,2.3,2.3,0,0,1,.205.894q0,.41-.674.469A9.457,9.457,0,0,0,31.421,22q-1.143.088-2.52.322-.937.176-2.373.557-.41.908-1.172,2.988a1.728,1.728,0,0,0,.015,1.128,3.826,3.826,0,0,0,1.392,1.1q.586-.5,1.655-1.3a13.808,13.808,0,0,1,2.124-1.333.646.646,0,0,1,.586-.059.991.991,0,0,1,.41.469,2.241,2.241,0,0,1,.205.879.643.643,0,0,1-.469.7q-.879.439-1.3.659A9.112,9.112,0,0,0,28.4,29.438ZM43.11,19.594Q43.14,21,43.1,22.772t.015,2.5q.41-.176,1.436-.659t3.545-1.772a11.075,11.075,0,0,0,.308-1.23q.073-.439.249-1.406.234-1.172,1.2-.469.85.674.5,1.348-.117.527-.234.967l.7-.205a1.269,1.269,0,0,1,1.055.85,14.632,14.632,0,0,1-2.285,1.465l-.117,1q-.322,2.051-.557,3.457a3.953,3.953,0,0,1-.088.469q-.234,1.523-.293,2.08a2.972,2.972,0,0,0,1.084-.747,4.386,4.386,0,0,1,1.26-.894q.82.439.41,1.113a4.711,4.711,0,0,1-1.172,1.538,6.726,6.726,0,0,1-2.08,1.245q-.439,1.816-.6,2.417a2.781,2.781,0,0,1-.483,1.011,1.348,1.348,0,0,1-.908.088.945.945,0,0,1-.381-.732q.176-.967.308-1.67t.19-1.084a5.86,5.86,0,0,1-2.109-1.025,7.2,7.2,0,0,1-.7-.615,5.922,5.922,0,0,1-.908-1.26,9.326,9.326,0,0,1-.791-2.2,11.719,11.719,0,0,0-1.494.879,2.1,2.1,0,0,1-1.641-.7q-.645-.82.41-1.26a20.564,20.564,0,0,0,2.461-1.143q-.029-.322-.029-2.256t.059-4.629a1.167,1.167,0,0,1,.19-.879q.22-.205.7-.029a1.344,1.344,0,0,1,.688.483A1.017,1.017,0,0,1,43.11,19.594ZM54.39,28.676a2.416,2.416,0,0,1,1.084.059,1.118,1.118,0,0,1,.659.571q.22.425.513.952.645-.205,2.446-.806a18.419,18.419,0,0,1,2.651-.732q.85-.132,1.553-.278a1.547,1.547,0,0,1,1.362.645,1.652,1.652,0,0,1,.4,1.465q-.527,2.285-1.494,5.332.674.527.483,1.084a.735.735,0,0,1-.747.557q-.469.146-2.578.571t-3.252.776q-1.084.381-1.523.029a4.219,4.219,0,0,1-.908-1.143q-.469-2.52-.615-4.072T54.272,29.5A2.288,2.288,0,0,1,54.39,28.676Zm1.9,3.486a14.166,14.166,0,0,0,0,2.9,10.6,10.6,0,0,0,.352,1.729q.469-.088,1.7-.308a33.349,33.349,0,0,0,3.4-.864,22.642,22.642,0,0,0,.981-3.721,3.609,3.609,0,0,0,.015-1.377A20.74,20.74,0,0,0,57.905,32.1,3.735,3.735,0,0,1,56.294,32.162Zm-1.406-6.5q3.076-1.318,4.878-2.139a16.859,16.859,0,0,0,2.153-1.084q0-1,.557-1.04a2.467,2.467,0,0,1,1.436.542q1.582,1.494,3.223,2.959a.948.948,0,0,1,.293.674,1.066,1.066,0,0,1-.059.762,1.026,1.026,0,0,1-.732.117,6.509,6.509,0,0,1-1.86-1.172,11.874,11.874,0,0,0-1.567-1.26q-1.172.41-3.179,1.348t-4.014,1.758a14.045,14.045,0,0,1-2.681.908,2.216,2.216,0,0,1-1.729-.615l-.176-.264a1.152,1.152,0,0,1,.088-1.289q.762-1.318,2.065-3.354t2.49-3.721a16.34,16.34,0,0,0,1.685-2.856,1.724,1.724,0,0,1,.688.1q.22.1.469.234a2.249,2.249,0,0,1,.483.352.665.665,0,0,1,.205.571q-1.553,2.314-2.651,3.984t-1.831,2.637A20.7,20.7,0,0,0,53.8,25.8l-.029.029A2.165,2.165,0,0,0,54.888,25.658Zm-7.793,2.783q.352-1.641.586-3.4a7.972,7.972,0,0,1-1.421.762,26.849,26.849,0,0,0-2.915,1.641,6.768,6.768,0,0,0,.308,1.8,4.251,4.251,0,0,0,.952,1.626l.117.146a1.776,1.776,0,0,0,1.787.674q.146-.937.322-1.875Q46.978,29.115,47.095,28.441Zm38.555,6.445a2.513,2.513,0,0,0,1.26-.923,9.015,9.015,0,0,0,.85-1.582,16.427,16.427,0,0,0,.747-2.2,8.943,8.943,0,0,0,.337-2.329,4.243,4.243,0,0,0-.41-1.992,3.427,3.427,0,0,0-1.626-1.509,4.555,4.555,0,0,0-2.417-.513q-.7,1.084-1.172,1.963T81.8,28.163q-.952,1.479-2.3,3.208.322.41.5.6a.654.654,0,0,1,.088.6.748.748,0,0,1-.513.571,1.632,1.632,0,0,1-1.3-.249,18.9,18.9,0,0,1-1.919,1.641,7.638,7.638,0,0,1-2.241,1.113,2.664,2.664,0,0,1-1.655,0,2.285,2.285,0,0,1-1.274-.937,4.564,4.564,0,0,1-.352-1.641,5.594,5.594,0,0,1,.278-1.86,8.767,8.767,0,0,1,1.2-2.271A18.506,18.506,0,0,1,74.9,26.068q-.117-.732-.4-1.86T73.7,20.414q.059-.469.293-.513a1.454,1.454,0,0,1,.674.1,2.075,2.075,0,0,1,.747.425,2.382,2.382,0,0,1,.483,1.274q.293,1.611.732,3.311a16.267,16.267,0,0,1,3.223-1.846,19.18,19.18,0,0,1,2.959-1.055,17.032,17.032,0,0,0,.82-2.051,1.062,1.062,0,0,1,.586-.615,1.49,1.49,0,0,1,.293-.029.649.649,0,0,1,.205.029,1.14,1.14,0,0,1,.425.337,2.215,2.215,0,0,1,.4.63,1.566,1.566,0,0,1,.117.732q-.234.557-.41,1a6.8,6.8,0,0,1,2.827.806,4.02,4.02,0,0,1,2.007,2.329,8.6,8.6,0,0,1,.527,3.311,12.683,12.683,0,0,1-.7,3.633,18.261,18.261,0,0,1-1.1,2.725,8.464,8.464,0,0,1-.718,1.143.873.873,0,0,1-.674.41,2.8,2.8,0,0,1-.879-.088,1.416,1.416,0,0,1-.776-.5A1.048,1.048,0,0,1,85.649,34.887Zm-8.7-3.6a14.566,14.566,0,0,1-1.26-3.105,9.106,9.106,0,0,0-1.978,2.329,8.954,8.954,0,0,0-1.069,2.153,2.975,2.975,0,0,0,0,1.436,4.078,4.078,0,0,0,1.274-.4,6.779,6.779,0,0,0,1.538-1.055Q76.274,31.928,76.948,31.283Zm.176-4.189a16.582,16.582,0,0,0,.513,1.685,7.111,7.111,0,0,0,.659,1.3q.7-.908,1.787-2.49a38.608,38.608,0,0,0,2.139-3.545,16.585,16.585,0,0,0-2.637,1.245A12.908,12.908,0,0,0,77.124,27.094Zm25.664,2.637q.117-.762.176-1.626t.1-2.183a4.071,4.071,0,0,0-.161-1.7,2.276,2.276,0,0,1-.366-.835,1.055,1.055,0,0,1,.1-.718q.176-.322.322-.615-.176-1.816-.293-3.633a2.312,2.312,0,0,1,.029-.674.254.254,0,0,1,.293-.234,2.064,2.064,0,0,1,.82.293,1.29,1.29,0,0,1,.674,1q.205,1.2.278,2.036t.132,1.274a31.412,31.412,0,0,0,3.354-.249q1.743-.22,3.56-.337a1.083,1.083,0,0,1,.747.22,1.178,1.178,0,0,1,.234.469.645.645,0,0,1-.1.542,23.306,23.306,0,0,1-3.97.82q-2.007.234-3.882.645-.029,1.348-.029,2.065v3.179q.557,0,1.523-.015t1.992.015a.909.909,0,0,1,.22.732.668.668,0,0,1-.293.571,1.425,1.425,0,0,1-.513.161q-1.2.146-1.729.19a9.409,9.409,0,0,0-1.2.19q-.176.674-.439,1.86a8.168,8.168,0,0,1-.879,2.271,2.5,2.5,0,0,1-2.725,1.143,11.011,11.011,0,0,1-2.007-.732,4.243,4.243,0,0,1-1.6-1.289,3.009,3.009,0,0,1-.63-1.3q-.044-.483.894-1.509a6.743,6.743,0,0,1,1.289-.732,19.737,19.737,0,0,1,1.875-.688Q101.733,29.965,102.788,29.73Zm-.059,1.816a8.635,8.635,0,0,0-2.446.688,9.763,9.763,0,0,0-1.567.835q-.5.381.029.938a5.621,5.621,0,0,0,1.216.674,1.713,1.713,0,0,0,1.084.1,1.644,1.644,0,0,0,.894-.776,4.713,4.713,0,0,0,.469-1.128Q102.583,32.25,102.729,31.547Zm17.783-4.307a5.747,5.747,0,0,1-.894-.278.81.81,0,0,1-.557-.645,1.284,1.284,0,0,1,.161-.864,9.476,9.476,0,0,1,2.153-2.021,9.276,9.276,0,0,1,2.432-1.245,7.386,7.386,0,0,1,2.417-.337,4.445,4.445,0,0,1,2.388.923,3.487,3.487,0,0,1,1.3,2.183,9.118,9.118,0,0,1,.029,2.827,15.625,15.625,0,0,1-1.157,3.735,33.64,33.64,0,0,1-2.139,4.233,17.561,17.561,0,0,1-1.714,2.534q-.527.557-1.113,1.143a1.158,1.158,0,0,1-.806.322.923.923,0,0,1-.776-.5.768.768,0,0,1,.088-1.025,33.109,33.109,0,0,0,3.149-4.438,27.5,27.5,0,0,0,2.388-5.962,10.416,10.416,0,0,0,.381-2.314,1.072,1.072,0,0,0-.293-1.143,2.411,2.411,0,0,0-1.465-.469,6.254,6.254,0,0,0-2.109.264,6.784,6.784,0,0,0-2.271,1.23A5.326,5.326,0,0,0,120.513,27.24Zm3.428-6.592a25.717,25.717,0,0,0,.425-3.062,6.652,6.652,0,0,0-.571-3.237q-.059-.732.439-.908a1.106,1.106,0,0,1,.352-.059.562.562,0,0,1,.41.176,5.864,5.864,0,0,1,.718,1.289,5.307,5.307,0,0,1,.454,2.227,8.27,8.27,0,0,1-.278,2.227,12.724,12.724,0,0,1-.454,1.406,1.117,1.117,0,0,1-.337.469q-.22.176-.659-.029T123.94,20.648Z" transform="translate(132.827 20.596)" fill="#fb7180"/>
</svg>
