	<svg xmlns="http://www.w3.org/2000/svg" width="273.296" height="66.279"
						viewBox="0 0 273.296 66.279">
						<path id="Контур_1743" data-name="Контур 1743"
							d="M-97.947-16.86q-3.6.366-8.437.513l-.117-1.919a74.291,74.291,0,0,0,7.764-.4,50.487,50.487,0,0,1-1.67-5.186l2.212-.278A37.893,37.893,0,0,0-96.57-18.9a62.1,62.1,0,0,0,6.328-1.113l.234,1.919q-2.358.527-5.815,1a31.98,31.98,0,0,0,5.786,8.7l-1.289,1.86a13.9,13.9,0,0,0-7.222-2.051,6.847,6.847,0,0,0-4.438,1.289,3.217,3.217,0,0,0-1.289,2.578q0,3.853,7.559,3.853A23.462,23.462,0,0,0-92.7-1.172l.029,2.095a30.8,30.8,0,0,1-4.072.249,15.07,15.07,0,0,1-7.031-1.289,4.763,4.763,0,0,1-2.607-4.5A4.966,4.966,0,0,1-103.6-9.229a10.169,10.169,0,0,1,4.966-1.128,11.176,11.176,0,0,1,5.786,1.172A25.184,25.184,0,0,1-97.947-16.86Zm16.553.659q.029-1.025.22-3.384l1.89.059q-.1.879-.308,3.3,4.292-.176,7.954-.659l.029,1.714q-5.435.483-8.1.6-.117,2.153-.146,3.237a13.743,13.743,0,0,1,3.779-.513,13.5,13.5,0,0,0,.381-1.655l1.86.337q-.176.732-.439,1.553A5.225,5.225,0,0,1-70.422-9.1a7.285,7.285,0,0,1,.879,3.721A6.057,6.057,0,0,1-71.4-.645,11.3,11.3,0,0,1-76.824,1.6l-.908-1.655A8.99,8.99,0,0,0-72.9-2.021a4.646,4.646,0,0,0,1.348-3.5q0-3.9-3.149-4.585a23.528,23.528,0,0,1-4.058,7.764q-2.285,2.8-4.849,2.8a2.672,2.672,0,0,1-2.241-1,4.064,4.064,0,0,1-.7-2.52,8.083,8.083,0,0,1,1.45-4.79,8.91,8.91,0,0,1,3.53-2.856q0-1.89.088-3.779-2.183.044-4.38,0V-16.2Q-84.368-16.143-81.394-16.2Zm-.146,7.266a6.154,6.154,0,0,0-2.5,2.607,6.608,6.608,0,0,0-.762,3.091q0,1.89,1.348,1.89a3.982,3.982,0,0,0,2.886-1.626A24.067,24.067,0,0,1-81.541-8.936Zm2.373,4.189a19.663,19.663,0,0,0,2.637-5.42,11.667,11.667,0,0,0-3.325.439A21.647,21.647,0,0,0-79.167-4.746Zm14.854-.659A32.032,32.032,0,0,1-60.8-2.124a21.524,21.524,0,0,1,2.5,3.179L-60.271,2.52a23.826,23.826,0,0,0-5.786-6.5Zm33.6,4.526a12.32,12.32,0,0,1-5.8,1.23,9.355,9.355,0,0,1-7.178-2.886,10.648,10.648,0,0,1-2.7-7.573,11.161,11.161,0,0,1,3.032-8.145,10.292,10.292,0,0,1,7.69-3.105,12.33,12.33,0,0,1,4.951.864v2.622a10.041,10.041,0,0,0-4.98-1.26,7.642,7.642,0,0,0-5.867,2.417,9.106,9.106,0,0,0-2.249,6.46,8.664,8.664,0,0,0,2.1,6.116A7.153,7.153,0,0,0-36.189-1.86,10.346,10.346,0,0,0-30.71-3.267ZM-10.173,0H-12.9l-2.227-5.889h-8.906L-26.125,0h-2.739l8.057-21.006h2.549ZM-15.93-8.1l-3.3-8.95a8.57,8.57,0,0,1-.322-1.406h-.059a7.846,7.846,0,0,1-.337,1.406L-23.21-8.1ZM7.976,0H5.046L1.531-5.889a12.825,12.825,0,0,0-.937-1.4,5.344,5.344,0,0,0-.93-.945,3.222,3.222,0,0,0-1.025-.535A4.216,4.216,0,0,0-2.6-8.936H-4.622V0H-7.083V-21.006h6.27a8.935,8.935,0,0,1,2.542.344A5.686,5.686,0,0,1,3.75-19.614a4.867,4.867,0,0,1,1.34,1.75,5.8,5.8,0,0,1,.483,2.454,5.908,5.908,0,0,1-.33,2.014,5.26,5.26,0,0,1-.937,1.633A5.683,5.683,0,0,1,2.842-10.54a7.478,7.478,0,0,1-1.926.784V-9.7a4.43,4.43,0,0,1,.916.535,5.038,5.038,0,0,1,.74.71,9.41,9.41,0,0,1,.7.93q.344.52.769,1.208Zm-12.6-18.779v7.617h3.34A5.065,5.065,0,0,0,.425-11.44a3.951,3.951,0,0,0,1.355-.8,3.62,3.62,0,0,0,.894-1.274A4.266,4.266,0,0,0,3-15.205,3.293,3.293,0,0,0,1.9-17.834a4.688,4.688,0,0,0-3.157-.945ZM21.995,0H10.862V-21.006H21.526v2.227h-8.2v6.987h7.588V-9.58H13.323v7.354h8.672ZM36.936,0h-10.9V-21.006H28.5V-2.227h8.438Zm4.131-18.809a1.522,1.522,0,0,1-1.1-.439,1.483,1.483,0,0,1-.454-1.113,1.507,1.507,0,0,1,.454-1.121,1.509,1.509,0,0,1,1.1-.447,1.551,1.551,0,0,1,1.121.447,1.5,1.5,0,0,1,.461,1.121,1.485,1.485,0,0,1-.461,1.1A1.538,1.538,0,0,1,41.067-18.809ZM42.239,0h-2.4V-15h2.4ZM64.358,0H61.34L50.53-16.743a7,7,0,0,1-.674-1.318h-.088a21.626,21.626,0,0,1,.117,2.886V0H47.424V-21.006h3.193L61.135-4.526q.659,1.025.85,1.406h.059A22.225,22.225,0,0,1,61.9-6.211V-21.006h2.461ZM84.485,0H81.057L72.942-9.609a5.857,5.857,0,0,1-.557-.732h-.059V0H69.866V-21.006h2.461v9.873h.059a5.791,5.791,0,0,1,.557-.718l7.852-9.155h3.062L74.846-10.928Zm16.523-15.337,1.538-.586a39.16,39.16,0,0,1,2.212,5.068l-1.611.659A32.406,32.406,0,0,0,101.008-15.337Zm3.4-1.011,1.494-.542a24.785,24.785,0,0,1,2.139,4.922l-1.567.63A28.9,28.9,0,0,0,104.407-16.348Zm.835-5.64.059,2.065a11.383,11.383,0,0,0-4.951,1.348,12.715,12.715,0,0,0-4.438,4.2,10.322,10.322,0,0,0-1.743,5.7,6.339,6.339,0,0,0,2.754,5.42,13.221,13.221,0,0,0,6.284,2.139l-.513,2.139a13.075,13.075,0,0,1-7.778-2.959A8.336,8.336,0,0,1,92.1-8.467q0-6.738,6.416-10.767l1.626-.718-.029-.059-1.406.234q-2.549.146-12.129,1.025L86.4-20.728Q90.7-21.05,105.242-21.987ZM-109.98,26.685a.207.207,0,0,1-.234.234l-3.633-.059h-.146V37.451l.059,4.468a.207.207,0,0,1-.234.234h-1.479a.207.207,0,0,1-.234-.234l.059-4.468V26.86h-4.468a38.069,38.069,0,0,1-.747,8.789,15.308,15.308,0,0,1-3.062,5.933q-.249.337-.425.337a.692.692,0,0,1-.4-.234A3.142,3.142,0,0,0-126.05,41a13.714,13.714,0,0,0,3.413-6.3,41.019,41.019,0,0,0,.6-8.437V22.568a38,38,0,0,0-.205-4.233,10.235,10.235,0,0,1,1.948.6,27.672,27.672,0,0,0,5.962-2.344,7.318,7.318,0,0,0,1.509-1.084A9.235,9.235,0,0,1-111.5,16.87a.675.675,0,0,1,.176.41q0,.22-.4.278a3.37,3.37,0,0,0-1.1.352,38.925,38.925,0,0,1-7.471,2.71v4.614h6.445l3.633-.059a.207.207,0,0,1,.234.234Zm-13.945,5.01q0,.234-.249.234l-3.618-.059h-.937a10.661,10.661,0,0,0,2.065,2.256,19.041,19.041,0,0,0,2.373,1.582,3.317,3.317,0,0,0-.718,1.055q-.176.352-.264.352-.117,0-.425-.264a13.583,13.583,0,0,1-3.662-4.014q.029,2.827.132,6.094.073,2.373.073,2.842,0,.234-.264.234h-1.348q-.249,0-.249-.234,0-.659.059-3.3.088-3.105.132-5.288a19.086,19.086,0,0,1-5.112,6.182,1.045,1.045,0,0,1-.439.234q-.117,0-.308-.352a3.271,3.271,0,0,0-.806-1.113,18.661,18.661,0,0,0,6.006-6.27h-1.538l-3.662.059a.207.207,0,0,1-.234-.234v-1.2q0-.249.234-.249l3.662.059h2.109v-.059a14.177,14.177,0,0,0-.19-2.812q.938.044,1.831.146.308.059.308.249a.944.944,0,0,1-.117.41,6.909,6.909,0,0,0-.161,2.007V30.3h1.45l3.618-.059a.22.22,0,0,1,.249.249Zm.513-5.039q0,.234-.249.234l-3.721-.059h-5.786l-3.721.059a.207.207,0,0,1-.234-.234V25.41a.207.207,0,0,1,.234-.234l3.721.059h3.955a24.366,24.366,0,0,0,1.377-3.413,5.4,5.4,0,0,0,.278-1.3q1.011.234,1.611.425.366.117.366.366a.561.561,0,0,1-.205.352,2.168,2.168,0,0,0-.454.688,31.276,31.276,0,0,1-1.318,2.886h.176l3.721-.059q.249,0,.249.234Zm-.483-7.075q0,.234-.249.234l-3.56-.059h-4.98l-3.574.059a.207.207,0,0,1-.234-.234V18.408q0-.249.234-.249l3.574.073h1.729v-.937a8.725,8.725,0,0,0-.205-2.153,17.618,17.618,0,0,1,1.948.146q.4.044.4.234a1.351,1.351,0,0,1-.176.542,2.938,2.938,0,0,0-.161,1.23v.938h1.45l3.56-.073a.22.22,0,0,1,.249.249Zm-7.69,4.16a.482.482,0,0,1,.029.146q0,.161-.293.278l-.747.308a1.5,1.5,0,0,1-.337.073q-.161,0-.205-.234a14.743,14.743,0,0,0-1.143-2.988.45.45,0,0,1-.059-.176q0-.117.366-.249l.688-.249a.574.574,0,0,1,.19-.044q.117,0,.22.176A12.674,12.674,0,0,1-131.587,23.74Zm26.719-7.383h2.241q-.513,15.41-.513,18.574a4.576,4.576,0,0,0,.981,3.384,4.761,4.761,0,0,0,3.311.908A6.9,6.9,0,0,0-93.618,37.2a11.724,11.724,0,0,0,2.607-5.728l2.036,1.025q-1.992,8.73-9.814,8.73-3.721,0-5.142-1.538-1.3-1.392-1.3-4.614,0-1.641.132-8.042Q-104.927,19.287-104.868,16.357ZM-76.7,32.046l1.831,1.318q-1.45,7.236-4.863,7.236a3.539,3.539,0,0,1-3.3-2.183A19.73,19.73,0,0,1-84.565,31.5q-.234-2.812-.234-7.588l.029-5.64H-82.6l-.044,4.688q0,5.669.249,8.364.571,6.9,2.607,6.9,1.04,0,1.743-1.523A25.528,25.528,0,0,0-76.7,32.046Zm4.5-11.455,1.948-.571q4.087,6.2,5.2,16.23l-2.256.366Q-68.408,26.611-72.2,20.591Zm27.8,1.655q0,.234-.205.234l-3.369-.059h-1.289v1.89h1.172l3.193-.059q.264,0,.264.234l-.059,2.49v2.754l.059,2.476q0,.234-.264.234l-3.193-.059h-1.172v1.948h.879l3.149-.059a.207.207,0,0,1,.234.234v1.025a.207.207,0,0,1-.234.234l-3.149-.059h-.879v2.139q2.52-.41,4.028-.791l-.176.908a1.05,1.05,0,0,1-.161.557,1.609,1.609,0,0,1-.542.161q-2.8.615-7.793,1.318a3.282,3.282,0,0,0-1.289.337.735.735,0,0,1-.4.146q-.161,0-.264-.4a14.593,14.593,0,0,1-.366-1.553q.264.015.571.015a21.784,21.784,0,0,0,2.2-.132q1.011-.088,2.7-.337V35.708H-52.1l-3.149.059q-.249,0-.249-.234V34.507q0-.234.249-.234l3.149.059h1.348V32.383h-.967l-3.208.059a.207.207,0,0,1-.234-.234l.059-2.476V26.978l-.059-2.49a.207.207,0,0,1,.234-.234l3.208.059h.967v-1.89H-52.28l-3.369.059a.207.207,0,0,1-.234-.234V21.191a.207.207,0,0,1,.234-.234l3.369.059h1.523V18.95q-1.538.264-3.12.439a2.056,2.056,0,0,1-.278.029q-.234,0-.469-.439a3.879,3.879,0,0,0-.659-.937,36.352,36.352,0,0,0,8.071-1.318,4.515,4.515,0,0,0,1.23-.542,7.521,7.521,0,0,1,1.055,1.025.664.664,0,0,1,.176.4q0,.234-.4.234a2.924,2.924,0,0,0-.835.117q-1.465.4-3.281.718v2.344h1.289l3.369-.059q.205,0,.205.234Zm-1.743,8.848V28.926h-3.12v2.168Zm0-3.428V25.6h-3.12v2.065Zm-4.614,3.428V28.926h-2.886v2.168Zm0-3.428V25.6h-2.886v2.065Zm15.542-4.893q-.059.938-.059,2.681a115.851,115.851,0,0,1-.747,13.2,4.137,4.137,0,0,1-1.011,2.373,2.652,2.652,0,0,1-1.934.659q-.952,0-1.89-.088-.337-.029-.4-.132a1.732,1.732,0,0,1-.117-.527,3.438,3.438,0,0,0-.4-1.23,13.658,13.658,0,0,0,2.593.264,1.216,1.216,0,0,0,1.128-.586,4.328,4.328,0,0,0,.454-1.509,101.585,101.585,0,0,0,.688-13.74h-2.637a55.058,55.058,0,0,1-.967,8.188A17.682,17.682,0,0,1-45.322,41.6q-.234.264-.337.264t-.381-.308a4.674,4.674,0,0,0-1.055-.718,15.7,15.7,0,0,0,5.068-9.053,47.881,47.881,0,0,0,.864-7.646l-2.49.059a.207.207,0,0,1-.234-.234v-1.2q0-.249.234-.249l2.549.073q.073-2.109.073-3.252a24.688,24.688,0,0,0-.22-3.691,12.888,12.888,0,0,1,1.831.19q.366.088.366.293a3.416,3.416,0,0,1-.176.63,11.362,11.362,0,0,0-.19,2.8q0,.981-.059,3.032h1.23l2.769-.073A.233.233,0,0,1-35.215,22.773Zm-19.8-6.65q0,.161-.293.41a2.909,2.909,0,0,0-.571,1.143q-1.1,3.164-1.86,4.893V37.246l.059,4.644a.207.207,0,0,1-.234.234h-1.362a.207.207,0,0,1-.234-.234l.059-4.644V29.717q0-1.2.059-3.97a28.7,28.7,0,0,1-2.007,2.974q-.22.293-.337.293-.088,0-.234-.337a4.979,4.979,0,0,0-.659-1.274,28.728,28.728,0,0,0,5.127-10.2,9.023,9.023,0,0,0,.425-2.051,11.446,11.446,0,0,1,1.7.6Q-55.02,15.918-55.02,16.123Zm36.694,10.313a26.875,26.875,0,0,0,4.453,6.123l-1.23,1.919a17.108,17.108,0,0,0-7.837-1.831,8.249,8.249,0,0,0-4.292.952,2.478,2.478,0,0,0-1.377,2.168q0,1.743,2.358,2.593a16.037,16.037,0,0,0,5.347.718q1.758,0,4.233-.19V41q-1.318.088-4.321.088-9.741,0-9.741-5.068a4.223,4.223,0,0,1,2.285-3.853,11.83,11.83,0,0,1,5.874-1.216,13.488,13.488,0,0,1,6.108,1.318,24.26,24.26,0,0,1-3.926-5.552,73.361,73.361,0,0,1-9.3.6l-.293-1.831A71.492,71.492,0,0,0-21.226,25q-.952-2.183-1.479-3.6-3.765.4-8.13.483l-.264-1.89a74.052,74.052,0,0,0,7.793-.366q-.439-1.216-1.128-3.472l2.153-.205q.527,1.934,1.025,3.472,3.047-.366,6.563-1.113l.308,1.831q-3.53.7-6.24,1.025a35.6,35.6,0,0,0,1.465,3.574q3.149-.454,5.581-1.025l.366,1.8Q-15.586,26.011-18.325,26.436Zm35.786-4.189q0,.234-.249.234l-3.9-.059H2.637q-.088,2.461-.366,4.585H9.829l3.516-.059q.278,0,.278.249v.088l-.161,2.095a62.077,62.077,0,0,1-1.069,9.053A4.221,4.221,0,0,1,11,40.938a3.924,3.924,0,0,1-2.329.586,28.1,28.1,0,0,1-2.886-.176.931.931,0,0,1-.527-.146,1.812,1.812,0,0,1-.1-.542,3.194,3.194,0,0,0-.425-1.406A23,23,0,0,0,8.54,39.6q1.523,0,1.992-1.831a53.527,53.527,0,0,0,1.011-8.994H2.036A17.9,17.9,0,0,1-1.2,36.689,19.363,19.363,0,0,1-7.178,41.6a1.082,1.082,0,0,1-.454.176q-.161,0-.469-.483a3.691,3.691,0,0,0-1.084-.952q5.742-2.827,7.866-7.148Q.557,29.365.659,22.422H-4.629l-3.9.059a.207.207,0,0,1-.234-.234V20.854a.207.207,0,0,1,.234-.234l3.9.059H3.12V18.364a14.407,14.407,0,0,0-.22-3.091,12.494,12.494,0,0,1,2.08.161q.352.044.352.234a1.939,1.939,0,0,1-.176.571,8.346,8.346,0,0,0-.146,2.095v2.344h8.306l3.9-.059q.249,0,.249.234ZM33.208,30.61v5.933H31.2v-5.01q-.688.352-1.421.762-3.838,2.168-3.838,4.351a1.987,1.987,0,0,0,1.348,2.021,13.706,13.706,0,0,0,4.453.5q3.149,0,7.31-.366l.088,2.036q-5.464.278-7.251.278-4.7,0-6.357-1.1a3.8,3.8,0,0,1-1.509-3.428q0-3.135,4.028-5.464,1.523-.864,3.12-1.655-.146-2.812-1.948-2.812-2.52,0-6.914,5.068l-1.553-1.377a35.032,35.032,0,0,0,6.211-8.862q-2.739.044-5.493,0V19.653q3.164.059,6.328,0A26.807,26.807,0,0,0,29.15,15.64l2.168.4a30.807,30.807,0,0,1-1.26,3.53q4.219-.132,8.013-.513l.059,1.831q-4.922.4-8.877.513a30.636,30.636,0,0,1-2.52,4.263l-.762.776.088.117a5.339,5.339,0,0,1,3.574-1.523,3.259,3.259,0,0,1,2.388.908,4.246,4.246,0,0,1,1.128,2.607q2.344-1.069,6.094-2.651l.835,2.051Q35.2,29.731,33.208,30.61Zm35.156,11q0,.22-.264.22H66.738q-.234,0-.234-.22V40.234H57.861v1.494q0,.249-.234.249H56.265q-.234,0-.234-.249l.059-5.112V34.243l-.059-3.311a.207.207,0,0,1,.234-.234l3.574.059h4.717L68.1,30.7q.264,0,.264.234l-.059,2.915V36.5Zm-1.86-2.93v-6.3H57.861v6.3ZM54.258,36.338a.244.244,0,0,1,.117.19.674.674,0,0,1-.205.352l-.513.688q-.205.293-.337.293a.286.286,0,0,1-.19-.1,33.533,33.533,0,0,0-2.769-2.651A20.814,20.814,0,0,1,45.117,41a.821.821,0,0,1-.366.205q-.146,0-.454-.425a2.562,2.562,0,0,0-.864-.806,17.465,17.465,0,0,0,5.522-5.977q-1.084-.776-2.769-1.8l-.439,1.289q-.073.234-.234.234a1.221,1.221,0,0,1-.278-.044l-.747-.249q-.439-.1-.439-.234a.719.719,0,0,1,.044-.176,63.321,63.321,0,0,0,2.827-9.7l-3,.059q-.22,0-.22-.234V21.88q0-.249.22-.249l3.032.059h.293q.352-1.992.63-3.984a9.362,9.362,0,0,0,.1-1.436q0-.454-.044-.908a12.759,12.759,0,0,1,1.948.249q.366.1.366.293a1.083,1.083,0,0,1-.205.454,4.305,4.305,0,0,0-.366,1.289q-.615,3.545-.718,4.043h1.377l3.032-.059q.308,0,.308.264v.059q-.1.483-.176,1.157-.015.1-.029.249-.059.4-.073.527a32.464,32.464,0,0,1-2.256,9.727Q52.881,35.02,54.258,36.338Zm-2.49-13.022H48.618A67.465,67.465,0,0,1,46.7,30.669a32.912,32.912,0,0,1,2.974,1.89A28.928,28.928,0,0,0,51.768,23.315Zm18.516,4.658a.361.361,0,0,1,.059.161q0,.088-.366.278l-.747.4a1.2,1.2,0,0,1-.41.161q-.088,0-.161-.161-.63-1.421-1.1-2.344-4.951.776-11.353,1.406a2.768,2.768,0,0,0-1.128.278.787.787,0,0,1-.425.176q-.205,0-.308-.366a12.054,12.054,0,0,1-.381-1.816q.732.044,1.45.044t1.3-.044q1.655-3.809,3.12-8.35a7.835,7.835,0,0,0,.454-2.124,10.945,10.945,0,0,1,1.772.454q.454.19.454.41a.732.732,0,0,1-.264.483,3.293,3.293,0,0,0-.6,1.2Q60,22.905,58.579,26q4.395-.425,8.159-1a35.772,35.772,0,0,0-2.417-3.545.356.356,0,0,1-.088-.176q0-.073.322-.264l.718-.366a.788.788,0,0,1,.264-.088.32.32,0,0,1,.19.117A36.728,36.728,0,0,1,70.283,27.974Zm8.73-4.57A12.4,12.4,0,0,1,85.5,21.616q.425-1.978.718-4.512l2.153.249q-.381,2.388-.776,4.38a7.334,7.334,0,0,1,5.259,3.281,11.5,11.5,0,0,1,1.582,6.343q0,8.13-9.185,9.873L84.331,39.4a9.609,9.609,0,0,0,6.3-3.208,7.346,7.346,0,0,0,1.655-4.8,9.929,9.929,0,0,0-1.479-5.742,4.745,4.745,0,0,0-3.633-2.168q-2.036,8.95-4.907,13.008-2.183,3.062-4.629,3.062a3.2,3.2,0,0,1-2.8-1.523,8.384,8.384,0,0,1-1.069-4.658,11.275,11.275,0,0,1,3.574-8.7q-.659-2.607-1.2-6.2l1.978-.278Q78.5,20.928,79.014,23.4Zm3.252,9.067A50.152,50.152,0,0,0,85.078,23.4a10.012,10.012,0,0,0-5.61,1.89A31.023,31.023,0,0,0,82.266,32.471Zm-1.143,2.124A39.7,39.7,0,0,1,77.886,26.8a9.5,9.5,0,0,0-2.168,6.328,7.22,7.22,0,0,0,.659,3.5,1.421,1.421,0,0,0,1.2.82Q79.38,37.451,81.123,34.595Zm27.612-10.459q.205,4.775.63,8.569a20.772,20.772,0,0,1,8.408,5.039l-1.494,1.831a17.267,17.267,0,0,0-6.782-4.819q.059,1.011.059,1.553a4.158,4.158,0,0,1-1.729,3.618,6.124,6.124,0,0,1-3.706,1.04q-5.669,0-5.669-4.263a3.961,3.961,0,0,1,2.124-3.589,6.851,6.851,0,0,1,3.6-.952,20.942,20.942,0,0,1,3.091.161q-.747-7.09-.835-16.377h2.183q0,4.219.059,6.357,4.131-.132,7.837-.542l.029,1.89Q112.983,24,108.735,24.136Zm-1.377,10.2a12.876,12.876,0,0,0-2.871-.308,5.492,5.492,0,0,0-3.047.7,2.109,2.109,0,0,0-1.04,1.89q0,2.461,3.354,2.461,3.662,0,3.662-3.062Q107.417,35.474,107.358,34.331Zm17.168-18.545a69.925,69.925,0,0,0,10.415,1.772l-.513,2.036a90.107,90.107,0,0,1-10.474-1.86Zm-3.3,8.438a34.043,34.043,0,0,1,8.818-1.538q5.757,0,5.757,7.207,0,5.229-2.886,8.071a15.96,15.96,0,0,1-7.222,3.589l-1.113-1.816q4.937-1.333,6.87-3.457a9.372,9.372,0,0,0,2.08-6.533q0-5.112-3.6-5.112a28.812,28.812,0,0,0-7.925,1.685Z"
							transform="translate(137.49 24.126)" fill="#fb7180" />
					</svg>
