	<svg xmlns="http://www.w3.org/2000/svg" width="128.232" height="33.847"
						viewBox="0 0 128.232 33.847">
						<path id="Контур_1731" data-name="Контур 1731"
							d="M4.365-8.062Q4.342-9.07,4.342-9.65H5.2V-8.1q1.459-.053,2.889-.229v.744q-1.312.158-2.877.217l.035,1.723Q6.9-5.719,8.027-5.865v.744q-1.318.146-2.771.2.012.287.053,1.242.023.639.041,1.025A8.628,8.628,0,0,1,8.543-.621l-.6.738A8.156,8.156,0,0,0,5.361-1.811v.129A1.872,1.872,0,0,1,3.24.434,2.8,2.8,0,0,1,1.512.006,1.457,1.457,0,0,1,1-1.225a1.439,1.439,0,0,1,.686-1.242,2.69,2.69,0,0,1,1.57-.428,7.2,7.2,0,0,1,1.26.088q-.041-.727-.082-2.08-1.564.041-3.123,0v-.727q1.453.047,3.111.012-.023-.328-.029-.932-.012-.568-.023-.809-1.8.035-3.252-.023v-.721Q2.561-8.021,4.365-8.062Zm.146,6.047a4.635,4.635,0,0,0-1.178-.158q-1.57,0-1.57.949,0,.914,1.418.914,1.33,0,1.33-1.6ZM15.287-7.283q-.018,1.3,0,2.6a4.563,4.563,0,0,1,.264,1.523A3.16,3.16,0,0,1,14.432-.527,6.638,6.638,0,0,1,11.625.563l-.5-.721a5.429,5.429,0,0,0,2.924-1.184,2.35,2.35,0,0,0,.691-1.611,1.591,1.591,0,0,1-1.547.756,1.89,1.89,0,0,1-1.312-.492A1.785,1.785,0,0,1,11.3-4.078a1.775,1.775,0,0,1,.68-1.488,2.117,2.117,0,0,1,1.336-.422,1.717,1.717,0,0,1,1.166.334q-.023-1.125-.023-1.605-1.928.029-4.658.205l-.012-.768q2.215-.088,4.658-.146V-9.6l.861.012q0,.539-.023,1.594,1.992-.023,2.883-.023v.768q-.973-.035-2.033-.035Zm-2,1.969a1.133,1.133,0,0,0-.844.34,1.211,1.211,0,0,0-.334.9,1.061,1.061,0,0,0,.381.861,1.1,1.1,0,0,0,.727.252,1.2,1.2,0,0,0,.943-.352,1.114,1.114,0,0,0,.27-.785Q14.426-5.314,13.283-5.314Zm2.783-4.8.586-.24a12.47,12.47,0,0,1,.855,1.916l-.627.264A11.7,11.7,0,0,0,16.066-10.113Zm1.418-.193.6-.217a9.914,9.914,0,0,1,.855,1.969l-.627.252A11.561,11.561,0,0,0,17.484-10.307Zm9.041,3.814q.018,2.373.105,4.02A6.2,6.2,0,0,1,28.746-.9l-.58.721a5.73,5.73,0,0,0-1.535-1.4,1.811,1.811,0,0,1-.6,1.512,2.146,2.146,0,0,1-1.412.428q-2.074,0-2.074-1.629a1.357,1.357,0,0,1,.621-1.148,2.307,2.307,0,0,1,1.359-.387,5.864,5.864,0,0,1,1.271.129q-.076-1.605-.1-3.779-1.635.053-3.275.035v-.756q1.453.047,3.264-.012V-9.4h.855q-.012.721-.012,2.162.75-.041,1.928-.158v.756Q27.6-6.551,26.525-6.492Zm-.732,4.635a3.669,3.669,0,0,0-1.324-.24,1.487,1.487,0,0,0-.826.217.691.691,0,0,0-.346.609q0,.9,1.295.9a1.08,1.08,0,0,0,.955-.451,1.572,1.572,0,0,0,.246-.92Zm-4.131-7.43A35.411,35.411,0,0,0,20.941-3.4,28.463,28.463,0,0,0,21.229.322L20.391.4q-.275-2.672-.275-3.82a26.162,26.162,0,0,1,.246-3.158q.193-1.512.451-2.777ZM40.588-5.18q0,.094-.1.094l-1.547-.023H38.7V-3.07l1.342-.023q.1,0,.1.094v.48q0,.094-.1.094L38.4-2.449H32.244l-1.629.023q-.1,0-.1-.094V-3q0-.094.1-.094l1.33.023V-5.109H31.6l-1.553.023a.083.083,0,0,1-.094-.094v-.51a.083.083,0,0,1,.094-.094L31.6-5.76h.346V-7.512a12.022,12.022,0,0,1-.949,1q-.117.123-.164.123-.064,0-.182-.158a1.211,1.211,0,0,0-.34-.287,8.118,8.118,0,0,0,2.15-2.549,3.057,3.057,0,0,0,.287-.744,3.08,3.08,0,0,1,.674.24q.105.041.105.117t-.105.146a1.1,1.1,0,0,0-.287.369q-.275.486-.539.879h5.684L39.984-8.4q.1,0,.1.094v.5q0,.094-.1.094l-.164-.006q-.486-.012-1.119-.018v1.98h.24l1.547-.023q.1,0,.1.094ZM38.039-3.07V-5.109h-1.4V-3.07Zm-2.051,0V-5.109H34.611V-3.07ZM38.039-5.76V-7.74h-1.4v1.98ZM33.961-3.07V-5.109H32.607V-3.07ZM35.988-5.76V-7.74H34.611v1.98Zm-2.027,0V-7.74H32.607v1.98ZM32.3-1.535a7.836,7.836,0,0,1-1.535,2.1.129.129,0,0,1-.082.047.349.349,0,0,1-.146-.07l-.3-.229q-.094-.076-.094-.123a.149.149,0,0,1,.047-.082A6.04,6.04,0,0,0,31.67-1.84q.029-.053.064-.053a.584.584,0,0,1,.164.059l.3.129q.117.064.117.117A.186.186,0,0,1,32.3-1.535ZM40.236.105a.182.182,0,0,1,.023.076q0,.053-.129.117l-.34.17a.457.457,0,0,1-.152.064q-.035,0-.076-.064a9.738,9.738,0,0,0-1.33-2.074A.117.117,0,0,1,38.2-1.67q0-.029.135-.094l.287-.146a.42.42,0,0,1,.123-.041.165.165,0,0,1,.094.053A9.524,9.524,0,0,1,40.236.105ZM37.178.229a.248.248,0,0,1,.012.059q0,.053-.135.082l-.381.1A.838.838,0,0,1,36.521.5q-.059,0-.076-.082a8.532,8.532,0,0,0-.609-1.951.177.177,0,0,1-.018-.059q0-.041.146-.088l.334-.094a.481.481,0,0,1,.1-.018q.047,0,.094.076A9.208,9.208,0,0,1,37.178.229ZM34.5.322a.247.247,0,0,1,.006.041q0,.07-.146.082l-.41.047Q33.885.5,33.855.5q-.088,0-.088-.105a8.422,8.422,0,0,0-.334-1.928.476.476,0,0,1-.006-.059q0-.059.176-.088l.334-.059a.406.406,0,0,1,.082-.012q.064,0,.088.094A9.87,9.87,0,0,1,34.5.322ZM46.564-3.012a2.258,2.258,0,0,0-.287.445q-.076.129-.123.129-.018,0-.117-.117A11.192,11.192,0,0,1,44.8-4.74q.006,1.846.053,3.955.012.492.029,1.189.012.328.012.363,0,.082-.094.082h-.557q-.094,0-.094-.082,0-.023.018-.861.059-2.508.076-4.553a16.267,16.267,0,0,1-1.8,3.6q-.082.117-.117.117-.053,0-.123-.146a1.044,1.044,0,0,0-.3-.428,14.027,14.027,0,0,0,2.109-3.826h-.457L42.264-5.3q-.094,0-.094-.088v-.463q0-.1.094-.1l1.295.023h.627V-8.508A9.064,9.064,0,0,0,44.1-9.961q.516.023.744.059.158.023.158.111a.664.664,0,0,1-.088.229,4.6,4.6,0,0,0-.059,1.043v2.59h.229l1.295-.023q.094,0,.094.1v.463q0,.088-.094.088l-1.295-.023h-.135A10.191,10.191,0,0,0,46.564-3.012Zm6.152.047a.135.135,0,0,1,.012.047q0,.035-.094.064-.762.123-1.418.252V-1.33L51.24.744a.083.083,0,0,1-.094.094h-.58a.083.083,0,0,1-.094-.094L50.5-1.318V-2.461l-2.291.445q-.691.135-1.219.252-.34.07-.352.076a.352.352,0,0,1-.053.006q-.047,0-.059-.094l-.094-.516a.252.252,0,0,1-.006-.047q0-.047.088-.064.023-.006.2-.029.6-.088,1.383-.246l2.4-.48V-8.186a12,12,0,0,0-.082-1.641,7.214,7.214,0,0,1,.779.059q.158.023.158.105a.778.778,0,0,1-.059.217,5.707,5.707,0,0,0-.076,1.236V-3.3q.809-.164,1.295-.3h.035q.059,0,.076.1ZM49.324-4.752a.149.149,0,0,1,.047.082q0,.029-.082.111l-.27.287q-.1.105-.135.105t-.064-.047a9.571,9.571,0,0,0-1.67-1.523Q47.1-5.766,47.1-5.8t.088-.123l.252-.24q.07-.07.105-.07a.171.171,0,0,1,.076.035A9.165,9.165,0,0,1,49.324-4.752Zm.3-2.672q.047.047.047.07t-.07.105l-.275.287a.57.57,0,0,1-.135.117q-.023,0-.059-.053a7.791,7.791,0,0,0-1.646-1.5q-.047-.035-.047-.059,0-.041.1-.135l.252-.252q.064-.07.094-.07a.142.142,0,0,1,.07.035A8.345,8.345,0,0,1,49.623-7.424ZM46.775-8.771a.224.224,0,0,1-.082.135.738.738,0,0,0-.158.264,16.56,16.56,0,0,1-.621,1.582q-.07.158-.135.158a.342.342,0,0,1-.152-.07,1.333,1.333,0,0,0-.322-.135,9.039,9.039,0,0,0,.656-1.811,1.713,1.713,0,0,0,.076-.469,3.592,3.592,0,0,1,.609.217Q46.775-8.836,46.775-8.771ZM43.646-6.908a.252.252,0,0,1,.006.047q0,.041-.152.105l-.275.111a.531.531,0,0,1-.135.041q-.035,0-.053-.076a9.457,9.457,0,0,0-.674-2.045.113.113,0,0,1-.023-.053q0-.041.117-.088l.275-.123a.42.42,0,0,1,.123-.041q.029,0,.059.064A10.678,10.678,0,0,1,43.646-6.908Zm16.172.773.615-.234a15.664,15.664,0,0,1,.885,2.027l-.645.264A12.963,12.963,0,0,0,59.818-6.135Zm1.359-.4.6-.217a9.914,9.914,0,0,1,.855,1.969L62-4.535A11.561,11.561,0,0,0,61.178-6.539Zm.334-2.256.023.826a4.553,4.553,0,0,0-1.98.539,5.086,5.086,0,0,0-1.775,1.682,4.129,4.129,0,0,0-.7,2.279,2.536,2.536,0,0,0,1.1,2.168A5.288,5.288,0,0,0,60.7-.445L60.492.41A5.23,5.23,0,0,1,57.381-.773a3.334,3.334,0,0,1-1.125-2.613,4.893,4.893,0,0,1,2.566-4.307l.65-.287L59.461-8,58.9-7.91q-1.02.059-4.852.41l-.07-.791Q55.693-8.42,61.512-8.795Z"
							transform="translate(47.195 10.523)" fill="#fff" />
						<path id="Контур_1732" data-name="Контур 1732"
							d="M4.351-10.187v-4.175H5.722v3.867l6.891-1.564.756.967A22.484,22.484,0,0,1,9.554-4.3L8.42-5.019a16.6,16.6,0,0,0,3.261-5.563L5.722-9.237v6.486q0,1.213.624,1.529a5.94,5.94,0,0,0,2.215.264q1.986,0,4.175-.211V.158Q10.819.29,8.279.29,5.783.29,5-.466a3.053,3.053,0,0,1-.65-2.25V-8.93l-3.059.686L.932-9.413Zm12.533-3.454H25.04v1.2H16.884Zm-1.1,3.832H25.954q-.2,5.142-2.514,7.664A10.776,10.776,0,0,1,17.912.773l-.65-1.028a9.613,9.613,0,0,0,5.449-3.1A8.89,8.89,0,0,0,24.46-8.6H15.785ZM30.621-6.354V-2.5q0,1.292.773,1.424A14.6,14.6,0,0,0,34.022-.9q1.811,0,3.99-.22V.237Q35.622.36,33.68.36A13.858,13.858,0,0,1,30.542.105q-1.292-.281-1.292-2.2v-11.7h1.371v6.179A19.438,19.438,0,0,0,36.237-11.3l.914,1.1A23.2,23.2,0,0,1,30.621-6.354Zm7.11-9.29a1.922,1.922,0,0,1,1.494.668,1.947,1.947,0,0,1,.519,1.354,1.922,1.922,0,0,1-.668,1.494,1.936,1.936,0,0,1-1.345.519,1.931,1.931,0,0,1-1.5-.668,1.936,1.936,0,0,1-.519-1.345,1.948,1.948,0,0,1,.668-1.5A1.947,1.947,0,0,1,37.731-15.645Zm0,.773a1.19,1.19,0,0,0-.932.4,1.218,1.218,0,0,0-.316.844,1.181,1.181,0,0,0,.4.923,1.218,1.218,0,0,0,.844.316,1.181,1.181,0,0,0,.923-.4,1.206,1.206,0,0,0,.316-.835,1.19,1.19,0,0,0-.4-.932A1.206,1.206,0,0,0,37.731-14.871ZM47.892-5.15A16.193,16.193,0,0,1,41.467.536L40.676-.5a15.8,15.8,0,0,0,5.88-5.054,18.207,18.207,0,0,0,2.637-6.486H41.634v-1.2h9.334a24.152,24.152,0,0,1-2.373,6.891A40.43,40.43,0,0,1,52.787-.308L51.46.536A32.305,32.305,0,0,0,47.892-5.15ZM58.228-7.831V.721H56.839v-15.1h1.389v5.221A28.033,28.033,0,0,1,65.083-6.3L64.4-5A22.751,22.751,0,0,0,58.228-7.831Zm21.393,4.5a.124.124,0,0,1-.141.141L77.1-3.226H72.949l-2.364.035a.124.124,0,0,1-.141-.141l.035-1.257V-5.73l-.035-1.257a.124.124,0,0,1,.141-.141l2.364.035H77.1l2.382-.035a.124.124,0,0,1,.141.141L79.585-5.73v1.143Zm-1.1-.773V-6.2H71.543V-4.1Zm4.772-3.6a2.536,2.536,0,0,0-.466.642q-.149.272-.237.272a.915.915,0,0,1-.264-.088,19.475,19.475,0,0,1-4.614-2.777,11.578,11.578,0,0,1-2.769-3.41A15.28,15.28,0,0,1,71.851-9.4a20.355,20.355,0,0,1-4.122,2.619,1,1,0,0,1-.272.088q-.088,0-.255-.29a1.867,1.867,0,0,0-.466-.545,18.438,18.438,0,0,0,4.087-2.355,13.1,13.1,0,0,0-2.057-1.8q-.079-.053-.079-.088t.1-.141l.439-.4q.1-.1.141-.1a.193.193,0,0,1,.105.044,16.359,16.359,0,0,1,2.145,1.828,13.618,13.618,0,0,0,2.3-2.751H71.323l-1.854.035q-.158,0-.158-.141v-.7q0-.141.158-.141l1.854.035h2.487l1.459-.035q.141,0,.229.2a8.534,8.534,0,0,0,.668,1.23,10.393,10.393,0,0,0,.773,1.046A11.626,11.626,0,0,0,78.4-13.289a3.642,3.642,0,0,0,.431-.694,5.6,5.6,0,0,1,.888.554.3.3,0,0,1,.141.211q0,.114-.176.2a1.578,1.578,0,0,0-.562.448,18.416,18.416,0,0,1-1.547,1.477,16.136,16.136,0,0,0,1.345,1.134,18.95,18.95,0,0,0,1.731-1.679,4.3,4.3,0,0,0,.483-.694,6.822,6.822,0,0,1,.861.554q.167.141.167.211v.026a.325.325,0,0,1-.237.211,1.511,1.511,0,0,0-.536.4A18.941,18.941,0,0,1,79.7-9.439,18.526,18.526,0,0,0,83.294-7.708ZM82.863.563A.124.124,0,0,1,82.723.7L80.358.668H69.741L67.386.7q-.149,0-.149-.141V-.2q0-.141.149-.141l2.355.035h6.478q.466-.765.87-1.564a4.479,4.479,0,0,0,.343-1.011,8.654,8.654,0,0,1,1.046.413.222.222,0,0,1,.158.2q0,.088-.158.211a1.368,1.368,0,0,0-.369.492q-.642,1.09-.756,1.257h3.006l2.364-.035a.124.124,0,0,1,.141.141ZM77.81-8.552q0,.141-.132.141l-1.8-.035H74.021l-1.775.035q-.149,0-.149-.141v-.7q0-.141.149-.141l1.775.035h1.854l1.8-.035q.132,0,.132.141ZM73.5-1.046a.432.432,0,0,1,.026.105q0,.062-.2.167l-.475.237a.767.767,0,0,1-.22.07q-.062,0-.105-.114a7.673,7.673,0,0,0-.861-1.705.242.242,0,0,1-.044-.1q0-.053.193-.141l.466-.211a.492.492,0,0,1,.185-.07q.044,0,.123.105A9.6,9.6,0,0,1,73.5-1.046Zm28.081.36a2.547,2.547,0,0,0-.527.668q-.123.237-.193.237a.558.558,0,0,1-.237-.141A11.661,11.661,0,0,1,96.618-6.1v1.222q0,1.468.035,3.129.035,1.125.035,1.521a2.673,2.673,0,0,1-.1.835.935.935,0,0,1-.369.457,3.65,3.65,0,0,1-1.767.308.652.652,0,0,1-.343-.053.989.989,0,0,1-.105-.308,2.054,2.054,0,0,0-.36-.773,9.852,9.852,0,0,0,1.169.07,1.1,1.1,0,0,0,.721-.158.729.729,0,0,0,.141-.527V-2.865A23.322,23.322,0,0,1,92.813-.826a1.8,1.8,0,0,0-.571.431.223.223,0,0,1-.185.123.221.221,0,0,1-.193-.105,7.994,7.994,0,0,1-.545-.879,7.071,7.071,0,0,0,.976-.439,22.649,22.649,0,0,0,3.384-2.338V-7.8H94.131L91.7-7.761a.124.124,0,0,1-.141-.141v-.721a.124.124,0,0,1,.141-.141l2.435.035h3.762l.123-1.731H94.992l-1.872.035a.124.124,0,0,1-.141-.141v-.7a.124.124,0,0,1,.141-.141l1.872.035h3.076L98.2-13H94.6l-2,.035q-.149,0-.149-.141v-.721q0-.141.149-.141l2,.035h2.54l2-.035a.14.14,0,0,1,.158.158q-.035.281-.062.677-.044.483-.053.563L98.9-8.728l2.232-.035q.158,0,.158.141V-7.9q0,.141-.158.141L98.7-7.8H96.724a15.288,15.288,0,0,0,1.239,3.278A13.744,13.744,0,0,0,99.51-6.354a3.241,3.241,0,0,0,.4-.7,5.21,5.21,0,0,1,.782.536.416.416,0,0,1,.141.255q0,.088-.2.22a2.424,2.424,0,0,0-.536.519,13.239,13.239,0,0,1-1.679,1.784A10.215,10.215,0,0,0,101.584-.686ZM91.652-6.354q0,.141-.149.141l-1.872-.035h-.413v4.975a21.911,21.911,0,0,0,2.162-.835,2.831,2.831,0,0,0-.088.668.529.529,0,0,1-.079.352.733.733,0,0,1-.264.132Q89.112-.246,86.678.448a2.253,2.253,0,0,0-.668.272.429.429,0,0,1-.237.105.2.2,0,0,1-.211-.141q-.132-.316-.343-.993A10.8,10.8,0,0,0,86.59-.536q1.257-.308,1.635-.422V-6.249h-.7l-1.872.035a.124.124,0,0,1-.141-.141V-7.04a.124.124,0,0,1,.141-.141l1.872.035h.7v-1.96H88.1l-1.529.035q-.149,0-.149-.167v-.642a.132.132,0,0,1,.149-.149l1.529.035H89.49L91-10.028q.141,0,.141.149v.642q0,.167-.141.167L89.49-9.105h-.272v1.96h.413L91.5-7.181q.149,0,.149.141Zm.3-5.124a1.279,1.279,0,0,0-.466.571q-.132.237-.185.237a1.492,1.492,0,0,1-.272-.185,13.906,13.906,0,0,1-2.1-2.391,15.973,15.973,0,0,1-3.173,3.586.7.7,0,0,1-.264.141q-.105,0-.185-.237a1.6,1.6,0,0,0-.413-.624,11.13,11.13,0,0,0,3.182-3.48,2.639,2.639,0,0,0,.387-.967,5.816,5.816,0,0,1,1.037.29q.185.053.185.158a.278.278,0,0,1-.167.237l-.141.105A12.679,12.679,0,0,0,91.951-11.479ZM87.363-2.338q.009.07.009.088,0,.079-.193.158l-.431.185a.615.615,0,0,1-.176.044q-.079,0-.1-.123a13.411,13.411,0,0,0-.606-2.786.267.267,0,0,1-.026-.1q0-.07.22-.149l.378-.149a.719.719,0,0,1,.176-.044q.053,0,.1.1A15.286,15.286,0,0,1,87.363-2.338ZM91.7-4.931a.3.3,0,0,1-.141.211,1.259,1.259,0,0,0-.272.51q-.3.923-.58,1.582-.088.255-.158.255a.6.6,0,0,1-.193-.079,3.131,3.131,0,0,0-.562-.176,12.227,12.227,0,0,0,.7-2.127,2.583,2.583,0,0,0,.088-.677,7.985,7.985,0,0,1,.958.316Q91.7-5.027,91.7-4.931Zm2.848.158a.267.267,0,0,1,.026.1q0,.053-.158.176l-.36.29a.941.941,0,0,1-.211.123q-.044,0-.105-.123a7.819,7.819,0,0,0-1.354-2.145.144.144,0,0,1-.053-.088q0-.053.158-.167l.378-.246a.358.358,0,0,1,.158-.088q.053,0,.132.088A10.559,10.559,0,0,1,94.544-4.772Zm16.778-6.152q-.053,1.951,0,3.9a6.845,6.845,0,0,1,.4,2.285,4.741,4.741,0,0,1-1.679,3.946,9.956,9.956,0,0,1-4.21,1.635l-.756-1.081a8.143,8.143,0,0,0,4.386-1.775A3.525,3.525,0,0,0,110.5-4.43a2.387,2.387,0,0,1-2.32,1.134,2.835,2.835,0,0,1-1.969-.738,2.677,2.677,0,0,1-.861-2.083,2.662,2.662,0,0,1,1.02-2.232,3.175,3.175,0,0,1,2-.633,2.576,2.576,0,0,1,1.749.5q-.035-1.687-.035-2.408-2.892.044-6.987.308l-.018-1.151q3.322-.132,6.987-.22V-14.4l1.292.018q0,.809-.035,2.391,2.988-.035,4.324-.035v1.151Q113.484-10.925,111.322-10.925Zm-3.006,2.953a1.7,1.7,0,0,0-1.266.51,1.817,1.817,0,0,0-.5,1.345,1.591,1.591,0,0,0,.571,1.292,1.656,1.656,0,0,0,1.09.378,1.807,1.807,0,0,0,1.415-.527,1.671,1.671,0,0,0,.4-1.178Q110.03-7.972,108.316-7.972Zm11.092-5.476q2.382-.018,7.321-.255l.756.94q-3.507,3.56-5.563,5.344l-.809.7.07.053.923-.624a5.933,5.933,0,0,1,2.54-.686,4.56,4.56,0,0,1,3.48,1.283,3.948,3.948,0,0,1,1.037,2.839,4.264,4.264,0,0,1-1.644,3.656A6.836,6.836,0,0,1,123.381.9q-3.524,0-3.524-2.391a2.09,2.09,0,0,1,.756-1.687,2.793,2.793,0,0,1,1.837-.58,2.962,2.962,0,0,1,2.285.967,4.429,4.429,0,0,1,1.011,2.162,3.315,3.315,0,0,0,1.617-1.257,3.757,3.757,0,0,0,.466-1.978,2.868,2.868,0,0,0-1.116-2.408,3.434,3.434,0,0,0-2.145-.677A6.3,6.3,0,0,0,120.217-5.2a16,16,0,0,0-1.494,1.564L117.659-4.5q4.307-4.43,7.884-8.068-2.584.193-6.135.29ZM124.479-.272a3.889,3.889,0,0,0-.8-1.837,1.639,1.639,0,0,0-1.266-.606,1.439,1.439,0,0,0-1.037.387,1.065,1.065,0,0,0-.352.8,1.118,1.118,0,0,0,.6,1.063,3.693,3.693,0,0,0,1.67.29A7.761,7.761,0,0,0,124.479-.272Z"
							transform="translate(-0.932 32.476)" fill="#fff" />
					</svg>