<svg xmlns="http://www.w3.org/2000/svg" xmlns:xlink="http://www.w3.org/1999/xlink" width="168" height="38.54" viewBox="0 0 168 38.54">
  <defs>
    <clipPath id="clip-path">
      <rect id="Прямоугольник_127" data-name="Прямоугольник 127" width="168" height="38.54" transform="translate(0 0)" fill="none"/>
    </clipPath>
  </defs>
  <g id="Сгруппировать_208" data-name="Сгруппировать 208" transform="translate(0 0)" clip-path="url(#clip-path)">
    <text id="セラピスト様の声" transform="translate(4 17.6)" fill="#215f87" font-size="20" font-family="YuGothicUI-Regular, Yu Gothic UI"><tspan x="0" y="0">セラピスト様の声</tspan></text>
    <path id="Контур_1102" data-name="Контур 1102" d="M167.8,26.35c.248.055.159-.574.2-.687-.415.14-.186.85-.2.687" fill="#fb808d"/>
    <path id="Контур_1103" data-name="Контур 1103" d="M163.709,27.777l.072-.257-.6.629Z" fill="#fb808d"/>
    <path id="Контур_1104" data-name="Контур 1104" d="M159.88,27.765c.362,1.071,1.387-.173,2.07.208l.112.245.308-.863c-.829.137-1.906.709-2.49.41" fill="#fb808d"/>
    <path id="Контур_1105" data-name="Контур 1105" d="M157.839,25.45c.126.416-.442.357.476.13a.852.852,0,0,1-.086-.106,1.731,1.731,0,0,1-.39-.024" fill="#fb808d"/>
    <path id="Контур_1106" data-name="Контур 1106" d="M158.229,25.474c.4-.03-.264-.349,0,0" fill="#fb808d"/>
    <path id="Контур_1107" data-name="Контур 1107" d="M156.367,25.713l.531-.372c-.111-.246-.584-.3-.408-.481-.545.2-.433.449-.123.853" fill="#fb808d"/>
    <path id="Контур_1108" data-name="Контур 1108" d="M155.863,26.494l.275-.157c-.048-.1-.121-.14-.275.157" fill="#fb808d"/>
    <path id="Контур_1109" data-name="Контур 1109" d="M156.722,26l-.584.332c.077.172.085.52.268-.12-.047.317.068.012.316-.212" fill="#fb808d"/>
    <path id="Контур_1110" data-name="Контур 1110" d="M157.053,26.167c.3.233.683.379.149.75,1.017-.147.867-.9-.149-.75" fill="#fb808d"/>
    <path id="Контур_1111" data-name="Контур 1111" d="M159.685,28.873l.4.314.345-.359c-.172.178-.768-.29-.743.045" fill="#fb808d"/>
    <path id="Контур_1112" data-name="Контур 1112" d="M153.058,25.158c-.033.229.179.607.218.9l.393-.262c-.2-.156-.584-.3-.611-.637" fill="#fb808d"/>
    <path id="Контур_1113" data-name="Контур 1113" d="M153.276,26.058l-.587.391c.524.046.62-.141.587-.391" fill="#fb808d"/>
    <path id="Контур_1114" data-name="Контур 1114" d="M155.768,27.683l.964-.821-1.15.832Z" fill="#fb808d"/>
    <path id="Контур_1115" data-name="Контур 1115" d="M150.816,25.13l.333-.527-.593.8Z" fill="#fb808d"/>
    <path id="Контур_1116" data-name="Контур 1116" d="M149.329,25.222c.246-.437-.338-.739-.077-1.008a2.254,2.254,0,0,0-1.06.791c.33-.188.682-.14,1.137.217" fill="#fb808d"/>
    <path id="Контур_1117" data-name="Контур 1117" d="M147.671,25.5a3.072,3.072,0,0,0,.521-.491,1.623,1.623,0,0,0-.521.491" fill="#fb808d"/>
    <path id="Контур_1118" data-name="Контур 1118" d="M151.689,26.336a.967.967,0,0,0-.462-.65l.231.64.231.01" fill="#fb808d"/>
    <path id="Контур_1119" data-name="Контур 1119" d="M151.466,26.346l-.008-.02c-.251-.015-.424-.029-.5-.036.064,0,.217.023.507.056" fill="#fb808d"/>
    <path id="Контур_1120" data-name="Контур 1120" d="M151.748,26.338l-.058,0c.022.063.035.083.058,0" fill="#fb808d"/>
    <path id="Контур_1121" data-name="Контур 1121" d="M154.23,27.1c-.345.358-1.064.742-.368,1.289.247-.439-.151-.75.368-1.289" fill="#fb808d"/>
    <path id="Контур_1122" data-name="Контур 1122" d="M152.034,27.14l.623.146c-.012-.169-.124-.416.047-.594Z" fill="#fb808d"/>
    <path id="Контур_1123" data-name="Контур 1123" d="M151.729,27.344l.3-.2-.231-.054Z" fill="#fb808d"/>
    <path id="Контур_1124" data-name="Контур 1124" d="M148.739,26.1a1.318,1.318,0,0,1-.9.347,3.215,3.215,0,0,0,1.076.193c.049-.2.2-.563-.179-.54" fill="#fb808d"/>
    <path id="Контур_1125" data-name="Контур 1125" d="M150.064,26.274c-.019.015-.042.021-.06.037.037.054.066.071.06-.037" fill="#fb808d"/>
    <path id="Контур_1126" data-name="Контур 1126" d="M144.566,26.439c.018.035.034.08.053.117,0-.037.007-.074.012-.112Z" fill="#fb808d"/>
    <path id="Контур_1127" data-name="Контур 1127" d="M148.978,26.755c.268.124.428-.033.581-.23a2.289,2.289,0,0,1-.641.11c-.022.092-.026.152.06.12" fill="#fb808d"/>
    <path id="Контур_1128" data-name="Контур 1128" d="M146.757,25.8a2.811,2.811,0,0,0,.464.353c-.136-.2-.415-.52-.464-.353" fill="#fb808d"/>
    <path id="Контур_1129" data-name="Контур 1129" d="M149.914,26.133a.361.361,0,0,1,.04-.028c-.088-.137-.077-.071-.04.028" fill="#fb808d"/>
    <path id="Контур_1130" data-name="Контур 1130" d="M149.914,26.133a1.729,1.729,0,0,0-.355.393,1.583,1.583,0,0,0,.445-.215.846.846,0,0,1-.09-.178" fill="#fb808d"/>
    <path id="Контур_1131" data-name="Контур 1131" d="M143.574,30.554a.773.773,0,0,1,1.361-.506c.6-.446.207-2.4-.316-3.492-.018.259-.018.5-.635.85.216.323,1.368.758.848,1.3-.816.305-.669-.211-1.066-.525.337.74-1.038,1.077-.86,2.166l.715-.384c.014.17-.246.44-.047.6" fill="#fb808d"/>
    <path id="Контур_1132" data-name="Контур 1132" d="M145.793,26.616l.254-.073c-.289-.1-.5-.342-.877-.807-.422.291-.51.511-.539.709l1.249.083Z" fill="#fb808d"/>
    <path id="Контур_1133" data-name="Контур 1133" d="M147.185,26.54c-.2.646-.807.922-.434,1.622.744-.046.521-.541.966-.821-1.2.16.345-.36-.523-.726a2.114,2.114,0,0,1,.649-.172,3.4,3.4,0,0,1-.621-.3l.027.04h.006V26.2c.052.081.069.131.01.085,0,.007-.018.009-.025.013a1.136,1.136,0,0,1-.054.243c-.348-.134-.055-.167.054-.243,0-.033.014-.063.015-.1l-.005-.008-1.2.355a2.567,2.567,0,0,0,1.138,0" fill="#fb808d"/>
    <path id="Контур_1134" data-name="Контур 1134" d="M153.22,29.782a.259.259,0,0,1-.038-.15c-.078.08-.108.133.038.15" fill="#fb808d"/>
    <path id="Контур_1135" data-name="Контур 1135" d="M152.725,29.392c.088-.09.16-.348.445-.282.246.194,0,.309.011.522.172-.172.6-.463.063-.779l-.085.089c-.485-.222-1.107-1.029-1.022-1.117a5.417,5.417,0,0,0,.588,1.567" fill="#fb808d"/>
    <path id="Контур_1136" data-name="Контур 1136" d="M149.92,28.131l-1,.317.511.559-.026-.336c.569.132.446-.281.517-.54" fill="#fb808d"/>
    <path id="Контур_1137" data-name="Контур 1137" d="M144.452,26.118l.133-.683-.579.965Z" fill="#fb808d"/>
    <path id="Контур_1138" data-name="Контур 1138" d="M143.15,26.2l.048-.592-.343.357Z" fill="#fb808d"/>
    <path id="Контур_1139" data-name="Контур 1139" d="M69.705,33.564l-.294.168a.878.878,0,0,0,.294-.168" fill="#fb808d"/>
    <path id="Контур_1140" data-name="Контур 1140" d="M71.836,33.6l.052-.292c-.1.161-.139.28-.052.292" fill="#fb808d"/>
    <path id="Контур_1141" data-name="Контур 1141" d="M111.186,26.266c-.429-.554-.908-1.414-.857-.746l.133.65a.712.712,0,0,1,.724.1" fill="#fb808d"/>
    <path id="Контур_1142" data-name="Контур 1142" d="M89.294,30.152c.041.062.083.13.125.2.1-.222.2-.428.29-.622-.125.133-.266.275-.415.425" fill="#fb808d"/>
    <path id="Контур_1143" data-name="Контур 1143" d="M88.992,32.844l-.565-.42a1.855,1.855,0,0,0,.565.42" fill="#fb808d"/>
    <path id="Контур_1144" data-name="Контур 1144" d="M58.069,34.255l-.343.662c.537,0,.3-.337.343-.662" fill="#fb808d"/>
    <path id="Контур_1145" data-name="Контур 1145" d="M129.82,26.439a2.076,2.076,0,0,0-.923-.393c.446.373.8.935.923.393" fill="#fb808d"/>
    <path id="Контур_1146" data-name="Контур 1146" d="M70.544,26.658a.456.456,0,0,0-.252.4c.186-.111.29-.236.252-.4" fill="#fb808d"/>
    <path id="Контур_1147" data-name="Контур 1147" d="M127.829,26.048a2.413,2.413,0,0,0,.195.153,1.687,1.687,0,0,1,.873-.155c-.329-.277-.706-.45-1.068,0" fill="#fb808d"/>
    <path id="Контур_1148" data-name="Контур 1148" d="M15.869,33.715a.7.7,0,0,1-.1-.078c-.009.089.034.093.1.078" fill="#fb808d"/>
    <path id="Контур_1149" data-name="Контур 1149" d="M3.575,27.149a2.123,2.123,0,0,1,.5-.05.691.691,0,0,0-.5.05" fill="#fb808d"/>
    <path id="Контур_1150" data-name="Контур 1150" d="M137.913,25.915c.276-.042.044-.071,0,0" fill="#fb808d"/>
    <path id="Контур_1151" data-name="Контур 1151" d="M139.256,28.489a.506.506,0,0,0-.11.316.648.648,0,0,1,.11-.316" fill="#fb808d"/>
    <path id="Контур_1152" data-name="Контур 1152" d="M125.079,30.1c-.008,0-.015,0-.024,0,.082.128.068.1.024,0" fill="#fb808d"/>
    <path id="Контур_1153" data-name="Контур 1153" d="M138.329,26.211a1.31,1.31,0,0,0-.353-.193,1.38,1.38,0,0,0,.353.193" fill="#fb808d"/>
    <path id="Контур_1154" data-name="Контур 1154" d="M138.273,25.9c.1.029.17.045.241.063.035-.108,0-.177-.241-.063" fill="#fb808d"/>
    <path id="Контур_1155" data-name="Контур 1155" d="M137.529,25.951a1.151,1.151,0,0,1,.447.067c-.054-.045-.077-.08-.062-.1-.081.01-.2.024-.385.036" fill="#fb808d"/>
    <path id="Контур_1156" data-name="Контур 1156" d="M38.48,31.973a.581.581,0,0,1-.059-.061c-.279.27-.156.228.059.061" fill="#fb808d"/>
    <path id="Контур_1157" data-name="Контур 1157" d="M104,33.024c.013-.007.02-.024.032-.03-.013-.008-.03-.017-.041-.025Z" fill="#fb808d"/>
    <path id="Контур_1158" data-name="Контур 1158" d="M103.01,33.508c.422-.81.662-.71.982-.539l-.328-1.876Z" fill="#fb808d"/>
    <path id="Контур_1159" data-name="Контур 1159" d="M64.6,33.752l.7.586c-.84.962-1.448.631-.794,1.452.1-2.038,2.706-.207,2.8-2.244l.459.429c-.132-.02-.153.1-.283.08.893.975.663-1.472,1.813-1.184.4.156.681.452.408.694l.893-.5a.181.181,0,1,1-.063.355l1.362-.163-.01.059a6.981,6.981,0,0,1,.85-1.022c.346.293-.173.215-.085.469l.754-.493c.308.529-.317,1.04-.838.964.7,2.034.625-.511,2.145.677L74,34.165c.459,1.154,1.015.735,1.82,1.456-.191-.376-1.612-1.815-.793-2.322.231.153.535.226.976-.184,0,.725.436.547.975.5l-.037.961c.584-.278.538-.767.881-1.2.65.1.785.838.938,1.465,1.041.152-.719-1.192.513-1.373.866.367,1.474-.025,2.51-.6.606.332-.106.587.111.862l.538-.766c.131.019.089.254.067.372.453-.3.037-.959.749-1.219.192-1.058,1.461,1.544,2.342.344.217.272-.105.588-.039.959A6.558,6.558,0,0,0,87.582,31.8l.845.63c-.621-.72.172-1.572.867-2.273a8.723,8.723,0,0,0-.534-.8l1.109-.515c.134.158.022.488-.16.889.076-.08.148-.159.2-.231.4.355.191.909-.094,1.445-.135-.19-.269-.391-.4-.593a3.688,3.688,0,0,0-.473,1.791.731.731,0,0,1,.363-.26.619.619,0,0,0-.084.4c.038.1.153-.111.335-.356l.252,1.07.061-.425,1.451.669c1.039-1.076,1.942-2.662,3.59-3.1-.409.784-.088,1.281-.11,2.21-.45-.984-1.277.418-2.131.218a.433.433,0,0,1,.235.7l1.523-.895c-.034.761.323.57.721.885-.3-1.5,1.136-1,1.756-1.461.038.5-.11,1.019-.867.9.835,1.131,1.078-1.765,1.9-.8-.184.013-.284-.064-.357.193.431-.449,1.486-.093,1.238.345l-.184.01c1.225.179,3.731.012,3.914-1.264a14.86,14.86,0,0,1-.235,1.795l2.188-4.292c-.193,1.1.547,3.7-.47,4.325a1.075,1.075,0,0,0,1.268-.05c-.2-.155-.5-1.583-.224-1.684.747,1.22.519.653,1.439,1.693-.3-.234.033-1.953.505-1.9-.074.257.039,1.695-.133,1.874l1.174-1.687c-.293.3-.052,1.43.211,1.908-.122-.332,1.015.03,1.328-.137l-.5-.392c1.325.256,1.309-2.371,2.624-2.283-.159.348-.393,2.145.276,2.356.306-.863,1.357-4.154,2.52-4.82l.223.494.893-.563a31.057,31.057,0,0,1-2.968,5.1c.5.391.139.583.881.537.263.464-.4.7-.623.73l1.729.3c-.077-1.009,1.323-1.012,1.257-1.852l-1.878,1.046c-.077-1.007,1.086-2.863,2.311-2.685.312.4-.233,1.8-.208,2.131.159-.346,1.163-.663,1.276-.417l-.52.54c.682.379,1.113-1.337,1.933-.375.283.065.845,1.3.894.7a13.852,13.852,0,0,1-.244-5.575,9.448,9.448,0,0,1,1.809,1.669c.466.9-.7,2.15-.3,2.925a1.431,1.431,0,0,1,.382-.725c.3.235-.123.853.522.728.108-1.021,1.313.087.305-.863.632-.293.672.211,1.413.165a3.059,3.059,0,0,1,1.3-2.54,1.591,1.591,0,0,0,.174.754c1.294.092,1.989.556,3.2.565.111.248.693.547.445.987.174-.181.333-.528.706-.552.72.883-.83.137-.281,1.2.047-.593.963-.821,1.493-1.191-.163-.919-1.225-.177-1.756.194a3.736,3.736,0,0,1,2.184-3.177c1-.314.434.818.609.639,1.883.221,1.6-2.21,3.168-1.3.621.805.028,1.6.166,2.185-.817.305-1.254-.512-1.808-.48l.682.382c-.26.269-.8.471-1.1.239.52.724,3.182.138,4.635.807.258-.269.7-.551.493-.874l-.46.112c-.422-.65.866-.9.284-1.2.617-.458,1.308-1.177,2.176-.808l.164.919c-.019-.269-.568-.547-.812-.267.362-.408,1.331,1.245,1.728.04l-.609-.637c.62-.462,1.385-1.439,2.155-1.148-.351-.908-.178.1-.725-.959.474,1.323-1.968-.056-1.207,1.333-.561-1.233-.971-.522-1.7-1.574.022.3.259.581-.387.431a1.345,1.345,0,0,1-.141.267.2.2,0,0,1-.044-.023.407.407,0,0,0,.036.036c-.028.046-.031.055.013.012a1.052,1.052,0,0,1,.329.462c-.321.7-1.348.675-1.7,1.035-.384-.144.16-.348-.049-.672l-.519.54c-.052-.673-1.019-1.12-.116-1.515l-.813-.029a1.38,1.38,0,0,0-1.542-.246c-.384-.145-.969.747-.635.219l-1.274.418-.012-.169c-1.258-.084-2.589,1.117-4.027-.1a2.173,2.173,0,0,1-1.57.187l-.138-.583c-.543.2-1.633-.583-1.866.024-.587-1.569-2.639-.343-3.595-.621l-.036.761a5.154,5.154,0,0,0-2.106.479l.05.672c-.7.552-1.811-.478-2.925-.409.076-.257.358-.191.558-.035-1.331-1.519-2.808,1.1-4.015,0a.5.5,0,0,1-.729-.006.117.117,0,0,0,.074-.037.558.558,0,0,0-.123-.008c-.133-.116-.27-.25-.418-.357a1.5,1.5,0,0,0,.351.359,2.642,2.642,0,0,0-.928.267l-.147-.722a.623.623,0,0,0-.08.02c-.339-.266-.272.342-.092.886a1.8,1.8,0,0,0-.456.435c-.275-1.166-.9.393-1.28-.85-.232.606-1.734.455-1.918,1.733-.011-.167-.113-.247.073-.258-.384-.145-.768-.29-1.113.07l-.163-.918-.84,1.233c-.51-.559-.721-.884-.215-1.591-1.223,1.089-.992.41-2.032,1.487l.05-.594c-.371.023-.966.82-1.19.328-.831-1.13-4.114-.156-6.249-1.206.414,1.749-.992-.782-1.077.573-.124-.414-.422-.648-.076-1.006-1.089.4-1.637-.657-2.389.486-.124-.416.233-.605.122-.853-.087.091-.346.36-.459.113s.16-.346.332-.526c-1.113.069-1.225,1.344-1.306,2.539-.564-.565-.846-.486-1.253.3-.2-.391-.524-.8.168-.94-.389-.058-2.377-.574-2.416.385-.122-.244-.544-.072-.646.04A7.365,7.365,0,0,0,84.15,28l.238.156c-.339,1.156-.713.258-1.4.4l.02-.118c-1.585-.835-.684.4-2.247-.553l.085.72c-.146,1.547-1.385-.913-2.292-.321l.327.41c-.495.531-1.385-2.1-1.882-2.3-.109-.135.171-.216.322-.314-1.3-.915-.168.94-1.139,1.16-.179-.509.231-1.293-.423-1.388-.325-.411-1.895,1.651-2.786.676.2.392.391.782-.06,1.077-.691.14-1.868-1.48-2.492-.245a.507.507,0,0,1-.125-.308c-.528.319-1.717.529-2.035,1.2-.488-2.484-3.284,1.209-3.272-1.083l-1.625.123.042-.234a1.6,1.6,0,0,0-1.771.947c-.24-.155-.065-.37-.045-.489-1.518-.463-1.668-.365-2.941.778l-.132-.744c-.345.432-2.194-1.167-3.683-.3a.556.556,0,0,1,.164-.334c-1.675.873-4.01-2.061-4.623.646l-1.1.667c1.429.21-.213,1.176.375,1.624-.563.159-1.454-.816-.763-.956l.108.136c.254-1.411-1.777-.5-1.738-1.462-2.814.072-5.556-.711-8.191-.771l.3,1.1-.919-.062c-.241-.254-.324-.858.332-.814-.345-.621-1.1.523-1.119.76-1.284-.444.5-1.279.108-1.305l-.535.081.121.129c-.433.448-.472.924-1.26.87-.5-.221-.256-.677-.452-.719,0-.079-.066-.115-.3-.033l-1.159-.093.463.866c-.513.427-1.089-.045-.554.936-.785-1.514-4.321-.543-4.8-1.013a2.722,2.722,0,0,1-2.308.544c.219.181.349,1.154-.409,1.036.277-2.011-1.388-.873-2-2.319.547.959-2.156.237-1.3,1.6-.632-.164-.038-.753-.518-1.226-1.506.779-3.319-.506-5.18-.243-.029.265.282.667-.117,1.06l-.983-1.32c-.367.13-.338,1.524-1.01.608.1.222.237.556-.01.641C11.8,26.6,8,28.934,4.3,26.519c.5.512.168.562-.215.581.249.121-.006.65.043,1.009l-1.551-.994c-.282.992-1.662.067-1.824,1.016l.491-.171c-.653,1.121.914,2.489.818,3.926.732-1.273,1.928,1.885,3.128.063.265.294-.226.464-.085.8.305-.615.672-.744,1.352-.468l-.077.153c1.912-.15,2.732.457,4.879.861l-.159-.71c.462.094.559.317.775.5.529-1.078-1.3-.061-.814-1.249.612,1.445,3.255.021,3.668,1.664.71.009-.208-.822.5-.813l.188.445.18-.573a1.089,1.089,0,0,1,.717,1.027c-.113-.045-.321.1-.442.138.6.523,1.7-.178,1.909-.008l-.682-.274c1.938-.416,4.3.168,6.175-.737l-.142-.334c1.43-.621,1.145.368,2.714.08l-.057.08a1.422,1.422,0,0,1,1.163-.464c-.4.393.746.763.226,1.2,1.55-.665.767-.523,1.791-1.769l.236.558c.349-.5.378-.77,1.162-.914-.643.477.5.848-.22,1.479,1.645,1.217,2.442-1.229,3.2.551.755-1.54-1.424-.855-1-1.185-.354-.5.624-1.151,1.14-1,.526.035.893,1.971,2.215,1.941-.131-.007-.14.11-.271.1.494.394.969-.531,1.575.107.341-.931.788.053.886-1.134l-1.212.276c.687-.312,1.332-1.7,2.464-1.027a2.171,2.171,0,0,1-.657.73c.331.35.638-.232.981.128-.1,1.188-1.473.258-2.21,1.164.356.5,1.393-.86,1.023.426.532-1.635,1.3.208,2.2-1.043l-.059.712c.141-.111.435-.447.7-.43l-.472.923c.725-.787,1.4.69,2.092.261-1.455.021-.326-.859-.941-1.378,1.794-.953,1.032,1.863,3.041,1.52-.272.1-1.021-.426-.6-.757a2.367,2.367,0,0,1,1.123.795c1.331-.149-.2-.733.362-1.171.454.867.654-.353,1.238-.631l0,.724c1.517.464.4-1.509,1.768-.946l-.577,1,.712-.259-.147.823c.775-.61,1.016-.453,1.775-.222-.176-.508.1-1.313.771-1.335.459.429-.256.688.7.584-.215.452-.45,1.021-.865.356-.042.236-.212.452-.256.687.494.493,1.241.112,1.585.1a.643.643,0,0,1-.372-.167l1.38-1c.218.271.045.49-.125.7.279-.08.473-.413.884-.475-.106.589-.081,1.2-.663,1.473l1.316-.653c.088.256.675.7.5.919.73.346,1.789-1.141,2.756-.685a.607.607,0,0,1,.357-.307c.909.133,1.714.854,2.791.048l.612,1.055c.843-.24-.828-1.329.577-1.727.995-.336.371.9.72,1.193.495-.531,1.355-1.613,2.268-.755-.3.2-.539.043-.822.121m10.405-.466c-.2.151-.6.62-.751.193.23-.83.407-.433.751-.193m15.817-1.742c-.15.238-.381.12-.643-.154a.674.674,0,0,1,.643.154m44.062-5.04a.157.157,0,0,0-.022.036c-.449-.283-.29-.17.022-.036m.934.314a.261.261,0,0,0,.048-.3c-.066.183-.275.2-.514.144.066.19.187.321.466.158M35.532,27.1l.182.189c-.411.208-.3.019-.182-.189" fill="#fb808d"/>
    <path id="Контур_1160" data-name="Контур 1160" d="M89.033,32.532a1.177,1.177,0,0,1-.086-.393.269.269,0,0,0,.086.393" fill="#fb808d"/>
    <path id="Контур_1161" data-name="Контур 1161" d="M58.133,34.132c-.011-.006-.021,0-.032-.008a.569.569,0,0,0-.032.131Z" fill="#fb808d"/>
    <path id="Контур_1162" data-name="Контур 1162" d="M121.355,32.954a.867.867,0,0,1-.371-.374c-.01.177.077.327.371.374" fill="#fb808d"/>
    <path id="Контур_1163" data-name="Контур 1163" d="M140.77,25.588l-.6.188c.289-.036.392.123.538.238-.013-.169-.127-.414.06-.426" fill="#fb808d"/>
    <path id="Контур_1164" data-name="Контур 1164" d="M145.963,30.067c.087-.089.185-.01.272-.1l-.024-.336c-.373.021-.633.293-.248.436" fill="#fb808d"/>
    <path id="Контур_1165" data-name="Контур 1165" d="M141.324,27.993c.047.609.423.4.842.29a.2.2,0,0,1-.074,0c.123-.851-.323-.571-.768-.29" fill="#fb808d"/>
    <path id="Контур_1166" data-name="Контур 1166" d="M142.263,28.261a.906.906,0,0,1,.387-.015c.049-.341-.157-.071-.387.015" fill="#fb808d"/>
    <path id="Контур_1167" data-name="Контур 1167" d="M137.006,26.415c.2.156.125-.778.237-.531.222-.774-1.325.938-.237.531" fill="#fb808d"/>
    <path id="Контур_1168" data-name="Контур 1168" d="M141.664,30l-.15-.751-.235.6Z" fill="#fb808d"/>
    <path id="Контур_1169" data-name="Контур 1169" d="M138.355,29.446l.67.209c-.011-.126.074-.2.179-.256-.413-.026-.865-.175-.849.047" fill="#fb808d"/>
    <path id="Контур_1170" data-name="Контур 1170" d="M139.2,29.4a.684.684,0,0,0,.539-.125,1.434,1.434,0,0,0-.539.125" fill="#fb808d"/>
    <path id="Контур_1171" data-name="Контур 1171" d="M140.748,30.224l-.2-.157-.473-.054Z" fill="#fb808d"/>
    <path id="Контур_1172" data-name="Контур 1172" d="M131.157,29.3l-.731.215c-.074.258.125.415.4.313.175-.18.446-.279.334-.528" fill="#fb808d"/>
    <path id="Контур_1173" data-name="Контур 1173" d="M133.367,31.36c-.2-.156-.211-.324-.322-.571l-.023.931Z" fill="#fb808d"/>
    <path id="Контур_1174" data-name="Контур 1174" d="M131.236,31.577c-.073.259-1.061.742-.134.684.074-.256.806-.472.134-.684" fill="#fb808d"/>
    <path id="Контур_1175" data-name="Контур 1175" d="M120.226,30.4l.186-.012-.027-1.528Z" fill="#fb808d"/>
    <path id="Контур_1176" data-name="Контур 1176" d="M110.521,34.054c.866.366.206-.943.988-.486.2-.361-.639-.373-.431-.685-.523.381-.8.167-.557,1.171" fill="#fb808d"/>
    <path id="Контур_1177" data-name="Контур 1177" d="M111.078,32.883a1.923,1.923,0,0,0,.267-.231.848.848,0,0,0-.267.231" fill="#fb808d"/>
    <path id="Контур_1178" data-name="Контур 1178" d="M1.535,26.328l-.557-.319.36.514Z" fill="#fb808d"/>
    <path id="Контур_1179" data-name="Контур 1179" d="M.466,27.462l-.131-.974L0,27.369c.126-.043.37-.127.466.093" fill="#fb808d"/>
    <path id="Контур_1180" data-name="Контур 1180" d="M76.556,35.246l.042-.234c-.086-.254-.216-.272-.477-.312Z" fill="#fb808d"/>
    <path id="Контур_1181" data-name="Контур 1181" d="M69,34.517l.13.02-.243-.88Z" fill="#fb808d"/>
    <path id="Контур_1182" data-name="Контур 1182" d="M62.666,35.64c.259.037.563-.159.823-.121-.564.158-.893-.976-.823.121" fill="#fb808d"/>
  </g>
</svg>
