<svg xmlns="http://www.w3.org/2000/svg" xmlns:xlink="http://www.w3.org/1999/xlink" width="288.788" height="121.179" viewBox="0 0 288.788 121.179">
  <defs>
    <clipPath id="clip-path">
      <rect id="Прямоугольник_61" data-name="Прямоугольник 61" width="190.974" height="13.158" fill="none"/>
    </clipPath>
    <clipPath id="clip-path-2">
      <rect id="Прямоугольник_60" data-name="Прямоугольник 60" width="288.22" height="118.465" fill="none"/>
    </clipPath>
  </defs>
  <g id="Сгруппировать_373" data-name="Сгруппировать 373" transform="translate(-19.5 -2607.771)">
    <g id="Сгруппировать_83" data-name="Сгруппировать 83" transform="translate(19.5 2715.792)">
      <g id="Сгруппировать_82" data-name="Сгруппировать 82" transform="translate(0 0)" clip-path="url(#clip-path)">
        <path id="Контур_211" data-name="Контур 211" d="M167.811,2.23c.282.063.181-.651.223-.78-.472.158-.211.965-.223.78" transform="translate(22.94 0.198)" fill="#fb808d"/>
        <path id="Контур_212" data-name="Контур 212" d="M163.782,3.6l.082-.292-.685.715Z" transform="translate(22.315 0.452)" fill="#fb808d"/>
        <path id="Контур_213" data-name="Контур 213" d="M159.88,3.607c.411,1.217,1.577-.2,2.353.236l.127.279.35-.981c-.942.156-2.167.806-2.83.466" transform="translate(21.864 0.429)" fill="#fb808d"/>
        <path id="Контур_214" data-name="Контур 214" d="M157.847,1.236c.143.473-.5.406.541.148a1.06,1.06,0,0,1-.1-.12,1.967,1.967,0,0,1-.443-.027" transform="translate(21.576 0.169)" fill="#fb808d"/>
        <path id="Контур_215" data-name="Контур 215" d="M158.238,1.282c.458-.034-.3-.4,0,0" transform="translate(21.629 0.15)" fill="#fb808d"/>
        <path id="Контур_216" data-name="Контур 216" d="M156.4,1.615l.6-.423c-.126-.28-.664-.343-.464-.547-.62.232-.492.51-.14.97" transform="translate(21.348 0.088)" fill="#fb808d"/>
        <path id="Контур_217" data-name="Контур 217" d="M155.863,2.312l.313-.178c-.055-.118-.138-.159-.313.178" transform="translate(21.314 0.28)" fill="#fb808d"/>
        <path id="Контур_218" data-name="Контур 218" d="M156.8,1.79l-.664.377c.088.2.1.591.3-.136-.053.36.077.014.359-.241" transform="translate(21.352 0.245)" fill="#fb808d"/>
        <path id="Контур_219" data-name="Контур 219" d="M157.053,1.956c.339.265.776.432.169.853,1.156-.167.986-1.022-.169-.853" transform="translate(21.477 0.264)" fill="#fb808d"/>
        <path id="Контур_220" data-name="Контур 220" d="M159.685,4.675l.452.358.392-.409c-.2.2-.873-.331-.845.051" transform="translate(21.837 0.62)" fill="#fb808d"/>
        <path id="Контур_221" data-name="Контур 221" d="M153.058.944c-.038.259.2.69.248,1.022l.447-.3c-.23-.177-.664-.341-.695-.724" transform="translate(20.93 0.129)" fill="#fb808d"/>
        <path id="Контур_222" data-name="Контур 222" d="M153.356,1.843l-.667.444c.6.052.7-.159.667-.444" transform="translate(20.88 0.252)" fill="#fb808d"/>
        <path id="Контур_223" data-name="Контур 223" d="M155.794,3.581l1.1-.933-1.307.946Z" transform="translate(21.276 0.362)" fill="#fb808d"/>
        <path id="Контур_224" data-name="Контур 224" d="M150.852.988l.379-.6-.674.906Z" transform="translate(20.589 0.053)" fill="#fb808d"/>
        <path id="Контур_225" data-name="Контур 225" d="M149.484,1.146c.28-.5-.384-.84-.088-1.146a2.562,2.562,0,0,0-1.2.9c.375-.214.775-.159,1.292.247" transform="translate(20.265 0)" fill="#fb808d"/>
        <path id="Контур_226" data-name="Контур 226" d="M147.671,1.348a3.492,3.492,0,0,0,.592-.558,1.845,1.845,0,0,0-.592.558" transform="translate(20.194 0.108)" fill="#fb808d"/>
        <path id="Контур_227" data-name="Контур 227" d="M151.752,2.21a1.1,1.1,0,0,0-.525-.739l.263.729.263.01" transform="translate(20.68 0.201)" fill="#fb808d"/>
        <path id="Контур_228" data-name="Контур 228" d="M151.535,2.14l-.009-.023c-.285-.017-.482-.033-.567-.041.073.006.247.026.576.064" transform="translate(20.644 0.284)" fill="#fb808d"/>
        <path id="Контур_229" data-name="Контур 229" d="M151.756,2.124c-.024,0-.042,0-.066,0,.025.073.04.1.066,0" transform="translate(20.744 0.29)" fill="#fb808d"/>
        <path id="Контур_230" data-name="Контур 230" d="M154.32,2.889c-.392.408-1.21.843-.418,1.465.281-.5-.172-.853.418-1.465" transform="translate(21.001 0.395)" fill="#fb808d"/>
        <path id="Контур_231" data-name="Контур 231" d="M152.034,2.986l.708.167c-.014-.193-.141-.474.053-.675Z" transform="translate(20.791 0.339)" fill="#fb808d"/>
        <path id="Контур_232" data-name="Контур 232" d="M151.729,3.165l.347-.232-.263-.061Z" transform="translate(20.749 0.392)" fill="#fb808d"/>
        <path id="Контур_233" data-name="Контур 233" d="M148.862,1.882a1.5,1.5,0,0,1-1.02.394,3.625,3.625,0,0,0,1.223.218c.056-.228.231-.639-.2-.613" transform="translate(20.217 0.257)" fill="#fb808d"/>
        <path id="Контур_234" data-name="Контур 234" d="M150.072,2.06c-.022.017-.048.025-.068.042.042.061.075.081.068-.042" transform="translate(20.513 0.281)" fill="#fb808d"/>
        <path id="Контур_235" data-name="Контур 235" d="M144.566,2.225c.02.04.039.091.06.133,0-.042.008-.084.014-.127Z" transform="translate(19.769 0.304)" fill="#fb808d"/>
        <path id="Контур_236" data-name="Контур 236" d="M148.988,2.572c.3.141.487-.038.66-.261a2.522,2.522,0,0,1-.729.125c-.025.1-.03.173.068.136" transform="translate(20.363 0.316)" fill="#fb808d"/>
        <path id="Контур_237" data-name="Контур 237" d="M146.757,1.587a3.189,3.189,0,0,0,.527.4c-.155-.231-.472-.59-.527-.4" transform="translate(20.069 0.21)" fill="#fb808d"/>
        <path id="Контур_238" data-name="Контур 238" d="M149.918,1.934a.308.308,0,0,1,.045-.033c-.1-.155-.088-.08-.045.033" transform="translate(20.497 0.248)" fill="#fb808d"/>
        <path id="Контур_239" data-name="Контур 239" d="M149.963,1.919a1.965,1.965,0,0,0-.4.447,1.8,1.8,0,0,0,.506-.244.961.961,0,0,1-.1-.2" transform="translate(20.452 0.262)" fill="#fb808d"/>
        <path id="Контур_240" data-name="Контур 240" d="M143.668,6.886a.878.878,0,0,1,1.546-.575c.681-.506.236-2.728-.358-3.97-.02.294-.02.566-.722.965.246.368,1.555.863.964,1.474-.928.347-.76-.24-1.212-.6.383.841-1.18,1.224-.978,2.462l.813-.437c.016.193-.28.5-.053.676" transform="translate(19.54 0.32)" fill="#fb808d"/>
        <path id="Контур_241" data-name="Контур 241" d="M145.952,2.522l.289-.084c-.329-.117-.564-.388-1-.916-.48.331-.58.581-.613.806l1.42.093Z" transform="translate(19.778 0.208)" fill="#fb808d"/>
        <path id="Контур_242" data-name="Контур 242" d="M147.34,2.379c-.225.734-.917,1.048-.493,1.843.846-.051.592-.614,1.1-.932-1.365.182.392-.409-.595-.826a2.4,2.4,0,0,1,.738-.194,3.861,3.861,0,0,1-.706-.335c.012.017.02.03.031.045h.008l0,.01c.059.092.078.149.011.1,0,.008-.02.013-.028.016a1.268,1.268,0,0,1-.061.275c-.4-.151-.061-.189.061-.275,0-.038.016-.072.017-.111l-.006-.009-1.366.4a2.936,2.936,0,0,0,1.294,0" transform="translate(19.972 0.264)" fill="#fb808d"/>
        <path id="Контур_243" data-name="Контур 243" d="M153.234,5.589a.293.293,0,0,1-.043-.171c-.089.091-.123.151.043.171" transform="translate(20.939 0.741)" fill="#fb808d"/>
        <path id="Контур_244" data-name="Контур 244" d="M152.806,5.392c.1-.1.182-.4.506-.321.28.221,0,.351.013.593.2-.194.682-.526.072-.886l-.1.1c-.551-.252-1.258-1.169-1.162-1.27a6.158,6.158,0,0,0,.668,1.781" transform="translate(20.804 0.494)" fill="#fb808d"/>
        <path id="Контур_245" data-name="Контур 245" d="M150.057,3.917l-1.139.36.581.635-.03-.382c.647.15.507-.319.588-.614" transform="translate(20.365 0.535)" fill="#fb808d"/>
        <path id="Контур_246" data-name="Контур 246" d="M144.513,2l.151-.776-.658,1.1Z" transform="translate(19.693 0.167)" fill="#fb808d"/>
        <path id="Контур_247" data-name="Контур 247" d="M143.19,2.066l.055-.674-.39.407Z" transform="translate(19.535 0.19)" fill="#fb808d"/>
        <path id="Контур_248" data-name="Контур 248" d="M69.745,9.35l-.334.191a.987.987,0,0,0,.334-.191" transform="translate(9.492 1.278)" fill="#fb808d"/>
        <path id="Контур_249" data-name="Контур 249" d="M71.843,9.43,71.9,9.1c-.111.183-.158.319-.059.333" transform="translate(9.817 1.244)" fill="#fb808d"/>
        <path id="Контур_250" data-name="Контур 250" d="M111.3,2.187c-.488-.63-1.032-1.607-.974-.848l.151.739a.81.81,0,0,1,.823.109" transform="translate(15.087 0.145)" fill="#fb808d"/>
        <path id="Контур_251" data-name="Контур 251" d="M89.294,6c.047.072.094.149.142.224.118-.252.23-.487.33-.707-.142.151-.3.313-.472.483" transform="translate(12.211 0.754)" fill="#fb808d"/>
        <path id="Контур_252" data-name="Контур 252" d="M89.069,8.687l-.642-.477a2.145,2.145,0,0,0,.642.477" transform="translate(12.092 1.123)" fill="#fb808d"/>
        <path id="Контур_253" data-name="Контур 253" d="M58.116,10.04l-.39.753c.61,0,.341-.383.39-.753" transform="translate(7.894 1.373)" fill="#fb808d"/>
        <path id="Контур_254" data-name="Контур 254" d="M129.946,2.279a2.334,2.334,0,0,0-1.049-.447c.507.424.915,1.062,1.049.447" transform="translate(17.627 0.25)" fill="#fb808d"/>
        <path id="Контур_255" data-name="Контур 255" d="M70.578,2.444a.518.518,0,0,0-.286.45c.211-.126.33-.268.286-.45" transform="translate(9.612 0.334)" fill="#fb808d"/>
        <path id="Контур_256" data-name="Контур 256" d="M127.829,1.872a2.511,2.511,0,0,0,.222.174,1.906,1.906,0,0,1,.992-.176c-.374-.315-.8-.512-1.214,0" transform="translate(17.481 0.213)" fill="#fb808d"/>
        <path id="Контур_257" data-name="Контур 257" d="M15.882,9.512a.793.793,0,0,1-.109-.089c-.01.1.039.106.109.089" transform="translate(2.157 1.288)" fill="#fb808d"/>
        <path id="Контур_258" data-name="Контур 258" d="M3.575,2.946a2.532,2.532,0,0,1,.574-.058.794.794,0,0,0-.574.058" transform="translate(0.489 0.39)" fill="#fb808d"/>
        <path id="Контур_259" data-name="Контур 259" d="M137.913,1.707c.314-.049.05-.082,0,0" transform="translate(18.86 0.226)" fill="#fb808d"/>
        <path id="Контур_260" data-name="Контур 260" d="M139.271,4.275a.576.576,0,0,0-.125.36.737.737,0,0,1,.125-.36" transform="translate(19.028 0.584)" fill="#fb808d"/>
        <path id="Контур_261" data-name="Контур 261" d="M125.082,5.885c-.009,0-.017,0-.027,0,.093.146.077.117.027,0" transform="translate(17.101 0.804)" fill="#fb808d"/>
        <path id="Контур_262" data-name="Контур 262" d="M138.377,2.023a1.458,1.458,0,0,0-.4-.219,1.569,1.569,0,0,0,.4.219" transform="translate(18.868 0.246)" fill="#fb808d"/>
        <path id="Контур_263" data-name="Контур 263" d="M138.273,1.7c.108.033.193.051.274.072.04-.123,0-.2-.274-.072" transform="translate(18.909 0.223)" fill="#fb808d"/>
        <path id="Контур_264" data-name="Контур 264" d="M137.529,1.741a1.309,1.309,0,0,1,.508.076c-.061-.05-.088-.091-.07-.116-.092.01-.223.026-.438.04" transform="translate(18.807 0.232)" fill="#fb808d"/>
        <path id="Контур_265" data-name="Контур 265" d="M38.51,7.767a.66.66,0,0,1-.067-.069c-.317.307-.177.258.067.069" transform="translate(5.232 1.052)" fill="#fb808d"/>
        <path id="Контур_266" data-name="Контур 266" d="M104,8.818c.015-.008.023-.027.036-.034-.015-.009-.034-.019-.047-.028Z" transform="translate(14.221 1.197)" fill="#fb808d"/>
        <path id="Контур_267" data-name="Контур 267" d="M103.01,9.624c.48-.921.753-.807,1.116-.613l-.373-2.133Z" transform="translate(14.087 0.94)" fill="#fb808d"/>
        <path id="Контур_268" data-name="Контур 268" d="M73.336,10.733l.791.665c-.955,1.095-1.646.717-.9,1.651.111-2.316,3.076-.235,3.186-2.551l.522.488c-.15-.023-.174.113-.322.091,1.015,1.108.754-1.673,2.061-1.345.456.177.774.513.464.788l1.015-.573a.206.206,0,1,1-.072.4l1.548-.185-.011.068a7.947,7.947,0,0,1,.966-1.163c.393.333-.2.246-.1.533l.857-.56c.35.6-.36,1.183-.953,1.1.8,2.312.71-.581,2.438.77l-.809.293c.522,1.313,1.154.837,2.069,1.655-.217-.427-1.832-2.063-.9-2.64.263.174.608.257,1.109-.209,0,.824.5.622,1.108.574l-.042,1.092c.664-.316.612-.871,1-1.362.739.108.892.953,1.066,1.664,1.183.173-.817-1.355.583-1.561.984.417,1.676-.028,2.853-.681.689.377-.12.668.126.98l.612-.871c.149.022.1.289.076.423.515-.338.042-1.09.851-1.386.218-1.2,1.661,1.755,2.662.391.247.31-.119.668-.044,1.091a7.475,7.475,0,0,0,2.306-1.856l.961.716c-.706-.818.2-1.787.987-2.584a10.115,10.115,0,0,0-.608-.907l1.261-.584c.152.178.025.554-.182,1.009a3.468,3.468,0,0,0,.232-.263c.45.4.217,1.033-.107,1.643-.153-.215-.306-.444-.454-.674a4.192,4.192,0,0,0-.538,2.036.822.822,0,0,1,.413-.294.7.7,0,0,0-.1.449c.043.115.174-.126.381-.4l.286,1.216.069-.483,1.649.76c1.181-1.223,2.208-3.026,4.081-3.527-.465.891-.1,1.456-.125,2.512-.512-1.119-1.452.475-2.422.249a.491.491,0,0,1,.267.8l1.731-1.017c-.039.865.367.648.82,1.006-.341-1.709,1.291-1.138,2-1.661.043.572-.125,1.158-.986,1.02.949,1.286,1.225-2.005,2.156-.913-.209.014-.323-.074-.406.218.491-.51,1.689-.106,1.407.392l-.209.013c1.393.2,4.241.013,4.449-1.438a16.939,16.939,0,0,1-.267,2.042l2.487-4.88c-.219,1.246.622,4.212-.534,4.918a1.226,1.226,0,0,0,1.441-.057c-.226-.177-.564-1.8-.255-1.915.849,1.387.59.742,1.636,1.925-.339-.266.038-2.22.574-2.158-.084.292.044,1.927-.151,2.13l1.335-1.917c-.333.344-.059,1.624.24,2.168-.139-.376,1.154.034,1.51-.156l-.566-.446c1.506.291,1.488-2.7,2.983-2.6-.181.4-.447,2.438.314,2.679.348-.982,1.543-4.723,2.865-5.48l.253.563,1.015-.641a35.3,35.3,0,0,1-3.374,5.8c.564.444.158.664,1,.612.3.526-.459.8-.708.829l1.965.34c-.088-1.146,1.5-1.149,1.429-2.1l-2.135,1.188c-.088-1.145,1.235-3.253,2.627-3.052.355.457-.265,2.04-.236,2.424.181-.394,1.322-.755,1.451-.474l-.591.613c.775.431,1.266-1.52,2.2-.425.322.074.961,1.476,1.016.8a15.745,15.745,0,0,1-.277-6.337,10.778,10.778,0,0,1,2.056,1.9c.53,1.025-.8,2.445-.344,3.325a1.631,1.631,0,0,1,.434-.824c.338.267-.14.971.593.829.123-1.161,1.493.1.347-.982.718-.332.764.24,1.606.188-.268-.75.757-2.554,1.477-2.887a1.805,1.805,0,0,0,.2.857c1.471.1,2.261.632,3.634.642.126.282.788.623.506,1.122.2-.206.379-.6.8-.627.818,1-.943.156-.319,1.365.053-.675,1.095-.934,1.7-1.355-.185-1.044-1.393-.2-2,.221a4.244,4.244,0,0,1,2.483-3.61c1.14-.358.493.93.692.725,2.14.251,1.823-2.512,3.6-1.473.706.915.032,1.822.189,2.484-.929.347-1.425-.582-2.055-.545l.775.434c-.3.3-.915.535-1.253.271.591.823,3.617.157,5.269.917.293-.306.8-.625.56-.994l-.523.127c-.48-.739.984-1.022.323-1.368.7-.519,1.487-1.337,2.474-.918l.186,1.045c-.022-.306-.646-.622-.923-.3.411-.464,1.513,1.415,1.964.047l-.692-.725c.7-.525,1.574-1.635,2.45-1.3-.4-1.032-.2.118-.824-1.09.539,1.5-2.237-.063-1.372,1.516-.638-1.4-1.1-.595-1.937-1.79.025.346.294.66-.44.49a1.5,1.5,0,0,1-.16.3.293.293,0,0,1-.05-.025c.015.014.026.028.041.04-.032.052-.035.064.015.015a1.193,1.193,0,0,1,.374.524c-.365.791-1.532.767-1.927,1.178-.436-.165.182-.4-.056-.764l-.59.613c-.059-.765-1.158-1.272-.132-1.721l-.924-.034a1.568,1.568,0,0,0-1.753-.279c-.437-.165-1.1.848-.722.248l-1.448.475-.014-.191c-1.43-.1-2.943,1.269-4.578-.115a2.47,2.47,0,0,1-1.785.213l-.157-.662c-.617.23-1.855-.664-2.121.026-.667-1.782-3-.389-4.087-.7l-.041.865a5.856,5.856,0,0,0-2.394.543l.057.764c-.8.627-2.059-.543-3.325-.464.086-.293.407-.217.634-.04-1.513-1.728-3.192,1.256-4.564,0a.572.572,0,0,1-.829-.008.137.137,0,0,0,.084-.041.627.627,0,0,0-.14-.01c-.151-.131-.307-.284-.475-.406a1.71,1.71,0,0,0,.4.409,2.974,2.974,0,0,0-1.055.3l-.167-.821c-.032.01-.058.009-.091.023-.385-.3-.309.389-.1,1.007a2.04,2.04,0,0,0-.518.494c-.313-1.325-1.029.447-1.455-.966-.264.689-1.971.518-2.18,1.97-.013-.19-.128-.281.083-.292-.437-.166-.873-.331-1.265.078l-.185-1.044-.955,1.4c-.58-.637-.82-1.006-.244-1.809-1.39,1.237-1.128.465-2.31,1.689l.057-.675c-.422.026-1.1.932-1.353.373-.945-1.283-4.677-.177-7.1-1.37.471,1.987-1.128-.89-1.224.65-.141-.469-.48-.735-.086-1.144-1.238.46-1.861-.747-2.716.552-.141-.472.265-.688.139-.969-.1.1-.393.409-.522.128s.182-.394.377-.6c-1.265.08-1.393,1.528-1.485,2.887-.641-.643-.962-.554-1.424.339-.223-.444-.6-.909.191-1.07-.442-.066-2.7-.652-2.746.438-.139-.276-.618-.081-.734.045a8.372,8.372,0,0,0-2.054-.06l.271.177c-.385,1.315-.811.293-1.6.451l.023-.133c-1.8-.95-.778.454-2.554-.63l.1.818c-.166,1.759-1.574-1.038-2.605-.365l.372.467c-.563.6-1.574-2.392-2.139-2.612-.124-.153.194-.246.366-.357-1.48-1.04-.191,1.07-1.295,1.319-.2-.577.263-1.47-.481-1.578-.369-.466-2.154,1.877-3.167.768.223.446.444.89-.068,1.224-.785.159-2.123-1.682-2.833-.277a.579.579,0,0,1-.142-.35c-.6.361-1.952.6-2.313,1.363-.555-2.825-3.733,1.373-3.719-1.232l-1.847.14.048-.266A1.821,1.821,0,0,0,69.957,4.2c-.273-.177-.074-.422-.051-.557-1.726-.525-1.9-.415-3.343.884l-.15-.846c-.392.491-2.494-1.327-4.187-.34a.635.635,0,0,1,.186-.38c-1.9.992-4.558-2.343-5.255.734L55.9,4.456c1.624.239-.242,1.337.426,1.846-.64.181-1.653-.928-.867-1.086l.123.153c.289-1.6-2.02-.568-1.976-1.662-3.2.082-6.316-.808-9.311-.876l.344,1.247L43.6,4.007c-.274-.289-.368-.975.377-.924-.392-.707-1.25.593-1.272.864-1.46-.506.571-1.455.123-1.485l-.608.092.138.147c-.492.509-.537,1.05-1.432.989-.567-.25-.291-.77-.514-.817,0-.09-.075-.131-.342-.036L38.747,2.73l.526.983c-.583.487-1.238-.051-.63,1.064-.892-1.72-4.912-.617-5.459-1.15a3.093,3.093,0,0,1-2.624.617c.249.206.4,1.313-.465,1.178.315-2.285-1.578-.991-2.275-2.636.622,1.09-2.451.269-1.474,1.818-.718-.185-.043-.856-.589-1.394-1.712.886-3.773-.575-5.888-.276-.033.3.321.758-.133,1.2l-1.117-1.5c-.417.147-.384,1.731-1.148.69.108.253.269.632-.011.729C13.316,2.6,8.991,5.255,4.78,2.51c.571.582.191.639-.244.66.283.139-.007.74.049,1.147L2.821,3.187C2.5,4.316.932,3.263.748,4.343l.558-.2c-.742,1.274,1.039,2.829.93,4.463.832-1.447,2.192,2.144,3.556.072.3.334-.257.527-.1.9.347-.7.764-.845,1.537-.531l-.088.173c2.173-.171,3.106.519,5.546.979L12.51,9.4a1.6,1.6,0,0,1,.881.564c.6-1.225-1.473-.069-.925-1.42.7,1.644,3.7.024,4.17,1.893.807.01-.236-.936.571-.924l.214.5.2-.651a1.238,1.238,0,0,1,.815,1.167c-.128-.05-.365.119-.5.157.687.6,1.935-.2,2.17-.009l-.775-.311c2.2-.473,4.891.191,7.019-.837l-.161-.381c1.626-.706,1.3.418,3.085.092l-.065.091a1.614,1.614,0,0,1,1.322-.529c-.45.447.848.867.257,1.362,1.762-.757.872-.595,2.036-2.011l.268.633c.4-.573.43-.875,1.321-1.038-.731.542.568.963-.25,1.68,1.87,1.383,2.776-1.4,3.634.626.858-1.751-1.619-.972-1.138-1.347-.4-.571.709-1.308,1.3-1.132.6.04,1.015,2.241,2.518,2.206-.149-.008-.159.125-.308.116.562.447,1.1-.6,1.79.122.388-1.059.9.059,1.007-1.29l-1.378.314c.781-.354,1.514-1.934,2.8-1.167a2.468,2.468,0,0,1-.747.83c.376.4.725-.264,1.115.146-.111,1.35-1.674.293-2.512,1.323.4.571,1.583-.978,1.163.485.6-1.86,1.481.235,2.5-1.186l-.067.808c.16-.126.494-.508.79-.488l-.537,1.048c.824-.895,1.588.784,2.378.3-1.654.024-.371-.975-1.07-1.566,2.039-1.082,1.173,2.118,3.457,1.729-.309.114-1.161-.485-.678-.862a2.7,2.7,0,0,1,1.277.9c1.513-.169-.232-.833.412-1.331.516.986.743-.4,1.407-.716l0,.822c1.724.529.457-1.714,2.01-1.075l-.656,1.14.809-.3-.167.937c.881-.695,1.155-.515,2.018-.252-.2-.579.113-1.493.876-1.519.522.489-.291.782.791.665-.244.514-.512,1.159-.983.4-.048.268-.241.515-.291.781.562.56,1.411.127,1.8.119a.725.725,0,0,1-.423-.191L60.633,9.7c.248.309.051.557-.142.8.317-.09.538-.468,1-.539-.12.668-.092,1.358-.754,1.673l1.5-.742c.1.291.767.8.573,1.046.83.392,2.034-1.3,3.133-.78a.69.69,0,0,1,.406-.349c1.033.151,1.948.972,3.173.056l.7,1.2c.958-.272-.941-1.511.656-1.962,1.131-.383.422,1.022.818,1.355.563-.6,1.54-1.834,2.578-.857-.343.226-.613.049-.934.138M85.164,10.2c-.228.172-.685.7-.854.219.261-.942.463-.492.854-.219m17.98-1.98c-.171.271-.433.136-.731-.175a.766.766,0,0,1,.731.175m50.087-5.728a.17.17,0,0,0-.025.04c-.51-.321-.33-.193.025-.04m1.062.357a.3.3,0,0,0,.055-.344c-.075.208-.313.224-.584.165.075.215.213.364.53.18m-114,.324.207.215c-.467.238-.336.023-.207-.215" transform="translate(0.102 0.109)" fill="#fb808d"/>
        <path id="Контур_269" data-name="Контур 269" d="M89.052,8.372a1.344,1.344,0,0,1-.1-.447.306.306,0,0,0,.1.447" transform="translate(12.156 1.084)" fill="#fb808d"/>
        <path id="Контур_270" data-name="Контур 270" d="M58.142,9.919c-.013-.007-.024,0-.036-.009a.647.647,0,0,0-.036.149Z" transform="translate(7.941 1.355)" fill="#fb808d"/>
        <path id="Контур_271" data-name="Контур 271" d="M121.406,8.791a.99.99,0,0,1-.422-.424c-.011.2.088.371.422.424" transform="translate(16.545 1.144)" fill="#fb808d"/>
        <path id="Контур_272" data-name="Контур 272" d="M140.852,1.374l-.68.214c.329-.041.446.14.612.271-.015-.192-.144-.471.068-.484" transform="translate(19.169 0.188)" fill="#fb808d"/>
        <path id="Контур_273" data-name="Контур 273" d="M145.989,5.912c.1-.1.21-.011.309-.114l-.027-.382c-.424.025-.72.333-.282.5" transform="translate(19.935 0.74)" fill="#fb808d"/>
        <path id="Контур_274" data-name="Контур 274" d="M141.324,3.816c.053.692.481.457.957.329a.191.191,0,0,1-.084,0c.14-.966-.367-.648-.873-.329" transform="translate(19.326 0.478)" fill="#fb808d"/>
        <path id="Контур_275" data-name="Контур 275" d="M142.263,4.072a1.03,1.03,0,0,1,.44-.017c.056-.388-.178-.081-.44.017" transform="translate(19.455 0.528)" fill="#fb808d"/>
        <path id="Контур_276" data-name="Контур 276" d="M137.06,2.3c.226.177.142-.884.269-.6.252-.88-1.506,1.066-.269.6" transform="translate(18.682 0.2)" fill="#fb808d"/>
        <path id="Контур_277" data-name="Контур 277" d="M141.716,5.887l-.171-.855-.267.689Z" transform="translate(19.32 0.688)" fill="#fb808d"/>
        <path id="Контур_278" data-name="Контур 278" d="M138.355,5.248l.762.238c-.012-.143.085-.226.2-.291-.469-.03-.983-.2-.965.053" transform="translate(18.92 0.699)" fill="#fb808d"/>
        <path id="Контур_279" data-name="Контур 279" d="M139.2,5.2a.782.782,0,0,0,.613-.143,1.657,1.657,0,0,0-.613.143" transform="translate(19.036 0.692)" fill="#fb808d"/>
        <path id="Контур_280" data-name="Контур 280" d="M140.84,6.038l-.225-.178-.538-.061Z" transform="translate(19.156 0.793)" fill="#fb808d"/>
        <path id="Контур_281" data-name="Контур 281" d="M131.259,5.088l-.831.244c-.084.292.142.472.451.356.2-.2.507-.317.38-.6" transform="translate(17.834 0.696)" fill="#fb808d"/>
        <path id="Контур_282" data-name="Контур 282" d="M133.414,7.224c-.225-.177-.24-.368-.366-.649l-.026,1.058Z" transform="translate(18.191 0.899)" fill="#fb808d"/>
        <path id="Контур_283" data-name="Контур 283" d="M131.308,7.363c-.083.294-1.206.843-.152.776.084-.291.916-.535.152-.776" transform="translate(17.874 1.007)" fill="#fb808d"/>
        <path id="Контур_284" data-name="Контур 284" d="M120.225,6.4l.211-.014-.031-1.737Z" transform="translate(16.441 0.635)" fill="#fb808d"/>
        <path id="Контур_285" data-name="Контур 285" d="M110.533,10c.984.416.234-1.072,1.123-.552.231-.41-.726-.424-.49-.779-.595.434-.906.19-.633,1.331" transform="translate(15.102 1.185)" fill="#fb808d"/>
        <path id="Контур_286" data-name="Контур 286" d="M111.078,8.7a2.186,2.186,0,0,0,.3-.263.964.964,0,0,0-.3.263" transform="translate(15.19 1.154)" fill="#fb808d"/>
        <path id="Контур_287" data-name="Контур 287" d="M1.611,2.157.978,1.795l.409.584Z" transform="translate(0.134 0.245)" fill="#fb808d"/>
        <path id="Контур_288" data-name="Контур 288" d="M.53,3.38.381,2.273,0,3.274c.143-.049.421-.144.53.106" transform="translate(0 0.311)" fill="#fb808d"/>
        <path id="Контур_289" data-name="Контур 289" d="M76.615,11.106l.048-.266c-.1-.289-.246-.309-.542-.355Z" transform="translate(10.41 1.434)" fill="#fb808d"/>
        <path id="Контур_290" data-name="Контур 290" d="M69.019,10.421l.148.023-.276-1Z" transform="translate(9.421 1.291)" fill="#fb808d"/>
        <path id="Контур_291" data-name="Контур 291" d="M62.667,11.492c.294.042.64-.181.936-.138-.641.18-1.015-1.109-.936.138" transform="translate(8.568 1.496)" fill="#fb808d"/>
      </g>
    </g>
    <g id="Сгруппировать_81" data-name="Сгруппировать 81" transform="translate(20.068 2607.771)">
      <g id="Сгруппировать_80" data-name="Сгруппировать 80" transform="translate(0 0)">
        <g id="Сгруппировать_79" data-name="Сгруппировать 79" clip-path="url(#clip-path-2)">
          <path id="Контур_1764" data-name="Контур 1764" d="M15.527-14.121a22.63,22.63,0,0,1-1.26-1.89,3.247,3.247,0,0,0-1.992-1.45,2.158,2.158,0,0,0-1.26.132,4.632,4.632,0,0,0-1.055.659,10.186,10.186,0,0,0-2.227,2.461q-.439.762-1,1.626a11.517,11.517,0,0,0-1,1.963q-.439,1.1-.908,2.212a19.34,19.34,0,0,0-1,4.453,5.553,5.553,0,0,0,.85,3.6A2.06,2.06,0,0,0,6.211.5,6.2,6.2,0,0,0,8.76.205a24.212,24.212,0,0,0,3.428-1.45,34.064,34.064,0,0,0,3.164-1.714,1.552,1.552,0,0,1,.63-.264.966.966,0,0,1,.718.205.809.809,0,0,1,.22.674,2.518,2.518,0,0,1-.278.645,1.728,1.728,0,0,1-.5.557q-1.875.85-3.618,1.67a17.282,17.282,0,0,1-3.56,1.23,6.494,6.494,0,0,1-2.314.337,5.158,5.158,0,0,1-2.314-.674A3.7,3.7,0,0,1,2.666-.586a6.961,6.961,0,0,1-.645-3.545,19.47,19.47,0,0,1,1.758-6.943A23.749,23.749,0,0,1,8.057-17.9a4.218,4.218,0,0,1,1.992-1.377,4.08,4.08,0,0,1,1.348-.234,3.615,3.615,0,0,1,1.025.146,6.294,6.294,0,0,1,2.168,1.2,6.251,6.251,0,0,1,1.816,2.988q.117.557-.161.776A1.443,1.443,0,0,1,15.527-14.121Zm17.578-6.152a.615.615,0,0,1,.322-.088,1.928,1.928,0,0,1,.586.117,1.975,1.975,0,0,1,.747.483,2.043,2.043,0,0,1,.19.981q.205,1.23.293,2.4.205,2.549.425,4.321t.278,2.769a3.468,3.468,0,0,1,.85.732q.205.293-.791,1.084a16.384,16.384,0,0,0,.264,2.314q.264,1.611.586,3.354A12,12,0,0,0,37.339.264q.161.322.425.938a1.268,1.268,0,0,1,.1.688.683.683,0,0,1-.513.542,1.037,1.037,0,0,1-1.26-.645,13.2,13.2,0,0,1-.688-2.476Q35.1-2.256,34.819-4.5t-.366-2.534Q30.967-6.3,28.96-5.874a29.3,29.3,0,0,0-3.3.864q-1.377,2.549-1.948,3.75T22.837.615a4.16,4.16,0,0,0-.366,1.406.709.709,0,0,1-.469.5,1.309,1.309,0,0,1-.85-.059.982.982,0,0,1-.7-1.377,8.21,8.21,0,0,1,.806-1.655q.659-1.128,1.23-2.241T23.2-4.277a2.81,2.81,0,0,0-.981-.073,1.03,1.03,0,0,1-.952-.483,1.681,1.681,0,0,1-.059-1.084A35.285,35.285,0,0,0,24.639-6.8q2.051-3.486,4.131-6.914T31.494-18Q32.139-18.867,33.105-20.273Zm.322,2.988q-2.52,3.633-3.984,5.991t-2.49,4.116Q28.564-7.5,30.6-7.866t2.7-.513a4.133,4.133,0,0,0,1.04-.352q-.234-2.227-.41-4.438T33.428-17.285ZM48.135-6.152a23.126,23.126,0,0,1,2.329,1.318q1.45.908,3.56,2.285T56.792-.674a5.1,5.1,0,0,1,.952.879,1.258,1.258,0,0,1,.234.879.94.94,0,0,1-.542.7.845.845,0,0,1-.835.073,1.317,1.317,0,0,1-.557-.63,5.136,5.136,0,0,0-1.362-1.2Q53.5-.82,51.4-2.212A43.349,43.349,0,0,0,46.494-4.98a7.991,7.991,0,0,1-1-.439q-.381,1.2-.762,2.461A12.24,12.24,0,0,0,44.253-.7a10.252,10.252,0,0,0-.059,1.67,2.407,2.407,0,0,0,.4,1.2.7.7,0,0,1-.234.527.707.707,0,0,1-.776.146,1.489,1.489,0,0,1-.864-.791A4.908,4.908,0,0,1,42.246.088a37.887,37.887,0,0,1,1.436-6.123A1.058,1.058,0,0,0,43.74-6.8a.652.652,0,0,1,.059-.6,1.318,1.318,0,0,1,.41-.425,1.271,1.271,0,0,0,.41-.7q1.348-4.746,2.036-6.65a6.32,6.32,0,0,0,.571-2.578,9.083,9.083,0,0,0-1.04.806,4.875,4.875,0,0,0-.835,1.128,1.67,1.67,0,0,1-.249.513q-.161.22-.718.015a1.228,1.228,0,0,1-.674-.747,1.757,1.757,0,0,1-.029-.952,6.984,6.984,0,0,1,3.4-2.52,8.667,8.667,0,0,1,3.076-.586,7.316,7.316,0,0,1,1.143.088,7.813,7.813,0,0,1,2.725.879,5.883,5.883,0,0,1,2.168,1.992,3.5,3.5,0,0,1,.088,3.574A10.581,10.581,0,0,1,54.507-11a25.866,25.866,0,0,1-2.08,1.978,21.713,21.713,0,0,1-2.139,1.6Q49.189-6.709,48.135-6.152Zm.176-12.041a2.333,2.333,0,0,1,.806.7,1.183,1.183,0,0,1,.015,1.055q-1.23,3.311-1.992,5.6T46.055-7.676a2.83,2.83,0,0,0,1.025-.146A15.342,15.342,0,0,0,50.464-9.9,26.945,26.945,0,0,0,53-12.217a10.37,10.37,0,0,0,1.729-2.344,2.026,2.026,0,0,0-.615-2.754,6.039,6.039,0,0,0-3.076-1.143A5.89,5.89,0,0,0,48.311-18.193Zm14.707,2.725a1.359,1.359,0,0,1-1.055-.22,1.044,1.044,0,0,1-.527-.923.605.605,0,0,1,.439-.586,22.288,22.288,0,0,1,3.97-.791q2.681-.352,5.405-.527,2.754-.205,4.189-.234a2.138,2.138,0,0,1,.659.176.894.894,0,0,1,.483.542.71.71,0,0,1,.044.571.465.465,0,0,1-.337.22q-.234.044-.615.132-1.7.059-3.779.234-.439.059-.908.088a41.938,41.938,0,0,0-4.395.586,2.776,2.776,0,0,1,.073,1.362,5.321,5.321,0,0,1-.425,1.333q-.645,2.7-1.2,4.57.381.029,3.105-.264t3.472-.352q.747-.059,1.128-.059a1.209,1.209,0,0,1,.586.073,1.136,1.136,0,0,1,.41.308,2.031,2.031,0,0,1,.205,1.055q-.967.146-3.281.557t-4.219.645a4.14,4.14,0,0,1-1.216.044,4.536,4.536,0,0,1-.718-.249q-.469,1.846-.791,3.647a16.334,16.334,0,0,0-.293,3.179q1.025,0,3.853-.278t5.01-.615q2.183-.337,2.915-.454a3.937,3.937,0,0,0,.146.425,1.238,1.238,0,0,1-.015.571q-.073.439-.747.645a35.763,35.763,0,0,1-5.1.938l-5.6.7a1.155,1.155,0,0,1-.688.5q-.308.029-.806-.439a2.22,2.22,0,0,1-.63-.879,3.062,3.062,0,0,1-.132-.937q0-.557.1-1.611t.586-3.53q.483-2.476,1.187-5.332t1-3.779a11.255,11.255,0,0,0,.381-1.45Q63.926-15.7,63.018-15.469ZM83.76-.059q.586-.088,2.988-.513t6.123-.864A11.007,11.007,0,0,1,94.8-1.67a3.016,3.016,0,0,1,1.157.19,1.44,1.44,0,0,1,.7.615q.249.425-.249.6a12.753,12.753,0,0,1-1.3.176q-.688.059-1.553.22t-3.018.6q-2.153.439-3.164.659t-3.413.542a1.558,1.558,0,0,1-1.509-.41A1.91,1.91,0,0,1,81.826,0a33.552,33.552,0,0,1,1.538-8.35q1.362-4.424,2.593-8.613.234-1.143.439-1.992.205-.469.5-.469h.059a1.576,1.576,0,0,1,.6.278,2.542,2.542,0,0,1,.586.615,1.147,1.147,0,0,1,.22.835q-.029.264-.645,2.168t-1.582,4.746q-.967,2.842-1.523,4.922a20.575,20.575,0,0,0-.674,3.486Q83.818-.967,83.76-.059Zm21.211-10.283q-.439,1.465-.776,3.018a28.4,28.4,0,0,0-.5,3.12q-.161,1.567-.19,2.476.469,1.113.059,1.479a1.228,1.228,0,0,1-.806.366,1.179,1.179,0,0,1-.63-.146.628.628,0,0,1-.293-.41q-.059-.264-.088-.5a11.319,11.319,0,0,1-.044-2.373q.1-1.2.454-3.442t.85-5.083a1.4,1.4,0,0,1,.366-.557q.19-.146.659.088a2.094,2.094,0,0,1,.747.6,1.125,1.125,0,0,1,.278.645A3.82,3.82,0,0,1,104.971-10.342ZM100.9-18.018q2.227-.352,4.57-.527a1.49,1.49,0,0,1,.293-.029,2.338,2.338,0,0,1,.615.088,1.817,1.817,0,0,1,.732.5,3.2,3.2,0,0,1,.41.513q.088.161-.015.22a3.14,3.14,0,0,1-.454.176q-2.314.439-4.658.82a1.2,1.2,0,0,1-1.289-.469A1.347,1.347,0,0,1,100.9-18.018ZM122.725-3.369q.205-1.494.747-4.307t1.172-5.2q.63-2.388,1.04-3.779t.791-2.5a1.076,1.076,0,0,1,.615-.469h.059a1.563,1.563,0,0,1,1.494.938q.293.732.015.938a1.937,1.937,0,0,0-.483.527,6.483,6.483,0,0,0-.615,1.45q-.381,1.128-1,3.428T125.3-7.295a24.249,24.249,0,0,0-.7,4.57,16.863,16.863,0,0,0,.4,1.67,7.837,7.837,0,0,1,.249.967,1.071,1.071,0,0,1-.352.645.877.877,0,0,1-.7.293,3.935,3.935,0,0,1-1.318-1.2q-.762-.967-2.095-2.93A28.947,28.947,0,0,1,118.447-7.4q-1-2.153-1.538-3.721t-1.04-3q-.352,1.143-.732,2.593T114.1-7.017a42.286,42.286,0,0,0-.835,5.112,18.711,18.711,0,0,0-.088,2.988,4.1,4.1,0,0,0,.557,1.729q.176.527-.117.747a2.535,2.535,0,0,1-.542.322.814.814,0,0,1-.659-.1,1.877,1.877,0,0,1-.688-.571,3.438,3.438,0,0,1-.4-1.685,19.686,19.686,0,0,1,.088-3.809q.234-2.2,1.113-6.387t1.494-6.8a11.661,11.661,0,0,0,.293-2.344.806.806,0,0,1,.879-.908,2.32,2.32,0,0,1,.952.22,1.526,1.526,0,0,1,.6.952q.586,2.344,1.3,4.614a40.514,40.514,0,0,0,1.772,4.585,33.331,33.331,0,0,0,1.714,3.384A8.975,8.975,0,0,0,122.725-3.369Z" transform="translate(0 23.107)" fill="#215f87"/>
          <path id="Контур_1763" data-name="Контур 1763" d="M4.219,1.26a1.276,1.276,0,0,1-.015.688.76.76,0,0,1-.542.542,1.145,1.145,0,0,1-.937-.132,1.32,1.32,0,0,1-.454-.674A5.637,5.637,0,0,1,2.109.322a20.394,20.394,0,0,1,.1-2.285q.132-1.553.483-4.248a1.977,1.977,0,0,1-.513-.542,1.121,1.121,0,0,1-.19-.879.751.751,0,0,1,.4-.615,6.229,6.229,0,0,0,.571-.278,1.15,1.15,0,0,0,.352-.264,1.187,1.187,0,0,0,.146-.469q.439-2.08,1.011-4.175t1.011-3.794q.439-1.7.7-2.578.059-.586.381-.732a.652.652,0,0,1,.293-.059,1.194,1.194,0,0,1,.41.088,2.14,2.14,0,0,1,.732.6.892.892,0,0,1,.234.835q-.469,1.23-1.2,3.457T5.479-9.756q2.051-1.172,3.867-2.183t3.135-1.875q1.318-.864,2.549-1.626a3.017,3.017,0,0,0,.586-.5,2.017,2.017,0,0,1,.615-.454q.381-.19,1.143.542a2.143,2.143,0,0,1,.337.938.952.952,0,0,1-.454.85q-2.109,1.2-3.4,1.875T9.595-9.814q-2.974,1.7-3.6,2.051a4.19,4.19,0,0,0-1.1.879q1.055.645,4.673,2.344t6.372,3.076a1.515,1.515,0,0,1,.747.527A.8.8,0,0,1,16.86-.1a.931.931,0,0,1-.527.571A.988.988,0,0,1,15.41.205Q13.623-.762,9.434-2.739T4.482-5.127A22.729,22.729,0,0,0,4-1.494,7.344,7.344,0,0,0,4.043.439,2.9,2.9,0,0,1,4.219,1.26Z" transform="translate(133.389 23.107)" fill="#215f87"/>
          <path id="Контур_1762" data-name="Контур 1762" d="M8.5-2.139a2.088,2.088,0,0,0,1.567-.19,5.718,5.718,0,0,0,1.509-1.436,14.673,14.673,0,0,0,1.641-2.769,16.331,16.331,0,0,0,.938-2.212,1.014,1.014,0,0,0-.117-.835,7.949,7.949,0,0,0-2.051.205A19.788,19.788,0,0,0,8.35-8.115Q7.324-6.24,6.694-4.761A12.584,12.584,0,0,0,5.83-1.816a.819.819,0,0,1-.63.293,1.167,1.167,0,0,1-.7-.249,1.306,1.306,0,0,1-.469-.615,1.108,1.108,0,0,1,.044-.806q.527-1.289.762-1.963a16.416,16.416,0,0,1,.732-1.7,12.737,12.737,0,0,0-1.26.85.943.943,0,0,1-1,.205,1.485,1.485,0,0,1-.527-.6A3.345,3.345,0,0,1,2.549-7q-.029-.205.322-.527A9.508,9.508,0,0,1,4.541-8.54Q5.859-9.229,6.65-9.551,7.412-11.074,7.808-12t1.216-2.769a.662.662,0,0,1,.542-.249,1.651,1.651,0,0,1,.674.205,1.7,1.7,0,0,1,.571.454.731.731,0,0,1,.117.645,1.626,1.626,0,0,1-.264.615q-.293.557-.718,1.333T9.17-10.371a21.747,21.747,0,0,1,2.754-.806,6.772,6.772,0,0,1,2.314-.044,1.808,1.808,0,0,1,1.113.469A2.478,2.478,0,0,1,16-9.785,2.2,2.2,0,0,1,16.025-8.5,13.826,13.826,0,0,1,14.78-5.229a14.761,14.761,0,0,1-2.036,3.062,6.727,6.727,0,0,1-1.67,1.523,2.32,2.32,0,0,1-.674.469,1,1,0,0,1-.82,0A2.24,2.24,0,0,1,8.774-1,2.03,2.03,0,0,1,8.5-2.139Zm10.4-9.639q2.49,1.641,4.482,2.974a14.428,14.428,0,0,1,2.49,1.919.651.651,0,0,1,.264.381.558.558,0,0,1-.22.513.787.787,0,0,1-.747.19q-1.348-.791-2.8-1.685t-3.911-2.622a2.03,2.03,0,0,1-.63-.6,1.621,1.621,0,0,1-.308-.835q-.029-.439.132-.571a.561.561,0,0,1,.527-.015A2.872,2.872,0,0,1,18.9-11.777Zm2.432-4.395a8.872,8.872,0,0,0,.923,2.358q.659,1.187,1.245,1.274a.9.9,0,0,1,.469.278.93.93,0,0,1,.249.425.623.623,0,0,1-.205.5.873.873,0,0,1-.615.322.875.875,0,0,1-.63-.176q-.557-.469-1.04-.894a4.516,4.516,0,0,1-.908-1.172,11.946,11.946,0,0,1-.806-1.787q-.381-1.04-.85-2.036,0-.615.293-.674a1.51,1.51,0,0,1,.791.132,1.52,1.52,0,0,1,.762.6A2.066,2.066,0,0,1,21.328-16.172Zm2.344-1.758q.117-.352.762-.352h.117a1.125,1.125,0,0,1,1.025.5,3.746,3.746,0,0,1,.41,1.216,9.935,9.935,0,0,0,.308,1.26,4.088,4.088,0,0,1,.19,1.1.7.7,0,0,1-.688.132,1.26,1.26,0,0,1-.776-.615,8.018,8.018,0,0,1-.688-1.582A14.084,14.084,0,0,0,23.672-17.93Z" transform="translate(153.646 23.107)" fill="#215f87"/>
          <path id="Контур_1761" data-name="Контур 1761" d="M16.992-12.949a8.52,8.52,0,0,0-1.86.381q-1.362.381-3.311,1.143a23.689,23.689,0,0,0-2.974,1.348,11.386,11.386,0,0,0-.557,2.871A8.687,8.687,0,0,0,8.438-4.98a6.469,6.469,0,0,0,.469,1.465,1.591,1.591,0,0,0,1.465.879,5,5,0,0,0,1.406-.205q.7-.205,2.842-1.011t2.9-1.1a.649.649,0,0,1,.908.176,1.454,1.454,0,0,1,.293.732q.059.439-.615.674-1.758.85-3.252,1.421a27.249,27.249,0,0,1-2.842.923,4.731,4.731,0,0,1-2.183-.1,4.557,4.557,0,0,1-1.8-.923,3.656,3.656,0,0,1-1-1.6,10.684,10.684,0,0,1-.41-2.681,15.792,15.792,0,0,1,.088-2.959A9.828,9.828,0,0,0,3.838-7.676a2.111,2.111,0,0,1-.615.41.627.627,0,0,1-.688-.059,1.482,1.482,0,0,1-.469-.615,3.2,3.2,0,0,1-.22-.762,19.472,19.472,0,0,1,2.8-1.729q1.45-.732,2.651-1.289.264-.82.513-1.582T8.5-15.337q.439-1.274.586-1.567a1.638,1.638,0,0,1,.615-.146,1.089,1.089,0,0,1,.264.029.936.936,0,0,1,.542.483,2,2,0,0,1,.073,1.157q-.527,1.26-1.113,2.725.85-.264,2.271-.732t2.988-.923a15.882,15.882,0,0,1,2.681-.571,1.665,1.665,0,0,1,1.875,1.318,4.256,4.256,0,0,1-.557,1.685,10.322,10.322,0,0,1-1.787,2.3,22.283,22.283,0,0,1-2.373,2.139,4.539,4.539,0,0,1-1.846.967.835.835,0,0,1-.557.044.668.668,0,0,1-.439-.337,1.912,1.912,0,0,1-.205-.557,1.475,1.475,0,0,1,.586-.483A8.847,8.847,0,0,0,13.564-8.95a18.482,18.482,0,0,0,1.948-1.978A18.367,18.367,0,0,0,16.992-12.949Zm19.57,4.365a4.5,4.5,0,0,0-1.392-.425,10.891,10.891,0,0,0-2.988.234,15.193,15.193,0,0,0-3.545.981,13.4,13.4,0,0,0-1.86.938,4.283,4.283,0,0,1-.527.249.678.678,0,0,1-.586-.073A2.532,2.532,0,0,1,24.9-7.91a.663.663,0,0,1,.161-.41,1.481,1.481,0,0,1,.337-.322A21.21,21.21,0,0,1,29.326-10a23.719,23.719,0,0,1,5.449-.835,5.3,5.3,0,0,1,1.685.278,3.094,3.094,0,0,1,1.392.923,2.874,2.874,0,0,1,.571.82,1.591,1.591,0,0,1,.146.938,2.5,2.5,0,0,1-.366.938A20.18,20.18,0,0,1,35.83-3.867Q34.307-2.2,33-.879a21.043,21.043,0,0,0-1.948,2.2,4.672,4.672,0,0,1-.5.527q-.176.146-.732-.088A1.73,1.73,0,0,1,29.063,1q-.117-.352.469-1.084,2.93-3.076,4.658-5.024T36.24-7.529A1.818,1.818,0,0,0,36.563-8.584Zm.381-7.324q-.322.234-.469.337t-.732-.073a2.526,2.526,0,0,0-1.553-.234q-1.055.088-2.168.249t-2.285.381a16.37,16.37,0,0,0-2.285.6,1.394,1.394,0,0,1-1.055-.19,1.307,1.307,0,0,1-.615-.894.623.623,0,0,1,.22-.586.98.98,0,0,1,.571-.293q1.406-.381,3.164-.674t3.311-.439q.967-.088,1.758-.088.469,0,.879.029a1.179,1.179,0,0,1,.981.645A2.712,2.712,0,0,1,36.943-15.908Zm23.145,5.1a10.77,10.77,0,0,1-1.831.747q-1.274.425-3.779,1.523A32.958,32.958,0,0,0,50.918-6.8a1.379,1.379,0,0,0-.732,1.67q.205.82.483,1.743a2.319,2.319,0,0,0,1.3,1.421,2.553,2.553,0,0,0,2.139.059q1.113-.381,2.227-.864A16.74,16.74,0,0,0,58.491-3.9q1.04-.645,2.271-1.318a1.272,1.272,0,0,1,.645.659.714.714,0,0,1-.146.747q-.293.352-.527.63a8.382,8.382,0,0,1-1.7,1.084A35.839,35.839,0,0,1,55.605-.469a5.192,5.192,0,0,1-3.589.22A4.974,4.974,0,0,1,49.424-2.2a7.659,7.659,0,0,1-1.172-3.369,2.3,2.3,0,0,0-.337-1.025q-.249-.352.19-1A6.567,6.567,0,0,0,48.354-9.1a20.008,20.008,0,0,1,.352-2.373q.278-1.392.747-4.028.117-.352.366-.4a1.231,1.231,0,0,1,.615.088,3.892,3.892,0,0,1,.776.4.728.728,0,0,1,.293.527,1.313,1.313,0,0,1-.088.615,13.356,13.356,0,0,0-.586,2.432q-.176,1.23-.381,2.783.791-.234,3.105-1.187t4.482-1.831a3.944,3.944,0,0,1,.688-.293.921.921,0,0,1,.718.059.943.943,0,0,1,.483.542A3.366,3.366,0,0,1,60.088-10.811Zm2.461-6.475a1.985,1.985,0,0,0,1.67-.762,2.185,2.185,0,0,1,1.289-.439,2.135,2.135,0,0,1,.352.029A3.041,3.041,0,0,1,68.2-16.67a4.557,4.557,0,0,1,.527,1.729,4.115,4.115,0,0,1-.205,1.758,12,12,0,0,1-.82,1.816,19.589,19.589,0,0,1-1.523,1.846,3.22,3.22,0,0,1-2.432.7,2.414,2.414,0,0,1-1.523-.7A6.108,6.108,0,0,1,61.26-12.3a5.808,5.808,0,0,1,.337-2.578Q62.051-16.084,62.549-17.285Zm4.746,1.67a1.438,1.438,0,0,0-.381-.791,1.379,1.379,0,0,0-.659-.381,1.751,1.751,0,0,0-.835.029,3.18,3.18,0,0,0-1.348,1.2,13.906,13.906,0,0,0-.762,1.626,4.61,4.61,0,0,0-.205,2.417,2.969,2.969,0,0,0,.176.571.67.67,0,0,0,.366.381.736.736,0,0,0,.557-.015,1.357,1.357,0,0,0,.483-.293q.527-.557.894-.952A17.258,17.258,0,0,0,66.8-13.447a1.823,1.823,0,0,0,.322-.527,3.1,3.1,0,0,0,.176-.732A3.533,3.533,0,0,0,67.295-15.615Zm15.5.732a7.815,7.815,0,0,0-2.666-.044,12.486,12.486,0,0,0-3.325.776,6.993,6.993,0,0,0-1.89.967,1.2,1.2,0,0,1-.586.366.575.575,0,0,1-.425-.19,2.437,2.437,0,0,1-.425-.557,1.8,1.8,0,0,1-.176-.762q0-.381.527-.7a16.468,16.468,0,0,1,3.809-1.2,16.407,16.407,0,0,1,3.75-.469,10.636,10.636,0,0,1,1.377.088,2.331,2.331,0,0,1,1.8,1.069,1.892,1.892,0,0,1,.073,2.036q-.967,1.758-1.729,2.9L81.387-8.32a22.511,22.511,0,0,0,2.93,3.882,15.017,15.017,0,0,0,1.963,1.772,3.83,3.83,0,0,0,.513.41.655.655,0,0,1,.249.483.775.775,0,0,1-.264.688,1.135,1.135,0,0,1-.732.352.866.866,0,0,1-.762-.234q-1.7-1.582-2.915-2.944a25.348,25.348,0,0,1-2.241-2.915q-.586.674-1.611,2.021T76.421-2.036Q75.352-.615,74.883-.029a.761.761,0,0,1-.732.366,2.437,2.437,0,0,1-.85-.381.814.814,0,0,1-.264-1.011q.908-.937,1.362-1.436t2.813-3.589q2.358-3.091,3.677-5.127t1.553-2.549A4.916,4.916,0,0,0,82.793-14.883ZM99.17-18.105q-.146,1.348-.4,2.871T98.32-12.2Q98.115-10.693,98-9.961a4.752,4.752,0,0,0,1.2.176q1.7-.029,3.193-.117t2.813-.059q.85.234.894.6a3.7,3.7,0,0,1-.044.952,16.383,16.383,0,0,1-2.754.381l-2.739.19q-1.04.073-1.45.132a3.18,3.18,0,0,1-1.289-.234A8.385,8.385,0,0,0,97.4-5.728q-.1,1.333-.146,2.959A33.972,33.972,0,0,0,97.339.645a22.657,22.657,0,0,0,.4,3.018,1.892,1.892,0,0,1-1.553-.117,1.8,1.8,0,0,1-.5-1.069q-.117-.718-.22-2.725A49.179,49.179,0,0,1,95.7-6.284q.337-4.028.776-6.9t.586-3.838a17.777,17.777,0,0,0,.176-2.227q.059-.557.439-.557a1.778,1.778,0,0,1,.967.513A1.276,1.276,0,0,1,99.17-18.105Zm20.449,5.771q-1.26.381-2.9.908t-3.047,1.084a1.438,1.438,0,0,1-.85.132,1.4,1.4,0,0,1-.732-.439,2.39,2.39,0,0,1-.5-.718q-.146-.352.439-.762,1.465-.469,2.52-.835T119-14.238a7.817,7.817,0,0,0-.41-1.377,8.972,8.972,0,0,1-.439-1.465.669.669,0,0,1,.234-.527.523.523,0,0,1,.381-.117,3.36,3.36,0,0,1,.41.029,1.47,1.47,0,0,1,.879.557q.205.439.483,1.1t.513,1.274q.908-.205,1.714-.4t1.626-.366a1.314,1.314,0,0,1,.659.059.958.958,0,0,1,.557.674q.19.557-.059.762a1.222,1.222,0,0,1-.542.264q-1.23.293-1.934.425a6.4,6.4,0,0,0-1.377.425,19.431,19.431,0,0,1,.5,3.281,5,5,0,0,1-.264,2.285,2.9,2.9,0,0,1-.894,1.2,1.782,1.782,0,0,1-1.055.439.745.745,0,0,1-.7-.4,1.084,1.084,0,0,1,.073-1.011A2.115,2.115,0,0,0,120.1-8.1a4.564,4.564,0,0,0,.088-1.567A12.313,12.313,0,0,0,119.619-12.334Zm.205,12.246q.234.85-.059,1.143a1.238,1.238,0,0,1-.908.293,4.26,4.26,0,0,1-1.611-.439,10.015,10.015,0,0,1-2.827-2.124q-.981-1.128-2.007-2.563a.67.67,0,0,1-.029-.776.738.738,0,0,1,.674-.322,2.644,2.644,0,0,1,.908.205,1.645,1.645,0,0,1,.762.63,8.707,8.707,0,0,0,2.021,2.373,7.436,7.436,0,0,0,1.9,1.187Q119.414-.205,119.824-.088ZM140.3-9.521q-1.172.439-2.388.879A14.074,14.074,0,0,1,135.5-8a.881.881,0,0,1-.937-.337,3.21,3.21,0,0,1-.469-.762.583.583,0,0,1,.029-.542q.117-.205.938-.337a11.921,11.921,0,0,0,1.509-.337l1.523-.454a18.1,18.1,0,0,0,2.329-.952q.029-.85.029-1.509t-.029-1.538a19.668,19.668,0,0,0-2.007.249A20.135,20.135,0,0,0,136.04-14q-1.011.293-2.124.645a1.078,1.078,0,0,1-.527.146.7.7,0,0,1-.5-.234,1.79,1.79,0,0,1-.381-.586,1.259,1.259,0,0,1-.088-.7,2.1,2.1,0,0,1,1.216-.718,26.053,26.053,0,0,1,2.739-.645,36.909,36.909,0,0,1,3.867-.513,8.49,8.49,0,0,0-.176-1.26q.029-.352.469-.439a.553.553,0,0,1,.176-.029,1.136,1.136,0,0,1,.674.264,2.6,2.6,0,0,1,.7,1.289q.85.117,1.113.146a1.65,1.65,0,0,1,.63.308.845.845,0,0,1,.322.586,2.975,2.975,0,0,1-.015.776q-1,0-1.963-.029.029.938.059,2.549.557-.234,1.2-.527a1.412,1.412,0,0,1,.425.439,1.168,1.168,0,0,1,.146.762,1.305,1.305,0,0,1-.4.82,6.263,6.263,0,0,1-1.582.85,14.45,14.45,0,0,0-.19,1.758q-.044.908-.308,3.047,1.582-.176,2.769-.293a7.776,7.776,0,0,1,1.919,0,1.933,1.933,0,0,1,.264.864.74.74,0,0,1-.19.425,1.415,1.415,0,0,1-.806.249q-.645.073-2.051.337a13.034,13.034,0,0,0-2.021.5q-.205,1.084-.41,1.934a3.648,3.648,0,0,1-.659,1.523,2.34,2.34,0,0,1-1.45.908,3.262,3.262,0,0,1-2.109-.059,4.261,4.261,0,0,1-1.7-1.069,4.863,4.863,0,0,1-.923-1.318,1.023,1.023,0,0,1-.073-.952,2.121,2.121,0,0,1,.82-.791,15.1,15.1,0,0,1,1.45-.806,12.069,12.069,0,0,1,1.626-.659q.82-.264,1.7-.557.234-1.084.322-1.831T140.3-9.521Zm-.908,6.592a9.355,9.355,0,0,0-1.816.645,4.4,4.4,0,0,0-1.465.967,2.1,2.1,0,0,0,.835,1,1.157,1.157,0,0,0,1.128,0A1.99,1.99,0,0,0,139-1.465,9.2,9.2,0,0,0,139.395-2.93Zm19.951,1.289a4.683,4.683,0,0,1-.923,1.084q-.542.469-1.069.879a2.344,2.344,0,0,1-.908.425A1.512,1.512,0,0,1,155.464.5a1.758,1.758,0,0,1-.806-1,7.984,7.984,0,0,1-.615-3.062,31.772,31.772,0,0,1,.22-4.775,51.017,51.017,0,0,1,.923-5.552,12.885,12.885,0,0,0,.293-1.494q.088-.557.322-.645a1.089,1.089,0,0,1,.264-.029,1.647,1.647,0,0,1,.381.059,1.5,1.5,0,0,1,.732.4.887.887,0,0,1,.293.732q-.029.425-.029.747-.5,1.934-.908,3.867a31.029,31.029,0,0,0-.571,4.351,23.077,23.077,0,0,0-.029,3.662,5.909,5.909,0,0,0,.249,1.45,9.879,9.879,0,0,1,1.787-1.2,1.228,1.228,0,0,1,.571-.234.732.732,0,0,1,.5.117A.783.783,0,0,1,159.346-1.641Zm6.123-.82a1.653,1.653,0,0,1-1.875-.615,1.713,1.713,0,0,1-.117-1.04q.117-.4.85-.425a18.031,18.031,0,0,0,3.457-.337q1.729-.337,3.4-.776.879-.205,1.1.322a1.061,1.061,0,0,1,.1.791,1.222,1.222,0,0,1-.674.5,23.928,23.928,0,0,1-2.388.732Q167.49-2.812,165.469-2.461Zm-1.758-7.09a2.256,2.256,0,0,1-.557-.352,3.015,3.015,0,0,1-.439-.483,1.061,1.061,0,0,1-.22-.586,2.335,2.335,0,0,1,.132-.776q2.813-.527,5.566-1.143.762-.088,1.274-.117a1.629,1.629,0,0,1,.938.22,1.787,1.787,0,0,1,.63,1.216,1.388,1.388,0,0,1-.791.4,7.7,7.7,0,0,1-.82.044,9.5,9.5,0,0,0-1.553.234,19.44,19.44,0,0,0-2.051.527Q164.912-10.078,163.711-9.551Zm17.314,1.113a5.921,5.921,0,0,0-1.875.879,7.309,7.309,0,0,0-1.025.82.419.419,0,0,1-.527.044,2.7,2.7,0,0,1-.732-.615,1.329,1.329,0,0,1-.234-1.245,19.228,19.228,0,0,1,1.714-.908q1.421-.7,3.94-1.787a1.545,1.545,0,0,1,1.934.5,1.406,1.406,0,0,1,.22.747,1.35,1.35,0,0,1-.249.688,12.493,12.493,0,0,0-1.143,1.655,14.339,14.339,0,0,0-.937,2.007,2.6,2.6,0,0,0-.117.5,3.2,3.2,0,0,0,.41,2.139,5.894,5.894,0,0,1,1.025,1.7,1.663,1.663,0,0,1-.1,1.6,10.956,10.956,0,0,1-.835,1.128q1.582.381,4.482.879,1.084.176,2.109.381a2.008,2.008,0,0,1-.059-.337.842.842,0,0,1,.117-.513,22.9,22.9,0,0,1,2.227-3.252,1.563,1.563,0,0,1,1.318.059,1.186,1.186,0,0,1,.146,1.143,2.443,2.443,0,0,1-.7,1.113,12.985,12.985,0,0,0-1.465,2.051l1.758.293a13.343,13.343,0,0,0,4.98,0,40.332,40.332,0,0,0,4.893-1.289,1.849,1.849,0,0,1-.132,1.025,1.4,1.4,0,0,1-.6.762,6.915,6.915,0,0,1-1.641.586q-1.289.352-3.4.762-2.109.439-7.192-.557t-6.914-1.2a16.533,16.533,0,0,0-3.384-.059,2.227,2.227,0,0,1-1.011-.059,1.749,1.749,0,0,1-.864-.557q-.645-1.084.615-1.318a3.076,3.076,0,0,0,1.978-.19,3.947,3.947,0,0,0,1.274-1.157,1.472,1.472,0,0,0,.205-1.494,4.471,4.471,0,0,0-.5-1.172,7.436,7.436,0,0,1-.557-1.436,3.681,3.681,0,0,1,0-1.846Q180.615-7.354,181.025-8.437Zm.5-5.127q-.557-1.23-.952-2.256a17.989,17.989,0,0,1-.718-2.432,1.679,1.679,0,0,1-.146-.7.582.582,0,0,1,.381-.557,1.274,1.274,0,0,1,.923.176,1.726,1.726,0,0,1,.63.645,14.657,14.657,0,0,0,.381,1.626q.381,1.45,1.084,3.589a.776.776,0,0,1-.073.557.467.467,0,0,1-.425.205.936.936,0,0,1-.6-.264A2.092,2.092,0,0,1,181.523-13.564Zm12.158-1.26a2.338,2.338,0,0,1-.806,2.007,7.7,7.7,0,0,1-1.846,1.509,8.651,8.651,0,0,1-1.655.7,2.432,2.432,0,0,1-1.421-.015,2.03,2.03,0,0,1-1.157-.835,8.624,8.624,0,0,1-.5-3.34,1.753,1.753,0,0,1-.542-.806q-.1-.4.659-.688,1.436-.557,3.633-1.26.293-.469.615-1a10.1,10.1,0,0,0,.674-1.377,9.629,9.629,0,0,0-1.7.439q-1.289.41-3.457,1.025a1.2,1.2,0,0,1-1.289-.293q-.469-1.113.645-1.26,2.7-.762,4.365-1.187a7.909,7.909,0,0,1,2.139-.366q1.436.117,1.23,1.494a3.671,3.671,0,0,1-.542,1.187,6.257,6.257,0,0,0-.718,1.274,1.294,1.294,0,0,1,.381.776q.029.4-.645.718a19.2,19.2,0,0,0-2.007.674q-.864.352-1.6.615a3.435,3.435,0,0,0-.19,1.992q.22.791.806.439a12.311,12.311,0,0,0,2.109-.981q.967-.571,1.611-.981A2.831,2.831,0,0,1,193.682-14.824Zm6.8-5.566q-.791.176-2.095.5a9.2,9.2,0,0,0-2.212.82,1.677,1.677,0,0,1-1.04-.088q-.454-.205-.425-.908a.775.775,0,0,1,.762-.762q1.143-.352,2.871-.791t2.871-.645a1.49,1.49,0,0,1,.293-.029,1.931,1.931,0,0,1,.879.264,1.366,1.366,0,0,1,.205,1.318,13.186,13.186,0,0,1-1.084,2.637q.146.967-.1,1.143a3.671,3.671,0,0,1-1.04.381q-.674.264-1.685.63a15.778,15.778,0,0,1-1.626.513,1.927,1.927,0,0,0-.205,1.67l.029.088a.948.948,0,0,0,.7.381,7.578,7.578,0,0,0,2.563-.615q2.036-.7,2.886-1.055.439.059.176.879a2.441,2.441,0,0,1-1.436,1.362,13.516,13.516,0,0,1-2.314.835,6.113,6.113,0,0,1-1.875.293,2.342,2.342,0,0,1-1.348-.469,2.161,2.161,0,0,1-.7-.908,2.685,2.685,0,0,1-.146-.352,3.562,3.562,0,0,1-.117-1.7,3.206,3.206,0,0,1-.513-1.172q-.044-.41.659-.674,1.26-.469,2.271-.776t2.183-.776A8.8,8.8,0,0,0,200.479-20.391ZM195.205-8.262q-.5.059-1.245.22t-1.685.337a4.515,4.515,0,0,0-.234,1.641,6.42,6.42,0,0,0,.264,1.729q.586-.146,1.26-.293Q194.443-6.387,195.205-8.262ZM196.9-1.9a1.519,1.519,0,0,1,.732-.483,1.732,1.732,0,0,1,.82.161q1.113.908,2.227,1.875a1.242,1.242,0,0,1,.469.586,1.286,1.286,0,0,1-.176.85,1.15,1.15,0,0,1-1.172.059q-1.23-1-2.461-1.934A1.311,1.311,0,0,1,196.9-1.9Zm-6.24-3.223q-.088-.791-.146-2.109-1.055.293-1.611.469a1.759,1.759,0,0,1-.82.117q-.264-.059-.879-.85a1.283,1.283,0,0,1,.117-.732l.059-.117.264-.088A10.618,10.618,0,0,0,188.7-8.73l2.109-.615q.029-.615.059-.937v-.059a.7.7,0,0,1,.439-.176,1.655,1.655,0,0,1,.527.029,1.026,1.026,0,0,1,.85.879q.586-.117,1.421-.264t1.714-.352a4.027,4.027,0,0,1,.22-.527,1,1,0,0,1,.366-.41,2.428,2.428,0,0,1,1.23.879q1.055-.205,1.7-.352a.8.8,0,0,1,.85.176,1.881,1.881,0,0,1,.1,1.128.67.67,0,0,1-.688.483,20.421,20.421,0,0,1-2.168.234,12.6,12.6,0,0,0-.63,1.26q-.308.7-1.128,2.461,1.875-.293,3.662-.615a2.362,2.362,0,0,1,1.011-.015q.425.1.454.425t.044.586a.848.848,0,0,1-.278.586.921.921,0,0,1-.967.146,9.5,9.5,0,0,0-2.256.249q-1.289.278-3.486.7a27.361,27.361,0,0,0-3.325.806q-1.128.381-2.622.938a1.259,1.259,0,0,1-1.553-1,.684.684,0,0,1,.674-.791q1.23-.352,2.344-.7.527-.176,1.523-.439A3.123,3.123,0,0,1,190.664-5.127Zm32.754-6.152q-1.113.352-2.051.7t-1.729.7a1.163,1.163,0,0,1-1.23-.117,1.183,1.183,0,0,1-.469-1.172.667.667,0,0,1,.278-.542,1.15,1.15,0,0,1,.63-.249q2.2-.527,4.336-1.2a7.234,7.234,0,0,1,.088-2.256,1.687,1.687,0,0,1,.791-.044q.381.073.7.7a8.365,8.365,0,0,1,.527,1.274q.586-.088,1.084-.132a2.492,2.492,0,0,1,.908.073,1.062,1.062,0,0,1,.7.645.636.636,0,0,1-.073.674.8.8,0,0,1-.513.264q-1,.146-1.992.322a16.02,16.02,0,0,0-.117,3.018,28.775,28.775,0,0,1-.029,3.047,11.907,11.907,0,0,0,2.432-.205q.381.059.586.6a.916.916,0,0,1,0,.85,1.51,1.51,0,0,1-.762.513q-.7.059-2.549.322a8.211,8.211,0,0,1-.82,1.934,3.041,3.041,0,0,1-1.318,1.2,2.319,2.319,0,0,1-1.8.146,3.346,3.346,0,0,1-1.538-1,4.79,4.79,0,0,1-1.143-2.051q-.059-.82.41-1.011a13.236,13.236,0,0,1,1.787-.483q1.318-.293,2.842-.557.117-1.318.176-2.109A38.621,38.621,0,0,0,223.418-11.279Zm-3.252,8.5a1.878,1.878,0,0,0,.557.835q.264.161.542.308t.894-.381a2.985,2.985,0,0,0,.908-1.406A15.969,15.969,0,0,0,220.166-2.783Zm-9.551-11.543a6.761,6.761,0,0,1,.82.557.829.829,0,0,1,.337.82q-.073.5-.161.967-.557,3.516-.806,5.259a24.319,24.319,0,0,0-.249,3.442,4.267,4.267,0,0,0,.41,2.271,2.646,2.646,0,0,0,.806.791,3.736,3.736,0,0,1,.688.483,1,1,0,0,1,.176,1,1.144,1.144,0,0,1-.908.352,4.018,4.018,0,0,1-1.523-.879,3.68,3.68,0,0,1-1.143-1.86,10.136,10.136,0,0,1-.352-2.5,34.057,34.057,0,0,1,.322-4.277q.352-2.93.791-5.947a.592.592,0,0,1,.278-.5A.451.451,0,0,1,210.615-14.326Zm20.068.205a1.18,1.18,0,0,1-.718.527,1.476,1.476,0,0,1-1.128-.322,6.143,6.143,0,0,1-1.23-1.978,7.363,7.363,0,0,1-.5-2.329.539.539,0,0,1,.308-.454.849.849,0,0,1,.542-.029,2.625,2.625,0,0,1,.615.249.8.8,0,0,1,.41.527,2.889,2.889,0,0,1,.088.7,5.466,5.466,0,0,0,.4,1.289,3.844,3.844,0,0,0,.659,1.157A6.448,6.448,0,0,1,230.684-14.121Zm1.787-5.3q.293.146.41.981t.264,2.124a.516.516,0,0,1-.264.439.568.568,0,0,1-.571.044.754.754,0,0,1-.425-.483,4.845,4.845,0,0,1-.674-1.523l-.41-1.641q.176-.352.41-.381h.088a1.177,1.177,0,0,1,.469.117Zm13.711,9.053q1.582-1.143,2.856-2.007t2.3-1.538a1.119,1.119,0,0,1,1.406-.059,2.257,2.257,0,0,1,.659.732,1.562,1.562,0,0,1,.19.967,36.817,36.817,0,0,0-.249,3.765,11.578,11.578,0,0,0,.234,3.105,5.442,5.442,0,0,0,.527,1.362,1.02,1.02,0,0,0,.63.469,3.172,3.172,0,0,0,1.523-.249,26.583,26.583,0,0,0,2.681-1.055,11.56,11.56,0,0,1,2.036-.776.72.72,0,0,1,.029.659,7.4,7.4,0,0,1-.5.7,6.031,6.031,0,0,1-1.479,1.157,10.509,10.509,0,0,1-2.534,1.128,2.991,2.991,0,0,1-2.432-.161,4.772,4.772,0,0,1-1.89-2.52,10.168,10.168,0,0,1-.7-4.014q.044-2.139.015-2.52a1.674,1.674,0,0,0-.146-.615,18.273,18.273,0,0,0-2.2,1.406q-1.2.879-3.223,2.637-.205,1.934-.22,3.208t-.015,2.563q0,1.289.059,2.666a1.491,1.491,0,0,1-.044.688q-.1.337-.82.249a.955.955,0,0,1-.894-.7q-.059-.381-.117-2.095t.146-4.79a19.422,19.422,0,0,0-1.919,2.036q-.952,1.157-2.065,2.417a.738.738,0,0,1-1.26.146A1.577,1.577,0,0,1,238.1-3.34q.469-1.787,1.172-4.1.234-.85-.117-.937-.352-.029-.718-.073a1.631,1.631,0,0,1-.688-.249,1.79,1.79,0,0,1-.527-.6,2.717,2.717,0,0,1-.234-.571q-.029-.205.4-.425a2.365,2.365,0,0,1,1.2-.176,3.675,3.675,0,0,1,1.831.806,2.023,2.023,0,0,1,.85,1.743q-.029,1.069-.117,2.153.645-.645,1.45-1.509t1.685-1.86q.264-4.131.454-5.889t.366-3.516q.059-.937.059-1.406,0-.352.264-.381h.059a2.334,2.334,0,0,1,.674.146,1.257,1.257,0,0,1,.732.645,1.389,1.389,0,0,1,.117.967q-.381,3.281-.586,5.317T246.182-10.371Zm24.873.879a7.056,7.056,0,0,1,2.271.088,6.1,6.1,0,0,1,2.739,1.377,4.169,4.169,0,0,1,1.289,3.369,7.075,7.075,0,0,1-.41,2.227,2.142,2.142,0,0,1,.381.352.708.708,0,0,1,.029.762.965.965,0,0,1-.791.6,2.724,2.724,0,0,1-.791-.073q-.762.586-1.348,1a8.543,8.543,0,0,1-2.314.981,4.387,4.387,0,0,1-2.842-.161,1.708,1.708,0,0,1-.879-2.4,2.334,2.334,0,0,1,1.172-1.216,6.59,6.59,0,0,1,1.772-.557,9.015,9.015,0,0,1,1.919-.117,5.474,5.474,0,0,1,1.67.308,4.053,4.053,0,0,0,.718-2.065,2.347,2.347,0,0,0-.615-1.758,3,3,0,0,0-1.626-.923,5.665,5.665,0,0,0-3.179.146A5.17,5.17,0,0,0,268.1-6.387a1.852,1.852,0,0,1-.7.322.675.675,0,0,1-.542-.1,3.407,3.407,0,0,1-.4-.337,1.214,1.214,0,0,1-.278-.483,1.714,1.714,0,0,1-.1-.527.5.5,0,0,1,.22-.4q.22-.176.425-.322a1.865,1.865,0,0,0,.352-.322,15.938,15.938,0,0,0,3.662-3.691q1.055-1.465,1.611-2.344a3.781,3.781,0,0,0,.586-1.172q-.146-.234-1.143-.044a7.778,7.778,0,0,0-2.08.747,1.751,1.751,0,0,1-.5.161.666.666,0,0,1-.527-.161,3.829,3.829,0,0,1-.527-.688.927.927,0,0,1-.176-.732.7.7,0,0,1,.439-.454,9.888,9.888,0,0,1,3.926-1,2.74,2.74,0,0,1,1.392.381,1.86,1.86,0,0,1,.879,1.128,3.076,3.076,0,0,1-.015,1.655,8.842,8.842,0,0,1-1.157,2.168q-.864,1.26-1.421,1.963T271.055-9.492Zm-.908,9.141A3.948,3.948,0,0,0,271.919-.6a7.293,7.293,0,0,0,1.86-1.04,4.116,4.116,0,0,0-2.051-.146,3.674,3.674,0,0,0-1.128.542A1.059,1.059,0,0,0,270.146-.352Z" transform="translate(0 54.935)" fill="#215f87"/>
          <path id="Контур_1760" data-name="Контур 1760" d="M11.924-29.81q-.645.107-1.262.242a1.013,1.013,0,0,1-1.074-.483,5.773,5.773,0,0,1-.725-1.289,1.542,1.542,0,0,1-.107-1.1q.161-.483,1.182-.725a23.747,23.747,0,0,1,3.438-.4,7.369,7.369,0,0,1,.913-.054,11.158,11.158,0,0,1,3.652.591,7,7,0,0,1,3.84,3.3,6.934,6.934,0,0,1,.671,4.968,13.715,13.715,0,0,1-2.82,5,21.285,21.285,0,0,1-2.444,2.31,7.618,7.618,0,0,1,3.438,2.981,10.334,10.334,0,0,1,1.343,6.069q-.107,3.894-3.813,7.332-3.652,3.384-6.794,4a14.863,14.863,0,0,1-4.539.4A2.927,2.927,0,0,1,5.21,2.31,4.078,4.078,0,0,1,4.458.994,2.617,2.617,0,0,1,4.4-.188q.107-.618.913-.671a9.915,9.915,0,0,0,6.177-.349,12.592,12.592,0,0,0,4.941-3.518A9.575,9.575,0,0,0,18.8-10.044a5.567,5.567,0,0,0-.376-2.5A2.747,2.747,0,0,0,17-14.207a2.83,2.83,0,0,0-2.068-.027q-2.363.376-5.264,1.021a1.466,1.466,0,0,1-1.316.027,3.456,3.456,0,0,1-.886-.886q-.752-2.2-.457-2.739t2.014-.806a12.961,12.961,0,0,0,5.022-1.853,15.3,15.3,0,0,0,3.276-2.9,12.659,12.659,0,0,0,1.987-3.2,4.193,4.193,0,0,0,.349-2.739q-.322-1.074-2.793-1.746A7.93,7.93,0,0,0,11.924-29.81Z" transform="translate(0 98.91)" fill="#215f87"/>
        </g>
      </g>
      <path id="Контур_1759" data-name="Контур 1759" d="M5.854-11.888a1.176,1.176,0,0,1-1.048.4,1.941,1.941,0,0,1-.976-.6,2.091,2.091,0,0,1-.578-1.1,1.006,1.006,0,0,1,.578-1.048,17.533,17.533,0,0,1,4.5-1.915,27.6,27.6,0,0,1,6.125-1.12q1.012-.072,1.915-.072a13.014,13.014,0,0,1,3,.289,5.369,5.369,0,0,1,2.854,1.572A4.43,4.43,0,0,1,23.36-12.5a7.526,7.526,0,0,1-1.174,3.938,18.531,18.531,0,0,1-2.638,3.306,48.084,48.084,0,0,1-3.975,3.631,2.8,2.8,0,0,1-1.68.7q-.524-.09-1.138-1.066-.4-.759-.181-1.066a.91.91,0,0,1,.6-.379,3.446,3.446,0,0,0,1.048-.488,25.419,25.419,0,0,0,2.06-1.518,14.58,14.58,0,0,0,2.493-2.529,13.514,13.514,0,0,0,1.68-2.728q.9-2.2.524-3.035t-2.656-1.192a16.224,16.224,0,0,0-6.233.452A16.037,16.037,0,0,0,5.854-11.888Z" transform="translate(22.484 99.439)" fill="#215f87"/>
      <path id="Контур_1758" data-name="Контур 1758" d="M16.621-15.393a22.172,22.172,0,0,1-1.608,4.625,22.828,22.828,0,0,1-2.493,4.1A12.767,12.767,0,0,1,9.033-3.541,10.458,10.458,0,0,1,7.046-2.6a1.963,1.963,0,0,1-1.229.036,3.782,3.782,0,0,1-1.174-.7,3.928,3.928,0,0,1-1.03-1.355,4.94,4.94,0,0,1-.325-2.06A10.137,10.137,0,0,1,4.065-9.81a10.466,10.466,0,0,1,2.349-3.577,14.719,14.719,0,0,1,3.324-2.6,18.24,18.24,0,0,1,4.715-1.644,1.967,1.967,0,0,1,.976-.289h.217a8.213,8.213,0,0,1,.921.217q.343.108.741.253a5.714,5.714,0,0,1,1.807.7,8.886,8.886,0,0,1,1.7,1.427,5.828,5.828,0,0,1,1.373,2.927A11.771,11.771,0,0,1,22.2-7.931a23.6,23.6,0,0,1-.885,3.794,16.071,16.071,0,0,1-1.192,2.583,3.622,3.622,0,0,1-.416.65.931.931,0,0,1-.524.253,1.3,1.3,0,0,1-.813-.181,1.807,1.807,0,0,1-.741-.578,1.9,1.9,0,0,1-.289-.723.779.779,0,0,1,.181-.687,7.629,7.629,0,0,0,.813-.994,11.378,11.378,0,0,0,.813-2.114,19.222,19.222,0,0,0,.759-3.36A10.56,10.56,0,0,0,19.981-12a6.01,6.01,0,0,0-.343-1.644,2.228,2.228,0,0,0-.7-.921,3.52,3.52,0,0,0-1.1-.56A6.9,6.9,0,0,0,16.621-15.393ZM5.42-4.878a2.442,2.442,0,0,0,2.06-.47,14.834,14.834,0,0,0,3.107-2.981,16.145,16.145,0,0,0,2.2-3.74,22.593,22.593,0,0,0,1.12-3.18A15.838,15.838,0,0,0,10.7-13.8a10.473,10.473,0,0,0-3.342,2.854A9.532,9.532,0,0,0,5.6-7.642,6.52,6.52,0,0,0,5.42-4.878Z" transform="translate(46.513 99.439)" fill="#215f87"/>
      <path id="Контур_1757" data-name="Контур 1757" d="M7.479-16.007a9.678,9.678,0,0,0-1.626.325,12.414,12.414,0,0,0-2.023.795l-.867.434a.808.808,0,0,1-.9-.145,2.244,2.244,0,0,1-.976-1.951q.614-.289,1.265-.542,4.3-1.229,6.938-1.9a25.69,25.69,0,0,1,3.613-.741,1.717,1.717,0,0,1,1.174.126,1.5,1.5,0,0,1,.777.849,3.273,3.273,0,0,1,.217,1.156,3.863,3.863,0,0,1-1.265.289,8.043,8.043,0,0,0-1.7.036,8.559,8.559,0,0,0-1.987.542l-.578,6.323q.723-.145,1.68-.253a6,6,0,0,1,1.861.072.922.922,0,0,1,.759,1.265v.072q-1.481.47-2.493.795-1.048.325-2.132.723-.072.614-.108,1.156A19.038,19.038,0,0,0,9-4.625a4.872,4.872,0,0,0,.289,1.951A34.867,34.867,0,0,0,14.2-4.264a1.163,1.163,0,0,1,.7.632.8.8,0,0,1-.054.687,1.084,1.084,0,0,1-.506.452Q10.37-.614,3.433,1.951a1.045,1.045,0,0,1-1.3.036q-.361-.325-.668-.614A.951.951,0,0,1,1.156.65a2.21,2.21,0,0,1,.831-.867Q3.975-.867,5.059-1.3L7.046-2.1Q6.974-3.613,7.01-5.384q.036-.759.072-1.59-1.337.542-1.771.759a1.661,1.661,0,0,1-.921.2,1.14,1.14,0,0,1-.921-.524,1.75,1.75,0,0,1-.452-1.066q.018-.452.2-.578a6.1,6.1,0,0,1,1.066-.434Q5.167-8.925,7.516-9.9q0-1.445.108-2.8A16.251,16.251,0,0,0,7.479-16.007ZM25.727.723A32.927,32.927,0,0,0,32.05-.687l.9-.289A1.378,1.378,0,0,1,32.772.939a11.641,11.641,0,0,1-2.132.921q-.831.235-2.367.759A50.985,50.985,0,0,1,20.885,3.9a1.763,1.763,0,0,1-1.843-.939q-.542-1.229.831-1.481.687-.072,3.577-.4a20.6,20.6,0,0,0,.036-2.71,10.673,10.673,0,0,1-2.638.325,1.351,1.351,0,0,1-1.192-1.3.893.893,0,0,1,.325-.777,4.9,4.9,0,0,1,1.554-.488,15.7,15.7,0,0,0,2.132-.578q.108-1.156.145-1.933t.108-2.042a5.3,5.3,0,0,0-1.716.632,1.036,1.036,0,0,1-.939.2,1.407,1.407,0,0,1-.7-.47,2.443,2.443,0,0,1-1.734-.578,6.615,6.615,0,0,1-1.373-2.746q-.145-.47-.289-.976a33.466,33.466,0,0,1-1.03-4.95q-.2-1.879-.379-3.378t-.289-2.186q0-1.373,1.265-.9a1.738,1.738,0,0,1,1.229,1.265q.072.614.145,1.12a34.8,34.8,0,0,1,5.6-1.626q3.36-.723,5.673-1.012t3.866-.361a3.809,3.809,0,0,1,1.752.434,1.967,1.967,0,0,1,1.066,1.373l.072.434a3.14,3.14,0,0,1-.145,1.337q-1.156,4.336-2.078,7.317a10.73,10.73,0,0,1-1.572,3.631,1.416,1.416,0,0,1-2.24-.108,10.5,10.5,0,0,0-2.1.343q-.578.2-1.771.632a13.428,13.428,0,0,1-.072,1.5q-.072.632-.145,2.62.976-.253,1.933-.452t1.9-.416A5.462,5.462,0,0,1,30.857-5.8a.947.947,0,0,1,.813.434,1.908,1.908,0,0,1,.307.921q-.036.181-.65.506-1.7.289-3.071.632a20.213,20.213,0,0,0-2.312.7A10.068,10.068,0,0,0,25.69-.759Q25.69-.145,25.727.723Zm-1.518-21.68a13.929,13.929,0,0,0-3.776,1.59,19.029,19.029,0,0,0-2.114,1.662,12.637,12.637,0,0,0,.253,2.457q.65-.181,2.24-.813a20.323,20.323,0,0,1,3.649-1.03q-.036-1.734-.09-2.656A5.08,5.08,0,0,0,24.209-20.957ZM20.451-9.539a21.75,21.75,0,0,1,3.649-1.59,16.877,16.877,0,0,0,.108-3.686,17.826,17.826,0,0,0-1.951.65l-.4.181a12.908,12.908,0,0,0-2.6,1.337A7.95,7.95,0,0,0,20.451-9.539Zm8.961-8.383a2.222,2.222,0,0,1,1.066.126,1.054,1.054,0,0,1,.7.795,3.078,3.078,0,0,1,.072,1.138q-2.1.217-4.444.614a34.535,34.535,0,0,1-.253,3.541q1.265-.289,2.132-.578a1.537,1.537,0,0,1,1.21-.072,2.821,2.821,0,0,1,.777,1.012,20.256,20.256,0,0,0,1.807-4.95,32.946,32.946,0,0,0,.939-4.3q.108-.831.145-1.518a11.734,11.734,0,0,0-3.433.072q-1.734.289-3.36.614.072,1.481.072,3.866.723-.108,1.337-.217.253-.036.47-.072Q29.051-17.886,29.412-17.922Z" transform="translate(73.056 99.439)" fill="#215f87"/>
      <path id="Контур_1756" data-name="Контур 1756" d="M17.994-25.51a3.336,3.336,0,0,1,.47-.036,2.321,2.321,0,0,1,1.373.361A1.808,1.808,0,0,1,20.56-23.7q-.217,2.312-.271,3.7t-.126,2.258q5.42-.506,7.371-.542,1.048-.036,1.879,0A11.53,11.53,0,0,1,30.6-18.1a2.591,2.591,0,0,1,2.023,3.433A139.4,139.4,0,0,1,27.569-.181a3.423,3.423,0,0,1-.885,1.644q-.488.379-2.439-.524a45.615,45.615,0,0,0-6.793.723,13.69,13.69,0,0,0-3.18.939,6.2,6.2,0,0,1-1.012.289,1.422,1.422,0,0,1-1.048-.2,1.236,1.236,0,0,1-.614-.759q-.108-.452-.181-.777a1.229,1.229,0,0,1-.994.072,3.883,3.883,0,0,1-.56-.4A11.52,11.52,0,0,1,8.058-2.312,32.169,32.169,0,0,1,7.082-5.42q-.145-.542-.325-1.12a29,29,0,0,1-.777-5.221q-.163-2.728-.343-5.077a4.5,4.5,0,0,1,0-1.138.738.738,0,0,1,.759-.668,2.888,2.888,0,0,1,1.373.632,1.384,1.384,0,0,1,.542,1.174q0,.867.072,1.7a14.532,14.532,0,0,0,2.818-.723q2.132-.687,6.4-1.59.145-1.3.253-4.3T17.994-25.51Zm6.685,9.5q-2.818.217-4.625.542-.145,1.084-.253,2.71-.072,1.3-.145,2.927,1.084-.181,2.945-.542a10.39,10.39,0,0,1,3.415-.145,2.442,2.442,0,0,1,.813.506.774.774,0,0,1,.126.9,1.764,1.764,0,0,1-.506.741.929.929,0,0,1-.831.163,11.39,11.39,0,0,0-2.71.145q-1.771.253-3.433.614a25.819,25.819,0,0,0,0,3.559A4.453,4.453,0,0,1,19.512-2.6q.036,1.048-.9,1.156-.831.072-1.192-.976Q17.308-3,17.127-6.937A12.385,12.385,0,0,0,15.14-6.4a19.624,19.624,0,0,0-2.565,1.3,2.919,2.919,0,0,1-1.192-.2,3.372,3.372,0,0,1-.759-.47.7.7,0,0,1-.271-.668,1.869,1.869,0,0,1,.741-.976q2.24-.831,6.215-2.023.036-.795.072-1.915.072-1.554.145-3.722a33.355,33.355,0,0,0-4.643,1.12A13.268,13.268,0,0,0,10.1-12.773q-.813.524-1.861,1.066a39.071,39.071,0,0,0,.47,4.372q.108.434.181.867a20.342,20.342,0,0,0,.976,3.252,8.471,8.471,0,0,0,1.445,2.6,1.362,1.362,0,0,1,.578.939q4.48-.723,7.5-1.138t5.691-.813A29.273,29.273,0,0,0,27.461-6.9q1.481-3.938,1.969-5.8a11.22,11.22,0,0,0,.452-3.053,17.9,17.9,0,0,0-4.336-.289Q25.148-16.043,24.679-16.007Z" transform="translate(109.232 99.439)" fill="#215f87"/>
    </g>
  </g>
</svg>
