	<svg xmlns="http://www.w3.org/2000/svg" xmlns:xlink="http://www.w3.org/1999/xlink" width="288.788"
						height="121.179" viewBox="0 0 288.788 121.179">
						<defs>
							<clipPath id="clip-path">
								<rect id="Прямоугольник_61" data-name="Прямоугольник 61" width="190.974" height="13.158"
									fill="none" />
							</clipPath>
							<clipPath id="clip-path-2">
								<rect id="Прямоугольник_60" data-name="Прямоугольник 60" width="288.22" height="118.465"
									fill="none" />
							</clipPath>
						</defs>
						<g id="Сгруппировать_376" data-name="Сгруппировать 376" transform="translate(-19.5 -2607.771)">
							<g id="Сгруппировать_83" data-name="Сгруппировать 83" transform="translate(19.5 2715.792)">
								<g id="Сгруппировать_82" data-name="Сгруппировать 82" transform="translate(0 0)"
									clip-path="url(#clip-path)">
									<path id="Контур_211" data-name="Контур 211"
										d="M167.811,2.23c.282.063.181-.651.223-.78-.472.158-.211.965-.223.78"
										transform="translate(22.94 0.198)" fill="#fb808d" />
									<path id="Контур_212" data-name="Контур 212" d="M163.782,3.6l.082-.292-.685.715Z"
										transform="translate(22.315 0.452)" fill="#fb808d" />
									<path id="Контур_213" data-name="Контур 213"
										d="M159.88,3.607c.411,1.217,1.577-.2,2.353.236l.127.279.35-.981c-.942.156-2.167.806-2.83.466"
										transform="translate(21.864 0.429)" fill="#fb808d" />
									<path id="Контур_214" data-name="Контур 214"
										d="M157.847,1.236c.143.473-.5.406.541.148a1.06,1.06,0,0,1-.1-.12,1.967,1.967,0,0,1-.443-.027"
										transform="translate(21.576 0.169)" fill="#fb808d" />
									<path id="Контур_215" data-name="Контур 215" d="M158.238,1.282c.458-.034-.3-.4,0,0"
										transform="translate(21.629 0.15)" fill="#fb808d" />
									<path id="Контур_216" data-name="Контур 216"
										d="M156.4,1.615l.6-.423c-.126-.28-.664-.343-.464-.547-.62.232-.492.51-.14.97"
										transform="translate(21.348 0.088)" fill="#fb808d" />
									<path id="Контур_217" data-name="Контур 217"
										d="M155.863,2.312l.313-.178c-.055-.118-.138-.159-.313.178"
										transform="translate(21.314 0.28)" fill="#fb808d" />
									<path id="Контур_218" data-name="Контур 218"
										d="M156.8,1.79l-.664.377c.088.2.1.591.3-.136-.053.36.077.014.359-.241"
										transform="translate(21.352 0.245)" fill="#fb808d" />
									<path id="Контур_219" data-name="Контур 219"
										d="M157.053,1.956c.339.265.776.432.169.853,1.156-.167.986-1.022-.169-.853"
										transform="translate(21.477 0.264)" fill="#fb808d" />
									<path id="Контур_220" data-name="Контур 220"
										d="M159.685,4.675l.452.358.392-.409c-.2.2-.873-.331-.845.051"
										transform="translate(21.837 0.62)" fill="#fb808d" />
									<path id="Контур_221" data-name="Контур 221"
										d="M153.058.944c-.038.259.2.69.248,1.022l.447-.3c-.23-.177-.664-.341-.695-.724"
										transform="translate(20.93 0.129)" fill="#fb808d" />
									<path id="Контур_222" data-name="Контур 222"
										d="M153.356,1.843l-.667.444c.6.052.7-.159.667-.444"
										transform="translate(20.88 0.252)" fill="#fb808d" />
									<path id="Контур_223" data-name="Контур 223" d="M155.794,3.581l1.1-.933-1.307.946Z"
										transform="translate(21.276 0.362)" fill="#fb808d" />
									<path id="Контур_224" data-name="Контур 224" d="M150.852.988l.379-.6-.674.906Z"
										transform="translate(20.589 0.053)" fill="#fb808d" />
									<path id="Контур_225" data-name="Контур 225"
										d="M149.484,1.146c.28-.5-.384-.84-.088-1.146a2.562,2.562,0,0,0-1.2.9c.375-.214.775-.159,1.292.247"
										transform="translate(20.265 0)" fill="#fb808d" />
									<path id="Контур_226" data-name="Контур 226"
										d="M147.671,1.348a3.492,3.492,0,0,0,.592-.558,1.845,1.845,0,0,0-.592.558"
										transform="translate(20.194 0.108)" fill="#fb808d" />
									<path id="Контур_227" data-name="Контур 227"
										d="M151.752,2.21a1.1,1.1,0,0,0-.525-.739l.263.729.263.01"
										transform="translate(20.68 0.201)" fill="#fb808d" />
									<path id="Контур_228" data-name="Контур 228"
										d="M151.535,2.14l-.009-.023c-.285-.017-.482-.033-.567-.041.073.006.247.026.576.064"
										transform="translate(20.644 0.284)" fill="#fb808d" />
									<path id="Контур_229" data-name="Контур 229"
										d="M151.756,2.124c-.024,0-.042,0-.066,0,.025.073.04.1.066,0"
										transform="translate(20.744 0.29)" fill="#fb808d" />
									<path id="Контур_230" data-name="Контур 230"
										d="M154.32,2.889c-.392.408-1.21.843-.418,1.465.281-.5-.172-.853.418-1.465"
										transform="translate(21.001 0.395)" fill="#fb808d" />
									<path id="Контур_231" data-name="Контур 231"
										d="M152.034,2.986l.708.167c-.014-.193-.141-.474.053-.675Z"
										transform="translate(20.791 0.339)" fill="#fb808d" />
									<path id="Контур_232" data-name="Контур 232" d="M151.729,3.165l.347-.232-.263-.061Z"
										transform="translate(20.749 0.392)" fill="#fb808d" />
									<path id="Контур_233" data-name="Контур 233"
										d="M148.862,1.882a1.5,1.5,0,0,1-1.02.394,3.625,3.625,0,0,0,1.223.218c.056-.228.231-.639-.2-.613"
										transform="translate(20.217 0.257)" fill="#fb808d" />
									<path id="Контур_234" data-name="Контур 234"
										d="M150.072,2.06c-.022.017-.048.025-.068.042.042.061.075.081.068-.042"
										transform="translate(20.513 0.281)" fill="#fb808d" />
									<path id="Контур_235" data-name="Контур 235"
										d="M144.566,2.225c.02.04.039.091.06.133,0-.042.008-.084.014-.127Z"
										transform="translate(19.769 0.304)" fill="#fb808d" />
									<path id="Контур_236" data-name="Контур 236"
										d="M148.988,2.572c.3.141.487-.038.66-.261a2.522,2.522,0,0,1-.729.125c-.025.1-.03.173.068.136"
										transform="translate(20.363 0.316)" fill="#fb808d" />
									<path id="Контур_237" data-name="Контур 237"
										d="M146.757,1.587a3.189,3.189,0,0,0,.527.4c-.155-.231-.472-.59-.527-.4"
										transform="translate(20.069 0.21)" fill="#fb808d" />
									<path id="Контур_238" data-name="Контур 238"
										d="M149.918,1.934a.308.308,0,0,1,.045-.033c-.1-.155-.088-.08-.045.033"
										transform="translate(20.497 0.248)" fill="#fb808d" />
									<path id="Контур_239" data-name="Контур 239"
										d="M149.963,1.919a1.965,1.965,0,0,0-.4.447,1.8,1.8,0,0,0,.506-.244.961.961,0,0,1-.1-.2"
										transform="translate(20.452 0.262)" fill="#fb808d" />
									<path id="Контур_240" data-name="Контур 240"
										d="M143.668,6.886a.878.878,0,0,1,1.546-.575c.681-.506.236-2.728-.358-3.97-.02.294-.02.566-.722.965.246.368,1.555.863.964,1.474-.928.347-.76-.24-1.212-.6.383.841-1.18,1.224-.978,2.462l.813-.437c.016.193-.28.5-.053.676"
										transform="translate(19.54 0.32)" fill="#fb808d" />
									<path id="Контур_241" data-name="Контур 241"
										d="M145.952,2.522l.289-.084c-.329-.117-.564-.388-1-.916-.48.331-.58.581-.613.806l1.42.093Z"
										transform="translate(19.778 0.208)" fill="#fb808d" />
									<path id="Контур_242" data-name="Контур 242"
										d="M147.34,2.379c-.225.734-.917,1.048-.493,1.843.846-.051.592-.614,1.1-.932-1.365.182.392-.409-.595-.826a2.4,2.4,0,0,1,.738-.194,3.861,3.861,0,0,1-.706-.335c.012.017.02.03.031.045h.008l0,.01c.059.092.078.149.011.1,0,.008-.02.013-.028.016a1.268,1.268,0,0,1-.061.275c-.4-.151-.061-.189.061-.275,0-.038.016-.072.017-.111l-.006-.009-1.366.4a2.936,2.936,0,0,0,1.294,0"
										transform="translate(19.972 0.264)" fill="#fb808d" />
									<path id="Контур_243" data-name="Контур 243"
										d="M153.234,5.589a.293.293,0,0,1-.043-.171c-.089.091-.123.151.043.171"
										transform="translate(20.939 0.741)" fill="#fb808d" />
									<path id="Контур_244" data-name="Контур 244"
										d="M152.806,5.392c.1-.1.182-.4.506-.321.28.221,0,.351.013.593.2-.194.682-.526.072-.886l-.1.1c-.551-.252-1.258-1.169-1.162-1.27a6.158,6.158,0,0,0,.668,1.781"
										transform="translate(20.804 0.494)" fill="#fb808d" />
									<path id="Контур_245" data-name="Контур 245"
										d="M150.057,3.917l-1.139.36.581.635-.03-.382c.647.15.507-.319.588-.614"
										transform="translate(20.365 0.535)" fill="#fb808d" />
									<path id="Контур_246" data-name="Контур 246" d="M144.513,2l.151-.776-.658,1.1Z"
										transform="translate(19.693 0.167)" fill="#fb808d" />
									<path id="Контур_247" data-name="Контур 247" d="M143.19,2.066l.055-.674-.39.407Z"
										transform="translate(19.535 0.19)" fill="#fb808d" />
									<path id="Контур_248" data-name="Контур 248"
										d="M69.745,9.35l-.334.191a.987.987,0,0,0,.334-.191"
										transform="translate(9.492 1.278)" fill="#fb808d" />
									<path id="Контур_249" data-name="Контур 249"
										d="M71.843,9.43,71.9,9.1c-.111.183-.158.319-.059.333"
										transform="translate(9.817 1.244)" fill="#fb808d" />
									<path id="Контур_250" data-name="Контур 250"
										d="M111.3,2.187c-.488-.63-1.032-1.607-.974-.848l.151.739a.81.81,0,0,1,.823.109"
										transform="translate(15.087 0.145)" fill="#fb808d" />
									<path id="Контур_251" data-name="Контур 251"
										d="M89.294,6c.047.072.094.149.142.224.118-.252.23-.487.33-.707-.142.151-.3.313-.472.483"
										transform="translate(12.211 0.754)" fill="#fb808d" />
									<path id="Контур_252" data-name="Контур 252"
										d="M89.069,8.687l-.642-.477a2.145,2.145,0,0,0,.642.477"
										transform="translate(12.092 1.123)" fill="#fb808d" />
									<path id="Контур_253" data-name="Контур 253"
										d="M58.116,10.04l-.39.753c.61,0,.341-.383.39-.753"
										transform="translate(7.894 1.373)" fill="#fb808d" />
									<path id="Контур_254" data-name="Контур 254"
										d="M129.946,2.279a2.334,2.334,0,0,0-1.049-.447c.507.424.915,1.062,1.049.447"
										transform="translate(17.627 0.25)" fill="#fb808d" />
									<path id="Контур_255" data-name="Контур 255"
										d="M70.578,2.444a.518.518,0,0,0-.286.45c.211-.126.33-.268.286-.45"
										transform="translate(9.612 0.334)" fill="#fb808d" />
									<path id="Контур_256" data-name="Контур 256"
										d="M127.829,1.872a2.511,2.511,0,0,0,.222.174,1.906,1.906,0,0,1,.992-.176c-.374-.315-.8-.512-1.214,0"
										transform="translate(17.481 0.213)" fill="#fb808d" />
									<path id="Контур_257" data-name="Контур 257"
										d="M15.882,9.512a.793.793,0,0,1-.109-.089c-.01.1.039.106.109.089"
										transform="translate(2.157 1.288)" fill="#fb808d" />
									<path id="Контур_258" data-name="Контур 258"
										d="M3.575,2.946a2.532,2.532,0,0,1,.574-.058.794.794,0,0,0-.574.058"
										transform="translate(0.489 0.39)" fill="#fb808d" />
									<path id="Контур_259" data-name="Контур 259"
										d="M137.913,1.707c.314-.049.05-.082,0,0" transform="translate(18.86 0.226)"
										fill="#fb808d" />
									<path id="Контур_260" data-name="Контур 260"
										d="M139.271,4.275a.576.576,0,0,0-.125.36.737.737,0,0,1,.125-.36"
										transform="translate(19.028 0.584)" fill="#fb808d" />
									<path id="Контур_261" data-name="Контур 261"
										d="M125.082,5.885c-.009,0-.017,0-.027,0,.093.146.077.117.027,0"
										transform="translate(17.101 0.804)" fill="#fb808d" />
									<path id="Контур_262" data-name="Контур 262"
										d="M138.377,2.023a1.458,1.458,0,0,0-.4-.219,1.569,1.569,0,0,0,.4.219"
										transform="translate(18.868 0.246)" fill="#fb808d" />
									<path id="Контур_263" data-name="Контур 263"
										d="M138.273,1.7c.108.033.193.051.274.072.04-.123,0-.2-.274-.072"
										transform="translate(18.909 0.223)" fill="#fb808d" />
									<path id="Контур_264" data-name="Контур 264"
										d="M137.529,1.741a1.309,1.309,0,0,1,.508.076c-.061-.05-.088-.091-.07-.116-.092.01-.223.026-.438.04"
										transform="translate(18.807 0.232)" fill="#fb808d" />
									<path id="Контур_265" data-name="Контур 265"
										d="M38.51,7.767a.66.66,0,0,1-.067-.069c-.317.307-.177.258.067.069"
										transform="translate(5.232 1.052)" fill="#fb808d" />
									<path id="Контур_266" data-name="Контур 266"
										d="M104,8.818c.015-.008.023-.027.036-.034-.015-.009-.034-.019-.047-.028Z"
										transform="translate(14.221 1.197)" fill="#fb808d" />
									<path id="Контур_267" data-name="Контур 267"
										d="M103.01,9.624c.48-.921.753-.807,1.116-.613l-.373-2.133Z"
										transform="translate(14.087 0.94)" fill="#fb808d" />
									<path id="Контур_268" data-name="Контур 268"
										d="M73.336,10.733l.791.665c-.955,1.095-1.646.717-.9,1.651.111-2.316,3.076-.235,3.186-2.551l.522.488c-.15-.023-.174.113-.322.091,1.015,1.108.754-1.673,2.061-1.345.456.177.774.513.464.788l1.015-.573a.206.206,0,1,1-.072.4l1.548-.185-.011.068a7.947,7.947,0,0,1,.966-1.163c.393.333-.2.246-.1.533l.857-.56c.35.6-.36,1.183-.953,1.1.8,2.312.71-.581,2.438.77l-.809.293c.522,1.313,1.154.837,2.069,1.655-.217-.427-1.832-2.063-.9-2.64.263.174.608.257,1.109-.209,0,.824.5.622,1.108.574l-.042,1.092c.664-.316.612-.871,1-1.362.739.108.892.953,1.066,1.664,1.183.173-.817-1.355.583-1.561.984.417,1.676-.028,2.853-.681.689.377-.12.668.126.98l.612-.871c.149.022.1.289.076.423.515-.338.042-1.09.851-1.386.218-1.2,1.661,1.755,2.662.391.247.31-.119.668-.044,1.091a7.475,7.475,0,0,0,2.306-1.856l.961.716c-.706-.818.2-1.787.987-2.584a10.115,10.115,0,0,0-.608-.907l1.261-.584c.152.178.025.554-.182,1.009a3.468,3.468,0,0,0,.232-.263c.45.4.217,1.033-.107,1.643-.153-.215-.306-.444-.454-.674a4.192,4.192,0,0,0-.538,2.036.822.822,0,0,1,.413-.294.7.7,0,0,0-.1.449c.043.115.174-.126.381-.4l.286,1.216.069-.483,1.649.76c1.181-1.223,2.208-3.026,4.081-3.527-.465.891-.1,1.456-.125,2.512-.512-1.119-1.452.475-2.422.249a.491.491,0,0,1,.267.8l1.731-1.017c-.039.865.367.648.82,1.006-.341-1.709,1.291-1.138,2-1.661.043.572-.125,1.158-.986,1.02.949,1.286,1.225-2.005,2.156-.913-.209.014-.323-.074-.406.218.491-.51,1.689-.106,1.407.392l-.209.013c1.393.2,4.241.013,4.449-1.438a16.939,16.939,0,0,1-.267,2.042l2.487-4.88c-.219,1.246.622,4.212-.534,4.918a1.226,1.226,0,0,0,1.441-.057c-.226-.177-.564-1.8-.255-1.915.849,1.387.59.742,1.636,1.925-.339-.266.038-2.22.574-2.158-.084.292.044,1.927-.151,2.13l1.335-1.917c-.333.344-.059,1.624.24,2.168-.139-.376,1.154.034,1.51-.156l-.566-.446c1.506.291,1.488-2.7,2.983-2.6-.181.4-.447,2.438.314,2.679.348-.982,1.543-4.723,2.865-5.48l.253.563,1.015-.641a35.3,35.3,0,0,1-3.374,5.8c.564.444.158.664,1,.612.3.526-.459.8-.708.829l1.965.34c-.088-1.146,1.5-1.149,1.429-2.1l-2.135,1.188c-.088-1.145,1.235-3.253,2.627-3.052.355.457-.265,2.04-.236,2.424.181-.394,1.322-.755,1.451-.474l-.591.613c.775.431,1.266-1.52,2.2-.425.322.074.961,1.476,1.016.8a15.745,15.745,0,0,1-.277-6.337,10.778,10.778,0,0,1,2.056,1.9c.53,1.025-.8,2.445-.344,3.325a1.631,1.631,0,0,1,.434-.824c.338.267-.14.971.593.829.123-1.161,1.493.1.347-.982.718-.332.764.24,1.606.188-.268-.75.757-2.554,1.477-2.887a1.805,1.805,0,0,0,.2.857c1.471.1,2.261.632,3.634.642.126.282.788.623.506,1.122.2-.206.379-.6.8-.627.818,1-.943.156-.319,1.365.053-.675,1.095-.934,1.7-1.355-.185-1.044-1.393-.2-2,.221a4.244,4.244,0,0,1,2.483-3.61c1.14-.358.493.93.692.725,2.14.251,1.823-2.512,3.6-1.473.706.915.032,1.822.189,2.484-.929.347-1.425-.582-2.055-.545l.775.434c-.3.3-.915.535-1.253.271.591.823,3.617.157,5.269.917.293-.306.8-.625.56-.994l-.523.127c-.48-.739.984-1.022.323-1.368.7-.519,1.487-1.337,2.474-.918l.186,1.045c-.022-.306-.646-.622-.923-.3.411-.464,1.513,1.415,1.964.047l-.692-.725c.7-.525,1.574-1.635,2.45-1.3-.4-1.032-.2.118-.824-1.09.539,1.5-2.237-.063-1.372,1.516-.638-1.4-1.1-.595-1.937-1.79.025.346.294.66-.44.49a1.5,1.5,0,0,1-.16.3.293.293,0,0,1-.05-.025c.015.014.026.028.041.04-.032.052-.035.064.015.015a1.193,1.193,0,0,1,.374.524c-.365.791-1.532.767-1.927,1.178-.436-.165.182-.4-.056-.764l-.59.613c-.059-.765-1.158-1.272-.132-1.721l-.924-.034a1.568,1.568,0,0,0-1.753-.279c-.437-.165-1.1.848-.722.248l-1.448.475-.014-.191c-1.43-.1-2.943,1.269-4.578-.115a2.47,2.47,0,0,1-1.785.213l-.157-.662c-.617.23-1.855-.664-2.121.026-.667-1.782-3-.389-4.087-.7l-.041.865a5.856,5.856,0,0,0-2.394.543l.057.764c-.8.627-2.059-.543-3.325-.464.086-.293.407-.217.634-.04-1.513-1.728-3.192,1.256-4.564,0a.572.572,0,0,1-.829-.008.137.137,0,0,0,.084-.041.627.627,0,0,0-.14-.01c-.151-.131-.307-.284-.475-.406a1.71,1.71,0,0,0,.4.409,2.974,2.974,0,0,0-1.055.3l-.167-.821c-.032.01-.058.009-.091.023-.385-.3-.309.389-.1,1.007a2.04,2.04,0,0,0-.518.494c-.313-1.325-1.029.447-1.455-.966-.264.689-1.971.518-2.18,1.97-.013-.19-.128-.281.083-.292-.437-.166-.873-.331-1.265.078l-.185-1.044-.955,1.4c-.58-.637-.82-1.006-.244-1.809-1.39,1.237-1.128.465-2.31,1.689l.057-.675c-.422.026-1.1.932-1.353.373-.945-1.283-4.677-.177-7.1-1.37.471,1.987-1.128-.89-1.224.65-.141-.469-.48-.735-.086-1.144-1.238.46-1.861-.747-2.716.552-.141-.472.265-.688.139-.969-.1.1-.393.409-.522.128s.182-.394.377-.6c-1.265.08-1.393,1.528-1.485,2.887-.641-.643-.962-.554-1.424.339-.223-.444-.6-.909.191-1.07-.442-.066-2.7-.652-2.746.438-.139-.276-.618-.081-.734.045a8.372,8.372,0,0,0-2.054-.06l.271.177c-.385,1.315-.811.293-1.6.451l.023-.133c-1.8-.95-.778.454-2.554-.63l.1.818c-.166,1.759-1.574-1.038-2.605-.365l.372.467c-.563.6-1.574-2.392-2.139-2.612-.124-.153.194-.246.366-.357-1.48-1.04-.191,1.07-1.295,1.319-.2-.577.263-1.47-.481-1.578-.369-.466-2.154,1.877-3.167.768.223.446.444.89-.068,1.224-.785.159-2.123-1.682-2.833-.277a.579.579,0,0,1-.142-.35c-.6.361-1.952.6-2.313,1.363-.555-2.825-3.733,1.373-3.719-1.232l-1.847.14.048-.266A1.821,1.821,0,0,0,69.957,4.2c-.273-.177-.074-.422-.051-.557-1.726-.525-1.9-.415-3.343.884l-.15-.846c-.392.491-2.494-1.327-4.187-.34a.635.635,0,0,1,.186-.38c-1.9.992-4.558-2.343-5.255.734L55.9,4.456c1.624.239-.242,1.337.426,1.846-.64.181-1.653-.928-.867-1.086l.123.153c.289-1.6-2.02-.568-1.976-1.662-3.2.082-6.316-.808-9.311-.876l.344,1.247L43.6,4.007c-.274-.289-.368-.975.377-.924-.392-.707-1.25.593-1.272.864-1.46-.506.571-1.455.123-1.485l-.608.092.138.147c-.492.509-.537,1.05-1.432.989-.567-.25-.291-.77-.514-.817,0-.09-.075-.131-.342-.036L38.747,2.73l.526.983c-.583.487-1.238-.051-.63,1.064-.892-1.72-4.912-.617-5.459-1.15a3.093,3.093,0,0,1-2.624.617c.249.206.4,1.313-.465,1.178.315-2.285-1.578-.991-2.275-2.636.622,1.09-2.451.269-1.474,1.818-.718-.185-.043-.856-.589-1.394-1.712.886-3.773-.575-5.888-.276-.033.3.321.758-.133,1.2l-1.117-1.5c-.417.147-.384,1.731-1.148.69.108.253.269.632-.011.729C13.316,2.6,8.991,5.255,4.78,2.51c.571.582.191.639-.244.66.283.139-.007.74.049,1.147L2.821,3.187C2.5,4.316.932,3.263.748,4.343l.558-.2c-.742,1.274,1.039,2.829.93,4.463.832-1.447,2.192,2.144,3.556.072.3.334-.257.527-.1.9.347-.7.764-.845,1.537-.531l-.088.173c2.173-.171,3.106.519,5.546.979L12.51,9.4a1.6,1.6,0,0,1,.881.564c.6-1.225-1.473-.069-.925-1.42.7,1.644,3.7.024,4.17,1.893.807.01-.236-.936.571-.924l.214.5.2-.651a1.238,1.238,0,0,1,.815,1.167c-.128-.05-.365.119-.5.157.687.6,1.935-.2,2.17-.009l-.775-.311c2.2-.473,4.891.191,7.019-.837l-.161-.381c1.626-.706,1.3.418,3.085.092l-.065.091a1.614,1.614,0,0,1,1.322-.529c-.45.447.848.867.257,1.362,1.762-.757.872-.595,2.036-2.011l.268.633c.4-.573.43-.875,1.321-1.038-.731.542.568.963-.25,1.68,1.87,1.383,2.776-1.4,3.634.626.858-1.751-1.619-.972-1.138-1.347-.4-.571.709-1.308,1.3-1.132.6.04,1.015,2.241,2.518,2.206-.149-.008-.159.125-.308.116.562.447,1.1-.6,1.79.122.388-1.059.9.059,1.007-1.29l-1.378.314c.781-.354,1.514-1.934,2.8-1.167a2.468,2.468,0,0,1-.747.83c.376.4.725-.264,1.115.146-.111,1.35-1.674.293-2.512,1.323.4.571,1.583-.978,1.163.485.6-1.86,1.481.235,2.5-1.186l-.067.808c.16-.126.494-.508.79-.488l-.537,1.048c.824-.895,1.588.784,2.378.3-1.654.024-.371-.975-1.07-1.566,2.039-1.082,1.173,2.118,3.457,1.729-.309.114-1.161-.485-.678-.862a2.7,2.7,0,0,1,1.277.9c1.513-.169-.232-.833.412-1.331.516.986.743-.4,1.407-.716l0,.822c1.724.529.457-1.714,2.01-1.075l-.656,1.14.809-.3-.167.937c.881-.695,1.155-.515,2.018-.252-.2-.579.113-1.493.876-1.519.522.489-.291.782.791.665-.244.514-.512,1.159-.983.4-.048.268-.241.515-.291.781.562.56,1.411.127,1.8.119a.725.725,0,0,1-.423-.191L60.633,9.7c.248.309.051.557-.142.8.317-.09.538-.468,1-.539-.12.668-.092,1.358-.754,1.673l1.5-.742c.1.291.767.8.573,1.046.83.392,2.034-1.3,3.133-.78a.69.69,0,0,1,.406-.349c1.033.151,1.948.972,3.173.056l.7,1.2c.958-.272-.941-1.511.656-1.962,1.131-.383.422,1.022.818,1.355.563-.6,1.54-1.834,2.578-.857-.343.226-.613.049-.934.138M85.164,10.2c-.228.172-.685.7-.854.219.261-.942.463-.492.854-.219m17.98-1.98c-.171.271-.433.136-.731-.175a.766.766,0,0,1,.731.175m50.087-5.728a.17.17,0,0,0-.025.04c-.51-.321-.33-.193.025-.04m1.062.357a.3.3,0,0,0,.055-.344c-.075.208-.313.224-.584.165.075.215.213.364.53.18m-114,.324.207.215c-.467.238-.336.023-.207-.215"
										transform="translate(0.102 0.109)" fill="#fb808d" />
									<path id="Контур_269" data-name="Контур 269"
										d="M89.052,8.372a1.344,1.344,0,0,1-.1-.447.306.306,0,0,0,.1.447"
										transform="translate(12.156 1.084)" fill="#fb808d" />
									<path id="Контур_270" data-name="Контур 270"
										d="M58.142,9.919c-.013-.007-.024,0-.036-.009a.647.647,0,0,0-.036.149Z"
										transform="translate(7.941 1.355)" fill="#fb808d" />
									<path id="Контур_271" data-name="Контур 271"
										d="M121.406,8.791a.99.99,0,0,1-.422-.424c-.011.2.088.371.422.424"
										transform="translate(16.545 1.144)" fill="#fb808d" />
									<path id="Контур_272" data-name="Контур 272"
										d="M140.852,1.374l-.68.214c.329-.041.446.14.612.271-.015-.192-.144-.471.068-.484"
										transform="translate(19.169 0.188)" fill="#fb808d" />
									<path id="Контур_273" data-name="Контур 273"
										d="M145.989,5.912c.1-.1.21-.011.309-.114l-.027-.382c-.424.025-.72.333-.282.5"
										transform="translate(19.935 0.74)" fill="#fb808d" />
									<path id="Контур_274" data-name="Контур 274"
										d="M141.324,3.816c.053.692.481.457.957.329a.191.191,0,0,1-.084,0c.14-.966-.367-.648-.873-.329"
										transform="translate(19.326 0.478)" fill="#fb808d" />
									<path id="Контур_275" data-name="Контур 275"
										d="M142.263,4.072a1.03,1.03,0,0,1,.44-.017c.056-.388-.178-.081-.44.017"
										transform="translate(19.455 0.528)" fill="#fb808d" />
									<path id="Контур_276" data-name="Контур 276"
										d="M137.06,2.3c.226.177.142-.884.269-.6.252-.88-1.506,1.066-.269.6"
										transform="translate(18.682 0.2)" fill="#fb808d" />
									<path id="Контур_277" data-name="Контур 277" d="M141.716,5.887l-.171-.855-.267.689Z"
										transform="translate(19.32 0.688)" fill="#fb808d" />
									<path id="Контур_278" data-name="Контур 278"
										d="M138.355,5.248l.762.238c-.012-.143.085-.226.2-.291-.469-.03-.983-.2-.965.053"
										transform="translate(18.92 0.699)" fill="#fb808d" />
									<path id="Контур_279" data-name="Контур 279"
										d="M139.2,5.2a.782.782,0,0,0,.613-.143,1.657,1.657,0,0,0-.613.143"
										transform="translate(19.036 0.692)" fill="#fb808d" />
									<path id="Контур_280" data-name="Контур 280" d="M140.84,6.038l-.225-.178-.538-.061Z"
										transform="translate(19.156 0.793)" fill="#fb808d" />
									<path id="Контур_281" data-name="Контур 281"
										d="M131.259,5.088l-.831.244c-.084.292.142.472.451.356.2-.2.507-.317.38-.6"
										transform="translate(17.834 0.696)" fill="#fb808d" />
									<path id="Контур_282" data-name="Контур 282"
										d="M133.414,7.224c-.225-.177-.24-.368-.366-.649l-.026,1.058Z"
										transform="translate(18.191 0.899)" fill="#fb808d" />
									<path id="Контур_283" data-name="Контур 283"
										d="M131.308,7.363c-.083.294-1.206.843-.152.776.084-.291.916-.535.152-.776"
										transform="translate(17.874 1.007)" fill="#fb808d" />
									<path id="Контур_284" data-name="Контур 284" d="M120.225,6.4l.211-.014-.031-1.737Z"
										transform="translate(16.441 0.635)" fill="#fb808d" />
									<path id="Контур_285" data-name="Контур 285"
										d="M110.533,10c.984.416.234-1.072,1.123-.552.231-.41-.726-.424-.49-.779-.595.434-.906.19-.633,1.331"
										transform="translate(15.102 1.185)" fill="#fb808d" />
									<path id="Контур_286" data-name="Контур 286"
										d="M111.078,8.7a2.186,2.186,0,0,0,.3-.263.964.964,0,0,0-.3.263"
										transform="translate(15.19 1.154)" fill="#fb808d" />
									<path id="Контур_287" data-name="Контур 287" d="M1.611,2.157.978,1.795l.409.584Z"
										transform="translate(0.134 0.245)" fill="#fb808d" />
									<path id="Контур_288" data-name="Контур 288"
										d="M.53,3.38.381,2.273,0,3.274c.143-.049.421-.144.53.106"
										transform="translate(0 0.311)" fill="#fb808d" />
									<path id="Контур_289" data-name="Контур 289"
										d="M76.615,11.106l.048-.266c-.1-.289-.246-.309-.542-.355Z"
										transform="translate(10.41 1.434)" fill="#fb808d" />
									<path id="Контур_290" data-name="Контур 290" d="M69.019,10.421l.148.023-.276-1Z"
										transform="translate(9.421 1.291)" fill="#fb808d" />
									<path id="Контур_291" data-name="Контур 291"
										d="M62.667,11.492c.294.042.64-.181.936-.138-.641.18-1.015-1.109-.936.138"
										transform="translate(8.568 1.496)" fill="#fb808d" />
								</g>
							</g>
							<g id="Сгруппировать_81" data-name="Сгруппировать 81"
								transform="translate(20.068 2607.771)">
								<g id="Сгруппировать_80" data-name="Сгруппировать 80" transform="translate(0 0)">
									<g id="Сгруппировать_79" data-name="Сгруппировать 79" clip-path="url(#clip-path-2)">
										<path id="Контур_1741" data-name="Контур 1741"
											d="M17.051-.879a12.32,12.32,0,0,1-5.8,1.23A9.355,9.355,0,0,1,4.072-2.534a10.648,10.648,0,0,1-2.7-7.573,11.161,11.161,0,0,1,3.032-8.145,10.292,10.292,0,0,1,7.69-3.105,12.33,12.33,0,0,1,4.951.864v2.622a10.041,10.041,0,0,0-4.98-1.26A7.642,7.642,0,0,0,6.2-16.714a9.106,9.106,0,0,0-2.249,6.46,8.664,8.664,0,0,0,2.1,6.116A7.153,7.153,0,0,0,11.572-1.86a10.346,10.346,0,0,0,5.479-1.406ZM37.588,0H34.863L32.637-5.889H23.73L21.636,0H18.9l8.057-21.006H29.5ZM31.831-8.1l-3.3-8.95a8.57,8.57,0,0,1-.322-1.406h-.059a7.846,7.846,0,0,1-.337,1.406L24.551-8.1ZM55.737,0h-2.93L49.292-5.889a12.825,12.825,0,0,0-.937-1.4,5.344,5.344,0,0,0-.93-.945A3.222,3.222,0,0,0,46.4-8.767a4.216,4.216,0,0,0-1.238-.168H43.14V0H40.679V-21.006h6.27a8.935,8.935,0,0,1,2.542.344,5.686,5.686,0,0,1,2.021,1.047,4.867,4.867,0,0,1,1.34,1.75,5.8,5.8,0,0,1,.483,2.454,5.908,5.908,0,0,1-.33,2.014,5.26,5.26,0,0,1-.937,1.633A5.683,5.683,0,0,1,50.6-10.54a7.478,7.478,0,0,1-1.926.784V-9.7a4.43,4.43,0,0,1,.916.535,5.038,5.038,0,0,1,.74.71,9.41,9.41,0,0,1,.7.93q.344.52.769,1.208ZM43.14-18.779v7.617h3.34a5.065,5.065,0,0,0,1.707-.278,3.951,3.951,0,0,0,1.355-.8,3.62,3.62,0,0,0,.894-1.274,4.266,4.266,0,0,0,.322-1.692,3.293,3.293,0,0,0-1.091-2.629,4.688,4.688,0,0,0-3.157-.945ZM69.756,0H58.623V-21.006H69.287v2.227h-8.2v6.987h7.588V-9.58H61.084v7.354h8.672ZM84.7,0H73.8V-21.006H76.26V-2.227H84.7Zm4.131-18.809a1.522,1.522,0,0,1-1.1-.439,1.483,1.483,0,0,1-.454-1.113,1.507,1.507,0,0,1,.454-1.121,1.509,1.509,0,0,1,1.1-.447,1.551,1.551,0,0,1,1.121.447,1.5,1.5,0,0,1,.461,1.121,1.485,1.485,0,0,1-.461,1.1A1.538,1.538,0,0,1,88.828-18.809ZM90,0H87.6V-15H90Zm22.119,0H109.1L98.291-16.743a7,7,0,0,1-.674-1.318h-.088a21.626,21.626,0,0,1,.117,2.886V0H95.186V-21.006h3.193L108.9-4.526q.659,1.025.85,1.406h.059a22.225,22.225,0,0,1-.146-3.091V-21.006h2.461Z"
											transform="translate(0 23.107)" fill="#215f87" />
										<path id="Контур_1740" data-name="Контур 1740"
											d="M17.373,0H13.945L5.83-9.609a5.857,5.857,0,0,1-.557-.732H5.215V0H2.754V-21.006H5.215v9.873h.059a5.791,5.791,0,0,1,.557-.718l7.852-9.155h3.062L7.734-10.928Z"
											transform="translate(133.389 23.107)" fill="#215f87" />
										<path id="Контур_1739" data-name="Контур 1739"
											d="M9.39-16.2A88.975,88.975,0,0,1,3.721.6L1.743-.176A79.827,79.827,0,0,0,7.236-16.055q-1.816.132-5.522.483L1.6-17.461q1.1-.073,3.252-.205,1.978-.132,2.813-.19.557-2.534,1.143-5.962l2.124.293q-.659,3.428-1.143,5.552,1.685-.117,3.062-.117a3.061,3.061,0,0,1,2.739,1.216,7.847,7.847,0,0,1,.864,4.248q0,7.515-.937,10.649A3.808,3.808,0,0,1,14.15.176a3.916,3.916,0,0,1-2.3.6A19.82,19.82,0,0,1,8.8.542L8.438-1.553A13.319,13.319,0,0,0,11.1-1.2a3.15,3.15,0,0,0,1.6-.308,1.93,1.93,0,0,0,.718-1.04q.952-2.93.952-9.785a7.543,7.543,0,0,0-.469-3.3,1.527,1.527,0,0,0-1.45-.688Q11.074-16.318,9.39-16.2Zm8.8-8.555,1.523-.6a41.251,41.251,0,0,1,2.227,5.083l-1.626.659A31.639,31.639,0,0,0,18.193-24.756ZM21.4-25.767l1.494-.542a24.272,24.272,0,0,1,2.124,4.922l-1.553.63A28.9,28.9,0,0,0,21.4-25.767ZM16.45-19.673l1.89-.967A36.17,36.17,0,0,1,23.5-10.283L21.4-9.3A31.1,31.1,0,0,0,16.45-19.673Z"
											transform="translate(153.646 23.107)" fill="#215f87" />
										<path id="Контур_1738" data-name="Контур 1738"
											d="M7.251-16.978v-6.958H9.536v6.445L21.021-20.1l1.26,1.611A37.473,37.473,0,0,1,15.923-7.163l-1.89-1.2a27.675,27.675,0,0,0,5.435-9.272L9.536-15.4V-4.585q0,2.021,1.04,2.549a9.9,9.9,0,0,0,3.691.439q3.311,0,6.958-.352V.264q-3.193.22-7.427.22-4.16,0-5.464-1.26Q7.251-1.8,7.251-4.526V-14.883l-5.1,1.143-.6-1.948ZM28.14-22.734H41.733v2.007H28.14Zm-1.831,6.387H43.257Q42.92-7.778,39.067-3.574q-3.047,3.34-9.214,4.863L28.77-.425Q34.937-1.934,37.852-5.6a14.817,14.817,0,0,0,2.915-8.745H26.309Zm24.727,5.757v6.416q0,2.153,1.289,2.373a24.334,24.334,0,0,0,4.38.308q3.018,0,6.65-.366V.4Q59.37.6,56.133.6A23.1,23.1,0,0,1,50.9.176Q48.75-.293,48.75-3.486v-19.5h2.285v10.3a32.4,32.4,0,0,0,9.36-6.152l1.523,1.831A38.667,38.667,0,0,1,51.035-10.591ZM62.886-26.074a3.2,3.2,0,0,1,2.49,1.113,3.245,3.245,0,0,1,.864,2.256,3.2,3.2,0,0,1-1.113,2.49,3.226,3.226,0,0,1-2.241.864,3.219,3.219,0,0,1-2.5-1.113,3.226,3.226,0,0,1-.864-2.241,3.247,3.247,0,0,1,1.113-2.5A3.245,3.245,0,0,1,62.886-26.074Zm0,1.289a1.984,1.984,0,0,0-1.553.674,2.03,2.03,0,0,0-.527,1.406,1.968,1.968,0,0,0,.674,1.538,2.03,2.03,0,0,0,1.406.527,1.968,1.968,0,0,0,1.538-.674,2.011,2.011,0,0,0,.527-1.392,1.984,1.984,0,0,0-.674-1.553A2.011,2.011,0,0,0,62.886-24.785Zm16.934,16.2A26.988,26.988,0,0,1,69.111.894L67.793-.835a26.338,26.338,0,0,0,9.8-8.423,30.345,30.345,0,0,0,4.395-10.811H69.39v-2.007H84.946a40.253,40.253,0,0,1-3.955,11.484A67.383,67.383,0,0,1,87.979-.513L85.767.894A53.842,53.842,0,0,0,79.819-8.584Zm17.227-4.468V1.2H94.731V-23.965h2.314v8.7A46.722,46.722,0,0,1,108.472-10.5l-1.143,2.168A37.918,37.918,0,0,0,97.046-13.052Zm23.628-3.809q-3.6.366-8.437.513l-.117-1.919a74.291,74.291,0,0,0,7.764-.4,50.487,50.487,0,0,1-1.67-5.186l2.212-.278a37.893,37.893,0,0,0,1.626,5.229,62.1,62.1,0,0,0,6.328-1.113l.234,1.919q-2.358.527-5.815,1a31.98,31.98,0,0,0,5.786,8.7l-1.289,1.86a13.9,13.9,0,0,0-7.222-2.051,6.847,6.847,0,0,0-4.438,1.289,3.217,3.217,0,0,0-1.289,2.578q0,3.853,7.559,3.853a23.462,23.462,0,0,0,4.014-.308l.029,2.095a30.8,30.8,0,0,1-4.072.249,15.07,15.07,0,0,1-7.031-1.289,4.763,4.763,0,0,1-2.607-4.5,4.966,4.966,0,0,1,2.783-4.614,10.169,10.169,0,0,1,4.966-1.128,11.176,11.176,0,0,1,5.786,1.172A25.184,25.184,0,0,1,120.674-16.86Zm20.508-3.3q-.059-2.52-.059-3.97h2.139v3.882q3.647-.132,7.222-.571v1.86q-3.281.4-7.192.542l.088,4.307q4.146-.19,6.958-.557v1.86q-3.3.366-6.929.5.029.718.132,3.105.059,1.6.1,2.563a21.571,21.571,0,0,1,7.983,5.083L150.132.293a20.391,20.391,0,0,0-6.46-4.819V-4.2q0,5.288-5.3,5.288A7.008,7.008,0,0,1,134.048.015a3.643,3.643,0,0,1-1.289-3.076,3.6,3.6,0,0,1,1.714-3.105A6.725,6.725,0,0,1,138.4-7.236a18.011,18.011,0,0,1,3.149.22q-.1-1.816-.205-5.2-3.911.1-7.808,0v-1.816q3.633.117,7.778.029-.059-.82-.073-2.329-.029-1.421-.059-2.021-4.512.088-8.13-.059v-1.8Q136.67-20.054,141.182-20.156Zm.366,15.117a11.587,11.587,0,0,0-2.944-.4q-3.926,0-3.926,2.373,0,2.285,3.545,2.285,3.325,0,3.325-4Zm20.669-2.607,2.051.176a11.7,11.7,0,0,0-.337,2.7,2.259,2.259,0,0,0,.952,2.095,6.787,6.787,0,0,0,3.311.586,55.68,55.68,0,0,0,5.933-.308l.059,2.168q-2.2.176-5.7.176-3.794,0-5.229-1.055a3.821,3.821,0,0,1-1.362-3.325A15.47,15.47,0,0,1,162.217-7.646Zm.6-10.02v-2.051q3.75-.293,7.588-.293,1.9,0,3.574.088v2.036Q172.427-18,170.2-18,166.362-18,162.817-17.666Zm-3.237-5.171A77.878,77.878,0,0,0,157.9-8.672a53.205,53.205,0,0,0,.732,9.39l-2.139.176A61.82,61.82,0,0,1,155.8-8.73a86.29,86.29,0,0,1,1.655-14.282Zm44.6,16.567q0,.264-.234.264l-4.2-.059h-9.785l-4.189.059q-.249,0-.249-.264V-7.295q0-.234.249-.234l4.189.059h.791v-2.71l-3.94.059q-.234,0-.234-.264v-1.025a.207.207,0,0,1,.234-.234l3.94.059v-.176a9.72,9.72,0,0,0-.19-2.109,14.864,14.864,0,0,1,1.743.19q.366.044.366.234a.858.858,0,0,1-.146.454,1.958,1.958,0,0,0-.161.981v.425h4.5V-11.7a10.22,10.22,0,0,0-.176-2.168q1.348.117,1.772.19.4.044.4.264a1.031,1.031,0,0,1-.19.454,1.882,1.882,0,0,0-.146.864v.513h.117l4.058-.059a.207.207,0,0,1,.234.234v1.025q0,.264-.234.264l-4.058-.059h-.117v2.71h1.23l4.2-.059a.207.207,0,0,1,.234.234Zm-7.324-1.2v-2.71h-4.5v2.71Zm8.525,6.636a2.689,2.689,0,0,0-.542,1.26,1.071,1.071,0,0,1-.176.542,1.15,1.15,0,0,1-.513.1q-5.845.366-10.649.366-5.376,0-7.383-.967a5.958,5.958,0,0,1-2.886-2.959A36.63,36.63,0,0,1,180.088.425a2.544,2.544,0,0,0-.63.63q-.176.264-.352.264t-.366-.264a11.96,11.96,0,0,1-.864-1.567,11.455,11.455,0,0,0,1.831-1.113,20.361,20.361,0,0,0,2.7-2.417v-7.441h-2.153l-2.051.059q-.234,0-.234-.278v-1.289a.207.207,0,0,1,.234-.234l2.051.059h1.523l2.168-.059a.207.207,0,0,1,.234.234l-.059,2.827v6.24a4.917,4.917,0,0,0,2.7,2.959,17.65,17.65,0,0,0,6.006.718Q199.058-.249,205.386-.835Zm-1.348-15.718a2.362,2.362,0,0,1-.688,1.436q-.63.513-3.779.513-2.856,0-3.4-.454a1.541,1.541,0,0,1-.483-.718,4.946,4.946,0,0,1-.146-1.406v-1.479l-.059-1.172a.207.207,0,0,1,.234-.234l2.2.059h3.6v-2.2h-3.486l-2.52.059q-.264,0-.264-.234v-1.04q0-.249.264-.249l2.52.059h2.549l2.388-.059a.207.207,0,0,1,.234.234l-.073,1.743v1.025l.073,1.831a.207.207,0,0,1-.234.234l-2.388-.059H197.2v1.143q0,1.069.264,1.3a6.392,6.392,0,0,0,2.461.234,4.613,4.613,0,0,0,2.285-.308,2.675,2.675,0,0,0,.322-1.6,3.762,3.762,0,0,0,1.113.571q.439.176.439.4A3.025,3.025,0,0,1,204.038-16.553Zm-10.049,0a2.362,2.362,0,0,1-.688,1.436q-.63.513-3.545.513-2.8,0-3.325-.454a1.484,1.484,0,0,1-.527-.718,5.471,5.471,0,0,1-.132-1.406v-1.479l-.059-1.172q0-.234.264-.234l2.124.059h3.545v-2.2h-3.413l-2.563.059a.207.207,0,0,1-.234-.234v-1.04q0-.249.234-.249l2.563.059h2.49l2.373-.059a.207.207,0,0,1,.234.234l-.059,1.743v1.025l.059,1.831a.207.207,0,0,1-.234.234l-2.373-.059h-3.311v1.113q0,1.1.278,1.333a5.212,5.212,0,0,0,2.183.234,4.524,4.524,0,0,0,2.373-.337q.264-.249.293-1.567a3.334,3.334,0,0,0,1.084.6q.4.146.4.381Q194.019-16.816,193.989-16.553Zm9.932,13.8a3.224,3.224,0,0,0-.659.923q-.264.469-.469.469a1.8,1.8,0,0,1-.439-.1,23.956,23.956,0,0,1-5.625-3.149q-.161-.1-.161-.176,0-.1.176-.278l.542-.513q.205-.205.308-.205a.5.5,0,0,1,.234.117A19.26,19.26,0,0,0,203.921-2.754ZM184.028-19.38a.361.361,0,0,1,.059.161q0,.1-.264.322l-.7.542a.949.949,0,0,1-.4.22q-.1,0-.205-.161a21.39,21.39,0,0,0-3.325-4.321.24.24,0,0,1-.088-.146q0-.088.293-.278l.674-.483a1.058,1.058,0,0,1,.352-.176.3.3,0,0,1,.176.088A26.606,26.606,0,0,1,184.028-19.38Zm8.906,14.766q-.044.19-.4.293a1.964,1.964,0,0,0-.425.264,4.81,4.81,0,0,1-.439.278,20.487,20.487,0,0,1-3.984,2.065,1.743,1.743,0,0,1-.469.132q-.176,0-.5-.4a2.2,2.2,0,0,0-.806-.718,23.077,23.077,0,0,0,4.38-1.978,5.494,5.494,0,0,0,1.2-1.113,8.649,8.649,0,0,1,1.157.776q.278.19.278.352ZM223.11-16.143q-4.087.132-8.188.088v-1.89q3.633.117,8.159-.029v-5.215h2.139q-.029,1.8-.029,5.1,1.875-.1,4.819-.4v1.89q-2.388.249-4.819.337.044,5.977.264,10.078a15.493,15.493,0,0,1,5.288,3.926l-1.45,1.8a14.325,14.325,0,0,0-3.838-3.5,4.526,4.526,0,0,1-1.509,3.779,5.365,5.365,0,0,1-3.53,1.069q-5.186,0-5.186-4.072a3.392,3.392,0,0,1,1.553-2.871,5.767,5.767,0,0,1,3.4-.967,14.66,14.66,0,0,1,3.179.322Q223.169-10.708,223.11-16.143Zm.249,11.5a9.172,9.172,0,0,0-3.311-.6,3.717,3.717,0,0,0-2.065.542,1.726,1.726,0,0,0-.864,1.523q0,2.256,3.237,2.256a2.7,2.7,0,0,0,2.388-1.128,3.929,3.929,0,0,0,.615-2.3ZM225.6-24.99l1.509-.454a36.909,36.909,0,0,1,1.86,5.2l-1.6.527A30.7,30.7,0,0,0,225.6-24.99Zm-12.568,1.772A88.528,88.528,0,0,0,211.23-8.5a71.158,71.158,0,0,0,.718,9.3L209.854,1q-.688-6.68-.688-9.551a65.4,65.4,0,0,1,.615-7.9q.483-3.779,1.128-6.943Zm15.776-2.52,1.538-.454a23.3,23.3,0,0,1,1.772,5.068l-1.6.513A29.383,29.383,0,0,0,228.809-25.737Zm10.181,1.714,2.08.029q-.044,1.26-.146,2.959-.073,1.318-.1,2.139l.908.776a.4.4,0,0,1,.117.293.565.565,0,0,1-.117.337,12.05,12.05,0,0,0-1,1.919l-.088,1.143-.146,1.113.542-1.172a24.449,24.449,0,0,1,4.175-4.482,5.866,5.866,0,0,1,3.53-1.333,3.131,3.131,0,0,1,2.886,1.362,6.542,6.542,0,0,1,.718,3.428q0,2.388-.278,6.006-.264,3.838-.264,5.068a3.586,3.586,0,0,0,.337,1.86.968.968,0,0,0,.894.425q1.8,0,2.813-4.922l1.8,1.172a10.81,10.81,0,0,1-2.139,4.775,3.457,3.457,0,0,1-2.622,1.1,2.87,2.87,0,0,1-2.373-.879,5.226,5.226,0,0,1-.747-3.179q0-2.227.205-5.479.234-3.779.234-5.376a8.032,8.032,0,0,0-.322-2.783,1.207,1.207,0,0,0-1.2-.791q-3.018,0-8.1,7.383V1.2h-2.065q0-5.01.117-9.565l.293-1.89-.776,1.787q-1.187,2.783-2.783,5.83l-1.685-1.406q1.392-2.417,4.98-9.3.073-1.67.117-3.75-.557.044-4.409.469l-.117-1.787q2.725-.249,4.585-.454.015-.762.073-2.417Q238.975-22.9,238.989-24.023Zm24.36,1.611q3.97-.029,12.2-.425l1.26,1.567q-5.845,5.933-9.272,8.906l-1.348,1.172.117.088,1.538-1.04a9.888,9.888,0,0,1,4.233-1.143,7.6,7.6,0,0,1,5.8,2.139,6.581,6.581,0,0,1,1.729,4.731A7.107,7.107,0,0,1,276.87-.322a11.393,11.393,0,0,1-6.9,1.816q-5.874,0-5.874-3.984a3.483,3.483,0,0,1,1.26-2.812,4.655,4.655,0,0,1,3.062-.967,4.937,4.937,0,0,1,3.809,1.611,7.381,7.381,0,0,1,1.685,3.6,5.526,5.526,0,0,0,2.7-2.095,6.261,6.261,0,0,0,.776-3.3,4.781,4.781,0,0,0-1.86-4.014,5.723,5.723,0,0,0-3.574-1.128A10.5,10.5,0,0,0,264.7-8.672a26.672,26.672,0,0,0-2.49,2.607L260.435-7.5q7.178-7.383,13.14-13.447-4.307.322-10.225.483ZM271.8-.454a6.481,6.481,0,0,0-1.333-3.062,2.732,2.732,0,0,0-2.109-1.011,2.4,2.4,0,0,0-1.729.645,1.775,1.775,0,0,0-.586,1.333,1.864,1.864,0,0,0,1,1.772,6.154,6.154,0,0,0,2.783.483A12.934,12.934,0,0,0,271.8-.454Z"
											transform="translate(0 54.935)" fill="#215f87" />
										<path id="Контур_1737" data-name="Контур 1737"
											d="M25.593-10.9a11.227,11.227,0,0,1-.98,4.74,10.466,10.466,0,0,1-2.766,3.652,12.767,12.767,0,0,1-4.283,2.35,17.327,17.327,0,0,1-5.505.833Q6.553.671,3.3-1.423V-6.15a14.03,14.03,0,0,0,8.916,3.062,12.117,12.117,0,0,0,3.639-.51,8.159,8.159,0,0,0,2.793-1.477,6.561,6.561,0,0,0,1.8-2.336,7.3,7.3,0,0,0,.631-3.088q0-7.546-10.742-7.546h-3.2V-21.78h3.035q9.507,0,9.507-7.09,0-6.553-7.251-6.553A12.346,12.346,0,0,0,4.78-32.683v-4.27a16.733,16.733,0,0,1,8.755-2.2,13.452,13.452,0,0,1,4.377.671A10.03,10.03,0,0,1,21.27-36.6a8.331,8.331,0,0,1,2.162,2.9,8.952,8.952,0,0,1,.765,3.733q0,7.6-7.681,9.775v.107a12.149,12.149,0,0,1,3.625.953,9.674,9.674,0,0,1,2.874,1.92,8.56,8.56,0,0,1,1.893,2.78A8.874,8.874,0,0,1,25.593-10.9Z"
											transform="translate(0 98.91)" fill="#215f87" />
									</g>
								</g>
								<path id="Контур_1736" data-name="Контур 1736"
									d="M3.144-19.566,2.4-22.131q11.508-2.62,14.869-2.62,4.842,0,7.263,3.378,2.1,2.927,2.1,8.021A12.3,12.3,0,0,1,25-7.028a10.344,10.344,0,0,1-3.686,3.7Q17.2-.939,9.774-.145L8.834-2.583q6.757-.632,10.334-2.71a8.9,8.9,0,0,0,4.661-8.166q0-8.925-6.811-8.925Q13.658-22.384,3.144-19.566Z"
									transform="translate(22.484 99.439)" fill="#215f87" />
								<path id="Контур_1735" data-name="Контур 1735"
									d="M16.91-24.191q-.849,12.683-3.92,19.458-1.789,3.92-5,3.92a4.622,4.622,0,0,1-4.246-2.8,15.843,15.843,0,0,1-1.409-7.371A19.387,19.387,0,0,1,3.541-17.9a13.516,13.516,0,0,1,2.746-4.553,12.354,12.354,0,0,1,4.535-2.981,14.341,14.341,0,0,1,5.2-.976q6.45,0,9.395,3.957,2.547,3.469,2.547,10.063A13.516,13.516,0,0,1,25-3.415,14.794,14.794,0,0,1,16.35,1.3L15.067-.921Q25.2-2.854,25.2-13.1q0-5.817-2.728-8.726A7.423,7.423,0,0,0,16.91-24.191Zm-2.782.289a8.127,8.127,0,0,0-3.415,1.066,11.784,11.784,0,0,0-2.8,2.457Q4.878-16.91,4.878-10.912A12.166,12.166,0,0,0,5.962-5.293q.867,1.626,1.987,1.626a2.168,2.168,0,0,0,1.644-.687,6.724,6.724,0,0,0,1.174-2.005Q13.586-13.008,14.128-23.9Z"
									transform="translate(46.513 99.439)" fill="#215f87" />
								<path id="Контур_1734" data-name="Контур 1734"
									d="M35.609.452q0,.289-.253.289L30.1.668H16.549L11.292.741A.255.255,0,0,1,11,.452V-1.192a.255.255,0,0,1,.289-.289l5.257.072h6.323V-6.215H20.036l-4.86.072q-.289,0-.289-.307V-8.04a.255.255,0,0,1,.289-.289l4.86.072h2.836v-4.209H20.036l-4.86.072q-.325,0-.325-.253l.072-4.083v-7.479l-.072-3.975q0-.307.325-.307l4.86.072h8.2l4.86-.072q.289,0,.289.307l-.072,3.975v7.479l.072,4.083q0,.253-.289.253l-4.86-.072H25.022v4.209h3.451l4.842-.072a.255.255,0,0,1,.289.289v1.59q0,.307-.289.307l-4.842-.072H25.022v4.806H30.1l5.257-.072q.253,0,.253.289ZM31.165-14.4V-19.62H25.022V-14.4Zm0-7.064V-26.5H25.022v5.041ZM22.872-14.4V-19.62H17.037V-14.4Zm0-7.064V-26.5H17.037v5.041ZM13.839-9.955a7.981,7.981,0,0,0-.108,1.409q.018.271.018.379,0,.416-.6.777A68.777,68.777,0,0,1,4.878-3.541a6.3,6.3,0,0,0-1.319.6.955.955,0,0,1-.488.217q-.235,0-.379-.325a14.876,14.876,0,0,1-.65-2.132,16.921,16.921,0,0,0,3.4-.921l1.59-.6v-9.25h-.6l-3.288.09q-.289,0-.289-.307v-1.554a.255.255,0,0,1,.289-.289l3.288.072h.6v-7.913H6.179l-3.6.072q-.253,0-.253-.307v-1.59q0-.289.253-.289l3.6.072H9.955l3.559-.072a.256.256,0,0,1,.289.289v1.59q0,.307-.289.307l-3.559-.072H9.214v7.913h.416l3.324-.072q.253,0,.253.289v1.554q0,.307-.253.307l-3.324-.09H9.214v8.329A46.221,46.221,0,0,0,13.839-9.955Z"
									transform="translate(73.056 99.439)" fill="#215f87" />
								<path id="Контур_1733" data-name="Контур 1733"
									d="M32.52,1.969q0,.253-.289.253H30.406q-.289,0-.289-.253V0H6.919V2.042a.255.255,0,0,1-.289.289H4.842a.255.255,0,0,1-.289-.289L4.625-8.311v-6.179l-.072-7.859a.255.255,0,0,1,.289-.289l5.221.072h6.992v-2.891a31.383,31.383,0,0,0-.289-4.986,23.945,23.945,0,0,1,2.583.217q.452.072.452.325a1.162,1.162,0,0,1-.072.343q-.09.271-.108.361a17.963,17.963,0,0,0-.235,3.667v2.963h7.624l5.221-.072a.255.255,0,0,1,.289.289l-.072,7.154v6.847Zm-2.4-4.083v-8.419H19.385v8.419Zm-13.062,0v-8.419H6.919v8.419Zm13.062-10.5v-7.841H19.385v7.841Zm-13.062,0v-7.841H6.919v7.841Z"
									transform="translate(109.232 99.439)" fill="#215f87" />
							</g>
						</g>
					</svg>