<svg xmlns="http://www.w3.org/2000/svg" width="70.198" height="13.631" viewBox="0 0 70.198 13.631">
  <path id="Контур_1739" data-name="Контур 1739" d="M-31.066-11.73A8.836,8.836,0,0,0-33.6-8.483a8.068,8.068,0,0,0-.581,3.165A7.883,7.883,0,0,0-33.4-1.736a9.239,9.239,0,0,0,2.338,2.83l-.349.4a9.614,9.614,0,0,1-2.939-3.37,7.781,7.781,0,0,1-.731-3.445,7.659,7.659,0,0,1,.964-3.89,10.156,10.156,0,0,1,2.707-2.926ZM-24.654-9.8v6.474H-23.4V-2.3h-1.258V0h-1.107V-2.3h-4.607v-.971q.643-.725,1.3-1.548t1.254-1.671q.6-.848,1.107-1.692A15.463,15.463,0,0,0-25.85-9.8ZM-29.1-3.329h3.343v-4.8q-.513.9-.971,1.6T-27.6-5.25q-.414.574-.79,1.039T-29.1-3.329Zm13.159-1.613a9.63,9.63,0,0,1-.222,2.181,5.081,5.081,0,0,1-.643,1.6,2.892,2.892,0,0,1-1.032.991,2.826,2.826,0,0,1-1.391.338,2.639,2.639,0,0,1-1.316-.325,2.758,2.758,0,0,1-.974-.947,4.8,4.8,0,0,1-.6-1.528A9.447,9.447,0,0,1-22.33-4.7a10.694,10.694,0,0,1,.215-2.27,5.191,5.191,0,0,1,.632-1.651,2.814,2.814,0,0,1,1.036-1,2.908,2.908,0,0,1,1.418-.338Q-15.945-9.967-15.945-4.942Zm-1.148.109q0-4.184-1.989-4.184-2.1,0-2.1,4.259,0,3.972,2.058,3.972Q-17.093-.786-17.093-4.833ZM-1.931-1.709Q-2.225.813-3.278.813a2.419,2.419,0,0,1-1.7-.978A8.1,8.1,0,0,1-6.313-2.283,15.25,15.25,0,0,1-7.5-6.426l-1.374.171q-1.183.137-1.914.26a.294.294,0,0,1-.055.007q-.075,0-.089-.116l-.082-.656v-.055q0-.075.116-.075.458,0,1.941-.178l1.34-.171q-.144-1.135-.205-2.324a13.756,13.756,0,0,0-.157-1.723,6.358,6.358,0,0,1,.957.062q.185.021.185.137,0,.014-.075.267a1.554,1.554,0,0,0-.048.479q0,.239.014.738.075,1.326.2,2.27l2.311-.294q.9-.109,1.511-.212.164-.021.328-.055.1-.014.109-.014a.225.225,0,0,1,.055-.007q.055,0,.068.1l.062.656A.294.294,0,0,1-2.3-7.1q0,.062-.109.075L-4.378-6.8l-2.27.28A13.8,13.8,0,0,0-5.541-2.687,6.835,6.835,0,0,0-4.29-.745a1.481,1.481,0,0,0,.93.567q.492,0,.67-2.3a2.111,2.111,0,0,0,.561.376q.219.109.219.219A1.236,1.236,0,0,1-1.931-1.709Zm-8.395-9.311a.265.265,0,0,1-.116.2,1.7,1.7,0,0,0-.28.533,17.161,17.161,0,0,1-1.06,2.311v6.72l.027,2.167q0,.116-.13.116h-.67q-.109,0-.109-.116l.027-2.167V-4.744q0-.6.027-1.894A17.46,17.46,0,0,1-14.167-4.73q-.123.123-.178.123-.082,0-.144-.137a1.873,1.873,0,0,0-.376-.574,14.579,14.579,0,0,0,3.336-5.223,4.883,4.883,0,0,0,.219-.95,5.667,5.667,0,0,1,.841.321Q-10.326-11.115-10.326-11.02Zm6.911,1.839a.157.157,0,0,1,.048.082q0,.048-.116.144l-.355.26q-.123.109-.164.109t-.082-.062A8.054,8.054,0,0,0-5.6-10.261q-.062-.055-.062-.089t.13-.15l.321-.239a.3.3,0,0,1,.137-.068.138.138,0,0,1,.082.041A10.353,10.353,0,0,1-3.415-9.181ZM15.453-7.349a.1.1,0,0,1-.109.109L13.5-7.267H12.91a10.552,10.552,0,0,1-2.03,4.621q1.7.93,3.958,2.447a.11.11,0,0,1,.048.075.283.283,0,0,1-.075.15l-.321.39q-.123.157-.171.157a.2.2,0,0,1-.1-.041A44.26,44.26,0,0,0,10.292-2,10.587,10.587,0,0,1,4.378.684Q4.249.7,4.214.7,4.078.7,3.975.444a1.709,1.709,0,0,0-.4-.574A10.115,10.115,0,0,0,9.451-2.468,31.231,31.231,0,0,0,6.368-3.849q-.267.431-.52.779-.062.082-.109.082a.563.563,0,0,1-.157-.055L5.151-3.22Q4.98-3.3,4.98-3.377a.157.157,0,0,1,.048-.1,13.754,13.754,0,0,0,.909-1.347,24.538,24.538,0,0,0,1.2-2.447H5.363L3.51-7.239A.1.1,0,0,1,3.4-7.349v-.629q0-.13.109-.13l1.853.027H7.475q.41-1.053.745-2.126A5.453,5.453,0,0,0,8.4-11.3a7.664,7.664,0,0,1,.909.171q.185.055.185.164a.5.5,0,0,1-.109.226,2.106,2.106,0,0,0-.253.6q-.342,1.08-.718,2.058H13.5l1.846-.027q.109,0,.109.13Zm-3.486.082H8.09A26.3,26.3,0,0,1,6.778-4.553a34.6,34.6,0,0,1,3.274,1.47A9.216,9.216,0,0,0,11.966-7.267ZM29.808.28Q29.808.4,29.7.4L27.737.376H23.075L21.113.4Q21,.4,21,.28V-.314a.1.1,0,0,1,.109-.109L23.075-.4H25.1v-3.4H24.039l-1.8.027a.1.1,0,0,1-.109-.109V-4.45q0-.116.109-.116l1.8.027H25.1V-7.513H22.89a12.344,12.344,0,0,1-.991,2q-.123.185-.171.185a.4.4,0,0,1-.178-.082,1.7,1.7,0,0,0-.561-.226,9.991,9.991,0,0,0,1.148-2.146,10.6,10.6,0,0,0,.615-2.01,4.645,4.645,0,0,0,.055-.745,4.872,4.872,0,0,1,.827.226q.171.068.171.15a.333.333,0,0,1-.082.185,1.038,1.038,0,0,0-.171.4,13.04,13.04,0,0,1-.4,1.319H25.1V-9.714A13.516,13.516,0,0,0,25-11.635a7.294,7.294,0,0,1,.923.089q.171.021.171.109a1.2,1.2,0,0,1-.055.253,6.665,6.665,0,0,0-.1,1.442v1.483h1.483l1.791-.027q.116,0,.116.109v.581q0,.109-.116.109l-1.791-.027H25.932v2.974h1.053l1.791-.027q.109,0,.109.116v.574a.1.1,0,0,1-.109.109l-1.791-.027H25.932V-.4h1.8L29.7-.424a.1.1,0,0,1,.109.109ZM19.971-11.437a2.443,2.443,0,0,1-.055.253,5.688,5.688,0,0,0-.1,1.442v8.128L19.841.854a.1.1,0,0,1-.109.109h-.663a.1.1,0,0,1-.109-.109l.027-2.447V-9.714a11.742,11.742,0,0,0-.109-1.907,6.064,6.064,0,0,1,.923.068Q19.971-11.525,19.971-11.437ZM18.426-8.374A10.139,10.139,0,0,1,17.811-5.5q-.027.062-.075.062a.361.361,0,0,1-.123-.034L17.264-5.6q-.185-.062-.185-.116a.315.315,0,0,1,.027-.109,9.207,9.207,0,0,0,.588-2.755q.014-.089.068-.089a.776.776,0,0,1,.144.027l.362.116q.157.041.157.109Zm2.98,1.429a.308.308,0,0,1,.014.062q0,.068-.15.123l-.308.123a.66.66,0,0,1-.171.048q-.062,0-.068-.089a12.326,12.326,0,0,0-.506-1.935.157.157,0,0,1-.021-.062q0-.048.178-.116l.28-.116a.315.315,0,0,1,.109-.027q.062,0,.082.075A14.419,14.419,0,0,1,21.407-6.945Zm9.687-4.785.349-.4a9.614,9.614,0,0,1,2.939,3.37,7.781,7.781,0,0,1,.731,3.445,7.659,7.659,0,0,1-.964,3.89A10.156,10.156,0,0,1,31.442,1.5l-.349-.4a8.836,8.836,0,0,0,2.529-3.247A8.068,8.068,0,0,0,34.2-5.318,7.883,7.883,0,0,0,33.431-8.9,9.239,9.239,0,0,0,31.093-11.73Z" transform="translate(35.085 12.134)" fill="#595757"/>
</svg>
