	<svg xmlns="http://www.w3.org/2000/svg" width="235.505" height="13.303"
											viewBox="0 0 235.505 13.303">
											<path id="Контур_1732" data-name="Контур 1732"
												d="M-105.861-1.312a3.147,3.147,0,0,1-.294,1.148,1.371,1.371,0,0,1-.458.485,5.926,5.926,0,0,1-2.741.4,14.036,14.036,0,0,1-2.509-.15,1.079,1.079,0,0,1-.8-1.2V-1.3h-3.1v.67q0,.109-.116.109h-.615q-.1,0-.1-.109l.027-1.285v-2.03l-.027-1.306q0-.123.1-.123l2.1.027h4.5l2.071-.027q.109,0,.109.123l-.027,1.237v1.4l.027,1.23a.1.1,0,0,1-.109.109L-109.9-1.3h-1.948v.444a.838.838,0,0,0,.15.567.686.686,0,0,0,.383.185,14.27,14.27,0,0,0,1.928.082,4.752,4.752,0,0,0,2.3-.349.872.872,0,0,0,.314-.513,5.207,5.207,0,0,0,.123-1.087,2.542,2.542,0,0,0,.588.308q.219.075.219.2A1.272,1.272,0,0,1-105.861-1.312Zm-2.7-.629V-3.049h-3.288v1.107Zm-4.1,0V-3.049h-3.1v1.107Zm4.1-1.723V-4.689h-3.288v1.025Zm-4.1,0V-4.689h-3.1v1.025Zm6.487-3.069q0,.109-.13.109h-.6a.1.1,0,0,1-.109-.109V-8.791h-4.765v1.5l.027,1.388a.1.1,0,0,1-.109.109h-.663a.1.1,0,0,1-.109-.109l.027-1.388v-1.5h-4.532v2.058a.1.1,0,0,1-.109.109h-.615q-.116,0-.116-.109l.027-1.429V-8.62l-.027-.731a.1.1,0,0,1,.109-.109l1.907.027h3.356v-.889h-2.379l-1.982.027q-.116,0-.116-.109v-.533q0-.109.116-.109l1.982.027h5.852l1.982-.027a.1.1,0,0,1,.109.109v.533a.1.1,0,0,1-.109.109l-1.982-.027h-2.646v.889h3.575l1.907-.027q.123,0,.123.109l-.027.643v.547Zm-1.812-.854q0,.116-.109.116l-.95-.014h-.745l-.937.014a.1.1,0,0,1-.116-.116v-.39q0-.109.116-.109l.937.027h.745l.95-.027a.1.1,0,0,1,.109.109Zm0,1.258q0,.116-.109.116l-.95-.027h-.745l-.937.027a.1.1,0,0,1-.116-.116v-.39q0-.109.116-.109l.937.027h.745l.95-.027a.1.1,0,0,1,.109.109Zm-5.53-1.258q0,.116-.109.116l-.909-.014h-.656l-.916.014q-.109,0-.109-.116v-.39a.1.1,0,0,1,.109-.109l.916.027h.656l.909-.027a.1.1,0,0,1,.109.109Zm0,1.258q0,.116-.109.116l-.909-.027h-.656l-.916.027q-.109,0-.109-.116v-.39a.1.1,0,0,1,.109-.109l.916.027h.656l.909-.027a.1.1,0,0,1,.109.109Zm21.731-.15q0,.109-.116.109L-93.775-6.4h-1.456v2.311h.813l1.668-.027a.1.1,0,0,1,.109.109l-.027,1.319V-1.5l.027,2.324a.1.1,0,0,1-.109.109h-.636A.1.1,0,0,1-93.5.827V.212h-4.17v.7q0,.116-.109.116h-.636q-.109,0-.109-.116l.027-2.365V-2.5l-.027-1.5a.1.1,0,0,1,.109-.109l1.668.027h.67V-6.4h-1.176l-1.859.027a.1.1,0,0,1-.109-.109v-.608a.1.1,0,0,1,.109-.109l1.859.027h1.176V-9.543q-1.135.253-2.338.417a1.11,1.11,0,0,1-.137.014q-.1,0-.185-.212a1.467,1.467,0,0,0-.335-.526,18.085,18.085,0,0,0,5.038-1.121,3.289,3.289,0,0,0,.827-.465,4.28,4.28,0,0,1,.574.588.348.348,0,0,1,.1.212q0,.109-.226.109a1.147,1.147,0,0,0-.431.1q-1.046.39-2.044.67v2.584h1.456L-91.9-7.2q.116,0,.116.109ZM-93.5-.533v-2.81h-4.17v2.81ZM-99.75.663q0,.109-.116.109h-.574a.1.1,0,0,1-.109-.109V.2h-2.27V.909q0,.116-.109.116h-.574a.1.1,0,0,1-.116-.116l.027-2.058V-2l-.027-1.217a.1.1,0,0,1,.109-.109l1.237.027h1.162l1.251-.027a.1.1,0,0,1,.109.109l-.027,1v.909Zm-.8-1.148V-2.618h-2.27V-.485Zm1.189-7.841q0,.123-.116.123l-1.47-.027h-1.723l-1.47.027q-.109,0-.109-.123v-.581a.1.1,0,0,1,.109-.109l1.47.027h1.723l1.47-.027q.116,0,.116.109Zm-.335-1.935q0,.109-.116.109l-1.23-.027h-1.2l-1.23.027q-.116,0-.116-.109v-.561q0-.109.116-.109l1.23.027h1.2l1.23-.027q.116,0,.116.109Zm-.2,5.694q0,.116-.13.116l-1.142-.027h-1.053l-1.162.027q-.109,0-.109-.116v-.547a.1.1,0,0,1,.109-.109l1.162.027h1.053l1.142-.027q.13,0,.13.109Zm0-1.859q0,.109-.13.109l-1.142-.027h-1.053l-1.162.027a.1.1,0,0,1-.109-.109v-.547a.1.1,0,0,1,.109-.109l1.162.027h1.053l1.142-.027q.13,0,.13.109Zm15.846-1.928a.1.1,0,0,1-.109.109l-.144-.007q-.417-.014-.95-.021a14.181,14.181,0,0,1-.984,4.437,23.579,23.579,0,0,1,1.654,2.324.155.155,0,0,1,.048.089q0,.041-.116.137l-.39.362a.168.168,0,0,1-.1.062q-.055,0-.1-.089a22.6,22.6,0,0,0-1.374-2.1A10.2,10.2,0,0,1-89.592.424.374.374,0,0,1-89.8.533q-.062,0-.178-.15a1.865,1.865,0,0,0-.479-.437,9.806,9.806,0,0,0,3.274-3.739,30.3,30.3,0,0,0-2.153-2.338q-.055-.041-.055-.068t.082-.109l.335-.308a.271.271,0,0,1,.123-.075q.027,0,.075.048Q-87.6-5.469-86.837-4.56a11.95,11.95,0,0,0,.731-3.712h-2.283l-1.736.027a.1.1,0,0,1-.109-.109v-.588q0-.116.109-.116l1.736.027h.923v-.991a6.883,6.883,0,0,0-.109-1.442q.561.021.923.068.171.021.171.13a.9.9,0,0,1-.089.253,3.83,3.83,0,0,0-.068.991v.991h.745l1.736-.027q.109,0,.109.116Zm6.125.95a.1.1,0,0,1-.109.109l-1.5-.027V-2.5l.014,2.215A1.754,1.754,0,0,1-79.6.362a.958.958,0,0,1-.273.355,3.549,3.549,0,0,1-1.736.253h-.253a.445.445,0,0,1-.267-.048A.564.564,0,0,1-82.216.69,1.917,1.917,0,0,0-82.5.068q.649.062,1.552.062a.615.615,0,0,0,.465-.137.6.6,0,0,0,.109-.41v-6.9h-1.7l-1.682.027a.1.1,0,0,1-.109-.109v-.608a.1.1,0,0,1,.109-.109l1.682.027h1.7V-9.721a12.334,12.334,0,0,0-.082-1.688q.4.014.909.068.171.021.171.123a.787.787,0,0,1-.089.267,5.79,5.79,0,0,0-.068,1.217v1.641l1.5-.027a.1.1,0,0,1,.109.109Zm-3.521,4.061a.268.268,0,0,1,.027.082q0,.048-.1.109l-.424.239a.441.441,0,0,1-.164.075q-.041,0-.089-.089a10.4,10.4,0,0,0-1.593-2.5.157.157,0,0,1-.048-.082q0-.041.116-.123l.362-.226a.318.318,0,0,1,.137-.062q.041,0,.089.062A10.145,10.145,0,0,1-81.443-3.343ZM-64.21-9.037a.1.1,0,0,1-.109.109l-1.948-.027H-74.2v1.9a28.453,28.453,0,0,1-.239,4.006A10.032,10.032,0,0,1-75.605.52q-.082.171-.144.171-.041,0-.178-.137a1.9,1.9,0,0,0-.533-.41,8.886,8.886,0,0,0,1.2-3.5,27.617,27.617,0,0,0,.2-3.794l-.027-2.5q0-.109.123-.109L-73-9.728h2.8v-.882a6.027,6.027,0,0,0-.082-1.135q.574.021.923.068.171.021.171.116a.853.853,0,0,1-.089.267,2.049,2.049,0,0,0-.068.67v.9h3.083l1.948-.027a.1.1,0,0,1,.109.109Zm-1.818,7.41A4.4,4.4,0,0,1-66.295-.2a1.389,1.389,0,0,1-.437.547,3.483,3.483,0,0,1-1.9.349A3.742,3.742,0,0,1-70.608.362,1.5,1.5,0,0,1-70.943-.8V-3.992a13.963,13.963,0,0,0-.089-1.791,6.2,6.2,0,0,1,.9.1q.2.048.2.123a.752.752,0,0,1-.1.28,5.212,5.212,0,0,0-.082,1.326V-1.3a6.977,6.977,0,0,0,.021.738.548.548,0,0,0,.205.321,2.64,2.64,0,0,0,1.285.178,2.394,2.394,0,0,0,1.347-.267,1.135,1.135,0,0,0,.349-.69A8.118,8.118,0,0,0-66.8-2.256a2.292,2.292,0,0,0,.561.28q.226.082.226.191Q-66.015-1.743-66.028-1.627Zm2.037.144a.217.217,0,0,1,.014.062q0,.062-.191.15l-.376.178a.585.585,0,0,1-.185.075q-.048,0-.068-.1A15.215,15.215,0,0,0-66.213-4.73a.168.168,0,0,1-.027-.075q0-.041.164-.123l.355-.15a.394.394,0,0,1,.144-.068q.034,0,.075.068A15.322,15.322,0,0,1-63.991-1.483Zm-7.978-3.138A13.4,13.4,0,0,1-73.2-.854q-.041.068-.082.068a.593.593,0,0,1-.157-.068l-.417-.212Q-74-1.142-74-1.189a.173.173,0,0,1,.027-.082,10.7,10.7,0,0,0,1.2-3.555q.014-.1.068-.1a1.028,1.028,0,0,1,.171.034l.4.1q.171.041.171.116A.2.2,0,0,1-71.969-4.621Zm4.478-1.832q.068.048.068.075a.472.472,0,0,1-.1.15l-.294.362q-.13.157-.164.157a.142.142,0,0,1-.068-.041,13.623,13.623,0,0,0-2.625-1.88q-.055-.027-.055-.055a.955.955,0,0,1,.1-.157l.267-.335q.089-.1.137-.1a.182.182,0,0,1,.082.034A14.342,14.342,0,0,1-67.491-6.453Zm8.771-1.107A41.522,41.522,0,0,1-61.366.28l-.923-.362a37.253,37.253,0,0,0,2.563-7.41q-.848.062-2.577.226l-.055-.882q.513-.034,1.518-.1l1.313-.089q.26-1.183.533-2.782l.991.137q-.308,1.6-.533,2.591.786-.055,1.429-.055a1.428,1.428,0,0,1,1.278.567,3.662,3.662,0,0,1,.4,1.982,19.506,19.506,0,0,1-.437,4.97,1.777,1.777,0,0,1-.636,1,1.828,1.828,0,0,1-1.073.28A9.249,9.249,0,0,1-58.994.253l-.171-.978a6.216,6.216,0,0,0,1.244.164A1.47,1.47,0,0,0-57.176-.7a.9.9,0,0,0,.335-.485A16.428,16.428,0,0,0-56.4-5.756a3.52,3.52,0,0,0-.219-1.538.713.713,0,0,0-.677-.321Q-57.935-7.615-58.721-7.561Zm4.108-3.992.711-.28a19.25,19.25,0,0,1,1.039,2.372l-.759.308A14.765,14.765,0,0,0-54.612-11.553Zm1.5-.472.7-.253a11.327,11.327,0,0,1,.991,2.3l-.725.294A13.487,13.487,0,0,0-53.115-12.024Zm-2.311,2.844.882-.451A16.879,16.879,0,0,1-52.138-4.8l-.978.458A14.513,14.513,0,0,0-55.426-9.181Zm8.572.294q.82-.068,2.071-.2l.014.868q-1.142.137-2.3.191A38.417,38.417,0,0,1-49.54-1.538l-.909-.424A29.976,29.976,0,0,0-48.07-7.978q-1.135.062-2.27.041l-.027-.868q1.176.041,2.522-.027.273-1.169.465-2.365l1.019.123Q-46.553-10.131-46.854-8.887Zm3,5.79q-.123-1.5-.144-3.568h.964q0,1.791.157,3.794a9.264,9.264,0,0,1,2.563,1.6l-.52.95a7.662,7.662,0,0,0-2.017-1.524v.232q0,2.229-2.475,2.229A2.629,2.629,0,0,1-47.168.034a1.665,1.665,0,0,1-.54-1.292,1.7,1.7,0,0,1,.889-1.5,3.244,3.244,0,0,1,1.757-.458A5.891,5.891,0,0,1-43.853-3.1Zm0,.93a4.031,4.031,0,0,0-1.162-.2,2.4,2.4,0,0,0-1.429.349.867.867,0,0,0-.383.731.886.886,0,0,0,.41.772,1.931,1.931,0,0,0,1.107.273,1.305,1.305,0,0,0,1.47-1.483Zm.055-6.357.444-.8a14.091,14.091,0,0,1,3.192,1.5l-.513.868A12.767,12.767,0,0,0-43.8-8.524Zm10.432-2.536.9.615q-2.119,2.454-4.382,4.607a.681.681,0,0,0-.267.479q0,.226.376.513a45.7,45.7,0,0,1,4.9,4.71l-.868.725a50.559,50.559,0,0,0-5.024-5.065,1.118,1.118,0,0,1-.465-.841,1.139,1.139,0,0,1,.362-.827A64.9,64.9,0,0,0-33.366-11.061Zm15.4,5.264q0,.116-.171.212a2.011,2.011,0,0,0-.5.465,11.817,11.817,0,0,1-1.812,1.736q-.144.123-.2.123a.871.871,0,0,1-.232-.157,2.794,2.794,0,0,0-.608-.335A8.584,8.584,0,0,0-19.5-5.489h-3.89V-2.42l.014,1.914A1.242,1.242,0,0,1-23.734.52a3.378,3.378,0,0,1-1.709.267h-.294q-.232,0-.273-.048A.64.64,0,0,1-26.1.492a2.856,2.856,0,0,0-.28-.69,14.115,14.115,0,0,0,1.456.089.739.739,0,0,0,.513-.13.585.585,0,0,0,.116-.417V-5.489h-3.541l-1.866.027a.1.1,0,0,1-.109-.109v-.677a.1.1,0,0,1,.109-.109l1.866.027h4.4a14.828,14.828,0,0,0-2.953-2.126q-.075-.041-.075-.062a.6.6,0,0,1,.1-.15l.28-.321q.075-.082.116-.082a.148.148,0,0,1,.075.034,15.9,15.9,0,0,1,1.784,1.1,17.941,17.941,0,0,0,3.09-2.071h-5.5l-1.969.027q-.1,0-.1-.109v-.649q0-.109.1-.109l1.969.027h5.865a1.046,1.046,0,0,0,.342-.041,1.254,1.254,0,0,1,.191-.068q.13,0,.438.308t.308.465q0,.116-.2.191a1.606,1.606,0,0,0-.485.294,18.988,18.988,0,0,1-3.363,2.235q.253.205.841.731.048.041.048.062a.686.686,0,0,1-.123.13l-.191.185h3.637a.792.792,0,0,0,.355-.055.42.42,0,0,1,.164-.055,1.068,1.068,0,0,1,.451.267Q-17.965-5.927-17.965-5.8ZM-10.6-4.491a.268.268,0,0,1,.021.089q0,.075-.178.13l-.321.1a.579.579,0,0,1-.137.027q-.062,0-.082-.089-.205-.629-.267-.807l-1.347.137v3.753L-12.879.9q0,.1-.109.1h-.636q-.109,0-.109-.1l.027-2.044V-4.833l-1.538.116a1.534,1.534,0,0,0-.533.109.422.422,0,0,1-.157.055q-.089,0-.137-.178-.055-.212-.144-.772.444.041.882.041h.171q.5-.649,1.053-1.456a19.586,19.586,0,0,0-2.064-2.153.146.146,0,0,1-.062-.1q0-.041.109-.157l.239-.294q.089-.1.13-.1t.089.062l.533.52q.52-.807.923-1.586a3.59,3.59,0,0,0,.369-.95q.376.15.779.349.157.075.157.185,0,.075-.123.15a.821.821,0,0,0-.239.294q-.738,1.224-1.347,2.085.479.479.937,1.025.52-.834.909-1.5a6.472,6.472,0,0,0,.561-1.189,5.8,5.8,0,0,1,.772.39.209.209,0,0,1,.123.171q0,.089-.137.178a2.63,2.63,0,0,0-.492.615Q-13.1-7.075-14.28-5.5q1.354-.075,2.468-.164a10.8,10.8,0,0,0-.547-1.08.168.168,0,0,1-.027-.075q0-.055.164-.123l.253-.1a.369.369,0,0,1,.15-.048q.055,0,.1.075A14.108,14.108,0,0,1-10.6-4.491Zm6.31-4.58Q-4.313-8.716-4.313-8a45.94,45.94,0,0,1-.451,6.788A3.462,3.462,0,0,1-5.373.417,1.439,1.439,0,0,1-6.515.9a10.86,10.86,0,0,1-1.3-.068A.457.457,0,0,1-8.08.752a.769.769,0,0,1-.082-.26,2.124,2.124,0,0,0-.226-.629A12.161,12.161,0,0,0-6.569.055a.759.759,0,0,0,.69-.506,4.283,4.283,0,0,0,.294-1.073,44.315,44.315,0,0,0,.39-6.87H-9.283a11.224,11.224,0,0,1-1.176,1.818q-.116.157-.2.157t-.205-.144a1.731,1.731,0,0,0-.451-.335,10.017,10.017,0,0,0,2.03-3.568A5.634,5.634,0,0,0-9.017-11.7a6.023,6.023,0,0,1,.868.226q.2.068.2.171a.392.392,0,0,1-.123.246,1.736,1.736,0,0,0-.355.677q-.144.451-.479,1.217H-5.92l1.511-.027A.109.109,0,0,1-4.286-9.071Zm-2.9,5.558a.221.221,0,0,1,.034.089q0,.055-.144.137l-.39.219a.535.535,0,0,1-.185.089q-.041,0-.082-.082a11.6,11.6,0,0,0-1.7-2.68.131.131,0,0,1-.048-.082q0-.048.144-.137l.349-.212a.282.282,0,0,1,.13-.062q.034,0,.082.062A11.163,11.163,0,0,1-7.185-3.514Zm-7.349-.014a.658.658,0,0,1-.068.164,1.3,1.3,0,0,0-.1.41,11.775,11.775,0,0,1-.684,2.728q-.055.2-.123.2a.525.525,0,0,1-.212-.109A1.1,1.1,0,0,0-16.2-.349a10.723,10.723,0,0,0,.759-2.762,2.92,2.92,0,0,0,.034-.437q0-.089-.007-.232a5.67,5.67,0,0,1,.684.109Q-14.533-3.63-14.533-3.527Zm3.9,2.475A.225.225,0,0,1-10.623-1q0,.1-.171.157l-.335.1a.612.612,0,0,1-.157.034q-.055,0-.082-.1A14.686,14.686,0,0,0-12.1-3.5a.262.262,0,0,1-.021-.082q0-.075.164-.116l.294-.082a.561.561,0,0,1,.116-.021q.068,0,.123.1A13.74,13.74,0,0,1-10.63-1.053ZM3.479-4.382v2.769H2.543V-3.951q-.321.164-.663.355Q.089-2.584.089-1.565a.927.927,0,0,0,.629.943A6.4,6.4,0,0,0,2.8-.39q1.47,0,3.411-.171l.041.95Q3.7.52,2.864.52A5.879,5.879,0,0,1-.1.007a1.772,1.772,0,0,1-.7-1.6,3.066,3.066,0,0,1,1.88-2.55q.711-.4,1.456-.772Q2.461-6.228,1.62-6.228q-1.176,0-3.227,2.365L-2.331-4.5a16.348,16.348,0,0,0,2.9-4.136Q-.711-8.62-2-8.641V-9.5q1.477.027,2.953,0a12.51,12.51,0,0,0,.629-1.873l1.012.185A14.377,14.377,0,0,1,2.01-9.536Q3.979-9.6,5.749-9.775l.027.854q-2.3.185-4.143.239A14.3,14.3,0,0,1,.458-6.692L.1-6.33l.041.055a2.492,2.492,0,0,1,1.668-.711,1.521,1.521,0,0,1,1.114.424,1.982,1.982,0,0,1,.526,1.217q1.094-.5,2.844-1.237l.39.957Q4.409-4.792,3.479-4.382ZM20.795.055a2.387,2.387,0,0,0-.376.622Q20.3.93,20.207.93A1.2,1.2,0,0,1,20.029.9,17.2,17.2,0,0,1,14.581-1.06,17.46,17.46,0,0,1,9.235.827a1.293,1.293,0,0,1-.191.027q-.1,0-.205-.239A1.861,1.861,0,0,0,8.477.041,16.089,16.089,0,0,0,13.85-1.606,8.963,8.963,0,0,1,11.642-4.45q-.485.007-.923.021l-.294.007q-.116,0-.116-.109v-.608q0-.109.116-.109l1.914.027H17.09a1.1,1.1,0,0,0,.335-.041l.082-.027a.224.224,0,0,1,.055-.014q.13,0,.424.308.267.267.267.383,0,.082-.13.164a1.584,1.584,0,0,0-.376.362,10.219,10.219,0,0,1-2.393,2.509A17.263,17.263,0,0,0,20.795.055Zm-3.808-4.5H12.523a7.157,7.157,0,0,0,2.071,2.393A8.917,8.917,0,0,0,16.987-4.45Zm3.363-.308a.1.1,0,0,1-.109.109h-.649a.1.1,0,0,1-.109-.109V-6.679H9.57v1.921a.1.1,0,0,1-.109.109H8.825a.1.1,0,0,1-.109-.109l.027-1.36v-.533l-.027-.711q0-.116.109-.116l1.921.027h5.8A11.765,11.765,0,0,0,17.562-9.3a3.017,3.017,0,0,0,.185-.615q.458.15.759.28.15.062.15.15a.4.4,0,0,1-.137.226,1.713,1.713,0,0,0-.267.39,13.872,13.872,0,0,1-.827,1.415h.9l1.921-.027q.109,0,.109.116l-.027.643V-6.1ZM19.312-10.78q0,.144-.185.144a2.97,2.97,0,0,0-.54.055q-1.887.362-4.033.588-2.543.246-4.621.321a.187.187,0,0,0-.041.007H9.83a.141.141,0,0,1-.13-.055,1.288,1.288,0,0,1-.089-.219,2.081,2.081,0,0,0-.294-.547q2.639-.041,5.12-.28a28.78,28.78,0,0,0,3.028-.431,5.6,5.6,0,0,0,1.046-.328,6.018,6.018,0,0,1,.69.554A.3.3,0,0,1,19.312-10.78ZM15.1-7.991a.317.317,0,0,1,.007.062q0,.055-.164.109l-.4.123a.7.7,0,0,1-.157.034q-.062,0-.082-.109a7.851,7.851,0,0,0-.547-1.49.232.232,0,0,1-.034-.082q0-.055.178-.116l.376-.123a.363.363,0,0,1,.116-.034q.055,0,.109.089A6.8,6.8,0,0,1,15.1-7.991Zm-2.939,0a.217.217,0,0,1,.014.062q0,.055-.157.123l-.39.137a.588.588,0,0,1-.164.041q-.068,0-.1-.109a5.412,5.412,0,0,0-.649-1.333.148.148,0,0,1-.034-.075q0-.034.164-.1l.362-.157a.422.422,0,0,1,.123-.034q.055,0,.1.075A7.566,7.566,0,0,1,12.161-7.991ZM34.815.294A.1.1,0,0,1,34.706.4L32.717.376h-5.2L25.532.4a.1.1,0,0,1-.109-.109V-.328a.1.1,0,0,1,.109-.109l1.989.027h2.058v-3.65H28.513l-1.859.027q-.1,0-.1-.109v-.608q0-.109.1-.109l1.859.027h1.066v-2.96H28.191l-1.9.027q-.116,0-.116-.109v-.608q0-.109.116-.109l1.9.027h4.047l1.935-.027a.1.1,0,0,1,.109.109v.608a.1.1,0,0,1-.109.109l-1.935-.027H30.461v2.96h1.388l1.846-.027q.13,0,.13.109v.608q0,.109-.13.109l-1.846-.027H30.461V-.41h2.256l1.989-.027a.1.1,0,0,1,.109.109ZM25.348-3.192A32.263,32.263,0,0,1,23.823.014q-.28.54-.294.588-.048.157-.144.157a.4.4,0,0,1-.178-.082,7.623,7.623,0,0,1-.643-.506,5.1,5.1,0,0,0,.793-1.107A27.331,27.331,0,0,0,24.8-4.047a2.185,2.185,0,0,0,.41.438q.191.144.191.219A.881.881,0,0,1,25.348-3.192Zm5.968-6.692a.113.113,0,0,1,.048.082q0,.055-.109.157l-.308.349q-.1.116-.157.116a.157.157,0,0,1-.1-.048,10.8,10.8,0,0,0-2.229-1.688q-.055-.041-.055-.075t.116-.15l.308-.308q.1-.1.144-.1a.262.262,0,0,1,.082.021A11.869,11.869,0,0,1,31.315-9.885ZM24.944-6.344a.137.137,0,0,1,.041.075.348.348,0,0,1-.082.15l-.294.39q-.089.109-.123.109a.168.168,0,0,1-.1-.062A10.175,10.175,0,0,0,22.5-7.2q-.048-.034-.048-.068a.339.339,0,0,1,.075-.137l.253-.342q.075-.089.123-.089a.224.224,0,0,1,.1.034A10.011,10.011,0,0,1,24.944-6.344Zm.827-3.329a.114.114,0,0,1,.041.075.339.339,0,0,1-.089.15l-.28.349q-.075.1-.137.1a.129.129,0,0,1-.1-.062,11.837,11.837,0,0,0-1.859-1.579q-.075-.055-.075-.089a.284.284,0,0,1,.082-.137l.28-.294q.089-.1.137-.1a.148.148,0,0,1,.075.034A10.424,10.424,0,0,1,25.771-9.673ZM43.224-7.157l.718-.273a18.274,18.274,0,0,1,1.032,2.365l-.752.308A15.123,15.123,0,0,0,43.224-7.157Zm1.586-.472.7-.253a11.566,11.566,0,0,1,1,2.3l-.731.294A13.487,13.487,0,0,0,44.81-7.629Zm.39-2.632.027.964a5.312,5.312,0,0,0-2.311.629,5.934,5.934,0,0,0-2.071,1.962,4.817,4.817,0,0,0-.813,2.659,2.958,2.958,0,0,0,1.285,2.529,6.17,6.17,0,0,0,2.933,1l-.239,1A6.1,6.1,0,0,1,40.38-.9a3.89,3.89,0,0,1-1.312-3.049,5.709,5.709,0,0,1,2.994-5.024l.759-.335-.014-.027-.656.109q-1.189.068-5.66.479l-.082-.923Q38.411-9.823,45.2-10.261ZM53.765-6.33a12.542,12.542,0,0,0,2.078,2.857l-.574.9a7.984,7.984,0,0,0-3.657-.854,3.849,3.849,0,0,0-2,.444,1.157,1.157,0,0,0-.643,1.012q0,.813,1.1,1.21a7.484,7.484,0,0,0,2.5.335q.82,0,1.976-.089V.465q-.615.041-2.017.041-4.546,0-4.546-2.365a1.971,1.971,0,0,1,1.066-1.8,5.521,5.521,0,0,1,2.741-.567,6.3,6.3,0,0,1,2.851.615A11.321,11.321,0,0,1,52.8-6.2a34.235,34.235,0,0,1-4.341.28l-.137-.854A33.363,33.363,0,0,0,52.411-7q-.444-1.019-.69-1.682-1.757.185-3.794.226L47.8-9.338a34.558,34.558,0,0,0,3.637-.171q-.205-.567-.526-1.62l1-.1q.246.9.479,1.62,1.422-.171,3.063-.52l.144.854q-1.647.328-2.912.479a16.614,16.614,0,0,0,.684,1.668q1.47-.212,2.6-.479l.171.841Q55.043-6.528,53.765-6.33Zm5.66-4.129q1.853-.014,5.694-.2l.588.731Q62.979-7.157,61.38-5.77l-.629.547.055.041.718-.485A4.614,4.614,0,0,1,63.5-6.2a3.547,3.547,0,0,1,2.707,1,3.071,3.071,0,0,1,.807,2.208A3.316,3.316,0,0,1,65.734-.15,5.317,5.317,0,0,1,62.515.7q-2.741,0-2.741-1.859a1.625,1.625,0,0,1,.588-1.312,2.172,2.172,0,0,1,1.429-.451,2.3,2.3,0,0,1,1.777.752,3.445,3.445,0,0,1,.786,1.682,2.579,2.579,0,0,0,1.258-.978,2.922,2.922,0,0,0,.362-1.538,2.231,2.231,0,0,0-.868-1.873,2.671,2.671,0,0,0-1.668-.526,4.9,4.9,0,0,0-3.384,1.36A12.447,12.447,0,0,0,58.892-2.83l-.827-.67q3.35-3.445,6.132-6.275-2.01.15-4.771.226ZM63.369-.212a3.024,3.024,0,0,0-.622-1.429,1.275,1.275,0,0,0-.984-.472,1.119,1.119,0,0,0-.807.3.828.828,0,0,0-.273.622.87.87,0,0,0,.465.827,2.872,2.872,0,0,0,1.3.226A6.036,6.036,0,0,0,63.369-.212ZM74.375-9.153a22.039,22.039,0,0,1-1.483,7.362A2.1,2.1,0,0,1,71-.308a1.749,1.749,0,0,1-1.606-1.06,6,6,0,0,1-.533-2.789,7.336,7.336,0,0,1,.458-2.618A5.114,5.114,0,0,1,70.355-8.5a4.675,4.675,0,0,1,1.716-1.128,5.426,5.426,0,0,1,1.969-.369,4.139,4.139,0,0,1,3.555,1.5,6.371,6.371,0,0,1,.964,3.808,5.114,5.114,0,0,1-1.121,3.4A5.6,5.6,0,0,1,74.163.492l-.485-.841a4.243,4.243,0,0,0,3.835-4.607,4.671,4.671,0,0,0-1.032-3.3A2.809,2.809,0,0,0,74.375-9.153Zm-1.053.109a3.075,3.075,0,0,0-1.292.4,4.459,4.459,0,0,0-1.06.93,5.252,5.252,0,0,0-1.148,3.582A4.6,4.6,0,0,0,70.232-2q.328.615.752.615a.82.82,0,0,0,.622-.26,2.544,2.544,0,0,0,.444-.759A19.819,19.819,0,0,0,73.322-9.044ZM83.781-7.561A41.522,41.522,0,0,1,81.136.28l-.923-.362a37.252,37.252,0,0,0,2.563-7.41q-.848.062-2.577.226l-.055-.882q.513-.034,1.518-.1l1.313-.089q.26-1.183.533-2.782l.991.137q-.308,1.6-.533,2.591.786-.055,1.429-.055a1.428,1.428,0,0,1,1.278.567,3.662,3.662,0,0,1,.4,1.982,19.506,19.506,0,0,1-.437,4.97,1.777,1.777,0,0,1-.636,1,1.828,1.828,0,0,1-1.073.28A9.249,9.249,0,0,1,83.508.253l-.171-.978a6.216,6.216,0,0,0,1.244.164A1.47,1.47,0,0,0,85.326-.7a.9.9,0,0,0,.335-.485,16.428,16.428,0,0,0,.444-4.566,3.52,3.52,0,0,0-.219-1.538.713.713,0,0,0-.677-.321Q84.567-7.615,83.781-7.561Zm4.108-3.992.711-.28A19.25,19.25,0,0,1,89.64-9.461l-.759.308A14.765,14.765,0,0,0,87.89-11.553Zm1.5-.472.7-.253a11.327,11.327,0,0,1,.991,2.3l-.725.294A13.488,13.488,0,0,0,89.387-12.024ZM87.076-9.181l.882-.451A16.879,16.879,0,0,1,90.364-4.8l-.978.458A14.513,14.513,0,0,0,87.076-9.181ZM104.6-.144a1.927,1.927,0,0,0-.308.561.905.905,0,0,1-.1.232.164.164,0,0,1-.13.041q-.034,0-.116-.007A12.182,12.182,0,0,1,98.52-.978,6.926,6.926,0,0,1,95.354.772a1.179,1.179,0,0,1-.212.048q-.082,0-.191-.219a1.85,1.85,0,0,0-.335-.479A7.033,7.033,0,0,0,97.863-1.47a8.775,8.775,0,0,1-1.429-1.47.148.148,0,0,1-.034-.075q0-.027.1-.1l.349-.212a.415.415,0,0,1,.116-.055q.041,0,.1.068A6.756,6.756,0,0,0,98.308-2.03,4.546,4.546,0,0,0,98.854-3.3a2.466,2.466,0,0,0,.062-.239q.034-.164.048-.226H97.877L96-3.739a.1.1,0,0,1-.109-.109l.027-1.306V-7.1L95.888-8.4A.1.1,0,0,1,96-8.511l1.88.027h1.285V-9.926H97.583L95.635-9.9a.1.1,0,0,1-.109-.109v-.574q0-.116.109-.116l1.948.027h4.5l1.962-.027q.109,0,.109.116v.574a.1.1,0,0,1-.109.109l-1.962-.027H99.962v1.442h1.34l1.88-.027a.1.1,0,0,1,.109.109L103.264-7.1v1.941l.027,1.306a.1.1,0,0,1-.109.109l-1.88-.027H99.75q-.014.1-.123.629a5.745,5.745,0,0,1-.663,1.565A12.1,12.1,0,0,0,104.6-.144Zm-2.119-4.279V-5.838H99.935q-.021.786-.082,1.415ZM99.148-5.838H96.688v1.415h2.379Q99.128-5.031,99.148-5.838Zm3.329-.643V-7.813H99.962v.185q0,.786-.014,1.148Zm-3.315,0V-7.813H96.688V-6.48ZM95.4-11.245a.332.332,0,0,1-.13.212,1.654,1.654,0,0,0-.26.52,23.189,23.189,0,0,1-.93,2.242v7L94.11.923q0,.1-.109.1h-.663q-.109,0-.109-.1l.027-2.194V-4.8q0-1.347.027-2.03A18.6,18.6,0,0,1,92.107-5.2q-.1.137-.171.137t-.123-.144a2.036,2.036,0,0,0-.349-.533A14.9,14.9,0,0,0,94.206-10.7a5.8,5.8,0,0,0,.2-.95,3.475,3.475,0,0,1,.827.253Q95.4-11.32,95.4-11.245Zm16.7,4.471q0,.116-.109.116l-1.668-.034h-.431a13.192,13.192,0,0,0,2.194,3.015,2.3,2.3,0,0,0-.376.547q-.075.15-.13.15t-.15-.123a12.67,12.67,0,0,1-1.791-3q.007,2.4.062,5.059.014.629.034,1.49.014.41.014.451,0,.116-.109.116h-.7q-.109,0-.109-.116s.009-.369.027-1.094q.089-3.179.1-5.886a17.613,17.613,0,0,1-2.646,4.573q-.1.144-.164.144t-.13-.157a1.588,1.588,0,0,0-.376-.574,15.973,15.973,0,0,0,3.008-4.594h-.978L106-6.658q-.1,0-.1-.116v-.547q0-.109.1-.109l1.668.027h1.217V-9.618q-1.025.294-2.03.492a1.755,1.755,0,0,1-.185.021q-.109,0-.219-.219a1.626,1.626,0,0,0-.342-.417,19.536,19.536,0,0,0,2.625-.608,13.69,13.69,0,0,0,1.688-.622,2.74,2.74,0,0,0,.636-.41,5.662,5.662,0,0,1,.6.492.35.35,0,0,1,.123.239q0,.1-.226.123a2.487,2.487,0,0,0-.6.185q-.52.219-1.244.465V-7.4h.615l1.668-.027a.1.1,0,0,1,.109.109Zm5.421-4.327a.853.853,0,0,1-.089.267,5.361,5.361,0,0,0-.068,1.217v6.877l.014,2.112a1.252,1.252,0,0,1-.4,1.094,1.427,1.427,0,0,1-.643.232,11.507,11.507,0,0,1-1.278.048A.411.411,0,0,1,114.8.7a.8.8,0,0,1-.1-.246,2,2,0,0,0-.294-.649,9.246,9.246,0,0,0,1.388.089.816.816,0,0,0,.574-.144.766.766,0,0,0,.137-.533V-9.6a10.853,10.853,0,0,0-.1-1.709,7.705,7.705,0,0,1,.937.089Q117.523-11.2,117.523-11.1Zm-3.391,1.012q0,.014-.068.219a9.265,9.265,0,0,0-.055,1.442v3.808l.027,1.812a.1.1,0,0,1-.109.109h-.663a.1.1,0,0,1-.109-.109l.027-1.812V-8.4a12.069,12.069,0,0,0-.1-1.9,8.745,8.745,0,0,1,.909.082Q114.133-10.2,114.133-10.09Z"
												transform="translate(117.981 12.277)" fill="#595757" />
										</svg>