<svg xmlns="http://www.w3.org/2000/svg" width="225.354" height="32.269" viewBox="0 0 225.354 32.269">
  <path id="Контур_1738" data-name="Контур 1738" d="M-100.157-8.955a.1.1,0,0,1-.109.109l-1.948-.027h-7.738v2.126a20.908,20.908,0,0,1-.369,4.1,9.868,9.868,0,0,1-1.271,3.22q-.116.185-.157.185T-111.928.6a1.806,1.806,0,0,0-.547-.4,8.151,8.151,0,0,0,.882-1.593,9.9,9.9,0,0,0,.451-1.586,18.455,18.455,0,0,0,.321-3.876l-.027-2.721a.1.1,0,0,1,.109-.109l1.989.027h2.659v-.8a5.13,5.13,0,0,0-.1-1.135q.444.021.964.075.171.021.171.109a.853.853,0,0,1-.089.267,1.759,1.759,0,0,0-.082.67v.813h3.008l1.948-.027a.1.1,0,0,1,.109.109Zm-.362,9.14a.168.168,0,0,1,.027.075q0,.055-.157.144l-.4.239a.363.363,0,0,1-.171.068q-.055,0-.1-.082-.479-.978-.745-1.47-3.274.629-6.8,1.019a1.2,1.2,0,0,0-.561.157A.306.306,0,0,1-109.6.4q-.089,0-.15-.164a5.871,5.871,0,0,1-.226-.909q.232.007.438.007.506,0,1.271-.062a46.438,46.438,0,0,0,1.907-5.981,5.078,5.078,0,0,0,.137-1.039q.506.137.923.294.171.068.171.2a.33.33,0,0,1-.1.2,2.759,2.759,0,0,0-.335.813,55.446,55.446,0,0,1-1.8,5.428q2.461-.273,4.915-.738-.581-1-1.586-2.413a.182.182,0,0,1-.034-.082q0-.048.15-.123l.349-.185a.542.542,0,0,1,.164-.068q.034,0,.075.055A28.75,28.75,0,0,1-100.519.185Zm12.51.629q0,.116-.109.116h-.663q-.109,0-.109-.116V.157h-6.3V.868q0,.116-.109.116h-.663q-.109,0-.109-.116l.027-2.3V-2.447l-.027-1.463a.1.1,0,0,1,.109-.109l1.935.027h3.979l1.935-.027a.1.1,0,0,1,.109.109l-.027,1.278v1.148Zm-.882-1.429v-2.6h-6.3v2.6Zm2.755-4.956q0,.109-.13.109l-1.846-.027h-8.039l-1.859.027a.1.1,0,0,1-.109-.109v-.636q0-.1.109-.1l1.859.027h3.671V-8.511h-2.844a9.174,9.174,0,0,1-1.107,1.436q-.15.157-.178.157-.055,0-.212-.157a1.758,1.758,0,0,0-.52-.349,8.525,8.525,0,0,0,2-2.769,3.438,3.438,0,0,0,.294-.9,5.989,5.989,0,0,1,.786.294q.185.082.185.178t-.13.185a1.072,1.072,0,0,0-.239.335,8.928,8.928,0,0,1-.4.813h2.365v-.629a11.718,11.718,0,0,0-.1-1.723,8.315,8.315,0,0,1,.95.082q.171.027.171.13a1.065,1.065,0,0,1-.068.239,4.45,4.45,0,0,0-.089,1.155v.745h2.14l1.921-.027a.1.1,0,0,1,.109.109v.608a.1.1,0,0,1-.109.109l-1.921-.027h-2.14v2.235h3.5l1.846-.027q.13,0,.13.1Zm9.119-3.445a3.553,3.553,0,0,1,.362-.014,2.4,2.4,0,0,1,2.023.93,2.83,2.83,0,0,1,.554,1.771,2.543,2.543,0,0,1-.978,2.194,3.92,3.92,0,0,1-2.358.622q-.349,0-.882-.027l-.15-.95q.759.055,1.148.055,2.181,0,2.181-1.853a1.982,1.982,0,0,0-.567-1.538,1.546,1.546,0,0,0-1.066-.39,14.2,14.2,0,0,0-4.074.95q1.012,3.794,1.859,7.731l-1,.205q-.813-3.931-1.791-7.615-.82.28-2.146.786l-.349-.868q1.914-.649,2.256-.759-.267-.978-.827-2.939l.964-.253.438,1.559q.226.793.376,1.326a23.04,23.04,0,0,1,2.98-.827,19.41,19.41,0,0,0-1.019-2.058l.9-.335A20.619,20.619,0,0,1-77.017-9.017Zm16.085,4.7a.1.1,0,0,1-.109.109l-1.976-.027h-5.544l-2,.027a.1.1,0,0,1-.109-.109l.027-1.559V-7.52q0-.485.027-1.244-.608.649-1.258,1.244a.45.45,0,0,1-.212.13q-.062,0-.171-.171a1.8,1.8,0,0,0-.376-.451,8.464,8.464,0,0,0,2.7-2.837,4.135,4.135,0,0,0,.383-.841,5.884,5.884,0,0,1,.807.253q.13.055.13.157,0,.082-.144.178a3.815,3.815,0,0,0-.417.506q-.267.4-.39.561h3.1a5,5,0,0,0,.506-.882,3.084,3.084,0,0,0,.253-.759q.294.075.807.253.144.062.144.157t-.144.164a1.9,1.9,0,0,0-.246.355q-.26.444-.451.711h2.5l1.941-.027q.116,0,.116.1v.506q0,.123-.116.123L-63.1-9.365h-2.632v1.032h1.969l1.948-.027q.13,0,.13.109v.492q0,.109-.13.109l-1.948-.027h-1.969v1.053h1.969l1.948-.027q.13,0,.13.109v.492q0,.109-.13.109l-1.948-.027h-1.969V-4.9h2.714l1.976-.027q.109,0,.109.1ZM-66.49-4.9V-5.968h-3.37V-4.9Zm0-1.723V-7.677h-3.37v1.053Zm0-1.709V-9.365h-3.37v1.032Zm6.563,8.224A1.621,1.621,0,0,0-60.3.424q-.116.239-.212.239A.841.841,0,0,1-60.72.615,11.658,11.658,0,0,1-65.9-2.153q0,1.265.041,2.365.027.7.027.711,0,.1-.109.1h-.67q-.116,0-.116-.1,0-.075.014-.485.048-1.251.055-2.591A11.791,11.791,0,0,1-71.74.561.962.962,0,0,1-71.945.6q-.1,0-.219-.232a1.493,1.493,0,0,0-.321-.479,13.39,13.39,0,0,0,5.1-2.27h-2.789l-1.859.027a.1.1,0,0,1-.109-.109v-.574q0-.1.109-.1l1.859.027h3.486a6.077,6.077,0,0,0-.055-.964q.6.048.841.082.157.034.157.123a.469.469,0,0,1-.089.185,1.985,1.985,0,0,0-.041.574h3.644l1.859-.027q.109,0,.109.1v.574a.1.1,0,0,1-.109.109l-1.859-.027h-2.987a11.156,11.156,0,0,0,2.5,1.436A16.137,16.137,0,0,0-59.927-.109Zm14.144-3.527a2.1,2.1,0,0,0-.362.595q-.089.212-.171.212a1.477,1.477,0,0,1-.191-.027,21.158,21.158,0,0,1-5.6-1.887,14.8,14.8,0,0,1-3.514,1.511q.28.027,1.8.027h3.3l1.866-.027q.109,0,.109.1l-.027,1.08V-.882l.027,1.8q0,.1-.109.1h-.636q-.109,0-.109-.1V.335h-5.53V.9q0,.1-.109.1h-.636q-.109,0-.109-.1l.027-1.777V-1.935l-.027-1.2v-.041q-.807.246-1.948.513a1.079,1.079,0,0,1-.205.041q-.089,0-.185-.205a1.49,1.49,0,0,0-.349-.513,19.32,19.32,0,0,0,5.612-1.839,10.515,10.515,0,0,1-1.887-1.511A12.489,12.489,0,0,1-56.954-5.2a1.187,1.187,0,0,1-.226.1q-.041,0-.15-.157a1.274,1.274,0,0,0-.424-.417,10.162,10.162,0,0,0,3.821-2.926,3.067,3.067,0,0,0,.369-.643,5.962,5.962,0,0,1,.731.232q.123.068.123.144t-.144.185a1.612,1.612,0,0,0-.294.308q-.185.239-.308.376h3.473a.783.783,0,0,0,.335-.055.317.317,0,0,1,.13-.041q.109,0,.39.28.239.253.239.376a.206.206,0,0,1-.144.2,1.379,1.379,0,0,0-.417.321,15.542,15.542,0,0,1-1.935,1.688A20.549,20.549,0,0,0-45.784-3.637ZM-49.393-.39V-2.5h-5.53V-.39ZM-50.1-7.335h-3.951l-.171.185a10.306,10.306,0,0,0,2.105,1.524A12.59,12.59,0,0,0-50.1-7.335Zm3.5-.137a.1.1,0,0,1-.109.109h-.636a.1.1,0,0,1-.109-.109V-9.44h-9.591v1.969a.1.1,0,0,1-.109.109h-.636a.1.1,0,0,1-.109-.109l.027-1.449v-.437l-.027-.725a.1.1,0,0,1,.109-.109l1.935.027h3.083v-.547a3.786,3.786,0,0,0-.1-.95q.41.021.923.068.171.021.171.116a.846.846,0,0,1-.082.26,1.819,1.819,0,0,0-.068.547v.506h3.288l1.935-.027a.1.1,0,0,1,.109.109l-.027.629v.533Zm7.861,3.09v2.769h-.937V-3.951q-.321.164-.663.355-1.791,1.012-1.791,2.03a.927.927,0,0,0,.629.943,6.4,6.4,0,0,0,2.078.232q1.47,0,3.411-.171l.041.95q-2.55.13-3.384.13A5.879,5.879,0,0,1-42.325.007a1.772,1.772,0,0,1-.7-1.6,3.066,3.066,0,0,1,1.88-2.55q.711-.4,1.456-.772-.068-1.312-.909-1.312-1.176,0-3.227,2.365l-.725-.643a16.348,16.348,0,0,0,2.9-4.136q-1.278.021-2.563,0V-9.5q1.477.027,2.953,0a12.51,12.51,0,0,0,.629-1.873l1.012.185a14.377,14.377,0,0,1-.588,1.647q1.969-.062,3.739-.239l.027.854q-2.3.185-4.143.239a14.3,14.3,0,0,1-1.176,1.989l-.355.362.041.055a2.492,2.492,0,0,1,1.668-.711,1.521,1.521,0,0,1,1.114.424,1.982,1.982,0,0,1,.526,1.217q1.094-.5,2.844-1.237l.39.957Q-37.813-4.792-38.743-4.382Zm12,3.972a5.749,5.749,0,0,1-2.707.574A4.366,4.366,0,0,1-32.8-1.183a4.969,4.969,0,0,1-1.258-3.534,5.208,5.208,0,0,1,1.415-3.8,4.8,4.8,0,0,1,3.589-1.449,5.754,5.754,0,0,1,2.311.4V-8.34a4.686,4.686,0,0,0-2.324-.588A3.566,3.566,0,0,0-31.8-7.8,4.249,4.249,0,0,0-32.85-4.785a4.043,4.043,0,0,0,.981,2.854A3.338,3.338,0,0,0-29.3-.868a4.828,4.828,0,0,0,2.557-.656Zm9.584.41h-1.271l-1.039-2.748h-4.156L-24.6,0h-1.278l3.76-9.8h1.189Zm-2.687-3.78-1.538-4.177a4,4,0,0,1-.15-.656h-.027a3.661,3.661,0,0,1-.157.656L-23.239-3.78ZM-8.685,0h-1.367l-1.641-2.748A5.985,5.985,0,0,0-12.13-3.4a2.494,2.494,0,0,0-.434-.441,1.5,1.5,0,0,0-.479-.25,1.968,1.968,0,0,0-.578-.079h-.943V0h-1.148V-9.8h2.926a4.17,4.17,0,0,1,1.186.161,2.654,2.654,0,0,1,.943.489,2.271,2.271,0,0,1,.625.817,2.709,2.709,0,0,1,.226,1.145,2.757,2.757,0,0,1-.154.94,2.455,2.455,0,0,1-.437.762,2.652,2.652,0,0,1-.684.571,3.49,3.49,0,0,1-.9.366v.027a2.068,2.068,0,0,1,.427.25,2.351,2.351,0,0,1,.345.332,4.392,4.392,0,0,1,.325.434q.161.243.359.564Zm-5.879-8.764v3.555h1.559a2.364,2.364,0,0,0,.8-.13,1.844,1.844,0,0,0,.632-.373,1.689,1.689,0,0,0,.417-.595,1.991,1.991,0,0,0,.15-.79,1.537,1.537,0,0,0-.509-1.227,2.188,2.188,0,0,0-1.473-.441ZM-2.143,0h-5.2V-9.8h4.977v1.039H-6.19V-5.5h3.541v1.032H-6.19v3.432h4.047ZM4.83,0H-.256V-9.8H.892v8.764H4.83ZM6.757-8.777a.71.71,0,0,1-.513-.205.692.692,0,0,1-.212-.52.7.7,0,0,1,.212-.523.7.7,0,0,1,.513-.208.724.724,0,0,1,.523.208A.7.7,0,0,1,7.5-9.5a.693.693,0,0,1-.215.513A.718.718,0,0,1,6.757-8.777ZM7.3,0H6.183V-7H7.3ZM17.626,0H16.218L11.173-7.813a3.265,3.265,0,0,1-.314-.615h-.041a10.092,10.092,0,0,1,.055,1.347V0H9.724V-9.8h1.49l4.908,7.69q.308.479.4.656h.027A10.372,10.372,0,0,1,16.478-2.9V-9.8h1.148Zm9.393,0h-1.6L21.632-4.484a2.733,2.733,0,0,1-.26-.342h-.027V0H20.2V-9.8h1.148V-5.2h.027a2.7,2.7,0,0,1,.26-.335L25.3-9.8h1.429l-4.2,4.7Zm4.4-7.561A41.522,41.522,0,0,1,28.769.28l-.923-.362a37.252,37.252,0,0,0,2.563-7.41q-.848.062-2.577.226l-.055-.882q.513-.034,1.518-.1l1.313-.089q.26-1.183.533-2.782l.991.137q-.308,1.6-.533,2.591.786-.055,1.429-.055a1.428,1.428,0,0,1,1.278.567,3.662,3.662,0,0,1,.4,1.982,19.506,19.506,0,0,1-.437,4.97,1.777,1.777,0,0,1-.636,1,1.828,1.828,0,0,1-1.073.28A9.249,9.249,0,0,1,31.141.253L30.97-.725a6.216,6.216,0,0,0,1.244.164A1.47,1.47,0,0,0,32.959-.7a.9.9,0,0,0,.335-.485,16.428,16.428,0,0,0,.444-4.566,3.52,3.52,0,0,0-.219-1.538.713.713,0,0,0-.677-.321Q32.2-7.615,31.415-7.561Zm4.108-3.992.711-.28a19.25,19.25,0,0,1,1.039,2.372l-.759.308A14.765,14.765,0,0,0,35.523-11.553Zm1.5-.472.7-.253a11.327,11.327,0,0,1,.991,2.3l-.725.294A13.487,13.487,0,0,0,37.02-12.024ZM34.709-9.181l.882-.451A16.879,16.879,0,0,1,38-4.8l-.978.458A14.513,14.513,0,0,0,34.709-9.181Zm5.852-1.853h1.046q-.239,7.191-.239,8.668a2.135,2.135,0,0,0,.458,1.579,2.222,2.222,0,0,0,1.545.424,3.218,3.218,0,0,0,2.44-.943,5.471,5.471,0,0,0,1.217-2.673l.95.479Q47.048.574,43.4.574A3.2,3.2,0,0,1,41-.144,3.1,3.1,0,0,1,40.39-2.3q0-.766.062-3.753Q40.534-9.666,40.561-11.033Zm17.623.772.027.964a5.312,5.312,0,0,0-2.311.629A5.934,5.934,0,0,0,53.83-6.706a4.817,4.817,0,0,0-.813,2.659A2.958,2.958,0,0,0,54.3-1.518a6.17,6.17,0,0,0,2.933,1l-.239,1A6.1,6.1,0,0,1,53.365-.9a3.89,3.89,0,0,1-1.312-3.049,5.709,5.709,0,0,1,2.994-5.024l.759-.335-.014-.027-.656.109q-1.189.068-5.66.479l-.082-.923Q51.4-9.823,58.184-10.261Zm6.863-.8.9.615q-2.119,2.454-4.382,4.607a.681.681,0,0,0-.267.479q0,.226.376.513a45.7,45.7,0,0,1,4.9,4.71L65.7.588a50.559,50.559,0,0,0-5.024-5.065,1.118,1.118,0,0,1-.465-.841,1.139,1.139,0,0,1,.362-.827A64.9,64.9,0,0,0,65.047-11.061Zm5.51-.15.971.014q-.021.588-.068,1.381-.034.615-.048,1l.424.362a.185.185,0,0,1,.055.137.263.263,0,0,1-.055.157,5.624,5.624,0,0,0-.465.9l-.041.533-.068.52.253-.547a11.41,11.41,0,0,1,1.948-2.092,2.737,2.737,0,0,1,1.647-.622,1.461,1.461,0,0,1,1.347.636,3.053,3.053,0,0,1,.335,1.6q0,1.114-.13,2.8-.123,1.791-.123,2.365A1.674,1.674,0,0,0,76.7-1.2a.452.452,0,0,0,.417.2q.841,0,1.313-2.3l.841.547a5.045,5.045,0,0,1-1,2.229,1.613,1.613,0,0,1-1.224.513,1.339,1.339,0,0,1-1.107-.41,2.439,2.439,0,0,1-.349-1.483q0-1.039.1-2.557.109-1.764.109-2.509a3.748,3.748,0,0,0-.15-1.3.563.563,0,0,0-.561-.369q-1.408,0-3.78,3.445V.561h-.964q0-2.338.055-4.464l.137-.882-.362.834q-.554,1.3-1.3,2.721l-.786-.656q.649-1.128,2.324-4.341.034-.779.055-1.75-.26.021-2.058.219l-.055-.834q1.271-.116,2.14-.212.007-.355.034-1.128Q70.55-10.685,70.557-11.211Zm11.368.752q1.853-.014,5.694-.2l.588.731Q85.48-7.157,83.88-5.77l-.629.547.055.041.718-.485A4.614,4.614,0,0,1,86-6.2a3.547,3.547,0,0,1,2.707,1,3.071,3.071,0,0,1,.807,2.208A3.316,3.316,0,0,1,88.235-.15,5.317,5.317,0,0,1,85.015.7q-2.741,0-2.741-1.859a1.625,1.625,0,0,1,.588-1.312,2.172,2.172,0,0,1,1.429-.451,2.3,2.3,0,0,1,1.777.752,3.445,3.445,0,0,1,.786,1.682,2.579,2.579,0,0,0,1.258-.978,2.922,2.922,0,0,0,.362-1.538,2.231,2.231,0,0,0-.868-1.873,2.671,2.671,0,0,0-1.668-.526,4.9,4.9,0,0,0-3.384,1.36A12.447,12.447,0,0,0,81.392-2.83l-.827-.67q3.35-3.445,6.132-6.275-2.01.15-4.771.226ZM85.87-.212a3.024,3.024,0,0,0-.622-1.429,1.275,1.275,0,0,0-.984-.472,1.119,1.119,0,0,0-.807.3.828.828,0,0,0-.273.622.87.87,0,0,0,.465.827,2.872,2.872,0,0,0,1.3.226A6.036,6.036,0,0,0,85.87-.212ZM96.875-9.153a22.039,22.039,0,0,1-1.483,7.362A2.1,2.1,0,0,1,93.5-.308a1.749,1.749,0,0,1-1.606-1.06,6,6,0,0,1-.533-2.789,7.336,7.336,0,0,1,.458-2.618A5.114,5.114,0,0,1,92.856-8.5a4.675,4.675,0,0,1,1.716-1.128,5.426,5.426,0,0,1,1.969-.369A4.139,4.139,0,0,1,100.1-8.5a6.371,6.371,0,0,1,.964,3.808,5.114,5.114,0,0,1-1.121,3.4A5.6,5.6,0,0,1,96.664.492l-.485-.841a4.243,4.243,0,0,0,3.835-4.607,4.671,4.671,0,0,0-1.032-3.3A2.809,2.809,0,0,0,96.875-9.153Zm-1.053.109a3.075,3.075,0,0,0-1.292.4,4.459,4.459,0,0,0-1.06.93,5.252,5.252,0,0,0-1.148,3.582A4.6,4.6,0,0,0,92.733-2q.328.615.752.615a.82.82,0,0,0,.622-.26,2.544,2.544,0,0,0,.444-.759A19.819,19.819,0,0,0,95.823-9.044ZM109.6-7.157l.718-.273a18.274,18.274,0,0,1,1.032,2.365l-.752.308A15.123,15.123,0,0,0,109.6-7.157Zm1.586-.472.7-.253a11.566,11.566,0,0,1,1,2.3l-.731.294A13.488,13.488,0,0,0,111.183-7.629Zm.39-2.632.027.964a5.312,5.312,0,0,0-2.311.629,5.934,5.934,0,0,0-2.071,1.962,4.817,4.817,0,0,0-.813,2.659,2.958,2.958,0,0,0,1.285,2.529,6.17,6.17,0,0,0,2.933,1l-.239,1A6.1,6.1,0,0,1,106.753-.9a3.89,3.89,0,0,1-1.312-3.049,5.709,5.709,0,0,1,2.994-5.024l.759-.335-.014-.027-.656.109q-1.189.068-5.66.479l-.082-.923Q104.785-9.823,111.573-10.261ZM-71.377,13.2q0,.116-.171.212a2.011,2.011,0,0,0-.5.465,11.817,11.817,0,0,1-1.812,1.736q-.144.123-.2.123a.871.871,0,0,1-.232-.157,2.794,2.794,0,0,0-.608-.335,8.584,8.584,0,0,0,1.989-1.736H-76.8V16.58l.014,1.914a1.242,1.242,0,0,1-.362,1.025,3.378,3.378,0,0,1-1.709.267h-.294q-.232,0-.273-.048a.64.64,0,0,1-.089-.246,2.856,2.856,0,0,0-.28-.69,14.115,14.115,0,0,0,1.456.089.739.739,0,0,0,.513-.13.585.585,0,0,0,.116-.417V13.511h-3.541l-1.866.027a.1.1,0,0,1-.109-.109v-.677a.1.1,0,0,1,.109-.109l1.866.027h4.4a14.829,14.829,0,0,0-2.953-2.126q-.075-.041-.075-.062a.6.6,0,0,1,.1-.15l.28-.321q.075-.082.116-.082a.148.148,0,0,1,.075.034,15.9,15.9,0,0,1,1.784,1.1,17.941,17.941,0,0,0,3.09-2.071h-5.5L-81.9,9.02q-.1,0-.1-.109V8.261q0-.109.1-.109l1.969.027h5.865a1.046,1.046,0,0,0,.342-.041,1.254,1.254,0,0,1,.191-.068q.13,0,.438.308t.308.465q0,.116-.2.191a1.606,1.606,0,0,0-.485.294,18.988,18.988,0,0,1-3.363,2.235q.253.205.841.731.048.041.048.062a.686.686,0,0,1-.123.13l-.191.185h3.637a.792.792,0,0,0,.355-.055.42.42,0,0,1,.164-.055,1.068,1.068,0,0,1,.451.267Q-71.377,13.073-71.377,13.2Zm7.369,1.306a.268.268,0,0,1,.021.089q0,.075-.178.13l-.321.1a.579.579,0,0,1-.137.027q-.062,0-.082-.089-.205-.629-.267-.807l-1.347.137v3.753l.027,2.044q0,.1-.109.1h-.636q-.109,0-.109-.1l.027-2.044V14.167l-1.538.116a1.534,1.534,0,0,0-.533.109.422.422,0,0,1-.157.055q-.089,0-.137-.178-.055-.212-.144-.772.444.041.882.041h.171q.5-.649,1.053-1.456a19.586,19.586,0,0,0-2.064-2.153.146.146,0,0,1-.062-.1q0-.041.109-.157l.239-.294q.089-.1.13-.1t.089.062l.533.52q.52-.807.923-1.586a3.59,3.59,0,0,0,.369-.95q.376.15.779.349.157.075.157.185,0,.075-.123.15a.821.821,0,0,0-.239.294q-.738,1.224-1.347,2.085.479.479.937,1.025.52-.834.909-1.5a6.472,6.472,0,0,0,.561-1.189,5.8,5.8,0,0,1,.772.39.209.209,0,0,1,.123.171q0,.089-.137.178a2.63,2.63,0,0,0-.492.615q-1.155,1.846-2.338,3.418,1.354-.075,2.468-.164a10.8,10.8,0,0,0-.547-1.08.168.168,0,0,1-.027-.075q0-.055.164-.123l.253-.1a.369.369,0,0,1,.15-.048q.055,0,.1.075A14.108,14.108,0,0,1-64.008,14.509Zm6.31-4.58q-.027.355-.027,1.066a45.94,45.94,0,0,1-.451,6.788,3.462,3.462,0,0,1-.608,1.634,1.439,1.439,0,0,1-1.142.479,10.86,10.86,0,0,1-1.3-.068.457.457,0,0,1-.267-.075.769.769,0,0,1-.082-.26,2.124,2.124,0,0,0-.226-.629,12.161,12.161,0,0,0,1.818.191.759.759,0,0,0,.69-.506A4.283,4.283,0,0,0-59,17.476a44.315,44.315,0,0,0,.39-6.87H-62.7a11.224,11.224,0,0,1-1.176,1.818q-.116.157-.2.157t-.205-.144a1.731,1.731,0,0,0-.451-.335A10.017,10.017,0,0,0-62.7,8.534,5.634,5.634,0,0,0-62.429,7.3a6.023,6.023,0,0,1,.868.226q.2.068.2.171a.392.392,0,0,1-.123.246,1.736,1.736,0,0,0-.355.677q-.144.451-.479,1.217h2.987l1.511-.027A.109.109,0,0,1-57.7,9.929Zm-2.9,5.558a.221.221,0,0,1,.034.089q0,.055-.144.137l-.39.219a.535.535,0,0,1-.185.089q-.041,0-.082-.082a11.6,11.6,0,0,0-1.7-2.68.131.131,0,0,1-.048-.082q0-.048.144-.137l.349-.212a.282.282,0,0,1,.13-.062q.034,0,.082.062A11.163,11.163,0,0,1-60.6,15.486Zm-7.349-.014a.658.658,0,0,1-.068.164,1.3,1.3,0,0,0-.1.41,11.775,11.775,0,0,1-.684,2.728q-.055.2-.123.2a.525.525,0,0,1-.212-.109,1.1,1.1,0,0,0-.479-.212,10.723,10.723,0,0,0,.759-2.762,2.92,2.92,0,0,0,.034-.437q0-.089-.007-.232a5.67,5.67,0,0,1,.684.109Q-67.946,15.37-67.946,15.473Zm3.9,2.475a.225.225,0,0,1,.007.055q0,.1-.171.157l-.335.1a.612.612,0,0,1-.157.034q-.055,0-.082-.1a14.687,14.687,0,0,0-.731-2.687.262.262,0,0,1-.021-.082q0-.075.164-.116l.294-.082a.561.561,0,0,1,.116-.021q.068,0,.123.1A13.74,13.74,0,0,1-64.042,17.947Zm14.109-3.329v2.769h-.937V15.049q-.321.164-.663.355-1.791,1.012-1.791,2.03a.927.927,0,0,0,.629.943,6.4,6.4,0,0,0,2.078.232q1.47,0,3.411-.171l.041.95q-2.55.13-3.384.13a5.879,5.879,0,0,1-2.967-.513,1.772,1.772,0,0,1-.7-1.6,3.066,3.066,0,0,1,1.88-2.55q.711-.4,1.456-.772-.068-1.312-.909-1.312-1.176,0-3.227,2.365l-.725-.643a16.348,16.348,0,0,0,2.9-4.136q-1.278.021-2.563,0V9.5q1.477.027,2.953,0a12.51,12.51,0,0,0,.629-1.873l1.012.185A14.377,14.377,0,0,1-51.4,9.464q1.969-.062,3.739-.239l.027.854q-2.3.185-4.143.239a14.3,14.3,0,0,1-1.176,1.989l-.355.362.041.055a2.492,2.492,0,0,1,1.668-.711,1.521,1.521,0,0,1,1.114.424,1.982,1.982,0,0,1,.526,1.217q1.094-.5,2.844-1.237l.39.957Q-49,14.208-49.933,14.618Zm17.1-2.276a.1.1,0,0,1-.109.109l-1.948-.027h-4.32l-1.948.027q-.1,0-.1-.109v-.581q0-.109.1-.109l1.948.027H-37.7V9.847h-.971l-1.832.027q-.109,0-.109-.123V9.184a.1.1,0,0,1,.109-.109l1.832.027h.971V8.671a7.628,7.628,0,0,0-.1-1.36,8.035,8.035,0,0,1,.909.068q.157.021.157.116a2.265,2.265,0,0,1-.055.246,4.228,4.228,0,0,0-.068.93V9.1h1.326l1.818-.027q.116,0,.116.109v.567q0,.123-.116.123l-1.818-.027h-1.326v1.832h1.969l1.948-.027a.1.1,0,0,1,.109.109Zm-.15,2.522a.1.1,0,0,1-.109.109l-1.723-.027v1.887l.014,1.791a1.041,1.041,0,0,1-.41.937,4.008,4.008,0,0,1-1.846.253.409.409,0,0,1-.239-.041.919.919,0,0,1-.1-.239,1.843,1.843,0,0,0-.28-.615q.725.062,1.265.062.15,0,.273-.007a.453.453,0,0,0,.479-.52V14.946h-3.6l-1.928.027q-.1,0-.1-.109v-.581q0-.109.1-.109l1.928.027h3.6v-.308a5.482,5.482,0,0,0-.089-1.148,6.5,6.5,0,0,1,.9.1q.171.021.171.116a.8.8,0,0,1-.068.232,2.331,2.331,0,0,0-.068.7V14.2l1.723-.027a.1.1,0,0,1,.109.109ZM-41.5,11.228a.21.21,0,0,1-.116.171,1.15,1.15,0,0,0-.308.362,12.757,12.757,0,0,1-.725,1.148V18l.027,1.818q0,.1-.116.1h-.67q-.109,0-.109-.1L-43.487,18V15.527q0-.547.027-1.552a13.307,13.307,0,0,1-1.306,1.347q-.123.123-.191.123t-.157-.171a1.424,1.424,0,0,0-.335-.485,11.456,11.456,0,0,0,2.816-3.445,3.384,3.384,0,0,0,.28-.7,5.21,5.21,0,0,1,.711.41Q-41.5,11.146-41.5,11.228ZM-41.532,8.1q0,.089-.13.15a.813.813,0,0,0-.308.267,12.108,12.108,0,0,1-2.543,2.652.578.578,0,0,1-.2.109q-.062,0-.178-.185a1.76,1.76,0,0,0-.424-.437,9.639,9.639,0,0,0,2.55-2.475,2.7,2.7,0,0,0,.349-.684,3.724,3.724,0,0,1,.766.417A.258.258,0,0,1-41.532,8.1Zm3.753,9.406a.148.148,0,0,1,.034.075q0,.055-.116.137l-.383.28a.437.437,0,0,1-.171.1q-.041,0-.1-.082a8.068,8.068,0,0,0-1.415-1.825.131.131,0,0,1-.048-.082q0-.041.137-.123l.376-.239a.324.324,0,0,1,.116-.055.174.174,0,0,1,.1.055A9.275,9.275,0,0,1-37.779,17.5ZM-30.7,11.6l-.28-.971a34.129,34.129,0,0,1,5.626-.991A3.159,3.159,0,0,1-22.6,10.913a5.128,5.128,0,0,1,.793,3.035,4.653,4.653,0,0,1-.615,2.393,3.914,3.914,0,0,1-1.395,1.4,11.22,11.22,0,0,1-4.368,1.2l-.355-.923A9.745,9.745,0,0,0-24.633,17a3.367,3.367,0,0,0,1.764-3.09q0-3.377-2.577-3.377A26.394,26.394,0,0,0-30.7,11.6Zm13.262-1.531q.191-1.422.267-2.447l1.032.1q-.109,1.025-.321,2.311,1.36-.089,3.1-.239l.014.882q-1.429.15-3.254.239a53.168,53.168,0,0,1-2.208,8.524l-.978-.335a47.881,47.881,0,0,0,2.208-8.148q-1.155.062-2.365.062v-.882Q-18.542,10.127-17.435,10.065Zm4.088-2.488.711-.28A18.727,18.727,0,0,1-11.6,9.662l-.759.308A14.485,14.485,0,0,0-13.347,7.577Zm-2.522,8.75L-15,16.4a3.679,3.679,0,0,0-.082.786,1.075,1.075,0,0,0,.513,1.08,4.218,4.218,0,0,0,1.559.191,16.519,16.519,0,0,0,2.167-.109l.055.964q-.834.082-2.044.082a4.645,4.645,0,0,1-2.5-.472,1.737,1.737,0,0,1-.636-1.531A5.222,5.222,0,0,1-15.87,16.327Zm.711-2.994V12.4q1.982-.191,4.259-.191v.9A32.162,32.162,0,0,0-15.159,13.333ZM-11.8,7.058l.7-.253a11.566,11.566,0,0,1,1,2.3l-.731.294A13.488,13.488,0,0,0-11.8,7.058ZM-1.336,10.53q.752-.068,1.723-.2l.041.9q-.772.1-1.764.171.014.725.014,2.126A8.667,8.667,0,0,1-2.082,17.8a5.231,5.231,0,0,1-2.372,1.784l-.663-.745a5.251,5.251,0,0,0,1.777-1.1,3.429,3.429,0,0,0,.834-1.647A12.536,12.536,0,0,0-2.3,13.5q0-1.34-.014-2.03-2.044.1-3.582.041l-.014-.882q1.8.062,3.6-.041-.027-1.846-.055-2.728h1Q-1.364,8.739-1.336,10.53ZM-7.072,8.049q-.273,1.545-.472,3.548-.191,1.907-.191,3.145A17.716,17.716,0,0,0-7.229,18.9l-.991.082a22.764,22.764,0,0,1-.492-4.272,37.517,37.517,0,0,1,.26-3.767q.185-1.7.383-2.98ZM8.76,11.843l.718-.273a18.275,18.275,0,0,1,1.032,2.365l-.752.308A15.123,15.123,0,0,0,8.76,11.843Zm1.586-.472.7-.253a11.566,11.566,0,0,1,1,2.3l-.731.294A13.488,13.488,0,0,0,10.346,11.371Zm.39-2.632.027.964a5.312,5.312,0,0,0-2.311.629,5.934,5.934,0,0,0-2.071,1.962,4.817,4.817,0,0,0-.813,2.659,2.958,2.958,0,0,0,1.285,2.529,6.17,6.17,0,0,0,2.933,1l-.239,1A6.1,6.1,0,0,1,5.917,18.1,3.89,3.89,0,0,1,4.6,15.049,5.709,5.709,0,0,1,7.6,10.024l.759-.335-.014-.027-.656.109q-1.189.068-5.66.479l-.082-.923Q3.948,9.177,10.736,8.739Zm14.752,4.149q0,.109-.1.109l-1.976-.027H21.359V18.4h1.723L25,18.371q.116,0,.116.109v.6q0,.13-.116.13l-1.914-.027H19.035l-1.935.027q-.1,0-.1-.13v-.6q0-.109.1-.109l1.935.027h1.456V12.971H18.768L16.806,13a.1.1,0,0,1-.109-.109v-.622a.1.1,0,0,1,.109-.109l1.962.027h1.723V9.621a13.689,13.689,0,0,0-.1-1.928,8.987,8.987,0,0,1,.964.082q.157.021.157.123a1.28,1.28,0,0,1-.055.239,5.984,5.984,0,0,0-.1,1.456v2.591h2.058l1.976-.027q.1,0,.1.109ZM17.08,7.857a.284.284,0,0,1-.123.212,1.434,1.434,0,0,0-.267.5,22.7,22.7,0,0,1-.984,2.174v6.925l.027,2.2a.1.1,0,0,1-.109.109h-.677a.1.1,0,0,1-.109-.109l.027-2.2V14.044q0-.6.027-1.887a17.336,17.336,0,0,1-1.429,1.935q-.1.123-.164.123t-.13-.157a1.793,1.793,0,0,0-.349-.574,14.991,14.991,0,0,0,3.028-5.168,3.921,3.921,0,0,0,.191-.937,8.548,8.548,0,0,1,.882.308Q17.08,7.762,17.08,7.857Zm22.415,7.937q0,.109-.1.109l-.178-.007q-.533-.014-1.2-.021v.9l.034,1.265q0,.109-.116.109h-.615a.1.1,0,0,1-.109-.109V17.6H33.684l.014,1.025a2.005,2.005,0,0,1-.1.718.782.782,0,0,1-.294.342,4.308,4.308,0,0,1-1.894.253.411.411,0,0,1-.253-.048.736.736,0,0,1-.1-.219,2.774,2.774,0,0,0-.342-.629,8.522,8.522,0,0,0,.93.062q.137,0,.308-.007a1.255,1.255,0,0,0,.752-.144.713.713,0,0,0,.144-.526V17.6H30.451l-1.976.027q-.116,0-.116-.109v-.492q0-.109.116-.109l1.976.027h2.406V15.876H29.008L27.2,15.9a.1.1,0,0,1-.109-.109V15.3a.1.1,0,0,1,.109-.109l1.812.027h3.849v-.984H30.451l-1.976.027q-.116,0-.116-.1v-.506q0-.109.116-.109l1.976.027h2.406v-.95H31l-1.976.027q-.109,0-.109-.123l.027-.772v-.588l-.027-.772a.1.1,0,0,1,.109-.109L31,10.318h1.853V9.45H29.1l-1.832.027q-.116,0-.116-.109v-.52q0-.109.116-.109l1.832.027h3.753a6.935,6.935,0,0,0-.1-1.456,6.54,6.54,0,0,1,.909.068q.171.027.171.116a.9.9,0,0,1-.082.267,3.843,3.843,0,0,0-.068.978v.027H37.43l1.839-.027a.1.1,0,0,1,.109.109v.52a.1.1,0,0,1-.109.109L37.43,9.45H33.684v.868h1.9l1.989-.027a.1.1,0,0,1,.109.109l-.027.772v.588l.027.772q0,.123-.109.123l-1.989-.027h-1.9v.95h2.249l2.01-.027a.1.1,0,0,1,.109.109l-.034,1.251v.308l1.374-.027q.1,0,.1.109Zm-2.283,1.148V15.876H33.684v1.066Zm0-1.723v-.984H33.684v.984Zm-.321-3.206v-1.08H33.684v1.08Zm-4.033,0v-1.08H29.719v1.08Zm11.813-.574a41.522,41.522,0,0,1-2.646,7.841l-.923-.362a37.253,37.253,0,0,0,2.563-7.41q-.848.062-2.577.226l-.055-.882q.513-.034,1.518-.1l1.313-.089q.26-1.183.533-2.782l.991.137q-.308,1.6-.533,2.591.786-.055,1.429-.055a1.428,1.428,0,0,1,1.278.567,3.662,3.662,0,0,1,.4,1.982,19.506,19.506,0,0,1-.437,4.97,1.777,1.777,0,0,1-.636,1,1.828,1.828,0,0,1-1.073.28,9.249,9.249,0,0,1-1.422-.109l-.171-.978a6.216,6.216,0,0,0,1.244.164,1.47,1.47,0,0,0,.745-.144.9.9,0,0,0,.335-.485,16.428,16.428,0,0,0,.444-4.566,3.52,3.52,0,0,0-.219-1.538.713.713,0,0,0-.677-.321Q45.456,11.385,44.669,11.439Zm4.108-3.992.711-.28a19.25,19.25,0,0,1,1.039,2.372l-.759.308A14.765,14.765,0,0,0,48.778,7.447Zm1.5-.472.7-.253a11.327,11.327,0,0,1,.991,2.3l-.725.294A13.487,13.487,0,0,0,50.275,6.976ZM47.964,9.819l.882-.451A16.879,16.879,0,0,1,51.252,14.2l-.978.458A14.513,14.513,0,0,0,47.964,9.819Zm11.724,2.023.718-.273a18.274,18.274,0,0,1,1.032,2.365l-.752.308A15.123,15.123,0,0,0,59.688,11.843Zm1.586-.472.7-.253a11.566,11.566,0,0,1,1,2.3l-.731.294A13.487,13.487,0,0,0,61.274,11.371Zm.39-2.632.027.964a5.312,5.312,0,0,0-2.311.629,5.934,5.934,0,0,0-2.071,1.962,4.817,4.817,0,0,0-.813,2.659,2.958,2.958,0,0,0,1.285,2.529,6.17,6.17,0,0,0,2.933,1l-.239,1a6.1,6.1,0,0,1-3.63-1.381,3.89,3.89,0,0,1-1.312-3.049,5.709,5.709,0,0,1,2.994-5.024l.759-.335-.014-.027-.656.109q-1.189.068-5.66.479l-.082-.923Q54.875,9.177,61.664,8.739Zm8.565,3.931a12.542,12.542,0,0,0,2.078,2.857l-.574.9a7.984,7.984,0,0,0-3.657-.854,3.85,3.85,0,0,0-2,.444,1.157,1.157,0,0,0-.643,1.012q0,.813,1.1,1.21a7.484,7.484,0,0,0,2.5.335q.82,0,1.976-.089v.984q-.615.041-2.017.041-4.546,0-4.546-2.365a1.971,1.971,0,0,1,1.066-1.8,5.521,5.521,0,0,1,2.741-.567,6.3,6.3,0,0,1,2.851.615A11.321,11.321,0,0,1,69.265,12.8a34.235,34.235,0,0,1-4.341.28l-.137-.854A33.363,33.363,0,0,0,68.875,12q-.444-1.019-.69-1.682-1.757.185-3.794.226l-.123-.882A34.558,34.558,0,0,0,67.9,9.491q-.205-.567-.526-1.62l1-.1q.246.9.479,1.62,1.422-.171,3.063-.52l.144.854q-1.647.328-2.912.479a16.613,16.613,0,0,0,.684,1.668q1.47-.212,2.6-.479l.171.841Q71.507,12.472,70.229,12.67Zm5.66-4.129q1.853-.014,5.694-.2l.588.731q-2.728,2.769-4.327,4.156l-.629.547.055.041.718-.485a4.614,4.614,0,0,1,1.976-.533,3.547,3.547,0,0,1,2.707,1,3.071,3.071,0,0,1,.807,2.208A3.316,3.316,0,0,1,82.2,18.85a5.317,5.317,0,0,1-3.22.848q-2.741,0-2.741-1.859a1.625,1.625,0,0,1,.588-1.312,2.172,2.172,0,0,1,1.429-.451,2.3,2.3,0,0,1,1.777.752,3.445,3.445,0,0,1,.786,1.682,2.579,2.579,0,0,0,1.258-.978,2.922,2.922,0,0,0,.362-1.538,2.231,2.231,0,0,0-.868-1.873,2.671,2.671,0,0,0-1.668-.526,4.9,4.9,0,0,0-3.384,1.36,12.447,12.447,0,0,0-1.162,1.217l-.827-.67q3.35-3.445,6.132-6.275-2.01.15-4.771.226Zm3.944,10.247a3.024,3.024,0,0,0-.622-1.429,1.275,1.275,0,0,0-.984-.472,1.119,1.119,0,0,0-.807.3.828.828,0,0,0-.273.622.87.87,0,0,0,.465.827,2.872,2.872,0,0,0,1.3.226A6.036,6.036,0,0,0,79.833,18.788Z" transform="translate(112.475 12.277)" fill="#595757"/>
</svg>
