<svg xmlns="http://www.w3.org/2000/svg" width="233.105" height="31.708" viewBox="0 0 233.105 31.708">
  <path id="Контур_1740" data-name="Контур 1740" d="M-108.866-8.36h2.249v.943h-2.249v1.046q0,3.445-1.47,5.052A7.427,7.427,0,0,1-114.15.615l-.567-.8a6.161,6.161,0,0,0,3.753-1.962,6.7,6.7,0,0,0,1.046-4.095V-7.417h-3.514v3.705h-1.053V-7.417h-2.14V-8.36h2.14v-2.769h1.053V-8.36h3.514v-2.8h1.053Zm8.155,1.483a32.431,32.431,0,0,1-3.931,2.632l-.574-.807a25.788,25.788,0,0,0,4.368-3.008,19.644,19.644,0,0,0,3.1-3.268l.923.574a22.1,22.1,0,0,1-2.8,2.98V.561h-1.08Zm8.34.786V.561h-1.08V-11.184h1.08v4.061A21.8,21.8,0,0,1-87.039-4.9l-.533,1.012A17.7,17.7,0,0,0-92.371-6.091Zm18.478,5.53a1.107,1.107,0,0,1-.362.923,3.53,3.53,0,0,1-1.791.267.487.487,0,0,1-.26-.041.671.671,0,0,1-.1-.239,1.672,1.672,0,0,0-.28-.656q.759.068,1.278.068a.793.793,0,0,0,.513-.137.535.535,0,0,0,.116-.4V-8.217h-4.2a8.371,8.371,0,0,0,1.641,3.1,8.891,8.891,0,0,0,2.352,1.832,1.751,1.751,0,0,0-.485.485q-.123.185-.185.185a.525.525,0,0,1-.212-.109A9.018,9.018,0,0,1-78.042-4.71,8.5,8.5,0,0,1-79.287-7.1a5.2,5.2,0,0,1-.246.752,7.553,7.553,0,0,1-1.2,2.044A8.591,8.591,0,0,1-82.7-2.659a.578.578,0,0,1-.2.109q-.055,0-.185-.164a2.048,2.048,0,0,0-.472-.479,7.458,7.458,0,0,0,2.229-1.723,6.388,6.388,0,0,0,1-1.675,6.608,6.608,0,0,0,.4-1.627h-3.808v6.788L-83.7.629q0,.116-.109.116h-.69q-.109,0-.109-.116l.027-2.126V-6.761l-.027-2.16A.1.1,0,0,1-84.5-9.03L-82.534-9h2.707q.041-.649.041-1.3a8.29,8.29,0,0,0-.089-1.388q.485.021.937.082.157.021.157.144,0,.014-.068.26a5.011,5.011,0,0,0-.082,1.053A10.16,10.16,0,0,1-78.993-9h3.028L-74-9.03a.1.1,0,0,1,.109.109l-.027,2.215v3.9Zm9.29-6.6.718-.273a18.274,18.274,0,0,1,1.032,2.365l-.752.308A15.123,15.123,0,0,0-64.6-7.157Zm1.586-.472.7-.253a11.566,11.566,0,0,1,1,2.3l-.731.294A13.487,13.487,0,0,0-63.017-7.629Zm.39-2.632.027.964a5.312,5.312,0,0,0-2.311.629,5.934,5.934,0,0,0-2.071,1.962A4.817,4.817,0,0,0-67.8-4.047,2.958,2.958,0,0,0-66.51-1.518a6.17,6.17,0,0,0,2.933,1l-.239,1A6.1,6.1,0,0,1-67.447-.9a3.89,3.89,0,0,1-1.312-3.049,5.709,5.709,0,0,1,2.994-5.024l.759-.335-.014-.027-.656.109q-1.189.068-5.66.479l-.082-.923Q-69.416-9.823-62.627-10.261Zm14.854,5.674q0,.109-.116.109L-49.858-4.5H-52.38a7.7,7.7,0,0,0,1.9,2.878A9.869,9.869,0,0,0-47.8.212a1.829,1.829,0,0,0-.424.561q-.123.212-.178.212a.678.678,0,0,1-.226-.109,9.26,9.26,0,0,1-4.3-4.915A7.554,7.554,0,0,1-56.8.943a.552.552,0,0,1-.212.082q-.062,0-.212-.2a1.768,1.768,0,0,0-.458-.444,8.55,8.55,0,0,0,2.769-2.105,6.622,6.622,0,0,0,1.2-2.434l.082-.349h-1.258l-1.989.027a.1.1,0,0,1-.109-.109v-.581q0-.123.109-.123l1.989.027h1.4A27.34,27.34,0,0,0-53.3-8.148h-.984l-1.8.027A.1.1,0,0,1-56.2-8.23v-.608a.1.1,0,0,1,.109-.109l1.8.027h1v-1.107a9.736,9.736,0,0,0-.1-1.565,8.167,8.167,0,0,1,.923.082q.185.041.185.144a1.25,1.25,0,0,1-.082.28,3.187,3.187,0,0,0-.089.978v1.189h1.36l1.853-.027a.1.1,0,0,1,.109.109l-.027,1.224v2.352l1.271-.027q.116,0,.116.123Zm-2.215-.677V-8.148h-2.481a25.042,25.042,0,0,1-.205,2.885Zm-7.4,2.1Q-57.945-1.627-58.738.1a4.508,4.508,0,0,0-.253.615q-.048.171-.137.171A.432.432,0,0,1-59.339.8a6.2,6.2,0,0,1-.643-.479,5.858,5.858,0,0,0,.745-1.148A30.623,30.623,0,0,0-57.965-4.02a2.425,2.425,0,0,0,.438.424q.191.144.191.226A.844.844,0,0,1-57.391-3.165Zm.492-6.562a.149.149,0,0,1,.055.089.315.315,0,0,1-.082.144l-.314.4q-.089.116-.13.116a.11.11,0,0,1-.075-.048,10.593,10.593,0,0,0-1.887-1.627q-.075-.048-.075-.082a.284.284,0,0,1,.082-.137l.294-.335q.1-.1.137-.1a.168.168,0,0,1,.075.027A10.085,10.085,0,0,1-56.9-9.728Zm-.786,3.4a.137.137,0,0,1,.041.075.423.423,0,0,1-.082.164l-.294.39q-.082.109-.123.109a.168.168,0,0,1-.1-.062,9.534,9.534,0,0,0-1.887-1.531q-.068-.034-.068-.068a.389.389,0,0,1,.1-.15l.267-.342q.075-.089.116-.089a.183.183,0,0,1,.089.034A10.079,10.079,0,0,1-57.685-6.33Zm24.09.321a2.034,2.034,0,0,0-.321.547q-.1.226-.191.226a1.293,1.293,0,0,1-.191-.027q-.813-.164-1.271-.28V-.909l.027,1.7q0,.116-.109.116H-36.3q-.109,0-.109-.116l.027-1.7V-1.976H-41.1l-.041.137A5.06,5.06,0,0,1-42.892.786a.578.578,0,0,1-.2.109q-.068,0-.212-.144a1.808,1.808,0,0,0-.533-.376,4.2,4.2,0,0,0,1.921-2.488,8.507,8.507,0,0,0,.294-1.5q.062-.656.068-1.941-.4.1-1.176.232A1.412,1.412,0,0,1-42.9-5.3q-.116,0-.205-.232a1.485,1.485,0,0,0-.308-.5A13.06,13.06,0,0,0-39.324-7.13a6.943,6.943,0,0,1-2.03-2.1q-.588.007-1.032.021l-.226.007h-.075q-.123,0-.123-.109v-.547q0-.109.123-.109l1.962.027h1.641v-.431a6.048,6.048,0,0,0-.1-1.278q.479.021.93.082.164.027.164.116a.905.905,0,0,1-.082.267,2.676,2.676,0,0,0-.068.779v.465h2.167l1.976-.027a.1.1,0,0,1,.109.109v.547A.1.1,0,0,1-34.1-9.2l-1.777-.027a7.1,7.1,0,0,1-1.935,2.071A15.426,15.426,0,0,0-33.6-6.009Zm-2.789,3.322V-4.136h-4.4a9.606,9.606,0,0,1-.171,1.449Zm0-2.146V-5.77a10.4,10.4,0,0,1-2.187-.9,10.469,10.469,0,0,1-2.167.9q0,.656-.014.937Zm-.437-4.4h-3.637a5.891,5.891,0,0,0,1.9,1.682A5.485,5.485,0,0,0-36.822-9.229Zm-6.6,6.036A34.782,34.782,0,0,1-44.881.027a2.941,2.941,0,0,0-.28.615q-.021.144-.137.144A.367.367,0,0,1-45.5.7q-.321-.226-.643-.492A5.507,5.507,0,0,0-45.38-.909,24.812,24.812,0,0,0-44-4.047a3.272,3.272,0,0,0,.438.424q.2.15.2.226A.769.769,0,0,1-43.425-3.192Zm.321-6.535a.146.146,0,0,1,.062.1.328.328,0,0,1-.089.157l-.294.362q-.082.109-.13.109a.114.114,0,0,1-.075-.041,10.414,10.414,0,0,0-1.88-1.613q-.062-.041-.062-.075t.1-.144l.28-.321q.1-.116.15-.116a.168.168,0,0,1,.075.027A10.416,10.416,0,0,1-43.1-9.728Zm-.684,3.384a.131.131,0,0,1,.048.082q0,.041-.089.144l-.294.376q-.1.123-.144.123-.027,0-.082-.055a10.127,10.127,0,0,0-1.873-1.511q-.062-.034-.062-.068a.339.339,0,0,1,.089-.15l.267-.355q.068-.089.116-.089a.221.221,0,0,1,.089.034A9.829,9.829,0,0,1-43.788-6.344Zm18.409-.813.718-.273a18.274,18.274,0,0,1,1.032,2.365l-.752.308A15.123,15.123,0,0,0-25.378-7.157Zm1.586-.472.7-.253a11.566,11.566,0,0,1,1,2.3l-.731.294A13.488,13.488,0,0,0-23.792-7.629Zm.39-2.632.027.964a5.312,5.312,0,0,0-2.311.629,5.934,5.934,0,0,0-2.071,1.962,4.817,4.817,0,0,0-.813,2.659,2.958,2.958,0,0,0,1.285,2.529,6.17,6.17,0,0,0,2.933,1l-.239,1A6.1,6.1,0,0,1-28.222-.9a3.89,3.89,0,0,1-1.312-3.049,5.709,5.709,0,0,1,2.994-5.024l.759-.335-.014-.027-.656.109q-1.189.068-5.66.479l-.082-.923Q-30.191-9.823-23.4-10.261Zm8.565,3.931a12.542,12.542,0,0,0,2.078,2.857l-.574.9a7.984,7.984,0,0,0-3.657-.854,3.849,3.849,0,0,0-2,.444,1.157,1.157,0,0,0-.643,1.012q0,.813,1.1,1.21a7.484,7.484,0,0,0,2.5.335q.82,0,1.976-.089V.465q-.615.041-2.017.041-4.546,0-4.546-2.365a1.971,1.971,0,0,1,1.066-1.8,5.521,5.521,0,0,1,2.741-.567,6.3,6.3,0,0,1,2.851.615A11.321,11.321,0,0,1-15.8-6.2a34.235,34.235,0,0,1-4.341.28l-.137-.854A33.363,33.363,0,0,0-16.191-7q-.444-1.019-.69-1.682-1.757.185-3.794.226l-.123-.882a34.558,34.558,0,0,0,3.637-.171q-.205-.567-.526-1.62l1-.1q.246.9.479,1.62,1.422-.171,3.063-.52L-13-9.27q-1.647.328-2.912.479a16.614,16.614,0,0,0,.684,1.668q1.47-.212,2.6-.479l.171.841Q-13.559-6.528-14.837-6.33Zm5.66-4.129q1.853-.014,5.694-.2l.588.731Q-5.623-7.157-7.222-5.77l-.629.547.055.041.718-.485A4.614,4.614,0,0,1-5.1-6.2,3.547,3.547,0,0,1-2.4-5.2a3.071,3.071,0,0,1,.807,2.208A3.316,3.316,0,0,1-2.868-.15,5.317,5.317,0,0,1-6.087.7Q-8.829.7-8.829-1.162a1.625,1.625,0,0,1,.588-1.312,2.172,2.172,0,0,1,1.429-.451,2.3,2.3,0,0,1,1.777.752A3.445,3.445,0,0,1-4.249-.492,2.579,2.579,0,0,0-2.991-1.47a2.922,2.922,0,0,0,.362-1.538A2.231,2.231,0,0,0-3.5-4.881a2.671,2.671,0,0,0-1.668-.526,4.9,4.9,0,0,0-3.384,1.36A12.447,12.447,0,0,0-9.71-2.83l-.827-.67q3.35-3.445,6.132-6.275-2.01.15-4.771.226ZM-5.233-.212a3.024,3.024,0,0,0-.622-1.429,1.275,1.275,0,0,0-.984-.472,1.119,1.119,0,0,0-.807.3.828.828,0,0,0-.273.622.87.87,0,0,0,.465.827,2.872,2.872,0,0,0,1.3.226A6.036,6.036,0,0,0-5.233-.212ZM5.773-9.153A22.039,22.039,0,0,1,4.29-1.791,2.1,2.1,0,0,1,2.4-.308,1.749,1.749,0,0,1,.79-1.367,6,6,0,0,1,.256-4.156,7.336,7.336,0,0,1,.714-6.774,5.114,5.114,0,0,1,1.753-8.5,4.675,4.675,0,0,1,3.469-9.625a5.426,5.426,0,0,1,1.969-.369A4.139,4.139,0,0,1,8.993-8.5a6.371,6.371,0,0,1,.964,3.808,5.114,5.114,0,0,1-1.121,3.4A5.6,5.6,0,0,1,5.561.492L5.076-.349A4.243,4.243,0,0,0,8.911-4.956a4.67,4.67,0,0,0-1.032-3.3A2.809,2.809,0,0,0,5.773-9.153ZM4.72-9.044a3.075,3.075,0,0,0-1.292.4,4.459,4.459,0,0,0-1.06.93A5.252,5.252,0,0,0,1.22-4.129,4.6,4.6,0,0,0,1.63-2q.328.615.752.615A.82.82,0,0,0,3-1.647a2.544,2.544,0,0,0,.444-.759A19.819,19.819,0,0,0,4.72-9.044ZM18.495-7.157l.718-.273a18.274,18.274,0,0,1,1.032,2.365l-.752.308A15.123,15.123,0,0,0,18.495-7.157Zm1.586-.472.7-.253a11.566,11.566,0,0,1,1,2.3l-.731.294A13.488,13.488,0,0,0,20.081-7.629Zm.39-2.632L20.5-9.3a5.312,5.312,0,0,0-2.311.629,5.934,5.934,0,0,0-2.071,1.962A4.817,4.817,0,0,0,15.3-4.047a2.958,2.958,0,0,0,1.285,2.529,6.17,6.17,0,0,0,2.933,1l-.239,1A6.1,6.1,0,0,1,15.651-.9a3.89,3.89,0,0,1-1.312-3.049,5.709,5.709,0,0,1,2.994-5.024l.759-.335-.014-.027-.656.109q-1.189.068-5.66.479l-.082-.923Q13.682-9.823,20.47-10.261Zm3.124,7.738A14.948,14.948,0,0,1,25.235-.991,10.045,10.045,0,0,1,26.4.492l-.923.684a11.119,11.119,0,0,0-2.7-3.035ZM34.874-8.907V-11.17h.964v2.208q1.511-.1,2.591-.219v.909q-1.224.123-2.591.205v2.707a8.692,8.692,0,0,1,2.646-.479A2.9,2.9,0,0,1,41.06-4.669a3.273,3.273,0,0,1,.533,1.894,2.654,2.654,0,0,1-1.3,2.591A6.067,6.067,0,0,1,37.587.28v-.9a3.954,3.954,0,0,0,2.167-.444,2.048,2.048,0,0,0,.772-1.825,2.11,2.11,0,0,0-.6-1.524A1.724,1.724,0,0,0,38.64-4.97a7.651,7.651,0,0,0-2.8.533V-.827a1.437,1.437,0,0,1-.273,1,1.054,1.054,0,0,1-.786.26A2.259,2.259,0,0,1,33.588.055a2.427,2.427,0,0,1-1.347-2.03q0-1.736,2.632-3.049v-3q-.813.048-2.434.075v-.9Q33.752-8.846,34.874-8.907Zm0,4.9a5.118,5.118,0,0,0-1.306,1.019,1.511,1.511,0,0,0-.39.984,1.078,1.078,0,0,0,.335.759,1.888,1.888,0,0,0,.69.458.9.9,0,0,0,.39.1q.28,0,.28-.465Zm3.9-5.64.6-.731a12.831,12.831,0,0,1,2.816,2.229l-.684.772A11,11,0,0,0,38.777-9.646ZM56.072-3.637a2.1,2.1,0,0,0-.362.595q-.089.212-.171.212a1.477,1.477,0,0,1-.191-.027,21.158,21.158,0,0,1-5.6-1.887,14.8,14.8,0,0,1-3.514,1.511q.28.027,1.8.027h3.3l1.866-.027q.109,0,.109.1l-.027,1.08V-.882l.027,1.8q0,.1-.109.1h-.636q-.109,0-.109-.1V.335h-5.53V.9q0,.1-.109.1h-.636q-.109,0-.109-.1L46.1-.882V-1.935l-.027-1.2v-.041q-.807.246-1.948.513a1.079,1.079,0,0,1-.205.041q-.089,0-.185-.205a1.49,1.49,0,0,0-.349-.513A19.32,19.32,0,0,0,49-5.182a10.515,10.515,0,0,1-1.887-1.511A12.489,12.489,0,0,1,44.9-5.2a1.187,1.187,0,0,1-.226.1q-.041,0-.15-.157a1.274,1.274,0,0,0-.424-.417,10.162,10.162,0,0,0,3.821-2.926,3.067,3.067,0,0,0,.369-.643,5.962,5.962,0,0,1,.731.232q.123.068.123.144T49-8.688a1.612,1.612,0,0,0-.294.308q-.185.239-.308.376h3.473a.783.783,0,0,0,.335-.055.317.317,0,0,1,.13-.041q.109,0,.39.28.239.253.239.376a.206.206,0,0,1-.144.2,1.379,1.379,0,0,0-.417.321,15.542,15.542,0,0,1-1.935,1.688A20.549,20.549,0,0,0,56.072-3.637ZM52.462-.39V-2.5h-5.53V-.39Zm-.711-6.945H47.8l-.171.185a10.306,10.306,0,0,0,2.105,1.524A12.59,12.59,0,0,0,51.751-7.335Zm3.5-.137a.1.1,0,0,1-.109.109h-.636a.1.1,0,0,1-.109-.109V-9.44H44.806v1.969a.1.1,0,0,1-.109.109h-.636a.1.1,0,0,1-.109-.109l.027-1.449v-.437l-.027-.725a.1.1,0,0,1,.109-.109L46-10.165h3.083v-.547a3.786,3.786,0,0,0-.1-.95q.41.021.923.068.171.021.171.116a.846.846,0,0,1-.082.26,1.819,1.819,0,0,0-.068.547v.506h3.288l1.935-.027a.1.1,0,0,1,.109.109l-.027.629v.533ZM70.092-.465a1.86,1.86,0,0,0-.451.479q-.089.171-.164.171a.433.433,0,0,1-.2-.1,10.65,10.65,0,0,1-2.331-2.01,8.641,8.641,0,0,1-1.278-2.112q.055,2.939.055,3.657a1.138,1.138,0,0,1-.362.991,2.854,2.854,0,0,1-1.415.239.548.548,0,0,1-.28-.041.547.547,0,0,1-.089-.239,1.561,1.561,0,0,0-.246-.588,8.256,8.256,0,0,0,.923.055.82.82,0,0,0,.554-.123.62.62,0,0,0,.1-.424V-2.112q-1.244.807-2.769,1.62a1.943,1.943,0,0,0-.506.314q-.089.109-.157.109t-.123-.123q-.144-.253-.362-.745A4.57,4.57,0,0,0,61.8-1.23a26.732,26.732,0,0,0,3.11-1.7V-4.97h-1.3l-1.935.027q-.1,0-.1-.109V-5.6q0-.109.1-.109l1.935.027h1.3V-6.938h-.8l-1.764.027q-.109,0-.109-.116V-7.54q0-.116.109-.116l1.764.027h.8v-1.2h-.991L62.04-8.8q-.109,0-.109-.1v-.554a.1.1,0,0,1,.109-.109l1.88.027H66a12.2,12.2,0,0,0,.752-1.429,2.654,2.654,0,0,0,.185-.588,5.368,5.368,0,0,1,.725.212q.171.048.171.15,0,.075-.137.185a.677.677,0,0,0-.2.267,12.632,12.632,0,0,1-.7,1.2h.465l1.846-.027q.13,0,.13.109V-8.9q0,.1-.13.1l-1.846-.027H65.7v1.2h1.176l1.75-.027q.109,0,.109.116v.513q0,.116-.109.116l-1.75-.027H65.7v1.258h1.941l1.935-.027a.1.1,0,0,1,.109.109v.547a.1.1,0,0,1-.109.109L67.638-4.97h-1.8a9.616,9.616,0,0,0,1.189,2.03,11.043,11.043,0,0,0,1.121-1.053,1.977,1.977,0,0,0,.335-.485,4.885,4.885,0,0,1,.574.444.258.258,0,0,1,.116.185q0,.109-.137.15a1.1,1.1,0,0,0-.424.294,13.717,13.717,0,0,1-1.135,1A10.167,10.167,0,0,0,70.092-.465ZM61.547-8.08q0,.116-.109.116L60.18-7.991h-.089a9.323,9.323,0,0,0,1.442,3.035,1.831,1.831,0,0,0-.349.533q-.068.15-.123.15t-.13-.15A12.545,12.545,0,0,1,59.968-7.1q.007,2.755.082,5.79.014.759.041,1.7Q60.1.854,60.1.9a.085.085,0,0,1-.1.1h-.67q-.116,0-.116-.1s.009-.406.027-1.2q.1-3.541.116-6.6a15.75,15.75,0,0,1-1.641,4.437q-.089.157-.137.157-.075,0-.116-.137a1.211,1.211,0,0,0-.362-.547,15.308,15.308,0,0,0,2.058-5h-.308l-1.271.027a.1.1,0,0,1-.116-.116v-.547q0-.123.116-.123l1.271.027h.417v-1.2a8.8,8.8,0,0,0-.109-1.668,6.609,6.609,0,0,1,.882.089q.171.021.171.123a.676.676,0,0,1-.082.253,4.858,4.858,0,0,0-.075,1.189v1.217h.116l1.258-.027q.109,0,.109.123Zm2.146,4.819q.048.048.048.075t-.1.137l-.294.273q-.116.123-.164.123-.027,0-.068-.062A6.8,6.8,0,0,0,61.944-4.02q-.055-.041-.055-.068T62-4.225l.239-.226q.109-.1.15-.1t.068.048A6.8,6.8,0,0,1,63.694-3.261Zm.725-6.918a.168.168,0,0,1,.014.062q0,.048-.1.109l-.41.219a.441.441,0,0,1-.164.075q-.041,0-.075-.089a4.652,4.652,0,0,0-.786-1.258.112.112,0,0,1-.041-.068q0-.041.144-.116l.362-.178a.368.368,0,0,1,.123-.041.146.146,0,0,1,.1.068A6.6,6.6,0,0,1,64.418-10.179Zm10.91,3.555q1.429-.854,3.274-1.818l.5.882a29.874,29.874,0,0,0-4.464,2.5,3.4,3.4,0,0,0-1.709,2.714q0,1.8,2.885,1.8,1.483,0,3.391-.137v1Q76.86.39,75.746.39q-3.78,0-3.78-2.755,0-2.085,2.475-3.7-.588-2.14-1.087-5.024l1.032-.041A41.148,41.148,0,0,0,75.329-6.624Zm8.839-2.283V-11.17h.964v2.208q1.511-.1,2.591-.219v.909q-1.224.123-2.591.205v2.707a8.692,8.692,0,0,1,2.646-.479,2.9,2.9,0,0,1,2.577,1.169,3.273,3.273,0,0,1,.533,1.894,2.654,2.654,0,0,1-1.3,2.591A6.067,6.067,0,0,1,86.881.28v-.9a3.954,3.954,0,0,0,2.167-.444,2.048,2.048,0,0,0,.772-1.825,2.11,2.11,0,0,0-.6-1.524,1.724,1.724,0,0,0-1.285-.561,7.652,7.652,0,0,0-2.8.533V-.827a1.437,1.437,0,0,1-.273,1,1.054,1.054,0,0,1-.786.26A2.259,2.259,0,0,1,82.882.055a2.427,2.427,0,0,1-1.347-2.03q0-1.736,2.632-3.049v-3q-.813.048-2.434.075v-.9Q83.046-8.846,84.167-8.907Zm0,4.9a5.118,5.118,0,0,0-1.306,1.019,1.511,1.511,0,0,0-.39.984,1.078,1.078,0,0,0,.335.759,1.888,1.888,0,0,0,.69.458.9.9,0,0,0,.39.1q.28,0,.28-.465Zm3.9-5.64.6-.731a12.831,12.831,0,0,1,2.816,2.229l-.684.772A11,11,0,0,0,88.071-9.646ZM104.682.349q0,.109-.116.109L102.679.431H95.091L93.2.458a.1.1,0,0,1-.109-.109V-.26A.1.1,0,0,1,93.2-.369l1.894.027h3.261V-4H95.563l-1.928.027q-.116,0-.116-.109v-.595q0-.109.116-.109l1.928.027h2.789v-1.75H97.5l-1.75.014q-.109,0-.109-.1v-.588a.1.1,0,0,1,.109-.109l1.75.027h2.755l1.771-.027a.1.1,0,0,1,.109.109V-6.6q0,.1-.109.1l-1.771-.014H99.22v1.75h3.035l1.935-.027a.1.1,0,0,1,.109.109v.595a.182.182,0,0,1-.014.1.182.182,0,0,1-.1.014L102.255-4H99.22V-.342h3.459l1.887-.027q.116,0,.116.109ZM105.55-7a1.6,1.6,0,0,0-.41.547q-.116.212-.185.212a1.127,1.127,0,0,1-.219-.068,13.179,13.179,0,0,1-5.913-4.3,14.409,14.409,0,0,1-5.708,4.437.7.7,0,0,1-.2.062q-.068,0-.191-.191a1.314,1.314,0,0,0-.451-.431,13.147,13.147,0,0,0,5.77-4.286,3.041,3.041,0,0,0,.4-.779,4.172,4.172,0,0,1,.9.191q.2.068.2.185,0,.068-.1.123a.379.379,0,0,0-.13.089,11.238,11.238,0,0,0,3.049,2.769A15.984,15.984,0,0,0,105.55-7Zm-2.762,3.992q0,.068-.137.178a1.049,1.049,0,0,0-.226.342,13.26,13.26,0,0,1-1,1.675q-.116.144-.164.144a.433.433,0,0,1-.2-.1,1.184,1.184,0,0,0-.472-.226,9.909,9.909,0,0,0,1.1-1.88,3.2,3.2,0,0,0,.212-.615,4.029,4.029,0,0,1,.711.294Q102.789-3.09,102.789-3.008ZM96.855-1.36a.268.268,0,0,1,.021.089q0,.062-.137.123l-.431.212a.832.832,0,0,1-.185.075q-.041,0-.068-.089a8.837,8.837,0,0,0-1-2,.133.133,0,0,1-.027-.068q0-.048.157-.13l.376-.164a.631.631,0,0,1,.157-.062q.048,0,.1.075A9.841,9.841,0,0,1,96.855-1.36ZM112.3-9.153a22.039,22.039,0,0,1-1.483,7.362A2.1,2.1,0,0,1,108.92-.308a1.749,1.749,0,0,1-1.606-1.06,6,6,0,0,1-.533-2.789,7.336,7.336,0,0,1,.458-2.618A5.114,5.114,0,0,1,108.278-8.5a4.675,4.675,0,0,1,1.716-1.128,5.426,5.426,0,0,1,1.969-.369,4.139,4.139,0,0,1,3.555,1.5,6.371,6.371,0,0,1,.964,3.808,5.114,5.114,0,0,1-1.121,3.4A5.6,5.6,0,0,1,112.085.492L111.6-.349a4.243,4.243,0,0,0,3.835-4.607,4.671,4.671,0,0,0-1.032-3.3A2.809,2.809,0,0,0,112.3-9.153Zm-1.053.109a3.075,3.075,0,0,0-1.292.4,4.459,4.459,0,0,0-1.06.93,5.252,5.252,0,0,0-1.148,3.582A4.6,4.6,0,0,0,108.155-2q.328.615.752.615a.82.82,0,0,0,.622-.26,2.544,2.544,0,0,0,.444-.759A19.819,19.819,0,0,0,111.245-9.044ZM-50.723,9.983a3.553,3.553,0,0,1,.362-.014,2.4,2.4,0,0,1,2.023.93,2.83,2.83,0,0,1,.554,1.771,2.543,2.543,0,0,1-.978,2.194,3.92,3.92,0,0,1-2.358.622q-.349,0-.882-.027l-.15-.95q.759.055,1.148.055,2.181,0,2.181-1.853a1.982,1.982,0,0,0-.567-1.538,1.546,1.546,0,0,0-1.066-.39,14.2,14.2,0,0,0-4.074.95q1.012,3.794,1.859,7.731l-1,.205q-.813-3.931-1.791-7.615-.82.28-2.146.786l-.349-.868q1.914-.649,2.256-.759-.267-.978-.827-2.939l.964-.253.438,1.559q.226.793.376,1.326a23.04,23.04,0,0,1,2.98-.827,19.409,19.409,0,0,0-1.019-2.058l.9-.335A20.619,20.619,0,0,1-50.723,9.983ZM-44.857,8.1l.971.123a38.254,38.254,0,0,0-.424,4.9,10.011,10.011,0,0,0,.055,1.162q.506-1.2.957-2.1l.643.5a17.361,17.361,0,0,0-.978,2.2,6.693,6.693,0,0,0-.239.841l-1.08.014a13.112,13.112,0,0,1-.294-2.816A40.7,40.7,0,0,1-44.857,8.1Zm4.662.055,1.012-.041q.137,2.6.137,4.758a14.871,14.871,0,0,1-.239,3.042,4.749,4.749,0,0,1-.7,1.647,5.8,5.8,0,0,1-3.527,2.112l-.6-.807a4.78,4.78,0,0,0,3.151-1.7q.923-1.189.923-4.341Q-40.038,10.94-40.2,8.151Zm7.554,4.225q1.429-.854,3.274-1.818l.5.882a29.874,29.874,0,0,0-4.464,2.5,3.4,3.4,0,0,0-1.709,2.714q0,1.8,2.885,1.8,1.483,0,3.391-.137v1q-2.345.068-3.459.068-3.78,0-3.78-2.755,0-2.085,2.475-3.7-.588-2.14-1.087-5.024l1.032-.041A41.146,41.146,0,0,0-32.642,12.376ZM-25.259,8.1l.971.123a38.254,38.254,0,0,0-.424,4.9,10.01,10.01,0,0,0,.055,1.162q.506-1.2.957-2.1l.643.5a17.361,17.361,0,0,0-.978,2.2,6.693,6.693,0,0,0-.239.841l-1.08.014a13.113,13.113,0,0,1-.294-2.816A40.7,40.7,0,0,1-25.259,8.1Zm4.662.055,1.012-.041q.137,2.6.137,4.758a14.871,14.871,0,0,1-.239,3.042,4.749,4.749,0,0,1-.7,1.647,5.8,5.8,0,0,1-3.527,2.112l-.6-.807a4.78,4.78,0,0,0,3.151-1.7q.923-1.189.923-4.341Q-20.439,10.94-20.6,8.151Zm9.338,6.467v2.769H-12.2V15.049q-.321.164-.663.355-1.791,1.012-1.791,2.03a.927.927,0,0,0,.629.943,6.4,6.4,0,0,0,2.078.232q1.47,0,3.411-.171l.041.95q-2.55.13-3.384.13a5.879,5.879,0,0,1-2.967-.513,1.772,1.772,0,0,1-.7-1.6,3.066,3.066,0,0,1,1.88-2.55q.711-.4,1.456-.772-.068-1.312-.909-1.312-1.176,0-3.227,2.365l-.725-.643a16.348,16.348,0,0,0,2.9-4.136q-1.278.021-2.563,0V9.5q1.477.027,2.953,0a12.51,12.51,0,0,0,.629-1.873l1.012.185a14.377,14.377,0,0,1-.588,1.647q1.969-.062,3.739-.239l.027.854q-2.3.185-4.143.239a14.3,14.3,0,0,1-1.176,1.989l-.355.362.041.055a2.492,2.492,0,0,1,1.668-.711,1.521,1.521,0,0,1,1.114.424,1.982,1.982,0,0,1,.526,1.217q1.094-.5,2.844-1.237l.39.957Q-10.329,14.208-11.259,14.618Zm5.872-6.651h1.046q-.239,7.191-.239,8.668a2.136,2.136,0,0,0,.458,1.579,2.222,2.222,0,0,0,1.545.424,3.218,3.218,0,0,0,2.44-.943A5.471,5.471,0,0,0,1.08,15.021l.95.479q-.93,4.074-4.58,4.074a3.2,3.2,0,0,1-2.4-.718A3.1,3.1,0,0,1-5.558,16.7q0-.766.062-3.753Q-5.414,9.334-5.387,7.967Zm12.5,2.146q.82-.068,2.071-.2l.014.868q-1.142.137-2.3.191a38.417,38.417,0,0,1-2.468,6.487l-.909-.424a29.976,29.976,0,0,0,2.379-6.016q-1.135.062-2.27.041L3.6,10.2q1.176.041,2.522-.027Q6.392,9,6.583,7.8L7.6,7.926Q7.41,8.869,7.109,10.113Zm3,5.79q-.123-1.5-.144-3.568h.964q0,1.791.157,3.794a9.264,9.264,0,0,1,2.563,1.6l-.52.95a7.662,7.662,0,0,0-2.017-1.524v.232q0,2.229-2.475,2.229a2.629,2.629,0,0,1-1.846-.581,1.665,1.665,0,0,1-.54-1.292,1.7,1.7,0,0,1,.889-1.5A3.244,3.244,0,0,1,8.9,15.78,5.891,5.891,0,0,1,10.11,15.9Zm0,.93a4.031,4.031,0,0,0-1.162-.2,2.4,2.4,0,0,0-1.429.349.867.867,0,0,0-.383.731.886.886,0,0,0,.41.772,1.931,1.931,0,0,0,1.107.273,1.305,1.305,0,0,0,1.47-1.483Zm.055-6.357.444-.8a14.091,14.091,0,0,1,3.192,1.5l-.513.868A12.767,12.767,0,0,0,10.165,10.476ZM20.6,7.939l.9.615q-2.119,2.454-4.382,4.607a.681.681,0,0,0-.267.479q0,.226.376.513a45.7,45.7,0,0,1,4.9,4.71l-.868.725a50.559,50.559,0,0,0-5.024-5.065,1.118,1.118,0,0,1-.465-.841,1.139,1.139,0,0,1,.362-.827A64.9,64.9,0,0,0,20.6,7.939Zm12.011.8.027.964a5.312,5.312,0,0,0-2.311.629,5.934,5.934,0,0,0-2.071,1.962,4.817,4.817,0,0,0-.813,2.659,2.958,2.958,0,0,0,1.285,2.529,6.17,6.17,0,0,0,2.933,1l-.239,1a6.1,6.1,0,0,1-3.63-1.381,3.89,3.89,0,0,1-1.312-3.049,5.709,5.709,0,0,1,2.994-5.024l.759-.335-.014-.027-.656.109q-1.189.068-5.66.479l-.082-.923Q25.819,9.177,32.607,8.739Zm14.28,4.252a2.034,2.034,0,0,0-.321.547q-.1.226-.191.226a1.293,1.293,0,0,1-.191-.027q-.813-.164-1.271-.28v4.635l.027,1.7q0,.116-.109.116h-.649q-.109,0-.109-.116l.027-1.7V17.024H39.382l-.041.137a5.06,5.06,0,0,1-1.75,2.625.578.578,0,0,1-.2.109q-.068,0-.212-.144a1.808,1.808,0,0,0-.533-.376,4.2,4.2,0,0,0,1.921-2.488,8.507,8.507,0,0,0,.294-1.5q.062-.656.068-1.941-.4.1-1.176.232a1.412,1.412,0,0,1-.171.021q-.116,0-.205-.232a1.485,1.485,0,0,0-.308-.5,13.06,13.06,0,0,0,4.088-1.094,6.943,6.943,0,0,1-2.03-2.1q-.588.007-1.032.021l-.226.007H37.8q-.123,0-.123-.109V9.143q0-.109.123-.109l1.962.027H41.4V8.63a6.048,6.048,0,0,0-.1-1.278q.479.021.93.082.164.027.164.116a.9.9,0,0,1-.082.267,2.676,2.676,0,0,0-.068.779v.465h2.167l1.976-.027a.1.1,0,0,1,.109.109v.547a.1.1,0,0,1-.109.109L44.6,9.771a7.1,7.1,0,0,1-1.935,2.071A15.426,15.426,0,0,0,46.888,12.991ZM44.1,16.313V14.864H39.7a9.606,9.606,0,0,1-.171,1.449Zm0-2.146V13.23a10.4,10.4,0,0,1-2.187-.9,10.469,10.469,0,0,1-2.167.9q0,.656-.014.937Zm-.437-4.4H40.024a5.891,5.891,0,0,0,1.9,1.682A5.485,5.485,0,0,0,43.661,9.771Zm-6.6,6.036a34.782,34.782,0,0,1-1.456,3.22,2.941,2.941,0,0,0-.28.615q-.021.144-.137.144a.367.367,0,0,1-.2-.082q-.321-.226-.643-.492a5.507,5.507,0,0,0,.759-1.121,24.812,24.812,0,0,0,1.381-3.138,3.272,3.272,0,0,0,.438.424q.2.15.2.226A.769.769,0,0,1,37.058,15.808Zm.321-6.535a.146.146,0,0,1,.062.1.328.328,0,0,1-.089.157l-.294.362q-.082.109-.13.109a.114.114,0,0,1-.075-.041,10.414,10.414,0,0,0-1.88-1.613q-.062-.041-.062-.075t.1-.144l.28-.321q.1-.116.15-.116a.168.168,0,0,1,.075.027A10.416,10.416,0,0,1,37.379,9.272ZM36.7,12.656a.131.131,0,0,1,.048.082q0,.041-.089.144l-.294.376q-.1.123-.144.123-.027,0-.082-.055a10.127,10.127,0,0,0-1.873-1.511q-.062-.034-.062-.068a.339.339,0,0,1,.089-.15l.267-.355q.068-.089.116-.089a.221.221,0,0,1,.089.034A9.829,9.829,0,0,1,36.7,12.656Zm15.121-2.044q-.027,1.545-.055,2.468a1.986,1.986,0,0,1,.246.759,7.878,7.878,0,0,1,.048,1.019,2.336,2.336,0,0,1-.8,1.976,2.183,2.183,0,0,0-.212.909.661.661,0,0,0,.472.643,5.062,5.062,0,0,0,1.8.226,4.484,4.484,0,0,0,2.646-.54,1.639,1.639,0,0,0,.492-1.34,8.535,8.535,0,0,0-.506-2.563l1.025.089a6.942,6.942,0,0,1,.472,2.687,2.173,2.173,0,0,1-1.1,2.112,6.808,6.808,0,0,1-3,.492,5.305,5.305,0,0,1-2.584-.458,1.354,1.354,0,0,1-.677-1.251,2.437,2.437,0,0,1,.15-.759q-1.887-.021-1.887-2.153a2.809,2.809,0,0,1,.622-2,1.783,1.783,0,0,1,1.367-.54,1.034,1.034,0,0,1,.52.1q.027-1.374.027-1.839-1.142.062-2.427.062V9.833q1.422.021,2.44-.034.021-1.094.041-2H51.9q-.027.69-.055,1.955,1.3-.075,2.7-.219v.868Q53.382,10.544,51.816,10.612Zm-1.524,2.6q-1.066,0-1.066,1.682,0,1.285.991,1.285a.781.781,0,0,0,.745-.4,2.1,2.1,0,0,0,.185-1Q51.146,13.217,50.292,13.217Zm4.717-4.238.684-.615a13.937,13.937,0,0,1,2.673,2.659l-.725.725A12.593,12.593,0,0,0,55.009,8.979Z" transform="translate(116.625 11.799)" fill="#595757"/>
</svg>
