<svg xmlns="http://www.w3.org/2000/svg" width="237.747" height="31.708" viewBox="0 0 237.747 31.708">
  <path id="Контур_1734" data-name="Контур 1734" d="M-106.627.219A1.97,1.97,0,0,0-107,.752q-.1.185-.171.185a.464.464,0,0,1-.171-.082A13.083,13.083,0,0,1-109.5-1.135,11.071,11.071,0,0,1-111.022.7q-.144.144-.185.144-.068,0-.164-.185a2.016,2.016,0,0,0-.41-.444A10.211,10.211,0,0,0-110-1.8a11.467,11.467,0,0,1-1.606-3.876H-112v3.7l.021,2.851q0,.116-.1.116h-.629q-.123,0-.123-.116l.027-2.782v-6l-.027-2.844q0-.109.123-.109l1.7.027h2.03l1.579-.027q.144,0,.144.123-.055.465-.075.731A9.2,9.2,0,0,1-107.6-8.23a1.062,1.062,0,0,1-.5.656,1.743,1.743,0,0,1-.813.157q-.253,0-.923-.027a.46.46,0,0,1-.226-.048.427.427,0,0,1-.068-.205,2.237,2.237,0,0,0-.157-.533,10.407,10.407,0,0,0,1.278.089.722.722,0,0,0,.492-.137.984.984,0,0,0,.219-.451,6.074,6.074,0,0,0,.157-1.36H-112V-6.4h3.4a.741.741,0,0,0,.321-.055.528.528,0,0,1,.171-.041q.109,0,.383.253.253.253.253.362a.19.19,0,0,1-.089.164,1.262,1.262,0,0,0-.239.533,15.489,15.489,0,0,1-1.258,3.329A10.267,10.267,0,0,0-106.627.219Zm-1.859-5.893H-110.9a10.386,10.386,0,0,0,1.333,3.138A14.054,14.054,0,0,0-108.486-5.674Zm-4.717,1.6a.1.1,0,0,1-.109.109l-1.709-.027h-.711v1.586h.629l1.579-.027a.1.1,0,0,1,.109.109v.52a.1.1,0,0,1-.109.109l-1.579-.027h-.629V-.574l.021,1.483q0,.1-.109.1h-.629q-.109,0-.109-.1l.027-1.483V-1.723h-.745l-1.6.027a.1.1,0,0,1-.109-.109v-.52a.1.1,0,0,1,.109-.109l1.6.027h.745V-3.992h-.971l-1.709.027q-.1,0-.1-.109v-.52q0-.109.1-.109l1.709.027h1.853a11.391,11.391,0,0,0,.629-1.524,5.18,5.18,0,0,0,.137-.588,3.749,3.749,0,0,1,.731.205q.144.062.144.144t-.1.137a.759.759,0,0,0-.185.294q-.328.745-.629,1.333l1.613-.027a.1.1,0,0,1,.109.109Zm-.014-3.008a.1.1,0,0,1-.109.109L-115.035-7h-2.454l-1.709.027q-.1,0-.1-.109V-7.6q0-.109.1-.109l1.709.027h.957v-1.47h-.649l-1.565.027q-.109,0-.109-.116v-.533q0-.1.109-.1l1.565.027h.649v-.376a7.107,7.107,0,0,0-.1-1.4,6.906,6.906,0,0,1,.889.082q.178.027.178.116a.956.956,0,0,1-.082.253,2.265,2.265,0,0,0-.082.807v.52h.5l1.559-.027q.109,0,.109.1v.533q0,.116-.109.116l-1.559-.027h-.5v1.47h.7l1.709-.027a.1.1,0,0,1,.109.109Zm-3.726,1.873a.412.412,0,0,1,.007.062q0,.068-.15.123l-.321.109a.6.6,0,0,1-.157.041q-.055,0-.082-.082a10.8,10.8,0,0,0-.54-1.47.182.182,0,0,1-.034-.082q0-.048.13-.089l.362-.123a.311.311,0,0,1,.1-.027q.048,0,.1.082A9.678,9.678,0,0,1-116.942-5.209Zm17.2-5.113q0,.1-.109.1l-1.606-.034h-.171v1.627l1.374-.027a.1.1,0,0,1,.109.109L-100.174-6v2.413l.027,3.65a.1.1,0,0,1-.109.109h-.479a.1.1,0,0,1-.109-.109V-.506h-3.493V.7q0,.116-.109.116h-.492q-.109,0-.109-.116l.027-3.917V-5.558l-.027-2.987a.1.1,0,0,1,.109-.109l1.449.027v-1.627h-.239l-1.572.034q-.109,0-.109-.1v-.547a.1.1,0,0,1,.109-.109l1.627.027h2.215l1.606-.027a.1.1,0,0,1,.109.109Zm-1.1,7.144v-1.47q-.144.014-.362.014a1.175,1.175,0,0,1-.759-.171,1.1,1.1,0,0,1-.267-.882V-7.971h-.656a18.182,18.182,0,0,1-.123,1.962,4.3,4.3,0,0,1-.7,1.962q-.089.123-.144.123t-.109-.123a1.183,1.183,0,0,0-.314-.349,3.515,3.515,0,0,0,.7-1.812q.068-.506.1-1.764h-.848v4.792Zm0,2V-2.522h-3.493v1.347Zm0-4.1V-7.971h-.786V-6.05a1.467,1.467,0,0,0,.082.656.5.5,0,0,0,.383.116Zm-1.388-3.35v-1.627h-.656v1.627Zm4.539-2.447a.478.478,0,0,1-.034.137,1.337,1.337,0,0,0-.055.157,14.489,14.489,0,0,0-.068,1.709v3.192a23.158,23.158,0,0,1-.267,4.02A6.258,6.258,0,0,1-99.436.882q-.13.157-.164.157-.055,0-.157-.13a1.144,1.144,0,0,0-.492-.321,4.685,4.685,0,0,0,1.4-2.687,22.607,22.607,0,0,0,.239-3.78V-9.1a16.142,16.142,0,0,0-.1-2.16,6.9,6.9,0,0,1,.827.075Q-97.692-11.163-97.692-11.074Zm4.642-.082a.434.434,0,0,1-.027.123,1.128,1.128,0,0,0-.041.144,15.827,15.827,0,0,0-.055,1.75v7.711l.027,2.3q0,.109-.123.109h-.581A.1.1,0,0,1-93.96.868l.027-2.3v-7.7a20.266,20.266,0,0,0-.082-2.229q.424.021.813.068Q-93.051-11.266-93.051-11.156Zm-2.365.349a2.66,2.66,0,0,1-.055.28,8.2,8.2,0,0,0-.082,1.538v6.61l.027,2.461q0,.116-.123.116h-.581q-.109,0-.109-.116l.027-2.461V-8.962a16.447,16.447,0,0,0-.082-2.03,7.494,7.494,0,0,1,.827.075Q-95.416-10.9-95.416-10.808ZM-98.9-7a9.736,9.736,0,0,1-.4,2.468q-.021.068-.048.068a.658.658,0,0,1-.164-.068l-.28-.144q-.116-.048-.116-.116a.207.207,0,0,1,.021-.075,6.629,6.629,0,0,0,.376-2.352q0-.068.048-.068a.754.754,0,0,1,.15.041l.267.1Q-98.9-7.1-98.9-7Zm2.379,1.948q.007.041.007.048,0,.034-.171.164l-.2.137a.3.3,0,0,1-.13.055q-.055,0-.062-.1a9.288,9.288,0,0,0-.506-2.194.258.258,0,0,1-.027-.089q0-.034.123-.1l.226-.109a.262.262,0,0,1,.1-.034q.041,0,.082.075A9.112,9.112,0,0,1-96.523-5.052Zm2.338-.137a.342.342,0,0,1,.007.041q0,.089-.157.164l-.239.144a.423.423,0,0,1-.13.055q-.027,0-.034-.082a9.3,9.3,0,0,0-.52-2.187.123.123,0,0,1-.021-.062q0-.048.13-.1l.212-.1a.482.482,0,0,1,.1-.027q.048,0,.1.082A9.772,9.772,0,0,1-94.186-5.188Zm8.572.807v2.769h-.937V-3.951q-.321.164-.663.355Q-89-2.584-89-1.565a.927.927,0,0,0,.629.943A6.4,6.4,0,0,0-86.3-.39q1.47,0,3.411-.171l.041.95q-2.55.13-3.384.13A5.879,5.879,0,0,1-89.2.007a1.772,1.772,0,0,1-.7-1.6,3.066,3.066,0,0,1,1.88-2.55q.711-.4,1.456-.772-.068-1.312-.909-1.312-1.176,0-3.227,2.365l-.725-.643a16.348,16.348,0,0,0,2.9-4.136q-1.278.021-2.563,0V-9.5q1.477.027,2.953,0a12.51,12.51,0,0,0,.629-1.873l1.012.185a14.376,14.376,0,0,1-.588,1.647q1.969-.062,3.739-.239l.027.854q-2.3.185-4.143.239a14.3,14.3,0,0,1-1.176,1.989l-.355.362.041.055a2.492,2.492,0,0,1,1.668-.711,1.521,1.521,0,0,1,1.114.424,1.982,1.982,0,0,1,.526,1.217q1.094-.5,2.844-1.237l.39.957Q-84.684-4.792-85.613-4.382ZM-74.553-.561a.207.207,0,0,1,.021.075q0,.068-.157.15l-.383.164a.515.515,0,0,1-.164.075q-.041,0-.068-.089-.349-.807-.561-1.217A38.18,38.18,0,0,1-79.687-.137a2.225,2.225,0,0,0-.506.2.714.714,0,0,1-.2.1q-.082,0-.15-.144a4.706,4.706,0,0,1-.28-.813A11.054,11.054,0,0,0-79.714-1V-8.333l-.027-2.29q0-.116.123-.116l1.538.027h1.586l1.422-.027a.1.1,0,0,1,.116.116l-.027,1.477v2.775l.027,1.483q0,.109-.116.109l-1.422-.027H-78.9v3.616a20.6,20.6,0,0,0,2.666-.868,13.269,13.269,0,0,0-.779-1.251.133.133,0,0,1-.027-.068q0-.048.137-.123l.349-.171a.325.325,0,0,1,.13-.048.146.146,0,0,1,.1.062A16.044,16.044,0,0,1-74.553-.561Zm-1.23-4.956V-7.437H-78.9v1.921Zm0-2.618V-10H-78.9v1.866Zm6.774,5.154a1.958,1.958,0,0,1-.28,1.176,1.033,1.033,0,0,1-.567.362,4.412,4.412,0,0,1-1.039.089q-.144,0-.349-.007a.523.523,0,0,1-.253-.034.614.614,0,0,1-.075-.232,1.86,1.86,0,0,0-.246-.656,10.478,10.478,0,0,0,1.169.068.769.769,0,0,0,.622-.2,1.05,1.05,0,0,0,.15-.656V-9.9h-2.892v8.306l.027,2.475q0,.1-.116.1h-.67q-.109,0-.109-.1l.027-2.646V-7.923l-.027-2.673q0-.116.109-.116l1.442.027h1.538l1.422-.027a.1.1,0,0,1,.116.116l-.027,2.1v3.609ZM-56.437.4a.1.1,0,0,1-.109.109h-.677A.1.1,0,0,1-57.333.4V-.451h-6.48V.431q0,.109-.1.109h-.69a.1.1,0,0,1-.109-.109l.027-4.8v-2.7l-.027-3.527q0-.116.109-.116l1.948.027H-58.5l1.948-.027q.109,0,.109.116l-.027,3.172v3.056Zm-.9-1.654V-5.3h-6.48v4.054Zm0-4.84V-9.885h-6.48v3.794Zm16.044,2.42s-.023.089-.068.253A6,6,0,0,0-41.446-2.1V-.451l.027,1.2q0,.109-.1.109h-.67q-.116,0-.116-.109V-.027h-8.518V.786q0,.109-.116.109H-51.6a.1.1,0,0,1-.109-.109l.027-1.148V-2.044a11.342,11.342,0,0,0-.1-1.736,8.05,8.05,0,0,1,.937.082q.185.027.185.13a.371.371,0,0,1-.027.116.921.921,0,0,0-.041.123,4.887,4.887,0,0,0-.1,1.258V-.827h3.691V-5.585h-3.288v.7q0,.116-.109.116h-.663q-.109,0-.109-.116l.027-1.244V-8.039a11.632,11.632,0,0,0-.1-1.75,7.361,7.361,0,0,1,.937.089q.15.021.15.123a.768.768,0,0,1-.055.253,5.49,5.49,0,0,0-.082,1.271v1.682h3.288v-3.4a11.847,11.847,0,0,0-.1-1.791,7.839,7.839,0,0,1,.964.089q.171.021.171.109a.371.371,0,0,1-.027.116.69.69,0,0,0-.041.137,6.051,6.051,0,0,0-.089,1.326v3.418h3.555v-1.75a11.632,11.632,0,0,0-.1-1.75,9.311,9.311,0,0,1,.937.082q.164.027.164.13a1.743,1.743,0,0,1-.068.239,6.8,6.8,0,0,0-.082,1.326V-6.2l.027,1.285q0,.116-.109.116h-.663q-.109,0-.109-.116v-.67h-3.555V-.827H-42.3v-1.3a11.424,11.424,0,0,0-.1-1.736,8.239,8.239,0,0,1,.937.082Q-41.289-3.753-41.289-3.671ZM-26.783.349q0,.109-.116.109L-28.786.431h-7.588l-1.894.027a.1.1,0,0,1-.109-.109V-.26a.1.1,0,0,1,.109-.109l1.894.027h3.261V-4H-35.9l-1.928.027q-.116,0-.116-.109v-.595q0-.109.116-.109l1.928.027h2.789v-1.75h-.854l-1.75.014q-.109,0-.109-.1v-.588a.1.1,0,0,1,.109-.109l1.75.027h2.755l1.771-.027a.1.1,0,0,1,.109.109V-6.6q0,.1-.109.1l-1.771-.014h-1.032v1.75h3.035l1.935-.027a.1.1,0,0,1,.109.109v.595a.182.182,0,0,1-.014.1.182.182,0,0,1-.1.014L-29.21-4h-3.035V-.342h3.459L-26.9-.369q.116,0,.116.109ZM-25.915-7a1.6,1.6,0,0,0-.41.547q-.116.212-.185.212a1.127,1.127,0,0,1-.219-.068,13.179,13.179,0,0,1-5.913-4.3A14.409,14.409,0,0,1-38.35-6.173a.7.7,0,0,1-.2.062q-.068,0-.191-.191a1.314,1.314,0,0,0-.451-.431,13.147,13.147,0,0,0,5.77-4.286,3.041,3.041,0,0,0,.4-.779,4.172,4.172,0,0,1,.9.191q.2.068.2.185,0,.068-.1.123a.378.378,0,0,0-.13.089A11.238,11.238,0,0,0-29.1-8.442,15.984,15.984,0,0,0-25.915-7Zm-2.762,3.992q0,.068-.137.178a1.049,1.049,0,0,0-.226.342,13.26,13.26,0,0,1-1,1.675q-.116.144-.164.144a.433.433,0,0,1-.2-.1,1.184,1.184,0,0,0-.472-.226,9.909,9.909,0,0,0,1.1-1.88,3.2,3.2,0,0,0,.212-.615,4.029,4.029,0,0,1,.711.294Q-28.677-3.09-28.677-3.008ZM-34.61-1.36a.268.268,0,0,1,.021.089q0,.062-.137.123l-.431.212a.832.832,0,0,1-.185.075q-.041,0-.068-.089a8.837,8.837,0,0,0-1-2,.133.133,0,0,1-.027-.068q0-.048.157-.13l.376-.164a.631.631,0,0,1,.157-.062q.048,0,.1.075A9.842,9.842,0,0,1-34.61-1.36Zm16.741-5.8.718-.273a18.274,18.274,0,0,1,1.032,2.365l-.752.308A15.123,15.123,0,0,0-17.869-7.157Zm1.586-.472.7-.253a11.566,11.566,0,0,1,1,2.3l-.731.294A13.488,13.488,0,0,0-16.283-7.629Zm.39-2.632.027.964a5.312,5.312,0,0,0-2.311.629,5.934,5.934,0,0,0-2.071,1.962,4.817,4.817,0,0,0-.813,2.659,2.958,2.958,0,0,0,1.285,2.529,6.17,6.17,0,0,0,2.933,1l-.239,1A6.1,6.1,0,0,1-20.713-.9a3.89,3.89,0,0,1-1.312-3.049,5.709,5.709,0,0,1,2.994-5.024l.759-.335-.014-.027-.656.109q-1.189.068-5.66.479l-.082-.923Q-22.682-9.823-15.894-10.261ZM-7.328-6.33A12.542,12.542,0,0,0-5.25-3.473l-.574.9a7.984,7.984,0,0,0-3.657-.854,3.849,3.849,0,0,0-2,.444,1.157,1.157,0,0,0-.643,1.012q0,.813,1.1,1.21a7.484,7.484,0,0,0,2.5.335q.82,0,1.976-.089V.465q-.615.041-2.017.041-4.546,0-4.546-2.365a1.971,1.971,0,0,1,1.066-1.8,5.521,5.521,0,0,1,2.741-.567,6.3,6.3,0,0,1,2.851.615A11.321,11.321,0,0,1-8.292-6.2a34.235,34.235,0,0,1-4.341.28l-.137-.854A33.363,33.363,0,0,0-8.682-7q-.444-1.019-.69-1.682-1.757.185-3.794.226l-.123-.882a34.558,34.558,0,0,0,3.637-.171q-.205-.567-.526-1.62l1-.1q.246.9.479,1.62,1.422-.171,3.063-.52l.144.854q-1.647.328-2.912.479a16.614,16.614,0,0,0,.684,1.668q1.47-.212,2.6-.479l.171.841Q-6.05-6.528-7.328-6.33Zm5.66-4.129q1.853-.014,5.694-.2l.588.731Q1.887-7.157.287-5.77l-.629.547.055.041.718-.485A4.614,4.614,0,0,1,2.406-6.2a3.547,3.547,0,0,1,2.707,1A3.071,3.071,0,0,1,5.92-2.994,3.316,3.316,0,0,1,4.642-.15,5.317,5.317,0,0,1,1.422.7Q-1.319.7-1.319-1.162A1.625,1.625,0,0,1-.731-2.475,2.172,2.172,0,0,1,.7-2.926a2.3,2.3,0,0,1,1.777.752A3.445,3.445,0,0,1,3.261-.492,2.579,2.579,0,0,0,4.519-1.47a2.922,2.922,0,0,0,.362-1.538,2.231,2.231,0,0,0-.868-1.873,2.671,2.671,0,0,0-1.668-.526,4.9,4.9,0,0,0-3.384,1.36A12.447,12.447,0,0,0-2.2-2.83l-.827-.67Q.321-6.945,3.1-9.775q-2.01.15-4.771.226ZM2.276-.212a3.024,3.024,0,0,0-.622-1.429A1.275,1.275,0,0,0,.67-2.112a1.119,1.119,0,0,0-.807.3.828.828,0,0,0-.273.622.87.87,0,0,0,.465.827,2.872,2.872,0,0,0,1.3.226A6.036,6.036,0,0,0,2.276-.212ZM13.282-9.153A22.039,22.039,0,0,1,11.8-1.791,2.1,2.1,0,0,1,9.905-.308,1.749,1.749,0,0,1,8.3-1.367a6,6,0,0,1-.533-2.789,7.336,7.336,0,0,1,.458-2.618A5.114,5.114,0,0,1,9.263-8.5a4.675,4.675,0,0,1,1.716-1.128,5.426,5.426,0,0,1,1.969-.369A4.139,4.139,0,0,1,16.5-8.5a6.371,6.371,0,0,1,.964,3.808,5.114,5.114,0,0,1-1.121,3.4A5.6,5.6,0,0,1,13.07.492l-.485-.841A4.243,4.243,0,0,0,16.42-4.956a4.671,4.671,0,0,0-1.032-3.3A2.809,2.809,0,0,0,13.282-9.153Zm-1.053.109a3.075,3.075,0,0,0-1.292.4,4.459,4.459,0,0,0-1.06.93A5.252,5.252,0,0,0,8.729-4.129,4.6,4.6,0,0,0,9.14-2q.328.615.752.615a.82.82,0,0,0,.622-.26,2.544,2.544,0,0,0,.444-.759A19.819,19.819,0,0,0,12.229-9.044ZM22.688-7.561A41.522,41.522,0,0,1,20.043.28L19.12-.082a37.252,37.252,0,0,0,2.563-7.41q-.848.062-2.577.226l-.055-.882q.513-.034,1.518-.1l1.313-.089q.26-1.183.533-2.782l.991.137q-.308,1.6-.533,2.591.786-.055,1.429-.055a1.428,1.428,0,0,1,1.278.567,3.662,3.662,0,0,1,.4,1.982,19.506,19.506,0,0,1-.437,4.97,1.777,1.777,0,0,1-.636,1,1.828,1.828,0,0,1-1.073.28A9.249,9.249,0,0,1,22.415.253l-.171-.978a6.216,6.216,0,0,0,1.244.164A1.47,1.47,0,0,0,24.233-.7a.9.9,0,0,0,.335-.485,16.428,16.428,0,0,0,.444-4.566,3.52,3.52,0,0,0-.219-1.538.713.713,0,0,0-.677-.321Q23.475-7.615,22.688-7.561ZM26.8-11.553l.711-.28a19.25,19.25,0,0,1,1.039,2.372l-.759.308A14.765,14.765,0,0,0,26.8-11.553Zm1.5-.472.7-.253a11.327,11.327,0,0,1,.991,2.3l-.725.294A13.488,13.488,0,0,0,28.294-12.024ZM25.983-9.181l.882-.451A16.879,16.879,0,0,1,29.271-4.8l-.978.458A14.513,14.513,0,0,0,25.983-9.181ZM36.2-4.006a12.594,12.594,0,0,1-5,4.423L30.584-.39A12.291,12.291,0,0,0,35.157-4.32a14.161,14.161,0,0,0,2.051-5.045H31.329V-10.3h7.26a18.785,18.785,0,0,1-1.846,5.359A31.446,31.446,0,0,1,40-.239L38.972.417A25.126,25.126,0,0,0,36.2-4.006Zm7.171-.937v2.994q0,1,.6,1.107A11.356,11.356,0,0,0,46.013-.7q1.408,0,3.1-.171V.185q-1.859.1-3.37.1a10.778,10.778,0,0,1-2.44-.2q-1-.219-1-1.709v-9.1h1.066V-5.92a15.118,15.118,0,0,0,4.368-2.871l.711.854A18.045,18.045,0,0,1,43.367-4.942Zm5.53-7.226a1.5,1.5,0,0,1,1.162.52,1.514,1.514,0,0,1,.4,1.053,1.5,1.5,0,0,1-.52,1.162,1.506,1.506,0,0,1-1.046.4,1.5,1.5,0,0,1-1.169-.52,1.506,1.506,0,0,1-.4-1.046,1.515,1.515,0,0,1,.52-1.169A1.514,1.514,0,0,1,48.9-12.168Zm0,.6a.926.926,0,0,0-.725.314.947.947,0,0,0-.246.656.918.918,0,0,0,.314.718.947.947,0,0,0,.656.246.918.918,0,0,0,.718-.314.938.938,0,0,0,.246-.649.926.926,0,0,0-.314-.725A.938.938,0,0,0,48.9-11.566Zm2.4,5.824h7.615V-4.7H51.3Zm13.419-.779h-4.3v-.909H69.3v.909H65.789a22.95,22.95,0,0,1-.137,2.57,5.219,5.219,0,0,1-.335,1.333A6.225,6.225,0,0,1,61.968.6l-.7-.786a5.2,5.2,0,0,0,3.049-2.823A11.694,11.694,0,0,0,64.716-6.521Zm2.618-5,.711-.273a14.252,14.252,0,0,1,1.039,2.365l-.759.308A12.734,12.734,0,0,0,67.334-11.525Zm-6.091,1.039h5.988v.923H61.243ZM68.9-12l.7-.253a11.566,11.566,0,0,1,1,2.3l-.731.294A13.488,13.488,0,0,0,68.9-12ZM74.833-5.25a29.848,29.848,0,0,1-3.274,1.962l-.588-.8a17.911,17.911,0,0,0,6.412-4.97l.854.643a15.86,15.86,0,0,1-2.379,2.379V.574H74.833Zm4.73-.492h7.615V-4.7H79.563ZM95.58-7.157l.718-.273A18.274,18.274,0,0,1,97.33-5.065l-.752.308A15.123,15.123,0,0,0,95.58-7.157Zm1.586-.472.7-.253a11.566,11.566,0,0,1,1,2.3l-.731.294A13.488,13.488,0,0,0,97.166-7.629Zm.39-2.632.027.964a5.312,5.312,0,0,0-2.311.629A5.934,5.934,0,0,0,93.2-6.706a4.817,4.817,0,0,0-.813,2.659,2.958,2.958,0,0,0,1.285,2.529,6.17,6.17,0,0,0,2.933,1l-.239,1A6.1,6.1,0,0,1,92.736-.9a3.89,3.89,0,0,1-1.312-3.049,5.709,5.709,0,0,1,2.994-5.024l.759-.335-.014-.027-.656.109q-1.189.068-5.66.479l-.082-.923Q90.768-9.823,97.556-10.261Zm5.4,1.7q-1.613.027-2.42.014V-9.42q1.08.034,2.461.014.1-1.442.13-1.88l.991.062q-.109,1.176-.15,1.777,2.283-.109,4.5-.369v.868q-2.208.232-4.566.335-.055,1.319-.068,1.976a7.454,7.454,0,0,1,2.126-.267,7.028,7.028,0,0,0,.226-.923l.957.185q-.116.485-.226.827a3.022,3.022,0,0,1,2.242,1.429,3.826,3.826,0,0,1,.526,2.023q0,3.377-4.211,3.992l-.4-.854a4.8,4.8,0,0,0,2.8-1.176,2.509,2.509,0,0,0,.779-1.859,2.96,2.96,0,0,0-.684-2.078,2.045,2.045,0,0,0-1.265-.67,15.223,15.223,0,0,1-2.393,4.553,3.414,3.414,0,0,1-2.55,1.47,1.659,1.659,0,0,1-1.388-.581,2.15,2.15,0,0,1-.39-1.367,4.571,4.571,0,0,1,.841-2.741A5.118,5.118,0,0,1,102.9-6.316Q102.929-7.8,102.956-8.565Zm1.23,5.763a13.392,13.392,0,0,0,1.559-3.3,5.87,5.87,0,0,0-1.907.308A14.064,14.064,0,0,0,104.187-2.8Zm-.738.93a13.987,13.987,0,0,1-.533-3.486A3.766,3.766,0,0,0,101.4-3.849a3.69,3.69,0,0,0-.479,1.832,1.261,1.261,0,0,0,.239.827.668.668,0,0,0,.547.253A2.572,2.572,0,0,0,103.448-1.873Zm9.181-9.03.971.123a38.254,38.254,0,0,0-.424,4.9,10.01,10.01,0,0,0,.055,1.162q.506-1.2.957-2.1l.643.5a17.361,17.361,0,0,0-.978,2.2,6.694,6.694,0,0,0-.239.841l-1.08.014a13.113,13.113,0,0,1-.294-2.816A40.7,40.7,0,0,1,112.629-10.9Zm4.662.055,1.012-.041q.137,2.6.137,4.758A14.871,14.871,0,0,1,118.2-3.09a4.749,4.749,0,0,1-.7,1.647A5.8,5.8,0,0,1,113.976.67l-.6-.807a4.78,4.78,0,0,0,3.151-1.7q.923-1.189.923-4.341Q117.448-8.06,117.291-10.849ZM-12.677,11.439a41.522,41.522,0,0,1-2.646,7.841l-.923-.362a37.252,37.252,0,0,0,2.563-7.41q-.848.062-2.577.226l-.055-.882q.513-.034,1.518-.1l1.313-.089q.26-1.183.533-2.782l.991.137q-.308,1.6-.533,2.591.786-.055,1.429-.055a1.428,1.428,0,0,1,1.278.567,3.662,3.662,0,0,1,.4,1.982,19.506,19.506,0,0,1-.437,4.97,1.777,1.777,0,0,1-.636,1,1.828,1.828,0,0,1-1.073.28,9.249,9.249,0,0,1-1.422-.109l-.171-.978a6.216,6.216,0,0,0,1.244.164,1.47,1.47,0,0,0,.745-.144.9.9,0,0,0,.335-.485,16.428,16.428,0,0,0,.444-4.566,3.52,3.52,0,0,0-.219-1.538.713.713,0,0,0-.677-.321Q-11.891,11.385-12.677,11.439Zm4.108-3.992.711-.28A19.25,19.25,0,0,1-6.819,9.539l-.759.308A14.765,14.765,0,0,0-8.569,7.447Zm1.5-.472.7-.253a11.327,11.327,0,0,1,.991,2.3l-.725.294A13.488,13.488,0,0,0-7.072,6.976ZM-9.382,9.819l.882-.451A16.879,16.879,0,0,1-6.094,14.2l-.978.458A14.513,14.513,0,0,0-9.382,9.819Zm7.342,1.128q-1.155.062-2.365.062v-.882q1.4,0,2.509-.062.191-1.422.267-2.447l1.032.1q-.109,1.025-.321,2.311,1.36-.089,3.1-.239l.014.882q-1.429.15-3.254.239a53.168,53.168,0,0,1-2.208,8.524l-.978-.335A47.881,47.881,0,0,0-2.041,10.947Zm1.709,5.38.868.068a3.679,3.679,0,0,0-.082.786,1.075,1.075,0,0,0,.513,1.08,4.218,4.218,0,0,0,1.559.191,16.519,16.519,0,0,0,2.167-.109l.055.964q-.834.082-2.044.082a4.645,4.645,0,0,1-2.5-.472,1.737,1.737,0,0,1-.636-1.531A5.222,5.222,0,0,1-.332,16.327Zm.711-2.994V12.4a40.055,40.055,0,0,1,4.259-.191v.9A32.162,32.162,0,0,0,.379,13.333Zm10.452,1.955.854.615q-.677,3.377-2.27,3.377a1.651,1.651,0,0,1-1.538-1.019,9.207,9.207,0,0,1-.718-3.227q-.109-1.312-.109-3.541l.014-2.632H8.077L8.056,11.05q0,2.646.116,3.9.267,3.22,1.217,3.22.485,0,.813-.711A11.913,11.913,0,0,0,10.832,15.288Zm2.1-5.346.909-.267a17.059,17.059,0,0,1,2.427,7.574l-1.053.171A17.589,17.589,0,0,0,12.93,9.942Z" transform="translate(119.308 12.277)" fill="#595757"/>
</svg>
