<svg xmlns="http://www.w3.org/2000/svg" width="229.011" height="13.234" viewBox="0 0 229.011 13.234">
  <path id="Контур_1736" data-name="Контур 1736" d="M-102.054-6.111q0,.109-.1.109l-1.976-.027h-2.058V-.6h1.723l1.914-.027q.116,0,.116.109v.6q0,.13-.116.13L-104.46.185h-4.047l-1.935.027q-.1,0-.1-.13v-.6q0-.109.1-.109l1.935.027h1.456V-6.029h-1.723L-110.735-6a.1.1,0,0,1-.109-.109v-.622a.1.1,0,0,1,.109-.109l1.962.027h1.723V-9.379a13.689,13.689,0,0,0-.1-1.928,8.986,8.986,0,0,1,.964.082q.157.021.157.123a1.28,1.28,0,0,1-.055.239,5.984,5.984,0,0,0-.1,1.456v2.591h2.058l1.976-.027q.1,0,.1.109Zm-8.408-5.031a.284.284,0,0,1-.123.212,1.434,1.434,0,0,0-.267.5,22.7,22.7,0,0,1-.984,2.174v6.925l.027,2.2a.1.1,0,0,1-.109.109h-.677A.1.1,0,0,1-112.7.868l.027-2.2V-4.956q0-.6.027-1.887a17.336,17.336,0,0,1-1.429,1.935q-.1.123-.164.123t-.13-.157a1.793,1.793,0,0,0-.349-.574,14.991,14.991,0,0,0,3.028-5.168,3.921,3.921,0,0,0,.191-.937,8.547,8.547,0,0,1,.882.308Q-110.462-11.238-110.462-11.143Zm22.415,7.937q0,.109-.1.109l-.178-.007q-.533-.014-1.2-.021v.9l.034,1.265q0,.109-.116.109h-.615a.1.1,0,0,1-.109-.109V-1.4h-3.527l.014,1.025a2.005,2.005,0,0,1-.1.718.782.782,0,0,1-.294.342,4.308,4.308,0,0,1-1.894.253A.411.411,0,0,1-96.38.889a.736.736,0,0,1-.1-.219,2.774,2.774,0,0,0-.342-.629,8.522,8.522,0,0,0,.93.062q.137,0,.308-.007a1.255,1.255,0,0,0,.752-.144.713.713,0,0,0,.144-.526V-1.4h-2.406l-1.976.027q-.116,0-.116-.109v-.492q0-.109.116-.109l1.976.027h2.406V-3.124h-3.849l-1.812.027a.1.1,0,0,1-.109-.109V-3.7a.1.1,0,0,1,.109-.109l1.812.027h3.849v-.984h-2.406l-1.976.027q-.116,0-.116-.1v-.506q0-.109.116-.109l1.976.027h2.406v-.95h-1.853l-1.976.027q-.109,0-.109-.123l.027-.772v-.588l-.027-.772a.1.1,0,0,1,.109-.109l1.976.027h1.853V-9.55h-3.753l-1.832.027q-.116,0-.116-.109v-.52q0-.109.116-.109l1.832.027h3.753a6.935,6.935,0,0,0-.1-1.456,6.54,6.54,0,0,1,.909.068q.171.027.171.116a.905.905,0,0,1-.082.267,3.844,3.844,0,0,0-.068.978v.027h3.746l1.839-.027a.1.1,0,0,1,.109.109v.52a.1.1,0,0,1-.109.109l-1.839-.027h-3.746v.868h1.9l1.989-.027a.1.1,0,0,1,.109.109l-.027.772v.588l.027.772q0,.123-.109.123l-1.989-.027h-1.9v.95h2.249l2.01-.027a.1.1,0,0,1,.109.109l-.034,1.251v.308l1.374-.027q.1,0,.1.109ZM-90.33-2.058V-3.124h-3.527v1.066Zm0-1.723v-.984h-3.527v.984Zm-.321-3.206v-1.08h-3.206v1.08Zm-4.033,0v-1.08h-3.138v1.08ZM-73.842-.021a2.4,2.4,0,0,0-.349.547q-.116.246-.205.246a.878.878,0,0,1-.171-.034A14.015,14.015,0,0,1-78.654-.943,10.684,10.684,0,0,1-82.811.827,1.477,1.477,0,0,1-83,.854q-.089,0-.205-.226a1.9,1.9,0,0,0-.335-.465A11.739,11.739,0,0,0-79.3-1.4a9.066,9.066,0,0,1-1.559-1.668,9.5,9.5,0,0,1-1.969,1.6,1.127,1.127,0,0,1-.2.1q-.062,0-.2-.2a1.749,1.749,0,0,0-.376-.362A8.027,8.027,0,0,0-80.63-4.566a2.314,2.314,0,0,0,.4-.854l-1.593.109a3.076,3.076,0,0,0-.711.1,1.188,1.188,0,0,1-.226.1q-.1,0-.171-.212-.062-.239-.137-.766.253.021.547.021.2,0,.349-.007.971-.027,1.5-.055l.772-.786a20.738,20.738,0,0,0-2.393-2.017q-.062-.041-.062-.075a.3.3,0,0,1,.068-.137l.28-.335q.068-.089.123-.089a.148.148,0,0,1,.075.034q.239.171.711.533a17.406,17.406,0,0,0,1.374-1.962,3.3,3.3,0,0,0,.308-.684,4.657,4.657,0,0,1,.745.349q.171.082.171.2,0,.089-.157.178a1.65,1.65,0,0,0-.362.41q-.889,1.251-1.518,1.969.608.506,1.162,1.039.937-1.039,1.853-2.27a2.413,2.413,0,0,0,.362-.629,5.478,5.478,0,0,1,.7.349q.171.1.171.212,0,.089-.157.164a3,3,0,0,0-.52.547A33.525,33.525,0,0,1-79.6-6.207q1.518-.082,3.6-.294-.383-.479-.841-.964-.048-.048-.048-.075t.13-.123l.308-.191a.338.338,0,0,1,.144-.068.112.112,0,0,1,.068.041A12.726,12.726,0,0,1-74.2-5.264a.161.161,0,0,1,.021.068q0,.062-.116.137l-.369.212a.464.464,0,0,1-.171.082q-.041,0-.075-.082-.424-.7-.649-1.039-1.818.219-4.628.465.506.13.7.2.157.055.157.164t-.13.157a1.864,1.864,0,0,0-.267.335q-.068.1-.185.294h2.83a.823.823,0,0,0,.294-.041.33.33,0,0,1,.144-.041q.109,0,.376.267.239.219.239.349a.21.21,0,0,1-.13.191,2.166,2.166,0,0,0-.321.355,10.237,10.237,0,0,1-1.565,1.757A12.865,12.865,0,0,0-73.842-.021Zm-3.3-3.582h-3.247a7.185,7.185,0,0,0,1.7,1.75A7.8,7.8,0,0,0-77.144-3.6Zm-5.64-4.423a.181.181,0,0,1-.1.157,1.007,1.007,0,0,0-.308.349q-.492.82-.889,1.36V-.937l.027,1.8q0,.109-.116.109h-.656q-.1,0-.1-.109l.027-1.8V-3.445q0-.164.041-1.764A14.63,14.63,0,0,1-86.146-3.9a.426.426,0,0,1-.205.123q-.068,0-.171-.185a1.535,1.535,0,0,0-.321-.431A11.928,11.928,0,0,0-83.9-7.9a2.97,2.97,0,0,0,.28-.684,4.429,4.429,0,0,1,.7.376Q-82.783-8.1-82.783-8.025Zm-.041-2.98q0,.089-.171.185a1.205,1.205,0,0,0-.335.349A13.028,13.028,0,0,1-85.866-7.95a.678.678,0,0,1-.226.109q-.062,0-.164-.185a1.46,1.46,0,0,0-.4-.431,9,9,0,0,0,2.646-2.522,2.14,2.14,0,0,0,.314-.629,3.945,3.945,0,0,1,.738.424Q-82.824-11.1-82.824-11.006Zm14.116,2.119q.82-.068,2.071-.2l.014.868q-1.142.137-2.3.191a38.417,38.417,0,0,1-2.468,6.487l-.909-.424a29.976,29.976,0,0,0,2.379-6.016q-1.135.062-2.27.041l-.027-.868q1.176.041,2.522-.027.273-1.169.465-2.365l1.019.123Q-68.407-10.131-68.708-8.887Zm3,5.79q-.123-1.5-.144-3.568h.964q0,1.791.157,3.794a9.264,9.264,0,0,1,2.563,1.6l-.52.95A7.662,7.662,0,0,0-64.7-1.846v.232q0,2.229-2.475,2.229A2.629,2.629,0,0,1-69.022.034a1.665,1.665,0,0,1-.54-1.292,1.7,1.7,0,0,1,.889-1.5,3.244,3.244,0,0,1,1.757-.458A5.891,5.891,0,0,1-65.707-3.1Zm0,.93a4.031,4.031,0,0,0-1.162-.2,2.4,2.4,0,0,0-1.429.349.867.867,0,0,0-.383.731.886.886,0,0,0,.41.772,1.931,1.931,0,0,0,1.107.273,1.305,1.305,0,0,0,1.47-1.483Zm.055-6.357.444-.8a14.091,14.091,0,0,1,3.192,1.5l-.513.868A12.767,12.767,0,0,0-65.652-8.524Zm9.092,1.9q1.429-.854,3.274-1.818l.5.882a29.874,29.874,0,0,0-4.464,2.5A3.4,3.4,0,0,0-58.96-2.352q0,1.8,2.885,1.8,1.483,0,3.391-.137v1Q-55.029.39-56.144.39q-3.78,0-3.78-2.755,0-2.085,2.475-3.7-.588-2.14-1.087-5.024l1.032-.041A41.146,41.146,0,0,0-56.561-6.624Zm2-4.854.718-.28a18.274,18.274,0,0,1,1.032,2.365l-.752.308A14.831,14.831,0,0,0-54.564-11.478Zm1.586-.492.7-.253a11.566,11.566,0,0,1,1,2.3l-.731.294A13.487,13.487,0,0,0-52.979-11.97Zm8.2,2.816a22.039,22.039,0,0,1-1.483,7.362A2.1,2.1,0,0,1-48.152-.308a1.749,1.749,0,0,1-1.606-1.06,6,6,0,0,1-.533-2.789,7.335,7.335,0,0,1,.458-2.618A5.114,5.114,0,0,1-48.795-8.5a4.675,4.675,0,0,1,1.716-1.128,5.426,5.426,0,0,1,1.969-.369,4.139,4.139,0,0,1,3.555,1.5,6.371,6.371,0,0,1,.964,3.808,5.114,5.114,0,0,1-1.121,3.4A5.6,5.6,0,0,1-44.987.492l-.485-.841a4.243,4.243,0,0,0,3.835-4.607,4.67,4.67,0,0,0-1.032-3.3A2.809,2.809,0,0,0-44.775-9.153Zm-1.053.109a3.075,3.075,0,0,0-1.292.4,4.459,4.459,0,0,0-1.06.93,5.252,5.252,0,0,0-1.148,3.582A4.6,4.6,0,0,0-48.918-2q.328.615.752.615a.82.82,0,0,0,.622-.26,2.544,2.544,0,0,0,.444-.759A19.819,19.819,0,0,0-45.828-9.044Zm16.591-1.189a.188.188,0,0,1-.034-.075q0-.048.287-.219a1.073,1.073,0,0,1,.321-.15q.041,0,.082.068a8.411,8.411,0,0,0,2.188,2.256,1.428,1.428,0,0,0-.444.4q-.13.171-.171.171a.642.642,0,0,1-.2-.144A10.989,10.989,0,0,1-29.237-10.233Zm.2,8.094a.148.148,0,0,1-.034-.075q0-.041.287-.205a1.142,1.142,0,0,1,.321-.164q.041,0,.082.062A9.122,9.122,0,0,0-26.312-.431,1.662,1.662,0,0,0-26.77,0q-.13.157-.171.157t-.178-.13A9.994,9.994,0,0,1-29.039-2.14Zm-6.009-6.009a7.964,7.964,0,0,0,1.88-2.071,3.537,3.537,0,0,0,.212-.5,5.076,5.076,0,0,1,.649.273q.171.089.171.171t-.137.185a1.081,1.081,0,0,0-.28.349,9.343,9.343,0,0,1-1.641,1.948q-.144.123-.191.123t-.185-.144A1.822,1.822,0,0,0-35.048-8.148Zm-.6,7.923a7.862,7.862,0,0,0,1.825-1.634,2.783,2.783,0,0,0,.444-.8,4.794,4.794,0,0,1,.7.376q.123.082.123.171,0,.062-.157.164a1.511,1.511,0,0,0-.321.355A9.505,9.505,0,0,1-34.781.185a.4.4,0,0,1-.178.109q-.048,0-.2-.171A1.839,1.839,0,0,0-35.649-.226Zm-1.606-10.808h1.641a.912.912,0,0,0,.335-.041.3.3,0,0,1,.137-.027q.109,0,.349.239.253.273.253.376a.245.245,0,0,1-.109.185,1.267,1.267,0,0,0-.253.465,31.655,31.655,0,0,1-1.312,2.98,7.368,7.368,0,0,1,1.2,1.907,3.558,3.558,0,0,1,.226,1.285,1.687,1.687,0,0,1-1.832,1.846.465.465,0,0,1-.26-.041.709.709,0,0,1-.075-.239,1.075,1.075,0,0,0-.212-.492q.137.014.26.014,1.333,0,1.333-1.155A3.055,3.055,0,0,0-35.937-5.1a11.25,11.25,0,0,0-1.121-1.7A25.168,25.168,0,0,0-35.6-10.274H-37.55V-2.03l.027,2.9q0,.1-.109.1h-.649q-.109,0-.109-.1L-38.363-2V-8.046l-.027-2.905a.1.1,0,0,1,.109-.109Zm6.1,3.281v-2.536a7.343,7.343,0,0,0-.082-1.217,6.791,6.791,0,0,1,.868.082q.178.021.178.109a.834.834,0,0,1-.082.267,2.133,2.133,0,0,0-.068.663v2.632h.923l1.743-.027q.13,0,.13.123l-.027,1.285v1.777l.027,1.292q0,.123-.13.123l-1.743-.027h-.95V-1.9l.014,1.62a1.072,1.072,0,0,1-.376.964A2.293,2.293,0,0,1-31.951.9h-.287a.409.409,0,0,1-.239-.041A.605.605,0,0,1-32.56.643a1.772,1.772,0,0,0-.28-.574q.574.055,1,.055a.82.82,0,0,0,.554-.13.594.594,0,0,0,.1-.41V-3.206h-.841l-1.743.027q-.13,0-.13-.123l.027-1.292V-6.371l-.027-1.285q0-.123.13-.123l1.743.027Zm-1.928,1.9h4.724v-1.23h-4.724Zm0,.656v1.319h4.724V-5.2Zm19.94,4.573A1.3,1.3,0,0,1-13.5.444a1.185,1.185,0,0,1-.608.232,9.47,9.47,0,0,1-1.142.048A.409.409,0,0,1-15.49.684a.64.64,0,0,1-.082-.226,2.378,2.378,0,0,0-.253-.615,9.706,9.706,0,0,0,1.08.055.91.91,0,0,0,.622-.144.833.833,0,0,0,.116-.526V-6.809h-2.55l-1.511.027q-.123,0-.123-.109l.027-1.2V-9.775l-.027-1.2q0-.109.123-.109l1.511.027h1.777l1.518-.027a.1.1,0,0,1,.109.109l-.027,2v6.357Zm-.868-6.856V-8.613h-3.356v1.135Zm0-1.8v-1.094h-3.356v1.094Zm-5.5,2.393a.1.1,0,0,1-.109.109l-1.4-.027H-23.5v4.689l.027,2.912A.1.1,0,0,1-23.577.9h-.663A.1.1,0,0,1-24.35.793l.027-2.912v-5.92l-.027-2.939a.1.1,0,0,1,.109-.109l1.586.027h1.641l1.4-.027a.1.1,0,0,1,.109.109l-.027,1.292v1.511Zm-.827-.588V-8.613H-23.5v1.135Zm0-1.8v-1.094H-23.5v1.094Zm3.9,8.866q0,.109-.116.109h-.574a.1.1,0,0,1-.109-.109V-1H-20.4V-.28q0,.13-.109.13h-.574q-.116,0-.116-.13l.027-2.461V-3.917L-21.2-5.544a.1.1,0,0,1,.109-.109l1.463.027h1.62l1.463-.027a.1.1,0,0,1,.109.109l-.027,1.415v1.292Zm-.8-1.258V-3.021H-20.4v1.347Zm0-2V-4.956H-20.4v1.278ZM-6.918-.8q0,.116-.109.116h-.581q-.109,0-.109-.116v-.7H-9.536V-.335a.1.1,0,0,1-.109.109h-.595a.1.1,0,0,1-.109-.109l.027-4.32V-7.41l-.027-3.274a.1.1,0,0,1,.109-.109l1.121.027h.971l1.121-.027a.1.1,0,0,1,.109.109l-.027,2.83v2.905Zm-.8-1.442v-3.63H-9.536v3.63Zm0-4.354v-3.425H-9.536V-6.6Zm9.283.089a.1.1,0,0,1-.109.109L-.479-6.426H-4.457L-6.371-6.4a.1.1,0,0,1-.109-.109v-.581A.1.1,0,0,1-6.371-7.2l1.914.027h1.306V-9.03H-4.02L-5.811-9q-.13,0-.13-.116v-.561q0-.123.13-.123l1.791.027h.868a11.93,11.93,0,0,0-.1-1.791q.567.021.909.068.171.027.171.123s-.023.089-.068.253a5.578,5.578,0,0,0-.089,1.347h1.271L.745-9.8q.109,0,.109.123v.561Q.854-9,.745-9l-1.8-.034H-2.324v1.859H-.479L1.456-7.2a.1.1,0,0,1,.109.109Zm-.171,2.5a.1.1,0,0,1-.109.109L-.4-3.931v1.9L-.383-.239A1.053,1.053,0,0,1-.772.7,3.4,3.4,0,0,1-2.4.937.487.487,0,0,1-2.659.9.592.592,0,0,1-2.748.67a1.986,1.986,0,0,0-.28-.629Q-2.461.1-1.716.1q.492,0,.492-.513V-3.931H-4.389l-1.9.027q-.116,0-.116-.109v-.581q0-.1.116-.1l1.9.014h3.165V-4.7a8.226,8.226,0,0,0-.1-1.483,6.171,6.171,0,0,1,.9.1q.185.021.185.116a.636.636,0,0,1-.082.232,3.673,3.673,0,0,0-.075,1v.068l1.682-.014q.109,0,.109.1Zm-4.56,2.57a.173.173,0,0,1,.027.082q0,.055-.1.13l-.376.253a.478.478,0,0,1-.164.089q-.041,0-.075-.062A8.338,8.338,0,0,0-5.2-2.7a.131.131,0,0,1-.048-.082q0-.055.13-.13l.335-.212a.35.35,0,0,1,.13-.055.169.169,0,0,1,.1.041A8.419,8.419,0,0,1-3.165-1.442Zm18.026.82A1.3,1.3,0,0,1,14.5.444a1.185,1.185,0,0,1-.608.232,9.47,9.47,0,0,1-1.142.048A.409.409,0,0,1,12.51.684a.64.64,0,0,1-.082-.226,2.378,2.378,0,0,0-.253-.615,9.706,9.706,0,0,0,1.08.055.91.91,0,0,0,.622-.144.833.833,0,0,0,.116-.526V-6.809h-2.55l-1.511.027q-.123,0-.123-.109l.027-1.2V-9.775l-.027-1.2q0-.109.123-.109l1.511.027h1.777l1.518-.027a.1.1,0,0,1,.109.109l-.027,2v6.357Zm-.868-6.856V-8.613H10.637v1.135Zm0-1.8v-1.094H10.637v1.094ZM8.5-6.891a.1.1,0,0,1-.109.109l-1.4-.027H4.5v4.689L4.532.793A.1.1,0,0,1,4.423.9H3.76A.1.1,0,0,1,3.65.793l.027-2.912v-5.92L3.65-10.979a.1.1,0,0,1,.109-.109l1.586.027H6.986l1.4-.027a.1.1,0,0,1,.109.109L8.47-9.687v1.511ZM7.67-7.479V-8.613H4.5v1.135Zm0-1.8v-1.094H4.5v1.094Zm3.9,8.866q0,.109-.116.109h-.574a.1.1,0,0,1-.109-.109V-1H7.6V-.28q0,.13-.109.13H6.918Q6.8-.15,6.8-.28l.027-2.461V-3.917L6.8-5.544a.1.1,0,0,1,.109-.109l1.463.027h1.62l1.463-.027a.1.1,0,0,1,.109.109l-.027,1.415v1.292Zm-.8-1.258V-3.021H7.6v1.347Zm0-2V-4.956H7.6v1.278Zm11.99-.7v2.769H21.82V-3.951q-.321.164-.663.355-1.791,1.012-1.791,2.03A.927.927,0,0,0,20-.622a6.4,6.4,0,0,0,2.078.232q1.47,0,3.411-.171l.041.95q-2.55.13-3.384.13A5.879,5.879,0,0,1,19.175.007a1.772,1.772,0,0,1-.7-1.6,3.066,3.066,0,0,1,1.88-2.55q.711-.4,1.456-.772-.068-1.312-.909-1.312-1.176,0-3.227,2.365L16.946-4.5a16.348,16.348,0,0,0,2.9-4.136q-1.278.021-2.563,0V-9.5q1.477.027,2.953,0a12.51,12.51,0,0,0,.629-1.873l1.012.185a14.377,14.377,0,0,1-.588,1.647q1.969-.062,3.739-.239l.027.854q-2.3.185-4.143.239a14.3,14.3,0,0,1-1.176,1.989l-.355.362.041.055a2.492,2.492,0,0,1,1.668-.711,1.521,1.521,0,0,1,1.114.424,1.982,1.982,0,0,1,.526,1.217q1.094-.5,2.844-1.237l.39.957Q23.687-4.792,22.757-4.382ZM39.922-8.7q0,.109-.1.109L37.987-8.62H32.5a12.848,12.848,0,0,1-.8,1.606h4.1l1.914-.027q.116,0,.116.109L37.81-5.113v2.789l.027,1.818a1.232,1.232,0,0,1-.342,1A3.3,3.3,0,0,1,35.677.8a.427.427,0,0,1-.246-.041A.838.838,0,0,1,35.342.52a2.038,2.038,0,0,0-.28-.6q.615.055,1.285.055.636,0,.636-.574V-2.03H31.753V-.868L31.78.8q0,.109-.116.109h-.629q-.123,0-.123-.109l.027-1.668v-4.97a12.944,12.944,0,0,1-2.481,2.509.578.578,0,0,1-.2.109q-.075,0-.191-.157a1.739,1.739,0,0,0-.492-.417A11.051,11.051,0,0,0,31.623-8.62H29.647l-1.832.027q-.116,0-.116-.109v-.608q0-.109.116-.109l1.832.027h2.283q.253-.725.349-1.094a4.726,4.726,0,0,0,.212-1.176,7.863,7.863,0,0,1,.882.171q.2.062.2.164a.5.5,0,0,1-.13.212,1.986,1.986,0,0,0-.239.533q-.253.813-.39,1.189h5.175l1.832-.027q.1,0,.1.109ZM36.982-2.741V-4.19H31.753v1.449Zm0-2.16V-6.289H31.753V-4.9Zm16.7-3.165q-.027.868-.027,1.251a44.86,44.86,0,0,1-.39,6.173A1.7,1.7,0,0,1,52.712.492a1.535,1.535,0,0,1-.964.267q-.533,0-1.019-.041Q50.524.7,50.483.656A.581.581,0,0,1,50.422.41a2.056,2.056,0,0,0-.2-.608,8.01,8.01,0,0,0,1.429.13.679.679,0,0,0,.561-.205,1.77,1.77,0,0,0,.253-.745,45.591,45.591,0,0,0,.362-6.4H50.8a18.731,18.731,0,0,1-.615,3.849A8.459,8.459,0,0,1,47.018.854a.741.741,0,0,1-.191.123.728.728,0,0,1-.212-.15,1.644,1.644,0,0,0-.52-.4,7.215,7.215,0,0,0,3.336-4.307A18.7,18.7,0,0,0,50-7.417h-.13L48.3-7.39q-.116,0-.116-.109v-.574a.1.1,0,0,1,.116-.116l1.579.027h.171q.041-.807.041-1.675a9.4,9.4,0,0,0-.116-1.723,6.432,6.432,0,0,1,.943.1q.15.041.15.144a2.974,2.974,0,0,1-.082.308A5.972,5.972,0,0,0,50.9-9.755q0,.779-.048,1.593h1.121l1.6-.027Q53.683-8.189,53.683-8.066Zm-6.59,6.4a.21.21,0,0,1,.027.082q0,.041-.089.13l-.321.335q-.1.109-.15.109-.034,0-.089-.068a17.636,17.636,0,0,0-1.087-1.429A9.837,9.837,0,0,1,42.191.649a1.925,1.925,0,0,1-.212.1q-.062,0-.2-.2a1.642,1.642,0,0,0-.4-.39A9.073,9.073,0,0,0,44.851-3.11q-.7-.738-1.593-1.524a.11.11,0,0,1-.048-.075q0-.034.075-.109l.273-.26q.1-.1.144-.1a.138.138,0,0,1,.082.041,15.982,15.982,0,0,1,1.429,1.319,5.9,5.9,0,0,0,.294-.745A5.088,5.088,0,0,0,45.8-5.824a4.593,4.593,0,0,1,.772.308q.15.089.15.171a1.047,1.047,0,0,1-.15.253,2.666,2.666,0,0,0-.253.6,11.532,11.532,0,0,1-.547,1.285Q46.354-2.57,47.093-1.668Zm1.06-7.055q0,.1-.109.1l-1.75-.027H43.634L41.9-8.627q-.116,0-.116-.1v-.588a.1.1,0,0,1,.116-.116l1.736.034h1.019v-.772a7.655,7.655,0,0,0-.109-1.483,8.167,8.167,0,0,1,.923.082q.171.021.171.109a.787.787,0,0,1-.089.267,3.9,3.9,0,0,0-.082,1.025v.772h.827l1.75-.034q.109,0,.109.116Zm-3.9,1.162q0,.082-.123.171a1.161,1.161,0,0,0-.28.349,10.3,10.3,0,0,1-1.477,2.058q-.15.15-.191.15t-.2-.15a1.014,1.014,0,0,0-.465-.321,7.151,7.151,0,0,0,1.641-2.146,1.933,1.933,0,0,0,.185-.629,4.128,4.128,0,0,1,.786.369Q44.249-7.622,44.249-7.561Zm4.266,2.017a1.327,1.327,0,0,0-.472.349q-.137.144-.185.144t-.205-.171a12.613,12.613,0,0,1-1.7-2.338.173.173,0,0,1-.027-.082q0-.055.123-.116l.376-.178a.459.459,0,0,1,.13-.048q.034,0,.082.075A9.457,9.457,0,0,0,48.515-5.544ZM68.072-6.48q0,.109-.1.109L66-6.4H63.916v2.3h1.189l1.8-.034a.1.1,0,0,1,.109.109l-.027,1.319v1.2L67.02.827q0,.1-.109.1h-.649q-.109,0-.109-.1V.212H60.99V.9q0,.116-.109.116h-.615q-.13,0-.13-.116l.027-2.365V-2.536l-.027-1.49q0-.109.123-.109l1.825.034h.978V-6.4H61.175L59.2-6.371q-.116,0-.116-.109v-.608q0-.109.116-.109l1.976.027h1.887V-9.434q-1.162.246-2.844.485a1.38,1.38,0,0,1-.178.021q-.13,0-.212-.239a1.419,1.419,0,0,0-.28-.506,33.793,33.793,0,0,0,3.7-.608,17.959,17.959,0,0,0,2.488-.7,3.494,3.494,0,0,0,.725-.369,6.359,6.359,0,0,1,.608.52.323.323,0,0,1,.109.2q0,.116-.171.137a2.852,2.852,0,0,0-.526.13,25.237,25.237,0,0,1-2.563.738v2.461H66L67.97-7.2q.1,0,.1.109ZM66.151-.533V-3.377H60.99V-.533Zm-7.5-2.536q-.684,1.6-1.531,3.186A3.58,3.58,0,0,0,56.827.7q-.034.137-.15.137a.31.31,0,0,1-.185-.082Q56.164.52,55.863.253a6.784,6.784,0,0,0,.8-1.094q.766-1.442,1.47-3.09a3.467,3.467,0,0,0,.39.417q.2.157.2.226A1.126,1.126,0,0,1,58.652-3.069Zm-.41-3.247a.114.114,0,0,1,.041.075.492.492,0,0,1-.082.15l-.28.39q-.089.13-.137.13-.027,0-.089-.055A10.918,10.918,0,0,0,55.768-7.2q-.068-.034-.068-.068a.331.331,0,0,1,.082-.137l.267-.355q.075-.1.123-.1a.221.221,0,0,1,.089.034A9.857,9.857,0,0,1,58.242-6.316Zm.663-3.438a.155.155,0,0,1,.048.089.277.277,0,0,1-.082.144l-.294.383q-.1.116-.144.116t-.075-.055a10.753,10.753,0,0,0-1.873-1.606q-.068-.048-.068-.075t.089-.13l.308-.355q.082-.089.13-.089a.182.182,0,0,1,.082.034A10.969,10.969,0,0,1,58.905-9.755Zm22.2-.964-.027,2.194v6.214l.014,1.88a1.126,1.126,0,0,1-.41.964,3.382,3.382,0,0,1-1.736.28.484.484,0,0,1-.267-.041A.581.581,0,0,1,78.6.533a1.71,1.71,0,0,0-.253-.643q.636.055,1.388.055.492,0,.492-.561V-3.568H76.31V-1.9L76.337.417a.1.1,0,0,1-.116.116h-.67q-.109,0-.109-.116L75.469-1.9V-3.568H71.716a9.556,9.556,0,0,1-.547,2.557A7.734,7.734,0,0,1,70.287.6q-.123.171-.164.171t-.2-.144A2.739,2.739,0,0,0,69.337.28a6.672,6.672,0,0,0,1.292-2.646,18.46,18.46,0,0,0,.349-4.061v-2.1l-.027-2.194q0-.116.109-.116l1.989.027H79l2-.027A.1.1,0,0,1,81.108-10.719Zm-.882,3.158v-2.475H76.31v2.475Zm0,3.233V-6.8H76.31v2.475Zm-4.758,0V-6.8H71.832v.376q0,.916-.062,2.1Zm0-3.233v-2.475H71.832v2.475Zm15.032.4.718-.273a18.274,18.274,0,0,1,1.032,2.365l-.752.308A15.123,15.123,0,0,0,90.5-7.157Zm1.586-.472.7-.253a11.566,11.566,0,0,1,1,2.3l-.731.294A13.488,13.488,0,0,0,92.087-7.629Zm.39-2.632L92.5-9.3a5.312,5.312,0,0,0-2.311.629,5.934,5.934,0,0,0-2.071,1.962,4.817,4.817,0,0,0-.813,2.659,2.958,2.958,0,0,0,1.285,2.529,6.17,6.17,0,0,0,2.933,1l-.239,1A6.1,6.1,0,0,1,87.657-.9a3.89,3.89,0,0,1-1.312-3.049,5.709,5.709,0,0,1,2.994-5.024l.759-.335-.014-.027-.656.109q-1.189.068-5.66.479l-.082-.923Q85.688-9.823,92.477-10.261Zm8.565,3.931a12.542,12.542,0,0,0,2.078,2.857l-.574.9a7.984,7.984,0,0,0-3.657-.854,3.849,3.849,0,0,0-2,.444,1.157,1.157,0,0,0-.643,1.012q0,.813,1.1,1.21a7.484,7.484,0,0,0,2.5.335q.82,0,1.976-.089V.465Q101.2.506,99.8.506q-4.546,0-4.546-2.365a1.971,1.971,0,0,1,1.066-1.8,5.521,5.521,0,0,1,2.741-.567,6.3,6.3,0,0,1,2.851.615A11.321,11.321,0,0,1,100.078-6.2a34.235,34.235,0,0,1-4.341.28L95.6-6.774A33.363,33.363,0,0,0,99.688-7Q99.244-8.019,99-8.682q-1.757.185-3.794.226l-.123-.882a34.558,34.558,0,0,0,3.637-.171q-.205-.567-.526-1.62l1-.1q.246.9.479,1.62,1.422-.171,3.063-.52l.144.854q-1.647.328-2.912.479a16.613,16.613,0,0,0,.684,1.668q1.47-.212,2.6-.479l.171.841Q102.32-6.528,101.042-6.33Zm5.66-4.129q1.853-.014,5.694-.2l.588.731q-2.728,2.769-4.327,4.156l-.629.547.055.041.718-.485a4.614,4.614,0,0,1,1.976-.533,3.547,3.547,0,0,1,2.707,1,3.071,3.071,0,0,1,.807,2.208A3.316,3.316,0,0,1,113.012-.15a5.317,5.317,0,0,1-3.22.848q-2.741,0-2.741-1.859a1.625,1.625,0,0,1,.588-1.312,2.172,2.172,0,0,1,1.429-.451,2.3,2.3,0,0,1,1.777.752,3.445,3.445,0,0,1,.786,1.682,2.579,2.579,0,0,0,1.258-.978,2.922,2.922,0,0,0,.362-1.538,2.231,2.231,0,0,0-.868-1.873,2.671,2.671,0,0,0-1.668-.526,4.9,4.9,0,0,0-3.384,1.36,12.447,12.447,0,0,0-1.162,1.217l-.827-.67q3.35-3.445,6.132-6.275-2.01.15-4.771.226ZM110.646-.212a3.024,3.024,0,0,0-.622-1.429,1.275,1.275,0,0,0-.984-.472,1.119,1.119,0,0,0-.807.3.828.828,0,0,0-.273.622.87.87,0,0,0,.465.827,2.872,2.872,0,0,0,1.3.226A6.036,6.036,0,0,0,110.646-.212Z" transform="translate(114.721 12.223)" fill="#595757"/>
</svg>
