	<svg xmlns="http://www.w3.org/2000/svg" width="268.603" height="94.295"
							viewBox="0 0 268.603 94.295">
							<g id="Сгруппировать_377" data-name="Сгруппировать 377" transform="translate(0 2.504)">
								<path id="Контур_1735" data-name="Контур 1735"
									d="M6.284-14.714v-6.03h1.98v5.586l9.953-2.26,1.092,1.4A32.477,32.477,0,0,1,13.8-6.208L12.162-7.249a23.985,23.985,0,0,0,4.71-8.036L8.265-13.343v9.369q0,1.752.9,2.209a8.58,8.58,0,0,0,3.2.381q2.869,0,6.03-.3V.229q-2.768.19-6.437.19Q8.354.419,7.224-.673a4.41,4.41,0,0,1-.939-3.25V-12.9l-4.418.99L1.346-13.6Zm18.1-4.989H36.169v1.739H24.388ZM22.8-14.168H37.489Q37.2-6.741,33.858-3.1,31.218-.2,25.873,1.117L24.934-.368Q30.278-1.676,32.8-4.85a12.841,12.841,0,0,0,2.526-7.579H22.8ZM44.23-9.179v5.561q0,1.866,1.117,2.057a21.089,21.089,0,0,0,3.8.267q2.615,0,5.764-.317V.343q-3.453.178-6.259.178A20.017,20.017,0,0,1,44.116.152Q42.25-.254,42.25-3.021v-16.9h1.98v8.925a28.077,28.077,0,0,0,8.112-5.332l1.32,1.587A33.512,33.512,0,0,1,44.23-9.179ZM54.5-22.6a2.776,2.776,0,0,1,2.158.965,2.812,2.812,0,0,1,.749,1.955,2.776,2.776,0,0,1-.965,2.158,2.8,2.8,0,0,1-1.942.749,2.789,2.789,0,0,1-2.171-.965,2.8,2.8,0,0,1-.749-1.942,2.814,2.814,0,0,1,.965-2.171A2.812,2.812,0,0,1,54.5-22.6Zm0,1.117a1.719,1.719,0,0,0-1.346.584,1.759,1.759,0,0,0-.457,1.219,1.705,1.705,0,0,0,.584,1.333,1.759,1.759,0,0,0,1.219.457,1.705,1.705,0,0,0,1.333-.584,1.743,1.743,0,0,0,.457-1.206,1.719,1.719,0,0,0-.584-1.346A1.743,1.743,0,0,0,54.5-21.48ZM69.177-7.439A23.389,23.389,0,0,1,59.9.774l-1.143-1.5a22.826,22.826,0,0,0,8.493-7.3,26.3,26.3,0,0,0,3.809-9.369H60.138v-1.739H73.62a34.886,34.886,0,0,1-3.428,9.953A58.4,58.4,0,0,1,76.248-.444L74.331.774A46.663,46.663,0,0,0,69.177-7.439Zm14.93-3.872V1.041H82.1V-20.77h2.006v7.541a40.492,40.492,0,0,1,9.9,4.126l-.99,1.879A32.863,32.863,0,0,0,84.106-11.312ZM120.428-.863a3.455,3.455,0,0,0-.838.889q-.165.317-.3.317a.8.8,0,0,1-.368-.178,19.778,19.778,0,0,1-4.329-3.732,16.047,16.047,0,0,1-2.374-3.923q.1,5.459.1,6.792a2.113,2.113,0,0,1-.673,1.841,5.3,5.3,0,0,1-2.628.444,1.018,1.018,0,0,1-.521-.076,1.016,1.016,0,0,1-.165-.444,2.9,2.9,0,0,0-.457-1.092,15.332,15.332,0,0,0,1.714.1,1.523,1.523,0,0,0,1.028-.229,1.152,1.152,0,0,0,.19-.787V-3.923q-2.311,1.5-5.142,3.009a3.609,3.609,0,0,0-.939.584q-.165.2-.292.2T104.2-.355q-.267-.47-.673-1.384a8.487,8.487,0,0,0,1.5-.546A49.645,49.645,0,0,0,110.8-5.434v-3.8h-2.412l-3.593.051q-.178,0-.178-.2V-10.4q0-.2.178-.2l3.593.051H110.8v-2.336h-1.485l-3.275.051q-.2,0-.2-.216V-14q0-.216.2-.216l3.275.051H110.8V-16.4h-1.841l-3.491.051q-.2,0-.2-.178v-1.028a.18.18,0,0,1,.2-.2l3.491.051h3.872a22.65,22.65,0,0,0,1.4-2.653,4.929,4.929,0,0,0,.343-1.092,9.969,9.969,0,0,1,1.346.394q.317.089.317.279,0,.14-.254.343a1.257,1.257,0,0,0-.368.5,23.46,23.46,0,0,1-1.308,2.234h.863l3.428-.051q.241,0,.241.2v1.028q0,.178-.241.178l-3.428-.051h-2.907v2.234h2.184l3.25-.051q.2,0,.2.216v.952q0,.216-.2.216l-3.25-.051h-2.184v2.336h3.605l3.593-.051a.18.18,0,0,1,.2.2v1.016a.18.18,0,0,1-.2.2l-3.593-.051h-3.352a17.857,17.857,0,0,0,2.209,3.771,20.51,20.51,0,0,0,2.082-1.955,3.671,3.671,0,0,0,.622-.9,9.072,9.072,0,0,1,1.066.825.478.478,0,0,1,.216.343q0,.2-.254.279a2.036,2.036,0,0,0-.787.546,25.475,25.475,0,0,1-2.107,1.854A18.881,18.881,0,0,0,120.428-.863ZM104.559-15.006q0,.216-.2.216l-2.336-.051h-.165A17.313,17.313,0,0,0,104.533-9.2a3.4,3.4,0,0,0-.647.99q-.127.279-.229.279-.076,0-.241-.279a23.3,23.3,0,0,1-1.79-4.964q.013,5.116.152,10.753.025,1.409.076,3.148.025.863.025.939a.157.157,0,0,1-.178.178h-1.244q-.216,0-.216-.178,0-.013.051-2.234.178-6.576.216-12.251a29.25,29.25,0,0,1-3.047,8.239q-.165.292-.254.292-.14,0-.216-.254a2.249,2.249,0,0,0-.673-1.016,28.43,28.43,0,0,0,3.821-9.28h-.571l-2.361.051a.191.191,0,0,1-.216-.216v-1.016q0-.229.216-.229l2.361.051h.774v-2.234a16.335,16.335,0,0,0-.2-3.1,12.274,12.274,0,0,1,1.638.165q.317.038.317.229a1.255,1.255,0,0,1-.152.47,9.022,9.022,0,0,0-.14,2.209v2.26h.216l2.336-.051q.2,0,.2.229Zm3.986,8.95q.089.089.089.14,0,.076-.178.254l-.546.508q-.216.229-.3.229-.051,0-.127-.114a12.634,12.634,0,0,0-2.184-2.425q-.1-.076-.1-.127t.2-.254l.444-.419q.2-.19.279-.19.051,0,.127.089A12.621,12.621,0,0,1,108.545-6.056ZM109.891-18.9a.312.312,0,0,1,.025.114q0,.089-.178.2l-.762.406a.818.818,0,0,1-.3.14q-.076,0-.14-.165a8.639,8.639,0,0,0-1.46-2.336.208.208,0,0,1-.076-.127q0-.076.267-.216l.673-.33a.683.683,0,0,1,.229-.076.27.27,0,0,1,.19.127A12.261,12.261,0,0,1,109.891-18.9ZM129.467-6.627l1.777.152a10.136,10.136,0,0,0-.292,2.336,1.958,1.958,0,0,0,.825,1.815,5.882,5.882,0,0,0,2.869.508,48.256,48.256,0,0,0,5.142-.267L139.839-.2q-1.9.152-4.938.152-3.288,0-4.532-.914a3.311,3.311,0,0,1-1.181-2.882A13.407,13.407,0,0,1,129.467-6.627Zm.521-8.684v-1.777q3.25-.254,6.576-.254,1.65,0,3.1.076V-15.5q-1.346-.1-3.275-.1Q133.06-15.6,129.987-15.311Zm-2.806-4.481a67.5,67.5,0,0,0-1.46,12.276,46.111,46.111,0,0,0,.635,8.138L124.5.774a53.577,53.577,0,0,1-.6-8.341,74.784,74.784,0,0,1,1.435-12.378Z"
									transform="translate(0 20.094)" fill="#fb7180" />
								<path id="Контур_1734" data-name="Контур 1734"
									d="M24.362-10.258a.18.18,0,0,1-.2.2l-3.428-.051H18.649A16.927,16.927,0,0,1,15.3-3.834q3.187,1.4,7.376,3.732.14.1.14.19a.526.526,0,0,1-.14.279l-.6.889q-.127.2-.229.2a.778.778,0,0,1-.292-.127,54.987,54.987,0,0,0-7.439-4Q10.613.343,3.491,1.384a2.069,2.069,0,0,1-.267.025q-.254,0-.47-.432A3,3,0,0,0,2.082-.038Q9.026-.8,12.479-3.352A43.618,43.618,0,0,0,7.363-5.091q-.571.825-.724,1.016a.455.455,0,0,1-.33.19.544.544,0,0,1-.19-.038L5.332-4.2q-.355-.14-.355-.241a.324.324,0,0,1,.1-.178Q5.5-5.129,6.348-6.31a41.244,41.244,0,0,0,2.26-3.8H5.649l-3.44.051a.18.18,0,0,1-.2-.2v-1.1a.18.18,0,0,1,.2-.2l3.44.051H9.344q.609-1.231,1.092-2.361a7.272,7.272,0,0,0,.647-2.057,15.462,15.462,0,0,1,1.714.5q.254.089.254.254a.548.548,0,0,1-.292.419,2.856,2.856,0,0,0-.622.99q-.406.952-1.054,2.26h9.648l3.428-.051a.18.18,0,0,1,.2.2Zm-7.376.152H10.372Q9.293-8.062,8.163-6.284a47.8,47.8,0,0,1,5.6,1.815A14.624,14.624,0,0,0,16.986-10.105Zm6.424-3.25a.18.18,0,0,1-.2.2H22a.18.18,0,0,1-.2-.2v-3.72H4.189v3.72a.18.18,0,0,1-.2.2H2.78a.18.18,0,0,1-.2-.2l.051-2.755v-.838l-.051-1.384a.18.18,0,0,1,.2-.2l3.644.051h5.6v-.394a11.688,11.688,0,0,0-.216-2.653q.736.038,1.739.14.317.038.317.2a1.681,1.681,0,0,1-.152.5,7.725,7.725,0,0,0-.127,1.815v.394h6l3.618-.051a.18.18,0,0,1,.2.2L23.359-17.1v.99ZM45.551-4.786a13.6,13.6,0,0,1-.419,3.517A2.433,2.433,0,0,1,44.18.076Q42.91.99,39.622.99A9.693,9.693,0,0,1,35.775.5,1.9,1.9,0,0,1,34.9-.33a3.576,3.576,0,0,1-.267-1.536V-12.01a14.529,14.529,0,0,0-.152-2.374,11.763,11.763,0,0,1,1.739.216q.368.076.368.254a.978.978,0,0,1-.127.368,4.866,4.866,0,0,0-.165,1.688v9.5q0,1.13.622,1.422a8.043,8.043,0,0,0,2.78.292q2.526,0,3.2-.571a2.127,2.127,0,0,0,.8-1.4,21.109,21.109,0,0,0,.165-3.364,4.5,4.5,0,0,0,1.244.571,1.2,1.2,0,0,1,.381.165A.3.3,0,0,1,45.563-5Q45.563-4.964,45.551-4.786Zm5.205.368a.4.4,0,0,1,.038.152q0,.14-.33.292l-.851.406a1.7,1.7,0,0,1-.394.152q-.063,0-.1-.127a28.183,28.183,0,0,0-3.479-7.77.29.29,0,0,1-.063-.165q0-.152.241-.254l.876-.355a.865.865,0,0,1,.279-.076.276.276,0,0,1,.216.152A33.107,33.107,0,0,1,50.756-4.418Zm-7.808-13q.114.076.114.14a.818.818,0,0,1-.14.3l-.47.825q-.2.33-.292.33a.254.254,0,0,1-.14-.076,25.693,25.693,0,0,0-6.792-3.682q-.14-.063-.14-.14a.818.818,0,0,1,.14-.3l.47-.673q.178-.279.254-.279a.494.494,0,0,1,.14.038A30.3,30.3,0,0,1,42.948-17.418ZM32.081-11.159A29.837,29.837,0,0,1,29.352-2.7q-.089.165-.216.165a.769.769,0,0,1-.279-.089L28.031-3q-.381-.165-.381-.3a.3.3,0,0,1,.038-.127,24.116,24.116,0,0,0,2.755-8.15q.025-.152.1-.152a2.974,2.974,0,0,1,.368.076l.838.19q.343.076.343.229A.347.347,0,0,1,32.081-11.159ZM55.39-20.49h1.942q-.444,13.355-.444,16.1a3.966,3.966,0,0,0,.851,2.933,4.126,4.126,0,0,0,2.869.787A5.976,5.976,0,0,0,65.14-2.425,10.16,10.16,0,0,0,67.4-7.389l1.765.889q-1.727,7.566-8.506,7.566-3.225,0-4.456-1.333a5.761,5.761,0,0,1-1.13-4q0-1.422.114-6.97Q55.339-17.951,55.39-20.49Zm32.729,1.435.051,1.79A9.865,9.865,0,0,0,83.878-16.1a11.02,11.02,0,0,0-3.847,3.644,8.946,8.946,0,0,0-1.511,4.938,5.494,5.494,0,0,0,2.387,4.7A11.458,11.458,0,0,0,86.354-.965L85.909.889a11.331,11.331,0,0,1-6.741-2.564A7.225,7.225,0,0,1,76.73-7.338q0-5.84,5.561-9.331l1.409-.622-.025-.051-1.219.2q-2.209.127-10.512.889l-.152-1.714Q75.512-18.243,88.118-19.056Zm17.913,3.669q0,.2-.178.2l-2.92-.051h-1.117V-13.6h1.016l2.768-.051q.229,0,.229.2l-.051,2.158V-8.9l.051,2.146q0,.2-.229.2L102.832-6.6h-1.016v1.688h.762l2.729-.051a.18.18,0,0,1,.2.2v.889a.18.18,0,0,1-.2.2l-2.729-.051h-.762v1.854q2.184-.355,3.491-.686l-.152.787a.91.91,0,0,1-.14.482,1.4,1.4,0,0,1-.47.14Q102.121-.609,97.792,0a2.844,2.844,0,0,0-1.117.292.637.637,0,0,1-.343.127q-.14,0-.229-.343a12.648,12.648,0,0,1-.317-1.346q.229.013.5.013a18.88,18.88,0,0,0,1.9-.114q.876-.076,2.336-.292V-3.72H99.354l-2.729.051q-.216,0-.216-.2v-.889q0-.2.216-.2l2.729.051h1.168V-6.6h-.838l-2.78.051a.18.18,0,0,1-.2-.2L96.751-8.9v-2.387L96.7-13.444a.18.18,0,0,1,.2-.2l2.78.051h.838v-1.638H99.2l-2.92.051a.18.18,0,0,1-.2-.2V-16.3a.18.18,0,0,1,.2-.2l2.92.051h1.32v-1.79q-1.333.229-2.7.381a1.781,1.781,0,0,1-.241.025q-.2,0-.406-.381a3.362,3.362,0,0,0-.571-.812,31.505,31.505,0,0,0,7-1.143,3.913,3.913,0,0,0,1.066-.47,6.518,6.518,0,0,1,.914.889.575.575,0,0,1,.152.343q0,.2-.343.2a2.534,2.534,0,0,0-.724.1q-1.27.343-2.844.622v2.031h1.117l2.92-.051q.178,0,.178.2Zm-1.511,7.668V-9.6h-2.7v1.879Zm0-2.971v-1.79h-2.7v1.79Zm-4,2.971V-9.6h-2.5v1.879Zm0-2.971v-1.79h-2.5v1.79Zm13.47-4.24q-.051.813-.051,2.323a100.405,100.405,0,0,1-.647,11.438,3.585,3.585,0,0,1-.876,2.057,2.3,2.3,0,0,1-1.676.571q-.825,0-1.638-.076-.292-.025-.343-.114a1.5,1.5,0,0,1-.1-.457,2.98,2.98,0,0,0-.343-1.066,11.837,11.837,0,0,0,2.247.229,1.054,1.054,0,0,0,.978-.508,3.751,3.751,0,0,0,.394-1.308,88.04,88.04,0,0,0,.6-11.908h-2.285a47.717,47.717,0,0,1-.838,7.1,15.324,15.324,0,0,1-4.177,8.036q-.2.229-.292.229t-.33-.267A4.051,4.051,0,0,0,103.7.724a13.605,13.605,0,0,0,4.393-7.846,41.5,41.5,0,0,0,.749-6.627l-2.158.051a.18.18,0,0,1-.2-.2v-1.041q0-.216.2-.216l2.209.063q.063-1.828.063-2.818a21.4,21.4,0,0,0-.19-3.2,11.17,11.17,0,0,1,1.587.165q.317.076.317.254a2.96,2.96,0,0,1-.152.546,9.848,9.848,0,0,0-.165,2.425q0,.851-.051,2.628h1.066l2.4-.063A.2.2,0,0,1,113.991-14.93ZM96.827-20.693q0,.14-.254.355a2.521,2.521,0,0,0-.5.99q-.952,2.742-1.612,4.24V-2.387l.051,4.024a.18.18,0,0,1-.2.2H93.133a.18.18,0,0,1-.2-.2l.051-4.024V-8.912q0-1.041.051-3.44a24.878,24.878,0,0,1-1.739,2.577q-.19.254-.292.254-.076,0-.2-.292a4.315,4.315,0,0,0-.571-1.1,24.9,24.9,0,0,0,4.443-8.836,7.82,7.82,0,0,0,.368-1.777,9.92,9.92,0,0,1,1.473.521Q96.827-20.871,96.827-20.693Zm28.425,13.8,1.587,1.143Q125.582.521,122.624.521a3.067,3.067,0,0,1-2.856-1.892,17.1,17.1,0,0,1-1.333-5.992q-.2-2.437-.2-6.576l.025-4.888h1.879l-.038,4.063q0,4.913.216,7.249.5,5.979,2.26,5.979.9,0,1.511-1.32A22.124,22.124,0,0,0,125.252-6.894Zm3.9-9.928,1.688-.5q3.542,5.37,4.507,14.066l-1.955.317Q132.438-11.6,129.149-16.821Zm25.632-2.234.051,1.79a9.865,9.865,0,0,0-4.291,1.168,11.02,11.02,0,0,0-3.847,3.644,8.946,8.946,0,0,0-1.511,4.938,5.494,5.494,0,0,0,2.387,4.7,11.458,11.458,0,0,0,5.446,1.854L152.572.889a11.331,11.331,0,0,1-6.741-2.564,7.225,7.225,0,0,1-2.437-5.662q0-5.84,5.561-9.331l1.409-.622-.025-.051-1.219.2q-2.209.127-10.512.889l-.152-1.714Q142.175-18.243,154.781-19.056ZM165.915-6.894,167.5-5.751Q166.245.521,163.287.521a3.067,3.067,0,0,1-2.856-1.892A17.1,17.1,0,0,1,159.1-7.363q-.2-2.437-.2-6.576l.025-4.888H160.8l-.038,4.063q0,4.913.216,7.249.5,5.979,2.26,5.979.9,0,1.511-1.32A22.124,22.124,0,0,0,165.915-6.894Zm3.9-9.928,1.688-.5q3.542,5.37,4.507,14.066l-1.955.317Q173.1-11.6,169.813-16.821Zm13.825,1.866q-2.146.114-4.393.114v-1.638q2.6,0,4.659-.114.355-2.641.5-4.545l1.917.178q-.2,1.9-.6,4.291,2.526-.165,5.751-.444l.025,1.638q-2.653.279-6.043.444A98.74,98.74,0,0,1,181.353.8L179.537.178A88.921,88.921,0,0,0,183.638-14.955Zm3.174,9.991,1.612.127a6.832,6.832,0,0,0-.152,1.46,2,2,0,0,0,.952,2.006,7.833,7.833,0,0,0,2.895.355,30.679,30.679,0,0,0,4.024-.2l.1,1.79q-1.549.152-3.8.152-3.39,0-4.634-.876A3.226,3.226,0,0,1,186.634-3,9.7,9.7,0,0,1,186.812-4.964Zm1.32-5.561v-1.727a74.389,74.389,0,0,1,7.909-.355v1.663A59.729,59.729,0,0,0,188.132-10.524Zm16.187-6.068q.355-2.641.5-4.545l1.917.178q-.2,1.9-.6,4.291,2.526-.165,5.751-.444l.025,1.638q-2.653.279-6.043.444A98.74,98.74,0,0,1,201.767.8L199.951.178a88.921,88.921,0,0,0,4.1-15.133q-2.146.114-4.393.114v-1.638Q202.262-16.479,204.318-16.593Zm7.592-4.621,1.32-.521a34.779,34.779,0,0,1,1.93,4.393l-1.409.571A26.9,26.9,0,0,0,211.91-21.214Zm-4.685,16.25,1.612.127a6.832,6.832,0,0,0-.152,1.46,2,2,0,0,0,.952,2.006,7.833,7.833,0,0,0,2.895.355,30.679,30.679,0,0,0,4.024-.2l.1,1.79q-1.549.152-3.8.152-3.39,0-4.634-.876A3.226,3.226,0,0,1,207.048-3,9.7,9.7,0,0,1,207.226-4.964Zm1.32-5.561v-1.727q3.682-.355,7.909-.355v1.663A59.729,59.729,0,0,0,208.546-10.524Zm6.246-11.654,1.295-.47a21.48,21.48,0,0,1,1.854,4.266l-1.358.546A25.048,25.048,0,0,0,214.792-22.179Zm19.424,6.449q1.4-.127,3.2-.368l.076,1.663q-1.435.19-3.275.317.025,1.346.025,3.948,0,5.675-1.409,7.947a9.716,9.716,0,0,1-4.405,3.313L227.2-.292a9.752,9.752,0,0,0,3.3-2.044,6.368,6.368,0,0,0,1.549-3.06,23.282,23.282,0,0,0,.381-4.824q0-2.488-.025-3.771-3.8.178-6.652.076l-.025-1.638q3.339.114,6.678-.076-.051-3.428-.1-5.065h1.866Q234.165-19.056,234.216-15.729Zm-10.651-4.608q-.508,2.869-.876,6.589-.355,3.542-.355,5.84a32.9,32.9,0,0,0,.939,7.731l-1.841.152a42.277,42.277,0,0,1-.914-7.935,69.675,69.675,0,0,1,.482-7q.343-3.148.711-5.535Zm19.043.914q3.44-.025,10.575-.368l1.092,1.358q-5.065,5.142-8.036,7.719L245.07-9.7l.1.076,1.333-.9a8.569,8.569,0,0,1,3.669-.99A6.587,6.587,0,0,1,255.2-9.661a5.7,5.7,0,0,1,1.5,4.1,6.159,6.159,0,0,1-2.374,5.281,9.874,9.874,0,0,1-5.979,1.574q-5.091,0-5.091-3.453A3.018,3.018,0,0,1,244.347-4.6,4.034,4.034,0,0,1,247-5.434a4.278,4.278,0,0,1,3.3,1.4,6.4,6.4,0,0,1,1.46,3.123A4.789,4.789,0,0,0,254.1-2.729a5.426,5.426,0,0,0,.673-2.856,4.143,4.143,0,0,0-1.612-3.479,4.96,4.96,0,0,0-3.1-.978,9.1,9.1,0,0,0-6.284,2.526,23.116,23.116,0,0,0-2.158,2.26L240.081-6.5q6.221-6.4,11.388-11.654-3.732.279-8.861.419Zm7.325,19.03a5.617,5.617,0,0,0-1.155-2.653,2.368,2.368,0,0,0-1.828-.876,2.079,2.079,0,0,0-1.5.559,1.538,1.538,0,0,0-.508,1.155,1.615,1.615,0,0,0,.863,1.536,5.334,5.334,0,0,0,2.412.419A11.21,11.21,0,0,0,249.933-.394Z"
									transform="translate(0 52.089)" fill="#fb7180" />
								<path id="Контур_1733" data-name="Контур 1733"
									d="M24.959-11.54a.18.18,0,0,1-.2.2l-3.148-.051H21.48v9.179l.051,3.872a.18.18,0,0,1-.2.2H20.046a.18.18,0,0,1-.2-.2l.051-3.872v-9.179H16.021a32.993,32.993,0,0,1-.647,7.617,13.267,13.267,0,0,1-2.653,5.142q-.216.292-.368.292a.6.6,0,0,1-.343-.2,2.723,2.723,0,0,0-.978-.6A11.886,11.886,0,0,0,13.99-4.6a35.55,35.55,0,0,0,.521-7.312v-3.2a32.929,32.929,0,0,0-.178-3.669,8.87,8.87,0,0,1,1.688.521,23.983,23.983,0,0,0,5.167-2.031,6.342,6.342,0,0,0,1.308-.939,8,8,0,0,1,1.143,1.181.585.585,0,0,1,.152.355q0,.19-.343.241a2.921,2.921,0,0,0-.952.3A33.735,33.735,0,0,1,16.021-16.8v4h5.586l3.148-.051a.18.18,0,0,1,.2.2ZM12.873-7.2q0,.2-.216.2L9.521-7.046H8.709A9.24,9.24,0,0,0,10.5-5.091,16.5,16.5,0,0,0,12.556-3.72a2.875,2.875,0,0,0-.622.914q-.152.3-.229.3-.1,0-.368-.229A11.772,11.772,0,0,1,8.163-6.208q.025,2.45.114,5.281.063,2.057.063,2.463,0,.2-.229.2H6.944q-.216,0-.216-.2,0-.571.051-2.856.076-2.691.114-4.583A16.541,16.541,0,0,1,2.463-.546a.905.905,0,0,1-.381.2q-.1,0-.267-.3a2.835,2.835,0,0,0-.7-.965A16.173,16.173,0,0,0,6.322-7.046H4.989L1.815-7a.18.18,0,0,1-.2-.2V-8.239q0-.216.2-.216L4.989-8.4H6.817v-.051a12.287,12.287,0,0,0-.165-2.437q.812.038,1.587.127.267.051.267.216a.818.818,0,0,1-.1.355,5.987,5.987,0,0,0-.14,1.739V-8.4H9.521l3.136-.051a.191.191,0,0,1,.216.216Zm.444-4.367q0,.2-.216.2l-3.225-.051H4.862l-3.225.051a.18.18,0,0,1-.2-.2v-1.079a.18.18,0,0,1,.2-.2l3.225.051H8.29a21.117,21.117,0,0,0,1.193-2.958,4.677,4.677,0,0,0,.241-1.13q.876.2,1.4.368.317.1.317.317a.486.486,0,0,1-.178.3,1.879,1.879,0,0,0-.394.6,27.106,27.106,0,0,1-1.143,2.5h.152l3.225-.051q.216,0,.216.2ZM12.9-17.7q0,.2-.216.2L9.6-17.545H5.281l-3.1.051a.18.18,0,0,1-.2-.2v-1.016q0-.216.2-.216l3.1.063h1.5v-.812A7.562,7.562,0,0,0,6.6-21.544a15.269,15.269,0,0,1,1.688.127q.343.038.343.2a1.171,1.171,0,0,1-.152.47,2.546,2.546,0,0,0-.14,1.066v.813H9.6l3.085-.063a.191.191,0,0,1,.216.216ZM6.233-14.092a.418.418,0,0,1,.025.127q0,.14-.254.241l-.647.267a1.3,1.3,0,0,1-.292.063q-.14,0-.178-.2a12.777,12.777,0,0,0-.99-2.59.39.39,0,0,1-.051-.152q0-.1.317-.216l.6-.216a.5.5,0,0,1,.165-.038q.1,0,.19.152A10.984,10.984,0,0,1,6.233-14.092Zm23.156-6.4h1.942q-.444,13.355-.444,16.1a3.966,3.966,0,0,0,.851,2.933,4.126,4.126,0,0,0,2.869.787A5.976,5.976,0,0,0,39.14-2.425,10.16,10.16,0,0,0,41.4-7.389l1.765.889q-1.727,7.566-8.506,7.566-3.225,0-4.456-1.333a5.76,5.76,0,0,1-1.13-4q0-1.422.114-6.97Q29.339-17.951,29.39-20.49ZM53.8-6.894,55.39-5.751Q54.133.521,51.175.521a3.067,3.067,0,0,1-2.856-1.892,17.1,17.1,0,0,1-1.333-5.992q-.2-2.437-.2-6.576l.025-4.888h1.879l-.038,4.063q0,4.913.216,7.249.5,5.979,2.26,5.979.9,0,1.511-1.32A22.124,22.124,0,0,0,53.8-6.894Zm3.9-9.928,1.688-.5Q62.931-11.946,63.9-3.25l-1.955.317Q60.988-11.6,57.7-16.821Zm23.5-.343q-.3,7.1-2.539,11.007-2.742,4.888-9.5,7.249L68.072-.47q5.916-2.082,8.455-6.03,2.526-3.923,2.539-10.664H66.93V-18.9H79.384a2.657,2.657,0,0,1-.178-1.016,2.792,2.792,0,0,1,.952-2.158,2.842,2.842,0,0,1,1.955-.749,2.792,2.792,0,0,1,2.158.952,2.842,2.842,0,0,1,.749,1.955,2.831,2.831,0,0,1-.952,2.171A2.842,2.842,0,0,1,82.113-17,2.537,2.537,0,0,1,81.2-17.164Zm.914-4.545a1.744,1.744,0,0,0-1.346.584,1.771,1.771,0,0,0-.444,1.206,1.744,1.744,0,0,0,.584,1.346,1.713,1.713,0,0,0,1.206.457,1.744,1.744,0,0,0,1.346-.584,1.788,1.788,0,0,0,.444-1.219,1.705,1.705,0,0,0-.584-1.333A1.713,1.713,0,0,0,82.113-21.709ZM88.359-19.7h11.781v1.739H88.359Zm-1.587,5.535h14.688Q101.169-6.741,97.83-3.1,95.189-.2,89.845,1.117L88.905-.368Q94.25-1.676,96.776-4.85A12.842,12.842,0,0,0,99.3-12.429H86.772Zm17.913.076,1.663-.724a35.522,35.522,0,0,1,2.158,5.662l-1.714.673A31.721,31.721,0,0,0,104.686-14.092Zm4.913-1.117,1.638-.673a33.473,33.473,0,0,1,1.9,5.561l-1.7.724A26.435,26.435,0,0,0,109.6-15.209ZM107.567,0a13.177,13.177,0,0,0,6.97-5.726q1.917-3.288,2.26-9.585l1.9.406q-.533,6.538-2.6,10.144a12.269,12.269,0,0,1-3.11,3.631,18.967,18.967,0,0,1-4.3,2.45Zm19.538-11.312V1.041H125.1V-20.77h2.006v7.541a40.492,40.492,0,0,1,9.9,4.126l-.99,1.879A32.863,32.863,0,0,0,127.105-11.312ZM139.94-18.9h14.32q-.076,9.306-3.352,13.939-2.729,3.847-8.734,6.056L141.083-.47Q147-2.552,149.538-6.5q2.526-3.923,2.539-10.664H139.94ZM165-11.591H158.12v-1.638h8.062l-.14-3.745h1.93l.127,3.745h4v1.638h-3.923l.47,12.34h-1.955l-.254-7.973.178-3.745L165.813-9a22.918,22.918,0,0,1-7.338,8.062l-1.244-1.422A21.425,21.425,0,0,0,165-11.591Zm10.194.927h14.143v1.93H175.2Zm31.129,7.122A61.566,61.566,0,0,0,203.1-10.4l1.663-.736A81.557,81.557,0,0,1,209.854.025l-1.892.889q-.5-1.523-1.016-2.869Q199.151-.724,192.258.051l-.419-1.892q.521-.025,1.562-.14,3.136-9.064,5.459-18.167l2.006.521q-2.222,8.315-5.434,17.443Q201.119-2.717,206.324-3.542Zm18.789-9.75,1.333-.508a33.938,33.938,0,0,1,1.917,4.393l-1.4.571A28.085,28.085,0,0,0,225.113-13.292Zm2.945-.876,1.295-.47a21.48,21.48,0,0,1,1.854,4.266l-1.358.546A25.048,25.048,0,0,0,228.059-14.168Zm.724-4.888.051,1.79a9.865,9.865,0,0,0-4.291,1.168,11.02,11.02,0,0,0-3.847,3.644,8.946,8.946,0,0,0-1.511,4.938,5.494,5.494,0,0,0,2.387,4.7,11.458,11.458,0,0,0,5.446,1.854L226.573.889a11.331,11.331,0,0,1-6.741-2.564,7.225,7.225,0,0,1-2.437-5.662q0-5.84,5.561-9.331l1.409-.622-.025-.051-1.219.2q-2.209.127-10.512.889l-.152-1.714Q216.176-18.243,228.782-19.056Zm16.3,3.275q-.076,2.818,0,5.637a9.887,9.887,0,0,1,.571,3.3,6.848,6.848,0,0,1-2.425,5.7,14.381,14.381,0,0,1-6.081,2.361L236.057-.343q4.494-.749,6.335-2.564a5.091,5.091,0,0,0,1.5-3.491,3.447,3.447,0,0,1-3.352,1.638,4.094,4.094,0,0,1-2.844-1.066,3.867,3.867,0,0,1-1.244-3.009,3.845,3.845,0,0,1,1.473-3.225,4.586,4.586,0,0,1,2.895-.914,3.721,3.721,0,0,1,2.526.724q-.051-2.437-.051-3.479-4.177.063-10.093.444l-.025-1.663q4.8-.19,10.093-.317v-3.529l1.866.025q0,1.168-.051,3.453,4.316-.051,6.246-.051V-15.7Q248.206-15.78,245.083-15.78Zm-4.342,4.266a2.456,2.456,0,0,0-1.828.736,2.625,2.625,0,0,0-.724,1.942,2.3,2.3,0,0,0,.825,1.866,2.392,2.392,0,0,0,1.574.546,2.61,2.61,0,0,0,2.044-.762,2.414,2.414,0,0,0,.584-1.7Q243.217-11.515,240.741-11.515Zm17.316,6.551a3.557,3.557,0,0,1,2.717,1.193,3.451,3.451,0,0,1,.952,2.425,3.434,3.434,0,0,1-1.219,2.679,3.6,3.6,0,0,1-2.45.927,3.532,3.532,0,0,1-2.717-1.193,3.436,3.436,0,0,1-.952-2.412,3.447,3.447,0,0,1,1.219-2.691A3.6,3.6,0,0,1,258.058-4.964Zm0,1.295a2.194,2.194,0,0,0-1.714.774,2.21,2.21,0,0,0-.609,1.549,2.219,2.219,0,0,0,.774,1.714,2.236,2.236,0,0,0,1.549.6A2.224,2.224,0,0,0,259.784.2a2.263,2.263,0,0,0,.584-1.549,2.241,2.241,0,0,0-.749-1.727A2.252,2.252,0,0,0,258.058-3.669Z"
									transform="translate(0 85.084)" fill="#fb7180" />
								<rect id="Прямоугольник_34" data-name="Прямоугольник 34" width="268.603" height="91.791"
									fill="none" />
							</g>
						</svg>