<svg id="Сгруппировать_56" data-name="Сгруппировать 56" xmlns="http://www.w3.org/2000/svg" xmlns:xlink="http://www.w3.org/1999/xlink" width="268.603" height="91.791" viewBox="0 0 268.603 91.791">
  <defs>
    <clipPath id="clip-path">
      <rect id="Прямоугольник_34" data-name="Прямоугольник 34" width="268.603" height="91.791" fill="none"/>
    </clipPath>
  </defs>
  <g id="Сгруппировать_55" data-name="Сгруппировать 55" clip-path="url(#clip-path)">
    <path id="Контур_1734" data-name="Контур 1734" d="M14.727-11.223a7.384,7.384,0,0,0-1.612.33q-1.181.33-2.869.99A20.531,20.531,0,0,0,7.668-8.734a9.867,9.867,0,0,0-.482,2.488,7.528,7.528,0,0,0,.127,1.93,5.606,5.606,0,0,0,.406,1.27,1.379,1.379,0,0,0,1.27.762,4.334,4.334,0,0,0,1.219-.178q.609-.178,2.463-.876t2.514-.952a.562.562,0,0,1,.787.152,1.26,1.26,0,0,1,.254.635q.051.381-.533.584-1.523.736-2.818,1.231a23.616,23.616,0,0,1-2.463.8A4.1,4.1,0,0,1,8.519-.978a3.949,3.949,0,0,1-1.562-.8,3.169,3.169,0,0,1-.863-1.384,9.26,9.26,0,0,1-.355-2.323,13.686,13.686,0,0,1,.076-2.564,8.518,8.518,0,0,0-2.488,1.4,1.83,1.83,0,0,1-.533.355.543.543,0,0,1-.6-.051,1.285,1.285,0,0,1-.406-.533,2.774,2.774,0,0,1-.19-.66,16.876,16.876,0,0,1,2.425-1.5q1.257-.635,2.3-1.117.229-.711.444-1.371t.6-1.765q.381-1.1.508-1.358a1.42,1.42,0,0,1,.533-.127.944.944,0,0,1,.229.025.811.811,0,0,1,.47.419,1.731,1.731,0,0,1,.063,1q-.457,1.092-.965,2.361.736-.229,1.968-.635t2.59-.8a13.764,13.764,0,0,1,2.323-.5,1.443,1.443,0,0,1,1.625,1.143,3.689,3.689,0,0,1-.482,1.46A8.946,8.946,0,0,1,14.676-8.3a19.312,19.312,0,0,1-2.057,1.854,3.934,3.934,0,0,1-1.6.838.724.724,0,0,1-.482.038.579.579,0,0,1-.381-.292,1.657,1.657,0,0,1-.178-.482,1.279,1.279,0,0,1,.508-.419,7.667,7.667,0,0,0,1.27-.99,16.018,16.018,0,0,0,1.688-1.714A15.918,15.918,0,0,0,14.727-11.223ZM31.688-7.439a3.9,3.9,0,0,0-1.206-.368,9.439,9.439,0,0,0-2.59.2,13.167,13.167,0,0,0-3.072.851,11.611,11.611,0,0,0-1.612.813,3.712,3.712,0,0,1-.457.216.588.588,0,0,1-.508-.063,2.195,2.195,0,0,1-.66-1.066.575.575,0,0,1,.14-.355,1.283,1.283,0,0,1,.292-.279,18.382,18.382,0,0,1,3.4-1.181,20.556,20.556,0,0,1,4.723-.724,4.59,4.59,0,0,1,1.46.241,2.682,2.682,0,0,1,1.206.8,2.491,2.491,0,0,1,.5.711,1.379,1.379,0,0,1,.127.813,2.164,2.164,0,0,1-.317.813,17.489,17.489,0,0,1-2.057,2.666Q29.732-1.9,28.6-.762a18.237,18.237,0,0,0-1.688,1.9,4.049,4.049,0,0,1-.432.457q-.152.127-.635-.076a1.5,1.5,0,0,1-.66-.66q-.1-.3.406-.939,2.539-2.666,4.037-4.354t1.777-2.095A1.576,1.576,0,0,0,31.688-7.439Zm.33-6.348q-.279.2-.406.292t-.635-.063a2.189,2.189,0,0,0-1.346-.2q-.914.076-1.879.216t-1.98.33a14.187,14.187,0,0,0-1.98.521,1.208,1.208,0,0,1-.914-.165,1.133,1.133,0,0,1-.533-.774.54.54,0,0,1,.19-.508.849.849,0,0,1,.5-.254q1.219-.33,2.742-.584t2.869-.381q.838-.076,1.523-.076.406,0,.762.025a1.022,1.022,0,0,1,.851.559A2.351,2.351,0,0,1,32.018-13.787ZM52.076-9.369a9.334,9.334,0,0,1-1.587.647q-1.1.368-3.275,1.32a28.563,28.563,0,0,0-3.085,1.511,1.2,1.2,0,0,0-.635,1.447q.178.711.419,1.511A2.01,2.01,0,0,0,45.043-1.7,2.213,2.213,0,0,0,46.9-1.65q.965-.33,1.93-.749a14.508,14.508,0,0,0,1.866-.978q.9-.559,1.968-1.143a1.1,1.1,0,0,1,.559.571.618.618,0,0,1-.127.647l-.457.546a7.264,7.264,0,0,1-1.473.939A31.06,31.06,0,0,1,48.191-.406a4.5,4.5,0,0,1-3.11.19A4.311,4.311,0,0,1,42.834-1.9a6.638,6.638,0,0,1-1.016-2.92,1.99,1.99,0,0,0-.292-.889q-.216-.3.165-.863a5.691,5.691,0,0,0,.216-1.308,17.34,17.34,0,0,1,.3-2.057q.241-1.206.647-3.491.1-.3.317-.343a1.067,1.067,0,0,1,.533.076,3.373,3.373,0,0,1,.673.343.631.631,0,0,1,.254.457,1.138,1.138,0,0,1-.076.533,11.575,11.575,0,0,0-.508,2.107q-.152,1.066-.33,2.412.686-.2,2.691-1.028T50.3-10.461a3.418,3.418,0,0,1,.6-.254.8.8,0,0,1,.622.051.818.818,0,0,1,.419.47A2.917,2.917,0,0,1,52.076-9.369Zm2.133-5.611a1.72,1.72,0,0,0,1.447-.66,1.894,1.894,0,0,1,1.117-.381,1.85,1.85,0,0,1,.3.025,2.636,2.636,0,0,1,2.031,1.549,3.949,3.949,0,0,1,.457,1.5,3.566,3.566,0,0,1-.178,1.523,10.4,10.4,0,0,1-.711,1.574,16.978,16.978,0,0,1-1.32,1.6,2.791,2.791,0,0,1-2.107.609,2.092,2.092,0,0,1-1.32-.609,5.294,5.294,0,0,1-.838-2.412,5.033,5.033,0,0,1,.292-2.234Q53.777-13.939,54.209-14.98Zm4.113,1.447a1.246,1.246,0,0,0-.33-.686,1.2,1.2,0,0,0-.571-.33,1.518,1.518,0,0,0-.724.025,2.756,2.756,0,0,0-1.168,1.041,12.052,12.052,0,0,0-.66,1.409,4,4,0,0,0-.178,2.095,2.574,2.574,0,0,0,.152.5.581.581,0,0,0,.317.33.638.638,0,0,0,.482-.013,1.176,1.176,0,0,0,.419-.254q.457-.482.774-.825a14.957,14.957,0,0,0,1.054-1.409,1.58,1.58,0,0,0,.279-.457,2.687,2.687,0,0,0,.152-.635A3.062,3.062,0,0,0,58.322-13.533Zm13.432.635a6.773,6.773,0,0,0-2.311-.038,10.821,10.821,0,0,0-2.882.673,6.06,6.06,0,0,0-1.638.838,1.037,1.037,0,0,1-.508.317.5.5,0,0,1-.368-.165,2.112,2.112,0,0,1-.368-.482,1.564,1.564,0,0,1-.152-.66q0-.33.457-.609a14.273,14.273,0,0,1,3.3-1.041,14.219,14.219,0,0,1,3.25-.406,9.218,9.218,0,0,1,1.193.076,2.02,2.02,0,0,1,1.562.927,1.639,1.639,0,0,1,.063,1.765q-.838,1.523-1.5,2.514l-1.32,1.98a19.509,19.509,0,0,0,2.539,3.364,13.014,13.014,0,0,0,1.7,1.536,3.319,3.319,0,0,0,.444.355.568.568,0,0,1,.216.419.672.672,0,0,1-.229.6.983.983,0,0,1-.635.3.751.751,0,0,1-.66-.2Q72.439-2.209,71.386-3.39a21.968,21.968,0,0,1-1.942-2.526q-.508.584-1.4,1.752t-1.815,2.4Q65.3-.533,64.9-.025a.659.659,0,0,1-.635.317,2.112,2.112,0,0,1-.736-.33A.705.705,0,0,1,63.3-.914q.787-.813,1.181-1.244t2.438-3.11Q68.961-7.947,70.1-9.712t1.346-2.209A4.261,4.261,0,0,0,71.754-12.9Zm14.193-2.793Q85.82-14.523,85.6-13.2t-.394,2.628q-.178,1.308-.279,1.942a4.118,4.118,0,0,0,1.041.152q1.473-.025,2.768-.1t2.438-.051q.736.2.774.521a3.207,3.207,0,0,1-.038.825,14.2,14.2,0,0,1-2.387.33l-2.374.165q-.9.063-1.257.114a2.756,2.756,0,0,1-1.117-.2,7.267,7.267,0,0,0-.368,1.917q-.089,1.155-.127,2.564A29.442,29.442,0,0,0,84.36.559,19.636,19.636,0,0,0,84.7,3.174a1.64,1.64,0,0,1-1.346-.1,1.562,1.562,0,0,1-.432-.927q-.1-.622-.19-2.361a42.621,42.621,0,0,1,.2-5.23q.292-3.491.673-5.979t.508-3.326a15.408,15.408,0,0,0,.152-1.93q.051-.482.381-.482a1.541,1.541,0,0,1,.838.444A1.106,1.106,0,0,1,85.947-15.691ZM115.07-8.684q-.559.229-.889.355a27.323,27.323,0,0,1-2.691,1.143q-.076.762-.076,1.079t-.1,1.892q.482-.025.724-.013t.279.317q.038.3-.419.584l-.559.584q-.254,2.615-.317,3.669t-.14,2.222a1.917,1.917,0,0,1-.1.609.53.53,0,0,1-.482.355.9.9,0,0,1-.965-.686q-.254-.457-.521-.851a2.176,2.176,0,0,1-.343-.927q.812.355.939-.127.178-1.9.3-3.148-1.32,1.016-1.9,1.4t-1.244.876q-.66.5-1.371.978-.559.355-1.143-.3-.635-.787.051-1.168,2.285-1.32,3.453-1.968a14.821,14.821,0,0,0,2.031-1.333q.127-.66.216-1.663a14.718,14.718,0,0,0,.063-1.765q-.559.2-1.079.444t-1.714.673a.782.782,0,0,1-.686-.114.972.972,0,0,1-.394-.584,1.4,1.4,0,0,1,.013-.724,7.782,7.782,0,0,1,1.295-.444,24.224,24.224,0,0,0,2.514-.9,6.064,6.064,0,0,0,.025-1.65,10.962,10.962,0,0,0-1.219.457q-.533.254-1.117.584a1.138,1.138,0,0,1-.965-.559.7.7,0,0,1,.279-.99q.965-.432,1.688-.711t1.384-.559q-.025-.787-.051-1.422-.635.254-1.358.47t-1.435.444a1.9,1.9,0,0,1-.965.152q-.3-.076-.686-.99a.425.425,0,0,1,.355-.5q.381-.089.939-.229a3.789,3.789,0,0,0,1.143-.521,1.539,1.539,0,0,1,.165-.647,6.076,6.076,0,0,0,.368-.7,16.759,16.759,0,0,1-1.676-1.6,2.612,2.612,0,0,1-.508-.787.585.585,0,0,1,.279-.838,1.614,1.614,0,0,1,1.244.838,7.213,7.213,0,0,0,1.7,1.65q.965-.736,1.854-1.562a15.614,15.614,0,0,1,1.422-1.206.5.5,0,0,1,.229-.051,1.455,1.455,0,0,1,.66.229,1.547,1.547,0,0,1,.686.889,16.669,16.669,0,0,0-2.146,1.346q-1.155.838-2.831,2.209l3.758-1.168a3.119,3.119,0,0,1,.762-.114.627.627,0,0,1,.609.381,6.161,6.161,0,0,1,.33.749,1.772,1.772,0,0,1-.686.355l-1.193.3a8.8,8.8,0,0,0-1.295.457q-.025.584,0,1.27a7.03,7.03,0,0,1,1.473-.33,1.144,1.144,0,0,1,.711.127.7.7,0,0,1,.381.584.719.719,0,0,1-.229.66,14.8,14.8,0,0,0-2.488.686,7.98,7.98,0,0,0-.051.813,7.98,7.98,0,0,0,.051.813,6.844,6.844,0,0,0,2.311-.939,1.426,1.426,0,0,0,.482-.2.45.45,0,0,1,.432-.038q.254.089.419.6A1.007,1.007,0,0,1,115.07-8.684Zm4.24,10.232a2.023,2.023,0,0,1-.812-.279q-1.777-1.041-4.875-3.047a1.936,1.936,0,0,1-.762-.838,1.517,1.517,0,0,1,.1-1.219q1.295-1.7,2.666-3.4a.6.6,0,0,1,.99.025.947.947,0,0,1,.343.584.8.8,0,0,1-.14.635q-.457.457-.99,1.079a19.076,19.076,0,0,0-1.422,2.019q1.4,1.041,2.4,1.676a15.387,15.387,0,0,0,2.044,1.092,1.6,1.6,0,0,1,.546.381.64.64,0,0,1,.165.609A2.581,2.581,0,0,1,119.311,1.549Zm-11.4-4.037a18.833,18.833,0,0,1-2.311-.66,3.739,3.739,0,0,1-.99-.939.611.611,0,0,1,0-.635.909.909,0,0,1,.635-.3q1.346.609,2.717,1.295a.7.7,0,0,1,.241.622A1,1,0,0,1,107.91-2.488ZM99.15-12.543q-.939.3-1.65.6a10.757,10.757,0,0,0-1.244.6,1.474,1.474,0,0,1-1.066-.051,1.279,1.279,0,0,1-.533-.838,1.111,1.111,0,0,1,.609-.508,13.782,13.782,0,0,1,2.184-.9q1.219-.394,1.828-.6,0-.711-.038-1.485t-.114-2.45q.025-.381.229-.406a2.37,2.37,0,0,1,.635.051.919.919,0,0,1,.66.47,1.354,1.354,0,0,1,.178.851q.025,1.295.025,2.564,1.041-.254,1.879-.432a1.616,1.616,0,0,1,1.016.229.81.81,0,0,1,.355.736.931.931,0,0,1-.559.406q-1.27.279-1.587.368t-1.079.317q-.076.762-.2,2.158t-.152,2.92a2.7,2.7,0,0,0,1.333.8,5.188,5.188,0,0,0,1.46.343,2.608,2.608,0,0,1,.635.076l.229.1a.771.771,0,0,1,.3.762,2.34,2.34,0,0,1-1.193.406,5.659,5.659,0,0,1-1.4-.076l-.076-.025a7.328,7.328,0,0,1-1.422-.432q-.051.355-.152,1.4-.076.889-.178,2.285a33.916,33.916,0,0,0-.14,3.656,6.3,6.3,0,0,1,.013,1.193,1.334,1.334,0,0,1-.533.736q-.584.229-.965-.457A2.89,2.89,0,0,1,98.313,1.8q.076-2.107.254-4.57.025-.457.076-.889.127-1.93.3-3.479a13,13,0,0,0-1.384,1.968Q96.814-3.91,96-2.514a.505.505,0,0,1-.355.368.88.88,0,0,1-.571-.076.81.81,0,0,1-.444-.47,12.3,12.3,0,0,1,.863-1.942q.635-1.206,1.676-2.907t1.219-1.93a1.184,1.184,0,0,1,.635-.355A10.732,10.732,0,0,0,99.15-12.543ZM127.74-1.422a4.059,4.059,0,0,1-.8.939q-.47.406-.927.762a2.031,2.031,0,0,1-.787.368,1.311,1.311,0,0,1-.851-.216,1.524,1.524,0,0,1-.7-.863,6.919,6.919,0,0,1-.533-2.653,27.536,27.536,0,0,1,.19-4.139,44.215,44.215,0,0,1,.8-4.812,11.167,11.167,0,0,0,.254-1.295q.076-.482.279-.559a.944.944,0,0,1,.229-.025,1.427,1.427,0,0,1,.33.051,1.3,1.3,0,0,1,.635.343.769.769,0,0,1,.254.635q-.025.368-.025.647-.432,1.676-.787,3.352a26.893,26.893,0,0,0-.5,3.771,20,20,0,0,0-.025,3.174A5.121,5.121,0,0,0,125-.686a8.562,8.562,0,0,1,1.549-1.041,1.065,1.065,0,0,1,.5-.2.635.635,0,0,1,.432.1A.679.679,0,0,1,127.74-1.422Zm5.307-.711a1.433,1.433,0,0,1-1.625-.533,1.485,1.485,0,0,1-.1-.9q.1-.343.736-.368a15.627,15.627,0,0,0,3-.292q1.5-.292,2.945-.673.762-.178.952.279a.92.92,0,0,1,.089.686,1.059,1.059,0,0,1-.584.432,20.738,20.738,0,0,1-2.069.635Q134.8-2.437,133.047-2.133Zm-1.523-6.145a1.955,1.955,0,0,1-.482-.3A2.612,2.612,0,0,1,130.66-9a.919.919,0,0,1-.19-.508,2.024,2.024,0,0,1,.114-.673q2.438-.457,4.824-.99.66-.076,1.1-.1a1.412,1.412,0,0,1,.813.19,1.549,1.549,0,0,1,.546,1.054,1.2,1.2,0,0,1-.686.343,6.669,6.669,0,0,1-.711.038,8.232,8.232,0,0,0-1.346.2,16.848,16.848,0,0,0-1.777.457Q132.564-8.734,131.523-8.277Z" transform="translate(0 20.094)" fill="#fb7180"/>
    <path id="Контур_1733" data-name="Контур 1733" d="M9.191-4.85q-1.346.381-2.577.749a23.3,23.3,0,0,0-2.323.825,1.16,1.16,0,0,1-.774.038.8.8,0,0,1-.546-.546,2.149,2.149,0,0,1-.1-.939Q4.418-5.23,5.23-5.51T9.547-6.627q.533-2.564.838-3.961a1.25,1.25,0,0,1,1.13.343,1.146,1.146,0,0,1,.368,1l-.559,2.387q2.006-.355,4.545-.686.076-.711.178-1.295,0-.229.025-.571a.566.566,0,0,1,.406-.5.686.686,0,0,1,.609.1,1.53,1.53,0,0,1,.482.432,1.589,1.589,0,0,1,.2.9q-.051.394-.127.724.965-.1,2.26-.152t1.955-.051a1.4,1.4,0,0,1,.635.152.878.878,0,0,1,.5.521,1.142,1.142,0,0,1,.038.647.679.679,0,0,1-.508.457,1.1,1.1,0,0,1-.584-.051,9.557,9.557,0,0,0-2.514-.089q-1.447.114-2.057.165a22.353,22.353,0,0,1-.774,2.564A30.224,30.224,0,0,1,15.107-.229q.432.076.825.127a2.8,2.8,0,0,0,.9-.051.659.659,0,0,1,.939.533.819.819,0,0,1-.711,1.041,4.113,4.113,0,0,1-1.511.025q-.774-.127-1.231-.178a7.463,7.463,0,0,1-.889,1.308,10.157,10.157,0,0,1-1.193,1.257q-.254-.127-.635-.279a.473.473,0,0,1-.33-.546,1.264,1.264,0,0,1,.2-.6q.609-.736,1.193-1.6-.279-.1-.876-.33A8.235,8.235,0,0,1,10.309-.33a2.912,2.912,0,0,1-1.181-1.5A3.457,3.457,0,0,1,8.938-3.4Q9.039-4.088,9.191-4.85Zm6.322-.99a34.221,34.221,0,0,0-4.469.635q-.33,1.092-.457,1.714a2.256,2.256,0,0,0,0,1.066,1.6,1.6,0,0,0,.457.749A5.148,5.148,0,0,0,13.406-.609a21.375,21.375,0,0,0,1.282-2.729A25.2,25.2,0,0,0,15.514-5.84Zm-2.006-8.912q.813-.051,2.095-.178t3.161-.254a9.951,9.951,0,0,1,3.275.254,2.432,2.432,0,0,1,1.752,1.016,1.29,1.29,0,0,1,.025,1.447q-.736.889-1.485,1.752a7.471,7.471,0,0,1-1.739,1.473,1.619,1.619,0,0,1-1.4.076q.254-.457.6-1.016a12,12,0,0,1,1.054-1.4,10.619,10.619,0,0,0,1.168-1.65,1.9,1.9,0,0,0-.559-.317,7.065,7.065,0,0,0-1.777-.178,29.748,29.748,0,0,0-4.151.3,36.838,36.838,0,0,0-5.027.965,10.446,10.446,0,0,0-3.364,1.409q-.66.406-.9.229t-.7-.584q.152,1.016.33,2.019A7.736,7.736,0,0,0,6.5-7.414a5.725,5.725,0,0,1-.8.076.979.979,0,0,1-.584-.216A1.076,1.076,0,0,1,4.723-8.2a19.816,19.816,0,0,1-.6-2.831,26.779,26.779,0,0,1-.241-3.339,5.319,5.319,0,0,1,.127-1.066,2.961,2.961,0,0,1,.889.178.876.876,0,0,1,.546.533,2.134,2.134,0,0,1,.14.736q-.025.939,0,1.574A13.461,13.461,0,0,1,8.811-13.66q1.8-.457,3.352-.863-.1-1.727-.241-2.806t-.14-1.282q.1-.584.533-.584a.959.959,0,0,1,.3.051,1.49,1.49,0,0,1,.889,1.447,10.6,10.6,0,0,1,.038,1.815A6.962,6.962,0,0,0,13.508-14.752Zm34.15,6.881a.589.589,0,0,1,.622.622,2.686,2.686,0,0,1-.1,1.016q-.14.419-.521,1.257l-1.574,3.4a1.762,1.762,0,0,1-.559.952,1.261,1.261,0,0,1-.863.33,2,2,0,0,1-.889-.241,5.143,5.143,0,0,1-1.841-.99A7.555,7.555,0,0,1,40.6-3a38.53,38.53,0,0,1-2.539-4.9q-.33-.813-.635-1.625a1.2,1.2,0,0,1-.1-.533q0-.33.406-.432a1.056,1.056,0,0,1,.787.051,1.425,1.425,0,0,1,1.016,1.244,3.425,3.425,0,0,1,.076.406,10.328,10.328,0,0,0,1.066,2.717q.813,1.422,1.8,2.818.432.482.7.749a.944.944,0,0,0,.7.267,1.272,1.272,0,0,0,.584-.47q.279-.368.482-.673,1.041-1.8,1.765-3T47.658-7.871ZM32.678-11.02a2.929,2.929,0,0,1,.787.3,1.057,1.057,0,0,1,.686.394.708.708,0,0,1,.127.6,5.884,5.884,0,0,1-.178.584,25.516,25.516,0,0,0-1.955,4.672q-.381,1.244-.635,2.514a2.653,2.653,0,0,0,.127,1.879,1.178,1.178,0,0,1,0,.838,1.321,1.321,0,0,1-.965.076,1.458,1.458,0,0,1-.99-1.6A14.512,14.512,0,0,1,29.936-3.2a2.005,2.005,0,0,0,.076-.3q.736-2.387,1.295-4.05t.889-2.577A3.619,3.619,0,0,1,32.678-11.02ZM46.82-17.062h.254a2.967,2.967,0,0,1,.889.127,1.315,1.315,0,0,1,.736.838,9.953,9.953,0,0,0,.939,1.549q.2.279.432.559a1.912,1.912,0,0,1,.14.533.547.547,0,0,1-.127.381.494.494,0,0,1-.317.2.845.845,0,0,1-.355-.025,2.8,2.8,0,0,1-1.066-.711l-.1-.152q-.635-.813-1.219-1.625A4.1,4.1,0,0,1,46.6-16.2.81.81,0,0,1,46.82-17.062Zm-.965,5.535a1.216,1.216,0,0,1-1.549.051l-.051-.051a17.328,17.328,0,0,1-1.523-2.412,1.116,1.116,0,0,1,.051-.863,2.466,2.466,0,0,1,.521-.076,2.69,2.69,0,0,1,.635.127q.444.127.851,1.016.33.813.609,1.346l.127.2ZM61.318-.127A3.641,3.641,0,0,1,59.49.3a2.39,2.39,0,0,1-1.65-.686,4.959,4.959,0,0,1-1.117-1.7,9.267,9.267,0,0,1-.444-2.958,34.112,34.112,0,0,1,.114-3.631q.152-1.765.406-3.948a1.167,1.167,0,0,1,.152-.762.453.453,0,0,1,.33-.1,1.817,1.817,0,0,1,.381.051,1.554,1.554,0,0,1,.838.622.985.985,0,0,1,.152.952,33.686,33.686,0,0,0-.533,4.443,39.117,39.117,0,0,0-.076,4.088,4.062,4.062,0,0,0,.343,1.612q.267.47,1.815.063A17.58,17.58,0,0,0,62.893-3.06q1.244-.8,3.25-2.349a.377.377,0,0,1,.381.165.785.785,0,0,1,.1.508,1.759,1.759,0,0,1-.508.863q-.482.546-1.638,1.65A12.7,12.7,0,0,1,61.318-.127ZM80.006-11.6a3.346,3.346,0,0,0-1.371-.076,16.81,16.81,0,0,0-2.463.66,14.017,14.017,0,0,0-2.387.939q-.66.381-.889.482a1.26,1.26,0,0,1-.812-.1,1.8,1.8,0,0,1-.66-.762.636.636,0,0,1,.013-.521,4.117,4.117,0,0,1,1.346-.673,23.206,23.206,0,0,1,3.148-.927,23.936,23.936,0,0,1,3.669-.571,2.378,2.378,0,0,1,1.308.241,3.16,3.16,0,0,1,.635.686,1.924,1.924,0,0,1,.267,1.257q-.355.406-.686.736T80.057-9.115q-.736.787-1.993,2.234T76.07-4.469a5.266,5.266,0,0,0-.406.686q-.1.229.508.889A5.253,5.253,0,0,0,77.4-1.879a9.631,9.631,0,0,0,1.231.6,7.781,7.781,0,0,1,.965.444.82.82,0,0,1,.127.876.91.91,0,0,1-.736.47,5.627,5.627,0,0,1-1.6-.609,11.435,11.435,0,0,1-2.463-1.777,3.388,3.388,0,0,1-.965-1.384A2.546,2.546,0,0,1,74.42-5.18,25.728,25.728,0,0,1,76.4-7.744q1.168-1.346,2.069-2.285T80.006-11.6ZM98.262-2.488q.609-.2,1.244-.355a1.759,1.759,0,0,1,.508.076.408.408,0,0,1,.3.33.62.62,0,0,1-.508.813,17.243,17.243,0,0,1-1.676.609q0,.66-.025,1.625,2.057-1.219,3.428-1.854a.731.731,0,0,1,0,.787,2.254,2.254,0,0,1-.66.787q-2.184,1.4-4.418,2.742a1.5,1.5,0,0,1-.812.3.852.852,0,0,1-.66-.165.71.71,0,0,1-.292-.559,3.212,3.212,0,0,1,.038-.647q.939-.33,1.8-.686a4.751,4.751,0,0,0,.2-1.727,7.918,7.918,0,0,0-1.6.736A.457.457,0,0,1,94.5.152a1,1,0,0,1-.47-.381.729.729,0,0,1-.089-.584.815.815,0,0,1,.3-.33,3.483,3.483,0,0,1,.8-.292,16.959,16.959,0,0,0,1.765-.647q-.025-.559-.076-1.574-1.32.838-1.93.482a5.16,5.16,0,0,1-.965-1.4q-.2-.457-.432-1.016-.152-.432-.355-.939-.406-1.168-.812-2.793a.545.545,0,0,1,.241-.406q.216-.152,1.079.2a10.354,10.354,0,0,1,1.46-.762q.774-.33,1.536-.66l.025-1.549a7.858,7.858,0,0,0-2.107.673,14.352,14.352,0,0,0-1.625.851.332.332,0,0,1-.5.013q-.241-.216-.406-.394a.91.91,0,0,1-.216-.482.575.575,0,0,1,.114-.5,1.619,1.619,0,0,1,.571-.368,15.5,15.5,0,0,1,1.663-2.895q1.054-1.473,2.5-3.3a.457.457,0,0,1,.355-.178.7.7,0,0,1,.355.127,1.576,1.576,0,0,1,.559.406.949.949,0,0,1,.254.66.7.7,0,0,1-.355.381,5.379,5.379,0,0,0-.939.813,2.819,2.819,0,0,1,1.066.584,3.786,3.786,0,0,1,.279,1.65q1.168-.254,2.387-.432a1.033,1.033,0,0,1,1.092.432.612.612,0,0,1,.254.584q-.051.33-.482.381a9.1,9.1,0,0,0-1.587.127,13.873,13.873,0,0,0-1.688.33q.025.584.025,1.549a6.8,6.8,0,0,0,1.143-.267,6.905,6.905,0,0,1,1.244-.267q1.219-.076,1.117,1.193-.051.279-.076.533-.381,2.285-.609,4.012a2.3,2.3,0,0,1-.444,1.358,1.074,1.074,0,0,1-.851.317,7.372,7.372,0,0,0-.838.254q-.33.127-.584.229A12.63,12.63,0,0,1,98.262-2.488Zm-3.4-3.25a4.2,4.2,0,0,0,.482,1.32,10.331,10.331,0,0,0,1.32-.432l.051-1.828A4.291,4.291,0,0,0,94.859-5.738ZM93.742-13a19.116,19.116,0,0,1,2.768-.939A5.178,5.178,0,0,0,96.256-16a15.629,15.629,0,0,0-1.282,1.358A12.66,12.66,0,0,0,93.742-13ZM94.5-7.059a12.317,12.317,0,0,1,2.133-1.016q0-.533-.025-1.219A6.8,6.8,0,0,0,94.2-8.252,2.361,2.361,0,0,0,94.5-7.059Zm5.383-.66a5.249,5.249,0,0,0-1.016.267q-.33.14-.787.317-.025,1.092-.076,1.752a4.013,4.013,0,0,0,1.473-.584A5.414,5.414,0,0,0,99.887-7.719Zm6.779,8.861A41.207,41.207,0,0,0,107.9-3.123q.521-2.234.787-3.872t.381-2.59a13.3,13.3,0,0,0,.114-1.485q-.812.279-1.219.444A14.062,14.062,0,0,0,106.234-9.6q-.508,2.412-1.8,8.379-.3,1.4-.482,2.641-.1.584-.229,1.092l-.559-.051a.848.848,0,0,1-.5-.216.945.945,0,0,1-.292-.482,1.149,1.149,0,0,1,.013-.609q.089-.317.419-1.828t.635-2.856q.3-1.346.584-2.6a12.335,12.335,0,0,0,.3-2.4q-.559.584-.965,1.066a.77.77,0,0,1-.647-.127q-.165-.178-.368-.406a2.15,2.15,0,0,1-.3-.457.651.651,0,0,1,.025-.584,9.586,9.586,0,0,1,1.193-.838,8.161,8.161,0,0,0,1.244-.914,8.373,8.373,0,0,0,.178-1.27v-.178q.025-.584.1-1.752a4.547,4.547,0,0,1,.229-.889,4.657,4.657,0,0,1,.813.178,1.107,1.107,0,0,1,.635.508,1.388,1.388,0,0,1,.2.813v.178q-.025.66-.076,1.346a11.337,11.337,0,0,0,1.9-.838,2.241,2.241,0,0,1,1.523-.229,1.45,1.45,0,0,1,1.066,1.447Q110.779-9.344,110-5.6t-1.219,5.23a23.717,23.717,0,0,1-.978,2.7.883.883,0,0,1-.787.787,1.192,1.192,0,0,1-1.219-.584,3.459,3.459,0,0,1-.838-1.473A3.117,3.117,0,0,0,106.666,1.143ZM90.645,3.5a1.1,1.1,0,0,1-1.016.2.906.906,0,0,1-.686-.736,4.333,4.333,0,0,1-.1-1.473q-.025-2.133.178-4.52v-.152q.2-2.488.368-4.888A28.278,28.278,0,0,0,89.5-11.1a34.067,34.067,0,0,0-1.46,3.136,12.493,12.493,0,0,0-.749,2.5.5.5,0,0,1-.686.406.874.874,0,0,1-.838-.787,2.21,2.21,0,0,1,.2-.812l1.244-3.021q.812-1.955,2.006-4.215T91.3-17.621a3.838,3.838,0,0,1,.178-.394q.076-.14.406-.165a1.109,1.109,0,0,1,1.066.686.989.989,0,0,1-.1.66q-1.143,1.7-2.463,3.91a1.722,1.722,0,0,1,.762,1.879l-.559,6.221-.051.914q-.178,2.26-.2,3.885a14.364,14.364,0,0,0,.2,2.844A2.492,2.492,0,0,1,90.645,3.5Zm9.318-12.7.051-.178a3.721,3.721,0,0,0,.051-1.092,5.119,5.119,0,0,0-1.117.178,2.578,2.578,0,0,0-.863.381q-.076.736-.127,1.295.711-.178,1.4-.381ZM120.707-1.98a3.59,3.59,0,0,1-1.041.876,2.463,2.463,0,0,1-1.32.317,2.7,2.7,0,0,1-1.32-.394,3.045,3.045,0,0,1-.99-.952,10.986,10.986,0,0,1-1.092-2.272,19.274,19.274,0,0,1-.673-2.526q-.267-1.346-.419-2.793.025-.559.229-.622a1.223,1.223,0,0,1,.559,0,1.618,1.618,0,0,1,.647.267,1.053,1.053,0,0,1,.406.546,2.84,2.84,0,0,1,.14.7,10.627,10.627,0,0,0,.267,2.577,13.5,13.5,0,0,0,.609,2.057,9.42,9.42,0,0,0,.851,1.587.648.648,0,0,0,.914.229A8.933,8.933,0,0,0,119.59-3.3q.686-.635,1.333-1.333t1.231-1.282a.769.769,0,0,1,.546.241.941.941,0,0,1,.025.711,2.869,2.869,0,0,1-.394.952Q122.053-3.58,120.707-1.98Zm8.76-2.666a.519.519,0,0,1-.5.394.855.855,0,0,1-.571-.089,2.943,2.943,0,0,1-.584-1.117q-.381-1.9-.6-3.415l-.292-2.044a.654.654,0,0,1,.051-.432.343.343,0,0,1,.33-.2,1.15,1.15,0,0,1,.406.076,2.249,2.249,0,0,1,.609.292.95.95,0,0,1,.381.508,2.112,2.112,0,0,1,.1.647q.229,2.514.394,3.707T129.467-4.646ZM142.822-11.6a3.346,3.346,0,0,0-1.371-.076,16.81,16.81,0,0,0-2.463.66,14.017,14.017,0,0,0-2.387.939q-.66.381-.889.482a1.26,1.26,0,0,1-.812-.1,1.8,1.8,0,0,1-.66-.762.636.636,0,0,1,.013-.521,4.117,4.117,0,0,1,1.346-.673,23.206,23.206,0,0,1,3.148-.927,23.936,23.936,0,0,1,3.669-.571,2.378,2.378,0,0,1,1.308.241,3.16,3.16,0,0,1,.635.686,1.923,1.923,0,0,1,.267,1.257q-.355.406-.686.736t-1.066,1.117q-.736.787-1.993,2.234t-1.993,2.412a5.265,5.265,0,0,0-.406.686q-.1.229.508.889a5.253,5.253,0,0,0,1.231,1.016,9.631,9.631,0,0,0,1.231.6,7.781,7.781,0,0,1,.965.444.82.82,0,0,1,.127.876.91.91,0,0,1-.736.47,5.627,5.627,0,0,1-1.6-.609,11.435,11.435,0,0,1-2.463-1.777,3.388,3.388,0,0,1-.965-1.384,2.546,2.546,0,0,1,.457-1.917,25.73,25.73,0,0,1,1.98-2.564q1.168-1.346,2.069-2.285T142.822-11.6Zm14.7,9.623a3.59,3.59,0,0,1-1.041.876,2.463,2.463,0,0,1-1.32.317,2.7,2.7,0,0,1-1.32-.394,3.045,3.045,0,0,1-.99-.952,10.985,10.985,0,0,1-1.092-2.272,19.275,19.275,0,0,1-.673-2.526q-.267-1.346-.419-2.793.025-.559.229-.622a1.223,1.223,0,0,1,.559,0,1.618,1.618,0,0,1,.647.267,1.053,1.053,0,0,1,.406.546,2.839,2.839,0,0,1,.14.7,10.628,10.628,0,0,0,.267,2.577,13.494,13.494,0,0,0,.609,2.057,9.42,9.42,0,0,0,.851,1.587.648.648,0,0,0,.914.229,8.932,8.932,0,0,0,1.117-.914q.686-.635,1.333-1.333t1.231-1.282a.769.769,0,0,1,.546.241.941.941,0,0,1,.025.711,2.869,2.869,0,0,1-.394.952Q158.869-3.58,157.523-1.98Zm8.76-2.666a.519.519,0,0,1-.5.394.855.855,0,0,1-.571-.089,2.943,2.943,0,0,1-.584-1.117q-.381-1.9-.6-3.415l-.292-2.044a.654.654,0,0,1,.051-.432.343.343,0,0,1,.33-.2,1.15,1.15,0,0,1,.406.076,2.249,2.249,0,0,1,.609.292.95.95,0,0,1,.381.508,2.112,2.112,0,0,1,.1.647q.229,2.514.394,3.707T166.283-4.646Zm7.262-7.008a2.839,2.839,0,0,1-1.092-.051,2.269,2.269,0,0,1-.7-.432,1.071,1.071,0,0,1-.254-.559q-.063-.355.546-.533.584-.051,1.143-.076a5.259,5.259,0,0,0,1.295-.254q.355-1.371.432-1.7.229-.457.559-.457a.727.727,0,0,1,.381.127,2.152,2.152,0,0,1,.762,1.371q.99-.3,1.777-.609.609-.254.838-.076a1.833,1.833,0,0,1,.444.571.91.91,0,0,1,.152.635q-.063.241-.724.546-1.168.432-1.815.622t-1.714.521q-.482,1.066-.889,2.133a23.768,23.768,0,0,0-.876,3.313,17.083,17.083,0,0,0-.432,3.809,6.673,6.673,0,0,0,.647,2.806q.152.736-.063.863a1.33,1.33,0,0,1-.508.165,1.31,1.31,0,0,1-.647-.1.969.969,0,0,1-.533-.6,12.5,12.5,0,0,1-.406-3.44,20.389,20.389,0,0,1,.444-3.859q.419-2.019.774-3.174T173.545-11.654ZM185.2-8.912a.591.591,0,0,1-.711.432,8.206,8.206,0,0,0-3.4.787,1.749,1.749,0,0,1-1.028-.1.883.883,0,0,1-.546-.736.909.909,0,0,1,.432-.66q1.879-.609,3.783-1.041a1.2,1.2,0,0,1,1.168.368A.94.94,0,0,1,185.2-8.912ZM180.781-4.6a2.767,2.767,0,0,1,.813.508q1.346.838,2.184,1.409t1.168.825q.508.533.3.939a.881.881,0,0,1-.432.482,1.98,1.98,0,0,1-.914-.1q-.432-.355-1.206-.914T180.6-2.768a1.355,1.355,0,0,1-.66-1.117Q179.969-4.7,180.781-4.6Zm13.838-7.109a3.684,3.684,0,0,1-1.638-.368q-.546-.317-.521-.724a1.094,1.094,0,0,1,.559-.609,8.407,8.407,0,0,1,1.447-.279l.914-.152.711-1.473a1,1,0,0,1,.571-.609.587.587,0,0,1,.673.229,2.907,2.907,0,0,1,.432,1.447,4.687,4.687,0,0,1,1.4-.2,2.8,2.8,0,0,1,.774-.19.78.78,0,0,1,.686.292.865.865,0,0,1,.267.635q-.025.3-.559.584l-.838.3q-.279.1-2.793.584a30.41,30.41,0,0,0-1.473,4.52q-.508,2.158-.774,4.05a14.414,14.414,0,0,0-.216,2.526A2.054,2.054,0,0,0,194.873.1q.229.457.076.609a1.276,1.276,0,0,1-.457.267,1.144,1.144,0,0,1-.787-.063A4.931,4.931,0,0,1,193.2.368a1.819,1.819,0,0,1-.394-.8,9.425,9.425,0,0,1-.14-1.219,24.366,24.366,0,0,1,.571-4.1Q193.857-9.064,194.619-11.705ZM201.8-2.031a1.743,1.743,0,0,1-.787-.812.782.782,0,0,1,.051-.787.893.893,0,0,1,.584-.33,2.337,2.337,0,0,1,.927.406,3.6,3.6,0,0,0,1.168.508,9.27,9.27,0,0,0,1.536.279,2.218,2.218,0,0,1,.6.089,1.421,1.421,0,0,1,.5.229.563.563,0,0,1,.178.47.935.935,0,0,1-.457.8,1.359,1.359,0,0,1-.99.165,14.7,14.7,0,0,1-1.7-.394A10.585,10.585,0,0,1,201.8-2.031Zm-.914-5.738q-.2-.406,0-.635a1.19,1.19,0,0,1,.635-.33q1.6-.3,3.174-.533a1.64,1.64,0,0,1,.99.254,2,2,0,0,1,.635.609.615.615,0,0,1-.508.762,10.767,10.767,0,0,1-1.333.292q-.724.114-2.044.241a1.041,1.041,0,0,1-.559,0,1.473,1.473,0,0,1-.482-.254Q201.17-7.541,200.891-7.77Zm8.049-8.4q.076-.381.406-.381a.746.746,0,0,1,.178.025,2.477,2.477,0,0,1,.749.279.788.788,0,0,1,.368.533,1.337,1.337,0,0,1,0,.635,8.094,8.094,0,0,0,.013,1.892,7.735,7.735,0,0,1,.114,1.13,1.1,1.1,0,0,1-1.092-.076q-.533-.33-.584-1.549Q209.041-15.057,208.939-16.174Zm-1.27,3.859q.051.711-.3.787a.977.977,0,0,1-.66-.076,4.6,4.6,0,0,1-1.155-.952,4.523,4.523,0,0,1-.762-1.27,8.577,8.577,0,0,1-.419-1.282.711.711,0,0,1,.3-.343q.2-.114.736.089a1.148,1.148,0,0,1,.711.787,13.881,13.881,0,0,0,.7,1.206A4.905,4.905,0,0,0,207.67-12.314Zm19.018-.609a6.918,6.918,0,0,0-.025-1.333q-.076-.622-.178-1.435a.771.771,0,0,1,.025-.533.589.589,0,0,1,.457-.229h.1a.731.731,0,0,1,.533.229,5.513,5.513,0,0,1,.432.521,2.137,2.137,0,0,1,.254.8q.1.711.229,1.676,1.625-.152,2.463-.2.838-.076,1.016.114a1.148,1.148,0,0,1,.241.355,1.336,1.336,0,0,1,.076.406,1.322,1.322,0,0,1-.089.521q-1.371.127-2.019.216t-1.765.267q-.254,1.523-.711,3.517T226.84-4.3q-.432,1.739-.914,3.161T225.253.774a8.678,8.678,0,0,0-.343,1.155.564.564,0,0,1-.482.2,1.06,1.06,0,0,1-.609-.19.972.972,0,0,1-.355-.7,3.523,3.523,0,0,1,.254-1.32,45.213,45.213,0,0,0,1.562-4.748q.673-2.488.952-3.961t.355-2.387a14.5,14.5,0,0,0-1.892.457,9.024,9.024,0,0,0-1.358.559,1.133,1.133,0,0,1-.457.229q-.33.1-.673-.3a3.2,3.2,0,0,1-.47-.686.463.463,0,0,1,.2-.584,5.236,5.236,0,0,1,1.079-.508,14,14,0,0,1,1.841-.521Q225.951-12.771,226.688-12.924Zm-8.4,10.664a4.53,4.53,0,0,1-1.752-2.031,10.855,10.855,0,0,1-.774-3.072q-.216-1.8-.279-2.78t-.038-2.12q.127-.381.3-.444a.81.81,0,0,1,.521.063A2.7,2.7,0,0,1,217-12.2q.394.317.381.533t-.013.47a18.311,18.311,0,0,0,0,3.047,21.366,21.366,0,0,0,.368,2.628,6.416,6.416,0,0,0,.432,1.473.878.878,0,0,0,.635.432,4.119,4.119,0,0,0,.8.089.91.91,0,0,1,.013.876.858.858,0,0,1-.584.381A2.466,2.466,0,0,1,218.283-2.26Zm25.01-5.967a6.115,6.115,0,0,1,1.968.076,5.286,5.286,0,0,1,2.374,1.193,3.613,3.613,0,0,1,1.117,2.92,6.132,6.132,0,0,1-.355,1.93,1.856,1.856,0,0,1,.33.3.614.614,0,0,1,.025.66.836.836,0,0,1-.686.521,2.361,2.361,0,0,1-.686-.063q-.66.508-1.168.863a7.4,7.4,0,0,1-2.006.851,3.8,3.8,0,0,1-2.463-.14,1.48,1.48,0,0,1-.762-2.082A2.023,2.023,0,0,1,242-2.247a5.712,5.712,0,0,1,1.536-.482,7.813,7.813,0,0,1,1.663-.1,4.744,4.744,0,0,1,1.447.267,3.513,3.513,0,0,0,.622-1.79,2.034,2.034,0,0,0-.533-1.523,2.6,2.6,0,0,0-1.409-.8,4.91,4.91,0,0,0-2.755.127,4.481,4.481,0,0,0-1.841,1.016,1.6,1.6,0,0,1-.609.279.585.585,0,0,1-.47-.089,2.953,2.953,0,0,1-.343-.292,1.052,1.052,0,0,1-.241-.419,1.486,1.486,0,0,1-.089-.457.437.437,0,0,1,.19-.343q.19-.152.368-.279a1.617,1.617,0,0,0,.3-.279,13.813,13.813,0,0,0,3.174-3.2q.914-1.27,1.4-2.031a3.277,3.277,0,0,0,.508-1.016q-.127-.2-.99-.038a6.741,6.741,0,0,0-1.8.647,1.517,1.517,0,0,1-.432.14.577.577,0,0,1-.457-.14,3.319,3.319,0,0,1-.457-.6.8.8,0,0,1-.152-.635.605.605,0,0,1,.381-.394,8.57,8.57,0,0,1,3.4-.863,2.374,2.374,0,0,1,1.206.33,1.612,1.612,0,0,1,.762.978,2.666,2.666,0,0,1-.013,1.435,7.663,7.663,0,0,1-1,1.879q-.749,1.092-1.231,1.7T243.293-8.227ZM242.506-.3a3.422,3.422,0,0,0,1.536-.216,6.32,6.32,0,0,0,1.612-.9,3.567,3.567,0,0,0-1.777-.127,3.184,3.184,0,0,0-.978.47A.918.918,0,0,0,242.506-.3Z" transform="translate(0 52.089)" fill="#fb7180"/>
    <path id="Контур_1732" data-name="Контур 1732" d="M22.014-9.42q-.1,1.7-.394,4.151T21.087-.851q-.241,1.968-.3,2.653A8.025,8.025,0,0,1,20.592,3q0,.533-.635.508a.618.618,0,0,1-.635-.609q.051-1.752.267-3.745t.419-3.986q.2-1.993.33-4.177-1.625.635-2.107.813T17.2-7.808a2.521,2.521,0,0,1-1.333.089,22.063,22.063,0,0,0-.292,2.488A25.131,25.131,0,0,0,15.5-2.59a8.35,8.35,0,0,0,.216,1.752.477.477,0,0,1-.152.432.437.437,0,0,1-.432.178,1.487,1.487,0,0,1-.965-.635,4.243,4.243,0,0,1-.2-1.219,31.249,31.249,0,0,1,.1-3.2q.152-2.361.229-3.352.025-.254.076-.584.076-.838.178-2.006a4.361,4.361,0,0,1,.635-2.184q2.082-2.057,2.793-2.742a10.942,10.942,0,0,1,1.066-.939,1.142,1.142,0,0,1,.965-.076.766.766,0,0,1,.508.762.745.745,0,0,1-.355.736,31.593,31.593,0,0,0-3.605,3.021A3.569,3.569,0,0,0,16.1-11.02q0,.457-.025.838-.051.584-.1.889,1.7-.508,3.923-1.143t3.974-1.117a.626.626,0,0,1,.724.2,1.219,1.219,0,0,1,.368.787q-.025.355-.267.432a2.686,2.686,0,0,1-.419.1Q23.385-9.826,22.014-9.42Zm-11.984-.99q.381-.076.99-.178a1.665,1.665,0,0,1,1.422.254q.381.457.229.762a.649.649,0,0,1-.762.381,4.981,4.981,0,0,0-1.295.152q-.508.127-1.27.355.279.279.254.482-.025.254,0,1.523.406-.127.736-.2a9.7,9.7,0,0,1,1.32-.3,1.078,1.078,0,0,1,.749.241.741.741,0,0,1,.317.66q-.025.394-.508.5-.508.127-1.206.254a8.888,8.888,0,0,0-1.562.457q-.076.838-.127,1.32a6.672,6.672,0,0,0-.025,1.016,6.4,6.4,0,0,0,1.815.851q.774.19,1.714.368a.664.664,0,0,1,.114.673.841.841,0,0,1-.647.394,3.577,3.577,0,0,1-1.231-.076,10.17,10.17,0,0,1-1.993-.711Q8.887.076,8.811,1.485A7.635,7.635,0,0,1,8.48,3.58a.869.869,0,0,1-.838.025.82.82,0,0,1-.482-.559,1.447,1.447,0,0,1,0-.66Q7.338.863,7.541-1.32A4.583,4.583,0,0,0,6.6-.381q-.66.787-.952,1.1t-.571.6a.943.943,0,0,1-1.066,0A.715.715,0,0,1,3.885.406Q4.063.152,5.573-1.65t2.12-2.412l.051-.381a17.127,17.127,0,0,0-1.562.749A18.7,18.7,0,0,0,4.139-2.361q-.254.2-.812-.076a1.433,1.433,0,0,1-.3-.229,1.122,1.122,0,0,1-.355-.584,3.545,3.545,0,0,1,1.257-.99Q5-4.875,5.941-5.319T7.871-6.2l.1-2.057q-1.371.457-2.336.838a13.51,13.51,0,0,0-2.057.99.578.578,0,0,1-.355.279,1.939,1.939,0,0,1-.647-.1A1.3,1.3,0,0,1,1.9-6.614a.78.78,0,0,1-.1-.7A10.805,10.805,0,0,1,3.288-8.15,20.628,20.628,0,0,1,5.764-9.09a3.256,3.256,0,0,1-.876-1.828q-.241-1.244-.343-2.057-.355.152-1.143.457a.806.806,0,0,1-.521-.063,1.354,1.354,0,0,1-.457-.546,1,1,0,0,1-.19-.635q.051-.2.711-.432t3.123-.939a18.061,18.061,0,0,0-.1-1.917q-.1-.952-.2-1.536a.621.621,0,0,1,.381-.432.479.479,0,0,1,.152-.025,1.39,1.39,0,0,1,.559.152,1.39,1.39,0,0,1,.635,1.016q.051,1.244.2,2.361,1.27-.355,2.272-.533t1.714-.279a1.02,1.02,0,0,1,1.066.229q.559.279.3,1.016a.713.713,0,0,1-.863.457q-.711-.025-1.244-.025a4.086,4.086,0,0,1,.114.622,2.52,2.52,0,0,1-.279,1.092A18.312,18.312,0,0,0,10.029-10.41ZM6.7-9.471a6.366,6.366,0,0,0,1.549-.482q.559-2.133.787-3.1a3.606,3.606,0,0,0,.152-1.32,17.173,17.173,0,0,0-2.895.762,11.391,11.391,0,0,0-.063,2.146A4.635,4.635,0,0,0,6.7-9.471ZM35.318-.127A3.641,3.641,0,0,1,33.49.3a2.39,2.39,0,0,1-1.65-.686,4.959,4.959,0,0,1-1.117-1.7,9.267,9.267,0,0,1-.444-2.958,34.112,34.112,0,0,1,.114-3.631q.152-1.765.406-3.948a1.167,1.167,0,0,1,.152-.762.453.453,0,0,1,.33-.1,1.817,1.817,0,0,1,.381.051,1.554,1.554,0,0,1,.838.622.985.985,0,0,1,.152.952,33.686,33.686,0,0,0-.533,4.443,39.117,39.117,0,0,0-.076,4.088,4.062,4.062,0,0,0,.343,1.612q.267.47,1.815.063A17.58,17.58,0,0,0,36.893-3.06q1.244-.8,3.25-2.349a.377.377,0,0,1,.381.165.785.785,0,0,1,.1.508,1.759,1.759,0,0,1-.508.863q-.482.546-1.638,1.65A12.7,12.7,0,0,1,35.318-.127ZM51.594-1.98a3.59,3.59,0,0,1-1.041.876,2.463,2.463,0,0,1-1.32.317,2.7,2.7,0,0,1-1.32-.394,3.045,3.045,0,0,1-.99-.952A10.985,10.985,0,0,1,45.83-4.405a19.275,19.275,0,0,1-.673-2.526q-.267-1.346-.419-2.793.025-.559.229-.622a1.223,1.223,0,0,1,.559,0,1.618,1.618,0,0,1,.647.267,1.053,1.053,0,0,1,.406.546,2.84,2.84,0,0,1,.14.7,10.627,10.627,0,0,0,.267,2.577A13.5,13.5,0,0,0,47.595-4.2a9.42,9.42,0,0,0,.851,1.587.648.648,0,0,0,.914.229A8.932,8.932,0,0,0,50.477-3.3q.686-.635,1.333-1.333t1.231-1.282a.769.769,0,0,1,.546.241.941.941,0,0,1,.025.711,2.869,2.869,0,0,1-.394.952Q52.939-3.58,51.594-1.98Zm8.76-2.666a.519.519,0,0,1-.5.394.855.855,0,0,1-.571-.089A2.943,2.943,0,0,1,58.7-5.459q-.381-1.9-.6-3.415l-.292-2.044a.654.654,0,0,1,.051-.432.343.343,0,0,1,.33-.2,1.15,1.15,0,0,1,.406.076,2.249,2.249,0,0,1,.609.292.95.95,0,0,1,.381.508,2.112,2.112,0,0,1,.1.647q.229,2.514.394,3.707T60.354-4.646ZM80.666-16.021a5.472,5.472,0,0,1,1.32-.711,1.289,1.289,0,0,1,.355-.051,2.3,2.3,0,0,1,1.371.609,12.763,12.763,0,0,1,.927,1.409,4.206,4.206,0,0,1,.241,2.146,2.477,2.477,0,0,1-.736,1.5q-.457.533-.927,1.092a6.144,6.144,0,0,1-1.054.99,2.876,2.876,0,0,1-1.282.559,2.039,2.039,0,0,1-1.371-.229,1.905,1.905,0,0,1-.9-1.066,4.787,4.787,0,0,1-.508-2.336,5.3,5.3,0,0,1,.609-2.26,13.745,13.745,0,0,0,.457-1.422q.229-.533.609-.584A1.236,1.236,0,0,1,80.666-16.021Zm-.914,3.986a4.714,4.714,0,0,0,.051,1.143q.1.762.787.66a5.5,5.5,0,0,0,1.079-.521A4.5,4.5,0,0,0,83.1-12.314a2.118,2.118,0,0,0,.3-2.133q-.3-.584-.622-.673a1.47,1.47,0,0,0-.927.19q-.559.457-1.092.914A2.245,2.245,0,0,0,79.752-12.035ZM69.367.076a.666.666,0,0,1-.774.013.876.876,0,0,1-.368-.559,1.007,1.007,0,0,1,.127-.647q1.193-1.7,2.349-3.174T72.947-7.1A18.435,18.435,0,0,0,74.56-9.318a7.01,7.01,0,0,0,.7-1.5,10.648,10.648,0,0,0-1.98-.089,13.753,13.753,0,0,0-2.793.432,17.575,17.575,0,0,0-2.895.965,13.547,13.547,0,0,0-2.514,1.46,1.059,1.059,0,0,1-.749-.241,1.509,1.509,0,0,1-.533-.546.875.875,0,0,1-.013-.609,8.728,8.728,0,0,1,2.679-1.511,28.524,28.524,0,0,1,3.4-1.016,24.313,24.313,0,0,1,4.228-.546,3.266,3.266,0,0,1,1.574.19,1.964,1.964,0,0,1,1.143,1.079,1.574,1.574,0,0,1,.127,1.32q-.152.254-.711,1.27a7.561,7.561,0,0,1-1.066,1.549Q74.648-6.576,73.392-5T71.563-2.679q-.571.749-1.041,1.422t-.647.939A1.038,1.038,0,0,1,69.367.076ZM98.109-7.439A3.9,3.9,0,0,0,96.9-7.808a9.439,9.439,0,0,0-2.59.2,13.167,13.167,0,0,0-3.072.851,11.611,11.611,0,0,0-1.612.813,3.712,3.712,0,0,1-.457.216.588.588,0,0,1-.508-.063A2.195,2.195,0,0,1,88-6.855a.575.575,0,0,1,.14-.355,1.283,1.283,0,0,1,.292-.279,18.382,18.382,0,0,1,3.4-1.181,20.556,20.556,0,0,1,4.723-.724,4.59,4.59,0,0,1,1.46.241,2.682,2.682,0,0,1,1.206.8,2.491,2.491,0,0,1,.5.711,1.379,1.379,0,0,1,.127.813,2.164,2.164,0,0,1-.317.813,17.489,17.489,0,0,1-2.057,2.666q-1.32,1.447-2.45,2.59a18.237,18.237,0,0,0-1.688,1.9A4.049,4.049,0,0,1,92.9,1.6q-.152.127-.635-.076a1.5,1.5,0,0,1-.66-.66q-.1-.3.406-.939,2.539-2.666,4.037-4.354T97.83-6.525A1.576,1.576,0,0,0,98.109-7.439Zm.33-6.348q-.279.2-.406.292t-.635-.063a2.189,2.189,0,0,0-1.346-.2q-.914.076-1.879.216t-1.98.33a14.187,14.187,0,0,0-1.98.521,1.208,1.208,0,0,1-.914-.165,1.133,1.133,0,0,1-.533-.774.54.54,0,0,1,.19-.508.849.849,0,0,1,.5-.254q1.219-.33,2.742-.584t2.869-.381q.838-.076,1.523-.076.406,0,.762.025a1.022,1.022,0,0,1,.851.559A2.351,2.351,0,0,1,98.439-13.787Zm18.586,5.738a1.208,1.208,0,0,1,.3.444.564.564,0,0,1,0,.521,2.8,2.8,0,0,0-.229.584q-.736.889-1.562,2.044t-1.854,2.869q-1.028,1.714-1.625,2.666t-1.13,1.688q-.33.482-.6.482a.723.723,0,0,1-.47-.165,1.171,1.171,0,0,1-.33-.571,6.072,6.072,0,0,1,.6-1.244q.343-.533,1.714-2.793t2.26-3.656q.889-1.4,1.676-2.818.178-.381.457-.381h.051A1.465,1.465,0,0,1,117.025-8.049Zm-10.842,1.5a11.679,11.679,0,0,0,.647,2.082,2.142,2.142,0,0,0,.647.9,3.539,3.539,0,0,0,.762.368.83.83,0,0,1,.089.584.357.357,0,0,1-.394.3,1.569,1.569,0,0,1-.876-.051,1.7,1.7,0,0,1-.749-.457A8.191,8.191,0,0,1,104.9-5.611q-.343-1.346-.444-1.9a.464.464,0,0,1,.3-.432,1.106,1.106,0,0,1,.66.063.912.912,0,0,1,.571.559A2.646,2.646,0,0,1,106.184-6.551Zm4.037,3.1a3.622,3.622,0,0,1-.444-1.168q-.165-.736-.292-1.752a.564.564,0,0,1,.229-.5.515.515,0,0,1,.609-.038,1.085,1.085,0,0,1,.66.419.9.9,0,0,1,.178.673q0,.2.025.571a8.85,8.85,0,0,0,.406,1.562q-.1.533-.406.584a1,1,0,0,1-.571-.063A.907.907,0,0,1,110.221-3.453ZM126.9-15.691q-.127,1.168-.343,2.488t-.394,2.628q-.178,1.308-.279,1.942a4.118,4.118,0,0,0,1.041.152q1.473-.025,2.768-.1t2.438-.051q.736.2.774.521a3.207,3.207,0,0,1-.038.825,14.2,14.2,0,0,1-2.387.33l-2.374.165q-.9.063-1.257.114a2.756,2.756,0,0,1-1.117-.2,7.267,7.267,0,0,0-.368,1.917q-.089,1.155-.127,2.564a29.442,29.442,0,0,0,.076,2.958,19.636,19.636,0,0,0,.343,2.615,1.64,1.64,0,0,1-1.346-.1,1.562,1.562,0,0,1-.432-.927q-.1-.622-.19-2.361a42.621,42.621,0,0,1,.2-5.23q.292-3.491.673-5.979t.508-3.326a15.408,15.408,0,0,0,.152-1.93q.051-.482.381-.482a1.541,1.541,0,0,1,.838.444A1.106,1.106,0,0,1,126.9-15.691Zm21.4,4.621a12.805,12.805,0,0,0-1.46-.076,20.787,20.787,0,0,0-2.107.14,24.774,24.774,0,0,0-3.313.647,12.91,12.91,0,0,0-2.59.838q-.508.406-.787.3a1.377,1.377,0,0,1-.584-.533,1.473,1.473,0,0,1-.317-.736.627.627,0,0,1,.14-.47.885.885,0,0,1,.406-.241q1.828-.508,4.494-1.016a35.124,35.124,0,0,1,5.1-.609q.533-.025,1.117-.025a1.563,1.563,0,0,1,.965.3,2.014,2.014,0,0,1,.838.939,1.669,1.669,0,0,1-.025,1.244,13.364,13.364,0,0,1-1.562,2.539q-1.308,1.828-2.971,4T142.848-.1a.994.994,0,0,1-.419.508.638.638,0,0,1-.7-.076,1.109,1.109,0,0,1-.508-.673.938.938,0,0,1,.1-.8q.736-.889,2.285-2.895t3.783-5.078A19.635,19.635,0,0,0,148.307-11.07ZM160.6,2.488q-.051.279-.635.165a.94.94,0,0,1-.736-.444A1.441,1.441,0,0,1,159.1,1.5q.025-1.625.1-2.679t.076-1.511q-1.016.965-1.993,1.828t-2.171,2.107a2.733,2.733,0,0,1-.559.1.688.688,0,0,1-.584-.33.575.575,0,0,1-.025-.736,29.953,29.953,0,0,1,2.514-2.691,36.038,36.038,0,0,1,3-2.717q.076-.559.1-1.092-.787.127-1.9.33t-2.412.482a1.406,1.406,0,0,1-.749-.114,1.133,1.133,0,0,1-.6-.66.646.646,0,0,1,.051-.749q2.793-.432,5.713-.863.076-1.523.1-2.057a.4.4,0,0,1,.406-.279,1.6,1.6,0,0,1,.254.025,1,1,0,0,1,.711.584,3.6,3.6,0,0,1,.254,1.32q1.016-.127,2.057-.355.229-.051.508-.089a.745.745,0,0,1,.546.152,1.172,1.172,0,0,1,.406.584q.14.394.063.521t-.559.254q-1.27.2-1.942.279a3.775,3.775,0,0,0-1.206.33q-.279,2.311-.406,4.659T160.6,2.488Zm19.373-11.3a2.7,2.7,0,0,1,.546.546.466.466,0,0,1,.051.444q-.089.229-.673.406-.787.025-4.837.584t-4.532.584a2.233,2.233,0,0,0-.889.406,1.348,1.348,0,0,1-.635.19.629.629,0,0,1-.533-.229,2.722,2.722,0,0,1-.33-.482,4.192,4.192,0,0,1-.229-.521.843.843,0,0,1,.406-.889,4.11,4.11,0,0,1,.965-.292q.508-.089,3.961-.368t4.545-.381q.939-.076,1.346-.076h.127Q179.639-8.861,179.969-8.811Zm15.793,2.844q-.432-.863-.863-1.752a.667.667,0,0,1,.889-.432,1.334,1.334,0,0,1,1.041.762,35.807,35.807,0,0,0,1.79,3.123A23.133,23.133,0,0,0,200-2.26a2.016,2.016,0,0,1,.609.711.5.5,0,0,1-.165.686.8.8,0,0,1-.851.076,2.369,2.369,0,0,1-.9-.6,9.727,9.727,0,0,1-.724-.876q-.355-.482-1.6-2.539A23.183,23.183,0,0,1,194-2.983q-.7.419-1.866,1.066a12.53,12.53,0,0,1-2.412,1.028q-1.244.381-2.463.635a2.238,2.238,0,0,1-1.079.076,2.63,2.63,0,0,1-1.1-.914,1.538,1.538,0,0,1-.178-1.5,58.774,58.774,0,0,1,3.1-5.662q2.184-3.631,2.806-4.494a9.226,9.226,0,0,0,.9-1.473,2.344,2.344,0,0,1,.33-.025,1.373,1.373,0,0,1,.559.1,1.546,1.546,0,0,1,.546.622,1.129,1.129,0,0,1-.013,1.028q-.863,1.244-1.688,2.387t-2.184,3.187a31.52,31.52,0,0,0-1.9,3.148,7.957,7.957,0,0,0-.647,1.587.9.9,0,0,0,.686.178,12.654,12.654,0,0,0,1.422-.343,19.014,19.014,0,0,0,2.768-1.1,20.705,20.705,0,0,0,2.856-1.587Q195.559-5.814,195.762-5.967Zm18.1-4.773a1.362,1.362,0,0,0-.838-.1q-.482.076-2.031.482a20.5,20.5,0,0,0-2.209.673,9.219,9.219,0,0,0-.978.444,1.675,1.675,0,0,1-.724.2,1.258,1.258,0,0,1-.838-.47,1.561,1.561,0,0,1-.5-.787.518.518,0,0,1,.292-.521,34.244,34.244,0,0,1,3.885-.965,40.043,40.043,0,0,1,4.139-.686,1.232,1.232,0,0,1,1,.3,3.933,3.933,0,0,1,.647.825,1.354,1.354,0,0,1,.076,1.13,19.856,19.856,0,0,1-1.295,1.7,25.641,25.641,0,0,0-1.879,2.666q-1.092,1.727-1.422,2.361a1.066,1.066,0,0,0-.076,1.066,2.577,2.577,0,0,0,1.079.851,5.459,5.459,0,0,0,1,.444,10.818,10.818,0,0,0,1.27-.051.749.749,0,0,1,.394.229.735.735,0,0,1,.19.444,1.115,1.115,0,0,1-.114.571.91.91,0,0,1-.5.457,1.112,1.112,0,0,1-1.041.14A8.769,8.769,0,0,1,212.05.241a6.9,6.9,0,0,1-1.333-.749,4.784,4.784,0,0,1-1.143-1.117,3.137,3.137,0,0,1-.508-1,2.425,2.425,0,0,1,.33-1.257q1.32-2.158,2.564-4T213.865-10.74Zm4.469-1.8q-.229.584-.508.673a.449.449,0,0,1-.508-.19,3.748,3.748,0,0,1-.736-.889q-.406-.889-.736-1.8a.623.623,0,0,1,.1-.787q.482-.381.838-.127a1.611,1.611,0,0,1,.482.482Q217.826-13.711,218.334-12.543Zm1.7-.99a15.383,15.383,0,0,1-.381-1.93.612.612,0,0,1,.229-.736.5.5,0,0,1,.229-.051,1.481,1.481,0,0,1,.762.3,3.044,3.044,0,0,1,.457,1.206,5.478,5.478,0,0,1,.025,1.587.585.585,0,0,1-.444.482.58.58,0,0,1-.571-.152A1.261,1.261,0,0,1,220.035-13.533Zm15.158.2q-.178,1.625-.343,2.641t-.317,1.879a3.566,3.566,0,0,1,.394.851,3.3,3.3,0,0,1,.025,1.193q-.089.8-.241,1.536a19.273,19.273,0,0,1-.533,2.463q-.381,1.371-.6,2.438a17.986,17.986,0,0,1-.647,2.311,1.046,1.046,0,0,1-.254.622.562.562,0,0,1-.584.19,1.284,1.284,0,0,1-.647-.406.916.916,0,0,1-.241-.686q.635-1.879.927-2.92t.851-3.555q-.914,1.549-1.384,1.7a2.133,2.133,0,0,1-1.358-.2,10.024,10.024,0,0,1-1.219-.99,2.1,2.1,0,0,1-.647-1.422,2.87,2.87,0,0,1,.394-1.574A8.054,8.054,0,0,1,229.9-8.8a10.52,10.52,0,0,1,1.231-1.155,2.139,2.139,0,0,1,1.092-.419,2.221,2.221,0,0,1,.914.165,2.886,2.886,0,0,0,.355-1.219,11.746,11.746,0,0,0,.051-1.549q-1.422.254-3.021.66a27.637,27.637,0,0,0-2.856.876q-1.257.47-2.272.825a.817.817,0,0,1-.647.038,1.263,1.263,0,0,1-.571-.381.926.926,0,0,1-.229-.622.764.764,0,0,1,.66-.686q1.523-.533,2.374-.787t2.793-.711q1.942-.457,3.72-.914.076-.99.076-1.727a.523.523,0,0,1,.457-.3.418.418,0,0,1,.127.025,1.036,1.036,0,0,1,.635.559,9.391,9.391,0,0,1,.533,1.092q.965-.076,1.473-.152a6.514,6.514,0,0,1,.965-.076q.279-.025.622-.038a.581.581,0,0,1,.533.267,1.352,1.352,0,0,1,.229.622.714.714,0,0,1-.267.622q-.813.076-1.727.152A14.941,14.941,0,0,0,235.193-13.33Zm-2.514,4.6a4.921,4.921,0,0,0-1.6,1.041,6.639,6.639,0,0,0-1.193,1.549.846.846,0,0,0-.127.863,1.17,1.17,0,0,0,.609.66,1.058,1.058,0,0,0,1.27-.635,22.29,22.29,0,0,0,.787-2.222A5.555,5.555,0,0,0,232.68-8.734Zm19.2,6.6a3.9,3.9,0,0,1-.559,1.447A9.866,9.866,0,0,1,250.174.762,6.556,6.556,0,0,1,249.019,1.8a5.312,5.312,0,0,1-.9.457,2.944,2.944,0,0,1-.851.229,1.727,1.727,0,0,1-.889-.14,2.359,2.359,0,0,1-.749-.5,4.083,4.083,0,0,1-.724-1.13,3.393,3.393,0,0,1-.279-1.282,3.589,3.589,0,0,1,.216-1.295,13.938,13.938,0,0,1,.533-1.4,12.409,12.409,0,0,1,.736-1.4A2.84,2.84,0,0,1,247-5.434a5.879,5.879,0,0,1,.813-.406.728.728,0,0,1,.33-.076,1.6,1.6,0,0,1,.254.025q.3.1.749.216a7.87,7.87,0,0,1,.927.3,1.861,1.861,0,0,1,.787.571,3.79,3.79,0,0,1,.736,1.143A3.882,3.882,0,0,1,251.875-2.133Zm-4.215-1.6a3.548,3.548,0,0,0-1.054,1.308,5.518,5.518,0,0,0-.546,2.247,1.613,1.613,0,0,0,.3,1A.71.71,0,0,0,246.9.99a1.462,1.462,0,0,0,.584-.178,6.138,6.138,0,0,0,1.485-1.168,9.06,9.06,0,0,0,.889-1.13,8.356,8.356,0,0,0,.571-1.054.943.943,0,0,0,.127-.635.878.878,0,0,0-.33-.559,1.049,1.049,0,0,0-1.27-.152,1.562,1.562,0,0,1-.609.33A1.108,1.108,0,0,1,247.66-3.732Z" transform="translate(0 84.084)" fill="#fb7180"/>
  </g>
</svg>
