	<svg xmlns="http://www.w3.org/2000/svg" width="187.298" height="63.467"
							viewBox="0 0 187.298 63.467">
							<path id="Контур_1736" data-name="Контур 1736"
								d="M13.487,14.535a1.86,1.86,0,0,0-.451.479q-.089.171-.164.171a.433.433,0,0,1-.2-.1,10.65,10.65,0,0,1-2.331-2.01,8.641,8.641,0,0,1-1.278-2.112q.055,2.939.055,3.657a1.138,1.138,0,0,1-.362.991,2.854,2.854,0,0,1-1.415.239.548.548,0,0,1-.28-.041.547.547,0,0,1-.089-.239,1.561,1.561,0,0,0-.246-.588,8.256,8.256,0,0,0,.923.055.82.82,0,0,0,.554-.123.62.62,0,0,0,.1-.424V12.888q-1.244.807-2.769,1.62a1.943,1.943,0,0,0-.506.314q-.089.109-.157.109t-.123-.123q-.144-.253-.362-.745A4.57,4.57,0,0,0,5.2,13.77a26.732,26.732,0,0,0,3.11-1.7V10.03h-1.3l-1.935.027q-.1,0-.1-.109V9.4q0-.109.1-.109l1.935.027h1.3V8.062h-.8l-1.764.027q-.109,0-.109-.116V7.46q0-.116.109-.116l1.764.027h.8v-1.2H7.314L5.435,6.2q-.109,0-.109-.1V5.546a.1.1,0,0,1,.109-.109l1.88.027H9.4a12.2,12.2,0,0,0,.752-1.429,2.654,2.654,0,0,0,.185-.588,5.368,5.368,0,0,1,.725.212q.171.048.171.15,0,.075-.137.185a.677.677,0,0,0-.2.267,12.632,12.632,0,0,1-.7,1.2h.465L12.5,5.437q.13,0,.13.109V6.1q0,.1-.13.1l-1.846-.027H9.092v1.2h1.176l1.75-.027q.109,0,.109.116v.513q0,.116-.109.116l-1.75-.027H9.092V9.319h1.941l1.935-.027a.1.1,0,0,1,.109.109v.547a.1.1,0,0,1-.109.109l-1.935-.027h-1.8a9.615,9.615,0,0,0,1.189,2.03,11.044,11.044,0,0,0,1.121-1.053,1.977,1.977,0,0,0,.335-.485,4.885,4.885,0,0,1,.574.444.258.258,0,0,1,.116.185q0,.109-.137.15A1.1,1.1,0,0,0,12,11.6a13.718,13.718,0,0,1-1.135,1A10.167,10.167,0,0,0,13.487,14.535ZM4.942,6.92q0,.116-.109.116L3.575,7.009H3.486a9.323,9.323,0,0,0,1.442,3.035,1.831,1.831,0,0,0-.349.533q-.068.15-.123.15t-.13-.15A12.545,12.545,0,0,1,3.363,7.9q.007,2.755.082,5.79.014.759.041,1.7.014.465.014.506a.085.085,0,0,1-.1.1h-.67q-.116,0-.116-.1s.009-.406.027-1.2q.1-3.541.116-6.6a15.75,15.75,0,0,1-1.641,4.437q-.089.157-.137.157-.075,0-.116-.137a1.211,1.211,0,0,0-.362-.547,15.308,15.308,0,0,0,2.058-5H2.256L.984,7.036A.1.1,0,0,1,.868,6.92V6.373q0-.123.116-.123l1.271.027h.417v-1.2a8.8,8.8,0,0,0-.109-1.668,6.609,6.609,0,0,1,.882.089q.171.021.171.123a.676.676,0,0,1-.082.253,4.858,4.858,0,0,0-.075,1.189V6.277h.116L4.833,6.25q.109,0,.109.123Zm2.146,4.819q.048.048.048.075t-.1.137l-.294.273q-.116.123-.164.123-.027,0-.068-.062A6.8,6.8,0,0,0,5.339,10.98q-.055-.041-.055-.068t.109-.137l.239-.226q.109-.1.15-.1t.068.048A6.8,6.8,0,0,1,7.089,11.739Zm.725-6.918a.168.168,0,0,1,.014.062q0,.048-.1.109l-.41.219a.441.441,0,0,1-.164.075q-.041,0-.075-.089A4.652,4.652,0,0,0,6.3,3.939a.112.112,0,0,1-.041-.068q0-.041.144-.116l.362-.178a.368.368,0,0,1,.123-.041.146.146,0,0,1,.1.068A6.6,6.6,0,0,1,7.813,4.821ZM19.749,8.239a16.479,16.479,0,0,1-3.459,3.753.311.311,0,0,1-.171.1.22.22,0,0,1-.1-.027,2.067,2.067,0,0,0-.725-.321A16.437,16.437,0,0,0,19.865,6.38a5.561,5.561,0,0,0,.7-1.853,4.485,4.485,0,0,1,.991.41.2.2,0,0,1,.1.171.234.234,0,0,1-.1.178,1.768,1.768,0,0,0-.39.52q-.424.807-.937,1.634l3.063-.055a1.471,1.471,0,0,0,.636-.1.23.23,0,0,1,.13-.041.376.376,0,0,1,.191.068,2.17,2.17,0,0,1,.506.438.3.3,0,0,1,.1.205.213.213,0,0,1-.062.144,2.284,2.284,0,0,0-.355.52,15.68,15.68,0,0,1-2.687,3.746,12.614,12.614,0,0,1,1.429,1.6.23.23,0,0,1,.075.13.256.256,0,0,1-.075.137,3.2,3.2,0,0,1-.472.39.3.3,0,0,1-.13.055q-.048,0-.109-.082a13.348,13.348,0,0,0-3.794-3.473l.485-.492a.165.165,0,0,1,.109-.068.336.336,0,0,1,.144.055,14.364,14.364,0,0,1,1.723,1.265,13.766,13.766,0,0,0,2.536-3.726Zm12.8-2.126q.82-.068,2.071-.2l.014.868q-1.142.137-2.3.191a38.417,38.417,0,0,1-2.468,6.487l-.909-.424a29.976,29.976,0,0,0,2.379-6.016q-1.135.062-2.27.041L29.032,6.2q1.176.041,2.522-.027Q31.828,5,32.02,3.8l1.019.123Q32.847,4.869,32.546,6.113Zm3,5.79q-.123-1.5-.144-3.568h.964q0,1.791.157,3.794a9.264,9.264,0,0,1,2.563,1.6l-.52.95a7.662,7.662,0,0,0-2.017-1.524v.232q0,2.229-2.475,2.229a2.629,2.629,0,0,1-1.846-.581,1.665,1.665,0,0,1-.54-1.292,1.7,1.7,0,0,1,.889-1.5,3.244,3.244,0,0,1,1.757-.458A5.891,5.891,0,0,1,35.547,11.9Zm0,.93a4.031,4.031,0,0,0-1.162-.2,2.4,2.4,0,0,0-1.429.349.867.867,0,0,0-.383.731.886.886,0,0,0,.41.772,1.931,1.931,0,0,0,1.107.273,1.305,1.305,0,0,0,1.47-1.483ZM35.6,6.476l.444-.8a14.091,14.091,0,0,1,3.192,1.5l-.513.868A12.767,12.767,0,0,0,35.6,6.476Zm9.468,3.609a27.762,27.762,0,0,0-3.192-2.81l.684-.649a35.426,35.426,0,0,1,2.98,2.522,19.8,19.8,0,0,0,1.49-4.874l1.087.226a22.439,22.439,0,0,1-1.777,5.435,21.946,21.946,0,0,1,2.536,3.158l-.868.718A22.085,22.085,0,0,0,45.821,10.9a12.72,12.72,0,0,1-4.676,4.7l-.7-.7A12,12,0,0,0,45.069,10.085ZM54.94,8.479h-4.3V7.569h8.887v.909H56.014a22.951,22.951,0,0,1-.137,2.57,5.219,5.219,0,0,1-.335,1.333,6.225,6.225,0,0,1-3.35,3.22l-.7-.786a5.2,5.2,0,0,0,3.049-2.823A11.693,11.693,0,0,0,54.94,8.479Zm2.618-5L58.27,3.2a14.252,14.252,0,0,1,1.039,2.365l-.759.308A12.734,12.734,0,0,0,57.559,3.475ZM51.468,4.514h5.988v.923H51.468ZM59.124,3l.7-.253a11.566,11.566,0,0,1,1,2.3l-.731.294A13.487,13.487,0,0,0,59.124,3ZM65.058,9.75a29.849,29.849,0,0,1-3.274,1.962l-.588-.8a17.911,17.911,0,0,0,6.412-4.97l.854.643a15.86,15.86,0,0,1-2.379,2.379v6.61H65.058Zm5.024-5.168h9.112a9.743,9.743,0,0,1-.854,3.1,6.924,6.924,0,0,1-1.688,2.112l-.827-.684A6.076,6.076,0,0,0,77.3,7.344,4.766,4.766,0,0,0,77.9,5.525H70.082Zm.417,10.11a5.493,5.493,0,0,0,2.516-2.105,7.481,7.481,0,0,0,.766-3.705V6.667h1.073V8.909A7.782,7.782,0,0,1,73.732,13.4a6.96,6.96,0,0,1-2.557,2.092Zm17.165-6.85.718-.273a18.274,18.274,0,0,1,1.032,2.365l-.752.308A15.123,15.123,0,0,0,87.664,7.843Zm1.586-.472.7-.253a11.566,11.566,0,0,1,1,2.3l-.731.294A13.488,13.488,0,0,0,89.25,7.371Zm.39-2.632.027.964a5.312,5.312,0,0,0-2.311.629,5.934,5.934,0,0,0-2.071,1.962,4.817,4.817,0,0,0-.813,2.659,2.958,2.958,0,0,0,1.285,2.529,6.17,6.17,0,0,0,2.933,1l-.239,1A6.1,6.1,0,0,1,84.82,14.1a3.89,3.89,0,0,1-1.312-3.049A5.709,5.709,0,0,1,86.5,6.024l.759-.335-.014-.027-.656.109q-1.189.068-5.66.479l-.082-.923Q82.852,5.177,89.64,4.739ZM103.66,15.711q0,.116-.123.116h-.622q-.109,0-.109-.116v-.67H98.848V15.8a.1.1,0,0,1-.109.109h-.622a.1.1,0,0,1-.109-.109l.027-2.536v-1.2l-.027-1.668a.1.1,0,0,1,.109-.109l1.654.027H101.9l1.641-.027q.123,0,.123.109l-.027,1.477v1.354Zm-.854-1.429V11.069H98.848v3.213ZM97.378,10.5a.293.293,0,0,1,.014.075q0,.082-.171.13l-.321.1a.638.638,0,0,1-.144.034q-.055,0-.082-.1-.144-.458-.267-.766l-1.258.123v3.739l.027,2.044q0,.1-.109.1h-.636q-.109,0-.109-.1l.027-2.044V10.181q-.349.034-1.483.1a1.117,1.117,0,0,0-.52.123.294.294,0,0,1-.164.055q-.1,0-.144-.178L91.9,9.511q.376.034.656.034.144,0,.253-.007h.178q.383-.472,1.053-1.456a22.338,22.338,0,0,0-2.03-2.14.146.146,0,0,1-.068-.1.371.371,0,0,1,.082-.164l.212-.308q.075-.116.116-.116t.089.062L93,5.86a16.32,16.32,0,0,0,1.025-1.75,3.185,3.185,0,0,0,.28-.786q.376.144.759.335a.207.207,0,0,1,.137.185q0,.082-.109.15a.894.894,0,0,0-.239.294q-.615,1.053-1.333,2.071l.95,1.066q.554-.868,1.066-1.75a4.338,4.338,0,0,0,.424-.95A4.954,4.954,0,0,1,96.7,5.1q.144.082.144.171a.225.225,0,0,1-.123.178,2.614,2.614,0,0,0-.492.643Q94.9,8.15,93.885,9.5q1.073-.062,2.29-.164-.2-.472-.465-.984a.157.157,0,0,1-.021-.062q0-.055.157-.116l.253-.1a.62.62,0,0,1,.157-.048q.041,0,.082.075A13.805,13.805,0,0,1,97.378,10.5ZM104,4.186l-.041.841a11.1,11.1,0,0,1-.424,3.438,1.205,1.205,0,0,1-1.23.759q-.595,0-1.032-.041a.377.377,0,0,1-.246-.082.852.852,0,0,1-.062-.239,2.056,2.056,0,0,0-.2-.547,9.739,9.739,0,0,0,1.36.109.717.717,0,0,0,.656-.362,10.588,10.588,0,0,0,.369-3.233h-2.509a5.849,5.849,0,0,1-.813,2.851,5.359,5.359,0,0,1-1.873,1.688.714.714,0,0,1-.212.1q-.055,0-.2-.185a1.425,1.425,0,0,0-.458-.4,4.886,4.886,0,0,0,2.058-1.668,4.888,4.888,0,0,0,.67-2.379h-.52l-1.764.027a.1.1,0,0,1-.109-.109V4.165q0-.123.109-.123l1.764.027h2.8l1.791-.027Q104,4.042,104,4.186Zm-10.425,7.3a.728.728,0,0,1-.068.171,1.438,1.438,0,0,0-.144.5,14.589,14.589,0,0,1-.6,2.6q-.055.185-.123.185a.4.4,0,0,1-.185-.082,1.611,1.611,0,0,0-.506-.212,10.128,10.128,0,0,0,.677-2.632,4.857,4.857,0,0,0,.041-.554q0-.13-.014-.273a5.361,5.361,0,0,1,.711.15Q93.57,11.411,93.57,11.486Zm3.691,2.42a.377.377,0,0,1,.014.075q0,.068-.164.123l-.335.1a.622.622,0,0,1-.15.041q-.048,0-.062-.1a20.451,20.451,0,0,0-.643-2.687.207.207,0,0,1-.021-.075q0-.048.171-.109l.294-.082a.474.474,0,0,1,.109-.021q.048,0,.089.089A14.565,14.565,0,0,1,97.262,13.906ZM118.7,8.8a2.566,2.566,0,0,0-.4.581q-.116.212-.185.212a.774.774,0,0,1-.212-.068,13.093,13.093,0,0,1-3.514-2.3,13.956,13.956,0,0,1-2.235-2.714,12.337,12.337,0,0,1-2.475,3.1,15.415,15.415,0,0,1-2.987,2.017,1.188,1.188,0,0,1-.226.1q-.055,0-.185-.212a1.824,1.824,0,0,0-.417-.533,11.2,11.2,0,0,0,5.53-4.895,4.5,4.5,0,0,0,.349-.854,6.039,6.039,0,0,1,.868.164q.2.068.2.185a.159.159,0,0,1-.1.137.315.315,0,0,0-.13.1,12.914,12.914,0,0,0,2.8,3.131A12.789,12.789,0,0,0,118.7,8.8Zm-7.909-.185q0,.014-.055.267a6.44,6.44,0,0,0-.082,1.313,8.747,8.747,0,0,1-.267,2.352,4.765,4.765,0,0,1-.636,1.374,6.054,6.054,0,0,1-2.488,2,.552.552,0,0,1-.212.082q-.048,0-.2-.212a2.014,2.014,0,0,0-.485-.513,4.99,4.99,0,0,0,2.659-1.894,5.994,5.994,0,0,0,.738-3.206,11.109,11.109,0,0,0-.1-1.764q.485.027.95.075Q110.79,8.513,110.79,8.615Zm3.931-.027a.478.478,0,0,1-.034.137q-.027.1-.034.13a11,11,0,0,0-.068,1.593V14l.027,1.791q0,.1-.109.1h-.7q-.109,0-.109-.1L113.716,14V10.461a15.416,15.416,0,0,0-.1-2.085,8.377,8.377,0,0,1,.95.089Q114.721,8.485,114.721,8.588Zm9.427-1.456q-1.682.171-3.937.239l-.055-.9a34.669,34.669,0,0,0,3.623-.185A23.562,23.562,0,0,1,123,3.871l1.032-.13a17.683,17.683,0,0,0,.759,2.44,28.98,28.98,0,0,0,2.953-.52l.109.9q-1.1.246-2.714.465a14.924,14.924,0,0,0,2.7,4.061l-.6.868a6.488,6.488,0,0,0-3.37-.957,3.2,3.2,0,0,0-2.071.6,1.5,1.5,0,0,0-.6,1.2q0,1.8,3.527,1.8a10.949,10.949,0,0,0,1.873-.144l.014.978a14.375,14.375,0,0,1-1.9.116,7.033,7.033,0,0,1-3.281-.6,2.223,2.223,0,0,1-1.217-2.1,2.317,2.317,0,0,1,1.3-2.153,4.746,4.746,0,0,1,2.317-.526,5.215,5.215,0,0,1,2.7.547A11.752,11.752,0,0,1,124.147,7.132ZM131.8,3.789l.971.014q-.021.588-.068,1.381-.034.615-.048,1l.424.362a.186.186,0,0,1,.055.137.264.264,0,0,1-.055.157,5.623,5.623,0,0,0-.465.9l-.041.533-.068.52.253-.547A11.409,11.409,0,0,1,134.7,6.147a2.737,2.737,0,0,1,1.647-.622,1.461,1.461,0,0,1,1.347.636,3.053,3.053,0,0,1,.335,1.6q0,1.114-.13,2.8-.123,1.791-.123,2.365a1.674,1.674,0,0,0,.157.868.452.452,0,0,0,.417.2q.841,0,1.313-2.3l.841.547a5.045,5.045,0,0,1-1,2.229,1.613,1.613,0,0,1-1.224.513,1.339,1.339,0,0,1-1.107-.41,2.439,2.439,0,0,1-.349-1.483q0-1.039.1-2.557.109-1.764.109-2.509a3.748,3.748,0,0,0-.15-1.3.563.563,0,0,0-.561-.369q-1.408,0-3.78,3.445v5.756h-.964q0-2.338.055-4.464l.137-.882-.362.834q-.554,1.3-1.3,2.721l-.786-.656q.649-1.128,2.324-4.341.034-.779.055-1.75-.26.021-2.058.219l-.055-.834q1.271-.116,2.14-.212.007-.355.034-1.128Q131.79,4.315,131.8,3.789Zm12.564,3.158q-1.155.062-2.365.062V6.127q1.4,0,2.509-.062.191-1.422.267-2.447l1.032.1q-.109,1.025-.321,2.311,1.36-.089,3.1-.239l.014.882q-1.429.15-3.254.239a53.168,53.168,0,0,1-2.208,8.524l-.978-.335A47.881,47.881,0,0,0,144.361,6.947Zm1.709,5.38.868.068a3.679,3.679,0,0,0-.082.786,1.075,1.075,0,0,0,.513,1.08,4.218,4.218,0,0,0,1.559.191,16.519,16.519,0,0,0,2.167-.109l.055.964q-.834.082-2.044.082a4.645,4.645,0,0,1-2.5-.472,1.737,1.737,0,0,1-.636-1.531A5.222,5.222,0,0,1,146.07,12.327Zm.711-2.994V8.4a40.055,40.055,0,0,1,4.259-.191v.9A32.162,32.162,0,0,0,146.781,9.333ZM3.384,32.077V28.83H4.45v3.008L9.81,30.621l.588.752a17.488,17.488,0,0,1-2.967,5.284L6.549,36.1A12.915,12.915,0,0,0,9.085,31.77L4.45,32.815V37.86q0,.943.485,1.189a4.62,4.62,0,0,0,1.723.205q1.545,0,3.247-.164v1.032q-1.49.1-3.466.1a3.85,3.85,0,0,1-2.55-.588,2.375,2.375,0,0,1-.506-1.75V33.055L1,33.588l-.28-.909Zm9.748-2.687h6.344v.937H13.132Zm-.854,2.98h7.909q-.157,4-1.955,5.961a8.381,8.381,0,0,1-4.3,2.27l-.506-.8a7.477,7.477,0,0,0,4.238-2.413,6.915,6.915,0,0,0,1.36-4.081H12.277Zm11.539,2.687v2.994q0,1,.6,1.107a11.356,11.356,0,0,0,2.044.144q1.408,0,3.1-.171v1.053q-1.859.1-3.37.1a10.778,10.778,0,0,1-2.44-.2q-1-.219-1-1.709v-9.1h1.066V34.08a15.118,15.118,0,0,0,4.368-2.871l.711.854A18.045,18.045,0,0,1,23.816,35.058Zm5.53-7.226a1.5,1.5,0,0,1,1.162.52,1.514,1.514,0,0,1,.4,1.053,1.569,1.569,0,0,1-3.138,0,1.57,1.57,0,0,1,1.572-1.572Zm0,.6a.926.926,0,0,0-.725.314.947.947,0,0,0-.246.656.918.918,0,0,0,.314.718.947.947,0,0,0,.656.246.918.918,0,0,0,.718-.314.938.938,0,0,0,.246-.649A.926.926,0,0,0,30,28.68.938.938,0,0,0,29.347,28.434Zm7.9,7.561a12.594,12.594,0,0,1-5,4.423l-.615-.807A12.291,12.291,0,0,0,36.21,35.68a14.161,14.161,0,0,0,2.051-5.045H32.382V29.7h7.26A18.785,18.785,0,0,1,37.8,35.058a31.446,31.446,0,0,1,3.261,4.7l-1.032.656A25.126,25.126,0,0,0,37.249,35.994Zm8.039-2.085v6.651h-1.08V28.816h1.08v4.061A21.8,21.8,0,0,1,50.62,35.1l-.533,1.012A17.7,17.7,0,0,0,45.288,33.909Zm10.794-.533q1.429-.854,3.274-1.818l.5.882a29.874,29.874,0,0,0-4.464,2.5,3.4,3.4,0,0,0-1.709,2.714q0,1.8,2.885,1.8,1.483,0,3.391-.137v1q-2.345.068-3.459.068-3.78,0-3.78-2.755,0-2.085,2.475-3.7-.588-2.14-1.087-5.024l1.032-.041A41.146,41.146,0,0,0,56.082,33.376Zm8.839-2.283V28.83h.964v2.208q1.511-.1,2.591-.219v.909q-1.224.123-2.591.205v2.707a8.692,8.692,0,0,1,2.646-.479,2.9,2.9,0,0,1,2.577,1.169,3.273,3.273,0,0,1,.533,1.894,2.654,2.654,0,0,1-1.3,2.591,6.067,6.067,0,0,1-2.707.465v-.9A3.954,3.954,0,0,0,69.8,38.94a2.048,2.048,0,0,0,.772-1.825,2.11,2.11,0,0,0-.6-1.524,1.724,1.724,0,0,0-1.285-.561,7.652,7.652,0,0,0-2.8.533v3.609a1.437,1.437,0,0,1-.273,1,1.054,1.054,0,0,1-.786.26,2.259,2.259,0,0,1-1.189-.376,2.427,2.427,0,0,1-1.347-2.03q0-1.736,2.632-3.049v-3q-.813.048-2.434.075v-.9Q63.8,31.154,64.921,31.093Zm0,4.9a5.118,5.118,0,0,0-1.306,1.019,1.511,1.511,0,0,0-.39.984,1.078,1.078,0,0,0,.335.759,1.888,1.888,0,0,0,.69.458.9.9,0,0,0,.39.1q.28,0,.28-.465Zm3.9-5.64.6-.731a12.831,12.831,0,0,1,2.816,2.229l-.684.772A11,11,0,0,0,68.824,30.354Zm17.295,6.009a2.1,2.1,0,0,0-.362.595q-.089.212-.171.212a1.477,1.477,0,0,1-.191-.027,21.157,21.157,0,0,1-5.6-1.887,14.8,14.8,0,0,1-3.514,1.511q.28.027,1.8.027h3.3l1.866-.027q.109,0,.109.1l-.027,1.08v1.176l.027,1.8q0,.1-.109.1h-.636q-.109,0-.109-.1v-.588h-5.53V40.9q0,.1-.109.1h-.636q-.109,0-.109-.1l.027-1.777V38.065l-.027-1.2v-.041q-.807.246-1.948.513a1.079,1.079,0,0,1-.205.041q-.089,0-.185-.205a1.49,1.49,0,0,0-.349-.513,19.32,19.32,0,0,0,5.612-1.839,10.515,10.515,0,0,1-1.887-1.511,12.49,12.49,0,0,1-2.215,1.49,1.188,1.188,0,0,1-.226.1q-.041,0-.15-.157a1.274,1.274,0,0,0-.424-.417,10.163,10.163,0,0,0,3.821-2.926,3.068,3.068,0,0,0,.369-.643,5.962,5.962,0,0,1,.731.232q.123.068.123.144t-.144.185a1.613,1.613,0,0,0-.294.308q-.185.239-.308.376h3.473a.782.782,0,0,0,.335-.055.317.317,0,0,1,.13-.041q.109,0,.39.28.239.253.239.376a.206.206,0,0,1-.144.2,1.379,1.379,0,0,0-.417.321,15.542,15.542,0,0,1-1.935,1.688A20.549,20.549,0,0,0,86.119,36.363ZM82.51,39.61V37.5h-5.53V39.61ZM81.8,32.665H77.848l-.171.185a10.306,10.306,0,0,0,2.105,1.524A12.59,12.59,0,0,0,81.8,32.665Zm3.5-.137a.1.1,0,0,1-.109.109h-.636a.1.1,0,0,1-.109-.109V30.56H74.854v1.969a.1.1,0,0,1-.109.109h-.636A.1.1,0,0,1,74,32.528l.027-1.449v-.437L74,29.917a.1.1,0,0,1,.109-.109l1.935.027h3.083v-.547a3.786,3.786,0,0,0-.1-.95q.41.021.923.068.171.021.171.116a.846.846,0,0,1-.082.26,1.819,1.819,0,0,0-.068.547v.506h3.288l1.935-.027a.1.1,0,0,1,.109.109l-.027.629v.533Zm14.841,7.007a1.86,1.86,0,0,0-.451.479q-.089.171-.164.171a.433.433,0,0,1-.2-.1A10.65,10.65,0,0,1,97,38.079a8.641,8.641,0,0,1-1.278-2.112q.055,2.939.055,3.657a1.138,1.138,0,0,1-.362.991,2.854,2.854,0,0,1-1.415.239.264.264,0,0,1-.369-.28,1.561,1.561,0,0,0-.246-.588,8.256,8.256,0,0,0,.923.055.82.82,0,0,0,.554-.123.62.62,0,0,0,.1-.424V37.888q-1.244.807-2.769,1.62a1.943,1.943,0,0,0-.506.314q-.089.109-.157.109t-.123-.123q-.144-.253-.362-.745a4.57,4.57,0,0,0,.807-.294,26.732,26.732,0,0,0,3.11-1.7V35.03h-1.3l-1.935.027q-.1,0-.1-.109V34.4q0-.109.1-.109l1.935.027h1.3V33.062h-.8l-1.764.027q-.109,0-.109-.116V32.46q0-.116.109-.116l1.764.027h.8v-1.2h-.991l-1.88.027q-.109,0-.109-.1v-.554a.1.1,0,0,1,.109-.109l1.88.027h2.085a12.2,12.2,0,0,0,.752-1.429,2.654,2.654,0,0,0,.185-.588,5.367,5.367,0,0,1,.725.212q.171.048.171.15,0,.075-.137.185a.677.677,0,0,0-.2.267,12.632,12.632,0,0,1-.7,1.2h.465l1.846-.027q.13,0,.13.109V31.1q0,.1-.13.1l-1.846-.027H95.744v1.2H96.92l1.75-.027q.109,0,.109.116v.513q0,.116-.109.116l-1.75-.027H95.744v1.258h1.941l1.935-.027a.1.1,0,0,1,.109.109v.547a.1.1,0,0,1-.109.109l-1.935-.027h-1.8a9.615,9.615,0,0,0,1.189,2.03,11.044,11.044,0,0,0,1.121-1.053,1.977,1.977,0,0,0,.335-.485,4.885,4.885,0,0,1,.574.444.258.258,0,0,1,.116.185q0,.109-.137.15a1.1,1.1,0,0,0-.424.294,13.717,13.717,0,0,1-1.135,1A10.167,10.167,0,0,0,100.14,39.535ZM91.595,31.92q0,.116-.109.116l-1.258-.027h-.089a9.323,9.323,0,0,0,1.442,3.035,1.831,1.831,0,0,0-.349.533q-.068.15-.123.15t-.13-.15a12.545,12.545,0,0,1-.964-2.673q.007,2.755.082,5.79.014.759.041,1.7.014.465.014.506a.085.085,0,0,1-.1.1h-.67q-.116,0-.116-.1s.009-.406.027-1.2q.1-3.541.116-6.6a15.75,15.75,0,0,1-1.641,4.437q-.089.157-.137.157-.075,0-.116-.137a1.211,1.211,0,0,0-.362-.547,15.308,15.308,0,0,0,2.058-5h-.308l-1.271.027a.1.1,0,0,1-.116-.116v-.547q0-.123.116-.123l1.271.027h.417v-1.2a8.8,8.8,0,0,0-.109-1.668,6.609,6.609,0,0,1,.882.089q.171.021.171.123a.676.676,0,0,1-.082.253,4.858,4.858,0,0,0-.075,1.189v1.217h.116l1.258-.027q.109,0,.109.123Zm2.146,4.819q.048.048.048.075t-.1.137l-.294.273q-.116.123-.164.123-.027,0-.068-.062a6.8,6.8,0,0,0-1.176-1.306q-.055-.041-.055-.068t.109-.137l.239-.226q.109-.1.15-.1t.068.048A6.8,6.8,0,0,1,93.741,36.739Zm.725-6.918a.168.168,0,0,1,.014.062q0,.048-.1.109l-.41.219a.441.441,0,0,1-.164.075q-.041,0-.075-.089a4.652,4.652,0,0,0-.786-1.258.112.112,0,0,1-.041-.068q0-.041.144-.116l.362-.178a.368.368,0,0,1,.123-.041.146.146,0,0,1,.1.068A6.6,6.6,0,0,1,94.466,29.821Zm12.694,5.8v2.769h-.937V36.049q-.321.164-.663.355-1.791,1.012-1.791,2.03a.927.927,0,0,0,.629.943,6.4,6.4,0,0,0,2.078.232q1.47,0,3.411-.171l.041.95q-2.55.13-3.384.13a5.879,5.879,0,0,1-2.967-.513,1.772,1.772,0,0,1-.7-1.6,3.066,3.066,0,0,1,1.88-2.55q.711-.4,1.456-.772-.068-1.312-.909-1.312-1.176,0-3.227,2.365l-.725-.643a16.348,16.348,0,0,0,2.9-4.136q-1.278.021-2.563,0V30.5q1.477.027,2.953,0a12.51,12.51,0,0,0,.629-1.873l1.012.185a14.376,14.376,0,0,1-.588,1.647q1.969-.062,3.739-.239l.027.854q-2.3.185-4.143.239a14.3,14.3,0,0,1-1.176,1.989l-.355.362.041.055a2.492,2.492,0,0,1,1.668-.711,1.521,1.521,0,0,1,1.114.424,1.982,1.982,0,0,1,.526,1.217q1.094-.5,2.844-1.237l.39.957Q108.09,35.208,107.16,35.618ZM112.4,32.6l-.28-.971a34.129,34.129,0,0,1,5.626-.991,3.159,3.159,0,0,1,2.748,1.278,5.128,5.128,0,0,1,.793,3.035,4.653,4.653,0,0,1-.615,2.393,3.914,3.914,0,0,1-1.395,1.4,11.22,11.22,0,0,1-4.368,1.2l-.355-.923A9.745,9.745,0,0,0,118.46,38a3.367,3.367,0,0,0,1.764-3.09q0-3.377-2.577-3.377A26.394,26.394,0,0,0,112.4,32.6Zm14.349-1.483q.82-.068,2.071-.2l.014.868q-1.142.137-2.3.191a38.416,38.416,0,0,1-2.468,6.487l-.909-.424a29.976,29.976,0,0,0,2.379-6.016q-1.135.062-2.27.041l-.027-.868q1.176.041,2.522-.027.273-1.169.465-2.365l1.019.123Q127.046,29.869,126.745,31.113Zm3,5.79q-.123-1.5-.144-3.568h.964q0,1.791.157,3.794a9.264,9.264,0,0,1,2.563,1.6l-.52.95a7.662,7.662,0,0,0-2.017-1.524v.232q0,2.229-2.475,2.229a2.629,2.629,0,0,1-1.846-.581,1.665,1.665,0,0,1-.54-1.292,1.7,1.7,0,0,1,.889-1.5,3.244,3.244,0,0,1,1.757-.458A5.891,5.891,0,0,1,129.746,36.9Zm0,.93a4.031,4.031,0,0,0-1.162-.2,2.4,2.4,0,0,0-1.429.349.867.867,0,0,0-.383.731.886.886,0,0,0,.41.772,1.931,1.931,0,0,0,1.107.273,1.305,1.305,0,0,0,1.47-1.483Zm.055-6.357.444-.8a14.091,14.091,0,0,1,3.192,1.5l-.513.868A12.767,12.767,0,0,0,129.8,31.476Zm10.035.684.69-.349a18.706,18.706,0,0,1,1.258,2.27l-.731.376A12.74,12.74,0,0,0,139.836,32.159Zm1.47-.656.677-.308a11.008,11.008,0,0,1,1.2,2.181l-.7.369A13.251,13.251,0,0,0,141.306,31.5Zm-1.073-2.563.9.615q-2.119,2.454-4.382,4.607a.681.681,0,0,0-.267.479q0,.226.376.513a45.7,45.7,0,0,1,4.9,4.71l-.868.725a50.558,50.558,0,0,0-5.024-5.065,1.118,1.118,0,0,1-.465-.841,1.139,1.139,0,0,1,.362-.827A64.9,64.9,0,0,0,140.232,28.939ZM7.957,64.59a5.749,5.749,0,0,1-2.707.574A4.366,4.366,0,0,1,1.9,63.817,4.969,4.969,0,0,1,.643,60.283a5.208,5.208,0,0,1,1.415-3.8,4.8,4.8,0,0,1,3.589-1.449,5.754,5.754,0,0,1,2.311.4V56.66a4.686,4.686,0,0,0-2.324-.588A3.566,3.566,0,0,0,2.9,57.2a4.249,4.249,0,0,0-1.049,3.015,4.043,4.043,0,0,0,.981,2.854A3.338,3.338,0,0,0,5.4,64.132a4.828,4.828,0,0,0,2.557-.656Zm5.093.342A2.161,2.161,0,0,1,12,65.15q-1.839,0-1.839-2.051V58.957h-1.2V58h1.2V56.291l1.121-.362V58H13.05v.957H11.286V62.9a1.635,1.635,0,0,0,.239,1,.955.955,0,0,0,.793.3,1.179,1.179,0,0,0,.731-.232Zm4.423.232a3.247,3.247,0,0,1-2.478-.981,3.634,3.634,0,0,1-.926-2.6,3.785,3.785,0,0,1,.964-2.755,3.465,3.465,0,0,1,2.6-.991,3.14,3.14,0,0,1,2.444.964,3.822,3.822,0,0,1,.878,2.673,3.761,3.761,0,0,1-.947,2.683A3.317,3.317,0,0,1,17.473,65.164Zm.082-6.385a2.132,2.132,0,0,0-1.709.735,3.018,3.018,0,0,0-.629,2.027,2.854,2.854,0,0,0,.636,1.962,2.161,2.161,0,0,0,1.7.718,2.049,2.049,0,0,0,1.671-.7,3.055,3.055,0,0,0,.584-2,3.108,3.108,0,0,0-.584-2.023A2.04,2.04,0,0,0,17.555,58.779ZM29.572,64.59a5.749,5.749,0,0,1-2.707.574,4.366,4.366,0,0,1-3.35-1.347,4.969,4.969,0,0,1-1.258-3.534,5.208,5.208,0,0,1,1.415-3.8,4.8,4.8,0,0,1,3.589-1.449,5.754,5.754,0,0,1,2.311.4V56.66a4.686,4.686,0,0,0-2.324-.588A3.566,3.566,0,0,0,24.51,57.2a4.249,4.249,0,0,0-1.049,3.015,4.043,4.043,0,0,0,.981,2.854,3.338,3.338,0,0,0,2.574,1.063,4.828,4.828,0,0,0,2.557-.656Zm6.645-2.317q.9,1.3,1.682,2.687l-.923.588a27.864,27.864,0,0,0-4.648-6.453l.8-.588a26.844,26.844,0,0,1,2.461,2.885,22.9,22.9,0,0,0,2.994-5.715h-7.4v-.937h8.47l.362.485A31.431,31.431,0,0,1,36.217,62.272Zm5.448-4.86.9-.39a19.128,19.128,0,0,1,1.162,3.049l-.923.362A17.08,17.08,0,0,0,41.665,57.412Zm2.646-.6.882-.362a18.023,18.023,0,0,1,1.025,2.994l-.916.39A14.234,14.234,0,0,0,44.311,56.811ZM43.217,65a7.1,7.1,0,0,0,3.753-3.083,11.7,11.7,0,0,0,1.217-5.161l1.025.219a13.289,13.289,0,0,1-1.4,5.462,6.606,6.606,0,0,1-1.675,1.955,10.213,10.213,0,0,1-2.317,1.319Zm13.125-6.569H59.91v.93H56.342a7.264,7.264,0,0,1-1.094,4.259,6.643,6.643,0,0,1-2.762,1.955l-.7-.759a5.519,5.519,0,0,0,2.769-2.126,6.839,6.839,0,0,0,.7-3.329H50.921v-.93h4.341V55.915q-1.723.321-3.391.492l-.39-.9a29.534,29.534,0,0,0,7.041-1.422l.52.882a27.366,27.366,0,0,1-2.7.725Zm5.9-3.4a23.989,23.989,0,0,1,3.288,2.085l-.7.923a20.356,20.356,0,0,0-3.22-2.181Zm7.055.7,1.053.506a11.411,11.411,0,0,1-2.6,5.8,11.137,11.137,0,0,1-5.585,3.227l-.479-.95Q68.25,62.7,69.3,55.73Zm10.268-.52a13.806,13.806,0,0,0-.841-1.928L79.44,53a18.274,18.274,0,0,1,1.032,2.365l-.561.226.451.588a13.407,13.407,0,0,1-2.693,6.576,10.621,10.621,0,0,1-4.252,2.912l-.615-.752A9.7,9.7,0,0,0,77.287,61.6a12.582,12.582,0,0,0,1.969-5.462H75.312a13.127,13.127,0,0,1-2.577,4.026l-.8-.615a12.247,12.247,0,0,0,3.021-5.824l1.107.171q-.144.54-.4,1.313Zm.8-2.249.7-.253a11.566,11.566,0,0,1,1,2.3l-.731.294A13.488,13.488,0,0,0,80.363,52.962Zm10.233,2.8a13.225,13.225,0,0,1-1.367,5.927,8.91,8.91,0,0,1-5.113,3.9l-.588-.841A8.527,8.527,0,0,0,88.081,61.5a10.554,10.554,0,0,0,1.367-5.742H82.913v-.937h6.706a1.43,1.43,0,0,1-.1-.547,1.5,1.5,0,0,1,.513-1.162,1.53,1.53,0,0,1,1.053-.4,1.5,1.5,0,0,1,1.162.513,1.569,1.569,0,0,1-1.162,2.625A1.366,1.366,0,0,1,90.6,55.758Zm.492-2.447a.939.939,0,0,0-.725.314.954.954,0,0,0-.239.649.939.939,0,0,0,.314.725.923.923,0,0,0,.649.246.939.939,0,0,0,.725-.314.963.963,0,0,0,.239-.656.954.954,0,0,0-.964-.964Zm3.363,1.08H100.8v.937H94.452Zm-.854,2.98h7.909q-.157,4-1.955,5.961a8.381,8.381,0,0,1-4.3,2.27l-.506-.8a7.477,7.477,0,0,0,4.238-2.413,6.915,6.915,0,0,0,1.36-4.081H93.6Zm9.646.041.9-.39a19.127,19.127,0,0,1,1.162,3.049l-.923.362A17.08,17.08,0,0,0,103.243,57.412Zm2.646-.6.882-.362a18.024,18.024,0,0,1,1.025,2.994l-.916.39A14.234,14.234,0,0,0,105.889,56.811ZM104.795,65a7.1,7.1,0,0,0,3.753-3.083,11.7,11.7,0,0,0,1.217-5.161l1.025.219a13.289,13.289,0,0,1-1.4,5.462,6.606,6.606,0,0,1-1.675,1.955,10.213,10.213,0,0,1-2.317,1.319Zm10.521-6.091v6.651h-1.08V53.816h1.08v4.061a21.8,21.8,0,0,1,5.332,2.222l-.533,1.012A17.7,17.7,0,0,0,115.315,58.909Zm6.911-4.088h7.711q-.041,5.011-1.8,7.506a9.622,9.622,0,0,1-4.7,3.261l-.588-.841a8.527,8.527,0,0,0,4.553-3.247,10.554,10.554,0,0,0,1.367-5.742h-6.535Zm13.494,3.938h-3.705v-.882h4.341l-.075-2.017h1.039l.068,2.017h2.153v.882H137.43l.253,6.645H136.63l-.137-4.293.1-2.017-.431,1.06a12.34,12.34,0,0,1-3.951,4.341l-.67-.766A11.537,11.537,0,0,0,135.721,58.759Zm5.489.5h7.615V60.3H141.21Zm16.762,3.835a33.151,33.151,0,0,0-1.736-3.691l.9-.4a43.915,43.915,0,0,1,2.741,6.009l-1.019.479q-.267-.82-.547-1.545-4.2.663-7.909,1.08l-.226-1.019q.28-.014.841-.075,1.688-4.881,2.939-9.782l1.08.28q-1.2,4.478-2.926,9.393Q155.169,63.537,157.972,63.093Zm10.117-5.25.718-.273a18.274,18.274,0,0,1,1.032,2.365l-.752.308A15.122,15.122,0,0,0,168.089,57.843Zm1.586-.472.7-.253a11.566,11.566,0,0,1,1,2.3l-.731.294A13.487,13.487,0,0,0,169.675,57.371Zm.39-2.632.027.964a5.312,5.312,0,0,0-2.311.629,5.934,5.934,0,0,0-2.071,1.962,4.817,4.817,0,0,0-.813,2.659,2.958,2.958,0,0,0,1.285,2.529,6.17,6.17,0,0,0,2.933,1l-.239,1a6.1,6.1,0,0,1-3.63-1.381,3.89,3.89,0,0,1-1.312-3.049,5.709,5.709,0,0,1,2.994-5.024l.759-.335-.014-.027-.656.109q-1.189.068-5.66.479l-.082-.923Q163.276,55.177,170.064,54.739Zm8.777,1.764q-.041,1.518,0,3.035a5.324,5.324,0,0,1,.308,1.777,3.687,3.687,0,0,1-1.306,3.069,7.744,7.744,0,0,1-3.274,1.271l-.588-.841a6.334,6.334,0,0,0,3.411-1.381,2.741,2.741,0,0,0,.807-1.88,1.856,1.856,0,0,1-1.8.882,2.2,2.2,0,0,1-1.531-.574,2.3,2.3,0,0,1,.123-3.356,2.469,2.469,0,0,1,1.559-.492,2,2,0,0,1,1.36.39q-.027-1.312-.027-1.873-2.249.034-5.435.239l-.014-.9q2.584-.1,5.435-.171V53.8l1,.014q0,.629-.027,1.859,2.324-.027,3.363-.027v.9Q180.523,56.5,178.842,56.5ZM176.5,58.8a1.322,1.322,0,0,0-.984.4,1.413,1.413,0,0,0-.39,1.046,1.237,1.237,0,0,0,.444,1,1.288,1.288,0,0,0,.848.294,1.406,1.406,0,0,0,1.1-.41,1.3,1.3,0,0,0,.314-.916Q177.837,58.8,176.5,58.8Zm9.324,3.527a1.915,1.915,0,0,1,1.463.643,1.916,1.916,0,0,1-.144,2.748,1.936,1.936,0,0,1-1.319.5,1.9,1.9,0,0,1-1.463-.643,1.916,1.916,0,0,1,.144-2.748A1.936,1.936,0,0,1,185.828,62.327Zm0,.7a1.269,1.269,0,0,0-1.251,1.251,1.253,1.253,0,0,0,2.181.834,1.247,1.247,0,0,0-.93-2.085Z"
								transform="translate(-0.506 -2.75)" fill="#5a5858" />
						</svg>