	<svg xmlns="http://www.w3.org/2000/svg" width="160.009" height="13.515"
								viewBox="0 0 160.009 13.515">
								<path id="Контур_1740" data-name="Контур 1740"
									d="M5.236.164A4.327,4.327,0,0,1,1.894-1.21,5.1,5.1,0,0,1,.643-4.785,5.384,5.384,0,0,1,1.921-8.559,4.478,4.478,0,0,1,5.4-9.967,4.209,4.209,0,0,1,8.668-8.6,5.106,5.106,0,0,1,9.912-5.024,5.417,5.417,0,0,1,8.641-1.23,3.773,3.773,0,0,1,8-.656l2.755,1.976H8.668L6.822-.062A5.314,5.314,0,0,1,5.236.164Zm.082-9.092A3.16,3.16,0,0,0,2.81-7.813a4.314,4.314,0,0,0-.964,2.926,4.384,4.384,0,0,0,.937,2.919,3.08,3.08,0,0,0,2.454,1.1A3.218,3.218,0,0,0,7.779-1.921a4.3,4.3,0,0,0,.93-2.946,4.479,4.479,0,0,0-.9-3A3.094,3.094,0,0,0,5.318-8.928ZM12.079.15a.726.726,0,0,1-.537-.226.742.742,0,0,1-.222-.54.754.754,0,0,1,.222-.543.72.72,0,0,1,.537-.229.739.739,0,0,1,.547.229.748.748,0,0,1,.226.543.737.737,0,0,1-.226.54A.745.745,0,0,1,12.079.15ZM27.029-6.9a2.886,2.886,0,0,0-.321.506q-.1.185-.171.185a.533.533,0,0,1-.191-.082,9.749,9.749,0,0,1-2.762-2.611q.027,1.025.068,2.058.027.711.027.745A.1.1,0,0,1,23.57-6h-.588a.1.1,0,0,1-.109-.109q0-.048.021-.437.055-1.2.075-2.365a9.7,9.7,0,0,1-2.283,2.584.578.578,0,0,1-.2.109q-.041,0-.191-.2a1.592,1.592,0,0,0-.362-.335A9.679,9.679,0,0,0,21.465-7.9a8.438,8.438,0,0,0,1.1-1.312h-.13l-1.668.034q-.109,0-.109-.116v-.52a.1.1,0,0,1,.109-.109l1.668.027H22.9v-.417a6.289,6.289,0,0,0-.1-1.278,6.511,6.511,0,0,1,.854.089q.144.014.144.123a.47.47,0,0,1-.055.185,2.579,2.579,0,0,0-.089.868V-9.9H24.76l1.668-.027a.1.1,0,0,1,.109.109v.52q0,.116-.109.116L24.76-9.215h-.813a9.382,9.382,0,0,0,1.47,1.367A10.964,10.964,0,0,0,27.029-6.9ZM26.291-2.9q0,.109-.116.109l-1.887-.027H21.137v.854L21.15-.376a1.027,1.027,0,0,1-.39.923,2.759,2.759,0,0,1-1.518.28h-.26a.507.507,0,0,1-.267-.041.838.838,0,0,1-.089-.239,1.675,1.675,0,0,0-.253-.561,10.185,10.185,0,0,0,1.148.068.892.892,0,0,0,.629-.15.761.761,0,0,0,.116-.492V-2.816H16.81l-1.9.027q-.116,0-.116-.109v-.561q0-.109.116-.109l1.9.027h7.479l1.887-.027q.116,0,.116.109ZM20.07-7.7a2.107,2.107,0,0,0-.349.376q-.13.2-.185.2t-.178-.144a9.139,9.139,0,0,1-1.347-1.579q.014,1.073.062,2.044,0,.034.027.526.007.144.007.191A.1.1,0,0,1,18-5.975h-.588a.1.1,0,0,1-.109-.109q0-.048.021-.4.055-1.1.075-2.29a11.266,11.266,0,0,1-2.44,2.68.339.339,0,0,1-.178.1q-.082,0-.185-.185a1.31,1.31,0,0,0-.362-.417,10.182,10.182,0,0,0,2.816-2.6h-.7l-1.579.027q-.116,0-.116-.109v-.52a.1.1,0,0,1,.116-.116l1.579.027h.984v-.4a6.151,6.151,0,0,0-.1-1.285,5.817,5.817,0,0,1,.854.082q.157.021.157.109a.624.624,0,0,1-.055.212,2.513,2.513,0,0,0-.1.882v.4h.28l1.586-.027q.1,0,.1.116v.52q0,.109-.1.109l-1.586-.027h-.027A7.934,7.934,0,0,0,20.07-7.7ZM24.89-4.744q0,.1-.116.1l-1.948-.027H18.389l-1.955.027q-.116,0-.116-.1V-5.3q0-.109.116-.109l1.955.027h4.437l1.948-.027q.116,0,.116.109ZM26.5-.171a1.678,1.678,0,0,0-.431.492q-.13.212-.2.212a.525.525,0,0,1-.212-.109,12.858,12.858,0,0,1-2.721-2.27.132.132,0,0,1-.027-.062q0-.048.144-.137l.349-.267a.247.247,0,0,1,.116-.048.165.165,0,0,1,.109.068A9.647,9.647,0,0,0,26.5-.171Zm-7.978-1.7q0,.1-.157.164a1.141,1.141,0,0,0-.4.335A9.959,9.959,0,0,1,15.7.438a.714.714,0,0,1-.212.1q-.068,0-.205-.185a1.88,1.88,0,0,0-.479-.376A8.042,8.042,0,0,0,17.09-1.654a2.745,2.745,0,0,0,.547-.725,4.652,4.652,0,0,1,.759.362Q18.519-1.955,18.519-1.873Zm22.1,2a.1.1,0,0,1-.109.109L38.664.212H30.543L28.69.239A.1.1,0,0,1,28.581.13v-.7a.1.1,0,0,1,.109-.109l1.853.027h.417V-6.508a12.771,12.771,0,0,0-.1-1.853q.581.027.991.089.171.021.171.123a.908.908,0,0,1-.068.253,5.19,5.19,0,0,0-.089,1.313V-.656h2.816v-9a12.13,12.13,0,0,0-.109-1.832,8.84,8.84,0,0,1,1,.082q.171.021.171.123a.5.5,0,0,1-.027.13q-.034.1-.041.137a6.1,6.1,0,0,0-.089,1.333V-6.72h2.112l1.921-.027a.1.1,0,0,1,.109.109v.718a.1.1,0,0,1-.109.109l-1.921-.027H35.595V-.656h3.069L40.51-.684a.1.1,0,0,1,.109.109ZM54.8-3.206q0,.109-.1.109L54.517-3.1q-.533-.014-1.2-.021v.9l.034,1.265q0,.109-.116.109h-.615a.1.1,0,0,1-.109-.109V-1.4H48.986L49-.376a2.005,2.005,0,0,1-.1.718.782.782,0,0,1-.294.342,4.308,4.308,0,0,1-1.894.253.411.411,0,0,1-.253-.048.736.736,0,0,1-.1-.219,2.774,2.774,0,0,0-.342-.629,8.522,8.522,0,0,0,.93.062q.137,0,.308-.007a1.255,1.255,0,0,0,.752-.144.713.713,0,0,0,.144-.526V-1.4H45.753l-1.976.027q-.116,0-.116-.109v-.492q0-.109.116-.109l1.976.027h2.406V-3.124H44.311L42.5-3.1a.1.1,0,0,1-.109-.109V-3.7a.1.1,0,0,1,.109-.109l1.812.027h3.849v-.984H45.753l-1.976.027q-.116,0-.116-.1v-.506q0-.109.116-.109l1.976.027h2.406v-.95H46.307l-1.976.027q-.109,0-.109-.123l.027-.772v-.588L44.222-8.6a.1.1,0,0,1,.109-.109l1.976.027h1.853V-9.55H44.406l-1.832.027q-.116,0-.116-.109v-.52q0-.109.116-.109l1.832.027h3.753a6.935,6.935,0,0,0-.1-1.456,6.54,6.54,0,0,1,.909.068q.171.027.171.116a.905.905,0,0,1-.082.267,3.843,3.843,0,0,0-.068.978v.027h3.746l1.839-.027a.1.1,0,0,1,.109.109v.52a.1.1,0,0,1-.109.109L52.732-9.55H48.986v.868h1.9l1.989-.027a.1.1,0,0,1,.109.109l-.027.772v.588l.027.772q0,.123-.109.123l-1.989-.027h-1.9v.95h2.249l2.01-.027a.1.1,0,0,1,.109.109L53.32-4.088v.308l1.374-.027q.1,0,.1.109ZM52.514-2.058V-3.124H48.986v1.066Zm0-1.723v-.984H48.986v.984Zm-.321-3.206v-1.08H48.986v1.08Zm-4.033,0v-1.08H45.021v1.08Zm20.487-3.131a.1.1,0,0,1-.109.109L66.6-10.035H64.9A9.2,9.2,0,0,1,64.34-8.75h1.483l1.764-.027a.1.1,0,0,1,.109.109l-.027,1.627v3.486L67.7-1.928q0,.123-.109.123l-1.764-.027H63.205L61.441-1.8q-.109,0-.109-.123l.027-1.627V-7.041l-.027-1.627a.1.1,0,0,1,.109-.109l1.764.027h.267a9.487,9.487,0,0,0,.561-1.285H62.706l-1.921.027q-.123,0-.123-.109v-.595q0-.109.123-.109l1.921.027h3.9l1.935-.027a.1.1,0,0,1,.109.109Zm-1.8,7.561V-4.02H62.173v1.463Zm0-2.133V-6.05H62.173v1.36Zm0-2.044V-8.053H62.173v1.319ZM60.519-4.2q-.014.164-.014.567v.15q0,.15-.212.273a24.394,24.394,0,0,1-3,1.258,1.339,1.339,0,0,0-.5.239.306.306,0,0,1-.171.068q-.082,0-.137-.123-.089-.205-.267-.8a7.772,7.772,0,0,0,1.135-.294l.684-.226v-6.31h-.267l-1.258.027q-.116,0-.116-.109v-.595q0-.109.116-.109l1.258.027h1.244l1.265-.027a.1.1,0,0,1,.109.109v.595a.1.1,0,0,1-.109.109l-1.265-.027h-.137V-3.4A13.547,13.547,0,0,0,60.519-4.2ZM63.431-.923q0,.082-.137.123a1.077,1.077,0,0,0-.342.212,9.235,9.235,0,0,1-2.9,1.456q-.2.055-.212.055-.075,0-.205-.226a1.77,1.77,0,0,0-.41-.472,7.843,7.843,0,0,0,3.083-1.36,1.648,1.648,0,0,0,.349-.362q.349.191.663.4A.211.211,0,0,1,63.431-.923ZM69.1.123a1.911,1.911,0,0,0-.417.533q-.1.157-.171.157a1.743,1.743,0,0,1-.239-.068A11.916,11.916,0,0,1,65.4-.937q-.055-.048-.055-.075t.144-.137l.362-.253a.282.282,0,0,1,.13-.062.15.15,0,0,1,.082.034A9.261,9.261,0,0,0,69.1.123Zm7-4.5v2.769h-.937V-3.951q-.321.164-.663.355-1.791,1.012-1.791,2.03a.927.927,0,0,0,.629.943,6.4,6.4,0,0,0,2.078.232q1.47,0,3.411-.171l.041.95q-2.55.13-3.384.13A5.879,5.879,0,0,1,72.516.007a1.772,1.772,0,0,1-.7-1.6,3.066,3.066,0,0,1,1.88-2.55q.711-.4,1.456-.772-.068-1.312-.909-1.312-1.176,0-3.227,2.365L70.287-4.5a16.348,16.348,0,0,0,2.9-4.136q-1.278.021-2.563,0V-9.5q1.477.027,2.953,0a12.51,12.51,0,0,0,.629-1.873l1.012.185a14.376,14.376,0,0,1-.588,1.647Q76.6-9.6,78.367-9.775l.027.854q-2.3.185-4.143.239a14.3,14.3,0,0,1-1.176,1.989l-.355.362.041.055a2.492,2.492,0,0,1,1.668-.711,1.521,1.521,0,0,1,1.114.424,1.982,1.982,0,0,1,.526,1.217q1.094-.5,2.844-1.237l.39.957Q77.027-4.792,76.1-4.382ZM93.741.068a1.434,1.434,0,0,0-.424.54q-.1.212-.164.212a.578.578,0,0,1-.2-.109,14.113,14.113,0,0,1-2.714-2.775A10.358,10.358,0,0,1,86.652.848a.66.66,0,0,1-.219.082q-.075,0-.185-.164A1.555,1.555,0,0,0,85.8.3a9.345,9.345,0,0,0,3.979-3.076A12.462,12.462,0,0,1,88.5-6.234q-.287.567-.663,1.162-.1.164-.164.164t-.2-.137a1.192,1.192,0,0,0-.431-.294,13.241,13.241,0,0,0,2.181-5.175,5.121,5.121,0,0,0,.1-.957v-.123a5.486,5.486,0,0,1,.807.2q.171.048.171.164a.448.448,0,0,1-.116.239,1.9,1.9,0,0,0-.219.656q-.205.854-.465,1.654h2.324l1.511-.027q.116,0,.116.109v.561q0,.109-.116.109l-.15-.007q-.437-.014-.984-.021a11.579,11.579,0,0,1-1.5,5.2A11.372,11.372,0,0,0,93.741.068ZM91.4-7.957h-2.16L88.99-7.3a12.8,12.8,0,0,0,1.251,3.78A11.19,11.19,0,0,0,91.4-7.957Zm-3.315-2.29a.194.194,0,0,1-.1.157,2.457,2.457,0,0,0-.533.656A15.254,15.254,0,0,1,86.017-7.5l1.47-.027q.123,0,.123.109v.52q0,.109-.123.109L85.75-6.815h-.376a15.7,15.7,0,0,1-1.5,1.326h2.119a.479.479,0,0,0,.232-.041.287.287,0,0,1,.116-.027q.089,0,.294.226.253.28.253.39a.177.177,0,0,1-.13.164,1.507,1.507,0,0,0-.431.355A16.88,16.88,0,0,1,85-3.261a.745.745,0,0,0-.014.157v.178q1.258-.246,2.379-.574a2.5,2.5,0,0,0-.055.458q-.007.219-.055.26a.822.822,0,0,1-.253.1q-.868.246-2.017.5v.308l.027,1.586a1.076,1.076,0,0,1-.362.868,2.377,2.377,0,0,1-1.34.267H83.07a.582.582,0,0,1-.246-.027.471.471,0,0,1-.089-.2,1.833,1.833,0,0,0-.28-.6,9.491,9.491,0,0,0,1.107.068q.643,0,.643-.547V-2.03q-.916.185-2.017.349a2.073,2.073,0,0,0-.574.13.277.277,0,0,1-.164.068q-.1,0-.157-.13-.116-.308-.239-.752a12.314,12.314,0,0,0,1.518-.144q.561-.068,1.634-.267a7.763,7.763,0,0,0-.1-1.08l.588.062A8.125,8.125,0,0,0,85.75-4.833H82.961q-.69.472-1.552.943a.872.872,0,0,1-.2.068q-.068,0-.212-.185a1.116,1.116,0,0,0-.335-.349A16.037,16.037,0,0,0,84.3-6.815H82.906l-1.764.027q-.116,0-.116-.109v-.52q0-.109.116-.109l1.764.027h.923V-9.085h-.615l-1.36.027a.1.1,0,0,1-.109-.109v-.52a.1.1,0,0,1,.109-.109l1.36.027h.615v-.144a8.959,8.959,0,0,0-.1-1.593,6.163,6.163,0,0,1,.841.082q.171.021.171.116a.831.831,0,0,1-.089.28,4.678,4.678,0,0,0-.068,1.1v.157l1.3-.027Q86-9.8,86-9.687v.52q0,.109-.116.109l-1.3-.027V-7.5H85a13.293,13.293,0,0,0,1.88-2.5,3.027,3.027,0,0,0,.349-.841,6.386,6.386,0,0,1,.711.383A.238.238,0,0,1,88.088-10.247Zm9.3-1.107q2.406.5,5.236.813l-.226.95a46.623,46.623,0,0,1-5.264-.882Zm-1.935,3.3q2.666-.075,6.761-.431l.588.738q-.991.9-3.473,3.445a1.2,1.2,0,0,1,.451-.082,1.328,1.328,0,0,1,1.06.547,2.644,2.644,0,0,1,.52,1.271,5.244,5.244,0,0,0,.485,1.818.965.965,0,0,0,.807.267,14.864,14.864,0,0,0,1.709-.1V.417q-.69.062-1.709.062a1.984,1.984,0,0,1-1.736-.608,5.1,5.1,0,0,1-.492-1.832,3.638,3.638,0,0,0-.342-1.258.673.673,0,0,0-.608-.349,1.171,1.171,0,0,0-.656.171,2.868,2.868,0,0,0-.588.595q-.971,1.21-2.454,3.295L94.842.014a76.9,76.9,0,0,1,6.228-7.547q-2.857.294-5.544.376Zm19.353-2.208.027.964a5.312,5.312,0,0,0-2.311.629,5.934,5.934,0,0,0-2.071,1.962,4.817,4.817,0,0,0-.813,2.659,2.958,2.958,0,0,0,1.285,2.529,6.17,6.17,0,0,0,2.933,1l-.239,1A6.1,6.1,0,0,1,109.99-.9a3.89,3.89,0,0,1-1.312-3.049,5.709,5.709,0,0,1,2.994-5.024l.759-.335-.014-.027-.656.109q-1.189.068-5.66.479l-.082-.923Q108.021-9.823,114.81-10.261Zm6.863-.8.9.615q-2.119,2.454-4.382,4.607a.681.681,0,0,0-.267.479q0,.226.376.513a45.7,45.7,0,0,1,4.9,4.71l-.868.725A50.559,50.559,0,0,0,117.3-4.478a1.118,1.118,0,0,1-.465-.841,1.139,1.139,0,0,1,.362-.827A64.9,64.9,0,0,0,121.673-11.061Zm5.8,2.126q.191-1.422.267-2.447l1.032.1q-.109,1.025-.321,2.311,1.36-.089,3.1-.239l.014.882q-1.429.15-3.254.239A53.168,53.168,0,0,1,126.1.431L125.118.1a47.881,47.881,0,0,0,2.208-8.148q-1.155.062-2.365.062v-.882Q126.362-8.873,127.47-8.935Zm4.088-2.488.711-.28a18.727,18.727,0,0,1,1.039,2.365l-.759.308A14.486,14.486,0,0,0,131.558-11.423Zm-2.522,8.75.868.068a3.679,3.679,0,0,0-.082.786,1.075,1.075,0,0,0,.513,1.08,4.218,4.218,0,0,0,1.559.191,16.519,16.519,0,0,0,2.167-.109l.055.964Q133.28.39,132.07.39a4.645,4.645,0,0,1-2.5-.472,1.737,1.737,0,0,1-.636-1.531A5.222,5.222,0,0,1,129.035-2.673Zm.711-2.994V-6.6q1.982-.191,4.259-.191v.9A32.162,32.162,0,0,0,129.746-5.667Zm3.363-6.275.7-.253a11.566,11.566,0,0,1,1,2.3l-.731.294A13.487,13.487,0,0,0,133.109-11.942Zm6.85,4.074q-1.682.171-3.937.239l-.055-.9a34.669,34.669,0,0,0,3.623-.185,23.558,23.558,0,0,1-.779-2.42l1.032-.13a17.685,17.685,0,0,0,.759,2.44,28.98,28.98,0,0,0,2.953-.52l.109.9q-1.1.246-2.714.465a14.924,14.924,0,0,0,2.7,4.061l-.6.868a6.488,6.488,0,0,0-3.37-.957,3.2,3.2,0,0,0-2.071.6,1.5,1.5,0,0,0-.6,1.2q0,1.8,3.527,1.8a10.949,10.949,0,0,0,1.873-.144l.014.978a14.375,14.375,0,0,1-1.9.116,7.033,7.033,0,0,1-3.281-.6,2.223,2.223,0,0,1-1.217-2.1,2.317,2.317,0,0,1,1.3-2.153,4.746,4.746,0,0,1,2.317-.526,5.215,5.215,0,0,1,2.7.547A11.752,11.752,0,0,1,139.959-7.868Zm9.673,4.156.854.615Q149.81.28,148.217.28a1.651,1.651,0,0,1-1.538-1.019,9.207,9.207,0,0,1-.718-3.227q-.109-1.312-.109-3.541l.014-2.632h1.012l-.021,2.188q0,2.646.116,3.9.267,3.22,1.217,3.22.485,0,.813-.711A11.913,11.913,0,0,0,149.632-3.712Zm2.1-5.346.909-.267a17.059,17.059,0,0,1,2.427,7.574l-1.053.171A17.589,17.589,0,0,0,151.73-9.058Zm6.945,6.385a1.915,1.915,0,0,1,1.463.643,1.858,1.858,0,0,1,.513,1.306A1.849,1.849,0,0,1,160,.718a1.936,1.936,0,0,1-1.319.5,1.9,1.9,0,0,1-1.463-.643,1.85,1.85,0,0,1-.513-1.3,1.856,1.856,0,0,1,.656-1.449A1.936,1.936,0,0,1,158.676-2.673Zm0,.7a1.181,1.181,0,0,0-.923.417,1.19,1.19,0,0,0-.328.834,1.2,1.2,0,0,0,.417.923,1.2,1.2,0,0,0,.834.321,1.2,1.2,0,0,0,.93-.41,1.219,1.219,0,0,0,.314-.834,1.207,1.207,0,0,0-.4-.93A1.212,1.212,0,0,0,158.676-1.976Z"
									transform="translate(-0.643 12.195)" fill="#595757" />
							</svg>