<svg xmlns="http://www.w3.org/2000/svg" width="199.322" height="13.61"
								viewBox="0 0 199.322 13.61">
								<path id="Контур_1737" data-name="Контур 1737"
									d="M5.236.164A4.327,4.327,0,0,1,1.894-1.21,5.1,5.1,0,0,1,.643-4.785,5.384,5.384,0,0,1,1.921-8.559,4.478,4.478,0,0,1,5.4-9.967,4.209,4.209,0,0,1,8.668-8.6,5.106,5.106,0,0,1,9.912-5.024,5.417,5.417,0,0,1,8.641-1.23,3.773,3.773,0,0,1,8-.656l2.755,1.976H8.668L6.822-.062A5.314,5.314,0,0,1,5.236.164Zm.082-9.092A3.16,3.16,0,0,0,2.81-7.813a4.314,4.314,0,0,0-.964,2.926,4.384,4.384,0,0,0,.937,2.919,3.08,3.08,0,0,0,2.454,1.1A3.218,3.218,0,0,0,7.779-1.921a4.3,4.3,0,0,0,.93-2.946,4.479,4.479,0,0,0-.9-3A3.094,3.094,0,0,0,5.318-8.928ZM12.079.15a.726.726,0,0,1-.537-.226.742.742,0,0,1-.222-.54.754.754,0,0,1,.222-.543.72.72,0,0,1,.537-.229.739.739,0,0,1,.547.229.748.748,0,0,1,.226.543.737.737,0,0,1-.226.54A.745.745,0,0,1,12.079.15Zm6.6-4.307L14.4-3.568l-.157-.923,4.286-.588L18.081-7.6l-3.527.465-.15-.93,3.514-.458-.451-2.55,1.053-.171.444,2.577,3.568-.458.144.923-3.541.458.431,2.509,3.7-.506.137.923-3.664.506.827,4.7L19.523.574Zm9.454-2.659,4.354-.841L33-7.2a12.08,12.08,0,0,1-1.948,4.382l-.854-.513A10.171,10.171,0,0,0,31.78-6.651l-3.459.69L29.654.362l-1,.226L27.3-5.77l-2.263.451-.2-.868,2.283-.437L26.64-8.873l1.025-.2ZM35.26-9.967a23.989,23.989,0,0,1,3.288,2.085l-.7.923a20.356,20.356,0,0,0-3.22-2.181Zm7.055.7,1.053.506a11.411,11.411,0,0,1-2.6,5.8A11.137,11.137,0,0,1,35.178.267L34.7-.684Q41.269-2.3,42.314-9.27ZM47.5-7.923V-11.17h1.066v3.008l5.359-1.217.588.752a17.488,17.488,0,0,1-2.967,5.284L50.661-3.9A12.915,12.915,0,0,0,53.2-8.23L48.563-7.185V-2.14q0,.943.485,1.189a4.62,4.62,0,0,0,1.723.205q1.545,0,3.247-.164V.123q-1.49.1-3.466.1A3.85,3.85,0,0,1,48-.362a2.375,2.375,0,0,1-.506-1.75V-6.945l-2.379.533-.28-.909ZM62.385-1.162a10.457,10.457,0,0,0,3.637-4.812l.718.937A12.739,12.739,0,0,1,61.92.451l-.6-.314v-10.89h1.066Zm-2.98-9.5q0,3.979-.137,5.742a10.742,10.742,0,0,1-.4,2.352A6.553,6.553,0,0,1,56.827.451l-.813-.636a5.191,5.191,0,0,0,1.907-2.782,13.31,13.31,0,0,0,.349-2.878q.068-1.552.068-4.812Zm14,1.88h4.437v.923H73.4V.574H72.338V-7.854H67.956v-.923h4.382V-11.2H73.4ZM70.643-5.961a17.192,17.192,0,0,1-2.03,5.469L67.676-1a14.227,14.227,0,0,0,1.948-5.271Zm4.354.1.978-.362a24.765,24.765,0,0,0,1.989,5.12l-1.019.547A37.42,37.42,0,0,1,75-5.865Zm1.989-6.426a1.5,1.5,0,0,1,1.162.513,1.53,1.53,0,0,1,.4,1.053,1.524,1.524,0,0,1-.513,1.169,1.53,1.53,0,0,1-1.053.4,1.5,1.5,0,0,1-1.162-.52,1.514,1.514,0,0,1-.4-1.053,1.5,1.5,0,0,1,.513-1.162A1.514,1.514,0,0,1,76.986-12.291Zm0,.6a.939.939,0,0,0-.725.314.954.954,0,0,0-.239.649.939.939,0,0,0,.314.725.923.923,0,0,0,.649.246.918.918,0,0,0,.718-.314.947.947,0,0,0,.246-.656.918.918,0,0,0-.314-.718A.923.923,0,0,0,76.986-11.689Zm4.826.923V-3.9h-1.08v-6.863Zm-.4,10.5a5.626,5.626,0,0,0,3.473-1.812,6.149,6.149,0,0,0,.9-3.664v-5.106h1.08V-5.6a6.3,6.3,0,0,1-1.354,4.457A6.837,6.837,0,0,1,81.922.574Zm8.251-6.467.479-.841a28.873,28.873,0,0,1,3.288,1.429l-.52.937A19.992,19.992,0,0,0,89.667-6.733Zm1.258-2.994.52-.827A20.246,20.246,0,0,1,94.637-9.03l-.561.923A17.538,17.538,0,0,0,90.925-9.728ZM98.26-8.8l.971.547a14.6,14.6,0,0,1-1.148,3.151,9.741,9.741,0,0,1-1.47,2.235A10.073,10.073,0,0,1,91.055.123L90.48-.759a9.086,9.086,0,0,0,5.318-2.8A11.559,11.559,0,0,0,98.26-8.8Zm2.324,3.063H108.2V-4.7h-7.615Zm14.827,1.36v2.769h-.937V-3.951q-.321.164-.663.355-1.791,1.012-1.791,2.03a.927.927,0,0,0,.629.943,6.4,6.4,0,0,0,2.078.232q1.47,0,3.411-.171l.041.95q-2.55.13-3.384.13a5.879,5.879,0,0,1-2.967-.513,1.772,1.772,0,0,1-.7-1.6A3.066,3.066,0,0,1,113-4.143q.711-.4,1.456-.772-.068-1.312-.909-1.312-1.176,0-3.227,2.365L109.6-4.5a16.348,16.348,0,0,0,2.9-4.136q-1.278.021-2.563,0V-9.5q1.477.027,2.953,0a12.51,12.51,0,0,0,.629-1.873l1.012.185a14.376,14.376,0,0,1-.588,1.647q1.969-.062,3.739-.239l.027.854q-2.3.185-4.143.239a14.3,14.3,0,0,1-1.176,1.989l-.355.362.041.055a2.492,2.492,0,0,1,1.668-.711,1.521,1.521,0,0,1,1.114.424,1.982,1.982,0,0,1,.526,1.217q1.094-.5,2.844-1.237l.39.957Q116.341-4.792,115.411-4.382ZM133.055.068a1.434,1.434,0,0,0-.424.54q-.1.212-.164.212a.578.578,0,0,1-.2-.109,14.113,14.113,0,0,1-2.714-2.775A10.358,10.358,0,0,1,125.966.848a.66.66,0,0,1-.219.082q-.075,0-.185-.164A1.555,1.555,0,0,0,125.111.3a9.345,9.345,0,0,0,3.979-3.076,12.462,12.462,0,0,1-1.271-3.459q-.287.567-.663,1.162-.1.164-.164.164t-.2-.137a1.192,1.192,0,0,0-.431-.294,13.241,13.241,0,0,0,2.181-5.175,5.121,5.121,0,0,0,.1-.957v-.123a5.486,5.486,0,0,1,.807.2q.171.048.171.164a.448.448,0,0,1-.116.239,1.9,1.9,0,0,0-.219.656q-.205.854-.465,1.654h2.324l1.511-.027q.116,0,.116.109v.561q0,.109-.116.109l-.15-.007q-.438-.014-.984-.021a11.579,11.579,0,0,1-1.5,5.2A11.372,11.372,0,0,0,133.055.068Zm-2.338-8.025h-2.16L128.3-7.3a12.8,12.8,0,0,0,1.251,3.78A11.19,11.19,0,0,0,130.717-7.957Zm-3.315-2.29a.194.194,0,0,1-.1.157,2.457,2.457,0,0,0-.533.656A15.254,15.254,0,0,1,125.33-7.5l1.47-.027q.123,0,.123.109v.52q0,.109-.123.109l-1.736-.027h-.376a15.7,15.7,0,0,1-1.5,1.326H125.3a.479.479,0,0,0,.232-.041.287.287,0,0,1,.116-.027q.089,0,.294.226.253.28.253.39a.177.177,0,0,1-.13.164,1.507,1.507,0,0,0-.431.355,16.88,16.88,0,0,1-1.319,1.162.745.745,0,0,0-.014.157v.178q1.258-.246,2.379-.574a2.5,2.5,0,0,0-.055.458q-.007.219-.055.26a.822.822,0,0,1-.253.1q-.868.246-2.017.5v.308l.027,1.586a1.076,1.076,0,0,1-.362.868,2.377,2.377,0,0,1-1.34.267h-.246a.582.582,0,0,1-.246-.027.471.471,0,0,1-.089-.2,1.833,1.833,0,0,0-.28-.6,9.491,9.491,0,0,0,1.107.068q.643,0,.643-.547V-2.03q-.916.185-2.017.349a2.073,2.073,0,0,0-.574.13.277.277,0,0,1-.164.068q-.1,0-.157-.13-.116-.308-.239-.752a12.314,12.314,0,0,0,1.518-.144q.561-.068,1.634-.267a7.763,7.763,0,0,0-.1-1.08l.588.062a8.125,8.125,0,0,0,1.053-1.039h-2.789q-.69.472-1.552.943a.872.872,0,0,1-.2.068q-.068,0-.212-.185a1.116,1.116,0,0,0-.335-.349,16.037,16.037,0,0,0,3.637-2.461H122.22l-1.764.027q-.116,0-.116-.109v-.52q0-.109.116-.109l1.764.027h.923V-9.085h-.615l-1.36.027a.1.1,0,0,1-.109-.109v-.52a.1.1,0,0,1,.109-.109l1.36.027h.615v-.144a8.959,8.959,0,0,0-.1-1.593,6.163,6.163,0,0,1,.841.082q.171.021.171.116a.831.831,0,0,1-.089.28,4.678,4.678,0,0,0-.068,1.1v.157l1.3-.027q.116,0,.116.109v.52q0,.109-.116.109l-1.3-.027V-7.5h.417a13.293,13.293,0,0,0,1.88-2.5,3.027,3.027,0,0,0,.349-.841,6.386,6.386,0,0,1,.711.383A.238.238,0,0,1,127.4-10.247Zm9.3-1.107q2.406.5,5.236.813l-.226.95a46.623,46.623,0,0,1-5.264-.882Zm-1.935,3.3q2.666-.075,6.761-.431l.588.738q-.991.9-3.473,3.445a1.2,1.2,0,0,1,.451-.082,1.328,1.328,0,0,1,1.06.547,2.644,2.644,0,0,1,.52,1.271,5.243,5.243,0,0,0,.485,1.818.965.965,0,0,0,.807.267,14.865,14.865,0,0,0,1.709-.1V.417q-.69.062-1.709.062a1.984,1.984,0,0,1-1.736-.608,5.1,5.1,0,0,1-.492-1.832A3.638,3.638,0,0,0,139.4-3.22a.673.673,0,0,0-.608-.349,1.171,1.171,0,0,0-.656.171,2.868,2.868,0,0,0-.588.595q-.971,1.21-2.454,3.295l-.937-.479a76.9,76.9,0,0,1,6.228-7.547q-2.857.294-5.544.376Zm19.353-2.208.027.964a5.312,5.312,0,0,0-2.311.629,5.934,5.934,0,0,0-2.071,1.962,4.817,4.817,0,0,0-.813,2.659,2.958,2.958,0,0,0,1.285,2.529,6.17,6.17,0,0,0,2.933,1l-.239,1A6.1,6.1,0,0,1,149.3-.9a3.89,3.89,0,0,1-1.312-3.049,5.709,5.709,0,0,1,2.994-5.024l.759-.335-.014-.027-.656.109q-1.189.068-5.66.479l-.082-.923Q147.335-9.823,154.123-10.261Zm6.863-.8.9.615q-2.119,2.454-4.382,4.607a.681.681,0,0,0-.267.479q0,.226.376.513a45.7,45.7,0,0,1,4.9,4.71l-.868.725a50.559,50.559,0,0,0-5.024-5.065,1.118,1.118,0,0,1-.465-.841,1.139,1.139,0,0,1,.362-.827A64.9,64.9,0,0,0,160.986-11.061Zm5.8,2.126q.191-1.422.267-2.447l1.032.1q-.109,1.025-.321,2.311,1.36-.089,3.1-.239l.014.882q-1.429.15-3.254.239A53.168,53.168,0,0,1,165.409.431L164.432.1a47.881,47.881,0,0,0,2.208-8.148q-1.155.062-2.365.062v-.882Q165.676-8.873,166.783-8.935Zm4.088-2.488.711-.28a18.727,18.727,0,0,1,1.039,2.365l-.759.308A14.486,14.486,0,0,0,170.871-11.423Zm-2.522,8.75.868.068a3.679,3.679,0,0,0-.082.786,1.075,1.075,0,0,0,.513,1.08,4.218,4.218,0,0,0,1.559.191,16.519,16.519,0,0,0,2.167-.109l.055.964q-.834.082-2.044.082a4.645,4.645,0,0,1-2.5-.472,1.737,1.737,0,0,1-.636-1.531A5.222,5.222,0,0,1,168.349-2.673Zm.711-2.994V-6.6q1.982-.191,4.259-.191v.9A32.162,32.162,0,0,0,169.06-5.667Zm3.363-6.275.7-.253a11.566,11.566,0,0,1,1,2.3l-.731.294A13.487,13.487,0,0,0,172.423-11.942Zm6.85,4.074q-1.682.171-3.937.239l-.055-.9a34.669,34.669,0,0,0,3.623-.185,23.558,23.558,0,0,1-.779-2.42l1.032-.13a17.685,17.685,0,0,0,.759,2.44,28.98,28.98,0,0,0,2.953-.52l.109.9q-1.1.246-2.714.465a14.924,14.924,0,0,0,2.7,4.061l-.6.868a6.488,6.488,0,0,0-3.37-.957,3.2,3.2,0,0,0-2.071.6,1.5,1.5,0,0,0-.6,1.2q0,1.8,3.527,1.8a10.949,10.949,0,0,0,1.873-.144l.014.978a14.375,14.375,0,0,1-1.9.116,7.033,7.033,0,0,1-3.281-.6,2.223,2.223,0,0,1-1.217-2.1,2.317,2.317,0,0,1,1.3-2.153,4.746,4.746,0,0,1,2.317-.526,5.215,5.215,0,0,1,2.7.547A11.752,11.752,0,0,1,179.272-7.868Zm9.673,4.156.854.615Q189.123.28,187.53.28a1.651,1.651,0,0,1-1.538-1.019,9.207,9.207,0,0,1-.718-3.227q-.109-1.312-.109-3.541l.014-2.632h1.012L186.17-7.95q0,2.646.116,3.9.267,3.22,1.217,3.22.485,0,.813-.711A11.913,11.913,0,0,0,188.945-3.712Zm2.1-5.346.909-.267A17.059,17.059,0,0,1,194.38-1.75l-1.053.171A17.589,17.589,0,0,0,191.044-9.058Zm6.945,6.385a1.915,1.915,0,0,1,1.463.643,1.858,1.858,0,0,1,.513,1.306,1.849,1.849,0,0,1-.656,1.442,1.936,1.936,0,0,1-1.319.5,1.9,1.9,0,0,1-1.463-.643,1.85,1.85,0,0,1-.513-1.3,1.856,1.856,0,0,1,.656-1.449A1.936,1.936,0,0,1,197.989-2.673Zm0,.7a1.181,1.181,0,0,0-.923.417,1.19,1.19,0,0,0-.328.834,1.2,1.2,0,0,0,.417.923,1.2,1.2,0,0,0,.834.321,1.2,1.2,0,0,0,.93-.41,1.219,1.219,0,0,0,.314-.834,1.207,1.207,0,0,0-.4-.93A1.212,1.212,0,0,0,197.989-1.976Z"
									transform="translate(-0.643 12.291)" fill="#595757" />
							</svg>