	<svg xmlns="http://www.w3.org/2000/svg" width="307.913" height="51.494"
								viewBox="0 0 307.913 51.494">
								<path id="Контур_1739" data-name="Контур 1739"
									d="M8.873,0H7.6L6.563-2.748H2.406L1.429,0H.15L3.91-9.8H5.1ZM6.187-3.78,4.648-7.957a4,4,0,0,1-.15-.656H4.471a3.661,3.661,0,0,1-.157.656L2.789-3.78ZM10.555.15a.726.726,0,0,1-.537-.226A.742.742,0,0,1,9.8-.615a.754.754,0,0,1,.222-.543.72.72,0,0,1,.537-.229.739.739,0,0,1,.547.229.748.748,0,0,1,.226.543.737.737,0,0,1-.226.54A.745.745,0,0,1,10.555.15Z"
									transform="translate(-0.15 13.277)" fill="#595757" />
								<path id="Контур_1738" data-name="Контур 1738"
									d="M13.063,9.2q0,.116-.171.212a2.011,2.011,0,0,0-.5.465,11.817,11.817,0,0,1-1.812,1.736q-.144.123-.2.123a.871.871,0,0,1-.232-.157,2.794,2.794,0,0,0-.608-.335,8.584,8.584,0,0,0,1.989-1.736H7.643V12.58l.014,1.914a1.242,1.242,0,0,1-.362,1.025,3.378,3.378,0,0,1-1.709.267H5.291q-.232,0-.273-.048a.64.64,0,0,1-.089-.246,2.856,2.856,0,0,0-.28-.69,14.115,14.115,0,0,0,1.456.089.739.739,0,0,0,.513-.13.585.585,0,0,0,.116-.417V9.511H3.192l-1.866.027a.1.1,0,0,1-.109-.109V8.752a.1.1,0,0,1,.109-.109l1.866.027h4.4A14.828,14.828,0,0,0,4.635,6.544Q4.56,6.5,4.56,6.482a.6.6,0,0,1,.1-.15l.28-.321q.075-.082.116-.082a.148.148,0,0,1,.075.034,15.9,15.9,0,0,1,1.784,1.1,17.941,17.941,0,0,0,3.09-2.071H4.5L2.536,5.02q-.1,0-.1-.109V4.261q0-.109.1-.109L4.5,4.179H10.37a1.046,1.046,0,0,0,.342-.041,1.254,1.254,0,0,1,.191-.068q.13,0,.438.308t.308.465q0,.116-.2.191a1.606,1.606,0,0,0-.485.294A18.988,18.988,0,0,1,7.6,7.563q.253.205.841.731.048.041.048.062a.686.686,0,0,1-.123.13l-.191.185h3.637a.792.792,0,0,0,.355-.055.42.42,0,0,1,.164-.055,1.068,1.068,0,0,1,.451.267Q13.063,9.073,13.063,9.2Zm7.369,1.306a.268.268,0,0,1,.021.089q0,.075-.178.13l-.321.1a.579.579,0,0,1-.137.027q-.062,0-.082-.089-.205-.629-.267-.807l-1.347.137v3.753l.027,2.044q0,.1-.109.1H17.4q-.109,0-.109-.1l.027-2.044V10.167l-1.538.116a1.534,1.534,0,0,0-.533.109.422.422,0,0,1-.157.055q-.089,0-.137-.178-.055-.212-.144-.772.444.041.882.041h.171q.5-.649,1.053-1.456a19.586,19.586,0,0,0-2.064-2.153.146.146,0,0,1-.062-.1q0-.041.109-.157l.239-.294q.089-.1.13-.1t.089.062l.533.52q.52-.807.923-1.586a3.59,3.59,0,0,0,.369-.95q.376.15.779.349.157.075.157.185,0,.075-.123.15a.821.821,0,0,0-.239.294q-.738,1.224-1.347,2.085.479.479.937,1.025.52-.834.909-1.5a6.472,6.472,0,0,0,.561-1.189,5.8,5.8,0,0,1,.772.39.209.209,0,0,1,.123.171q0,.089-.137.178a2.63,2.63,0,0,0-.492.615Q17.931,7.925,16.748,9.5q1.354-.075,2.468-.164a10.8,10.8,0,0,0-.547-1.08.168.168,0,0,1-.027-.075q0-.055.164-.123l.253-.1a.369.369,0,0,1,.15-.048q.055,0,.1.075A14.108,14.108,0,0,1,20.433,10.509Zm6.31-4.58q-.027.355-.027,1.066a45.94,45.94,0,0,1-.451,6.788,3.462,3.462,0,0,1-.608,1.634,1.439,1.439,0,0,1-1.142.479,10.86,10.86,0,0,1-1.3-.068.457.457,0,0,1-.267-.075.769.769,0,0,1-.082-.26,2.124,2.124,0,0,0-.226-.629,12.161,12.161,0,0,0,1.818.191.759.759,0,0,0,.69-.506,4.283,4.283,0,0,0,.294-1.073,44.315,44.315,0,0,0,.39-6.87H21.745a11.224,11.224,0,0,1-1.176,1.818q-.116.157-.2.157t-.205-.144a1.731,1.731,0,0,0-.451-.335,10.017,10.017,0,0,0,2.03-3.568A5.634,5.634,0,0,0,22.012,3.3a6.023,6.023,0,0,1,.868.226q.2.068.2.171a.392.392,0,0,1-.123.246,1.736,1.736,0,0,0-.355.677q-.144.451-.479,1.217h2.987l1.511-.027A.109.109,0,0,1,26.742,5.929Zm-2.9,5.558a.221.221,0,0,1,.034.089q0,.055-.144.137l-.39.219a.535.535,0,0,1-.185.089q-.041,0-.082-.082a11.6,11.6,0,0,0-1.7-2.68.131.131,0,0,1-.048-.082q0-.048.144-.137l.349-.212a.282.282,0,0,1,.13-.062q.034,0,.082.062A11.163,11.163,0,0,1,23.844,11.486ZM16.5,11.473a.658.658,0,0,1-.068.164,1.3,1.3,0,0,0-.1.41,11.775,11.775,0,0,1-.684,2.728q-.055.2-.123.2a.525.525,0,0,1-.212-.109,1.1,1.1,0,0,0-.479-.212,10.723,10.723,0,0,0,.759-2.762,2.92,2.92,0,0,0,.034-.437q0-.089-.007-.232a5.67,5.67,0,0,1,.684.109Q16.5,11.37,16.5,11.473Zm3.9,2.475a.225.225,0,0,1,.007.055q0,.1-.171.157l-.335.1a.612.612,0,0,1-.157.034q-.055,0-.082-.1a14.687,14.687,0,0,0-.731-2.687.262.262,0,0,1-.021-.082q0-.075.164-.116l.294-.082a.561.561,0,0,1,.116-.021q.068,0,.123.1A13.74,13.74,0,0,1,20.4,13.947ZM39.129,15.4a.1.1,0,0,1-.109.109h-.677a.1.1,0,0,1-.109-.109v-.854h-6.48v.882q0,.109-.1.109h-.69a.1.1,0,0,1-.109-.109l.027-4.8v-2.7L30.857,4.4q0-.116.109-.116l1.948.027h4.156l1.948-.027q.109,0,.109.116L39.1,7.576v3.056Zm-.9-1.654V9.7h-6.48v4.054Zm0-4.84V5.115h-6.48V8.909Zm8.6,5.291q0,.116-.109.116h-.581q-.109,0-.109-.116v-.7H44.215v1.162a.1.1,0,0,1-.109.109h-.595a.1.1,0,0,1-.109-.109l.027-4.32V7.59L43.4,4.315a.1.1,0,0,1,.109-.109l1.121.027H45.6l1.121-.027a.1.1,0,0,1,.109.109l-.027,2.83v2.905Zm-.8-1.442V9.128H44.215v3.63Zm0-4.354V4.979H44.215V8.4Zm9.283.089a.1.1,0,0,1-.109.109l-1.935-.027H49.294L47.38,8.6a.1.1,0,0,1-.109-.109V7.911A.1.1,0,0,1,47.38,7.8l1.914.027H50.6V5.97h-.868L47.94,6q-.13,0-.13-.116V5.327q0-.123.13-.123l1.791.027H50.6a11.93,11.93,0,0,0-.1-1.791q.567.021.909.068.171.027.171.123s-.023.089-.068.253a5.578,5.578,0,0,0-.089,1.347H52.7L54.5,5.2q.109,0,.109.123v.561Q54.605,6,54.5,6L52.7,5.97H51.427V7.829h1.846L55.207,7.8a.1.1,0,0,1,.109.109Zm-.171,2.5a.1.1,0,0,1-.109.109l-1.682-.027v1.9l.014,1.791a1.053,1.053,0,0,1-.39.937,3.4,3.4,0,0,1-1.627.239.487.487,0,0,1-.26-.041A.592.592,0,0,1,51,15.67a1.986,1.986,0,0,0-.28-.629q.567.055,1.313.055.492,0,.492-.513V11.069H49.362l-1.9.027q-.116,0-.116-.109v-.581q0-.1.116-.1l1.9.014h3.165V10.3a8.226,8.226,0,0,0-.1-1.483,6.171,6.171,0,0,1,.9.1q.185.021.185.116a.636.636,0,0,1-.082.232,3.673,3.673,0,0,0-.075,1v.068l1.682-.014q.109,0,.109.1Zm-4.56,2.57a.173.173,0,0,1,.027.082q0,.055-.1.13l-.376.253a.478.478,0,0,1-.164.089q-.041,0-.075-.062a8.338,8.338,0,0,0-1.34-1.75.131.131,0,0,1-.048-.082q0-.055.13-.13l.335-.212a.35.35,0,0,1,.13-.055.169.169,0,0,1,.1.041A8.419,8.419,0,0,1,50.586,13.558ZM62.4,5.847a22.039,22.039,0,0,1-1.483,7.362,2.1,2.1,0,0,1-1.894,1.483,1.749,1.749,0,0,1-1.606-1.06,6,6,0,0,1-.533-2.789,7.335,7.335,0,0,1,.458-2.618A5.114,5.114,0,0,1,58.379,6.5a4.675,4.675,0,0,1,1.716-1.128,5.426,5.426,0,0,1,1.969-.369,4.139,4.139,0,0,1,3.555,1.5,6.371,6.371,0,0,1,.964,3.808,5.114,5.114,0,0,1-1.121,3.4,5.6,5.6,0,0,1-3.274,1.784l-.485-.841a4.243,4.243,0,0,0,3.835-4.607,4.671,4.671,0,0,0-1.032-3.3A2.809,2.809,0,0,0,62.4,5.847Zm-1.053.109a3.075,3.075,0,0,0-1.292.4,4.459,4.459,0,0,0-1.06.93,5.252,5.252,0,0,0-1.148,3.582A4.6,4.6,0,0,0,58.256,13q.328.615.752.615a.82.82,0,0,0,.622-.26,2.544,2.544,0,0,0,.444-.759A19.819,19.819,0,0,0,61.346,5.956ZM72.372,15H71.251V6.53a2.6,2.6,0,0,1-.379.3,6.184,6.184,0,0,1-.561.332q-.311.164-.656.308a4.769,4.769,0,0,1-.673.226V6.558a6.518,6.518,0,0,0,.783-.277q.414-.174.813-.39t.755-.451a6,6,0,0,0,.615-.461h.424Zm7.431-.8q0,.116-.109.116h-.581Q79,14.316,79,14.2v-.7H77.185v1.162a.1.1,0,0,1-.109.109H76.48a.1.1,0,0,1-.109-.109l.027-4.32V7.59l-.027-3.274a.1.1,0,0,1,.109-.109l1.121.027h.971l1.121-.027a.1.1,0,0,1,.109.109l-.027,2.83v2.905ZM79,12.758V9.128H77.185v3.63ZM79,8.4V4.979H77.185V8.4Zm9.283.089a.1.1,0,0,1-.109.109l-1.935-.027H82.264L80.35,8.6a.1.1,0,0,1-.109-.109V7.911A.1.1,0,0,1,80.35,7.8l1.914.027h1.306V5.97H82.7L80.91,6q-.13,0-.13-.116V5.327q0-.123.13-.123l1.791.027h.868a11.93,11.93,0,0,0-.1-1.791q.567.021.909.068.171.027.171.123s-.023.089-.068.253A5.578,5.578,0,0,0,84.4,5.231h1.271l1.8-.027q.109,0,.109.123v.561q0,.116-.109.116l-1.8-.034H84.4V7.829h1.846L88.177,7.8a.1.1,0,0,1,.109.109Zm-.171,2.5a.1.1,0,0,1-.109.109l-1.682-.027v1.9l.014,1.791a1.053,1.053,0,0,1-.39.937,3.4,3.4,0,0,1-1.627.239.487.487,0,0,1-.26-.041.592.592,0,0,1-.089-.226,1.986,1.986,0,0,0-.28-.629Q84.26,15.1,85,15.1q.492,0,.492-.513V11.069H82.332l-1.9.027q-.116,0-.116-.109v-.581q0-.1.116-.1l1.9.014H85.5V10.3a8.226,8.226,0,0,0-.1-1.483,6.171,6.171,0,0,1,.9.1q.185.021.185.116a.636.636,0,0,1-.082.232,3.673,3.673,0,0,0-.075,1v.068l1.682-.014q.109,0,.109.1Zm-4.56,2.57a.173.173,0,0,1,.027.082q0,.055-.1.13l-.376.253a.478.478,0,0,1-.164.089q-.041,0-.075-.062a8.338,8.338,0,0,0-1.34-1.75.131.131,0,0,1-.048-.082q0-.055.13-.13l.335-.212a.35.35,0,0,1,.13-.055.169.169,0,0,1,.1.041A8.418,8.418,0,0,1,83.556,13.558Zm18.026.82a1.3,1.3,0,0,1-.362,1.066,1.185,1.185,0,0,1-.608.232,9.469,9.469,0,0,1-1.142.048.409.409,0,0,1-.239-.041.64.64,0,0,1-.082-.226,2.378,2.378,0,0,0-.253-.615,9.706,9.706,0,0,0,1.08.055.91.91,0,0,0,.622-.144.833.833,0,0,0,.116-.526V8.191h-2.55l-1.511.027q-.123,0-.123-.109l.027-1.2V5.225l-.027-1.2q0-.109.123-.109l1.511.027h1.777l1.518-.027a.1.1,0,0,1,.109.109l-.027,2v6.357Zm-.868-6.856V6.387H97.357V7.521Zm0-1.8V4.623H97.357V5.717Zm-5.5,2.393a.1.1,0,0,1-.109.109l-1.4-.027H91.226v4.689l.027,2.912a.1.1,0,0,1-.109.109H90.48a.1.1,0,0,1-.109-.109l.027-2.912V6.961l-.027-2.939a.1.1,0,0,1,.109-.109l1.586.027h1.641l1.4-.027a.1.1,0,0,1,.109.109L95.19,5.313V6.824Zm-.827-.588V6.387H91.226V7.521Zm0-1.8V4.623H91.226V5.717Zm3.9,8.866q0,.109-.116.109H97.6a.1.1,0,0,1-.109-.109V14H94.322v.725q0,.13-.109.13h-.574q-.116,0-.116-.13l.027-2.461V11.083l-.027-1.627a.1.1,0,0,1,.109-.109l1.463.027h1.62l1.463-.027a.1.1,0,0,1,.109.109l-.027,1.415v1.292Zm-.8-1.258V11.979H94.322v1.347Zm0-2V10.044H94.322v1.278Zm12.12,3.37a1.186,1.186,0,0,1-.294.937,3.387,3.387,0,0,1-1.6.226.546.546,0,0,1-.26-.034.614.614,0,0,1-.075-.232,1.944,1.944,0,0,0-.253-.561q.6.041,1.053.041a.806.806,0,0,0,.513-.109.492.492,0,0,0,.1-.362V12.9h-2.953v1.162l.027,1.818q0,.1-.109.1h-.636q-.109,0-.109-.1l.027-1.818V9.627l-.027-1.853a.1.1,0,0,1,.109-.109l1.415.027h1.545l1.415-.027a.1.1,0,0,1,.109.109L109.58,9.7v3.151Zm-.813-2.536V10.618h-2.953v1.538Zm0-2.249V8.417h-2.953v1.49ZM116.1,6.339q0,.109-.116.109l-1.832-.027h-8.326L104,6.448a.1.1,0,0,1-.109-.109V5.73A.1.1,0,0,1,104,5.621l1.825.027h4.956a15.964,15.964,0,0,0,1.087-1.627,3.514,3.514,0,0,0,.308-.738,5.771,5.771,0,0,1,.841.267q.144.055.144.15t-.13.171a2.683,2.683,0,0,0-.444.574q-.4.608-.868,1.2h2.434l1.832-.027q.116,0,.116.109Zm-.964,1.285a1.063,1.063,0,0,1-.1.28,6.289,6.289,0,0,0-.055,1.176v3.445l.014,1.955a1.245,1.245,0,0,1-.39,1.08,1.41,1.41,0,0,1-.629.212,12.28,12.28,0,0,1-1.237.041.465.465,0,0,1-.26-.041.623.623,0,0,1-.089-.239,1.521,1.521,0,0,0-.267-.6,11.393,11.393,0,0,0,1.319.068.8.8,0,0,0,.567-.144.767.767,0,0,0,.144-.54V9.094a9.328,9.328,0,0,0-.1-1.654q.485.021.909.075Q115.138,7.535,115.138,7.624Zm-2.789.615a.361.361,0,0,1-.034.123.892.892,0,0,0-.048.116,7.227,7.227,0,0,0-.055,1.258v1.791l.027,1.442q0,.109-.1.109h-.636a.1.1,0,0,1-.109-.109l.027-1.442V9.75a10.431,10.431,0,0,0-.1-1.723,8.388,8.388,0,0,1,.868.082Q112.349,8.137,112.349,8.239Zm-3.767-3.274a.161.161,0,0,1,.021.068q0,.048-.171.123l-.4.157a.585.585,0,0,1-.185.062q-.048,0-.082-.089a8.922,8.922,0,0,0-.882-1.531.166.166,0,0,1-.041-.082q0-.048.144-.1l.39-.157a.627.627,0,0,1,.164-.055.129.129,0,0,1,.089.055A7.82,7.82,0,0,1,108.582,4.965Zm14.9,5.653v2.769h-.937V11.049q-.321.164-.663.355-1.791,1.012-1.791,2.03a.927.927,0,0,0,.629.943,6.4,6.4,0,0,0,2.078.232q1.47,0,3.411-.171l.041.95q-2.55.13-3.384.13a5.879,5.879,0,0,1-2.967-.513,1.772,1.772,0,0,1-.7-1.6,3.066,3.066,0,0,1,1.88-2.55q.711-.4,1.456-.772-.068-1.312-.909-1.312-1.176,0-3.227,2.365l-.725-.643a16.348,16.348,0,0,0,2.9-4.136q-1.278.021-2.563,0V5.5q1.477.027,2.953,0a12.51,12.51,0,0,0,.629-1.873l1.012.185a14.376,14.376,0,0,1-.588,1.647q1.969-.062,3.739-.239l.027.854q-2.3.185-4.143.239a14.3,14.3,0,0,1-1.176,1.989l-.355.362.041.055a2.492,2.492,0,0,1,1.668-.711,1.521,1.521,0,0,1,1.114.424,1.982,1.982,0,0,1,.526,1.217q1.094-.5,2.844-1.237l.39.957Q124.407,10.208,123.478,10.618ZM140.335,4.78q-.027.424-.027,1.224A47.573,47.573,0,0,1,139.8,13.5a2.914,2.914,0,0,1-.731,1.7,1.682,1.682,0,0,1-1.183.39,10.437,10.437,0,0,1-1.148-.068.453.453,0,0,1-.232-.068.519.519,0,0,1-.062-.226,2.194,2.194,0,0,0-.2-.663,10.059,10.059,0,0,0,1.565.157.9.9,0,0,0,.779-.376,2.905,2.905,0,0,0,.355-1.08,53.717,53.717,0,0,0,.492-7.772h-2.748a18.09,18.09,0,0,1-.793,5.975,7.812,7.812,0,0,1-4.033,4.218.685.685,0,0,1-.239.082q-.068,0-.212-.137a2.058,2.058,0,0,0-.574-.451,7.136,7.136,0,0,0,4.272-4,11.223,11.223,0,0,0,.608-2.83q.109-1.087.123-2.857h-.479l-1.8.027q-.116,0-.116-.109V4.767q0-.1.116-.1l1.8.027H138.4l1.812-.027Q140.335,4.671,140.335,4.78Zm-6.467,2.509v.048q0,.075-.1.089-.4.055-1.634.321l-1.415.308v3.336q0,.458.185.588a2.331,2.331,0,0,0,1.647-.089.978.978,0,0,0,.328-.643,8.244,8.244,0,0,0,.1-1.23,2.658,2.658,0,0,0,.547.321.684.684,0,0,1,.191.109.173.173,0,0,1,.034.123q0,.034-.007.116a4.344,4.344,0,0,1-.246,1.347,1.211,1.211,0,0,1-.437.52,2.665,2.665,0,0,1-1.511.321,2.748,2.748,0,0,1-1.217-.185q-.451-.232-.451-1.032V8.226q-.731.15-1.271.28-.349.082-.369.082a.288.288,0,0,1-.048.007q-.062,0-.075-.1l-.1-.629a.411.411,0,0,1-.007-.062q0-.055.1-.068.444-.048,1.627-.294l.137-.027V5.847a15.131,15.131,0,0,0-.082-2.044,6.592,6.592,0,0,1,.9.082q.2.041.2.123a.639.639,0,0,1-.082.267,7.145,7.145,0,0,0-.089,1.586V7.241l1.347-.294q.731-.157,1.244-.287l.349-.089a.42.42,0,0,1,.055-.007q.048,0,.055.089Zm9.775-2.748q1.853-.014,5.694-.2l.588.731Q147.2,7.843,145.6,9.23l-.629.547.055.041.718-.485a4.614,4.614,0,0,1,1.976-.533,3.547,3.547,0,0,1,2.707,1,3.071,3.071,0,0,1,.807,2.208,3.316,3.316,0,0,1-1.278,2.844,5.317,5.317,0,0,1-3.22.848q-2.741,0-2.741-1.859a1.625,1.625,0,0,1,.588-1.312,2.172,2.172,0,0,1,1.429-.451,2.3,2.3,0,0,1,1.777.752,3.445,3.445,0,0,1,.786,1.682,2.579,2.579,0,0,0,1.258-.978,2.922,2.922,0,0,0,.362-1.538,2.231,2.231,0,0,0-.868-1.873,2.671,2.671,0,0,0-1.668-.526,4.9,4.9,0,0,0-3.384,1.36,12.448,12.448,0,0,0-1.162,1.217l-.827-.67q3.35-3.445,6.132-6.275-2.01.15-4.771.226Zm3.944,10.247a3.024,3.024,0,0,0-.622-1.429,1.275,1.275,0,0,0-.984-.472,1.119,1.119,0,0,0-.807.3.828.828,0,0,0-.273.622.87.87,0,0,0,.465.827,2.872,2.872,0,0,0,1.3.226A6.036,6.036,0,0,0,147.588,14.788Zm9.331-6.412q1.429-.854,3.274-1.818l.5.882a29.874,29.874,0,0,0-4.464,2.5,3.4,3.4,0,0,0-1.709,2.714q0,1.8,2.885,1.8,1.483,0,3.391-.137v1q-2.345.068-3.459.068-3.78,0-3.78-2.755,0-2.085,2.475-3.7-.588-2.14-1.087-5.024l1.032-.041A41.144,41.144,0,0,0,156.919,8.376ZM167.3,10.844l-4.279.588-.157-.923,4.286-.588L166.694,7.4l-3.527.465-.15-.93,3.514-.458-.451-2.55,1.053-.171.444,2.577,3.568-.458.144.923-3.541.458.431,2.509,3.7-.506.137.923-3.664.506.827,4.7-1.039.185Zm9.454-2.659,4.354-.841.506.458a12.08,12.08,0,0,1-1.948,4.382l-.854-.513a10.171,10.171,0,0,0,1.586-3.322l-3.459.69,1.333,6.323-1,.226-1.36-6.357-2.263.451-.2-.868,2.283-.437-.479-2.249,1.025-.2Zm7.123-3.151a23.989,23.989,0,0,1,3.288,2.085l-.7.923a20.356,20.356,0,0,0-3.22-2.181Zm7.055.7,1.053.506a11.411,11.411,0,0,1-2.6,5.8,11.137,11.137,0,0,1-5.585,3.227l-.479-.95Q189.882,12.7,190.928,5.73Zm5.182,1.347V3.83h1.066V6.838l5.359-1.217.588.752a17.487,17.487,0,0,1-2.967,5.284l-.882-.561a12.915,12.915,0,0,0,2.536-4.327l-4.635,1.046V12.86q0,.943.485,1.189a4.62,4.62,0,0,0,1.723.205q1.545,0,3.247-.164v1.032q-1.49.1-3.466.1a3.85,3.85,0,0,1-2.55-.588,2.375,2.375,0,0,1-.506-1.75V8.055l-2.379.533-.28-.909ZM211,13.838a10.457,10.457,0,0,0,3.637-4.812l.718.937a12.739,12.739,0,0,1-4.819,5.489l-.6-.314V4.247H211Zm-2.98-9.5q0,3.979-.137,5.742a10.742,10.742,0,0,1-.4,2.352,6.553,6.553,0,0,1-2.044,3.015l-.813-.636a5.191,5.191,0,0,0,1.907-2.782,13.31,13.31,0,0,0,.349-2.878q.068-1.552.068-4.812Zm13.932,7.144a2.635,2.635,0,0,0-.335.52q-.089.15-.144.15-.021,0-.137-.137a13.057,13.057,0,0,1-1.442-2.55q.007,2.153.062,4.614.014.574.034,1.388.014.383.014.424,0,.1-.109.1h-.649q-.109,0-.109-.1,0-.027.021-1,.068-2.926.089-5.312a18.978,18.978,0,0,1-2.1,4.2q-.1.137-.137.137-.062,0-.144-.171a1.218,1.218,0,0,0-.349-.5,16.365,16.365,0,0,0,2.461-4.464h-.533l-1.511.027q-.109,0-.109-.1v-.54q0-.116.109-.116l1.511.027h.731V5.074a10.575,10.575,0,0,0-.1-1.7q.6.027.868.068.185.027.185.13a.775.775,0,0,1-.1.267,5.36,5.36,0,0,0-.068,1.217V8.082h.267l1.511-.027q.109,0,.109.116v.54q0,.1-.109.1l-1.511-.027h-.157A11.89,11.89,0,0,0,221.949,11.486Zm7.178.055a.158.158,0,0,1,.014.055q0,.041-.109.075-.889.144-1.654.294v1.483l.027,2.42a.1.1,0,0,1-.109.109h-.677a.1.1,0,0,1-.109-.109l.027-2.406V12.129l-2.673.52q-.807.157-1.422.294-.4.082-.41.089a.411.411,0,0,1-.062.007q-.055,0-.068-.109l-.109-.6a.294.294,0,0,1-.007-.055q0-.055.1-.075.027-.007.232-.034.7-.1,1.613-.287l2.8-.561V5.45a14,14,0,0,0-.1-1.914,8.417,8.417,0,0,1,.909.068q.185.027.185.123a.908.908,0,0,1-.068.253,6.658,6.658,0,0,0-.089,1.442v5.729q.943-.191,1.511-.355h.041q.068,0,.089.116Zm-3.958-2.085a.174.174,0,0,1,.055.1q0,.034-.1.13l-.314.335q-.116.123-.157.123t-.075-.055a11.165,11.165,0,0,0-1.948-1.777q-.062-.034-.062-.075t.1-.144l.294-.28q.082-.082.123-.082a.2.2,0,0,1,.089.041A10.693,10.693,0,0,1,225.169,9.456Zm.349-3.117q.055.055.055.082t-.082.123l-.321.335a.665.665,0,0,1-.157.137q-.027,0-.068-.062a9.089,9.089,0,0,0-1.921-1.75q-.055-.041-.055-.068,0-.048.116-.157l.294-.294q.075-.082.109-.082a.166.166,0,0,1,.082.041A9.736,9.736,0,0,1,225.518,6.339ZM222.2,4.767a.261.261,0,0,1-.1.157.861.861,0,0,0-.185.308,19.318,19.318,0,0,1-.725,1.846q-.082.185-.157.185a.4.4,0,0,1-.178-.082,1.555,1.555,0,0,0-.376-.157,10.545,10.545,0,0,0,.766-2.112,2,2,0,0,0,.089-.547,4.191,4.191,0,0,1,.711.253Q222.2,4.691,222.2,4.767Zm-3.65,2.174a.294.294,0,0,1,.007.055q0,.048-.178.123l-.321.13a.62.62,0,0,1-.157.048q-.041,0-.062-.089a11.033,11.033,0,0,0-.786-2.386.132.132,0,0,1-.027-.062q0-.048.137-.1l.321-.144a.49.49,0,0,1,.144-.048q.034,0,.068.075A12.457,12.457,0,0,1,218.545,6.94ZM242.5,15.349q0,.109-.116.109l-1.887-.027h-7.588l-1.894.027a.1.1,0,0,1-.109-.109V14.74a.1.1,0,0,1,.109-.109l1.894.027h3.261V11h-2.789l-1.928.027q-.116,0-.116-.109v-.595q0-.109.116-.109l1.928.027h2.789V8.492h-.854l-1.75.014q-.109,0-.109-.1V7.815a.1.1,0,0,1,.109-.109l1.75.027h2.755l1.771-.027a.1.1,0,0,1,.109.109V8.4q0,.1-.109.1l-1.771-.014h-1.032v1.75h3.035l1.935-.027a.1.1,0,0,1,.109.109v.595a.081.081,0,0,1-.109.109L240.071,11h-3.035v3.657H240.5l1.887-.027q.116,0,.116.109ZM243.366,8a1.6,1.6,0,0,0-.41.547q-.116.212-.185.212a1.127,1.127,0,0,1-.219-.068,13.179,13.179,0,0,1-5.913-4.3,14.409,14.409,0,0,1-5.708,4.437.7.7,0,0,1-.2.062q-.068,0-.191-.191a1.314,1.314,0,0,0-.451-.431,13.147,13.147,0,0,0,5.77-4.286,3.042,3.042,0,0,0,.4-.779,4.172,4.172,0,0,1,.9.191q.2.068.2.185,0,.068-.1.123a.378.378,0,0,0-.13.089,11.238,11.238,0,0,0,3.049,2.769A15.984,15.984,0,0,0,243.366,8ZM240.6,11.992q0,.068-.137.178a1.049,1.049,0,0,0-.226.342,13.261,13.261,0,0,1-1,1.675q-.116.144-.164.144a.433.433,0,0,1-.2-.1,1.184,1.184,0,0,0-.472-.226,9.909,9.909,0,0,0,1.1-1.88,3.2,3.2,0,0,0,.212-.615,4.029,4.029,0,0,1,.711.294Q240.6,11.91,240.6,11.992Zm-5.934,1.647a.268.268,0,0,1,.021.089q0,.062-.137.123l-.431.212a.832.832,0,0,1-.185.075q-.041,0-.068-.089a8.837,8.837,0,0,0-1-2,.133.133,0,0,1-.027-.068q0-.048.157-.13l.376-.164a.631.631,0,0,1,.157-.062q.048,0,.1.075A9.842,9.842,0,0,1,234.671,13.64Zm13.426-6.2a41.522,41.522,0,0,1-2.646,7.841l-.923-.362a37.253,37.253,0,0,0,2.563-7.41q-.848.062-2.577.226l-.055-.882q.513-.034,1.518-.1l1.313-.089q.26-1.183.533-2.782l.991.137q-.308,1.6-.533,2.591.786-.055,1.429-.055a1.428,1.428,0,0,1,1.278.567,3.662,3.662,0,0,1,.4,1.982,19.506,19.506,0,0,1-.437,4.97,1.777,1.777,0,0,1-.636,1,1.828,1.828,0,0,1-1.073.28,9.249,9.249,0,0,1-1.422-.109l-.171-.978a6.216,6.216,0,0,0,1.244.164,1.47,1.47,0,0,0,.745-.144.9.9,0,0,0,.335-.485,16.429,16.429,0,0,0,.444-4.566,3.52,3.52,0,0,0-.219-1.538.713.713,0,0,0-.677-.321Q248.883,7.385,248.1,7.439Zm4.108-3.992.711-.28a19.251,19.251,0,0,1,1.039,2.372l-.759.308A14.765,14.765,0,0,0,252.205,3.447Zm1.5-.472.7-.253a11.327,11.327,0,0,1,.991,2.3l-.725.294A13.487,13.487,0,0,0,253.7,2.976Zm-2.311,2.844.882-.451A16.879,16.879,0,0,1,254.68,10.2l-.978.458A14.513,14.513,0,0,0,251.392,5.819Zm16.926,7.964a4.862,4.862,0,0,1-.26,1.121,1.2,1.2,0,0,1-.451.513,4.322,4.322,0,0,1-1.935.28,4.689,4.689,0,0,1-1.928-.239.8.8,0,0,1-.369-.4,2.017,2.017,0,0,1-.082-.656v-2.6h-2.14a4.672,4.672,0,0,1-1.333,2.632,7.016,7.016,0,0,1-2.475,1.347.624.624,0,0,1-.212.055q-.089,0-.226-.212a1.9,1.9,0,0,0-.444-.479,6.6,6.6,0,0,0,2.755-1.292,3.773,3.773,0,0,0,1.08-2.051h-1.278l-1.941.027q-.116,0-.116-.109v-.561q0-.109.116-.109l1.941.027h1.388a14.385,14.385,0,0,0,.082-1.62V9.087q-.5.007-.889.021l-.273.007A.1.1,0,0,1,259.219,9V8.472q0-.123.109-.123l1.7.027h2.6l1.75-.027q.116,0,.116.123V9q0,.109-.116.109l-.164-.007q-.485-.014-1.094-.021v1.982h1.654l1.941-.027q.116,0,.116.109v.561q0,.109-.116.109l-1.941-.027H264.12v2.365q0,.506.185.629a3.312,3.312,0,0,0,1.367.164,2.847,2.847,0,0,0,1.442-.226q.362-.26.438-1.559a2.535,2.535,0,0,0,.547.267q.239.082.239.205A.755.755,0,0,1,268.317,13.783Zm-5.024-2.714V9.087h-1.962v.362q0,.82-.068,1.62Zm5.5-2.01a2.447,2.447,0,0,0-.349.506q-.109.226-.191.226a.775.775,0,0,1-.212-.068,14.251,14.251,0,0,1-3.534-2.16,9.42,9.42,0,0,1-2.14-2.714A12.361,12.361,0,0,1,256.9,9.736a.713.713,0,0,1-.226.082q-.055,0-.2-.226a1.661,1.661,0,0,0-.362-.424,13.272,13.272,0,0,0,3.1-1.8,10.627,10.627,0,0,0-1.627-1.429q-.062-.041-.062-.068t.075-.109l.335-.308q.075-.075.116-.075a.15.15,0,0,1,.082.034,10.986,10.986,0,0,1,1.682,1.456,8.946,8.946,0,0,0,1.777-2.2h-2.017l-1.442.027q-.13,0-.13-.109V4.035q0-.109.13-.109l1.442.027h1.9l1.135-.027a.2.2,0,0,1,.185.144,5.477,5.477,0,0,0,.684,1.265,5.9,5.9,0,0,0,.492.649,9.154,9.154,0,0,0,1.148-1.21,2.591,2.591,0,0,0,.349-.554,3.681,3.681,0,0,1,.69.444.23.23,0,0,1,.1.171q0,.089-.123.15a1.177,1.177,0,0,0-.437.349,13.554,13.554,0,0,1-1.23,1.176,8.125,8.125,0,0,0,1.019.854,12.526,12.526,0,0,0,1.388-1.312,3.442,3.442,0,0,0,.376-.561,5.012,5.012,0,0,1,.677.431.261.261,0,0,1,.109.185q0,.089-.157.157a1.307,1.307,0,0,0-.417.335,15.167,15.167,0,0,1-1.347,1.189A13.441,13.441,0,0,0,268.8,9.06Zm13.665,6a.1.1,0,0,1-.109.109l-1.846-.027h-8.162l-1.853.027a.1.1,0,0,1-.109-.109v-.649a.1.1,0,0,1,.109-.109l1.853.027h3.623V11.179h-1.723l-1.962.027a.1.1,0,0,1-.109-.109v-.636a.1.1,0,0,1,.109-.109l1.962.027h1.723V7.487h-3.3a10.862,10.862,0,0,1-1.442,2.249q-.109.123-.157.123a.55.55,0,0,1-.212-.137,1.554,1.554,0,0,0-.5-.294,11.707,11.707,0,0,0,2.338-4.266,2.525,2.525,0,0,0,.15-.8,5.329,5.329,0,0,1,.854.239q.171.055.171.15a.3.3,0,0,1-.109.2,1.116,1.116,0,0,0-.226.444q-.5,1.285-.506,1.306h2.939V5.539a12.255,12.255,0,0,0-.109-1.921q.485.021.978.075.171.021.171.123a.372.372,0,0,1-.027.116.928.928,0,0,0-.041.137,6.9,6.9,0,0,0-.089,1.442V6.7h2.591l1.962-.027a.1.1,0,0,1,.109.109v.622a.1.1,0,0,1-.109.109l-1.962-.027h-2.591v2.892H278.8l1.955-.027q.116,0,.116.109V11.1q0,.109-.116.109l-1.955-.027h-1.948v3.145h3.657l1.846-.027a.1.1,0,0,1,.109.109Zm2.782-11.088h1.046q-.239,7.191-.239,8.668a2.136,2.136,0,0,0,.458,1.579,2.222,2.222,0,0,0,1.545.424,3.218,3.218,0,0,0,2.44-.943,5.471,5.471,0,0,0,1.217-2.673l.95.479q-.93,4.074-4.58,4.074a3.2,3.2,0,0,1-2.4-.718,3.1,3.1,0,0,1-.608-2.153q0-.766.062-3.753Q285.216,5.334,285.243,3.967ZM5.093,24.594q-.027-1.176-.027-1.853h1v1.812q1.7-.062,3.37-.267v.868q-1.531.185-3.356.253l.041,2.01q1.935-.089,3.247-.26v.868q-1.538.171-3.233.232.014.335.062,1.449.027.745.048,1.2a10.066,10.066,0,0,1,3.726,2.372l-.7.861a9.516,9.516,0,0,0-3.015-2.249v.15A2.184,2.184,0,0,1,3.78,34.506a3.271,3.271,0,0,1-2.017-.5,1.7,1.7,0,0,1-.6-1.436,1.679,1.679,0,0,1,.8-1.449,3.138,3.138,0,0,1,1.832-.5,8.4,8.4,0,0,1,1.47.1q-.048-.848-.1-2.427-1.825.048-3.644,0v-.848q1.7.055,3.63.014-.027-.383-.034-1.087-.014-.663-.027-.943-2.105.041-3.794-.027v-.841Q2.987,24.642,5.093,24.594Zm.171,7.055a5.407,5.407,0,0,0-1.374-.185q-1.832,0-1.832,1.107,0,1.066,1.654,1.066,1.552,0,1.552-1.866ZM17.78,25.5q-.041,1.518,0,3.035a5.324,5.324,0,0,1,.308,1.777,3.687,3.687,0,0,1-1.306,3.069,7.744,7.744,0,0,1-3.274,1.271l-.588-.841a6.334,6.334,0,0,0,3.411-1.381,2.741,2.741,0,0,0,.807-1.88,1.856,1.856,0,0,1-1.8.882,2.2,2.2,0,0,1-1.531-.574,2.3,2.3,0,0,1,.123-3.356,2.469,2.469,0,0,1,1.559-.492,2,2,0,0,1,1.36.39q-.027-1.312-.027-1.873-2.249.034-5.435.239l-.014-.9q2.584-.1,5.435-.171V22.8l1,.014q0,.629-.027,1.859,2.324-.027,3.363-.027v.9Q19.462,25.5,17.78,25.5Zm-2.338,2.3a1.322,1.322,0,0,0-.984.4,1.413,1.413,0,0,0-.39,1.046,1.237,1.237,0,0,0,.444,1,1.288,1.288,0,0,0,.848.294,1.405,1.405,0,0,0,1.1-.41,1.3,1.3,0,0,0,.314-.916Q16.775,27.8,15.442,27.8Zm9.324,3.527a1.915,1.915,0,0,1,1.463.643,1.916,1.916,0,0,1-.144,2.748,1.936,1.936,0,0,1-1.319.5,1.9,1.9,0,0,1-1.463-.643,1.916,1.916,0,0,1,.144-2.748A1.936,1.936,0,0,1,24.767,31.327Zm0,.7a1.269,1.269,0,0,0-1.251,1.251,1.253,1.253,0,0,0,2.181.834,1.247,1.247,0,0,0-.93-2.085ZM34.8,25.093V22.83h.964v2.208q1.511-.1,2.591-.219v.909q-1.224.123-2.591.205v2.707a8.692,8.692,0,0,1,2.646-.479,2.9,2.9,0,0,1,2.577,1.169,3.273,3.273,0,0,1,.533,1.894,2.654,2.654,0,0,1-1.3,2.591,6.067,6.067,0,0,1-2.707.465v-.9a3.954,3.954,0,0,0,2.167-.444,2.048,2.048,0,0,0,.772-1.825,2.11,2.11,0,0,0-.6-1.524,1.724,1.724,0,0,0-1.285-.561,7.651,7.651,0,0,0-2.8.533v3.609a1.437,1.437,0,0,1-.273,1,1.054,1.054,0,0,1-.786.26,2.259,2.259,0,0,1-1.189-.376,2.427,2.427,0,0,1-1.347-2.03q0-1.736,2.632-3.049v-3q-.813.048-2.434.075v-.9Q33.681,25.154,34.8,25.093Zm0,4.9A5.118,5.118,0,0,0,33.5,31.013a1.511,1.511,0,0,0-.39.984,1.078,1.078,0,0,0,.335.759,1.888,1.888,0,0,0,.69.458.9.9,0,0,0,.39.1q.28,0,.28-.465Zm3.9-5.64.6-.731a12.831,12.831,0,0,1,2.816,2.229l-.684.772A11,11,0,0,0,38.705,24.354ZM56,30.363a2.1,2.1,0,0,0-.362.595q-.089.212-.171.212a1.478,1.478,0,0,1-.191-.027,21.158,21.158,0,0,1-5.6-1.887,14.8,14.8,0,0,1-3.514,1.511q.28.027,1.8.027h3.3l1.866-.027q.109,0,.109.1l-.027,1.08v1.176l.027,1.8q0,.1-.109.1H52.5q-.109,0-.109-.1v-.588H46.86V34.9q0,.1-.109.1h-.636q-.109,0-.109-.1l.027-1.777V32.065l-.027-1.2v-.041q-.807.246-1.948.513a1.079,1.079,0,0,1-.205.041q-.089,0-.185-.205a1.49,1.49,0,0,0-.349-.513,19.32,19.32,0,0,0,5.612-1.839,10.515,10.515,0,0,1-1.887-1.511A12.489,12.489,0,0,1,44.83,28.8a1.187,1.187,0,0,1-.226.1q-.041,0-.15-.157a1.274,1.274,0,0,0-.424-.417,10.163,10.163,0,0,0,3.821-2.926,3.067,3.067,0,0,0,.369-.643,5.962,5.962,0,0,1,.731.232q.123.068.123.144t-.144.185a1.612,1.612,0,0,0-.294.308q-.185.239-.308.376H51.8a.782.782,0,0,0,.335-.055.317.317,0,0,1,.13-.041q.109,0,.39.28.239.253.239.376a.206.206,0,0,1-.144.2,1.379,1.379,0,0,0-.417.321A15.543,15.543,0,0,1,50.4,28.764,20.55,20.55,0,0,0,56,30.363ZM52.391,33.61V31.5H46.86V33.61Zm-.711-6.945H47.729l-.171.185a10.306,10.306,0,0,0,2.105,1.524A12.59,12.59,0,0,0,51.68,26.665Zm3.5-.137a.1.1,0,0,1-.109.109h-.636a.1.1,0,0,1-.109-.109V24.56H44.734v1.969a.1.1,0,0,1-.109.109h-.636a.1.1,0,0,1-.109-.109l.027-1.449v-.437l-.027-.725a.1.1,0,0,1,.109-.109l1.935.027h3.083v-.547a3.786,3.786,0,0,0-.1-.95q.41.021.923.068.171.021.171.116a.846.846,0,0,1-.082.26,1.819,1.819,0,0,0-.068.547v.506h3.288l1.935-.027a.1.1,0,0,1,.109.109l-.027.629v.533Zm14.841,7.007a1.86,1.86,0,0,0-.451.479q-.089.171-.164.171a.433.433,0,0,1-.2-.1,10.65,10.65,0,0,1-2.331-2.01A8.641,8.641,0,0,1,65.6,29.967q.055,2.939.055,3.657a1.138,1.138,0,0,1-.362.991,2.854,2.854,0,0,1-1.415.239.264.264,0,0,1-.369-.28,1.561,1.561,0,0,0-.246-.588,8.256,8.256,0,0,0,.923.055.82.82,0,0,0,.554-.123.62.62,0,0,0,.1-.424V31.888q-1.244.807-2.769,1.62a1.943,1.943,0,0,0-.506.314q-.089.109-.157.109t-.123-.123q-.144-.253-.362-.745a4.57,4.57,0,0,0,.807-.294,26.732,26.732,0,0,0,3.11-1.7V29.03h-1.3l-1.935.027q-.1,0-.1-.109V28.4q0-.109.1-.109l1.935.027h1.3V27.062h-.8l-1.764.027q-.109,0-.109-.116V26.46q0-.116.109-.116l1.764.027h.8v-1.2h-.991l-1.88.027q-.109,0-.109-.1v-.554a.1.1,0,0,1,.109-.109l1.88.027h2.085a12.2,12.2,0,0,0,.752-1.429,2.654,2.654,0,0,0,.185-.588,5.367,5.367,0,0,1,.725.212q.171.048.171.15,0,.075-.137.185a.677.677,0,0,0-.2.267,12.632,12.632,0,0,1-.7,1.2h.465l1.846-.027q.13,0,.13.109V25.1q0,.1-.13.1l-1.846-.027H65.625v1.2H66.8l1.75-.027q.109,0,.109.116v.513q0,.116-.109.116l-1.75-.027H65.625v1.258h1.941l1.935-.027a.1.1,0,0,1,.109.109v.547a.1.1,0,0,1-.109.109l-1.935-.027h-1.8a9.616,9.616,0,0,0,1.189,2.03,11.043,11.043,0,0,0,1.121-1.053,1.977,1.977,0,0,0,.335-.485,4.885,4.885,0,0,1,.574.444.258.258,0,0,1,.116.185q0,.109-.137.15a1.1,1.1,0,0,0-.424.294,13.717,13.717,0,0,1-1.135,1A10.167,10.167,0,0,0,70.021,33.535ZM61.476,25.92q0,.116-.109.116l-1.258-.027H60.02a9.323,9.323,0,0,0,1.442,3.035,1.831,1.831,0,0,0-.349.533q-.068.15-.123.15t-.13-.15A12.545,12.545,0,0,1,59.9,26.9q.007,2.755.082,5.79.014.759.041,1.7.014.465.014.506a.085.085,0,0,1-.1.1h-.67q-.116,0-.116-.1s.009-.406.027-1.2q.1-3.541.116-6.6a15.75,15.75,0,0,1-1.641,4.437q-.089.157-.137.157-.075,0-.116-.137a1.211,1.211,0,0,0-.362-.547,15.308,15.308,0,0,0,2.058-5h-.308l-1.271.027a.1.1,0,0,1-.116-.116v-.547q0-.123.116-.123l1.271.027h.417v-1.2a8.8,8.8,0,0,0-.109-1.668,6.609,6.609,0,0,1,.882.089q.171.021.171.123a.676.676,0,0,1-.082.253,4.858,4.858,0,0,0-.075,1.189v1.217h.116l1.258-.027q.109,0,.109.123Zm2.146,4.819q.048.048.048.075t-.1.137l-.294.273q-.116.123-.164.123-.027,0-.068-.062a6.8,6.8,0,0,0-1.176-1.306q-.055-.041-.055-.068t.109-.137l.239-.226q.109-.1.15-.1t.068.048A6.8,6.8,0,0,1,63.622,30.739Zm.725-6.918a.168.168,0,0,1,.014.062q0,.048-.1.109l-.41.219a.441.441,0,0,1-.164.075q-.041,0-.075-.089a4.652,4.652,0,0,0-.786-1.258.112.112,0,0,1-.041-.068q0-.041.144-.116l.362-.178a.368.368,0,0,1,.123-.041.146.146,0,0,1,.1.068A6.6,6.6,0,0,1,64.347,23.821Zm14.164-.246a.257.257,0,0,1-.13.191,2.553,2.553,0,0,0-.513.7A21.052,21.052,0,0,1,76.3,26.85h.027l1.818-.027q.116,0,.116.109v.52q0,.109-.116.109l-1.818-.027h-.6a13.766,13.766,0,0,1-1.586,1.552h1.88l1.313-.027q.116,0,.116.109l-.027,1.771V32.25l.027,2.475q0,.109-.116.109h-.574a.1.1,0,0,1-.109-.109v-.6H73.705v.731q0,.109-.116.109h-.574a.1.1,0,0,1-.109-.109l.027-2.522V30.049q-.677.485-1.244.848a.45.45,0,0,1-.171.068q-.062,0-.185-.185a.922.922,0,0,0-.39-.335,16.527,16.527,0,0,0,3.821-2.912H73.254l-1.832.027q-.116,0-.116-.109v-.52q0-.109.116-.109l1.832.027h.854V25.086h-.643l-1.429.027q-.116,0-.116-.1v-.533a.1.1,0,0,1,.116-.116l1.429.027h.643v-.444a9.015,9.015,0,0,0-.1-1.6q.355.021.882.075.171.021.171.123a.853.853,0,0,1-.089.267,4.712,4.712,0,0,0-.068,1.121V24.4h.123l1.36-.027q.109,0,.109.116v.533q0,.1-.109.1l-1.36-.027h-.123V26.85h.472a14.254,14.254,0,0,0,1.839-2.8,3.5,3.5,0,0,0,.376-1.073,3.8,3.8,0,0,1,.772.417Q78.511,23.493,78.511,23.575Zm-1.866,9.864V31.874H73.705v1.565Zm0-2.208V29.755H73.705v1.477Zm6.952-.226q0,1.989-2.618,2.112-.116.014-.15.014-.123,0-.185-.28a1.112,1.112,0,0,0-.253-.526q2.379.041,2.379-1.388a2.258,2.258,0,0,0-.5-1.374,12.325,12.325,0,0,0-1.784-1.736,22.5,22.5,0,0,0,1.962-3.9H79.762v8.148l.027,2.83q0,.1-.109.1H79.03q-.109,0-.109-.1l.027-2.816V26.077l-.027-2.83a.1.1,0,0,1,.109-.109l1.251.027h2.181a1.1,1.1,0,0,0,.335-.041.543.543,0,0,1,.157-.027q.123,0,.376.253t.239.376a.2.2,0,0,1-.1.185,1.061,1.061,0,0,0-.294.451,30.932,30.932,0,0,1-1.771,3.356A7.736,7.736,0,0,1,83.221,29.6,2.75,2.75,0,0,1,83.6,31.006ZM95.58,34.745q0,.109-.123.109h-.663a.1.1,0,0,1-.109-.109v-.574H88.471v.643q0,.1-.109.1h-.677q-.109,0-.109-.1L87.6,32.38V31.245l-.027-1.572a.1.1,0,0,1,.109-.109l1.935.027h3.917l1.921-.027q.123,0,.123.109l-.027,1.374v1.285Zm-.9-1.333V30.35H88.471v3.063Zm3.541-5.824a2.1,2.1,0,0,0-.39.561q-.1.226-.185.226a.5.5,0,0,1-.219-.082,13.358,13.358,0,0,1-5.927-4.819,15.255,15.255,0,0,1-5.694,4.9.781.781,0,0,1-.212.082q-.062,0-.185-.2a1.858,1.858,0,0,0-.431-.5,12.624,12.624,0,0,0,5.742-4.737,3.55,3.55,0,0,0,.39-.793q.526.082.868.164.2.062.2.157a.208.208,0,0,1-.1.164l-.123.116A13.2,13.2,0,0,0,98.226,27.588Zm-3.794.1a.1.1,0,0,1-.109.109l-1.641-.027H90.446l-1.641.027a.1.1,0,0,1-.109-.109v-.608a.1.1,0,0,1,.109-.109L90.446,27h2.235l1.641-.027a.1.1,0,0,1,.109.109Zm11.8-.848.718-.273a18.274,18.274,0,0,1,1.032,2.365l-.752.308A15.123,15.123,0,0,0,106.23,26.843Zm1.586-.472.7-.253a11.566,11.566,0,0,1,1,2.3l-.731.294A13.488,13.488,0,0,0,107.816,26.371Zm.39-2.632.027.964a5.312,5.312,0,0,0-2.311.629,5.934,5.934,0,0,0-2.071,1.962,4.817,4.817,0,0,0-.813,2.659,2.958,2.958,0,0,0,1.285,2.529,6.17,6.17,0,0,0,2.933,1l-.239,1a6.1,6.1,0,0,1-3.63-1.381,3.89,3.89,0,0,1-1.312-3.049,5.709,5.709,0,0,1,2.994-5.024l.759-.335-.014-.027-.656.109q-1.189.068-5.66.479l-.082-.923Q101.418,24.177,108.206,23.739Zm7.95,1.107a22.039,22.039,0,0,1-1.483,7.362,2.1,2.1,0,0,1-1.894,1.483,1.749,1.749,0,0,1-1.606-1.06,6,6,0,0,1-.533-2.789,7.336,7.336,0,0,1,.458-2.618,5.114,5.114,0,0,1,1.039-1.723,4.675,4.675,0,0,1,1.716-1.128,5.426,5.426,0,0,1,1.969-.369,4.139,4.139,0,0,1,3.555,1.5,6.371,6.371,0,0,1,.964,3.808,5.114,5.114,0,0,1-1.121,3.4,5.6,5.6,0,0,1-3.274,1.784l-.485-.841a4.243,4.243,0,0,0,3.835-4.607,4.671,4.671,0,0,0-1.032-3.3A2.809,2.809,0,0,0,116.156,24.847Zm-1.053.109a3.075,3.075,0,0,0-1.292.4,4.459,4.459,0,0,0-1.06.93,5.252,5.252,0,0,0-1.148,3.582,4.6,4.6,0,0,0,.41,2.126q.328.615.752.615a.82.82,0,0,0,.622-.26,2.544,2.544,0,0,0,.444-.759A19.819,19.819,0,0,0,115.1,24.956Zm11.17,4.888-4.279.588-.157-.923,4.286-.588-.451-2.522-3.527.465-.15-.93,3.514-.458-.451-2.55,1.053-.171.444,2.577,3.568-.458.144.923-3.541.458.431,2.509,3.7-.506.137.923-3.664.506.827,4.7-1.039.185Zm9.454-2.659,4.354-.841.506.458a12.08,12.08,0,0,1-1.948,4.382l-.854-.513a10.171,10.171,0,0,0,1.586-3.322l-3.459.69,1.333,6.323-1,.226-1.36-6.357-2.263.451-.2-.868,2.283-.437-.479-2.249,1.025-.2Zm7.123-3.151a23.989,23.989,0,0,1,3.288,2.085l-.7.923a20.356,20.356,0,0,0-3.22-2.181Zm7.055.7,1.053.506a11.411,11.411,0,0,1-2.6,5.8,11.137,11.137,0,0,1-5.585,3.227l-.479-.95Q148.859,31.7,149.905,24.73Zm5.182,1.347V22.83h1.066v3.008l5.359-1.217.588.752a17.488,17.488,0,0,1-2.967,5.284l-.882-.561a12.915,12.915,0,0,0,2.536-4.327l-4.635,1.046V31.86q0,.943.485,1.189a4.62,4.62,0,0,0,1.723.205q1.545,0,3.247-.164v1.032q-1.49.1-3.466.1a3.85,3.85,0,0,1-2.55-.588,2.375,2.375,0,0,1-.506-1.75V27.055l-2.379.533-.28-.909Zm14.889,6.761a10.457,10.457,0,0,0,3.637-4.812l.718.937a12.739,12.739,0,0,1-4.819,5.489l-.6-.314V23.247h1.066Zm-2.98-9.5q0,3.979-.137,5.742a10.742,10.742,0,0,1-.4,2.352,6.553,6.553,0,0,1-2.044,3.015l-.813-.636a5.191,5.191,0,0,0,1.907-2.782,13.31,13.31,0,0,0,.349-2.878q.068-1.552.068-4.812Zm14.1,1.5a22.039,22.039,0,0,1-1.483,7.362,2.1,2.1,0,0,1-1.894,1.483,1.749,1.749,0,0,1-1.606-1.06,6,6,0,0,1-.533-2.789,7.335,7.335,0,0,1,.458-2.618,5.114,5.114,0,0,1,1.039-1.723,4.675,4.675,0,0,1,1.716-1.128,5.426,5.426,0,0,1,1.969-.369,4.139,4.139,0,0,1,3.555,1.5,6.371,6.371,0,0,1,.964,3.808,5.114,5.114,0,0,1-1.121,3.4,5.6,5.6,0,0,1-3.274,1.784l-.485-.841a4.243,4.243,0,0,0,3.835-4.607,4.67,4.67,0,0,0-1.032-3.3A2.809,2.809,0,0,0,181.091,24.847Zm-1.053.109a3.075,3.075,0,0,0-1.292.4,4.459,4.459,0,0,0-1.06.93,5.252,5.252,0,0,0-1.148,3.582,4.6,4.6,0,0,0,.41,2.126q.328.615.752.615a.82.82,0,0,0,.622-.26,2.544,2.544,0,0,0,.444-.759A19.819,19.819,0,0,0,180.038,24.956Zm19.407,3.582a.1.1,0,0,1-.109.109l-1.948-.027H193.17q.13.034.308.1t.212.075q.144.055.144.15a.2.2,0,0,1-.1.157.974.974,0,0,0-.253.28l-.205.308h3.849l1.723-.027a.121.121,0,0,1,.137.137l-.123,1.4a15.238,15.238,0,0,1-.362,2.427,1.569,1.569,0,0,1-.526.9,1.408,1.408,0,0,1-.848.226q-.561,0-.882-.027a.338.338,0,0,1-.212-.062.789.789,0,0,1-.082-.246,2.4,2.4,0,0,0-.239-.581,7.339,7.339,0,0,0,1.347.116q.52,0,.67-.67a18.856,18.856,0,0,0,.376-2.905h-.978a8.916,8.916,0,0,1-3.609,4.32.427.427,0,0,1-.212.1q-.075,0-.226-.171a1.335,1.335,0,0,0-.417-.321,7.843,7.843,0,0,0,3.637-3.924H195.05a10.232,10.232,0,0,1-3.445,3.438,1.187,1.187,0,0,1-.226.1q-.062,0-.205-.171a1.151,1.151,0,0,0-.41-.308,9.182,9.182,0,0,0,3.4-3.056h-1.4a9.386,9.386,0,0,1-2.215,2,.721.721,0,0,1-.219.109q-.048,0-.2-.171a1.872,1.872,0,0,0-.451-.335,8.4,8.4,0,0,0,2.9-2.591,2.479,2.479,0,0,0,.355-.759h-.062l-1.941.027q-.116,0-.116-.109v-.547q0-.109.116-.109l1.941.027h4.512l1.948-.027a.1.1,0,0,1,.109.109Zm-1.47-1.579q0,.109-.116.109l-1.661-.027h-2.283l-1.668.027a.1.1,0,0,1-.109-.109l.027-1.2V24.238l-.027-1.217a.1.1,0,0,1,.109-.109l1.668.027H196.2l1.661-.027q.116,0,.116.109l-.027,1.217v1.518Zm-.813-.574V25.291h-4.218v1.094Zm0-1.723V23.6h-4.218v1.066Zm-6.084,4.956q-.007.034-.041.533a.573.573,0,0,1-.041.28.562.562,0,0,1-.2.137,25.674,25.674,0,0,1-2.871,1.374,3.364,3.364,0,0,0-.506.239.255.255,0,0,1-.185.082q-.068,0-.15-.137a3.587,3.587,0,0,1-.28-.772,9.432,9.432,0,0,0,1.333-.362q.39-.144.588-.226V26.932h-.383l-1.3.027a.1.1,0,0,1-.116-.116v-.588q0-.109.116-.109l1.3.027h.383V24.539a13.145,13.145,0,0,0-.1-1.921q.431.014.916.068.171.027.171.13a.371.371,0,0,1-.027.116q-.034.089-.048.137a6.644,6.644,0,0,0-.082,1.436v1.668h.1l1.3-.027q.1,0,.1.109v.588q0,.116-.1.116l-1.3-.027h-.1v3.486Q190.292,30.076,191.078,29.618Zm20.084,5.127q0,.109-.123.109h-.663a.1.1,0,0,1-.109-.109v-.574h-6.214v.643q0,.1-.109.1h-.677q-.109,0-.109-.1l.027-2.434V31.245l-.027-1.572a.1.1,0,0,1,.109-.109l1.935.027h3.917l1.921-.027q.123,0,.123.109l-.027,1.374v1.285Zm-.9-1.333V30.35h-6.214v3.063Zm3.541-5.824a2.1,2.1,0,0,0-.39.561q-.1.226-.185.226a.5.5,0,0,1-.219-.082,13.359,13.359,0,0,1-5.927-4.819,15.255,15.255,0,0,1-5.694,4.9.781.781,0,0,1-.212.082q-.062,0-.185-.2a1.858,1.858,0,0,0-.431-.5,12.624,12.624,0,0,0,5.742-4.737,3.549,3.549,0,0,0,.39-.793q.526.082.868.164.2.062.2.157a.208.208,0,0,1-.1.164l-.123.116A13.2,13.2,0,0,0,213.808,27.588Zm-3.794.1a.1.1,0,0,1-.109.109l-1.641-.027h-2.235l-1.641.027a.1.1,0,0,1-.109-.109v-.608a.1.1,0,0,1,.109-.109l1.641.027h2.235l1.641-.027a.1.1,0,0,1,.109.109Zm5.674,3.787a14.949,14.949,0,0,1,1.641,1.531,10.044,10.044,0,0,1,1.169,1.483l-.923.684a11.119,11.119,0,0,0-2.7-3.035Zm21.027-2.064q0,.109-.116.109L234.63,29.5h-2.522a7.7,7.7,0,0,0,1.9,2.878,9.869,9.869,0,0,0,2.68,1.839,1.83,1.83,0,0,0-.424.561q-.123.212-.178.212a.678.678,0,0,1-.226-.109,9.26,9.26,0,0,1-4.3-4.915,7.554,7.554,0,0,1-3.876,4.983.552.552,0,0,1-.212.082q-.062,0-.212-.2a1.768,1.768,0,0,0-.458-.444,8.55,8.55,0,0,0,2.769-2.105,6.622,6.622,0,0,0,1.2-2.434l.082-.349H229.6l-1.989.027a.1.1,0,0,1-.109-.109v-.581q0-.123.109-.123l1.989.027H231a27.343,27.343,0,0,0,.185-2.885H230.2l-1.8.027a.1.1,0,0,1-.109-.109v-.608a.1.1,0,0,1,.109-.109l1.8.027h1V23.972a9.736,9.736,0,0,0-.1-1.565,8.167,8.167,0,0,1,.923.082q.185.041.185.144a1.25,1.25,0,0,1-.082.28,3.187,3.187,0,0,0-.089.978v1.189h1.36l1.853-.027a.1.1,0,0,1,.109.109l-.027,1.224v2.352l1.271-.027q.116,0,.116.123Zm-2.215-.677V25.852h-2.481a25.042,25.042,0,0,1-.205,2.885Zm-7.4,2.1q-.554,1.538-1.347,3.261a4.509,4.509,0,0,0-.253.615q-.048.171-.137.171a.432.432,0,0,1-.212-.082,6.2,6.2,0,0,1-.643-.479,5.858,5.858,0,0,0,.745-1.148,30.621,30.621,0,0,0,1.271-3.192,2.425,2.425,0,0,0,.438.424q.191.144.191.226A.845.845,0,0,1,227.1,30.835Zm.492-6.562a.149.149,0,0,1,.055.089.315.315,0,0,1-.082.144l-.314.4q-.089.116-.13.116a.11.11,0,0,1-.075-.048,10.593,10.593,0,0,0-1.887-1.627q-.075-.048-.075-.082a.284.284,0,0,1,.082-.137l.294-.335q.1-.1.137-.1a.168.168,0,0,1,.075.027A10.085,10.085,0,0,1,227.589,24.272Zm-.786,3.4a.137.137,0,0,1,.041.075.423.423,0,0,1-.082.164l-.294.39q-.082.109-.123.109a.168.168,0,0,1-.1-.062,9.534,9.534,0,0,0-1.887-1.531q-.068-.034-.068-.068a.389.389,0,0,1,.1-.15l.267-.342q.075-.089.116-.089a.183.183,0,0,1,.089.034A10.079,10.079,0,0,1,226.8,27.67Zm24.09.321a2.034,2.034,0,0,0-.321.547q-.1.226-.191.226a1.293,1.293,0,0,1-.191-.027q-.813-.164-1.271-.28v4.635l.027,1.7q0,.116-.109.116h-.649q-.109,0-.109-.116l.027-1.7V32.024h-4.717l-.041.137a5.06,5.06,0,0,1-1.75,2.625.578.578,0,0,1-.2.109q-.068,0-.212-.144a1.808,1.808,0,0,0-.533-.376,4.2,4.2,0,0,0,1.921-2.488,8.507,8.507,0,0,0,.294-1.5q.062-.656.068-1.941-.4.1-1.176.232a1.412,1.412,0,0,1-.171.021q-.116,0-.205-.232a1.485,1.485,0,0,0-.308-.5,13.06,13.06,0,0,0,4.088-1.094,6.943,6.943,0,0,1-2.03-2.1q-.588.007-1.032.021l-.226.007H241.8q-.123,0-.123-.109v-.547q0-.109.123-.109l1.962.027H245.4V23.63a6.048,6.048,0,0,0-.1-1.278q.479.021.93.082.164.027.164.116a.905.905,0,0,1-.082.267,2.676,2.676,0,0,0-.068.779v.465h2.167l1.976-.027a.1.1,0,0,1,.109.109v.547a.1.1,0,0,1-.109.109l-1.777-.027a7.1,7.1,0,0,1-1.935,2.071A15.426,15.426,0,0,0,250.893,27.991ZM248.1,31.313V29.864h-4.4a9.607,9.607,0,0,1-.171,1.449Zm0-2.146V28.23a10.4,10.4,0,0,1-2.187-.9,10.469,10.469,0,0,1-2.167.9q0,.656-.014.937Zm-.437-4.4h-3.637a5.891,5.891,0,0,0,1.9,1.682A5.485,5.485,0,0,0,247.666,24.771Zm-6.6,6.036a34.78,34.78,0,0,1-1.456,3.22,2.941,2.941,0,0,0-.28.615q-.021.144-.137.144a.367.367,0,0,1-.2-.082q-.321-.226-.643-.492a5.507,5.507,0,0,0,.759-1.121,24.812,24.812,0,0,0,1.381-3.138,3.271,3.271,0,0,0,.438.424q.2.15.2.226A.769.769,0,0,1,241.063,30.808Zm.321-6.535a.146.146,0,0,1,.062.1.328.328,0,0,1-.089.157l-.294.362q-.082.109-.13.109a.114.114,0,0,1-.075-.041,10.414,10.414,0,0,0-1.88-1.613q-.062-.041-.062-.075t.1-.144l.28-.321q.1-.116.15-.116a.168.168,0,0,1,.075.027A10.416,10.416,0,0,1,241.384,24.272Zm-.684,3.384a.131.131,0,0,1,.048.082q0,.041-.089.144l-.294.376q-.1.123-.144.123-.027,0-.082-.055a10.127,10.127,0,0,0-1.873-1.511q-.062-.034-.062-.068a.339.339,0,0,1,.089-.15l.267-.355q.068-.089.116-.089a.221.221,0,0,1,.089.034A9.829,9.829,0,0,1,240.7,27.656Zm23.775.547q0,.116-.171.212a2.011,2.011,0,0,0-.5.465,11.817,11.817,0,0,1-1.812,1.736q-.144.123-.2.123a.871.871,0,0,1-.232-.157,2.793,2.793,0,0,0-.608-.335,8.584,8.584,0,0,0,1.989-1.736h-3.89V31.58l.014,1.914a1.242,1.242,0,0,1-.362,1.025,3.378,3.378,0,0,1-1.709.267H256.7q-.232,0-.273-.048a.639.639,0,0,1-.089-.246,2.856,2.856,0,0,0-.28-.69,14.115,14.115,0,0,0,1.456.089.739.739,0,0,0,.513-.13.585.585,0,0,0,.116-.417V28.511H254.6l-1.866.027a.1.1,0,0,1-.109-.109v-.677a.1.1,0,0,1,.109-.109l1.866.027H259a14.829,14.829,0,0,0-2.953-2.126q-.075-.041-.075-.062a.6.6,0,0,1,.1-.15l.28-.321q.075-.082.116-.082a.148.148,0,0,1,.075.034,15.9,15.9,0,0,1,1.784,1.1,17.941,17.941,0,0,0,3.09-2.071h-5.5l-1.969.027q-.1,0-.1-.109v-.649q0-.109.1-.109l1.969.027h5.865a1.046,1.046,0,0,0,.342-.041,1.254,1.254,0,0,1,.191-.068q.13,0,.438.308t.308.465q0,.116-.2.191a1.606,1.606,0,0,0-.485.294,18.987,18.987,0,0,1-3.363,2.235q.253.205.841.731.048.041.048.062a.686.686,0,0,1-.123.13l-.191.185h3.637a.792.792,0,0,0,.355-.055.42.42,0,0,1,.164-.055,1.068,1.068,0,0,1,.451.267Q264.476,28.073,264.476,28.2ZM278.366,33.6a2.536,2.536,0,0,0-.2.588.528.528,0,0,1-.1.26.43.43,0,0,1-.239.048q-.9.027-1.319.027-4.074-.007-5.6-.772a3.3,3.3,0,0,1-1.162-.957,6.411,6.411,0,0,1-.588-.971,7.278,7.278,0,0,1-2.058,2.816.644.644,0,0,1-.2.137q-.048,0-.191-.171a1.354,1.354,0,0,0-.479-.376,6.686,6.686,0,0,0,2.7-4.874,4.6,4.6,0,0,0,.048-.595q0-.089-.007-.185.362.048.813.15.212.055.212.157a.6.6,0,0,1-.1.219.746.746,0,0,0-.144.349,12.686,12.686,0,0,1-.308,1.429,4.633,4.633,0,0,0,1,1.593,3.732,3.732,0,0,0,1.572.82V27.355h-1.511l-1.921.027q-.123,0-.123-.109v-.595q0-.109.123-.109l1.921.027h3.89l1.921-.027a.1.1,0,0,1,.109.109v.595a.1.1,0,0,1-.109.109l-1.921-.027h-1.538V29.7h2.085l1.374-.027a.1.1,0,0,1,.109.109v.595a.1.1,0,0,1-.109.109l-1.374-.027h-2.085V33.48a21.3,21.3,0,0,0,3.165.185Q276.985,33.665,278.366,33.6Zm-.253-6.891a.1.1,0,0,1-.116.116h-.643q-.109,0-.109-.116V24.778H267.7v1.928a.1.1,0,0,1-.116.116h-.643q-.109,0-.109-.116l.027-1.436v-.437l-.027-.745q0-.1.109-.1l1.935.027h3.021v-.2a7.091,7.091,0,0,0-.1-1.429,8.839,8.839,0,0,1,.909.075q.171.021.171.109a.816.816,0,0,1-.089.253,4.572,4.572,0,0,0-.055.991v.2h3.322L278,23.992q.116,0,.116.1l-.027.649v.533ZM292.2,34.349q0,.109-.116.109l-1.887-.027H282.6l-1.894.027a.1.1,0,0,1-.109-.109V33.74a.1.1,0,0,1,.109-.109l1.894.027h3.261V30h-2.789l-1.928.027q-.116,0-.116-.109v-.595q0-.109.116-.109l1.928.027h2.789v-1.75h-.854l-1.75.014q-.109,0-.109-.1v-.588a.1.1,0,0,1,.109-.109l1.75.027h2.755l1.771-.027a.1.1,0,0,1,.109.109V27.4q0,.1-.109.1l-1.771-.014h-1.032v1.75h3.035l1.935-.027a.1.1,0,0,1,.109.109v.595a.081.081,0,0,1-.109.109L289.769,30h-3.035v3.657h3.459l1.887-.027q.116,0,.116.109ZM293.063,27a1.6,1.6,0,0,0-.41.547q-.116.212-.185.212a1.126,1.126,0,0,1-.219-.068,13.179,13.179,0,0,1-5.913-4.3,14.409,14.409,0,0,1-5.708,4.437.7.7,0,0,1-.2.062q-.068,0-.191-.191a1.314,1.314,0,0,0-.451-.431,13.147,13.147,0,0,0,5.77-4.286,3.041,3.041,0,0,0,.4-.779,4.172,4.172,0,0,1,.9.191q.2.068.2.185,0,.068-.1.123a.379.379,0,0,0-.13.089,11.238,11.238,0,0,0,3.049,2.769A15.984,15.984,0,0,0,293.063,27ZM290.3,30.992q0,.068-.137.178a1.049,1.049,0,0,0-.226.342,13.259,13.259,0,0,1-1,1.675q-.116.144-.164.144a.433.433,0,0,1-.2-.1,1.184,1.184,0,0,0-.472-.226,9.909,9.909,0,0,0,1.1-1.88,3.2,3.2,0,0,0,.212-.615,4.029,4.029,0,0,1,.711.294Q290.3,30.91,290.3,30.992Zm-5.934,1.647a.268.268,0,0,1,.021.089q0,.062-.137.123l-.431.212a.833.833,0,0,1-.185.075q-.041,0-.068-.089a8.836,8.836,0,0,0-1-2,.133.133,0,0,1-.027-.068q0-.048.157-.13l.376-.164a.631.631,0,0,1,.157-.062q.048,0,.1.075A9.841,9.841,0,0,1,284.368,32.64ZM13.255,42.705q0,.116-.1.116l-1.791-.027H10.261a11.3,11.3,0,0,1-.547,1.4h1.094l1.552-.034q.116,0,.116.109l-.027,1.647v3.6l.027,1.654q0,.109-.116.109l-1.552-.027H9.071l-1.552.027a.1.1,0,0,1-.109-.109l.027-1.654V45.945L7.41,44.271a.1.1,0,0,1,.109-.109l1.36.034a10.657,10.657,0,0,0,.513-1.4H8.764l-1.791.027q-.109,0-.109-.116v-.574a.1.1,0,0,1,.109-.109l1.791.027h2.6l1.791-.027q.1,0,.1.109Zm-1.593,7.834V49.021H8.224v1.518Zm0-4.245v-1.4H8.224v1.4Zm0,2.071v-1.4H8.224v1.4Zm-4.594.547a1.656,1.656,0,0,0-.335.492q-.1.226-.2.226a.52.52,0,0,1-.164-.048,11.147,11.147,0,0,1-2.365-1.408A10.43,10.43,0,0,1,2.4,49.363H4.5l1.271-.027q.116,0,.116.109l-.034.95v.854l.034,1.8q0,.109-.116.109H5.209a.1.1,0,0,1-.109-.109v-.28H2.693v.772q0,.123-.116.123H2q-.1,0-.1-.123l.027-2.058v-.827L1.921,49.63q-.492.26-.772.39a.532.532,0,0,1-.191.068q-.089,0-.171-.2a1.2,1.2,0,0,0-.308-.4A9.136,9.136,0,0,0,3.486,47.7a6.977,6.977,0,0,1-1.019-1.312A9.291,9.291,0,0,1,1.456,47.4q-.164.144-.219.144t-.157-.157a1.062,1.062,0,0,0-.349-.349,6.462,6.462,0,0,0,2.085-2.42,2.621,2.621,0,0,0,.2-.622q.39.1.684.2.144.048.144.13,0,.062-.1.137a2.35,2.35,0,0,0-.212.308l-.137.267h1.7A.531.531,0,0,0,5.318,45a.39.39,0,0,1,.13-.027.707.707,0,0,1,.39.239q.2.212.2.321,0,.089-.116.15A.905.905,0,0,0,5.64,46a10.784,10.784,0,0,1-1.128,1.654A8.169,8.169,0,0,0,7.068,48.912ZM5.1,52.132V50.02H2.693v2.112Zm-.075-6.467H3l-.13.185a5.725,5.725,0,0,0,1.107,1.367A7.4,7.4,0,0,0,5.024,45.665ZM6.7,45q0,.109-.13.109H6.036A.1.1,0,0,1,5.927,45V43.662H1.853V45q0,.109-.116.109H1.189A.1.1,0,0,1,1.08,45L1.107,43.9v-.308l-.027-.52a.1.1,0,0,1,.109-.109l1.641.027h.615v-.383a5.964,5.964,0,0,0-.1-1.23q.308.014.882.068.185.027.185.13a.823.823,0,0,1-.1.253,2.676,2.676,0,0,0-.068.779v.383h.7l1.627-.027q.13,0,.13.109l-.034.465V43.9Zm2.529,7.178q0,.075-.13.13a1.916,1.916,0,0,0-.335.226A9.052,9.052,0,0,1,6.371,54a.579.579,0,0,1-.212.055q-.075,0-.212-.212a1.194,1.194,0,0,0-.362-.376,7.776,7.776,0,0,0,2.522-1.388A2.151,2.151,0,0,0,8.5,51.6a3.972,3.972,0,0,1,.615.41Q9.229,52.1,9.229,52.173Zm4.293,1.066a1.369,1.369,0,0,0-.362.444q-.1.2-.185.2a.75.75,0,0,1-.219-.068,9.189,9.189,0,0,1-2.311-1.654.149.149,0,0,1-.055-.089q0-.048.123-.15l.294-.253a.219.219,0,0,1,.116-.062.183.183,0,0,1,.1.048A7.174,7.174,0,0,0,13.521,53.239ZM20.4,43.847a22.039,22.039,0,0,1-1.483,7.362,2.1,2.1,0,0,1-1.894,1.483,1.749,1.749,0,0,1-1.606-1.06,6,6,0,0,1-.533-2.789,7.336,7.336,0,0,1,.458-2.618A5.114,5.114,0,0,1,16.379,44.5a4.675,4.675,0,0,1,1.716-1.128,5.426,5.426,0,0,1,1.969-.369,4.139,4.139,0,0,1,3.555,1.5,6.371,6.371,0,0,1,.964,3.808,5.114,5.114,0,0,1-1.121,3.4,5.6,5.6,0,0,1-3.274,1.784l-.485-.841a4.243,4.243,0,0,0,3.835-4.607,4.67,4.67,0,0,0-1.032-3.3A2.809,2.809,0,0,0,20.4,43.847Zm-1.053.109a3.075,3.075,0,0,0-1.292.4,4.459,4.459,0,0,0-1.06.93,5.252,5.252,0,0,0-1.148,3.582A4.6,4.6,0,0,0,16.256,51q.328.615.752.615a.82.82,0,0,0,.622-.26,2.544,2.544,0,0,0,.444-.759A19.819,19.819,0,0,0,19.346,43.956ZM31.233,43.2v6.474h1.258V50.7H31.233V53H30.126V50.7H25.519v-.971q.643-.725,1.3-1.548t1.254-1.671q.6-.848,1.107-1.692a15.463,15.463,0,0,0,.858-1.617Zm-4.45,6.474h3.343v-4.8q-.513.9-.971,1.6t-.872,1.278q-.414.574-.79,1.039T26.783,49.671Zm13.159-1.613a9.63,9.63,0,0,1-.222,2.181,5.081,5.081,0,0,1-.643,1.6,2.892,2.892,0,0,1-1.032.991,2.826,2.826,0,0,1-1.391.338,2.639,2.639,0,0,1-1.316-.325,2.758,2.758,0,0,1-.974-.947,4.8,4.8,0,0,1-.6-1.528,9.447,9.447,0,0,1-.205-2.075,10.694,10.694,0,0,1,.215-2.27,5.191,5.191,0,0,1,.632-1.651,2.814,2.814,0,0,1,1.036-1,2.908,2.908,0,0,1,1.418-.338Q39.942,43.033,39.942,48.058Zm-1.148.109q0-4.184-1.989-4.184-2.1,0-2.1,4.259,0,3.972,2.058,3.972Q38.794,52.214,38.794,48.167Zm4.484-.055a2.066,2.066,0,0,1-1.613-.667,2.557,2.557,0,0,1-.6-1.781,2.747,2.747,0,0,1,.636-1.917,2.2,2.2,0,0,1,1.716-.7,2.06,2.06,0,0,1,1.624.649,2.654,2.654,0,0,1,.578,1.825A2.685,2.685,0,0,1,44.97,47.4,2.183,2.183,0,0,1,43.278,48.112Zm.1-4.313a1.23,1.23,0,0,0-1.025.482,2.1,2.1,0,0,0-.376,1.323,2.013,2.013,0,0,0,.369,1.289,1.218,1.218,0,0,0,1,.461,1.19,1.19,0,0,0,1-.479,2.153,2.153,0,0,0,.362-1.326,2.054,2.054,0,0,0-.359-1.289A1.175,1.175,0,0,0,43.374,43.8Zm6.467-.6-6.289,9.871h-.978L48.856,43.2Zm-.725,9.953a2.061,2.061,0,0,1-1.613-.67,2.56,2.56,0,0,1-.6-1.777,2.754,2.754,0,0,1,.643-1.924,2.2,2.2,0,0,1,1.709-.708,2.051,2.051,0,0,1,1.62.656,3.121,3.121,0,0,1-.065,3.715A2.183,2.183,0,0,1,49.116,53.15Zm.1-4.307a1.232,1.232,0,0,0-1.029.479,2.11,2.11,0,0,0-.373,1.326,1.989,1.989,0,0,0,.369,1.275,1.218,1.218,0,0,0,1,.461,1.187,1.187,0,0,0,1-.482,2.156,2.156,0,0,0,.362-1.323,2.021,2.021,0,0,0-.359-1.285A1.186,1.186,0,0,0,49.212,48.844Zm9.27-.226v2.769h-.937V49.049q-.321.164-.663.355-1.791,1.012-1.791,2.03a.927.927,0,0,0,.629.943,6.4,6.4,0,0,0,2.078.232q1.47,0,3.411-.171l.041.95q-2.55.13-3.384.13a5.879,5.879,0,0,1-2.967-.513,1.772,1.772,0,0,1-.7-1.6,3.066,3.066,0,0,1,1.88-2.55q.711-.4,1.456-.772-.068-1.312-.909-1.312-1.176,0-3.227,2.365l-.725-.643a16.348,16.348,0,0,0,2.9-4.136q-1.278.021-2.563,0V43.5q1.477.027,2.953,0a12.51,12.51,0,0,0,.629-1.873l1.012.185a14.377,14.377,0,0,1-.588,1.647q1.969-.062,3.739-.239l.027.854q-2.3.185-4.143.239a14.3,14.3,0,0,1-1.176,1.989l-.355.362.041.055a2.492,2.492,0,0,1,1.668-.711,1.521,1.521,0,0,1,1.114.424,1.982,1.982,0,0,1,.526,1.217q1.094-.5,2.844-1.237l.39.957Q59.411,48.208,58.481,48.618Zm9.14.226-4.279.588-.157-.923,4.286-.588L67.02,45.4l-3.527.465-.15-.93,3.514-.458-.451-2.55,1.053-.171.444,2.577,3.568-.458.144.923-3.541.458.431,2.509,3.7-.506.137.923-3.664.506.827,4.7-1.039.185Zm9.454-2.659,4.354-.841.506.458a12.081,12.081,0,0,1-1.948,4.382l-.854-.513a10.171,10.171,0,0,0,1.586-3.322l-3.459.69,1.333,6.323-1,.226-1.36-6.357-2.263.451-.2-.868,2.283-.437-.479-2.249,1.025-.2ZM84.2,43.033a23.99,23.99,0,0,1,3.288,2.085l-.7.923a20.357,20.357,0,0,0-3.22-2.181Zm7.055.7,1.053.506a11.411,11.411,0,0,1-2.6,5.8,11.137,11.137,0,0,1-5.585,3.227l-.479-.95Q90.207,50.7,91.253,43.73Zm5.182,1.347V41.83H97.5v3.008l5.359-1.217.588.752a17.488,17.488,0,0,1-2.967,5.284L99.6,49.1a12.915,12.915,0,0,0,2.536-4.327L97.5,45.815V50.86q0,.943.485,1.189a4.62,4.62,0,0,0,1.723.205q1.545,0,3.247-.164v1.032q-1.49.1-3.466.1a3.85,3.85,0,0,1-2.55-.588,2.375,2.375,0,0,1-.506-1.75V46.055l-2.379.533-.28-.909Zm14.889,6.761a10.457,10.457,0,0,0,3.637-4.812l.718.937a12.739,12.739,0,0,1-4.819,5.489l-.6-.314V42.247h1.066Zm-2.98-9.5q0,3.979-.137,5.742a10.742,10.742,0,0,1-.4,2.352,6.553,6.553,0,0,1-2.044,3.015l-.813-.636a5.191,5.191,0,0,0,1.907-2.782,13.309,13.309,0,0,0,.349-2.878q.068-1.552.068-4.812ZM129.2,43.888q0,.109-.123.109l-1.921-.027h-1.764v1.456h1.244l1.839-.027a.1.1,0,0,1,.109.109l-.027,1.948V50.58l.027,2.126a1.129,1.129,0,0,1-.294.882,1.954,1.954,0,0,1-1.183.239h-.219a.465.465,0,0,1-.26-.041.459.459,0,0,1-.075-.2,1.481,1.481,0,0,0-.267-.6q.615.041.991.041.479,0,.479-.52V50.635h-2.365v1.244l.027,1.907q0,.1-.109.1h-.622q-.109,0-.109-.1l.027-1.907V50.635h-2.167V52l.027,1.859q0,.1-.109.1h-.636q-.109,0-.109-.1l.027-1.88V47.4l-.027-1.894a.1.1,0,0,1,.109-.109l1.839.027h1.046V43.97h-1.456L121.222,44q-.116,0-.116-.109v-.561q0-.109.116-.109l1.928.027h1.456a11.331,11.331,0,0,0-.109-1.8,7.8,7.8,0,0,1,.882.068q.171.027.171.109a.679.679,0,0,1-.068.253,5.766,5.766,0,0,0-.089,1.374h1.764l1.921-.027q.123,0,.123.109Zm-1.442,6.077v-1.6h-2.365v1.6Zm0-2.27V46.123h-2.365V47.7Zm-3.151,2.27v-1.6h-2.167v1.6Zm0-2.27V46.123h-2.167V47.7Zm-3.22,1.634a1.345,1.345,0,0,0-.349.376q-.13.2-.185.2t-.178-.137a13.02,13.02,0,0,1-1.36-1.524v4.074l.027,1.647q0,.1-.123.1H118.6q-.109,0-.109-.1l.027-1.647V48.283A13.1,13.1,0,0,1,117,49.869a.434.434,0,0,1-.185.109q-.062,0-.123-.157a1.6,1.6,0,0,0-.308-.533,12.647,12.647,0,0,0,3.5-4.744h-1.613L117,44.571q-.116,0-.116-.109v-.588a.1.1,0,0,1,.116-.116l1.271.027h.239v-.779a7.582,7.582,0,0,0-.109-1.545q.567.027.9.075.185.021.185.123a.853.853,0,0,1-.089.267,3.731,3.731,0,0,0-.082,1.053v.807h.745a.543.543,0,0,0,.246-.055.287.287,0,0,1,.116-.027q.123,0,.335.253t.226.349a.241.241,0,0,1-.123.185.8.8,0,0,0-.253.376,20.394,20.394,0,0,1-1.292,2.324v.157a6.809,6.809,0,0,0,.533.629,6.238,6.238,0,0,0,.574-.984,2.268,2.268,0,0,0,.191-.561,3.508,3.508,0,0,1,.595.342q.123.082.123.15t-.109.144a.961.961,0,0,0-.267.308q-.253.4-.7,1.019A9.949,9.949,0,0,0,121.386,49.329Zm6.822-6.72a.151.151,0,0,1,.034.082q0,.034-.1.1l-.308.212a.466.466,0,0,1-.157.075q-.041,0-.1-.082a4.815,4.815,0,0,0-1.019-1.128q-.055-.048-.055-.082t.123-.116l.28-.164a.314.314,0,0,1,.13-.068.268.268,0,0,1,.1.055A6.736,6.736,0,0,1,128.208,42.609Zm14,9.215a.1.1,0,0,1-.109.109l-1.873-.027h-3.254l-1.887.027a.1.1,0,0,1-.109-.109L135,50.519V48.659l-.021-1.306a.1.1,0,0,1,.109-.109l1.887.027h3.254l1.873-.027a.1.1,0,0,1,.109.109l-.021,1.306v1.859Zm-.807-.506V50.5h-5.633v.813Zm0-1.36v-.793h-5.633v.793Zm0-1.34v-.759h-5.633v.759Zm-7.041-6.843a.246.246,0,0,1-.116.191,1.417,1.417,0,0,0-.28.52q-.438,1.183-.868,2.071v7.109l.034,2.2q0,.109-.116.109h-.67q-.1,0-.1-.109l.027-2.2V48.112q0-.711.027-2.14A17.035,17.035,0,0,1,131,47.75q-.116.137-.164.137t-.13-.15a1.573,1.573,0,0,0-.335-.52,15.019,15.019,0,0,0,2.8-4.915,4.549,4.549,0,0,0,.205-.95,6.747,6.747,0,0,1,.827.267Q134.36,41.666,134.36,41.775Zm8.688,3.678q0,.116-.109.116h-.615a.1.1,0,0,1-.116-.116V44.011h-7.191v1.442q0,.116-.13.116h-.574q-.123,0-.123-.116l.027-1.121v-.294l-.027-.6q0-.109.123-.109l1.846.027a7.373,7.373,0,0,0-.752-1.312.168.168,0,0,1-.027-.075q0-.048.137-.109l.383-.157a.265.265,0,0,1,.109-.034q.048,0,.1.075a6.746,6.746,0,0,1,.759,1.251.123.123,0,0,1,.021.062q0,.062-.116.1l-.465.2h1.832v-.841a5.965,5.965,0,0,0-.1-1.162q.547.027.9.068.171.027.171.13a.853.853,0,0,1-.089.267,1.8,1.8,0,0,0-.082.656v.882h1.189a7.609,7.609,0,0,0,.6-1,2.47,2.47,0,0,0,.226-.636,5.682,5.682,0,0,1,.745.267q.15.082.15.157t-.123.164a2.6,2.6,0,0,0-.239.314q-.246.376-.533.738l1.989-.027a.1.1,0,0,1,.109.109l-.027.547v.349Zm-1.709,1.094q0,.109-.123.109l-1.627-.027H137.6l-1.62.027a.1.1,0,0,1-.109-.109l.027-.677v-.431l-.027-.677a.1.1,0,0,1,.109-.109l1.62.027h1.989l1.641-.027a.1.1,0,0,1,.109.109l-.027.677v.431Zm-.8-.479v-.827h-3.89v.827Zm-3.062,6.521q0,.1-.144.13a1.675,1.675,0,0,0-.492.239,10.269,10.269,0,0,1-2.434,1,.936.936,0,0,1-.178.027q-.1,0-.226-.212a1.452,1.452,0,0,0-.349-.417,8.43,8.43,0,0,0,2.632-.923,2.087,2.087,0,0,0,.431-.362,3.785,3.785,0,0,1,.629.362Q137.478,52.542,137.478,52.59Zm5.893.718a1.5,1.5,0,0,0-.321.451q-.109.219-.191.219a.924.924,0,0,1-.185-.041,11.46,11.46,0,0,1-2.912-1.271q-.068-.034-.068-.075t.109-.137l.28-.253a.277.277,0,0,1,.144-.082.21.21,0,0,1,.082.027A10.1,10.1,0,0,0,143.37,53.308Zm5.394-6.932q1.429-.854,3.274-1.818l.5.882a29.874,29.874,0,0,0-4.464,2.5,3.4,3.4,0,0,0-1.709,2.714q0,1.8,2.885,1.8,1.483,0,3.391-.137v1q-2.345.068-3.459.068-3.78,0-3.78-2.755,0-2.085,2.475-3.7-.588-2.14-1.087-5.024l1.032-.041A41.144,41.144,0,0,0,148.764,46.376Zm7.109-4.409h1.046q-.239,7.191-.239,8.668a2.135,2.135,0,0,0,.458,1.579,2.222,2.222,0,0,0,1.545.424,3.218,3.218,0,0,0,2.44-.943,5.471,5.471,0,0,0,1.217-2.673l.95.479q-.93,4.074-4.58,4.074a3.2,3.2,0,0,1-2.4-.718A3.1,3.1,0,0,1,155.7,50.7q0-.766.062-3.753Q155.846,43.334,155.873,41.967Zm17.623.772.027.964a5.312,5.312,0,0,0-2.311.629,5.934,5.934,0,0,0-2.071,1.962,4.817,4.817,0,0,0-.813,2.659,2.958,2.958,0,0,0,1.285,2.529,6.17,6.17,0,0,0,2.933,1l-.239,1a6.1,6.1,0,0,1-3.63-1.381,3.89,3.89,0,0,1-1.312-3.049,5.709,5.709,0,0,1,2.994-5.024l.759-.335-.014-.027-.656.109q-1.189.068-5.66.479l-.082-.923Q166.708,43.177,173.5,42.739Zm4.354,1.354V41.83h.964v2.208q1.511-.1,2.591-.219v.909q-1.224.123-2.591.205v2.707a8.692,8.692,0,0,1,2.646-.479,2.9,2.9,0,0,1,2.577,1.169,3.273,3.273,0,0,1,.533,1.894,2.654,2.654,0,0,1-1.3,2.591,6.067,6.067,0,0,1-2.707.465v-.9a3.954,3.954,0,0,0,2.167-.444,2.048,2.048,0,0,0,.772-1.825,2.11,2.11,0,0,0-.6-1.524,1.724,1.724,0,0,0-1.285-.561,7.651,7.651,0,0,0-2.8.533v3.609a1.437,1.437,0,0,1-.273,1,1.054,1.054,0,0,1-.786.26,2.259,2.259,0,0,1-1.189-.376,2.427,2.427,0,0,1-1.347-2.03q0-1.736,2.632-3.049v-3q-.813.048-2.434.075v-.9Q176.729,44.154,177.851,44.093Zm0,4.9a5.118,5.118,0,0,0-1.306,1.019,1.511,1.511,0,0,0-.39.984,1.078,1.078,0,0,0,.335.759,1.888,1.888,0,0,0,.69.458.9.9,0,0,0,.39.1q.28,0,.28-.465Zm3.9-5.64.6-.731a12.831,12.831,0,0,1,2.816,2.229l-.684.772A11,11,0,0,0,181.754,43.354Zm5.927-1.258.971.123a38.255,38.255,0,0,0-.424,4.9,10.011,10.011,0,0,0,.055,1.162q.506-1.2.957-2.1l.643.5a17.362,17.362,0,0,0-.978,2.2,6.692,6.692,0,0,0-.239.841l-1.08.014a13.112,13.112,0,0,1-.294-2.816A40.7,40.7,0,0,1,187.681,42.1Zm4.662.055,1.012-.041q.137,2.6.137,4.758a14.871,14.871,0,0,1-.239,3.042,4.749,4.749,0,0,1-.7,1.647,5.8,5.8,0,0,1-3.527,2.112l-.6-.807a4.78,4.78,0,0,0,3.151-1.7q.923-1.189.923-4.341Q192.5,44.94,192.343,42.151Zm7.923,1.442q-.027-1.176-.027-1.853h1v1.812q1.7-.062,3.37-.267v.868q-1.531.185-3.356.253l.041,2.01q1.935-.089,3.247-.26v.868q-1.538.171-3.233.232.014.335.062,1.449.027.745.048,1.2a10.066,10.066,0,0,1,3.726,2.372l-.7.861a9.516,9.516,0,0,0-3.015-2.249v.15a2.184,2.184,0,0,1-2.475,2.468,3.271,3.271,0,0,1-2.017-.5,1.7,1.7,0,0,1-.6-1.436,1.679,1.679,0,0,1,.8-1.449,3.138,3.138,0,0,1,1.832-.5,8.4,8.4,0,0,1,1.47.1q-.048-.848-.1-2.427-1.825.048-3.644,0v-.848q1.7.055,3.63.014-.027-.383-.034-1.087-.014-.663-.027-.943-2.105.041-3.794-.027v-.841Q198.16,43.642,200.266,43.594Zm.171,7.055a5.407,5.407,0,0,0-1.374-.185q-1.832,0-1.832,1.107,0,1.066,1.654,1.066,1.552,0,1.552-1.866ZM212.953,44.5q-.041,1.518,0,3.035a5.324,5.324,0,0,1,.308,1.777,3.687,3.687,0,0,1-1.306,3.069,7.744,7.744,0,0,1-3.274,1.271l-.588-.841a6.334,6.334,0,0,0,3.411-1.381,2.741,2.741,0,0,0,.807-1.88,1.856,1.856,0,0,1-1.8.882,2.2,2.2,0,0,1-1.531-.574,2.3,2.3,0,0,1,.123-3.356,2.469,2.469,0,0,1,1.559-.492,2,2,0,0,1,1.36.39q-.027-1.312-.027-1.873-2.249.034-5.435.239l-.014-.9q2.584-.1,5.435-.171V41.8l1,.014q0,.629-.027,1.859,2.324-.027,3.363-.027v.9Q214.635,44.5,212.953,44.5Zm-2.338,2.3a1.322,1.322,0,0,0-.984.4,1.413,1.413,0,0,0-.39,1.046,1.237,1.237,0,0,0,.444,1,1.288,1.288,0,0,0,.848.294,1.406,1.406,0,0,0,1.1-.41,1.3,1.3,0,0,0,.314-.916Q211.948,46.8,210.615,46.8Zm9.324,3.527a1.915,1.915,0,0,1,1.463.643,1.916,1.916,0,0,1-.144,2.748,1.936,1.936,0,0,1-1.319.5,1.9,1.9,0,0,1-1.463-.643,1.916,1.916,0,0,1,.144-2.748A1.936,1.936,0,0,1,219.939,50.327Zm0,.7a1.269,1.269,0,0,0-1.251,1.251,1.253,1.253,0,0,0,2.181.834,1.247,1.247,0,0,0-.93-2.085Z"
									transform="translate(14.85 -2.723)" fill="#595757" />
							</svg>