<svg xmlns="http://www.w3.org/2000/svg" width="249.061" height="13.542"
								viewBox="0 0 249.061 13.542">
								<path id="Контур_1731" data-name="Контур 1731"
									d="M-121.574.164a4.327,4.327,0,0,1-3.343-1.374,5.1,5.1,0,0,1-1.251-3.575,5.384,5.384,0,0,1,1.278-3.773,4.478,4.478,0,0,1,3.479-1.408A4.209,4.209,0,0,1-118.142-8.6,5.106,5.106,0,0,1-116.9-5.024a5.417,5.417,0,0,1-1.271,3.794,3.773,3.773,0,0,1-.643.574l2.755,1.976h-2.085l-1.846-1.381A5.314,5.314,0,0,1-121.574.164Zm.082-9.092A3.16,3.16,0,0,0-124-7.813a4.314,4.314,0,0,0-.964,2.926,4.384,4.384,0,0,0,.937,2.919,3.08,3.08,0,0,0,2.454,1.1,3.218,3.218,0,0,0,2.543-1.053,4.3,4.3,0,0,0,.93-2.946,4.479,4.479,0,0,0-.9-3A3.094,3.094,0,0,0-121.492-8.928ZM-114.731.15a.726.726,0,0,1-.537-.226.742.742,0,0,1-.222-.54.754.754,0,0,1,.222-.543.72.72,0,0,1,.537-.229.739.739,0,0,1,.547.229.748.748,0,0,1,.226.543.737.737,0,0,1-.226.54A.745.745,0,0,1-114.731.15Zm5.065-9.058V-11.17h.964v2.208q1.511-.1,2.591-.219v.909q-1.224.123-2.591.205v2.707a8.692,8.692,0,0,1,2.646-.479,2.9,2.9,0,0,1,2.577,1.169,3.273,3.273,0,0,1,.533,1.894,2.654,2.654,0,0,1-1.3,2.591,6.067,6.067,0,0,1-2.707.465v-.9a3.954,3.954,0,0,0,2.167-.444,2.048,2.048,0,0,0,.772-1.825,2.11,2.11,0,0,0-.6-1.524A1.724,1.724,0,0,0-105.9-4.97a7.652,7.652,0,0,0-2.8.533V-.827a1.437,1.437,0,0,1-.273,1,1.054,1.054,0,0,1-.786.26,2.259,2.259,0,0,1-1.189-.376,2.427,2.427,0,0,1-1.347-2.03q0-1.736,2.632-3.049v-3q-.813.048-2.434.075v-.9Q-110.787-8.846-109.666-8.907Zm0,4.9a5.118,5.118,0,0,0-1.306,1.019,1.511,1.511,0,0,0-.39.984,1.078,1.078,0,0,0,.335.759,1.888,1.888,0,0,0,.69.458.9.9,0,0,0,.39.1q.28,0,.28-.465Zm3.9-5.64.6-.731a12.831,12.831,0,0,1,2.816,2.229l-.684.772A11,11,0,0,0-105.762-9.646Zm17.295,6.009a2.1,2.1,0,0,0-.362.595q-.089.212-.171.212a1.477,1.477,0,0,1-.191-.027,21.157,21.157,0,0,1-5.6-1.887A14.8,14.8,0,0,1-98.3-3.233q.28.027,1.8.027h3.3l1.866-.027q.109,0,.109.1l-.027,1.08V-.882l.027,1.8q0,.1-.109.1h-.636q-.109,0-.109-.1V.335h-5.53V.9q0,.1-.109.1h-.636q-.109,0-.109-.1l.027-1.777V-1.935l-.027-1.2v-.041q-.807.246-1.948.513a1.079,1.079,0,0,1-.205.041q-.089,0-.185-.205a1.49,1.49,0,0,0-.349-.513,19.32,19.32,0,0,0,5.612-1.839,10.515,10.515,0,0,1-1.887-1.511A12.489,12.489,0,0,1-99.637-5.2a1.188,1.188,0,0,1-.226.1q-.041,0-.15-.157a1.274,1.274,0,0,0-.424-.417,10.162,10.162,0,0,0,3.821-2.926,3.068,3.068,0,0,0,.369-.643,5.962,5.962,0,0,1,.731.232q.123.068.123.144t-.144.185a1.612,1.612,0,0,0-.294.308q-.185.239-.308.376h3.473a.783.783,0,0,0,.335-.055A.317.317,0,0,1-92.2-8.1q.109,0,.39.28.239.253.239.376a.206.206,0,0,1-.144.2,1.379,1.379,0,0,0-.417.321,15.542,15.542,0,0,1-1.935,1.688A20.55,20.55,0,0,0-88.467-3.637ZM-92.077-.39V-2.5h-5.53V-.39Zm-.711-6.945h-3.951l-.171.185A10.306,10.306,0,0,0-94.8-5.626,12.59,12.59,0,0,0-92.788-7.335Zm3.5-.137a.1.1,0,0,1-.109.109h-.636a.1.1,0,0,1-.109-.109V-9.44h-9.591v1.969a.1.1,0,0,1-.109.109h-.636a.1.1,0,0,1-.109-.109l.027-1.449v-.437l-.027-.725a.1.1,0,0,1,.109-.109l1.935.027h3.083v-.547a3.786,3.786,0,0,0-.1-.95q.41.021.923.068.171.021.171.116a.846.846,0,0,1-.082.26,1.819,1.819,0,0,0-.068.547v.506h3.288l1.935-.027a.1.1,0,0,1,.109.109l-.027.629v.533ZM-74.447-.465A1.86,1.86,0,0,0-74.9.014q-.089.171-.164.171a.433.433,0,0,1-.2-.1,10.65,10.65,0,0,1-2.331-2.01A8.641,8.641,0,0,1-78.87-4.033q.055,2.939.055,3.657a1.138,1.138,0,0,1-.362.991,2.854,2.854,0,0,1-1.415.239.548.548,0,0,1-.28-.041.547.547,0,0,1-.089-.239,1.561,1.561,0,0,0-.246-.588,8.256,8.256,0,0,0,.923.055.82.82,0,0,0,.554-.123.62.62,0,0,0,.1-.424V-2.112q-1.244.807-2.769,1.62a1.943,1.943,0,0,0-.506.314q-.089.109-.157.109t-.123-.123q-.144-.253-.362-.745a4.57,4.57,0,0,0,.807-.294,26.732,26.732,0,0,0,3.11-1.7V-4.97h-1.3l-1.935.027q-.1,0-.1-.109V-5.6q0-.109.1-.109l1.935.027h1.3V-6.938h-.8l-1.764.027q-.109,0-.109-.116V-7.54q0-.116.109-.116l1.764.027h.8v-1.2h-.991L-82.5-8.8q-.109,0-.109-.1v-.554a.1.1,0,0,1,.109-.109l1.88.027h2.085a12.2,12.2,0,0,0,.752-1.429,2.654,2.654,0,0,0,.185-.588,5.368,5.368,0,0,1,.725.212q.171.048.171.15,0,.075-.137.185a.677.677,0,0,0-.2.267,12.632,12.632,0,0,1-.7,1.2h.465l1.846-.027q.13,0,.13.109V-8.9q0,.1-.13.1l-1.846-.027h-1.565v1.2h1.176l1.75-.027q.109,0,.109.116v.513q0,.116-.109.116l-1.75-.027h-1.176v1.258H-76.9l1.935-.027a.1.1,0,0,1,.109.109v.547a.1.1,0,0,1-.109.109L-76.9-4.97h-1.8a9.616,9.616,0,0,0,1.189,2.03A11.043,11.043,0,0,0-76.4-3.992a1.977,1.977,0,0,0,.335-.485,4.885,4.885,0,0,1,.574.444.258.258,0,0,1,.116.185q0,.109-.137.15a1.1,1.1,0,0,0-.424.294,13.717,13.717,0,0,1-1.135,1A10.167,10.167,0,0,0-74.447-.465ZM-82.992-8.08q0,.116-.109.116l-1.258-.027h-.089a9.323,9.323,0,0,0,1.442,3.035,1.831,1.831,0,0,0-.349.533q-.068.15-.123.15t-.13-.15A12.545,12.545,0,0,1-84.571-7.1q.007,2.755.082,5.79.014.759.041,1.7.014.465.014.506a.085.085,0,0,1-.1.1h-.67q-.116,0-.116-.1s.009-.406.027-1.2q.1-3.541.116-6.6a15.75,15.75,0,0,1-1.641,4.437q-.089.157-.137.157-.075,0-.116-.137a1.211,1.211,0,0,0-.362-.547,15.308,15.308,0,0,0,2.058-5h-.308l-1.271.027a.1.1,0,0,1-.116-.116v-.547q0-.123.116-.123l1.271.027h.417v-1.2a8.8,8.8,0,0,0-.109-1.668,6.609,6.609,0,0,1,.882.089q.171.021.171.123a.676.676,0,0,1-.082.253,4.858,4.858,0,0,0-.075,1.189v1.217h.116L-83.1-8.75q.109,0,.109.123Zm2.146,4.819q.048.048.048.075t-.1.137l-.294.273q-.116.123-.164.123-.027,0-.068-.062A6.8,6.8,0,0,0-82.6-4.02q-.055-.041-.055-.068t.109-.137l.239-.226q.109-.1.15-.1t.068.048A6.8,6.8,0,0,1-80.845-3.261Zm.725-6.918a.168.168,0,0,1,.014.062q0,.048-.1.109l-.41.219a.441.441,0,0,1-.164.075q-.041,0-.075-.089a4.652,4.652,0,0,0-.786-1.258.112.112,0,0,1-.041-.068q0-.041.144-.116l.362-.178a.368.368,0,0,1,.123-.041.146.146,0,0,1,.1.068A6.6,6.6,0,0,1-80.121-10.179Zm12.585,1.025a22.039,22.039,0,0,1-1.483,7.362A2.1,2.1,0,0,1-70.913-.308a1.749,1.749,0,0,1-1.606-1.06,6,6,0,0,1-.533-2.789,7.336,7.336,0,0,1,.458-2.618A5.114,5.114,0,0,1-71.555-8.5a4.675,4.675,0,0,1,1.716-1.128,5.426,5.426,0,0,1,1.969-.369,4.139,4.139,0,0,1,3.555,1.5,6.371,6.371,0,0,1,.964,3.808,5.114,5.114,0,0,1-1.121,3.4A5.6,5.6,0,0,1-67.748.492l-.485-.841A4.243,4.243,0,0,0-64.4-4.956a4.671,4.671,0,0,0-1.032-3.3A2.809,2.809,0,0,0-67.536-9.153Zm-1.053.109a3.075,3.075,0,0,0-1.292.4,4.459,4.459,0,0,0-1.06.93,5.252,5.252,0,0,0-1.148,3.582A4.6,4.6,0,0,0-71.678-2q.328.615.752.615a.82.82,0,0,0,.622-.26,2.544,2.544,0,0,0,.444-.759A19.819,19.819,0,0,0-68.588-9.044Zm9.632.137V-11.17h.964v2.208q1.511-.1,2.591-.219v.909q-1.224.123-2.591.205v2.707a8.692,8.692,0,0,1,2.646-.479A2.9,2.9,0,0,1-52.77-4.669a3.273,3.273,0,0,1,.533,1.894,2.654,2.654,0,0,1-1.3,2.591A6.067,6.067,0,0,1-56.243.28v-.9a3.954,3.954,0,0,0,2.167-.444A2.048,2.048,0,0,0-53.3-2.885a2.11,2.11,0,0,0-.6-1.524A1.724,1.724,0,0,0-55.19-4.97a7.651,7.651,0,0,0-2.8.533V-.827a1.437,1.437,0,0,1-.273,1,1.054,1.054,0,0,1-.786.26A2.259,2.259,0,0,1-60.242.055a2.427,2.427,0,0,1-1.347-2.03q0-1.736,2.632-3.049v-3q-.813.048-2.434.075v-.9Q-60.078-8.846-58.957-8.907Zm0,4.9a5.118,5.118,0,0,0-1.306,1.019,1.511,1.511,0,0,0-.39.984,1.078,1.078,0,0,0,.335.759,1.888,1.888,0,0,0,.69.458.9.9,0,0,0,.39.1q.28,0,.28-.465Zm3.9-5.64.6-.731a12.831,12.831,0,0,1,2.816,2.229l-.684.772A11,11,0,0,0-55.053-9.646ZM-38.011.089A1.727,1.727,0,0,0-38.428.7q-.1.226-.205.226A1.293,1.293,0,0,1-38.825.9a15.862,15.862,0,0,1-5.469-2.379A17.232,17.232,0,0,1-49.632.889a.951.951,0,0,1-.185.034q-.075,0-.191-.232a1.97,1.97,0,0,0-.376-.533,16.845,16.845,0,0,0,5.4-2.181,9.749,9.749,0,0,1-2.461-3.445q-.718.007-1.244.021-.1,0-.273.007h-.082a.1.1,0,0,1-.109-.109v-.622q0-.1.109-.1l1.948.027h2.324V-8.483h-3.445l-1.859.027q-.116,0-.116-.109v-.622q0-.109.116-.109l1.859.027h3.445v-.6a8.424,8.424,0,0,0-.109-1.7q.581.027.978.082.2.027.2.144a.477.477,0,0,1-.034.144,1.288,1.288,0,0,0-.055.137,4.6,4.6,0,0,0-.1,1.135v.656h3.685l1.859-.027a.1.1,0,0,1,.109.109v.622a.1.1,0,0,1-.109.109l-1.859-.027H-43.89v2.242h2.324a.948.948,0,0,0,.349-.055.515.515,0,0,1,.144-.027q.109,0,.376.267t.267.4q0,.082-.137.178a1.072,1.072,0,0,0-.294.335,11.912,11.912,0,0,1-2.721,3.124A15.292,15.292,0,0,0-38.011.089Zm-3.712-5.558h-4.785a8.624,8.624,0,0,0,2.242,2.939A10.331,10.331,0,0,0-41.723-5.469ZM-24.011.068a.268.268,0,0,1,.021.089q0,.068-.157.137l-.479.185a.638.638,0,0,1-.144.034q-.062,0-.1-.1-.123-.355-.472-1.244-2.673.6-6.132,1.066a1.288,1.288,0,0,0-.52.144.462.462,0,0,1-.212.1q-.1,0-.15-.144A5.5,5.5,0,0,1-32.59-.6a12.676,12.676,0,0,0,1.429-.1,76.319,76.319,0,0,0,2.153-8.682,11.487,11.487,0,0,0,.185-1.641q.485.082.909.2.212.062.212.164a.336.336,0,0,1-.082.212,2.655,2.655,0,0,0-.226.745A88.5,88.5,0,0,1-30.225-.813q2.222-.28,4.553-.8a28.477,28.477,0,0,0-1.586-3.008.161.161,0,0,1-.021-.068q0-.075.164-.144l.349-.15a.465.465,0,0,1,.157-.048.152.152,0,0,1,.123.089A28.313,28.313,0,0,1-24.011.068Zm-7.417-6.091a2.415,2.415,0,0,0-.068.574.418.418,0,0,1-.062.26,1.085,1.085,0,0,1-.246.15q-.875.417-1.47.656v1.8l.014,2.126a2.261,2.261,0,0,1-.089.745.757.757,0,0,1-.273.349,2.151,2.151,0,0,1-1.224.239h-.294q-.075.007-.109.007-.13,0-.164-.062a.8.8,0,0,1-.075-.212,2.152,2.152,0,0,0-.267-.629,10.586,10.586,0,0,0,1.094.055.5.5,0,0,0,.444-.178.933.933,0,0,0,.1-.506v-3.4q-.731.28-1.2.438a1.531,1.531,0,0,0-.506.253.368.368,0,0,1-.185.1.147.147,0,0,1-.15-.123Q-36.3-3.808-36.4-4.2a9.789,9.789,0,0,0,1.285-.342l1-.335V-7.909h-.561l-1.429.027a.1.1,0,0,1-.109-.109v-.6q0-.116.109-.116l1.429.027h.561V-9.8a8.788,8.788,0,0,0-.116-1.7,9.106,9.106,0,0,1,.943.082q.185.021.185.123a.787.787,0,0,1-.089.267,4.742,4.742,0,0,0-.082,1.217v1.135h.239l1.429-.027q.109,0,.109.116v.6a.1.1,0,0,1-.109.109l-1.429-.027h-.239V-5.2Q-32.057-5.7-31.428-6.022ZM-14.4-7.574q.021,2.769.123,4.689a7.23,7.23,0,0,1,2.468,1.832l-.677.841a6.685,6.685,0,0,0-1.791-1.634,2.112,2.112,0,0,1-.7,1.764,2.5,2.5,0,0,1-1.647.5q-2.42,0-2.42-1.9a1.583,1.583,0,0,1,.725-1.34,2.691,2.691,0,0,1,1.586-.451,6.841,6.841,0,0,1,1.483.15Q-15.343-5-15.371-7.533q-1.907.062-3.821.041v-.882q1.7.055,3.808-.014v-2.577h1q-.014.841-.014,2.522.875-.048,2.249-.185v.882Q-13.149-7.643-14.4-7.574Zm-.854,5.407a4.28,4.28,0,0,0-1.545-.28,1.734,1.734,0,0,0-.964.253.806.806,0,0,0-.4.711q0,1.053,1.511,1.053a1.26,1.26,0,0,0,1.114-.526,1.833,1.833,0,0,0,.287-1.073Zm-4.819-8.668a41.313,41.313,0,0,0-.841,6.87A33.207,33.207,0,0,0-20.58.376l-.978.089q-.321-3.117-.321-4.457a30.522,30.522,0,0,1,.287-3.685q.226-1.764.526-3.24ZM-6.532-6.624Q-5.1-7.479-3.257-8.442l.5.882a29.874,29.874,0,0,0-4.464,2.5A3.4,3.4,0,0,0-8.931-2.352q0,1.8,2.885,1.8,1.483,0,3.391-.137v1Q-5,.39-6.115.39-9.9.39-9.9-2.365q0-2.085,2.475-3.7-.588-2.14-1.087-5.024l1.032-.041A41.147,41.147,0,0,0-6.532-6.624Zm2-4.854.718-.28A18.275,18.275,0,0,1-2.786-9.393l-.752.308A14.831,14.831,0,0,0-4.536-11.478Zm1.586-.492.7-.253a11.566,11.566,0,0,1,1,2.3l-.731.294A13.488,13.488,0,0,0-2.95-11.97Zm8.2,2.816A22.039,22.039,0,0,1,3.77-1.791,2.1,2.1,0,0,1,1.876-.308,1.749,1.749,0,0,1,.27-1.367,6,6,0,0,1-.263-4.156,7.336,7.336,0,0,1,.195-6.774,5.114,5.114,0,0,1,1.234-8.5,4.675,4.675,0,0,1,2.95-9.625a5.426,5.426,0,0,1,1.969-.369A4.139,4.139,0,0,1,8.473-8.5a6.371,6.371,0,0,1,.964,3.808,5.114,5.114,0,0,1-1.121,3.4A5.6,5.6,0,0,1,5.042.492L4.556-.349A4.243,4.243,0,0,0,8.391-4.956a4.67,4.67,0,0,0-1.032-3.3A2.809,2.809,0,0,0,5.253-9.153ZM4.2-9.044a3.075,3.075,0,0,0-1.292.4,4.459,4.459,0,0,0-1.06.93A5.252,5.252,0,0,0,.7-4.129,4.6,4.6,0,0,0,1.111-2q.328.615.752.615a.82.82,0,0,0,.622-.26,2.544,2.544,0,0,0,.444-.759A19.819,19.819,0,0,0,4.2-9.044ZM16.054-7.4q.1,2.229.294,4a9.694,9.694,0,0,1,3.924,2.352l-.7.854A8.058,8.058,0,0,0,16.41-2.447q.027.472.027.725A1.94,1.94,0,0,1,15.63-.034,2.858,2.858,0,0,1,13.9.451q-2.646,0-2.646-1.989a1.848,1.848,0,0,1,.991-1.675,3.2,3.2,0,0,1,1.682-.444,9.773,9.773,0,0,1,1.442.075q-.349-3.309-.39-7.643H16q0,1.969.027,2.967,1.928-.062,3.657-.253l.014.882Q18.037-7.465,16.054-7.4Zm-.643,4.758a6.009,6.009,0,0,0-1.34-.144,2.563,2.563,0,0,0-1.422.328.984.984,0,0,0-.485.882q0,1.148,1.565,1.148,1.709,0,1.709-1.429Q15.439-2.112,15.412-2.646ZM23.423-11.3a32.631,32.631,0,0,0,4.86.827l-.239.95a42.05,42.05,0,0,1-4.888-.868ZM21.885-7.362A15.887,15.887,0,0,1,26-8.08q2.687,0,2.687,3.363A5.049,5.049,0,0,1,27.34-.95,7.448,7.448,0,0,1,23.97.725l-.52-.848a6.683,6.683,0,0,0,3.206-1.613,4.374,4.374,0,0,0,.971-3.049q0-2.386-1.682-2.386a13.446,13.446,0,0,0-3.7.786ZM34.429-3.568l.957.082a5.458,5.458,0,0,0-.157,1.258,1.054,1.054,0,0,0,.444.978,3.167,3.167,0,0,0,1.545.273,25.984,25.984,0,0,0,2.769-.144l.027,1.012q-1.025.082-2.659.082a4.349,4.349,0,0,1-2.44-.492,1.783,1.783,0,0,1-.636-1.552A7.219,7.219,0,0,1,34.429-3.568Zm.28-4.676V-9.2q1.75-.137,3.541-.137.889,0,1.668.041v.95Q39.194-8.4,38.155-8.4,36.364-8.4,34.709-8.244ZM33.2-10.657a36.343,36.343,0,0,0-.786,6.61A24.829,24.829,0,0,0,32.754.335l-1,.082a28.849,28.849,0,0,1-.321-4.491,40.268,40.268,0,0,1,.772-6.665ZM54.356-6.48q0,.109-.116.109l-1.9-.027h-.451v3.233l.027,2.577A1.313,1.313,0,0,1,51.54.533,4.079,4.079,0,0,1,49.591.8q-.219,0-.26-.048a.576.576,0,0,1-.089-.246,2.03,2.03,0,0,0-.294-.629q.622.055,1.34.055A1.059,1.059,0,0,0,50.9-.185a.517.517,0,0,0,.13-.417V-6.4H48.5l-1.914.027q-.116,0-.116-.109V-7.1q0-.109.116-.109l1.914.027h3.842l1.9-.027q.116,0,.116.109ZM46.03-7.841a.207.207,0,0,1-.1.157.993.993,0,0,0-.308.335q-.451.7-.786,1.135V-.937l.027,1.8a.1.1,0,0,1-.109.109h-.677a.1.1,0,0,1-.109-.109L44-.937V-3.445q0-.752.027-1.818a16,16,0,0,1-1.511,1.442.49.49,0,0,1-.2.123q-.055,0-.137-.171a1.8,1.8,0,0,0-.362-.485,11.989,11.989,0,0,0,3.063-3.4,2.66,2.66,0,0,0,.294-.67,5.052,5.052,0,0,1,.731.4A.256.256,0,0,1,46.03-7.841Zm7.588-2.064a.1.1,0,0,1-.109.109l-1.736-.027H49.14L47.417-9.8a.1.1,0,0,1-.109-.109v-.622a.1.1,0,0,1,.109-.109l1.723.027h2.632l1.736-.027a.1.1,0,0,1,.109.109Zm-7.656-1.087q0,.089-.171.185a1.971,1.971,0,0,0-.335.362,13.477,13.477,0,0,1-2.728,2.6.34.34,0,0,1-.2.1q-.075,0-.191-.191a1.884,1.884,0,0,0-.41-.437,10.483,10.483,0,0,0,2.83-2.591,2.16,2.16,0,0,0,.308-.615,4.347,4.347,0,0,1,.772.424Q45.961-11.074,45.961-10.992Zm13.3-.294q-.062,1.073-.1,2.188l.444-.027.144.513q-.506.9-.649,1.237l-.014.191-.109.506.239-.417A4.712,4.712,0,0,1,62.723-9a2.9,2.9,0,0,1,2.755,1.668,5.864,5.864,0,0,1,.588,2.728q0,4.238-4.368,4.833L61.24-.6A4.592,4.592,0,0,0,64.2-1.948a4,4,0,0,0,.82-2.687,4.4,4.4,0,0,0-.711-2.591,1.942,1.942,0,0,0-1.641-.923,3.126,3.126,0,0,0-1.818.567,9.108,9.108,0,0,0-1.757,1.743q-.014.786-.014,2.7,0,2.687.014,3.739h-.964q0-3.179.041-4.771l.089-.9-.342.766q-.1.2-1.408,2.646l-.745-.67q1.169-2.126,2.42-4.225l.027-1.627q-.144.014-.54.062-.909.1-1.613.191L55.99-8.75q.971-.082,2.235-.226.014-.752.062-2.311Zm10.924.075.971.014q-.021.588-.068,1.381-.034.615-.048,1l.424.362a.185.185,0,0,1,.055.137.263.263,0,0,1-.055.157,5.624,5.624,0,0,0-.465.9l-.041.533-.068.52.253-.547a11.41,11.41,0,0,1,1.948-2.092,2.737,2.737,0,0,1,1.647-.622,1.461,1.461,0,0,1,1.347.636,3.053,3.053,0,0,1,.335,1.6q0,1.114-.13,2.8-.123,1.791-.123,2.365a1.674,1.674,0,0,0,.157.868.452.452,0,0,0,.417.2q.841,0,1.313-2.3l.841.547a5.045,5.045,0,0,1-1,2.229,1.613,1.613,0,0,1-1.224.513,1.339,1.339,0,0,1-1.107-.41,2.439,2.439,0,0,1-.349-1.483q0-1.039.1-2.557.109-1.764.109-2.509a3.748,3.748,0,0,0-.15-1.3.563.563,0,0,0-.561-.369q-1.408,0-3.78,3.445V.561h-.964q0-2.338.055-4.464l.137-.882-.362.834q-.554,1.3-1.3,2.721l-.786-.656q.649-1.128,2.324-4.341.034-.779.055-1.75-.26.021-2.058.219l-.055-.834q1.271-.116,2.14-.212.007-.355.034-1.128Q70.181-10.685,70.188-11.211Zm14.342,1.8q-.027-1.176-.027-1.853h1v1.812q1.7-.062,3.37-.267v.868q-1.531.185-3.356.253l.041,2.01q1.935-.089,3.247-.26v.868q-1.538.171-3.233.232.014.335.062,1.449.027.745.048,1.2A10.066,10.066,0,0,1,89.4-.725l-.7.861a9.516,9.516,0,0,0-3.015-2.249v.15A2.184,2.184,0,0,1,83.217.506,3.271,3.271,0,0,1,81.2.007a1.7,1.7,0,0,1-.6-1.436,1.679,1.679,0,0,1,.8-1.449,3.138,3.138,0,0,1,1.832-.5,8.4,8.4,0,0,1,1.47.1q-.048-.848-.1-2.427-1.825.048-3.644,0v-.848q1.7.055,3.63.014-.027-.383-.034-1.087-.014-.663-.027-.943-2.105.041-3.794-.027v-.841Q82.424-9.358,84.53-9.406ZM84.7-2.352a5.407,5.407,0,0,0-1.374-.185q-1.832,0-1.832,1.107,0,1.066,1.654,1.066,1.552,0,1.552-1.866ZM97.217-8.5q-.041,1.518,0,3.035a5.324,5.324,0,0,1,.308,1.777A3.687,3.687,0,0,1,96.219-.615,7.744,7.744,0,0,1,92.945.656l-.588-.841a6.334,6.334,0,0,0,3.411-1.381,2.741,2.741,0,0,0,.807-1.88,1.856,1.856,0,0,1-1.8.882,2.2,2.2,0,0,1-1.531-.574,2.082,2.082,0,0,1-.67-1.62,2.07,2.07,0,0,1,.793-1.736,2.469,2.469,0,0,1,1.559-.492,2,2,0,0,1,1.36.39q-.027-1.312-.027-1.873Q94-8.436,90.819-8.23l-.014-.9q2.584-.1,5.435-.171v-1.9l1,.014q0,.629-.027,1.859,2.324-.027,3.363-.027v.9Q98.9-8.5,97.217-8.5ZM94.879-6.2a1.322,1.322,0,0,0-.984.4,1.413,1.413,0,0,0-.39,1.046,1.237,1.237,0,0,0,.444,1,1.288,1.288,0,0,0,.848.294,1.405,1.405,0,0,0,1.1-.41,1.3,1.3,0,0,0,.314-.916Q96.212-6.2,94.879-6.2Zm10.89-1.36A41.522,41.522,0,0,1,103.124.28L102.2-.082a37.252,37.252,0,0,0,2.563-7.41q-.848.062-2.577.226l-.055-.882q.513-.034,1.518-.1l1.313-.089q.26-1.183.533-2.782l.991.137q-.308,1.6-.533,2.591.786-.055,1.429-.055a1.428,1.428,0,0,1,1.278.567,3.662,3.662,0,0,1,.4,1.982,19.506,19.506,0,0,1-.437,4.97,1.777,1.777,0,0,1-.636,1,1.828,1.828,0,0,1-1.073.28A9.249,9.249,0,0,1,105.5.253l-.171-.978a6.216,6.216,0,0,0,1.244.164,1.47,1.47,0,0,0,.745-.144.9.9,0,0,0,.335-.485,16.428,16.428,0,0,0,.444-4.566,3.52,3.52,0,0,0-.219-1.538.713.713,0,0,0-.677-.321Q106.555-7.615,105.769-7.561Zm3.575-1.832.9-.4a19.305,19.305,0,0,1,2.112,5.031l-.991.4A17.207,17.207,0,0,0,109.344-9.393Zm7.15,1.135a3.217,3.217,0,0,1,1.224-2.133,3.372,3.372,0,0,1,2.078-.629,3.228,3.228,0,0,1,2.345.834,2.491,2.491,0,0,1,.752,1.866,2.636,2.636,0,0,1-.417,1.442,6.8,6.8,0,0,1-1.237,1.333,3.536,3.536,0,0,0-.971,1.23,4.587,4.587,0,0,0-.191,1.442h-.923V-3.22a3.931,3.931,0,0,1,.294-1.661,4.185,4.185,0,0,1,.909-1.169,5.82,5.82,0,0,0,1.1-1.306,2.045,2.045,0,0,0,.219-.964,1.627,1.627,0,0,0-.554-1.319,1.936,1.936,0,0,0-1.306-.417q-1.914,0-2.174,2.092Zm3.876,7v1.5h-1.524v-1.5Z"
									transform="translate(126.167 12.223)" fill="#595757" />
							</svg>