	<svg xmlns="http://www.w3.org/2000/svg" width="308.323" height="51.467"
								viewBox="0 0 308.323 51.467">
								<g id="Сгруппировать_375" data-name="Сгруппировать 375"
									transform="translate(-29.15 -9991.179)">
									<path id="Контур_1736" data-name="Контур 1736"
										d="M8.873,0H7.6L6.563-2.748H2.406L1.429,0H.15L3.91-9.8H5.1ZM6.187-3.78,4.648-7.957a4,4,0,0,1-.15-.656H4.471a3.661,3.661,0,0,1-.157.656L2.789-3.78ZM10.555.15a.726.726,0,0,1-.537-.226A.742.742,0,0,1,9.8-.615a.754.754,0,0,1,.222-.543.72.72,0,0,1,.537-.229.739.739,0,0,1,.547.229.748.748,0,0,1,.226.543.737.737,0,0,1-.226.54A.745.745,0,0,1,10.555.15Z"
										transform="translate(29 10004)" fill="#595757" />
									<path id="Контур_1735" data-name="Контур 1735"
										d="M6.911,3.475,7.629,3.2A18.275,18.275,0,0,1,8.661,5.566l-.752.308A14.312,14.312,0,0,0,6.911,3.475ZM1.524,10.741l.909.28A3.153,3.153,0,0,0,1.9,12.847q0,1.593,2.871,1.593a31.8,31.8,0,0,0,3.555-.2l.014,1.053Q6.7,15.4,4.758,15.4a5.244,5.244,0,0,1-2.871-.622,2.206,2.206,0,0,1-.95-1.962A3.852,3.852,0,0,1,1.524,10.741ZM8.415,3l.7-.253a11.327,11.327,0,0,1,.991,2.3l-.725.294A13.488,13.488,0,0,0,8.415,3ZM1.709,4.821q.868.041,2.5.041.718,0,2.481-.082l.52,1.258A22.684,22.684,0,0,0,4.382,7.9l-.629-.7q.3-.212,2.406-1.524A18.642,18.642,0,0,1,3.9,5.785q-.854,0-2.194-.055Zm19.8,10.938q0,.1-.109.1h-.663q-.109,0-.109-.1v-.786H13.692v.8q0,.1-.109.1H12.92q-.109,0-.109-.1l.027-4.437V8.745L12.811,5.4a.1.1,0,0,1,.109-.109l1.962.027h.827A12.481,12.481,0,0,0,16.27,3.83a3.218,3.218,0,0,0,.1-.615q.41.055.9.164.171.048.171.157a.228.228,0,0,1-.082.15,1.128,1.128,0,0,0-.212.355q-.308.82-.533,1.271h2.83L21.4,5.286a.1.1,0,0,1,.109.109l-.027,3.028v2.9Zm-.882-1.586V11.842H13.692v2.331Zm0-3.1v-2.1H13.692v2.1Zm0-2.871V6.113H13.692V8.2Zm15.832,7.547q0,.1-.109.1h-.69q-.109,0-.109-.1V15H26.77v.772a.1.1,0,0,1-.109.109h-.677a.1.1,0,0,1-.109-.109l.027-3.917V9.518l-.027-2.974a.1.1,0,0,1,.109-.109l1.976.027H30.6V5.368A11.875,11.875,0,0,0,30.5,3.481a9.06,9.06,0,0,1,.978.082q.171.027.171.123a.44.44,0,0,1-.027.13q-.034.1-.041.137a6.8,6.8,0,0,0-.089,1.388V6.462h2.885l1.976-.027a.1.1,0,0,1,.109.109l-.027,2.707v2.591ZM35.547,14.2V11.015H31.486V14.2Zm-4.942,0V11.015H26.77V14.2Zm4.942-3.972V7.262H31.486v2.967Zm-4.942,0V7.262H26.77v2.967Zm11.9,1.2.957.082a5.458,5.458,0,0,0-.157,1.258,1.054,1.054,0,0,0,.444.978,3.167,3.167,0,0,0,1.545.273,25.984,25.984,0,0,0,2.769-.144l.027,1.012q-1.025.082-2.659.082a4.349,4.349,0,0,1-2.44-.492,1.783,1.783,0,0,1-.636-1.552A7.219,7.219,0,0,1,42.506,11.432Zm.28-4.676V5.8q1.75-.137,3.541-.137.889,0,1.668.041v.95Q47.271,6.6,46.231,6.6,44.44,6.6,42.786,6.756ZM41.275,4.343a36.343,36.343,0,0,0-.786,6.61,24.829,24.829,0,0,0,.342,4.382l-1,.082a28.85,28.85,0,0,1-.321-4.491,40.269,40.269,0,0,1,.772-6.665ZM61.236,9.675l-.027,1.641v1.5l.014,1.887a1.126,1.126,0,0,1-.294.923,2.175,2.175,0,0,1-1.224.253h-.164a.487.487,0,0,1-.26-.041.568.568,0,0,1-.1-.239,1.985,1.985,0,0,0-.294-.547q.492.041.95.041.41,0,.52-.137a.627.627,0,0,0,.082-.376V13.571H56.362V14.1L56.39,15.9q0,.1-.116.1h-.6q-.109,0-.109-.1l.027-1.764V11.247l-.027-1.572a.1.1,0,0,1,.109-.109l1.654.027h2.16l1.641-.027A.1.1,0,0,1,61.236,9.675Zm-.8,1.586v-1H56.362v1Zm0,1.654v-1H56.362v1ZM62.4,8.67q0,.1-.1.1l-1.9-.027H56.7l-1.9.027q-.116,0-.116-.1V8.164q0-.109.116-.109l1.9.027h1.23V7.091h-.711l-1.682.027q-.109,0-.109-.116V6.544q0-.116.109-.116l1.682.027h.711V5.519h-.937L55.2,5.546a.1.1,0,0,1-.109-.109V4.944a.1.1,0,0,1,.109-.109l1.791.027h.937a9.943,9.943,0,0,0-.1-1.538,7.56,7.56,0,0,1,.9.068q.171.021.171.123a.824.824,0,0,1-.082.28,3.658,3.658,0,0,0-.089,1.066h1.265l1.8-.027a.1.1,0,0,1,.109.109v.492a.1.1,0,0,1-.109.109l-1.8-.027H58.728v.937H59.6l1.668-.027q.123,0,.123.116V7q0,.116-.123.116L59.6,7.091h-.868v.991H60.4l1.9-.027q.1,0,.1.109Zm-8.121,6.993q0,.109-.116.109h-.574a.1.1,0,0,1-.109-.109V15.2h-2.14v.7q0,.116-.109.116h-.574a.1.1,0,0,1-.116-.116l.027-2.044V13l-.027-1.217a.1.1,0,0,1,.109-.109l1.237.027h1.032l1.251-.027a.1.1,0,0,1,.109.109l-.027,1v.909Zm-.8-1.148V12.382h-2.14v2.133Zm1.189-7.841q0,.123-.109.123l-1.47-.027H51.5l-1.47.027q-.109,0-.109-.123V6.093a.1.1,0,0,1,.109-.109l1.47.027h1.586l1.47-.027a.1.1,0,0,1,.109.109Zm-.335-1.935a.1.1,0,0,1-.109.109l-1.23-.027H51.9l-1.23.027q-.116,0-.116-.109V4.179q0-.109.116-.109L51.9,4.1h1.094l1.23-.027a.1.1,0,0,1,.109.109Zm-.2,3.835q0,.109-.123.109l-1.148-.027h-.937l-1.162.027q-.116,0-.116-.109V8.027q0-.109.116-.109l1.162.027h.937l1.148-.027q.123,0,.123.109Zm0,1.859q0,.116-.123.116l-1.148-.027h-.937l-1.162.027a.1.1,0,0,1-.116-.116V9.887q0-.109.116-.109l1.162.027h.937l1.148-.027q.123,0,.123.109ZM76.289,14.1a1.989,1.989,0,0,0-.492.547q-.123.178-.185.178a1.037,1.037,0,0,1-.191-.1A11.336,11.336,0,0,1,70.4,8.212q.1,5.325.1,6.4A1.1,1.1,0,0,1,70,15.67a4.483,4.483,0,0,1-1.7.226.427.427,0,0,1-.246-.041.838.838,0,0,1-.089-.239,1.774,1.774,0,0,0-.321-.643q.663.055,1.012.055a1.366,1.366,0,0,0,.772-.144.635.635,0,0,0,.178-.526V7H66.083l-1.853.027a.1.1,0,0,1-.109-.109V6.291a.1.1,0,0,1,.109-.109l1.853.027H69.61V5.143a8.945,8.945,0,0,0-.1-1.675,8.64,8.64,0,0,1,.937.082q.157.021.157.109a.776.776,0,0,1-.068.294,5.593,5.593,0,0,0-.068,1.176v1.08h3.6l1.859-.027q.116,0,.116.109v.622q0,.109-.116.109L74.061,7H70.574a13.233,13.233,0,0,0,1.4,3.165,12.642,12.642,0,0,0,1.8-1.866,2.115,2.115,0,0,0,.376-.643,3.535,3.535,0,0,1,.711.506.264.264,0,0,1,.116.2q0,.075-.157.178a2.753,2.753,0,0,0-.643.574,16.843,16.843,0,0,1-1.791,1.7A11.363,11.363,0,0,0,76.289,14.1Zm-7.437-2.6a1.273,1.273,0,0,1,.034.205q0,.1-.2.246a30.161,30.161,0,0,1-3.227,1.976,2.078,2.078,0,0,0-.485.308.323.323,0,0,1-.185.109q-.075,0-.164-.137a6.979,6.979,0,0,1-.383-.759,7.02,7.02,0,0,0,1.025-.424,25.379,25.379,0,0,0,3.527-2.1A2.792,2.792,0,0,0,68.852,11.5Zm-.978-1.791a.166.166,0,0,1,.041.082q0,.048-.082.13l-.369.349q-.137.13-.171.13t-.062-.055a7.6,7.6,0,0,0-1.709-1.921q-.062-.055-.062-.082t.13-.144L65.9,7.9a.284.284,0,0,1,.137-.082.168.168,0,0,1,.075.027A8.575,8.575,0,0,1,67.874,9.709ZM74.5,5.115a.093.093,0,0,1,.041.068q0,.062-.137.171l-.267.239q-.144.123-.191.123a.149.149,0,0,1-.089-.055,6.737,6.737,0,0,0-1.647-1.4q-.068-.048-.068-.082t.109-.144l.294-.246q.075-.068.109-.068a.266.266,0,0,1,.1.034A8.449,8.449,0,0,1,74.5,5.115Zm4.389-1.148h1.046q-.239,7.191-.239,8.668a2.136,2.136,0,0,0,.458,1.579,2.222,2.222,0,0,0,1.545.424,3.218,3.218,0,0,0,2.44-.943,5.471,5.471,0,0,0,1.217-2.673l.95.479q-.93,4.074-4.58,4.074a3.2,3.2,0,0,1-2.4-.718,3.1,3.1,0,0,1-.608-2.153q0-.766.062-3.753Q78.866,5.334,78.894,3.967Zm17.623.772.027.964a5.312,5.312,0,0,0-2.311.629,5.934,5.934,0,0,0-2.071,1.962,4.817,4.817,0,0,0-.813,2.659,2.958,2.958,0,0,0,1.285,2.529,6.17,6.17,0,0,0,2.933,1l-.239,1A6.1,6.1,0,0,1,91.7,14.1a3.89,3.89,0,0,1-1.312-3.049,5.709,5.709,0,0,1,2.994-5.024l.759-.335-.014-.027-.656.109q-1.189.068-5.66.479l-.082-.923Q89.729,5.177,96.517,4.739Zm6,6.549.854.615q-.677,3.377-2.27,3.377a1.651,1.651,0,0,1-1.538-1.019,9.207,9.207,0,0,1-.718-3.227q-.109-1.312-.109-3.541l.014-2.632h1.012L99.736,7.05q0,2.646.116,3.9.267,3.22,1.217,3.22.485,0,.813-.711A11.913,11.913,0,0,0,102.512,11.288Zm2.1-5.346.909-.267a17.059,17.059,0,0,1,2.427,7.574l-1.053.171A17.589,17.589,0,0,0,104.61,5.942Zm7.444,1q-1.155.062-2.365.062V6.127q1.4,0,2.509-.062.191-1.422.267-2.447l1.032.1q-.109,1.025-.321,2.311,1.36-.089,3.1-.239l.014.882q-1.429.15-3.254.239a53.168,53.168,0,0,1-2.208,8.524l-.978-.335A47.881,47.881,0,0,0,112.055,6.947Zm1.709,5.38.868.068a3.679,3.679,0,0,0-.082.786,1.075,1.075,0,0,0,.513,1.08,4.218,4.218,0,0,0,1.559.191,16.519,16.519,0,0,0,2.167-.109l.055.964q-.834.082-2.044.082a4.645,4.645,0,0,1-2.5-.472,1.737,1.737,0,0,1-.636-1.531A5.222,5.222,0,0,1,113.764,12.327Zm.711-2.994V8.4a40.056,40.056,0,0,1,4.259-.191v.9A32.162,32.162,0,0,0,114.475,9.333Zm8.716-3.268q.191-1.422.267-2.447l1.032.1q-.109,1.025-.321,2.311,1.36-.089,3.1-.239l.014.882q-1.429.15-3.254.239a53.168,53.168,0,0,1-2.208,8.524l-.978-.335a47.881,47.881,0,0,0,2.208-8.148q-1.155.062-2.365.062V6.127Q122.083,6.127,123.19,6.065Zm4.088-2.488.711-.28a18.727,18.727,0,0,1,1.039,2.365l-.759.308A14.485,14.485,0,0,0,127.278,3.577Zm-2.522,8.75.868.068a3.679,3.679,0,0,0-.082.786,1.075,1.075,0,0,0,.513,1.08,4.218,4.218,0,0,0,1.559.191,16.519,16.519,0,0,0,2.167-.109l.055.964q-.834.082-2.044.082a4.645,4.645,0,0,1-2.5-.472,1.737,1.737,0,0,1-.636-1.531A5.222,5.222,0,0,1,124.756,12.327Zm.711-2.994V8.4q1.982-.191,4.259-.191v.9A32.162,32.162,0,0,0,125.467,9.333Zm3.363-6.275.7-.253a11.566,11.566,0,0,1,1,2.3l-.731.294A13.487,13.487,0,0,0,128.83,3.058ZM139.289,6.53q.752-.068,1.723-.2l.041.9q-.772.1-1.764.171.014.725.014,2.126a8.667,8.667,0,0,1-.759,4.279,5.231,5.231,0,0,1-2.372,1.784l-.663-.745a5.251,5.251,0,0,0,1.777-1.1,3.429,3.429,0,0,0,.834-1.647,12.536,12.536,0,0,0,.205-2.6q0-1.34-.014-2.03-2.044.1-3.582.041l-.014-.882q1.8.062,3.6-.041-.027-1.846-.055-2.728h1Q139.262,4.739,139.289,6.53Zm-5.735-2.481q-.273,1.545-.472,3.548-.191,1.907-.191,3.145A17.717,17.717,0,0,0,133.4,14.9l-.991.082a22.764,22.764,0,0,1-.492-4.272,37.518,37.518,0,0,1,.26-3.767q.185-1.7.383-2.98Zm13.228,1.545q-.027-1.176-.027-1.853h1V5.553q1.7-.062,3.37-.267v.868q-1.531.185-3.356.253l.041,2.01q1.935-.089,3.247-.26v.868q-1.538.171-3.233.232.014.335.062,1.449.027.745.048,1.2a10.066,10.066,0,0,1,3.726,2.372l-.7.861a9.516,9.516,0,0,0-3.015-2.249v.15a2.184,2.184,0,0,1-2.475,2.468,3.271,3.271,0,0,1-2.017-.5,1.7,1.7,0,0,1-.6-1.436,1.679,1.679,0,0,1,.8-1.449,3.138,3.138,0,0,1,1.832-.5,8.4,8.4,0,0,1,1.47.1q-.048-.848-.1-2.427-1.825.048-3.644,0V8.451q1.7.055,3.63.014-.027-.383-.034-1.087-.014-.663-.027-.943-2.105.041-3.794-.027V5.566Q144.676,5.642,146.781,5.594Zm.171,7.055a5.407,5.407,0,0,0-1.374-.185q-1.832,0-1.832,1.107,0,1.066,1.654,1.066,1.552,0,1.552-1.866ZM159.469,6.5q-.041,1.518,0,3.035a5.324,5.324,0,0,1,.308,1.777,3.687,3.687,0,0,1-1.306,3.069,7.744,7.744,0,0,1-3.274,1.271l-.588-.841a6.334,6.334,0,0,0,3.411-1.381,2.741,2.741,0,0,0,.807-1.88,1.856,1.856,0,0,1-1.8.882,2.2,2.2,0,0,1-1.531-.574,2.082,2.082,0,0,1-.67-1.62,2.07,2.07,0,0,1,.793-1.736,2.469,2.469,0,0,1,1.559-.492,2,2,0,0,1,1.36.39Q158.5,7.091,158.5,6.53q-2.249.034-5.435.239l-.014-.9q2.584-.1,5.435-.171V3.8l1,.014q0,.629-.027,1.859,2.324-.027,3.363-.027v.9Q161.15,6.5,159.469,6.5Zm-2.338,2.3a1.322,1.322,0,0,0-.984.4,1.413,1.413,0,0,0-.39,1.046,1.237,1.237,0,0,0,.444,1,1.288,1.288,0,0,0,.848.294,1.406,1.406,0,0,0,1.1-.41,1.3,1.3,0,0,0,.314-.916Q158.464,8.8,157.131,8.8Zm9.324,3.527a1.915,1.915,0,0,1,1.463.643,1.916,1.916,0,0,1-.144,2.748,1.936,1.936,0,0,1-1.319.5,1.9,1.9,0,0,1-1.463-.643,1.916,1.916,0,0,1,.144-2.748A1.936,1.936,0,0,1,166.455,12.327Zm0,.7a1.269,1.269,0,0,0-1.251,1.251,1.253,1.253,0,0,0,2.181.834,1.247,1.247,0,0,0-.93-2.085Zm19.975.786a2.211,2.211,0,0,1-.561,1.552,2.509,2.509,0,0,1-1.552.362,6.232,6.232,0,0,1-1.449-.123q-.5-.15-.5-.868v-3.22h-1.135a4.425,4.425,0,0,1-1.34,3.008,7.024,7.024,0,0,1-2.871,1.374.651.651,0,0,1-.178.041q-.089,0-.239-.226a1.688,1.688,0,0,0-.41-.444,6.865,6.865,0,0,0,3.165-1.333,3.5,3.5,0,0,0,1.025-2.42q-.643.014-1.128.021l-.328.007a.1.1,0,0,1-.109-.109l.027-1.723V5.874l-.027-1.7q0-.13.109-.13l1.75.027h2.57l1.736-.027q.116,0,.116.13l-.027,1.7V9.709l.027,1.723q0,.109-.116.109l-1.736-.027H183.2v2.83a1.076,1.076,0,0,0,.048.4.275.275,0,0,0,.219.137,4.762,4.762,0,0,0,.868.055,1.729,1.729,0,0,0,.978-.2.856.856,0,0,0,.314-.595,8.2,8.2,0,0,0,.082-.991,2.415,2.415,0,0,0,.526.308q.212.1.212.212A1.111,1.111,0,0,1,186.43,13.811ZM184.263,10.8V9.23h-4.587V10.8Zm0-4.484V4.828h-4.587v1.49Zm0,2.2v-1.5h-4.587v1.5Zm-6-3.445q0,.13-.116.13l-1.367-.027h-.308V8.2h.178l1.278-.027a.1.1,0,0,1,.109.109v.588q0,.116-.109.116l-1.278-.027h-.178v3.049a17.77,17.77,0,0,0,1.777-.909,2.482,2.482,0,0,0-.021.321q0,.116.007.226t.007.144q0,.144-.219.273a26.432,26.432,0,0,1-3.22,1.5,1.982,1.982,0,0,0-.52.239.232.232,0,0,1-.157.082q-.068,0-.123-.123a6.121,6.121,0,0,1-.28-.813,7.785,7.785,0,0,0,1.285-.362q.212-.068.636-.239V8.957H175.4l-1.265.027q-.109,0-.109-.116V8.28a.1.1,0,0,1,.109-.109L175.4,8.2h.239V5.177H175.3l-1.367.027q-.1,0-.1-.13V4.486q0-.109.1-.109L175.3,4.4h1.477l1.367-.027q.116,0,.116.109Zm21.725,1.21q0,.109-.116.109l-1.846-.027h-5.332a12.906,12.906,0,0,1-1.921,3.083v4.587l.027,1.8a.1.1,0,0,1-.109.109h-.677a.1.1,0,0,1-.109-.109l.027-1.8V10.372a17.028,17.028,0,0,1-1.606,1.374.525.525,0,0,1-.212.109q-.062,0-.185-.185a1.52,1.52,0,0,0-.458-.444,12.46,12.46,0,0,0,2.447-2.044,7.326,7.326,0,0,0-.082-.8q.458.027.7.055a10.711,10.711,0,0,0,1.251-2.071h-1.907l-1.846.027q-.116,0-.116-.109V5.676q0-.109.116-.109l1.846.027H192.1a11.07,11.07,0,0,0,.417-1.3,3.135,3.135,0,0,0,.13-.834q0-.041-.007-.109a8.12,8.12,0,0,1,.9.185q.185.055.185.185a.3.3,0,0,1-.109.191,1.466,1.466,0,0,0-.239.533Q193.218,5,193,5.594h5.024l1.846-.027q.116,0,.116.109Zm.041,8.969a.1.1,0,0,1-.109.109l-1.962-.027h-4.437l-1.948.027a.1.1,0,0,1-.109-.109v-.622a.1.1,0,0,1,.109-.109l1.948.027h1.552V10.987h-.991l-1.839.027a.1.1,0,0,1-.109-.109v-.595a.1.1,0,0,1,.109-.109l1.839.027h.991V9.251a13.753,13.753,0,0,0-.1-1.907,8.435,8.435,0,0,1,.937.082q.171.027.171.116a1.328,1.328,0,0,1-.055.253,5.807,5.807,0,0,0-.1,1.429v1h1.36L199.1,10.2a.1.1,0,0,1,.109.109v.595a.1.1,0,0,1-.109.109l-1.818-.027h-1.36v3.562h2.03l1.962-.027a.1.1,0,0,1,.109.109Zm9.734-7.827q.021,2.769.123,4.689a7.23,7.23,0,0,1,2.468,1.832l-.677.841a6.685,6.685,0,0,0-1.791-1.634,2.112,2.112,0,0,1-.7,1.764,2.5,2.5,0,0,1-1.647.5q-2.42,0-2.42-1.9a1.583,1.583,0,0,1,.725-1.34,2.691,2.691,0,0,1,1.586-.451,6.841,6.841,0,0,1,1.483.15q-.089-1.873-.116-4.409-1.907.062-3.821.041V6.626q1.7.055,3.808-.014V4.035h1q-.014.841-.014,2.522.875-.048,2.249-.185v.882Q211.012,7.357,209.761,7.426Zm-.854,5.407a4.28,4.28,0,0,0-1.545-.28,1.734,1.734,0,0,0-.964.253.806.806,0,0,0-.4.711q0,1.053,1.511,1.053a1.26,1.26,0,0,0,1.114-.526,1.833,1.833,0,0,0,.287-1.073Zm-4.819-8.668a41.313,41.313,0,0,0-.841,6.87,33.206,33.206,0,0,0,.335,4.341l-.978.089q-.321-3.117-.321-4.457a30.522,30.522,0,0,1,.287-3.685q.226-1.764.526-3.24Zm15.729-.69.718-.273a18.274,18.274,0,0,1,1.032,2.365l-.752.308A14.312,14.312,0,0,0,219.816,3.475Zm-5.387,7.267.909.28a3.153,3.153,0,0,0-.533,1.825q0,1.593,2.871,1.593a31.8,31.8,0,0,0,3.555-.2l.014,1.053q-1.641.109-3.582.109a5.244,5.244,0,0,1-2.871-.622,2.206,2.206,0,0,1-.95-1.962A3.852,3.852,0,0,1,214.43,10.741ZM221.32,3l.7-.253a11.327,11.327,0,0,1,.991,2.3l-.725.294A13.487,13.487,0,0,0,221.32,3Zm-6.706,1.818q.868.041,2.5.041.718,0,2.481-.082l.52,1.258a22.685,22.685,0,0,0-2.83,1.866l-.629-.7q.3-.212,2.406-1.524a18.642,18.642,0,0,1-2.256.109q-.854,0-2.194-.055ZM236.12,9.2q0,.116-.171.212a2.011,2.011,0,0,0-.5.465,11.817,11.817,0,0,1-1.812,1.736q-.144.123-.2.123a.871.871,0,0,1-.232-.157,2.794,2.794,0,0,0-.608-.335,8.584,8.584,0,0,0,1.989-1.736H230.7V12.58l.014,1.914a1.242,1.242,0,0,1-.362,1.025,3.378,3.378,0,0,1-1.709.267h-.294q-.232,0-.273-.048a.64.64,0,0,1-.089-.246,2.856,2.856,0,0,0-.28-.69,14.115,14.115,0,0,0,1.456.089.739.739,0,0,0,.513-.13.585.585,0,0,0,.116-.417V9.511h-3.541l-1.866.027a.1.1,0,0,1-.109-.109V8.752a.1.1,0,0,1,.109-.109l1.866.027h4.4a14.828,14.828,0,0,0-2.953-2.126q-.075-.041-.075-.062a.6.6,0,0,1,.1-.15l.28-.321q.075-.082.116-.082a.148.148,0,0,1,.075.034,15.894,15.894,0,0,1,1.784,1.1,17.941,17.941,0,0,0,3.09-2.071h-5.5l-1.969.027q-.1,0-.1-.109V4.261q0-.109.1-.109l1.969.027h5.865a1.046,1.046,0,0,0,.342-.041,1.255,1.255,0,0,1,.191-.068q.13,0,.438.308t.308.465q0,.116-.2.191a1.606,1.606,0,0,0-.485.294,18.989,18.989,0,0,1-3.363,2.235q.253.205.841.731.048.041.048.062a.686.686,0,0,1-.123.13l-.191.185h3.637a.792.792,0,0,0,.355-.055.42.42,0,0,1,.164-.055,1.068,1.068,0,0,1,.451.267Q236.12,9.073,236.12,9.2Zm7.369,1.306a.268.268,0,0,1,.021.089q0,.075-.178.13l-.321.1a.579.579,0,0,1-.137.027q-.062,0-.082-.089-.205-.629-.267-.807l-1.347.137v3.753l.027,2.044q0,.1-.109.1h-.636q-.109,0-.109-.1l.027-2.044V10.167l-1.538.116a1.534,1.534,0,0,0-.533.109.422.422,0,0,1-.157.055q-.089,0-.137-.178-.055-.212-.144-.772.444.041.882.041h.171q.5-.649,1.053-1.456a19.586,19.586,0,0,0-2.064-2.153.146.146,0,0,1-.062-.1q0-.041.109-.157l.239-.294q.089-.1.13-.1t.089.062l.533.52q.52-.807.923-1.586a3.59,3.59,0,0,0,.369-.95q.376.15.779.349.157.075.157.185,0,.075-.123.15a.821.821,0,0,0-.239.294q-.738,1.224-1.347,2.085.479.479.937,1.025.52-.834.909-1.5a6.473,6.473,0,0,0,.561-1.189,5.8,5.8,0,0,1,.772.39.209.209,0,0,1,.123.171q0,.089-.137.178a2.63,2.63,0,0,0-.492.615Q240.987,7.925,239.8,9.5q1.354-.075,2.468-.164a10.8,10.8,0,0,0-.547-1.08.168.168,0,0,1-.027-.075q0-.055.164-.123l.253-.1a.369.369,0,0,1,.15-.048q.055,0,.1.075A14.107,14.107,0,0,1,243.489,10.509Zm6.31-4.58q-.027.355-.027,1.066a45.94,45.94,0,0,1-.451,6.788,3.462,3.462,0,0,1-.608,1.634,1.439,1.439,0,0,1-1.142.479,10.86,10.86,0,0,1-1.3-.068.457.457,0,0,1-.267-.075.769.769,0,0,1-.082-.26,2.124,2.124,0,0,0-.226-.629,12.161,12.161,0,0,0,1.818.191.759.759,0,0,0,.69-.506,4.283,4.283,0,0,0,.294-1.073,44.315,44.315,0,0,0,.39-6.87H244.8a11.224,11.224,0,0,1-1.176,1.818q-.116.157-.2.157t-.205-.144a1.731,1.731,0,0,0-.451-.335,10.017,10.017,0,0,0,2.03-3.568,5.634,5.634,0,0,0,.267-1.237,6.023,6.023,0,0,1,.868.226q.2.068.2.171a.392.392,0,0,1-.123.246,1.736,1.736,0,0,0-.355.677q-.144.451-.479,1.217h2.987l1.511-.027A.109.109,0,0,1,249.8,5.929Zm-2.9,5.558a.221.221,0,0,1,.034.089q0,.055-.144.137l-.39.219a.535.535,0,0,1-.185.089q-.041,0-.082-.082a11.6,11.6,0,0,0-1.7-2.68.131.131,0,0,1-.048-.082q0-.048.144-.137l.349-.212a.282.282,0,0,1,.13-.062q.034,0,.082.062A11.163,11.163,0,0,1,246.9,11.486Zm-7.349-.014a.658.658,0,0,1-.068.164,1.3,1.3,0,0,0-.1.41,11.775,11.775,0,0,1-.684,2.728q-.055.2-.123.2a.525.525,0,0,1-.212-.109,1.1,1.1,0,0,0-.479-.212,10.723,10.723,0,0,0,.759-2.762,2.921,2.921,0,0,0,.034-.437q0-.089-.007-.232a5.67,5.67,0,0,1,.684.109Q239.552,11.37,239.552,11.473Zm3.9,2.475a.224.224,0,0,1,.007.055q0,.1-.171.157l-.335.1a.612.612,0,0,1-.157.034q-.055,0-.082-.1a14.686,14.686,0,0,0-.731-2.687.262.262,0,0,1-.021-.082q0-.075.164-.116l.294-.082a.561.561,0,0,1,.116-.021q.068,0,.123.1A13.74,13.74,0,0,1,243.455,13.947Zm20.815-3.186q0,.109-.116.109l-1.791-.027h-.458q-.068.984-.226,2.406l1.791-.027q.109,0,.109.1v.574a.1.1,0,0,1-.109.109l-1.873-.027-.041.308a2,2,0,0,1-.6,1.278,1.924,1.924,0,0,1-1.237.349q-.253,0-.725-.027a.328.328,0,0,1-.2-.055.639.639,0,0,1-.082-.226,1.841,1.841,0,0,0-.239-.547,9.4,9.4,0,0,0,1.23.082.927.927,0,0,0,.745-.267,1.729,1.729,0,0,0,.308-.868v-.027h-6.542q-.144.465-.232.82a.166.166,0,0,1-.171.13q-.075,0-.349-.034-.431-.055-.431-.13a.336.336,0,0,1,.021-.082q.2-.485.355-1.012.39-1.436.656-2.823h-.376l-1.8.027a.1.1,0,0,1-.109-.109v-.595a.1.1,0,0,1,.109-.109l1.8.027h.513q.157-.882.294-1.894a7.779,7.779,0,0,0,.089-.978.109.109,0,0,1,.123-.123l1.873.027h3.548L262,7.091a.109.109,0,0,1,.123.123q-.027.362-.055,1.094-.034.677-.109,1.777h.4l1.791-.027q.116,0,.116.109Zm-3.179.082H258.33q-.1.813-.376,2.406h2.9Q260.955,12.478,261.092,10.844Zm-3.568,0h-2.6q-.226,1.258-.52,2.406h2.728Q257.339,12.156,257.523,10.844Zm3.753-3h-2.618q-.123,1.333-.226,2.242h2.714Q261.229,8.971,261.276,7.843Zm-3.432,0h-2.481q-.137,1.224-.308,2.242h2.563Q257.749,9.08,257.845,7.843Zm5.8-2.064q0,.109-.116.109l-1.969-.027h-6.85a15.792,15.792,0,0,1-1.846,2.146q-.13.123-.171.123-.068,0-.2-.171a1.645,1.645,0,0,0-.458-.39,12.021,12.021,0,0,0,1.8-1.887,8.929,8.929,0,0,0,1.066-1.941,2.513,2.513,0,0,0,.15-.588q.485.109.841.226.157.068.157.157a.263.263,0,0,1-.13.205.888.888,0,0,0-.232.369q-.178.376-.506.978h6.371l1.969-.027q.116,0,.116.109Zm5.77,5.653.957.082a5.457,5.457,0,0,0-.157,1.258,1.054,1.054,0,0,0,.444.978,3.167,3.167,0,0,0,1.545.273,25.984,25.984,0,0,0,2.769-.144L275,14.891q-1.025.082-2.659.082a4.349,4.349,0,0,1-2.44-.492,1.783,1.783,0,0,1-.636-1.552A7.22,7.22,0,0,1,269.411,11.432Zm.28-4.676V5.8q1.75-.137,3.541-.137.889,0,1.668.041v.95q-.725-.055-1.764-.055Q271.346,6.6,269.691,6.756Zm-1.511-2.413a36.344,36.344,0,0,0-.786,6.61,24.828,24.828,0,0,0,.342,4.382l-1,.082a28.848,28.848,0,0,1-.321-4.491,40.267,40.267,0,0,1,.772-6.665ZM289.413,15.1a2.05,2.05,0,0,0-.4.533q-.123.239-.2.239a1.061,1.061,0,0,1-.2-.068,12.3,12.3,0,0,1-3.145-1.894,10.65,10.65,0,0,1-3.254,2,.879.879,0,0,1-.205.062q-.068,0-.2-.219a1.4,1.4,0,0,0-.431-.458,10.2,10.2,0,0,0,3.514-1.948A8.935,8.935,0,0,1,283,10.188l-.786.014q-.109,0-.109-.123V9.5q0-.1.109-.1l1.7.027h3.336a.819.819,0,0,0,.294-.055.785.785,0,0,1,.164-.041q.1,0,.349.267a1.148,1.148,0,0,1,.267.39q0,.1-.137.185a1.149,1.149,0,0,0-.294.438,10.134,10.134,0,0,1-1.846,2.728A10.839,10.839,0,0,0,289.413,15.1Zm-2.222-4.929H283.8a7.526,7.526,0,0,0,1.668,2.632A7.839,7.839,0,0,0,287.191,10.174Zm-6.036,5.455q0,.109-.116.109h-.561a.1.1,0,0,1-.109-.109v-.561h-2.126v.813a.1.1,0,0,1-.109.109h-.561q-.13,0-.13-.109l.027-2.058v-.841l-.027-1.244q0-.1.123-.1l1.2.027h1.073l1.21-.027q.109,0,.109.1l-.027,1v.943Zm-.786-1.244v-2.03h-2.126v2.03Zm8.907-7.841a1.977,1.977,0,0,1-.451,1.36,1.9,1.9,0,0,1-1.258.294,2.177,2.177,0,0,1-1.025-.157q-.39-.205-.39-.991v-2.3h-1.989a6.411,6.411,0,0,1-.431,2.577,3.618,3.618,0,0,1-1.107,1.388.506.506,0,0,1-.226.137q-.075,0-.212-.15a1.081,1.081,0,0,0-.472-.321,3.591,3.591,0,0,0,1.237-1.271,4.482,4.482,0,0,0,.424-2.078l-.027-.943a.1.1,0,0,1,.109-.109l1.142.027h1.1l1.169-.027a.1.1,0,0,1,.109.109l-.027,1.183V6.715q0,.506.137.615a1.132,1.132,0,0,0,.622.109.765.765,0,0,0,.684-.267,2.967,2.967,0,0,0,.164-1.258,1.487,1.487,0,0,0,.479.28q.185.062.212.13A.508.508,0,0,1,289.276,6.544Zm-7.6.1q0,.109-.116.109L280.1,6.729H278.38l-1.456.027q-.1,0-.1-.109V6.052q0-.109.1-.109l1.456.027H280.1l1.456-.027q.116,0,.116.109Zm-.437-1.907a.1.1,0,0,1-.109.109l-1.217-.027H278.79l-1.217.027q-.116,0-.116-.109V4.179q0-.109.116-.109l1.217.027h1.121l1.217-.027a.1.1,0,0,1,.109.109Zm-.2,5.64q0,.116-.109.116l-1.135-.034h-.978l-1.135.034q-.109,0-.109-.116V9.832a.1.1,0,0,1,.109-.109l1.135.027h.978l1.135-.027a.1.1,0,0,1,.109.109Zm0-1.873q0,.116-.109.116l-1.135-.034h-.978l-1.135.034q-.109,0-.109-.116V7.959a.1.1,0,0,1,.109-.109l1.135.027h.978l1.135-.027a.1.1,0,0,1,.109.109ZM12.954,33.6a2.535,2.535,0,0,0-.2.588.528.528,0,0,1-.1.26.43.43,0,0,1-.239.048q-.9.027-1.319.027-4.074-.007-5.6-.772a3.3,3.3,0,0,1-1.162-.957,6.411,6.411,0,0,1-.588-.971A7.278,7.278,0,0,1,1.7,34.636a.644.644,0,0,1-.2.137q-.048,0-.191-.171a1.354,1.354,0,0,0-.479-.376,6.686,6.686,0,0,0,2.7-4.874,4.6,4.6,0,0,0,.048-.595q0-.089-.007-.185.362.048.813.15.212.055.212.157a.6.6,0,0,1-.1.219.746.746,0,0,0-.144.349,12.681,12.681,0,0,1-.308,1.429,4.633,4.633,0,0,0,1,1.593,3.732,3.732,0,0,0,1.572.82V27.355H5.113l-1.921.027q-.123,0-.123-.109v-.595q0-.109.123-.109l1.921.027H9l1.921-.027a.1.1,0,0,1,.109.109v.595a.1.1,0,0,1-.109.109L9,27.355H7.465V29.7H9.55l1.374-.027a.1.1,0,0,1,.109.109v.595a.1.1,0,0,1-.109.109L9.55,30.459H7.465V33.48a21.3,21.3,0,0,0,3.165.185Q11.573,33.665,12.954,33.6ZM12.7,26.706a.1.1,0,0,1-.116.116h-.643q-.109,0-.109-.116V24.778H2.283v1.928a.1.1,0,0,1-.116.116H1.524q-.109,0-.109-.116l.027-1.436v-.437l-.027-.745q0-.1.109-.1l1.935.027H6.48v-.2a7.092,7.092,0,0,0-.1-1.429,8.839,8.839,0,0,1,.909.075q.171.021.171.109a.816.816,0,0,1-.089.253,4.573,4.573,0,0,0-.055.991v.2h3.322l1.941-.027q.116,0,.116.1l-.027.649v.533Zm3.124-3.739h1.046q-.239,7.191-.239,8.668a2.136,2.136,0,0,0,.458,1.579,2.222,2.222,0,0,0,1.545.424,3.218,3.218,0,0,0,2.44-.943,5.471,5.471,0,0,0,1.217-2.673l.95.479q-.93,4.074-4.58,4.074a3.2,3.2,0,0,1-2.4-.718,3.1,3.1,0,0,1-.608-2.153q0-.766.062-3.753Q15.8,24.334,15.825,22.967Zm17.623.772.027.964a5.312,5.312,0,0,0-2.311.629,5.934,5.934,0,0,0-2.071,1.962,4.817,4.817,0,0,0-.813,2.659,2.958,2.958,0,0,0,1.285,2.529,6.17,6.17,0,0,0,2.933,1l-.239,1a6.1,6.1,0,0,1-3.63-1.381,3.89,3.89,0,0,1-1.312-3.049,5.709,5.709,0,0,1,2.994-5.024l.759-.335-.014-.027-.656.109q-1.189.068-5.66.479l-.082-.923Q26.66,24.177,33.448,23.739Zm6,6.549.854.615q-.677,3.377-2.27,3.377a1.651,1.651,0,0,1-1.538-1.019,9.207,9.207,0,0,1-.718-3.227q-.109-1.312-.109-3.541l.014-2.632h1.012l-.021,2.188q0,2.646.116,3.9.267,3.22,1.217,3.22.485,0,.813-.711A11.913,11.913,0,0,0,39.443,30.288Zm2.1-5.346.909-.267a17.059,17.059,0,0,1,2.427,7.574l-1.053.171A17.589,17.589,0,0,0,41.542,24.942Zm7.444,1q-1.155.062-2.365.062v-.882q1.4,0,2.509-.062.191-1.422.267-2.447l1.032.1q-.109,1.025-.321,2.311,1.36-.089,3.1-.239l.014.882q-1.429.15-3.254.239a53.168,53.168,0,0,1-2.208,8.524l-.978-.335A47.881,47.881,0,0,0,48.986,25.947Zm1.709,5.38.868.068a3.679,3.679,0,0,0-.082.786,1.075,1.075,0,0,0,.513,1.08,4.218,4.218,0,0,0,1.559.191,16.519,16.519,0,0,0,2.167-.109l.055.964q-.834.082-2.044.082a4.645,4.645,0,0,1-2.5-.472,1.737,1.737,0,0,1-.636-1.531A5.222,5.222,0,0,1,50.7,31.327Zm.711-2.994V27.4a40.056,40.056,0,0,1,4.259-.191v.9A32.162,32.162,0,0,0,51.406,28.333Zm8.716-3.268q.191-1.422.267-2.447l1.032.1q-.109,1.025-.321,2.311,1.36-.089,3.1-.239l.014.882q-1.429.15-3.254.239a53.168,53.168,0,0,1-2.208,8.524l-.978-.335a47.881,47.881,0,0,0,2.208-8.148q-1.155.062-2.365.062v-.882Q59.015,25.127,60.122,25.065Zm4.088-2.488.711-.28a18.726,18.726,0,0,1,1.039,2.365l-.759.308A14.485,14.485,0,0,0,64.21,22.577Zm-2.522,8.75.868.068a3.679,3.679,0,0,0-.082.786,1.075,1.075,0,0,0,.513,1.08,4.218,4.218,0,0,0,1.559.191,16.519,16.519,0,0,0,2.167-.109l.055.964q-.834.082-2.044.082a4.645,4.645,0,0,1-2.5-.472,1.737,1.737,0,0,1-.636-1.531A5.222,5.222,0,0,1,61.688,31.327Zm.711-2.994V27.4q1.982-.191,4.259-.191v.9A32.162,32.162,0,0,0,62.4,28.333Zm3.363-6.275.7-.253a11.566,11.566,0,0,1,1,2.3l-.731.294A13.488,13.488,0,0,0,65.762,22.058Zm7.089,8.23.854.615q-.677,3.377-2.27,3.377A1.651,1.651,0,0,1,69.9,33.262a9.207,9.207,0,0,1-.718-3.227q-.109-1.312-.109-3.541l.014-2.632H70.1l-.021,2.188q0,2.646.116,3.9.267,3.22,1.217,3.22.485,0,.813-.711A11.913,11.913,0,0,0,72.851,30.288Zm2.1-5.346.909-.267a17.059,17.059,0,0,1,2.427,7.574l-1.053.171A17.589,17.589,0,0,0,74.949,24.942Zm13.8-1.2.027.964a5.312,5.312,0,0,0-2.311.629A5.934,5.934,0,0,0,84.4,27.294a4.817,4.817,0,0,0-.813,2.659,2.958,2.958,0,0,0,1.285,2.529,6.17,6.17,0,0,0,2.933,1l-.239,1a6.1,6.1,0,0,1-3.63-1.381,3.89,3.89,0,0,1-1.312-3.049,5.709,5.709,0,0,1,2.994-5.024l.759-.335-.014-.027-.656.109q-1.189.068-5.66.479l-.082-.923Q81.963,24.177,88.751,23.739Zm4.354,1.354V22.83h.964v2.208q1.511-.1,2.591-.219v.909q-1.224.123-2.591.205v2.707a8.692,8.692,0,0,1,2.646-.479,2.9,2.9,0,0,1,2.577,1.169,3.273,3.273,0,0,1,.533,1.894,2.654,2.654,0,0,1-1.3,2.591,6.067,6.067,0,0,1-2.707.465v-.9a3.954,3.954,0,0,0,2.167-.444,2.048,2.048,0,0,0,.772-1.825,2.11,2.11,0,0,0-.6-1.524,1.724,1.724,0,0,0-1.285-.561,7.652,7.652,0,0,0-2.8.533v3.609a1.437,1.437,0,0,1-.273,1,1.054,1.054,0,0,1-.786.26,2.259,2.259,0,0,1-1.189-.376,2.427,2.427,0,0,1-1.347-2.03q0-1.736,2.632-3.049v-3q-.813.048-2.434.075v-.9Q91.984,25.154,93.105,25.093Zm0,4.9A5.118,5.118,0,0,0,91.8,31.013a1.511,1.511,0,0,0-.39.984,1.078,1.078,0,0,0,.335.759,1.888,1.888,0,0,0,.69.458.9.9,0,0,0,.39.1q.28,0,.28-.465Zm3.9-5.64.6-.731a12.831,12.831,0,0,1,2.816,2.229l-.684.772A11,11,0,0,0,97.009,24.354Zm5.927-1.258.971.123a38.254,38.254,0,0,0-.424,4.9,10.01,10.01,0,0,0,.055,1.162q.506-1.2.957-2.1l.643.5a17.361,17.361,0,0,0-.978,2.2,6.694,6.694,0,0,0-.239.841l-1.08.014a13.113,13.113,0,0,1-.294-2.816A40.7,40.7,0,0,1,102.936,23.1Zm4.662.055,1.012-.041q.137,2.6.137,4.758a14.871,14.871,0,0,1-.239,3.042,4.749,4.749,0,0,1-.7,1.647,5.8,5.8,0,0,1-3.527,2.112l-.6-.807a4.78,4.78,0,0,0,3.151-1.7q.923-1.189.923-4.341Q107.755,25.94,107.6,23.151Zm7.923,1.442q-.027-1.176-.027-1.853h1v1.812q1.7-.062,3.37-.267v.868q-1.531.185-3.356.253l.041,2.01q1.935-.089,3.247-.26v.868q-1.538.171-3.233.232.014.335.062,1.449.027.745.048,1.2a10.066,10.066,0,0,1,3.726,2.372l-.7.861a9.516,9.516,0,0,0-3.015-2.249v.15a2.184,2.184,0,0,1-2.475,2.468,3.271,3.271,0,0,1-2.017-.5,1.7,1.7,0,0,1-.6-1.436,1.679,1.679,0,0,1,.8-1.449,3.138,3.138,0,0,1,1.832-.5,8.4,8.4,0,0,1,1.47.1q-.048-.848-.1-2.427-1.825.048-3.644,0v-.848q1.7.055,3.63.014-.027-.383-.034-1.087-.014-.663-.027-.943-2.105.041-3.794-.027v-.841Q113.415,24.642,115.521,24.594Zm.171,7.055a5.407,5.407,0,0,0-1.374-.185q-1.832,0-1.832,1.107,0,1.066,1.654,1.066,1.552,0,1.552-1.866ZM128.208,25.5q-.041,1.518,0,3.035a5.324,5.324,0,0,1,.308,1.777,3.687,3.687,0,0,1-1.306,3.069,7.744,7.744,0,0,1-3.274,1.271l-.588-.841a6.334,6.334,0,0,0,3.411-1.381,2.741,2.741,0,0,0,.807-1.88,1.856,1.856,0,0,1-1.8.882,2.2,2.2,0,0,1-1.531-.574,2.3,2.3,0,0,1,.123-3.356,2.469,2.469,0,0,1,1.559-.492,2,2,0,0,1,1.36.39q-.027-1.312-.027-1.873-2.249.034-5.435.239l-.014-.9q2.584-.1,5.435-.171V22.8l1,.014q0,.629-.027,1.859,2.324-.027,3.363-.027v.9Q129.89,25.5,128.208,25.5Zm-2.338,2.3a1.322,1.322,0,0,0-.984.4,1.413,1.413,0,0,0-.39,1.046,1.237,1.237,0,0,0,.444,1,1.288,1.288,0,0,0,.848.294,1.405,1.405,0,0,0,1.1-.41,1.3,1.3,0,0,0,.314-.916Q127.2,27.8,125.87,27.8Zm10.89-1.36a41.522,41.522,0,0,1-2.646,7.841l-.923-.362a37.253,37.253,0,0,0,2.563-7.41q-.848.062-2.577.226l-.055-.882q.513-.034,1.518-.1l1.313-.089q.26-1.183.533-2.782l.991.137q-.308,1.6-.533,2.591.786-.055,1.429-.055a1.428,1.428,0,0,1,1.278.567,3.662,3.662,0,0,1,.4,1.982,19.506,19.506,0,0,1-.437,4.97,1.777,1.777,0,0,1-.636,1,1.828,1.828,0,0,1-1.073.28,9.249,9.249,0,0,1-1.422-.109l-.171-.978a6.216,6.216,0,0,0,1.244.164,1.47,1.47,0,0,0,.745-.144.9.9,0,0,0,.335-.485,16.429,16.429,0,0,0,.444-4.566,3.52,3.52,0,0,0-.219-1.538.713.713,0,0,0-.677-.321Q137.546,26.385,136.76,26.439Zm4.108-3.992.711-.28a19.251,19.251,0,0,1,1.039,2.372l-.759.308A14.765,14.765,0,0,0,140.868,22.447Zm1.5-.472.7-.253a11.327,11.327,0,0,1,.991,2.3l-.725.294A13.487,13.487,0,0,0,142.365,21.976Zm-2.311,2.844.882-.451a16.879,16.879,0,0,1,2.406,4.833l-.978.458A14.513,14.513,0,0,0,140.055,24.819Zm5.6,6.658a14.949,14.949,0,0,1,1.641,1.531,10.044,10.044,0,0,1,1.169,1.483l-.923.684a11.119,11.119,0,0,0-2.7-3.035Zm20.932-.684q0,.109-.1.109L166.3,30.9q-.533-.014-1.2-.021v.9l.034,1.265q0,.109-.116.109h-.615a.1.1,0,0,1-.109-.109V32.6h-3.527l.014,1.025a2.005,2.005,0,0,1-.1.718.782.782,0,0,1-.294.342,4.308,4.308,0,0,1-1.894.253.411.411,0,0,1-.253-.048.736.736,0,0,1-.1-.219,2.774,2.774,0,0,0-.342-.629,8.522,8.522,0,0,0,.93.062q.137,0,.308-.007a1.255,1.255,0,0,0,.752-.144.713.713,0,0,0,.144-.526V32.6h-2.406l-1.976.027q-.116,0-.116-.109v-.492q0-.109.116-.109l1.976.027h2.406V30.876H156.1l-1.812.027a.1.1,0,0,1-.109-.109V30.3a.1.1,0,0,1,.109-.109l1.812.027h3.849v-.984h-2.406l-1.976.027q-.116,0-.116-.1v-.506q0-.109.116-.109l1.976.027h2.406v-.95h-1.853l-1.976.027q-.109,0-.109-.123l.027-.772v-.588l-.027-.772a.1.1,0,0,1,.109-.109l1.976.027h1.853V24.45h-3.753l-1.832.027q-.116,0-.116-.109v-.52q0-.109.116-.109l1.832.027h3.753a6.935,6.935,0,0,0-.1-1.456,6.54,6.54,0,0,1,.909.068q.171.027.171.116a.905.905,0,0,1-.082.267,3.843,3.843,0,0,0-.068.978v.027h3.746l1.839-.027a.1.1,0,0,1,.109.109v.52a.1.1,0,0,1-.109.109l-1.839-.027h-3.746v.868h1.9l1.989-.027a.1.1,0,0,1,.109.109l-.027.772v.588l.027.772q0,.123-.109.123l-1.989-.027h-1.9v.95h2.249l2.01-.027a.1.1,0,0,1,.109.109l-.034,1.251v.308l1.374-.027q.1,0,.1.109ZM164.3,31.942V30.876h-3.527v1.066Zm0-1.723v-.984h-3.527v.984Zm-.321-3.206v-1.08h-3.206v1.08Zm-4.033,0v-1.08H156.81v1.08Zm14.068,6.679a1.186,1.186,0,0,1-.294.937,3.387,3.387,0,0,1-1.6.226.546.546,0,0,1-.26-.034.614.614,0,0,1-.075-.232,1.944,1.944,0,0,0-.253-.561q.6.041,1.053.041a.806.806,0,0,0,.513-.109.491.491,0,0,0,.1-.362V31.9h-2.953v1.162l.027,1.818q0,.1-.109.1h-.636q-.109,0-.109-.1l.027-1.818V28.627l-.027-1.853a.1.1,0,0,1,.109-.109l1.415.027h1.545l1.415-.027a.1.1,0,0,1,.109.109l-.027,1.921v3.151Zm-.813-2.536V29.618h-2.953v1.538Zm0-2.249v-1.49h-2.953v1.49Zm7.308-3.568q0,.109-.116.109l-1.832-.027h-8.326l-1.825.027a.1.1,0,0,1-.109-.109V24.73a.1.1,0,0,1,.109-.109l1.825.027h4.956a15.964,15.964,0,0,0,1.087-1.627,3.514,3.514,0,0,0,.308-.738,5.77,5.77,0,0,1,.841.267q.144.055.144.15t-.13.171a2.683,2.683,0,0,0-.444.574q-.4.608-.868,1.2h2.434l1.832-.027q.116,0,.116.109Zm-.964,1.285a1.063,1.063,0,0,1-.1.28,6.29,6.29,0,0,0-.055,1.176v3.445l.014,1.955a1.245,1.245,0,0,1-.39,1.08,1.41,1.41,0,0,1-.629.212,12.28,12.28,0,0,1-1.237.041.465.465,0,0,1-.26-.041.623.623,0,0,1-.089-.239,1.521,1.521,0,0,0-.267-.6,11.393,11.393,0,0,0,1.319.068.8.8,0,0,0,.567-.144.767.767,0,0,0,.144-.54V28.094a9.328,9.328,0,0,0-.1-1.654q.485.021.909.075Q179.546,26.535,179.546,26.624Zm-2.789.615a.361.361,0,0,1-.034.123.893.893,0,0,0-.048.116,7.228,7.228,0,0,0-.055,1.258v1.791l.027,1.442q0,.109-.1.109h-.636a.1.1,0,0,1-.109-.109l.027-1.442V28.75a10.432,10.432,0,0,0-.1-1.723,8.387,8.387,0,0,1,.868.082Q176.757,27.137,176.757,27.239Zm-3.767-3.274a.161.161,0,0,1,.021.068q0,.048-.171.123l-.4.157a.585.585,0,0,1-.185.062q-.048,0-.082-.089a8.923,8.923,0,0,0-.882-1.531.166.166,0,0,1-.041-.082q0-.048.144-.1l.39-.157a.628.628,0,0,1,.164-.055.129.129,0,0,1,.089.055A7.82,7.82,0,0,1,172.99,23.965Zm12.742,6.467.957.082a5.458,5.458,0,0,0-.157,1.258,1.054,1.054,0,0,0,.444.978,3.167,3.167,0,0,0,1.545.273,25.984,25.984,0,0,0,2.769-.144l.027,1.012q-1.025.082-2.659.082a4.349,4.349,0,0,1-2.44-.492,1.783,1.783,0,0,1-.636-1.552A7.219,7.219,0,0,1,185.732,30.432Zm.28-4.676V24.8q1.75-.137,3.541-.137.889,0,1.668.041v.95q-.725-.055-1.764-.055Q187.667,25.6,186.013,25.756ZM184.5,23.343a36.343,36.343,0,0,0-.786,6.61,24.83,24.83,0,0,0,.342,4.382l-1,.082a28.85,28.85,0,0,1-.321-4.491,40.269,40.269,0,0,1,.772-6.665Zm14.772,5.776q-.041.834-.041,1.3a19.687,19.687,0,0,1-.239,2.769q-.26,1.47-1.483,1.47a7.716,7.716,0,0,1-.854-.041.465.465,0,0,1-.246-.062.561.561,0,0,1-.075-.246,1.417,1.417,0,0,0-.226-.615,7.693,7.693,0,0,0,1.326.137.608.608,0,0,0,.574-.349,2.731,2.731,0,0,0,.212-.772,18.94,18.94,0,0,0,.185-2.946h-2.393a9.035,9.035,0,0,1-.827,2.687,8.923,8.923,0,0,1-1.4,1.976q-.123.137-.185.137t-.178-.171a2.021,2.021,0,0,0-.465-.4,6.834,6.834,0,0,0,1.935-2.885,14,14,0,0,0,.52-3.862l-1.6.027a.1.1,0,0,1-.109-.109l.027-1.21V24.464l-.027-1.2a.1.1,0,0,1,.109-.109l1.613.027h2.058l1.606-.027q.116,0,.116.109l-.027,1.2v1.483l.027,1.21q0,.109-.116.109l-1.606-.027h-1.251q-.041.95-.123,1.777h1.9l1.121-.027Q199.274,28.989,199.274,29.119Zm-.9-2.584V23.9H194.53v2.632Zm6.61-3.664a1.416,1.416,0,0,1-.1.267,5.727,5.727,0,0,0-.068,1.217v6.87l.027,2.112a1.27,1.27,0,0,1-.41,1.107,1.49,1.49,0,0,1-.643.219,11.416,11.416,0,0,1-1.271.048.446.446,0,0,1-.253-.041,1.963,1.963,0,0,1-.089-.253,1.892,1.892,0,0,0-.294-.629,12.385,12.385,0,0,0,1.36.068.858.858,0,0,0,.588-.144.727.727,0,0,0,.144-.526V24.368a9.936,9.936,0,0,0-.116-1.709,8.887,8.887,0,0,1,.943.082Q204.989,22.769,204.989,22.871Zm-2.96,1.012q0,.014-.068.219a10.149,10.149,0,0,0-.055,1.456v3.794l.027,1.812q0,.109-.13.109h-.629a.1.1,0,0,1-.109-.109l.027-1.812v-3.78a11.842,11.842,0,0,0-.1-1.887q.383.014.882.068Q202.029,23.773,202.029,23.883Zm10.5,6.6a2.635,2.635,0,0,0-.335.52q-.089.15-.144.15-.021,0-.137-.137a13.057,13.057,0,0,1-1.442-2.55q.007,2.153.062,4.614.014.574.034,1.388.014.383.014.424,0,.1-.109.1h-.649q-.109,0-.109-.1,0-.027.021-1,.068-2.926.089-5.312a18.978,18.978,0,0,1-2.1,4.2q-.1.137-.137.137-.062,0-.144-.171a1.218,1.218,0,0,0-.349-.5,16.365,16.365,0,0,0,2.461-4.464h-.533l-1.511.027q-.109,0-.109-.1v-.54q0-.116.109-.116l1.511.027h.731V24.074a10.575,10.575,0,0,0-.1-1.7q.6.027.868.068.185.027.185.13a.775.775,0,0,1-.1.267,5.36,5.36,0,0,0-.068,1.217v3.021h.267l1.511-.027q.109,0,.109.116v.54q0,.1-.109.1l-1.511-.027h-.157A11.89,11.89,0,0,0,212.529,30.486Zm7.178.055a.158.158,0,0,1,.014.055q0,.041-.109.075-.889.144-1.654.294v1.483l.027,2.42a.1.1,0,0,1-.109.109H217.2a.1.1,0,0,1-.109-.109l.027-2.406V31.129l-2.673.52q-.807.157-1.422.294-.4.082-.41.089a.411.411,0,0,1-.062.007q-.055,0-.068-.109l-.109-.6a.294.294,0,0,1-.007-.055q0-.055.1-.075.027-.007.232-.034.7-.1,1.613-.287l2.8-.561V24.45a14,14,0,0,0-.1-1.914,8.417,8.417,0,0,1,.909.068q.185.027.185.123a.908.908,0,0,1-.068.253,6.658,6.658,0,0,0-.089,1.442v5.729q.943-.191,1.511-.355h.041q.068,0,.089.116Zm-3.958-2.085a.174.174,0,0,1,.055.1q0,.034-.1.13l-.314.335q-.116.123-.157.123t-.075-.055a11.165,11.165,0,0,0-1.948-1.777q-.062-.034-.062-.075t.1-.144l.294-.28q.082-.082.123-.082a.2.2,0,0,1,.089.041A10.693,10.693,0,0,1,215.749,28.456Zm.349-3.117q.055.055.055.082t-.082.123l-.321.335a.665.665,0,0,1-.157.137q-.027,0-.068-.062A9.089,9.089,0,0,0,213.6,24.2q-.055-.041-.055-.068,0-.048.116-.157l.294-.294q.075-.082.109-.082a.166.166,0,0,1,.082.041A9.736,9.736,0,0,1,216.1,25.339Zm-3.322-1.572a.261.261,0,0,1-.1.157.861.861,0,0,0-.185.308,19.318,19.318,0,0,1-.725,1.846q-.082.185-.157.185a.4.4,0,0,1-.178-.082,1.555,1.555,0,0,0-.376-.157,10.545,10.545,0,0,0,.766-2.112,2,2,0,0,0,.089-.547,4.191,4.191,0,0,1,.711.253Q212.775,23.691,212.775,23.767Zm-3.65,2.174a.294.294,0,0,1,.007.055q0,.048-.178.123l-.321.13a.62.62,0,0,1-.157.048q-.041,0-.062-.089a11.033,11.033,0,0,0-.786-2.386.132.132,0,0,1-.027-.062q0-.048.137-.1l.321-.144a.49.49,0,0,1,.144-.048q.034,0,.068.075A12.457,12.457,0,0,1,209.125,25.94Zm23.953,8.408q0,.109-.116.109l-1.887-.027h-7.588l-1.894.027a.1.1,0,0,1-.109-.109V33.74a.1.1,0,0,1,.109-.109l1.894.027h3.261V30h-2.789l-1.928.027q-.116,0-.116-.109v-.595q0-.109.116-.109l1.928.027h2.789v-1.75h-.854l-1.75.014q-.109,0-.109-.1v-.588a.1.1,0,0,1,.109-.109l1.75.027h2.755l1.771-.027a.1.1,0,0,1,.109.109V27.4q0,.1-.109.1l-1.771-.014h-1.032v1.75h3.035l1.935-.027a.1.1,0,0,1,.109.109v.595a.081.081,0,0,1-.109.109L230.651,30h-3.035v3.657h3.459l1.887-.027q.116,0,.116.109ZM233.946,27a1.6,1.6,0,0,0-.41.547q-.116.212-.185.212a1.127,1.127,0,0,1-.219-.068,13.179,13.179,0,0,1-5.913-4.3,14.409,14.409,0,0,1-5.708,4.437.7.7,0,0,1-.2.062q-.068,0-.191-.191a1.314,1.314,0,0,0-.451-.431,13.147,13.147,0,0,0,5.77-4.286,3.042,3.042,0,0,0,.4-.779,4.172,4.172,0,0,1,.9.191q.2.068.2.185,0,.068-.1.123a.378.378,0,0,0-.13.089,11.238,11.238,0,0,0,3.049,2.769A15.984,15.984,0,0,0,233.946,27Zm-2.762,3.992q0,.068-.137.178a1.049,1.049,0,0,0-.226.342,13.261,13.261,0,0,1-1,1.675q-.116.144-.164.144a.433.433,0,0,1-.2-.1,1.184,1.184,0,0,0-.472-.226,9.909,9.909,0,0,0,1.1-1.88,3.2,3.2,0,0,0,.212-.615,4.029,4.029,0,0,1,.711.294Q231.185,30.91,231.185,30.992Zm-5.934,1.647a.268.268,0,0,1,.021.089q0,.062-.137.123l-.431.212a.832.832,0,0,1-.185.075q-.041,0-.068-.089a8.837,8.837,0,0,0-1-2,.133.133,0,0,1-.027-.068q0-.048.157-.13l.376-.164a.631.631,0,0,1,.157-.062q.048,0,.1.075A9.842,9.842,0,0,1,225.251,32.64ZM240.8,29.618v2.769h-.937V30.049q-.321.164-.663.355-1.791,1.012-1.791,2.03a.927.927,0,0,0,.629.943,6.4,6.4,0,0,0,2.078.232q1.47,0,3.411-.171l.041.95q-2.55.13-3.384.13a5.879,5.879,0,0,1-2.967-.513,1.772,1.772,0,0,1-.7-1.6,3.066,3.066,0,0,1,1.88-2.55q.711-.4,1.456-.772-.068-1.312-.909-1.312-1.176,0-3.227,2.365l-.725-.643a16.349,16.349,0,0,0,2.9-4.136q-1.278.021-2.563,0V24.5q1.477.027,2.953,0a12.511,12.511,0,0,0,.629-1.873l1.012.185a14.378,14.378,0,0,1-.588,1.647q1.969-.062,3.739-.239l.027.854q-2.3.185-4.143.239a14.3,14.3,0,0,1-1.176,1.989l-.355.362.041.055a2.492,2.492,0,0,1,1.668-.711,1.521,1.521,0,0,1,1.114.424,1.982,1.982,0,0,1,.526,1.217q1.094-.5,2.844-1.237l.39.957Q241.732,29.208,240.8,29.618ZM258.289,34.1a2.05,2.05,0,0,0-.4.533q-.123.239-.2.239a1.061,1.061,0,0,1-.2-.068,12.3,12.3,0,0,1-3.145-1.894,10.65,10.65,0,0,1-3.254,2,.879.879,0,0,1-.205.062q-.068,0-.2-.219a1.4,1.4,0,0,0-.431-.458,10.2,10.2,0,0,0,3.514-1.948,8.935,8.935,0,0,1-1.894-3.165l-.786.014q-.109,0-.109-.123V28.5q0-.1.109-.1l1.7.027h3.336a.819.819,0,0,0,.294-.055.785.785,0,0,1,.164-.041q.1,0,.349.267a1.148,1.148,0,0,1,.267.39q0,.1-.137.185a1.149,1.149,0,0,0-.294.438,10.133,10.133,0,0,1-1.846,2.728A10.839,10.839,0,0,0,258.289,34.1Zm-2.222-4.929h-3.391a7.526,7.526,0,0,0,1.668,2.632A7.84,7.84,0,0,0,256.067,29.174Zm-6.036,5.455q0,.109-.116.109h-.561a.1.1,0,0,1-.109-.109v-.561h-2.126v.813a.1.1,0,0,1-.109.109h-.561q-.13,0-.13-.109l.027-2.058v-.841l-.027-1.244q0-.1.123-.1l1.2.027h1.073l1.21-.027q.109,0,.109.1l-.027,1v.943Zm-.786-1.244v-2.03h-2.126v2.03Zm8.907-7.841a1.977,1.977,0,0,1-.451,1.36,1.9,1.9,0,0,1-1.258.294,2.177,2.177,0,0,1-1.025-.157q-.39-.205-.39-.991v-2.3h-1.989a6.411,6.411,0,0,1-.431,2.577,3.619,3.619,0,0,1-1.107,1.388.506.506,0,0,1-.226.137q-.075,0-.212-.15a1.081,1.081,0,0,0-.472-.321,3.591,3.591,0,0,0,1.237-1.271,4.482,4.482,0,0,0,.424-2.078l-.027-.943a.1.1,0,0,1,.109-.109l1.142.027h1.1l1.169-.027a.1.1,0,0,1,.109.109l-.027,1.183v1.442q0,.506.137.615a1.132,1.132,0,0,0,.622.109.765.765,0,0,0,.684-.267,2.967,2.967,0,0,0,.164-1.258,1.487,1.487,0,0,0,.479.28q.185.062.212.13A.508.508,0,0,1,258.152,25.544Zm-7.6.1q0,.109-.116.109l-1.456-.027h-1.723l-1.456.027q-.1,0-.1-.109v-.595q0-.109.1-.109l1.456.027h1.723l1.456-.027q.116,0,.116.109Zm-.437-1.907a.1.1,0,0,1-.109.109l-1.217-.027h-1.121l-1.217.027q-.116,0-.116-.109v-.561q0-.109.116-.109l1.217.027h1.121L250,23.069a.1.1,0,0,1,.109.109Zm-.2,5.64q0,.116-.109.116l-1.135-.034h-.978l-1.135.034q-.109,0-.109-.116v-.547a.1.1,0,0,1,.109-.109l1.135.027h.978l1.135-.027a.1.1,0,0,1,.109.109Zm0-1.873q0,.116-.109.116l-1.135-.034h-.978l-1.135.034q-.109,0-.109-.116v-.547a.1.1,0,0,1,.109-.109l1.135.027h.978l1.135-.027a.1.1,0,0,1,.109.109ZM271.8,33.6a2.536,2.536,0,0,0-.2.588.528.528,0,0,1-.1.26.43.43,0,0,1-.239.048q-.9.027-1.319.027-4.074-.007-5.6-.772a3.3,3.3,0,0,1-1.162-.957,6.411,6.411,0,0,1-.588-.971,7.278,7.278,0,0,1-2.058,2.816.644.644,0,0,1-.2.137q-.048,0-.191-.171a1.354,1.354,0,0,0-.479-.376,6.686,6.686,0,0,0,2.7-4.874,4.6,4.6,0,0,0,.048-.595q0-.089-.007-.185.362.048.813.15.212.055.212.157a.6.6,0,0,1-.1.219.746.746,0,0,0-.144.349,12.686,12.686,0,0,1-.308,1.429,4.633,4.633,0,0,0,1,1.593,3.732,3.732,0,0,0,1.572.82V27.355h-1.511l-1.921.027q-.123,0-.123-.109v-.595q0-.109.123-.109l1.921.027h3.89l1.921-.027a.1.1,0,0,1,.109.109v.595a.1.1,0,0,1-.109.109l-1.921-.027h-1.538V29.7H268.4l1.374-.027a.1.1,0,0,1,.109.109v.595a.1.1,0,0,1-.109.109l-1.374-.027h-2.085V33.48a21.3,21.3,0,0,0,3.165.185Q270.423,33.665,271.8,33.6Zm-.253-6.891a.1.1,0,0,1-.116.116h-.643q-.109,0-.109-.116V24.778h-9.55v1.928a.1.1,0,0,1-.116.116h-.643q-.109,0-.109-.116l.027-1.436v-.437l-.027-.745q0-.1.109-.1l1.935.027h3.021v-.2a7.091,7.091,0,0,0-.1-1.429,8.839,8.839,0,0,1,.909.075q.171.021.171.109a.816.816,0,0,1-.089.253,4.572,4.572,0,0,0-.055.991v.2h3.322l1.941-.027q.116,0,.116.1l-.027.649v.533Zm9,.137.718-.273a18.274,18.274,0,0,1,1.032,2.365l-.752.308A15.124,15.124,0,0,0,280.547,26.843Zm1.586-.472.7-.253a11.567,11.567,0,0,1,1,2.3l-.731.294A13.489,13.489,0,0,0,282.133,26.371Zm.39-2.632.027.964a5.312,5.312,0,0,0-2.311.629,5.934,5.934,0,0,0-2.071,1.962,4.817,4.817,0,0,0-.813,2.659,2.958,2.958,0,0,0,1.285,2.529,6.169,6.169,0,0,0,2.933,1l-.239,1A6.1,6.1,0,0,1,277.7,33.1a3.89,3.89,0,0,1-1.312-3.049,5.709,5.709,0,0,1,2.994-5.024l.759-.335-.014-.027-.656.109q-1.189.068-5.66.479l-.082-.923Q275.734,24.177,282.522,23.739Zm8.565,3.931a12.541,12.541,0,0,0,2.078,2.857l-.574.9a7.984,7.984,0,0,0-3.657-.854,3.85,3.85,0,0,0-2,.444,1.157,1.157,0,0,0-.643,1.012q0,.813,1.1,1.21a7.484,7.484,0,0,0,2.5.335q.82,0,1.976-.089v.984q-.615.041-2.017.041-4.546,0-4.546-2.365a1.971,1.971,0,0,1,1.066-1.8,5.521,5.521,0,0,1,2.741-.567,6.3,6.3,0,0,1,2.851.615,11.321,11.321,0,0,1-1.832-2.591,34.235,34.235,0,0,1-4.341.28l-.137-.854A33.363,33.363,0,0,0,289.734,27q-.444-1.019-.69-1.682-1.757.185-3.794.226l-.123-.882a34.558,34.558,0,0,0,3.637-.171q-.205-.567-.526-1.62l1-.1q.246.9.479,1.62,1.422-.171,3.063-.52l.144.854q-1.647.328-2.912.479a16.611,16.611,0,0,0,.684,1.668q1.47-.212,2.6-.479l.171.841Q292.366,27.472,291.088,27.67ZM2.119,42.541q1.853-.014,5.694-.2l.588.731Q5.674,45.843,4.074,47.23l-.629.547.055.041.718-.485A4.614,4.614,0,0,1,6.193,46.8a3.547,3.547,0,0,1,2.707,1,3.071,3.071,0,0,1,.807,2.208A3.316,3.316,0,0,1,8.429,52.85a5.317,5.317,0,0,1-3.22.848q-2.741,0-2.741-1.859a1.625,1.625,0,0,1,.588-1.312,2.172,2.172,0,0,1,1.429-.451,2.3,2.3,0,0,1,1.777.752,3.445,3.445,0,0,1,.786,1.682,2.579,2.579,0,0,0,1.258-.978,2.922,2.922,0,0,0,.362-1.538A2.231,2.231,0,0,0,7.8,48.119a2.671,2.671,0,0,0-1.668-.526,4.9,4.9,0,0,0-3.384,1.36A12.447,12.447,0,0,0,1.586,50.17L.759,49.5q3.35-3.445,6.132-6.275-2.01.15-4.771.226ZM6.063,52.788a3.024,3.024,0,0,0-.622-1.429,1.275,1.275,0,0,0-.984-.472,1.119,1.119,0,0,0-.807.3.828.828,0,0,0-.273.622.87.87,0,0,0,.465.827,2.872,2.872,0,0,0,1.3.226A6.036,6.036,0,0,0,6.063,52.788ZM16.447,45.6q.1,2.229.294,4a9.694,9.694,0,0,1,3.924,2.352l-.7.854A8.058,8.058,0,0,0,16.8,50.553q.027.472.027.725a1.94,1.94,0,0,1-.807,1.688,2.858,2.858,0,0,1-1.729.485q-2.646,0-2.646-1.989a1.848,1.848,0,0,1,.991-1.675,3.2,3.2,0,0,1,1.682-.444,9.773,9.773,0,0,1,1.442.075q-.349-3.309-.39-7.643h1.019q0,1.969.027,2.967,1.928-.062,3.657-.253l.014.882Q18.43,45.535,16.447,45.6ZM15.8,50.354a6.009,6.009,0,0,0-1.34-.144,2.563,2.563,0,0,0-1.422.328.984.984,0,0,0-.485.882q0,1.148,1.565,1.148,1.709,0,1.709-1.429Q15.832,50.888,15.8,50.354ZM23.816,41.7a32.631,32.631,0,0,0,4.86.827l-.239.95a42.05,42.05,0,0,1-4.888-.868Zm-1.538,3.938a15.887,15.887,0,0,1,4.115-.718q2.687,0,2.687,3.363a5.049,5.049,0,0,1-1.347,3.767,7.448,7.448,0,0,1-3.37,1.675l-.52-.848a6.683,6.683,0,0,0,3.206-1.613,4.374,4.374,0,0,0,.971-3.049q0-2.386-1.682-2.386a13.445,13.445,0,0,0-3.7.786Zm21.772,7.5a2.05,2.05,0,0,0-.465.506q-.116.185-.191.185a.43.43,0,0,1-.226-.1,14.666,14.666,0,0,1-3.083-2.816,9.678,9.678,0,0,1-3.719,2.912,1.222,1.222,0,0,1-.226.068q-.068,0-.185-.157a2.356,2.356,0,0,0-.458-.5,9.443,9.443,0,0,0,4.088-3,11.811,11.811,0,0,1-1.668-3.862,12.138,12.138,0,0,1-.827,1.395q-.123.171-.164.171t-.185-.15a1.1,1.1,0,0,0-.431-.335,12.306,12.306,0,0,0,2.153-4.867,6.492,6.492,0,0,0,.164-1.251,5.776,5.776,0,0,1,.841.212q.185.068.185.157a.339.339,0,0,1-.1.178,2.251,2.251,0,0,0-.239.7q-.28.971-.492,1.579h3.028l1.7-.027q.116,0,.116.109v.561q0,.109-.116.109l-.178-.007q-.533-.014-1.176-.021a11.723,11.723,0,0,1-1.641,5.346A12.509,12.509,0,0,0,44.051,53.137Zm-2.7-8.244H38.575q-.021.048-.137.362a12.346,12.346,0,0,0,1.606,4.286A10.313,10.313,0,0,0,41.351,44.893Zm-4.484,5.168a4.2,4.2,0,0,1-.26,1.176,1.7,1.7,0,0,1-.383.547,3.545,3.545,0,0,1-2.208.458,3.354,3.354,0,0,1-1.907-.321,1.583,1.583,0,0,1-.308-1.148V47.606l-.027-1.4a.1.1,0,0,1,.109-.109l1.306.027h2.167V43.3H33l-1.4.027a.1.1,0,0,1-.109-.109v-.595a.1.1,0,0,1,.109-.109l1.415.027h1.627l1.456-.027a.1.1,0,0,1,.109.109l-.027,1.36V46.15L36.21,47.5a.1.1,0,0,1-.109.109h-.636a.1.1,0,0,1-.109-.109v-.6H32.628v3.527q0,.7.123.807a2.432,2.432,0,0,0,1.36.226,2.352,2.352,0,0,0,1.565-.335,1.236,1.236,0,0,0,.294-.636,8.7,8.7,0,0,0,.13-1.08,1.706,1.706,0,0,0,.533.273q.253.109.253.226A1.116,1.116,0,0,1,36.866,50.061Zm21.239-2.7a1.715,1.715,0,0,0-.342.52q-.1.232-.178.232a.924.924,0,0,1-.185-.041,12.711,12.711,0,0,1-3.486-1.579,11.447,11.447,0,0,1-3.356,1.572.861.861,0,0,1-.2.048q-.089,0-.2-.219a1.275,1.275,0,0,0-.321-.424A11.573,11.573,0,0,0,53.3,46.014a6.5,6.5,0,0,1-1.5-1.846A10.289,10.289,0,0,1,50.709,45.5q-.123.123-.178.123-.075,0-.212-.144a1.577,1.577,0,0,0-.39-.273,8.374,8.374,0,0,0,2.058-2.96,3.482,3.482,0,0,0,.232-.868,4.726,4.726,0,0,1,.772.226q.144.055.144.157,0,.068-.116.178a2.282,2.282,0,0,0-.28.52,5.414,5.414,0,0,1-.267.561h3.391l1.654-.027q.109,0,.109.1v.547a.1.1,0,0,1-.109.109l-.171-.007q-.506-.014-1.135-.021A6.735,6.735,0,0,1,54.53,46,10.621,10.621,0,0,0,58.105,47.36Zm-2.762-3.644H52.322a6.46,6.46,0,0,0,1.593,1.839A5.769,5.769,0,0,0,55.344,43.717ZM48.822,41.8a.25.25,0,0,1-.109.191,1.352,1.352,0,0,0-.287.533,21.036,21.036,0,0,1-.937,2.188v6.952l.027,2.2a.1.1,0,0,1-.109.109h-.649a.1.1,0,0,1-.109-.109l.027-2.2V48.112q0-1.326.027-2.03A14.646,14.646,0,0,1,45.445,47.8q-.116.137-.171.137t-.137-.157a1.833,1.833,0,0,0-.349-.533,15.328,15.328,0,0,0,2.857-4.929,3.843,3.843,0,0,0,.205-.937,5.507,5.507,0,0,1,.827.267Q48.822,41.707,48.822,41.8Zm.827,2.222a.434.434,0,0,1-.027.123.766.766,0,0,0-.041.13,5.907,5.907,0,0,0-.089,1.306v4.368l.027,1.887q0,.123-.109.123h-.622q-.109,0-.109-.123l.027-1.887V45.61a11.765,11.765,0,0,0-.1-1.791,6.751,6.751,0,0,1,.868.082Q49.649,43.922,49.649,44.024ZM57.518,50.3q0,.075-.123.137a2.083,2.083,0,0,0-.4.267,13.677,13.677,0,0,1-2.8,1.982,14.8,14.8,0,0,1-3.466,1.169,1.076,1.076,0,0,1-.171.027q-.1,0-.205-.2a1.8,1.8,0,0,0-.376-.485,15.046,15.046,0,0,0,3.924-1.258,10.158,10.158,0,0,0,2.372-1.668,2.073,2.073,0,0,0,.451-.574,4.173,4.173,0,0,1,.69.444A.222.222,0,0,1,57.518,50.3Zm-1.442-1.2a.129.129,0,0,1-.109.137,1.809,1.809,0,0,0-.547.335,12.3,12.3,0,0,1-4.259,2.119.919.919,0,0,1-.212.048q-.082,0-.185-.178a1.775,1.775,0,0,0-.349-.444,13.113,13.113,0,0,0,2.7-.943A9.31,9.31,0,0,0,54.8,49.083a2.045,2.045,0,0,0,.506-.561,4.925,4.925,0,0,1,.69.417A.2.2,0,0,1,56.075,49.1Zm-1.347-1.148q0,.1-.144.137a1.787,1.787,0,0,0-.513.28,11.648,11.648,0,0,1-3.179,1.545,1.079,1.079,0,0,1-.205.041q-.075,0-.185-.185a1.475,1.475,0,0,0-.355-.4,9.983,9.983,0,0,0,3.309-1.456,2.137,2.137,0,0,0,.5-.52,4.42,4.42,0,0,1,.677.4A.222.222,0,0,1,54.729,47.948Zm10.247.67v2.769h-.937V49.049q-.321.164-.663.355-1.791,1.012-1.791,2.03a.927.927,0,0,0,.629.943,6.4,6.4,0,0,0,2.078.232q1.47,0,3.411-.171l.041.95q-2.55.13-3.384.13a5.879,5.879,0,0,1-2.967-.513,1.772,1.772,0,0,1-.7-1.6,3.066,3.066,0,0,1,1.88-2.55q.711-.4,1.456-.772-.068-1.312-.909-1.312-1.176,0-3.227,2.365l-.725-.643a16.348,16.348,0,0,0,2.9-4.136q-1.278.021-2.563,0V43.5q1.477.027,2.953,0a12.51,12.51,0,0,0,.629-1.873l1.012.185a14.377,14.377,0,0,1-.588,1.647q1.969-.062,3.739-.239l.027.854q-2.3.185-4.143.239a14.3,14.3,0,0,1-1.176,1.989l-.355.362.041.055a2.492,2.492,0,0,1,1.668-.711,1.521,1.521,0,0,1,1.114.424,1.982,1.982,0,0,1,.526,1.217q1.094-.5,2.844-1.237l.39.957Q65.905,48.208,64.976,48.618ZM82.086,47.2q0,.116-.171.212a2.011,2.011,0,0,0-.5.465A11.817,11.817,0,0,1,79.6,49.616q-.144.123-.2.123a.871.871,0,0,1-.232-.157,2.794,2.794,0,0,0-.608-.335,8.584,8.584,0,0,0,1.989-1.736h-3.89V50.58l.014,1.914a1.242,1.242,0,0,1-.362,1.025,3.378,3.378,0,0,1-1.709.267h-.294q-.232,0-.273-.048a.64.64,0,0,1-.089-.246,2.856,2.856,0,0,0-.28-.69,14.115,14.115,0,0,0,1.456.089.739.739,0,0,0,.513-.13.585.585,0,0,0,.116-.417V47.511H72.215l-1.866.027a.1.1,0,0,1-.109-.109v-.677a.1.1,0,0,1,.109-.109l1.866.027h4.4a14.829,14.829,0,0,0-2.953-2.126q-.075-.041-.075-.062a.6.6,0,0,1,.1-.15l.28-.321q.075-.082.116-.082a.148.148,0,0,1,.075.034,15.9,15.9,0,0,1,1.784,1.1,17.941,17.941,0,0,0,3.09-2.071h-5.5l-1.969.027q-.1,0-.1-.109v-.649q0-.109.1-.109l1.969.027h5.865a1.046,1.046,0,0,0,.342-.041,1.254,1.254,0,0,1,.191-.068q.13,0,.438.308t.308.465q0,.116-.2.191a1.606,1.606,0,0,0-.485.294,18.988,18.988,0,0,1-3.363,2.235q.253.205.841.731.048.041.048.062a.686.686,0,0,1-.123.13l-.191.185h3.637a.792.792,0,0,0,.355-.055.42.42,0,0,1,.164-.055,1.068,1.068,0,0,1,.451.267Q82.086,47.073,82.086,47.2ZM95.977,52.6a2.535,2.535,0,0,0-.2.588.528.528,0,0,1-.1.26.43.43,0,0,1-.239.048q-.9.027-1.319.027-4.074-.007-5.6-.772a3.3,3.3,0,0,1-1.162-.957,6.411,6.411,0,0,1-.588-.971,7.278,7.278,0,0,1-2.058,2.816.644.644,0,0,1-.2.137q-.048,0-.191-.171a1.354,1.354,0,0,0-.479-.376,6.686,6.686,0,0,0,2.7-4.874,4.6,4.6,0,0,0,.048-.595q0-.089-.007-.185.362.048.813.15.212.055.212.157a.6.6,0,0,1-.1.219.746.746,0,0,0-.144.349,12.683,12.683,0,0,1-.308,1.429,4.633,4.633,0,0,0,1,1.593,3.732,3.732,0,0,0,1.572.82V46.355H88.136l-1.921.027q-.123,0-.123-.109v-.595q0-.109.123-.109l1.921.027h3.89l1.921-.027a.1.1,0,0,1,.109.109v.595a.1.1,0,0,1-.109.109l-1.921-.027H90.487V48.7h2.085l1.374-.027a.1.1,0,0,1,.109.109v.595a.1.1,0,0,1-.109.109l-1.374-.027H90.487V52.48a21.3,21.3,0,0,0,3.165.185Q94.6,52.665,95.977,52.6Zm-.253-6.891a.1.1,0,0,1-.116.116h-.643q-.109,0-.109-.116V43.778h-9.55v1.928a.1.1,0,0,1-.116.116h-.643q-.109,0-.109-.116l.027-1.436v-.437l-.027-.745q0-.1.109-.1l1.935.027H89.5v-.2a7.092,7.092,0,0,0-.1-1.429,8.839,8.839,0,0,1,.909.075q.171.021.171.109a.816.816,0,0,1-.089.253,4.573,4.573,0,0,0-.055.991v.2h3.322l1.941-.027q.116,0,.116.1l-.027.649v.533Zm3.124-3.739h1.046q-.239,7.191-.239,8.668a2.136,2.136,0,0,0,.458,1.579,2.222,2.222,0,0,0,1.545.424,3.218,3.218,0,0,0,2.44-.943,5.471,5.471,0,0,0,1.217-2.673l.95.479q-.93,4.074-4.58,4.074a3.2,3.2,0,0,1-2.4-.718,3.1,3.1,0,0,1-.608-2.153q0-.766.062-3.753Q98.82,43.334,98.848,41.967Zm17.623.772.027.964a5.312,5.312,0,0,0-2.311.629,5.934,5.934,0,0,0-2.071,1.962,4.817,4.817,0,0,0-.813,2.659,2.958,2.958,0,0,0,1.285,2.529,6.17,6.17,0,0,0,2.933,1l-.239,1a6.1,6.1,0,0,1-3.63-1.381,3.89,3.89,0,0,1-1.312-3.049,5.709,5.709,0,0,1,2.994-5.024l.759-.335-.014-.027-.656.109q-1.189.068-5.66.479l-.082-.923Q109.683,43.177,116.471,42.739Zm4.354,1.354V41.83h.964v2.208q1.511-.1,2.591-.219v.909q-1.224.123-2.591.205v2.707a8.692,8.692,0,0,1,2.646-.479,2.9,2.9,0,0,1,2.577,1.169,3.273,3.273,0,0,1,.533,1.894,2.654,2.654,0,0,1-1.3,2.591,6.067,6.067,0,0,1-2.707.465v-.9a3.954,3.954,0,0,0,2.167-.444,2.048,2.048,0,0,0,.772-1.825,2.11,2.11,0,0,0-.6-1.524,1.724,1.724,0,0,0-1.285-.561,7.652,7.652,0,0,0-2.8.533v3.609a1.437,1.437,0,0,1-.273,1,1.054,1.054,0,0,1-.786.26,2.259,2.259,0,0,1-1.189-.376,2.427,2.427,0,0,1-1.347-2.03q0-1.736,2.632-3.049v-3q-.813.048-2.434.075v-.9Q119.7,44.154,120.825,44.093Zm0,4.9a5.118,5.118,0,0,0-1.306,1.019,1.511,1.511,0,0,0-.39.984,1.078,1.078,0,0,0,.335.759,1.888,1.888,0,0,0,.69.458.9.9,0,0,0,.39.1q.28,0,.28-.465Zm3.9-5.64.6-.731a12.831,12.831,0,0,1,2.816,2.229l-.684.772A11,11,0,0,0,124.729,43.354Zm5.927-1.258.971.123a38.255,38.255,0,0,0-.424,4.9,10.011,10.011,0,0,0,.055,1.162q.506-1.2.957-2.1l.643.5a17.362,17.362,0,0,0-.978,2.2,6.692,6.692,0,0,0-.239.841l-1.08.014a13.112,13.112,0,0,1-.294-2.816A40.7,40.7,0,0,1,130.655,42.1Zm4.662.055,1.012-.041q.137,2.6.137,4.758a14.871,14.871,0,0,1-.239,3.042,4.749,4.749,0,0,1-.7,1.647A5.8,5.8,0,0,1,132,53.67l-.6-.807a4.78,4.78,0,0,0,3.151-1.7q.923-1.189.923-4.341Q135.475,44.94,135.317,42.151Zm7.923,1.442q-.027-1.176-.027-1.853h1v1.812q1.7-.062,3.37-.267v.868q-1.531.185-3.356.253l.041,2.01q1.935-.089,3.247-.26v.868q-1.538.171-3.233.232.014.335.062,1.449.027.745.048,1.2a10.066,10.066,0,0,1,3.726,2.372l-.7.861a9.516,9.516,0,0,0-3.015-2.249v.15a2.184,2.184,0,0,1-2.475,2.468,3.271,3.271,0,0,1-2.017-.5,1.7,1.7,0,0,1-.6-1.436,1.679,1.679,0,0,1,.8-1.449,3.138,3.138,0,0,1,1.832-.5,8.4,8.4,0,0,1,1.47.1q-.048-.848-.1-2.427-1.825.048-3.644,0v-.848q1.7.055,3.63.014-.027-.383-.034-1.087-.014-.663-.027-.943-2.105.041-3.794-.027v-.841Q141.135,43.642,143.24,43.594Zm.171,7.055a5.407,5.407,0,0,0-1.374-.185q-1.832,0-1.832,1.107,0,1.066,1.654,1.066,1.552,0,1.552-1.866ZM155.928,44.5q-.041,1.518,0,3.035a5.324,5.324,0,0,1,.308,1.777,3.687,3.687,0,0,1-1.306,3.069,7.744,7.744,0,0,1-3.274,1.271l-.588-.841a6.334,6.334,0,0,0,3.411-1.381,2.741,2.741,0,0,0,.807-1.88,1.856,1.856,0,0,1-1.8.882,2.2,2.2,0,0,1-1.531-.574,2.3,2.3,0,0,1,.123-3.356,2.469,2.469,0,0,1,1.559-.492,2,2,0,0,1,1.36.39q-.027-1.312-.027-1.873-2.249.034-5.435.239l-.014-.9q2.584-.1,5.435-.171V41.8l1,.014q0,.629-.027,1.859,2.324-.027,3.363-.027v.9Q157.609,44.5,155.928,44.5Zm-2.338,2.3a1.322,1.322,0,0,0-.984.4,1.413,1.413,0,0,0-.39,1.046,1.237,1.237,0,0,0,.444,1,1.288,1.288,0,0,0,.848.294,1.406,1.406,0,0,0,1.1-.41,1.3,1.3,0,0,0,.314-.916Q154.923,46.8,153.59,46.8Zm9.324,3.527a1.915,1.915,0,0,1,1.463.643,1.916,1.916,0,0,1-.144,2.748,1.936,1.936,0,0,1-1.319.5,1.9,1.9,0,0,1-1.463-.643,1.916,1.916,0,0,1,.144-2.748A1.936,1.936,0,0,1,162.914,50.327Zm0,.7a1.269,1.269,0,0,0-1.251,1.251,1.253,1.253,0,0,0,2.181.834,1.247,1.247,0,0,0-.93-2.085Z"
										transform="translate(44 9988.429)" fill="#595757" />
								</g>
							</svg>