<svg xmlns="http://www.w3.org/2000/svg" width="303.825" height="32.508"
								viewBox="0 0 303.825 32.508">
								<g id="Сгруппировать_374" data-name="Сгруппировать 374"
									transform="translate(-29.15 -9836.709)">
									<path id="Контур_1733" data-name="Контур 1733"
										d="M8.873,0H7.6L6.563-2.748H2.406L1.429,0H.15L3.91-9.8H5.1ZM6.187-3.78,4.648-7.957a4,4,0,0,1-.15-.656H4.471a3.661,3.661,0,0,1-.157.656L2.789-3.78ZM10.555.15a.726.726,0,0,1-.537-.226A.742.742,0,0,1,9.8-.615a.754.754,0,0,1,.222-.543.72.72,0,0,1,.537-.229.739.739,0,0,1,.547.229.748.748,0,0,1,.226.543.737.737,0,0,1-.226.54A.745.745,0,0,1,10.555.15Z"
										transform="translate(29 9850)" fill="#595757" />
									<path id="Контур_1732" data-name="Контур 1732"
										d="M7.957,14.59a5.749,5.749,0,0,1-2.707.574A4.366,4.366,0,0,1,1.9,13.817,4.969,4.969,0,0,1,.643,10.283a5.208,5.208,0,0,1,1.415-3.8A4.8,4.8,0,0,1,5.646,5.033a5.754,5.754,0,0,1,2.311.4V6.66a4.686,4.686,0,0,0-2.324-.588A3.566,3.566,0,0,0,2.9,7.2a4.249,4.249,0,0,0-1.049,3.015,4.043,4.043,0,0,0,.981,2.854A3.338,3.338,0,0,0,5.4,14.132a4.828,4.828,0,0,0,2.557-.656Zm9.584.41H16.27L15.23,12.252H11.074L10.1,15H8.818l3.76-9.8h1.189Zm-2.687-3.78L13.316,7.043a4,4,0,0,1-.15-.656h-.027a3.661,3.661,0,0,1-.157.656L11.457,11.22ZM26.011,15H24.644L23,12.252a5.985,5.985,0,0,0-.437-.653,2.494,2.494,0,0,0-.434-.441,1.5,1.5,0,0,0-.479-.25,1.968,1.968,0,0,0-.578-.079h-.943V15H18.983V5.2h2.926a4.17,4.17,0,0,1,1.186.161,2.654,2.654,0,0,1,.943.489,2.271,2.271,0,0,1,.625.817,2.709,2.709,0,0,1,.226,1.145,2.757,2.757,0,0,1-.154.94,2.455,2.455,0,0,1-.437.762,2.652,2.652,0,0,1-.684.571,3.49,3.49,0,0,1-.9.366v.027a2.068,2.068,0,0,1,.427.25,2.351,2.351,0,0,1,.345.332,4.391,4.391,0,0,1,.325.434q.161.243.359.564ZM20.132,6.236V9.791H21.69a2.364,2.364,0,0,0,.8-.13,1.844,1.844,0,0,0,.632-.373,1.689,1.689,0,0,0,.417-.595,1.991,1.991,0,0,0,.15-.79,1.537,1.537,0,0,0-.509-1.227A2.188,2.188,0,0,0,21.7,6.236ZM32.553,15h-5.2V5.2h4.977V6.236H28.506V9.5h3.541v1.032H28.506v3.432h4.047Zm6.973,0H34.439V5.2h1.148v8.764h3.938Zm1.928-8.777a.71.71,0,0,1-.513-.205.692.692,0,0,1-.212-.52.718.718,0,0,1,.725-.731.724.724,0,0,1,.523.208.73.73,0,0,1,0,1.036A.718.718,0,0,1,41.453,6.223ZM42,15H40.879V8H42Zm10.322,0H50.914L45.869,7.187a3.265,3.265,0,0,1-.314-.615h-.041a10.092,10.092,0,0,1,.055,1.347V15H44.42V5.2h1.49l4.908,7.69q.308.479.4.656h.027a10.371,10.371,0,0,1-.068-1.442V5.2h1.148Zm9.393,0h-1.6l-3.787-4.484a2.733,2.733,0,0,1-.26-.342h-.027V15H54.893V5.2h1.148V9.8h.027a2.7,2.7,0,0,1,.26-.335L59.992,5.2h1.429l-4.2,4.7Zm6.412-9.153a22.039,22.039,0,0,1-1.483,7.362,2.1,2.1,0,0,1-1.894,1.483,1.749,1.749,0,0,1-1.606-1.06,6,6,0,0,1-.533-2.789,7.335,7.335,0,0,1,.458-2.618A5.114,5.114,0,0,1,64.107,6.5a4.675,4.675,0,0,1,1.716-1.128,5.426,5.426,0,0,1,1.969-.369,4.139,4.139,0,0,1,3.555,1.5,6.371,6.371,0,0,1,.964,3.808,5.114,5.114,0,0,1-1.121,3.4,5.6,5.6,0,0,1-3.274,1.784l-.485-.841a4.243,4.243,0,0,0,3.835-4.607,4.671,4.671,0,0,0-1.032-3.3A2.809,2.809,0,0,0,68.127,5.847Zm-1.053.109a3.075,3.075,0,0,0-1.292.4,4.459,4.459,0,0,0-1.06.93,5.252,5.252,0,0,0-1.148,3.582A4.6,4.6,0,0,0,63.984,13q.328.615.752.615a.82.82,0,0,0,.622-.26,2.544,2.544,0,0,0,.444-.759A19.819,19.819,0,0,0,67.074,5.956Zm12.558,5a15.455,15.455,0,0,0-2.9-1.962l.574-.766a21.307,21.307,0,0,1,2.857,1.75,13.505,13.505,0,0,0,1.162-4.02h-3.9a11.485,11.485,0,0,1-2.81,4.17l-.827-.561a11.586,11.586,0,0,0,3.247-5.893l1.08.267Q78,4.391,77.8,5.033h4.84a16.092,16.092,0,0,1-2.509,7.075,10.892,10.892,0,0,1-4.7,3.507l-.663-.786A10.256,10.256,0,0,0,79.632,10.953Zm9.208-2.83a32.431,32.431,0,0,1-3.931,2.632l-.574-.807A25.788,25.788,0,0,0,88.7,6.94a19.644,19.644,0,0,0,3.1-3.268l.923.574a22.1,22.1,0,0,1-2.8,2.98v8.333H88.84Zm10.685,4.149q.9,1.3,1.682,2.687l-.923.588a27.864,27.864,0,0,0-4.648-6.453l.8-.588A26.844,26.844,0,0,1,98.9,11.391a22.9,22.9,0,0,0,2.994-5.715h-7.4V4.739h8.47l.362.485A31.431,31.431,0,0,1,99.524,12.272Zm5.3-3.015h7.615V10.3h-7.615ZM126.171,4.8q0,.1-.109.1L124.2,4.869H120.5V6.7h1.073l1.812-.027a.1.1,0,0,1,.109.109l-.027,1.538v3.015l.027,1.538a.1.1,0,0,1-.109.109l-1.812-.027H118.7l-1.8.027a.1.1,0,0,1-.109-.109l.027-1.538V8.321l-.027-1.538a.1.1,0,0,1,.109-.109l1.8.027h1V4.869h-3.555L114.3,4.9q-.109,0-.109-.1V4.179q0-.123.109-.123l1.853.027H124.2l1.866-.027q.109,0,.109.123Zm-3.5,7.458v-2.2H120.5v2.2Zm-2.967,0v-2.2h-2.1v2.2Zm2.967-2.871V7.4H120.5V9.388Zm-2.967,0V7.4h-2.1V9.388Zm6.316-2.543a.377.377,0,0,1-.068.212,3.947,3.947,0,0,0-.1,1.271V13.12l.027,2.687q0,.116-.109.116h-.649q-.109,0-.109-.116v-.7h-9.673v.7q0,.116-.109.116h-.636q-.109,0-.109-.116l.027-2.659V8.3a11.45,11.45,0,0,0-.082-1.688q.615.048.882.082.2.021.2.15a1.2,1.2,0,0,1-.1.267,5.765,5.765,0,0,0-.068,1.237v5.988h9.673V8.314a10.4,10.4,0,0,0-.1-1.7q.52.027.923.082Q126.021,6.715,126.021,6.845Zm14.219-2q0,.1-.109.1l-1.839-.027h-3.876a11.737,11.737,0,0,1-.868,2.126h4.006l1.962-.027a.1.1,0,0,1,.109.109L139.6,9.682v2.44l.027,3.671q0,.116-.109.116h-.663q-.109,0-.109-.116v-.684h-9.2v.7q0,.116-.109.116h-.649q-.109,0-.109-.116l.027-3.685V9.928l-.027-2.81a.1.1,0,0,1,.109-.109l1.962.027h1.907a11.668,11.668,0,0,0,.854-2.126h-3.5l-1.839.027q-.109,0-.109-.1V4.206a.1.1,0,0,1,.109-.109l1.839.027h8.285L140.13,4.1a.1.1,0,0,1,.109.109Zm-1.5,9.509V7.781h-2.365v6.569Zm-6.85,0V7.781h-2.352v6.569Zm3.671,0V12.58h-2.871v1.771Zm0-2.468V10.153h-2.871v1.729Zm0-2.427V7.781h-2.871V9.456Zm13.282-1.613.718-.273A18.274,18.274,0,0,1,150.6,9.935l-.752.308A15.122,15.122,0,0,0,148.846,7.843Zm1.586-.472.7-.253a11.566,11.566,0,0,1,1,2.3l-.731.294A13.487,13.487,0,0,0,150.432,7.371Zm.39-2.632.027.964a5.312,5.312,0,0,0-2.311.629,5.934,5.934,0,0,0-2.071,1.962,4.817,4.817,0,0,0-.813,2.659,2.958,2.958,0,0,0,1.285,2.529,6.17,6.17,0,0,0,2.933,1l-.239,1A6.1,6.1,0,0,1,146,14.1a3.89,3.89,0,0,1-1.312-3.049,5.709,5.709,0,0,1,2.994-5.024l.759-.335-.014-.027-.656.109q-1.189.068-5.66.479l-.082-.923Q144.033,5.177,150.821,4.739Zm14.82,8.7a3.38,3.38,0,0,1-.273,1.326,1.687,1.687,0,0,1-.437.479,5.82,5.82,0,0,1-2.9.417,10.217,10.217,0,0,1-1.579-.082,1.571,1.571,0,0,1-.67-.253,1.354,1.354,0,0,1-.4-1.135V10.6q-.4.123-.69.232l-.205.075a.225.225,0,0,1-.068.014q-.075,0-.1-.109l-.137-.533a.158.158,0,0,1-.014-.055q0-.055.1-.075.4-.075,1.121-.28V9.162a11.047,11.047,0,0,0-.082-1.613,8.3,8.3,0,0,1,.827.075q.164.021.164.109a.724.724,0,0,1-.068.253A4.438,4.438,0,0,0,160.159,9v.649l1.422-.424V8.615a10.812,10.812,0,0,0-.1-1.7,6.273,6.273,0,0,1,.834.075q.157.021.157.137a1.463,1.463,0,0,1-.055.226A4.022,4.022,0,0,0,162.34,8.4V9l1-.308q.7-.2,1.258-.4.342-.116.369-.123h.021q.075,0,.075.1l-.027.643a16.706,16.706,0,0,1-.321,3.179.857.857,0,0,1-.868.663q-.123.007-.273.007-.219,0-.479-.021-.123-.014-.15-.055a.572.572,0,0,1-.048-.2,1.437,1.437,0,0,0-.185-.567,3.639,3.639,0,0,0,.882.116.4.4,0,0,0,.438-.349,16.326,16.326,0,0,0,.239-2.563l-1.935.588v1.887l.027,1.6a.1.1,0,0,1-.109.109h-.595a.1.1,0,0,1-.109-.109l.027-1.6V9.948l-1.422.417v3.206a4.377,4.377,0,0,0,.048.813.406.406,0,0,0,.178.287,4.189,4.189,0,0,0,1.716.2,13.123,13.123,0,0,0,1.729-.075,1.232,1.232,0,0,0,.595-.219,1.052,1.052,0,0,0,.349-.622,6.746,6.746,0,0,0,.1-1.169,1.361,1.361,0,0,0,.547.28q.226.062.226.253Q165.648,13.359,165.642,13.435ZM158.45,6.462a.1.1,0,0,1-.116.116l-1.552-.034h-1.217q-.027,1.285-.055,1.921H156.9l.868-.027a.109.109,0,0,1,.123.123q-.014.26-.027.779-.021.595-.027.9a22.077,22.077,0,0,1-.308,4.033,2.025,2.025,0,0,1-.485,1.053,1.214,1.214,0,0,1-.861.287q-.431,0-.7-.014-.157-.014-.191-.062a.694.694,0,0,1-.048-.232,1.711,1.711,0,0,0-.2-.615,5.739,5.739,0,0,0,1.053.109.535.535,0,0,0,.52-.294,3.454,3.454,0,0,0,.191-.813,33.646,33.646,0,0,0,.267-4.484h-1.593a18.5,18.5,0,0,1-.54,3.773,8.717,8.717,0,0,1-1.169,2.536q-.109.15-.157.15t-.164-.123a1.806,1.806,0,0,0-.506-.437,7.835,7.835,0,0,0,1.524-3.671,34.938,34.938,0,0,0,.308-4.895l-1.511.034q-.1,0-.1-.116V5.874a.085.085,0,0,1,.1-.1l1.565.027h.916V4.869a6.96,6.96,0,0,0-.1-1.442q.54.021.909.068.185.021.185.123a.864.864,0,0,1-.082.253,3.335,3.335,0,0,0-.089,1v.937h.226l1.538-.027q.116,0,.116.1Zm7.082-.191a.1.1,0,0,1-.109.109l-1.668-.027h-3.979a10.35,10.35,0,0,1-1.23,1.764q-.116.144-.191.144t-.2-.157a1.274,1.274,0,0,0-.41-.294,8.668,8.668,0,0,0,2.092-3.473,4.21,4.21,0,0,0,.178-.943q.526.1.8.185.157.041.157.157a.332.332,0,0,1-.082.164,1.884,1.884,0,0,0-.267.574q-.26.7-.451,1.121h3.582l1.668-.027a.1.1,0,0,1,.109.109Zm10.083.937q0,.109-.116.109l-1.456-.027h-.417v6.05l.027,2.42a.1.1,0,0,1-.109.109h-.649a.1.1,0,0,1-.109-.109l.027-2.406V7.289h-.437l-1.47.027a.1.1,0,0,1-.109-.109V6.633q0-.116.109-.116l1.47.027h.438V5.354a11.11,11.11,0,0,0-.1-1.8,8.722,8.722,0,0,1,.9.082q.171.027.171.116a.379.379,0,0,1-.027.123,1.265,1.265,0,0,0-.048.13,6.158,6.158,0,0,0-.082,1.34v1.2h.417l1.456-.027a.1.1,0,0,1,.116.116Zm4.115.841q0,.123-.116.123l-1.244-.027H178.3V12.3l.014,2.194a1.173,1.173,0,0,1-.383,1.025,2.85,2.85,0,0,1-1.367.212h-.308q-.219,0-.26-.048a.6.6,0,0,1-.082-.246,2.487,2.487,0,0,0-.219-.595,10.779,10.779,0,0,0,1.258.089q.52-.021.52-.574V8.144h-.383l-1.244.027a.109.109,0,0,1-.123-.123V7.487q0-.116.123-.116l1.244.027h1.278l1.244-.027a.1.1,0,0,1,.116.116Zm-9.194-.984q0,.082-.13.164a1.094,1.094,0,0,0-.321.41A11.166,11.166,0,0,1,169.36,8.8v5.209l.027,1.8q0,.109-.116.109h-.643a.1.1,0,0,1-.109-.109l.027-1.8V11.5q0-.123.041-1.723A14.384,14.384,0,0,1,167.48,10.9q-.109.109-.164.109-.075,0-.144-.15a1.759,1.759,0,0,0-.321-.506,10.411,10.411,0,0,0,2.577-3.192,3.284,3.284,0,0,0,.267-.684,5.288,5.288,0,0,1,.684.39Q170.536,6.975,170.536,7.063Zm.041-3.042q0,.1-.13.157a1.182,1.182,0,0,0-.349.335A12.765,12.765,0,0,1,167.624,7.1a.578.578,0,0,1-.2.109q-.062,0-.171-.2a1.73,1.73,0,0,0-.362-.472,9.155,9.155,0,0,0,2.5-2.5,2.091,2.091,0,0,0,.308-.629,4.717,4.717,0,0,1,.738.41Q170.577,3.926,170.577,4.021Zm1.442,5.223a.4.4,0,0,1-.068.185,1.426,1.426,0,0,0-.144.547,13.911,13.911,0,0,1-.882,3.493q-.055.171-.13.171a.565.565,0,0,1-.178-.068,1.67,1.67,0,0,0-.547-.164,11.343,11.343,0,0,0,.957-3.432q.027-.342.027-.636a2.832,2.832,0,0,0-.021-.362,6.191,6.191,0,0,1,.8.116Q172.02,9.128,172.02,9.244Zm4.04,3.486a.112.112,0,0,0,.007.027v.021q0,.075-.144.137l-.39.137a.66.66,0,0,1-.171.048q-.062,0-.068-.1a21.241,21.241,0,0,0-.8-3.726.29.29,0,0,1-.014-.068q0-.048.144-.1l.376-.13a.4.4,0,0,1,.1-.021q.055,0,.082.1A22.955,22.955,0,0,1,176.06,12.73Zm3.35-7.588q0,.116-.1.116l-1.094-.027h-.909l-1.094.027q-.109,0-.109-.116V4.555a.1.1,0,0,1,.109-.109l1.094.027h.909l1.094-.027q.1,0,.1.109Zm-3.767.267a.207.207,0,0,1,.021.075q0,.055-.1.123l-.28.178a.524.524,0,0,1-.171.089q-.041,0-.082-.089a6.681,6.681,0,0,0-.841-1.381.166.166,0,0,1-.041-.082q0-.041.109-.1l.308-.171a.445.445,0,0,1,.123-.041.114.114,0,0,1,.075.041A6.778,6.778,0,0,1,175.643,5.409ZM194.106,10.5a1.939,1.939,0,0,0-.349.54q-.116.246-.2.246a.585.585,0,0,1-.185-.062,13.352,13.352,0,0,1-3.274-2.14,13.708,13.708,0,0,1-3.165,2.112.5.5,0,0,1-.219.082q-.082,0-.2-.212a1.408,1.408,0,0,0-.349-.417,11.642,11.642,0,0,0,3.4-2.1A9.819,9.819,0,0,1,188.139,6.5a10.773,10.773,0,0,1-1.23,1.456q-.15.157-.191.157t-.171-.157a1.412,1.412,0,0,0-.465-.349,8.7,8.7,0,0,0,2.5-3.541,2.9,2.9,0,0,0,.185-.738,5.237,5.237,0,0,1,.793.205q.144.062.144.157a.248.248,0,0,1-.082.178.9.9,0,0,0-.253.369q-.157.383-.308.684h2.687a.912.912,0,0,0,.335-.041.315.315,0,0,1,.123-.041q.13,0,.362.253t.226.349a.221.221,0,0,1-.123.191.953.953,0,0,0-.253.335,10.117,10.117,0,0,1-1.75,2.563A12.431,12.431,0,0,0,194.106,10.5Zm-2.42-4.888H188.7l-.123.212a7.95,7.95,0,0,0,1.538,2.181A8.771,8.771,0,0,0,191.687,5.614Zm-5.223,4.553a.2.2,0,0,1,.007.048q0,.062-.171.137l-.28.109a.537.537,0,0,1-.164.055q-.055,0-.075-.109-.062-.157-.144-.458-.369.048-1.244.137v3.753l.027,2.044a.085.085,0,0,1-.1.1h-.649q-.109,0-.109-.1l.027-2.044V10.153l-1.483.116a1.138,1.138,0,0,0-.533.123.761.761,0,0,1-.164.055q-.082,0-.13-.178a7.418,7.418,0,0,1-.123-.786q.513.048.711.048.089,0,.185-.007h.178q.533-.67,1.025-1.4a19.106,19.106,0,0,0-2.044-2.194.168.168,0,0,1-.062-.1.409.409,0,0,1,.089-.164l.226-.294q.075-.1.116-.1.021,0,.075.048l.547.533a17.166,17.166,0,0,0,.971-1.641,3.767,3.767,0,0,0,.349-.9,5.5,5.5,0,0,1,.738.335q.144.082.144.185a.2.2,0,0,1-.1.15.891.891,0,0,0-.253.294q-.7,1.169-1.333,2.085.54.567.991,1.094.513-.807,1.08-1.832a4.864,4.864,0,0,0,.41-.909,5.375,5.375,0,0,1,.759.349q.123.082.123.15a.228.228,0,0,1-.123.185,2.542,2.542,0,0,0-.479.629q-1.306,2.078-2.358,3.459.9-.034,2.29-.15a8.978,8.978,0,0,0-.506-1.08.182.182,0,0,1-.034-.082q0-.055.157-.116l.267-.1a.55.55,0,0,1,.144-.041q.048,0,.1.082A13.241,13.241,0,0,1,186.464,10.167Zm6.173,5.3-.212.39q-.1.171-.171.171a.259.259,0,0,1-.1-.027,19.868,19.868,0,0,0-4.546-1.976q-.075-.021-.075-.068a.513.513,0,0,1,.075-.185l.178-.349q.089-.157.157-.157a.374.374,0,0,1,.082.014,23.739,23.739,0,0,1,4.594,1.962q.068.048.068.082A.383.383,0,0,1,192.637,15.465Zm-9.816-3.979a.32.32,0,0,1-.068.185,1.409,1.409,0,0,0-.144.513,15.338,15.338,0,0,1-.6,2.591q-.062.212-.137.212a.525.525,0,0,1-.212-.109,1.388,1.388,0,0,0-.458-.226,9.479,9.479,0,0,0,.67-2.591,5.635,5.635,0,0,0,.048-.649q0-.1-.007-.205.479.082.7.137T182.82,11.486Zm8.88.8q.068.062.068.1a.423.423,0,0,1-.082.164l-.253.321q-.123.144-.178.144a.133.133,0,0,1-.089-.048,12.851,12.851,0,0,0-2.42-1.668q-.062-.027-.062-.068a.36.36,0,0,1,.089-.164l.232-.328q.082-.1.144-.1a.161.161,0,0,1,.068.021A15,15,0,0,1,191.7,12.286Zm-5.168,1.634a.584.584,0,0,1,.007.062q0,.082-.178.15l-.308.109a.6.6,0,0,1-.171.055q-.055,0-.068-.109a13.853,13.853,0,0,0-.656-2.728.262.262,0,0,1-.021-.082q0-.062.164-.116l.294-.082a.4.4,0,0,1,.109-.021q.062,0,.1.089A14.9,14.9,0,0,1,186.532,13.92Zm20.33-9.037a.23.23,0,0,1-.157.232,2.483,2.483,0,0,0-.479.321,25.942,25.942,0,0,1-4.129,2.98v3.938l.027,1.764a1.871,1.871,0,0,1-.137.8,1.346,1.346,0,0,1-.308.376,1.752,1.752,0,0,1-1,.335q-.4.041-1.5.041a.507.507,0,0,1-.267-.041.874.874,0,0,1-.089-.253,1.693,1.693,0,0,0-.294-.684q.67.068,1.894.068.772,0,.772-.854V9.456a10.971,10.971,0,0,0-.13-2q.157.027.827.1a22.235,22.235,0,0,0,3.445-2.488H198.42l-1.935.027q-.109,0-.109-.123V4.3a.1.1,0,0,1,.109-.109l1.935.027h7.164a.969.969,0,0,0,.383-.055.322.322,0,0,1,.137-.041q.123,0,.417.294Q206.862,4.753,206.862,4.883Zm7.813,1.34h4.437v.923h-4.437v8.429h-1.066V7.146h-4.382V6.223h4.382V3.8h1.066Zm1.941-2.83.718-.28a15.619,15.619,0,0,1,1.032,2.365l-.752.308A14.83,14.83,0,0,0,216.617,3.393Zm-4.7,5.646a17.191,17.191,0,0,1-2.03,5.469L208.947,14A14.227,14.227,0,0,0,210.9,8.725Zm4.354.1.978-.362a24.766,24.766,0,0,0,1.989,5.12l-1.019.547A37.418,37.418,0,0,1,216.269,9.135Zm1.948-6.173.7-.253a11.566,11.566,0,0,1,1,2.3l-.731.294A13.487,13.487,0,0,0,218.217,2.962Zm8.381,7.991a15.455,15.455,0,0,0-2.9-1.962l.574-.766a21.307,21.307,0,0,1,2.857,1.75,13.505,13.505,0,0,0,1.162-4.02h-3.9a11.485,11.485,0,0,1-2.81,4.17l-.827-.561a11.586,11.586,0,0,0,3.247-5.893l1.08.267q-.116.451-.321,1.094h4.84a16.092,16.092,0,0,1-2.509,7.075,10.892,10.892,0,0,1-4.7,3.507l-.663-.786A10.256,10.256,0,0,0,226.6,10.953Zm5.612-5.92A23.989,23.989,0,0,1,235.5,7.118l-.7.923a20.356,20.356,0,0,0-3.22-2.181Zm7.055.7,1.053.506a11.411,11.411,0,0,1-2.6,5.8,11.137,11.137,0,0,1-5.585,3.227l-.479-.95Q238.219,12.7,239.265,5.73Zm8.306,4.888v2.769h-.937V11.049q-.321.164-.663.355-1.791,1.012-1.791,2.03a.927.927,0,0,0,.629.943,6.4,6.4,0,0,0,2.078.232q1.47,0,3.411-.171l.041.95q-2.55.13-3.384.13a5.879,5.879,0,0,1-2.967-.513,1.772,1.772,0,0,1-.7-1.6,3.066,3.066,0,0,1,1.88-2.55q.711-.4,1.456-.772-.068-1.312-.909-1.312-1.176,0-3.227,2.365l-.725-.643a16.349,16.349,0,0,0,2.9-4.136q-1.278.021-2.563,0V5.5q1.477.027,2.953,0a12.511,12.511,0,0,0,.629-1.873l1.012.185a14.378,14.378,0,0,1-.588,1.647q1.969-.062,3.739-.239l.027.854q-2.3.185-4.143.239a14.3,14.3,0,0,1-1.176,1.989l-.355.362.041.055a2.492,2.492,0,0,1,1.668-.711,1.521,1.521,0,0,1,1.114.424,1.982,1.982,0,0,1,.526,1.217q1.094-.5,2.844-1.237l.39.957Q248.5,10.208,247.57,10.618Zm16.734.868q0,.1-.144.1h-.6q-.116,0-.116-.1v-.629h-2.358v2.714l.021,2.256a.1.1,0,0,1-.109.109h-.656a.1.1,0,0,1-.109-.109l.027-2.256V10.857h-2.235v.718q0,.109-.116.109h-.615a.1.1,0,0,1-.109-.109l.021-3.227V6.558l-.021-2.311a.1.1,0,0,1,.109-.109l1.846.027h3.206l1.846-.027q.116,0,.116.109l-.034,2.085V8.308Zm-.861-1.388V7.843h-2.358V10.1Zm0-2.967V4.924h-2.358V7.132ZM260.258,10.1V7.843h-2.235V10.1Zm0-2.967V4.924h-2.235V7.132Zm-3.773,2.1q-.027.308-.027.547a.486.486,0,0,1-.048.267.637.637,0,0,1-.219.157q-.4.191-1.23.554v1.627l.007,2.112a2.562,2.562,0,0,1-.075.745.828.828,0,0,1-.287.376,2.438,2.438,0,0,1-1.388.253.428.428,0,0,1-.26-.048.675.675,0,0,1-.089-.219,2.766,2.766,0,0,0-.267-.615,7.814,7.814,0,0,0,1,.055.493.493,0,0,0,.438-.171.87.87,0,0,0,.109-.5V11.083l-.813.294a1.656,1.656,0,0,0-.52.253.285.285,0,0,1-.171.1q-.089,0-.15-.13a4.674,4.674,0,0,1-.253-.793,10.469,10.469,0,0,0,1.23-.308q.362-.109.677-.226V7.077H253.7L252.41,7.1q-.116,0-.116-.109V6.407a.1.1,0,0,1,.116-.116l1.285.027h.451V5.17a8.8,8.8,0,0,0-.116-1.7,7.262,7.262,0,0,1,.916.089q.171.021.171.109a.853.853,0,0,1-.089.267,5.727,5.727,0,0,0-.068,1.217V6.318h.027l1.285-.027q.109,0,.109.116V7a.1.1,0,0,1-.109.109l-1.285-.027h-.027V9.962Q255.616,9.688,256.484,9.23Zm10.958-5.264h1.046q-.239,7.191-.239,8.668a2.136,2.136,0,0,0,.458,1.579,2.222,2.222,0,0,0,1.545.424,3.218,3.218,0,0,0,2.44-.943,5.471,5.471,0,0,0,1.217-2.673l.95.479q-.93,4.074-4.58,4.074a3.2,3.2,0,0,1-2.4-.718,3.1,3.1,0,0,1-.608-2.153q0-.766.062-3.753Q267.415,5.334,267.442,3.967Zm17.623.772.027.964a5.312,5.312,0,0,0-2.311.629,5.934,5.934,0,0,0-2.071,1.962,4.817,4.817,0,0,0-.813,2.659,2.958,2.958,0,0,0,1.285,2.529,6.169,6.169,0,0,0,2.933,1l-.239,1a6.1,6.1,0,0,1-3.63-1.381,3.89,3.89,0,0,1-1.312-3.049,5.709,5.709,0,0,1,2.994-5.024l.759-.335-.014-.027-.656.109q-1.189.068-5.66.479l-.082-.923Q278.277,5.177,285.065,4.739ZM5.2,30.288l.854.615Q5.373,34.28,3.78,34.28a1.651,1.651,0,0,1-1.538-1.019,9.207,9.207,0,0,1-.718-3.227q-.109-1.312-.109-3.541l.014-2.632H2.44L2.42,26.05q0,2.646.116,3.9.267,3.22,1.217,3.22.485,0,.813-.711A11.913,11.913,0,0,0,5.2,30.288Zm2.1-5.346.909-.267A17.059,17.059,0,0,1,10.63,32.25l-1.053.171A17.589,17.589,0,0,0,7.294,24.942Zm7.444,1q-1.155.062-2.365.062v-.882q1.4,0,2.509-.062.191-1.422.267-2.447l1.032.1q-.109,1.025-.321,2.311,1.36-.089,3.1-.239l.014.882q-1.429.15-3.254.239a53.168,53.168,0,0,1-2.208,8.524L12.53,34.1A47.881,47.881,0,0,0,14.738,25.947Zm1.709,5.38.868.068a3.679,3.679,0,0,0-.082.786,1.075,1.075,0,0,0,.513,1.08,4.218,4.218,0,0,0,1.559.191,16.519,16.519,0,0,0,2.167-.109l.055.964q-.834.082-2.044.082a4.645,4.645,0,0,1-2.5-.472,1.737,1.737,0,0,1-.636-1.531A5.222,5.222,0,0,1,16.447,31.327Zm.711-2.994V27.4a40.056,40.056,0,0,1,4.259-.191v.9A32.162,32.162,0,0,0,17.158,28.333Zm8.716-3.268q.191-1.422.267-2.447l1.032.1q-.109,1.025-.321,2.311,1.36-.089,3.1-.239l.014.882q-1.429.15-3.254.239A53.168,53.168,0,0,1,24.5,34.431l-.978-.335a47.881,47.881,0,0,0,2.208-8.148q-1.155.062-2.365.062v-.882Q24.767,25.127,25.874,25.065Zm4.088-2.488.711-.28a18.727,18.727,0,0,1,1.039,2.365l-.759.308A14.485,14.485,0,0,0,29.962,22.577Zm-2.522,8.75.868.068a3.679,3.679,0,0,0-.082.786,1.075,1.075,0,0,0,.513,1.08,4.218,4.218,0,0,0,1.559.191,16.519,16.519,0,0,0,2.167-.109l.055.964q-.834.082-2.044.082a4.645,4.645,0,0,1-2.5-.472,1.737,1.737,0,0,1-.636-1.531A5.222,5.222,0,0,1,27.439,31.327Zm.711-2.994V27.4q1.982-.191,4.259-.191v.9A32.162,32.162,0,0,0,28.15,28.333Zm3.363-6.275.7-.253a11.566,11.566,0,0,1,1,2.3l-.731.294A13.488,13.488,0,0,0,31.514,22.058Zm7.957.882.9.615q-2.119,2.454-4.382,4.607a.681.681,0,0,0-.267.479q0,.226.376.513a45.7,45.7,0,0,1,4.9,4.71l-.868.725A50.559,50.559,0,0,0,35.1,29.522a1.118,1.118,0,0,1-.465-.841A1.139,1.139,0,0,1,35,27.854,64.9,64.9,0,0,0,39.471,22.939Zm7.062,4.437q1.429-.854,3.274-1.818l.5.882a29.874,29.874,0,0,0-4.464,2.5,3.4,3.4,0,0,0-1.709,2.714q0,1.8,2.885,1.8,1.483,0,3.391-.137v1q-2.345.068-3.459.068-3.78,0-3.78-2.755,0-2.085,2.475-3.7-.588-2.14-1.087-5.024l1.032-.041A41.146,41.146,0,0,0,46.532,27.376Zm16.639,7.383q0,.1-.109.1H62.4q-.109,0-.109-.1v-.786H55.357v.8q0,.1-.109.1h-.663q-.109,0-.109-.1l.027-4.437V27.745l-.027-3.35a.1.1,0,0,1,.109-.109l1.962.027h.827a12.481,12.481,0,0,0,.561-1.483,3.218,3.218,0,0,0,.1-.615q.41.055.9.164.171.048.171.157a.228.228,0,0,1-.082.15,1.128,1.128,0,0,0-.212.355q-.308.82-.533,1.271H61.1l1.962-.027a.1.1,0,0,1,.109.109l-.027,3.028v2.9Zm-.882-1.586V30.842H55.357v2.331Zm0-3.1v-2.1H55.357v2.1Zm0-2.871V25.113H55.357V27.2ZM73.35,25.619q0,.109-.082.109L71.477,25.7h-.984v.9h.759l1.668-.027a.1.1,0,0,1,.109.109L73,27.827V29.2l.027,1.148a.1.1,0,0,1-.109.109l-1.668-.027h-.759v.9h.745l1.709-.027a.1.1,0,0,1,.109.109v.506a.1.1,0,0,1-.109.109L71.237,32h-.745v1.012q1.47-.191,2.577-.424a2.128,2.128,0,0,0-.1.424.571.571,0,0,1-.058.25.535.535,0,0,1-.25.085q-2.188.431-5,.752a1.712,1.712,0,0,0-.547.116.658.658,0,0,1-.164.068q-.116,0-.171-.171-.144-.554-.191-.793h.342q.458,0,1.1-.048.882-.075,1.709-.164V32h-.984l-1.709.027a.1.1,0,0,1-.109-.109v-.506a.1.1,0,0,1,.109-.109l1.709.027h.984v-.9h-.69l-1.668.027a.1.1,0,0,1-.109-.109L67.3,29.2v-1.36l-.027-1.162a.1.1,0,0,1,.109-.109l1.668.027h.69v-.9h-1.2l-1.777.027a.1.1,0,0,1-.109-.109V25.1q0-.116.109-.116l1.777.034h1.2v-.93q-1.094.157-2.146.253l-.157.007q-.13,0-.205-.178a1.78,1.78,0,0,0-.308-.485,24.746,24.746,0,0,0,4.819-.725,2.288,2.288,0,0,0,.643-.267,5.754,5.754,0,0,1,.547.458.323.323,0,0,1,.109.2q0,.123-.239.123-.055,0-.547.1-.868.219-1.764.39v1.053h.984l1.777-.034q.1,0,.1.116Zm-1.08,4.225V28.777H70.492v1.066Zm-2.529,0V28.777h-1.7v1.066ZM72.27,28.2v-1H70.492v1Zm-2.529,0v-1h-1.7v1Zm8.887-2.386q-.027.437-.027,1.251a46.07,46.07,0,0,1-.4,6.228,1.45,1.45,0,0,1-1.518,1.4q-.4,0-.991-.027-.171-.014-.212-.075a.37.37,0,0,1-.041-.164,1.522,1.522,0,0,0-.191-.67,7.78,7.78,0,0,0,1.367.123.656.656,0,0,0,.561-.246,1.682,1.682,0,0,0,.239-.718,42.512,42.512,0,0,0,.362-6.439H76.1a19.168,19.168,0,0,1-.506,3.924,9.438,9.438,0,0,1-1.06,2.536,7.127,7.127,0,0,1-1.613,1.791.644.644,0,0,1-.212.123q-.055,0-.185-.13a1.5,1.5,0,0,0-.561-.376A5.774,5.774,0,0,0,73.883,32.4a9.028,9.028,0,0,0,.937-2.29,18.319,18.319,0,0,0,.465-3.63h-.144l-1.5.027q-.123,0-.123-.109v-.588q0-.116.123-.116l1.5.027h.171q.027-1.06.027-1.579a11.718,11.718,0,0,0-.1-1.723,6.265,6.265,0,0,1,.909.1q.15.027.15.13a1.163,1.163,0,0,1-.068.294,5.459,5.459,0,0,0-.082,1.3q0,1-.014,1.483h.827l1.538-.027A.109.109,0,0,1,78.627,25.817Zm6.9,8.258a.1.1,0,0,1-.109.109h-.608a.1.1,0,0,1-.109-.109v-.8H82.018v1.107a.1.1,0,0,1-.109.109H81.3a.1.1,0,0,1-.109-.109l.027-4.02v-2.4l-.027-3.056A.1.1,0,0,1,81.3,24.8l1.237.034a16,16,0,0,0,.52-1.627,3.4,3.4,0,0,0,.1-.813,5.006,5.006,0,0,1,.909.212q.15.041.15.15a.271.271,0,0,1-.1.185.975.975,0,0,0-.226.4q-.321.937-.547,1.49h.718l1.36-.034a.1.1,0,0,1,.109.109L85.5,27.615v2.577ZM84.7,32.53V29.324H82.018V32.53Zm0-3.951V25.558H82.018v3.021Zm7.978-3.568q-.027.355-.027,1.053a42.856,42.856,0,0,1-.451,6.829,3.367,3.367,0,0,1-.595,1.627A1.421,1.421,0,0,1,90.474,35q-.588,0-1.333-.068-.2-.021-.232-.068a.751.751,0,0,1-.075-.253,2.021,2.021,0,0,0-.239-.643,11.165,11.165,0,0,0,1.668.178h.157q.711,0,.978-1.565a45.4,45.4,0,0,0,.4-6.9H87.7a13.941,13.941,0,0,1-1.121,1.873q-.123.171-.178.171t-.212-.137a1.742,1.742,0,0,0-.458-.342A12.4,12.4,0,0,0,87.7,23.63a5.155,5.155,0,0,0,.267-1.251,6.744,6.744,0,0,1,.868.253q.212.082.212.185a.367.367,0,0,1-.157.253,2.346,2.346,0,0,0-.321.656q-.205.533-.5,1.189h2.967l1.524-.027A.109.109,0,0,1,92.682,25.011ZM89.9,30.418a.258.258,0,0,1,.027.089q0,.055-.144.15l-.4.294a.478.478,0,0,1-.144.068q-.034,0-.068-.068A11.251,11.251,0,0,0,87.4,28.258a.142.142,0,0,1-.041-.068q0-.041.144-.137l.349-.226a.239.239,0,0,1,.123-.068q.027,0,.075.055A10.354,10.354,0,0,1,89.9,30.418Zm8.271.014.957.082a5.457,5.457,0,0,0-.157,1.258,1.054,1.054,0,0,0,.444.978,3.167,3.167,0,0,0,1.545.273,25.984,25.984,0,0,0,2.769-.144l.027,1.012q-1.025.082-2.659.082a4.349,4.349,0,0,1-2.44-.492,1.783,1.783,0,0,1-.636-1.552A7.22,7.22,0,0,1,98.171,30.432Zm.28-4.676V24.8q1.75-.137,3.541-.137.889,0,1.668.041v.95q-.725-.055-1.764-.055Q100.105,25.6,98.451,25.756ZM96.94,23.343a36.343,36.343,0,0,0-.786,6.61,24.829,24.829,0,0,0,.342,4.382l-1,.082a28.849,28.849,0,0,1-.321-4.491,40.268,40.268,0,0,1,.772-6.665Zm12.011,1.8a13.127,13.127,0,0,1-2.577,4.026l-.8-.615a12.247,12.247,0,0,0,3.021-5.824l1.107.171q-.144.54-.4,1.313h4.854a14.934,14.934,0,0,1-2.673,7.355,10.473,10.473,0,0,1-4.423,3.1l-.615-.752a9.7,9.7,0,0,0,4.484-3.315,12.582,12.582,0,0,0,1.969-5.462Zm9.235,8.148a8.486,8.486,0,0,0,3.568-2.215,10.113,10.113,0,0,0,2.167-3.3l.8.766a10.86,10.86,0,0,1-2.98,3.958,12.718,12.718,0,0,1-3.992,2.146l-.643-.458V23.3h1.08ZM133.034,22.42l.718-.28a14.09,14.09,0,0,1,1.032,2.365l-.752.314A12.262,12.262,0,0,0,133.034,22.42Zm-6.815,4.847.479-.841a28.874,28.874,0,0,1,3.288,1.429l-.52.937A19.993,19.993,0,0,0,126.219,27.267Zm1.258-2.994.52-.827a20.246,20.246,0,0,1,3.192,1.524l-.561.923A17.538,17.538,0,0,0,127.477,24.272Zm7.2-2.27.7-.253a11.566,11.566,0,0,1,1,2.3l-.731.294A13.487,13.487,0,0,0,134.675,22Zm.137,3.192.971.547a14.6,14.6,0,0,1-1.148,3.151,9.741,9.741,0,0,1-1.47,2.235,10.073,10.073,0,0,1-5.558,2.994l-.574-.882a9.086,9.086,0,0,0,5.318-2.8A11.559,11.559,0,0,0,134.812,25.2Zm2.639,1.217.9-.39a19.128,19.128,0,0,1,1.162,3.049l-.923.362A17.081,17.081,0,0,0,137.45,26.412Zm2.646-.6.882-.362A18.023,18.023,0,0,1,142,28.442l-.916.39A14.235,14.235,0,0,0,140.1,25.811ZM139,34a7.1,7.1,0,0,0,3.753-3.083,11.7,11.7,0,0,0,1.217-5.161l1.025.219a13.289,13.289,0,0,1-1.4,5.462,6.607,6.607,0,0,1-1.675,1.955,10.213,10.213,0,0,1-2.317,1.319Zm10.521-6.091v6.651h-1.08V22.816h1.08v4.061a21.8,21.8,0,0,1,5.332,2.222l-.533,1.012A17.7,17.7,0,0,0,149.522,27.909Zm11.225-2.563h4.074a56.3,56.3,0,0,1-.28,7.062,2.187,2.187,0,0,1-.8,1.634,5.824,5.824,0,0,1-2.406.308l-.328-1.032q.588.027.772.027a2.943,2.943,0,0,0,1.2-.157.7.7,0,0,0,.342-.335,3.539,3.539,0,0,0,.178-.813,47.629,47.629,0,0,0,.239-5.749H160.7a13.241,13.241,0,0,1-1.094,5.141,7.906,7.906,0,0,1-2.687,3.035l-.711-.718a6.978,6.978,0,0,0,2.7-3.322,12.846,12.846,0,0,0,.731-4.136h-3.124v-.943h3.151q.014-.7.014-2.516h1.094Q160.774,23.917,160.747,25.346Zm5.817,2.912h7.615V29.3h-7.615Zm11.908-.349v6.651h-1.08V22.816h1.08v4.061A21.8,21.8,0,0,1,183.8,29.1l-.533,1.012A17.7,17.7,0,0,0,178.473,27.909Zm2.714-5.387.711-.28a17.467,17.467,0,0,1,1.039,2.365l-.759.308A14.486,14.486,0,0,0,181.187,22.522Zm1.593-.479.7-.253a11.327,11.327,0,0,1,.991,2.3l-.725.294A13.116,13.116,0,0,0,182.779,22.044Zm15.278,7.369q0,.109-.116.109l-1.969-.027H193.45a7.7,7.7,0,0,0,1.9,2.878,9.869,9.869,0,0,0,2.68,1.839,1.83,1.83,0,0,0-.424.561q-.123.212-.178.212a.678.678,0,0,1-.226-.109,9.26,9.26,0,0,1-4.3-4.915,7.554,7.554,0,0,1-3.876,4.983.552.552,0,0,1-.212.082q-.062,0-.212-.2a1.768,1.768,0,0,0-.458-.444,8.55,8.55,0,0,0,2.769-2.105,6.622,6.622,0,0,0,1.2-2.434l.082-.349h-1.258l-1.989.027a.1.1,0,0,1-.109-.109v-.581q0-.123.109-.123l1.989.027h1.4a27.343,27.343,0,0,0,.185-2.885h-.984l-1.8.027a.1.1,0,0,1-.109-.109v-.608a.1.1,0,0,1,.109-.109l1.8.027h1V23.972a9.736,9.736,0,0,0-.1-1.565,8.167,8.167,0,0,1,.923.082q.185.041.185.144a1.25,1.25,0,0,1-.082.28,3.187,3.187,0,0,0-.089.978v1.189h1.36l1.853-.027a.1.1,0,0,1,.109.109l-.027,1.224v2.352l1.271-.027q.116,0,.116.123Zm-2.215-.677V25.852h-2.481a25.042,25.042,0,0,1-.205,2.885Zm-7.4,2.1q-.554,1.538-1.347,3.261a4.509,4.509,0,0,0-.253.615q-.048.171-.137.171a.432.432,0,0,1-.212-.082,6.2,6.2,0,0,1-.643-.479,5.858,5.858,0,0,0,.745-1.148,30.621,30.621,0,0,0,1.271-3.192,2.425,2.425,0,0,0,.438.424q.191.144.191.226A.845.845,0,0,1,188.439,30.835Zm.492-6.562a.149.149,0,0,1,.055.089.315.315,0,0,1-.082.144l-.314.4q-.089.116-.13.116a.11.11,0,0,1-.075-.048,10.593,10.593,0,0,0-1.887-1.627q-.075-.048-.075-.082a.284.284,0,0,1,.082-.137l.294-.335q.1-.1.137-.1a.168.168,0,0,1,.075.027A10.085,10.085,0,0,1,188.932,24.272Zm-.786,3.4a.137.137,0,0,1,.041.075.423.423,0,0,1-.082.164l-.294.39q-.082.109-.123.109a.168.168,0,0,1-.1-.062,9.534,9.534,0,0,0-1.887-1.531q-.068-.034-.068-.068a.389.389,0,0,1,.1-.15l.267-.342q.075-.089.116-.089a.183.183,0,0,1,.089.034A10.079,10.079,0,0,1,188.146,27.67Zm24.09.321a2.034,2.034,0,0,0-.321.547q-.1.226-.191.226a1.293,1.293,0,0,1-.191-.027q-.813-.164-1.271-.28v4.635l.027,1.7q0,.116-.109.116h-.649q-.109,0-.109-.116l.027-1.7V32.024h-4.717l-.041.137a5.06,5.06,0,0,1-1.75,2.625.578.578,0,0,1-.2.109q-.068,0-.212-.144a1.808,1.808,0,0,0-.533-.376,4.2,4.2,0,0,0,1.921-2.488,8.507,8.507,0,0,0,.294-1.5q.062-.656.068-1.941-.4.1-1.176.232a1.412,1.412,0,0,1-.171.021q-.116,0-.205-.232a1.485,1.485,0,0,0-.308-.5,13.06,13.06,0,0,0,4.088-1.094,6.943,6.943,0,0,1-2.03-2.1q-.588.007-1.032.021l-.226.007h-.075q-.123,0-.123-.109v-.547q0-.109.123-.109l1.962.027h1.641V23.63a6.048,6.048,0,0,0-.1-1.278q.479.021.93.082.164.027.164.116a.905.905,0,0,1-.082.267,2.676,2.676,0,0,0-.068.779v.465h2.167l1.976-.027a.1.1,0,0,1,.109.109v.547a.1.1,0,0,1-.109.109l-1.777-.027a7.1,7.1,0,0,1-1.935,2.071A15.426,15.426,0,0,0,212.235,27.991Zm-2.789,3.322V29.864h-4.4a9.607,9.607,0,0,1-.171,1.449Zm0-2.146V28.23a10.4,10.4,0,0,1-2.187-.9,10.469,10.469,0,0,1-2.167.9q0,.656-.014.937Zm-.437-4.4h-3.637a5.891,5.891,0,0,0,1.9,1.682A5.485,5.485,0,0,0,209.009,24.771Zm-6.6,6.036a34.78,34.78,0,0,1-1.456,3.22,2.941,2.941,0,0,0-.28.615q-.021.144-.137.144a.367.367,0,0,1-.2-.082q-.321-.226-.643-.492a5.507,5.507,0,0,0,.759-1.121,24.812,24.812,0,0,0,1.381-3.138,3.271,3.271,0,0,0,.438.424q.2.15.2.226A.769.769,0,0,1,202.405,30.808Zm.321-6.535a.146.146,0,0,1,.062.1.328.328,0,0,1-.089.157l-.294.362q-.082.109-.13.109a.114.114,0,0,1-.075-.041,10.414,10.414,0,0,0-1.88-1.613q-.062-.041-.062-.075t.1-.144l.28-.321q.1-.116.15-.116a.168.168,0,0,1,.075.027A10.416,10.416,0,0,1,202.727,24.272Zm-.684,3.384a.131.131,0,0,1,.048.082q0,.041-.089.144l-.294.376q-.1.123-.144.123-.027,0-.082-.055a10.127,10.127,0,0,0-1.873-1.511q-.062-.034-.062-.068a.339.339,0,0,1,.089-.15l.267-.355q.068-.089.116-.089a.221.221,0,0,1,.089.034A9.829,9.829,0,0,1,202.043,27.656Zm15.094-1.217a41.522,41.522,0,0,1-2.646,7.841l-.923-.362a37.253,37.253,0,0,0,2.563-7.41q-.848.062-2.577.226l-.055-.882q.513-.034,1.518-.1l1.313-.089q.26-1.183.533-2.782l.991.137q-.308,1.6-.533,2.591.786-.055,1.429-.055a1.428,1.428,0,0,1,1.278.567,3.662,3.662,0,0,1,.4,1.982,19.506,19.506,0,0,1-.437,4.97,1.777,1.777,0,0,1-.636,1,1.828,1.828,0,0,1-1.073.28,9.249,9.249,0,0,1-1.422-.109l-.171-.978a6.216,6.216,0,0,0,1.244.164,1.47,1.47,0,0,0,.745-.144.9.9,0,0,0,.335-.485,16.429,16.429,0,0,0,.444-4.566,3.52,3.52,0,0,0-.219-1.538.713.713,0,0,0-.677-.321Q217.923,26.385,217.137,26.439Zm4.108-3.992.711-.28A19.251,19.251,0,0,1,223,24.539l-.759.308A14.765,14.765,0,0,0,221.245,22.447Zm1.5-.472.7-.253a11.327,11.327,0,0,1,.991,2.3l-.725.294A13.487,13.487,0,0,0,222.742,21.976Zm-2.311,2.844.882-.451A16.879,16.879,0,0,1,223.72,29.2l-.978.458A14.513,14.513,0,0,0,220.432,24.819Zm17.145,7.711a2.247,2.247,0,0,1-.588,1.668,2.2,2.2,0,0,1-.882.349,11.592,11.592,0,0,1-2.974,0,1.047,1.047,0,0,1-.608-.294,1.184,1.184,0,0,1-.232-.54,5.733,5.733,0,0,1-.048-.875V29.454h-1.962a5.622,5.622,0,0,1-1.107,3.521,6.227,6.227,0,0,1-2.994,1.88q-.2.055-.212.055-.075,0-.191-.226a2.162,2.162,0,0,0-.451-.5,6.286,6.286,0,0,0,3.124-1.654,4.846,4.846,0,0,0,.95-3.076h-1.75l-1.894.027q-.109,0-.109-.123v-.595a.1.1,0,0,1,.109-.109l1.894.027h7.629l1.894-.027a.1.1,0,0,1,.109.109v.595q0,.123-.109.123l-1.894-.027h-2.167V32.64a1.936,1.936,0,0,0,.137.964q.164.212,1.641.212a2.946,2.946,0,0,0,1.47-.239.865.865,0,0,0,.328-.574,6.824,6.824,0,0,0,.089-1.06,1.775,1.775,0,0,0,.561.28.779.779,0,0,1,.205.075.154.154,0,0,1,.041.123Q237.583,32.455,237.576,32.53Zm-.52-5.694q0,.109-.116.109H236.3a.1.1,0,0,1-.109-.109V24.778H226.7v2.058q0,.109-.116.109h-.643a.1.1,0,0,1-.109-.109l.027-1.5v-.465l-.027-.772a.1.1,0,0,1,.109-.109l1.935.027h3.049v-.2a7.318,7.318,0,0,0-.1-1.442q.513.027.909.089.171.021.171.109a.9.9,0,0,1-.089.253,4.826,4.826,0,0,0-.055.991v.2h3.247l1.928-.027q.116,0,.116.109l-.027.677v.561Zm-2.126.171q0,.109-.1.109l-1.818-.027h-3.138l-1.818.027a.1.1,0,0,1-.109-.109v-.581q0-.123.109-.123l1.818.027h3.138l1.818-.027q.1,0,.1.123Zm16.017-3.124a.23.23,0,0,1-.157.232,2.483,2.483,0,0,0-.479.321,25.942,25.942,0,0,1-4.129,2.98v3.938l.027,1.764a1.871,1.871,0,0,1-.137.8,1.346,1.346,0,0,1-.308.376,1.752,1.752,0,0,1-1,.335q-.4.041-1.5.041a.507.507,0,0,1-.267-.041.874.874,0,0,1-.089-.253,1.693,1.693,0,0,0-.294-.684q.67.068,1.894.068.772,0,.772-.854v-4.45a10.971,10.971,0,0,0-.13-2q.157.027.827.1a22.235,22.235,0,0,0,3.445-2.488H242.5l-1.935.027q-.109,0-.109-.123V23.3a.1.1,0,0,1,.109-.109l1.935.027h7.164a.969.969,0,0,0,.383-.055.322.322,0,0,1,.137-.041q.123,0,.417.294Q250.947,23.753,250.947,23.883Zm3.336-.916h1.046q-.239,7.191-.239,8.668a2.135,2.135,0,0,0,.458,1.579,2.222,2.222,0,0,0,1.545.424,3.218,3.218,0,0,0,2.44-.943,5.471,5.471,0,0,0,1.217-2.673l.95.479q-.93,4.074-4.58,4.074a3.2,3.2,0,0,1-2.4-.718,3.1,3.1,0,0,1-.608-2.153q0-.766.062-3.753Q254.256,24.334,254.283,22.967Zm13.043,1.627q-.027-1.176-.027-1.853h1v1.812q1.7-.062,3.37-.267v.868q-1.531.185-3.356.253l.041,2.01q1.935-.089,3.247-.26v.868q-1.538.171-3.233.232.014.335.062,1.449.027.745.048,1.2a10.066,10.066,0,0,1,3.726,2.372l-.7.861a9.516,9.516,0,0,0-3.015-2.249v.15a2.184,2.184,0,0,1-2.475,2.468,3.271,3.271,0,0,1-2.017-.5,1.7,1.7,0,0,1-.6-1.436,1.679,1.679,0,0,1,.8-1.449,3.138,3.138,0,0,1,1.832-.5,8.4,8.4,0,0,1,1.47.1q-.048-.848-.1-2.427-1.825.048-3.644,0v-.848q1.7.055,3.63.014-.027-.383-.034-1.087-.014-.663-.027-.943-2.105.041-3.794-.027v-.841Q265.221,24.642,267.326,24.594Zm.171,7.055a5.407,5.407,0,0,0-1.374-.185q-1.832,0-1.832,1.107,0,1.066,1.654,1.066,1.552,0,1.552-1.866ZM280.014,25.5q-.041,1.518,0,3.035a5.324,5.324,0,0,1,.308,1.777,3.687,3.687,0,0,1-1.306,3.069,7.744,7.744,0,0,1-3.274,1.271l-.588-.841a6.334,6.334,0,0,0,3.411-1.381,2.741,2.741,0,0,0,.807-1.88,1.856,1.856,0,0,1-1.8.882,2.2,2.2,0,0,1-1.531-.574,2.3,2.3,0,0,1,.123-3.356,2.469,2.469,0,0,1,1.559-.492,2,2,0,0,1,1.36.39q-.027-1.312-.027-1.873-2.249.034-5.435.239l-.014-.9q2.584-.1,5.435-.171V22.8l1,.014q0,.629-.027,1.859,2.324-.027,3.363-.027v.9Q281.7,25.5,280.014,25.5Zm-2.338,2.3a1.322,1.322,0,0,0-.984.4,1.413,1.413,0,0,0-.39,1.046,1.237,1.237,0,0,0,.444,1,1.288,1.288,0,0,0,.848.294,1.405,1.405,0,0,0,1.1-.41,1.3,1.3,0,0,0,.314-.916Q279.009,27.8,277.676,27.8ZM287,31.327a1.915,1.915,0,0,1,1.463.643,1.916,1.916,0,0,1-.144,2.748,1.936,1.936,0,0,1-1.319.5,1.9,1.9,0,0,1-1.463-.643,1.916,1.916,0,0,1,.144-2.748A1.936,1.936,0,0,1,287,31.327Zm0,.7a1.269,1.269,0,0,0-1.251,1.251,1.253,1.253,0,0,0,2.181.834,1.247,1.247,0,0,0-.93-2.085Z"
										transform="translate(44 9834)" fill="#595757" />
								</g>
							</svg>