<svg xmlns="http://www.w3.org/2000/svg" width="264.195" height="30.455"
								viewBox="0 0 264.195 30.455">
								<path id="Контур_1734" data-name="Контур 1734"
									d="M5.236.164A4.327,4.327,0,0,1,1.894-1.21,5.1,5.1,0,0,1,.643-4.785,5.384,5.384,0,0,1,1.921-8.559,4.478,4.478,0,0,1,5.4-9.967,4.209,4.209,0,0,1,8.668-8.6,5.106,5.106,0,0,1,9.912-5.024,5.417,5.417,0,0,1,8.641-1.23,3.773,3.773,0,0,1,8-.656l2.755,1.976H8.668L6.822-.062A5.314,5.314,0,0,1,5.236.164Zm.082-9.092A3.16,3.16,0,0,0,2.81-7.813a4.314,4.314,0,0,0-.964,2.926,4.384,4.384,0,0,0,.937,2.919,3.08,3.08,0,0,0,2.454,1.1A3.218,3.218,0,0,0,7.779-1.921a4.3,4.3,0,0,0,.93-2.946,4.479,4.479,0,0,0-.9-3A3.094,3.094,0,0,0,5.318-8.928ZM12.079.15a.726.726,0,0,1-.537-.226.742.742,0,0,1-.222-.54.754.754,0,0,1,.222-.543.72.72,0,0,1,.537-.229.739.739,0,0,1,.547.229.748.748,0,0,1,.226.543.737.737,0,0,1-.226.54A.745.745,0,0,1,12.079.15Zm14.67-.1a2.088,2.088,0,0,0-.41.629q-.089.239-.205.239a.722.722,0,0,1-.2-.041,12.748,12.748,0,0,1-5.387-2.7,12.863,12.863,0,0,1-5.182,2.7.95.95,0,0,1-.226.041q-.1,0-.212-.226a1.538,1.538,0,0,0-.39-.513,12.216,12.216,0,0,0,5.387-2.618A13.315,13.315,0,0,1,18.095-5.25a.262.262,0,0,1-.021-.082q0-.055.15-.13l.431-.205a.33.33,0,0,1,.109-.041q.041,0,.075.068a10.466,10.466,0,0,0,1.7,2.6,9.268,9.268,0,0,0,1.114-1.572,6.037,6.037,0,0,0,.547-1.2q.4.15.827.362.171.1.171.2t-.171.239a2.81,2.81,0,0,0-.5.656A14.193,14.193,0,0,1,21.15-2.434,12.582,12.582,0,0,0,26.749.055Zm-.185-9.037a.1.1,0,0,1-.109.109L24.609-8.9H16.6l-1.846.027q-.116,0-.116-.109v-.636q0-.109.116-.109L16.6-9.7H20.07v-.39a6.931,6.931,0,0,0-.1-1.415q.581.021.93.068.171.027.171.109a.864.864,0,0,1-.082.253,4.644,4.644,0,0,0-.055.984v.39h3.671l1.846-.027a.1.1,0,0,1,.109.109ZM18.84-7.711q0,.068-.137.164a1.959,1.959,0,0,0-.424.431,12.368,12.368,0,0,1-2.714,2.44.837.837,0,0,1-.212.1q-.055,0-.185-.171a1.622,1.622,0,0,0-.458-.444A10.106,10.106,0,0,0,17.548-7.6a2.308,2.308,0,0,0,.4-.718,4.207,4.207,0,0,1,.738.4Q18.84-7.82,18.84-7.711ZM26.5-5.448a1.811,1.811,0,0,0-.451.52q-.116.2-.178.2a.544.544,0,0,1-.226-.082A10.779,10.779,0,0,1,22.3-7.772a.166.166,0,0,1-.041-.082q0-.055.137-.137l.335-.212a.4.4,0,0,1,.15-.062.148.148,0,0,1,.1.062A9.47,9.47,0,0,0,26.5-5.448ZM39.99-8.36l-.027,1.791v2.242l.014,2.058a1.082,1.082,0,0,1-.308.9,2.635,2.635,0,0,1-1.374.267.523.523,0,0,1-.253-.034.448.448,0,0,1-.082-.205,1.3,1.3,0,0,0-.253-.574q.417.041.978.041a.441.441,0,0,0,.492-.506V-3.657H36.518V-3l.027,1.682q0,.109-.1.109h-.608a.1.1,0,0,1-.109-.109L35.759-3v-.656H33.346v.8l.027,1.7a.1.1,0,0,1-.109.109h-.608a.1.1,0,0,1-.109-.109l.027-1.682V-6.651L32.546-8.36a.1.1,0,0,1,.109-.109l1.887.027h1.326a11.687,11.687,0,0,0-1.586-1.094q-.075-.041-.075-.082t.116-.144l.28-.219a.205.205,0,0,1,.123-.075.273.273,0,0,1,.109.041,15.65,15.65,0,0,1,1.511,1.107,22.415,22.415,0,0,0,1.962-1.511H34.3l-1.832.027q-.116,0-.116-.109v-.533q0-.123.116-.123l1.832.027h4.143a.981.981,0,0,0,.335-.041.42.42,0,0,1,.164-.055q.116,0,.4.28t.294.431q0,.137-.185.2a1.654,1.654,0,0,0-.492.308,24.753,24.753,0,0,1-2.1,1.552l.027.014h1.107l1.894-.027A.1.1,0,0,1,39.99-8.36Zm-.813,4.047V-5.729H36.518v1.415Zm0-2.058V-7.786H36.518v1.415Zm-3.418,0V-7.786H33.346v1.415Zm0,2.058V-5.729H33.346v1.415ZM41.18-.479A1.649,1.649,0,0,0,40.92.2a.5.5,0,0,1-.082.253.652.652,0,0,1-.246.034Q37.946.67,35.5.67A8.482,8.482,0,0,1,32.067.205a2.68,2.68,0,0,1-1.347-1.367Q30.194-.588,29.326.2A1.057,1.057,0,0,0,29.06.52.18.18,0,0,1,28.9.629.236.236,0,0,1,28.738.52a4.179,4.179,0,0,1-.451-.786,4.247,4.247,0,0,0,.868-.52,8.445,8.445,0,0,0,1.189-1.1V-5.359h-.95l-.923.027q-.116,0-.116-.13v-.615q0-.1.116-.1l.923.027h.711l.957-.027q.109,0,.109.1l-.027,1.333v2.871a2.637,2.637,0,0,0,.52.854,2.3,2.3,0,0,0,.711.485,7.179,7.179,0,0,0,2.8.376A55.834,55.834,0,0,0,41.18-.479Zm-10.1-8.565a.232.232,0,0,1,.034.082q0,.048-.137.144l-.335.253a.406.406,0,0,1-.185.1q-.041,0-.082-.068a9.866,9.866,0,0,0-1.545-2.03q-.048-.048-.048-.068,0-.041.137-.13l.335-.226a.318.318,0,0,1,.137-.062.168.168,0,0,1,.1.062A10.739,10.739,0,0,1,31.076-9.044ZM54.667-7.868l-.041.4a5.217,5.217,0,0,1-.253,1.128.861.861,0,0,1-.39.458,1.375,1.375,0,0,1-.588.1q-.157,0-.561-.027-.014.191-.014,1.176v2.126l.027,1.36q0,.109-.116.109l-1.941-.027H46.662L44.7-1.039a.1.1,0,0,1-.109-.109l.027-1.36V-5.476a11.142,11.142,0,0,1-1.531.492.877.877,0,0,1-.2.041q-.1,0-.205-.226a1.174,1.174,0,0,0-.308-.4,9.2,9.2,0,0,0,2.591-.752A3.2,3.2,0,0,0,46.225-7.4H44.153L44-7.055q-.068.15-.171.15a.691.691,0,0,1-.109-.014L43.4-6.973q-.171-.034-.171-.1a.369.369,0,0,1,.027-.109,8.609,8.609,0,0,0,.52-1.306,4.728,4.728,0,0,0,.171-.738q0-.144.123-.144l1.976.027h.793a7.775,7.775,0,0,0,.062-.841H45.5l-1.962.027q-.109,0-.109-.1v-.41a.1.1,0,0,1,.109-.109l1.962.027h1.415v-.109a3.087,3.087,0,0,0-.089-.786q.526.021.759.055.2.027.2.144a1.179,1.179,0,0,1-.075.191,1.452,1.452,0,0,0-.055.506H49.82a3.682,3.682,0,0,0-.1-.909q.383.014.786.055.185.021.185.13a.687.687,0,0,1-.089.205,1.512,1.512,0,0,0-.055.52h.8l2.126-.027a.1.1,0,0,1,.116.116l-.034.7v.376l.034.7q0,.109-.116.109l-2.126-.027h-.8v.827h2.03l1.976-.027q.116,0,.116.089A.112.112,0,0,1,54.667-7.868Zm-.854.465H50.552l.027.923a.1.1,0,0,1-.109.109h-.561A.1.1,0,0,1,49.8-6.48l.007-.287q.007-.294.014-.636H47.038A3.79,3.79,0,0,1,45.78-6.077h5.011l1.764-.014a1.6,1.6,0,0,0-.144-.458,5.891,5.891,0,0,0,.868.068.62.62,0,0,0,.314-.055.4.4,0,0,0,.109-.212A2.992,2.992,0,0,0,53.813-7.4ZM52.021-1.682v-.937h-6.61v.937Zm0-1.5v-.868h-6.61v.868Zm0-1.429v-.854h-6.61v.854Zm-2.2-3.356v-.827H47.5a4.163,4.163,0,0,1-.212.827Zm2.974-1.374v-.841H50.552v.841Zm-2.974,0v-.841H47.64q0,.308-.055.841Zm-3.049.547H44.6q-.089.349-.239.827h2.153A4.311,4.311,0,0,0,46.771-8.791Zm.39,8.374q0,.1-.157.123a2.01,2.01,0,0,0-.444.2A11.127,11.127,0,0,1,43.271,1a1.135,1.135,0,0,1-.205.034q-.1,0-.205-.185a1.38,1.38,0,0,0-.376-.492A10.912,10.912,0,0,0,45.76-.547a2.181,2.181,0,0,0,.52-.362,6.145,6.145,0,0,1,.738.335Q47.161-.492,47.161-.417ZM54.6.294a2.451,2.451,0,0,0-.4.52q-.1.178-.205.178a1.911,1.911,0,0,1-.2-.027A10.4,10.4,0,0,1,50.128-.431q-.062-.041-.062-.075,0-.055.15-.137l.4-.212a.4.4,0,0,1,.15-.062.183.183,0,0,1,.089.034A9.24,9.24,0,0,0,54.6.294Zm9.1-9.311a3.553,3.553,0,0,1,.362-.014,2.4,2.4,0,0,1,2.023.93,2.83,2.83,0,0,1,.554,1.771,2.543,2.543,0,0,1-.978,2.194,3.92,3.92,0,0,1-2.358.622q-.349,0-.882-.027l-.15-.95q.759.055,1.148.055,2.181,0,2.181-1.853a1.982,1.982,0,0,0-.567-1.538,1.546,1.546,0,0,0-1.066-.39,14.2,14.2,0,0,0-4.074.95Q60.9-3.473,61.749.465l-1,.205q-.813-3.931-1.791-7.615-.82.28-2.146.786l-.349-.868q1.914-.649,2.256-.759-.267-.978-.827-2.939l.964-.253.438,1.559q.226.793.376,1.326a23.04,23.04,0,0,1,2.98-.827,19.409,19.409,0,0,0-1.019-2.058l.9-.335A20.619,20.619,0,0,1,63.7-9.017ZM80.849-.923a1.915,1.915,0,0,0-.376.54q-.1.212-.171.212a.552.552,0,0,1-.212-.082A9.61,9.61,0,0,1,76.132-3.7q.007,1.155.055,2.953.041,1.408.041,1.586a.1.1,0,0,1-.109.109h-.629q-.116,0-.116-.109,0-.246.034-1.894.034-1.62.055-2.618A9.157,9.157,0,0,1,71.723-.15a.58.58,0,0,1-.2.082q-.068,0-.2-.212a1.475,1.475,0,0,0-.4-.465,8.879,8.879,0,0,0,4.1-3.377H73.65l-1.969.027q-.116,0-.116-.123v-.533q0-.123.116-.123l1.969.027H75.4v-.417a8.219,8.219,0,0,0-.082-1.278q.431.021.868.082.171.027.171.13a1.972,1.972,0,0,1-.1.253,2.634,2.634,0,0,0-.055.711v.52h2.256l1.976-.027q.109,0,.109.123v.533q0,.123-.109.123l-1.976-.027H76.521A9.8,9.8,0,0,0,80.849-.923ZM80.22-8.846q0,.1-.116.1h-.615q-.109,0-.109-.1v-1.319H72.8v1.511q0,.13-.109.13h-.6q-.116,0-.116-.13L72-9.885v-.321l-.027-.6a.1.1,0,0,1,.109-.109l1.935.027h4.149l1.948-.027a.1.1,0,0,1,.109.109l-.027.479v.349Zm.226,1.354a1.507,1.507,0,0,1-.4.9,2.4,2.4,0,0,1-1.606.349A3.817,3.817,0,0,1,77-6.412a.938.938,0,0,1-.424-.923v-.909a7.379,7.379,0,0,0-.082-1.306,7.551,7.551,0,0,1,.827.075q.185.021.185.123a.649.649,0,0,1-.089.239,2.461,2.461,0,0,0-.055.7v.909q0,.342.13.424a2.119,2.119,0,0,0,.991.13A1.565,1.565,0,0,0,79.5-7.164a1.572,1.572,0,0,0,.239-.957,1.847,1.847,0,0,0,.492.28q.226.089.226.2A1.455,1.455,0,0,1,80.445-7.492ZM75.414-9.14a.332.332,0,0,1-.082.164,3.308,3.308,0,0,0-.2.533,3.974,3.974,0,0,1-2.646,2.687.769.769,0,0,1-.205.062q-.082,0-.2-.185a1.7,1.7,0,0,0-.417-.451A4.688,4.688,0,0,0,73.7-7.424a2.655,2.655,0,0,0,.656-1.189,3.571,3.571,0,0,0,.109-.9,5.2,5.2,0,0,1,.827.226Q75.414-9.229,75.414-9.14ZM70.937-3.1A28.064,28.064,0,0,1,69.508-.13a2.58,2.58,0,0,0-.294.6q-.021.157-.15.157a.31.31,0,0,1-.185-.082,6.532,6.532,0,0,1-.6-.506,5.617,5.617,0,0,0,.738-1.032,21.238,21.238,0,0,0,1.36-2.974,2.512,2.512,0,0,0,.431.424q.2.157.2.226A.678.678,0,0,1,70.937-3.1Zm.28-6.6a.131.131,0,0,1,.048.082.373.373,0,0,1-.089.157l-.294.362q-.089.109-.144.109a.15.15,0,0,1-.1-.055,9.976,9.976,0,0,0-1.791-1.641q-.062-.041-.062-.075t.1-.144l.267-.294q.1-.116.15-.116a.168.168,0,0,1,.075.027A12.119,12.119,0,0,1,71.217-9.7Zm-.629,3.288a.114.114,0,0,1,.041.075.348.348,0,0,1-.082.15l-.294.39q-.1.123-.15.123a.149.149,0,0,1-.089-.055,9.408,9.408,0,0,0-1.8-1.456q-.068-.041-.068-.082a.25.25,0,0,1,.082-.137l.28-.355q.075-.089.13-.089a.17.17,0,0,1,.075.021A11.1,11.1,0,0,1,70.588-6.412ZM90.87-4.689a.138.138,0,0,1,.041.082q0,.041-.1.116l-.294.232q-.109.1-.15.1t-.089-.075A8.839,8.839,0,0,0,89-5.544q-.055-.041-.055-.075t.123-.137l.239-.191a.212.212,0,0,1,.116-.068.174.174,0,0,1,.1.055A8.7,8.7,0,0,1,90.87-4.689ZM95.061.082a1.436,1.436,0,0,0-.424.588q-.1.239-.171.239a.769.769,0,0,1-.205-.062,14.274,14.274,0,0,1-4.184-2.3A13.308,13.308,0,0,1,86.263.882a.712.712,0,0,1-.205.068q-.082,0-.185-.226A1.174,1.174,0,0,0,85.524.28,12.459,12.459,0,0,0,89.455-2a10.86,10.86,0,0,1-1.969-2.714,14.589,14.589,0,0,1-1.4,1.5.456.456,0,0,1-.212.123q-.068,0-.2-.164a1.2,1.2,0,0,0-.376-.321,10.985,10.985,0,0,0,2.249-2.475,9.578,9.578,0,0,0,1.025-1.921,3.173,3.173,0,0,0,.212-.738,6.876,6.876,0,0,1,.813.232q.123.041.123.144a.2.2,0,0,1-.109.178,1.972,1.972,0,0,0-.239.383l-.212.417h3.445a.543.543,0,0,0,.212-.027.422.422,0,0,1,.157-.055q.116,0,.4.253.239.2.239.328,0,.109-.157.226a1.092,1.092,0,0,0-.232.438,14.357,14.357,0,0,1-2.584,4.17A13.841,13.841,0,0,0,95.061.082ZM92.483-6.651H88.771a14.651,14.651,0,0,1-.813,1.285A9.03,9.03,0,0,0,90.029-2.55,12.123,12.123,0,0,0,92.483-6.651Zm2.071-2.529q0,.109-.116.109L92.579-9.1H84.444L82.6-9.071q-.116,0-.116-.109v-.608q0-.109.116-.109l1.846.027h3.541v-.4a6.133,6.133,0,0,0-.1-1.292q.622.027.95.068.171.027.171.13a.905.905,0,0,1-.082.267,2.339,2.339,0,0,0-.075.766v.465h3.726L94.438-9.9q.116,0,.116.109Zm-8.285.95q0,.068-.123.164a1.348,1.348,0,0,0-.328.465q-.561.971-.868,1.415V-.9l.027,1.8q0,.116-.109.116h-.636q-.123,0-.123-.116l.027-1.8V-3.4q0-.328.027-.943.027-.649.027-.82a13.116,13.116,0,0,1-1.456,1.531.55.55,0,0,1-.212.137q-.027,0-.123-.137a1.2,1.2,0,0,0-.349-.492A11.5,11.5,0,0,0,85.1-8a3.564,3.564,0,0,0,.239-.731,5.15,5.15,0,0,1,.759.308Q86.27-8.347,86.27-8.23ZM101.7-3.514a2.634,2.634,0,0,0-.335.52q-.089.15-.144.15-.021,0-.137-.137a13.057,13.057,0,0,1-1.442-2.55q.007,2.153.062,4.614.014.574.034,1.388.014.383.014.424,0,.1-.109.1h-.649q-.109,0-.109-.1,0-.027.021-1,.068-2.926.089-5.312a18.978,18.978,0,0,1-2.1,4.2q-.1.137-.137.137-.062,0-.144-.171a1.217,1.217,0,0,0-.349-.5,16.365,16.365,0,0,0,2.461-4.464h-.533l-1.511.027q-.109,0-.109-.1v-.54q0-.116.109-.116l1.511.027h.731V-9.926a10.574,10.574,0,0,0-.1-1.7q.6.027.868.068.185.027.185.13a.775.775,0,0,1-.1.267,5.361,5.361,0,0,0-.068,1.217v3.021h.267l1.511-.027q.109,0,.109.116v.54q0,.1-.109.1l-1.511-.027h-.157A11.89,11.89,0,0,0,101.7-3.514Zm7.178.055a.158.158,0,0,1,.014.055q0,.041-.109.075-.889.144-1.654.294v1.483l.027,2.42a.1.1,0,0,1-.109.109h-.677a.1.1,0,0,1-.109-.109l.027-2.406V-2.871l-2.673.52q-.807.157-1.422.294-.4.082-.41.089a.411.411,0,0,1-.062.007q-.055,0-.068-.109l-.109-.6a.294.294,0,0,1-.007-.055q0-.055.1-.075.027-.007.232-.034.7-.1,1.613-.287l2.8-.561V-9.55a14,14,0,0,0-.1-1.914,8.416,8.416,0,0,1,.909.068q.185.027.185.123a.908.908,0,0,1-.068.253,6.658,6.658,0,0,0-.089,1.442v5.729q.943-.191,1.511-.355h.041q.068,0,.089.116Zm-3.958-2.085a.174.174,0,0,1,.055.1q0,.034-.1.13l-.314.335q-.116.123-.157.123t-.075-.055a11.166,11.166,0,0,0-1.948-1.777q-.062-.034-.062-.075t.1-.144l.294-.28q.082-.082.123-.082a.2.2,0,0,1,.089.041A10.693,10.693,0,0,1,104.918-5.544Zm.349-3.117q.055.055.055.082t-.082.123l-.321.335a.665.665,0,0,1-.157.137q-.027,0-.068-.062a9.089,9.089,0,0,0-1.921-1.75q-.055-.041-.055-.068,0-.048.116-.157l.294-.294q.075-.082.109-.082a.166.166,0,0,1,.082.041A9.736,9.736,0,0,1,105.267-8.661Zm-3.322-1.572a.261.261,0,0,1-.1.157.861.861,0,0,0-.185.308,19.32,19.32,0,0,1-.725,1.846q-.082.185-.157.185a.4.4,0,0,1-.178-.082,1.555,1.555,0,0,0-.376-.157,10.545,10.545,0,0,0,.766-2.112,2,2,0,0,0,.089-.547,4.191,4.191,0,0,1,.711.253Q101.944-10.309,101.944-10.233ZM98.294-8.06A.294.294,0,0,1,98.3-8q0,.048-.178.123l-.321.13a.62.62,0,0,1-.157.048q-.041,0-.062-.089a11.033,11.033,0,0,0-.786-2.386.132.132,0,0,1-.027-.062q0-.048.137-.1l.321-.144a.49.49,0,0,1,.144-.048q.034,0,.068.075A12.458,12.458,0,0,1,98.294-8.06ZM122.247.349q0,.109-.116.109L120.244.431h-7.588l-1.894.027a.1.1,0,0,1-.109-.109V-.26a.1.1,0,0,1,.109-.109l1.894.027h3.261V-4h-2.789l-1.928.027q-.116,0-.116-.109v-.595q0-.109.116-.109l1.928.027h2.789v-1.75h-.854l-1.75.014q-.109,0-.109-.1v-.588a.1.1,0,0,1,.109-.109l1.75.027h2.755l1.771-.027a.1.1,0,0,1,.109.109V-6.6q0,.1-.109.1l-1.771-.014h-1.032v1.75h3.035l1.935-.027a.1.1,0,0,1,.109.109v.595a.182.182,0,0,1-.014.1.182.182,0,0,1-.1.014L119.82-4h-3.035V-.342h3.459l1.887-.027q.116,0,.116.109ZM123.115-7a1.6,1.6,0,0,0-.41.547q-.116.212-.185.212a1.127,1.127,0,0,1-.219-.068,13.179,13.179,0,0,1-5.913-4.3,14.409,14.409,0,0,1-5.708,4.437.7.7,0,0,1-.2.062q-.068,0-.191-.191a1.314,1.314,0,0,0-.451-.431,13.147,13.147,0,0,0,5.77-4.286,3.041,3.041,0,0,0,.4-.779,4.172,4.172,0,0,1,.9.191q.2.068.2.185,0,.068-.1.123a.379.379,0,0,0-.13.089,11.238,11.238,0,0,0,3.049,2.769A15.984,15.984,0,0,0,123.115-7Zm-2.762,3.992q0,.068-.137.178a1.049,1.049,0,0,0-.226.342,13.26,13.26,0,0,1-1,1.675q-.116.144-.164.144a.433.433,0,0,1-.2-.1,1.184,1.184,0,0,0-.472-.226,9.909,9.909,0,0,0,1.1-1.88,3.2,3.2,0,0,0,.212-.615,4.029,4.029,0,0,1,.711.294Q120.354-3.09,120.354-3.008ZM114.42-1.36a.268.268,0,0,1,.021.089q0,.062-.137.123l-.431.212a.832.832,0,0,1-.185.075q-.041,0-.068-.089a8.837,8.837,0,0,0-1-2,.133.133,0,0,1-.027-.068q0-.048.157-.13l.376-.164a.631.631,0,0,1,.157-.062q.048,0,.1.075A9.841,9.841,0,0,1,114.42-1.36Zm15.552-3.021v2.769h-.937V-3.951q-.321.164-.663.355-1.791,1.012-1.791,2.03a.927.927,0,0,0,.629.943,6.4,6.4,0,0,0,2.078.232q1.47,0,3.411-.171l.041.95q-2.55.13-3.384.13A5.879,5.879,0,0,1,126.39.007a1.772,1.772,0,0,1-.7-1.6,3.066,3.066,0,0,1,1.88-2.55q.711-.4,1.456-.772-.068-1.312-.909-1.312-1.176,0-3.227,2.365l-.725-.643a16.348,16.348,0,0,0,2.9-4.136q-1.278.021-2.563,0V-9.5q1.477.027,2.953,0a12.51,12.51,0,0,0,.629-1.873l1.012.185a14.378,14.378,0,0,1-.588,1.647q1.969-.062,3.739-.239l.027.854q-2.3.185-4.143.239a14.3,14.3,0,0,1-1.176,1.989l-.355.362.041.055a2.492,2.492,0,0,1,1.668-.711,1.521,1.521,0,0,1,1.114.424,1.982,1.982,0,0,1,.526,1.217q1.094-.5,2.844-1.237l.39.957Q130.9-4.792,129.972-4.382Zm7.6-4.525V-11.17h.964v2.208q1.511-.1,2.591-.219v.909q-1.224.123-2.591.205v2.707a8.692,8.692,0,0,1,2.646-.479,2.9,2.9,0,0,1,2.577,1.169,3.273,3.273,0,0,1,.533,1.894,2.654,2.654,0,0,1-1.3,2.591,6.067,6.067,0,0,1-2.707.465v-.9a3.954,3.954,0,0,0,2.167-.444,2.048,2.048,0,0,0,.772-1.825,2.11,2.11,0,0,0-.6-1.524,1.724,1.724,0,0,0-1.285-.561,7.651,7.651,0,0,0-2.8.533V-.827a1.437,1.437,0,0,1-.273,1,1.054,1.054,0,0,1-.786.26,2.259,2.259,0,0,1-1.189-.376,2.427,2.427,0,0,1-1.347-2.03q0-1.736,2.632-3.049v-3q-.813.048-2.434.075v-.9Q136.452-8.846,137.573-8.907Zm0,4.9a5.118,5.118,0,0,0-1.306,1.019,1.511,1.511,0,0,0-.39.984,1.078,1.078,0,0,0,.335.759,1.888,1.888,0,0,0,.69.458.9.9,0,0,0,.39.1q.28,0,.28-.465Zm3.9-5.64.6-.731a12.831,12.831,0,0,1,2.816,2.229l-.684.772A11,11,0,0,0,141.477-9.646Zm17.295,6.009a2.1,2.1,0,0,0-.362.595q-.089.212-.171.212a1.477,1.477,0,0,1-.191-.027,21.158,21.158,0,0,1-5.6-1.887,14.8,14.8,0,0,1-3.514,1.511q.28.027,1.8.027h3.3l1.866-.027q.109,0,.109.1l-.027,1.08V-.882l.027,1.8q0,.1-.109.1h-.636q-.109,0-.109-.1V.335h-5.53V.9q0,.1-.109.1h-.636q-.109,0-.109-.1L148.8-.882V-1.935l-.027-1.2v-.041q-.807.246-1.948.513a1.079,1.079,0,0,1-.205.041q-.089,0-.185-.205a1.49,1.49,0,0,0-.349-.513A19.32,19.32,0,0,0,151.7-5.182a10.515,10.515,0,0,1-1.887-1.511A12.489,12.489,0,0,1,147.6-5.2a1.187,1.187,0,0,1-.226.1q-.041,0-.15-.157a1.274,1.274,0,0,0-.424-.417,10.162,10.162,0,0,0,3.821-2.926,3.067,3.067,0,0,0,.369-.643,5.962,5.962,0,0,1,.731.232q.123.068.123.144t-.144.185a1.612,1.612,0,0,0-.294.308q-.185.239-.308.376h3.473a.783.783,0,0,0,.335-.055.317.317,0,0,1,.13-.041q.109,0,.39.28.239.253.239.376a.206.206,0,0,1-.144.2,1.379,1.379,0,0,0-.417.321,15.542,15.542,0,0,1-1.935,1.688A20.549,20.549,0,0,0,158.771-3.637ZM155.162-.39V-2.5h-5.53V-.39Zm-.711-6.945H150.5l-.171.185a10.306,10.306,0,0,0,2.105,1.524A12.59,12.59,0,0,0,154.451-7.335Zm3.5-.137a.1.1,0,0,1-.109.109h-.636a.1.1,0,0,1-.109-.109V-9.44h-9.591v1.969a.1.1,0,0,1-.109.109h-.636a.1.1,0,0,1-.109-.109l.027-1.449v-.437l-.027-.725a.1.1,0,0,1,.109-.109l1.935.027h3.083v-.547a3.786,3.786,0,0,0-.1-.95q.41.021.923.068.171.021.171.116a.846.846,0,0,1-.082.26,1.819,1.819,0,0,0-.068.547v.506h3.288l1.935-.027a.1.1,0,0,1,.109.109l-.027.629v.533ZM172.792-.465a1.86,1.86,0,0,0-.451.479q-.089.171-.164.171a.433.433,0,0,1-.2-.1,10.65,10.65,0,0,1-2.331-2.01,8.641,8.641,0,0,1-1.278-2.112q.055,2.939.055,3.657a1.138,1.138,0,0,1-.362.991,2.854,2.854,0,0,1-1.415.239.548.548,0,0,1-.28-.041.547.547,0,0,1-.089-.239,1.56,1.56,0,0,0-.246-.588,8.256,8.256,0,0,0,.923.055.82.82,0,0,0,.554-.123.62.62,0,0,0,.1-.424V-2.112q-1.244.807-2.769,1.62a1.943,1.943,0,0,0-.506.314q-.089.109-.157.109t-.123-.123q-.144-.253-.362-.745a4.57,4.57,0,0,0,.807-.294,26.732,26.732,0,0,0,3.11-1.7V-4.97h-1.3l-1.935.027q-.1,0-.1-.109V-5.6q0-.109.1-.109l1.935.027h1.3V-6.938h-.8l-1.764.027q-.109,0-.109-.116V-7.54q0-.116.109-.116l1.764.027h.8v-1.2h-.991l-1.88.027q-.109,0-.109-.1v-.554a.1.1,0,0,1,.109-.109l1.88.027H168.7a12.2,12.2,0,0,0,.752-1.429,2.654,2.654,0,0,0,.185-.588,5.368,5.368,0,0,1,.725.212q.171.048.171.15,0,.075-.137.185a.677.677,0,0,0-.2.267,12.632,12.632,0,0,1-.7,1.2h.465l1.846-.027q.13,0,.13.109V-8.9q0,.1-.13.1l-1.846-.027H168.4v1.2h1.176l1.75-.027q.109,0,.109.116v.513q0,.116-.109.116l-1.75-.027H168.4v1.258h1.941l1.935-.027a.1.1,0,0,1,.109.109v.547a.1.1,0,0,1-.109.109l-1.935-.027h-1.8a9.615,9.615,0,0,0,1.189,2.03,11.044,11.044,0,0,0,1.121-1.053,1.977,1.977,0,0,0,.335-.485,4.885,4.885,0,0,1,.574.444.258.258,0,0,1,.116.185q0,.109-.137.15a1.1,1.1,0,0,0-.424.294,13.718,13.718,0,0,1-1.135,1A10.167,10.167,0,0,0,172.792-.465ZM164.247-8.08q0,.116-.109.116l-1.258-.027h-.089a9.323,9.323,0,0,0,1.442,3.035,1.831,1.831,0,0,0-.349.533q-.068.15-.123.15t-.13-.15a12.545,12.545,0,0,1-.964-2.673q.007,2.755.082,5.79.014.759.041,1.7.014.465.014.506a.085.085,0,0,1-.1.1h-.67q-.116,0-.116-.1s.009-.406.027-1.2q.1-3.541.116-6.6a15.75,15.75,0,0,1-1.641,4.437q-.089.157-.137.157-.075,0-.116-.137a1.211,1.211,0,0,0-.362-.547,15.308,15.308,0,0,0,2.058-5h-.308l-1.271.027a.1.1,0,0,1-.116-.116v-.547q0-.123.116-.123l1.271.027h.417v-1.2a8.8,8.8,0,0,0-.109-1.668,6.609,6.609,0,0,1,.882.089q.171.021.171.123a.676.676,0,0,1-.082.253,4.859,4.859,0,0,0-.075,1.189v1.217h.116l1.258-.027q.109,0,.109.123Zm2.146,4.819q.048.048.048.075t-.1.137l-.294.273q-.116.123-.164.123-.027,0-.068-.062a6.8,6.8,0,0,0-1.176-1.306q-.055-.041-.055-.068t.109-.137l.239-.226q.109-.1.15-.1t.068.048A6.8,6.8,0,0,1,166.394-3.261Zm.725-6.918a.168.168,0,0,1,.014.062q0,.048-.1.109l-.41.219a.441.441,0,0,1-.164.075q-.041,0-.075-.089a4.652,4.652,0,0,0-.786-1.258.112.112,0,0,1-.041-.068q0-.041.144-.116l.362-.178a.368.368,0,0,1,.123-.041.146.146,0,0,1,.1.068A6.6,6.6,0,0,1,167.118-10.179Zm10.541,6.61.957.082a5.458,5.458,0,0,0-.157,1.258,1.054,1.054,0,0,0,.444.978,3.167,3.167,0,0,0,1.545.273,25.984,25.984,0,0,0,2.769-.144l.027,1.012q-1.025.082-2.659.082a4.349,4.349,0,0,1-2.44-.492,1.783,1.783,0,0,1-.636-1.552A7.219,7.219,0,0,1,177.659-3.568Zm.28-4.676V-9.2q1.75-.137,3.541-.137.889,0,1.668.041v.95q-.725-.055-1.764-.055Q179.594-8.4,177.939-8.244Zm-1.511-2.413a36.343,36.343,0,0,0-.786,6.61,24.83,24.83,0,0,0,.342,4.382l-1,.082a28.85,28.85,0,0,1-.321-4.491,40.269,40.269,0,0,1,.772-6.665ZM196.39-5.325l-.027,1.641v1.5l.014,1.887a1.126,1.126,0,0,1-.294.923,2.175,2.175,0,0,1-1.224.253h-.164a.487.487,0,0,1-.26-.041.568.568,0,0,1-.1-.239,1.985,1.985,0,0,0-.294-.547q.492.041.95.041.41,0,.52-.137a.627.627,0,0,0,.082-.376V-1.429h-4.074V-.9L191.543.9q0,.1-.116.1h-.6q-.109,0-.109-.1l.027-1.764V-3.753l-.027-1.572a.1.1,0,0,1,.109-.109l1.654.027h2.16l1.641-.027A.1.1,0,0,1,196.39-5.325Zm-.8,1.586v-1h-4.074v1Zm0,1.654v-1h-4.074v1Zm1.962-4.245q0,.1-.1.1l-1.9-.027h-3.7l-1.9.027q-.116,0-.116-.1v-.506q0-.109.116-.109l1.9.027h1.23v-.991h-.711l-1.682.027q-.109,0-.109-.116v-.458q0-.116.109-.116l1.682.027h.711v-.937h-.937l-1.791.027a.1.1,0,0,1-.109-.109v-.492a.1.1,0,0,1,.109-.109l1.791.027h.937a9.943,9.943,0,0,0-.1-1.538,7.56,7.56,0,0,1,.9.068q.171.021.171.123a.824.824,0,0,1-.082.28,3.658,3.658,0,0,0-.089,1.066h1.265l1.8-.027a.1.1,0,0,1,.109.109v.492a.1.1,0,0,1-.109.109l-1.8-.027h-1.265v.937h.868l1.668-.027q.123,0,.123.116V-8q0,.116-.123.116l-1.668-.027h-.868v.991h1.668l1.9-.027q.1,0,.1.109ZM189.431.663q0,.109-.116.109h-.574a.1.1,0,0,1-.109-.109V.2h-2.14V.9q0,.116-.109.116h-.574A.1.1,0,0,1,185.691.9l.027-2.044V-2l-.027-1.217a.1.1,0,0,1,.109-.109l1.237.027h1.032l1.251-.027a.1.1,0,0,1,.109.109l-.027,1v.909Zm-.8-1.148V-2.618h-2.14V-.485Zm1.189-7.841q0,.123-.109.123l-1.47-.027h-1.586l-1.47.027q-.109,0-.109-.123v-.581a.1.1,0,0,1,.109-.109l1.47.027h1.586l1.47-.027a.1.1,0,0,1,.109.109Zm-.335-1.935a.1.1,0,0,1-.109.109l-1.23-.027h-1.094l-1.23.027q-.116,0-.116-.109v-.561q0-.109.116-.109l1.23.027h1.094l1.23-.027a.1.1,0,0,1,.109.109Zm-.2,3.835q0,.109-.123.109l-1.148-.027h-.937l-1.162.027q-.116,0-.116-.109v-.547q0-.109.116-.109l1.162.027h.937l1.148-.027q.123,0,.123.109Zm0,1.859q0,.116-.123.116l-1.148-.027h-.937l-1.162.027a.1.1,0,0,1-.116-.116v-.547q0-.109.116-.109l1.162.027h.937l1.148-.027q.123,0,.123.109ZM211.442-.9a1.989,1.989,0,0,0-.492.547q-.123.178-.185.178a1.037,1.037,0,0,1-.191-.1,11.336,11.336,0,0,1-5.024-6.521q.1,5.325.1,6.4a1.1,1.1,0,0,1-.492,1.06,4.483,4.483,0,0,1-1.7.226.427.427,0,0,1-.246-.041.838.838,0,0,1-.089-.239,1.774,1.774,0,0,0-.321-.643q.663.055,1.012.055a1.366,1.366,0,0,0,.772-.144.635.635,0,0,0,.178-.526V-8h-3.527l-1.853.027a.1.1,0,0,1-.109-.109v-.622a.1.1,0,0,1,.109-.109l1.853.027h3.527V-9.857a8.945,8.945,0,0,0-.1-1.675,8.641,8.641,0,0,1,.937.082q.157.021.157.109a.776.776,0,0,1-.068.294,5.593,5.593,0,0,0-.068,1.176v1.08h3.6l1.859-.027q.116,0,.116.109v.622q0,.109-.116.109L209.214-8h-3.486a13.233,13.233,0,0,0,1.4,3.165,12.642,12.642,0,0,0,1.8-1.866,2.115,2.115,0,0,0,.376-.643,3.535,3.535,0,0,1,.711.506.265.265,0,0,1,.116.2q0,.075-.157.178a2.753,2.753,0,0,0-.643.574,16.843,16.843,0,0,1-1.791,1.7A11.363,11.363,0,0,0,211.442-.9ZM204-3.5a1.274,1.274,0,0,1,.034.205q0,.1-.2.246a30.161,30.161,0,0,1-3.227,1.976,2.078,2.078,0,0,0-.485.308.323.323,0,0,1-.185.109q-.075,0-.164-.137a6.979,6.979,0,0,1-.383-.759,7.02,7.02,0,0,0,1.025-.424,25.379,25.379,0,0,0,3.527-2.1A2.793,2.793,0,0,0,204-3.5Zm-.978-1.791a.166.166,0,0,1,.041.082q0,.048-.082.13l-.369.349q-.137.13-.171.13t-.062-.055a7.6,7.6,0,0,0-1.709-1.921q-.062-.055-.062-.082t.13-.144l.308-.294a.284.284,0,0,1,.137-.082.168.168,0,0,1,.075.027A8.576,8.576,0,0,1,203.027-5.291Zm6.631-4.594a.093.093,0,0,1,.041.068q0,.062-.137.171l-.267.239q-.144.123-.191.123a.149.149,0,0,1-.089-.055,6.737,6.737,0,0,0-1.647-1.4q-.068-.048-.068-.082t.109-.144l.294-.246q.075-.068.109-.068a.266.266,0,0,1,.1.034A8.449,8.449,0,0,1,209.658-9.885ZM219.447-8.5q-.041,1.518,0,3.035a5.324,5.324,0,0,1,.308,1.777,3.687,3.687,0,0,1-1.306,3.069A7.744,7.744,0,0,1,215.175.656l-.588-.841A6.334,6.334,0,0,0,218-1.565a2.741,2.741,0,0,0,.807-1.88,1.856,1.856,0,0,1-1.8.882,2.2,2.2,0,0,1-1.531-.574,2.082,2.082,0,0,1-.67-1.62,2.07,2.07,0,0,1,.793-1.736,2.469,2.469,0,0,1,1.559-.492,2,2,0,0,1,1.36.39q-.027-1.312-.027-1.873-2.249.034-5.435.239l-.014-.9q2.584-.1,5.435-.171v-1.9l1,.014q0,.629-.027,1.859,2.324-.027,3.363-.027v.9Q221.129-8.5,219.447-8.5Zm-2.338,2.3a1.322,1.322,0,0,0-.984.4,1.413,1.413,0,0,0-.39,1.046,1.237,1.237,0,0,0,.444,1,1.288,1.288,0,0,0,.848.294,1.406,1.406,0,0,0,1.1-.41,1.3,1.3,0,0,0,.314-.916Q218.442-6.2,217.109-6.2Zm8.627-4.259q1.853-.014,5.694-.2l.588.731q-2.728,2.769-4.327,4.156l-.629.547.055.041.718-.485a4.614,4.614,0,0,1,1.976-.533,3.547,3.547,0,0,1,2.707,1,3.071,3.071,0,0,1,.807,2.208A3.316,3.316,0,0,1,232.046-.15a5.317,5.317,0,0,1-3.22.848q-2.741,0-2.741-1.859a1.625,1.625,0,0,1,.588-1.312,2.172,2.172,0,0,1,1.429-.451,2.3,2.3,0,0,1,1.777.752,3.445,3.445,0,0,1,.786,1.682,2.579,2.579,0,0,0,1.258-.978,2.922,2.922,0,0,0,.362-1.538,2.231,2.231,0,0,0-.868-1.873,2.671,2.671,0,0,0-1.668-.526,4.9,4.9,0,0,0-3.384,1.36A12.448,12.448,0,0,0,225.2-2.83l-.827-.67q3.35-3.445,6.132-6.275-2.01.15-4.771.226ZM229.681-.212a3.024,3.024,0,0,0-.622-1.429,1.275,1.275,0,0,0-.984-.472,1.119,1.119,0,0,0-.807.3.828.828,0,0,0-.273.622.87.87,0,0,0,.465.827,2.872,2.872,0,0,0,1.3.226A6.036,6.036,0,0,0,229.681-.212Zm6.132-4.047.909.28a3.153,3.153,0,0,0-.533,1.825q0,1.593,2.871,1.593a31.8,31.8,0,0,0,3.555-.2l.014,1.053Q240.987.4,239.046.4a5.244,5.244,0,0,1-2.871-.622,2.206,2.206,0,0,1-.95-1.962A3.852,3.852,0,0,1,235.813-4.259Zm.185-5.92q.868.041,2.5.041,1.668,0,3.63-.15l.164.95A20.6,20.6,0,0,0,238.67-7.1l-.629-.7q.3-.212,2.406-1.524a18.642,18.642,0,0,1-2.256.109q-.854,0-2.194-.055Zm12.141,3.555q1.429-.854,3.274-1.818l.5.882a29.874,29.874,0,0,0-4.464,2.5,3.4,3.4,0,0,0-1.709,2.714q0,1.8,2.885,1.8,1.483,0,3.391-.137v1q-2.345.068-3.459.068-3.78,0-3.78-2.755,0-2.085,2.475-3.7-.588-2.14-1.087-5.024l1.032-.041A41.144,41.144,0,0,0,248.138-6.624Zm14.109-.95q.021,2.769.123,4.689a7.23,7.23,0,0,1,2.468,1.832l-.677.841a6.685,6.685,0,0,0-1.791-1.634,2.112,2.112,0,0,1-.7,1.764,2.5,2.5,0,0,1-1.647.5q-2.42,0-2.42-1.9a1.583,1.583,0,0,1,.725-1.34,2.691,2.691,0,0,1,1.586-.451,6.841,6.841,0,0,1,1.483.15Q261.3-5,261.276-7.533q-1.907.062-3.821.041v-.882q1.7.055,3.808-.014v-2.577h1q-.014.841-.014,2.522.875-.048,2.249-.185v.882Q263.5-7.643,262.247-7.574Zm-.854,5.407a4.28,4.28,0,0,0-1.545-.28,1.734,1.734,0,0,0-.964.253.806.806,0,0,0-.4.711q0,1.053,1.511,1.053a1.26,1.26,0,0,0,1.114-.526,1.833,1.833,0,0,0,.287-1.073Zm-4.819-8.668a41.313,41.313,0,0,0-.841,6.87,33.206,33.206,0,0,0,.335,4.341l-.978.089q-.321-3.117-.321-4.457a30.522,30.522,0,0,1,.287-3.685q.226-1.764.526-3.24ZM21.7,10.843l.718-.273a18.274,18.274,0,0,1,1.032,2.365l-.752.308A15.123,15.123,0,0,0,21.7,10.843Zm1.586-.472.7-.253a11.566,11.566,0,0,1,1,2.3l-.731.294A13.488,13.488,0,0,0,23.283,10.371Zm.39-2.632L23.7,8.7a5.312,5.312,0,0,0-2.311.629,5.934,5.934,0,0,0-2.071,1.962,4.817,4.817,0,0,0-.813,2.659,2.958,2.958,0,0,0,1.285,2.529,6.17,6.17,0,0,0,2.933,1l-.239,1a6.1,6.1,0,0,1-3.63-1.381,3.89,3.89,0,0,1-1.312-3.049,5.709,5.709,0,0,1,2.994-5.024l.759-.335-.014-.027-.656.109q-1.189.068-5.66.479l-.082-.923Q16.885,8.177,23.673,7.739Zm8.565,3.931a12.542,12.542,0,0,0,2.078,2.857l-.574.9a7.984,7.984,0,0,0-3.657-.854,3.849,3.849,0,0,0-2,.444,1.157,1.157,0,0,0-.643,1.012q0,.813,1.1,1.21a7.484,7.484,0,0,0,2.5.335q.82,0,1.976-.089v.984q-.615.041-2.017.041-4.546,0-4.546-2.365a1.971,1.971,0,0,1,1.066-1.8,5.521,5.521,0,0,1,2.741-.567,6.3,6.3,0,0,1,2.851.615A11.321,11.321,0,0,1,31.274,11.8a34.235,34.235,0,0,1-4.341.28l-.137-.854A33.363,33.363,0,0,0,30.885,11q-.444-1.019-.69-1.682-1.757.185-3.794.226l-.123-.882a34.558,34.558,0,0,0,3.637-.171q-.205-.567-.526-1.62l1-.1q.246.9.479,1.62,1.422-.171,3.063-.52l.144.854q-1.647.328-2.912.479a16.614,16.614,0,0,0,.684,1.668q1.47-.212,2.6-.479l.171.841Q33.517,11.472,32.238,11.67Zm8.634-3.076q-.027-1.176-.027-1.853h1V8.553q1.7-.062,3.37-.267v.868q-1.531.185-3.356.253l.041,2.01q1.935-.089,3.247-.26v.868q-1.538.171-3.233.232.014.335.062,1.449.027.745.048,1.2a10.066,10.066,0,0,1,3.726,2.372l-.7.861a9.516,9.516,0,0,0-3.015-2.249v.15a2.184,2.184,0,0,1-2.475,2.468,3.271,3.271,0,0,1-2.017-.5,1.7,1.7,0,0,1-.6-1.436,1.679,1.679,0,0,1,.8-1.449,3.138,3.138,0,0,1,1.832-.5,8.4,8.4,0,0,1,1.47.1q-.048-.848-.1-2.427-1.825.048-3.644,0v-.848q1.7.055,3.63.014-.027-.383-.034-1.087-.014-.663-.027-.943-2.105.041-3.794-.027V8.566Q38.767,8.642,40.872,8.594Zm.171,7.055a5.407,5.407,0,0,0-1.374-.185q-1.832,0-1.832,1.107,0,1.066,1.654,1.066,1.552,0,1.552-1.866ZM53.56,9.5q-.041,1.518,0,3.035a5.324,5.324,0,0,1,.308,1.777,3.687,3.687,0,0,1-1.306,3.069,7.744,7.744,0,0,1-3.274,1.271l-.588-.841a6.334,6.334,0,0,0,3.411-1.381,2.741,2.741,0,0,0,.807-1.88,1.856,1.856,0,0,1-1.8.882,2.2,2.2,0,0,1-1.531-.574,2.082,2.082,0,0,1-.67-1.62,2.07,2.07,0,0,1,.793-1.736,2.469,2.469,0,0,1,1.559-.492,2,2,0,0,1,1.36.39Q52.6,10.091,52.6,9.53q-2.249.034-5.435.239l-.014-.9q2.584-.1,5.435-.171V6.8l1,.014q0,.629-.027,1.859,2.324-.027,3.363-.027v.9Q55.241,9.5,53.56,9.5Zm-2.338,2.3a1.322,1.322,0,0,0-.984.4,1.413,1.413,0,0,0-.39,1.046,1.237,1.237,0,0,0,.444,1,1.288,1.288,0,0,0,.848.294,1.405,1.405,0,0,0,1.1-.41,1.3,1.3,0,0,0,.314-.916Q52.555,11.8,51.222,11.8Zm10.89-1.36a41.522,41.522,0,0,1-2.646,7.841l-.923-.362a37.253,37.253,0,0,0,2.563-7.41q-.848.062-2.577.226l-.055-.882q.513-.034,1.518-.1L61.3,9.667q.26-1.183.533-2.782l.991.137q-.308,1.6-.533,2.591.786-.055,1.429-.055A1.428,1.428,0,0,1,65,10.125a3.662,3.662,0,0,1,.4,1.982,19.506,19.506,0,0,1-.437,4.97,1.777,1.777,0,0,1-.636,1,1.828,1.828,0,0,1-1.073.28,9.249,9.249,0,0,1-1.422-.109l-.171-.978a6.216,6.216,0,0,0,1.244.164,1.47,1.47,0,0,0,.745-.144.9.9,0,0,0,.335-.485,16.428,16.428,0,0,0,.444-4.566,3.52,3.52,0,0,0-.219-1.538.713.713,0,0,0-.677-.321Q62.9,10.385,62.111,10.439Zm3.575-1.832.9-.4a19.305,19.305,0,0,1,2.112,5.031l-.991.4A17.207,17.207,0,0,0,65.687,8.607Zm7.15,1.135a3.217,3.217,0,0,1,1.224-2.133,3.372,3.372,0,0,1,2.078-.629,3.228,3.228,0,0,1,2.345.834,2.491,2.491,0,0,1,.752,1.866,2.636,2.636,0,0,1-.417,1.442,6.8,6.8,0,0,1-1.237,1.333,3.536,3.536,0,0,0-.971,1.23,4.587,4.587,0,0,0-.191,1.442H75.5V14.78a3.931,3.931,0,0,1,.294-1.661A4.185,4.185,0,0,1,76.7,11.95a5.82,5.82,0,0,0,1.1-1.306,2.045,2.045,0,0,0,.219-.964,1.627,1.627,0,0,0-.554-1.319,1.936,1.936,0,0,0-1.306-.417q-1.914,0-2.174,2.092Zm3.876,7v1.5H75.188v-1.5Z"
									transform="translate(-0.643 11.799)" fill="#595757" />
							</svg>