<svg xmlns="http://www.w3.org/2000/svg" width="330.005" height="112.893"
								viewBox="0 0 330.005 112.893">
								<path id="Контур_1731" data-name="Контур 1731"
									d="M7.957,14.59a5.749,5.749,0,0,1-2.707.574A4.366,4.366,0,0,1,1.9,13.817,4.969,4.969,0,0,1,.643,10.283a5.208,5.208,0,0,1,1.415-3.8A4.8,4.8,0,0,1,5.646,5.033a5.754,5.754,0,0,1,2.311.4V6.66a4.686,4.686,0,0,0-2.324-.588A3.566,3.566,0,0,0,2.9,7.2a4.249,4.249,0,0,0-1.049,3.015,4.043,4.043,0,0,0,.981,2.854A3.338,3.338,0,0,0,5.4,14.132a4.828,4.828,0,0,0,2.557-.656Zm9.584.41H16.27L15.23,12.252H11.074L10.1,15H8.818l3.76-9.8h1.189Zm-2.687-3.78L13.316,7.043a4,4,0,0,1-.15-.656h-.027a3.661,3.661,0,0,1-.157.656L11.457,11.22ZM26.011,15H24.644L23,12.252a5.985,5.985,0,0,0-.437-.653,2.494,2.494,0,0,0-.434-.441,1.5,1.5,0,0,0-.479-.25,1.968,1.968,0,0,0-.578-.079h-.943V15H18.983V5.2h2.926a4.17,4.17,0,0,1,1.186.161,2.654,2.654,0,0,1,.943.489,2.271,2.271,0,0,1,.625.817,2.709,2.709,0,0,1,.226,1.145,2.757,2.757,0,0,1-.154.94,2.455,2.455,0,0,1-.437.762,2.652,2.652,0,0,1-.684.571,3.49,3.49,0,0,1-.9.366v.027a2.068,2.068,0,0,1,.427.25,2.351,2.351,0,0,1,.345.332,4.391,4.391,0,0,1,.325.434q.161.243.359.564ZM20.132,6.236V9.791H21.69a2.364,2.364,0,0,0,.8-.13,1.844,1.844,0,0,0,.632-.373,1.689,1.689,0,0,0,.417-.595,1.991,1.991,0,0,0,.15-.79,1.537,1.537,0,0,0-.509-1.227A2.188,2.188,0,0,0,21.7,6.236ZM32.553,15h-5.2V5.2h4.977V6.236H28.506V9.5h3.541v1.032H28.506v3.432h4.047Zm6.973,0H34.439V5.2h1.148v8.764h3.938Zm1.928-8.777a.71.71,0,0,1-.513-.205.692.692,0,0,1-.212-.52.718.718,0,0,1,.725-.731.724.724,0,0,1,.523.208.73.73,0,0,1,0,1.036A.718.718,0,0,1,41.453,6.223ZM42,15H40.879V8H42Zm10.322,0H50.914L45.869,7.187a3.265,3.265,0,0,1-.314-.615h-.041a10.092,10.092,0,0,1,.055,1.347V15H44.42V5.2h1.49l4.908,7.69q.308.479.4.656h.027a10.371,10.371,0,0,1-.068-1.442V5.2h1.148Zm9.393,0h-1.6l-3.787-4.484a2.733,2.733,0,0,1-.26-.342h-.027V15H54.893V5.2h1.148V9.8h.027a2.7,2.7,0,0,1,.26-.335L59.992,5.2h1.429l-4.2,4.7Zm8.839-7.574q.021,2.769.123,4.689a7.23,7.23,0,0,1,2.468,1.832l-.677.841a6.685,6.685,0,0,0-1.791-1.634,2.112,2.112,0,0,1-.7,1.764,2.5,2.5,0,0,1-1.647.5q-2.42,0-2.42-1.9a1.583,1.583,0,0,1,.725-1.34,2.691,2.691,0,0,1,1.586-.451,6.841,6.841,0,0,1,1.483.15Q69.61,10,69.583,7.467q-1.907.062-3.821.041V6.626q1.7.055,3.808-.014V4.035h1q-.014.841-.014,2.522.875-.048,2.249-.185v.882Q71.8,7.357,70.554,7.426ZM69.7,12.833a4.28,4.28,0,0,0-1.545-.28,1.734,1.734,0,0,0-.964.253.806.806,0,0,0-.4.711q0,1.053,1.511,1.053a1.26,1.26,0,0,0,1.114-.526A1.833,1.833,0,0,0,69.7,12.97ZM64.88,4.165a41.313,41.313,0,0,0-.841,6.87,33.208,33.208,0,0,0,.335,4.341l-.978.089q-.321-3.117-.321-4.457a30.522,30.522,0,0,1,.287-3.685q.226-1.764.526-3.24Zm21.807,5.77a.1.1,0,0,1-.109.109l-1.853-.027H76.651l-1.853.027a.1.1,0,0,1-.109-.109V9.2a.1.1,0,0,1,.109-.109l1.853.027h8.073l1.853-.027a.1.1,0,0,1,.109.109ZM100.509,4.78q-.027.424-.027,1.224a47.572,47.572,0,0,1-.506,7.492,2.914,2.914,0,0,1-.731,1.7,1.682,1.682,0,0,1-1.183.39,10.437,10.437,0,0,1-1.148-.068.453.453,0,0,1-.232-.068.519.519,0,0,1-.062-.226,2.194,2.194,0,0,0-.2-.663,10.059,10.059,0,0,0,1.565.157.9.9,0,0,0,.779-.376,2.905,2.905,0,0,0,.355-1.08,53.717,53.717,0,0,0,.492-7.772H96.865a18.09,18.09,0,0,1-.793,5.975,7.812,7.812,0,0,1-4.033,4.218.685.685,0,0,1-.239.082q-.068,0-.212-.137a2.058,2.058,0,0,0-.574-.451,7.136,7.136,0,0,0,4.272-4,11.224,11.224,0,0,0,.608-2.83q.109-1.087.123-2.857h-.479l-1.8.027q-.116,0-.116-.109V4.767q0-.1.116-.1l1.8.027h3.035l1.812-.027Q100.509,4.671,100.509,4.78ZM94.042,7.289v.048q0,.075-.1.089-.4.055-1.634.321l-1.415.308v3.336q0,.458.185.588a2.331,2.331,0,0,0,1.647-.089.978.978,0,0,0,.328-.643,8.243,8.243,0,0,0,.1-1.23,2.658,2.658,0,0,0,.547.321.684.684,0,0,1,.191.109.173.173,0,0,1,.034.123q0,.034-.007.116a4.344,4.344,0,0,1-.246,1.347,1.211,1.211,0,0,1-.437.52,2.665,2.665,0,0,1-1.511.321,2.748,2.748,0,0,1-1.217-.185q-.451-.232-.451-1.032V8.226q-.731.15-1.271.28-.349.082-.369.082a.288.288,0,0,1-.048.007q-.062,0-.075-.1l-.1-.629a.412.412,0,0,1-.007-.062q0-.055.1-.068.444-.048,1.627-.294l.137-.027V5.847A15.131,15.131,0,0,0,89.968,3.8a6.592,6.592,0,0,1,.9.082q.2.041.2.123a.639.639,0,0,1-.082.267,7.146,7.146,0,0,0-.089,1.586V7.241l1.347-.294q.731-.157,1.244-.287l.349-.089a.419.419,0,0,1,.055-.007q.048,0,.055.089ZM108.1,5.847a22.039,22.039,0,0,1-1.483,7.362,2.1,2.1,0,0,1-1.894,1.483,1.749,1.749,0,0,1-1.606-1.06,6,6,0,0,1-.533-2.789,7.336,7.336,0,0,1,.458-2.618A5.114,5.114,0,0,1,104.077,6.5a4.675,4.675,0,0,1,1.716-1.128,5.426,5.426,0,0,1,1.969-.369,4.139,4.139,0,0,1,3.555,1.5,6.371,6.371,0,0,1,.964,3.808,5.114,5.114,0,0,1-1.121,3.4,5.6,5.6,0,0,1-3.274,1.784l-.485-.841a4.243,4.243,0,0,0,3.835-4.607,4.671,4.671,0,0,0-1.032-3.3A2.809,2.809,0,0,0,108.1,5.847Zm-1.053.109a3.075,3.075,0,0,0-1.292.4,4.459,4.459,0,0,0-1.06.93,5.252,5.252,0,0,0-1.148,3.582,4.6,4.6,0,0,0,.41,2.126q.328.615.752.615a.82.82,0,0,0,.622-.26,2.544,2.544,0,0,0,.444-.759A19.819,19.819,0,0,0,107.044,5.956Zm16.707,8.962a.217.217,0,0,1,.014.062q0,.048-.137.116l-.328.171a.658.658,0,0,1-.164.068q-.048,0-.068-.109a11.827,11.827,0,0,0-.451-1.135q-2.037.41-5.435.909a1.324,1.324,0,0,0-.561.171.329.329,0,0,1-.164.068q-.1,0-.171-.171a6.366,6.366,0,0,1-.239-.813,13.344,13.344,0,0,0,1.572-.1q.4-.041,1.955-.253V11.835h-.67l-1.613.027q-.109,0-.109-.1l.027-1.066V9.654L117.182,8.6a.1.1,0,0,1,.109-.109l1.613.027h.67v-1.5q-1.1.164-2.1.28-.123.014-.171.014-.137,0-.205-.212a1.326,1.326,0,0,0-.267-.465,21.263,21.263,0,0,0,4.512-.67,3.075,3.075,0,0,0,.909-.39,3.063,3.063,0,0,1,.567.485.322.322,0,0,1,.116.212q0,.13-.239.13-.034,0-.6.123-1.087.232-1.764.349V8.52h.656l1.6-.027q.13,0,.13.109l-.034,1.053V10.7l.034,1.066q0,.1-.13.1l-1.6-.027h-.656V13.8l1.962-.321q-.253-.451-.383-.643a.2.2,0,0,1-.041-.089q0-.055.157-.123l.294-.144a.31.31,0,0,1,.116-.034q.041,0,.1.082A11.156,11.156,0,0,1,123.751,14.918Zm-4.177-3.712V9.148h-1.647v2.058Zm2.4,0V9.148h-1.641v2.058Zm4.888,2.16a4.8,4.8,0,0,1-.431,1.914.808.808,0,0,1-.731.444q-.6,0-1.012-.827a9.59,9.59,0,0,1-.629-2.126,40.427,40.427,0,0,1-.349-6.3V4.855h-7.52V7.248a33.377,33.377,0,0,1-.239,4.607,8.679,8.679,0,0,1-1.5,3.808q-.109.15-.157.15t-.178-.157a1.588,1.588,0,0,0-.52-.39,6.411,6.411,0,0,0,1.565-3.609,35.13,35.13,0,0,0,.212-4.423l-.027-3.056a.1.1,0,0,1,.109-.109l1.976.027h5.031l1.982-.027q.116,0,.116.109l-.041,1.962v.383a40.263,40.263,0,0,0,.28,5.927q.437,2.311.923,2.311.417,0,.52-2.235a1.64,1.64,0,0,0,.472.431q.157.1.157.205Q126.875,13.182,126.861,13.366Zm13.863-2.639a1.422,1.422,0,0,0-.362.6q-.082.2-.157.2a.533.533,0,0,1-.191-.082,15.01,15.01,0,0,1-2.769-2.112,11.756,11.756,0,0,1-1.716-2.174,14.647,14.647,0,0,1-2.769,3.274q.253.027,1.654.027h2.331l1.682-.027q.116,0,.116.109l-.034,1.429v1.319l.034,2.468q0,.1-.116.1H137.8q-.109,0-.109-.1V15h-4.218v.827a.1.1,0,0,1-.109.109h-.629a.1.1,0,0,1-.109-.109l.027-2.481V12.17l-.027-1.613a13.474,13.474,0,0,1-1.278.984.678.678,0,0,1-.226.109q-.068,0-.164-.2a1.523,1.523,0,0,0-.4-.485,11.907,11.907,0,0,0,2.529-2.017,11.527,11.527,0,0,0,1.7-2.2,2.977,2.977,0,0,0,.335-.841,6.2,6.2,0,0,1,.841.226q.171.055.171.157a.141.141,0,0,1-.089.123l-.082.055A11.14,11.14,0,0,0,140.725,10.728Zm-3.035,3.527V11.233h-4.218v3.021ZM131.482,3.775a.231.231,0,0,1-.13.191,1.549,1.549,0,0,0-.28.533,22.668,22.668,0,0,1-.923,2.126v7.041l.027,2.2q0,.1-.116.1h-.643q-.109,0-.109-.1l.027-2.2V10.03q0-.643.027-2.017a15.668,15.668,0,0,1-1.292,1.771q-.116.137-.164.137t-.144-.157a1.513,1.513,0,0,0-.335-.533,14.419,14.419,0,0,0,2.857-4.956,5.533,5.533,0,0,0,.212-.95,4.4,4.4,0,0,1,.827.294Q131.482,3.687,131.482,3.775Zm8.736,2.611a2.448,2.448,0,0,0-.362.533q-.1.212-.164.212a.558.558,0,0,1-.212-.1,10.032,10.032,0,0,1-2.816-2.83.151.151,0,0,1-.034-.068q0-.041.15-.13l.349-.232a.3.3,0,0,1,.137-.068.11.11,0,0,1,.075.048A9.067,9.067,0,0,0,140.219,6.387Zm-5.681-2.126a.208.208,0,0,1-.144.185,1.207,1.207,0,0,0-.321.362,9.7,9.7,0,0,1-2.208,2.372.525.525,0,0,1-.212.109q-.068,0-.171-.185a1.233,1.233,0,0,0-.4-.424,7.938,7.938,0,0,0,2.2-2.194,3.678,3.678,0,0,0,.362-.813,4,4,0,0,1,.779.438Q134.538,4.186,134.538,4.261ZM154.485,8.52q0,.109-.116.109l-1.9-.027h-.451v3.233l.027,2.577a1.313,1.313,0,0,1-.376,1.121,4.079,4.079,0,0,1-1.948.267q-.219,0-.26-.048a.576.576,0,0,1-.089-.246,2.03,2.03,0,0,0-.294-.629q.622.055,1.34.055a1.059,1.059,0,0,0,.615-.116.517.517,0,0,0,.13-.417V8.6h-2.536l-1.914.027q-.116,0-.116-.109V7.9q0-.109.116-.109l1.914.027h3.842l1.9-.027q.116,0,.116.109Zm-8.326-1.36a.207.207,0,0,1-.1.157.993.993,0,0,0-.308.335q-.451.7-.786,1.135v5.277l.027,1.8a.1.1,0,0,1-.109.109h-.677a.1.1,0,0,1-.109-.109l.027-1.8V11.555q0-.752.027-1.818a16,16,0,0,1-1.511,1.442.49.49,0,0,1-.2.123q-.055,0-.137-.171a1.8,1.8,0,0,0-.362-.485,11.989,11.989,0,0,0,3.063-3.4,2.66,2.66,0,0,0,.294-.67,5.051,5.051,0,0,1,.731.4A.256.256,0,0,1,146.159,7.159Zm7.588-2.064a.1.1,0,0,1-.109.109L151.9,5.177H149.27l-1.723.027a.1.1,0,0,1-.109-.109V4.473a.1.1,0,0,1,.109-.109l1.723.027H151.9l1.736-.027a.1.1,0,0,1,.109.109Zm-7.656-1.087q0,.089-.171.185a1.97,1.97,0,0,0-.335.362,13.477,13.477,0,0,1-2.728,2.6.34.34,0,0,1-.2.1q-.075,0-.191-.191a1.884,1.884,0,0,0-.41-.437,10.483,10.483,0,0,0,2.83-2.591,2.16,2.16,0,0,0,.308-.615,4.347,4.347,0,0,1,.772.424Q146.091,3.926,146.091,4.008Zm21.964,6.815q-.021.226-.048.567-.034.41-.048.567a10.99,10.99,0,0,1-.629,3.281,1.194,1.194,0,0,1-1.176.67q-.533,0-1-.041-.185-.021-.219-.068a.594.594,0,0,1-.075-.226,2.021,2.021,0,0,0-.239-.643,7.354,7.354,0,0,0,1.306.137.993.993,0,0,0,.485-.082.637.637,0,0,0,.253-.383,11.232,11.232,0,0,0,.465-3.165h-8.593a15.125,15.125,0,0,1-1.976,1.729.87.87,0,0,1-.2.1q-.068,0-.2-.171a1.67,1.67,0,0,0-.417-.437,13.067,13.067,0,0,0,3.179-2.892,13.779,13.779,0,0,0,1.859-3.083h-2.044l-1.955.027q-.116,0-.116-.109V6.038q0-.109.116-.109l1.955.027h2.338q.109-.287.321-1.025a6.81,6.81,0,0,0,.267-1.5q.526.068.909.157.2.048.2.164a.441.441,0,0,1-.144.267,4.418,4.418,0,0,0-.349.957q-.13.431-.321.978h1.709l1.989-.027q.13,0,.13.1a.076.076,0,0,1-.007.034l-.15.882q-.068.355-.28,1.374l1.148-.027q.123,0,.123.109l-.15.841q-.1.656-.28,1.47l1.736-.027q.13,0,.13.1A.076.076,0,0,1,168.055,10.823Zm-2.365-1.777h-5.264a14.728,14.728,0,0,1-1.23,1.668h6.159Q165.553,9.941,165.689,9.046Zm-.841-2.365H161.67a13.6,13.6,0,0,1-.807,1.641h3.664A14.661,14.661,0,0,0,164.849,6.681ZM159.421,12.7a8.757,8.757,0,0,1-1.5,2.974.114.114,0,0,1-.089.055.248.248,0,0,1-.13-.062l-.424-.267q-.109-.075-.109-.116a.137.137,0,0,1,.041-.075,6.71,6.71,0,0,0,1.483-2.789q.021-.075.062-.075a1.346,1.346,0,0,1,.178.048l.376.13q.13.034.13.1A.377.377,0,0,1,159.421,12.7Zm2.085,2.283v.041q0,.082-.185.13l-.417.1a.474.474,0,0,1-.109.021q-.075,0-.089-.13a13.472,13.472,0,0,0-.376-2.563.294.294,0,0,1-.007-.055q0-.068.171-.1l.335-.068a1.07,1.07,0,0,1,.137-.021q.055,0,.075.089A14.144,14.144,0,0,1,161.506,14.986Zm2.3-.643a.294.294,0,0,1,.007.055q0,.055-.15.109l-.39.144a.5.5,0,0,1-.13.027q-.055,0-.082-.1a11.163,11.163,0,0,0-.725-2.194.157.157,0,0,1-.021-.062q0-.048.144-.1l.349-.109a.325.325,0,0,1,.089-.021q.041,0,.082.075A10.994,10.994,0,0,1,163.8,14.344Zm-3.685-9.215a.157.157,0,0,1,.021.062q0,.041-.116.109l-.451.239a.48.48,0,0,1-.137.055q-.041,0-.089-.1a6.188,6.188,0,0,0-.909-1.47.119.119,0,0,1-.034-.068q0-.041.137-.109l.39-.2a.332.332,0,0,1,.123-.048.133.133,0,0,1,.089.048A6.492,6.492,0,0,1,160.118,5.129Zm5.783,8.388a.161.161,0,0,1,.021.068q0,.062-.123.116l-.335.15a.481.481,0,0,1-.157.055q-.048,0-.082-.082a7.106,7.106,0,0,0-.923-1.613.133.133,0,0,1-.027-.068q0-.048.144-.109l.294-.144a.262.262,0,0,1,.1-.034q.041,0,.089.062A7.308,7.308,0,0,1,165.9,13.517Zm9.728-2.9v2.769h-.937V11.049q-.321.164-.663.355-1.791,1.012-1.791,2.03a.927.927,0,0,0,.629.943,6.4,6.4,0,0,0,2.078.232q1.47,0,3.411-.171l.041.95q-2.55.13-3.384.13a5.879,5.879,0,0,1-2.967-.513,1.772,1.772,0,0,1-.7-1.6,3.066,3.066,0,0,1,1.88-2.55q.711-.4,1.456-.772-.068-1.312-.909-1.312-1.176,0-3.227,2.365l-.725-.643a16.349,16.349,0,0,0,2.9-4.136q-1.278.021-2.563,0V5.5q1.477.027,2.953,0a12.511,12.511,0,0,0,.629-1.873l1.012.185a14.378,14.378,0,0,1-.588,1.647q1.969-.062,3.739-.239l.027.854q-2.3.185-4.143.239a14.3,14.3,0,0,1-1.176,1.989l-.355.362.041.055a2.492,2.492,0,0,1,1.668-.711,1.521,1.521,0,0,1,1.114.424,1.982,1.982,0,0,1,.526,1.217q1.094-.5,2.844-1.237l.39.957Q176.559,10.208,175.629,10.618ZM193.115,8.1a2.886,2.886,0,0,0-.321.506q-.1.185-.171.185a.533.533,0,0,1-.191-.082,9.749,9.749,0,0,1-2.762-2.611q.027,1.025.068,2.058.027.711.027.745a.1.1,0,0,1-.109.109h-.588a.1.1,0,0,1-.109-.109q0-.048.021-.437.055-1.2.075-2.365a9.7,9.7,0,0,1-2.283,2.584.578.578,0,0,1-.2.109q-.041,0-.191-.2a1.592,1.592,0,0,0-.362-.335A9.679,9.679,0,0,0,187.551,7.1a8.438,8.438,0,0,0,1.1-1.312h-.13l-1.668.034q-.109,0-.109-.116v-.52a.1.1,0,0,1,.109-.109l1.668.027h.465V4.685a6.289,6.289,0,0,0-.1-1.278,6.511,6.511,0,0,1,.854.089q.144.014.144.123a.47.47,0,0,1-.055.185,2.579,2.579,0,0,0-.089.868V5.1h1.107l1.668-.027a.1.1,0,0,1,.109.109V5.7q0,.116-.109.116l-1.668-.034h-.813a9.382,9.382,0,0,0,1.47,1.367A10.963,10.963,0,0,0,193.115,8.1Zm-.738,4.006q0,.109-.116.109l-1.887-.027h-3.151v.854l.014,1.586a1.027,1.027,0,0,1-.39.923,2.759,2.759,0,0,1-1.518.28h-.26a.507.507,0,0,1-.267-.041.838.838,0,0,1-.089-.239,1.675,1.675,0,0,0-.253-.561,10.185,10.185,0,0,0,1.148.068.892.892,0,0,0,.629-.15.761.761,0,0,0,.116-.492V12.184H182.9l-1.9.027q-.116,0-.116-.109v-.561q0-.109.116-.109l1.9.027h7.479l1.887-.027q.116,0,.116.109Zm-6.221-4.8a2.107,2.107,0,0,0-.349.376q-.13.2-.185.2t-.178-.144A9.139,9.139,0,0,1,184.1,6.154q.014,1.073.062,2.044,0,.034.027.526.007.144.007.191a.1.1,0,0,1-.109.109H183.5a.1.1,0,0,1-.109-.109q0-.048.021-.4.055-1.1.075-2.29a11.267,11.267,0,0,1-2.44,2.68.339.339,0,0,1-.178.1q-.082,0-.185-.185a1.31,1.31,0,0,0-.362-.417,10.182,10.182,0,0,0,2.816-2.6h-.7l-1.579.027q-.116,0-.116-.109V5.19a.1.1,0,0,1,.116-.116l1.579.027h.984V4.7a6.151,6.151,0,0,0-.1-1.285,5.817,5.817,0,0,1,.854.082q.157.021.157.109a.625.625,0,0,1-.055.212,2.513,2.513,0,0,0-.1.882v.4h.28l1.586-.027q.1,0,.1.116v.52q0,.109-.1.109l-1.586-.027h-.027A7.934,7.934,0,0,0,186.156,7.3Zm4.819,2.953q0,.1-.116.1l-1.948-.027h-4.437l-1.955.027q-.116,0-.116-.1V9.7q0-.109.116-.109l1.955.027h4.437l1.948-.027q.116,0,.116.109Zm1.606,4.573a1.678,1.678,0,0,0-.431.492q-.13.212-.2.212a.525.525,0,0,1-.212-.109,12.858,12.858,0,0,1-2.721-2.27.132.132,0,0,1-.027-.062q0-.048.144-.137l.349-.267a.247.247,0,0,1,.116-.048.165.165,0,0,1,.109.068A9.647,9.647,0,0,0,192.582,14.829Zm-7.978-1.7q0,.1-.157.164a1.141,1.141,0,0,0-.4.335,9.959,9.959,0,0,1-2.256,1.812.714.714,0,0,1-.212.1q-.068,0-.205-.185a1.88,1.88,0,0,0-.479-.376,8.042,8.042,0,0,0,2.283-1.627,2.746,2.746,0,0,0,.547-.725,4.653,4.653,0,0,1,.759.362Q184.6,13.045,184.6,13.127Zm22.1,2a.1.1,0,0,1-.109.109l-1.846-.027h-8.121l-1.853.027a.1.1,0,0,1-.109-.109v-.7a.1.1,0,0,1,.109-.109l1.853.027h.417V8.492a12.772,12.772,0,0,0-.1-1.853q.581.027.991.089.171.021.171.123a.908.908,0,0,1-.068.253,5.19,5.19,0,0,0-.089,1.313v5.927h2.816v-9a12.129,12.129,0,0,0-.109-1.832,8.84,8.84,0,0,1,1,.082q.171.021.171.123a.5.5,0,0,1-.027.13q-.034.1-.041.137a6.1,6.1,0,0,0-.089,1.333V8.28h2.112l1.921-.027a.1.1,0,0,1,.109.109V9.08a.1.1,0,0,1-.109.109l-1.921-.027h-2.112v5.182h3.069l1.846-.027a.1.1,0,0,1,.109.109Zm2.8-11.163h1.046q-.239,7.191-.239,8.668a2.135,2.135,0,0,0,.458,1.579,2.222,2.222,0,0,0,1.545.424,3.218,3.218,0,0,0,2.44-.943,5.471,5.471,0,0,0,1.217-2.673l.95.479q-.93,4.074-4.58,4.074a3.2,3.2,0,0,1-2.4-.718,3.1,3.1,0,0,1-.608-2.153q0-.766.062-3.753Q209.474,5.334,209.5,3.967Zm17.623.772.027.964a5.312,5.312,0,0,0-2.311.629,5.934,5.934,0,0,0-2.071,1.962,4.817,4.817,0,0,0-.813,2.659,2.958,2.958,0,0,0,1.285,2.529,6.17,6.17,0,0,0,2.933,1l-.239,1A6.1,6.1,0,0,1,222.3,14.1a3.89,3.89,0,0,1-1.312-3.049,5.709,5.709,0,0,1,2.994-5.024l.759-.335-.014-.027-.656.109q-1.189.068-5.66.479l-.082-.923Q220.336,5.177,227.124,4.739Zm4.354,1.354V3.83h.964V6.038q1.511-.1,2.591-.219v.909q-1.224.123-2.591.205V9.641a8.692,8.692,0,0,1,2.646-.479,2.9,2.9,0,0,1,2.577,1.169,3.273,3.273,0,0,1,.533,1.894,2.654,2.654,0,0,1-1.3,2.591,6.067,6.067,0,0,1-2.707.465v-.9a3.954,3.954,0,0,0,2.167-.444,2.048,2.048,0,0,0,.772-1.825,2.11,2.11,0,0,0-.6-1.524,1.724,1.724,0,0,0-1.285-.561,7.651,7.651,0,0,0-2.8.533v3.609a1.437,1.437,0,0,1-.273,1,1.054,1.054,0,0,1-.786.26,2.259,2.259,0,0,1-1.189-.376,2.427,2.427,0,0,1-1.347-2.03q0-1.736,2.632-3.049v-3q-.813.048-2.434.075v-.9Q230.357,6.154,231.479,6.093Zm0,4.9a5.118,5.118,0,0,0-1.306,1.019,1.511,1.511,0,0,0-.39.984,1.078,1.078,0,0,0,.335.759,1.888,1.888,0,0,0,.69.458.9.9,0,0,0,.39.1q.28,0,.28-.465Zm3.9-5.64.6-.731A12.831,12.831,0,0,1,238.8,6.852l-.684.772A11,11,0,0,0,235.382,5.354ZM241.309,4.1l.971.123a38.255,38.255,0,0,0-.424,4.9,10.011,10.011,0,0,0,.055,1.162q.506-1.2.957-2.1l.643.5a17.362,17.362,0,0,0-.978,2.2,6.692,6.692,0,0,0-.239.841l-1.08.014a13.112,13.112,0,0,1-.294-2.816A40.7,40.7,0,0,1,241.309,4.1Zm4.662.055,1.012-.041q.137,2.6.137,4.758a14.871,14.871,0,0,1-.239,3.042,4.749,4.749,0,0,1-.7,1.647,5.8,5.8,0,0,1-3.527,2.112l-.6-.807a4.78,4.78,0,0,0,3.151-1.7q.923-1.189.923-4.341Q246.128,6.94,245.971,4.151Zm7.923,1.442q-.027-1.176-.027-1.853h1V5.553q1.7-.062,3.37-.267v.868q-1.531.185-3.356.253l.041,2.01q1.935-.089,3.247-.26v.868q-1.538.171-3.233.232.014.335.062,1.449.027.745.048,1.2a10.066,10.066,0,0,1,3.726,2.372l-.7.861a9.516,9.516,0,0,0-3.015-2.249v.15a2.184,2.184,0,0,1-2.475,2.468,3.271,3.271,0,0,1-2.017-.5,1.7,1.7,0,0,1-.6-1.436,1.679,1.679,0,0,1,.8-1.449,3.138,3.138,0,0,1,1.832-.5,8.4,8.4,0,0,1,1.47.1q-.048-.848-.1-2.427-1.825.048-3.644,0V8.451q1.7.055,3.63.014-.027-.383-.034-1.087-.014-.663-.027-.943-2.105.041-3.794-.027V5.566Q251.788,5.642,253.894,5.594Zm.171,7.055a5.407,5.407,0,0,0-1.374-.185q-1.832,0-1.832,1.107,0,1.066,1.654,1.066,1.552,0,1.552-1.866ZM266.581,6.5q-.041,1.518,0,3.035a5.324,5.324,0,0,1,.308,1.777,3.687,3.687,0,0,1-1.306,3.069,7.744,7.744,0,0,1-3.274,1.271l-.588-.841a6.334,6.334,0,0,0,3.411-1.381,2.741,2.741,0,0,0,.807-1.88,1.856,1.856,0,0,1-1.8.882,2.2,2.2,0,0,1-1.531-.574,2.082,2.082,0,0,1-.67-1.62,2.07,2.07,0,0,1,.793-1.736,2.469,2.469,0,0,1,1.559-.492,2,2,0,0,1,1.36.39q-.027-1.312-.027-1.873-2.249.034-5.435.239l-.014-.9q2.584-.1,5.435-.171V3.8l1,.014q0,.629-.027,1.859,2.324-.027,3.363-.027v.9Q268.263,6.5,266.581,6.5Zm-2.338,2.3a1.322,1.322,0,0,0-.984.4,1.413,1.413,0,0,0-.39,1.046,1.237,1.237,0,0,0,.444,1,1.288,1.288,0,0,0,.848.294,1.405,1.405,0,0,0,1.1-.41,1.3,1.3,0,0,0,.314-.916Q265.576,8.8,264.243,8.8Zm9.324,3.527a1.915,1.915,0,0,1,1.463.643,1.916,1.916,0,0,1-.144,2.748,1.936,1.936,0,0,1-1.319.5,1.9,1.9,0,0,1-1.463-.643,1.916,1.916,0,0,1,.144-2.748A1.936,1.936,0,0,1,273.567,12.327Zm0,.7a1.269,1.269,0,0,0-1.251,1.251,1.253,1.253,0,0,0,2.181.834,1.247,1.247,0,0,0-.93-2.085ZM.978,29.582H10.09a9.743,9.743,0,0,1-.854,3.1,6.924,6.924,0,0,1-1.688,2.112l-.827-.684A6.076,6.076,0,0,0,8.2,32.344a4.766,4.766,0,0,0,.595-1.818H.978Zm.417,10.11A5.493,5.493,0,0,0,3.91,37.587a7.481,7.481,0,0,0,.766-3.705V31.667H5.749v2.242A7.782,7.782,0,0,1,4.628,38.4a6.96,6.96,0,0,1-2.557,2.092Zm17.992-8.935a13.225,13.225,0,0,1-1.367,5.927,8.91,8.91,0,0,1-5.113,3.9l-.588-.841A8.527,8.527,0,0,0,16.871,36.5a10.554,10.554,0,0,0,1.367-5.742H11.7v-.937h6.706a1.43,1.43,0,0,1-.1-.547,1.5,1.5,0,0,1,.513-1.162,1.53,1.53,0,0,1,1.053-.4,1.5,1.5,0,0,1,1.162.513,1.569,1.569,0,0,1-1.162,2.625A1.366,1.366,0,0,1,19.387,30.758Zm.492-2.447a.939.939,0,0,0-.725.314.954.954,0,0,0-.239.649.939.939,0,0,0,.314.725.923.923,0,0,0,.649.246.939.939,0,0,0,.725-.314.963.963,0,0,0,.239-.656.954.954,0,0,0-.964-.964Zm4.566.923V36.1h-1.08V29.233Zm-.4,10.5a5.626,5.626,0,0,0,3.473-1.812,6.149,6.149,0,0,0,.9-3.664V29.151H29.5V34.4a6.3,6.3,0,0,1-1.354,4.457,6.837,6.837,0,0,1-3.589,1.716Zm20.282.355a.1.1,0,0,1-.109.109l-1.853-.027H34.323l-1.853.027a.1.1,0,0,1-.109-.109v-.718a.1.1,0,0,1,.109-.109l1.853.027h3.165V30.724a16.008,16.008,0,0,0-.089-2.017,8.173,8.173,0,0,1,.984.082q.185.027.185.123a.828.828,0,0,1-.075.267,5.587,5.587,0,0,0-.1,1.36v2.646H41.18l1.846-.027q.116,0,.116.109v.718q0,.109-.116.109l-1.846-.027H38.4v5.223h3.972l1.853-.027a.1.1,0,0,1,.109.109Zm8.7-7.246.718-.273a18.274,18.274,0,0,1,1.032,2.365l-.752.308A15.123,15.123,0,0,0,53.033,32.843Zm1.586-.472.7-.253a11.566,11.566,0,0,1,1,2.3l-.731.294A13.487,13.487,0,0,0,54.619,32.371Zm.39-2.632.027.964a5.312,5.312,0,0,0-2.311.629,5.934,5.934,0,0,0-2.071,1.962,4.817,4.817,0,0,0-.813,2.659,2.958,2.958,0,0,0,1.285,2.529,6.17,6.17,0,0,0,2.933,1l-.239,1a6.1,6.1,0,0,1-3.63-1.381,3.89,3.89,0,0,1-1.312-3.049,5.709,5.709,0,0,1,2.994-5.024l.759-.335-.014-.027-.656.109q-1.189.068-5.66.479l-.082-.923Q48.221,30.177,55.009,29.739Zm7.95,1.107a22.039,22.039,0,0,1-1.483,7.362,2.1,2.1,0,0,1-1.894,1.483,1.749,1.749,0,0,1-1.606-1.06,6,6,0,0,1-.533-2.789,7.335,7.335,0,0,1,.458-2.618A5.114,5.114,0,0,1,58.939,31.5a4.675,4.675,0,0,1,1.716-1.128,5.426,5.426,0,0,1,1.969-.369,4.139,4.139,0,0,1,3.555,1.5,6.371,6.371,0,0,1,.964,3.808,5.114,5.114,0,0,1-1.121,3.4,5.6,5.6,0,0,1-3.274,1.784l-.485-.841A4.243,4.243,0,0,0,66.1,35.044a4.671,4.671,0,0,0-1.032-3.3A2.809,2.809,0,0,0,62.959,30.847Zm-1.053.109a3.075,3.075,0,0,0-1.292.4,4.459,4.459,0,0,0-1.06.93,5.252,5.252,0,0,0-1.148,3.582A4.6,4.6,0,0,0,58.816,38q.328.615.752.615a.82.82,0,0,0,.622-.26,2.544,2.544,0,0,0,.444-.759A19.819,19.819,0,0,0,61.906,30.956Zm19.407,2.372a.1.1,0,0,1-.109.109l-1.682-.027h-.533v2.885q.8.506,1.839,1.244a.11.11,0,0,1,.048.075.377.377,0,0,1-.068.15l-.226.4q-.1.15-.144.15a.155.155,0,0,1-.089-.048q-.69-.561-1.36-1.025v1.791l.027,1.839a.1.1,0,0,1-.109.109h-.649a.1.1,0,0,1-.109-.109l.027-1.839V36.712q-.868-.526-1.654-.909-.089-.034-.089-.068a.466.466,0,0,1,.075-.157l.2-.349q.062-.1.123-.1a.161.161,0,0,1,.068.021q.608.28,1.278.656V33.41h-2.5v.465a24.064,24.064,0,0,1-.267,4.013,8.071,8.071,0,0,1-1.025,2.9q-.109.2-.178.2t-.2-.15a1.336,1.336,0,0,0-.492-.355,6.787,6.787,0,0,0,1.121-2.83,23.233,23.233,0,0,0,.226-3.76v-2.27a11.8,11.8,0,0,0-.1-1.75,3.717,3.717,0,0,1,.9.28,13.036,13.036,0,0,0,3.322-1.066,3.493,3.493,0,0,0,.882-.574,3.663,3.663,0,0,1,.629.615.33.33,0,0,1,.082.171q0,.116-.164.137a3.628,3.628,0,0,0-.718.253,18.763,18.763,0,0,1-4.02,1.23v1.736h3.842l1.682-.027a.1.1,0,0,1,.109.109Zm-7.923,7.1a.1.1,0,0,1-.116.116H72.7q-.109,0-.109-.116V40H70.308v.711q0,.116-.109.116h-.574a.1.1,0,0,1-.116-.116l.027-2.037v-.848l-.027-1.217a.1.1,0,0,1,.109-.109l1.237.027H72.03l1.251-.027a.1.1,0,0,1,.109.109l-.027,1v.937Zm-.8-1.114V37.211H70.308v2.105ZM73.9,31.633q0,.123-.109.123l-1.47-.027H70.472L69,31.756q-.109,0-.109-.123v-.581A.1.1,0,0,1,69,30.942l1.47.027h1.853l1.47-.027a.1.1,0,0,1,.109.109Zm-.472-1.894q0,.109-.116.109l-1.23-.027H70.9l-1.23.027q-.116,0-.116-.109v-.561q0-.109.116-.109l1.23.027h1.189l1.23-.027q.116,0,.116.109Zm-.185,3.753q0,.109-.13.109l-1.142-.027H70.923l-1.162.027a.1.1,0,0,1-.109-.109v-.547a.1.1,0,0,1,.109-.109l1.162.027h1.053l1.142-.027q.13,0,.13.109Zm0,1.818q0,.109-.13.109l-1.142-.027H70.923l-1.162.027a.1.1,0,0,1-.109-.109v-.547a.1.1,0,0,1,.109-.109l1.162.027h1.053l1.142-.027q.13,0,.13.109ZM95.2,39.1a1.989,1.989,0,0,0-.492.547q-.123.178-.185.178a1.037,1.037,0,0,1-.191-.1,11.336,11.336,0,0,1-5.024-6.521q.1,5.325.1,6.4a1.1,1.1,0,0,1-.492,1.06,4.483,4.483,0,0,1-1.7.226.427.427,0,0,1-.246-.041.838.838,0,0,1-.089-.239,1.774,1.774,0,0,0-.321-.643q.663.055,1.012.055a1.366,1.366,0,0,0,.772-.144.635.635,0,0,0,.178-.526V32H85l-1.853.027a.1.1,0,0,1-.109-.109v-.622a.1.1,0,0,1,.109-.109L85,31.209h3.527V30.143a8.945,8.945,0,0,0-.1-1.675,8.64,8.64,0,0,1,.937.082q.157.021.157.109a.776.776,0,0,1-.068.294,5.593,5.593,0,0,0-.068,1.176v1.08h3.6l1.859-.027q.116,0,.116.109v.622q0,.109-.116.109L92.976,32H89.489a13.233,13.233,0,0,0,1.4,3.165,12.643,12.643,0,0,0,1.8-1.866,2.115,2.115,0,0,0,.376-.643,3.535,3.535,0,0,1,.711.506.264.264,0,0,1,.116.2q0,.075-.157.178a2.753,2.753,0,0,0-.643.574,16.843,16.843,0,0,1-1.791,1.7A11.363,11.363,0,0,0,95.2,39.1Zm-7.437-2.6a1.273,1.273,0,0,1,.034.205q0,.1-.2.246a30.161,30.161,0,0,1-3.227,1.976,2.078,2.078,0,0,0-.485.308.323.323,0,0,1-.185.109q-.075,0-.164-.137a6.979,6.979,0,0,1-.383-.759,7.02,7.02,0,0,0,1.025-.424,25.379,25.379,0,0,0,3.527-2.1A2.792,2.792,0,0,0,87.767,36.5Zm-.978-1.791a.166.166,0,0,1,.041.082q0,.048-.082.13l-.369.349q-.137.13-.171.13t-.062-.055a7.6,7.6,0,0,0-1.709-1.921q-.062-.055-.062-.082t.13-.144l.308-.294a.284.284,0,0,1,.137-.082.168.168,0,0,1,.075.027A8.575,8.575,0,0,1,86.789,34.709Zm6.631-4.594a.093.093,0,0,1,.041.068q0,.062-.137.171l-.267.239q-.144.123-.191.123a.149.149,0,0,1-.089-.055,6.737,6.737,0,0,0-1.647-1.4q-.068-.048-.068-.082t.109-.144l.294-.246q.075-.068.109-.068a.266.266,0,0,1,.1.034A8.449,8.449,0,0,1,93.42,30.115Zm11.389,2.311q.021,2.769.123,4.689a7.23,7.23,0,0,1,2.468,1.832l-.677.841a6.685,6.685,0,0,0-1.791-1.634,2.112,2.112,0,0,1-.7,1.764,2.5,2.5,0,0,1-1.647.5q-2.42,0-2.42-1.9a1.583,1.583,0,0,1,.725-1.34,2.691,2.691,0,0,1,1.586-.451,6.841,6.841,0,0,1,1.483.15q-.089-1.873-.116-4.409-1.907.062-3.821.041v-.882q1.7.055,3.808-.014V29.035h1q-.014.841-.014,2.522.875-.048,2.249-.185v.882Q106.06,32.357,104.809,32.426Zm-.854,5.407a4.28,4.28,0,0,0-1.545-.28,1.734,1.734,0,0,0-.964.253.806.806,0,0,0-.4.711q0,1.053,1.511,1.053a1.26,1.26,0,0,0,1.114-.526,1.833,1.833,0,0,0,.287-1.073Zm-4.819-8.668a41.313,41.313,0,0,0-.841,6.87,33.208,33.208,0,0,0,.335,4.341l-.978.089q-.321-3.117-.321-4.457a30.522,30.522,0,0,1,.287-3.685q.226-1.764.526-3.24ZM120.6,30.546q-.021.273-.027.7-.014.52-.014.6a35.958,35.958,0,0,1-.629,6.85,3.358,3.358,0,0,1-.718,1.634,1.778,1.778,0,0,1-1.326.479q-.731,0-1.586-.068-.205-.014-.246-.068a.656.656,0,0,1-.062-.253,2.174,2.174,0,0,0-.212-.649,12.1,12.1,0,0,0,1.989.171,1.045,1.045,0,0,0,.93-.472,3.4,3.4,0,0,0,.39-1.107,39.846,39.846,0,0,0,.6-7.116h-1.784a13.943,13.943,0,0,1-1.928,5.346,12.016,12.016,0,0,1-4.218,3.869.774.774,0,0,1-.205.1q-.062,0-.2-.2a2.444,2.444,0,0,0-.479-.444,10.94,10.94,0,0,0,4.327-3.794,13.42,13.42,0,0,0,1.839-4.874h-2.229a11.825,11.825,0,0,1-.636,1.825,9.169,9.169,0,0,1-.752,1.395,10.548,10.548,0,0,1-2.98,2.9.678.678,0,0,1-.226.109q-.075,0-.212-.2a1.793,1.793,0,0,0-.472-.431,8.71,8.71,0,0,0,3.117-2.8,8.6,8.6,0,0,0,1.265-2.8h-2.2a11.693,11.693,0,0,1-2.112,2.714q-.137.144-.212.144-.048,0-.191-.171a1.654,1.654,0,0,0-.479-.335,11.841,11.841,0,0,0,3.035-4.368,4.414,4.414,0,0,0,.253-.937,5.168,5.168,0,0,1,.9.28q.157.062.157.15t-.137.2a1.441,1.441,0,0,0-.273.417q-.1.253-.513,1.107h6.337l2-.027A.109.109,0,0,1,120.6,30.546Zm14.1,3.767-.027,1.682V37.84l.014,1.825a1.129,1.129,0,0,1-.308.937,2.109,2.109,0,0,1-1.189.239.309.309,0,0,1-.2-.041.546.546,0,0,1-.068-.2,1.457,1.457,0,0,0-.219-.6q.465.041.793.041a.37.37,0,0,0,.335-.137.77.77,0,0,0,.068-.383V37.478h-1.463v1.374l.027,1.538q0,.116-.109.116H131.8q-.109,0-.109-.116l.027-1.538V37.478h-1.333v1.374l.027,1.538q0,.116-.109.116h-.561q-.109,0-.109-.116l.027-1.538V37.478h-1.347V39.2l.027,1.6a.1.1,0,0,1-.109.109h-.608a.1.1,0,0,1-.109-.109l.027-1.572v-3.3l-.027-1.613a.1.1,0,0,1,.109-.109l1.866.027h3.247l1.859-.027A.1.1,0,0,1,134.7,34.313Zm-.8,2.5V34.914h-1.463v1.894Zm-4.245,0V34.914h-1.347v1.894Zm2.058,0V34.914h-1.333v1.894Zm-5.25,3.842q0,.109-.116.109H125.8a.1.1,0,0,1-.109-.109v-.479h-1.764v.745q0,.1-.109.1h-.561q-.116,0-.116-.1l.027-2.058v-.848l-.027-1.23a.1.1,0,0,1,.109-.109l1.155.027h.779l1.169-.027a.1.1,0,0,1,.109.109l-.027,1.025v.882Zm-.772-1.148V37.382h-1.764V39.5Zm10.049-7.089a2.026,2.026,0,0,0-.39.547q-.123.226-.185.226a.87.87,0,0,1-.2-.1,12.716,12.716,0,0,1-4.061-3.712,12.91,12.91,0,0,1-3.65,3.876.525.525,0,0,1-.212.109q-.082,0-.178-.2a1.643,1.643,0,0,0-.4-.458,9.858,9.858,0,0,0,3.685-3.685,2.969,2.969,0,0,0,.308-.779,5.092,5.092,0,0,1,.9.178q.137.055.137.157,0,.055-.1.123l-.068.041a12.047,12.047,0,0,0,2.085,2.249A11.388,11.388,0,0,0,135.741,32.412Zm-8.887-.772q0,.13-.116.13l-1.4-.027H124.12l-1.4.027q-.109,0-.109-.13v-.588q0-.1.109-.1l1.4.027h1.217l1.4-.027q.116,0,.116.1Zm6.228,1.162a.1.1,0,0,1-.109.109l-1.292-.027h-1.36l-1.285.027a.1.1,0,0,1-.109-.109v-.547a.1.1,0,0,1,.109-.109l1.285.027h1.36l1.292-.027a.1.1,0,0,1,.109.109Zm-6.508-3.049q0,.109-.116.109l-1.176-.027h-.9l-1.176.027a.1.1,0,0,1-.109-.109v-.547a.1.1,0,0,1,.109-.109l1.176.027h.9l1.176-.027q.116,0,.116.109Zm-.253,5.708q0,.1-.13.1l-1.046-.027h-.718l-1.06.027q-.116,0-.116-.1v-.554a.1.1,0,0,1,.116-.116l1.06.027h.718l1.046-.027q.13,0,.13.116Zm0-1.914q0,.109-.13.109l-1.046-.027h-.718l-1.06.027q-.116,0-.116-.109V33q0-.109.116-.109l1.06.027h.718l1.046-.027q.13,0,.13.109Zm11.2,3.931a14.949,14.949,0,0,1,1.641,1.531,10.044,10.044,0,0,1,1.169,1.483l-.923.684a11.119,11.119,0,0,0-2.7-3.035Zm20.993.957a3.38,3.38,0,0,1-.273,1.326,1.687,1.687,0,0,1-.437.479,5.82,5.82,0,0,1-2.9.417,10.217,10.217,0,0,1-1.579-.082,1.571,1.571,0,0,1-.67-.253,1.354,1.354,0,0,1-.4-1.135V35.6q-.4.123-.69.232l-.205.075a.225.225,0,0,1-.068.014q-.075,0-.1-.109l-.137-.533a.158.158,0,0,1-.014-.055q0-.055.1-.075.4-.075,1.121-.28v-.711a11.047,11.047,0,0,0-.082-1.613,8.3,8.3,0,0,1,.827.075q.164.021.164.109a.724.724,0,0,1-.068.253A4.438,4.438,0,0,0,153.036,34v.649l1.422-.424v-.615a10.812,10.812,0,0,0-.1-1.7A6.273,6.273,0,0,1,155.2,32q.157.021.157.137a1.463,1.463,0,0,1-.055.226,4.022,4.022,0,0,0-.082,1.046V34l1-.308q.7-.2,1.258-.4.342-.116.369-.123h.021q.075,0,.075.1l-.027.643A16.706,16.706,0,0,1,157.6,37.1a.857.857,0,0,1-.868.663q-.123.007-.273.007-.219,0-.479-.021-.123-.014-.15-.055a.572.572,0,0,1-.048-.2,1.437,1.437,0,0,0-.185-.567,3.639,3.639,0,0,0,.882.116.4.4,0,0,0,.438-.349,16.326,16.326,0,0,0,.239-2.563l-1.935.588v1.887l.027,1.6a.1.1,0,0,1-.109.109h-.595a.1.1,0,0,1-.109-.109l.027-1.6V34.948l-1.422.417v3.206a4.377,4.377,0,0,0,.048.813.406.406,0,0,0,.178.287,4.189,4.189,0,0,0,1.716.2,13.124,13.124,0,0,0,1.729-.075,1.232,1.232,0,0,0,.595-.219,1.052,1.052,0,0,0,.349-.622,6.746,6.746,0,0,0,.1-1.169,1.361,1.361,0,0,0,.547.28q.226.062.226.253Q158.525,38.359,158.519,38.435Zm-7.191-6.973a.1.1,0,0,1-.116.116l-1.552-.034h-1.217q-.027,1.285-.055,1.921h1.388l.868-.027a.109.109,0,0,1,.123.123q-.014.26-.027.779-.021.595-.027.9a22.077,22.077,0,0,1-.308,4.033,2.025,2.025,0,0,1-.485,1.053,1.214,1.214,0,0,1-.861.287q-.431,0-.7-.014-.157-.014-.191-.062a.694.694,0,0,1-.048-.232,1.711,1.711,0,0,0-.2-.615,5.739,5.739,0,0,0,1.053.109.535.535,0,0,0,.52-.294,3.454,3.454,0,0,0,.191-.813,33.646,33.646,0,0,0,.267-4.484H148.36a18.5,18.5,0,0,1-.54,3.773,8.717,8.717,0,0,1-1.169,2.536q-.109.15-.157.15t-.164-.123a1.806,1.806,0,0,0-.506-.437,7.835,7.835,0,0,0,1.524-3.671,34.938,34.938,0,0,0,.308-4.895l-1.511.034q-.1,0-.1-.116v-.588a.085.085,0,0,1,.1-.1l1.565.027h.916v-.937a6.96,6.96,0,0,0-.1-1.442q.54.021.909.068.185.021.185.123a.864.864,0,0,1-.082.253,3.335,3.335,0,0,0-.089,1v.937h.226l1.538-.027q.116,0,.116.1Zm7.082-.191a.1.1,0,0,1-.109.109l-1.668-.027h-3.979a10.35,10.35,0,0,1-1.23,1.764q-.116.144-.191.144t-.2-.157a1.274,1.274,0,0,0-.41-.294,8.668,8.668,0,0,0,2.092-3.473,4.21,4.21,0,0,0,.178-.943q.526.1.8.185.157.041.157.157a.332.332,0,0,1-.082.164,1.884,1.884,0,0,0-.267.574q-.26.7-.451,1.121h3.582l1.668-.027a.1.1,0,0,1,.109.109Zm10.083.937q0,.109-.116.109l-1.456-.027H166.5v6.05l.027,2.42a.1.1,0,0,1-.109.109h-.649a.1.1,0,0,1-.109-.109l.027-2.406V32.289h-.437l-1.47.027a.1.1,0,0,1-.109-.109v-.574q0-.116.109-.116l1.47.027h.438V30.354a11.11,11.11,0,0,0-.1-1.8,8.722,8.722,0,0,1,.9.082q.171.027.171.116a.379.379,0,0,1-.027.123,1.265,1.265,0,0,0-.048.13,6.158,6.158,0,0,0-.082,1.34v1.2h.417l1.456-.027a.1.1,0,0,1,.116.116Zm4.115.841q0,.123-.116.123l-1.244-.027h-.068V37.3l.014,2.194a1.173,1.173,0,0,1-.383,1.025,2.85,2.85,0,0,1-1.367.212h-.308q-.219,0-.26-.048a.6.6,0,0,1-.082-.246,2.487,2.487,0,0,0-.219-.595,10.779,10.779,0,0,0,1.258.089q.52-.021.52-.574V33.144h-.383l-1.244.027a.109.109,0,0,1-.123-.123v-.561q0-.116.123-.116l1.244.027h1.278l1.244-.027a.1.1,0,0,1,.116.116Zm-9.194-.984q0,.082-.13.164a1.094,1.094,0,0,0-.321.41,11.166,11.166,0,0,1-.725,1.162v5.209l.027,1.8q0,.109-.116.109h-.643a.1.1,0,0,1-.109-.109l.027-1.8V36.5q0-.123.041-1.723a14.384,14.384,0,0,1-1.107,1.121q-.109.109-.164.109-.075,0-.144-.15a1.759,1.759,0,0,0-.321-.506,10.411,10.411,0,0,0,2.577-3.192,3.284,3.284,0,0,0,.267-.684,5.288,5.288,0,0,1,.684.39Q163.413,31.975,163.413,32.063Zm.041-3.042q0,.1-.13.157a1.182,1.182,0,0,0-.349.335A12.765,12.765,0,0,1,160.5,32.1a.578.578,0,0,1-.2.109q-.062,0-.171-.2a1.73,1.73,0,0,0-.362-.472,9.155,9.155,0,0,0,2.5-2.5,2.091,2.091,0,0,0,.308-.629,4.717,4.717,0,0,1,.738.41Q163.454,28.926,163.454,29.021Zm1.442,5.223a.4.4,0,0,1-.068.185,1.426,1.426,0,0,0-.144.547,13.911,13.911,0,0,1-.882,3.493q-.055.171-.13.171a.565.565,0,0,1-.178-.068,1.67,1.67,0,0,0-.547-.164,11.343,11.343,0,0,0,.957-3.432q.027-.342.027-.636a2.832,2.832,0,0,0-.021-.362,6.192,6.192,0,0,1,.8.116Q164.9,34.128,164.9,34.244Zm4.04,3.486a.112.112,0,0,0,.007.027v.021q0,.075-.144.137l-.39.137a.66.66,0,0,1-.171.048q-.062,0-.068-.1a21.241,21.241,0,0,0-.8-3.726.29.29,0,0,1-.014-.068q0-.048.144-.1l.376-.13a.4.4,0,0,1,.1-.021q.055,0,.082.1A22.955,22.955,0,0,1,168.937,37.73Zm3.35-7.588q0,.116-.1.116l-1.094-.027h-.909l-1.094.027q-.109,0-.109-.116v-.588a.1.1,0,0,1,.109-.109l1.094.027h.909l1.094-.027q.1,0,.1.109Zm-3.767.267a.207.207,0,0,1,.021.075q0,.055-.1.123l-.28.178a.524.524,0,0,1-.171.089q-.041,0-.082-.089a6.681,6.681,0,0,0-.841-1.381.166.166,0,0,1-.041-.082q0-.041.109-.1l.308-.171a.445.445,0,0,1,.123-.041.114.114,0,0,1,.075.041A6.778,6.778,0,0,1,168.52,30.409Zm13.556,2.017q.021,2.769.123,4.689a7.23,7.23,0,0,1,2.468,1.832l-.677.841a6.685,6.685,0,0,0-1.791-1.634,2.112,2.112,0,0,1-.7,1.764,2.5,2.5,0,0,1-1.647.5q-2.42,0-2.42-1.9a1.583,1.583,0,0,1,.725-1.34,2.691,2.691,0,0,1,1.586-.451,6.841,6.841,0,0,1,1.483.15q-.089-1.873-.116-4.409-1.907.062-3.821.041v-.882q1.7.055,3.808-.014V29.035h1q-.014.841-.014,2.522.875-.048,2.249-.185v.882Q183.326,32.357,182.075,32.426Zm-.854,5.407a4.28,4.28,0,0,0-1.545-.28,1.734,1.734,0,0,0-.964.253.806.806,0,0,0-.4.711q0,1.053,1.511,1.053a1.26,1.26,0,0,0,1.114-.526,1.833,1.833,0,0,0,.287-1.073ZM176.4,29.165a41.313,41.313,0,0,0-.841,6.87,33.206,33.206,0,0,0,.335,4.341l-.978.089q-.321-3.117-.321-4.457a30.522,30.522,0,0,1,.287-3.685q.226-1.764.526-3.24Zm17.343,1.593a13.225,13.225,0,0,1-1.367,5.927,8.91,8.91,0,0,1-5.113,3.9l-.588-.841a8.527,8.527,0,0,0,4.553-3.247,10.554,10.554,0,0,0,1.367-5.742h-6.535v-.937h6.706a1.431,1.431,0,0,1-.1-.547,1.5,1.5,0,0,1,.513-1.162,1.53,1.53,0,0,1,1.053-.4,1.5,1.5,0,0,1,1.162.513,1.569,1.569,0,0,1-1.162,2.625A1.366,1.366,0,0,1,193.744,30.758Zm.492-2.447a.939.939,0,0,0-.725.314.954.954,0,0,0-.239.649.939.939,0,0,0,.314.725.923.923,0,0,0,.649.246.939.939,0,0,0,.725-.314.963.963,0,0,0,.239-.656.954.954,0,0,0-.964-.964Zm3.363,1.08h6.344v.937H197.6Zm-.854,2.98h7.909q-.157,4-1.955,5.961a8.381,8.381,0,0,1-4.3,2.27l-.506-.8a7.477,7.477,0,0,0,4.238-2.413,6.915,6.915,0,0,0,1.36-4.081h-6.747Zm14.007.752a32.432,32.432,0,0,1-3.931,2.632l-.574-.807a25.788,25.788,0,0,0,4.368-3.008,19.643,19.643,0,0,0,3.1-3.268l.923.574a22.1,22.1,0,0,1-2.8,2.98v8.333h-1.08Zm12.312-3.609.711-.28a19.362,19.362,0,0,1,1.039,2.365l-.759.308A14.486,14.486,0,0,0,223.063,29.514Zm1.565-.479.7-.246a11.37,11.37,0,0,1,1,2.29l-.731.294A13.487,13.487,0,0,0,224.629,29.035Zm-8.429,7.9q1.764-3.329,2.967-5.975a.978.978,0,0,1,.882-.7,1.167,1.167,0,0,1,.984.574q.971,1.429,2.857,4.184,1.8,2.618,2.625,3.835l-.923.731q-1.887-2.8-5.182-7.882a.256.256,0,0,0-.219-.144.252.252,0,0,0-.239.185q-1.21,2.618-2.816,5.708Zm11.58-2.673H235.4V35.3H227.78Zm11.908-.349v6.651h-1.08V28.816h1.08v4.061a21.8,21.8,0,0,1,5.332,2.222l-.533,1.012A17.7,17.7,0,0,0,239.688,33.909Zm10.616-2.8q.82-.068,2.071-.2l.014.868q-1.142.137-2.3.191a38.417,38.417,0,0,1-2.468,6.487l-.909-.424a29.976,29.976,0,0,0,2.379-6.016q-1.135.062-2.27.041l-.027-.868q1.176.041,2.522-.027.273-1.169.465-2.365l1.019.123Q250.605,29.869,250.3,31.113Zm3,5.79q-.123-1.5-.144-3.568h.964q0,1.791.157,3.794a9.263,9.263,0,0,1,2.563,1.6l-.52.95a7.662,7.662,0,0,0-2.017-1.524v.232q0,2.229-2.475,2.229a2.629,2.629,0,0,1-1.846-.581,1.665,1.665,0,0,1-.54-1.292,1.7,1.7,0,0,1,.889-1.5,3.244,3.244,0,0,1,1.757-.458A5.891,5.891,0,0,1,253.306,36.9Zm0,.93a4.031,4.031,0,0,0-1.162-.2,2.4,2.4,0,0,0-1.429.349.867.867,0,0,0-.383.731.886.886,0,0,0,.41.772,1.931,1.931,0,0,0,1.107.273,1.305,1.305,0,0,0,1.47-1.483Zm.055-6.357.444-.8a14.091,14.091,0,0,1,3.192,1.5l-.513.868A12.767,12.767,0,0,0,253.36,31.476Zm17.35,8.682a.1.1,0,0,1-.109.109l-1.853-.027h-8.019l-1.853.027a.1.1,0,0,1-.109-.109v-.622a.1.1,0,0,1,.109-.109l1.853.027h3.5V36.767H262.4l-1.955.027q-.13,0-.13-.109v-.608q0-.109.13-.109l1.955.027h4.765l1.962-.027a.1.1,0,0,1,.109.109v.608a.1.1,0,0,1-.109.109l-1.962-.027h-2.1v2.687h3.678l1.853-.027a.1.1,0,0,1,.109.109Zm-.362-7.731a.1.1,0,0,1-.116.116h-.643q-.109,0-.109-.116V30.778h-9.5v1.859a.1.1,0,0,1-.116.116h-.643q-.109,0-.109-.116l.027-1.4v-.417l-.027-.69q0-.123.109-.123l1.948.027h3.008v-.52a4.807,4.807,0,0,0-.1-1.08q.4.021.937.075.171.021.171.123a.9.9,0,0,1-.089.253,1.976,1.976,0,0,0-.068.629v.52h3.254l1.941-.027q.116,0,.116.123l-.027.567v.431Zm-.677.882a1.673,1.673,0,0,1-.52,1.217,3.243,3.243,0,0,1-1.736.321,3.445,3.445,0,0,1-1.75-.28,1.2,1.2,0,0,1-.321-.978v-.909a9.988,9.988,0,0,0-.068-1.36q.595.055.841.1.185.021.185.123a.9.9,0,0,1-.089.253,2.774,2.774,0,0,0-.068.813v.752q0,.513.157.6a2.589,2.589,0,0,0,1.176.157,1.98,1.98,0,0,0,1.162-.226q.246-.212.26-1.2a1.868,1.868,0,0,0,.533.28q.246.082.246.219Q269.678,33.219,269.671,33.308Zm-5.838-1.538q0,.062-.157.239a2.307,2.307,0,0,0-.239.574,4.555,4.555,0,0,1-3.411,2.9.893.893,0,0,1-.191.041q-.1,0-.212-.2a1.725,1.725,0,0,0-.451-.479,5.857,5.857,0,0,0,2.5-1.046,3.112,3.112,0,0,0,1.025-1.559,3.628,3.628,0,0,0,.171-.937,5.214,5.214,0,0,1,.793.28Q263.833,31.674,263.833,31.77Zm20.508,7.608a1.3,1.3,0,0,1-.362,1.066,1.185,1.185,0,0,1-.608.232,9.469,9.469,0,0,1-1.142.048.409.409,0,0,1-.239-.041.639.639,0,0,1-.082-.226,2.378,2.378,0,0,0-.253-.615,9.707,9.707,0,0,0,1.08.055.91.91,0,0,0,.622-.144.833.833,0,0,0,.116-.526V33.191h-2.55l-1.511.027q-.123,0-.123-.109l.027-1.2V30.225l-.027-1.2q0-.109.123-.109l1.511.027H282.7l1.518-.027a.1.1,0,0,1,.109.109l-.027,2v6.357Zm-.868-6.856V31.387h-3.356v1.135Zm0-1.8V29.623h-3.356v1.094Zm-5.5,2.393a.1.1,0,0,1-.109.109l-1.4-.027h-2.481v4.689l.027,2.912a.1.1,0,0,1-.109.109h-.663a.1.1,0,0,1-.109-.109l.027-2.912v-5.92l-.027-2.939a.1.1,0,0,1,.109-.109l1.586.027h1.641l1.4-.027a.1.1,0,0,1,.109.109l-.027,1.292v1.511Zm-.827-.588V31.387h-3.165v1.135Zm0-1.8V29.623h-3.165v1.094Zm3.9,8.866q0,.109-.116.109h-.574a.1.1,0,0,1-.109-.109V39h-3.165v.725q0,.13-.109.13H276.4q-.116,0-.116-.13l.027-2.461V36.083l-.027-1.627a.1.1,0,0,1,.109-.109l1.463.027h1.62l1.463-.027a.1.1,0,0,1,.109.109l-.027,1.415v1.292Zm-.8-1.258V36.979h-3.165v1.347Zm0-2V35.044h-3.165v1.278Zm9.837.109.957.082a5.457,5.457,0,0,0-.157,1.258,1.054,1.054,0,0,0,.444.978,3.167,3.167,0,0,0,1.545.273,25.984,25.984,0,0,0,2.769-.144l.027,1.012q-1.025.082-2.659.082a4.349,4.349,0,0,1-2.44-.492,1.783,1.783,0,0,1-.636-1.552A7.22,7.22,0,0,1,290.083,36.432Zm.28-4.676V30.8q1.75-.137,3.541-.137.889,0,1.668.041v.95q-.725-.055-1.764-.055Q292.018,31.6,290.363,31.756Zm-1.511-2.413a36.344,36.344,0,0,0-.786,6.61,24.828,24.828,0,0,0,.342,4.382l-1,.082a28.848,28.848,0,0,1-.321-4.491,40.267,40.267,0,0,1,.772-6.665Zm12.339,1.771q.82-.068,2.071-.2l.014.868q-1.142.137-2.3.191a38.416,38.416,0,0,1-2.468,6.487l-.909-.424a29.976,29.976,0,0,0,2.379-6.016q-1.135.062-2.27.041l-.027-.868q1.176.041,2.522-.027.273-1.169.465-2.365l1.019.123Q301.492,29.869,301.191,31.113Zm3,5.79q-.123-1.5-.144-3.568h.964q0,1.791.157,3.794a9.263,9.263,0,0,1,2.563,1.6l-.52.95a7.662,7.662,0,0,0-2.017-1.524v.232q0,2.229-2.475,2.229a2.629,2.629,0,0,1-1.846-.581,1.665,1.665,0,0,1-.54-1.292,1.7,1.7,0,0,1,.889-1.5,3.244,3.244,0,0,1,1.757-.458A5.891,5.891,0,0,1,304.192,36.9Zm0,.93a4.031,4.031,0,0,0-1.162-.2,2.4,2.4,0,0,0-1.429.349.867.867,0,0,0-.383.731.886.886,0,0,0,.41.772,1.931,1.931,0,0,0,1.107.273,1.305,1.305,0,0,0,1.47-1.483Zm.055-6.357.444-.8a14.091,14.091,0,0,1,3.192,1.5l-.513.868A12.767,12.767,0,0,0,304.247,31.476Zm6.487-1.935q1.853-.014,5.694-.2l.588.731q-2.728,2.769-4.327,4.156l-.629.547.055.041.718-.485a4.614,4.614,0,0,1,1.976-.533,3.547,3.547,0,0,1,2.707,1,3.071,3.071,0,0,1,.807,2.208,3.316,3.316,0,0,1-1.278,2.844,5.317,5.317,0,0,1-3.22.848q-2.741,0-2.741-1.859a1.625,1.625,0,0,1,.588-1.312,2.172,2.172,0,0,1,1.429-.451,2.3,2.3,0,0,1,1.777.752,3.444,3.444,0,0,1,.786,1.682,2.579,2.579,0,0,0,1.258-.978,2.922,2.922,0,0,0,.362-1.538,2.231,2.231,0,0,0-.868-1.873,2.671,2.671,0,0,0-1.668-.526,4.9,4.9,0,0,0-3.384,1.36A12.446,12.446,0,0,0,310.2,37.17l-.827-.67q3.35-3.445,6.132-6.275-2.01.15-4.771.226Zm3.944,10.247a3.024,3.024,0,0,0-.622-1.429,1.275,1.275,0,0,0-.984-.472,1.119,1.119,0,0,0-.807.3.828.828,0,0,0-.273.622.87.87,0,0,0,.465.827,2.872,2.872,0,0,0,1.3.226A6.036,6.036,0,0,0,314.679,39.788ZM12.934,60.823q-.021.226-.048.567-.034.41-.048.567a10.991,10.991,0,0,1-.629,3.281,1.194,1.194,0,0,1-1.176.67q-.533,0-1-.041-.185-.021-.219-.068a.594.594,0,0,1-.075-.226,2.021,2.021,0,0,0-.239-.643,7.353,7.353,0,0,0,1.306.137.993.993,0,0,0,.485-.082.637.637,0,0,0,.253-.383,11.232,11.232,0,0,0,.465-3.165H3.418a15.125,15.125,0,0,1-1.976,1.729.87.87,0,0,1-.2.1q-.068,0-.2-.171a1.67,1.67,0,0,0-.417-.437,13.067,13.067,0,0,0,3.179-2.892,13.779,13.779,0,0,0,1.859-3.083H3.623l-1.955.027q-.116,0-.116-.109v-.561q0-.109.116-.109l1.955.027H5.961q.109-.287.321-1.025a6.81,6.81,0,0,0,.267-1.5q.526.068.909.157.2.048.2.164a.441.441,0,0,1-.144.267,4.417,4.417,0,0,0-.349.957q-.13.431-.321.978H8.552l1.989-.027q.13,0,.13.1a.076.076,0,0,1-.007.034l-.15.882q-.068.355-.28,1.374l1.148-.027q.123,0,.123.109l-.15.841q-.1.656-.28,1.47l1.736-.027q.13,0,.13.1A.076.076,0,0,1,12.934,60.823Zm-2.365-1.777H5.3a14.727,14.727,0,0,1-1.23,1.668h6.159Q10.432,59.941,10.568,59.046Zm-.841-2.365H6.549a13.605,13.605,0,0,1-.807,1.641H9.406A14.661,14.661,0,0,0,9.728,56.681ZM4.3,62.7a8.757,8.757,0,0,1-1.5,2.974.114.114,0,0,1-.089.055.248.248,0,0,1-.13-.062L2.153,65.4q-.109-.075-.109-.116a.137.137,0,0,1,.041-.075,6.71,6.71,0,0,0,1.483-2.789q.021-.075.062-.075a1.346,1.346,0,0,1,.178.048l.376.13q.13.034.13.1A.377.377,0,0,1,4.3,62.7Zm2.085,2.283v.041q0,.082-.185.13l-.417.1a.474.474,0,0,1-.109.021q-.075,0-.089-.13a13.471,13.471,0,0,0-.376-2.563.294.294,0,0,1-.007-.055q0-.068.171-.1l.335-.068a1.07,1.07,0,0,1,.137-.021q.055,0,.075.089A14.144,14.144,0,0,1,6.385,64.986Zm2.3-.643a.294.294,0,0,1,.007.055q0,.055-.15.109l-.39.144a.5.5,0,0,1-.13.027q-.055,0-.082-.1a11.163,11.163,0,0,0-.725-2.194.157.157,0,0,1-.021-.062q0-.048.144-.1l.349-.109a.325.325,0,0,1,.089-.021q.041,0,.082.075A10.994,10.994,0,0,1,8.682,64.344ZM5,55.129a.157.157,0,0,1,.021.062q0,.041-.116.109l-.451.239a.48.48,0,0,1-.137.055q-.041,0-.089-.1a6.188,6.188,0,0,0-.909-1.47.119.119,0,0,1-.034-.068q0-.041.137-.109l.39-.2a.332.332,0,0,1,.123-.048.133.133,0,0,1,.089.048A6.492,6.492,0,0,1,5,55.129Zm5.783,8.388a.161.161,0,0,1,.021.068q0,.062-.123.116l-.335.15a.481.481,0,0,1-.157.055q-.048,0-.082-.082a7.107,7.107,0,0,0-.923-1.613.133.133,0,0,1-.027-.068q0-.048.144-.109l.294-.144a.262.262,0,0,1,.1-.034q.041,0,.089.062A7.308,7.308,0,0,1,10.78,63.517Zm4.792-1.039a14.948,14.948,0,0,1,1.641,1.531,10.045,10.045,0,0,1,1.169,1.483l-.923.684a11.119,11.119,0,0,0-2.7-3.035Zm19.086-4.689a.1.1,0,0,1-.109.109L32.56,57.87H27.911l-1.989.027a.1.1,0,0,1-.109-.109l.027-1.162V55.313l-.027-1.148q0-.123.109-.123l1.989.027H32.56l1.989-.027q.109,0,.109.123l-.027,1.148v1.313Zm-.841-.561v-.95H26.653v.95Zm0-1.593v-.9H26.653v.9Zm2.721,3.726q0,.109-.116.109l-1.777-.027H29.873v4.771l.027,1.7q0,.116-.109.116h-.6a.1.1,0,0,1-.116-.116l.027-1.552q-1.647.328-4.026.7a1.774,1.774,0,0,0-.506.13.621.621,0,0,1-.185.068q-.089,0-.137-.171a5.274,5.274,0,0,1-.2-.7q.759-.027,1.2-.089l.52-.055v-4.8l-1.654.027a.1.1,0,0,1-.109-.109v-.52a.1.1,0,0,1,.109-.109l1.777.027h8.75l1.777-.027q.116,0,.116.109ZM29.1,63.708V62.8H26.544v1.333Q27.59,63.988,29.1,63.708Zm0-1.538V61.1H26.544V62.17Zm0-1.7V59.442H26.544v1.032Zm7.355,4.443a1.89,1.89,0,0,0-.335.485q-.116.219-.185.219a.811.811,0,0,1-.185-.048,8.98,8.98,0,0,1-2.563-1.415,9.987,9.987,0,0,1-2.379,1.5.813.813,0,0,1-.205.068q-.068,0-.185-.2a1.4,1.4,0,0,0-.362-.431,8.263,8.263,0,0,0,2.591-1.429,8.308,8.308,0,0,1-1.641-2.434l-.561.014q-.109,0-.109-.123v-.479a.1.1,0,0,1,.109-.109l1.511.027H34.48a.932.932,0,0,0,.212-.027.364.364,0,0,1,.164-.041q.1,0,.321.2.253.232.253.335a.225.225,0,0,1-.109.191,1.224,1.224,0,0,0-.308.465,7.792,7.792,0,0,1-1.292,1.941A8.748,8.748,0,0,0,36.456,64.918Zm-2.03-3.7H31.794a6.5,6.5,0,0,0,1.381,1.948A7.566,7.566,0,0,0,34.426,61.22Zm15.989.171a.1.1,0,0,1-.109.109l-1.839-.027h-8.34l-1.839.027a.1.1,0,0,1-.109-.109v-.533a.1.1,0,0,1,.109-.109l1.839.027h1.087a7.888,7.888,0,0,0-.684-1.08.2.2,0,0,1-.048-.082q0-.027.144-.089L41,59.367a.488.488,0,0,1,.13-.034.146.146,0,0,1,.1.068,7.681,7.681,0,0,1,.882,1.374h1.654V59.032H40.223l-1.846.027q-.116,0-.116-.109v-.533q0-.109.116-.109l1.846.027h3.541v-1.08H41.877l-1.976.027q-.1,0-.1-.109v-.506q0-.109.1-.109l1.976.027h1.887V55.546H41.118l-1.962.027a.1.1,0,0,1-.109-.109v-.52a.1.1,0,0,1,.109-.109l1.962.027h1.053a7.689,7.689,0,0,0-.813-1.094Q41.3,53.7,41.3,53.68q0-.048.13-.1l.39-.2a.423.423,0,0,1,.13-.041.15.15,0,0,1,.1.055,8.217,8.217,0,0,1,1.08,1.47h2.153a10.017,10.017,0,0,0,.629-.978,2.616,2.616,0,0,0,.226-.561,4.32,4.32,0,0,1,.759.253q.144.062.144.13a.052.052,0,0,1-.007.021q0,.082-.123.157a1.13,1.13,0,0,0-.267.28,6.353,6.353,0,0,1-.506.7h1.388l1.948-.027a.1.1,0,0,1,.109.109v.52a.1.1,0,0,1-.109.109l-1.948-.027H44.6v1.039H46.73l1.962-.027q.123,0,.123.109v.506q0,.109-.123.109l-1.962-.027H44.6v1.08h3.808l1.859-.027q.116,0,.116.109v.533q0,.109-.116.109l-1.859-.027H44.6v1.743h1.736a9.122,9.122,0,0,0,.52-.827,3.211,3.211,0,0,0,.239-.581,5.184,5.184,0,0,1,.772.239.154.154,0,0,1,.109.144q0,.082-.13.157a1.113,1.113,0,0,0-.253.294,5.394,5.394,0,0,1-.39.574h1.258l1.839-.027a.1.1,0,0,1,.109.109Zm-1.921,4.491a.1.1,0,0,1-.109.109h-.636a.1.1,0,0,1-.109-.109v-.533H40.968v.561q0,.1-.109.1h-.636q-.109,0-.109-.1l.027-1.791v-.643l-.027-.964a.1.1,0,0,1,.109-.109l1.962.027h4.238l1.962-.027a.1.1,0,0,1,.109.109l-.027.841v.766Zm-.854-1.217V63.113H40.968v1.552ZM57.7,55.847a22.039,22.039,0,0,1-1.483,7.362,2.1,2.1,0,0,1-1.894,1.483,1.749,1.749,0,0,1-1.606-1.06,6,6,0,0,1-.533-2.789,7.335,7.335,0,0,1,.458-2.618A5.114,5.114,0,0,1,53.676,56.5a4.675,4.675,0,0,1,1.716-1.128,5.426,5.426,0,0,1,1.969-.369,4.139,4.139,0,0,1,3.555,1.5,6.371,6.371,0,0,1,.964,3.808,5.114,5.114,0,0,1-1.121,3.4,5.6,5.6,0,0,1-3.274,1.784L57,64.651a4.243,4.243,0,0,0,3.835-4.607,4.67,4.67,0,0,0-1.032-3.3A2.809,2.809,0,0,0,57.7,55.847Zm-1.053.109a3.075,3.075,0,0,0-1.292.4,4.459,4.459,0,0,0-1.06.93,5.252,5.252,0,0,0-1.148,3.582A4.6,4.6,0,0,0,53.553,63q.328.615.752.615a.82.82,0,0,0,.622-.26,2.544,2.544,0,0,0,.444-.759A19.819,19.819,0,0,0,56.643,55.956ZM75.92,58.889q0,.109-.1.109l-1.976-.027H71.791V64.4h1.723l1.914-.027q.116,0,.116.109v.6q0,.13-.116.13l-1.914-.027H69.467l-1.935.027q-.1,0-.1-.13v-.6q0-.109.1-.109l1.935.027h1.456V58.971H69.2L67.238,59a.1.1,0,0,1-.109-.109v-.622a.1.1,0,0,1,.109-.109l1.962.027h1.723V55.621a13.689,13.689,0,0,0-.1-1.928,8.986,8.986,0,0,1,.964.082q.157.021.157.123a1.28,1.28,0,0,1-.055.239,5.984,5.984,0,0,0-.1,1.456v2.591h2.058l1.976-.027q.1,0,.1.109Zm-8.408-5.031a.284.284,0,0,1-.123.212,1.433,1.433,0,0,0-.267.5,22.7,22.7,0,0,1-.984,2.174v6.925l.027,2.2a.1.1,0,0,1-.109.109h-.677a.1.1,0,0,1-.109-.109l.027-2.2V60.044q0-.6.027-1.887A17.336,17.336,0,0,1,63.9,60.092q-.1.123-.164.123t-.13-.157a1.793,1.793,0,0,0-.349-.574,14.991,14.991,0,0,0,3.028-5.168,3.921,3.921,0,0,0,.191-.937,8.547,8.547,0,0,1,.882.308Q67.512,53.762,67.512,53.857Zm22.7,10.678a1.86,1.86,0,0,0-.451.479q-.089.171-.164.171a.433.433,0,0,1-.2-.1,10.65,10.65,0,0,1-2.331-2.01,8.641,8.641,0,0,1-1.278-2.112q.055,2.939.055,3.657a1.138,1.138,0,0,1-.362.991,2.854,2.854,0,0,1-1.415.239.264.264,0,0,1-.369-.28,1.561,1.561,0,0,0-.246-.588,8.255,8.255,0,0,0,.923.055.82.82,0,0,0,.554-.123.62.62,0,0,0,.1-.424V62.888q-1.244.807-2.769,1.62a1.943,1.943,0,0,0-.506.314q-.089.109-.157.109t-.123-.123q-.144-.253-.362-.745a4.57,4.57,0,0,0,.807-.294,26.732,26.732,0,0,0,3.11-1.7V60.03h-1.3l-1.935.027q-.1,0-.1-.109V59.4q0-.109.1-.109l1.935.027h1.3V58.062h-.8l-1.764.027q-.109,0-.109-.116V57.46q0-.116.109-.116l1.764.027h.8v-1.2h-.991l-1.88.027q-.109,0-.109-.1v-.554a.1.1,0,0,1,.109-.109l1.88.027h2.085a12.2,12.2,0,0,0,.752-1.429,2.654,2.654,0,0,0,.185-.588,5.368,5.368,0,0,1,.725.212q.171.048.171.15,0,.075-.137.185a.677.677,0,0,0-.2.267,12.632,12.632,0,0,1-.7,1.2h.465l1.846-.027q.13,0,.13.109V56.1q0,.1-.13.1l-1.846-.027H85.812v1.2h1.176l1.75-.027q.109,0,.109.116v.513q0,.116-.109.116l-1.75-.027H85.812v1.258h1.941l1.935-.027a.1.1,0,0,1,.109.109v.547a.1.1,0,0,1-.109.109l-1.935-.027h-1.8a9.615,9.615,0,0,0,1.189,2.03,11.044,11.044,0,0,0,1.121-1.053,1.977,1.977,0,0,0,.335-.485,4.885,4.885,0,0,1,.574.444.258.258,0,0,1,.116.185q0,.109-.137.15a1.1,1.1,0,0,0-.424.294,13.717,13.717,0,0,1-1.135,1A10.167,10.167,0,0,0,90.207,64.535ZM81.662,56.92q0,.116-.109.116l-1.258-.027h-.089a9.323,9.323,0,0,0,1.442,3.035,1.831,1.831,0,0,0-.349.533q-.068.15-.123.15t-.13-.15a12.545,12.545,0,0,1-.964-2.673q.007,2.755.082,5.79.014.759.041,1.7.014.465.014.506a.085.085,0,0,1-.1.1h-.67q-.116,0-.116-.1s.009-.406.027-1.2q.1-3.541.116-6.6a15.75,15.75,0,0,1-1.641,4.437q-.089.157-.137.157-.075,0-.116-.137a1.211,1.211,0,0,0-.362-.547,15.308,15.308,0,0,0,2.058-5h-.308l-1.271.027a.1.1,0,0,1-.116-.116v-.547q0-.123.116-.123l1.271.027h.417v-1.2a8.8,8.8,0,0,0-.109-1.668,6.609,6.609,0,0,1,.882.089q.171.021.171.123a.676.676,0,0,1-.082.253,4.858,4.858,0,0,0-.075,1.189v1.217h.116l1.258-.027q.109,0,.109.123Zm2.146,4.819q.048.048.048.075t-.1.137l-.294.273q-.116.123-.164.123-.027,0-.068-.062a6.8,6.8,0,0,0-1.176-1.306Q82,60.939,82,60.912t.109-.137l.239-.226q.109-.1.15-.1t.068.048A6.8,6.8,0,0,1,83.809,61.739Zm.725-6.918a.168.168,0,0,1,.014.062q0,.048-.1.109l-.41.219a.441.441,0,0,1-.164.075q-.041,0-.075-.089a4.652,4.652,0,0,0-.786-1.258.112.112,0,0,1-.041-.068q0-.041.144-.116l.362-.178a.368.368,0,0,1,.123-.041.146.146,0,0,1,.1.068A6.6,6.6,0,0,1,84.533,54.821Zm12.694,5.8v2.769h-.937V61.049q-.321.164-.663.355-1.791,1.012-1.791,2.03a.927.927,0,0,0,.629.943,6.4,6.4,0,0,0,2.078.232q1.47,0,3.411-.171l.041.95q-2.55.13-3.384.13a5.879,5.879,0,0,1-2.967-.513,1.772,1.772,0,0,1-.7-1.6,3.066,3.066,0,0,1,1.88-2.55q.711-.4,1.456-.772-.068-1.312-.909-1.312-1.176,0-3.227,2.365l-.725-.643a16.348,16.348,0,0,0,2.9-4.136q-1.278.021-2.563,0V55.5q1.477.027,2.953,0a12.51,12.51,0,0,0,.629-1.873l1.012.185a14.376,14.376,0,0,1-.588,1.647q1.969-.062,3.739-.239l.027.854q-2.3.185-4.143.239a14.3,14.3,0,0,1-1.176,1.989l-.355.362.041.055a2.492,2.492,0,0,1,1.668-.711,1.521,1.521,0,0,1,1.114.424,1.982,1.982,0,0,1,.526,1.217q1.094-.5,2.844-1.237l.39.957Q98.157,60.208,97.228,60.618Zm15.832,1.039-.027,1.244v.4l.014.984a.961.961,0,0,1-.294.807,3.637,3.637,0,0,1-1.723.253.546.546,0,0,1-.26-.034.64.64,0,0,1-.089-.246,1.3,1.3,0,0,0-.239-.526q.622.048,1.2.048.547,0,.547-.5V62.3h-3.637v2.017l.027,1.593q0,.1-.109.1H107.8q-.109,0-.109-.1l.027-1.593V62.3h-3.363v1.668l.027,1.326q0,.116-.109.116h-.677q-.109,0-.109-.116l.027-1.354V62.819l-.027-1.162a.1.1,0,0,1,.109-.109l2,.027h2.119V60.3h-.8l-1.771.034a.1.1,0,0,1-.109-.109l.027-.943v-.834l-.027-.93q0-.116.109-.116l1.771.027h2.618L111.3,57.4q.109,0,.109.116l-.027.93v.834l.027.943a.1.1,0,0,1-.109.109l-1.771-.034h-.978v1.278h2.393l2-.027A.1.1,0,0,1,113.06,61.657ZM110.6,59.613v-1.5h-4.751v1.5Zm3.356-1.347a.1.1,0,0,1-.109.109h-.636a.1.1,0,0,1-.109-.109V56.332h-9.687v1.935a.1.1,0,0,1-.109.109h-.629q-.116,0-.116-.109l.027-1.442V56.4l-.027-.7a.1.1,0,0,1,.109-.109l1.935.027h3.124v-.786a7.032,7.032,0,0,0-.13-1.511,8.918,8.918,0,0,1,.95.082q.171.027.171.116a.9.9,0,0,1-.082.267,4.137,4.137,0,0,0-.068,1.046v.786h1.395a12.471,12.471,0,0,0,.745-1.319,2.273,2.273,0,0,0,.191-.629,7.714,7.714,0,0,1,.813.212q.171.062.171.171a.213.213,0,0,1-.123.178.978.978,0,0,0-.239.294q-.328.54-.7,1.094h1.094l1.935-.027a.1.1,0,0,1,.109.109l-.027.615v.506Zm-7.964-3.247a.132.132,0,0,1,.027.062q0,.034-.144.116l-.4.226a.371.371,0,0,1-.137.062q-.041,0-.075-.075a5.981,5.981,0,0,0-.854-1.312.229.229,0,0,1-.055-.089q0-.027.144-.1l.417-.2a.375.375,0,0,1,.109-.034.168.168,0,0,1,.1.062A9.513,9.513,0,0,1,105.991,55.02Zm13.638,6.412.957.082a5.457,5.457,0,0,0-.157,1.258,1.054,1.054,0,0,0,.444.978,3.167,3.167,0,0,0,1.545.273,25.984,25.984,0,0,0,2.769-.144l.027,1.012q-1.025.082-2.659.082a4.349,4.349,0,0,1-2.44-.492,1.783,1.783,0,0,1-.636-1.552A7.22,7.22,0,0,1,119.629,61.432Zm.28-4.676V55.8q1.75-.137,3.541-.137.889,0,1.668.041v.95q-.725-.055-1.764-.055Q121.563,56.6,119.909,56.756ZM118.4,54.343a36.343,36.343,0,0,0-.786,6.61,24.829,24.829,0,0,0,.342,4.382l-1,.082a28.849,28.849,0,0,1-.321-4.491,40.268,40.268,0,0,1,.772-6.665Zm21.246,10.821a1.571,1.571,0,0,0-.308.52q-.089.246-.178.246a1.079,1.079,0,0,1-.205-.041,5.971,5.971,0,0,1-4.143-2.782,5.357,5.357,0,0,1-3.732,2.844,1.079,1.079,0,0,1-.205.041q-.1,0-.205-.212a1.666,1.666,0,0,0-.39-.458q3-.636,3.808-2.536h-1.244l-1.948.027a.1.1,0,0,1-.109-.109v-.52a.1.1,0,0,1,.109-.109l1.948.027h1.47a6.163,6.163,0,0,0,.137-1.162h-.813l-1.777.027a.1.1,0,0,1-.109-.109l.027-1.251V57.952l-.027-1.244a.1.1,0,0,1,.109-.109l1.777.027h2.734l1.764-.027a.1.1,0,0,1,.109.109l-.027,1.244v1.654l.027,1.251a.1.1,0,0,1-.109.109l-1.764-.027h-1.094a9.285,9.285,0,0,1-.137,1.162h2.181l1.962-.027a.1.1,0,0,1,.109.109v.52a.1.1,0,0,1-.109.109l-1.962-.027h-1.907A5.754,5.754,0,0,0,139.645,65.164Zm-2.215-4.881V59.06h-4.867v1.224Zm0-1.853V57.282h-4.867v1.148Zm-6.255,1.613a1.923,1.923,0,0,0-.383.5q-.082.171-.137.171t-.123-.15a15.432,15.432,0,0,1-1.094-2.591q.007,2.728.075,5.735.014.738.034,1.675.014.458.014.5a.085.085,0,0,1-.1.1h-.67q-.116,0-.116-.1,0-.014.027-1.2.082-3.507.1-6.515a16.211,16.211,0,0,1-1.627,4.354q-.089.15-.137.15-.075,0-.116-.137a1.211,1.211,0,0,0-.362-.547,15.948,15.948,0,0,0,2.058-5H128.3l-1.271.027a.1.1,0,0,1-.116-.116v-.547q0-.123.116-.123l1.271.027h.431v-1.2a8.8,8.8,0,0,0-.109-1.668,7.576,7.576,0,0,1,.882.082q.171.027.171.13a.676.676,0,0,1-.082.253,4.859,4.859,0,0,0-.075,1.189v1.217h.13l1.258-.027q.109,0,.109.123v.547q0,.116-.109.116L129.65,57h-.089A9.525,9.525,0,0,0,131.175,60.044Zm8.162-4.744q0,.109-.1.109l-1.955-.027h-.465l.014.8a.1.1,0,0,1-.109.109h-.574q-.116,0-.116-.109,0-.027.014-.267.007-.267.021-.533h-2.105l.014.786q0,.109-.1.109h-.588a.1.1,0,0,1-.109-.109q0-.021.007-.26.014-.267.021-.526h-.185l-1.948.027q-.1,0-.1-.109v-.52a.085.085,0,0,1,.1-.1l1.948.014h.185a6.2,6.2,0,0,0-.089-1.271,7.622,7.622,0,0,1,.813.068q.157.021.157.123a.372.372,0,0,1-.055.185,2.608,2.608,0,0,0-.075.868V54.7h2.105a5.578,5.578,0,0,0-.089-1.258q.4.014.827.068.144.021.144.123a.372.372,0,0,1-.055.185,2.539,2.539,0,0,0-.075.854V54.7h.465l1.955-.014q.1,0,.1.1Zm13.48,4a.1.1,0,0,1-.109.109h-.649a.1.1,0,0,1-.109-.109V57.6h-9.461v1.7a.1.1,0,0,1-.109.109h-.649a.1.1,0,0,1-.109-.109l.027-1.306v-.4l-.027-.615a.1.1,0,0,1,.109-.109l1.962.027h2.953V55.7h-2.857l-1.914.027a.1.1,0,0,1-.109-.109v-.581a.1.1,0,0,1,.109-.109l1.914.027h2.857v-.123a6.973,6.973,0,0,0-.109-1.456q.451.014.93.068.185.021.185.123a.834.834,0,0,1-.082.267,3.6,3.6,0,0,0-.082,1v.123h3.179l1.914-.027q.116,0,.116.109v.581q0,.109-.116.109l-1.914-.027h-3.179v1.2h3.274l1.948-.027a.1.1,0,0,1,.109.109l-.027.561v.458Zm.267,2.987a.155.155,0,0,1,.048.089q0,.041-.1.123l-.383.294a.48.48,0,0,1-.15.089q-.027,0-.068-.062-.383-.492-.731-.882-1.859.212-4.156.362v2.338l.027,1.244q0,.116-.109.116h-.677q-.109,0-.109-.116l.027-1.244V62.354q-2.468.144-4.184.185a1.538,1.538,0,0,0-.588.082.4.4,0,0,1-.185.068q-.089,0-.15-.15a5.188,5.188,0,0,1-.2-.813q.622.034,1.087.034.185,0,.355-.007,1.729-.021,3.138-.1a18.565,18.565,0,0,0-2.57-2.017q-.062-.034-.062-.068t.109-.144l.294-.253q.075-.089.116-.089a.182.182,0,0,1,.082.034l.95.663a17.621,17.621,0,0,0,1.176-1.4,2.519,2.519,0,0,0,.349-.69,6.477,6.477,0,0,1,.7.321q.171.089.171.171t-.157.171a1.139,1.139,0,0,0-.349.321,15.332,15.332,0,0,1-1.326,1.524q.239.191,1.135.95a20.935,20.935,0,0,0,1.818-1.9,3.554,3.554,0,0,0,.533-.813,7.762,7.762,0,0,1,.745.39.2.2,0,0,1,.109.157q0,.1-.157.178a1.2,1.2,0,0,0-.39.308,20.146,20.146,0,0,1-2.2,2.146q2.427-.137,4.033-.294-.4-.376-.909-.8-.062-.055-.062-.075,0-.041.116-.137l.308-.253a.2.2,0,0,1,.109-.055.142.142,0,0,1,.089.041A15.489,15.489,0,0,1,153.084,62.286Zm-.308,2.618a2.413,2.413,0,0,0-.417.458q-.144.226-.212.226a.58.58,0,0,1-.2-.082,13.036,13.036,0,0,1-2.857-2.146q-.048-.034-.048-.068t.137-.137l.335-.226a.239.239,0,0,1,.123-.068.155.155,0,0,1,.089.048A10.229,10.229,0,0,0,152.776,64.9ZM145.4,63.517q0,.1-.171.164a1.756,1.756,0,0,0-.39.28,9.841,9.841,0,0,1-2.379,1.586.552.552,0,0,1-.212.082q-.048,0-.2-.212a1.849,1.849,0,0,0-.431-.4,8.3,8.3,0,0,0,2.475-1.442,3.6,3.6,0,0,0,.547-.629,6.434,6.434,0,0,1,.649.39A.232.232,0,0,1,145.4,63.517Zm10.616-9.55h1.046q-.239,7.191-.239,8.668a2.135,2.135,0,0,0,.458,1.579,2.222,2.222,0,0,0,1.545.424,3.218,3.218,0,0,0,2.44-.943,5.471,5.471,0,0,0,1.217-2.673l.95.479q-.93,4.074-4.58,4.074a3.2,3.2,0,0,1-2.4-.718,3.1,3.1,0,0,1-.608-2.153q0-.766.062-3.753Q155.989,55.334,156.017,53.967Zm17.623.772.027.964a5.312,5.312,0,0,0-2.311.629,5.934,5.934,0,0,0-2.071,1.962,4.817,4.817,0,0,0-.813,2.659,2.958,2.958,0,0,0,1.285,2.529,6.17,6.17,0,0,0,2.933,1l-.239,1a6.1,6.1,0,0,1-3.63-1.381,3.89,3.89,0,0,1-1.312-3.049,5.709,5.709,0,0,1,2.994-5.024l.759-.335-.014-.027-.656.109q-1.189.068-5.66.479l-.082-.923Q166.852,55.177,173.64,54.739Zm4.354,1.354V53.83h.964v2.208q1.511-.1,2.591-.219v.909q-1.224.123-2.591.205v2.707a8.692,8.692,0,0,1,2.646-.479,2.9,2.9,0,0,1,2.577,1.169,3.273,3.273,0,0,1,.533,1.894,2.654,2.654,0,0,1-1.3,2.591,6.067,6.067,0,0,1-2.707.465v-.9a3.954,3.954,0,0,0,2.167-.444,2.048,2.048,0,0,0,.772-1.825,2.11,2.11,0,0,0-.6-1.524,1.724,1.724,0,0,0-1.285-.561,7.651,7.651,0,0,0-2.8.533v3.609a1.437,1.437,0,0,1-.273,1,1.054,1.054,0,0,1-.786.26,2.259,2.259,0,0,1-1.189-.376,2.427,2.427,0,0,1-1.347-2.03q0-1.736,2.632-3.049v-3q-.813.048-2.434.075v-.9Q176.873,56.154,177.994,56.093Zm0,4.9a5.118,5.118,0,0,0-1.306,1.019,1.511,1.511,0,0,0-.39.984,1.078,1.078,0,0,0,.335.759,1.888,1.888,0,0,0,.69.458.9.9,0,0,0,.39.1q.28,0,.28-.465Zm3.9-5.64.6-.731a12.831,12.831,0,0,1,2.816,2.229l-.684.772A11,11,0,0,0,181.9,55.354Zm5.927-1.258.971.123a38.255,38.255,0,0,0-.424,4.9,10.011,10.011,0,0,0,.055,1.162q.506-1.2.957-2.1l.643.5a17.362,17.362,0,0,0-.978,2.2,6.692,6.692,0,0,0-.239.841l-1.08.014a13.112,13.112,0,0,1-.294-2.816A40.7,40.7,0,0,1,187.824,54.1Zm4.662.055,1.012-.041q.137,2.6.137,4.758a14.871,14.871,0,0,1-.239,3.042,4.749,4.749,0,0,1-.7,1.647,5.8,5.8,0,0,1-3.527,2.112l-.6-.807a4.78,4.78,0,0,0,3.151-1.7q.923-1.189.923-4.341Q192.644,56.94,192.486,54.151Zm7.923,1.442q-.027-1.176-.027-1.853h1v1.812q1.7-.062,3.37-.267v.868q-1.531.185-3.356.253l.041,2.01q1.935-.089,3.247-.26v.868q-1.538.171-3.233.232.014.335.062,1.449.027.745.048,1.2a10.066,10.066,0,0,1,3.726,2.372l-.7.861a9.516,9.516,0,0,0-3.015-2.249v.15a2.184,2.184,0,0,1-2.475,2.468,3.271,3.271,0,0,1-2.017-.5,1.7,1.7,0,0,1-.6-1.436,1.679,1.679,0,0,1,.8-1.449,3.138,3.138,0,0,1,1.832-.5,8.4,8.4,0,0,1,1.47.1q-.048-.848-.1-2.427-1.825.048-3.644,0v-.848q1.7.055,3.63.014-.027-.383-.034-1.087-.014-.663-.027-.943-2.105.041-3.794-.027v-.841Q198.3,55.642,200.409,55.594Zm.171,7.055a5.407,5.407,0,0,0-1.374-.185q-1.832,0-1.832,1.107,0,1.066,1.654,1.066,1.552,0,1.552-1.866ZM213.1,56.5q-.041,1.518,0,3.035a5.324,5.324,0,0,1,.308,1.777,3.687,3.687,0,0,1-1.306,3.069,7.744,7.744,0,0,1-3.274,1.271l-.588-.841a6.334,6.334,0,0,0,3.411-1.381,2.741,2.741,0,0,0,.807-1.88,1.856,1.856,0,0,1-1.8.882,2.2,2.2,0,0,1-1.531-.574,2.3,2.3,0,0,1,.123-3.356,2.469,2.469,0,0,1,1.559-.492,2,2,0,0,1,1.36.39q-.027-1.312-.027-1.873-2.249.034-5.435.239l-.014-.9q2.584-.1,5.435-.171V53.8l1,.014q0,.629-.027,1.859,2.324-.027,3.363-.027v.9Q214.778,56.5,213.1,56.5Zm-2.338,2.3a1.322,1.322,0,0,0-.984.4,1.413,1.413,0,0,0-.39,1.046,1.237,1.237,0,0,0,.444,1,1.288,1.288,0,0,0,.848.294,1.406,1.406,0,0,0,1.1-.41,1.3,1.3,0,0,0,.314-.916Q212.092,58.8,210.759,58.8Zm9.324,3.527a1.915,1.915,0,0,1,1.463.643,1.916,1.916,0,0,1-.144,2.748,1.936,1.936,0,0,1-1.319.5,1.9,1.9,0,0,1-1.463-.643,1.916,1.916,0,0,1,.144-2.748A1.936,1.936,0,0,1,220.083,62.327Zm0,.7a1.269,1.269,0,0,0-1.251,1.251,1.253,1.253,0,0,0,2.181.834,1.247,1.247,0,0,0-.93-2.085ZM13.494,88.811a2.211,2.211,0,0,1-.561,1.552,2.509,2.509,0,0,1-1.552.362A6.232,6.232,0,0,1,9.933,90.6q-.5-.15-.5-.868v-3.22H8.3a4.425,4.425,0,0,1-1.34,3.008A7.024,7.024,0,0,1,4.088,90.9a.651.651,0,0,1-.178.041q-.089,0-.239-.226a1.688,1.688,0,0,0-.41-.444,6.865,6.865,0,0,0,3.165-1.333,3.5,3.5,0,0,0,1.025-2.42q-.643.014-1.128.021L6,86.541a.1.1,0,0,1-.109-.109l.027-1.723V80.874l-.027-1.7q0-.13.109-.13l1.75.027h2.57l1.736-.027q.116,0,.116.13l-.027,1.7v3.835l.027,1.723q0,.109-.116.109l-1.736-.027h-.055v2.83a1.076,1.076,0,0,0,.048.4.275.275,0,0,0,.219.137,4.762,4.762,0,0,0,.868.055,1.729,1.729,0,0,0,.978-.2.856.856,0,0,0,.314-.595,8.2,8.2,0,0,0,.082-.991,2.415,2.415,0,0,0,.526.308q.212.1.212.212A1.11,1.11,0,0,1,13.494,88.811ZM11.327,85.8V84.23H6.74V85.8Zm0-4.484v-1.49H6.74v1.49Zm0,2.2v-1.5H6.74v1.5Zm-6-3.445q0,.13-.116.13l-1.367-.027H3.534V83.2h.178l1.278-.027a.1.1,0,0,1,.109.109v.588q0,.116-.109.116l-1.278-.027H3.534v3.049A17.771,17.771,0,0,0,5.312,86.1a2.482,2.482,0,0,0-.021.321q0,.116.007.226t.007.144q0,.144-.219.273a26.433,26.433,0,0,1-3.22,1.5,1.982,1.982,0,0,0-.52.239.232.232,0,0,1-.157.082q-.068,0-.123-.123a6.122,6.122,0,0,1-.28-.813,7.785,7.785,0,0,0,1.285-.362q.212-.068.636-.239V83.957H2.468L1.2,83.984q-.109,0-.109-.116V83.28a.1.1,0,0,1,.109-.109l1.265.027h.239V80.177H2.365L1,80.2q-.1,0-.1-.13v-.588q0-.109.1-.109l1.367.027H3.842l1.367-.027q.116,0,.116.109Zm21.725,1.21q0,.109-.116.109l-1.846-.027H19.756a12.906,12.906,0,0,1-1.921,3.083v4.587l.027,1.8a.1.1,0,0,1-.109.109h-.677a.1.1,0,0,1-.109-.109l.027-1.8V85.372a17.028,17.028,0,0,1-1.606,1.374.525.525,0,0,1-.212.109q-.062,0-.185-.185a1.52,1.52,0,0,0-.458-.444,12.46,12.46,0,0,0,2.447-2.044,7.329,7.329,0,0,0-.082-.8q.458.027.7.055a10.711,10.711,0,0,0,1.251-2.071H16.939l-1.846.027q-.116,0-.116-.109v-.608q0-.109.116-.109l1.846.027h2.229a11.069,11.069,0,0,0,.417-1.3,3.135,3.135,0,0,0,.13-.834q0-.041-.007-.109a8.122,8.122,0,0,1,.9.185q.185.055.185.185a.3.3,0,0,1-.109.191,1.466,1.466,0,0,0-.239.533q-.157.554-.376,1.148h5.024l1.846-.027q.116,0,.116.109Zm.041,8.969a.1.1,0,0,1-.109.109l-1.962-.027H20.583l-1.948.027a.1.1,0,0,1-.109-.109v-.622a.1.1,0,0,1,.109-.109l1.948.027h1.552V85.987h-.991l-1.839.027a.1.1,0,0,1-.109-.109v-.595A.1.1,0,0,1,19.3,85.2l1.839.027h.991v-.978a13.752,13.752,0,0,0-.1-1.907,8.435,8.435,0,0,1,.937.082q.171.027.171.116a1.327,1.327,0,0,1-.055.253,5.807,5.807,0,0,0-.1,1.429v1h1.36l1.818-.027a.1.1,0,0,1,.109.109v.595a.1.1,0,0,1-.109.109l-1.818-.027h-1.36v3.562h2.03l1.962-.027a.1.1,0,0,1,.109.109Zm2.481-2.775a14.948,14.948,0,0,1,1.641,1.531,10.045,10.045,0,0,1,1.169,1.483l-.923.684a11.119,11.119,0,0,0-2.7-3.035Zm20.993.957a3.38,3.38,0,0,1-.273,1.326,1.687,1.687,0,0,1-.437.479,5.82,5.82,0,0,1-2.9.417,10.217,10.217,0,0,1-1.579-.082,1.571,1.571,0,0,1-.67-.253,1.354,1.354,0,0,1-.4-1.135V85.6q-.4.123-.69.232l-.205.075a.225.225,0,0,1-.068.014q-.075,0-.1-.109l-.137-.533a.158.158,0,0,1-.014-.055q0-.055.1-.075.4-.075,1.121-.28v-.711a11.047,11.047,0,0,0-.082-1.613,8.3,8.3,0,0,1,.827.075q.164.021.164.109a.724.724,0,0,1-.068.253A4.438,4.438,0,0,0,45.083,84v.649L46.5,84.23v-.615a10.811,10.811,0,0,0-.1-1.7,6.272,6.272,0,0,1,.834.075q.157.021.157.137a1.462,1.462,0,0,1-.055.226,4.022,4.022,0,0,0-.082,1.046V84l1-.308q.7-.2,1.258-.4.342-.116.369-.123h.021q.075,0,.075.1l-.027.643a16.707,16.707,0,0,1-.321,3.179.857.857,0,0,1-.868.663q-.123.007-.273.007-.219,0-.479-.021-.123-.014-.15-.055a.572.572,0,0,1-.048-.2,1.437,1.437,0,0,0-.185-.567,3.639,3.639,0,0,0,.882.116.4.4,0,0,0,.438-.349,16.326,16.326,0,0,0,.239-2.563l-1.935.588v1.887l.027,1.6a.1.1,0,0,1-.109.109h-.595a.1.1,0,0,1-.109-.109l.027-1.6V84.948l-1.422.417v3.206a4.377,4.377,0,0,0,.048.813.406.406,0,0,0,.178.287,4.189,4.189,0,0,0,1.716.2,13.123,13.123,0,0,0,1.729-.075,1.232,1.232,0,0,0,.595-.219,1.052,1.052,0,0,0,.349-.622,6.746,6.746,0,0,0,.1-1.169,1.361,1.361,0,0,0,.547.28q.226.062.226.253Q50.572,88.359,50.565,88.435Zm-7.191-6.973a.1.1,0,0,1-.116.116l-1.552-.034H40.489q-.027,1.285-.055,1.921h1.388l.868-.027a.109.109,0,0,1,.123.123q-.014.26-.027.779-.021.595-.027.9a22.077,22.077,0,0,1-.308,4.033,2.024,2.024,0,0,1-.485,1.053,1.214,1.214,0,0,1-.861.287q-.431,0-.7-.014-.157-.014-.191-.062a.694.694,0,0,1-.048-.232,1.711,1.711,0,0,0-.2-.615,5.739,5.739,0,0,0,1.053.109.535.535,0,0,0,.52-.294,3.454,3.454,0,0,0,.191-.813A33.647,33.647,0,0,0,42,84.21H40.407a18.5,18.5,0,0,1-.54,3.773A8.717,8.717,0,0,1,38.7,90.52q-.109.15-.157.15t-.164-.123a1.806,1.806,0,0,0-.506-.437A7.835,7.835,0,0,0,39.4,86.438a34.938,34.938,0,0,0,.308-4.895l-1.511.034q-.1,0-.1-.116v-.588a.085.085,0,0,1,.1-.1l1.565.027h.916v-.937a6.96,6.96,0,0,0-.1-1.442q.54.021.909.068.185.021.185.123a.864.864,0,0,1-.082.253,3.335,3.335,0,0,0-.089,1v.937h.226l1.538-.027q.116,0,.116.1Zm7.082-.191a.1.1,0,0,1-.109.109l-1.668-.027H44.7a10.351,10.351,0,0,1-1.23,1.764q-.116.144-.191.144t-.2-.157a1.274,1.274,0,0,0-.41-.294,8.668,8.668,0,0,0,2.092-3.473,4.21,4.21,0,0,0,.178-.943q.526.1.8.185.157.041.157.157a.332.332,0,0,1-.082.164,1.884,1.884,0,0,0-.267.574q-.26.7-.451,1.121h3.582l1.668-.027a.1.1,0,0,1,.109.109Zm10.083.937q0,.109-.116.109l-1.456-.027H58.55v6.05l.027,2.42a.1.1,0,0,1-.109.109h-.649a.1.1,0,0,1-.109-.109l.027-2.406V82.289H57.3l-1.47.027a.1.1,0,0,1-.109-.109v-.574q0-.116.109-.116l1.47.027h.438V80.354a11.11,11.11,0,0,0-.1-1.8,8.722,8.722,0,0,1,.9.082q.171.027.171.116a.379.379,0,0,1-.027.123,1.265,1.265,0,0,0-.048.13,6.158,6.158,0,0,0-.082,1.34v1.2h.417l1.456-.027a.1.1,0,0,1,.116.116Zm4.115.841q0,.123-.116.123l-1.244-.027h-.068V87.3l.014,2.194a1.172,1.172,0,0,1-.383,1.025,2.85,2.85,0,0,1-1.367.212h-.308q-.219,0-.26-.048a.6.6,0,0,1-.082-.246,2.487,2.487,0,0,0-.219-.595,10.78,10.78,0,0,0,1.258.089q.52-.021.52-.574V83.144h-.383l-1.244.027a.109.109,0,0,1-.123-.123v-.561q0-.116.123-.116l1.244.027h1.278l1.244-.027a.1.1,0,0,1,.116.116Zm-9.194-.984q0,.082-.13.164a1.094,1.094,0,0,0-.321.41,11.165,11.165,0,0,1-.725,1.162v5.209l.027,1.8q0,.109-.116.109h-.643a.1.1,0,0,1-.109-.109l.027-1.8V86.5q0-.123.041-1.723A14.386,14.386,0,0,1,52.4,85.9q-.109.109-.164.109-.075,0-.144-.15a1.759,1.759,0,0,0-.321-.506,10.411,10.411,0,0,0,2.577-3.192,3.284,3.284,0,0,0,.267-.684,5.289,5.289,0,0,1,.684.39Q55.46,81.975,55.46,82.063Zm.041-3.042q0,.1-.13.157a1.182,1.182,0,0,0-.349.335A12.765,12.765,0,0,1,52.548,82.1a.578.578,0,0,1-.2.109q-.062,0-.171-.2a1.73,1.73,0,0,0-.362-.472,9.155,9.155,0,0,0,2.5-2.5,2.091,2.091,0,0,0,.308-.629,4.717,4.717,0,0,1,.738.41Q55.5,78.926,55.5,79.021Zm1.442,5.223a.4.4,0,0,1-.068.185,1.426,1.426,0,0,0-.144.547,13.911,13.911,0,0,1-.882,3.493q-.055.171-.13.171a.565.565,0,0,1-.178-.068A1.67,1.67,0,0,0,55,88.407a11.343,11.343,0,0,0,.957-3.432q.027-.342.027-.636a2.832,2.832,0,0,0-.021-.362,6.191,6.191,0,0,1,.8.116Q56.943,84.128,56.943,84.244Zm4.04,3.486a.112.112,0,0,0,.007.027v.021q0,.075-.144.137l-.39.137a.661.661,0,0,1-.171.048q-.062,0-.068-.1a21.241,21.241,0,0,0-.8-3.726A.29.29,0,0,1,59.4,84.2q0-.048.144-.1l.376-.13a.4.4,0,0,1,.1-.021q.055,0,.082.1A22.954,22.954,0,0,1,60.983,87.73Zm3.35-7.588q0,.116-.1.116l-1.094-.027h-.909l-1.094.027q-.109,0-.109-.116v-.588a.1.1,0,0,1,.109-.109l1.094.027h.909l1.094-.027q.1,0,.1.109Zm-3.767.267a.207.207,0,0,1,.021.075q0,.055-.1.123l-.28.178a.524.524,0,0,1-.171.089q-.041,0-.082-.089A6.68,6.68,0,0,0,59.11,79.4a.166.166,0,0,1-.041-.082q0-.041.109-.1l.308-.171a.445.445,0,0,1,.123-.041.114.114,0,0,1,.075.041A6.778,6.778,0,0,1,60.566,80.409Zm11.211,5.544a15.455,15.455,0,0,0-2.9-1.962l.574-.766a21.307,21.307,0,0,1,2.857,1.75,13.505,13.505,0,0,0,1.162-4.02h-3.9a11.485,11.485,0,0,1-2.81,4.17l-.827-.561a11.586,11.586,0,0,0,3.247-5.893l1.08.267q-.116.451-.321,1.094h4.84a16.092,16.092,0,0,1-2.509,7.075,10.892,10.892,0,0,1-4.7,3.507l-.663-.786A10.256,10.256,0,0,0,71.777,85.953Zm9.208-2.83a32.431,32.431,0,0,1-3.931,2.632l-.574-.807a25.788,25.788,0,0,0,4.368-3.008,19.644,19.644,0,0,0,3.1-3.268l.923.574a22.1,22.1,0,0,1-2.8,2.98v8.333h-1.08ZM91.67,87.272q.9,1.3,1.682,2.687l-.923.588a27.864,27.864,0,0,0-4.648-6.453l.8-.588a26.844,26.844,0,0,1,2.461,2.885,22.9,22.9,0,0,0,2.994-5.715h-7.4v-.937H95.1l.362.485A31.431,31.431,0,0,1,91.67,87.272Zm5.3-3.015h7.615V85.3H96.975Zm21.314,5.831a.1.1,0,0,1-.109.109l-1.853-.027h-8.046l-1.853.027a.1.1,0,0,1-.109-.109v-.718a.1.1,0,0,1,.109-.109l1.853.027h3.165V80.724a16.009,16.009,0,0,0-.089-2.017,8.173,8.173,0,0,1,.984.082q.185.027.185.123a.828.828,0,0,1-.075.267,5.587,5.587,0,0,0-.1,1.36v2.646h2.782l1.846-.027q.116,0,.116.109v.718q0,.109-.116.109l-1.846-.027h-2.782v5.223h3.972l1.853-.027a.1.1,0,0,1,.109.109Zm5.359-3.657.957.082a5.457,5.457,0,0,0-.157,1.258,1.054,1.054,0,0,0,.444.978,3.167,3.167,0,0,0,1.545.273,25.984,25.984,0,0,0,2.769-.144l.027,1.012q-1.025.082-2.659.082a4.349,4.349,0,0,1-2.44-.492,1.783,1.783,0,0,1-.636-1.552A7.22,7.22,0,0,1,123.648,86.432Zm.28-4.676V80.8q1.75-.137,3.541-.137.889,0,1.668.041v.95q-.725-.055-1.764-.055Q125.583,81.6,123.929,81.756Zm-1.511-2.413a36.344,36.344,0,0,0-.786,6.61,24.829,24.829,0,0,0,.342,4.382l-1,.082a28.849,28.849,0,0,1-.321-4.491,40.268,40.268,0,0,1,.772-6.665Zm16.618,3.083q.021,2.769.123,4.689a7.23,7.23,0,0,1,2.468,1.832l-.677.841a6.685,6.685,0,0,0-1.791-1.634,2.112,2.112,0,0,1-.7,1.764,2.5,2.5,0,0,1-1.647.5q-2.42,0-2.42-1.9a1.583,1.583,0,0,1,.725-1.34,2.691,2.691,0,0,1,1.586-.451,6.841,6.841,0,0,1,1.483.15q-.089-1.873-.116-4.409-1.907.062-3.821.041v-.882q1.7.055,3.808-.014V79.035h1q-.014.841-.014,2.522.875-.048,2.249-.185v.882Q140.287,82.357,139.036,82.426Zm-.854,5.407a4.28,4.28,0,0,0-1.545-.28,1.734,1.734,0,0,0-.964.253.806.806,0,0,0-.4.711q0,1.053,1.511,1.053a1.26,1.26,0,0,0,1.114-.526,1.833,1.833,0,0,0,.287-1.073Zm-4.819-8.668a41.313,41.313,0,0,0-.841,6.87,33.206,33.206,0,0,0,.335,4.341l-.978.089q-.321-3.117-.321-4.457a30.522,30.522,0,0,1,.287-3.685q.226-1.764.526-3.24ZM147.13,90h-1.121V81.53a2.6,2.6,0,0,1-.379.3,6.184,6.184,0,0,1-.561.332q-.311.164-.656.308a4.769,4.769,0,0,1-.673.226V81.558a6.517,6.517,0,0,0,.783-.277q.414-.174.813-.39t.755-.451a6,6,0,0,0,.615-.461h.424Zm7.547,0h-1.121V81.53a2.6,2.6,0,0,1-.379.3,6.184,6.184,0,0,1-.561.332q-.311.164-.656.308a4.769,4.769,0,0,1-.673.226V81.558a6.517,6.517,0,0,0,.783-.277q.414-.174.813-.39t.755-.451a6,6,0,0,0,.615-.461h.424Zm9.57-4.942a9.629,9.629,0,0,1-.222,2.181,5.081,5.081,0,0,1-.643,1.6,2.892,2.892,0,0,1-1.032.991,2.826,2.826,0,0,1-1.391.338,2.639,2.639,0,0,1-1.316-.325,2.758,2.758,0,0,1-.974-.947,4.8,4.8,0,0,1-.6-1.528,9.447,9.447,0,0,1-.205-2.075,10.694,10.694,0,0,1,.215-2.27,5.191,5.191,0,0,1,.632-1.651,2.814,2.814,0,0,1,1.036-1,2.908,2.908,0,0,1,1.418-.338Q164.247,80.033,164.247,85.058Zm-1.148.109q0-4.184-1.989-4.184-2.1,0-2.1,4.259,0,3.972,2.058,3.972Q163.1,89.214,163.1,85.167Zm12.811,5.66a.1.1,0,0,1-.109.109h-.636a.1.1,0,0,1-.109-.109v-.574H168.6v.615a.1.1,0,0,1-.109.109h-.622a.1.1,0,0,1-.109-.109l.027-2.447V87.259l-.027-1.6a.1.1,0,0,1,.109-.109l1.935.027h4.047l1.948-.027a.1.1,0,0,1,.109.109l-.027,1.415v1.319Zm-.854-1.244v-1.4h-2.939v1.4Zm-3.739,0v-1.4H168.6v1.4Zm3.739-2.044V86.247h-2.939v1.292Zm-3.739,0V86.247H168.6v1.292Zm6.822-2.187a1.989,1.989,0,0,0-.355.485q-.116.226-.191.226a.922.922,0,0,1-.212-.055,14.089,14.089,0,0,1-5.277-2.871q0,.588.027,1.292.027.533.027.595,0,.116-.109.116h-.663q-.109,0-.109-.116,0-.048.034-.745.027-.622.034-1.128a12.512,12.512,0,0,1-5.093,2.871.983.983,0,0,1-.2.048q-.075,0-.2-.219a2.49,2.49,0,0,0-.362-.431,12.667,12.667,0,0,0,5.236-2.563H167.87l-1.859.027q-.13,0-.13-.109v-.52q0-.109.13-.109l1.859.027h.923a8.089,8.089,0,0,0-.608-1.23.182.182,0,0,1-.034-.082q0-.055.171-.116l.362-.123a.763.763,0,0,1,.144-.048q.041,0,.082.075a7.506,7.506,0,0,1,.752,1.524h1.654V80.047q-1.723.178-3.568.273-.082.007-.123.007-.137,0-.26-.226a1.37,1.37,0,0,0-.321-.465q2.6-.1,4.566-.362a25.426,25.426,0,0,0,2.885-.533,4.164,4.164,0,0,0,.909-.321,5.769,5.769,0,0,1,.745.506.271.271,0,0,1,.1.185q0,.123-.267.123a5.249,5.249,0,0,0-.827.171,26.549,26.549,0,0,1-3.021.54v2.229h1.764a11.844,11.844,0,0,0,.7-1.538,3.52,3.52,0,0,0,.144-.574q.581.137.786.212.137.034.137.15,0,.082-.123.185a.588.588,0,0,0-.171.253q-.355.779-.643,1.313h1.032l1.866-.027a.1.1,0,0,1,.109.109v.52a.1.1,0,0,1-.109.109l-1.866-.027h-3.09a11.486,11.486,0,0,0,2.6,1.518A27.7,27.7,0,0,0,178.138,85.352Zm13.774-4.867a.1.1,0,0,1-.109.109l-1.866-.027h-3.3q-.116.547-.321,1.34h1.9L190,81.879q.116,0,.116.109l-.027,1.545v3.076l.027,1.531q0,.123-.116.123l-1.791-.027h-2.885l-1.791.027a.109.109,0,0,1-.123-.123l.027-1.531V83.533l-.027-1.545q0-.109.123-.109l1.791.027h.144q.1-.41.308-1.34h-3.808l-1.866.027a.1.1,0,0,1-.109-.109V79.89a.1.1,0,0,1,.109-.109l1.866.027h3.944l.116-.574a5.317,5.317,0,0,0,.068-.95,7.277,7.277,0,0,1,.923.137q.157.048.157.144a.359.359,0,0,1-.1.212,1.272,1.272,0,0,0-.164.472l-.116.561h3.138l1.866-.027a.1.1,0,0,1,.109.109Zm-2.632,7.055V86.3h-5.024v1.237Zm0-1.894V84.429h-5.024v1.217Zm0-1.873V82.6h-5.024v1.169Zm2.577,6.269q0,.109-.116.109l-1.989-.027h-8.06v.629a.1.1,0,0,1-.116.116h-.643q-.109,0-.109-.116l.027-1.545V83.738a10.354,10.354,0,0,0-.116-1.764,9.337,9.337,0,0,1,.943.082q.171.021.171.109a.843.843,0,0,1-.075.253,5.635,5.635,0,0,0-.082,1.292v5.653h8.06l1.989-.027q.116,0,.116.109Zm13.364-8.4-.027,1.791v2.242l.014,2.058a1.082,1.082,0,0,1-.308.9,2.635,2.635,0,0,1-1.374.267.523.523,0,0,1-.253-.034.448.448,0,0,1-.082-.205,1.3,1.3,0,0,0-.253-.574q.417.041.978.041a.441.441,0,0,0,.492-.506V86.343h-2.659V87l.027,1.682q0,.109-.1.109h-.608a.1.1,0,0,1-.109-.109L200.99,87v-.656h-2.413v.8l.027,1.7a.1.1,0,0,1-.109.109h-.608a.1.1,0,0,1-.109-.109l.027-1.682V83.349l-.027-1.709a.1.1,0,0,1,.109-.109l1.887.027H201.1a11.687,11.687,0,0,0-1.586-1.094q-.075-.041-.075-.082t.116-.144l.28-.219a.205.205,0,0,1,.123-.075.273.273,0,0,1,.109.041,15.651,15.651,0,0,1,1.511,1.107,22.416,22.416,0,0,0,1.962-1.511h-4.013l-1.832.027q-.116,0-.116-.109v-.533q0-.123.116-.123l1.832.027h4.143A.981.981,0,0,0,204,78.83a.42.42,0,0,1,.164-.055q.116,0,.4.28t.294.431q0,.137-.185.2a1.654,1.654,0,0,0-.492.308,24.751,24.751,0,0,1-2.1,1.552l.027.014h1.107l1.894-.027A.1.1,0,0,1,205.222,81.64Zm-.813,4.047V84.271h-2.659v1.415Zm0-2.058V82.214h-2.659v1.415Zm-3.418,0V82.214h-2.413v1.415Zm0,2.058V84.271h-2.413v1.415Zm5.421,3.835a1.649,1.649,0,0,0-.26.677.5.5,0,0,1-.082.253.652.652,0,0,1-.246.034q-2.646.185-5.093.185a8.482,8.482,0,0,1-3.432-.465,2.68,2.68,0,0,1-1.347-1.367q-.526.574-1.395,1.36a1.056,1.056,0,0,0-.267.321.18.18,0,0,1-.157.109.236.236,0,0,1-.164-.109,4.179,4.179,0,0,1-.451-.786,4.246,4.246,0,0,0,.868-.52,8.445,8.445,0,0,0,1.189-1.1V84.641h-.95l-.923.027q-.116,0-.116-.13v-.615q0-.1.116-.1l.923.027h.711l.957-.027q.109,0,.109.1l-.027,1.333v2.871a2.637,2.637,0,0,0,.52.854,2.3,2.3,0,0,0,.711.485,7.179,7.179,0,0,0,2.8.376A55.833,55.833,0,0,0,206.411,89.521Zm-10.1-8.565a.232.232,0,0,1,.034.082q0,.048-.137.144l-.335.253a.406.406,0,0,1-.185.1q-.041,0-.082-.068a9.866,9.866,0,0,0-1.545-2.03q-.048-.048-.048-.068,0-.041.137-.13l.335-.226a.318.318,0,0,1,.137-.062.168.168,0,0,1,.1.062A10.74,10.74,0,0,1,196.308,80.956Zm16.912-.109a22.039,22.039,0,0,1-1.483,7.362,2.1,2.1,0,0,1-1.894,1.483,1.749,1.749,0,0,1-1.606-1.06,6,6,0,0,1-.533-2.789,7.335,7.335,0,0,1,.458-2.618A5.114,5.114,0,0,1,209.2,81.5a4.675,4.675,0,0,1,1.716-1.128,5.426,5.426,0,0,1,1.969-.369,4.139,4.139,0,0,1,3.555,1.5,6.371,6.371,0,0,1,.964,3.808,5.114,5.114,0,0,1-1.121,3.4,5.6,5.6,0,0,1-3.274,1.784l-.485-.841a4.243,4.243,0,0,0,3.835-4.607,4.67,4.67,0,0,0-1.032-3.3A2.809,2.809,0,0,0,213.22,80.847Zm-1.053.109a3.075,3.075,0,0,0-1.292.4,4.459,4.459,0,0,0-1.06.93,5.252,5.252,0,0,0-1.148,3.582,4.6,4.6,0,0,0,.41,2.126q.328.615.752.615a.82.82,0,0,0,.622-.26,2.544,2.544,0,0,0,.444-.759A19.819,19.819,0,0,0,212.167,80.956Zm10.767.109H219.6v-.937h7.772v.937h-3.35v7.841h4.047v.937h-9.03v-.937h3.89Zm11.744,6.207q.9,1.3,1.682,2.687l-.923.588a27.864,27.864,0,0,0-4.648-6.453l.8-.588a26.844,26.844,0,0,1,2.461,2.885,22.9,22.9,0,0,0,2.994-5.715h-7.4v-.937h8.47l.362.485A31.43,31.43,0,0,1,234.678,87.272Zm5.3-3.015H247.6V85.3h-7.615Zm16.1-5.838.718-.28a14.092,14.092,0,0,1,1.032,2.365l-.752.314A12.262,12.262,0,0,0,256.081,78.42Zm-6.815,4.847.479-.841a28.873,28.873,0,0,1,3.288,1.429l-.52.937A19.992,19.992,0,0,0,249.266,83.267Zm1.258-2.994.52-.827a20.246,20.246,0,0,1,3.192,1.524l-.561.923A17.538,17.538,0,0,0,250.523,80.272Zm7.2-2.27.7-.253a11.567,11.567,0,0,1,1,2.3l-.731.294A13.489,13.489,0,0,0,257.722,78Zm.137,3.192.971.547a14.6,14.6,0,0,1-1.148,3.151,9.741,9.741,0,0,1-1.47,2.235,10.073,10.073,0,0,1-5.558,2.994l-.574-.882a9.086,9.086,0,0,0,5.318-2.8A11.559,11.559,0,0,0,257.858,81.2Zm5.421,1.647h-2.536v-.909h6.221v.909h-2.632V89h3.063V89.9h-7.082V89h2.967Zm6.357-2.81a23.99,23.99,0,0,1,3.288,2.085l-.7.923a20.357,20.357,0,0,0-3.22-2.181Zm7.055.7,1.053.506a11.411,11.411,0,0,1-2.6,5.8,11.137,11.137,0,0,1-5.585,3.227l-.479-.95Q275.645,87.7,276.691,80.73Zm2.762,2.536.479-.841a28.872,28.872,0,0,1,3.288,1.429l-.52.937A19.992,19.992,0,0,0,279.453,83.267Zm1.258-2.994.52-.827a20.247,20.247,0,0,1,3.192,1.524l-.561.923A17.539,17.539,0,0,0,280.711,80.272Zm7.335.923.971.547a14.6,14.6,0,0,1-1.148,3.151,9.741,9.741,0,0,1-1.47,2.235,10.073,10.073,0,0,1-5.558,2.994l-.574-.882a9.086,9.086,0,0,0,5.318-2.8A11.559,11.559,0,0,0,288.046,81.2Zm2.324,3.063h7.615V85.3H290.37Zm14.622-3.035h4.437v.923h-4.437v8.429h-1.066V82.146h-4.382v-.923h4.382V78.8h1.066Zm1.941-2.83.718-.28a15.62,15.62,0,0,1,1.032,2.365l-.752.308A14.832,14.832,0,0,0,306.934,78.393Zm-4.7,5.646a17.192,17.192,0,0,1-2.03,5.469L299.264,89a14.227,14.227,0,0,0,1.948-5.271Zm4.354.1.978-.362a24.764,24.764,0,0,0,1.989,5.12l-1.019.547A37.422,37.422,0,0,1,306.585,84.135Zm1.948-6.173.7-.253a11.567,11.567,0,0,1,1,2.3l-.731.294A13.489,13.489,0,0,0,308.533,77.962Zm8.381,7.991a15.455,15.455,0,0,0-2.9-1.962l.574-.766a21.308,21.308,0,0,1,2.857,1.75,13.506,13.506,0,0,0,1.162-4.02h-3.9a11.486,11.486,0,0,1-2.81,4.17l-.827-.561a11.585,11.585,0,0,0,3.247-5.893l1.08.267q-.116.451-.321,1.094h4.84a16.092,16.092,0,0,1-2.509,7.075,10.892,10.892,0,0,1-4.7,3.507l-.663-.786A10.256,10.256,0,0,0,316.914,85.953Zm5.612-5.92a23.99,23.99,0,0,1,3.288,2.085l-.7.923a20.357,20.357,0,0,0-3.22-2.181Zm7.055.7,1.053.506a11.411,11.411,0,0,1-2.6,5.8,11.137,11.137,0,0,1-5.585,3.227l-.479-.95Q328.535,87.7,329.581,80.73ZM4.382,107.439a41.522,41.522,0,0,1-2.646,7.841l-.923-.362a37.253,37.253,0,0,0,2.563-7.41q-.848.062-2.577.226l-.055-.882q.513-.034,1.518-.1l1.313-.089q.26-1.183.533-2.782l.991.137q-.308,1.6-.533,2.591.786-.055,1.429-.055a1.428,1.428,0,0,1,1.278.567,3.662,3.662,0,0,1,.4,1.982,19.506,19.506,0,0,1-.437,4.97,1.777,1.777,0,0,1-.636,1,1.828,1.828,0,0,1-1.073.28,9.25,9.25,0,0,1-1.422-.109l-.171-.978a6.216,6.216,0,0,0,1.244.164,1.47,1.47,0,0,0,.745-.144.9.9,0,0,0,.335-.485,16.428,16.428,0,0,0,.444-4.566,3.52,3.52,0,0,0-.219-1.538.713.713,0,0,0-.677-.321Q5.168,107.385,4.382,107.439Zm4.108-3.992.711-.28a19.25,19.25,0,0,1,1.039,2.372l-.759.308A14.765,14.765,0,0,0,8.49,103.447Zm1.5-.472.7-.253a11.327,11.327,0,0,1,.991,2.3l-.725.294A13.487,13.487,0,0,0,9.987,102.976Zm-2.311,2.844.882-.451a16.879,16.879,0,0,1,2.406,4.833l-.978.458A14.513,14.513,0,0,0,7.677,105.819ZM25,114.077a1.844,1.844,0,0,0-.376.513q-.1.185-.185.185a.66.66,0,0,1-.219-.082,9.476,9.476,0,0,1-3.391-3.322q0,1.121.034,2.816.034,1.415.034,1.668,0,.109-.123.109h-.629q-.116,0-.116-.109,0-.294.034-1.948.027-1.49.034-2.475a9.363,9.363,0,0,1-3.438,3.329.429.429,0,0,1-.2.082q-.068,0-.212-.226a1.46,1.46,0,0,0-.376-.4,9.689,9.689,0,0,0,3.78-3.247h-.978l-1.921.027a.1.1,0,0,1-.109-.109v-.547a.1.1,0,0,1,.109-.109l1.921.027h1.381V110.2a9.8,9.8,0,0,0-.068-1.333q.335.014.868.068.171.021.171.13a.369.369,0,0,1-.048.15q-.041.1-.055.13a3.784,3.784,0,0,0-.055.854v.055h1.764l1.921-.027q.123,0,.123.109v.547q0,.109-.123.109l-1.921-.027H21.205A10.3,10.3,0,0,0,25,114.077Zm-8.565-7.144q0,.116-.109.116l-1.23-.027v2.741q.759-.328,1.313-.615-.027.308-.027.52a.5.5,0,0,1-.048.273.75.75,0,0,1-.219.13q-.178.089-1.019.479v1.777l.027,2.112a1.4,1.4,0,0,1-.369,1.121,2,2,0,0,1-1.183.253h-.226a.465.465,0,0,1-.267-.048.533.533,0,0,1-.089-.232,1.7,1.7,0,0,0-.253-.615,7.844,7.844,0,0,0,1.012.055.483.483,0,0,0,.431-.164.859.859,0,0,0,.1-.492v-3.4l-.868.349a1.9,1.9,0,0,0-.547.28.242.242,0,0,1-.171.082q-.1,0-.137-.123a6.269,6.269,0,0,1-.239-.8,7.713,7.713,0,0,0,1.244-.335q.082-.027.718-.267v-3.076h-.41l-1.244.027q-.109,0-.109-.116v-.588a.1.1,0,0,1,.109-.109l1.244.027h.41v-1.148a10.027,10.027,0,0,0-.1-1.7,7.379,7.379,0,0,1,.9.089q.185.021.185.109a1.2,1.2,0,0,1-.1.267,5.728,5.728,0,0,0-.068,1.217v1.162l1.23-.027a.1.1,0,0,1,.109.109Zm7.731-2.584q0,.116-.212.137a5.173,5.173,0,0,0-.718.185,31.643,31.643,0,0,1-5.722.978q-.123.014-.178.014-.164,0-.246-.253a1.3,1.3,0,0,0-.28-.479,27.278,27.278,0,0,0,5.544-.82,3.6,3.6,0,0,0,1.053-.451,5.761,5.761,0,0,1,.643.492A.265.265,0,0,1,24.165,104.35Zm.068,1.791q0,.068-.116.15a1.174,1.174,0,0,0-.28.41,12.889,12.889,0,0,1-1.217,2.153q-.123.185-.185.185a.7.7,0,0,1-.219-.116,1.658,1.658,0,0,0-.4-.164,11.3,11.3,0,0,0,1.306-2.427,2.991,2.991,0,0,0,.164-.67,5.088,5.088,0,0,1,.772.294Q24.233,106.038,24.233,106.141Zm-3.028,1.846a.225.225,0,0,1,.014.068q0,.062-.178.13l-.355.123a.62.62,0,0,1-.157.048q-.055,0-.089-.1a8.111,8.111,0,0,0-.7-1.832.157.157,0,0,1-.021-.062q0-.041.157-.109l.335-.123a.419.419,0,0,1,.144-.048q.048,0,.109.089A7.4,7.4,0,0,1,21.205,107.986Zm-2.365.321a.262.262,0,0,1,.021.082q0,.075-.171.144l-.355.137a.472.472,0,0,1-.15.048q-.062,0-.1-.1a7.011,7.011,0,0,0-.813-1.723.148.148,0,0,1-.034-.075q0-.062.144-.137l.335-.15a.362.362,0,0,1,.13-.041q.048,0,.109.082A7.948,7.948,0,0,1,18.84,108.308Zm19.168-4.026-.027,2.194v6.214l.014,1.88a1.126,1.126,0,0,1-.41.964,3.382,3.382,0,0,1-1.736.28.484.484,0,0,1-.267-.041.581.581,0,0,1-.082-.239,1.71,1.71,0,0,0-.253-.643q.636.055,1.388.055.492,0,.492-.561v-2.953H33.209V113.1l.027,2.317a.1.1,0,0,1-.116.116h-.67q-.109,0-.109-.116l.027-2.317v-1.668H28.615a9.556,9.556,0,0,1-.547,2.557,7.734,7.734,0,0,1-.882,1.613q-.123.171-.164.171t-.2-.144a2.74,2.74,0,0,0-.588-.349,6.672,6.672,0,0,0,1.292-2.646,18.46,18.46,0,0,0,.349-4.061v-2.1l-.027-2.194q0-.116.109-.116l1.989.027H35.9l2-.027A.1.1,0,0,1,38.008,104.281Zm-.882,3.158v-2.475H33.209v2.475Zm0,3.233V108.2H33.209v2.475Zm-4.758,0V108.2H28.731v.376q0,.916-.062,2.1Zm0-3.233v-2.475H28.731v2.475Zm12.291-.308q-1.682.171-3.937.239l-.055-.9a34.669,34.669,0,0,0,3.623-.185,23.56,23.56,0,0,1-.779-2.42l1.032-.13a17.683,17.683,0,0,0,.759,2.44,28.981,28.981,0,0,0,2.953-.52l.109.9q-1.1.246-2.714.465a14.924,14.924,0,0,0,2.7,4.061l-.6.868a6.488,6.488,0,0,0-3.37-.957,3.2,3.2,0,0,0-2.071.6,1.5,1.5,0,0,0-.6,1.2q0,1.8,3.527,1.8a10.949,10.949,0,0,0,1.873-.144l.014.978a14.375,14.375,0,0,1-1.9.116,7.033,7.033,0,0,1-3.281-.6,2.223,2.223,0,0,1-1.217-2.1,2.317,2.317,0,0,1,1.3-2.153,4.746,4.746,0,0,1,2.317-.526,5.215,5.215,0,0,1,2.7.547A11.752,11.752,0,0,1,44.659,107.132Zm7.649-3.343.971.014q-.021.588-.068,1.381-.034.615-.048,1l.424.362a.186.186,0,0,1,.055.137.264.264,0,0,1-.055.157,5.623,5.623,0,0,0-.465.9l-.041.533-.068.52.253-.547a11.409,11.409,0,0,1,1.948-2.092,2.737,2.737,0,0,1,1.647-.622,1.461,1.461,0,0,1,1.347.636,3.053,3.053,0,0,1,.335,1.6q0,1.114-.13,2.8-.123,1.791-.123,2.365a1.674,1.674,0,0,0,.157.868.452.452,0,0,0,.417.2q.841,0,1.313-2.3l.841.547a5.045,5.045,0,0,1-1,2.229,1.613,1.613,0,0,1-1.224.513,1.339,1.339,0,0,1-1.107-.41,2.439,2.439,0,0,1-.349-1.483q0-1.039.1-2.557.109-1.764.109-2.509a3.748,3.748,0,0,0-.15-1.3.563.563,0,0,0-.561-.369q-1.408,0-3.78,3.445v5.756H52.09q0-2.338.055-4.464l.137-.882-.362.834q-.554,1.3-1.3,2.721l-.786-.656q.649-1.128,2.324-4.341.034-.779.055-1.75-.26.021-2.058.219l-.055-.834q1.271-.116,2.14-.212.007-.355.034-1.128Q52.3,104.315,52.309,103.789Zm10.821,8.688a14.948,14.948,0,0,1,1.641,1.531,10.045,10.045,0,0,1,1.169,1.483l-.923.684a11.119,11.119,0,0,0-2.7-3.035Zm21.157,1.415a2.342,2.342,0,0,1-.588,1.559,2.229,2.229,0,0,1-1.374.335,4.105,4.105,0,0,1-1.3-.144q-.451-.178-.451-.868v-3.22H79.468a4.912,4.912,0,0,1-1.169,2.98,5.592,5.592,0,0,1-2.249,1.306.748.748,0,0,1-.212.062q-.089,0-.205-.191a1.3,1.3,0,0,0-.444-.444,5.171,5.171,0,0,0,2.563-1.34,3.907,3.907,0,0,0,.882-2.372q-.663.014-1.155.021-.068,0-.253.007h-.082a.1.1,0,0,1-.109-.109l.027-1.709v-3.835l-.027-1.723a.1.1,0,0,1,.109-.109l1.723.027h2.522l1.723-.027a.1.1,0,0,1,.109.109l-.027,1.723v3.835l.027,1.709a.1.1,0,0,1-.109.109l-1.709-.027v2.83a1.315,1.315,0,0,0,.041.41.271.271,0,0,0,.171.15,3.975,3.975,0,0,0,.738.041,1.338,1.338,0,0,0,.8-.171,1,1,0,0,0,.294-.588,7.006,7.006,0,0,0,.082-1,1.941,1.941,0,0,0,.547.321q.226.082.226.2A1.455,1.455,0,0,1,84.287,113.893Zm-1.907-3.049v-1.6H77.861v1.6Zm0-4.484v-1.477H77.861v1.477Zm0,2.188v-1.49H77.861v1.49Zm-5.756,2.229a1.592,1.592,0,0,0-.4.52q-.062.123-.144.123a.4.4,0,0,1-.178-.109,8.723,8.723,0,0,1-1.374-1.49V114l.014,1.914q0,.116-.109.116h-.622q-.123,0-.123-.116L73.712,114v-3.7a15.78,15.78,0,0,1-1.723,1.627.374.374,0,0,1-.212.109q-.062,0-.123-.144a2.036,2.036,0,0,0-.335-.574,11.121,11.121,0,0,0,3.951-4.785H73.35l-1.4.027a.1.1,0,0,1-.109-.109v-.574q0-.116.109-.116l1.4.027h.362v-.807a7.074,7.074,0,0,0-.123-1.586,5.879,5.879,0,0,1,.937.1q.171.021.171.109a.905.905,0,0,1-.082.267,3.914,3.914,0,0,0-.089,1.08v.834h.868a.412.412,0,0,0,.239-.055.1.1,0,0,0,.041-.014.21.21,0,0,1,.082-.027q.1,0,.39.253.239.239.239.321a.257.257,0,0,1-.123.212.881.881,0,0,0-.28.39,14.422,14.422,0,0,1-1.271,2.188A8.415,8.415,0,0,0,76.624,110.775Zm21.362,3.213a2.266,2.266,0,0,1-.615,1.449,4.029,4.029,0,0,1-2.229.4,9.784,9.784,0,0,1-1.989-.123.834.834,0,0,1-.5-.314,1.418,1.418,0,0,1-.144-.725V112.8h-1.4a3.322,3.322,0,0,1-1.873,2.44,9.087,9.087,0,0,1-2.933.786q-.137.014-.164.014-.109,0-.226-.239a1.582,1.582,0,0,0-.362-.533,9.108,9.108,0,0,0,3.2-.677,2.4,2.4,0,0,0,1.463-1.791h-.13l-1.75.027a.1.1,0,0,1-.109-.109l.027-1.429V108.8l-.027-1.442a.1.1,0,0,1,.109-.109l1.866.027h3.288l1.866-.027a.1.1,0,0,1,.109.109l-.027,1.442v2.488l.027,1.429a.1.1,0,0,1-.109.109l-1.866-.027h-.1v1.483a1.309,1.309,0,0,0,.068.533.445.445,0,0,0,.308.171,8.091,8.091,0,0,0,1.4.082,3.3,3.3,0,0,0,1.6-.267.874.874,0,0,0,.314-.54,5.276,5.276,0,0,0,.089-.93,1.783,1.783,0,0,0,.629.321q.191.055.191.2Q97.993,113.893,97.986,113.988Zm-3.377-1.846V111.1h-5.53v1.039Zm0-1.668v-.964h-5.53v.964Zm0-1.579v-.964h-5.53v.964Zm2.912-.663a.1.1,0,0,1-.109.109h-.636a.1.1,0,0,1-.109-.109v-2.058H87.035v2.058a.1.1,0,0,1-.109.109H86.29a.1.1,0,0,1-.109-.109l.027-1.47V106.3l-.027-.738a.1.1,0,0,1,.109-.109l1.948.027h5.824a16.812,16.812,0,0,0,.841-1.524,2.725,2.725,0,0,0,.171-.561,4.094,4.094,0,0,1,.807.253q.157.075.157.164a.182.182,0,0,1-.1.157,1.086,1.086,0,0,0-.294.376q-.308.554-.69,1.135h.52l1.935-.027a.1.1,0,0,1,.109.109l-.027.656v.547Zm-5.052-3.37a.266.266,0,0,1,.021.075q0,.048-.164.123l-.362.164a.43.43,0,0,1-.15.055q-.055,0-.1-.123a6.294,6.294,0,0,0-.745-1.429.148.148,0,0,1-.034-.075q0-.034.15-.089l.39-.157a.328.328,0,0,1,.1-.021q.048,0,.116.075A6.69,6.69,0,0,1,92.47,104.862Zm-2.987.055a.17.17,0,0,1,.027.068q0,.041-.137.1l-.39.185a.562.562,0,0,1-.157.055q-.055,0-.123-.15a5.723,5.723,0,0,0-.827-1.306.174.174,0,0,1-.041-.075q0-.048.15-.109l.369-.137a.47.47,0,0,1,.144-.041.114.114,0,0,1,.089.055A6.906,6.906,0,0,1,89.482,104.917Zm15.087,10.158a.1.1,0,0,1-.109.109h-.608a.1.1,0,0,1-.109-.109v-.8h-2.687v1.107a.1.1,0,0,1-.109.109h-.608a.1.1,0,0,1-.109-.109l.027-4.02v-2.4l-.027-3.056a.1.1,0,0,1,.109-.109l1.237.034a16,16,0,0,0,.52-1.627,3.4,3.4,0,0,0,.1-.813,5.005,5.005,0,0,1,.909.212q.15.041.15.15a.271.271,0,0,1-.1.185.975.975,0,0,0-.226.4q-.321.937-.547,1.49h.718l1.36-.034a.1.1,0,0,1,.109.109l-.027,2.707v2.577Zm-.827-1.545v-3.206h-2.687v3.206Zm0-3.951v-3.021h-2.687v3.021Zm7.978-3.568q-.027.355-.027,1.053a42.856,42.856,0,0,1-.451,6.829,3.367,3.367,0,0,1-.595,1.627,1.421,1.421,0,0,1-1.135.485q-.588,0-1.333-.068-.2-.021-.232-.068a.751.751,0,0,1-.075-.253,2.021,2.021,0,0,0-.239-.643,11.165,11.165,0,0,0,1.668.178h.157q.711,0,.978-1.565a45.4,45.4,0,0,0,.4-6.9h-4.1a13.941,13.941,0,0,1-1.121,1.873q-.123.171-.178.171t-.212-.137a1.742,1.742,0,0,0-.458-.342,12.4,12.4,0,0,0,1.969-3.623,5.155,5.155,0,0,0,.267-1.251,6.745,6.745,0,0,1,.868.253q.212.082.212.185a.367.367,0,0,1-.157.253,2.346,2.346,0,0,0-.321.656q-.205.533-.5,1.189h2.967l1.524-.027A.109.109,0,0,1,111.72,106.011Zm-2.782,5.407a.258.258,0,0,1,.027.089q0,.055-.144.15l-.4.294a.478.478,0,0,1-.144.068q-.034,0-.068-.068a11.251,11.251,0,0,0-1.764-2.693.142.142,0,0,1-.041-.068q0-.041.144-.137l.349-.226a.239.239,0,0,1,.123-.068q.027,0,.075.055A10.354,10.354,0,0,1,108.938,111.418Zm8.271.014.957.082a5.457,5.457,0,0,0-.157,1.258,1.054,1.054,0,0,0,.444.978,3.167,3.167,0,0,0,1.545.273,25.984,25.984,0,0,0,2.769-.144l.027,1.012q-1.025.082-2.659.082a4.349,4.349,0,0,1-2.44-.492,1.783,1.783,0,0,1-.636-1.552A7.22,7.22,0,0,1,117.209,111.432Zm.28-4.676V105.8q1.75-.137,3.541-.137.889,0,1.668.041v.95q-.725-.055-1.764-.055Q119.144,106.6,117.489,106.756Zm-1.511-2.413a36.344,36.344,0,0,0-.786,6.61,24.829,24.829,0,0,0,.342,4.382l-1,.082a28.849,28.849,0,0,1-.321-4.491,40.268,40.268,0,0,1,.772-6.665Zm10.9,5.646q-.7,0-2.126-.027v-.9q.588.027,2.215.027l.219-2.283q-1,0-2.352-.027v-.9q1.189.068,2.44.068.048-.424.123-1.155.089-.813.109-1.06l1.012.075q-.048.451-.123,1.169-.082.752-.1.957,1.442-.014,3.767-.157l.014.9q-1.839.116-3.876.116-.075.834-.253,2.283,2.235-.027,3.979-.157v.9q-2.16.137-4.061.157a32.723,32.723,0,0,0-.226,3.288,1.408,1.408,0,0,0,.5,1.23,2.723,2.723,0,0,0,1.531.335,3.8,3.8,0,0,0,2.208-.526,1.511,1.511,0,0,0,.649-1.292,3.093,3.093,0,0,0-.813-2.017l.923-.349a3.489,3.489,0,0,1,.937,2.311q0,2.816-3.9,2.816a3.309,3.309,0,0,1-2.454-.725,2.532,2.532,0,0,1-.54-1.784Q126.67,112.17,126.875,109.989Zm15.559,3.917h2.728v.937H135.14v-.937h6.187l.629-7.95h-5.708v-.937h6.9Zm4.115-4.648h7.615V110.3h-7.615Zm12.209-2.557h3.514v-2.577h1.053V106.7h2.249v.937h-2.249v.991q0,3.445-1.47,5.052a7.427,7.427,0,0,1-3.814,1.935l-.567-.8a6.161,6.161,0,0,0,3.753-1.962,6.7,6.7,0,0,0,1.046-4.095v-1.121h-3.514v3.65h-1.053v-3.65h-2.14V106.7h2.14v-2.83h1.053Zm4.7-3.445.718-.226a16.105,16.105,0,0,1,.848,2.447l-.766.239A14.887,14.887,0,0,0,163.461,103.256Zm1.511-.349.718-.2a10.332,10.332,0,0,1,.807,2.365l-.738.239A13.187,13.187,0,0,0,164.972,102.907Zm2.229,6.351h7.615V110.3H167.2Zm9.974,3.124-.827-.684q1-1.668,2.816-5.462a1.064,1.064,0,0,1,1.982-.123q1.477,2.379,2.707,4.054a42.408,42.408,0,0,0,2.714,3.281l-.759.978q-1.422-1.716-2.6-3.391-1.3-1.853-2.454-3.76a3.1,3.1,0,0,0-.328-.485.292.292,0,0,0-.205-.075q-.185,0-.513.7Q178.671,109.668,177.174,112.382Zm22.832-3.179q0,.116-.171.212a2.011,2.011,0,0,0-.5.465,11.817,11.817,0,0,1-1.812,1.736q-.144.123-.2.123a.871.871,0,0,1-.232-.157,2.794,2.794,0,0,0-.608-.335,8.584,8.584,0,0,0,1.989-1.736h-3.89v3.069l.014,1.914a1.242,1.242,0,0,1-.362,1.025,3.378,3.378,0,0,1-1.709.267h-.294q-.232,0-.273-.048a.64.64,0,0,1-.089-.246,2.856,2.856,0,0,0-.28-.69,14.116,14.116,0,0,0,1.456.089.739.739,0,0,0,.513-.13.585.585,0,0,0,.116-.417v-4.833h-3.541l-1.866.027a.1.1,0,0,1-.109-.109v-.677a.1.1,0,0,1,.109-.109l1.866.027h4.4a14.828,14.828,0,0,0-2.953-2.126q-.075-.041-.075-.062a.6.6,0,0,1,.1-.15l.28-.321q.075-.082.116-.082a.148.148,0,0,1,.075.034,15.894,15.894,0,0,1,1.784,1.1,17.942,17.942,0,0,0,3.09-2.071h-5.5l-1.969.027q-.1,0-.1-.109v-.649q0-.109.1-.109l1.969.027h5.865a1.046,1.046,0,0,0,.342-.041,1.255,1.255,0,0,1,.191-.068q.13,0,.438.308t.308.465q0,.116-.2.191a1.606,1.606,0,0,0-.485.294,18.988,18.988,0,0,1-3.363,2.235q.253.205.841.731.048.041.048.062a.686.686,0,0,1-.123.13l-.191.185h3.637a.792.792,0,0,0,.355-.055.42.42,0,0,1,.164-.055,1.068,1.068,0,0,1,.451.267Q200.006,109.073,200.006,109.2Zm14.164-2.447a.1.1,0,0,1-.109.109l-1.935-.027h-2.885q-.021,1.449-.082,2.112h2.454l1.374-.027q.137,0,.137.123-.041.506-.041.984a28.021,28.021,0,0,1-.362,4.218,1.961,1.961,0,0,1-.615,1.21,1.752,1.752,0,0,1-1.08.287q-.608,0-.916-.014-.191-.021-.226-.068a.572.572,0,0,1-.055-.239,1.947,1.947,0,0,0-.191-.608,10.335,10.335,0,0,0,1.354.1q.7,0,.882-.909a24.44,24.44,0,0,0,.355-4.286h-3.138a10.194,10.194,0,0,1-.52,2.447,7.082,7.082,0,0,1-3.062,3.685,1.925,1.925,0,0,1-.212.1q-.068,0-.212-.178a1.363,1.363,0,0,0-.506-.41,6.449,6.449,0,0,0,3.192-3.473,16.8,16.8,0,0,0,.636-5.052h-.253l-1.866.027a.1.1,0,0,1-.109-.109v-.608a.1.1,0,0,1,.109-.109l1.866.027h1.415v-1.135a7.688,7.688,0,0,0-.1-1.483,8.3,8.3,0,0,1,.909.082q.171.021.171.116a.905.905,0,0,1-.082.267,3.9,3.9,0,0,0-.075,1.019v1.135h1.736l1.935-.027a.1.1,0,0,1,.109.109Zm-7.6-2.085a.3.3,0,0,1-.109.2,1.1,1.1,0,0,0-.253.424,27,27,0,0,1-1.47,2.864,8.9,8.9,0,0,1,1.326,1.9,3.063,3.063,0,0,1,.26,1.265q0,1.839-2.044,1.914a.294.294,0,0,0-.055.007h-.082q-.123,0-.157-.055a.737.737,0,0,1-.062-.205,1.153,1.153,0,0,0-.267-.567q.191.007.355.007,1.5,0,1.5-1.1a2.654,2.654,0,0,0-.362-1.271,13.045,13.045,0,0,0-1.278-1.812,24.538,24.538,0,0,0,1.572-3.356h-2.187v8.176l.027,2.83a.1.1,0,0,1-.109.109h-.649a.1.1,0,0,1-.109-.109l.027-2.83v-6l-.027-2.857a.1.1,0,0,1,.109-.109l1.107.027h1.853a.827.827,0,0,0,.321-.041.3.3,0,0,1,.137-.027q.123,0,.376.253T206.568,104.671Zm14.882,5.947v2.769h-.937v-2.338q-.321.164-.663.355-1.791,1.012-1.791,2.03a.927.927,0,0,0,.629.943,6.4,6.4,0,0,0,2.078.232q1.47,0,3.411-.171l.041.95q-2.55.13-3.384.13a5.879,5.879,0,0,1-2.967-.513,1.772,1.772,0,0,1-.7-1.6,3.066,3.066,0,0,1,1.88-2.55q.711-.4,1.456-.772-.068-1.312-.909-1.312-1.176,0-3.227,2.365l-.725-.643a16.349,16.349,0,0,0,2.9-4.136q-1.278.021-2.563,0V105.5q1.477.027,2.953,0a12.511,12.511,0,0,0,.629-1.873l1.012.185a14.377,14.377,0,0,1-.588,1.647q1.969-.062,3.739-.239l.027.854q-2.3.185-4.143.239a14.3,14.3,0,0,1-1.176,1.989l-.355.362.041.055a2.492,2.492,0,0,1,1.668-.711,1.521,1.521,0,0,1,1.114.424,1.982,1.982,0,0,1,.526,1.217q1.094-.5,2.844-1.237l.39.957Q222.38,110.208,221.45,110.618Zm17.459,4.02a2,2,0,0,0-.191.615q-.034.226-.1.267a.751.751,0,0,1-.246.041h-.513a10.97,10.97,0,0,1-4.026-.6,4.357,4.357,0,0,1-2.42-2.215,8.119,8.119,0,0,1-1.75,2.878q-.15.15-.191.15t-.185-.157a1.6,1.6,0,0,0-.444-.362,7,7,0,0,0,1.654-2.3,8.667,8.667,0,0,0,.608-2.5,4.056,4.056,0,0,0,.048-.595,2.035,2.035,0,0,0-.021-.3q.472.062.786.13.212.041.212.15a.481.481,0,0,1-.089.212,2.45,2.45,0,0,0-.123.431q-.109.752-.253,1.347a4.311,4.311,0,0,0,2.146,2.229v-5.619h-1.025l-1.8.034a.1.1,0,0,1-.109-.109l.027-1.237v-1.62l-.027-1.23q0-.116.109-.116l1.8.027h2.857l1.791-.027a.1.1,0,0,1,.116.116l-.027,1.23v1.62l.027,1.237q0,.109-.116.109l-1.791-.034h-1v2.283H236.6l1.306-.027a.1.1,0,0,1,.109.109v.581q0,.123-.109.123l-1.306-.027h-1.955v2.885a10.382,10.382,0,0,0,2.851.335Q238.116,114.706,238.909,114.638Zm-2.222-6.918v-2.769h-4.956v2.769Zm-6.781-3.849a.227.227,0,0,1-.116.2,1.263,1.263,0,0,0-.294.526,22.247,22.247,0,0,1-.909,2.119v6.966l.027,2.188q0,.109-.116.109h-.656a.1.1,0,0,1-.109-.109l.027-2.187v-3.555q0-.643.027-2.017a13.339,13.339,0,0,1-1.319,1.8q-.1.123-.15.123t-.13-.171a1.867,1.867,0,0,0-.349-.54,13.769,13.769,0,0,0,2.83-4.956,4.6,4.6,0,0,0,.212-.957,8.318,8.318,0,0,1,.868.308Q229.906,103.782,229.906,103.871Zm22.531,9.393a.1.1,0,0,1-.109.109l-1.88-.027h-3.6l-1.921.027a.1.1,0,0,1-.109-.109l.027-1.791V107.2q-.308.431-.95,1.21-.15.164-.185.164t-.191-.185a2.356,2.356,0,0,0-.369-.308,11.9,11.9,0,0,0,2.5-3.712,4.1,4.1,0,0,0,.267-.909,3.882,3.882,0,0,1,.793.253q.157.068.157.157t-.144.178a1.708,1.708,0,0,0-.287.451q-.41.813-.636,1.2h2.447a11.15,11.15,0,0,0,.69-1.442,3.258,3.258,0,0,0,.185-.725,6.234,6.234,0,0,1,.807.219q.157.068.157.157a.227.227,0,0,1-.109.178.937.937,0,0,0-.294.383q-.355.752-.636,1.23h1.388l1.791-.027q.13,0,.13.109v.533q0,.109-.13.109l-1.791-.027h-1.483v1.559h.937l1.736-.027q.116,0,.116.109v.52q0,.109-.116.109l-1.736-.027h-.937v1.586h.937l1.736-.027q.116,0,.116.123v.506q0,.109-.116.109l-1.736-.027h-.937v1.736h1.5l1.88-.027a.1.1,0,0,1,.109.109Zm-4.259-.615v-1.736h-2.543v1.736Zm0-2.42v-1.586h-2.543v1.586Zm0-2.27V106.4h-2.543v1.559Zm4.915,6.59a1.505,1.505,0,0,0-.267.629q-.034.232-.082.267a.506.506,0,0,1-.239.041q-2.728.171-4.97.171a9.243,9.243,0,0,1-3.445-.444,2.82,2.82,0,0,1-1.306-1.388,15.586,15.586,0,0,1-1.511,1.374,1.076,1.076,0,0,0-.294.28.2.2,0,0,1-.164.123.211.211,0,0,1-.171-.109,5.454,5.454,0,0,1-.4-.745,6.941,6.941,0,0,0,.868-.52,8.748,8.748,0,0,0,1.285-1.148v-3.452h-1.039l-.978.027q-.109,0-.109-.116v-.615a.1.1,0,0,1,.109-.109l.978.027h.759l1.012-.027a.1.1,0,0,1,.109.109l-.027,1.306v2.885a2.372,2.372,0,0,0,1.2,1.381,7.731,7.731,0,0,0,2.8.349Q250.045,114.843,253.094,114.549Zm-9.871-8.606a.2.2,0,0,1,.041.1q0,.055-.1.13l-.362.308a.373.373,0,0,1-.157.089q-.048,0-.1-.075a12.575,12.575,0,0,0-1.654-2.017q-.062-.062-.062-.1t.116-.13l.342-.267a.379.379,0,0,1,.13-.068.149.149,0,0,1,.089.055A13.239,13.239,0,0,1,243.223,105.942Zm12.1-1.976h1.046q-.239,7.191-.239,8.668a2.136,2.136,0,0,0,.458,1.579,2.222,2.222,0,0,0,1.545.424,3.218,3.218,0,0,0,2.44-.943,5.471,5.471,0,0,0,1.217-2.673l.95.479q-.93,4.074-4.58,4.074a3.2,3.2,0,0,1-2.4-.718,3.1,3.1,0,0,1-.608-2.153q0-.766.062-3.753Q255.295,105.334,255.322,103.967Zm17.623.772.027.964a5.312,5.312,0,0,0-2.311.629,5.934,5.934,0,0,0-2.071,1.962,4.817,4.817,0,0,0-.813,2.659,2.958,2.958,0,0,0,1.285,2.529,6.17,6.17,0,0,0,2.933,1l-.239,1a6.1,6.1,0,0,1-3.63-1.381,3.89,3.89,0,0,1-1.312-3.049,5.709,5.709,0,0,1,2.994-5.024l.759-.335-.014-.027-.656.109q-1.189.068-5.66.479l-.082-.923Q266.157,105.177,272.945,104.739Zm6,6.549.854.615q-.677,3.377-2.27,3.377a1.651,1.651,0,0,1-1.538-1.019,9.208,9.208,0,0,1-.718-3.227q-.109-1.312-.109-3.541l.014-2.632h1.012l-.021,2.188q0,2.646.116,3.9.267,3.22,1.217,3.22.485,0,.813-.711A11.913,11.913,0,0,0,278.94,111.288Zm2.1-5.346.909-.267a17.058,17.058,0,0,1,2.427,7.574l-1.053.171A17.589,17.589,0,0,0,281.039,105.942Zm9.222-.349q-.027-1.176-.027-1.853h1v1.812q1.7-.062,3.37-.267v.868q-1.531.185-3.356.253l.041,2.01q1.935-.089,3.247-.26v.868q-1.538.171-3.233.232.014.335.062,1.449.027.745.048,1.2a10.066,10.066,0,0,1,3.726,2.372l-.7.861a9.516,9.516,0,0,0-3.015-2.249v.15a2.184,2.184,0,0,1-2.475,2.468,3.271,3.271,0,0,1-2.017-.5,1.7,1.7,0,0,1-.6-1.436,1.679,1.679,0,0,1,.8-1.449,3.138,3.138,0,0,1,1.832-.5,8.4,8.4,0,0,1,1.47.1q-.048-.848-.1-2.427-1.825.048-3.644,0v-.848q1.7.055,3.63.014-.027-.383-.034-1.087-.014-.663-.027-.943-2.105.041-3.794-.027v-.841Q288.155,105.642,290.261,105.594Zm.171,7.055a5.407,5.407,0,0,0-1.374-.185q-1.832,0-1.832,1.107,0,1.066,1.654,1.066,1.552,0,1.552-1.866Zm12.517-6.146q-.041,1.518,0,3.035a5.324,5.324,0,0,1,.308,1.777,3.687,3.687,0,0,1-1.306,3.069,7.744,7.744,0,0,1-3.274,1.271l-.588-.841a6.334,6.334,0,0,0,3.411-1.381,2.741,2.741,0,0,0,.807-1.88,1.856,1.856,0,0,1-1.8.882,2.2,2.2,0,0,1-1.531-.574,2.3,2.3,0,0,1,.123-3.356,2.469,2.469,0,0,1,1.559-.492,2,2,0,0,1,1.36.39q-.027-1.312-.027-1.873-2.249.034-5.435.239l-.014-.9q2.584-.1,5.435-.171v-1.9l1,.014q0,.629-.027,1.859,2.324-.027,3.363-.027v.9Q304.63,106.5,302.948,106.5Zm-2.338,2.3a1.322,1.322,0,0,0-.984.4,1.413,1.413,0,0,0-.39,1.046,1.237,1.237,0,0,0,.444,1,1.288,1.288,0,0,0,.848.294,1.405,1.405,0,0,0,1.1-.41,1.3,1.3,0,0,0,.314-.916Q301.943,108.8,300.61,108.8Zm9.324,3.527a1.915,1.915,0,0,1,1.463.643,1.916,1.916,0,0,1-.144,2.748,1.936,1.936,0,0,1-1.319.5,1.9,1.9,0,0,1-1.463-.643,1.916,1.916,0,0,1,.144-2.748A1.936,1.936,0,0,1,309.935,112.327Zm0,.7a1.269,1.269,0,0,0-1.251,1.251,1.253,1.253,0,0,0,2.181.834,1.247,1.247,0,0,0-.93-2.085Z"
									transform="translate(-0.629 -3.324)" fill="#5a5858" />
							</svg>