	<svg xmlns="http://www.w3.org/2000/svg" xmlns:xlink="http://www.w3.org/1999/xlink"
								width="194.203" height="26.677" viewBox="0 0 194.203 26.677">
								<defs>
									<clipPath id="clip-path">
										<rect id="Прямоугольник_117" data-name="Прямоугольник 117" width="32.448"
											height="26.677" transform="translate(0 0)" fill="none" />
									</clipPath>
								</defs>
								<g id="Сгруппировать_374" data-name="Сгруппировать 374"
									transform="translate(-79.5 -8430)">
									<g id="Сгруппировать_196" data-name="Сгруппировать 196"
										transform="translate(79.5 8430)">
										<g id="Сгруппировать_195" data-name="Сгруппировать 195"
											clip-path="url(#clip-path)">
											<rect id="Прямоугольник_116" data-name="Прямоугольник 116" width="25.677"
												height="25.677" rx="4.779" transform="translate(0.5 0.5)" fill="none"
												stroke="#5abba1" stroke-linecap="round" stroke-miterlimit="10"
												stroke-width="1" />
											<path id="Контур_1096" data-name="Контур 1096"
												d="M15.6,14.471,8.043,5.165l-1.13.83L5.7,6.883,4.587,7.7l-1.131.83,11,12.738a.761.761,0,0,0,1.169-.02l1.3-1.613.04-.05L32.4.422A.227.227,0,0,0,32.07.109Z"
												fill="#fb7180" />
										</g>
									</g>
									<path id="Контур_1732" data-name="Контур 1732"
										d="M-59-1.406h3.507V-.2H-68.379v-1.2h7.954l.809-10.222h-7.339v-1.2h8.868Zm5.291-5.977h9.791v1.336H-53.71Zm15.7-3.287H-33.5v-3.313h1.354v3.313h2.892v1.2h-2.892v1.274q0,4.43-1.89,6.5a9.549,9.549,0,0,1-4.9,2.487l-.729-1.028Q-36.2-.976-34.84-2.76A8.619,8.619,0,0,0-33.5-8.024V-9.466h-4.518v4.693h-1.354V-9.466h-2.751v-1.2h2.751v-3.639h1.354Zm6.047-4.43.923-.29a20.707,20.707,0,0,1,1.09,3.146l-.984.308A19.142,19.142,0,0,0-31.966-15.1Zm1.942-.448.923-.255a13.285,13.285,0,0,1,1.037,3.041l-.949.308A16.956,16.956,0,0,0-30.023-15.548Zm2.865,8.165h9.791v1.336h-9.791ZM-8.5-8.446h4.588v1.2H-8.5A9.34,9.34,0,0,1-9.905-1.775,8.541,8.541,0,0,1-13.456.738l-.9-.976a7.1,7.1,0,0,0,3.56-2.733,8.793,8.793,0,0,0,.905-4.28h-5.581v-1.2h5.581v-3.234q-2.215.413-4.359.633l-.5-1.16A37.973,37.973,0,0,0-5.7-14.036l.668,1.134a35.184,35.184,0,0,1-3.472.932ZM1.679-9.2H-1.582v-1.169h8V-9.2H3.032v7.91H6.97V-.123H-2.136V-1.292H1.679Zm7.189-.554,1.151-.5a24.593,24.593,0,0,1,1.494,3.92l-1.187.466A21.961,21.961,0,0,0,8.868-9.756Zm3.4-.773L13.4-11a23.173,23.173,0,0,1,1.318,3.85l-1.178.5A18.3,18.3,0,0,0,12.27-10.529ZM10.863,0a9.123,9.123,0,0,0,4.825-3.964A15.046,15.046,0,0,0,17.253-10.6l1.318.281A17.086,17.086,0,0,1,16.77-3.3,8.494,8.494,0,0,1,14.616-.782a13.131,13.131,0,0,1-2.979,1.7ZM25.2-11.391a16.877,16.877,0,0,1-3.313,5.177L20.856-7a15.746,15.746,0,0,0,3.885-7.488l1.424.22q-.185.694-.519,1.688h6.24q-.844,6.205-3.437,9.457A13.466,13.466,0,0,1,22.764.861l-.791-.967a12.466,12.466,0,0,0,5.766-4.263,16.176,16.176,0,0,0,2.531-7.022Zm25.207,10a4.538,4.538,0,0,1-.6,1.925,1.189,1.189,0,0,1-1.02.492q-1.441,0-2.7-1.986A13.927,13.927,0,0,1,42.108,1.1a1.354,1.354,0,0,1-.272.07q-.1,0-.229-.29a1.97,1.97,0,0,0-.448-.536,12.167,12.167,0,0,0,4.482-2.109,9.763,9.763,0,0,1-.58-1.424A13.461,13.461,0,0,1,44.6-4.825H41.353A8.725,8.725,0,0,1,39,.853q-.185.176-.255.176-.1,0-.272-.2a1.859,1.859,0,0,0-.519-.4A6.018,6.018,0,0,0,39.788-2a8.97,8.97,0,0,0,.571-2.821q-.686.009-1.222.026l-.36.009a.124.124,0,0,1-.141-.141v-.686a.124.124,0,0,1,.141-.141l2.522.035h3.094a45,45,0,0,1-.773-6.8,15.784,15.784,0,0,0-.193-2.3,9.5,9.5,0,0,1,1.1.105q.272.035.272.158a1.011,1.011,0,0,1-.114.343,3.966,3.966,0,0,0-.062.94v.7a37.115,37.115,0,0,0,.765,6.855h2.25l2.54-.035q.123,0,.123.141v.686q0,.141-.123.141l-2.54-.035H45.6a11.752,11.752,0,0,0,.325,1.134,8.145,8.145,0,0,0,.51,1.3,9.975,9.975,0,0,0,1.081-1.16A3.467,3.467,0,0,0,48-4.412a4.491,4.491,0,0,1,.809.483q.149.123.149.22,0,.114-.167.2a1.864,1.864,0,0,0-.5.466A12.426,12.426,0,0,1,46.881-1.6Q47.892-.035,48.7-.035q.4,0,.589-.562a8.014,8.014,0,0,0,.272-1.74,2.252,2.252,0,0,0,.58.413q.308.158.308.29A1.544,1.544,0,0,1,50.405-1.389ZM38.927-10.1q0,.141-.158.141l-1.477-.035a14.244,14.244,0,0,0,1.564,3.5,4.423,4.423,0,0,0-.413.738q-.079.176-.141.176t-.149-.176a18.863,18.863,0,0,1-1.081-3.278q.018,3.524.105,7.392.026.976.062,2.162.018.589.018.633,0,.123-.149.123H36.3q-.141,0-.141-.123,0-.009.035-1.547.114-4.544.141-8.481a24.128,24.128,0,0,1-1.854,5.634q-.114.2-.176.2t-.149-.176a1.841,1.841,0,0,0-.448-.668,20.027,20.027,0,0,0,1.371-2.988q.431-1.2.932-3.12H35.9l-1.582.035q-.167,0-.167-.141v-.721q0-.141.167-.141l1.582.035h.308v-1.784a13.038,13.038,0,0,0-.132-2.2,11.108,11.108,0,0,1,1.107.114q.22.026.22.141a1.068,1.068,0,0,1-.114.36,6.759,6.759,0,0,0-.088,1.547v1.819l1.564-.035q.158,0,.158.141Zm4.8,2.883a.207.207,0,0,1,.026.088q0,.07-.149.149l-.413.176a.617.617,0,0,1-.176.07q-.053,0-.079-.105l-.193-.571q-1.292.237-2.681.4a1.235,1.235,0,0,0-.615.167.38.38,0,0,1-.193.088q-.149,0-.2-.193a5.834,5.834,0,0,1-.176-.879q.211.018.571.018.65-.791,1.354-1.8a14.12,14.12,0,0,0-1.951-2.162q-.062-.053-.062-.088t.123-.185l.316-.343q.079-.079.114-.079a.194.194,0,0,1,.088.044l.4.378a11.869,11.869,0,0,0,1.134-1.89,3.2,3.2,0,0,0,.237-.668,3.686,3.686,0,0,1,.861.422q.167.088.167.193t-.167.2a.864.864,0,0,0-.29.325q-.976,1.564-1.327,2.013.606.686.9,1.028l.615-1.011a3.347,3.347,0,0,0,.36-.809,4.8,4.8,0,0,1,.861.5q.149.114.149.2,0,.105-.185.193a3.764,3.764,0,0,0-.633.756q-1.169,1.714-1.96,2.7.993-.088,1.925-.229a8.447,8.447,0,0,0-.413-.809.27.27,0,0,1-.035-.105q0-.07.158-.132l.413-.185a.4.4,0,0,1,.123-.035q.053,0,.1.1A11.336,11.336,0,0,1,43.726-7.216Zm6.662-.272a.2.2,0,0,1,.018.07q0,.088-.141.149l-.378.176a.488.488,0,0,1-.167.062q-.053,0-.088-.114a4.937,4.937,0,0,0-.272-.677q-2,.308-2.8.387a1.74,1.74,0,0,0-.633.185.553.553,0,0,1-.193.07q-.141,0-.2-.2-.053-.167-.176-.844a3.778,3.778,0,0,0,.519.026q.7-.87,1.151-1.521a14,14,0,0,0-1.907-2.188q-.07-.062-.07-.1t.123-.176l.325-.343q.1-.1.123-.1a.224.224,0,0,1,.1.053l.413.422a13.137,13.137,0,0,0,1.046-1.767,2.488,2.488,0,0,0,.246-.7,3.686,3.686,0,0,1,.861.422q.167.088.167.193,0,.132-.167.2a.632.632,0,0,0-.281.316q-.844,1.38-1.283,1.951.308.343.853,1.02.422-.606.791-1.257a2.944,2.944,0,0,0,.36-.809,5.8,5.8,0,0,1,.861.5q.149.114.149.2,0,.114-.185.193a3.834,3.834,0,0,0-.633.756Q47.637-9.1,46.951-8.279q1.081-.088,2.092-.229-.193-.369-.475-.809a.276.276,0,0,1-.035-.1q0-.044.2-.141l.325-.167a.337.337,0,0,1,.132-.044q.044,0,.114.105A11.2,11.2,0,0,1,50.388-7.488Zm-6.565,5.15a.122.122,0,0,1,.062.1.328.328,0,0,1-.079.149l-.272.378q-.123.167-.176.167a.192.192,0,0,1-.114-.07,8.763,8.763,0,0,0-1.714-1.3q-.079-.044-.079-.079a.552.552,0,0,1,.123-.185l.246-.325q.088-.1.141-.1a.332.332,0,0,1,.114.035A12.1,12.1,0,0,1,43.822-2.338ZM48.6-6.407q.079.07.079.105t-.114.132l-.281.246q-.132.114-.176.114T48-5.9A4.753,4.753,0,0,0,47-6.838q-.079-.062-.079-.1t.149-.158l.237-.193a.271.271,0,0,1,.158-.088.3.3,0,0,1,.149.07A8.832,8.832,0,0,1,48.6-6.407ZM59.449-.536a1.447,1.447,0,0,1-.36,1.169,3.485,3.485,0,0,1-1.854.325A.575.575,0,0,1,56.9.9a.781.781,0,0,1-.114-.3,2.9,2.9,0,0,0-.29-.686,9.282,9.282,0,0,0,1.116.07.889.889,0,0,0,.65-.185.742.742,0,0,0,.158-.536v-2.03H54.606v1.512L54.642.976a.124.124,0,0,1-.141.141h-.782a.124.124,0,0,1-.141-.141l.035-2.215V-6.434l-.035-2.241a.124.124,0,0,1,.141-.141l1.819.035h1.969l1.819-.035q.123,0,.123.141l-.018,2.355v3.41ZM58.421-3.63V-5.37H54.606v1.74Zm0-2.6V-7.884H54.606v1.652Zm9.756,4.808A2.615,2.615,0,0,1,67.421.308a4.957,4.957,0,0,1-2.812.554,7.761,7.761,0,0,1-2.7-.29,1.3,1.3,0,0,1-.668-1.327V-4.931a11.029,11.029,0,0,0-.105-1.819,10.888,10.888,0,0,1,1.151.105q.22.026.22.167a1.161,1.161,0,0,1-.114.325,4.737,4.737,0,0,0-.088,1.2V-3.8a19.253,19.253,0,0,0,3.437-1.547,3.832,3.832,0,0,0,.958-.721,5.8,5.8,0,0,1,.738.65.393.393,0,0,1,.141.264q0,.149-.237.185a3,3,0,0,0-.809.343A27.907,27.907,0,0,1,62.306-2.8V-1.1a.817.817,0,0,0,.466.826,6.68,6.68,0,0,0,1.872.158,3.532,3.532,0,0,0,2.074-.4,1.2,1.2,0,0,0,.36-.668,9.053,9.053,0,0,0,.105-1.09,4.308,4.308,0,0,0,.738.4q.281.114.281.237A1.894,1.894,0,0,1,68.177-1.424Zm-.132-8.314A3.685,3.685,0,0,1,67.79-8.6a1.566,1.566,0,0,1-.431.554,5.547,5.547,0,0,1-2.944.483,9.085,9.085,0,0,1-2.558-.22.878.878,0,0,1-.51-.4,1.6,1.6,0,0,1-.141-.756V-12.9a11.378,11.378,0,0,0-.105-1.837q.58.026,1.125.105.237.026.237.158a.811.811,0,0,1-.105.308,4.783,4.783,0,0,0-.088,1.222v1.3a19.266,19.266,0,0,0,3.261-1.441,3.492,3.492,0,0,0,.949-.721,7.159,7.159,0,0,1,.756.7.339.339,0,0,1,.123.22q0,.141-.237.176a4.943,4.943,0,0,0-.791.343,33.488,33.488,0,0,1-4.061,1.714v1.274a1.033,1.033,0,0,0,.1.527.623.623,0,0,0,.352.211,8.59,8.59,0,0,0,1.749.105,3.979,3.979,0,0,0,2.215-.36,2.938,2.938,0,0,0,.4-1.687,3.535,3.535,0,0,0,.7.4q.281.132.281.29A1.058,1.058,0,0,1,68.045-9.738ZM60.416-10.2a.277.277,0,0,1,.026.105q0,.079-.149.185l-.457.255a.523.523,0,0,1-.211.088q-.062,0-.132-.123a9.909,9.909,0,0,0-.448-.923q-2.417.422-5.467.773a1.9,1.9,0,0,0-.756.2.364.364,0,0,1-.22.07q-.105,0-.176-.22a8.02,8.02,0,0,1-.22-1.037q1.116,0,1.564-.044a21.025,21.025,0,0,0,1.354-2.8,7.3,7.3,0,0,0,.343-1.222,4.852,4.852,0,0,1,1,.264q.255.105.255.237a.405.405,0,0,1-.176.29,1.237,1.237,0,0,0-.308.466q-.712,1.521-1.371,2.663,2.145-.211,3.691-.448a12.866,12.866,0,0,0-.923-1.257.171.171,0,0,1-.035-.088q0-.07.167-.167l.378-.22a.306.306,0,0,1,.149-.053.17.17,0,0,1,.123.07A14.162,14.162,0,0,1,60.416-10.2Z"
										transform="translate(205.5 8449)" fill="#595757" />
								</g>
							</svg>