<svg xmlns="http://www.w3.org/2000/svg" width="199.117" height="13.159"
								viewBox="0 0 199.117 13.159">
								<path id="Контур_1731" data-name="Контур 1731"
									d="M.964-6.733l.479-.841A28.873,28.873,0,0,1,4.73-6.146l-.52.937A19.993,19.993,0,0,0,.964-6.733ZM2.222-9.728l.52-.827A20.246,20.246,0,0,1,5.934-9.03l-.561.923A17.538,17.538,0,0,0,2.222-9.728ZM9.557-8.8l.971.547A14.6,14.6,0,0,1,9.379-5.106a9.741,9.741,0,0,1-1.47,2.235A10.073,10.073,0,0,1,2.352.123L1.777-.759A9.086,9.086,0,0,0,7.1-3.555,11.559,11.559,0,0,0,9.557-8.8Zm2.481-1.374h7.711q-.041,5.011-1.8,7.506a9.622,9.622,0,0,1-4.7,3.261l-.588-.841A8.527,8.527,0,0,0,17.206-3.5a10.554,10.554,0,0,0,1.367-5.742H12.038ZM24.391-6.091V.561h-1.08V-11.184h1.08v4.061A21.8,21.8,0,0,1,29.723-4.9L29.189-3.89A17.7,17.7,0,0,0,24.391-6.091Zm9.174,1.08q-.7,0-2.126-.027v-.9q.588.027,2.215.027l.219-2.283q-1,0-2.352-.027v-.9q1.189.068,2.44.068.048-.424.123-1.155.089-.813.109-1.06l1.012.075q-.048.451-.123,1.169-.082.752-.1.957,1.442-.014,3.767-.157l.014.9q-1.839.116-3.876.116-.075.834-.253,2.283,2.235-.027,3.979-.157v.9q-2.16.137-4.061.157a32.724,32.724,0,0,0-.226,3.288,1.408,1.408,0,0,0,.5,1.23,2.723,2.723,0,0,0,1.531.335A3.8,3.8,0,0,0,38.562-.7a1.511,1.511,0,0,0,.649-1.292A3.093,3.093,0,0,0,38.4-4.006l.923-.349a3.489,3.489,0,0,1,.937,2.311q0,2.816-3.9,2.816A3.309,3.309,0,0,1,33.9.048a2.532,2.532,0,0,1-.54-1.784Q33.359-2.83,33.564-5.011Zm12.667.1a27.762,27.762,0,0,0-3.192-2.81l.684-.649A35.427,35.427,0,0,1,46.7-5.852a19.8,19.8,0,0,0,1.49-4.874l1.087.226A22.439,22.439,0,0,1,47.5-5.065a21.947,21.947,0,0,1,2.536,3.158l-.868.718A22.085,22.085,0,0,0,46.983-4.1,12.72,12.72,0,0,1,42.308.6l-.7-.7A12,12,0,0,0,46.231-4.915Zm6.563-4.662h6.959v.984H52.794ZM51.871-1.5h8.723V-.52H51.871ZM67.9-1h2.071V-.1H62V-1h4.847l.526-6.152H63.116v-.909h5.4Zm3.288-4.737H78.8V-4.7H71.189Zm11.423.731q-.7,0-2.126-.027v-.9q.588.027,2.215.027l.219-2.283q-1,0-2.352-.027v-.9q1.189.068,2.44.068.048-.424.123-1.155.089-.813.109-1.06l1.012.075q-.048.451-.123,1.169-.082.752-.1.957,1.442-.014,3.767-.157l.014.9q-1.839.116-3.876.116-.075.834-.253,2.283,2.235-.027,3.979-.157v.9q-2.16.137-4.061.157a32.724,32.724,0,0,0-.226,3.288,1.408,1.408,0,0,0,.5,1.23A2.723,2.723,0,0,0,85.4-.171,3.8,3.8,0,0,0,87.609-.7a1.511,1.511,0,0,0,.649-1.292,3.093,3.093,0,0,0-.813-2.017l.923-.349A3.489,3.489,0,0,1,89.3-2.044Q89.3.772,85.4.772A3.309,3.309,0,0,1,82.947.048a2.532,2.532,0,0,1-.54-1.784Q82.407-2.83,82.612-5.011ZM101.534.759q0,.1-.109.1h-.663q-.109,0-.109-.1V-.027H93.721v.8q0,.1-.109.1h-.663q-.109,0-.109-.1l.027-4.437V-6.255L92.839-9.6a.1.1,0,0,1,.109-.109l1.962.027h.827A12.481,12.481,0,0,0,96.3-11.17a3.218,3.218,0,0,0,.1-.615q.41.055.9.164.171.048.171.157a.228.228,0,0,1-.082.15,1.128,1.128,0,0,0-.212.355q-.308.82-.533,1.271h2.83l1.962-.027a.1.1,0,0,1,.109.109l-.027,3.028v2.9Zm-.882-1.586V-3.158H93.721V-.827Zm0-3.1v-2.1H93.721v2.1Zm0-2.871V-8.887H93.721V-6.8Zm14.171.868q-.014.232-.027.731-.014.479-.027.752a26.436,26.436,0,0,1-.335,3.527,2.075,2.075,0,0,1-.574,1.2,1.761,1.761,0,0,1-1.224.39q-.725,0-1.114-.041-.219-.014-.26-.062a.634.634,0,0,1-.082-.26,1.6,1.6,0,0,0-.28-.656,10.247,10.247,0,0,0,1.6.137.989.989,0,0,0,.772-.28,1.544,1.544,0,0,0,.308-.772,26.9,26.9,0,0,0,.308-3.985h-3.124A6.808,6.808,0,0,1,106.552.841a.872.872,0,0,1-.2.068q-.075,0-.212-.212A1.52,1.52,0,0,0,105.7.239a6.058,6.058,0,0,0,4.184-5.489h-.629l-1.88.027a.1.1,0,0,1-.109-.109v-.622a.1.1,0,0,1,.109-.109l1.88.027h3.541l1.907-.027Q114.823-6.063,114.823-5.934Zm-4.512-4.819q0,.068-.109.157a.808.808,0,0,0-.253.308,13.916,13.916,0,0,1-2.037,3.11,14.7,14.7,0,0,1-2.372,2.112.564.564,0,0,1-.212.123q-.075,0-.191-.185a1.6,1.6,0,0,0-.492-.458,11.291,11.291,0,0,0,2.81-2.427,10.521,10.521,0,0,0,1.559-2.461,3.377,3.377,0,0,0,.226-.827,4.943,4.943,0,0,1,.889.335Q110.312-10.883,110.312-10.753Zm7.41,4.983a2.01,2.01,0,0,0-.492.561q-.13.2-.164.2a.578.578,0,0,1-.2-.109,14.728,14.728,0,0,1-4.792-5.756.207.207,0,0,1-.021-.075q0-.034.15-.109l.417-.226a.43.43,0,0,1,.15-.055q.041,0,.075.1a12.071,12.071,0,0,0,2.167,3.288A11.7,11.7,0,0,0,117.722-5.77Zm8.155-1.388.718-.273a18.274,18.274,0,0,1,1.032,2.365l-.752.308A15.123,15.123,0,0,0,125.877-7.157Zm1.586-.472.7-.253a11.566,11.566,0,0,1,1,2.3l-.731.294A13.487,13.487,0,0,0,127.463-7.629Zm.39-2.632.027.964a5.312,5.312,0,0,0-2.311.629A5.934,5.934,0,0,0,123.5-6.706a4.817,4.817,0,0,0-.813,2.659,2.958,2.958,0,0,0,1.285,2.529,6.17,6.17,0,0,0,2.933,1l-.239,1A6.1,6.1,0,0,1,123.033-.9a3.89,3.89,0,0,1-1.312-3.049,5.709,5.709,0,0,1,2.994-5.024l.759-.335-.014-.027-.656.109q-1.189.068-5.66.479l-.082-.923Q121.064-9.823,127.853-10.261Zm6.706,1.606h4.074a56.3,56.3,0,0,1-.28,7.062,2.187,2.187,0,0,1-.8,1.634,5.824,5.824,0,0,1-2.406.308l-.328-1.032q.588.027.772.027a2.943,2.943,0,0,0,1.2-.157.7.7,0,0,0,.342-.335,3.539,3.539,0,0,0,.178-.813,47.629,47.629,0,0,0,.239-5.749h-3.042a13.241,13.241,0,0,1-1.094,5.141A7.906,7.906,0,0,1,130.73.465l-.711-.718a6.978,6.978,0,0,0,2.7-3.322,12.846,12.846,0,0,0,.731-4.136h-3.124v-.943h3.151q.014-.7.014-2.516h1.094Q134.586-10.083,134.559-8.654Zm11.32,4.648a12.594,12.594,0,0,1-5,4.423l-.615-.807A12.291,12.291,0,0,0,144.84-4.32a14.161,14.161,0,0,0,2.051-5.045h-5.879V-10.3h7.26a18.785,18.785,0,0,1-1.846,5.359,31.446,31.446,0,0,1,3.261,4.7l-1.032.656A25.126,25.126,0,0,0,145.879-4.006Zm10.931-.041a15.455,15.455,0,0,0-2.9-1.962l.574-.766a21.307,21.307,0,0,1,2.857,1.75,13.505,13.505,0,0,0,1.162-4.02h-3.9a11.485,11.485,0,0,1-2.81,4.17l-.827-.561a11.586,11.586,0,0,0,3.247-5.893l1.08.267q-.116.451-.321,1.094h4.84a16.092,16.092,0,0,1-2.509,7.075,10.892,10.892,0,0,1-4.7,3.507l-.663-.786A10.256,10.256,0,0,0,156.81-4.047Zm9.953,1.319q.9,1.3,1.682,2.687l-.923.588a27.864,27.864,0,0,0-4.648-6.453l.8-.588a26.844,26.844,0,0,1,2.461,2.885,22.9,22.9,0,0,0,2.994-5.715h-7.4v-.937h8.47l.362.485A31.43,31.43,0,0,1,166.763-2.728Zm9.81-4.149a32.432,32.432,0,0,1-3.931,2.632l-.574-.807a25.788,25.788,0,0,0,4.368-3.008,19.643,19.643,0,0,0,3.1-3.268l.923.574a22.1,22.1,0,0,1-2.8,2.98V.561h-1.08Zm11.484,1.935a31.446,31.446,0,0,1,3.261,4.7l-1.032.656a25.951,25.951,0,0,0-2.775-4.423,12.624,12.624,0,0,1-5,4.423L181.9-.39a12.291,12.291,0,0,0,4.573-3.931,14.161,14.161,0,0,0,2.051-5.045h-5.879V-10.3h6.378l.547,1.326A16.429,16.429,0,0,1,188.057-4.942Zm.978-6.747.718-.28A18.274,18.274,0,0,1,190.784-9.6l-.752.308A14.047,14.047,0,0,0,189.034-11.689ZM190.606-12l.7-.253a11.566,11.566,0,0,1,1,2.3l-.731.294A13.487,13.487,0,0,0,190.606-12Zm9.461,1.162-.321,7.978h-.9l-.267-7.978Zm.014,9.577v1.5h-1.524v-1.5Z"
									transform="translate(-0.964 12.25)" fill="#fff" />
							</svg>