<svg xmlns="http://www.w3.org/2000/svg" width="208.359" height="12.845"
								viewBox="0 0 208.359 12.845">
								<path id="Контур_1732" data-name="Контур 1732"
									d="M13.207-3.206q0,.109-.1.109L12.927-3.1q-.533-.014-1.2-.021v.9l.034,1.265q0,.109-.116.109h-.615a.1.1,0,0,1-.109-.109V-1.4H7.4L7.41-.376a2.005,2.005,0,0,1-.1.718.782.782,0,0,1-.294.342A4.308,4.308,0,0,1,5.127.937.411.411,0,0,1,4.874.889a.736.736,0,0,1-.1-.219A2.774,2.774,0,0,0,4.437.041,8.522,8.522,0,0,0,5.366.1Q5.5.1,5.674.1a1.255,1.255,0,0,0,.752-.144.713.713,0,0,0,.144-.526V-1.4H4.163l-1.976.027q-.116,0-.116-.109v-.492q0-.109.116-.109l1.976.027H6.569V-3.124H2.721L.909-3.1A.1.1,0,0,1,.8-3.206V-3.7a.1.1,0,0,1,.109-.109l1.812.027H6.569v-.984H4.163l-1.976.027q-.116,0-.116-.1v-.506q0-.109.116-.109l1.976.027H6.569v-.95H4.717l-1.976.027q-.109,0-.109-.123l.027-.772v-.588L2.632-8.6a.1.1,0,0,1,.109-.109l1.976.027H6.569V-9.55H2.816L.984-9.522q-.116,0-.116-.109v-.52q0-.109.116-.109l1.832.027H6.569a6.935,6.935,0,0,0-.1-1.456,6.54,6.54,0,0,1,.909.068q.171.027.171.116a.905.905,0,0,1-.082.267,3.843,3.843,0,0,0-.068.978v.027h3.746l1.839-.027a.1.1,0,0,1,.109.109v.52a.1.1,0,0,1-.109.109L11.143-9.55H7.4v.868H9.3l1.989-.027A.1.1,0,0,1,11.4-8.6l-.027.772v.588l.027.772q0,.123-.109.123L9.3-6.371H7.4v.95H9.646l2.01-.027a.1.1,0,0,1,.109.109L11.73-4.088v.308L13.1-3.808q.1,0,.1.109ZM10.924-2.058V-3.124H7.4v1.066Zm0-1.723v-.984H7.4v.984ZM10.6-6.986v-1.08H7.4v1.08Zm-4.033,0v-1.08H3.432v1.08ZM20.638-.308a1.186,1.186,0,0,1-.294.937,3.387,3.387,0,0,1-1.6.226.546.546,0,0,1-.26-.034.614.614,0,0,1-.075-.232,1.944,1.944,0,0,0-.253-.561q.6.041,1.053.041a.806.806,0,0,0,.513-.109.492.492,0,0,0,.1-.362V-2.1H16.871V-.937L16.9.882q0,.1-.109.1h-.636q-.109,0-.109-.1l.027-1.818V-5.373l-.027-1.853a.1.1,0,0,1,.109-.109l1.415.027h1.545l1.415-.027a.1.1,0,0,1,.109.109L20.61-5.3v3.151Zm-.813-2.536V-4.382H16.871v1.538Zm0-2.249v-1.49H16.871v1.49Zm7.308-3.568q0,.109-.116.109l-1.832-.027H16.857l-1.825.027a.1.1,0,0,1-.109-.109V-9.27a.1.1,0,0,1,.109-.109l1.825.027h4.956A15.964,15.964,0,0,0,22.9-10.979a3.514,3.514,0,0,0,.308-.738,5.77,5.77,0,0,1,.841.267q.144.055.144.15t-.13.171a2.683,2.683,0,0,0-.444.574q-.4.608-.868,1.2h2.434l1.832-.027q.116,0,.116.109Zm-.964,1.285a1.063,1.063,0,0,1-.1.28,6.289,6.289,0,0,0-.055,1.176v3.445L26.024-.52a1.245,1.245,0,0,1-.39,1.08,1.41,1.41,0,0,1-.629.212,12.28,12.28,0,0,1-1.237.041.465.465,0,0,1-.26-.041A.623.623,0,0,1,23.42.533a1.521,1.521,0,0,0-.267-.6A11.393,11.393,0,0,0,24.473,0a.8.8,0,0,0,.567-.144.767.767,0,0,0,.144-.54V-5.906a9.328,9.328,0,0,0-.1-1.654q.485.021.909.075Q26.168-7.465,26.168-7.376Zm-2.789.615a.361.361,0,0,1-.034.123.892.892,0,0,0-.048.116,7.227,7.227,0,0,0-.055,1.258v1.791L23.27-2.03q0,.109-.1.109h-.636a.1.1,0,0,1-.109-.109l.027-1.442V-5.25a10.431,10.431,0,0,0-.1-1.723,8.388,8.388,0,0,1,.868.082Q23.379-6.863,23.379-6.761Zm-3.767-3.274a.161.161,0,0,1,.021.068q0,.048-.171.123l-.4.157a.585.585,0,0,1-.185.062q-.048,0-.082-.089a8.922,8.922,0,0,0-.882-1.531.166.166,0,0,1-.041-.082q0-.048.144-.1l.39-.157a.628.628,0,0,1,.164-.055.129.129,0,0,1,.089.055A7.82,7.82,0,0,1,19.612-10.035ZM41.3-4.587q0,.109-.116.109L39.218-4.5H36.7a7.7,7.7,0,0,0,1.9,2.878A9.869,9.869,0,0,0,41.275.212a1.829,1.829,0,0,0-.424.561q-.123.212-.178.212a.678.678,0,0,1-.226-.109,9.26,9.26,0,0,1-4.3-4.915A7.554,7.554,0,0,1,32.272.943a.552.552,0,0,1-.212.082q-.062,0-.212-.2a1.767,1.767,0,0,0-.458-.444,8.55,8.55,0,0,0,2.769-2.105,6.622,6.622,0,0,0,1.2-2.434l.082-.349H34.187L32.2-4.478a.1.1,0,0,1-.109-.109v-.581q0-.123.109-.123l1.989.027h1.4a27.34,27.34,0,0,0,.185-2.885h-.984l-1.8.027a.1.1,0,0,1-.109-.109v-.608a.1.1,0,0,1,.109-.109l1.8.027h1v-1.107a9.736,9.736,0,0,0-.1-1.565,8.167,8.167,0,0,1,.923.082q.185.041.185.144a1.25,1.25,0,0,1-.082.28,3.187,3.187,0,0,0-.089.978v1.189h1.36l1.853-.027a.1.1,0,0,1,.109.109l-.027,1.224v2.352l1.271-.027q.116,0,.116.123Zm-2.215-.677V-8.148H36.606A25.042,25.042,0,0,1,36.4-5.264Zm-7.4,2.1Q31.131-1.627,30.338.1a4.508,4.508,0,0,0-.253.615q-.048.171-.137.171A.432.432,0,0,1,29.736.8a6.2,6.2,0,0,1-.643-.479,5.858,5.858,0,0,0,.745-1.148A30.624,30.624,0,0,0,31.11-4.02a2.425,2.425,0,0,0,.438.424q.191.144.191.226A.844.844,0,0,1,31.685-3.165Zm.492-6.562a.149.149,0,0,1,.055.089.315.315,0,0,1-.082.144l-.314.4q-.089.116-.13.116a.11.11,0,0,1-.075-.048,10.593,10.593,0,0,0-1.887-1.627q-.075-.048-.075-.082a.284.284,0,0,1,.082-.137l.294-.335q.1-.1.137-.1a.168.168,0,0,1,.075.027A10.085,10.085,0,0,1,32.177-9.728Zm-.786,3.4a.137.137,0,0,1,.041.075.423.423,0,0,1-.082.164l-.294.39q-.082.109-.123.109a.168.168,0,0,1-.1-.062,9.535,9.535,0,0,0-1.887-1.531q-.068-.034-.068-.068a.389.389,0,0,1,.1-.15l.267-.342q.075-.089.116-.089a.183.183,0,0,1,.089.034A10.079,10.079,0,0,1,31.391-6.33Zm24.09.321a2.034,2.034,0,0,0-.321.547q-.1.226-.191.226a1.293,1.293,0,0,1-.191-.027q-.813-.164-1.271-.28V-.909l.027,1.7q0,.116-.109.116h-.649q-.109,0-.109-.116l.027-1.7V-1.976H47.975l-.041.137A5.06,5.06,0,0,1,46.184.786a.578.578,0,0,1-.2.109q-.068,0-.212-.144A1.808,1.808,0,0,0,45.24.376a4.2,4.2,0,0,0,1.921-2.488,8.507,8.507,0,0,0,.294-1.5q.062-.656.068-1.941-.4.1-1.176.232a1.412,1.412,0,0,1-.171.021q-.116,0-.205-.232a1.485,1.485,0,0,0-.308-.5A13.06,13.06,0,0,0,49.752-7.13a6.943,6.943,0,0,1-2.03-2.1q-.588.007-1.032.021l-.226.007h-.075q-.123,0-.123-.109v-.547q0-.109.123-.109l1.962.027h1.641v-.431a6.048,6.048,0,0,0-.1-1.278q.479.021.93.082.164.027.164.116a.905.905,0,0,1-.082.267,2.676,2.676,0,0,0-.068.779v.465H53l1.976-.027a.1.1,0,0,1,.109.109v.547a.1.1,0,0,1-.109.109L53.2-9.229a7.1,7.1,0,0,1-1.935,2.071A15.426,15.426,0,0,0,55.48-6.009ZM52.691-2.687V-4.136H48.3a9.606,9.606,0,0,1-.171,1.449Zm0-2.146V-5.77a10.4,10.4,0,0,1-2.187-.9,10.469,10.469,0,0,1-2.167.9q0,.656-.014.937Zm-.437-4.4H48.617a5.891,5.891,0,0,0,1.9,1.682A5.485,5.485,0,0,0,52.254-9.229Zm-6.6,6.036A34.782,34.782,0,0,1,44.194.027a2.941,2.941,0,0,0-.28.615q-.021.144-.137.144a.367.367,0,0,1-.2-.082q-.321-.226-.643-.492A5.507,5.507,0,0,0,43.7-.909a24.812,24.812,0,0,0,1.381-3.138,3.272,3.272,0,0,0,.438.424q.2.15.2.226A.769.769,0,0,1,45.65-3.192Zm.321-6.535a.146.146,0,0,1,.062.1.328.328,0,0,1-.089.157l-.294.362Q45.568-9,45.521-9a.114.114,0,0,1-.075-.041,10.414,10.414,0,0,0-1.88-1.613q-.062-.041-.062-.075t.1-.144l.28-.321q.1-.116.15-.116a.168.168,0,0,1,.075.027A10.416,10.416,0,0,1,45.972-9.728Zm-.684,3.384a.131.131,0,0,1,.048.082q0,.041-.089.144l-.294.376q-.1.123-.144.123-.027,0-.082-.055a10.127,10.127,0,0,0-1.873-1.511q-.062-.034-.062-.068a.339.339,0,0,1,.089-.15l.267-.355q.068-.089.116-.089a.221.221,0,0,1,.089.034A9.829,9.829,0,0,1,45.288-6.344ZM63.7-7.157l.718-.273a18.274,18.274,0,0,1,1.032,2.365l-.752.308A15.123,15.123,0,0,0,63.7-7.157Zm1.586-.472.7-.253a11.566,11.566,0,0,1,1,2.3l-.731.294A13.488,13.488,0,0,0,65.283-7.629Zm.39-2.632L65.7-9.3a5.312,5.312,0,0,0-2.311.629,5.934,5.934,0,0,0-2.071,1.962A4.817,4.817,0,0,0,60.5-4.047,2.958,2.958,0,0,0,61.79-1.518a6.17,6.17,0,0,0,2.933,1l-.239,1A6.1,6.1,0,0,1,60.854-.9a3.89,3.89,0,0,1-1.312-3.049,5.709,5.709,0,0,1,2.994-5.024l.759-.335-.014-.027-.656.109q-1.189.068-5.66.479l-.082-.923Q58.885-9.823,65.673-10.261ZM80.486-6.043q0,.109-.116.109l-1.8-.027h-.28v2.379l1.565-.027q.116,0,.116.109v.561q0,.109-.116.109l-1.914-.027H70.752l-1.9.027q-.116,0-.116-.109V-3.5q0-.109.116-.109l1.552.027V-5.961H70l-1.812.027a.1.1,0,0,1-.109-.109v-.595a.1.1,0,0,1,.109-.109L70-6.72h.4V-8.764A14.026,14.026,0,0,1,69.3-7.6q-.137.144-.191.144-.075,0-.212-.185a1.413,1.413,0,0,0-.4-.335A9.471,9.471,0,0,0,71-10.951a3.566,3.566,0,0,0,.335-.868,3.593,3.593,0,0,1,.786.28q.123.048.123.137t-.123.171a1.286,1.286,0,0,0-.335.431q-.321.567-.629,1.025h6.631L79.782-9.8q.116,0,.116.109v.581Q79.9-9,79.782-9l-.191-.007q-.567-.014-1.306-.021V-6.72h.28l1.8-.027q.116,0,.116.109ZM77.513-3.582V-5.961H75.879v2.379Zm-2.393,0V-5.961H73.514v2.379ZM77.513-6.72V-9.03H75.879V-6.72ZM72.755-3.582V-5.961H71.176v2.379ZM75.12-6.72V-9.03H73.514V-6.72Zm-2.365,0V-9.03H71.176V-6.72ZM70.82-1.791A9.142,9.142,0,0,1,69.029.656a.15.15,0,0,1-.1.055.408.408,0,0,1-.171-.082L68.414.362Q68.3.273,68.3.219a.174.174,0,0,1,.055-.1,7.047,7.047,0,0,0,1.723-2.27q.034-.062.075-.062a.681.681,0,0,1,.191.068l.349.15q.137.075.137.137A.217.217,0,0,1,70.82-1.791ZM80.076.123A.213.213,0,0,1,80.1.212q0,.062-.15.137l-.4.2a.534.534,0,0,1-.178.075q-.041,0-.089-.075a11.361,11.361,0,0,0-1.552-2.42.137.137,0,0,1-.041-.075q0-.034.157-.109l.335-.171a.49.49,0,0,1,.144-.048.192.192,0,0,1,.109.062A11.111,11.111,0,0,1,80.076.123ZM76.508.267a.29.29,0,0,1,.014.068q0,.062-.157.1L75.92.547a.978.978,0,0,1-.178.034q-.068,0-.089-.1a9.954,9.954,0,0,0-.711-2.276.207.207,0,0,1-.021-.068q0-.048.171-.1l.39-.109a.561.561,0,0,1,.116-.021q.055,0,.109.089A10.742,10.742,0,0,1,76.508.267ZM73.384.376a.288.288,0,0,1,.007.048q0,.082-.171.1l-.479.055q-.075.007-.109.007-.1,0-.1-.123a9.826,9.826,0,0,0-.39-2.249.555.555,0,0,1-.007-.068q0-.068.205-.1l.39-.068a.474.474,0,0,1,.1-.014q.075,0,.1.109A11.515,11.515,0,0,1,73.384.376ZM94.705-6.241q0,.109-.1.109l-1.7-.027v4.983L92.941.909q0,.116-.109.116h-.69q-.109,0-.109-.116l.027-2.085V-6.159H90.07a17.78,17.78,0,0,1-.321,4.033A7.423,7.423,0,0,1,88.361.738q-.13.171-.185.171T88,.745a1.86,1.86,0,0,0-.479-.424,6.139,6.139,0,0,0,1.5-2.994A21.153,21.153,0,0,0,89.257-6.4V-8.121a17.682,17.682,0,0,0-.1-2,4.965,4.965,0,0,1,.9.253,11.4,11.4,0,0,0,2.707-1.039,3.4,3.4,0,0,0,.7-.485,3.708,3.708,0,0,1,.629.629.305.305,0,0,1,.082.178q0,.109-.185.13a1.827,1.827,0,0,0-.513.164,19.809,19.809,0,0,1-3.4,1.2v2.181h2.844l1.7-.027q.1,0,.1.109ZM88.717-4.074a1.76,1.76,0,0,0-.376.479q-.062.123-.109.123T88.074-3.6A8.593,8.593,0,0,1,86.55-6.07q.068,3.124.068,4.04,0,.116-.109.116h-.554q-.109,0-.109-.116,0-.349.055-3.931a9.1,9.1,0,0,1-1.8,2.974q-.1.123-.144.123t-.164-.144a1.287,1.287,0,0,0-.41-.335,9.217,9.217,0,0,0,2.2-3.192h-.253l-1.47.027a.1.1,0,0,1-.109-.109V-7.15q0-.116.109-.116l1.47.034h.533v-2.912a9.422,9.422,0,0,0-.082-1.319,7.764,7.764,0,0,1,.827.082q.157.027.157.116a.533.533,0,0,1-.068.191,2.47,2.47,0,0,0-.089.868v2.974h.465l1.483-.034q.109,0,.109.116v.533a.1.1,0,0,1-.109.109l-1.483-.027H86.8A7.618,7.618,0,0,0,88.717-4.074ZM87.985-.684q0,.109-.1.109L86.406-.6H83.282V.185q0,.109-.1.109h-.622a.1.1,0,0,1-.109-.109l.027-1.812V-8.976a14.709,14.709,0,0,0-.082-1.873,7.89,7.89,0,0,1,.9.082q.144.027.144.116a.527.527,0,0,1-.089.253,5.989,5.989,0,0,0-.068,1.313V-1.36h3.124l1.483-.027q.1,0,.1.109Zm.629-9.379a.224.224,0,0,1-.082.137,1.137,1.137,0,0,0-.171.355,10.454,10.454,0,0,1-.629,1.456q-.082.15-.144.15a.43.43,0,0,1-.15-.055,1.5,1.5,0,0,0-.39-.13,8.753,8.753,0,0,0,.7-1.75,2.575,2.575,0,0,0,.089-.485,6.612,6.612,0,0,1,.643.191Q88.614-10.145,88.614-10.062ZM85.258-8.326a.374.374,0,0,1,.014.082q0,.062-.13.1l-.308.1a.5.5,0,0,1-.13.027q-.075,0-.1-.123a10.154,10.154,0,0,0-.615-1.853.266.266,0,0,1-.034-.1q0-.055.144-.1l.294-.1a.328.328,0,0,1,.1-.021q.062,0,.1.089A10.038,10.038,0,0,1,85.258-8.326Zm15.06,4.17-4.279.588-.157-.923,4.286-.588L99.716-7.6l-3.527.465-.15-.93,3.514-.458-.451-2.55,1.053-.171.444,2.577,3.568-.458.144.923-3.541.458.431,2.509,3.7-.506.137.923-3.664.506L102.2.39l-1.039.185Zm9.454-2.659,4.354-.841.506.458a12.081,12.081,0,0,1-1.948,4.382l-.854-.513a10.171,10.171,0,0,0,1.586-3.322l-3.459.69L111.289.362l-1,.226-1.36-6.357-2.263.451-.2-.868,2.283-.437-.479-2.249,1.025-.2Zm7.123-3.151a23.99,23.99,0,0,1,3.288,2.085l-.7.923a20.357,20.357,0,0,0-3.22-2.181Zm7.055.7L125-8.764a11.411,11.411,0,0,1-2.6,5.8A11.137,11.137,0,0,1,116.813.267l-.479-.95Q122.9-2.3,123.949-9.27Zm5.182,1.347V-11.17H130.2v3.008l5.359-1.217.588.752a17.487,17.487,0,0,1-2.967,5.284L132.3-3.9a12.915,12.915,0,0,0,2.536-4.327L130.2-7.185V-2.14q0,.943.485,1.189a4.62,4.62,0,0,0,1.723.205q1.545,0,3.247-.164V.123q-1.49.1-3.466.1a3.85,3.85,0,0,1-2.55-.588,2.375,2.375,0,0,1-.506-1.75V-6.945l-2.379.533-.28-.909ZM144.02-1.162a10.457,10.457,0,0,0,3.637-4.812l.718.937A12.739,12.739,0,0,1,143.555.451l-.6-.314v-10.89h1.066Zm-2.98-9.5q0,3.979-.137,5.742a10.742,10.742,0,0,1-.4,2.352A6.553,6.553,0,0,1,138.462.451l-.813-.636a5.191,5.191,0,0,0,1.907-2.782,13.31,13.31,0,0,0,.349-2.878q.068-1.552.068-4.812Zm20.815,5.879q0,.109-.1.109L159.927-4.7h-8.333l-1.839.027a.1.1,0,0,1-.109-.109v-.561a.1.1,0,0,1,.109-.109l1.839.027h3.582V-6.768H153.1l-1.989.027a.1.1,0,0,1-.109-.109V-7.4q0-.116.109-.116l1.989.027h2.071a4.5,4.5,0,0,0-.082-.978,6.266,6.266,0,0,1,.882.1q.15.027.15.109a.922.922,0,0,1-.055.212,1.609,1.609,0,0,0-.068.561h2.379l1.989-.027q.1,0,.1.116v.554q0,.109-.1.109l-1.989-.027H156v1.347h3.924l1.832-.027q.1,0,.1.109ZM161.547-2.6q0,.109-.116.109l-1.9-.027h-.841v.492l.014,1.7a1.108,1.108,0,0,1-.39.964,3.554,3.554,0,0,1-1.641.253.465.465,0,0,1-.26-.041A.623.623,0,0,1,156.324.6a2.157,2.157,0,0,0-.294-.6q.615.055,1.313.055.52,0,.52-.574v-2H151.97l-1.894.027a.1.1,0,0,1-.109-.109v-.561a.1.1,0,0,1,.109-.109l1.894.027h5.893a5.9,5.9,0,0,0-.109-1.217,6.6,6.6,0,0,1,.889.082q.171.027.171.109a.956.956,0,0,1-.082.253,1.315,1.315,0,0,0-.041.41v.362h.841l1.9-.027q.116,0,.116.109Zm.267-7.212q0,.109-.116.109l-1.682-.027H158.97a7.122,7.122,0,0,1,.643,1.189.168.168,0,0,1,.014.062q0,.055-.15.109l-.465.157a.508.508,0,0,1-.123.027q-.062,0-.1-.116a7.554,7.554,0,0,0-.67-1.429h-1.258a5.905,5.905,0,0,1-.759,1.053q-.15.171-.212.171t-.205-.13a1.6,1.6,0,0,0-.465-.253,5.486,5.486,0,0,0,1.374-2.194,2.679,2.679,0,0,0,.137-.588,6.424,6.424,0,0,1,.827.157q.137.041.137.137a.29.29,0,0,1-.1.185,1.2,1.2,0,0,0-.2.321l-.178.444h2.8l1.682-.027q.116,0,.116.109Zm-6.221,0a.1.1,0,0,1-.109.109l-1.47-.027h-.437a7.411,7.411,0,0,1,.574,1.176.161.161,0,0,1,.021.068q0,.062-.144.1l-.479.157a.527.527,0,0,1-.116.027q-.055,0-.089-.116a8.675,8.675,0,0,0-.588-1.415h-1.162a9.236,9.236,0,0,1-1.374,1.7q-.164.144-.212.144t-.2-.157a1.408,1.408,0,0,0-.417-.349,7.6,7.6,0,0,0,2.017-2.714,2.126,2.126,0,0,0,.164-.561q.41.068.8.171.144.048.144.137a.3.3,0,0,1-.116.2,1.152,1.152,0,0,0-.219.335l-.2.4h2.03l1.47-.027a.1.1,0,0,1,.109.109Zm-1.046,9.27a.183.183,0,0,1,.034.089q0,.041-.1.123l-.431.308a.41.41,0,0,1-.164.089q-.034,0-.089-.075a8.13,8.13,0,0,0-1.483-1.654q-.055-.041-.055-.075t.1-.116l.376-.267a.266.266,0,0,1,.137-.068.174.174,0,0,1,.1.055A8.84,8.84,0,0,1,154.547-.547ZM165.84-5.011q-.7,0-2.126-.027v-.9q.588.027,2.215.027l.219-2.283q-1,0-2.352-.027v-.9q1.189.068,2.44.068.048-.424.123-1.155.089-.813.109-1.06l1.012.075q-.048.451-.123,1.169-.082.752-.1.957,1.442-.014,3.767-.157l.014.9q-1.839.116-3.876.116-.075.834-.253,2.283,2.235-.027,3.979-.157v.9q-2.16.137-4.061.157a32.724,32.724,0,0,0-.226,3.288,1.408,1.408,0,0,0,.5,1.23,2.723,2.723,0,0,0,1.531.335A3.8,3.8,0,0,0,170.837-.7a1.511,1.511,0,0,0,.649-1.292,3.093,3.093,0,0,0-.813-2.017l.923-.349a3.489,3.489,0,0,1,.937,2.311q0,2.816-3.9,2.816a3.309,3.309,0,0,1-2.454-.725,2.532,2.532,0,0,1-.54-1.784Q165.635-2.83,165.84-5.011Zm20.686-.513a.1.1,0,0,1-.109.109l-1.846-.027h-1.121a9.114,9.114,0,0,1-1.8,3.377q1.716.752,3.972,2.01.075.055.075.1a.283.283,0,0,1-.075.15l-.321.479q-.068.109-.123.109a.419.419,0,0,1-.157-.068,29.609,29.609,0,0,0-4.006-2.153A11.194,11.194,0,0,1,175.287.745a1.114,1.114,0,0,1-.144.014q-.137,0-.253-.232a1.615,1.615,0,0,0-.362-.547,11.6,11.6,0,0,0,5.6-1.784,23.487,23.487,0,0,0-2.755-.937q-.308.444-.39.547a.245.245,0,0,1-.178.1.293.293,0,0,1-.1-.021l-.424-.15q-.191-.075-.191-.13a.174.174,0,0,1,.055-.1q.226-.273.684-.909a22.21,22.21,0,0,0,1.217-2.044h-1.593l-1.853.027a.1.1,0,0,1-.109-.109v-.595a.1.1,0,0,1,.109-.109l1.853.027h1.989q.328-.663.588-1.271a3.915,3.915,0,0,0,.349-1.107,8.325,8.325,0,0,1,.923.267q.137.048.137.137a.3.3,0,0,1-.157.226,1.538,1.538,0,0,0-.335.533q-.219.513-.567,1.217h5.2l1.846-.027a.1.1,0,0,1,.109.109Zm-3.972.082h-3.562q-.581,1.1-1.189,2.058a25.739,25.739,0,0,1,3.015.978A7.874,7.874,0,0,0,182.554-5.441Zm3.459-1.75a.1.1,0,0,1-.109.109h-.649a.1.1,0,0,1-.109-.109v-2h-9.481v2a.1.1,0,0,1-.109.109H174.9a.1.1,0,0,1-.109-.109l.027-1.483v-.451l-.027-.745a.1.1,0,0,1,.109-.109l1.962.027h3.015v-.212a6.294,6.294,0,0,0-.116-1.429q.4.021.937.075.171.021.171.109a.905.905,0,0,1-.082.267,4.159,4.159,0,0,0-.068.978v.212h3.233L185.9-9.98a.1.1,0,0,1,.109.109l-.027.663v.533Zm11.922,4.614a7.325,7.325,0,0,1-.226,1.894,1.31,1.31,0,0,1-.513.725,4.424,4.424,0,0,1-2.454.492,5.219,5.219,0,0,1-2.071-.267,1.02,1.02,0,0,1-.472-.444A1.925,1.925,0,0,1,192.056-1V-6.467a7.823,7.823,0,0,0-.082-1.278,6.334,6.334,0,0,1,.937.116q.2.041.2.137a.526.526,0,0,1-.068.2,2.62,2.62,0,0,0-.089.909v5.113q0,.608.335.766a4.331,4.331,0,0,0,1.5.157,3.045,3.045,0,0,0,1.723-.308,1.145,1.145,0,0,0,.431-.752,11.366,11.366,0,0,0,.089-1.812,2.423,2.423,0,0,0,.67.308.645.645,0,0,1,.205.089.164.164,0,0,1,.041.13Q197.941-2.673,197.935-2.577Zm2.8.2a.215.215,0,0,1,.021.082q0,.075-.178.157l-.458.219a.915.915,0,0,1-.212.082q-.034,0-.055-.068a15.175,15.175,0,0,0-1.873-4.184.156.156,0,0,1-.034-.089q0-.082.13-.137l.472-.191a.466.466,0,0,1,.15-.041.149.149,0,0,1,.116.082A17.827,17.827,0,0,1,200.737-2.379Zm-4.2-7q.062.041.062.075a.441.441,0,0,1-.075.164l-.253.444q-.109.178-.157.178a.137.137,0,0,1-.075-.041,13.835,13.835,0,0,0-3.657-1.982q-.075-.034-.075-.075a.441.441,0,0,1,.075-.164l.253-.362q.1-.15.137-.15a.266.266,0,0,1,.075.021A16.316,16.316,0,0,1,196.533-9.379Zm-5.852,3.37a16.066,16.066,0,0,1-1.47,4.553q-.048.089-.116.089a.414.414,0,0,1-.15-.048l-.444-.2q-.205-.089-.205-.164a.161.161,0,0,1,.021-.068A12.985,12.985,0,0,0,189.8-6.234q.014-.082.055-.082a1.6,1.6,0,0,1,.2.041l.451.1q.185.041.185.123A.187.187,0,0,1,190.682-6.009Zm18.464-4.826-.321,7.978h-.9l-.267-7.978Zm.014,9.577v1.5h-1.524v-1.5Z"
									transform="translate(-0.8 11.819)" fill="#fff" />
							</svg>

