<svg xmlns="http://www.w3.org/2000/svg" width="333.313" height="97.385"
							viewBox="0 0 333.313 97.385">
							<path id="Контур_1732" data-name="Контур 1732"
								d="M7.957,14.59a5.749,5.749,0,0,1-2.707.574A4.366,4.366,0,0,1,1.9,13.817,4.969,4.969,0,0,1,.643,10.283a5.208,5.208,0,0,1,1.415-3.8A4.8,4.8,0,0,1,5.646,5.033a5.754,5.754,0,0,1,2.311.4V6.66a4.686,4.686,0,0,0-2.324-.588A3.566,3.566,0,0,0,2.9,7.2a4.249,4.249,0,0,0-1.049,3.015,4.043,4.043,0,0,0,.981,2.854A3.338,3.338,0,0,0,5.4,14.132a4.828,4.828,0,0,0,2.557-.656Zm9.584.41H16.27L15.23,12.252H11.074L10.1,15H8.818l3.76-9.8h1.189Zm-2.687-3.78L13.316,7.043a4,4,0,0,1-.15-.656h-.027a3.661,3.661,0,0,1-.157.656L11.457,11.22ZM26.011,15H24.644L23,12.252a5.985,5.985,0,0,0-.437-.653,2.494,2.494,0,0,0-.434-.441,1.5,1.5,0,0,0-.479-.25,1.968,1.968,0,0,0-.578-.079h-.943V15H18.983V5.2h2.926a4.17,4.17,0,0,1,1.186.161,2.654,2.654,0,0,1,.943.489,2.271,2.271,0,0,1,.625.817,2.709,2.709,0,0,1,.226,1.145,2.757,2.757,0,0,1-.154.94,2.455,2.455,0,0,1-.437.762,2.652,2.652,0,0,1-.684.571,3.49,3.49,0,0,1-.9.366v.027a2.068,2.068,0,0,1,.427.25,2.351,2.351,0,0,1,.345.332,4.391,4.391,0,0,1,.325.434q.161.243.359.564ZM20.132,6.236V9.791H21.69a2.364,2.364,0,0,0,.8-.13,1.844,1.844,0,0,0,.632-.373,1.689,1.689,0,0,0,.417-.595,1.991,1.991,0,0,0,.15-.79,1.537,1.537,0,0,0-.509-1.227A2.188,2.188,0,0,0,21.7,6.236ZM32.553,15h-5.2V5.2h4.977V6.236H28.506V9.5h3.541v1.032H28.506v3.432h4.047Zm6.973,0H34.439V5.2h1.148v8.764h3.938Zm1.928-8.777a.71.71,0,0,1-.513-.205.692.692,0,0,1-.212-.52.718.718,0,0,1,.725-.731.724.724,0,0,1,.523.208.73.73,0,0,1,0,1.036A.718.718,0,0,1,41.453,6.223ZM42,15H40.879V8H42Zm10.322,0H50.914L45.869,7.187a3.265,3.265,0,0,1-.314-.615h-.041a10.092,10.092,0,0,1,.055,1.347V15H44.42V5.2h1.49l4.908,7.69q.308.479.4.656h.027a10.371,10.371,0,0,1-.068-1.442V5.2h1.148Zm9.393,0h-1.6l-3.787-4.484a2.733,2.733,0,0,1-.26-.342h-.027V15H54.893V5.2h1.148V9.8h.027a2.7,2.7,0,0,1,.26-.335L59.992,5.2h1.429l-4.2,4.7Zm8.839-7.574q.021,2.769.123,4.689a7.23,7.23,0,0,1,2.468,1.832l-.677.841a6.685,6.685,0,0,0-1.791-1.634,2.112,2.112,0,0,1-.7,1.764,2.5,2.5,0,0,1-1.647.5q-2.42,0-2.42-1.9a1.583,1.583,0,0,1,.725-1.34,2.691,2.691,0,0,1,1.586-.451,6.841,6.841,0,0,1,1.483.15Q69.61,10,69.583,7.467q-1.907.062-3.821.041V6.626q1.7.055,3.808-.014V4.035h1q-.014.841-.014,2.522.875-.048,2.249-.185v.882Q71.8,7.357,70.554,7.426ZM69.7,12.833a4.28,4.28,0,0,0-1.545-.28,1.734,1.734,0,0,0-.964.253.806.806,0,0,0-.4.711q0,1.053,1.511,1.053a1.26,1.26,0,0,0,1.114-.526A1.833,1.833,0,0,0,69.7,12.97ZM64.88,4.165a41.313,41.313,0,0,0-.841,6.87,33.208,33.208,0,0,0,.335,4.341l-.978.089q-.321-3.117-.321-4.457a30.522,30.522,0,0,1,.287-3.685q.226-1.764.526-3.24Zm9.659.656H82.25q-.041,5.011-1.8,7.506a9.622,9.622,0,0,1-4.7,3.261l-.588-.841A8.527,8.527,0,0,0,79.707,11.5a10.554,10.554,0,0,0,1.367-5.742H74.539Zm11.676-.588V11.1h-1.08V4.233Zm-.4,10.5a5.626,5.626,0,0,0,3.473-1.812,6.149,6.149,0,0,0,.9-3.664V4.151h1.08V9.4a6.3,6.3,0,0,1-1.354,4.457,6.837,6.837,0,0,1-3.589,1.716Zm7.971-5.476H101.4V10.3H93.789Zm10.028-4.867h6.344v.937h-6.344Zm-.854,2.98h7.909q-.157,4-1.955,5.961a8.381,8.381,0,0,1-4.3,2.27l-.506-.8a7.477,7.477,0,0,0,4.238-2.413,6.915,6.915,0,0,0,1.36-4.081h-6.747Zm10.411-2.338a23.99,23.99,0,0,1,3.288,2.085l-.7.923a20.357,20.357,0,0,0-3.22-2.181Zm7.055.7,1.053.506a11.411,11.411,0,0,1-2.6,5.8,11.137,11.137,0,0,1-5.585,3.227l-.479-.95Q119.383,12.7,120.429,5.73Zm7.984,5.264a12.594,12.594,0,0,1-5,4.423l-.615-.807a12.291,12.291,0,0,0,4.573-3.931,14.161,14.161,0,0,0,2.051-5.045h-5.879V4.7h7.26a18.785,18.785,0,0,1-1.846,5.359,31.446,31.446,0,0,1,3.261,4.7l-1.032.656A25.126,25.126,0,0,0,128.413,10.994Zm10.849-5.147a22.039,22.039,0,0,1-1.483,7.362,2.1,2.1,0,0,1-1.894,1.483,1.749,1.749,0,0,1-1.606-1.06,6,6,0,0,1-.533-2.789,7.335,7.335,0,0,1,.458-2.618A5.114,5.114,0,0,1,135.242,6.5a4.675,4.675,0,0,1,1.716-1.128,5.426,5.426,0,0,1,1.969-.369,4.139,4.139,0,0,1,3.555,1.5,6.371,6.371,0,0,1,.964,3.808,5.114,5.114,0,0,1-1.121,3.4,5.6,5.6,0,0,1-3.274,1.784l-.485-.841a4.243,4.243,0,0,0,3.835-4.607,4.67,4.67,0,0,0-1.032-3.3A2.809,2.809,0,0,0,139.262,5.847Zm-1.053.109a3.075,3.075,0,0,0-1.292.4,4.459,4.459,0,0,0-1.06.93,5.252,5.252,0,0,0-1.148,3.582,4.6,4.6,0,0,0,.41,2.126q.328.615.752.615a.82.82,0,0,0,.622-.26,2.544,2.544,0,0,0,.444-.759A19.819,19.819,0,0,0,138.209,5.956Zm9.461,1.121V3.83h1.066V6.838L154.1,5.621l.588.752a17.487,17.487,0,0,1-2.967,5.284l-.882-.561a12.915,12.915,0,0,0,2.536-4.327l-4.635,1.046V12.86q0,.943.485,1.189a4.62,4.62,0,0,0,1.723.205q1.545,0,3.247-.164v1.032q-1.49.1-3.466.1a3.85,3.85,0,0,1-2.55-.588,2.375,2.375,0,0,1-.506-1.75V8.055l-2.379.533-.28-.909Zm9.748-2.687h6.344v.937h-6.344Zm-.854,2.98h7.909q-.157,4-1.955,5.961a8.381,8.381,0,0,1-4.3,2.27l-.506-.8a7.477,7.477,0,0,0,4.238-2.413,6.915,6.915,0,0,0,1.36-4.081h-6.747ZM168.1,10.058v2.994q0,1,.6,1.107a11.356,11.356,0,0,0,2.044.144q1.408,0,3.1-.171v1.053q-1.859.1-3.37.1a10.778,10.778,0,0,1-2.44-.2q-1-.219-1-1.709v-9.1H168.1V9.08a15.118,15.118,0,0,0,4.368-2.871l.711.854A18.045,18.045,0,0,1,168.1,10.058Zm5.53-7.226a1.5,1.5,0,0,1,1.162.52,1.514,1.514,0,0,1,.4,1.053,1.569,1.569,0,0,1-3.138,0,1.57,1.57,0,0,1,1.572-1.572Zm0,.6a.926.926,0,0,0-.725.314.947.947,0,0,0-.246.656.918.918,0,0,0,.314.718.947.947,0,0,0,.656.246.918.918,0,0,0,.718-.314A.938.938,0,0,0,174.6,4.4a.926.926,0,0,0-.314-.725A.938.938,0,0,0,173.633,3.434Zm7.9,7.561a12.594,12.594,0,0,1-5,4.423l-.615-.807A12.291,12.291,0,0,0,180.5,10.68a14.161,14.161,0,0,0,2.051-5.045h-5.879V4.7h7.26a18.785,18.785,0,0,1-1.846,5.359,31.446,31.446,0,0,1,3.261,4.7l-1.032.656A25.126,25.126,0,0,0,181.535,10.994Zm8.039-2.085v6.651h-1.08V3.816h1.08V7.877a21.8,21.8,0,0,1,5.332,2.222l-.533,1.012A17.7,17.7,0,0,0,189.574,8.909Zm19.558,5.626a1.86,1.86,0,0,0-.451.479q-.089.171-.164.171a.433.433,0,0,1-.2-.1,10.65,10.65,0,0,1-2.331-2.01,8.641,8.641,0,0,1-1.278-2.112q.055,2.939.055,3.657a1.138,1.138,0,0,1-.362.991,2.854,2.854,0,0,1-1.415.239.548.548,0,0,1-.28-.041.547.547,0,0,1-.089-.239,1.56,1.56,0,0,0-.246-.588,8.256,8.256,0,0,0,.923.055.82.82,0,0,0,.554-.123.62.62,0,0,0,.1-.424V12.888q-1.244.807-2.769,1.62a1.943,1.943,0,0,0-.506.314q-.089.109-.157.109t-.123-.123q-.144-.253-.362-.745a4.57,4.57,0,0,0,.807-.294,26.732,26.732,0,0,0,3.11-1.7V10.03h-1.3l-1.935.027q-.1,0-.1-.109V9.4q0-.109.1-.109l1.935.027h1.3V8.062h-.8l-1.764.027q-.109,0-.109-.116V7.46q0-.116.109-.116l1.764.027h.8v-1.2h-.991l-1.88.027q-.109,0-.109-.1V5.546a.1.1,0,0,1,.109-.109l1.88.027h2.085a12.2,12.2,0,0,0,.752-1.429,2.654,2.654,0,0,0,.185-.588,5.368,5.368,0,0,1,.725.212q.171.048.171.15,0,.075-.137.185a.677.677,0,0,0-.2.267,12.632,12.632,0,0,1-.7,1.2h.465l1.846-.027q.13,0,.13.109V6.1q0,.1-.13.1L206.3,6.168h-1.565v1.2h1.176l1.75-.027q.109,0,.109.116v.513q0,.116-.109.116l-1.75-.027h-1.176V9.319h1.941l1.935-.027a.1.1,0,0,1,.109.109v.547a.1.1,0,0,1-.109.109l-1.935-.027h-1.8a9.615,9.615,0,0,0,1.189,2.03,11.044,11.044,0,0,0,1.121-1.053,1.977,1.977,0,0,0,.335-.485,4.885,4.885,0,0,1,.574.444.258.258,0,0,1,.116.185q0,.109-.137.15a1.1,1.1,0,0,0-.424.294,13.719,13.719,0,0,1-1.135,1A10.167,10.167,0,0,0,209.132,14.535ZM200.587,6.92q0,.116-.109.116l-1.258-.027h-.089a9.323,9.323,0,0,0,1.442,3.035,1.831,1.831,0,0,0-.349.533q-.068.15-.123.15t-.13-.15a12.545,12.545,0,0,1-.964-2.673q.007,2.755.082,5.79.014.759.041,1.7.014.465.014.506a.085.085,0,0,1-.1.1h-.67q-.116,0-.116-.1s.009-.406.027-1.2q.1-3.541.116-6.6a15.75,15.75,0,0,1-1.641,4.437q-.089.157-.137.157-.075,0-.116-.137a1.211,1.211,0,0,0-.362-.547,15.308,15.308,0,0,0,2.058-5H197.9l-1.271.027a.1.1,0,0,1-.116-.116V6.373q0-.123.116-.123l1.271.027h.417v-1.2a8.8,8.8,0,0,0-.109-1.668,6.609,6.609,0,0,1,.882.089q.171.021.171.123a.676.676,0,0,1-.082.253,4.859,4.859,0,0,0-.075,1.189V6.277h.116l1.258-.027q.109,0,.109.123Zm2.146,4.819q.048.048.048.075t-.1.137l-.294.273q-.116.123-.164.123-.027,0-.068-.062a6.8,6.8,0,0,0-1.176-1.306q-.055-.041-.055-.068t.109-.137l.239-.226q.109-.1.15-.1t.068.048A6.8,6.8,0,0,1,202.733,11.739Zm.725-6.918a.168.168,0,0,1,.014.062q0,.048-.1.109l-.41.219a.441.441,0,0,1-.164.075q-.041,0-.075-.089a4.652,4.652,0,0,0-.786-1.258.112.112,0,0,1-.041-.068q0-.041.144-.116l.362-.178a.368.368,0,0,1,.123-.041.146.146,0,0,1,.1.068A6.6,6.6,0,0,1,203.458,4.821Zm12.585,1.025a22.039,22.039,0,0,1-1.483,7.362,2.1,2.1,0,0,1-1.894,1.483,1.749,1.749,0,0,1-1.606-1.06,6,6,0,0,1-.533-2.789,7.335,7.335,0,0,1,.458-2.618A5.114,5.114,0,0,1,212.023,6.5a4.675,4.675,0,0,1,1.716-1.128,5.426,5.426,0,0,1,1.969-.369,4.139,4.139,0,0,1,3.555,1.5,6.371,6.371,0,0,1,.964,3.808,5.114,5.114,0,0,1-1.121,3.4,5.6,5.6,0,0,1-3.274,1.784l-.485-.841a4.243,4.243,0,0,0,3.835-4.607,4.67,4.67,0,0,0-1.032-3.3A2.809,2.809,0,0,0,216.043,5.847Zm-1.053.109a3.075,3.075,0,0,0-1.292.4,4.459,4.459,0,0,0-1.06.93,5.252,5.252,0,0,0-1.148,3.582A4.6,4.6,0,0,0,211.9,13q.328.615.752.615a.82.82,0,0,0,.622-.26,2.544,2.544,0,0,0,.444-.759A19.819,19.819,0,0,0,214.99,5.956ZM223.3,3.03h4.286v.725h-3.5V15.137H223.3Zm10.965,10.4a.142.142,0,0,1,.041.089.36.36,0,0,1-.089.164l-.294.4q-.075.1-.116.1t-.089-.062A12.4,12.4,0,0,0,232.3,12.8a9.583,9.583,0,0,1-2.659,2.68.525.525,0,0,1-.212.109q-.062,0-.2-.2a1.221,1.221,0,0,0-.39-.39,9.145,9.145,0,0,0,2.83-2.693q-.636-.444-1.545-.991l-.294.725q-.048.109-.1.109a.487.487,0,0,1-.13-.034l-.383-.144q-.164-.068-.164-.116a.213.213,0,0,1,.027-.089,28.808,28.808,0,0,0,1.511-4.512h-.041l-1.511.027q-.116,0-.116-.109V6.6q0-.1.116-.1l1.511.034h.226q.205-.834.39-1.921a5.805,5.805,0,0,0,.075-.882q0-.123-.007-.239a4.118,4.118,0,0,1,.9.185q.185.041.185.137a.378.378,0,0,1-.109.226,1.311,1.311,0,0,0-.2.574q-.239,1.258-.41,1.921h.827L233.98,6.5a.109.109,0,0,1,.123.123q-.089.561-.109.93a12.554,12.554,0,0,1-1.292,4.58A18.842,18.842,0,0,1,234.261,13.428Zm-1.066-6.173h-1.777a33.87,33.87,0,0,1-1.012,3.329q.909.526,1.641,1.053A11.52,11.52,0,0,0,233.194,7.255Zm8.34,2.8a.085.085,0,0,1-.1.1l-1.859-.027h-1.333v2.167l.014,1.777a1.653,1.653,0,0,1-.4,1.244,1.311,1.311,0,0,1-.69.28,9.689,9.689,0,0,1-1.244.055.465.465,0,0,1-.26-.041.709.709,0,0,1-.075-.239,1.91,1.91,0,0,0-.294-.656,12.362,12.362,0,0,0,1.381.068q.731,0,.731-.82V10.119h-1.23l-1.853.027q-.109,0-.109-.1V9.429a.1.1,0,0,1,.109-.109l1.853.027h1.23a12.248,12.248,0,0,0-.123-2.085l.287.034.226.034a14.433,14.433,0,0,0,1.935-2.112h-3.192l-1.723.027q-.109,0-.109-.123V4.541a.1.1,0,0,1,.109-.109l1.723.027H239.9a.694.694,0,0,0,.232-.041,1.1,1.1,0,0,1,.157-.041.707.707,0,0,1,.376.212q.321.321.321.431a.189.189,0,0,1-.123.171,2.228,2.228,0,0,0-.492.52,21.344,21.344,0,0,1-2.1,2.153,3.031,3.031,0,0,0-.027.52v.964h1.333l1.859-.027q.1,0,.1.109Zm7.547-1.381a12.542,12.542,0,0,0,2.078,2.857l-.574.9a7.984,7.984,0,0,0-3.657-.854,3.849,3.849,0,0,0-2,.444,1.157,1.157,0,0,0-.643,1.012q0,.813,1.1,1.21a7.484,7.484,0,0,0,2.5.335q.82,0,1.976-.089v.984q-.615.041-2.017.041-4.546,0-4.546-2.365a1.971,1.971,0,0,1,1.066-1.8,5.521,5.521,0,0,1,2.741-.567,6.3,6.3,0,0,1,2.851.615A11.321,11.321,0,0,1,248.117,8.8a34.235,34.235,0,0,1-4.341.28l-.137-.854A33.363,33.363,0,0,0,247.728,8q-.444-1.019-.69-1.682-1.757.185-3.794.226l-.123-.882a34.558,34.558,0,0,0,3.637-.171q-.205-.567-.526-1.62l1-.1q.246.9.479,1.62,1.422-.171,3.063-.52l.144.854q-1.647.328-2.912.479a16.615,16.615,0,0,0,.684,1.668q1.47-.212,2.6-.479l.171.841Q250.359,8.472,249.081,8.67Zm8.087-2.557q.82-.068,2.071-.2l.014.868q-1.142.137-2.3.191a38.416,38.416,0,0,1-2.468,6.487l-.909-.424a29.976,29.976,0,0,0,2.379-6.016q-1.135.062-2.27.041l-.027-.868q1.176.041,2.522-.027Q256.45,5,256.642,3.8l1.019.123Q257.469,4.869,257.168,6.113Zm3,5.79q-.123-1.5-.144-3.568h.964q0,1.791.157,3.794a9.263,9.263,0,0,1,2.563,1.6l-.52.95a7.662,7.662,0,0,0-2.017-1.524v.232q0,2.229-2.475,2.229a2.629,2.629,0,0,1-1.846-.581,1.665,1.665,0,0,1-.54-1.292,1.7,1.7,0,0,1,.889-1.5,3.244,3.244,0,0,1,1.757-.458A5.891,5.891,0,0,1,260.169,11.9Zm0,.93a4.031,4.031,0,0,0-1.162-.2,2.4,2.4,0,0,0-1.429.349.867.867,0,0,0-.383.731.886.886,0,0,0,.41.772,1.931,1.931,0,0,0,1.107.273,1.305,1.305,0,0,0,1.47-1.483Zm.055-6.357.444-.8a14.091,14.091,0,0,1,3.192,1.5l-.513.868A12.767,12.767,0,0,0,260.224,6.476Zm9.2,7.725q0,.116-.109.116h-.581q-.109,0-.109-.116v-.7h-1.818v1.162a.1.1,0,0,1-.109.109H266.1a.1.1,0,0,1-.109-.109l.027-4.32V7.59l-.027-3.274a.1.1,0,0,1,.109-.109l1.121.027h.971l1.121-.027a.1.1,0,0,1,.109.109l-.027,2.83v2.905Zm-.8-1.442V9.128h-1.818v3.63Zm0-4.354V4.979h-1.818V8.4Zm9.283.089a.1.1,0,0,1-.109.109l-1.935-.027h-3.979l-1.914.027a.1.1,0,0,1-.109-.109V7.911a.1.1,0,0,1,.109-.109l1.914.027h1.306V5.97h-.868L270.532,6q-.13,0-.13-.116V5.327q0-.123.13-.123l1.791.027h.868a11.929,11.929,0,0,0-.1-1.791q.567.021.909.068.171.027.171.123s-.023.089-.068.253a5.579,5.579,0,0,0-.089,1.347h1.271l1.8-.027q.109,0,.109.123v.561q0,.116-.109.116l-1.8-.034h-1.271V7.829h1.846L277.8,7.8a.1.1,0,0,1,.109.109Zm-.171,2.5a.1.1,0,0,1-.109.109l-1.682-.027v1.9l.014,1.791a1.053,1.053,0,0,1-.39.937,3.4,3.4,0,0,1-1.627.239.487.487,0,0,1-.26-.041.592.592,0,0,1-.089-.226,1.986,1.986,0,0,0-.28-.629q.567.055,1.313.055.492,0,.492-.513V11.069h-3.165l-1.9.027q-.116,0-.116-.109v-.581q0-.1.116-.1l1.9.014h3.165V10.3a8.225,8.225,0,0,0-.1-1.483,6.171,6.171,0,0,1,.9.1q.185.021.185.116a.636.636,0,0,1-.082.232,3.673,3.673,0,0,0-.075,1v.068l1.682-.014q.109,0,.109.1Zm-4.56,2.57a.173.173,0,0,1,.027.082q0,.055-.1.13l-.376.253a.478.478,0,0,1-.164.089q-.041,0-.075-.062a8.338,8.338,0,0,0-1.34-1.75.131.131,0,0,1-.048-.082q0-.055.13-.13l.335-.212a.35.35,0,0,1,.13-.055.169.169,0,0,1,.1.041A8.418,8.418,0,0,1,273.178,13.558Zm18.026.82a1.3,1.3,0,0,1-.362,1.066,1.185,1.185,0,0,1-.608.232,9.469,9.469,0,0,1-1.142.048.409.409,0,0,1-.239-.041.639.639,0,0,1-.082-.226,2.378,2.378,0,0,0-.253-.615,9.706,9.706,0,0,0,1.08.055.91.91,0,0,0,.622-.144.833.833,0,0,0,.116-.526V8.191h-2.55l-1.511.027q-.123,0-.123-.109l.027-1.2V5.225l-.027-1.2q0-.109.123-.109l1.511.027h1.777l1.518-.027a.1.1,0,0,1,.109.109l-.027,2v6.357Zm-.868-6.856V6.387h-3.356V7.521Zm0-1.8V4.623h-3.356V5.717Zm-5.5,2.393a.1.1,0,0,1-.109.109l-1.4-.027h-2.481v4.689l.027,2.912a.1.1,0,0,1-.109.109H280.1a.1.1,0,0,1-.109-.109l.027-2.912V6.961l-.027-2.939a.1.1,0,0,1,.109-.109l1.586.027h1.641l1.4-.027a.1.1,0,0,1,.109.109l-.027,1.292V6.824Zm-.827-.588V6.387h-3.165V7.521Zm0-1.8V4.623h-3.165V5.717Zm3.9,8.866q0,.109-.116.109h-.574a.1.1,0,0,1-.109-.109V14h-3.165v.725q0,.13-.109.13h-.574q-.116,0-.116-.13l.027-2.461V11.083l-.027-1.627a.1.1,0,0,1,.109-.109l1.463.027h1.62l1.463-.027a.1.1,0,0,1,.109.109l-.027,1.415v1.292Zm-.8-1.258V11.979h-3.165v1.347Zm0-2V10.044h-3.165v1.278Zm9.837.109.957.082a5.457,5.457,0,0,0-.157,1.258,1.054,1.054,0,0,0,.444.978,3.167,3.167,0,0,0,1.545.273,25.984,25.984,0,0,0,2.769-.144l.027,1.012q-1.025.082-2.659.082a4.349,4.349,0,0,1-2.44-.492,1.783,1.783,0,0,1-.636-1.552A7.22,7.22,0,0,1,296.946,11.432Zm.28-4.676V5.8q1.75-.137,3.541-.137.889,0,1.668.041v.95q-.725-.055-1.764-.055Q298.881,6.6,297.227,6.756Zm-1.511-2.413a36.344,36.344,0,0,0-.786,6.61,24.828,24.828,0,0,0,.342,4.382l-1,.082a28.848,28.848,0,0,1-.321-4.491,40.267,40.267,0,0,1,.772-6.665Zm16.639,2.372q0,.109-.1.109L310.687,6.8h-.6v.882h.547l1.49-.027q.123,0,.123.109l-.027,1.162v1.285l.027,1.155q0,.109-.123.109l-1.49-.027h-.547v.909h.41l1.47-.027a.1.1,0,0,1,.109.109v.479a.1.1,0,0,1-.109.109L310.5,13h-.41v1q1.176-.191,1.88-.369l-.082.424a.49.49,0,0,1-.075.26.751.751,0,0,1-.253.075q-1.306.287-3.637.615a1.532,1.532,0,0,0-.6.157.343.343,0,0,1-.185.068q-.075,0-.123-.185a6.813,6.813,0,0,1-.171-.725q.123.007.267.007a10.166,10.166,0,0,0,1.025-.062q.472-.041,1.258-.157V13h-.629l-1.47.027q-.116,0-.116-.109v-.479q0-.109.116-.109l1.47.027h.629v-.909h-.451l-1.5.027a.1.1,0,0,1-.109-.109l.027-1.155V8.923l-.027-1.162a.1.1,0,0,1,.109-.109l1.5.027h.451V6.8h-.711l-1.572.027A.1.1,0,0,1,307,6.715V6.223a.1.1,0,0,1,.109-.109l1.572.027h.711V5.177q-.718.123-1.456.205a.959.959,0,0,1-.13.014q-.109,0-.219-.205a1.81,1.81,0,0,0-.308-.437,16.964,16.964,0,0,0,3.767-.615,2.107,2.107,0,0,0,.574-.253,3.509,3.509,0,0,1,.492.479.31.31,0,0,1,.082.185q0,.109-.185.109a1.365,1.365,0,0,0-.39.055q-.684.185-1.531.335V6.141h.6l1.572-.027q.1,0,.1.109Zm-.813,4.129V9.832h-1.456v1.012Zm0-1.6V8.28h-1.456v.964Zm-2.153,1.6V9.832h-1.347v1.012Zm0-1.6V8.28h-1.347v.964Zm7.253-2.283q-.027.438-.027,1.251a54.068,54.068,0,0,1-.349,6.159,1.931,1.931,0,0,1-.472,1.107,1.237,1.237,0,0,1-.9.308q-.444,0-.882-.041-.157-.014-.185-.062a.808.808,0,0,1-.055-.246,1.6,1.6,0,0,0-.185-.574,6.374,6.374,0,0,0,1.21.123.568.568,0,0,0,.526-.273,2.02,2.02,0,0,0,.212-.7,47.4,47.4,0,0,0,.321-6.412h-1.23a25.7,25.7,0,0,1-.451,3.821,8.251,8.251,0,0,1-2.249,4.327q-.109.123-.157.123t-.178-.144a2.182,2.182,0,0,0-.492-.335,7.326,7.326,0,0,0,2.365-4.225,22.344,22.344,0,0,0,.4-3.568l-1.162.027a.1.1,0,0,1-.109-.109V6.954q0-.116.109-.116l1.189.034q.034-.984.034-1.518a11.521,11.521,0,0,0-.1-1.723,6.014,6.014,0,0,1,.854.089q.171.041.171.137a1.594,1.594,0,0,1-.082.294,5.3,5.3,0,0,0-.089,1.306q0,.458-.027,1.415h.574l1.292-.034A.109.109,0,0,1,316.641,6.961Zm-9.242-3.1q0,.075-.137.191a1.358,1.358,0,0,0-.267.533q-.513,1.477-.868,2.283v6.85l.027,2.167a.1.1,0,0,1-.109.109h-.636a.1.1,0,0,1-.109-.109l.027-2.167V10.2q0-.561.027-1.853a13.4,13.4,0,0,1-.937,1.388q-.1.137-.157.137t-.109-.157a2.324,2.324,0,0,0-.308-.595,13.407,13.407,0,0,0,2.393-4.758,4.21,4.21,0,0,0,.2-.957,5.341,5.341,0,0,1,.793.28Q307.4,3.762,307.4,3.857ZM324.522,8.67a12.541,12.541,0,0,0,2.078,2.857l-.574.9a7.984,7.984,0,0,0-3.657-.854,3.85,3.85,0,0,0-2,.444,1.157,1.157,0,0,0-.643,1.012q0,.813,1.1,1.21a7.484,7.484,0,0,0,2.5.335q.82,0,1.976-.089v.984q-.615.041-2.017.041-4.546,0-4.546-2.365a1.971,1.971,0,0,1,1.066-1.8,5.521,5.521,0,0,1,2.741-.567,6.3,6.3,0,0,1,2.851.615A11.321,11.321,0,0,1,323.559,8.8a34.235,34.235,0,0,1-4.341.28l-.137-.854A33.363,33.363,0,0,0,323.169,8q-.444-1.019-.69-1.682-1.757.185-3.794.226l-.123-.882a34.558,34.558,0,0,0,3.637-.171q-.205-.567-.526-1.62l1-.1q.246.9.479,1.62,1.422-.171,3.063-.52l.144.854q-1.647.328-2.912.479a16.611,16.611,0,0,0,.684,1.668q1.47-.212,2.6-.479l.171.841Q325.8,8.472,324.522,8.67ZM3.315,34.947q-1.155.062-2.365.062v-.882q1.4,0,2.509-.062.191-1.422.267-2.447l1.032.1q-.109,1.025-.321,2.311,1.36-.089,3.1-.239l.014.882q-1.429.15-3.254.239a53.168,53.168,0,0,1-2.208,8.524L1.107,43.1A47.881,47.881,0,0,0,3.315,34.947Zm1.709,5.38.868.068a3.679,3.679,0,0,0-.082.786,1.075,1.075,0,0,0,.513,1.08,4.218,4.218,0,0,0,1.559.191,16.519,16.519,0,0,0,2.167-.109l.055.964q-.834.082-2.044.082a4.645,4.645,0,0,1-2.5-.472,1.737,1.737,0,0,1-.636-1.531A5.222,5.222,0,0,1,5.024,40.327Zm.711-2.994V36.4a40.055,40.055,0,0,1,4.259-.191v.9A32.162,32.162,0,0,0,5.735,37.333Zm10.452,1.955.854.615q-.677,3.377-2.27,3.377a1.651,1.651,0,0,1-1.538-1.019,9.207,9.207,0,0,1-.718-3.227q-.109-1.312-.109-3.541l.014-2.632h1.012l-.021,2.188q0,2.646.116,3.9.267,3.22,1.217,3.22.485,0,.813-.711A11.913,11.913,0,0,0,16.188,39.288Zm2.1-5.346.909-.267a17.059,17.059,0,0,1,2.427,7.574l-1.053.171A17.589,17.589,0,0,0,18.286,33.942Zm8.907,10.391H22.907V43.6h3.5V32.22h.786Zm4.45-13.3H35.93v.725h-3.5V43.137h-.786ZM44.871,34.64H47.12v.943H44.871v1.046q0,3.445-1.47,5.052a7.427,7.427,0,0,1-3.814,1.935l-.567-.8a6.161,6.161,0,0,0,3.753-1.962,6.7,6.7,0,0,0,1.046-4.095V35.583H40.3v3.705H39.252V35.583h-2.14V34.64h2.14V31.871H40.3V34.64h3.514v-2.8h1.053Zm3.65,2.618h7.615V38.3H48.521Zm11.04.8v2.994q0,1,.6,1.107a11.356,11.356,0,0,0,2.044.144q1.408,0,3.1-.171v1.053q-1.859.1-3.37.1a10.778,10.778,0,0,1-2.44-.2q-1-.219-1-1.709v-9.1h1.066V37.08a16.266,16.266,0,0,0,4.532-2.967l.718.848A19.277,19.277,0,0,1,59.562,38.058ZM63.355,31.5l.711-.28a18.726,18.726,0,0,1,1.039,2.365l-.759.308A14.485,14.485,0,0,0,63.355,31.5Zm1.579-.465.7-.253a11.566,11.566,0,0,1,1,2.3l-.731.294A13.488,13.488,0,0,0,64.935,31.03Zm7.978,7.964a12.594,12.594,0,0,1-5,4.423L67.3,42.61a12.291,12.291,0,0,0,4.573-3.931,14.161,14.161,0,0,0,2.051-5.045H68.045V32.7H75.3a18.785,18.785,0,0,1-1.846,5.359,31.445,31.445,0,0,1,3.261,4.7l-1.032.656A25.126,25.126,0,0,0,72.912,38.994ZM85.47,33.983a3.553,3.553,0,0,1,.362-.014,2.4,2.4,0,0,1,2.023.93,2.83,2.83,0,0,1,.554,1.771,2.543,2.543,0,0,1-.978,2.194,3.92,3.92,0,0,1-2.358.622q-.349,0-.882-.027l-.15-.95q.759.055,1.148.055,2.181,0,2.181-1.853a1.982,1.982,0,0,0-.567-1.538,1.546,1.546,0,0,0-1.066-.39,14.2,14.2,0,0,0-4.074.95q1.012,3.794,1.859,7.731l-1,.205q-.813-3.931-1.791-7.615-.82.28-2.146.786l-.349-.868q1.914-.649,2.256-.759-.267-.978-.827-2.939l.964-.253.438,1.559q.226.793.376,1.326a23.04,23.04,0,0,1,2.98-.827A19.41,19.41,0,0,0,83.4,32.021l.9-.335A20.619,20.619,0,0,1,85.47,33.983Zm17.11-.711q0,.109-.116.109l-1.955-.027H99.442v2.591h.52l1.976-.027a.1.1,0,0,1,.109.109l-.027,2.194v2.536l.027,2.816q0,.116-.109.116H101.3q-.109,0-.109-.116v-.684H94.527v.745a.1.1,0,0,1-.109.109H93.8a.1.1,0,0,1-.109-.109l.027-2.851V38.461l-.027-2.434a.1.1,0,0,1,.109-.109l1.948.027h.444V33.354H95.56l-1.955.027q-.116,0-.116-.109v-.581q0-.123.116-.123l1.955.027h4.949l1.955-.027q.116,0,.116.123Zm-1.388,8.873V36.67h-1.75v5.476Zm-2.536,0V36.67H96.975v5.476Zm-2.468,0V36.67H94.527v5.476Zm2.468-6.2V33.354H96.975v2.591Zm-5.175-4.129a.266.266,0,0,1-.123.205,1.3,1.3,0,0,0-.267.52,21.9,21.9,0,0,1-.943,2.3v6.918l.027,2.181q0,.1-.109.1H91.4q-.109,0-.109-.1l.027-2.181V38.324q0-.656.027-2.058A15.424,15.424,0,0,1,90.2,37.88q-.1.137-.164.137t-.13-.15a1.575,1.575,0,0,0-.335-.581A14.947,14.947,0,0,0,92.285,32.3a4.618,4.618,0,0,0,.185-.937,3.9,3.9,0,0,1,.854.28Q93.481,31.721,93.481,31.816Zm21.656,12.106q0,.1-.109.1h-.622q-.109,0-.109-.1v-.684h-3.931v.67q0,.1-.109.1h-.615q-.116,0-.116-.1l.027-2.3V40.573l-.027-1.456a.1.1,0,0,1,.109-.109l1.627.027h2.14l1.627-.027a.1.1,0,0,1,.109.109l-.027,1.306V41.6Zm-.841-1.408V39.76h-3.931v2.755Zm2.577-3.972a2.192,2.192,0,0,0-.321.547q-.089.219-.164.219a.983.983,0,0,1-.2-.048,13.2,13.2,0,0,1-3.712-2.187,14.722,14.722,0,0,1-3.9,2.352.774.774,0,0,1-.212.068q-.1,0-.2-.226a1.311,1.311,0,0,0-.335-.458,13.232,13.232,0,0,0,4.061-2.283,8.867,8.867,0,0,1-1.5-2.017,10.551,10.551,0,0,1-1.292,1.483q-.15.157-.205.157t-.2-.171a1.52,1.52,0,0,0-.437-.294,8.98,8.98,0,0,0,2.6-3.705,2.27,2.27,0,0,0,.185-.69q.6.137.793.2.157.068.157.144a.236.236,0,0,1-.109.164.934.934,0,0,0-.226.362q-.2.479-.349.759h3.1a.623.623,0,0,0,.232-.027.33.33,0,0,1,.144-.041.593.593,0,0,1,.362.226q.226.253.226.349a.232.232,0,0,1-.123.191,1.064,1.064,0,0,0-.28.349,10.829,10.829,0,0,1-1.921,2.577A11.272,11.272,0,0,0,116.874,38.543Zm-2.646-4.929h-3.274l-.144.239a8.033,8.033,0,0,0,1.641,2.167A8.89,8.89,0,0,0,114.229,33.614Zm-5.694,3.828a2.067,2.067,0,0,0-.328.485q-.082.171-.123.171t-.144-.123a6.807,6.807,0,0,1-1.114-2.044q.007,2.8.068,5.8.021.759.041,1.668.014.451.014.485a.1.1,0,0,1-.109.109h-.663a.1.1,0,0,1-.109-.109s.009-.394.027-1.169q.075-3.452.1-6.515a15.465,15.465,0,0,1-1.818,4.519q-.1.171-.15.171-.068,0-.13-.171a1.367,1.367,0,0,0-.335-.52,15.521,15.521,0,0,0,2.229-5.038h-.52l-1.319.027a.1.1,0,0,1-.109-.109V34.53q0-.123.109-.123l1.319.027h.643V33.061a9.836,9.836,0,0,0-.1-1.654q.5.021.875.068.157.027.157.13a.736.736,0,0,1-.068.267,5.409,5.409,0,0,0-.068,1.176v1.388h.171l1.326-.027q.109,0,.109.123v.547a.1.1,0,0,1-.109.109l-1.326-.027h-.1A6.035,6.035,0,0,0,108.534,37.442Zm15.21,1.176v2.769h-.937V39.049q-.321.164-.663.355-1.791,1.012-1.791,2.03a.927.927,0,0,0,.629.943,6.4,6.4,0,0,0,2.078.232q1.47,0,3.411-.171l.041.95q-2.55.13-3.384.13a5.879,5.879,0,0,1-2.967-.513,1.772,1.772,0,0,1-.7-1.6,3.066,3.066,0,0,1,1.88-2.55q.711-.4,1.456-.772-.068-1.312-.909-1.312-1.176,0-3.227,2.365l-.725-.643a16.348,16.348,0,0,0,2.9-4.136q-1.278.021-2.563,0V33.5q1.477.027,2.953,0a12.51,12.51,0,0,0,.629-1.873l1.012.185a14.376,14.376,0,0,1-.588,1.647q1.969-.062,3.739-.239l.027.854q-2.3.185-4.143.239a14.3,14.3,0,0,1-1.176,1.989l-.355.362.041.055a2.492,2.492,0,0,1,1.668-.711,1.521,1.521,0,0,1,1.114.424,1.982,1.982,0,0,1,.526,1.217q1.094-.5,2.844-1.237l.39.957Q124.674,38.208,123.744,38.618Zm15.4,5.141q0,.1-.109.1h-.663q-.109,0-.109-.1v-.786h-6.932v.8q0,.1-.109.1h-.663q-.109,0-.109-.1l.027-4.437V36.745l-.027-3.35a.1.1,0,0,1,.109-.109l1.962.027h.827a12.48,12.48,0,0,0,.561-1.483,3.218,3.218,0,0,0,.1-.615q.41.055.9.164.171.048.171.157a.228.228,0,0,1-.082.15,1.128,1.128,0,0,0-.212.355q-.308.82-.533,1.271h2.83l1.962-.027a.1.1,0,0,1,.109.109l-.027,3.028v2.9Zm-.882-1.586V39.842h-6.932v2.331Zm0-3.1v-2.1h-6.932v2.1Zm0-2.871V34.113h-6.932V36.2Zm14.171.868q-.014.232-.027.731-.014.479-.027.752a26.434,26.434,0,0,1-.335,3.527,2.075,2.075,0,0,1-.574,1.2,1.761,1.761,0,0,1-1.224.39q-.725,0-1.114-.041-.219-.014-.26-.062a.634.634,0,0,1-.082-.26,1.6,1.6,0,0,0-.28-.656,10.247,10.247,0,0,0,1.6.137.989.989,0,0,0,.772-.28,1.545,1.545,0,0,0,.308-.772,26.9,26.9,0,0,0,.308-3.985h-3.124a6.808,6.808,0,0,1-4.211,6.091.872.872,0,0,1-.2.068q-.075,0-.212-.212a1.52,1.52,0,0,0-.444-.458,6.058,6.058,0,0,0,4.184-5.489h-.629l-1.88.027a.1.1,0,0,1-.109-.109v-.622a.1.1,0,0,1,.109-.109l1.88.027H150.4l1.907-.027Q152.435,36.937,152.435,37.066Zm-4.512-4.819q0,.068-.109.157a.808.808,0,0,0-.253.308,13.916,13.916,0,0,1-2.037,3.11,14.7,14.7,0,0,1-2.372,2.112.564.564,0,0,1-.212.123q-.075,0-.191-.185a1.6,1.6,0,0,0-.492-.458,11.291,11.291,0,0,0,2.81-2.427,10.521,10.521,0,0,0,1.559-2.461,3.378,3.378,0,0,0,.226-.827,4.943,4.943,0,0,1,.889.335Q147.923,32.117,147.923,32.247Zm7.41,4.983a2.01,2.01,0,0,0-.492.561q-.13.2-.164.2a.578.578,0,0,1-.2-.109,14.728,14.728,0,0,1-4.792-5.756.207.207,0,0,1-.021-.075q0-.034.15-.109l.417-.226a.43.43,0,0,1,.15-.055q.041,0,.075.1a12.071,12.071,0,0,0,2.167,3.288A11.7,11.7,0,0,0,155.333,37.23Zm8.155-1.388.718-.273a18.274,18.274,0,0,1,1.032,2.365l-.752.308A15.122,15.122,0,0,0,163.488,35.843Zm1.586-.472.7-.253a11.566,11.566,0,0,1,1,2.3l-.731.294A13.487,13.487,0,0,0,165.074,35.371Zm.39-2.632.027.964a5.312,5.312,0,0,0-2.311.629,5.934,5.934,0,0,0-2.071,1.962,4.817,4.817,0,0,0-.813,2.659,2.958,2.958,0,0,0,1.285,2.529,6.17,6.17,0,0,0,2.933,1l-.239,1a6.1,6.1,0,0,1-3.63-1.381,3.89,3.89,0,0,1-1.312-3.049,5.709,5.709,0,0,1,2.994-5.024l.759-.335-.014-.027-.656.109q-1.189.068-5.66.479l-.082-.923Q158.676,33.177,165.464,32.739Zm14.854,5.674q0,.109-.116.109l-1.969-.027h-2.522a7.7,7.7,0,0,0,1.9,2.878,9.869,9.869,0,0,0,2.68,1.839,1.83,1.83,0,0,0-.424.561q-.123.212-.178.212a.678.678,0,0,1-.226-.109,9.26,9.26,0,0,1-4.3-4.915,7.554,7.554,0,0,1-3.876,4.983.552.552,0,0,1-.212.082q-.062,0-.212-.2a1.768,1.768,0,0,0-.458-.444,8.55,8.55,0,0,0,2.769-2.105,6.622,6.622,0,0,0,1.2-2.434l.082-.349H173.2l-1.989.027a.1.1,0,0,1-.109-.109v-.581q0-.123.109-.123l1.989.027h1.4a27.343,27.343,0,0,0,.185-2.885H173.8l-1.8.027a.1.1,0,0,1-.109-.109v-.608a.1.1,0,0,1,.109-.109l1.8.027h1V32.972a9.736,9.736,0,0,0-.1-1.565,8.167,8.167,0,0,1,.923.082q.185.041.185.144a1.25,1.25,0,0,1-.082.28,3.187,3.187,0,0,0-.089.978v1.189H177l1.853-.027a.1.1,0,0,1,.109.109l-.027,1.224v2.352l1.271-.027q.116,0,.116.123Zm-2.215-.677V34.852h-2.481a25.042,25.042,0,0,1-.205,2.885Zm-7.4,2.1q-.554,1.538-1.347,3.261a4.509,4.509,0,0,0-.253.615q-.048.171-.137.171a.432.432,0,0,1-.212-.082,6.2,6.2,0,0,1-.643-.479,5.858,5.858,0,0,0,.745-1.148,30.622,30.622,0,0,0,1.271-3.192,2.425,2.425,0,0,0,.438.424q.191.144.191.226A.845.845,0,0,1,170.7,39.835Zm.492-6.562a.149.149,0,0,1,.055.089.315.315,0,0,1-.082.144l-.314.4q-.089.116-.13.116a.11.11,0,0,1-.075-.048,10.593,10.593,0,0,0-1.887-1.627q-.075-.048-.075-.082a.284.284,0,0,1,.082-.137l.294-.335q.1-.1.137-.1a.168.168,0,0,1,.075.027A10.085,10.085,0,0,1,171.192,33.272Zm-.786,3.4a.137.137,0,0,1,.041.075.423.423,0,0,1-.082.164l-.294.39q-.082.109-.123.109a.168.168,0,0,1-.1-.062,9.534,9.534,0,0,0-1.887-1.531q-.068-.034-.068-.068a.389.389,0,0,1,.1-.15l.267-.342q.075-.089.116-.089a.183.183,0,0,1,.089.034A10.079,10.079,0,0,1,170.406,36.67Zm13.938-1.415a5.788,5.788,0,0,1,3.028-.834q.2-.923.335-2.105l1,.116q-.178,1.114-.362,2.044a3.422,3.422,0,0,1,2.454,1.531,5.366,5.366,0,0,1,.738,2.96q0,3.794-4.286,4.607l-.431-.854a4.484,4.484,0,0,0,2.939-1.5,3.428,3.428,0,0,0,.772-2.242,4.633,4.633,0,0,0-.69-2.68,2.214,2.214,0,0,0-1.7-1.012,17.708,17.708,0,0,1-2.29,6.07,2.779,2.779,0,0,1-2.16,1.429,1.5,1.5,0,0,1-1.306-.711,3.913,3.913,0,0,1-.5-2.174,5.261,5.261,0,0,1,1.668-4.061q-.308-1.217-.561-2.892l.923-.13Q184.105,34.1,184.345,35.255Zm1.518,4.231a23.4,23.4,0,0,0,1.313-4.231,4.672,4.672,0,0,0-2.618.882A14.477,14.477,0,0,0,185.862,39.486Zm-.533.991a18.529,18.529,0,0,1-1.511-3.637,4.433,4.433,0,0,0-1.012,2.953,3.369,3.369,0,0,0,.308,1.634.663.663,0,0,0,.561.383Q184.516,41.811,185.329,40.478Zm10.425-5.53q-1.155.062-2.365.062v-.882q1.4,0,2.509-.062.191-1.422.267-2.447l1.032.1q-.109,1.025-.321,2.311,1.36-.089,3.1-.239l.014.882q-1.429.15-3.254.239a53.168,53.168,0,0,1-2.208,8.524l-.978-.335A47.881,47.881,0,0,0,195.754,34.947Zm1.709,5.38.868.068a3.679,3.679,0,0,0-.082.786,1.075,1.075,0,0,0,.513,1.08,4.218,4.218,0,0,0,1.559.191,16.519,16.519,0,0,0,2.167-.109l.055.964q-.834.082-2.044.082a4.645,4.645,0,0,1-2.5-.472,1.737,1.737,0,0,1-.636-1.531A5.222,5.222,0,0,1,197.463,40.327Zm.711-2.994V36.4a40.055,40.055,0,0,1,4.259-.191v.9A32.162,32.162,0,0,0,198.174,37.333Zm10.452,1.955.854.615q-.677,3.377-2.27,3.377a1.651,1.651,0,0,1-1.538-1.019,9.207,9.207,0,0,1-.718-3.227q-.109-1.312-.109-3.541l.014-2.632h1.012l-.021,2.188q0,2.646.116,3.9.267,3.22,1.217,3.22.485,0,.813-.711A11.913,11.913,0,0,0,208.626,39.288Zm2.1-5.346.909-.267a17.059,17.059,0,0,1,2.427,7.574l-1.053.171A17.589,17.589,0,0,0,210.725,33.942Zm8.907,10.391h-4.286V43.6h3.5V32.22h.786Zm4.45-13.3h4.286v.725h-3.5V43.137h-.786Zm8.326,3.063V31.83h.964v2.208q1.511-.1,2.591-.219v.909q-1.224.123-2.591.205v2.707a8.692,8.692,0,0,1,2.646-.479,2.9,2.9,0,0,1,2.577,1.169,3.273,3.273,0,0,1,.533,1.894,2.654,2.654,0,0,1-1.3,2.591,6.067,6.067,0,0,1-2.707.465v-.9a3.954,3.954,0,0,0,2.167-.444,2.048,2.048,0,0,0,.772-1.825,2.11,2.11,0,0,0-.6-1.524,1.724,1.724,0,0,0-1.285-.561,7.651,7.651,0,0,0-2.8.533v3.609a1.437,1.437,0,0,1-.273,1,1.054,1.054,0,0,1-.786.26,2.259,2.259,0,0,1-1.189-.376,2.427,2.427,0,0,1-1.347-2.03q0-1.736,2.632-3.049v-3q-.813.048-2.434.075v-.9Q231.287,34.154,232.408,34.093Zm0,4.9a5.118,5.118,0,0,0-1.306,1.019,1.511,1.511,0,0,0-.39.984,1.078,1.078,0,0,0,.335.759,1.888,1.888,0,0,0,.69.458.9.9,0,0,0,.39.1q.28,0,.28-.465Zm3.9-5.64.6-.731a12.831,12.831,0,0,1,2.816,2.229l-.684.772A11,11,0,0,0,236.312,33.354Zm17.295,6.009a2.1,2.1,0,0,0-.362.595q-.089.212-.171.212a1.477,1.477,0,0,1-.191-.027,21.158,21.158,0,0,1-5.6-1.887,14.8,14.8,0,0,1-3.514,1.511q.28.027,1.8.027h3.3l1.866-.027q.109,0,.109.1l-.027,1.08v1.176l.027,1.8q0,.1-.109.1h-.636q-.109,0-.109-.1v-.588h-5.53V43.9q0,.1-.109.1h-.636q-.109,0-.109-.1l.027-1.777V41.065l-.027-1.2v-.041q-.807.246-1.948.513a1.079,1.079,0,0,1-.205.041q-.089,0-.185-.205a1.49,1.49,0,0,0-.349-.513,19.32,19.32,0,0,0,5.612-1.839,10.515,10.515,0,0,1-1.887-1.511,12.49,12.49,0,0,1-2.215,1.49,1.187,1.187,0,0,1-.226.1q-.041,0-.15-.157a1.274,1.274,0,0,0-.424-.417,10.163,10.163,0,0,0,3.821-2.926,3.067,3.067,0,0,0,.369-.643,5.962,5.962,0,0,1,.731.232q.123.068.123.144t-.144.185a1.612,1.612,0,0,0-.294.308q-.185.239-.308.376h3.473a.783.783,0,0,0,.335-.055.317.317,0,0,1,.13-.041q.109,0,.39.28.239.253.239.376a.206.206,0,0,1-.144.2,1.379,1.379,0,0,0-.417.321,15.542,15.542,0,0,1-1.935,1.688A20.549,20.549,0,0,0,253.606,39.363ZM250,42.61V40.5h-5.53V42.61Zm-.711-6.945h-3.951l-.171.185a10.306,10.306,0,0,0,2.105,1.524A12.59,12.59,0,0,0,249.286,35.665Zm3.5-.137a.1.1,0,0,1-.109.109h-.636a.1.1,0,0,1-.109-.109V33.56h-9.591v1.969a.1.1,0,0,1-.109.109H241.6a.1.1,0,0,1-.109-.109l.027-1.449v-.437l-.027-.725a.1.1,0,0,1,.109-.109l1.935.027h3.083v-.547a3.786,3.786,0,0,0-.1-.95q.41.021.923.068.171.021.171.116a.846.846,0,0,1-.082.26,1.819,1.819,0,0,0-.068.547v.506h3.288l1.935-.027a.1.1,0,0,1,.109.109l-.027.629v.533Zm14.841,7.007a1.86,1.86,0,0,0-.451.479q-.089.171-.164.171a.433.433,0,0,1-.2-.1,10.65,10.65,0,0,1-2.331-2.01,8.641,8.641,0,0,1-1.278-2.112q.055,2.939.055,3.657a1.138,1.138,0,0,1-.362.991,2.855,2.855,0,0,1-1.415.239.264.264,0,0,1-.369-.28,1.561,1.561,0,0,0-.246-.588,8.256,8.256,0,0,0,.923.055.82.82,0,0,0,.554-.123.62.62,0,0,0,.1-.424V40.888q-1.244.807-2.769,1.62a1.943,1.943,0,0,0-.506.314q-.089.109-.157.109t-.123-.123q-.144-.253-.362-.745a4.57,4.57,0,0,0,.807-.294,26.732,26.732,0,0,0,3.11-1.7V38.03h-1.3l-1.935.027q-.1,0-.1-.109V37.4q0-.109.1-.109l1.935.027h1.3V36.062h-.8l-1.764.027q-.109,0-.109-.116V35.46q0-.116.109-.116l1.764.027h.8v-1.2h-.991l-1.88.027q-.109,0-.109-.1v-.554a.1.1,0,0,1,.109-.109l1.88.027h2.085a12.2,12.2,0,0,0,.752-1.429,2.655,2.655,0,0,0,.185-.588,5.367,5.367,0,0,1,.725.212q.171.048.171.15,0,.075-.137.185a.677.677,0,0,0-.2.267,12.632,12.632,0,0,1-.7,1.2h.465l1.846-.027q.13,0,.13.109V34.1q0,.1-.13.1l-1.846-.027h-1.565v1.2h1.176l1.75-.027q.109,0,.109.116v.513q0,.116-.109.116l-1.75-.027h-1.176v1.258h1.941l1.935-.027a.1.1,0,0,1,.109.109v.547a.1.1,0,0,1-.109.109l-1.935-.027h-1.8a9.616,9.616,0,0,0,1.189,2.03,11.043,11.043,0,0,0,1.121-1.053,1.977,1.977,0,0,0,.335-.485,4.885,4.885,0,0,1,.574.444.257.257,0,0,1,.116.185q0,.109-.137.15a1.1,1.1,0,0,0-.424.294,13.716,13.716,0,0,1-1.135,1A10.166,10.166,0,0,0,267.627,42.535Zm-8.545-7.615q0,.116-.109.116l-1.258-.027h-.089a9.323,9.323,0,0,0,1.442,3.035,1.831,1.831,0,0,0-.349.533q-.068.15-.123.15t-.13-.15A12.545,12.545,0,0,1,257.5,35.9q.007,2.755.082,5.79.014.759.041,1.7.014.465.014.506a.085.085,0,0,1-.1.1h-.67q-.116,0-.116-.1s.009-.406.027-1.2q.1-3.541.116-6.6a15.75,15.75,0,0,1-1.641,4.437q-.089.157-.137.157-.075,0-.116-.137a1.211,1.211,0,0,0-.362-.547,15.308,15.308,0,0,0,2.058-5H256.4l-1.271.027a.1.1,0,0,1-.116-.116v-.547q0-.123.116-.123l1.271.027h.417v-1.2a8.8,8.8,0,0,0-.109-1.668,6.61,6.61,0,0,1,.882.089q.171.021.171.123a.676.676,0,0,1-.082.253,4.858,4.858,0,0,0-.075,1.189v1.217h.116l1.258-.027q.109,0,.109.123Zm2.146,4.819q.048.048.048.075t-.1.137l-.294.273q-.116.123-.164.123-.027,0-.068-.062a6.8,6.8,0,0,0-1.176-1.306q-.055-.041-.055-.068t.109-.137l.239-.226q.109-.1.15-.1t.068.048A6.8,6.8,0,0,1,261.229,39.739Zm.725-6.918a.168.168,0,0,1,.014.062q0,.048-.1.109l-.41.219a.441.441,0,0,1-.164.075q-.041,0-.075-.089a4.652,4.652,0,0,0-.786-1.258.112.112,0,0,1-.041-.068q0-.041.144-.116l.362-.178a.368.368,0,0,1,.123-.041.146.146,0,0,1,.1.068A6.6,6.6,0,0,1,261.953,32.821Zm9.29,5.168q-.7,0-2.126-.027v-.9q.588.027,2.215.027l.219-2.283q-1,0-2.352-.027v-.9q1.189.068,2.44.068.048-.424.123-1.155.089-.813.109-1.06l1.012.075q-.048.451-.123,1.169-.082.752-.1.957,1.442-.014,3.767-.157l.014.9q-1.839.116-3.876.116-.075.834-.253,2.283,2.235-.027,3.979-.157v.9q-2.16.137-4.061.157A32.724,32.724,0,0,0,272,41.264a1.408,1.408,0,0,0,.5,1.23,2.723,2.723,0,0,0,1.531.335,3.8,3.8,0,0,0,2.208-.526,1.511,1.511,0,0,0,.649-1.292,3.093,3.093,0,0,0-.813-2.017l.923-.349a3.489,3.489,0,0,1,.937,2.311q0,2.816-3.9,2.816a3.309,3.309,0,0,1-2.454-.725,2.532,2.532,0,0,1-.54-1.784Q271.038,40.17,271.243,37.989Zm10.931-3.261q-1.278.041-2.311.041v-.882q1.244,0,2.509-.041.226-1.107.362-2.105l1.032.062q-.191,1.148-.39,2.017,2.7-.123,4.423-.28v.9q-2.263.171-4.635.246a19.859,19.859,0,0,1-1.511,4.149l.027.014a4.587,4.587,0,0,1,3.739-1.511,2.666,2.666,0,0,1,2.9,2.741,3,3,0,0,1-.383,1.593,3.512,3.512,0,0,1-1.2,1.107q-1.2.731-4.7.772l-.246-.909a8.561,8.561,0,0,0,4.266-.731,2.69,2.69,0,0,0,.943-.841,1.956,1.956,0,0,0,.246-1.032,1.9,1.9,0,0,0-.547-1.422,1.817,1.817,0,0,0-1.312-.485,4.988,4.988,0,0,0-4.033,2.133l-.978-.451A24.372,24.372,0,0,0,282.174,34.729Zm13.87.95h.055a2.049,2.049,0,0,1,1.654.677,2.229,2.229,0,0,1,.485,1.49,2.118,2.118,0,0,1-2.379,2.413q-.294,0-.854-.034l-.137-.861q.417.041.841.041a1.68,1.68,0,0,0,1.244-.383,1.611,1.611,0,0,0,.349-1.148,1.549,1.549,0,0,0-.369-1.128,1.036,1.036,0,0,0-.766-.294,10.744,10.744,0,0,0-3.3.711q.581,1.982,1.682,6.214l-.9.28q-.991-4.1-1.6-6.187-.677.253-1.791.711l-.321-.793q1.449-.554,1.873-.7-.178-.595-.738-2.352l.854-.294q.41,1.285.711,2.365a16.119,16.119,0,0,1,2.522-.643,16.467,16.467,0,0,0-.827-1.668l.8-.349A19.8,19.8,0,0,1,296.044,35.679Zm7.711-3.739,1,.362q-1.374,3.445-2.406,5.927l.082.041a2.16,2.16,0,0,1,1.764-1.066,1.369,1.369,0,0,1,1.367.841,5.721,5.721,0,0,1,.342,1.907,7.182,7.182,0,0,0,.294,1.955q.205.506.615.506a1.552,1.552,0,0,0,.875-.212,1.869,1.869,0,0,0,.554-.684,7.748,7.748,0,0,0,.629-2.926l.909.431a7.612,7.612,0,0,1-.725,3.069,2.444,2.444,0,0,1-2.16,1.36,1.557,1.557,0,0,1-1.518-.868,5.375,5.375,0,0,1-.41-1.948,10.425,10.425,0,0,0-.287-2.133q-.157-.472-.513-.472-.9,0-1.859,1.313a22.479,22.479,0,0,0-1.8,4.033l-.978-.335Q300.521,40.491,303.755,31.939Zm11.334,4.437q1.429-.854,3.274-1.818l.5.882a29.874,29.874,0,0,0-4.464,2.5,3.4,3.4,0,0,0-1.709,2.714q0,1.8,2.885,1.8,1.483,0,3.391-.137v1q-2.345.068-3.459.068-3.78,0-3.78-2.755,0-2.085,2.475-3.7-.588-2.14-1.087-5.024l1.032-.041A41.151,41.151,0,0,0,315.089,36.376Zm18.307,3.7q0,.123-.109.123l-1.962-.027h-4.566L324.8,40.2q-.116,0-.116-.123V39.6q0-.109.116-.109l1.955.027h.369V38.249l-1.839.027q-.109,0-.109-.123v-.479a.1.1,0,0,1,.109-.109l1.839.027v-.082a4.536,4.536,0,0,0-.089-.984,6.937,6.937,0,0,1,.813.089q.171.021.171.109a.4.4,0,0,1-.068.212.914.914,0,0,0-.075.458v.2h2.1v-.055a4.769,4.769,0,0,0-.082-1.012q.629.055.827.089t.185.123a.481.481,0,0,1-.089.212.878.878,0,0,0-.068.4v.239h.055l1.894-.027a.1.1,0,0,1,.109.109v.479q0,.123-.109.123l-1.894-.027h-.055v1.265h.574l1.962-.027a.1.1,0,0,1,.109.109Zm-3.418-.561V38.249h-2.1v1.265Zm3.979,3.1a1.255,1.255,0,0,0-.253.588.5.5,0,0,1-.082.253.537.537,0,0,1-.239.048q-2.728.171-4.97.171a8.924,8.924,0,0,1-3.445-.451,2.781,2.781,0,0,1-1.347-1.381,17.1,17.1,0,0,1-1.47,1.36,1.187,1.187,0,0,0-.294.294q-.082.123-.164.123t-.171-.123a5.58,5.58,0,0,1-.4-.731,5.346,5.346,0,0,0,.854-.52,9.5,9.5,0,0,0,1.258-1.128V37.641h-1l-.957.027q-.109,0-.109-.13v-.6a.1.1,0,0,1,.109-.109l.957.027h.711l1.012-.027a.1.1,0,0,1,.109.109l-.027,1.319v2.912a2.3,2.3,0,0,0,1.258,1.381,8.237,8.237,0,0,0,2.8.335Q331,42.884,333.956,42.61Zm-.629-7.335a1.1,1.1,0,0,1-.321.67,3.663,3.663,0,0,1-1.764.239,3.3,3.3,0,0,1-1.586-.212.719.719,0,0,1-.226-.335,2.309,2.309,0,0,1-.068-.656v-.69l-.027-.547a.1.1,0,0,1,.109-.109l1.025.027h1.682V32.637h-1.627l-1.176.027q-.123,0-.123-.109v-.485q0-.116.123-.116l1.176.027h1.189l1.114-.027a.1.1,0,0,1,.109.109l-.034.813v.479l.034.854a.1.1,0,0,1-.109.109l-1.114-.027h-1.579v.533q0,.5.123.608a2.983,2.983,0,0,0,1.148.109,2.153,2.153,0,0,0,1.066-.144,1.248,1.248,0,0,0,.15-.745,1.756,1.756,0,0,0,.52.267q.205.082.205.185A1.412,1.412,0,0,1,333.327,35.275Zm-4.689,0a1.1,1.1,0,0,1-.321.67,3.311,3.311,0,0,1-1.654.239,3.157,3.157,0,0,1-1.552-.212.692.692,0,0,1-.246-.335,2.553,2.553,0,0,1-.062-.656v-.69l-.027-.547q0-.109.123-.109l.991.027h1.654V32.637h-1.593l-1.2.027a.1.1,0,0,1-.109-.109v-.485q0-.116.109-.116l1.2.027h1.162l1.107-.027a.1.1,0,0,1,.109.109l-.027.813v.479l.027.854a.1.1,0,0,1-.109.109l-1.107-.027h-1.545v.52q0,.513.13.622a2.432,2.432,0,0,0,1.019.109,2.111,2.111,0,0,0,1.107-.157q.123-.116.137-.731a1.556,1.556,0,0,0,.506.28q.185.068.185.178Q328.651,35.152,328.638,35.275Zm4.635,6.439a1.5,1.5,0,0,0-.308.431q-.123.219-.219.219a.841.841,0,0,1-.205-.048,11.179,11.179,0,0,1-2.625-1.47q-.075-.048-.075-.082t.082-.13l.253-.239q.1-.1.144-.1a.234.234,0,0,1,.109.055A8.988,8.988,0,0,0,333.272,41.715Zm-9.283-7.759a.168.168,0,0,1,.027.075q0,.048-.123.15l-.328.253a.443.443,0,0,1-.185.1q-.048,0-.1-.075a9.982,9.982,0,0,0-1.552-2.017.112.112,0,0,1-.041-.068q0-.041.137-.13l.314-.226a.494.494,0,0,1,.164-.082.138.138,0,0,1,.082.041A12.416,12.416,0,0,1,323.989,33.956Zm4.156,6.891q-.021.089-.185.137a.916.916,0,0,0-.2.123,2.242,2.242,0,0,1-.205.13,9.56,9.56,0,0,1-1.859.964.813.813,0,0,1-.219.062q-.082,0-.232-.185a1.026,1.026,0,0,0-.376-.335,10.769,10.769,0,0,0,2.044-.923,2.564,2.564,0,0,0,.561-.52,4.036,4.036,0,0,1,.54.362q.13.089.13.164ZM8.456,59.434l.718-.28a18.774,18.774,0,0,1,1.032,2.372l-.752.308A15.123,15.123,0,0,0,8.456,59.434Zm1.559-.444.7-.253a11.327,11.327,0,0,1,.991,2.3l-.725.294A13.488,13.488,0,0,0,10.015,58.989ZM1.148,62.168l-.055-.923a23.628,23.628,0,0,0,4.006-.4l.376.882A6.628,6.628,0,0,0,3.042,64.4a7.434,7.434,0,0,0-.827,3.466A3.085,3.085,0,0,0,2.878,70a2.16,2.16,0,0,0,1.675.663,2.869,2.869,0,0,0,2.693-1.586,7.541,7.541,0,0,0,.725-3.609A13.533,13.533,0,0,0,7.253,61.2l1-.321a19.943,19.943,0,0,0,2.892,5.011l-.834.7A13.679,13.679,0,0,1,8.6,63.4l-.212-.629-.082.027.15.643a12.054,12.054,0,0,1,.362,2.509q0,5.694-4.156,5.694-3.432,0-3.432-3.821a8.058,8.058,0,0,1,.807-3.5A7.5,7.5,0,0,1,3.9,61.847,22.731,22.731,0,0,1,1.148,62.168Zm13.952.779q-1.155.062-2.365.062v-.882q1.4,0,2.509-.062.191-1.422.267-2.447l1.032.1q-.109,1.025-.321,2.311,1.36-.089,3.1-.239l.014.882q-1.429.15-3.254.239a53.168,53.168,0,0,1-2.208,8.524l-.978-.335A47.881,47.881,0,0,0,15.1,62.947Zm1.709,5.38.868.068a3.679,3.679,0,0,0-.082.786,1.075,1.075,0,0,0,.513,1.08,4.218,4.218,0,0,0,1.559.191,16.52,16.52,0,0,0,2.167-.109l.055.964q-.834.082-2.044.082a4.645,4.645,0,0,1-2.5-.472,1.737,1.737,0,0,1-.636-1.531A5.222,5.222,0,0,1,16.81,68.327Zm.711-2.994V64.4a40.056,40.056,0,0,1,4.259-.191v.9A32.162,32.162,0,0,0,17.521,65.333Zm10.452,1.955.854.615q-.677,3.377-2.27,3.377a1.651,1.651,0,0,1-1.538-1.019,9.207,9.207,0,0,1-.718-3.227q-.109-1.312-.109-3.541l.014-2.632h1.012L25.2,63.05q0,2.646.116,3.9.267,3.22,1.217,3.22.485,0,.813-.711A11.913,11.913,0,0,0,27.973,67.288Zm2.1-5.346.909-.267a17.059,17.059,0,0,1,2.427,7.574l-1.053.171A17.589,17.589,0,0,0,30.071,61.942Zm8.907,10.391H34.692V71.6h3.5V60.22h.786Zm6.945-7.957q1.429-.854,3.274-1.818l.5.882a29.874,29.874,0,0,0-4.464,2.5,3.4,3.4,0,0,0-1.709,2.714q0,1.8,2.885,1.8,1.483,0,3.391-.137v1q-2.345.068-3.459.068-3.78,0-3.78-2.755,0-2.085,2.475-3.7-.588-2.14-1.087-5.024l1.032-.041A41.146,41.146,0,0,0,45.924,64.376ZM56.4,67.288l.854.615q-.677,3.377-2.27,3.377a1.651,1.651,0,0,1-1.538-1.019,9.207,9.207,0,0,1-.718-3.227q-.109-1.312-.109-3.541l.014-2.632h1.012l-.021,2.188q0,2.646.116,3.9.267,3.22,1.217,3.22.485,0,.813-.711A11.913,11.913,0,0,0,56.4,67.288Zm2.1-5.346.909-.267a17.059,17.059,0,0,1,2.427,7.574l-1.053.171A17.589,17.589,0,0,0,58.5,61.942Zm5.209,3.685-.294-.984a18.816,18.816,0,0,1,4.225-.813,2.721,2.721,0,0,1,2.3,1.039A3.6,3.6,0,0,1,70.6,67.11a3.454,3.454,0,0,1-1.5,3.076,8.69,8.69,0,0,1-3.609,1.107l-.39-.9a6.809,6.809,0,0,0,3.411-1.066,2.6,2.6,0,0,0,.834-.937,2.928,2.928,0,0,0,.246-1.271,2.574,2.574,0,0,0-.6-1.866,1.857,1.857,0,0,0-1.374-.513A13.113,13.113,0,0,0,63.711,65.627Zm11.04-2.68q-1.155.062-2.365.062v-.882q1.4,0,2.509-.062.191-1.422.267-2.447l1.032.1q-.109,1.025-.321,2.311,1.36-.089,3.1-.239l.014.882q-1.429.15-3.254.239a53.168,53.168,0,0,1-2.208,8.524l-.978-.335A47.881,47.881,0,0,0,74.751,62.947Zm1.709,5.38.868.068a3.679,3.679,0,0,0-.082.786,1.075,1.075,0,0,0,.513,1.08,4.218,4.218,0,0,0,1.559.191,16.52,16.52,0,0,0,2.167-.109l.055.964q-.834.082-2.044.082a4.645,4.645,0,0,1-2.5-.472,1.737,1.737,0,0,1-.636-1.531A5.222,5.222,0,0,1,76.46,68.327Zm.711-2.994V64.4a40.056,40.056,0,0,1,4.259-.191v.9A32.162,32.162,0,0,0,77.171,65.333ZM94.65,67.049a.1.1,0,0,1-.109.109l-1.531-.027H91.219l-1.518.027q-.123,0-.123-.109l.027-1.647V61.86l-.027-1.668q0-.109.123-.109l1.518.027H93.01l1.531-.027a.1.1,0,0,1,.109.109l-.027,1.668V65.4Zm-.827-.615v-1.5H90.392v1.5Zm0-2.181v-1.4H90.392v1.4Zm0-2.085V60.821H90.392v1.347Zm-4.874,2.543a2.183,2.183,0,0,0-.335.424q-.1.185-.171.185t-.178-.144a7.3,7.3,0,0,1-1.47-2.044q.068,3.712.068,4.074,0,.123-.109.123H86.14q-.116,0-.116-.123,0-.055.021-1.354.021-1.388.034-2.55a8.1,8.1,0,0,1-2.235,2.816.368.368,0,0,1-.185.1q-.062,0-.185-.185a1.6,1.6,0,0,0-.4-.417,8.844,8.844,0,0,0,2.857-3.254h-.745l-1.579.027q-.116,0-.116-.109V61.73q0-.109.116-.109l1.579.027h.868v-.882a7.17,7.17,0,0,0-.082-1.306q.362.021.854.075.15.021.15.109a.922.922,0,0,1-.055.212,3.382,3.382,0,0,0-.068.9v.9h.39l1.559-.027q.123,0,.123.109v.547q0,.109-.123.109l-1.559-.027h-.349A8,8,0,0,0,88.949,64.711Zm3.917,5.2a1.871,1.871,0,0,1-.738,1.429,2.844,2.844,0,0,1-1.053.308,14.672,14.672,0,0,1-1.483.055,5.663,5.663,0,0,1-2.167-.239,1.013,1.013,0,0,1-.417-.417,1.833,1.833,0,0,1-.116-.738V68.8a5.943,5.943,0,0,0-.082-1.073,6.382,6.382,0,0,1,.861.1q.185.041.185.13a1.254,1.254,0,0,1-.068.191,2.347,2.347,0,0,0-.068.69v1.2q0,.561.239.7a4.057,4.057,0,0,0,1.634.2,4.468,4.468,0,0,0,2-.28q.444-.273.52-1.395a2.674,2.674,0,0,0,.561.28q.212.082.212.205A1.116,1.116,0,0,1,92.866,69.906Zm2.693.438a.123.123,0,0,1,.021.062q0,.055-.15.144l-.4.253a.606.606,0,0,1-.185.1q-.041,0-.082-.075a10.653,10.653,0,0,0-1.538-2.468.137.137,0,0,1-.041-.075q0-.048.137-.123l.362-.205a.313.313,0,0,1,.144-.062.147.147,0,0,1,.109.075A12.675,12.675,0,0,1,95.56,70.344Zm-9.994-1.853a8.514,8.514,0,0,1-1.36,2.563q-.048.062-.089.062a.318.318,0,0,1-.137-.062l-.39-.239q-.15-.089-.15-.144,0-.027.055-.089A6.451,6.451,0,0,0,84.779,68.2q.034-.1.089-.1a.66.66,0,0,1,.178.055l.349.144q.178.082.178.137A.294.294,0,0,1,85.565,68.491Zm5.346.479a.234.234,0,0,1,.055.109q0,.048-.123.144l-.342.226a.43.43,0,0,1-.178.089q-.041,0-.1-.075a8.235,8.235,0,0,0-1.511-1.75q-.055-.041-.055-.075t.123-.123l.335-.226a.217.217,0,0,1,.116-.048.214.214,0,0,1,.109.048A9.029,9.029,0,0,1,90.911,68.97Zm10.712-1.682.854.615q-.677,3.377-2.27,3.377a1.651,1.651,0,0,1-1.538-1.019,9.207,9.207,0,0,1-.718-3.227q-.109-1.312-.109-3.541l.014-2.632h1.012l-.021,2.188q0,2.646.116,3.9.267,3.22,1.217,3.22.485,0,.813-.711A11.913,11.913,0,0,0,101.623,67.288Zm2.1-5.346.909-.267a17.059,17.059,0,0,1,2.427,7.574L106,69.421A17.589,17.589,0,0,0,103.722,61.942Zm10.637,4.676v2.769h-.937V67.049q-.321.164-.663.355-1.791,1.012-1.791,2.03a.927.927,0,0,0,.629.943,6.4,6.4,0,0,0,2.078.232q1.47,0,3.411-.171l.041.95q-2.55.13-3.384.13a5.879,5.879,0,0,1-2.967-.513,1.772,1.772,0,0,1-.7-1.6,3.066,3.066,0,0,1,1.88-2.55q.711-.4,1.456-.772-.068-1.312-.909-1.312-1.176,0-3.227,2.365l-.725-.643a16.348,16.348,0,0,0,2.9-4.136q-1.278.021-2.563,0V61.5q1.477.027,2.953,0a12.51,12.51,0,0,0,.629-1.873l1.012.185a14.376,14.376,0,0,1-.588,1.647q1.969-.062,3.739-.239l.027.854q-2.3.185-4.143.239a14.3,14.3,0,0,1-1.176,1.989l-.355.362.041.055a2.492,2.492,0,0,1,1.668-.711,1.521,1.521,0,0,1,1.114.424,1.982,1.982,0,0,1,.526,1.217q1.094-.5,2.844-1.237l.39.957Q115.288,66.208,114.358,66.618Zm12.209-1.326q0,.109-.116.109l-.191-.007q-.581-.014-1.347-.021v3.951l.027,2.393a.1.1,0,0,1-.109.109h-.663a.1.1,0,0,1-.109-.109l.027-2.393V65.374H122a17.428,17.428,0,0,1-.239,2.481,7.664,7.664,0,0,1-1.818,3.7q-.144.137-.171.137t-.2-.157a1.637,1.637,0,0,0-.5-.417,6.078,6.078,0,0,0,1.873-3.514,15.18,15.18,0,0,0,.212-2.229l-1.8.027q-.1,0-.1-.109V64.67q0-.109.1-.109l1.832.027q.014-.547.014-1.791V61.1l-1.374.014q-.109,0-.109-.1V60.4q0-.116.109-.116l1.777.027h2.871l1.784-.027q.109,0,.109.116v.615q0,.1-.109.1l-1.347-.014v3.486l1.538-.027q.116,0,.116.109Zm-2.481-.7V61.1h-2.058v1.8q0,1.135-.014,1.682Zm7.868,2.8q0,.082-.137.15a3.567,3.567,0,0,0-.561.561,13.443,13.443,0,0,1-4.662,3.541.735.735,0,0,1-.226.068q-.1,0-.212-.212a1.411,1.411,0,0,0-.444-.458,13.26,13.26,0,0,0,3.042-1.7,12.148,12.148,0,0,0,1.859-1.812,3.436,3.436,0,0,0,.513-.813,4.642,4.642,0,0,1,.731.506A.23.23,0,0,1,131.954,67.391Zm-.588-3.78q0,.075-.137.137a3.231,3.231,0,0,0-.465.465,13.442,13.442,0,0,1-3.739,2.939.97.97,0,0,1-.191.068q-.089,0-.212-.212a1.512,1.512,0,0,0-.41-.444,11.5,11.5,0,0,0,3.924-2.912,2.2,2.2,0,0,0,.417-.677,4.32,4.32,0,0,1,.69.451Q131.366,63.535,131.366,63.61Zm-.561-3.274q0,.1-.144.15a2.912,2.912,0,0,0-.485.424,14.07,14.07,0,0,1-3.315,2.352.552.552,0,0,1-.212.082q-.1,0-.2-.226a1.3,1.3,0,0,0-.362-.458,10.8,10.8,0,0,0,3.4-2.27,3.341,3.341,0,0,0,.5-.7,4.372,4.372,0,0,1,.7.472A.256.256,0,0,1,130.806,60.336Zm5.954,7.1.957.082a5.458,5.458,0,0,0-.157,1.258,1.054,1.054,0,0,0,.444.978,3.167,3.167,0,0,0,1.545.273,25.984,25.984,0,0,0,2.769-.144l.027,1.012q-1.025.082-2.659.082a4.349,4.349,0,0,1-2.44-.492,1.783,1.783,0,0,1-.636-1.552A7.219,7.219,0,0,1,136.76,67.432Zm.28-4.676V61.8q1.75-.137,3.541-.137.889,0,1.668.041v.95q-.725-.055-1.764-.055Q138.694,62.6,137.04,62.756Zm-1.511-2.413a36.343,36.343,0,0,0-.786,6.61,24.83,24.83,0,0,0,.342,4.382l-1,.082a28.85,28.85,0,0,1-.321-4.491,40.269,40.269,0,0,1,.772-6.665Zm15.019,2.16q-.041,1.518,0,3.035a5.324,5.324,0,0,1,.308,1.777,3.687,3.687,0,0,1-1.306,3.069,7.744,7.744,0,0,1-3.274,1.271l-.588-.841a6.334,6.334,0,0,0,3.411-1.381,2.741,2.741,0,0,0,.807-1.88,1.856,1.856,0,0,1-1.8.882,2.2,2.2,0,0,1-1.531-.574,2.3,2.3,0,0,1,.123-3.356,2.469,2.469,0,0,1,1.559-.492,2,2,0,0,1,1.36.39q-.027-1.312-.027-1.873-2.249.034-5.435.239l-.014-.9q2.584-.1,5.435-.171V59.8l1,.014q0,.629-.027,1.859,2.324-.027,3.363-.027v.9Q152.229,62.5,150.548,62.5Zm-2.338,2.3a1.322,1.322,0,0,0-.984.4,1.413,1.413,0,0,0-.39,1.046,1.237,1.237,0,0,0,.444,1,1.288,1.288,0,0,0,.848.294,1.406,1.406,0,0,0,1.1-.41,1.3,1.3,0,0,0,.314-.916Q149.543,64.8,148.21,64.8Zm8.627-4.259q1.853-.014,5.694-.2l.588.731q-2.728,2.769-4.327,4.156l-.629.547.055.041.718-.485a4.614,4.614,0,0,1,1.976-.533,3.547,3.547,0,0,1,2.707,1,3.071,3.071,0,0,1,.807,2.208,3.316,3.316,0,0,1-1.278,2.844,5.317,5.317,0,0,1-3.22.848q-2.741,0-2.741-1.859a1.625,1.625,0,0,1,.588-1.312,2.172,2.172,0,0,1,1.429-.451,2.3,2.3,0,0,1,1.777.752,3.445,3.445,0,0,1,.786,1.682,2.579,2.579,0,0,0,1.258-.978,2.922,2.922,0,0,0,.362-1.538,2.231,2.231,0,0,0-.868-1.873,2.671,2.671,0,0,0-1.668-.526,4.9,4.9,0,0,0-3.384,1.36A12.448,12.448,0,0,0,156.3,68.17l-.827-.67q3.35-3.445,6.132-6.275-2.01.15-4.771.226Zm3.944,10.247a3.024,3.024,0,0,0-.622-1.429,1.275,1.275,0,0,0-.984-.472,1.119,1.119,0,0,0-.807.3.828.828,0,0,0-.273.622.87.87,0,0,0,.465.827,2.872,2.872,0,0,0,1.3.226A6.036,6.036,0,0,0,160.781,70.788Zm6.18-2.311a14.949,14.949,0,0,1,1.641,1.531,10.045,10.045,0,0,1,1.169,1.483l-.923.684a11.119,11.119,0,0,0-2.7-3.035Zm20-1.148s-.023.089-.068.253a6,6,0,0,0-.089,1.319v1.647l.027,1.2q0,.109-.1.109h-.67q-.116,0-.116-.109v-.772h-8.518v.813q0,.109-.116.109h-.663a.1.1,0,0,1-.109-.109l.027-1.148V68.956a11.343,11.343,0,0,0-.1-1.736,8.05,8.05,0,0,1,.937.082q.185.027.185.13a.371.371,0,0,1-.027.116.922.922,0,0,0-.041.123,4.887,4.887,0,0,0-.1,1.258v1.244h3.691V65.415h-3.288v.7q0,.116-.109.116h-.663q-.109,0-.109-.116l.027-1.244V62.961a11.633,11.633,0,0,0-.1-1.75,7.361,7.361,0,0,1,.937.089q.15.021.15.123a.768.768,0,0,1-.055.253,5.49,5.49,0,0,0-.082,1.271v1.682h3.288v-3.4a11.848,11.848,0,0,0-.1-1.791,7.838,7.838,0,0,1,.964.089q.171.021.171.109a.371.371,0,0,1-.027.116.691.691,0,0,0-.041.137,6.051,6.051,0,0,0-.089,1.326v3.418h3.555v-1.75a11.633,11.633,0,0,0-.1-1.75,9.311,9.311,0,0,1,.937.082q.164.027.164.13a1.742,1.742,0,0,1-.068.239,6.8,6.8,0,0,0-.082,1.326V64.8l.027,1.285q0,.116-.109.116h-.663q-.109,0-.109-.116v-.67h-3.555v4.758h3.944v-1.3a11.425,11.425,0,0,0-.1-1.736,8.239,8.239,0,0,1,.937.082Q186.963,67.247,186.963,67.329Zm15.415,3.685A1.371,1.371,0,0,0,202,71.5q-.144.226-.212.226a.552.552,0,0,1-.212-.082,8.279,8.279,0,0,1-2.851-2.29,9.958,9.958,0,0,1-1.5-2.851h-1.244v3.89q1.183-.314,2.6-.82a1.443,1.443,0,0,0-.068.458.617.617,0,0,1-.041.294.494.494,0,0,1-.226.13,29.113,29.113,0,0,1-3.391,1.019,1.475,1.475,0,0,0-.561.212.3.3,0,0,1-.171.082q-.1,0-.15-.123-.1-.26-.267-.813a14.634,14.634,0,0,0,1.483-.239V66.5q-.479.007-.848.021l-.26.007a.1.1,0,0,1-.109-.109v-.561a.1.1,0,0,1,.109-.109l1.148.027V61.785l-.027-1.579q0-.109.1-.109l1.7.027h2.386l1.661-.027q.116,0,.116.109V60.8q0,.1-.116.1l-1.661-.027h-3.377v1.2h2.844l1.606-.027q.116,0,.116.109v.52q0,.109-.116.109l-1.606-.027h-2.844v1.128h2.844l1.593-.027q.116,0,.116.109v.506q0,.123-.116.123l-1.593-.027h-2.844v1.217H200l1.914-.027q.116,0,.116.109v.561q0,.109-.116.109L200,66.5H198.01a8.452,8.452,0,0,0,1.053,2.03,10.025,10.025,0,0,0,1.217-1.176,2.255,2.255,0,0,0,.362-.533,5.241,5.241,0,0,1,.629.479.224.224,0,0,1,.082.137q0,.1-.123.157a1.458,1.458,0,0,0-.424.294,11.866,11.866,0,0,1-1.326,1.162A7.624,7.624,0,0,0,202.378,71.014Zm-8.668-7.157a.1.1,0,0,1-.109.109l-1.142-.027h-1.381q-.137,1.271-.28,2.119h1.647l1.012-.027q.123,0,.123.109-.041.26-.068.834a11.993,11.993,0,0,1-.69,4.129,1.277,1.277,0,0,1-1.258.684q-.513,0-.854-.027-.171-.014-.205-.062a.572.572,0,0,1-.068-.246,1.747,1.747,0,0,0-.185-.588,8.034,8.034,0,0,0,1.176.1.728.728,0,0,0,.67-.294,11.126,11.126,0,0,0,.629-3.862h-2.071q-.034.226-.109.561-.027.144-.123.144a2.622,2.622,0,0,1-.294-.041q-.4-.1-.4-.185a.577.577,0,0,1,.014-.1,24.406,24.406,0,0,0,.506-2.9,8.854,8.854,0,0,0,.055-.964q0-.123.13-.123l.95.027H192.9V60.9h-1.668l-1.217.027a.1.1,0,0,1-.109-.109v-.574q0-.116.109-.116l1.217.027h1.23l1.142-.027a.1.1,0,0,1,.109.109l-.027,1.2v1.23ZM205.6,60.233V67.1h-1.08V60.233Zm-.4,10.5a5.626,5.626,0,0,0,3.473-1.812,6.149,6.149,0,0,0,.9-3.664V60.151h1.08V65.4a6.3,6.3,0,0,1-1.354,4.457,6.837,6.837,0,0,1-3.589,1.716Zm9-10.343h6.344v.937H214.2Zm-.854,2.98h7.909q-.157,4-1.955,5.961A8.381,8.381,0,0,1,215,71.6l-.506-.8a7.477,7.477,0,0,0,4.238-2.413,6.915,6.915,0,0,0,1.36-4.081h-6.747Zm13.036-1.23a13.127,13.127,0,0,1-2.577,4.026l-.8-.615a12.247,12.247,0,0,0,3.021-5.824l1.107.171q-.144.54-.4,1.313h4.854a14.934,14.934,0,0,1-2.673,7.355,10.473,10.473,0,0,1-4.423,3.1l-.615-.752a9.7,9.7,0,0,0,4.484-3.315,12.582,12.582,0,0,0,1.969-5.462Zm10.732.7,4.676-1.066a14.138,14.138,0,0,0-.95-2.249l.711-.28a18.727,18.727,0,0,1,1.039,2.365l-.369.15.718.909a16.949,16.949,0,0,1-2.844,4.99l-.882-.561a12.915,12.915,0,0,0,2.536-4.327l-4.635,1.046V68.86q0,.943.485,1.189a4.62,4.62,0,0,0,1.723.205q1.545,0,3.247-.164v1.032q-1.49.1-3.466.1a3.85,3.85,0,0,1-2.55-.588,2.375,2.375,0,0,1-.506-1.75V64.055l-2.379.533-.28-.909,2.659-.6V59.83h1.066Zm5.318-3.753.7-.253a11.566,11.566,0,0,1,1,2.3l-.731.294A13.487,13.487,0,0,0,242.43,59.085Zm2.468,6.173h7.615V66.3H244.9Zm9.283-.991.479-.841a28.872,28.872,0,0,1,3.288,1.429l-.52.937A19.992,19.992,0,0,0,254.181,64.267Zm1.258-2.994.52-.827a20.247,20.247,0,0,1,3.192,1.524l-.561.923A17.538,17.538,0,0,0,255.438,61.272Zm7.335.923.971.547a14.6,14.6,0,0,1-1.148,3.151,9.741,9.741,0,0,1-1.47,2.235,10.073,10.073,0,0,1-5.558,2.994l-.574-.882a9.086,9.086,0,0,0,5.318-2.8A11.559,11.559,0,0,0,262.773,62.2Zm7.916,4.088V63.61h-4.833V62.7h5.879V71.28h-5.947v-.9h4.9V67.179h-4.635v-.9Zm3.944-5.25a23.99,23.99,0,0,1,3.288,2.085l-.7.923A20.357,20.357,0,0,0,274,61.86Zm7.055.7,1.053.506a11.411,11.411,0,0,1-2.6,5.8,11.137,11.137,0,0,1-5.585,3.227l-.479-.95Q280.643,68.7,281.688,61.73Zm8.2.116a22.039,22.039,0,0,1-1.483,7.362,2.1,2.1,0,0,1-1.894,1.483,1.749,1.749,0,0,1-1.606-1.06,6,6,0,0,1-.533-2.789,7.336,7.336,0,0,1,.458-2.618,5.114,5.114,0,0,1,1.039-1.723,4.675,4.675,0,0,1,1.716-1.128,5.426,5.426,0,0,1,1.969-.369,4.139,4.139,0,0,1,3.555,1.5,6.371,6.371,0,0,1,.964,3.808,5.114,5.114,0,0,1-1.121,3.4,5.6,5.6,0,0,1-3.274,1.784l-.485-.841a4.243,4.243,0,0,0,3.835-4.607,4.671,4.671,0,0,0-1.032-3.3A2.809,2.809,0,0,0,289.885,61.847Zm-1.053.109a3.075,3.075,0,0,0-1.292.4,4.459,4.459,0,0,0-1.06.93,5.252,5.252,0,0,0-1.148,3.582,4.6,4.6,0,0,0,.41,2.126q.328.615.752.615a.82.82,0,0,0,.622-.26,2.544,2.544,0,0,0,.444-.759A19.819,19.819,0,0,0,288.832,61.956Zm14.034,8.634a5.749,5.749,0,0,1-2.707.574,4.366,4.366,0,0,1-3.35-1.347,4.969,4.969,0,0,1-1.258-3.534,5.208,5.208,0,0,1,1.415-3.8,4.8,4.8,0,0,1,3.589-1.449,5.754,5.754,0,0,1,2.311.4V62.66a4.686,4.686,0,0,0-2.324-.588A3.566,3.566,0,0,0,297.8,63.2a4.249,4.249,0,0,0-1.049,3.015,4.043,4.043,0,0,0,.981,2.854,3.338,3.338,0,0,0,2.574,1.063,4.828,4.828,0,0,0,2.557-.656Zm8.928.342a2.161,2.161,0,0,1-1.046.219q-1.839,0-1.839-2.051V64.957h-1.2V64h1.2V62.291l1.121-.362V64h1.764v.957H310.03V68.9a1.635,1.635,0,0,0,.239,1,.955.955,0,0,0,.793.3,1.179,1.179,0,0,0,.731-.232Zm4.423.232a3.247,3.247,0,0,1-2.478-.981,3.633,3.633,0,0,1-.926-2.6,3.785,3.785,0,0,1,.964-2.755,3.465,3.465,0,0,1,2.6-.991,3.14,3.14,0,0,1,2.444.964,3.822,3.822,0,0,1,.878,2.673,3.761,3.761,0,0,1-.947,2.683A3.317,3.317,0,0,1,316.217,71.164Zm.082-6.385a2.132,2.132,0,0,0-1.709.735,3.018,3.018,0,0,0-.629,2.027A2.854,2.854,0,0,0,314.6,69.5a2.161,2.161,0,0,0,1.7.718,2.05,2.05,0,0,0,1.671-.7,3.055,3.055,0,0,0,.584-2,3.108,3.108,0,0,0-.584-2.023A2.04,2.04,0,0,0,316.3,64.779Zm15.853,5.811a5.749,5.749,0,0,1-2.707.574,4.366,4.366,0,0,1-3.35-1.347,4.969,4.969,0,0,1-1.258-3.534,5.208,5.208,0,0,1,1.415-3.8,4.8,4.8,0,0,1,3.589-1.449,5.754,5.754,0,0,1,2.311.4V62.66a4.686,4.686,0,0,0-2.324-.588,3.566,3.566,0,0,0-2.738,1.128,4.249,4.249,0,0,0-1.049,3.015,4.043,4.043,0,0,0,.981,2.854,3.338,3.338,0,0,0,2.574,1.063,4.828,4.828,0,0,0,2.557-.656ZM5.934,96.272q.9,1.3,1.682,2.687l-.923.588a27.864,27.864,0,0,0-4.648-6.453l.8-.588A26.844,26.844,0,0,1,5.3,95.391,22.9,22.9,0,0,0,8.3,89.676H.9v-.937h8.47l.362.485A31.431,31.431,0,0,1,5.934,96.272Zm5.448-4.86.9-.39a19.127,19.127,0,0,1,1.162,3.049l-.923.362A17.081,17.081,0,0,0,11.382,91.412Zm2.646-.6.882-.362a18.024,18.024,0,0,1,1.025,2.994l-.916.39A14.234,14.234,0,0,0,14.027,90.811ZM12.934,99a7.1,7.1,0,0,0,3.753-3.083A11.7,11.7,0,0,0,17.9,90.756l1.025.219a13.289,13.289,0,0,1-1.4,5.462,6.606,6.606,0,0,1-1.675,1.955,10.213,10.213,0,0,1-2.317,1.319Zm13.125-6.569h3.568v.93H26.059a7.264,7.264,0,0,1-1.094,4.259A6.643,6.643,0,0,1,22.2,99.574l-.7-.759a5.519,5.519,0,0,0,2.769-2.126,6.839,6.839,0,0,0,.7-3.329H20.638v-.93h4.341V89.915q-1.723.321-3.391.492l-.39-.9a29.534,29.534,0,0,0,7.041-1.422l.52.882a27.367,27.367,0,0,1-2.7.725Zm5.9-3.4a23.989,23.989,0,0,1,3.288,2.085l-.7.923a20.356,20.356,0,0,0-3.22-2.181Zm7.055.7,1.053.506a11.411,11.411,0,0,1-2.6,5.8,11.137,11.137,0,0,1-5.585,3.227l-.479-.95Q37.967,96.7,39.013,89.73Zm10.268-.52a13.808,13.808,0,0,0-.841-1.928l.718-.28a18.274,18.274,0,0,1,1.032,2.365l-.561.226.451.588a13.407,13.407,0,0,1-2.693,6.576,10.621,10.621,0,0,1-4.252,2.912l-.615-.752A9.7,9.7,0,0,0,47,95.6a12.582,12.582,0,0,0,1.969-5.462H45.028a13.127,13.127,0,0,1-2.577,4.026l-.8-.615a12.247,12.247,0,0,0,3.021-5.824l1.107.171q-.144.54-.4,1.313Zm.8-2.249.7-.253a11.566,11.566,0,0,1,1,2.3l-.731.294A13.487,13.487,0,0,0,50.08,86.962Zm10.233,2.8a13.225,13.225,0,0,1-1.367,5.927,8.91,8.91,0,0,1-5.113,3.9l-.588-.841A8.527,8.527,0,0,0,57.8,95.5a10.554,10.554,0,0,0,1.367-5.742H52.63v-.937h6.706a1.43,1.43,0,0,1-.1-.547,1.5,1.5,0,0,1,.513-1.162,1.53,1.53,0,0,1,1.053-.4,1.5,1.5,0,0,1,1.162.513,1.569,1.569,0,0,1-1.162,2.625A1.366,1.366,0,0,1,60.313,89.758Zm.492-2.447a.939.939,0,0,0-.725.314.954.954,0,0,0-.239.649.939.939,0,0,0,.314.725.923.923,0,0,0,.649.246.939.939,0,0,0,.725-.314.963.963,0,0,0,.239-.656.954.954,0,0,0-.964-.964Zm3.363,1.08h6.344v.937H64.169Zm-.854,2.98h7.909q-.157,4-1.955,5.961a8.381,8.381,0,0,1-4.3,2.27l-.506-.8A7.477,7.477,0,0,0,68.7,96.389a6.915,6.915,0,0,0,1.36-4.081H63.314Zm12.407,1.538v6.651h-1.08V87.816h1.08v4.061A21.8,21.8,0,0,1,81.054,94.1l-.533,1.012A17.7,17.7,0,0,0,75.722,92.909Zm6.911-4.088h7.711q-.041,5.011-1.8,7.506a9.622,9.622,0,0,1-4.7,3.261l-.588-.841A8.527,8.527,0,0,0,87.8,95.5a10.554,10.554,0,0,0,1.367-5.742H82.633Zm13.494,3.938H92.422v-.882h4.341l-.075-2.017h1.039l.068,2.017h2.153v.882H97.836l.253,6.645H97.036L96.9,95.11l.1-2.017-.431,1.06a12.34,12.34,0,0,1-3.951,4.341l-.67-.766A11.537,11.537,0,0,0,96.127,92.759Zm5.489.5h7.615V94.3h-7.615Zm16.762,3.835a33.151,33.151,0,0,0-1.736-3.691l.9-.4a43.916,43.916,0,0,1,2.741,6.009l-1.019.479q-.267-.82-.547-1.545-4.2.663-7.909,1.08l-.226-1.019q.28-.014.841-.075,1.688-4.881,2.939-9.782l1.08.28q-1.2,4.478-2.926,9.393Q115.575,97.537,118.378,97.093Zm10.117-5.25.718-.273a18.274,18.274,0,0,1,1.032,2.365l-.752.308A15.123,15.123,0,0,0,128.5,91.843Zm1.586-.472.7-.253a11.566,11.566,0,0,1,1,2.3l-.731.294A13.487,13.487,0,0,0,130.081,91.371Zm.39-2.632.027.964a5.312,5.312,0,0,0-2.311.629,5.934,5.934,0,0,0-2.071,1.962,4.817,4.817,0,0,0-.813,2.659,2.958,2.958,0,0,0,1.285,2.529,6.17,6.17,0,0,0,2.933,1l-.239,1a6.1,6.1,0,0,1-3.63-1.381,3.89,3.89,0,0,1-1.312-3.049,5.709,5.709,0,0,1,2.994-5.024l.759-.335-.014-.027-.656.109q-1.189.068-5.66.479l-.082-.923Q123.683,89.177,130.471,88.739Zm8.777,1.764q-.041,1.518,0,3.035a5.324,5.324,0,0,1,.308,1.777,3.687,3.687,0,0,1-1.306,3.069,7.744,7.744,0,0,1-3.274,1.271l-.588-.841a6.334,6.334,0,0,0,3.411-1.381,2.741,2.741,0,0,0,.807-1.88,1.856,1.856,0,0,1-1.8.882,2.2,2.2,0,0,1-1.531-.574,2.3,2.3,0,0,1,.123-3.356,2.469,2.469,0,0,1,1.559-.492,2,2,0,0,1,1.36.39q-.027-1.312-.027-1.873-2.249.034-5.435.239l-.014-.9q2.584-.1,5.435-.171V87.8l1,.014q0,.629-.027,1.859,2.324-.027,3.363-.027v.9Q140.93,90.5,139.248,90.5Zm-2.338,2.3a1.322,1.322,0,0,0-.984.4,1.413,1.413,0,0,0-.39,1.046,1.237,1.237,0,0,0,.444,1,1.288,1.288,0,0,0,.848.294,1.406,1.406,0,0,0,1.1-.41,1.3,1.3,0,0,0,.314-.916Q138.243,92.8,136.91,92.8Zm9.324,3.527a1.915,1.915,0,0,1,1.463.643,1.916,1.916,0,0,1-.144,2.748,1.936,1.936,0,0,1-1.319.5,1.9,1.9,0,0,1-1.463-.643,1.916,1.916,0,0,1,.144-2.748A1.936,1.936,0,0,1,146.234,96.327Zm0,.7a1.269,1.269,0,0,0-1.251,1.251,1.253,1.253,0,0,0,2.181.834,1.247,1.247,0,0,0-.93-2.085Z"
								transform="translate(-0.643 -2.832)" fill="#5a5858" />
						</svg>