<svg xmlns="http://www.w3.org/2000/svg" width="189.246" height="12.975"
								viewBox="0 0 189.246 12.975">
								<path id="Контур_1731" data-name="Контур 1731"
									d="M13.269-1.565A3.38,3.38,0,0,1,13-.239a1.687,1.687,0,0,1-.437.479,5.82,5.82,0,0,1-2.9.417A10.217,10.217,0,0,1,8.08.574,1.571,1.571,0,0,1,7.41.321a1.354,1.354,0,0,1-.4-1.135V-4.4q-.4.123-.69.232l-.205.075a.225.225,0,0,1-.068.014q-.075,0-.1-.109l-.137-.533A.158.158,0,0,1,5.8-4.771q0-.055.1-.075.4-.075,1.121-.28v-.711a11.047,11.047,0,0,0-.082-1.613,8.3,8.3,0,0,1,.827.075q.164.021.164.109a.724.724,0,0,1-.068.253A4.438,4.438,0,0,0,7.786-6v.649L9.208-5.77v-.615a10.811,10.811,0,0,0-.1-1.7A6.273,6.273,0,0,1,9.946-8q.157.021.157.137a1.462,1.462,0,0,1-.055.226A4.022,4.022,0,0,0,9.967-6.6V-6l1-.308q.7-.2,1.258-.4.342-.116.369-.123h.021q.075,0,.075.1l-.027.643A16.707,16.707,0,0,1,12.346-2.9a.857.857,0,0,1-.868.663q-.123.007-.273.007-.219,0-.479-.021-.123-.014-.15-.055a.572.572,0,0,1-.048-.2,1.437,1.437,0,0,0-.185-.567,3.639,3.639,0,0,0,.882.116.4.4,0,0,0,.438-.349A16.326,16.326,0,0,0,11.9-5.865l-1.935.588v1.887l.027,1.6a.1.1,0,0,1-.109.109H9.29a.1.1,0,0,1-.109-.109l.027-1.6V-5.052l-1.422.417v3.206a4.377,4.377,0,0,0,.048.813.406.406,0,0,0,.178.287,4.189,4.189,0,0,0,1.716.2,13.123,13.123,0,0,0,1.729-.075,1.232,1.232,0,0,0,.595-.219,1.052,1.052,0,0,0,.349-.622,6.746,6.746,0,0,0,.1-1.169,1.361,1.361,0,0,0,.547.28q.226.062.226.253Q13.275-1.641,13.269-1.565ZM6.077-8.538a.1.1,0,0,1-.116.116L4.409-8.456H3.192q-.027,1.285-.055,1.921H4.525l.868-.027a.109.109,0,0,1,.123.123q-.014.26-.027.779-.021.595-.027.9A22.077,22.077,0,0,1,5.154-.725,2.024,2.024,0,0,1,4.669.328a1.214,1.214,0,0,1-.861.287q-.431,0-.7-.014Q2.953.588,2.919.54A.694.694,0,0,1,2.871.308a1.711,1.711,0,0,0-.2-.615A5.739,5.739,0,0,0,3.726-.2a.535.535,0,0,0,.52-.294,3.454,3.454,0,0,0,.191-.813A33.648,33.648,0,0,0,4.7-5.79H3.11a18.5,18.5,0,0,1-.54,3.773A8.716,8.716,0,0,1,1.4.52q-.109.15-.157.15T1.08.547A1.806,1.806,0,0,0,.574.109,7.835,7.835,0,0,0,2.1-3.562a34.938,34.938,0,0,0,.308-4.895L.9-8.422q-.1,0-.1-.116v-.588a.085.085,0,0,1,.1-.1l1.565.027h.916v-.937a6.96,6.96,0,0,0-.1-1.442q.54.021.909.068.185.021.185.123a.864.864,0,0,1-.082.253,3.335,3.335,0,0,0-.089,1v.937h.226l1.538-.027q.116,0,.116.1Zm7.082-.191a.1.1,0,0,1-.109.109l-1.668-.027H7.4a10.351,10.351,0,0,1-1.23,1.764q-.116.144-.191.144t-.2-.157a1.274,1.274,0,0,0-.41-.294,8.668,8.668,0,0,0,2.092-3.473,4.21,4.21,0,0,0,.178-.943q.526.1.8.185.157.041.157.157a.332.332,0,0,1-.082.164,1.884,1.884,0,0,0-.267.574q-.26.7-.451,1.121h3.582l1.668-.027a.1.1,0,0,1,.109.109Zm10.083.937q0,.109-.116.109L21.67-7.711h-.417v6.05L21.28.759a.1.1,0,0,1-.109.109h-.649a.1.1,0,0,1-.109-.109l.027-2.406V-7.711H20l-1.47.027a.1.1,0,0,1-.109-.109v-.574q0-.116.109-.116L20-8.456h.438V-9.646a11.11,11.11,0,0,0-.1-1.8,8.722,8.722,0,0,1,.9.082q.171.027.171.116a.379.379,0,0,1-.027.123,1.265,1.265,0,0,0-.048.13,6.158,6.158,0,0,0-.082,1.34v1.2h.417l1.456-.027a.1.1,0,0,1,.116.116Zm4.115.841q0,.123-.116.123L26-6.856h-.068V-2.7l.014,2.194A1.172,1.172,0,0,1,25.56.52a2.85,2.85,0,0,1-1.367.212h-.308q-.219,0-.26-.048a.6.6,0,0,1-.082-.246,2.487,2.487,0,0,0-.219-.595,10.78,10.78,0,0,0,1.258.089q.52-.021.52-.574V-6.856h-.383l-1.244.027a.109.109,0,0,1-.123-.123v-.561q0-.116.123-.116l1.244.027H26l1.244-.027a.1.1,0,0,1,.116.116Zm-9.194-.984q0,.082-.13.164a1.094,1.094,0,0,0-.321.41A11.165,11.165,0,0,1,16.987-6.2V-.991l.027,1.8q0,.109-.116.109h-.643a.1.1,0,0,1-.109-.109l.027-1.8V-3.5q0-.123.041-1.723A14.386,14.386,0,0,1,15.107-4.1q-.109.109-.164.109-.075,0-.144-.15a1.759,1.759,0,0,0-.321-.506,10.411,10.411,0,0,0,2.577-3.192,3.284,3.284,0,0,0,.267-.684,5.289,5.289,0,0,1,.684.39Q18.163-8.025,18.163-7.937Zm.041-3.042q0,.1-.13.157a1.182,1.182,0,0,0-.349.335A12.765,12.765,0,0,1,15.251-7.9a.578.578,0,0,1-.2.109q-.062,0-.171-.2a1.73,1.73,0,0,0-.362-.472,9.155,9.155,0,0,0,2.5-2.5,2.091,2.091,0,0,0,.308-.629,4.717,4.717,0,0,1,.738.41Q18.2-11.074,18.2-10.979Zm1.442,5.223a.4.4,0,0,1-.068.185,1.426,1.426,0,0,0-.144.547,13.911,13.911,0,0,1-.882,3.493q-.055.171-.13.171a.565.565,0,0,1-.178-.068,1.67,1.67,0,0,0-.547-.164,11.343,11.343,0,0,0,.957-3.432q.027-.342.027-.636a2.832,2.832,0,0,0-.021-.362,6.191,6.191,0,0,1,.8.116Q19.646-5.872,19.646-5.756Zm4.04,3.486a.112.112,0,0,0,.007.027v.021q0,.075-.144.137l-.39.137a.66.66,0,0,1-.171.048q-.062,0-.068-.1a21.241,21.241,0,0,0-.8-3.726.29.29,0,0,1-.014-.068q0-.048.144-.1l.376-.13a.4.4,0,0,1,.1-.021q.055,0,.082.1A22.954,22.954,0,0,1,23.687-2.27Zm3.35-7.588q0,.116-.1.116l-1.094-.027h-.909l-1.094.027q-.109,0-.109-.116v-.588a.1.1,0,0,1,.109-.109l1.094.027h.909l1.094-.027q.1,0,.1.109Zm-3.767.267a.207.207,0,0,1,.021.075q0,.055-.1.123l-.28.178a.524.524,0,0,1-.171.089q-.041,0-.082-.089a6.68,6.68,0,0,0-.841-1.381.166.166,0,0,1-.041-.082q0-.041.109-.1l.308-.171a.445.445,0,0,1,.123-.041.114.114,0,0,1,.075.041A6.778,6.778,0,0,1,23.27-9.591ZM41.412-.021a2.4,2.4,0,0,0-.349.547q-.116.246-.205.246a.878.878,0,0,1-.171-.034A14.015,14.015,0,0,1,36.6-.943,10.684,10.684,0,0,1,32.443.827a1.477,1.477,0,0,1-.191.027q-.089,0-.205-.226a1.9,1.9,0,0,0-.335-.465A11.739,11.739,0,0,0,35.957-1.4,9.065,9.065,0,0,1,34.4-3.069a9.5,9.5,0,0,1-1.969,1.6,1.127,1.127,0,0,1-.2.1q-.062,0-.2-.2a1.749,1.749,0,0,0-.376-.362,8.027,8.027,0,0,0,2.967-2.632,2.314,2.314,0,0,0,.4-.854l-1.593.109a3.076,3.076,0,0,0-.711.1,1.187,1.187,0,0,1-.226.1q-.1,0-.171-.212-.062-.239-.137-.766.253.021.547.021.2,0,.349-.007.971-.027,1.5-.055l.772-.786a20.738,20.738,0,0,0-2.393-2.017Q32.9-8.976,32.9-9.01a.3.3,0,0,1,.068-.137l.28-.335q.068-.089.123-.089a.148.148,0,0,1,.075.034q.239.171.711.533a17.406,17.406,0,0,0,1.374-1.962,3.3,3.3,0,0,0,.308-.684,4.657,4.657,0,0,1,.745.349q.171.082.171.2,0,.089-.157.178a1.65,1.65,0,0,0-.362.41q-.889,1.251-1.518,1.969.608.506,1.162,1.039.937-1.039,1.853-2.27A2.413,2.413,0,0,0,38.1-10.4a5.478,5.478,0,0,1,.7.349q.171.1.171.212,0,.089-.157.164a3,3,0,0,0-.52.547,33.525,33.525,0,0,1-2.639,2.926q1.518-.082,3.6-.294-.383-.479-.841-.964-.048-.048-.048-.075t.13-.123l.308-.191a.338.338,0,0,1,.144-.068.112.112,0,0,1,.068.041A12.726,12.726,0,0,1,41.05-5.264a.161.161,0,0,1,.021.068q0,.062-.116.137l-.369.212a.464.464,0,0,1-.171.082q-.041,0-.075-.082-.424-.7-.649-1.039-1.818.219-4.628.465.506.13.7.2.157.055.157.164t-.13.157a1.865,1.865,0,0,0-.267.335q-.068.1-.185.294h2.83a.823.823,0,0,0,.294-.041.33.33,0,0,1,.144-.041q.109,0,.376.267.239.219.239.349a.21.21,0,0,1-.13.191,2.166,2.166,0,0,0-.321.355A10.237,10.237,0,0,1,37.2-1.436,12.865,12.865,0,0,0,41.412-.021ZM38.11-3.6H34.863a7.185,7.185,0,0,0,1.7,1.75A7.8,7.8,0,0,0,38.11-3.6Zm-5.64-4.423a.181.181,0,0,1-.1.157,1.007,1.007,0,0,0-.308.349q-.492.82-.889,1.36V-.937L31.2.868q0,.109-.116.109h-.656q-.1,0-.1-.109l.027-1.8V-3.445q0-.164.041-1.764A14.63,14.63,0,0,1,29.107-3.9a.426.426,0,0,1-.205.123q-.068,0-.171-.185A1.535,1.535,0,0,0,28.41-4.4,11.928,11.928,0,0,0,31.35-7.9a2.97,2.97,0,0,0,.28-.684,4.429,4.429,0,0,1,.7.376Q32.471-8.1,32.471-8.025Zm-.041-2.98q0,.089-.171.185a1.205,1.205,0,0,0-.335.349A13.028,13.028,0,0,1,29.388-7.95a.678.678,0,0,1-.226.109q-.062,0-.164-.185a1.46,1.46,0,0,0-.4-.431,9,9,0,0,0,2.646-2.522,2.14,2.14,0,0,0,.314-.629,3.944,3.944,0,0,1,.738.424Q32.43-11.1,32.43-11.006ZM43.572-2.522A14.948,14.948,0,0,1,45.213-.991,10.045,10.045,0,0,1,46.382.492l-.923.684a11.119,11.119,0,0,0-2.7-3.035ZM62.658-7.212a.1.1,0,0,1-.109.109L60.56-7.13H55.911L53.922-7.1a.1.1,0,0,1-.109-.109l.027-1.162V-9.687l-.027-1.148q0-.123.109-.123l1.989.027H60.56l1.989-.027q.109,0,.109.123l-.027,1.148v1.313Zm-.841-.561v-.95H54.653v.95Zm0-1.593v-.9H54.653v.9ZM64.538-5.64q0,.109-.116.109l-1.777-.027H57.873V-.786L57.9.909q0,.116-.109.116h-.6a.1.1,0,0,1-.116-.116L57.1-.643q-1.647.328-4.026.7a1.775,1.775,0,0,0-.506.13.621.621,0,0,1-.185.068q-.089,0-.137-.171a5.274,5.274,0,0,1-.2-.7q.759-.027,1.2-.089l.52-.055v-4.8l-1.654.027a.1.1,0,0,1-.109-.109v-.52a.1.1,0,0,1,.109-.109l1.777.027h8.75l1.777-.027q.116,0,.116.109ZM57.1-1.292V-2.2H54.544V-.868Q55.59-1.012,57.1-1.292Zm0-1.538V-3.9H54.544V-2.83Zm0-1.7V-5.558H54.544v1.032ZM64.456-.082A1.89,1.89,0,0,0,64.121.4Q64,.622,63.937.622a.811.811,0,0,1-.185-.048A8.98,8.98,0,0,1,61.188-.841,9.987,9.987,0,0,1,58.81.656.812.812,0,0,1,58.6.725q-.068,0-.185-.2A1.4,1.4,0,0,0,58.058.1a8.263,8.263,0,0,0,2.591-1.429,8.308,8.308,0,0,1-1.641-2.434l-.561.014q-.109,0-.109-.123v-.479a.1.1,0,0,1,.109-.109l1.511.027H62.48a.932.932,0,0,0,.212-.027.364.364,0,0,1,.164-.041q.1,0,.321.2.253.232.253.335a.225.225,0,0,1-.109.191,1.224,1.224,0,0,0-.308.465,7.792,7.792,0,0,1-1.292,1.941A8.748,8.748,0,0,0,64.456-.082Zm-2.03-3.7H59.794a6.5,6.5,0,0,0,1.381,1.948A7.566,7.566,0,0,0,62.426-3.78Zm15.251-.643q0,.109-.13.109l-1.62-.027H73.712l-1.641.027a.1.1,0,0,1-.109-.109l.027-1.162V-6.973l-.027-1.148a.1.1,0,0,1,.109-.109l1.641.027h2.215l1.62-.027q.13,0,.13.109l-.027,1.148v1.388Zm-.827-.643V-7.479H72.775v2.413Zm-5.3,3.138a1.77,1.77,0,0,0-.369.458q-.13.2-.164.2t-.171-.123a9.125,9.125,0,0,1-1.8-2.242A8.543,8.543,0,0,1,66.657.2a.49.49,0,0,1-.2.123q-.055,0-.178-.164a1.607,1.607,0,0,0-.465-.41,7.533,7.533,0,0,0,2.522-3.958,7.323,7.323,0,0,0,.191-1.053h-.779l-1.531.027a.1.1,0,0,1-.109-.109V-5.92a.1.1,0,0,1,.109-.109L67.751-6h.868q.089-1.025.109-2.673h-.991A9.975,9.975,0,0,1,66.794-7.1q-.123.171-.164.171-.062,0-.226-.144a1.279,1.279,0,0,0-.417-.239,8.728,8.728,0,0,0,1.688-3.4,5.335,5.335,0,0,0,.13-.8,7.475,7.475,0,0,1,.786.178q.137.041.137.144a.29.29,0,0,1-.1.185,1.487,1.487,0,0,0-.2.472q-.157.506-.376,1.107h1.675L71-9.447a.1.1,0,0,1,.109.109v.574q0,.116-.109.116l-1.265-.027h-.191q0,1.661-.089,2.673h.342l1.524-.027q.123,0,.123.109v.574q0,.109-.123.109l-1.524-.027h-.41q-.048.444-.1.677a9.527,9.527,0,0,0,1.06,1.579A7.619,7.619,0,0,0,71.545-1.928Zm7.1,2.167a.1.1,0,0,1-.109.109L76.638.321H72.974L71.08.349a.1.1,0,0,1-.109-.109V-.383q0-.1.109-.1l1.894.027h2.14A19.283,19.283,0,0,0,76.1-2.789a4.1,4.1,0,0,0,.212-.868,4.814,4.814,0,0,1,.841.267q.137.062.137.137a.254.254,0,0,1-.109.2,1.847,1.847,0,0,0-.321.588q-.383.923-.95,2.017h.725l1.894-.027q.109,0,.109.1ZM78.429-9.933a.1.1,0,0,1-.109.109L76.5-9.851H73.322L71.5-9.823a.1.1,0,0,1-.109-.109v-.608a.1.1,0,0,1,.109-.109l1.825.027H76.5l1.818-.027a.1.1,0,0,1,.109.109ZM74.047-1.456a.17.17,0,0,1,.021.075q0,.075-.144.123l-.437.15a.733.733,0,0,1-.178.048q-.048,0-.075-.089a9.3,9.3,0,0,0-.841-2.14.17.17,0,0,1-.027-.068q0-.048.157-.116l.4-.164a.262.262,0,0,1,.1-.034q.055,0,.1.089A10.871,10.871,0,0,1,74.047-1.456ZM84.246,0H83.125V-8.47a2.6,2.6,0,0,1-.379.3,6.184,6.184,0,0,1-.561.332q-.311.164-.656.308a4.769,4.769,0,0,1-.673.226V-8.442a6.518,6.518,0,0,0,.783-.277q.414-.174.813-.39t.755-.451a6,6,0,0,0,.615-.461h.424ZM97.487-5.934q-.014.232-.027.731-.014.479-.027.752A26.436,26.436,0,0,1,97.1-.923a2.075,2.075,0,0,1-.574,1.2A1.761,1.761,0,0,1,95.3.67q-.725,0-1.114-.041-.219-.014-.26-.062a.634.634,0,0,1-.082-.26,1.6,1.6,0,0,0-.28-.656,10.247,10.247,0,0,0,1.6.137.989.989,0,0,0,.772-.28,1.544,1.544,0,0,0,.308-.772,26.9,26.9,0,0,0,.308-3.985H93.427A6.808,6.808,0,0,1,89.216.841a.872.872,0,0,1-.2.068q-.075,0-.212-.212a1.52,1.52,0,0,0-.444-.458A6.058,6.058,0,0,0,92.545-5.25h-.629l-1.88.027a.1.1,0,0,1-.109-.109v-.622a.1.1,0,0,1,.109-.109l1.88.027h3.541l1.907-.027Q97.487-6.063,97.487-5.934Zm-4.512-4.819q0,.068-.109.157a.808.808,0,0,0-.253.308,13.916,13.916,0,0,1-2.037,3.11A14.7,14.7,0,0,1,88.2-5.065a.564.564,0,0,1-.212.123q-.075,0-.191-.185a1.6,1.6,0,0,0-.492-.458,11.291,11.291,0,0,0,2.81-2.427,10.521,10.521,0,0,0,1.559-2.461A3.377,3.377,0,0,0,91.9-11.3a4.943,4.943,0,0,1,.889.335Q92.976-10.883,92.976-10.753Zm7.41,4.983a2.01,2.01,0,0,0-.492.561q-.13.2-.164.2a.578.578,0,0,1-.2-.109,14.728,14.728,0,0,1-4.792-5.756.207.207,0,0,1-.021-.075q0-.034.15-.109l.417-.226a.43.43,0,0,1,.15-.055q.041,0,.075.1a12.071,12.071,0,0,0,2.167,3.288A11.7,11.7,0,0,0,100.386-5.77Zm8.155-1.388.718-.273a18.274,18.274,0,0,1,1.032,2.365l-.752.308A15.123,15.123,0,0,0,108.541-7.157Zm1.586-.472.7-.253a11.566,11.566,0,0,1,1,2.3l-.731.294A13.488,13.488,0,0,0,110.127-7.629Zm.39-2.632.027.964a5.312,5.312,0,0,0-2.311.629,5.934,5.934,0,0,0-2.071,1.962,4.817,4.817,0,0,0-.813,2.659,2.958,2.958,0,0,0,1.285,2.529,6.17,6.17,0,0,0,2.933,1l-.239,1A6.1,6.1,0,0,1,105.7-.9a3.89,3.89,0,0,1-1.312-3.049,5.709,5.709,0,0,1,2.994-5.024l.759-.335-.014-.027-.656.109q-1.189.068-5.66.479l-.082-.923Q103.729-9.823,110.517-10.261Zm8.565,9.7a.207.207,0,0,1,.021.075q0,.068-.157.15l-.383.164A.515.515,0,0,1,118.4-.1q-.041,0-.068-.089-.349-.807-.561-1.217a38.18,38.18,0,0,1-3.821,1.265,2.225,2.225,0,0,0-.506.2.714.714,0,0,1-.2.1q-.082,0-.15-.144a4.706,4.706,0,0,1-.28-.813,11.054,11.054,0,0,0,1.107-.2V-8.333l-.027-2.29q0-.116.123-.116l1.538.027h1.586l1.422-.027a.1.1,0,0,1,.116.116l-.027,1.477v2.775l.027,1.483q0,.109-.116.109l-1.422-.027h-2.406v3.616a20.6,20.6,0,0,0,2.666-.868,13.269,13.269,0,0,0-.779-1.251.133.133,0,0,1-.027-.068q0-.048.137-.123l.349-.171a.325.325,0,0,1,.13-.048.146.146,0,0,1,.1.062A16.044,16.044,0,0,1,119.082-.561Zm-1.23-4.956V-7.437h-3.117v1.921Zm0-2.618V-10h-3.117v1.866Zm6.774,5.154a1.958,1.958,0,0,1-.28,1.176,1.033,1.033,0,0,1-.567.362,4.412,4.412,0,0,1-1.039.089q-.144,0-.349-.007a.523.523,0,0,1-.253-.034.614.614,0,0,1-.075-.232,1.86,1.86,0,0,0-.246-.656,10.478,10.478,0,0,0,1.169.068.769.769,0,0,0,.622-.2,1.05,1.05,0,0,0,.15-.656V-9.9h-2.892v8.306l.027,2.475q0,.1-.116.1h-.67q-.109,0-.109-.1l.027-2.646V-7.923L120-10.6q0-.116.109-.116l1.442.027h1.538l1.422-.027a.1.1,0,0,1,.116.116L124.6-8.5v3.609Zm13.72-.69s-.023.089-.068.253a6,6,0,0,0-.089,1.319V-.451l.027,1.2q0,.109-.1.109h-.67q-.116,0-.116-.109V-.027h-8.518V.786q0,.109-.116.109h-.663a.1.1,0,0,1-.109-.109l.027-1.148V-2.044a11.342,11.342,0,0,0-.1-1.736,8.05,8.05,0,0,1,.937.082q.185.027.185.13a.371.371,0,0,1-.027.116.923.923,0,0,0-.041.123,4.887,4.887,0,0,0-.1,1.258V-.827h3.691V-5.585H129.22v.7q0,.116-.109.116h-.663q-.109,0-.109-.116l.027-1.244V-8.039a11.633,11.633,0,0,0-.1-1.75,7.361,7.361,0,0,1,.937.089q.15.021.15.123a.768.768,0,0,1-.055.253,5.49,5.49,0,0,0-.082,1.271v1.682h3.288v-3.4a11.848,11.848,0,0,0-.1-1.791,7.839,7.839,0,0,1,.964.089q.171.021.171.109a.371.371,0,0,1-.027.116.691.691,0,0,0-.041.137,6.051,6.051,0,0,0-.089,1.326v3.418h3.555v-1.75a11.633,11.633,0,0,0-.1-1.75,9.311,9.311,0,0,1,.937.082q.164.027.164.13a1.742,1.742,0,0,1-.068.239,6.8,6.8,0,0,0-.082,1.326V-6.2l.027,1.285q0,.116-.109.116h-.663q-.109,0-.109-.116v-.67H133.39V-.827h3.944v-1.3a11.425,11.425,0,0,0-.1-1.736,8.239,8.239,0,0,1,.937.082Q138.346-3.753,138.346-3.671ZM152.852.349q0,.109-.116.109L150.849.431h-7.588l-1.894.027a.1.1,0,0,1-.109-.109V-.26a.1.1,0,0,1,.109-.109l1.894.027h3.261V-4h-2.789l-1.928.027q-.116,0-.116-.109v-.595q0-.109.116-.109l1.928.027h2.789v-1.75h-.854l-1.75.014q-.109,0-.109-.1v-.588a.1.1,0,0,1,.109-.109l1.75.027h2.755l1.771-.027a.1.1,0,0,1,.109.109V-6.6q0,.1-.109.1l-1.771-.014H147.39v1.75h3.035l1.935-.027a.1.1,0,0,1,.109.109v.595a.182.182,0,0,1-.014.1.182.182,0,0,1-.1.014L150.425-4H147.39V-.342h3.459l1.887-.027q.116,0,.116.109ZM153.72-7a1.6,1.6,0,0,0-.41.547q-.116.212-.185.212a1.127,1.127,0,0,1-.219-.068,13.179,13.179,0,0,1-5.913-4.3,14.409,14.409,0,0,1-5.708,4.437.7.7,0,0,1-.2.062q-.068,0-.191-.191a1.314,1.314,0,0,0-.451-.431,13.147,13.147,0,0,0,5.77-4.286,3.042,3.042,0,0,0,.4-.779,4.172,4.172,0,0,1,.9.191q.2.068.2.185,0,.068-.1.123a.378.378,0,0,0-.13.089,11.238,11.238,0,0,0,3.049,2.769A15.984,15.984,0,0,0,153.72-7Zm-2.762,3.992q0,.068-.137.178a1.049,1.049,0,0,0-.226.342,13.261,13.261,0,0,1-1,1.675q-.116.144-.164.144a.433.433,0,0,1-.2-.1,1.184,1.184,0,0,0-.472-.226,9.909,9.909,0,0,0,1.1-1.88,3.2,3.2,0,0,0,.212-.615,4.029,4.029,0,0,1,.711.294Q150.958-3.09,150.958-3.008ZM145.024-1.36a.268.268,0,0,1,.021.089q0,.062-.137.123l-.431.212a.832.832,0,0,1-.185.075q-.041,0-.068-.089a8.837,8.837,0,0,0-1-2,.133.133,0,0,1-.027-.068q0-.048.157-.13l.376-.164a.631.631,0,0,1,.157-.062q.048,0,.1.075A9.842,9.842,0,0,1,145.024-1.36ZM161.93-2.3a.1.1,0,0,1-.116.116h-.629q-.123,0-.123-.116V-2.98h-3.377V-1.9q0,.109-.116.109h-.643a.1.1,0,0,1-.109-.109l.027-2.6V-5.879l-.027-1.764a.1.1,0,0,1,.109-.109l1.511.027H160.3l1.511-.027q.116,0,.116.109L161.9-6.187v1.415Zm-.868-1.47V-6.938h-3.377v3.172Zm6.084-6.187a.1.1,0,0,1-.109.109l-.2-.007q-.588-.014-1.381-.021v6.638l.027,2.6a1.216,1.216,0,0,1-.4,1.066,3.469,3.469,0,0,1-1.757.273q-.26,0-.608-.007a.465.465,0,0,1-.26-.041.838.838,0,0,1-.089-.239,2.106,2.106,0,0,0-.28-.649,16.632,16.632,0,0,0,1.682.075,1.117,1.117,0,0,0,.622-.116.517.517,0,0,0,.15-.431V-9.871h-7.574l-1.839.027a.1.1,0,0,1-.109-.109v-.656q0-.116.109-.116l1.839.027h8.23l1.832-.027q.109,0,.109.116Zm7.28,9.536a1.126,1.126,0,0,1-.28.909A2.711,2.711,0,0,1,172.7.745a.447.447,0,0,1-.26-.048.607.607,0,0,1-.089-.232,2.256,2.256,0,0,0-.226-.533A7.219,7.219,0,0,0,173-.014a.692.692,0,0,0,.506-.144.577.577,0,0,0,.123-.417V-2.153h-2.967V-.978l.027,1.736a.1.1,0,0,1-.109.109h-.608a.1.1,0,0,1-.109-.109l.027-1.723V-5l-.027-1.743a.1.1,0,0,1,.109-.109l1.415.027h1.531l1.415-.027q.1,0,.1.109l-.014,1.832v2.652Zm-.8-2.406V-4.177h-2.967v1.354Zm0-2.023V-6.132h-2.967v1.285Zm7.588,3.739a2.034,2.034,0,0,1-.588,1.347,3.856,3.856,0,0,1-2.187.431,6.037,6.037,0,0,1-2.1-.226,1.008,1.008,0,0,1-.52-1.032V-3.835a8.578,8.578,0,0,0-.082-1.415,8.469,8.469,0,0,1,.9.082q.171.021.171.13a.9.9,0,0,1-.089.253,3.684,3.684,0,0,0-.068.937v.9a14.974,14.974,0,0,0,2.673-1.2,2.98,2.98,0,0,0,.745-.561,4.509,4.509,0,0,1,.574.506.306.306,0,0,1,.109.205q0,.116-.185.144a2.332,2.332,0,0,0-.629.267,21.705,21.705,0,0,1-3.288,1.415V-.854a.636.636,0,0,0,.362.643,5.2,5.2,0,0,0,1.456.123A2.747,2.747,0,0,0,180.079-.4a.933.933,0,0,0,.28-.52,7.039,7.039,0,0,0,.082-.848,3.35,3.35,0,0,0,.574.308q.219.089.219.185A1.473,1.473,0,0,1,181.214-1.107Zm-.1-6.467a2.867,2.867,0,0,1-.2.889,1.218,1.218,0,0,1-.335.431,4.315,4.315,0,0,1-2.29.376A7.066,7.066,0,0,1,176.3-6.05a.683.683,0,0,1-.4-.308,1.248,1.248,0,0,1-.109-.588v-3.09a8.849,8.849,0,0,0-.082-1.429q.451.021.875.082.185.021.185.123a.631.631,0,0,1-.082.239,3.72,3.72,0,0,0-.068.95v1.012a14.985,14.985,0,0,0,2.536-1.121,2.716,2.716,0,0,0,.738-.561,5.568,5.568,0,0,1,.588.547.264.264,0,0,1,.1.171q0,.109-.185.137a3.844,3.844,0,0,0-.615.267,26.047,26.047,0,0,1-3.158,1.333v.991a.8.8,0,0,0,.075.41.485.485,0,0,0,.273.164,6.681,6.681,0,0,0,1.36.082,3.1,3.1,0,0,0,1.723-.28,2.285,2.285,0,0,0,.308-1.312,2.749,2.749,0,0,0,.547.308q.219.1.219.226A.823.823,0,0,1,181.111-7.574Zm-5.934-.362a.215.215,0,0,1,.021.082q0,.062-.116.144l-.355.2a.407.407,0,0,1-.164.068q-.048,0-.1-.1a7.709,7.709,0,0,0-.349-.718q-1.88.328-4.252.6a1.482,1.482,0,0,0-.588.157.283.283,0,0,1-.171.055q-.082,0-.137-.171a6.238,6.238,0,0,1-.171-.807q.868,0,1.217-.034a16.353,16.353,0,0,0,1.053-2.181,5.678,5.678,0,0,0,.267-.95,3.774,3.774,0,0,1,.779.205q.2.082.2.185a.315.315,0,0,1-.137.226.962.962,0,0,0-.239.362q-.554,1.183-1.066,2.071,1.668-.164,2.871-.349a10,10,0,0,0-.718-.978.133.133,0,0,1-.027-.068q0-.055.13-.13l.294-.171a.238.238,0,0,1,.116-.041.132.132,0,0,1,.1.055A11.015,11.015,0,0,1,175.178-7.937Zm14.629-2.9-.321,7.978h-.9l-.267-7.978Zm.014,9.577v1.5H188.3v-1.5Z"
									transform="translate(-0.574 11.799)" fill="#fff" />
							</svg>

