<svg xmlns="http://www.w3.org/2000/svg" xmlns:xlink="http://www.w3.org/1999/xlink" width="178" height="216" viewBox="0 0 178 216">
  <defs>
    <clipPath id="clip-path">
      <rect id="Прямоугольник_18" data-name="Прямоугольник 18" width="178" height="196" fill="none"/>
    </clipPath>
    <clipPath id="clip-path-2">
      <rect id="Прямоугольник_20" data-name="Прямоугольник 20" width="113.572" height="31.63" transform="translate(0 0)" fill="none"/>
    </clipPath>
    <clipPath id="clip-path-3">
      <rect id="Прямоугольник_26" data-name="Прямоугольник 26" width="146.574" height="115.644" fill="none"/>
    </clipPath>
  </defs>
  <g id="Сгруппировать_370" data-name="Сгруппировать 370" transform="translate(-20 -96)">
    <g id="Сгруппировать_31" data-name="Сгруппировать 31" transform="translate(20 116)">
      <g id="Сгруппировать_30" data-name="Сгруппировать 30" clip-path="url(#clip-path)">
        <path id="Контур_30" data-name="Контур 30" d="M178.006,87.859a57.118,57.118,0,0,0-57.155-57.082h-2.938c-3.137.357-11.837-6.058-19.331-14.256,0,0-15.1-16.521-37.427-16.521A57.119,57.119,0,0,0,4,57.082C4,77.975,17.783,91.853,17.783,91.853c7.827,7.882,11.9,21.206,9.042,29.608v8.482A57.119,57.119,0,0,0,83.98,187.025c27.538,0,45.224-28.239,45.224-28.239,5.894-9.412,17.951-22.616,26.795-29.342,0,0,22.007-16.741,22.007-41.585" transform="translate(-0.006)" fill="#ffedb0"/>
        <path id="Контур_31" data-name="Контур 31" d="M119.077,38.871c-.351-.006-.7-.01-1.055-.01h-2.938a7.417,7.417,0,0,1-3.768-1.169" transform="translate(-0.172 -0.106)" fill="none" stroke="#fdaab3" stroke-linecap="round" stroke-linejoin="round" stroke-width="2"/>
        <path id="Контур_32" data-name="Контур 32" d="M104.5,33a86.57,86.57,0,0,1-8.914-8.48S80.479,8,58.155,8A57.119,57.119,0,0,0,1,65.082C1,85.975,14.783,99.853,14.783,99.853a36.159,36.159,0,0,1,9.885,21.671" transform="translate(-0.002 -0.023)" fill="none" stroke="#fdaab3" stroke-linecap="round" stroke-linejoin="round" stroke-width="2" stroke-dasharray="8.115 8.115"/>
        <path id="Контур_33" data-name="Контур 33" d="M24.672,125.9a17.377,17.377,0,0,1-.811,3.9v3.984" transform="translate(-0.037 -0.355)" fill="none" stroke="#fdaab3" stroke-linecap="round" stroke-linejoin="round" stroke-width="2"/>
        <path id="Контур_34" data-name="Контур 34" d="M23.964,141.5a57.127,57.127,0,0,0,57.051,53.616c27.539,0,45.225-28.239,45.225-28.239,5.894-9.412,17.951-22.616,26.795-29.342,0,0,22.007-16.741,22.007-41.585a57.115,57.115,0,0,0-52.113-56.862" transform="translate(-0.037 -0.11)" fill="none" stroke="#fdaab3" stroke-linecap="round" stroke-linejoin="round" stroke-width="2" stroke-dasharray="7.986 7.986"/>
      </g>
    </g>
    <g id="Сгруппировать_35" data-name="Сгруппировать 35" transform="translate(27 96)">
      <g id="Сгруппировать_34" data-name="Сгруппировать 34" clip-path="url(#clip-path-2)">
        <path id="Контур_36" data-name="Контур 36" d="M1.756,27.243,0,25.757s2.787-3.036,3.156-3.421L.326,19.72,2.453,17.8l2.486,3.028s2.849-2.939,5.2-5.244l1.432,4.5A15.773,15.773,0,0,0,9.6,18.835,47.01,47.01,0,0,1,6.43,22.5l2.718,2.973a10.021,10.021,0,0,0,2.242-2.109c.363-.534.682-1,.38-1.676l2.7,1.761a11.877,11.877,0,0,1-4.05,4.386,2.026,2.026,0,0,1-2.694-.2c-1.7-1.793-2.159-2.3-3.243-3.5,0,0-2.118,2.559-2.723,3.107" fill="#fb7180"/>
        <path id="Контур_37" data-name="Контур 37" d="M18.062,6.9l1.17,2c-2.281,1.444-3.618,2.358-5.784,3.735L12.187,10.29s5-2.813,5.875-3.391m2.229,6.6s-5.836,3.72-6.445,4.186l-1.383-2.141s5.935-3.514,9.32-5.4c2.213,3.9,1.967,7.432-1.228,10.511.833-3.393.417-5.835-.264-7.153" fill="#fb7180"/>
        <path id="Контур_38" data-name="Контур 38" d="M29.191,8.419c.315,1.056.659,2.341,1.04,3.614,1.584.062,4.48-1.457,5.241-2.16l-.529-1.7s2.341,2.393,3.429,3.317c-3.159,2.033-7.639,3.491-10.083,2.476,0,0-2.218-7.623-2.633-8.748l2.447-.77s.466,1.763.986,3.571A14.555,14.555,0,0,0,32.534,3.02l2.44,2.264a11.339,11.339,0,0,1-5.783,3.135m7.8-6.352a1.413,1.413,0,0,1-1.723,1.466,1.378,1.378,0,0,1-1.131-1.665A1.442,1.442,0,0,1,35.784.761a1.366,1.366,0,0,1,1.2,1.306M35.65,1.574a.527.527,0,0,0-.619.383.593.593,0,0,0,.507.7.533.533,0,0,0,.527-.692.539.539,0,0,0-.415-.392" fill="#fb7180"/>
        <path id="Контур_39" data-name="Контур 39" d="M46.633,2.778c-4.938.6-4.938.6-5.925.643,0,0-.072-1.727-.218-2.5,0,0,8.859-.537,9.367-.653a13.409,13.409,0,0,1-2.169,6.4s2.918,2.979,4.66,2.812l-1.6,2.671a40.9,40.9,0,0,1-4.334-3.624c-.583,1.07-3.237,2.683-6.2,3.185,3.843-3.183,6.021-6.62,6.42-8.936" fill="#fb7180"/>
        <path id="Контур_40" data-name="Контур 40" d="M63.9,8.991a32.946,32.946,0,0,1-4.513-2.655l-.06,5.533s-1.8-.107-2.618-.147c0,0,.36-5.841.7-11.722l2.374.058,0,4.262c2.57,1.134,3.6,1.469,5.654,2.254Z" fill="#fb7180"/>
        <path id="Контур_41" data-name="Контур 41" d="M81.06,13.841l-1.348-2.055a9.707,9.707,0,0,0,3.2-1.972l1.262,1.646a27.4,27.4,0,0,1-3.112,2.381m9.887,7.254a14.883,14.883,0,0,1-7.366-3.339l1.495-2.735a5.165,5.165,0,0,1-2.252-.985,9.092,9.092,0,0,0,2.928-.269s1.731-3.513,2.119-4.254L89.789,10.6l-1.745,2.884a12.865,12.865,0,0,0,4.677-2.464l1.13,1.9a14.921,14.921,0,0,1-6.885,2.338l-.926,1.853a16.766,16.766,0,0,0,3.816,1.846l.6-1.229s.295,2.47.49,3.366M92.11,9.608l-1.91-.57s.484-1.377.6-1.808l1.844.535s-.47,1.513-.536,1.843m2.871,5.212-.086,1.886a11.466,11.466,0,0,1-1.971-.045,20.23,20.23,0,0,0,.6-2.174Z" fill="#fb7180"/>
        <path id="Контур_42" data-name="Контур 42" d="M98.37,21.891l-.769-.558c-1.916,2.917-3.872,3.188-5.887,1.693a11.269,11.269,0,0,1-1.235-1.192c2.942.87,4.869.7,6.143-1.468a15.98,15.98,0,0,1-1.449-1.047l5.2-6.589c.887.747,5.368,4.237,6.252,5.08,0,0-4.616,6.061-4.967,6.413A22.737,22.737,0,0,1,99.737,22.7a3.658,3.658,0,0,0-1.028,2.527c.154,1.309,1.791,2.116,3.02,2.337l-2.036,2c-1.513-.783-3.416-2.939-2.9-5.123a5.84,5.84,0,0,1,1.579-2.553m1.692-.333.481-.855-1.577-1.221-.7.7a17.2,17.2,0,0,0,1.8,1.372m-.526-3.32c.624.589,1.9,1.575,1.9,1.575l.511-.831-1.759-1.389Zm1.41-1.694c.809.662,2,1.456,2,1.456l.778-1.08-1.9-1.453Z" fill="#fb7180"/>
        <path id="Контур_43" data-name="Контур 43" d="M68.631,10.188l-.91,2.692-.827-.3s.736-1.8,1.042-2.545a2.289,2.289,0,0,1-2.153.178,5.645,5.645,0,0,0,2.74-1.839l.088-.226-.992-.155.4-1.1,1.111.511L69.4,6.2l1.027.335L69.94,7.689l.877.441-.4.93s-.586-.256-.836-.4l-.279.646c-.138.288.126.878.607,1.127-.3.19-.979.442-1.276-.244m.321,2.149a4.186,4.186,0,0,0,1.656.242,3.308,3.308,0,0,1-1.318,1.028Zm2.056-.83-.58.6a6.459,6.459,0,0,0-.55-.7l.6-.462Zm1.743.05s-1.12,2.952-1.392,3.52c0,0-.348-1-.693-1.718a3.179,3.179,0,0,0,.5.292s.832-2.072.965-2.41a9.118,9.118,0,0,1-1.565-.5l.289-.88,1.473.582.141-.358s-.685-.27-1.157-.422l.375-.858s1.01.436,1.141.464l.187-.412s-.874-.451-1.335-.634l.214-.72s3.21,1.128,3.5,1.221l-.4.81s-1.087-.394-1.23-.45l-.1.3,1.132.46-.236.745s-1.118-.345-1.189-.374l-.205.428s1.033.349,1.578.528l-.393.933s-1.256-.413-1.6-.551m.381,1.878s.423.818.86.967l-1.015.652a4.52,4.52,0,0,1-.52-1.318Zm.3-6.011-.9.01s-.006-.642-.043-.905l.965-.02Zm.863,4.967-.069,1.191a2.433,2.433,0,0,1-1.311-.873,3.307,3.307,0,0,0,1.38-.318m1.275-5.139.341,1.082a6.089,6.089,0,0,1-1.568-.313,4.986,4.986,0,0,0,1.227-.769" fill="#fb7180"/>
        <path id="Контур_44" data-name="Контур 44" d="M113.572,24.878a4.149,4.149,0,0,0-.224,1.929,8.434,8.434,0,0,1-.078,2.619,2.637,2.637,0,0,1-.7,1.4,2.9,2.9,0,0,1-1.7.678,5.894,5.894,0,0,1-1.808-.148l.043-.294c.113-.005.2,0,.252,0a4.831,4.831,0,0,0,1.625-.1,2.215,2.215,0,0,0,.987-.526c.589-.556.632-1.691.16-3.858l-4.615,4.352c-.519.488-.58.529-.93.623a2.519,2.519,0,0,1-2.373-.677,1.316,1.316,0,0,1-.437-1.054,1.2,1.2,0,0,1,.37-.771,1.6,1.6,0,0,1,1.629-.256,2.8,2.8,0,0,1,.963.575,4.034,4.034,0,0,1,.426.56.92.92,0,0,1,.179.387l6.017-5.673Z" fill="#fb7180"/>
      </g>
    </g>
    <g id="Сгруппировать_43" data-name="Сгруппировать 43" transform="translate(41.926 156.455)">
      <g id="Сгруппировать_42" data-name="Сгруппировать 42" clip-path="url(#clip-path-3)">
        <path id="Контур_1748" data-name="Контур 1748" d="M20.919-17.91a6.117,6.117,0,0,1,1.476-.795,1.441,1.441,0,0,1,.4-.057,2.571,2.571,0,0,1,1.533.681,14.267,14.267,0,0,1,1.036,1.575,4.7,4.7,0,0,1,.27,2.4,2.769,2.769,0,0,1-.823,1.675q-.511.6-1.036,1.22A6.868,6.868,0,0,1,22.593-10.1a3.215,3.215,0,0,1-1.433.624,2.279,2.279,0,0,1-1.533-.255,2.13,2.13,0,0,1-1.008-1.192,5.352,5.352,0,0,1-.568-2.611,5.923,5.923,0,0,1,.681-2.526,15.364,15.364,0,0,0,.511-1.589q.255-.6.681-.653A1.382,1.382,0,0,1,20.919-17.91ZM19.9-13.454a5.27,5.27,0,0,0,.057,1.277q.114.852.88.738a6.146,6.146,0,0,0,1.206-.582,5.032,5.032,0,0,0,1.6-1.746,2.367,2.367,0,0,0,.341-2.384q-.341-.653-.7-.752a1.643,1.643,0,0,0-1.036.213q-.624.511-1.22,1.022A2.51,2.51,0,0,0,19.9-13.454ZM8.288.085A.744.744,0,0,1,7.422.1a.979.979,0,0,1-.412-.624,1.126,1.126,0,0,1,.142-.724Q8.487-3.151,9.778-4.8T12.29-7.933a20.608,20.608,0,0,0,1.8-2.484,7.837,7.837,0,0,0,.781-1.675,11.9,11.9,0,0,0-2.214-.1,15.374,15.374,0,0,0-3.122.483A19.646,19.646,0,0,0,6.3-10.63,15.144,15.144,0,0,0,3.491-9a1.184,1.184,0,0,1-.837-.27,1.687,1.687,0,0,1-.6-.61.978.978,0,0,1-.014-.681,9.757,9.757,0,0,1,2.994-1.689,31.887,31.887,0,0,1,3.8-1.135,27.179,27.179,0,0,1,4.726-.61,3.651,3.651,0,0,1,1.76.213A2.2,2.2,0,0,1,16.6-12.574a1.76,1.76,0,0,1,.142,1.476q-.17.284-.795,1.419A8.452,8.452,0,0,1,14.76-7.947q-.568.6-1.973,2.356t-2.044,2.6Q10.1-2.157,9.579-1.4T8.856-.355A1.16,1.16,0,0,1,8.288.085Zm32.13-8.4a4.361,4.361,0,0,0-1.348-.412,10.551,10.551,0,0,0-2.9.227,14.719,14.719,0,0,0-3.434.951,12.98,12.98,0,0,0-1.8.908,4.15,4.15,0,0,1-.511.241.657.657,0,0,1-.568-.071,2.453,2.453,0,0,1-.738-1.192.643.643,0,0,1,.156-.4,1.435,1.435,0,0,1,.326-.312,20.549,20.549,0,0,1,3.8-1.32,22.98,22.98,0,0,1,5.279-.809,5.132,5.132,0,0,1,1.632.27,3,3,0,0,1,1.348.894,2.785,2.785,0,0,1,.553.795,1.541,1.541,0,0,1,.142.908,2.419,2.419,0,0,1-.355.908,19.551,19.551,0,0,1-2.3,2.98q-1.476,1.618-2.739,2.9a20.387,20.387,0,0,0-1.888,2.129,4.526,4.526,0,0,1-.483.511q-.17.142-.71-.085a1.676,1.676,0,0,1-.738-.738q-.114-.341.454-1.05,2.838-2.98,4.513-4.868t1.987-2.342A1.762,1.762,0,0,0,40.418-8.316Zm.369-7.1q-.312.227-.454.326t-.71-.071a2.447,2.447,0,0,0-1.5-.227q-1.022.085-2.1.241t-2.214.369a15.86,15.86,0,0,0-2.214.582,1.35,1.35,0,0,1-1.022-.184,1.266,1.266,0,0,1-.6-.866.6.6,0,0,1,.213-.568.949.949,0,0,1,.553-.284q1.362-.369,3.065-.653t3.207-.426q.937-.085,1.7-.085.454,0,.852.028a1.143,1.143,0,0,1,.951.624A2.628,2.628,0,0,1,40.787-15.412ZM60.145-17q.653.057.766.241t.3.539q.184.355-.213.894a8.672,8.672,0,0,0-1.448,1.064q-.908.781-2.81,2.711a1.8,1.8,0,0,1,.553.639,5.77,5.77,0,0,1,0,1.817q-.128,1.519-.426,3.846t-.44,3.874a4.907,4.907,0,0,0,.142,2.2Q56.8,1.731,56.2,2a1.041,1.041,0,0,1-1.192-.27A5.467,5.467,0,0,1,54.582.341a12.8,12.8,0,0,1,.085-2.81q.426-3.8.61-5.478t.27-2.214q-1.589,1.476-2.711,2.654A27.775,27.775,0,0,0,50.92-5.294q-.795,1.036-1.107,1.377a2.348,2.348,0,0,0-.355.483,3.494,3.494,0,0,0-.213.738q0,.738-.766.738a1.083,1.083,0,0,1-.937-.568,1.606,1.606,0,0,1,.014-1.206,10.43,10.43,0,0,1,1.561-2.427q1.32-1.7,2.994-3.477t3.378-3.52q1.7-1.746,2.782-2.654A6.522,6.522,0,0,1,60.145-17ZM81.887-.284A1.262,1.262,0,0,1,80.979-.5a1.712,1.712,0,0,1-.568-.752Q78.992-3.6,77.487-6.06T75-9.906q-.979-1.391-1.206-1.76a15.6,15.6,0,0,0-1.206,1.377A25.854,25.854,0,0,0,70.7-7.564,32.083,32.083,0,0,0,68.66-3.548a2.3,2.3,0,0,1-.241.639.942.942,0,0,1-.639.383,1.148,1.148,0,0,1-.922-.341q-.44-.4-.326-.766a21.2,21.2,0,0,1,1.334-2.753q1.079-1.987,2.171-3.661a25.447,25.447,0,0,1,2.455-3.179,1.429,1.429,0,0,1,.412-.454.821.821,0,0,1,.61-.156,3.088,3.088,0,0,1,.88.3,11.213,11.213,0,0,1,1.377,1.675L77.2-9.807q.681.979,1.845,2.952t2.668,4.414a2.8,2.8,0,0,1,.44,1.064A1.438,1.438,0,0,1,81.887-.284Zm-1.76-11.581q-.624-.17-.951-.3T78.5-13.184q-.355-.894-.624-1.774t-.553-2.015a1.236,1.236,0,0,1,.085-.852,3.121,3.121,0,0,1,.922-.028,1.616,1.616,0,0,1,.781.44,1.2,1.2,0,0,1,.426.922,14.976,14.976,0,0,0,.4,2.1,5.243,5.243,0,0,0,.412,1.107q.184.312.383.681A7.8,7.8,0,0,1,80.127-11.864Zm2.044-7.011a1.942,1.942,0,0,1,.766-.17,1.866,1.866,0,0,1,.454.057.982.982,0,0,1,.71.88q.085,1.079.071,2.186a10.116,10.116,0,0,1-.3,2.271,1.54,1.54,0,0,1-.866-.057.912.912,0,0,1-.412-.7,10.678,10.678,0,0,1-.17-1.178Q82.256-17.2,82.171-18.875ZM100.9-9.849a3.014,3.014,0,0,1,.61.61.521.521,0,0,1,.057.5q-.1.255-.752.454-.88.028-5.407.653t-5.066.653a2.5,2.5,0,0,0-.993.454,1.507,1.507,0,0,1-.71.213.7.7,0,0,1-.6-.255,3.042,3.042,0,0,1-.369-.539,4.688,4.688,0,0,1-.255-.582.942.942,0,0,1,.454-.993,4.6,4.6,0,0,1,1.079-.326q.568-.1,4.428-.412t5.081-.426q1.05-.085,1.5-.085h.142Q100.535-9.906,100.9-9.849Zm11.978-7.692q-.142,1.306-.383,2.782t-.44,2.938q-.2,1.462-.312,2.171a4.6,4.6,0,0,0,1.164.17q1.646-.028,3.094-.114t2.725-.057q.823.227.866.582a3.585,3.585,0,0,1-.043.922,15.872,15.872,0,0,1-2.668.369l-2.654.184q-1.008.071-1.4.128a3.081,3.081,0,0,1-1.249-.227,8.124,8.124,0,0,0-.412,2.143q-.1,1.291-.142,2.867a32.911,32.911,0,0,0,.085,3.307,21.95,21.95,0,0,0,.383,2.924,1.833,1.833,0,0,1-1.5-.114A1.746,1.746,0,0,1,109.5,2.4q-.114-.7-.213-2.64a47.644,47.644,0,0,1,.227-5.847q.326-3.9.752-6.684t.568-3.718a17.224,17.224,0,0,0,.17-2.157q.057-.539.426-.539a1.722,1.722,0,0,1,.937.5A1.236,1.236,0,0,1,112.882-17.541Zm19.528,3.236,1.135-.057a3.967,3.967,0,0,1,.993.1,1.269,1.269,0,0,1,.639.412q.27.312.17.525a5.414,5.414,0,0,1-.412.667,10.309,10.309,0,0,0-1.547.128q-.837.128-1.632.326a12.858,12.858,0,0,0-.681,2.044q-.2.88-.511,2.271l1.76-.312q.738-.114,2.242-.2a.859.859,0,0,1,.4.781.894.894,0,0,1-.341.624,2.836,2.836,0,0,1-.965.383,24.2,24.2,0,0,0-3.236.88,8.394,8.394,0,0,0-.142,2.129q.085.71.227,1.448.369,2.1,2.327,1.249a16.556,16.556,0,0,0,1.5-.922q.766-.525,2.2-1.689t1.987-1.632a3.572,3.572,0,0,1,1.008-.639.329.329,0,0,1,.369.27,2.154,2.154,0,0,1,.043.553,3.677,3.677,0,0,1-.468,1.135,50.9,50.9,0,0,1-4.059,3.8,5.753,5.753,0,0,1-1.575,1.036,3.112,3.112,0,0,1-1.774.241,3.816,3.816,0,0,1-1.632-.795,5.321,5.321,0,0,1-1.192-1.377,4.034,4.034,0,0,1-.553-1.746q-.085-1.277-.2-2.526-.539.085-1.164.227a2.64,2.64,0,0,1-.781.114.993.993,0,0,1-.724-.312,1.409,1.409,0,0,1-.4-.71,2.817,2.817,0,0,1-.057-.795q1.646-.4,3.321-.823.284-.993.483-2.072a14.691,14.691,0,0,1,.624-2.271q-1.589.369-2.867.624a2.183,2.183,0,0,1-.766.1,1.119,1.119,0,0,1-.738-.3,1.111,1.111,0,0,1-.369-.681q-.057-.4-.085-.823,1.448-.341,2.682-.582t2.711-.61a8.024,8.024,0,0,0,.483-1.448q.227-.908.71-2.413.255-.539.6-.6h.114a.865.865,0,0,1,.539.2,1.7,1.7,0,0,1,.44.653,1.559,1.559,0,0,1-.128,1.107Q132.779-15.583,132.41-14.305Z" transform="translate(0 22.707)" fill="#215f87"/>
        <path id="Контур_1749" data-name="Контур 1749" d="M15.242-16.321q2.214-.312,4.584-.639t2.853-.383a1.336,1.336,0,0,1,.852.468,1.024,1.024,0,0,1,.284.894.612.612,0,0,1-.539.6,4,4,0,0,1-.852.142,12.687,12.687,0,0,0-3.023.114q-2.427.255-3.789.539a1.375,1.375,0,0,1-.795,1.533,11.826,11.826,0,0,0-1.49,1.448q-.894.993-2.044,2.242T9.338-7.124a11.449,11.449,0,0,0,1.675-.426q.341-.114.766-.284.823-.284,2.015-.71A34.036,34.036,0,0,0,17.967-10.5a3.481,3.481,0,0,0,.114-.71l.085-.312.142-.17.227-.028a1.851,1.851,0,0,1,.993.085,1.444,1.444,0,0,1,.71.568,8.8,8.8,0,0,0,1.49,1.66q.866.752,2.313,2.2a.941.941,0,0,1-.057,1.192A1.227,1.227,0,0,1,22.65-5.9q-.511-.454-1.206-1.121t-1.575-1.6q-.312-.6-1.022-.255-1.589.653-3.818,1.575T9.906-5.223a4.943,4.943,0,0,1-1.249.454,2.044,2.044,0,0,1-1.646-.312A1.839,1.839,0,0,1,6.5-5.648a.936.936,0,0,1-.057-.781,3.271,3.271,0,0,1,.369-.752q2.3-2.611,3.86-4.343a25.281,25.281,0,0,0,1.93-2.3A25.21,25.21,0,0,0,9.3-13q-1.575.511-2.4.823a2.058,2.058,0,0,1-.922.241.937.937,0,0,1-.823-.454,2.461,2.461,0,0,1-.412-1.093,31.235,31.235,0,0,1,4.485-1.433q2.753-.7,4.428-1.093-.142-.085-.213-.553a2.788,2.788,0,0,1-.014-.837q.085-.937.1-1.519a6.626,6.626,0,0,0-.128-1.348A2.045,2.045,0,0,1,13.355-21q.043-.426.61-.454a1.707,1.707,0,0,1,.88.326,1.035,1.035,0,0,1,.454.837q.057,1.731,0,2.782Q15.242-16.86,15.242-16.321ZM24.211-1.5a.551.551,0,0,1,.341.681,3.975,3.975,0,0,1-.4,1.093,12.936,12.936,0,0,1-1.121,1.689,12.515,12.515,0,0,1-1.746,1.9,2.537,2.537,0,0,1-1.93.653A2.714,2.714,0,0,1,17.6,3.52,5.889,5.889,0,0,1,16.42.61q-.213-1.66-.369-3.065t-.213-2.37a1.37,1.37,0,0,1-.014-.525q.043-.3.468-.326a1.179,1.179,0,0,1,.88,0,2.1,2.1,0,0,1,.752.468q.213.241.1,1.15a17.8,17.8,0,0,0,.028,3.945,8.345,8.345,0,0,0,.511,2.1q.4.993,1.448.454A6.578,6.578,0,0,0,21.345,1.4,18.126,18.126,0,0,0,22.792-.128,9.268,9.268,0,0,1,24.211-1.5ZM11.041-4.2a.839.839,0,0,1,.71-.823,1.3,1.3,0,0,1,.738.227q1.135.965.341,1.93Q10.757.227,9.821,1.987A10.3,10.3,0,0,0,8.8,4.286a1.714,1.714,0,0,1-.312.639.677.677,0,0,1-.795.213,1.232,1.232,0,0,1-.908-1.362A19.939,19.939,0,0,1,7.891,1.533Q8.8-.142,9.863-1.9A10.563,10.563,0,0,0,11.041-4.2ZM39.028,4.854a1.8,1.8,0,0,1-1.093-.227q-.5-.284-.184-1.022.426-.823.979-2.044t1.519-3.236q-.88.341-1.5.6a10.8,10.8,0,0,0-1.391.71.878.878,0,0,1-.667.142,1.326,1.326,0,0,1-.525-.426,1.812,1.812,0,0,1-.341-1.022,7.775,7.775,0,0,1,1.93-1.008q1.277-.5,3.491-1.178.71-1.646.965-2.327-1.079.312-1.93.568a1.4,1.4,0,0,1-.809.085q-.326-.085-.525-.6a1.723,1.723,0,0,1-.142-.511,2.349,2.349,0,0,1-.057-.511q.624-.17,1.561-.369.993-.227,2.555-.6.2-.624.312-1.05.114-.483.17-.653a16.2,16.2,0,0,0-3.094.568,1.626,1.626,0,0,1-.894.156.831.831,0,0,1-.539-.511,2.007,2.007,0,0,1-.227-.752q-.014-.312.369-.44A18.8,18.8,0,0,1,41-11.2q1.66-.27,2.569-.355a3.933,3.933,0,0,0,.114-1.093,1.083,1.083,0,0,1,.227-.781,1.482,1.482,0,0,1,.922.071,1.023,1.023,0,0,1,.624.61,2.459,2.459,0,0,1,.156.852q.511,0,1.192-.028a2.894,2.894,0,0,1,.965.085l.114.057a.682.682,0,0,1,.525.639,1.015,1.015,0,0,1-.241.866H46.89a13.651,13.651,0,0,0-1.476.114q-.2.88-.454,1.675a5.806,5.806,0,0,1,.766-.156q.341-.043.7-.071a.964.964,0,0,1,.553.085,1.312,1.312,0,0,1,.4.4.529.529,0,0,1,.114.568.866.866,0,0,1-.539.483,15.138,15.138,0,0,0-1.533.3,4.549,4.549,0,0,1-.993.156q-.681,1.419-1.079,2.384.454-.17,2.029-.539T49.53-5.79a.946.946,0,0,1,1.22.653.865.865,0,0,1-.213.667,1.172,1.172,0,0,1-.667.355q-2.044.341-3.08.553a11.908,11.908,0,0,0-2.029.61q1.561,1.76,3.08,3.505a22.82,22.82,0,0,0,2.824,2.8,1.462,1.462,0,0,1,.028.852,1.056,1.056,0,0,1-.908.426,2.284,2.284,0,0,1-.908-.454Q47.344,2.555,46.01.979T43.995-1.448A7.465,7.465,0,0,1,43.2-2.555l-.681.142Q41.412-.142,40.773,1.306T39.695,3.562Q39.255,4.371,39.028,4.854ZM35.678-15.214q1.391-.4,2.115-.61t5.719-1.206q-.227-2.044-.454-4.258a2.452,2.452,0,0,1,.766-.142q.965,0,1.192,1.164.085,1.362.142,3.122.71-.114,2.824-.227a26.43,26.43,0,0,1,4.868.255,4.745,4.745,0,0,1,1.135.454,2.007,2.007,0,0,1,.795.795l.085.17a1.842,1.842,0,0,1-.128,1.121,5.718,5.718,0,0,1-.61,1.064,13.676,13.676,0,0,1-1.859,2.058,5.425,5.425,0,0,1-1.306.937,1.307,1.307,0,0,1-.908-.014q-.5-.17-.5-.511a22.348,22.348,0,0,0,1.958-2.271q.511-.653.823-1.135a4.4,4.4,0,0,0,.426-.852,8.137,8.137,0,0,0-3.136-.553,20,20,0,0,0-5.166.369q-2.625.525-4.57,1.05a10.622,10.622,0,0,0-2.512.894,2.719,2.719,0,0,1-1.731.255,18.221,18.221,0,0,0,.071,2.143,4.725,4.725,0,0,0,.312,1.519l.44.88a.808.808,0,0,1-.852.539,1.278,1.278,0,0,1-.894-.553A3.882,3.882,0,0,1,34.2-10.1a10.73,10.73,0,0,1-.227-2.086q-.028-1.206-.043-2.853T34-17.8q.17-1.448,1.306-.6a.994.994,0,0,1,.511.44.911.911,0,0,1,.156.61q-.043.284-.1.539Q35.735-15.952,35.678-15.214ZM69.058-11.95q-1.221.369-2.81.88T63.3-10.019a1.393,1.393,0,0,1-.823.128,1.353,1.353,0,0,1-.71-.426,2.316,2.316,0,0,1-.483-.7q-.142-.341.426-.738,1.419-.454,2.441-.809t4.314-1.235a7.573,7.573,0,0,0-.4-1.334,8.692,8.692,0,0,1-.426-1.419.648.648,0,0,1,.227-.511.507.507,0,0,1,.369-.114,3.255,3.255,0,0,1,.4.028,1.424,1.424,0,0,1,.852.539q.2.426.468,1.064t.5,1.235q.88-.2,1.66-.383t1.575-.355a1.273,1.273,0,0,1,.639.057.928.928,0,0,1,.539.653q.184.539-.057.738a1.184,1.184,0,0,1-.525.255q-1.192.284-1.873.412a6.205,6.205,0,0,0-1.334.412,18.826,18.826,0,0,1,.483,3.179A4.844,4.844,0,0,1,71.3-7.124a2.813,2.813,0,0,1-.866,1.164,1.726,1.726,0,0,1-1.022.426.722.722,0,0,1-.681-.383A1.05,1.05,0,0,1,68.8-6.9a2.049,2.049,0,0,0,.724-.951,4.422,4.422,0,0,0,.085-1.519A11.929,11.929,0,0,0,69.058-11.95Zm.2,11.864q.227.823-.057,1.107a1.2,1.2,0,0,1-.88.284A4.127,4.127,0,0,1,66.758.88a9.7,9.7,0,0,1-2.739-2.058q-.951-1.093-1.944-2.484a.649.649,0,0,1-.028-.752.715.715,0,0,1,.653-.312,2.562,2.562,0,0,1,.88.2,1.594,1.594,0,0,1,.738.61,8.435,8.435,0,0,0,1.958,2.3,7.2,7.2,0,0,0,1.845,1.15Q68.859-.2,69.256-.085Zm24.665-12.8q.766-.227,1.575-.412l1.689-.383a3.424,3.424,0,0,1,.7-.1,1.8,1.8,0,0,1,.724.128,1.629,1.629,0,0,1,.383.71q.1.4.142.582t-.326.27a25.052,25.052,0,0,0-2.625.511q-1.377.341-2.767.681-.312.965-.6,1.746a21.12,21.12,0,0,1-.937,2.086q-.624,1.249-1.008,1.348a1.019,1.019,0,0,1-.7-.043,1.267,1.267,0,0,1-.525-.454,5.946,5.946,0,0,1-.468-.88,2.23,2.23,0,0,0,.752-.355,3.126,3.126,0,0,0,.653-.979,10.259,10.259,0,0,0,.7-1.958,12.559,12.559,0,0,0-1.717.483q-.979.341-2.994,1.107a10.488,10.488,0,0,0-.454,2.186A9.482,9.482,0,0,0,86.13-4.74a3.179,3.179,0,0,0,.412,1.362,2.42,2.42,0,0,0,1.391.795,8.617,8.617,0,0,0,3.278,0,14.525,14.525,0,0,0,2.3-.71q.951-.4,1.6-.738a1.055,1.055,0,0,1,.468.511,1.179,1.179,0,0,1,.071.653.863.863,0,0,1-.326.553,6.592,6.592,0,0,1-.795.511,10.46,10.46,0,0,1-1.49.653,8.281,8.281,0,0,1-2.327.44,12.678,12.678,0,0,1-2.285-.128,5.539,5.539,0,0,1-1.944-.752,4.169,4.169,0,0,1-1.547-1.618,4.519,4.519,0,0,1-.553-2.186,11.3,11.3,0,0,1,.028-1.391l.114-1.362q-.511.227-1.519.667T80.723-6.358a1.167,1.167,0,0,1-.639.227,1,1,0,0,1-.61-.241,1.2,1.2,0,0,1-.426-.639.621.621,0,0,1,.369-.937q2.242-1.022,3.591-1.561t1.916-.795q.284-1.362.582-2.342t.582-1.689a.6.6,0,0,1,.553-.2.945.945,0,0,1,.553.383,1.26,1.26,0,0,1,.284.681,2.117,2.117,0,0,1-.085.752,15.76,15.76,0,0,0-.426,1.646q.71-.2,1.561-.454t3.179-.88a7.9,7.9,0,0,0,.255-.951q.057-.326.2-1.377a1.9,1.9,0,0,1,.312-.624.221.221,0,0,1,.2-.085,1.345,1.345,0,0,1,.483.114,1.152,1.152,0,0,1,.653.582,2.858,2.858,0,0,1,.184.781A4.115,4.115,0,0,1,93.922-12.886Zm13.454-.142a3.173,3.173,0,0,1-1.221-.057,2.537,2.537,0,0,1-.781-.483,1.2,1.2,0,0,1-.284-.624q-.071-.4.61-.6.653-.057,1.277-.085a5.879,5.879,0,0,0,1.448-.284q.4-1.533.483-1.9.255-.511.624-.511a.812.812,0,0,1,.426.142,2.406,2.406,0,0,1,.852,1.533q1.107-.341,1.987-.681.681-.284.937-.085a2.049,2.049,0,0,1,.5.639,1.017,1.017,0,0,1,.17.71q-.071.27-.809.61-1.306.483-2.029.7t-1.916.582q-.539,1.192-.993,2.384a26.568,26.568,0,0,0-.979,3.7,19.1,19.1,0,0,0-.483,4.258,7.46,7.46,0,0,0,.724,3.136q.17.823-.071.965a1.487,1.487,0,0,1-.568.184,1.465,1.465,0,0,1-.724-.114,1.083,1.083,0,0,1-.6-.667A13.97,13.97,0,0,1,105.5-3.42a22.794,22.794,0,0,1,.5-4.314q.468-2.257.866-3.548T107.376-13.028ZM120.4-9.963a.661.661,0,0,1-.795.483,9.173,9.173,0,0,0-3.8.88,1.955,1.955,0,0,1-1.15-.114.987.987,0,0,1-.61-.823,1.016,1.016,0,0,1,.483-.738q2.1-.681,4.229-1.164a1.345,1.345,0,0,1,1.306.412A1.051,1.051,0,0,1,120.4-9.963Zm-4.939,4.825a3.094,3.094,0,0,1,.908.568q1.5.937,2.441,1.575t1.306.922q.568.6.341,1.05a.985.985,0,0,1-.483.539A2.213,2.213,0,0,1,118.956-.6q-.483-.4-1.348-1.022t-2.342-1.476a1.515,1.515,0,0,1-.738-1.249Q114.557-5.251,115.465-5.137Zm19.528,2.924a4.013,4.013,0,0,1-1.164.979,2.753,2.753,0,0,1-1.476.355,3.018,3.018,0,0,1-1.476-.44,3.4,3.4,0,0,1-1.107-1.064,12.28,12.28,0,0,1-1.22-2.54,21.546,21.546,0,0,1-.752-2.824q-.3-1.5-.468-3.122.028-.624.255-.7a1.367,1.367,0,0,1,.624,0,1.809,1.809,0,0,1,.724.3,1.177,1.177,0,0,1,.454.61,3.174,3.174,0,0,1,.156.781,11.88,11.88,0,0,0,.3,2.881,15.087,15.087,0,0,0,.681,2.3,10.53,10.53,0,0,0,.951,1.774.724.724,0,0,0,1.022.255,9.985,9.985,0,0,0,1.249-1.022q.766-.71,1.49-1.49t1.377-1.433a.859.859,0,0,1,.61.27,1.052,1.052,0,0,1,.028.795,3.208,3.208,0,0,1-.44,1.064Q136.5-4,134.993-2.214Zm9.792-2.98a.58.58,0,0,1-.553.44.956.956,0,0,1-.639-.1A3.29,3.29,0,0,1,142.94-6.1q-.426-2.129-.667-3.818l-.326-2.285a.731.731,0,0,1,.057-.483.384.384,0,0,1,.369-.227,1.286,1.286,0,0,1,.454.085,2.514,2.514,0,0,1,.681.326,1.062,1.062,0,0,1,.426.568,2.361,2.361,0,0,1,.114.724q.255,2.81.44,4.144T144.785-5.194Z" transform="translate(0 65.579)" fill="#215f87"/>
        <path id="Контур_1747" data-name="Контур 1747" d="M8.856-8.969Q6.9-8.26,5.677-7.749a14.026,14.026,0,0,0-2.3,1.22A1.245,1.245,0,0,1,1.5-6.642a.744.744,0,0,1,.17-1.277q1.05-.511,2.767-1.22t4.612-1.9q.17-1.22.241-2.484a12.41,12.41,0,0,0-.128-2.569Q7.607-14.476,6.84-13.567t-1.76,1.958a1.191,1.191,0,0,1-.795.525.9.9,0,0,1-.724-.071.587.587,0,0,1-.184-.539,7.626,7.626,0,0,1,1.249-1.93q1.192-1.561,3.094-3.69t2.98-3.151a1.169,1.169,0,0,1,1.277,1.05.959.959,0,0,1-.043.639,1.147,1.147,0,0,1-.44.468,7.879,7.879,0,0,0-1.362,1.135,2.428,2.428,0,0,1,.7.7,2.339,2.339,0,0,1,.255,1.178,13.076,13.076,0,0,1-.071,1.6q-.085.809-.142,2.2.341-.114.866-.255a6.976,6.976,0,0,0,.922-.312,3.315,3.315,0,0,1,.653-.1.842.842,0,0,1,.624.3,1.549,1.549,0,0,1,.312.937.488.488,0,0,1-.255.355,1.3,1.3,0,0,1-.4.128q-1.079.341-2.838.908Q10.616-8.146,10.53-7.1q-.028.369-.057.681a7.471,7.471,0,0,0,2.115,1.277q1.15.454,1.547.624a1.062,1.062,0,0,1,.028.639.6.6,0,0,1-.341.412.975.975,0,0,1-.511.085,7.071,7.071,0,0,1-1.433-.27,15.521,15.521,0,0,1-1.6-.582q-.2,1.135-.383,2.725T9.565,1.987a1.143,1.143,0,0,1-.085.653.787.787,0,0,1-.568.454.823.823,0,0,1-.738-.142A1.273,1.273,0,0,1,7.593,2.4a1.154,1.154,0,0,1-.1-.781A11.524,11.524,0,0,0,8-.894q.17-1.547.539-4.272-1.817,2.3-2.625,3.151T4.087-.028a1.08,1.08,0,0,1-.823-.114,1.039,1.039,0,0,1-.355-.483.713.713,0,0,1,.071-.6q.227-.341,1.362-1.646Q4.882-3.491,5.478-4.2q.653-.766,1.362-1.675,1.391-1.7,1.9-2.356ZM24.24-3.52A17.742,17.742,0,0,1,20.195-1.4Q17.8-.483,15.157.312a1.159,1.159,0,0,1-1.391-.4,1.132,1.132,0,0,1,0-1.561q1.76-2.441,3.576-5.421a42.024,42.024,0,0,0,2.64-4.882,1,1,0,0,1,.27-.426.593.593,0,0,1,.412-.17,2.642,2.642,0,0,1,1.22.653.828.828,0,0,1,.057,1.107Q20.805-9.168,19.3-6.67T16.434-2.157a16.53,16.53,0,0,0,2.029-.426A29.8,29.8,0,0,0,21.3-3.576a18.2,18.2,0,0,0,2.257-.993,12.587,12.587,0,0,0-.738-1.192,2.071,2.071,0,0,1-.128-.61.49.49,0,0,1,.3-.468,1.532,1.532,0,0,1,.993-.114,1.841,1.841,0,0,1,.852.71q.993,2.072,1.845,3.548a5.549,5.549,0,0,1,.88,2.271.84.84,0,0,1-.454.681,1.262,1.262,0,0,1-.88-.312,8.591,8.591,0,0,1-.837-1.334Q24.921-2.271,24.24-3.52Zm17.882-8.572a17.417,17.417,0,0,1-1.263,3.633A17.932,17.932,0,0,1,38.9-5.237a10.029,10.029,0,0,1-2.739,2.455,8.215,8.215,0,0,1-1.561.738,1.542,1.542,0,0,1-.965.028,2.971,2.971,0,0,1-.922-.553A3.085,3.085,0,0,1,31.9-3.633a3.881,3.881,0,0,1-.255-1.618,7.963,7.963,0,0,1,.61-2.455,8.221,8.221,0,0,1,1.845-2.81,11.563,11.563,0,0,1,2.611-2.044,14.328,14.328,0,0,1,3.7-1.291,1.545,1.545,0,0,1,.766-.227h.17a6.452,6.452,0,0,1,.724.17q.27.085.582.2a4.488,4.488,0,0,1,1.419.553,6.98,6.98,0,0,1,1.334,1.121,4.578,4.578,0,0,1,1.079,2.3,9.247,9.247,0,0,1,.014,3.505,18.54,18.54,0,0,1-.7,2.98,12.624,12.624,0,0,1-.937,2.029,2.846,2.846,0,0,1-.326.511.732.732,0,0,1-.412.2A1.017,1.017,0,0,1,43.5-.653a1.419,1.419,0,0,1-.582-.454,1.493,1.493,0,0,1-.227-.568.612.612,0,0,1,.142-.539,5.993,5.993,0,0,0,.639-.781,8.938,8.938,0,0,0,.639-1.66,15.1,15.1,0,0,0,.6-2.64,8.3,8.3,0,0,0,.057-2.129,4.721,4.721,0,0,0-.27-1.291,1.75,1.75,0,0,0-.553-.724,2.765,2.765,0,0,0-.866-.44A5.422,5.422,0,0,0,42.121-12.091Zm-8.8,8.26A1.918,1.918,0,0,0,34.94-4.2a11.653,11.653,0,0,0,2.441-2.342A12.683,12.683,0,0,0,39.113-9.48a17.749,17.749,0,0,0,.88-2.5,12.441,12.441,0,0,0-2.526,1.135A8.227,8.227,0,0,0,34.841-8.6,7.488,7.488,0,0,0,33.464-6,5.122,5.122,0,0,0,33.322-3.832ZM63.75-2.782q.681-.227,1.391-.4a1.967,1.967,0,0,1,.568.085.456.456,0,0,1,.341.369.693.693,0,0,1-.568.908,19.275,19.275,0,0,1-1.873.681q0,.738-.028,1.817,2.3-1.362,3.832-2.072a.817.817,0,0,1,0,.88,2.519,2.519,0,0,1-.738.88Q64.232,1.93,61.735,3.434a1.682,1.682,0,0,1-.908.341.953.953,0,0,1-.738-.184.794.794,0,0,1-.326-.624,3.591,3.591,0,0,1,.043-.724q1.05-.369,2.015-.766a5.311,5.311,0,0,0,.227-1.93,8.852,8.852,0,0,0-1.788.823.511.511,0,0,1-.71-.2,1.121,1.121,0,0,1-.525-.426.815.815,0,0,1-.1-.653.911.911,0,0,1,.341-.369,3.894,3.894,0,0,1,.894-.326,18.958,18.958,0,0,0,1.973-.724q-.028-.624-.085-1.76-1.476.937-2.157.539a5.768,5.768,0,0,1-1.079-1.561q-.227-.511-.483-1.135-.17-.483-.4-1.05-.454-1.306-.908-3.122a.609.609,0,0,1,.27-.454q.241-.17,1.206.227a11.574,11.574,0,0,1,1.632-.852q.866-.369,1.717-.738l.028-1.731a8.784,8.784,0,0,0-2.356.752,16.045,16.045,0,0,0-1.817.951.371.371,0,0,1-.553.014q-.27-.241-.454-.44a1.018,1.018,0,0,1-.241-.539.642.642,0,0,1,.128-.553,1.809,1.809,0,0,1,.639-.412,17.327,17.327,0,0,1,1.859-3.236q1.178-1.646,2.8-3.69a.511.511,0,0,1,.4-.2.781.781,0,0,1,.4.142,1.761,1.761,0,0,1,.624.454,1.061,1.061,0,0,1,.284.738.78.78,0,0,1-.4.426,6.013,6.013,0,0,0-1.05.908A3.151,3.151,0,0,1,63.324-18a4.233,4.233,0,0,1,.312,1.845q1.306-.284,2.668-.483a1.155,1.155,0,0,1,1.22.483.684.684,0,0,1,.284.653q-.057.369-.539.426a10.17,10.17,0,0,0-1.774.142,15.508,15.508,0,0,0-1.888.369q.028.653.028,1.731a7.6,7.6,0,0,0,1.277-.3,7.719,7.719,0,0,1,1.391-.3q1.362-.085,1.249,1.334-.057.312-.085.6-.426,2.555-.681,4.485a2.569,2.569,0,0,1-.5,1.519,1.2,1.2,0,0,1-.951.355,8.241,8.241,0,0,0-.937.284q-.369.142-.653.255A14.118,14.118,0,0,1,63.75-2.782Zm-3.8-3.633a4.69,4.69,0,0,0,.539,1.476,11.549,11.549,0,0,0,1.476-.483l.057-2.044A4.8,4.8,0,0,0,59.946-6.415ZM58.7-14.532a21.37,21.37,0,0,1,3.094-1.05,5.789,5.789,0,0,0-.284-2.3,17.471,17.471,0,0,0-1.433,1.519A14.153,14.153,0,0,0,58.7-14.532Zm.852,6.642a13.769,13.769,0,0,1,2.384-1.135q0-.6-.028-1.362a7.6,7.6,0,0,0-2.7,1.164A2.639,2.639,0,0,0,59.549-7.891Zm6.017-.738a5.868,5.868,0,0,0-1.135.3q-.369.156-.88.355-.028,1.22-.085,1.958a4.486,4.486,0,0,0,1.646-.653A6.052,6.052,0,0,0,65.566-8.629Zm7.578,9.906a46.065,46.065,0,0,0,1.377-4.768q.582-2.5.88-4.329t.426-2.9a14.867,14.867,0,0,0,.128-1.66q-.908.312-1.362.5a15.72,15.72,0,0,0-1.93,1.15q-.568,2.7-2.015,9.367Q70.306.2,70.108,1.589q-.114.653-.255,1.22l-.624-.057a.948.948,0,0,1-.553-.241,1.057,1.057,0,0,1-.326-.539,1.285,1.285,0,0,1,.014-.681q.1-.355.468-2.044t.71-3.193q.341-1.5.653-2.909a13.79,13.79,0,0,0,.341-2.682q-.624.653-1.079,1.192a.861.861,0,0,1-.724-.142q-.184-.2-.412-.454a2.4,2.4,0,0,1-.341-.511.728.728,0,0,1,.028-.653,10.716,10.716,0,0,1,1.334-.937,9.123,9.123,0,0,0,1.391-1.022,9.36,9.36,0,0,0,.2-1.419v-.2q.028-.653.114-1.958a5.083,5.083,0,0,1,.255-.993,5.206,5.206,0,0,1,.908.2,1.237,1.237,0,0,1,.71.568,1.552,1.552,0,0,1,.227.908v.2q-.028.738-.085,1.5a12.673,12.673,0,0,0,2.129-.937,2.5,2.5,0,0,1,1.7-.255,1.621,1.621,0,0,1,1.192,1.618q-.341,2.384-1.206,6.571T75.515-.412a26.511,26.511,0,0,1-1.093,3.023.987.987,0,0,1-.88.88,1.333,1.333,0,0,1-1.362-.653,3.867,3.867,0,0,1-.937-1.646A3.484,3.484,0,0,0,73.145,1.277Zm-17.91,2.64a1.23,1.23,0,0,1-1.135.227,1.013,1.013,0,0,1-.766-.823,4.843,4.843,0,0,1-.114-1.646q-.028-2.384.2-5.052v-.17q.227-2.782.412-5.464a31.609,31.609,0,0,0,.128-3.392A38.082,38.082,0,0,0,52.325-8.9a13.965,13.965,0,0,0-.837,2.8.56.56,0,0,1-.766.454.977.977,0,0,1-.937-.88,2.471,2.471,0,0,1,.227-.908L51.4-10.814q.908-2.186,2.242-4.712T55.973-19.7a4.29,4.29,0,0,1,.2-.44q.085-.156.454-.184a1.239,1.239,0,0,1,1.192.766,1.106,1.106,0,0,1-.114.738q-1.277,1.9-2.753,4.371a1.925,1.925,0,0,1,.852,2.1l-.624,6.954-.057,1.022q-.2,2.526-.227,4.343a16.057,16.057,0,0,0,.227,3.179A2.786,2.786,0,0,1,55.235,3.917ZM65.651-10.275l.057-.2a4.159,4.159,0,0,0,.057-1.22,5.722,5.722,0,0,0-1.249.2,2.882,2.882,0,0,0-.965.426q-.085.823-.142,1.448.795-.2,1.561-.426ZM89.721-8.146q-1.589.71-2.455,1.022T86.059-6.7a1.7,1.7,0,0,1-.993.1,1.215,1.215,0,0,1-.809-.553,1.921,1.921,0,0,1-.3-1.079q1.334-.312,2.342-.653t3.307-1.306a12.243,12.243,0,0,0-.17-2.015,12.878,12.878,0,0,0-.483-1.958q-.426.114-1.419.369t-2.469.681a1.893,1.893,0,0,1-.979.2,1.13,1.13,0,0,1-.7-.426,3.387,3.387,0,0,1-.539-.937.541.541,0,0,1,.312-.5,10.926,10.926,0,0,1,1.561-.4q1.277-.27,3.52-.809-.114-.483-.312-1.192a.619.619,0,0,1,.568-.369,1.911,1.911,0,0,1,.312.028,1.85,1.85,0,0,1,.837.525,5.069,5.069,0,0,1,.44.61q.908-.142,1.731-.255a2.431,2.431,0,0,1,1.22.057,1.186,1.186,0,0,1,.6.539,1.217,1.217,0,0,1,.142.766q-1.646.369-3.037.653.2.908.3,1.377t.412,2.2q.511-.284.908-.553a2.369,2.369,0,0,1,.738-.355,1,1,0,0,1,.766.341.643.643,0,0,1,.142.738,3,3,0,0,1-1.093,1.05q-.781.483-1.377.795.028.71-.014,1.462a6.272,6.272,0,0,1-.412,1.76,3.952,3.952,0,0,1-.738,1.377.939.939,0,0,1-.724.341A1.847,1.847,0,0,1,89-4.258Q88.7-4.4,88.7-5a3.351,3.351,0,0,0,.809-1.448A4.783,4.783,0,0,0,89.721-8.146ZM89.068,2.129A10.205,10.205,0,0,1,85.619.6a14.326,14.326,0,0,1-2.4-1.9,1.919,1.919,0,0,1-.383-.7.791.791,0,0,1,.057-.553q.128-.255.639-.255.426.142.922.341a2.169,2.169,0,0,1,.809.539A5.933,5.933,0,0,0,86.911-.412,14.334,14.334,0,0,0,89.465.653a.942.942,0,0,1,.653.624.545.545,0,0,1-.227.653A1.306,1.306,0,0,1,89.068,2.129Zm23.814-14.76a2.692,2.692,0,0,1-.142,1.533q-.766,1.164-1.306,2.044-.227.369-.426.71a27.711,27.711,0,0,1,3.25-.852q1.263-.227,2.512-.341a2.64,2.64,0,0,1,1.731.5q.511.468.2,1.973a36.128,36.128,0,0,1-1.788,5.719,22.18,22.18,0,0,1-1.561,3.122,5.657,5.657,0,0,1-1.533,1.575,2.894,2.894,0,0,1-1.448.454,1.817,1.817,0,0,1-1.362-.539,4.035,4.035,0,0,1-.795-.951,8.609,8.609,0,0,1-.4-.908,1.108,1.108,0,0,1,.057-.979,14.842,14.842,0,0,0,1.49.979,1.75,1.75,0,0,0,1.348.241,7.763,7.763,0,0,0,2.044-2.938A23.592,23.592,0,0,0,116.3-5.308a8.508,8.508,0,0,0,.412-2.384,11.237,11.237,0,0,0-2.753.483,11.194,11.194,0,0,0-1.93.71,1.738,1.738,0,0,1-.951.255A3.141,3.141,0,0,1,109.9-6.67q-1.079,1.5-1.746,2.6A34.446,34.446,0,0,0,106.3-.2a2.7,2.7,0,0,1-1.05-.17.637.637,0,0,1-.412-.61,2.235,2.235,0,0,1,.1-.781,24.3,24.3,0,0,1,1.391-2.7q.71-1.135,1.561-2.555a5.011,5.011,0,0,0,.312-.539q1.079-1.76,1.7-3.009t.681-1.448a42.224,42.224,0,0,0-4.172,1.32,22.928,22.928,0,0,0-2.867,1.32.951.951,0,0,1-1.178-.085,2.228,2.228,0,0,1-.781-1.05.745.745,0,0,1,.539-.795q3.548-1.391,5.336-1.888t3.037-.922a2.063,2.063,0,0,1-.3-.766,6.473,6.473,0,0,1,.184-1.206,17.835,17.835,0,0,0,.3-2.285q.1-1.334.1-2.469.028-.568.426-.681h.2a1.321,1.321,0,0,1,.681.227,1.73,1.73,0,0,1,.624.965,33.482,33.482,0,0,1-.27,3.378q-.213,1.589-.468,2.668,2.583-.454,4.74-.71a17.441,17.441,0,0,1,3.8-.085,1.736,1.736,0,0,1,.908.255v.028a1.019,1.019,0,0,1,.5.781A1.45,1.45,0,0,1,121.681-13a17.959,17.959,0,0,0-2.952-.255,11.844,11.844,0,0,0-1.419.028A36.738,36.738,0,0,0,112.882-12.631Z" transform="translate(0 108.449)" fill="#215f87"/>
      </g>
    </g>
  </g>
</svg>
