<svg xmlns="http://www.w3.org/2000/svg" xmlns:xlink="http://www.w3.org/1999/xlink" width="178" height="216" viewBox="0 0 178 216">
  <defs>
    <clipPath id="clip-path">
      <rect id="Прямоугольник_20" data-name="Прямоугольник 20" width="113.572" height="31.63" transform="translate(0 0)" fill="none"/>
    </clipPath>
    <clipPath id="clip-path-2">
      <rect id="Прямоугольник_18" data-name="Прямоугольник 18" width="178" height="196" fill="none"/>
    </clipPath>
    <clipPath id="clip-path-3">
      <rect id="Прямоугольник_26" data-name="Прямоугольник 26" width="146.574" height="115.644" fill="none"/>
    </clipPath>
  </defs>
  <g id="Сгруппировать_376" data-name="Сгруппировать 376" transform="translate(-20 -96)">
    <g id="Сгруппировать_35" data-name="Сгруппировать 35" transform="translate(27 96)">
      <g id="Сгруппировать_34" data-name="Сгруппировать 34" clip-path="url(#clip-path)">
        <path id="Контур_36" data-name="Контур 36" d="M1.756,27.243,0,25.757s2.787-3.036,3.156-3.421L.326,19.72,2.453,17.8l2.486,3.028s2.849-2.939,5.2-5.244l1.432,4.5A15.773,15.773,0,0,0,9.6,18.835,47.01,47.01,0,0,1,6.43,22.5l2.718,2.973a10.021,10.021,0,0,0,2.242-2.109c.363-.534.682-1,.38-1.676l2.7,1.761a11.877,11.877,0,0,1-4.05,4.386,2.026,2.026,0,0,1-2.694-.2c-1.7-1.793-2.159-2.3-3.243-3.5,0,0-2.118,2.559-2.723,3.107" fill="#fb7180"/>
        <path id="Контур_37" data-name="Контур 37" d="M18.062,6.9l1.17,2c-2.281,1.444-3.618,2.358-5.784,3.735L12.187,10.29s5-2.813,5.875-3.391m2.229,6.6s-5.836,3.72-6.445,4.186l-1.383-2.141s5.935-3.514,9.32-5.4c2.213,3.9,1.967,7.432-1.228,10.511.833-3.393.417-5.835-.264-7.153" fill="#fb7180"/>
        <path id="Контур_38" data-name="Контур 38" d="M29.191,8.419c.315,1.056.659,2.341,1.04,3.614,1.584.062,4.48-1.457,5.241-2.16l-.529-1.7s2.341,2.393,3.429,3.317c-3.159,2.033-7.639,3.491-10.083,2.476,0,0-2.218-7.623-2.633-8.748l2.447-.77s.466,1.763.986,3.571A14.555,14.555,0,0,0,32.534,3.02l2.44,2.264a11.339,11.339,0,0,1-5.783,3.135m7.8-6.352a1.413,1.413,0,0,1-1.723,1.466,1.378,1.378,0,0,1-1.131-1.665A1.442,1.442,0,0,1,35.784.761a1.366,1.366,0,0,1,1.2,1.306M35.65,1.574a.527.527,0,0,0-.619.383.593.593,0,0,0,.507.7.533.533,0,0,0,.527-.692.539.539,0,0,0-.415-.392" fill="#fb7180"/>
        <path id="Контур_39" data-name="Контур 39" d="M46.633,2.778c-4.938.6-4.938.6-5.925.643,0,0-.072-1.727-.218-2.5,0,0,8.859-.537,9.367-.653a13.409,13.409,0,0,1-2.169,6.4s2.918,2.979,4.66,2.812l-1.6,2.671a40.9,40.9,0,0,1-4.334-3.624c-.583,1.07-3.237,2.683-6.2,3.185,3.843-3.183,6.021-6.62,6.42-8.936" fill="#fb7180"/>
        <path id="Контур_40" data-name="Контур 40" d="M63.9,8.991a32.946,32.946,0,0,1-4.513-2.655l-.06,5.533s-1.8-.107-2.618-.147c0,0,.36-5.841.7-11.722l2.374.058,0,4.262c2.57,1.134,3.6,1.469,5.654,2.254Z" fill="#fb7180"/>
        <path id="Контур_41" data-name="Контур 41" d="M81.06,13.841l-1.348-2.055a9.707,9.707,0,0,0,3.2-1.972l1.262,1.646a27.4,27.4,0,0,1-3.112,2.381m9.887,7.254a14.883,14.883,0,0,1-7.366-3.339l1.495-2.735a5.165,5.165,0,0,1-2.252-.985,9.092,9.092,0,0,0,2.928-.269s1.731-3.513,2.119-4.254L89.789,10.6l-1.745,2.884a12.865,12.865,0,0,0,4.677-2.464l1.13,1.9a14.921,14.921,0,0,1-6.885,2.338l-.926,1.853a16.766,16.766,0,0,0,3.816,1.846l.6-1.229s.295,2.47.49,3.366M92.11,9.608l-1.91-.57s.484-1.377.6-1.808l1.844.535s-.47,1.513-.536,1.843m2.871,5.212-.086,1.886a11.466,11.466,0,0,1-1.971-.045,20.23,20.23,0,0,0,.6-2.174Z" fill="#fb7180"/>
        <path id="Контур_42" data-name="Контур 42" d="M98.37,21.891l-.769-.558c-1.916,2.917-3.872,3.188-5.887,1.693a11.269,11.269,0,0,1-1.235-1.192c2.942.87,4.869.7,6.143-1.468a15.98,15.98,0,0,1-1.449-1.047l5.2-6.589c.887.747,5.368,4.237,6.252,5.08,0,0-4.616,6.061-4.967,6.413A22.737,22.737,0,0,1,99.737,22.7a3.658,3.658,0,0,0-1.028,2.527c.154,1.309,1.791,2.116,3.02,2.337l-2.036,2c-1.513-.783-3.416-2.939-2.9-5.123a5.84,5.84,0,0,1,1.579-2.553m1.692-.333.481-.855-1.577-1.221-.7.7a17.2,17.2,0,0,0,1.8,1.372m-.526-3.32c.624.589,1.9,1.575,1.9,1.575l.511-.831-1.759-1.389Zm1.41-1.694c.809.662,2,1.456,2,1.456l.778-1.08-1.9-1.453Z" fill="#fb7180"/>
        <path id="Контур_43" data-name="Контур 43" d="M68.631,10.188l-.91,2.692-.827-.3s.736-1.8,1.042-2.545a2.289,2.289,0,0,1-2.153.178,5.645,5.645,0,0,0,2.74-1.839l.088-.226-.992-.155.4-1.1,1.111.511L69.4,6.2l1.027.335L69.94,7.689l.877.441-.4.93s-.586-.256-.836-.4l-.279.646c-.138.288.126.878.607,1.127-.3.19-.979.442-1.276-.244m.321,2.149a4.186,4.186,0,0,0,1.656.242,3.308,3.308,0,0,1-1.318,1.028Zm2.056-.83-.58.6a6.459,6.459,0,0,0-.55-.7l.6-.462Zm1.743.05s-1.12,2.952-1.392,3.52c0,0-.348-1-.693-1.718a3.179,3.179,0,0,0,.5.292s.832-2.072.965-2.41a9.118,9.118,0,0,1-1.565-.5l.289-.88,1.473.582.141-.358s-.685-.27-1.157-.422l.375-.858s1.01.436,1.141.464l.187-.412s-.874-.451-1.335-.634l.214-.72s3.21,1.128,3.5,1.221l-.4.81s-1.087-.394-1.23-.45l-.1.3,1.132.46-.236.745s-1.118-.345-1.189-.374l-.205.428s1.033.349,1.578.528l-.393.933s-1.256-.413-1.6-.551m.381,1.878s.423.818.86.967l-1.015.652a4.52,4.52,0,0,1-.52-1.318Zm.3-6.011-.9.01s-.006-.642-.043-.905l.965-.02Zm.863,4.967-.069,1.191a2.433,2.433,0,0,1-1.311-.873,3.307,3.307,0,0,0,1.38-.318m1.275-5.139.341,1.082a6.089,6.089,0,0,1-1.568-.313,4.986,4.986,0,0,0,1.227-.769" fill="#fb7180"/>
        <path id="Контур_44" data-name="Контур 44" d="M113.572,24.878a4.149,4.149,0,0,0-.224,1.929,8.434,8.434,0,0,1-.078,2.619,2.637,2.637,0,0,1-.7,1.4,2.9,2.9,0,0,1-1.7.678,5.894,5.894,0,0,1-1.808-.148l.043-.294c.113-.005.2,0,.252,0a4.831,4.831,0,0,0,1.625-.1,2.215,2.215,0,0,0,.987-.526c.589-.556.632-1.691.16-3.858l-4.615,4.352c-.519.488-.58.529-.93.623a2.519,2.519,0,0,1-2.373-.677,1.316,1.316,0,0,1-.437-1.054,1.2,1.2,0,0,1,.37-.771,1.6,1.6,0,0,1,1.629-.256,2.8,2.8,0,0,1,.963.575,4.034,4.034,0,0,1,.426.56.92.92,0,0,1,.179.387l6.017-5.673Z" fill="#fb7180"/>
      </g>
    </g>
    <g id="Сгруппировать_375" data-name="Сгруппировать 375">
      <g id="Сгруппировать_31" data-name="Сгруппировать 31" transform="translate(20 116)">
        <g id="Сгруппировать_30" data-name="Сгруппировать 30" clip-path="url(#clip-path-2)">
          <path id="Контур_30" data-name="Контур 30" d="M178.006,87.859a57.118,57.118,0,0,0-57.155-57.082h-2.938c-3.137.357-11.837-6.058-19.331-14.256,0,0-15.1-16.521-37.427-16.521A57.119,57.119,0,0,0,4,57.082C4,77.975,17.783,91.853,17.783,91.853c7.827,7.882,11.9,21.206,9.042,29.608v8.482A57.119,57.119,0,0,0,83.98,187.025c27.538,0,45.224-28.239,45.224-28.239,5.894-9.412,17.951-22.616,26.795-29.342,0,0,22.007-16.741,22.007-41.585" transform="translate(-0.006)" fill="#ffedb0"/>
          <path id="Контур_31" data-name="Контур 31" d="M119.077,38.871c-.351-.006-.7-.01-1.055-.01h-2.938a7.417,7.417,0,0,1-3.768-1.169" transform="translate(-0.172 -0.106)" fill="none" stroke="#fdaab3" stroke-linecap="round" stroke-linejoin="round" stroke-width="2"/>
          <path id="Контур_32" data-name="Контур 32" d="M104.5,33a86.57,86.57,0,0,1-8.914-8.48S80.479,8,58.155,8A57.119,57.119,0,0,0,1,65.082C1,85.975,14.783,99.853,14.783,99.853a36.159,36.159,0,0,1,9.885,21.671" transform="translate(-0.002 -0.023)" fill="none" stroke="#fdaab3" stroke-linecap="round" stroke-linejoin="round" stroke-width="2" stroke-dasharray="8.115 8.115"/>
          <path id="Контур_33" data-name="Контур 33" d="M24.672,125.9a17.377,17.377,0,0,1-.811,3.9v3.984" transform="translate(-0.037 -0.355)" fill="none" stroke="#fdaab3" stroke-linecap="round" stroke-linejoin="round" stroke-width="2"/>
          <path id="Контур_34" data-name="Контур 34" d="M23.964,141.5a57.127,57.127,0,0,0,57.051,53.616c27.539,0,45.225-28.239,45.225-28.239,5.894-9.412,17.951-22.616,26.795-29.342,0,0,22.007-16.741,22.007-41.585a57.115,57.115,0,0,0-52.113-56.862" transform="translate(-0.037 -0.11)" fill="none" stroke="#fdaab3" stroke-linecap="round" stroke-linejoin="round" stroke-width="2" stroke-dasharray="7.986 7.986"/>
        </g>
      </g>
      <g id="Сгруппировать_43" data-name="Сгруппировать 43" transform="translate(41.926 156.455)">
        <g id="Сгруппировать_42" data-name="Сгруппировать 42" clip-path="url(#clip-path-3)">
          <text id="プライベートも" transform="translate(0 22.707)" fill="#215f87" font-size="29.065" font-family="YuGothicUI-Regular, Yu Gothic UI"><tspan x="0" y="0">プライベートも</tspan></text>
          <text id="充実させたい" transform="translate(0 65.579)" fill="#215f87" font-size="29.065" font-family="YuGothicUI-Regular, Yu Gothic UI"><tspan x="0" y="0">充実させたい</tspan></text>
          <text id="私の働き方" transform="translate(0 108.449)" fill="#215f87" font-size="29.065" font-family="YuGothicUI-Regular, Yu Gothic UI"><tspan x="0" y="0">私の働き方</tspan></text>
        </g>
      </g>
    </g>
  </g>
</svg>
