<svg xmlns="http://www.w3.org/2000/svg" xmlns:xlink="http://www.w3.org/1999/xlink" width="167.5" height="25.695" viewBox="0 0 167.5 25.695">
  <defs>
    <linearGradient id="linear-gradient" x1="-0.057" y1="0.256" x2="1.1" y2="0.834" gradientUnits="objectBoundingBox">
      <stop offset="0" stop-color="#5abba1"/>
      <stop offset="1" stop-color="#cae50b"/>
    </linearGradient>
    <linearGradient id="linear-gradient-2" x1="0.139" y1="0.556" x2="1.272" y2="0.728" gradientUnits="objectBoundingBox">
      <stop offset="0" stop-color="#5abba1"/>
      <stop offset="0.702" stop-color="#c8e40e"/>
      <stop offset="1" stop-color="#cae50b"/>
    </linearGradient>
    <clipPath id="clip-path">
      <path id="Контур_48" data-name="Контур 48" d="M31.337,7.666l3.088,9.192H28.143ZM29.279.213,20.088,25.482h5.145l1.526-4.471h8.978l1.491,4.471h5.147L33.147.213Zm21.152,4.4h4.648a3.653,3.653,0,0,1,2.608.919,3.143,3.143,0,0,1,.976,2.4,3.14,3.14,0,0,1-.976,2.4,3.648,3.648,0,0,1-2.608.918H50.431ZM45.5.213V25.482h4.934V15.4h3.548l4.932,10.079h5.714l-5.643-10.9a7.119,7.119,0,0,0,1.758-.905,6.664,6.664,0,0,0,1.473-1.419,6.823,6.823,0,0,0,1.011-1.9A7.294,7.294,0,0,0,63.6,7.951a8.157,8.157,0,0,0-.551-3A6.956,6.956,0,0,0,61.431,2.5,7.869,7.869,0,0,0,58.841.835,9.044,9.044,0,0,0,55.4.213Zm23.209,0V25.482H85.352v-4.4H73.64V14.942h9.972v-4.4H73.64V4.613H85.352V.213ZM9.3,0a9.669,9.669,0,0,0-3.78.71A9.5,9.5,0,0,0,2.484,2.768,7.385,7.385,0,0,0,1.012,4.81,8.874,8.874,0,0,0,.284,7.134,18.4,18.4,0,0,0,.036,9.8Q0,11.215,0,12.847T.036,15.9a18.4,18.4,0,0,0,.248,2.662,8.867,8.867,0,0,0,.728,2.323,7.37,7.37,0,0,0,1.472,2.042,9.433,9.433,0,0,0,3.035,2.058,9.669,9.669,0,0,0,3.78.71,10.862,10.862,0,0,0,3.3-.5,8.255,8.255,0,0,0,2.786-1.509,8.74,8.74,0,0,0,2.058-2.5A10.529,10.529,0,0,0,18.6,17.709h-5a5.608,5.608,0,0,1-1.385,2.556,3.809,3.809,0,0,1-2.874,1.029,4.449,4.449,0,0,1-1.828-.355,3.769,3.769,0,0,1-1.33-.958,4.065,4.065,0,0,1-.6-.869,4.536,4.536,0,0,1-.391-1.26,15.414,15.414,0,0,1-.2-1.988q-.052-1.2-.053-3.017t.053-3.016a15.4,15.4,0,0,1,.2-1.987,4.514,4.514,0,0,1,.391-1.26,4.016,4.016,0,0,1,.6-.869,3.784,3.784,0,0,1,1.33-.959A4.482,4.482,0,0,1,9.334,4.4a3.813,3.813,0,0,1,2.874,1.03,5.6,5.6,0,0,1,1.385,2.555h5a10.523,10.523,0,0,0-1.154-3.478,8.731,8.731,0,0,0-2.058-2.5A8.319,8.319,0,0,0,12.617.5,10.759,10.759,0,0,0,9.3,0Z" fill="url(#linear-gradient)"/>
    </clipPath>
    <clipPath id="clip-path-2">
      <path id="Контур_49" data-name="Контур 49" d="M111.578,2.591A2.378,2.378,0,1,0,113.956.213a2.378,2.378,0,0,0-2.378,2.378" fill="url(#linear-gradient-2)"/>
    </clipPath>
  </defs>
  <g id="Сгруппировать_372" data-name="Сгруппировать 372" transform="translate(-20 -12.152)">
    <g id="Сгруппировать_37" data-name="Сгруппировать 37" transform="translate(20 12.152)">
      <g id="Сгруппировать_36" data-name="Сгруппировать 36" clip-path="url(#clip-path)">
        <rect id="Прямоугольник_22" data-name="Прямоугольник 22" width="78.522" height="78.522" transform="translate(-12.847 12.847) rotate(-45)" fill="url(#linear-gradient)"/>
      </g>
    </g>
    <g id="Сгруппировать_371" data-name="Сгруппировать 371">
      <g id="Сгруппировать_370" data-name="Сгруппировать 370">
        <path id="Контур_45" data-name="Контур 45" d="M91.66.213V25.481h16.395v-4.4H96.593V.213Z" transform="translate(20 12.152)" fill="#215f87"/>
        <rect id="Прямоугольник_21" data-name="Прямоугольник 21" width="4.648" height="18.49" transform="translate(131.712 19.144)" fill="#215f87"/>
        <path id="Контур_46" data-name="Контур 46" d="M136.235.213V15.687L126.227.213h-4.4V25.481h4.933V9.973l10.008,15.508h4.4V.213Z" transform="translate(20 12.152)" fill="#215f87"/>
        <path id="Контур_47" data-name="Контур 47" d="M160.9.213l-8.908,11v-11h-4.932V25.481h4.932V17.886l3.265-3.9,6.494,11.5h5.75l-8.979-15.224L166.9.213Z" transform="translate(20 12.152)" fill="#215f87"/>
      </g>
      <g id="Сгруппировать_38" data-name="Сгруппировать 38" transform="translate(20 12.152)" clip-path="url(#clip-path-2)">
        <rect id="Прямоугольник_23" data-name="Прямоугольник 23" width="6.726" height="6.726" transform="translate(109.2 2.591) rotate(-45)" fill="url(#linear-gradient-2)"/>
      </g>
    </g>
  </g>
</svg>
