<svg xmlns="http://www.w3.org/2000/svg" xmlns:xlink="http://www.w3.org/1999/xlink" width="187.441" height="238.778" viewBox="0 0 187.441 238.778">
  <defs>
    <clipPath id="clip-path">
      <rect id="Прямоугольник_180" data-name="Прямоугольник 180" width="187.441" height="238.778" fill="none"/>
    </clipPath>
  </defs>
  <g id="Сгруппировать_370" data-name="Сгруппировать 370" transform="translate(-152.559 -10841)">
    <g id="Сгруппировать_280" data-name="Сгруппировать 280" transform="translate(152.559 10841)">
      <g id="Сгруппировать_279" data-name="Сгруппировать 279" clip-path="url(#clip-path)">
        <path id="Контур_1458" data-name="Контур 1458" d="M187.424,124.189c.42-20.942-7.1-27.646-7.1-27.646C168,85.567,160.775,69.469,164.266,60.768V51.779A51.882,51.882,0,0,0,112.281,0C83.57,0,64.456,28.375,58.241,39.6S37.586,64.266,27.992,72.218c-23.55,19.52-26.754,50.437-7.156,69.055,7.287,6.923,12.3,13.287,22.323,28.348S43.241,193.2,59.885,209.4c21.7,21.138,62.327,24.706,77.727,7.2,5.6-6.367,7.531-14.886,7.531-14.886,3.644-16.093,17.525-37.225,30.847-46.96,0,0,10.981-8.024,11.434-30.573" fill="#ffedb0"/>
        <path id="Контур_1459" data-name="Контур 1459" d="M156.424,74.665a12.737,12.737,0,0,1,.842-3.9v-4" fill="none" stroke="#fdaab3" stroke-linecap="round" stroke-linejoin="round" stroke-width="2"/>
        <path id="Контур_1460" data-name="Контур 1460" d="M157.177,58.726A51.9,51.9,0,0,0,105.28,10C76.57,10,57.456,38.376,51.241,49.6S30.586,74.267,20.992,82.219c-23.551,19.52-26.755,50.437-7.156,69.055,7.287,6.923,12.3,13.286,22.322,28.347s.083,23.578,16.726,39.785c21.706,21.137,62.327,24.706,77.728,7.2,5.6-6.367,7.531-14.886,7.531-14.886,3.644-16.093,17.525-37.225,30.847-46.96,0,0,10.981-8.024,11.434-30.573.42-20.943-7.1-27.647-7.1-27.647-9.172-8.17-15.519-19.179-16.724-27.862" fill="none" stroke="#fdaab3" stroke-linecap="round" stroke-linejoin="round" stroke-width="2" stroke-dasharray="8.045 8.045"/>
      </g>
    </g>
    <path id="Контур_1732" data-name="Контур 1732" d="M10.913-20.156q-.059-2.52-.059-3.97h2.139v3.882q3.647-.132,7.222-.571v1.86q-3.281.4-7.192.542l.088,4.307q4.146-.19,6.958-.557v1.86q-3.3.366-6.929.5.029.718.132,3.105.059,1.6.1,2.563a21.571,21.571,0,0,1,7.983,5.083L19.863.293A20.391,20.391,0,0,0,13.4-4.526V-4.2q0,5.288-5.3,5.288A7.008,7.008,0,0,1,3.779.015,3.643,3.643,0,0,1,2.49-3.062,3.6,3.6,0,0,1,4.2-6.167,6.725,6.725,0,0,1,8.13-7.236a18.011,18.011,0,0,1,3.149.22q-.1-1.816-.205-5.2-3.911.1-7.808,0v-1.816q3.633.117,7.778.029-.059-.82-.073-2.329-.029-1.421-.059-2.021-4.512.088-8.13-.059v-1.8Q6.4-20.054,10.913-20.156Zm.366,15.117a11.587,11.587,0,0,0-2.944-.4q-3.926,0-3.926,2.373,0,2.285,3.545,2.285,3.325,0,3.325-4ZM38.218-18.208q-.044,3.252,0,6.5A11.408,11.408,0,0,1,38.877-7.9a7.9,7.9,0,0,1-2.8,6.577,16.594,16.594,0,0,1-7.017,2.725L27.8-.4q5.186-.864,7.31-2.959a5.875,5.875,0,0,0,1.729-4.028q-1.011,1.89-3.867,1.89a4.724,4.724,0,0,1-3.281-1.23A4.462,4.462,0,0,1,28.257-10.2a4.436,4.436,0,0,1,1.7-3.721,5.292,5.292,0,0,1,3.34-1.055,4.294,4.294,0,0,1,2.915.835q-.059-2.812-.059-4.014-4.819.073-11.646.513l-.029-1.919q5.537-.22,11.646-.366v-4.072l2.153.029q0,1.348-.059,3.984,4.98-.059,7.207-.059v1.919q-2.432-.088-5.083-.088Zm-5.01,4.922a2.833,2.833,0,0,0-2.109.85,3.029,3.029,0,0,0-.835,2.241,2.651,2.651,0,0,0,.952,2.153,2.76,2.76,0,0,0,1.816.63,3.012,3.012,0,0,0,2.358-.879,2.786,2.786,0,0,0,.674-1.963Q36.064-13.286,33.208-13.286Zm6.958-12,1.465-.6a31.174,31.174,0,0,1,2.139,4.79l-1.567.659A29.236,29.236,0,0,0,40.166-25.283Zm3.545-.483,1.494-.542a24.785,24.785,0,0,1,2.139,4.922l-1.567.63A28.9,28.9,0,0,0,43.711-25.767Zm22.6,9.536q.044,5.933.264,10.049a15.493,15.493,0,0,1,5.288,3.926l-1.45,1.8a14.325,14.325,0,0,0-3.838-3.5A4.526,4.526,0,0,1,65.068-.176,5.365,5.365,0,0,1,61.538.894q-5.186,0-5.186-4.072A3.392,3.392,0,0,1,57.905-6.05a5.767,5.767,0,0,1,3.4-.967,14.66,14.66,0,0,1,3.179.322q-.19-4.014-.249-9.448-4.087.132-8.188.088v-1.89q3.633.117,8.159-.029V-23.5h2.139q-.029,1.8-.029,5.405,1.875-.1,4.819-.4v1.89Q68.994-16.377,66.313-16.23ZM64.482-4.644a9.172,9.172,0,0,0-3.311-.6,3.717,3.717,0,0,0-2.065.542,1.726,1.726,0,0,0-.864,1.523q0,2.256,3.237,2.256a2.7,2.7,0,0,0,2.388-1.128,3.929,3.929,0,0,0,.615-2.3ZM54.155-23.218A88.528,88.528,0,0,0,52.354-8.5a71.158,71.158,0,0,0,.718,9.3L50.977,1q-.688-6.68-.688-9.551a65.4,65.4,0,0,1,.615-7.9q.483-3.779,1.128-6.943ZM95.7-5.552a.207.207,0,0,1-.234.234l-3.97-.059H84.58l-3.94.059a.207.207,0,0,1-.234-.234l.059-2.095v-1.9l-.059-2.095a.207.207,0,0,1,.234-.234l3.94.059h6.914l3.97-.059a.207.207,0,0,1,.234.234L95.64-9.551v1.9ZM93.867-6.841v-3.486H82.236v3.486Zm7.954-6.006a4.227,4.227,0,0,0-.776,1.069q-.249.454-.4.454a1.525,1.525,0,0,1-.439-.146A32.459,32.459,0,0,1,92.52-16.1a19.3,19.3,0,0,1-4.614-5.684,25.467,25.467,0,0,1-5.156,6.108,33.926,33.926,0,0,1-6.87,4.365,1.66,1.66,0,0,1-.454.146q-.146,0-.425-.483a3.111,3.111,0,0,0-.776-.908,30.729,30.729,0,0,0,6.812-3.926,21.836,21.836,0,0,0-3.428-3q-.132-.088-.132-.146t.161-.234l.732-.659q.161-.161.234-.161a.322.322,0,0,1,.176.073,27.265,27.265,0,0,1,3.574,3.047,22.7,22.7,0,0,0,3.838-4.585H81.87l-3.091.059q-.264,0-.264-.234V-23.5q0-.234.264-.234l3.091.059h4.146l2.432-.059q.234,0,.381.337a14.224,14.224,0,0,0,1.113,2.051A17.321,17.321,0,0,0,91.23-19.6a19.377,19.377,0,0,0,2.432-2.549,6.069,6.069,0,0,0,.718-1.157,9.34,9.34,0,0,1,1.479.923.507.507,0,0,1,.234.352q0,.19-.293.337a2.63,2.63,0,0,0-.937.747,30.694,30.694,0,0,1-2.578,2.461,26.894,26.894,0,0,0,2.241,1.89,31.583,31.583,0,0,0,2.886-2.8,7.165,7.165,0,0,0,.806-1.157,11.369,11.369,0,0,1,1.436.923q.278.234.278.352v.044a.541.541,0,0,1-.4.352,2.519,2.519,0,0,0-.894.659,31.568,31.568,0,0,1-2.812,2.49A30.877,30.877,0,0,0,101.821-12.847ZM101.1.938a.207.207,0,0,1-.234.234l-3.94-.059h-17.7l-3.926.059q-.249,0-.249-.234V-.337q0-.234.249-.234l3.926.059h10.8q.776-1.274,1.45-2.607A7.465,7.465,0,0,0,92.051-4.8a14.424,14.424,0,0,1,1.743.688.369.369,0,0,1,.264.337q0,.146-.264.352a2.28,2.28,0,0,0-.615.82Q92.109-.791,91.919-.513h5.01l3.94-.059a.207.207,0,0,1,.234.234Zm-8.423-15.19q0,.234-.22.234l-3-.059H86.367l-2.959.059q-.249,0-.249-.234v-1.172q0-.234.249-.234l2.959.059h3.091l3-.059q.22,0,.22.234ZM85.5-1.743a.719.719,0,0,1,.044.176q0,.1-.337.278l-.791.4a1.278,1.278,0,0,1-.366.117q-.1,0-.176-.19a12.788,12.788,0,0,0-1.436-2.842.4.4,0,0,1-.073-.161q0-.088.322-.234l.776-.352a.82.82,0,0,1,.308-.117q.073,0,.205.176A15.992,15.992,0,0,1,85.5-1.743Zm46.8.6a4.245,4.245,0,0,0-.879,1.113q-.205.4-.322.4a.931.931,0,0,1-.4-.234,19.434,19.434,0,0,1-6.68-10.3V-8.13q0,2.446.059,5.215.059,1.875.059,2.534a4.455,4.455,0,0,1-.161,1.392,1.558,1.558,0,0,1-.615.762,6.084,6.084,0,0,1-2.944.513,1.087,1.087,0,0,1-.571-.088,1.648,1.648,0,0,1-.176-.513,3.423,3.423,0,0,0-.6-1.289,16.42,16.42,0,0,0,1.948.117,1.825,1.825,0,0,0,1.2-.264,1.215,1.215,0,0,0,.234-.879V-4.775a38.87,38.87,0,0,1-4.775,3.4,3,3,0,0,0-.952.718.372.372,0,0,1-.308.205A.368.368,0,0,1,116.1-.63a13.324,13.324,0,0,1-.908-1.465,11.786,11.786,0,0,0,1.626-.732,37.748,37.748,0,0,0,5.64-3.9v-6.27h-2.578l-4.058.059a.207.207,0,0,1-.234-.234v-1.2a.207.207,0,0,1,.234-.234l4.058.059h6.27l.205-2.886h-5.039l-3.12.059a.207.207,0,0,1-.234-.234v-1.172a.207.207,0,0,1,.234-.234l3.12.059h5.127l.22-2.71h-6.006l-3.325.059q-.249,0-.249-.234v-1.2q0-.234.249-.234l3.325.059h4.233l3.34-.059a.233.233,0,0,1,.264.264q-.059.469-.1,1.128-.073.806-.088.938l-.469,6.4,3.721-.059q.264,0,.264.234v1.2q0,.234-.264.234l-4.058-.059h-3.3a25.481,25.481,0,0,0,2.065,5.464,22.907,22.907,0,0,0,2.578-3.062,5.4,5.4,0,0,0,.659-1.172,8.683,8.683,0,0,1,1.3.894.693.693,0,0,1,.234.425q0,.146-.337.366a4.04,4.04,0,0,0-.894.864,22.065,22.065,0,0,1-2.8,2.974A17.025,17.025,0,0,0,132.3-1.143Zm-16.553-9.448q0,.234-.249.234l-3.12-.059h-.688v8.291a36.518,36.518,0,0,0,3.6-1.392,4.719,4.719,0,0,0-.146,1.113.881.881,0,0,1-.132.586,1.221,1.221,0,0,1-.439.22Q111.519-.41,107.461.747a3.755,3.755,0,0,0-1.113.454.715.715,0,0,1-.4.176.327.327,0,0,1-.352-.234q-.22-.527-.571-1.655a17.992,17.992,0,0,0,2.285-.381q2.095-.513,2.725-.7v-8.818h-1.172l-3.12.059a.207.207,0,0,1-.234-.234v-1.143a.207.207,0,0,1,.234-.234l3.12.059h1.172v-3.267h-.205l-2.549.059q-.249,0-.249-.278v-1.069a.22.22,0,0,1,.249-.249l2.549.059h2.314l2.52-.059q.234,0,.234.249V-15.4q0,.278-.234.278l-2.52-.059h-.454v3.267h.688l3.12-.059q.249,0,.249.234Zm.5-8.54a2.132,2.132,0,0,0-.776.952q-.22.4-.308.4a2.487,2.487,0,0,1-.454-.308,23.177,23.177,0,0,1-3.5-3.984,26.621,26.621,0,0,1-5.288,5.977,1.17,1.17,0,0,1-.439.234q-.176,0-.308-.4a2.658,2.658,0,0,0-.688-1.04,18.55,18.55,0,0,0,5.3-5.8,4.4,4.4,0,0,0,.645-1.611,9.693,9.693,0,0,1,1.729.483q.308.088.308.264a.463.463,0,0,1-.278.4l-.234.176A21.131,21.131,0,0,0,116.25-19.131ZM108.6-3.9q.015.117.015.146,0,.132-.322.264l-.718.308a1.025,1.025,0,0,1-.293.073q-.132,0-.161-.205a22.352,22.352,0,0,0-1.011-4.644.445.445,0,0,1-.044-.161q0-.117.366-.249l.63-.249a1.2,1.2,0,0,1,.293-.073q.088,0,.161.161A25.476,25.476,0,0,1,108.6-3.9Zm7.222-4.321a.506.506,0,0,1-.234.352,2.1,2.1,0,0,0-.454.85q-.5,1.538-.967,2.637-.146.425-.264.425a1,1,0,0,1-.322-.132,5.219,5.219,0,0,0-.937-.293,20.379,20.379,0,0,0,1.172-3.545,4.3,4.3,0,0,0,.146-1.128,13.308,13.308,0,0,1,1.6.527Q115.825-8.379,115.825-8.218Zm4.746.264a.445.445,0,0,1,.044.161q0,.088-.264.293l-.6.483a1.569,1.569,0,0,1-.352.205q-.073,0-.176-.205a13.031,13.031,0,0,0-2.256-3.574.24.24,0,0,1-.088-.146q0-.088.264-.278l.63-.41a.6.6,0,0,1,.264-.146q.088,0,.22.146A17.6,17.6,0,0,1,120.571-7.954ZM29.3,26.172a4.145,4.145,0,0,0-.835,1.289q-.22.483-.366.483a1.079,1.079,0,0,1-.469-.176A28.6,28.6,0,0,1,14.868,17.441a32.69,32.69,0,0,1-12.2,10.5,1.183,1.183,0,0,1-.454.176q-.19,0-.4-.454A2.934,2.934,0,0,0,.923,26.6a30.124,30.124,0,0,0,7.793-4.966,23.742,23.742,0,0,0,4.512-5.156,5.955,5.955,0,0,0,.806-1.7q1.113.176,1.89.381.425.132.425.366a.341.341,0,0,1-.22.293,1.321,1.321,0,0,0-.264.19A27.334,27.334,0,0,0,29.3,26.172ZM23.818,31.4q0,.234-.366.469a4.36,4.36,0,0,0-.864,1.362,37.383,37.383,0,0,1-2.651,4.5q-1.611,2.4-3.267,4.409a.265.265,0,0,1-.234.146,2.993,2.993,0,0,1-.85-.322q-.85-.4-.85-.513a.4.4,0,0,1,.1-.19,35.089,35.089,0,0,0,6.211-9.448H10.371l-4.1.059q-.249,0-.249-.234V30.273q0-.234.249-.234l4.1.059H21.226a1.878,1.878,0,0,0,.762-.117.691.691,0,0,1,.293-.088q.264,0,.879.571Q23.818,31.123,23.818,31.4Zm-3.252-4.98a.207.207,0,0,1-.234.234L17.065,26.6H12.979l-3.3.059a.207.207,0,0,1-.234-.234V25.088a.207.207,0,0,1,.234-.234l3.3.059h4.087l3.267-.059a.207.207,0,0,1,.234.234ZM53.848,40.864a.207.207,0,0,1-.234.234h-1.45a.207.207,0,0,1-.234-.234V39.033H38.042v1.89q0,.234-.205.234H36.357a.207.207,0,0,1-.234-.234l.059-10.283V24.854l-.059-7.559q0-.249.234-.249l4.175.059h8.906l4.175-.059q.234,0,.234.249l-.059,6.8V30.64Zm-1.919-3.545V28.633H38.042v8.687Zm0-10.371v-8.13H38.042v8.13ZM69.39,23.8a88.975,88.975,0,0,1-5.669,16.8l-1.978-.776a79.827,79.827,0,0,0,5.493-15.879q-1.816.132-5.522.483l-.117-1.89q1.1-.073,3.252-.205,1.978-.132,2.813-.19.557-2.534,1.143-5.962l2.124.293q-.659,3.428-1.143,5.552,1.685-.117,3.062-.117a3.061,3.061,0,0,1,2.739,1.216,7.847,7.847,0,0,1,.864,4.248q0,7.515-.937,10.649a3.808,3.808,0,0,1-1.362,2.153,3.916,3.916,0,0,1-2.3.6,19.82,19.82,0,0,1-3.047-.234l-.366-2.095A13.319,13.319,0,0,0,71.1,38.8a3.15,3.15,0,0,0,1.6-.308,1.93,1.93,0,0,0,.718-1.04q.952-2.93.952-9.785a7.543,7.543,0,0,0-.469-3.3,1.527,1.527,0,0,0-1.45-.688Q71.074,23.682,69.39,23.8Zm7.661-3.926,1.919-.85A41.369,41.369,0,0,1,83.5,29.8l-2.124.864A36.872,36.872,0,0,0,77.051,19.873Zm13.784-2.344.864-1.714a46.706,46.706,0,0,1,9.331,2.71l-1.069,1.86A44.719,44.719,0,0,0,90.835,17.529Zm-.63,3.691q-.7,6.987-.864,9.126l-.308,1.641.688-1.113a10.554,10.554,0,0,1,3.6-2.725,9.146,9.146,0,0,1,3.809-.835,7.176,7.176,0,0,1,5.156,1.758,5.7,5.7,0,0,1,1.685,4.321,6.851,6.851,0,0,1-1.04,3.94,7.224,7.224,0,0,1-2.563,2.183,14.569,14.569,0,0,1-4.482,1.318,39.677,39.677,0,0,1-5.112.483l-.688-2.007q6.035-.1,8.73-1.509a5.473,5.473,0,0,0,2.241-1.9,5.275,5.275,0,0,0,.63-2.71,3.841,3.841,0,0,0-1.318-3.032,4.6,4.6,0,0,0-3.12-1.04,8.39,8.39,0,0,0-6.328,3.018,8.706,8.706,0,0,0-1.641,2.593l-2.227-.4q.22-4.307,1.055-13.418Zm30.029,4.263q0,.249-.234.249l-3.574-.073h-.835a31.389,31.389,0,0,0,4.131,5.8,4.748,4.748,0,0,0-.747,1.2q-.176.352-.293.352t-.308-.308a33.468,33.468,0,0,1-3.354-5.815q.015,5.142.132,10.869.029,1.348.088,3.193.015.879.015.967,0,.249-.234.249h-1.509q-.234,0-.234-.249l.059-2.344q.19-6.812.205-12.612a40.635,40.635,0,0,1-5.1,9.771q-.22.308-.322.308-.176,0-.308-.337a3.9,3.9,0,0,0-.806-1.23,38.559,38.559,0,0,0,5.874-9.814h-1.436l-3.574.073q-.205,0-.205-.249V24.312q0-.234.205-.234l3.574.059h1.948V19.419q-1.685.5-3.867.938a3.761,3.761,0,0,1-.4.044q-.234,0-.483-.469a3.652,3.652,0,0,0-.718-.894,39.333,39.333,0,0,0,5.479-1.274,26.446,26.446,0,0,0,3.53-1.3,5.948,5.948,0,0,0,1.348-.879,12.134,12.134,0,0,1,1.289,1.055.749.749,0,0,1,.264.513q0,.22-.483.264a5.329,5.329,0,0,0-1.289.4q-1.157.483-2.9,1.084v5.244h1.26L120,24.077a.207.207,0,0,1,.234.234Zm14.224,14.634a.628.628,0,0,1,.029.161q0,.132-.308.264l-.894.381a1.371,1.371,0,0,1-.41.161q-.088,0-.161-.19L131.66,38.11q-4.292.879-12.114,2.183a1.976,1.976,0,0,0-1.084.4.616.616,0,0,1-.439.205q-.22,0-.366-.4a15.1,15.1,0,0,1-.571-1.934,24.556,24.556,0,0,0,2.8-.19,160.4,160.4,0,0,0,4.6-18.618,17.845,17.845,0,0,0,.337-3.164q0-.132.015-.381a12.7,12.7,0,0,1,2.021.483q.425.146.425.352a.808.808,0,0,1-.146.454,3.626,3.626,0,0,0-.571,1.523,190.493,190.493,0,0,1-4.731,19.116q5.024-.645,9.2-1.523-1.421-3.208-3.281-6.519a.364.364,0,0,1-.059-.146q0-.117.264-.234l.776-.4a1.41,1.41,0,0,1,.352-.146q.073,0,.161.146A61.934,61.934,0,0,1,134.458,40.117Zm8-10.854q-1.494,0-4.556-.059V27.285q1.26.059,4.746.059l.469-4.893q-2.153,0-5.039-.059V20.474q2.549.146,5.229.146.1-.908.264-2.476.19-1.743.234-2.271l2.168.161q-.1.967-.264,2.5-.176,1.611-.22,2.051,3.091-.029,8.071-.337l.029,1.919q-3.94.249-8.306.249-.161,1.787-.542,4.893,4.79-.059,8.525-.337V28.9q-4.629.293-8.7.337a70.122,70.122,0,0,0-.483,7.046,3.017,3.017,0,0,0,1.069,2.637,5.835,5.835,0,0,0,3.281.718,8.151,8.151,0,0,0,4.731-1.128,3.238,3.238,0,0,0,1.392-2.769,6.627,6.627,0,0,0-1.743-4.321l1.978-.747A7.477,7.477,0,0,1,156.8,35.62q0,6.035-8.364,6.035-3.794,0-5.259-1.553a5.426,5.426,0,0,1-1.157-3.823Q142.017,33.936,142.456,29.263ZM1.8,58.188H18.325q-.088,10.737-3.867,16.084Q11.309,78.711,4.38,81.26l-1.26-1.8q6.826-2.4,9.756-6.958,2.915-4.526,2.93-12.3H1.8Zm25.02-1.26V71.636H24.507V56.929Zm-.85,22.5q5.42-1.157,7.441-3.882,1.919-2.593,1.919-7.852V56.753h2.314V68q0,6.489-2.9,9.551-2.4,2.534-7.69,3.677ZM43.052,67.7H59.37v2.227H43.052Zm21.489-10.43H78.135v2.007H64.541ZM62.71,63.652H79.658q-.337,8.569-4.189,12.773-3.047,3.34-9.214,4.863l-1.084-1.714q6.167-1.509,9.082-5.171a14.817,14.817,0,0,0,2.915-8.745H62.71Zm22.31-5.01a51.406,51.406,0,0,1,7.046,4.468l-1.494,1.978a43.621,43.621,0,0,0-6.9-4.673Zm15.117,1.494,2.256,1.084a24.452,24.452,0,0,1-5.581,12.437,23.864,23.864,0,0,1-11.968,6.914l-1.025-2.036Q97.9,75.063,100.137,60.137Zm17.109,11.279a26.988,26.988,0,0,1-10.708,9.478l-1.318-1.729a26.338,26.338,0,0,0,9.8-8.423,30.345,30.345,0,0,0,4.395-10.811h-12.6V57.925h15.557a40.253,40.253,0,0,1-3.955,11.484,67.383,67.383,0,0,1,6.987,10.078l-2.212,1.406A53.842,53.842,0,0,0,117.246,71.416Zm-80,31.606V96.064h2.285v6.445L51.021,99.9l1.26,1.611a37.473,37.473,0,0,1-6.357,11.323l-1.89-1.2a27.675,27.675,0,0,0,5.435-9.272L39.536,104.6v10.811q0,2.021,1.04,2.549a9.9,9.9,0,0,0,3.691.439q3.311,0,6.958-.352v2.212q-3.193.22-7.427.22-4.16,0-5.464-1.26-1.084-1.025-1.084-3.75V105.117l-5.1,1.143-.6-1.948ZM58.14,97.266H71.733v2.007H58.14Zm-1.831,6.387H73.257q-.337,8.569-4.189,12.773-3.047,3.34-9.214,4.863l-1.084-1.714q6.167-1.509,9.082-5.171a14.817,14.817,0,0,0,2.915-8.745H56.309Zm24.727,5.757v6.416q0,2.153,1.289,2.373a24.334,24.334,0,0,0,4.38.308q3.018,0,6.65-.366V120.4q-3.984.205-7.222.205a23.1,23.1,0,0,1-5.229-.425q-2.153-.469-2.153-3.662v-19.5h2.285v10.3a32.4,32.4,0,0,0,9.36-6.152l1.523,1.831A38.667,38.667,0,0,1,81.035,109.409ZM92.886,93.926a3.2,3.2,0,0,1,2.49,1.113,3.245,3.245,0,0,1,.864,2.256,3.362,3.362,0,0,1-6.724,0,3.365,3.365,0,0,1,3.369-3.369Zm0,1.289a1.984,1.984,0,0,0-1.553.674,2.03,2.03,0,0,0-.527,1.406,1.968,1.968,0,0,0,.674,1.538,2.03,2.03,0,0,0,1.406.527,1.968,1.968,0,0,0,1.538-.674,2.011,2.011,0,0,0,.527-1.392,1.984,1.984,0,0,0-.674-1.553A2.011,2.011,0,0,0,92.886,95.215Zm16.934,16.2a26.988,26.988,0,0,1-10.708,9.478l-1.318-1.729a26.338,26.338,0,0,0,9.8-8.423,30.345,30.345,0,0,0,4.395-10.811H99.39V97.925h15.557a40.253,40.253,0,0,1-3.955,11.484,67.383,67.383,0,0,1,6.987,10.078l-2.212,1.406A53.842,53.842,0,0,0,109.819,111.416Zm17.227-4.468V121.2h-2.314V96.035h2.314v8.7a46.721,46.721,0,0,1,11.426,4.761l-1.143,2.168A37.918,37.918,0,0,0,127.046,106.948Z" transform="translate(178 10918)" fill="#215f87"/>
  </g>
</svg>
