<svg xmlns="http://www.w3.org/2000/svg" xmlns:xlink="http://www.w3.org/1999/xlink" width="187.441" height="238.778" viewBox="0 0 187.441 238.778">
  <defs>
    <clipPath id="clip-path">
      <rect id="Прямоугольник_180" data-name="Прямоугольник 180" width="187.441" height="238.778" fill="none"/>
    </clipPath>
  </defs>
  <g id="Сгруппировать_376" data-name="Сгруппировать 376" transform="translate(-152.559 -10841)">
    <g id="Сгруппировать_280" data-name="Сгруппировать 280" transform="translate(152.559 10841)">
      <g id="Сгруппировать_279" data-name="Сгруппировать 279" clip-path="url(#clip-path)">
        <path id="Контур_1458" data-name="Контур 1458" d="M187.424,124.189c.42-20.942-7.1-27.646-7.1-27.646C168,85.567,160.775,69.469,164.266,60.768V51.779A51.882,51.882,0,0,0,112.281,0C83.57,0,64.456,28.375,58.241,39.6S37.586,64.266,27.992,72.218c-23.55,19.52-26.754,50.437-7.156,69.055,7.287,6.923,12.3,13.287,22.323,28.348S43.241,193.2,59.885,209.4c21.7,21.138,62.327,24.706,77.727,7.2,5.6-6.367,7.531-14.886,7.531-14.886,3.644-16.093,17.525-37.225,30.847-46.96,0,0,10.981-8.024,11.434-30.573" fill="#ffedb0"/>
        <path id="Контур_1459" data-name="Контур 1459" d="M156.424,74.665a12.737,12.737,0,0,1,.842-3.9v-4" fill="none" stroke="#fdaab3" stroke-linecap="round" stroke-linejoin="round" stroke-width="2"/>
        <path id="Контур_1460" data-name="Контур 1460" d="M157.177,58.726A51.9,51.9,0,0,0,105.28,10C76.57,10,57.456,38.376,51.241,49.6S30.586,74.267,20.992,82.219c-23.551,19.52-26.755,50.437-7.156,69.055,7.287,6.923,12.3,13.286,22.322,28.347s.083,23.578,16.726,39.785c21.706,21.137,62.327,24.706,77.728,7.2,5.6-6.367,7.531-14.886,7.531-14.886,3.644-16.093,17.525-37.225,30.847-46.96,0,0,10.981-8.024,11.434-30.573.42-20.943-7.1-27.647-7.1-27.647-9.172-8.17-15.519-19.179-16.724-27.862" fill="none" stroke="#fdaab3" stroke-linecap="round" stroke-linejoin="round" stroke-width="2" stroke-dasharray="8.045 8.045"/>
      </g>
    </g>
    <path id="Контур_1746" data-name="Контур 1746" d="M12.393-9.521q-1.172.439-2.388.879A14.074,14.074,0,0,1,7.588-8a.881.881,0,0,1-.937-.337A3.21,3.21,0,0,1,6.182-9.1a.583.583,0,0,1,.029-.542q.117-.205.938-.337a11.921,11.921,0,0,0,1.509-.337l1.523-.454a18.1,18.1,0,0,0,2.329-.952q.029-.85.029-1.509t-.029-1.538a19.668,19.668,0,0,0-2.007.249A20.135,20.135,0,0,0,8.13-14q-1.011.293-2.124.645a1.078,1.078,0,0,1-.527.146.7.7,0,0,1-.5-.234,1.79,1.79,0,0,1-.381-.586,1.259,1.259,0,0,1-.088-.7,2.1,2.1,0,0,1,1.216-.718A26.053,26.053,0,0,1,8.467-16.1a36.909,36.909,0,0,1,3.867-.513,8.49,8.49,0,0,0-.176-1.26q.029-.352.469-.439a.553.553,0,0,1,.176-.029,1.136,1.136,0,0,1,.674.264,2.6,2.6,0,0,1,.7,1.289q.85.117,1.113.146a1.65,1.65,0,0,1,.63.308.845.845,0,0,1,.322.586,2.975,2.975,0,0,1-.015.776q-1,0-1.963-.029.029.938.059,2.549.557-.234,1.2-.527a1.412,1.412,0,0,1,.425.439,1.168,1.168,0,0,1,.146.762,1.305,1.305,0,0,1-.4.82,6.263,6.263,0,0,1-1.582.85,14.45,14.45,0,0,0-.19,1.758q-.044.908-.308,3.047,1.582-.176,2.769-.293a7.776,7.776,0,0,1,1.919,0,1.933,1.933,0,0,1,.264.864.74.74,0,0,1-.19.425,1.415,1.415,0,0,1-.806.249q-.645.073-2.051.337a13.034,13.034,0,0,0-2.021.5Q13.3-2.139,13.1-1.289A3.648,3.648,0,0,1,12.437.234a2.34,2.34,0,0,1-1.45.908,3.262,3.262,0,0,1-2.109-.059A4.261,4.261,0,0,1,7.178.015,4.863,4.863,0,0,1,6.255-1.3a1.023,1.023,0,0,1-.073-.952A2.121,2.121,0,0,1,7-3.047a15.1,15.1,0,0,1,1.45-.806,12.069,12.069,0,0,1,1.626-.659q.82-.264,1.7-.557.234-1.084.322-1.831T12.393-9.521ZM11.484-2.93a9.355,9.355,0,0,0-1.816.645A4.4,4.4,0,0,0,8.2-1.318a2.1,2.1,0,0,0,.835,1,1.157,1.157,0,0,0,1.128,0,1.99,1.99,0,0,0,.923-1.143A9.2,9.2,0,0,0,11.484-2.93ZM35.391-12.1a8.64,8.64,0,0,0,.615-2.344,27.009,27.009,0,0,0-3.237.557,21.6,21.6,0,0,0-3.105.85q-.952.381-2.534,1.025a6.09,6.09,0,0,1-.732.308.727.727,0,0,1-.7-.1,1.329,1.329,0,0,1-.469-.63,2.154,2.154,0,0,1-.146-.747,5.112,5.112,0,0,1,.747-.6,18.171,18.171,0,0,1,2.637-.82q2.329-.63,4.321-1.025t3.4-.688q0-.469-.015-.835a2.941,2.941,0,0,0-.161-.806,1.1,1.1,0,0,1,.146-.908q.234-.234.82-.029a1.1,1.1,0,0,1,.732.586,8.234,8.234,0,0,1,.439,1.582q2.2-.264,3.281-.439a1.5,1.5,0,0,1,.967.088q-.029-.352-.059-.791A10.647,10.647,0,0,1,42.3-19.6q.117-.5.41-.5h.059a1.636,1.636,0,0,1,.762.41,1.507,1.507,0,0,1,.439,1.143q.264,2.256.322,4.219a1.36,1.36,0,0,1-1.494-.439l-.117-.41a14.078,14.078,0,0,0-1.582.029q-.879.059-2.988.381-.352,1.875-1.025,4.219A8.874,8.874,0,0,1,37.852-7.4a11.983,11.983,0,0,1-.264,3q-.381,2.051-.762,3.472t-.732,2.886a3.044,3.044,0,0,1-.6.923.622.622,0,0,1-.645.132,3.073,3.073,0,0,1-.776-.4q-.41-.278.029-1.333a16.787,16.787,0,0,0,1.245-3.706,28.947,28.947,0,0,0,.571-3.062A3.9,3.9,0,0,0,35.8-7.031,8.511,8.511,0,0,1,35.068-5.3a9.746,9.746,0,0,1-1.494,1.787,1.1,1.1,0,0,1-1.348.234,3.035,3.035,0,0,1-1.934-2.153,6.329,6.329,0,0,1,.146-3,4.313,4.313,0,0,1,1.611-2.432,7.613,7.613,0,0,1,1.934-1.1A2.857,2.857,0,0,1,35.391-12.1Zm-.5,1.9a4.627,4.627,0,0,0-1.772.864,3.454,3.454,0,0,0-1.069,1.392,4.26,4.26,0,0,0-.337,1.523,1.669,1.669,0,0,0,.513,1.26A8.615,8.615,0,0,0,33.853-7.28,12.771,12.771,0,0,0,34.893-10.2Zm12.1-4.717a6.426,6.426,0,0,1-1.406-3.574.739.739,0,0,1,.469-.674,1.119,1.119,0,0,1,.82.088q.7,2.139,1.318,3.721a.846.846,0,0,1-.176.469.6.6,0,0,1-.41.205A.907.907,0,0,1,46.992-14.912ZM66.123-7.119q.322-3.047.41-6.152-1,.322-1.523.469t-2.93.732a1.584,1.584,0,0,1-.688.073q-.308-.044-.615-.674a2,2,0,0,1-.278-.923.581.581,0,0,1,.234-.439,1.4,1.4,0,0,1,.7-.176q1.465-.264,2.783-.513t2.432-.483q.059-.85.176-1.934a1.363,1.363,0,0,1,.7-.234.581.581,0,0,1,.264.059.967.967,0,0,1,.586.586A6.787,6.787,0,0,1,68.7-15.5q.205-.059.542-.19a2.436,2.436,0,0,1,.688-.161.983.983,0,0,1,.674.205,1.338,1.338,0,0,1,.439.879,2.75,2.75,0,0,1-1.055.6q-.557.161-1.289.4a7.288,7.288,0,0,0-.22,1.392q-.073.894-.249,2.271a25.2,25.2,0,0,0-.205,2.549,14.38,14.38,0,0,0,1.714-.176q.923-.146,1.6-.234a2.476,2.476,0,0,1,1.26.146,3.69,3.69,0,0,1,.205.776q.029.278-.322.425a5.521,5.521,0,0,1-.85.264q-.5.117-1.157.234t-2.417.645a15.708,15.708,0,0,0-.337,1.685,6.607,6.607,0,0,1-.571,1.714,2,2,0,0,1-2.7,1.26A3.693,3.693,0,0,1,62.5-2.183a3.875,3.875,0,0,1-.776-2.124A1.894,1.894,0,0,1,63.252-6.27Q64.775-6.768,66.123-7.119ZM65.859-5.01a6.919,6.919,0,0,0-.835.278,2.328,2.328,0,0,0-.806.513q-.7.352-.557.908a1.041,1.041,0,0,0,.85.791.947.947,0,0,0,.967-.586Q65.654-3.955,65.859-5.01ZM57.217-.586A1.14,1.14,0,0,1,57.8.132a1.231,1.231,0,0,1-.176.952,1.63,1.63,0,0,1-1.465.557l-1.055-.205Q53.936,1.23,53.086-.674a11.766,11.766,0,0,1-.937-4.541,30.971,30.971,0,0,1,.293-5.376q.381-2.681.645-4.673a.828.828,0,0,1,.264-.527.651.651,0,0,1,.366-.117,1.952,1.952,0,0,1,.688.249,1.064,1.064,0,0,1,.6.791,2.339,2.339,0,0,1-.015,1.011q-.352,2.021-.615,3.823T54.023-6.65a15.753,15.753,0,0,0,.1,2.988,11.323,11.323,0,0,0,.63,2.549,3.127,3.127,0,0,0,.352.674.706.706,0,0,0,.674.264,2.253,2.253,0,0,0,.791-.176A4.277,4.277,0,0,1,57.217-.586ZM84.668-12.48q1.758-.381,3.677-.659t5.024-.6A9.714,9.714,0,0,1,92.3-15.015q-.659-.894-1.948-2.593a3.912,3.912,0,0,1-.615-1.318.912.912,0,0,1,.264-.85.492.492,0,0,1,.5-.132.879.879,0,0,1,.469.278,8.578,8.578,0,0,1,.967,1.143,5.392,5.392,0,0,0,.791,1.113,2.168,2.168,0,0,0,.249-.82,11.689,11.689,0,0,0,.015-1.377,4.146,4.146,0,0,1,.044-.615.641.641,0,0,1,.366-.469,1.083,1.083,0,0,1,1.113.557,2.526,2.526,0,0,1,.264,1.26,18.747,18.747,0,0,1-.7,3.223q.586.85,1.67,2.139l.41.469q1.406,1.582,2.915,3.237a16.712,16.712,0,0,0,2.021,2.007,10.612,10.612,0,0,1,1.421,1.289.994.994,0,0,1,.41.674.946.946,0,0,1-.41,1.113A.532.532,0,0,1,102-4.717a1.849,1.849,0,0,1-.454-.381q-3.486-3.486-7.119-7.617-.205-.205-.41-.439a3.945,3.945,0,0,1,.059.645,1.649,1.649,0,0,1-.117.469q-.146.41-.791.264l-.322-.029a15.094,15.094,0,0,0-2.812.146,20.251,20.251,0,0,0-2.725.571q-1.143.337-1.582.483a.974.974,0,0,1-.85-.1,2.1,2.1,0,0,1-.732-.923q-.586.85-1.729,2.432T79.8-5.42q-.645.967-1.318,1.9Q77.7-2.373,76.9-1.318,76.23-.41,75.5-1.2a2.3,2.3,0,0,1-.322-.41.5.5,0,0,1-.029-.439,1.693,1.693,0,0,1,.322-.439q1.494-2.051,3.311-4.629t3.076-4.38q1.26-1.8,1.611-2.358-.264-.205-.527-.454a11.023,11.023,0,0,1-.85-.981,1.541,1.541,0,0,1-.234-.586.908.908,0,0,1,.176-.674.566.566,0,0,1,.615-.22,1.766,1.766,0,0,1,.674.249,10.053,10.053,0,0,0,1.318.967,26.13,26.13,0,0,0,2.373-4.16,3.949,3.949,0,0,0-1.289.264q-.908.293-2.314.879a1.075,1.075,0,0,1-.879.352q-.352-.088-.674-.674a1.424,1.424,0,0,1-.352-.894q.059-.278.85-.63,2.49-.732,4.863-1.523a1.938,1.938,0,0,1,.557-.088,1.635,1.635,0,0,1,1.055.41,1.121,1.121,0,0,1,.41,1.2,14.013,14.013,0,0,1-1.348,2.959q-.967,1.67-1.816,3A17.978,17.978,0,0,1,84.668-12.48Zm8.906,6.416a3.334,3.334,0,0,1-.205,1.04,1.07,1.07,0,0,1-.732.63Q90.176-3.75,87.6-3.047a2.063,2.063,0,0,1-.879-.205,4.777,4.777,0,0,1-1.465-1.7A15.636,15.636,0,0,1,84.521-7q-.146-.586-.322-1.26.146-.791.6-.835a1.6,1.6,0,0,1,.981.278,18.992,18.992,0,0,1,3.105-.7q2.168-.381,3.4-.469a3.476,3.476,0,0,1,1.963.264.907.907,0,0,1,.6.615,1.756,1.756,0,0,1-.1.894A15.278,15.278,0,0,1,93.574-6.064ZM92.7-8.408a14.846,14.846,0,0,0-3.442.454,23.99,23.99,0,0,0-2.944.864,4.432,4.432,0,0,0,.278,1.377,2.419,2.419,0,0,0,.718.938q1.934-.439,2.681-.63a8.581,8.581,0,0,0,1.6-.6A5.494,5.494,0,0,0,92.7-8.408Zm-4.482,9.7A10.139,10.139,0,0,1,86.514.5a7.075,7.075,0,0,1-1.641-1.846.933.933,0,0,1,.059-.85.734.734,0,0,1,.527-.22,1.22,1.22,0,0,1,.527.161,2.793,2.793,0,0,1,1.055.762,5.305,5.305,0,0,0,.981,1.128,2.7,2.7,0,0,0,1.1.542q2.168-1.846,3.691-3.4a1.762,1.762,0,0,1,.513-.527.6.6,0,0,1,.688.029,2.113,2.113,0,0,1,.7.659.606.606,0,0,1,.029.806,6.551,6.551,0,0,1-.981,1.011q-.659.571-1.45,1.216a22.912,22.912,0,0,1-1.963,1.406q1.26-.176,2.578-.352T95.391.7A4.648,4.648,0,0,1,96.475,1q.5.205.469.483a.819.819,0,0,1-.22.483q-.19.205-1.011.205-2.754.293-5.479.85A28.906,28.906,0,0,0,87.1,3.75q-.41.176-1.2.557A1.757,1.757,0,0,1,85,4.438q-.278-.073-.923-1.1a.724.724,0,0,1,.117-.688.943.943,0,0,1,.645-.366q1.318-.264,2.666-.586A4.144,4.144,0,0,0,88.213,1.289Zm9.17-15.381a1.619,1.619,0,0,1-.322-.146q-.7-.293-.615-.645.205-.381.776-1.23t1.45-2.109a.787.787,0,0,1,1.23-.146,1.282,1.282,0,0,1,.059,2.051q-.439.5-.879.938-.205.176-.381.352A5.436,5.436,0,0,1,97.383-14.092ZM118.037-8.35q1.875-.732,3.413-1.362t2.944-1.26a16.288,16.288,0,0,0,2.168-1.128,4.224,4.224,0,0,0,.469-1.084,4.747,4.747,0,0,0,.176-1.113v-.322a1.61,1.61,0,0,0-.747.161q-.454.19-1.406.645t-2.358,1.1a1.6,1.6,0,0,1-1-.088q-.557-.146-.557-.586a2.823,2.823,0,0,1,.176-.937q2.783-.908,4.248-1.421a10.023,10.023,0,0,0,1.992-.864,9.728,9.728,0,0,0,.234-1.523,2.652,2.652,0,0,0-.059-1.23,23.8,23.8,0,0,0-3.618,1.216,20.615,20.615,0,0,0-2.681,1.245q-.352.117-.659.249a.853.853,0,0,1-.674-.015.754.754,0,0,1-.469-.542q-.1-.4-.19-.688a25.245,25.245,0,0,1,3.442-1.553q2.095-.791,5.142-1.934a1.593,1.593,0,0,1,.439-.059,2.053,2.053,0,0,1,.645.117,1.039,1.039,0,0,1,.586,1.055,22.9,22.9,0,0,1-.146,3.428q-.059.615-.146,1.26-.176,1.26-.41,2.7a4.777,4.777,0,0,1,1.26-.264,1.117,1.117,0,0,1,.879.615.736.736,0,0,1-.073.586.679.679,0,0,1-.6.322q-.967.41-2.666.967l.293.381q-.029.967-.146,1.948a16.665,16.665,0,0,0-.117,1.978q-.059,2.93-.278,5.171t-.425,3.706a.931.931,0,0,1-.762,1.084,1.264,1.264,0,0,1-1.26-.264q-.322-.322-.791-.732a2.135,2.135,0,0,1-.645-1.157,7.268,7.268,0,0,1-.146-1.831,7.826,7.826,0,0,1,1.816,1.7,3.157,3.157,0,0,0,.205-.967q.088-.762.205-1.846a19.889,19.889,0,0,0,.117-2.139q-1.172,1.2-1.729,1.816T121.377.967a1.657,1.657,0,0,1-1.289.41,1.015,1.015,0,0,1-.82-.7,1.465,1.465,0,0,1,.234-.908q2.051-1.729,3.721-2.886a30.8,30.8,0,0,1,2.813-1.772q.059-2.52.059-5.01-.293.117-1.729.732t-2.578,1.157q-1.143.542-1.7.864l-.732.293q-.264.117-.85-.425A1.133,1.133,0,0,1,118.037-8.35Zm11.982,4.16A17.506,17.506,0,0,1,132.173-2.7a20.972,20.972,0,0,1,2.036,2.168q-.176.586-.527.659a1.515,1.515,0,0,1-.747-.044,1.175,1.175,0,0,1-.571-.322q-.762-.7-1.626-1.362a22.58,22.58,0,0,0-1.919-1.3q-1.582-.439-.586-1.875,1.758-2.285,3.545-4.57a.743.743,0,0,1,.352-.308.6.6,0,0,1,.5-.044,1,1,0,0,1,.732.762,1.624,1.624,0,0,1-.293.938q-1,1.23-2.08,2.49Q130.459-4.775,130.02-4.189Zm-6.357-.352a1.062,1.062,0,0,1-1.377.234,8.348,8.348,0,0,0-1-.659,3.421,3.421,0,0,1-.732-.513.709.709,0,0,1-.264-.542,1.47,1.47,0,0,1,.176-.776,1.507,1.507,0,0,1,1.025-.088,5.087,5.087,0,0,1,1.406.923A2.964,2.964,0,0,1,123.662-4.541Zm-10.078-12.51a25.441,25.441,0,0,0-1.86,2.856q-.923,1.626-1.772,3.032,3.135-.762,5.449-1.406a2.672,2.672,0,0,1,.747-.176q.366-.029.586.513a4.029,4.029,0,0,1,.278,1.04,25.549,25.549,0,0,1-2.49.791,10.6,10.6,0,0,1,.117,1.611l1.172-.234a1.541,1.541,0,0,1,.615.938l.088.293q0,.439-.322.527-.791.264-1.611.557-.117,1.465-.176,4.014.527-1.113.85-1.978a17.832,17.832,0,0,1,.762-1.743,2.2,2.2,0,0,1,1.025.19,1.329,1.329,0,0,1,.659.513.7.7,0,0,1-.132.732q-1.348,2.432-2.49,4.307.908-.205,1.934-.41a1.161,1.161,0,0,1,.293.513.633.633,0,0,1-.1.571.783.783,0,0,1-.513.322,10.525,10.525,0,0,1-1.758.85q-1.7.762-3.428,1.582a1.618,1.618,0,0,1-1.406.059,1.494,1.494,0,0,1-.513-.308.58.58,0,0,1-.205-.542q.044-.322.1-.674a30.2,30.2,0,0,0,3.164-1q-.059-.7-.088-1.377a3.9,3.9,0,0,1-2.637-1.436,4.269,4.269,0,0,1-.366-.732,1.2,1.2,0,0,1-.1-.674q.088-.264.615-.278a1.176,1.176,0,0,1,.82.234,2.245,2.245,0,0,1,.483.571,4.932,4.932,0,0,0,1.362,1.055,17.735,17.735,0,0,0-.059-3.6l-.029-.264q-.791.205-1.172.308a2.151,2.151,0,0,1-.908.015,1.126,1.126,0,0,1-.762-1.084.479.479,0,0,1,.293-.5,2.168,2.168,0,0,1,.527-.146q1.025-.322,2.168-.674a5.5,5.5,0,0,0-.205-1.553,12.729,12.729,0,0,0-1.8.41.853.853,0,0,1-.762-.073,1.551,1.551,0,0,1-.63-.688,22.527,22.527,0,0,0-1.187,2.036A20.443,20.443,0,0,0,106.992-5.6a5.7,5.7,0,0,0-.381,1.494,1.535,1.535,0,0,1-.366.659.629.629,0,0,1-.688.19,1.044,1.044,0,0,1-1-1.318q.117-.293.718-1.538t3.193-5.9q2.593-4.658,3.384-5.889T113-19.687q.381-.586.586-.586a1.352,1.352,0,0,1,.527.146,1.65,1.65,0,0,1,.557.41,1.206,1.206,0,0,1,.293.615,3.128,3.128,0,0,1-.586.82q1.377,1.436,2.329,2.5t1.479,1.567a1.036,1.036,0,0,1,.176,1.23.871.871,0,0,1-.806.015,1.649,1.649,0,0,1-.6-.454q-1.465-1.553-2.871-3.105Q113.789-16.816,113.584-17.051Zm-99.727,32.1a2.189,2.189,0,0,1,.469-.059,1.3,1.3,0,0,1,.41.059,1.243,1.243,0,0,1,.557.6,1.154,1.154,0,0,1,0,.952,22.689,22.689,0,0,0,3.545,3.574q1.377,1.172,2.783,2.285,1.465,1.143,2.988,2.2a49.01,49.01,0,0,0,4.365,2.754,1.357,1.357,0,0,1-.762,1.553,3.187,3.187,0,0,1-.981-.425q-.483-.308-3.53-2.329-1.9-1.289-3.779-2.783-1.084-.85-2.139-1.758-2.9-2.52-3.779-3.4-.264.41-1.479,1.978t-2.959,3.94q-1.743,2.373-3.823,5.449Q4.365,31.693,3.75,32.777q-.293.527-.439.82-.352.879-.645,1.7Q1.23,35.18,1.318,34.154a3.518,3.518,0,0,1,.117-.5,20.057,20.057,0,0,1,1.978-3.677q1.509-2.358,3.662-5.522t3.94-5.7A42.876,42.876,0,0,1,13.857,15.053Zm5.068,14.824q-.41,0-.937.029a21,21,0,0,0-3.208.7,10.27,10.27,0,0,0-2.886,1.406,4.583,4.583,0,0,1-.586.439q-1.172,1.084-1.992-.439a5.309,5.309,0,0,1-.146-.527,2.55,2.55,0,0,1,.645-.762A30.13,30.13,0,0,1,14.165,28.9a16.3,16.3,0,0,1,4.5-.806,4.653,4.653,0,0,1,1.04.117,1.9,1.9,0,0,1,1.333,1.685A2.494,2.494,0,0,1,20.83,30.9a16.48,16.48,0,0,1-1.816,3.34Q17.461,36.293,15.82,38.2a1.2,1.2,0,0,1-.439.308.755.755,0,0,1-.6.015.859.859,0,0,1-.425-.293,2.246,2.246,0,0,1-.234-.557A17.536,17.536,0,0,1,15.146,36,35.324,35.324,0,0,0,18.6,31.459,1.684,1.684,0,0,0,18.926,29.877ZM17.549,25.16q-.41.059-.791.117-.645.088-1.2.146-1.7.381-3.369.645a1.216,1.216,0,0,1-1.523-.967q-.264-.967.762-1.113,2.373-.205,4.717-.264a1.7,1.7,0,0,1,.718.044.694.694,0,0,1,.542.513,2.56,2.56,0,0,1,.117.557ZM49.922,37.143a14.663,14.663,0,0,1,.322-1.875q-1.172.322-2.915.85t-3.267.894a17.488,17.488,0,0,0-2.52.776.954.954,0,0,1-1.084.029,3.248,3.248,0,0,1-2.2-2.7,29.544,29.544,0,0,1-.322-3.457V30.346q.029-1.143.117-2.373.146-1.992.469-4.629t.615-4.248q.059-.82.732-.82a1.49,1.49,0,0,1,.293.029,1.527,1.527,0,0,1,.967,1.523q-.088.645-.117,1.084.264-.088,1.245-.425t2.3-.762a24.094,24.094,0,0,1,2.974-.732q1.655-.308,3.882-.63a3.36,3.36,0,0,1,.41-.029q1.406,0,1.465,1.641.029.82.029,1.523,0,.41-.029.791-.059.967-.161,3.428t-.483,5.8q-.381,3.34-.615,4.482a4.034,4.034,0,0,1-.278.908.793.793,0,0,1-.7.557A2.152,2.152,0,0,1,49.922,37.143ZM39.9,31.928a22.607,22.607,0,0,0,.293,3.311,2.025,2.025,0,0,0,.264.762,12.537,12.537,0,0,0,1.919-.381q1.567-.381,3.6-.85t2.856-.718a3.564,3.564,0,0,1,1.494-.161,44.494,44.494,0,0,0,.645-5.713,9.216,9.216,0,0,0-3.091.161,29.134,29.134,0,0,0-3.911.85,13.252,13.252,0,0,0-2.227.835,1.657,1.657,0,0,1-1.758-.352Q39.9,31.02,39.9,31.928Zm2.871-4.248q1.875-.469,4.146-.894a20.345,20.345,0,0,1,2.739-.41,4.338,4.338,0,0,1,1.494.513q.176-1.7.205-2.959.029-.762.059-1.348v-.791A4.3,4.3,0,0,0,51.24,20.3a5.362,5.362,0,0,0-1.348.1,35.841,35.841,0,0,0-3.589.82,10.471,10.471,0,0,0-3.237,1.245,2.548,2.548,0,0,1-.85.308,1.267,1.267,0,0,1-.879-.19,3.737,3.737,0,0,1-.527-.352,9.215,9.215,0,0,0-.352,2.08q-.146,1.553-.381,4.1.732-.234,2.344-.645A2.314,2.314,0,0,0,42.773,27.68Zm26.221,4.893a4.635,4.635,0,0,0,1.084.264,9.778,9.778,0,0,0,2.725-2.93A12,12,0,0,0,74,27.255a9,9,0,0,0,.322-1.509q.059-.439-.659-.6a5.174,5.174,0,0,0-1.45-.117,7.939,7.939,0,0,0-1.992.483q-.557,1.172-1.2,2.842t-1.509,3.633q-.864,1.963-1.128,2.637-.352.674-.615.688a1.972,1.972,0,0,1-.6-.073,1.047,1.047,0,0,1-.586-.439.8.8,0,0,1-.132-.732,18.8,18.8,0,0,1,.835-2.212q.688-1.626,1.128-2.7t1.143-2.681a8.2,8.2,0,0,0-1.318.615,12.525,12.525,0,0,0-1.553,1.025,1.124,1.124,0,0,1-1,.322,2.083,2.083,0,0,1-.85-.439,1.175,1.175,0,0,1-.439-.615q-.059-.293.527-.762a16.942,16.942,0,0,1,2.417-1.333q1.216-.542,3.149-1.216.7-1.846,1.26-3.223a1.467,1.467,0,0,1,.278-.527.682.682,0,0,1,.454-.205h.029a1.289,1.289,0,0,1,.527.117,2.012,2.012,0,0,1,.557.513.975.975,0,0,1,.278.6,1.4,1.4,0,0,1-.161.527q-.322.762-.762,1.7a7.511,7.511,0,0,1,2.549-.146,2.716,2.716,0,0,1,1.963,1.1,2.943,2.943,0,0,1,.645,1.948,8.33,8.33,0,0,1-.615,2.4,14.27,14.27,0,0,1-1.729,3.076,10.338,10.338,0,0,1-2.49,2.549,1.282,1.282,0,0,1-1.436.146,1.873,1.873,0,0,1-.791-1.011A1.711,1.711,0,0,1,68.994,32.572ZM78.369,21.41a1.684,1.684,0,0,1,1.055.234,2.194,2.194,0,0,1,.791.791q1.143,1.465,2.065,2.622t1.7,1.992a12.321,12.321,0,0,0,1.685,1.509,1.026,1.026,0,0,1,.322.674.606.606,0,0,1-.337.527.981.981,0,0,1-.688.146,1.046,1.046,0,0,1-.615-.352,14.479,14.479,0,0,1-2.49-2.4q-1.406-1.641-3.252-4.014a1.84,1.84,0,0,1-.527-.864A.762.762,0,0,1,78.369,21.41Zm22.646,7.969a1.4,1.4,0,0,0-1.187-.234,16.9,16.9,0,0,0-2.5.674,16.278,16.278,0,0,0-4.043,2.2q-1.055.82-1.67-.264a2.136,2.136,0,0,1-.439-1.26,33.343,33.343,0,0,1,.791-4.263,27.993,27.993,0,0,1,1.2-3.882q.352-.557.791-.425a1.778,1.778,0,0,1,.864.718,1.107,1.107,0,0,1,.293.967,2.678,2.678,0,0,1-.366.7,19.033,19.033,0,0,0-.967,2.637q-.352,1.26-.615,2.578,1.875-.791,3.223-1.274a16.5,16.5,0,0,1,2.314-.674,6.128,6.128,0,0,1,1.934-.073,2.75,2.75,0,0,1,2.007,1.26,2.7,2.7,0,0,1,.308,2.4,18.987,18.987,0,0,1-1.333,3.032,18.012,18.012,0,0,1-2.417,3.12q-1.113,1.084-1.787-.293a.981.981,0,0,1,.234-1.2,18.208,18.208,0,0,0,2.3-2.52,10.648,10.648,0,0,0,1-1.978A2.4,2.4,0,0,0,101.016,29.379ZM97.207,15.99a9.917,9.917,0,0,1,2.256,1.787,16.659,16.659,0,0,1,1.523,1.714,1.647,1.647,0,0,1,.352,1.04,1.682,1.682,0,0,1-.586.85,1.173,1.173,0,0,1-.937-.41A9.052,9.052,0,0,0,97.837,18.8a8.055,8.055,0,0,1-1.3-1.143,3.45,3.45,0,0,1-.249-.7.841.841,0,0,1,.132-.732,1.008,1.008,0,0,1,.645-.234ZM115.9,26.742q-2.021.732-3.281,1.26a14.478,14.478,0,0,0-2.373,1.26,1.285,1.285,0,0,1-1.934-.117.768.768,0,0,1,.176-1.318q1.084-.527,2.856-1.26T116.1,24.6q.176-1.26.249-2.563a12.809,12.809,0,0,0-.132-2.651q-1.611,1.67-2.4,2.607T112,24.018a1.229,1.229,0,0,1-.82.542.927.927,0,0,1-.747-.073.606.606,0,0,1-.19-.557,7.871,7.871,0,0,1,1.289-1.992q1.23-1.611,3.193-3.809t3.076-3.252a1.207,1.207,0,0,1,1.318,1.084.99.99,0,0,1-.044.659,1.184,1.184,0,0,1-.454.483,8.132,8.132,0,0,0-1.406,1.172,2.507,2.507,0,0,1,.718.718,2.415,2.415,0,0,1,.264,1.216,13.5,13.5,0,0,1-.073,1.655q-.088.835-.146,2.271.352-.117.894-.264a7.2,7.2,0,0,0,.952-.322,3.421,3.421,0,0,1,.674-.1.869.869,0,0,1,.645.308,1.6,1.6,0,0,1,.322.967.5.5,0,0,1-.264.366,1.339,1.339,0,0,1-.41.132q-1.113.352-2.93.938-.146,1.436-.234,2.52-.029.381-.059.7a7.712,7.712,0,0,0,2.183,1.318q1.187.469,1.6.645a1.1,1.1,0,0,1,.029.659.624.624,0,0,1-.352.425,1.007,1.007,0,0,1-.527.088,7.3,7.3,0,0,1-1.479-.278,16.02,16.02,0,0,1-1.655-.6q-.205,1.172-.4,2.813t-.337,3.6a1.18,1.18,0,0,1-.088.674.813.813,0,0,1-.586.469.85.85,0,0,1-.762-.146,1.313,1.313,0,0,1-.6-.571,1.191,1.191,0,0,1-.1-.806,11.9,11.9,0,0,0,.527-2.593q.176-1.6.557-4.409-1.875,2.373-2.71,3.252t-1.89,2.051a1.115,1.115,0,0,1-.85-.117,1.073,1.073,0,0,1-.366-.5.736.736,0,0,1,.073-.615q.234-.352,1.406-1.7.557-.645,1.172-1.377.674-.791,1.406-1.729,1.436-1.758,1.963-2.432Zm15.879,5.625A18.312,18.312,0,0,1,127.6,34.55q-2.476.952-5.2,1.772a1.2,1.2,0,0,1-1.436-.41,1.168,1.168,0,0,1,0-1.611q1.816-2.52,3.691-5.6a43.376,43.376,0,0,0,2.725-5.039,1.029,1.029,0,0,1,.278-.439.612.612,0,0,1,.425-.176,2.727,2.727,0,0,1,1.26.674.854.854,0,0,1,.059,1.143q-1.172,1.67-2.725,4.248t-2.959,4.658a17.062,17.062,0,0,0,2.095-.439,30.761,30.761,0,0,0,2.93-1.025,18.791,18.791,0,0,0,2.329-1.025,12.991,12.991,0,0,0-.762-1.23,2.137,2.137,0,0,1-.132-.63.505.505,0,0,1,.308-.483,1.581,1.581,0,0,1,1.025-.117,1.9,1.9,0,0,1,.879.732q1.025,2.139,1.9,3.662a5.727,5.727,0,0,1,.908,2.344.867.867,0,0,1-.469.7,1.3,1.3,0,0,1-.908-.322,8.867,8.867,0,0,1-.864-1.377Q132.48,33.656,131.777,32.367Zm15.967-11.133,1.172-.059a4.094,4.094,0,0,1,1.025.1,1.309,1.309,0,0,1,.659.425q.278.322.176.542a5.589,5.589,0,0,1-.425.688,10.641,10.641,0,0,0-1.6.132q-.864.132-1.685.337a13.272,13.272,0,0,0-.7,2.109q-.205.908-.527,2.344l1.816-.322q.762-.117,2.314-.205a.887.887,0,0,1,.41.806.923.923,0,0,1-.352.645,2.927,2.927,0,0,1-1,.4,24.984,24.984,0,0,0-3.34.908,8.664,8.664,0,0,0-.146,2.2q.088.732.234,1.494.381,2.168,2.4,1.289a17.089,17.089,0,0,0,1.553-.952q.791-.542,2.271-1.743t2.051-1.685a3.687,3.687,0,0,1,1.04-.659.34.34,0,0,1,.381.278,2.223,2.223,0,0,1,.044.571,3.8,3.8,0,0,1-.483,1.172,52.535,52.535,0,0,1-4.189,3.926,5.938,5.938,0,0,1-1.626,1.069,3.212,3.212,0,0,1-1.831.249,3.939,3.939,0,0,1-1.685-.82,5.493,5.493,0,0,1-1.23-1.421,4.164,4.164,0,0,1-.571-1.8q-.088-1.318-.205-2.607-.557.088-1.2.234a2.725,2.725,0,0,1-.806.117,1.025,1.025,0,0,1-.747-.322,1.454,1.454,0,0,1-.41-.732,2.908,2.908,0,0,1-.059-.82q1.7-.41,3.428-.85.293-1.025.5-2.139a15.162,15.162,0,0,1,.645-2.344q-1.641.381-2.959.645a2.253,2.253,0,0,1-.791.1,1.2,1.2,0,0,1-1.143-1.011q-.059-.41-.088-.85,1.494-.352,2.769-.6t2.8-.63a8.281,8.281,0,0,0,.5-1.494q.234-.937.732-2.49.264-.557.615-.615h.117a.893.893,0,0,1,.557.205,1.749,1.749,0,0,1,.454.674,1.61,1.61,0,0,1-.132,1.143Q148.125,19.916,147.744,21.234ZM15.527,59.227a14.775,14.775,0,0,0-1.685-.088,23.985,23.985,0,0,0-2.432.161,28.586,28.586,0,0,0-3.823.747,14.9,14.9,0,0,0-2.988.967q-.586.469-.908.352a1.589,1.589,0,0,1-.674-.615,1.7,1.7,0,0,1-.366-.85.723.723,0,0,1,.161-.542,1.021,1.021,0,0,1,.469-.278q2.109-.586,5.186-1.172a40.528,40.528,0,0,1,5.889-.7q.615-.029,1.289-.029a1.8,1.8,0,0,1,1.113.352,2.324,2.324,0,0,1,.967,1.084,1.926,1.926,0,0,1-.029,1.436,15.421,15.421,0,0,1-1.8,2.93q-1.509,2.109-3.428,4.614T9.229,71.883a1.147,1.147,0,0,1-.483.586.736.736,0,0,1-.806-.088,1.28,1.28,0,0,1-.586-.776,1.083,1.083,0,0,1,.117-.923q.85-1.025,2.637-3.34t4.365-5.859A22.656,22.656,0,0,0,15.527,59.227ZM33.75,53.1a1.49,1.49,0,0,1,.293-.029,1.129,1.129,0,0,1,.557.146,2.561,2.561,0,0,1,.586.527,1.261,1.261,0,0,1,.264,1.436q-.762,3.076-1.655,6.2t-2.065,6.606a46.554,46.554,0,0,0-1.816,7.559q0,.322-.029.645a.661.661,0,0,1-.322.513q-.293.19-.85-.1a1.2,1.2,0,0,1-.645-.967,9.25,9.25,0,0,1,.088-2.2,38.713,38.713,0,0,1,1.392-5.42q.894-2.666,1.89-6.094T32.9,56.678a11.835,11.835,0,0,0,.454-2.256,1.922,1.922,0,0,1,.088-.718A3.192,3.192,0,0,1,33.75,53.1Zm-8.994,2.314q.234-1.113,1.084-.557a1.687,1.687,0,0,1,.776.615,1.493,1.493,0,0,1,.278.85,2.507,2.507,0,0,1-.146.85,36.787,36.787,0,0,0-.469,4.072,3.51,3.51,0,0,0,.352,2.256,1.29,1.29,0,0,1,.352.674.554.554,0,0,1-.278.7.853.853,0,0,1-.747.146,3.706,3.706,0,0,1-1.025-.82,6.653,6.653,0,0,1-.659-3.867Q24.434,57.82,24.756,55.418Zm30.41,6.416a3.111,3.111,0,0,1,.63.63.538.538,0,0,1,.059.513q-.1.264-.776.469-.908.029-5.581.674t-5.229.674a2.576,2.576,0,0,0-1.025.469,1.556,1.556,0,0,1-.732.22.726.726,0,0,1-.615-.264,3.141,3.141,0,0,1-.381-.557,4.838,4.838,0,0,1-.264-.6.972.972,0,0,1,.469-1.025,4.743,4.743,0,0,1,1.113-.337q.586-.1,4.57-.425t5.244-.439q1.084-.088,1.553-.088h.146Q54.785,61.775,55.166,61.834Zm17.959,1.582a4.5,4.5,0,0,0-1.392-.425,10.891,10.891,0,0,0-2.988.234,15.193,15.193,0,0,0-3.545.981,13.4,13.4,0,0,0-1.86.938,4.283,4.283,0,0,1-.527.249.678.678,0,0,1-.586-.073,2.532,2.532,0,0,1-.762-1.23.663.663,0,0,1,.161-.41,1.481,1.481,0,0,1,.337-.322A21.21,21.21,0,0,1,65.889,62a23.719,23.719,0,0,1,5.449-.835,5.3,5.3,0,0,1,1.685.278,3.094,3.094,0,0,1,1.392.923,2.874,2.874,0,0,1,.571.82,1.591,1.591,0,0,1,.146.938,2.5,2.5,0,0,1-.366.938,20.18,20.18,0,0,1-2.373,3.076q-1.523,1.67-2.827,2.988a21.043,21.043,0,0,0-1.948,2.2,4.672,4.672,0,0,1-.5.527q-.176.146-.732-.088A1.73,1.73,0,0,1,65.625,73q-.117-.352.469-1.084,2.93-3.076,4.658-5.024T72.8,64.471A1.818,1.818,0,0,0,73.125,63.416Zm.381-7.324q-.322.234-.469.337t-.732-.073a2.526,2.526,0,0,0-1.553-.234q-1.055.088-2.168.249t-2.285.381a16.37,16.37,0,0,0-2.285.6,1.394,1.394,0,0,1-1.055-.19,1.307,1.307,0,0,1-.615-.894.623.623,0,0,1,.22-.586.98.98,0,0,1,.571-.293q1.406-.381,3.164-.674t3.311-.439q.967-.088,1.758-.088.469,0,.879.029a1.179,1.179,0,0,1,.981.645A2.712,2.712,0,0,1,73.506,56.092Zm25.518,6.5q-3.164,1.758-5.581,3.267a34.72,34.72,0,0,0-4.072,2.915q-1.655,1.406-3.267,2.9a1.553,1.553,0,0,1-.952.469,1.122,1.122,0,0,1-.952-.352,1.436,1.436,0,0,1-.513-.586.732.732,0,0,1,.029-.747,1.7,1.7,0,0,1,.542-.571q2.051-1.523,4.233-3.091T92.8,64a33.487,33.487,0,0,1,3.691-1.89,19.216,19.216,0,0,1,2.358-.864.586.586,0,0,1,.6.146.507.507,0,0,1,.073.586A1.484,1.484,0,0,1,99.023,62.6ZM82.734,56.678q1.318.527,1.963.864a29.237,29.237,0,0,1,2.637,1.772,1.564,1.564,0,0,1,.454,1.362q-.161.6-.41.542a2.008,2.008,0,0,1-.513-.205,21.6,21.6,0,0,0-2.021-1.26,12.4,12.4,0,0,0-1.553-.674,1.508,1.508,0,0,1-1.157-.864,2.57,2.57,0,0,1-.293-.937.887.887,0,0,1,.19-.483q.088-.146.41-.146A1.49,1.49,0,0,1,82.734,56.678Zm32.373.439a7.815,7.815,0,0,0-2.666-.044,12.486,12.486,0,0,0-3.325.776,6.993,6.993,0,0,0-1.89.967,1.2,1.2,0,0,1-.586.366.575.575,0,0,1-.425-.19,2.437,2.437,0,0,1-.425-.557,1.8,1.8,0,0,1-.176-.762q0-.381.527-.7A21.483,21.483,0,0,1,113.7,55.3a10.636,10.636,0,0,1,1.377.088,2.331,2.331,0,0,1,1.8,1.069,1.892,1.892,0,0,1,.073,2.036q-.967,1.758-1.729,2.9L113.7,63.68a22.511,22.511,0,0,0,2.93,3.882,15.017,15.017,0,0,0,1.963,1.772,3.83,3.83,0,0,0,.513.41.655.655,0,0,1,.249.483.775.775,0,0,1-.264.688,1.135,1.135,0,0,1-.732.352.866.866,0,0,1-.762-.234q-1.7-1.582-2.915-2.944a25.348,25.348,0,0,1-2.241-2.915q-.586.674-1.611,2.021t-2.095,2.769q-1.069,1.421-1.538,2.007a.761.761,0,0,1-.732.366,2.437,2.437,0,0,1-.85-.381.814.814,0,0,1-.264-1.011q.908-.937,1.362-1.436t2.813-3.589q2.358-3.091,3.677-5.127t1.553-2.549A4.916,4.916,0,0,0,115.107,57.117ZM46.992,95.051a8.52,8.52,0,0,0-1.86.381q-1.362.381-3.311,1.143a23.689,23.689,0,0,0-2.974,1.348,11.386,11.386,0,0,0-.557,2.871,8.687,8.687,0,0,0,.146,2.227,6.469,6.469,0,0,0,.469,1.465,1.591,1.591,0,0,0,1.465.879,5,5,0,0,0,1.406-.205q.7-.205,2.842-1.011t2.9-1.1a.649.649,0,0,1,.908.176,1.454,1.454,0,0,1,.293.732q.059.439-.615.674-1.758.85-3.252,1.421a27.249,27.249,0,0,1-2.842.923,4.731,4.731,0,0,1-2.183-.1,4.557,4.557,0,0,1-1.8-.923,3.656,3.656,0,0,1-1-1.6,10.684,10.684,0,0,1-.41-2.681,15.792,15.792,0,0,1,.088-2.959,9.828,9.828,0,0,0-2.871,1.611,2.111,2.111,0,0,1-.615.41.627.627,0,0,1-.688-.059,1.482,1.482,0,0,1-.469-.615,3.2,3.2,0,0,1-.22-.762,19.472,19.472,0,0,1,2.8-1.729q1.45-.732,2.651-1.289.264-.82.513-1.582t.688-2.036q.439-1.274.586-1.567a1.638,1.638,0,0,1,.615-.146,1.089,1.089,0,0,1,.264.029.936.936,0,0,1,.542.483,2,2,0,0,1,.073,1.157q-.527,1.26-1.113,2.725.85-.264,2.271-.732t2.988-.923a15.882,15.882,0,0,1,2.681-.571,1.665,1.665,0,0,1,1.875,1.318,4.256,4.256,0,0,1-.557,1.685,10.322,10.322,0,0,1-1.787,2.3,22.283,22.283,0,0,1-2.373,2.139,4.539,4.539,0,0,1-1.846.967.835.835,0,0,1-.557.044.668.668,0,0,1-.439-.337,1.912,1.912,0,0,1-.205-.557,1.475,1.475,0,0,1,.586-.483,8.847,8.847,0,0,0,1.465-1.143,18.086,18.086,0,0,0,3.428-4Zm19.57,4.365a4.5,4.5,0,0,0-1.392-.425,10.891,10.891,0,0,0-2.988.234,15.193,15.193,0,0,0-3.545.981,13.4,13.4,0,0,0-1.86.938,4.283,4.283,0,0,1-.527.249.678.678,0,0,1-.586-.073,2.532,2.532,0,0,1-.762-1.23.663.663,0,0,1,.161-.41,1.481,1.481,0,0,1,.337-.322A21.21,21.21,0,0,1,59.326,98a23.719,23.719,0,0,1,5.449-.835,5.3,5.3,0,0,1,1.685.278,3.094,3.094,0,0,1,1.392.923,2.874,2.874,0,0,1,.571.82,1.591,1.591,0,0,1,.146.938,2.5,2.5,0,0,1-.366.938,20.18,20.18,0,0,1-2.373,3.076Q64.307,105.8,63,107.121a21.043,21.043,0,0,0-1.948,2.2,4.672,4.672,0,0,1-.5.527q-.176.146-.732-.088a1.73,1.73,0,0,1-.762-.762q-.117-.352.469-1.084,2.93-3.076,4.658-5.024t2.051-2.417A1.818,1.818,0,0,0,66.563,99.416Zm.381-7.324q-.322.234-.469.337t-.732-.073a2.526,2.526,0,0,0-1.553-.234q-1.055.088-2.168.249t-2.285.381a16.37,16.37,0,0,0-2.285.6,1.394,1.394,0,0,1-1.055-.19,1.307,1.307,0,0,1-.615-.894.623.623,0,0,1,.22-.586.98.98,0,0,1,.571-.293q1.406-.381,3.164-.674t3.311-.439q.967-.088,1.758-.088.469,0,.879.029a1.179,1.179,0,0,1,.981.645A2.712,2.712,0,0,1,66.943,92.092Zm23.145,5.1a10.77,10.77,0,0,1-1.831.747q-1.274.425-3.779,1.523a32.958,32.958,0,0,0-3.56,1.743,1.379,1.379,0,0,0-.732,1.67q.205.82.483,1.743a2.319,2.319,0,0,0,1.3,1.421,2.553,2.553,0,0,0,2.139.059q1.113-.381,2.227-.864a16.74,16.74,0,0,0,2.153-1.128q1.04-.645,2.271-1.318a1.272,1.272,0,0,1,.645.659.714.714,0,0,1-.146.747q-.293.352-.527.63a8.382,8.382,0,0,1-1.7,1.084,35.839,35.839,0,0,1-3.428,1.626,5.192,5.192,0,0,1-3.589.22,4.974,4.974,0,0,1-2.593-1.948,7.659,7.659,0,0,1-1.172-3.369,2.3,2.3,0,0,0-.337-1.025q-.249-.352.19-1a6.567,6.567,0,0,0,.249-1.509,20.008,20.008,0,0,1,.352-2.373q.278-1.392.747-4.028.117-.352.366-.4a1.231,1.231,0,0,1,.615.088,3.892,3.892,0,0,1,.776.4.728.728,0,0,1,.293.527,1.313,1.313,0,0,1-.088.615,13.356,13.356,0,0,0-.586,2.432q-.176,1.23-.381,2.783.791-.234,3.105-1.187t4.482-1.831a3.944,3.944,0,0,1,.688-.293.921.921,0,0,1,.718.059.943.943,0,0,1,.483.542A3.366,3.366,0,0,1,90.088,97.189Zm2.461-6.475a1.985,1.985,0,0,0,1.67-.762,2.185,2.185,0,0,1,1.289-.439,2.135,2.135,0,0,1,.352.029A3.041,3.041,0,0,1,98.2,91.33a4.557,4.557,0,0,1,.527,1.729,4.115,4.115,0,0,1-.205,1.758,12,12,0,0,1-.82,1.816,19.589,19.589,0,0,1-1.523,1.846,3.22,3.22,0,0,1-2.432.7,2.414,2.414,0,0,1-1.523-.7A6.108,6.108,0,0,1,91.26,95.7a5.808,5.808,0,0,1,.337-2.578Q92.051,91.916,92.549,90.715Zm4.746,1.67a1.438,1.438,0,0,0-.381-.791,1.379,1.379,0,0,0-.659-.381,1.751,1.751,0,0,0-.835.029,3.18,3.18,0,0,0-1.348,1.2,13.906,13.906,0,0,0-.762,1.626,4.61,4.61,0,0,0-.205,2.417,2.969,2.969,0,0,0,.176.571.67.67,0,0,0,.366.381.736.736,0,0,0,.557-.015,1.357,1.357,0,0,0,.483-.293q.527-.557.894-.952A17.258,17.258,0,0,0,96.8,94.553a1.823,1.823,0,0,0,.322-.527,3.1,3.1,0,0,0,.176-.732A3.533,3.533,0,0,0,97.295,92.385Zm15.5.732a7.815,7.815,0,0,0-2.666-.044,12.486,12.486,0,0,0-3.325.776,6.993,6.993,0,0,0-1.89.967,1.2,1.2,0,0,1-.586.366.575.575,0,0,1-.425-.19,2.437,2.437,0,0,1-.425-.557,1.8,1.8,0,0,1-.176-.762q0-.381.527-.7a21.483,21.483,0,0,1,7.559-1.67,10.636,10.636,0,0,1,1.377.088,2.331,2.331,0,0,1,1.8,1.069,1.892,1.892,0,0,1,.073,2.036q-.967,1.758-1.729,2.9l-1.523,2.285a22.511,22.511,0,0,0,2.93,3.882,15.017,15.017,0,0,0,1.963,1.772,3.83,3.83,0,0,0,.513.41.655.655,0,0,1,.249.483.775.775,0,0,1-.264.688,1.135,1.135,0,0,1-.732.352.866.866,0,0,1-.762-.234q-1.7-1.582-2.915-2.944a25.348,25.348,0,0,1-2.241-2.915q-.586.674-1.611,2.021t-2.095,2.769q-1.069,1.421-1.538,2.007a.761.761,0,0,1-.732.366,2.437,2.437,0,0,1-.85-.381.814.814,0,0,1-.264-1.011q.908-.937,1.362-1.436t2.813-3.589q2.358-3.091,3.677-5.127t1.553-2.549A4.916,4.916,0,0,0,112.793,93.117Zm16.377-3.223q-.146,1.348-.4,2.871T128.32,95.8q-.205,1.509-.322,2.241a4.752,4.752,0,0,0,1.2.176q1.7-.029,3.193-.117t2.813-.059q.85.234.894.6a3.7,3.7,0,0,1-.044.952,16.383,16.383,0,0,1-2.754.381l-2.739.19q-1.04.073-1.45.132a3.18,3.18,0,0,1-1.289-.234,8.385,8.385,0,0,0-.425,2.212q-.1,1.333-.146,2.959a33.972,33.972,0,0,0,.088,3.413,22.657,22.657,0,0,0,.4,3.018,1.892,1.892,0,0,1-1.553-.117,1.8,1.8,0,0,1-.5-1.069q-.117-.718-.22-2.725a49.179,49.179,0,0,1,.234-6.035q.337-4.028.776-6.9t.586-3.838a17.777,17.777,0,0,0,.176-2.227q.059-.557.439-.557a1.778,1.778,0,0,1,.967.513A1.276,1.276,0,0,1,129.17,89.895Z" transform="translate(178 10918)" fill="#215f87"/>
  </g>
</svg>
