<svg id="Сгруппировать_92" data-name="Сгруппировать 92" xmlns="http://www.w3.org/2000/svg" xmlns:xlink="http://www.w3.org/1999/xlink" width="180" height="180" viewBox="0 0 180 180">
  <defs>
    <clipPath id="clip-path">
      <rect id="Прямоугольник_67" data-name="Прямоугольник 67" width="180" height="180" fill="none"/>
    </clipPath>
  </defs>
  <g id="Сгруппировать_91" data-name="Сгруппировать 91" clip-path="url(#clip-path)">
    <path id="Контур_320" data-name="Контур 320" d="M46.018,167.584c-2.9-6.7-3.42-14.743-10.66-19.9-8.748-6.231-17.313-10.129-24.614-18.471C3.6,121.054-.011,112.689,0,102.146.014,89.74.737,77.454,7.452,67.118A178.262,178.262,0,0,1,49.483,21.911c17.04-12.84,38.029-25.864,60.3-20.786,4.141.944,8.942,1.883,12.014,5.069,6.643,6.894-.387,16.123,1.745,23.948,3.419,12.547,16.063,9.238,24.513,8.313,11.3-1.238,22.683-.413,28.634,12.351,8.706,18.671-1.33,40.5-11.724,56.267-12.416,18.833-29.877,34.363-47.215,48.612-16.257,13.359-41.587,32.285-63.861,20.73a16.712,16.712,0,0,1-7.867-8.831" fill="#fff1c4"/>
    <path id="Контур_321" data-name="Контур 321" d="M149.4,141.936,22.552,140.264a4.212,4.212,0,0,1-4.235-4.432s3.3-18.624,5.083-70h126Z" fill="#fff"/>
    <path id="Контур_322" data-name="Контур 322" d="M22,139.97a4.083,4.083,0,0,1-3.229-4.345c.051-.388.134-.775.2-1.162.325-2.04.591-4.09.839-6.14,1.243-10.285,2-20.631,2.624-30.969.608-10,1.052-20.015,1.4-30.031.007-.2-.859-.067-.869.233-.553,15.907-1.313,31.818-2.679,47.678-.551,6.394-1.15,12.807-2.146,19.15-.072.459-.167.917-.23,1.377a4.288,4.288,0,0,0,3.392,4.591c.233.058,1.006-.307.7-.382" fill="#595757"/>
    <path id="Контур_323" data-name="Контур 323" d="M21.362,140.874h0a.761.761,0,0,1-.184-.021,5.22,5.22,0,0,1-2.863-1.847,4.4,4.4,0,0,1-.915-3.314c.038-.278.087-.555.135-.823.033-.186.067-.378.1-.564,1.011-6.441,1.613-12.974,2.142-19.114,1.184-13.745,2.01-28.441,2.677-47.652.02-.6.729-.826,1.172-.826a.752.752,0,0,1,.565.207.575.575,0,0,1,.163.423c-.382,11-.84,20.824-1.4,30.044-.558,9.2-1.306,20.071-2.627,31-.205,1.695-.486,3.926-.842,6.159-.025.159-.054.317-.082.47-.043.235-.083.456-.112.679a3.571,3.571,0,0,0,2.842,3.777.57.57,0,0,1,.457.623C22.516,140.67,21.592,140.874,21.362,140.874Z" fill="#595757"/>
    <path id="Контур_324" data-name="Контур 324" d="M144.972,144.9H27.829a4.429,4.429,0,0,1-4.429-4.428V49.428A4.429,4.429,0,0,1,27.829,45H144.972a4.428,4.428,0,0,1,4.428,4.428v91.044a4.428,4.428,0,0,1-4.428,4.428" fill="#fff"/>
    <path id="Контур_325" data-name="Контур 325" d="M149.4,65.829H23.4V49.386A4.387,4.387,0,0,1,27.787,45H145.013a4.387,4.387,0,0,1,4.387,4.386Z" fill="#58b299"/>
    <path id="Контур_326" data-name="Контур 326" d="M149.436,65.5H25.345a10.134,10.134,0,0,0-1.7,0,1.239,1.239,0,0,1-.211,0l.4.3c0-5.382-.02-10.764,0-16.146a4.092,4.092,0,0,1,4.225-4.325c.89,0,1.78,0,2.67,0h112.97a8.566,8.566,0,0,1,2.263.14c3.581.988,2.99,4.978,2.99,7.82V65.86c0,.466.882.345.882-.06,0-5.414.039-10.829,0-16.242a4.8,4.8,0,0,0-4.952-4.886c-.792-.007-1.584,0-2.376,0H28.784a6.357,6.357,0,0,0-3.521.73c-2.773,1.69-2.3,4.891-2.3,7.657v12.8c0,.228.209.3.406.3H144.242c1.63,0,3.283.08,4.912,0,.07,0,.14,0,.211,0,.5,0,.66-.658.071-.658" fill="#595757"/>
    <path id="Контур_327" data-name="Контур 327" d="M24.357,66.823l-.2-.149h-.791a.835.835,0,0,1-.921-.814v-.453l-.569-.422h.569V53.059c0-.341-.007-.683-.015-1.046-.053-2.54-.113-5.419,2.566-7.051a6.863,6.863,0,0,1,3.789-.805H142.513c.528,0,1.056,0,1.584,0,.3,0,.558,0,.8,0a5.308,5.308,0,0,1,5.463,5.4c.026,3.611.017,7.282.009,10.833,0,1.774-.009,3.609-.009,5.413a.861.861,0,0,1-.572.786,1.013,1.013,0,0,1-.4.088,1.138,1.138,0,0,1-.133,0c-.024,0-.048,0-.073,0-.5.025-1.043.036-1.665.036-.552,0-1.111-.009-1.652-.018s-1.087-.018-1.625-.018H24.357Zm0-1.878c.158,0,.314.012.467.021.186.01.361.02.522.02h123.1v-11.7c0-.35.009-.707.018-1.085a13.408,13.408,0,0,0-.278-3.9,3.151,3.151,0,0,0-2.351-2.34,4.888,4.888,0,0,0-1.274-.13c-.142,0-.284,0-.425,0s-.287,0-.428,0H28.068a3.58,3.58,0,0,0-3.711,3.812c-.013,3.587-.009,7.234,0,10.761Q24.355,62.681,24.356,64.945Z" fill="#595757"/>
    <path id="Контур_328" data-name="Контур 328" d="M38.523,95.716h-.962a5.161,5.161,0,0,1,0-10.322h.962a5.161,5.161,0,0,1,0,10.322" fill="#eee"/>
    <path id="Контур_329" data-name="Контур 329" d="M135.239,95.716h-.962a5.161,5.161,0,0,1,0-10.322h.962a5.161,5.161,0,0,1,0,10.322" fill="#eee"/>
    <path id="Контур_330" data-name="Контур 330" d="M38.523,110.635h-.962a5.161,5.161,0,1,1,0-10.322h.962a5.161,5.161,0,1,1,0,10.322" fill="#eee"/>
    <path id="Контур_331" data-name="Контур 331" d="M135.239,110.635h-.962a5.161,5.161,0,0,1,0-10.322h.962a5.161,5.161,0,0,1,0,10.322" fill="#eee"/>
    <path id="Контур_332" data-name="Контур 332" d="M38.523,125.206h-.962a5.161,5.161,0,1,1,0-10.322h.962a5.161,5.161,0,1,1,0,10.322" fill="#eee"/>
    <path id="Контур_333" data-name="Контур 333" d="M135.239,125.206h-.962a5.161,5.161,0,0,1,0-10.322h.962a5.161,5.161,0,0,1,0,10.322" fill="#eee"/>
    <path id="Контур_334" data-name="Контур 334" d="M38.523,139.777h-.962a5.161,5.161,0,1,1,0-10.322h.962a5.161,5.161,0,1,1,0,10.322" fill="#eee"/>
    <path id="Контур_335" data-name="Контур 335" d="M54.642,139.777H53.68a5.161,5.161,0,1,1,0-10.322h.962a5.161,5.161,0,1,1,0,10.322" fill="#eee"/>
    <path id="Контур_336" data-name="Контур 336" d="M119.12,80.971h-.962a5.161,5.161,0,0,1,0-10.322h.962a5.161,5.161,0,0,1,0,10.322" fill="#eee"/>
    <path id="Контур_337" data-name="Контур 337" d="M135.239,80.971h-.962a5.161,5.161,0,0,1,0-10.322h.962a5.161,5.161,0,0,1,0,10.322" fill="#eee"/>
    <path id="Контур_338" data-name="Контур 338" d="M148.965,68.145v58.122c0,.209.869.065.869-.233V67.912c0-.209-.869-.065-.869.233" fill="#595757"/>
    <path id="Контур_339" data-name="Контур 339" d="M149.617,67.3a.648.648,0,0,1,.732.614v58.122c0,.584-.683.847-1.168.847a.648.648,0,0,1-.732-.614V68.145a.78.78,0,0,1,.537-.713A1.643,1.643,0,0,1,149.617,67.3Z" fill="#595757"/>
    <path id="Контур_340" data-name="Контур 340" d="M131.336,144.687H29.324c-1.929,0-3.878-.168-4.982-2.1-.7-1.229-.507-2.84-.507-4.209V67.323c0-.209-.87-.066-.87.233v59.382c0,4.551-.014,9.1,0,13.652a4.54,4.54,0,0,0,4.819,4.523c1.025.01,2.052,0,3.078,0H130.98c.285,0,.936-.426.356-.426" fill="#595757"/>
    <path id="Контур_341" data-name="Контур 341" d="M28.81,145.633c-.385,0-.722,0-1.031,0a5.632,5.632,0,0,1-3.748-1.374,4.876,4.876,0,0,1-1.582-3.663c-.009-3.034-.006-6.12,0-9.1q0-2.275,0-4.551V67.556c0-.585.683-.847,1.168-.847a.649.649,0,0,1,.733.614v71.058c0,.247-.006.505-.012.755a6.252,6.252,0,0,0,.451,3.2c.971,1.7,2.7,1.837,4.535,1.837H131.336c.727,0,.748.541.748.6,0,.555-.784.855-1.1.855H30.862l-1.025,0Z" fill="#595757"/>
    <path id="Контур_342" data-name="Контур 342" d="M88.357,29.768a1.912,1.912,0,1,1-1.913-1.913,1.912,1.912,0,0,1,1.913,1.913" fill="#595757"/>
    <path id="Контур_343" data-name="Контур 343" d="M86.444,32.2a2.428,2.428,0,1,1,2.428-2.427A2.43,2.43,0,0,1,86.444,32.2Zm0-3.825a1.4,1.4,0,1,0,1.4,1.4A1.4,1.4,0,0,0,86.444,28.371Z" fill="#595757"/>
    <path id="Контур_344" data-name="Контур 344" d="M63,54.4a3.6,3.6,0,1,1-3.6-3.6A3.6,3.6,0,0,1,63,54.4" fill="#f8f8f8"/>
    <path id="Контур_345" data-name="Контур 345" d="M117.658,54.4a3.6,3.6,0,1,1-3.6-3.6,3.6,3.6,0,0,1,3.6,3.6" fill="#f8f8f8"/>
    <path id="Контур_346" data-name="Контур 346" d="M61.018,51.6a3.557,3.557,0,0,1,1.438,3.69,3.072,3.072,0,0,1-3.209,2.458C56.01,57.428,55.2,53,57.909,51.369c.5-.3-.265-.391-.532-.23a3.759,3.759,0,0,0,1.835,7.1,4.274,4.274,0,0,0,3.767-2.162,3.761,3.761,0,0,0-1.151-4.8c-.235-.174-1.028.17-.81.332" fill="#595757"/>
    <path id="Контур_347" data-name="Контур 347" d="M57.74,50.545c.626,0,.789.343.829.491a.673.673,0,0,1-.4.775,2.944,2.944,0,0,0-1.3,3.219A2.743,2.743,0,0,0,59.3,57.238c.077.008.154.012.23.012a2.6,2.6,0,0,0,2.426-2.075,3.042,3.042,0,0,0-1.243-3.157.589.589,0,0,1-.216-.666c.151-.455.82-.644,1.145-.644a.8.8,0,0,1,.494.149,4.274,4.274,0,0,1,1.3,5.459,4.779,4.779,0,0,1-4.211,2.435h-.013a4.549,4.549,0,0,1-2.573-.81,4.175,4.175,0,0,1-1.613-2.184,4.09,4.09,0,0,1,.165-2.914A4.81,4.81,0,0,1,57.111,50.7,1.268,1.268,0,0,1,57.74,50.545Z" fill="#595757"/>
    <path id="Контур_348" data-name="Контур 348" d="M114.953,51.227a3.541,3.541,0,0,1,2.268,3.063,3.269,3.269,0,0,1-2.489,3.433,3.33,3.33,0,0,1-3.531-1.99,3.5,3.5,0,0,1,.924-4.05c.368-.324-.491-.3-.691-.121a3.8,3.8,0,0,0-.83,4.912,3.963,3.963,0,0,0,4.122,1.684,4.1,4.1,0,0,0,3.286-3.037,3.78,3.78,0,0,0-2.363-4.3c-.245-.1-1.038.266-.7.405" fill="#595757"/>
    <path id="Контур_349" data-name="Контур 349" d="M115.543,50.29a.794.794,0,0,1,.3.054,4.5,4.5,0,0,1,2.231,1.942,4.169,4.169,0,0,1,.442,2.946,4.289,4.289,0,0,1-1.347,2.275,4.886,4.886,0,0,1-2.345,1.157,4.8,4.8,0,0,1-.9.085,4.391,4.391,0,0,1-3.755-2,4.129,4.129,0,0,1-.575-2.973,4.623,4.623,0,0,1,1.5-2.6,1.409,1.409,0,0,1,.842-.258.716.716,0,0,1,.759.422.639.639,0,0,1-.228.73,2.988,2.988,0,0,0-.793,3.455,2.9,2.9,0,0,0,2.539,1.73,2.35,2.35,0,0,0,.427-.039,2.773,2.773,0,0,0,2.068-2.9,3.036,3.036,0,0,0-1.947-2.616.6.6,0,0,1-.395-.68C114.467,50.5,115.239,50.29,115.543,50.29Z" fill="#595757"/>
    <path id="Контур_350" data-name="Контур 350" d="M59.1,51.976l8.528-7.9L80.461,32.2a15.623,15.623,0,0,1,3.749-3.04,5.807,5.807,0,0,1,6.312,1.209c.309.277.609.564.914.846l11.89,11.007c3.383,3.132,6.708,6.344,10.157,9.4.059.053.117.108.175.163.274.253,1.1-.1.8-.375l-8.968-8.3L92.7,31.272c-1.448-1.341-2.817-2.7-4.858-3.091-2.7-.519-4.879.808-6.765,2.554L69.113,41.807,62.369,48.05c-1.261,1.168-2.6,2.291-3.8,3.519-.059.06-.125.116-.187.173-.39.362.454.482.722.234" fill="#595757"/>
    <path id="Контур_351" data-name="Контур 351" d="M58.675,52.622h0a.867.867,0,0,1-.867-.476.7.7,0,0,1,.222-.781l.065-.059c.039-.035.076-.068.105-.1.812-.829,1.692-1.617,2.542-2.379.422-.378.858-.769,1.277-1.157l10.627-9.838,8.077-7.477c1.3-1.2,3.332-2.8,5.941-2.8a6.759,6.759,0,0,1,1.272.123c2.076.4,3.5,1.723,4.879,3l.232.216,6.4,5.921,6.4,5.921,4.484,4.152,4.484,4.152a.671.671,0,0,1,.182.749,1.16,1.16,0,0,1-1.06.607.9.9,0,0,1-.621-.224l0,0c-.055-.052-.109-.1-.165-.154-2.3-2.043-4.589-4.189-6.8-6.265-1.1-1.033-2.239-2.1-3.363-3.144l-5.945-5.5-5.945-5.5L90.77,31.3c-.193-.181-.393-.368-.592-.546a5.733,5.733,0,0,0-3.788-1.55,4.747,4.747,0,0,0-1.968.427,11.082,11.082,0,0,0-2.889,2.259c-.237.23-.482.468-.722.69L74.4,38.521l-6.415,5.939-8.528,7.895A1.15,1.15,0,0,1,58.675,52.622Z" fill="#595757"/>
    <path id="Контур_352" data-name="Контур 352" d="M81.03,93.358l-7.513,9.263a1.3,1.3,0,0,0,.142,1.788l13,11.646a1.3,1.3,0,0,0,1.812-.075l25.271-26.7a1.3,1.3,0,0,0-1.62-2L90.439,100.467a1.3,1.3,0,0,1-1.673-.276l-5.728-6.848a1.3,1.3,0,0,0-2.008.015m0,0-7.513,9.263a1.3,1.3,0,0,0,.142,1.788l13,11.646a1.3,1.3,0,0,0,1.812-.075l25.271-26.7a1.3,1.3,0,0,0-1.62-2L90.439,100.467a1.3,1.3,0,0,1-1.673-.276l-5.728-6.848a1.3,1.3,0,0,0-2.008.015m5.546,38.071A27.531,27.531,0,1,1,104.09,82.656a1.892,1.892,0,0,1-2.409,2.918,23.744,23.744,0,1,0,8.486,15.6,1.892,1.892,0,0,1,3.76-.432,27.546,27.546,0,0,1-27.351,30.69" fill="#5abba1"/>
  </g>
</svg>
