<svg id="Сгруппировать_94" data-name="Сгруппировать 94" xmlns="http://www.w3.org/2000/svg" xmlns:xlink="http://www.w3.org/1999/xlink" width="180" height="180" viewBox="0 0 180 180">
  <defs>
    <clipPath id="clip-path">
      <rect id="Прямоугольник_69" data-name="Прямоугольник 69" width="180" height="180" fill="none"/>
    </clipPath>
  </defs>
  <g id="Сгруппировать_93" data-name="Сгруппировать 93" clip-path="url(#clip-path)">
    <path id="Контур_353" data-name="Контур 353" d="M46.018,167.584c-2.9-6.7-3.42-14.743-10.66-19.9-8.748-6.231-17.313-10.129-24.614-18.471C3.6,121.054-.011,112.689,0,102.146.014,89.74.736,77.454,7.452,67.118A178.262,178.262,0,0,1,49.483,21.911c17.04-12.84,38.029-25.864,60.3-20.786,4.141.944,8.942,1.883,12.014,5.07,6.643,6.893-.387,16.122,1.745,23.947,3.419,12.548,16.063,9.238,24.513,8.313,11.3-1.238,22.683-.412,28.634,12.351,8.706,18.671-1.33,40.5-11.724,56.267-12.416,18.833-29.877,34.363-47.215,48.612-16.257,13.36-41.587,32.285-63.861,20.73a16.712,16.712,0,0,1-7.867-8.831" fill="#fff1c4"/>
    <path id="Контур_354" data-name="Контур 354" d="M123.632,62.21a3.167,3.167,0,0,0,3.143,3.188h.03a3.026,3.026,0,0,0,3.16-3.141h0a3.168,3.168,0,0,0-3.144-3.19,3.209,3.209,0,0,0-2.245.912,3.148,3.148,0,0,0-.944,2.232m3.166-1.37h.007a1.393,1.393,0,0,1,1.387,1.4,1.258,1.258,0,0,1-1.387,1.383h-.017a1.393,1.393,0,0,1,.01-2.786" fill="#595757"/>
    <path id="Контур_355" data-name="Контур 355" d="M96.846,38.971l1.721.012c.251-3.417.035-6.613-1.018-8.7a.886.886,0,0,1,.515-1.241,24.373,24.373,0,0,1,7.106-.84,2.487,2.487,0,0,1,.253-1.342,2.549,2.549,0,0,1,.418-.572c-.3-.007-.605-.013-.9-.013a34.2,34.2,0,0,0-8.653,1.007.756.756,0,0,0-.477.385.7.7,0,0,0-.034.574,25.282,25.282,0,0,1,1.065,10.731" fill="#5abba1"/>
    <path id="Контур_356" data-name="Контур 356" d="M106.254,39.039A25.877,25.877,0,0,0,105.682,30a27.853,27.853,0,0,0-6.117.493A21.465,21.465,0,0,1,100.34,39Z" fill="#d7efe8"/>
    <path id="Контур_357" data-name="Контур 357" d="M108.024,39.052l1.722.013c.261-3.449.051-6.678-1.011-8.783a.888.888,0,0,1,.515-1.242c.347-.113,8.642-2.732,21.8,1.87a.883.883,0,0,1,.529.505,17.113,17.113,0,0,1,.739,7.814l1.333.009c.346-3.588.222-7.378-1.133-10.213a53.433,53.433,0,0,0-16.385-2.751,34.2,34.2,0,0,0-8.653,1.007.752.752,0,0,0-.476.385.7.7,0,0,0-.035.575c1.219,3.178,1.36,7.105,1.057,10.811" fill="#5abba1"/>
    <path id="Контур_358" data-name="Контур 358" d="M130.53,39.216a16.443,16.443,0,0,0-.459-6.768c-9.861-3.362-16.875-2.461-19.32-1.955a21.551,21.551,0,0,1,.771,8.585Z" fill="#d7efe8"/>
    <path id="Контур_359" data-name="Контур 359" d="M137,41.036l-45.384-.33H91.6a2,2,0,0,0-2,1.987L89.317,81.23A2,2,0,0,0,91.3,83.246l45.385.33h.014a2.005,2.005,0,0,0,2-1.988l.085-11.733-13.7-.1a6.648,6.648,0,0,1-6.592-6.689l.013-1.787a6.648,6.648,0,0,1,6.639-6.593h.049l13.7.1.086-11.734A2,2,0,0,0,137,41.036" fill="#978475"/>
    <path id="Контур_360" data-name="Контур 360" d="M125.154,56.459a4.873,4.873,0,0,0-4.867,4.833l-.014,1.787a4.871,4.871,0,0,0,4.833,4.9l13.695.1.084-11.523-13.695-.1Z" fill="#978475"/>
    <path id="Контур_361" data-name="Контур 361" d="M139.67,40.387a3.744,3.744,0,0,0-2.661-1.123l-1.585-.013c.36-3.966.161-8.2-1.5-11.366a.884.884,0,0,0-.508-.431c-10.161-3.337-18.028-3.235-22.765-2.593a40.475,40.475,0,0,0-14.816.707,2.524,2.524,0,0,0-1.6,1.291,2.487,2.487,0,0,0-.111,2.017,23.654,23.654,0,0,1,.95,10.082l-3.451-.026H91.6a3.78,3.78,0,0,0-3.774,3.748l-.28,38.537a3.779,3.779,0,0,0,3.747,3.8l45.384.329h.029a3.778,3.778,0,0,0,3.773-3.746l.28-38.538a3.748,3.748,0,0,0-1.086-2.677M107,27.667a.752.752,0,0,1,.477-.386,34.214,34.214,0,0,1,8.653-1.006,53.463,53.463,0,0,1,16.385,2.75c1.355,2.836,1.479,6.625,1.132,10.213l-1.332-.009a17.116,17.116,0,0,0-.739-7.814.885.885,0,0,0-.529-.505c-13.156-4.6-21.451-1.982-21.8-1.87a.887.887,0,0,0-.515,1.243c1.062,2.1,1.271,5.334,1.011,8.783l-1.722-.013c.3-3.707.162-7.634-1.057-10.811a.7.7,0,0,1,.034-.575m3.75,2.826c2.446-.507,9.46-1.406,19.32,1.956a16.438,16.438,0,0,1,.459,6.767l-19.007-.139a21.563,21.563,0,0,0-.772-8.584m-11.187,0A27.935,27.935,0,0,1,105.682,30a25.885,25.885,0,0,1,.572,9.043L100.34,39a21.452,21.452,0,0,0-.776-8.507m-3.749-2.823a.749.749,0,0,1,.477-.386,34.214,34.214,0,0,1,8.653-1.006c.291,0,.593.006.9.013a2.462,2.462,0,0,0-.418.571,2.487,2.487,0,0,0-.253,1.343,24.324,24.324,0,0,0-7.106.84.886.886,0,0,0-.515,1.241c1.053,2.087,1.269,5.283,1.017,8.7l-1.72-.013A25.282,25.282,0,0,0,95.781,28.24a.7.7,0,0,1,.034-.573M138.8,68.081l-13.7-.1a4.865,4.865,0,0,1-4.832-4.9l.013-1.788a4.874,4.874,0,0,1,4.867-4.833h.036l13.7.1Zm.1-13.3-13.7-.1h-.049a6.648,6.648,0,0,0-6.64,6.593l-.013,1.787a6.649,6.649,0,0,0,6.593,6.69l13.7.1L138.7,81.589a2,2,0,0,1-2,1.987h-.016L91.3,83.245a2,2,0,0,1-1.986-2.016l.28-38.536a2,2,0,0,1,2-1.987h.015L137,41.035a2,2,0,0,1,1.987,2.016Z" fill="#595757"/>
    <path id="Контур_362" data-name="Контур 362" d="M123.632,62.21a3.167,3.167,0,0,0,3.143,3.188h.03a3.026,3.026,0,0,0,3.16-3.141h0a3.168,3.168,0,0,0-3.144-3.19,3.209,3.209,0,0,0-2.245.912,3.148,3.148,0,0,0-.944,2.232m3.166-1.37h.007a1.393,1.393,0,0,1,1.387,1.4,1.258,1.258,0,0,1-1.387,1.383h-.017a1.393,1.393,0,0,1,.01-2.786" fill="#595757"/>
    <path id="Контур_363" data-name="Контур 363" d="M57.555,133.3h3.738V107.556a10.962,10.962,0,0,1-3.738.98Z" fill="#d7efe8"/>
    <path id="Контур_364" data-name="Контур 364" d="M57.555,106.756a9.186,9.186,0,0,0,3.738-1.208V98.393H57.555Z" fill="#5abba1"/>
    <path id="Контур_365" data-name="Контур 365" d="M135.828,96.62v-3.4H51.408v45.26h9.886v-3.4H56.669a.887.887,0,0,1-.886-.888V97.507a.887.887,0,0,1,.886-.887h79.159Z" fill="#5abba1"/>
    <path id="Контур_366" data-name="Контур 366" d="M63.067,98.393v45.26H66.04v-1.966l0-.022c0-.013,0-.026,0-.039v-5.378a.851.851,0,0,1,.015-.152c-.006-.088-.015-.177-.015-.266a4.912,4.912,0,0,1,1.4-3.277V102.682a.887.887,0,0,1,.886-.887h73.9a.886.886,0,0,1,.886.887v7.155a14.162,14.162,0,0,1,4.375,2.737V98.393H63.067Z" fill="#5abba1"/>
    <path id="Контур_367" data-name="Контур 367" d="M148.373,96.62H137.6V92.331a.887.887,0,0,0-.887-.886H50.521a.886.886,0,0,0-.886.886v47.033a.886.886,0,0,0,.886.886H61.294v4.289a.886.886,0,0,0,.886.886h3.859v2.9c0,5.292,9.333,9.437,21.249,9.437,9.6,0,17.518-2.691,20.236-6.5,2.446,4.015,10.57,6.888,20.487,6.888,11.916,0,21.249-4.146,21.249-9.437v-51.2a.887.887,0,0,0-.887-.886M61.294,133.3H57.555V108.536a11.013,11.013,0,0,0,3.739-.98Zm0-27.754a9.19,9.19,0,0,1-3.739,1.208V98.393h3.739ZM56.669,96.62a.886.886,0,0,0-.886.886v36.683a.886.886,0,0,0,.886.886h4.625v3.4H51.408V93.217h84.42v3.4H56.669Zm50.094,51.7c0,3.7-7.826,7.664-19.475,7.664s-19.476-3.963-19.476-7.664v-2.794c3.253,3.326,10.657,5.6,19.476,5.6s16.222-2.27,19.475-5.6Zm0-6.7c0,3.7-7.826,7.664-19.475,7.664s-19.476-3.963-19.476-7.664v-2.131c3.251,3.18,10.653,5.353,19.476,5.353s16.225-2.173,19.475-5.353Zm-19.475,1.45c-11.65,0-19.476-3.747-19.476-7.246s7.826-7.245,19.476-7.245,19.475,3.746,19.475,7.245-7.826,7.246-19.475,7.246m-7.936-39.508H131.2a10.967,10.967,0,0,0,1.021,3.823c-1.356-.111-2.762-.17-4.206-.17-6.552,0-12.32,1.2-16.188,3.119a12.512,12.512,0,0,0-17.368,16.981,49.313,49.313,0,0,0-7.167-.509c-7.724,0-14.359,1.665-18.074,4.214v-17.32a11.075,11.075,0,0,0,10.138-10.138m-10.138,8.365v-8.365h8.365a9.308,9.308,0,0,1-8.365,8.365m37.549,4.306c0,.089.01.178.016.266a.852.852,0,0,0-.016.152v5.378c0,.013,0,.026,0,.039a.166.166,0,0,0,0,.022v6.635c0,.013,0,.027,0,.04a.152.152,0,0,0,0,.021v3.373c-1.967-1.925-5.454-3.479-9.858-4.407a10.75,10.75,0,0,1,13.133-16.39c-2.077,1.4-3.275,3.063-3.275,4.871m40.724,32.467c0,3.7-7.826,7.664-19.476,7.664s-19.475-3.963-19.475-7.664V145.96c3.251,3.328,10.653,5.6,19.475,5.6s16.225-2.274,19.476-5.6Zm0-6.856v.221c0,3.7-7.826,7.663-19.476,7.663s-19.475-3.962-19.475-7.663v-2.74c3.253,3.325,10.657,5.6,19.475,5.6s16.223-2.27,19.476-5.6Zm0-6.422c0,3.7-7.826,7.664-19.476,7.664s-19.475-3.963-19.475-7.664v-2.794c3.253,3.325,10.657,5.6,19.475,5.6s16.223-2.27,19.476-5.6Zm0-6.7c0,3.7-7.826,7.664-19.476,7.664s-19.475-3.963-19.475-7.664v-2.794c3.253,3.325,10.657,5.6,19.475,5.6s16.223-2.27,19.476-5.6Zm0-6.7c0,3.7-7.826,7.663-19.476,7.663s-19.475-3.962-19.475-7.663V119.9c3.251,3.18,10.653,5.353,19.475,5.353s16.225-2.173,19.476-5.353Zm-19.476,1.45c-11.649,0-19.475-3.747-19.475-7.246s7.826-7.245,19.475-7.245,19.476,3.746,19.476,7.245-7.826,7.246-19.476,7.246m4.966-19.917h8.362v5.6a36.461,36.461,0,0,0-6.974-1.552,9.226,9.226,0,0,1-1.388-4.048m14.51,9.006a14.187,14.187,0,0,0-4.375-2.737v-7.155a.887.887,0,0,0-.886-.887h-73.9a.887.887,0,0,0-.886.887v29.871a4.91,4.91,0,0,0-1.4,3.277c0,.089.01.178.015.266a.954.954,0,0,0-.015.152v5.378c0,.013,0,.026,0,.039l0,.022v1.966H63.067V98.393h84.42Z" fill="#595757"/>
    <path id="Контур_368" data-name="Контур 368" d="M87.288,128.585c-11.65,0-19.476,3.746-19.476,7.245s7.826,7.246,19.476,7.246,19.476-3.747,19.476-7.246-7.826-7.245-19.476-7.245" fill="#ffd95a"/>
    <path id="Контур_369" data-name="Контур 369" d="M67.812,139.495v2.131c0,3.7,7.826,7.664,19.476,7.664s19.475-3.963,19.475-7.664v-2.131c-3.25,3.18-10.653,5.354-19.475,5.354s-16.225-2.174-19.476-5.354" fill="#ffd95a"/>
    <path id="Контур_370" data-name="Контур 370" d="M69.214,131.026c3.715-2.549,10.35-4.214,18.073-4.214a49.292,49.292,0,0,1,7.167.509,12.412,12.412,0,0,1-1.723-6.3,12.521,12.521,0,0,1,19.092-10.683c3.868-1.92,9.635-3.119,16.188-3.119,1.444,0,2.849.059,4.205.17a10.987,10.987,0,0,1-1.02-3.823H79.352a11.075,11.075,0,0,1-10.138,10.138Z" fill="#d7efe8"/>
    <path id="Контур_371" data-name="Контур 371" d="M67.812,145.528v2.794c0,3.7,7.826,7.664,19.476,7.664s19.475-3.963,19.475-7.664v-2.794c-3.253,3.326-10.657,5.6-19.475,5.6s-16.223-2.27-19.476-5.6" fill="#ffd95a"/>
    <path id="Контур_372" data-name="Контур 372" d="M69.214,103.568v8.365a9.307,9.307,0,0,0,8.365-8.365Z" fill="#5abba1"/>
    <path id="Контур_373" data-name="Контур 373" d="M108.536,145.96v2.746c0,3.7,7.825,7.664,19.475,7.664s19.476-3.963,19.476-7.664V145.96c-3.251,3.328-10.653,5.6-19.476,5.6s-16.224-2.275-19.475-5.6" fill="#ffd95a"/>
    <path id="Контур_374" data-name="Контур 374" d="M108.536,119.9v2.131c0,3.7,7.825,7.663,19.475,7.663s19.476-3.962,19.476-7.663V119.9c-3.251,3.18-10.653,5.353-19.476,5.353s-16.224-2.173-19.475-5.353" fill="#ffd95a"/>
    <path id="Контур_375" data-name="Контур 375" d="M128.011,108.994c-11.65,0-19.475,3.746-19.475,7.245s7.825,7.246,19.475,7.246,19.476-3.747,19.476-7.246-7.826-7.245-19.476-7.245" fill="#ffd95a"/>
    <path id="Контур_376" data-name="Контур 376" d="M141.339,103.568h-8.362a9.226,9.226,0,0,0,1.388,4.048,36.614,36.614,0,0,1,6.974,1.552Z" fill="#5abba1"/>
    <path id="Контур_377" data-name="Контур 377" d="M108.536,132.634v2.795c0,3.7,7.825,7.663,19.475,7.663s19.476-3.962,19.476-7.663v-2.795c-3.253,3.325-10.657,5.6-19.476,5.6s-16.222-2.27-19.475-5.6" fill="#ffd95a"/>
    <path id="Контур_378" data-name="Контур 378" d="M108.536,139.331v2.74c0,3.7,7.825,7.664,19.475,7.664s19.476-3.963,19.476-7.664v-2.74c-3.253,3.325-10.657,5.6-19.476,5.6s-16.222-2.27-19.475-5.6" fill="#ffd95a"/>
    <path id="Контур_379" data-name="Контур 379" d="M110.038,111.368A10.746,10.746,0,0,0,96.9,127.758c4.4.929,7.892,2.483,9.859,4.407v-3.372l0-.022c0-.013,0-.026,0-.04V122.1l0-.021c0-.014,0-.027,0-.04v-5.377a.967.967,0,0,1,.015-.153c-.006-.088-.015-.176-.015-.266,0-1.808,1.2-3.474,3.275-4.871" fill="#5abba1"/>
    <path id="Контур_380" data-name="Контур 380" d="M108.536,125.937v2.794c0,3.7,7.825,7.664,19.475,7.664s19.476-3.963,19.476-7.664v-2.794c-3.253,3.325-10.657,5.6-19.476,5.6s-16.222-2.27-19.475-5.6" fill="#ffd95a"/>
    <path id="Контур_381" data-name="Контур 381" d="M7.227,79.593a.886.886,0,0,0,1.772,0,5.18,5.18,0,0,1,5.174-5.174.886.886,0,0,0,0-1.773A5.18,5.18,0,0,1,9,67.472a.886.886,0,1,0-1.772,0,5.18,5.18,0,0,1-5.175,5.174.886.886,0,0,0,0,1.773,5.18,5.18,0,0,1,5.175,5.174m.886-8.728a6.993,6.993,0,0,0,2.667,2.667A7,7,0,0,0,8.113,76.2a7,7,0,0,0-2.667-2.668,6.993,6.993,0,0,0,2.667-2.667" fill="#595757"/>
    <path id="Контур_382" data-name="Контур 382" d="M8.113,70.865a6.993,6.993,0,0,0,2.667,2.667A7,7,0,0,0,8.113,76.2a7,7,0,0,0-2.667-2.668,6.993,6.993,0,0,0,2.667-2.667" fill="#ffe89c"/>
    <path id="Контур_383" data-name="Контур 383" d="M149.884,30.878a6.368,6.368,0,0,1,6.362,6.361.886.886,0,1,0,1.772,0,6.368,6.368,0,0,1,6.361-6.361.887.887,0,1,0,0-1.773,6.369,6.369,0,0,1-6.361-6.361.886.886,0,1,0-1.772,0,6.369,6.369,0,0,1-6.362,6.361.887.887,0,0,0,0,1.773m7.248-4.444a8.193,8.193,0,0,0,3.557,3.557,8.193,8.193,0,0,0-3.557,3.557,8.193,8.193,0,0,0-3.557-3.557,8.193,8.193,0,0,0,3.557-3.557" fill="#595757"/>
    <path id="Контур_384" data-name="Контур 384" d="M157.132,26.434a8.193,8.193,0,0,0,3.557,3.557,8.193,8.193,0,0,0-3.557,3.557,8.193,8.193,0,0,0-3.557-3.557,8.193,8.193,0,0,0,3.557-3.557" fill="#ffe89c"/>
    <path id="Контур_385" data-name="Контур 385" d="M163.452,77.677a6.368,6.368,0,0,1,6.362,6.361.887.887,0,0,0,1.773,0,6.368,6.368,0,0,1,6.36-6.361.887.887,0,1,0,0-1.773,6.369,6.369,0,0,1-6.36-6.361.887.887,0,1,0-1.773,0,6.369,6.369,0,0,1-6.362,6.361.887.887,0,0,0,0,1.773m7.249-4.444a8.188,8.188,0,0,0,3.557,3.557,8.188,8.188,0,0,0-3.557,3.557,8.2,8.2,0,0,0-3.558-3.557,8.2,8.2,0,0,0,3.558-3.557" fill="#595757"/>
    <path id="Контур_386" data-name="Контур 386" d="M170.7,73.233a8.188,8.188,0,0,0,3.557,3.557,8.188,8.188,0,0,0-3.557,3.557,8.2,8.2,0,0,0-3.558-3.557,8.2,8.2,0,0,0,3.558-3.557" fill="#ffe89c"/>
    <path id="Контур_387" data-name="Контур 387" d="M32.341,114.961a5.18,5.18,0,0,1-5.174-5.174.886.886,0,1,0-1.772,0,5.18,5.18,0,0,1-5.175,5.174.887.887,0,0,0,0,1.773,5.18,5.18,0,0,1,5.175,5.174.886.886,0,1,0,1.772,0,5.18,5.18,0,0,1,5.174-5.174.887.887,0,0,0,0-1.773m-6.06,3.554a6.994,6.994,0,0,0-2.667-2.667,7,7,0,0,0,2.667-2.668,7,7,0,0,0,2.667,2.668,6.994,6.994,0,0,0-2.667,2.667" fill="#595757"/>
    <path id="Контур_388" data-name="Контур 388" d="M26.281,118.515a6.994,6.994,0,0,0-2.667-2.667,7,7,0,0,0,2.667-2.668,7,7,0,0,0,2.667,2.668,6.994,6.994,0,0,0-2.667,2.667" fill="#ffe89c"/>
    <path id="Контур_389" data-name="Контур 389" d="M69.2,63.12A20.852,20.852,0,1,0,48.344,83.972,20.875,20.875,0,0,0,69.2,63.12M48.344,82.2A19.079,19.079,0,1,1,67.423,63.12,19.1,19.1,0,0,1,48.344,82.2" fill="#595757"/>
    <path id="Контур_390" data-name="Контур 390" d="M49.231,61.609V52.736c2.62.373,4.616,2.184,4.616,4.359a.886.886,0,1,0,1.773,0c0-3.137-2.787-5.731-6.389-6.143V49.8a.886.886,0,0,0-1.773,0v1.125c-3.709.327-6.609,2.97-6.609,6.171s2.893,5.828,6.609,6.195v9.823c-3-.343-5.316-2.388-5.316-4.86a.886.886,0,0,0-1.773,0c0,3.437,3.108,6.274,7.089,6.645v.937a.886.886,0,1,0,1.773,0V74.9c3.982-.371,7.09-3.208,7.09-6.645s-3.108-6.273-7.09-6.644M47.458,61.5c-2.7-.345-4.836-2.221-4.836-4.408,0-2.236,2.108-4.085,4.836-4.385Zm1.773,11.61V63.394c3,.342,5.317,2.388,5.317,4.859s-2.316,4.517-5.317,4.86" fill="#595757"/>
    <path id="Контур_391" data-name="Контур 391" d="M48.344,82.2A19.079,19.079,0,1,1,67.423,63.12,19.1,19.1,0,0,1,48.344,82.2" fill="#ffd95a"/>
    <path id="Контур_392" data-name="Контур 392" d="M46.039,63.247,39.784,52.854a.826.826,0,0,1,.727-1.264,2.376,2.376,0,0,1,2.211,1.3l5.623,9.856c0,.021.01.03.031.03.042,0,.063-.009.063-.03l5.623-9.888A2.294,2.294,0,0,1,56.21,51.59a.769.769,0,0,1,.71.412.749.749,0,0,1-.015.821L50.651,63.247a.124.124,0,0,0-.016.158.152.152,0,0,0,.142.1h4.517a.848.848,0,0,1,.6.236.774.774,0,0,1,.253.585.864.864,0,0,1-.853.853h-5.37c-.169,0-.253.095-.253.283v2.432c0,.19.084.285.253.285h5.37a.864.864,0,0,1,.853.853.77.77,0,0,1-.253.584.845.845,0,0,1-.6.237h-5.37c-.169,0-.253.1-.253.285v3.19a1.327,1.327,0,0,1-2.653,0v-3.19c0-.19-.084-.285-.253-.285H41.4a.842.842,0,0,1-.6-.237.77.77,0,0,1-.253-.584.864.864,0,0,1,.853-.853h5.37c.169,0,.253-.1.253-.285V65.457c0-.188-.084-.283-.253-.283H41.4a.864.864,0,0,1-.853-.853.774.774,0,0,1,.253-.585.845.845,0,0,1,.6-.236h4.518a.15.15,0,0,0,.141-.1.125.125,0,0,0-.015-.158" fill="#595757"/>
  </g>
</svg>
