<svg id="Сгруппировать_85" data-name="Сгруппировать 85" xmlns="http://www.w3.org/2000/svg" xmlns:xlink="http://www.w3.org/1999/xlink" width="180" height="180" viewBox="0 0 180 180">
  <defs>
    <clipPath id="clip-path">
      <rect id="Прямоугольник_63" data-name="Прямоугольник 63" width="180" height="180" fill="none"/>
    </clipPath>
  </defs>
  <g id="Сгруппировать_84" data-name="Сгруппировать 84" clip-path="url(#clip-path)">
    <path id="Контур_292" data-name="Контур 292" d="M46.423,167.584c-2.871-6.7-3.389-14.743-10.564-19.9-8.669-6.231-17.157-10.129-24.392-18.471C4.389,121.054.809,112.689.82,102.146.834,89.74,1.55,77.454,8.2,67.118A177.64,177.64,0,0,1,49.856,21.911C66.742,9.071,87.542-3.953,109.608,1.125c4.1.944,8.861,1.883,11.906,5.069,6.583,6.894-.384,16.123,1.729,23.948,3.388,12.547,15.918,9.238,24.292,8.313,11.2-1.238,22.478-.413,28.375,12.351,8.627,18.671-1.318,40.5-11.618,56.267-12.3,18.833-29.607,34.363-46.789,48.612-16.11,13.359-41.212,32.285-63.284,20.73a16.665,16.665,0,0,1-7.8-8.831" transform="translate(-0.007)" fill="#fff1c4"/>
    <path id="Контур_293" data-name="Контур 293" d="M63.241,53.24v-.013c0-.068-.03-.153,0,.013" transform="translate(-0.571)" fill="#fee498"/>
    <path id="Контур_294" data-name="Контур 294" d="M67.825,143.188c.3.263.007-.038-.076-.154-.148-.208-.284-.424-.422-.638l-.133-.208-.027-.042-.043-.067c-.114-.179-.227-.361-.34-.542q-.4-.645-.8-1.294c-1.612-2.631-3.194-5.279-4.774-7.93q-3.434-5.76-6.84-11.535-4.1-6.943-8.185-13.894-4.48-7.616-8.951-15.236L28.217,76.285q-4.19-7.143-8.386-14.279-3.582-6.094-7.174-12.18Q10.048,45.407,7.419,41c-.914-1.526-1.8-3.09-2.793-4.565a2.419,2.419,0,0,0-.2-.28c-.69-.762-1.91.269-1.218,1.032a2.484,2.484,0,0,1,.205.289c.044.064.085.13.127.2l.2.311c.471.755.93,1.516,1.388,2.277,1.6,2.65,3.171,5.31,4.746,7.972Q13.284,54,16.68,59.777q4.107,6.984,8.207,13.97,4.474,7.62,8.946,15.241,4.508,7.682,9.021,15.362,4.214,7.167,8.436,14.328,3.585,6.076,7.188,12.145,2.625,4.412,5.278,8.809c.906,1.491,1.758,3.078,2.8,4.477a2.461,2.461,0,0,0,.35.392c.766.686,1.672-.635.915-1.313" transform="translate(-0.027)" fill="#fee498"/>
    <path id="Контур_295" data-name="Контур 295" d="M35.445,41.318q15.079,1.1,30.155,2.239a.8.8,0,0,0,.118-1.6q-15.076-1.135-30.155-2.239a.8.8,0,0,0-.118,1.6" transform="translate(-0.314)" fill="#fff"/>
    <path id="Контур_296" data-name="Контур 296" d="M140.03,86.934c-1.9-1.363-3.831-2.694-5.678-4.127a59.954,59.954,0,0,1-5.082-4.524c-1.661-1.62-3.292-3.271-4.934-4.911a33.534,33.534,0,0,1-4.536-5.034,45.637,45.637,0,0,1-2.968-5.674c-.82-1.727-1.635-3.458-2.351-5.232-.019.005-.038.014-.056.018a1.039,1.039,0,0,1-1.178-.813c-1.017-3.469-1.574-7.169-3.588-10.244a1.265,1.265,0,0,1-.223-.745q-2.393.585-4.787,1.169c-2.853.695-5.709,1.447-8.585,2.061.3.185.606.366.919.537,2.939,1.61,6.06,2.915,9.1,4.326.925.43.394,1.944-.535,1.512-3.122-1.451-6.311-2.808-9.34-4.45a41.331,41.331,0,0,1-4.222-2.764,8.136,8.136,0,0,0-4.571-1.927,25.376,25.376,0,0,0-4.2.748,29.009,29.009,0,0,1-4.16.4q-1.177.03-2.355-.044a3.937,3.937,0,0,0-1.6,0,1.756,1.756,0,0,0-.9,1.922.907.907,0,0,1,.659.026,19.814,19.814,0,0,1,3,1.862A9.283,9.283,0,0,0,80.9,52.178c2.216.464,4.465.792,6.647,1.41,2.843.8,5.429,2.1,6.676,4.938a23.677,23.677,0,0,1,1.381,7.194c.035.341.072.681.114,1.022a.97.97,0,0,1,.473.662,29.038,29.038,0,0,0,2.566,6.074c.042.036.085.068.126.108a11.743,11.743,0,0,1,1.5,2.034,12.762,12.762,0,0,0,3.91,4.1c.886.5.367,1.613-.438,1.782l.172.132c.818.619-.094,1.936-.914,1.313a28.97,28.97,0,0,1-6.739-6.363c-1.9-2.779-2.271-5.923-2.9-9.153a28.781,28.781,0,0,0-1.245-4.477,8.79,8.79,0,0,0-2.1-3.77c-1.023-.892-2.247-1.511-3.251-2.43a5.091,5.091,0,0,0-.8-.736,2.737,2.737,0,0,0-1.2-.178c-.763-.046-1.523-.124-2.278-.239a28.758,28.758,0,0,1-3.69-.784.726.726,0,0,1-.373.148c-.977.114-1.535.93-2.036,1.7a13.435,13.435,0,0,1-1.78,2.29,10.134,10.134,0,0,1-2.521,1.813,24.715,24.715,0,0,1-1.168,3.542c-.042.136-.078.277-.109.42a1.013,1.013,0,0,1,.67-.007c.6.217,1.206.435,1.824.6l.2.053.136.032c.111.025.09.021-.061-.012a.628.628,0,0,0,.2.04c.067.012.136.023.2.033a5.953,5.953,0,0,0,.951.068.841.841,0,0,1,.642.308,10.881,10.881,0,0,0,1.372-1.781,4.708,4.708,0,0,0,.724-1.944,2.8,2.8,0,0,1,.3-1.4,3.968,3.968,0,0,1,1.564-.987c.551-.276,1.1-.554,1.654-.828a2.366,2.366,0,0,1,1.573-.363,15.129,15.129,0,0,1,1.728.6,16.432,16.432,0,0,0,3.974.735.8.8,0,0,1-.119,1.6,18.411,18.411,0,0,1-4.25-.78c-.376-.117-.738-.264-1.111-.389a1.1,1.1,0,0,0-1.114.044c-.645.32-1.287.644-1.93.966-.42.21-.568.2-.661.638-.056.268-.051.557-.106.83a6.571,6.571,0,0,1-.774,1.954,10.88,10.88,0,0,1-1.4,1.891c.863.541,1.5,1.364,2.344,1.971a2.607,2.607,0,0,0,3.022.184,2.02,2.02,0,0,0,.773-1.118,2.669,2.669,0,0,0-.332-1.688,8.829,8.829,0,0,0-2.28-3.01.825.825,0,0,1-.193-1.118.8.8,0,0,1,1.108-.2,10.772,10.772,0,0,1,2.664,3.349,5.143,5.143,0,0,1,.639,2.459,2.873,2.873,0,0,1,3.659,1.813c.458,1.157,1.334,1.98,1.77,3.166a12.389,12.389,0,0,0,1.34,3.218c1.37,1.994,2.7,3.958,3.963,6.039a22.3,22.3,0,0,0,12.683,9.88,47.973,47.973,0,0,1,13.591,7.582c2.373,1.783,4.5,3.851,6.722,5.811a44.814,44.814,0,0,1,5.745,5.391,3.175,3.175,0,0,1,.558,3.205,112.79,112.79,0,0,0,17.809-18.3,147.947,147.947,0,0,1-12.678-8.349" transform="translate(-0.64)" fill="#fff"/>
    <path id="Контур_297" data-name="Контур 297" d="M92.657,59.65c-.034-.084-.06-.171-.1-.253a6.522,6.522,0,0,0-3.927-3.391c.807.623,1.695,1.136,2.479,1.789a6.824,6.824,0,0,1,1.545,1.855" transform="translate(-0.8)" fill="#fff"/>
    <path id="Контур_298" data-name="Контур 298" d="M139.656,127.673l-6.83-7.8c-.824-.941-2.114-2.06-1.916-3.463a1.675,1.675,0,0,1,.133-.437,3.014,3.014,0,0,1-2.4-1.231c-1.866-2.335-4.39-4.159-6.6-6.154a54.693,54.693,0,0,0-6.523-5.239c-2.437-1.6-5.029-3.722-7.765-4.691a56.84,56.84,0,0,1-7.414-2.855A28,28,0,0,1,88.975,84.614c-1.273-2.126-2.816-3.947-4.138-6a17.148,17.148,0,0,1-1.288-3.287c-.451-1.122-1.2-2-1.647-3.131a3.566,3.566,0,0,1-.258-1.525c-.06.016-.117.041-.178.055a4.446,4.446,0,0,1-3.507-.833c-.881-.656-1.561-1.7-2.618-2.085-1.712,1.29-4.348,1.769-5.894-.071-1.658-1.974-.2-4.158.429-6.247-.147.044-.293.088-.442.125-1.939.476-4.061.089-5.115-1.78a2.373,2.373,0,0,1,.115-2.791c.456-.6.928-1.193,1.4-1.784-.823.155-1.646.3-2.473.415a.838.838,0,0,1-.241,0c-.024,0-.046.007-.071.008l-5.814.049-2.859.025c-.786.006-1.908.23-2.467-.475a.815.815,0,0,1,.269-1.241c3.173-1.421,6.406-2.665,9.661-3.874a1.7,1.7,0,0,0,.5-.117l6.153-1.213a3.1,3.1,0,0,1-.552-1.329.881.881,0,0,1-.18.01l-6.706-.274c-2-.081-3.83.008-5.578-1.084a4.6,4.6,0,0,0-2.506-.861,7.943,7.943,0,0,0-2.5.622,11.883,11.883,0,0,1-4.869.243c-1.951-.15-3.905-.277-5.859-.416-1.544-.109-3.5.062-4.822-.889-1.294-.929-1.632-2.428-2.131-3.843a.816.816,0,0,1-.289.028q-10.958-.977-21.954-1.428c2.709,4.08,5.106,8.4,7.593,12.616q7.191,12.2,14.306,24.436Q40.6,90.632,48.754,104.6q6.911,11.817,13.89,23.594c1.519,2.549,3.042,5.1,4.6,7.619q.413.669.833,1.336l.107.169.169.266.29.448a12.328,12.328,0,0,0,.832,1.19.811.811,0,0,1,.343-.063c.179,0,.359,0,.538,0,1.326-.028,2.432-.123,3.867-.232,2.154-.165,4.308-.355,6.461-.551,5.935-.539,11.866-1.128,17.8-1.723q9.944-1,19.888-2.018c5.689-.579,11.378-1.16,17.071-1.707,2.717-.262,5.451-.583,8.183-.72l-3.972-4.536" transform="translate(-0.095)" fill="#fff"/>
    <path id="Контур_299" data-name="Контур 299" d="M69.376,44.923q-.174-.612-.349-1.224c.561.071,1.126.109,1.691.126a10.322,10.322,0,0,0-1.342,1.1" transform="translate(-0.623)" fill="#fff"/>
    <path id="Контур_300" data-name="Контур 300" d="M74.008,52.213c-.938.163-1.876.341-2.811.511-1.954.356-3.907.718-5.864,1.067l-.545.1a3.82,3.82,0,0,0-.5-2.5l8.339-1.645a5.509,5.509,0,0,0,1.377,2.469" transform="translate(-0.58)" fill="#fee498"/>
    <path id="Контур_301" data-name="Контур 301" d="M75.79,53.542a.985.985,0,0,1-.116.028c-.6.079-1.19.2-1.783.3q-1.935.345-3.869.7a1.042,1.042,0,0,1,.2.281,1.031,1.031,0,0,1,.039.779,7.807,7.807,0,0,1-1.277,1.891c-.271.3-.548.589-.823.883-.028.029-.056.059-.084.09l-.034.036-.018.021-.082.093q-.166.192-.323.391a1.023,1.023,0,0,1-1.176.359,2.107,2.107,0,0,0,.209.221c1.186,1.084,3.109.5,4.394-.081a8.743,8.743,0,0,0,3.469-2.818A12.015,12.015,0,0,1,76.7,54.016c-.313-.145-.616-.3-.911-.474" transform="translate(-0.6)" fill="#fff"/>
    <path id="Контур_302" data-name="Контур 302" d="M62.529,51.761c.024.024.048.049.07.074.048.052.092.1.136.161.026.033.051.067.075.1l.03.044.059.107c.033.062.063.125.092.19s.059.143.085.216l.006.015c0,.023.01.047.012.054a3.12,3.12,0,0,1,.079.438c0,.034,0,.071.01.1a.143.143,0,0,1,0-.025c0,.066,0,.132,0,.2s-.012.155-.023.232c0,.025-.008.051-.012.076-.031.113-.069.222-.11.331l-4.674.04-1.922.016c2.016-.829,4.049-1.611,6.094-2.373" transform="translate(-0.51)" fill="#fff"/>
    <path id="Контур_303" data-name="Контур 303" d="M83.709,44.381c-.013.006.327.076.424.1q.339.066.683.1a8.32,8.32,0,0,0,2.719-.185,1.594,1.594,0,0,1,.581-.109c.124.024.231.152.342.254l.064.059a10.279,10.279,0,0,0-3.773.338c-.613.139-1.231.258-1.85.362l.015-.015c.175-.175.344-.356.509-.54a2.467,2.467,0,0,0,.285-.36" transform="translate(-0.748)" fill="#fff"/>
    <path id="Контур_304" data-name="Контур 304" d="M116.988,40.18c1.621-.359,3.239-.737,4.87-1.048a.748.748,0,0,0,.1-.03c.05.018.1.036.147.057a2.418,2.418,0,0,1,.286.2,2.386,2.386,0,0,1,.22.261,2.226,2.226,0,0,1,.129.274,2.143,2.143,0,0,1,.055.307,2.307,2.307,0,0,1-.027.351,2.163,2.163,0,0,1-.127.358c-3.386.654-6.739,1.56-10.089,2.375-4.567,1.112-9.131,2.24-13.7,3.329-1.489.354-2.979.73-4.485,1.019q-.578-.405-1.156-.82c-.473-.338-.955-.672-1.455-.977,3.225-.659,6.431-1.428,9.641-2.151,5.2-1.17,10.392-2.351,15.594-3.505" transform="translate(-0.828)" fill="#fee498"/>
    <path id="Контур_305" data-name="Контур 305" d="M99.751,40.414c-1.385-.423-2.83-.575-4.2-1.07-2.951-1.069-5.714-2.6-8.661-3.679a.964.964,0,0,1-.588-1.254c-2.027.363-3.721,1.965-5.27,3.209a20.432,20.432,0,0,1-2.756,1.952c-1.141.639-2.567.783-3.465,1.8-.951,1.076-1.481,2.421-2.622,3.341-1.034.832-3.289,2.138-1.546,3.537a.866.866,0,0,1,.192.222l1.791-.353a3.473,3.473,0,0,1,.517-1.29,2.9,2.9,0,0,1,2.372-1.293c1.44-.037,2.869.148,4.315.088a1.1,1.1,0,0,1,.142-.121,10.085,10.085,0,0,0,2.234-1.914,1.815,1.815,0,0,1,1.186-.792,7.115,7.115,0,0,1,1.423.179,6.527,6.527,0,0,0,1.479-.009c.473-.06.931-.22,1.4-.27,1.2-.127,1.949.887,2.753,1.627.028.025.053.053.077.08,1.329-.271,2.654-.569,3.979-.863q3.969-.881,7.935-1.784a16.5,16.5,0,0,0-2.69-1.343" transform="translate(-0.632)" fill="#fff"/>
    <path id="Контур_306" data-name="Контур 306" d="M92.657,59.65c-.034-.084-.06-.171-.1-.253a6.522,6.522,0,0,0-3.927-3.391c.807.623,1.695,1.136,2.479,1.789a6.824,6.824,0,0,1,1.545,1.855" transform="translate(-0.8)" fill="#fff0e2"/>
    <path id="Контур_307" data-name="Контур 307" d="M140.03,86.934c-1.9-1.363-3.831-2.694-5.678-4.127a59.954,59.954,0,0,1-5.082-4.524c-1.661-1.62-3.292-3.271-4.934-4.911a33.534,33.534,0,0,1-4.536-5.034,45.637,45.637,0,0,1-2.968-5.674c-.82-1.727-1.635-3.458-2.351-5.232-.019.005-.038.014-.056.018a1.039,1.039,0,0,1-1.178-.813c-1.017-3.469-1.574-7.169-3.588-10.244a1.265,1.265,0,0,1-.223-.745q-2.393.585-4.787,1.169c-2.853.695-5.709,1.447-8.585,2.061.3.185.606.366.919.537,2.939,1.61,6.06,2.915,9.1,4.326.925.43.394,1.944-.535,1.512-3.122-1.451-6.311-2.808-9.34-4.45a41.331,41.331,0,0,1-4.222-2.764,8.136,8.136,0,0,0-4.571-1.927,25.376,25.376,0,0,0-4.2.748,29.009,29.009,0,0,1-4.16.4q-1.177.03-2.355-.044a3.937,3.937,0,0,0-1.6,0,1.756,1.756,0,0,0-.9,1.922.907.907,0,0,1,.659.026,19.814,19.814,0,0,1,3,1.862A9.283,9.283,0,0,0,80.9,52.178c2.216.464,4.465.792,6.647,1.41,2.843.8,5.429,2.1,6.676,4.938a23.677,23.677,0,0,1,1.381,7.194c.035.341.072.681.114,1.022a.97.97,0,0,1,.473.662,29.038,29.038,0,0,0,2.566,6.074c.042.036.085.068.126.108a11.743,11.743,0,0,1,1.5,2.034,12.762,12.762,0,0,0,3.91,4.1c.886.5.367,1.613-.438,1.782l.172.132c.818.619-.094,1.936-.914,1.313a28.97,28.97,0,0,1-6.739-6.363c-1.9-2.779-2.271-5.923-2.9-9.153a28.781,28.781,0,0,0-1.245-4.477,8.79,8.79,0,0,0-2.1-3.77c-1.023-.892-2.247-1.511-3.251-2.43a5.091,5.091,0,0,0-.8-.736,2.737,2.737,0,0,0-1.2-.178c-.763-.046-1.523-.124-2.278-.239a28.758,28.758,0,0,1-3.69-.784.726.726,0,0,1-.373.148c-.977.114-1.535.93-2.036,1.7a13.435,13.435,0,0,1-1.78,2.29,10.134,10.134,0,0,1-2.521,1.813,24.715,24.715,0,0,1-1.168,3.542c-.042.136-.078.277-.109.42a1.013,1.013,0,0,1,.67-.007c.6.217,1.206.435,1.824.6l.2.053.136.032c.111.025.09.021-.061-.012a.628.628,0,0,0,.2.04c.067.012.136.023.2.033a5.953,5.953,0,0,0,.951.068.841.841,0,0,1,.642.308,10.881,10.881,0,0,0,1.372-1.781,4.708,4.708,0,0,0,.724-1.944,2.8,2.8,0,0,1,.3-1.4,3.968,3.968,0,0,1,1.564-.987c.551-.276,1.1-.554,1.654-.828a2.366,2.366,0,0,1,1.573-.363,15.129,15.129,0,0,1,1.728.6,16.432,16.432,0,0,0,3.974.735.8.8,0,0,1-.119,1.6,18.411,18.411,0,0,1-4.25-.78c-.376-.117-.738-.264-1.111-.389a1.1,1.1,0,0,0-1.114.044c-.645.32-1.287.644-1.93.966-.42.21-.568.2-.661.638-.056.268-.051.557-.106.83a6.571,6.571,0,0,1-.774,1.954,10.88,10.88,0,0,1-1.4,1.891c.863.541,1.5,1.364,2.344,1.971a2.607,2.607,0,0,0,3.022.184,2.02,2.02,0,0,0,.773-1.118,2.669,2.669,0,0,0-.332-1.688,8.829,8.829,0,0,0-2.28-3.01.825.825,0,0,1-.193-1.118.8.8,0,0,1,1.108-.2,10.772,10.772,0,0,1,2.664,3.349,5.143,5.143,0,0,1,.639,2.459,2.873,2.873,0,0,1,3.659,1.813c.458,1.157,1.334,1.98,1.77,3.166a12.389,12.389,0,0,0,1.34,3.218c1.37,1.994,2.7,3.958,3.963,6.039a22.3,22.3,0,0,0,12.683,9.88,47.973,47.973,0,0,1,13.591,7.582c2.373,1.783,4.5,3.851,6.722,5.811a44.814,44.814,0,0,1,5.745,5.391,3.175,3.175,0,0,1,.558,3.205,112.79,112.79,0,0,0,17.809-18.3,147.947,147.947,0,0,1-12.678-8.349" transform="translate(-0.64)" fill="#fff0e2"/>
    <path id="Контур_308" data-name="Контур 308" d="M75.79,53.542a.985.985,0,0,1-.116.028c-.6.079-1.19.2-1.783.3q-1.935.345-3.869.7a1.042,1.042,0,0,1,.2.281,1.031,1.031,0,0,1,.039.779,7.807,7.807,0,0,1-1.277,1.891c-.271.3-.548.589-.823.883-.028.029-.056.059-.084.09l-.034.036-.018.021-.082.093q-.166.192-.323.391a1.023,1.023,0,0,1-1.176.359,2.107,2.107,0,0,0,.209.221c1.186,1.084,3.109.5,4.394-.081a8.743,8.743,0,0,0,3.469-2.818A12.015,12.015,0,0,1,76.7,54.016c-.313-.145-.616-.3-.911-.474" transform="translate(-0.6)" fill="#fff0e2"/>
    <path id="Контур_309" data-name="Контур 309" d="M99.751,40.414c-1.385-.423-2.83-.575-4.2-1.07-2.951-1.069-5.714-2.6-8.661-3.679a.964.964,0,0,1-.588-1.254c-2.027.363-3.721,1.965-5.27,3.209a20.432,20.432,0,0,1-2.756,1.952c-1.141.639-2.567.783-3.465,1.8-.951,1.076-1.481,2.421-2.622,3.341-1.034.832-3.289,2.138-1.546,3.537a.866.866,0,0,1,.192.222l1.791-.353a3.473,3.473,0,0,1,.517-1.29,2.9,2.9,0,0,1,2.372-1.293c1.44-.037,2.869.148,4.315.088a1.1,1.1,0,0,1,.142-.121,10.085,10.085,0,0,0,2.234-1.914,1.815,1.815,0,0,1,1.186-.792,7.115,7.115,0,0,1,1.423.179,6.527,6.527,0,0,0,1.479-.009c.473-.06.931-.22,1.4-.27,1.2-.127,1.949.887,2.753,1.627.028.025.053.053.077.08,1.329-.271,2.654-.569,3.979-.863q3.969-.881,7.935-1.784a16.5,16.5,0,0,0-2.69-1.343" transform="translate(-0.632)" fill="#fff0e2"/>
    <path id="Контур_310" data-name="Контур 310" d="M73.016,41.079c-.257.374-.493.768-.748,1.145-.022,0-.043-.007-.065-.006A17.8,17.8,0,0,1,68.513,42c-.051-.167-.1-.336-.15-.5-.1-.319-.218-.645-.354-.963q2.566.219,5.137.362c-.044.06-.089.117-.131.178" transform="translate(-0.614)" fill="#92a9b5"/>
    <path id="Контур_311" data-name="Контур 311" d="M65.991,40.639a7.6,7.6,0,0,1,.639,1.645c.353,1.2.7,2.4,1.047,3.608L62.973,45.7c-1.586-.064-3.228-.01-4.8-.224a5.544,5.544,0,0,1-2.083-.956,5.976,5.976,0,0,0-2.106-.769,8.842,8.842,0,0,0-4.053.729,12.94,12.94,0,0,1-4.657.029l-5.045-.358c-.814-.058-1.628-.111-2.442-.173a3.035,3.035,0,0,1-1.927-.586A5.657,5.657,0,0,1,34.625,41a9.428,9.428,0,0,0-1.4-2.969c-.076-.093-.168-.167-.252-.252a3.358,3.358,0,0,0,.641.138c.64.088,1.286.144,1.928.209,2.213.225,4.427.429,6.64.634,5.479.508,10.96.995,16.438,1.517,1.692.162,3.394.291,5.078.527a.689.689,0,0,0,.521-.12.564.564,0,0,0,.109.018.882.882,0,0,0,.57-.186A1.982,1.982,0,0,0,65.392,40a2.2,2.2,0,0,1,.2.145,3.074,3.074,0,0,1,.4.5" transform="translate(-0.298)" fill="#fff"/>
    <path id="Контур_312" data-name="Контур 312" d="M31.025,35.749a3.422,3.422,0,0,1,1.015.468c.4.289.076.583.269,1.006a.516.516,0,0,0,.033.056c-.1-.065-.191-.14-.3-.195-.369-.192-.769-.289-1.145-.463-.148-.068-.272-.2-.408-.263,0-.032,0-.063-.008-.094a.806.806,0,0,0,.542-.515" transform="translate(-0.275)" fill="#fff"/>
    <path id="Контур_313" data-name="Контур 313" d="M58.138,37.611c1.6.133,3.219.316,4.827.328a.743.743,0,0,0,.527.262,1.488,1.488,0,0,1,.21.017,1.331,1.331,0,0,1,.15.053,1.5,1.5,0,0,1,.156.109c.031.033.06.068.088.1a1.223,1.223,0,0,1,.056.121c.009.039.015.079.021.119s-.007.1-.013.155-.039.115-.061.17a1.384,1.384,0,0,1-.093.133c-.019.017-.038.035-.058.051a.857.857,0,0,0-.121-.029c-3.559-.5-7.169-.726-10.745-1.055-5.009-.461-10.02-.908-15.027-1.389-.962-.092-1.924-.185-2.886-.285-.332-.035-.664-.069-.995-.107l-.264-.031a1.085,1.085,0,0,0-.06-.431,1.783,1.783,0,0,0-.419-.638q12.339,1.3,24.708,2.343" transform="translate(-0.302)" fill="#fff"/>
    <path id="Контур_314" data-name="Контур 314" d="M145.924,137.112c-2.044.332-4.1.608-6.15.88-6.44.852-12.894,1.6-19.349,2.339q-11.529,1.315-23.07,2.518c-6.73.7-13.462,1.387-20.2,2-2.321.213-4.644.419-6.969.593-1.4.1-2.218.171-3.555.187-.12,0-.5-.066-.113.02a.9.9,0,0,0-.24-.016c-.113-.215-.261-.426-.375-.625q-.65-1.134-1.309-2.261-2.366-4.063-4.753-8.116-3.508-5.973-7.025-11.941-4.254-7.223-8.513-14.444Q39.65,100.359,35,92.469L25.615,76.563q-4.369-7.409-8.734-14.818-3.688-6.26-7.37-12.521-2.647-4.5-5.285-9.01C3.4,38.8,2.448,37.4,1.744,35.918c-.022-.045-.053-.087-.071-.134-.087-.209-.067-.693-.172-.69a.819.819,0,0,0,.284-.06c3.236.507,6.544.671,9.8.937,4.356.356,8.716.685,13.071,1.043,1.456.119,2.914.228,4.365.4.711.861,2.117.839,2.806,1.79.044.06.082.124.123.186Q20.687,38.4,9.383,37.952a.782.782,0,0,0-.82.725.768.768,0,0,0,.013.963c.114.147.218.3.322.457.07.1.14.21.208.315l.226.352c.49.774.968,1.556,1.445,2.339,1.543,2.537,3.057,5.091,4.569,7.647Q22.318,62.535,29.2,74.377q8.153,13.971,16.3,27.945,7.141,12.221,14.341,24.406c1.672,2.816,3.349,5.629,5.056,8.423.964,1.579,1.909,3.189,2.978,4.7.1.144.2.288.317.422a.728.728,0,0,0,.867.219.687.687,0,0,0,.563.27,84.939,84.939,0,0,0,9.22-.624c5.694-.5,11.383-1.062,17.07-1.629q9.946-.99,19.889-2.013,8.9-.906,17.8-1.791c3.473-.339,6.953-.725,10.438-.929.054,0,.335-.017.427-.019a.841.841,0,0,0,.358-.091l2.757,3.149c-.549.112-1.1.207-1.654.3" transform="translate(-0.014)" fill="#92a9b5"/>
    <path id="Контур_315" data-name="Контур 315" d="M177.1,125.29a58.366,58.366,0,0,1-3.977,6.536,26.42,26.42,0,0,1-10.6,9.181,16.31,16.31,0,0,1-6.735,1.417.707.707,0,0,0-.042-.058l-11.6-13.249q-2.873-3.282-5.746-6.563l-2.818-3.22c-.488-.556-.993-1.1-1.462-1.673a2.5,2.5,0,0,1-.448-.645c-.05-.131-.178-.68.141-.524a.631.631,0,0,0,.871-.249.842.842,0,0,0,.173-.106,114.483,114.483,0,0,0,20.169-20.513,2.253,2.253,0,0,0,.252-.618c.01-.013.022-.022.03-.035.173-.246,2.237,1.881,2.5,2.133q1.445,1.41,2.9,2.812,3.136,3.022,6.3,6.021c4.184,3.975,8.384,7.933,12.555,11.922.015.015.033.024.048.037a18.266,18.266,0,0,1-2.509,7.394" transform="translate(-1.206)" fill="#58b299"/>
    <path id="Контур_316" data-name="Контур 316" d="M63.241,53.244V53.23l0-.047c-.008-.054-.022-.083,0,.061" transform="translate(-0.571)" fill="#595757"/>
    <path id="Контур_317" data-name="Контур 317" d="M67.825,143.188c.3.263.007-.038-.076-.154-.148-.208-.284-.424-.422-.638l-.133-.208-.028-.042-.042-.067c-.114-.179-.227-.361-.34-.542q-.4-.645-.8-1.294c-1.612-2.631-3.194-5.279-4.774-7.93q-3.434-5.76-6.84-11.535-4.1-6.943-8.185-13.894-4.48-7.616-8.951-15.236L28.217,76.285q-4.19-7.143-8.386-14.279-3.582-6.094-7.174-12.18Q10.048,45.407,7.419,41c-.914-1.526-1.8-3.09-2.793-4.565a2.419,2.419,0,0,0-.2-.28c-.69-.762-1.91.269-1.218,1.032a2.484,2.484,0,0,1,.205.289c.062.093.121.188.181.282-.174-.273.084.135.142.226.471.755.93,1.516,1.388,2.277,1.6,2.65,3.171,5.31,4.746,7.972Q13.284,54,16.68,59.777q4.107,6.984,8.207,13.97,4.474,7.62,8.945,15.241,4.51,7.682,9.022,15.362,4.214,7.167,8.436,14.328,3.585,6.076,7.188,12.145,2.625,4.412,5.278,8.809c.906,1.491,1.758,3.078,2.8,4.477a2.461,2.461,0,0,0,.35.392c.766.686,1.672-.635.915-1.313" transform="translate(-0.027)" fill="#595757"/>
    <path id="Контур_318" data-name="Контур 318" d="M35.445,41.318q15.079,1.1,30.155,2.239a.8.8,0,0,0,.118-1.6q-15.076-1.135-30.155-2.239a.8.8,0,0,0-.118,1.6" transform="translate(-0.314)" fill="#595757"/>
    <path id="Контур_319" data-name="Контур 319" d="M161.728,140.807c-.138.064-.268.139-.406.2a16.3,16.3,0,0,1-6.724,1.424.776.776,0,0,0-.052-.065l-11.6-13.249q-2.872-3.282-5.746-6.563l-2.818-3.22c-.487-.556-.992-1.1-1.463-1.673a2.5,2.5,0,0,1-.447-.645c-.049-.131-.177-.68.141-.524a.633.633,0,0,0,.873-.248.864.864,0,0,0,.171-.107,114.45,114.45,0,0,0,20.169-20.513.8.8,0,0,0,.135-.256.814.814,0,0,0,.118-.358c.01-.012.02-.026.029-.039.174-.246,2.237,1.881,2.494,2.133q1.446,1.41,2.9,2.812,3.138,3.022,6.3,6.021c4.184,3.975,8.385,7.933,12.556,11.922a.472.472,0,0,0,.049.042c-.021.349-.06.693-.113,1.035a5.42,5.42,0,0,1,1.6.007c.045-.331.083-.664.1-1a.763.763,0,0,0-.194-.574.66.66,0,0,0-.228-.539c-4.709-4.5-9.455-8.968-14.173-13.461q-3.474-3.309-6.919-6.649a22.24,22.24,0,0,0-3.022-2.864,1.882,1.882,0,0,0-2.562.075c-3.808-2.185-7.451-4.646-11.032-7.19a98.226,98.226,0,0,1-11.115-8.614c-1.677-1.6-3.3-3.25-4.94-4.886a52.732,52.732,0,0,1-4.757-4.978,31.056,31.056,0,0,1-3.169-5.74c-.914-1.928-1.844-3.85-2.639-5.831a44.9,44.9,0,0,1-1.929-6.535,16.776,16.776,0,0,0-1.929-5.14q3.16-.77,6.323-1.526c1.5-.357,3-.736,4.512-1.025a.756.756,0,0,0,.446-.249.739.739,0,0,0,.393-.294,2.973,2.973,0,0,0,.3-2.695,2.84,2.84,0,0,0-1.851-1.691.865.865,0,0,0-.553.007.815.815,0,0,0-.228.014c-3.775.719-7.519,1.636-11.268,2.48l-2.587.583a.922.922,0,0,0-.2-.137,40.017,40.017,0,0,0-5.652-2.081c-1.9-.645-3.642-1.641-5.485-2.427-1.813-.773-3.664-1.452-5.489-2.2a8.636,8.636,0,0,0-4.41-1c-2.5.318-4.536,2.227-6.432,3.741a13.207,13.207,0,0,1-3.07,2,13.533,13.533,0,0,0-2.14.906l-.037.025a.772.772,0,0,0-.348-.095q-3.518-.178-7.027-.494a.794.794,0,0,0-.318.032,2.52,2.52,0,0,0-.843-.475,2.376,2.376,0,0,0-.12-.463,2.193,2.193,0,0,0-1.81-1.355.67.67,0,0,0-.567-.262c-1.394,0-2.8-.155-4.185-.267-2.5-.2-5-.429-7.494-.66q-8.222-.762-16.436-1.6c-1.659-.167-3.318-.331-4.976-.511a.8.8,0,0,0-.666,1.3.938.938,0,0,0,.039.377,1.534,1.534,0,0,0-.533.774c-7.441-.843-14.95-1.168-22.406-1.848-1.479-.135-2.967-.249-4.435-.48a.692.692,0,0,0-.488.085c-1.607.221-1.61,2.125-.931,3.337.35.624.712,1.242,1.07,1.861q2.194,3.779,4.413,7.544,3.4,5.8,6.816,11.59,4.233,7.189,8.471,14.376l9.376,15.9q4.767,8.08,9.532,16.161,4.471,7.581,8.939,15.162,3.816,6.474,7.625,12.952,2.751,4.679,5.493,9.362c.889,1.521,1.784,3.038,2.647,4.574a1.575,1.575,0,0,1,.13.246.63.63,0,0,0,.738.46.76.76,0,0,0,.291.127,11.2,11.2,0,0,0,3.02-.037c2.054-.132,4.107-.31,6.157-.49,6.5-.573,12.991-1.227,19.481-1.9q11.664-1.2,23.317-2.517c6.769-.763,13.537-1.545,20.293-2.415,2.291-.3,4.582-.6,6.867-.945a26.867,26.867,0,0,0,3.539-.649l.117-.033,4.568,5.218.041.043a.7.7,0,0,0,.693.581,17.61,17.61,0,0,0,7.784-1.47,3.85,3.85,0,0,1-.117-1.745m-29-20.936q3.414,3.9,6.83,7.8l3.963,4.526c-2.729.137-5.46.469-8.175.73-5.692.548-11.382,1.128-17.071,1.707q-9.943,1.013-19.888,2.018c-5.93.6-11.861,1.184-17.8,1.724-2.152.2-4.306.385-6.461.55-1.434.11-2.54.205-3.867.232-.179,0-.359.006-.538,0a.824.824,0,0,0-.343.063,12.326,12.326,0,0,1-.832-1.19q-.146-.224-.289-.448l-.172-.269-.105-.166q-.419-.666-.833-1.336c-1.56-2.523-3.084-5.07-4.6-7.618q-7.01-11.759-13.889-23.6Q40.493,90.639,32.353,76.66,25.218,64.431,18.047,52.224c-2.485-4.215-4.876-8.542-7.585-12.622q10.989.458,21.946,1.433a.83.83,0,0,0,.291-.024c.5,1.413.835,2.912,2.129,3.839,1.326.951,3.278.78,4.822.89,1.953.138,3.907.265,5.859.415a11.866,11.866,0,0,0,4.869-.243,7.941,7.941,0,0,1,2.5-.621,4.6,4.6,0,0,1,2.506.86c1.748,1.093,3.582,1,5.578,1.084l6.706.274a.858.858,0,0,0,.178-.01,3.083,3.083,0,0,0,.554,1.329l-6.152,1.214a1.958,1.958,0,0,1-.5.116c-3.255,1.21-6.488,2.453-9.66,3.874a.815.815,0,0,0-.27,1.242c.559.705,1.681.48,2.467.474l2.859-.025,5.815-.049c.024,0,.049,0,.071,0a.873.873,0,0,0,.24,0c.827-.111,1.651-.26,2.474-.415-.473.59-.944,1.181-1.4,1.783a2.375,2.375,0,0,0-.115,2.792c1.055,1.869,3.176,2.255,5.115,1.779.149-.036.3-.077.444-.12-.63,2.087-2.088,4.27-.431,6.242,1.547,1.842,4.189,1.363,5.9.071,1.054.388,1.732,1.431,2.612,2.086a4.449,4.449,0,0,0,3.507.832,3.713,3.713,0,0,0,2.06-1.245c1.737,1.465,2.721,3.577,3.726,5.584A48.77,48.77,0,0,0,91.3,81.814c1.566,2.162,3.226,4.267,4.923,6.325A20.913,20.913,0,0,0,102.1,93.26a22.965,22.965,0,0,0,8.051,2.675.846.846,0,0,0,.248.164,23.579,23.579,0,0,1,5.8,4q2.836,2.44,5.553,5.02,5.09,4.834,9.739,10.112a1.9,1.9,0,0,0-.684,1.181c-.2,1.4,1.092,2.522,1.916,3.463M68.4,43.7q.838.1,1.684.131a10.315,10.315,0,0,0-1.34,1.08q-.171-.6-.344-1.211M68,54.834c1.765-.323,3.529-.648,5.295-.963.593-.106,1.186-.222,1.783-.3a.954.954,0,0,0,.1-.02c.291.169.593.324.9.468a12.231,12.231,0,0,0-2.157,2.7A8.754,8.754,0,0,1,70.45,59.54c-1.285.583-3.208,1.164-4.394.081a2.225,2.225,0,0,1-.608-.924c-.151-.474.187-.73.467-1.083l1.92-2.431A.758.758,0,0,0,68,54.834m2.62-2.11c-1.954.356-3.907.718-5.864,1.067l-.533.1a3.849,3.849,0,0,0-.5-2.5l8.325-1.642a5.506,5.506,0,0,0,1.369,2.46c-.935.162-1.867.35-2.8.52m-7.951.715c0,.077-.012.154-.022.231,0,.028-.009.056-.013.084-.031.11-.063.218-.1.323l-4.679.04-1.937.017c2.02-.831,4.059-1.611,6.108-2.375l.071.075c.047.052.092.106.135.161.026.033.052.067.075.1.007.009.019.028.03.044.021.035.041.07.059.106.033.062.063.126.092.19s.06.144.086.217l.007.019c0,.022.009.043.011.049a3.147,3.147,0,0,1,.079.438v.022a.345.345,0,0,1,0,.045v0c0,.013,0,.025,0,.037l0-.022c0,.065,0,.13,0,.195m49.177-2.613a43.716,43.716,0,0,0,1.646,5.721c.788,2.088,1.747,4.1,2.7,6.116a45.623,45.623,0,0,0,2.967,5.674,33.651,33.651,0,0,0,4.537,5.035c1.642,1.639,3.273,3.29,4.934,4.91a59.781,59.781,0,0,0,5.082,4.524c1.847,1.433,3.781,2.764,5.678,4.128a147.486,147.486,0,0,0,12.682,8.357,112.805,112.805,0,0,1-19.019,19.285q-5.008-5.709-10.532-10.925-2.7-2.547-5.517-4.969a25.893,25.893,0,0,0-5.528-3.847.755.755,0,0,0-.618-.427,21.017,21.017,0,0,1-7.708-2.388,20.148,20.148,0,0,1-5.9-5.143,69.884,69.884,0,0,1-8.774-12.743c-1.129-2.259-2.3-4.526-4.3-6.115a4.617,4.617,0,0,0-.581-3,10.761,10.761,0,0,0-2.664-3.349.8.8,0,0,0-1.108.195.826.826,0,0,0,.193,1.119,8.825,8.825,0,0,1,2.28,3.009,2.671,2.671,0,0,1,.332,1.688,2.01,2.01,0,0,1-.774,1.118,2.606,2.606,0,0,1-3.021-.183c-.837-.6-1.473-1.429-2.331-1.97a10.906,10.906,0,0,0,1.382-1.893,6.558,6.558,0,0,0,.773-1.954c.056-.273.05-.562.107-.829.093-.435.24-.428.661-.639.643-.322,1.285-.646,1.93-.966a1.1,1.1,0,0,1,1.114-.044c.373.125.735.272,1.111.389a18.359,18.359,0,0,0,4.25.78.8.8,0,0,0,.118-1.6,16.531,16.531,0,0,1-3.973-.735,14.752,14.752,0,0,0-1.728-.6,2.366,2.366,0,0,0-1.573.363c-.553.273-1.1.552-1.655.828a3.953,3.953,0,0,0-1.563.987,2.8,2.8,0,0,0-.3,1.4,4.7,4.7,0,0,1-.724,1.943c-1.01,1.633-3.128,4.107-5.3,3.057-1.1-.532-1.051-1.8-.737-2.813a24.73,24.73,0,0,0,1.173-3.538,10.145,10.145,0,0,0,2.516-1.816,13.514,13.514,0,0,0,1.78-2.29c.5-.772,1.058-1.588,2.036-1.7a.749.749,0,0,0,.37-.14,28.954,28.954,0,0,0,3.693.777q1.133.173,2.277.238a2.727,2.727,0,0,1,1.2.179,5.178,5.178,0,0,1,.8.735c1,.92,2.229,1.539,3.251,2.431a8.784,8.784,0,0,1,2.1,3.77,28.769,28.769,0,0,1,1.245,4.476c.629,3.23,1,6.374,2.9,9.154a28.97,28.97,0,0,0,6.739,6.363c.82.622,1.731-.694.914-1.314a31.179,31.179,0,0,1-5.816-5.244,15.56,15.56,0,0,1-2.851-7.434,35.3,35.3,0,0,0-2.3-8.193,7.521,7.521,0,0,0-2.116-2.97c-.942-.785-2.043-1.356-2.96-2.175a5.526,5.526,0,0,0-1.424-1.145A6.414,6.414,0,0,0,83.9,54.21a23.487,23.487,0,0,1-4.45-.766c-2.118-.584-5.542-1.589-5.9-4.215a1.8,1.8,0,0,1,.9-2.013,3.972,3.972,0,0,1,1.6,0q1.176.075,2.355.044a29.008,29.008,0,0,0,4.16-.4,25.272,25.272,0,0,1,4.2-.748,8.141,8.141,0,0,1,4.571,1.926A41.163,41.163,0,0,0,95.563,50.8c3.028,1.643,6.218,3,9.34,4.45.93.432,1.46-1.082.535-1.511-3.036-1.411-6.157-2.716-9.1-4.327-.309-.169-.612-.346-.912-.528,2.875-.615,5.727-1.375,8.578-2.069q2.869-.7,5.737-1.4l.011.015a14.311,14.311,0,0,1,2.087,5.4M82.145,45.3l.021-.019c.175-.175.344-.357.509-.541a3.765,3.765,0,0,0,.289-.357c.035.014.33.075.42.092q.339.066.683.1a8.322,8.322,0,0,0,2.719-.186,1.637,1.637,0,0,1,.581-.109c.124.024.231.152.342.254l.061.057a10.286,10.286,0,0,0-3.77.34q-.923.21-1.856.367m34.015-5.12c1.62-.359,3.239-.737,4.87-1.048a.883.883,0,0,0,.123-.032c.046.017.09.034.135.054a1.331,1.331,0,0,1,.507.466,2.121,2.121,0,0,1,.126.268,2.186,2.186,0,0,1,.057.31,2.236,2.236,0,0,1-.027.355,2.174,2.174,0,0,1-.114.325l-.018.03c-3.388.653-6.742,1.561-10.093,2.377-4.567,1.112-9.132,2.24-13.705,3.329-1.49.355-2.981.731-4.486,1.02-.386-.27-.77-.545-1.155-.821-.469-.336-.949-.668-1.447-.971,3.223-.659,6.426-1.435,9.633-2.157,5.2-1.17,10.393-2.351,15.594-3.505M74.18,41.371c.9-1.017,2.326-1.16,3.465-1.8A20.466,20.466,0,0,0,80.4,37.619c1.619-1.3,3.393-3.006,5.542-3.264,1.462-.174,2.855.645,4.17,1.171,1.633.653,3.281,1.268,4.9,1.958,1.844.787,3.584,1.782,5.486,2.428,1.278.434,2.576.8,3.835,1.281q-5.229,1.18-10.46,2.347c-1.322.294-2.643.6-3.971.87-.027-.03-.055-.059-.084-.087-.8-.74-1.557-1.754-2.753-1.627-.473.051-.93.211-1.4.27a6.577,6.577,0,0,1-1.478.01,7.054,7.054,0,0,0-1.423-.18,1.811,1.811,0,0,0-1.186.793A10.077,10.077,0,0,1,79.342,45.5a1.163,1.163,0,0,0-.169.131c-1.437.058-2.856-.134-4.287-.1a2.9,2.9,0,0,0-2.373,1.292,3.508,3.508,0,0,0-.521,1.292l-1.782.351a.85.85,0,0,0-.2-.221c-1.742-1.4.513-2.706,1.546-3.538,1.143-.92,1.672-2.265,2.622-3.341m-1.657-.464c-.042.057-.081.114-.121.172-.256.372-.491.764-.744,1.14a.548.548,0,0,0-.07,0,17.785,17.785,0,0,1-3.68-.207q-.077-.255-.158-.509c-.1-.317-.214-.641-.348-.956q2.557.218,5.121.361m-8.6-.218a.56.56,0,0,0,.109.013.881.881,0,0,0,.57-.185A2.017,2.017,0,0,0,65.1,40a1.865,1.865,0,0,1,.2.144,3.068,3.068,0,0,1,.4.5,7.638,7.638,0,0,1,.639,1.645c.353,1.2.7,2.406,1.047,3.609L62.675,45.7c-1.586-.065-3.228-.01-4.8-.224a5.559,5.559,0,0,1-2.083-.956,5.957,5.957,0,0,0-2.106-.769,8.829,8.829,0,0,0-4.053.729,12.963,12.963,0,0,1-4.657.028l-5.045-.358c-.814-.058-1.628-.111-2.442-.173a3.029,3.029,0,0,1-1.927-.586A5.654,5.654,0,0,1,34.327,41a9.433,9.433,0,0,0-1.4-2.97c-.067-.082-.138-.16-.211-.235a3.475,3.475,0,0,0,.6.121c.64.089,1.286.144,1.928.21,2.213.224,4.427.428,6.64.633,5.479.508,10.96,1,16.438,1.518,1.692.161,3.394.29,5.078.526a.7.7,0,0,0,.521-.115M57.836,37.61c1.6.134,3.219.319,4.827.332a.753.753,0,0,0,.527.259,1.358,1.358,0,0,1,.221.01,1.316,1.316,0,0,1,.149.053,1.468,1.468,0,0,1,.146.1c.035.037.066.076.1.116s.038.076.055.114.016.084.022.127a1.431,1.431,0,0,1-.013.16c-.017.057-.037.111-.058.165s-.057.087-.089.128l-.064.056a.991.991,0,0,0-.13-.029c-3.559-.5-7.169-.726-10.745-1.055-5.009-.461-10.02-.908-15.027-1.388-.962-.093-1.924-.186-2.886-.286-.332-.034-.664-.069-.995-.107-.086-.01-.172-.024-.259-.034a1.1,1.1,0,0,0-.065-.428,1.788,1.788,0,0,0-.409-.631q12.335,1.3,24.7,2.336M30.753,35.746a3.423,3.423,0,0,1,1.012.471c.4.289.076.583.269,1.006l.009.02c-.089-.057-.179-.11-.274-.159-.37-.193-.77-.289-1.145-.463-.149-.068-.272-.2-.408-.264,0-.03,0-.06-.008-.09a.8.8,0,0,0,.545-.521M145.911,137.112c-2.044.332-4.1.608-6.15.88-6.44.851-12.894,1.6-19.349,2.339q-11.529,1.315-23.07,2.518c-6.73.7-13.462,1.387-20.2,2-2.321.213-4.644.419-6.969.593-1.4.1-2.218.171-3.555.187-.12,0-.5-.065-.113.02a.916.916,0,0,0-.241-.019c-.113-.214-.261-.424-.375-.622-.432-.756-.87-1.508-1.308-2.26q-2.366-4.065-4.753-8.117-3.508-5.973-7.025-11.941-4.254-7.223-8.513-14.444-4.653-7.89-9.306-15.78L25.6,76.563q-4.369-7.409-8.734-14.818-3.688-6.26-7.37-12.521-2.647-4.5-5.285-9.01C3.388,38.8,2.435,37.4,1.73,35.918c-.022-.045-.053-.087-.071-.134-.087-.209-.067-.693-.172-.69a.853.853,0,0,0,.29-.058c3.234.505,6.541.669,9.8.935,4.356.356,8.716.685,13.071,1.043,1.455.119,2.912.227,4.362.394.711.863,2.12.84,2.809,1.791.044.06.086.122.127.184q-11.269-.99-22.575-1.431a.783.783,0,0,0-.822.723.771.771,0,0,0,.015.965c.114.147.218.3.322.457.07.1.14.21.208.315l.239.372c.486.768.96,1.543,1.432,2.319,1.543,2.537,3.057,5.091,4.569,7.647Q22.3,62.535,29.183,74.377q8.153,13.973,16.3,27.945,7.141,12.221,14.341,24.406c1.672,2.816,3.349,5.629,5.056,8.423.964,1.579,1.909,3.189,2.978,4.7.1.144.2.288.317.422a.73.73,0,0,0,.867.22.689.689,0,0,0,.563.269,84.939,84.939,0,0,0,9.22-.624c5.694-.5,11.383-1.062,17.07-1.629q9.946-.99,19.889-2.013,8.9-.906,17.8-1.791c3.471-.339,6.948-.725,10.431-.93-.04,0,.327-.015.434-.018a.846.846,0,0,0,.359-.09l2.759,3.151c-.55.112-1.1.2-1.657.294" transform="translate(0)" fill="#595757"/>
    <text id="MENU" transform="matrix(0.847, -0.531, 0.531, 0.847, 30.42, 59.768)" fill="#fb7180" font-size="6" font-family="hanatotyoutyo"><tspan x="0" y="0">MENU</tspan></text>
    <text id="PRICE" transform="translate(66.836 124.223) rotate(-28.327)" fill="#fb7180" font-size="14" font-family="hanatotyoutyo"><tspan x="0" y="0">PRICE</tspan></text>
    <line id="Линия_3" data-name="Линия 3" x2="35.094" y2="1.5" transform="translate(45.525 74.994)" fill="none" stroke="#040000" stroke-miterlimit="10" stroke-width="0.679"/>
    <line id="Линия_4" data-name="Линия 4" x2="36.901" y2="0.862" transform="translate(53.942 89.417)" fill="none" stroke="#040000" stroke-miterlimit="10" stroke-width="0.679"/>
  </g>
</svg>
