<svg xmlns="http://www.w3.org/2000/svg" xmlns:xlink="http://www.w3.org/1999/xlink" width="82.641" height="15.973" viewBox="0 0 82.641 15.973">
  <defs>
    <clipPath id="clip-path">
      <rect id="Прямоугольник_172" data-name="Прямоугольник 172" width="82.641" height="15.973" transform="translate(0 0)" fill="none"/>
    </clipPath>
  </defs>
  <g id="Сгруппировать_268" data-name="Сгруппировать 268" transform="translate(0 0)">
    <g id="Сгруппировать_267" data-name="Сгруппировать 267" transform="translate(0 0)" clip-path="url(#clip-path)">
      <path id="Контур_1448" data-name="Контур 1448" d="M241.163,7.986A7.986,7.986,0,1,1,233.177,0a7.986,7.986,0,0,1,7.986,7.986" transform="translate(-181.422 0)" fill="#007ccf"/>
      <path id="Контур_1449" data-name="Контур 1449" d="M275.251,10.906a1.6,1.6,0,1,1-1.6-1.6,1.6,1.6,0,0,1,1.6,1.6" transform="translate(-219.169 -7.494)" fill="#fff"/>
      <path id="Контур_1450" data-name="Контур 1450" d="M277.634,14.046a.847.847,0,1,1-.846-.846.846.846,0,0,1,.846.846" transform="translate(-222.31 -10.634)" fill="#14257e"/>
      <path id="Контур_1451" data-name="Контур 1451" d="M246.624,10.906a1.6,1.6,0,1,1-1.6-1.6,1.6,1.6,0,0,1,1.6,1.6" transform="translate(-196.106 -7.494)" fill="#fff"/>
      <path id="Контур_1452" data-name="Контур 1452" d="M249.006,14.046a.847.847,0,1,1-.846-.846.846.846,0,0,1,.846.846" transform="translate(-199.246 -10.634)" fill="#14257e"/>
      <rect id="Прямоугольник_171" data-name="Прямоугольник 171" width="1.325" height="15.441" transform="translate(12.008 0.276)" fill="#007ccf"/>
      <path id="Контур_1453" data-name="Контур 1453" d="M180.782,1.417h-1.325V16.859h8V15.593h-6.678Z" transform="translate(-144.579 -1.142)" fill="#007ccf"/>
      <path id="Контур_1454" data-name="Контур 1454" d="M392.026,2.683V1.417h-8V16.859h8V15.593h-6.678V9.712h6.678V8.446h-6.678V2.683Z" transform="translate(-309.386 -1.142)" fill="#007ccf"/>
      <path id="Контур_1455" data-name="Контур 1455" d="M7.049,8.585A4,4,0,0,0,4.613,1.418H0V16.859H5.164A4.351,4.351,0,0,0,7.049,8.585m-5.724-5.9H4.613a2.734,2.734,0,0,1,0,5.467H1.325Zm3.84,12.91H1.325V9.417h3.84a3.088,3.088,0,0,1,0,6.176" transform="translate(0 -1.142)" fill="#007ccf"/>
      <path id="Контур_1456" data-name="Контур 1456" d="M329.289,8.585a4,4,0,0,0-2.435-7.167H322.24V16.859H327.4a4.351,4.351,0,0,0,1.884-8.274m-5.724-5.9h3.288a2.734,2.734,0,0,1,0,5.467h-3.288Zm3.84,12.91h-3.84V9.417h3.84a3.088,3.088,0,0,1,0,6.176" transform="translate(-259.61 -1.142)" fill="#007ccf"/>
      <path id="Контур_1457" data-name="Контур 1457" d="M90.828,8.592V9.858h6.529a6.714,6.714,0,1,1-.685-5.3h1.455a7.982,7.982,0,1,0,.752,4.031Z" transform="translate(-66.817 0)" fill="#007ccf"/>
    </g>
  </g>
</svg>
