<svg id="Сгруппировать_116" data-name="Сгруппировать 116" xmlns="http://www.w3.org/2000/svg" xmlns:xlink="http://www.w3.org/1999/xlink" width="230" height="266" viewBox="0 0 230 266">
  <defs>
    <clipPath id="clip-path">
      <rect id="Прямоугольник_77" data-name="Прямоугольник 77" width="230" height="266" fill="none"/>
    </clipPath>
    <clipPath id="clip-path-2">
      <path id="Контур_446" data-name="Контур 446" d="M85.3,133.15a10.124,10.124,0,0,0,0,20.247h55.258a10.124,10.124,0,1,0,0-20.247Z" transform="translate(-75.177 -133.15)" fill="none"/>
    </clipPath>
    <linearGradient id="linear-gradient" x1="-1.168" y1="2.319" x2="-1.153" y2="2.319" gradientUnits="objectBoundingBox">
      <stop offset="0" stop-color="#5abba1"/>
      <stop offset="1" stop-color="#cae50b"/>
    </linearGradient>
    <clipPath id="clip-path-3">
      <rect id="Прямоугольник_79" data-name="Прямоугольник 79" width="230" height="245.786" fill="none"/>
    </clipPath>
  </defs>
  <g id="Сгруппировать_109" data-name="Сгруппировать 109">
    <g id="Сгруппировать_108" data-name="Сгруппировать 108" clip-path="url(#clip-path)">
      <path id="Контур_436" data-name="Контур 436" d="M147.452,189.906H77.384A13.774,13.774,0,0,1,63.623,176.12V14.6A13.774,13.774,0,0,1,77.384.818h70.068A13.774,13.774,0,0,1,161.213,14.6V176.12a13.774,13.774,0,0,1-13.761,13.786" transform="translate(-0.212 -0.001)" fill="#fff"/>
      <path id="Контур_437" data-name="Контур 437" d="M67.615,176.128V14.607A9.793,9.793,0,0,1,77.4,4.8h70.064a9.793,9.793,0,0,1,9.784,9.8V176.128a9.793,9.793,0,0,1-9.784,9.8H77.4a9.793,9.793,0,0,1-9.784-9.8" transform="translate(-0.226 -0.007)" fill="#d7efe8"/>
      <path id="Контур_438" data-name="Контур 438" d="M71.251,171.244V23.6a6.17,6.17,0,0,1,6.165-6.176h70.056a6.171,6.171,0,0,1,6.164,6.176V171.244a6.171,6.171,0,0,1-6.164,6.177H77.416a6.171,6.171,0,0,1-6.165-6.177" transform="translate(-0.238 -0.026)" fill="#fff"/>
      <path id="Контур_439" data-name="Контур 439" d="M153.637,110.766v60.478a6.171,6.171,0,0,1-6.165,6.177H77.415a6.171,6.171,0,0,1-6.164-6.177V23.6a6.17,6.17,0,0,1,6.164-6.176h70.056a6.17,6.17,0,0,1,6.165,6.176V99.419" transform="translate(-0.238 -0.026)" fill="none" stroke="#595757" stroke-linecap="round" stroke-linejoin="round" stroke-width="1.098"/>
      <path id="Контур_440" data-name="Контур 440" d="M62.948,165.948c.957-40.9.957-82.833.673-123.915" transform="translate(-0.21 -0.063)" fill="none" stroke="#595757" stroke-linecap="round" stroke-linejoin="round" stroke-width="1.098"/>
      <path id="Контур_441" data-name="Контур 441" d="M157.34,185.971a12.826,12.826,0,0,1-9.713,4.186c-25.914,0-50.831,3-76.744-2-4.983,0-6.977-5.991-7.463-11.678" transform="translate(-0.212 -0.264)" fill="none" stroke="#595757" stroke-linecap="round" stroke-linejoin="round" stroke-width="1.098"/>
      <path id="Контур_442" data-name="Контур 442" d="M143.146.817c8.733-1.638,18.7,4.353,18.7,14.338,0,53.919,0,108.837-.5,162.874" transform="translate(-0.478 -0.001)" fill="none" stroke="#595757" stroke-linecap="round" stroke-linejoin="round" stroke-width="1.098"/>
      <path id="Контур_443" data-name="Контур 443" d="M63.623,25.466V14.6A13.774,13.774,0,0,1,77.384.817h53.827" transform="translate(-0.212 -0.001)" fill="none" stroke="#595757" stroke-linecap="round" stroke-linejoin="round" stroke-width="1.098"/>
      <path id="Контур_444" data-name="Контур 444" d="M121.9,12.719H103.192a1.728,1.728,0,0,1,0-3.457H121.9a1.728,1.728,0,0,1,0,3.457" transform="translate(-0.339 -0.014)" fill="#b3b3b3"/>
      <path id="Контур_445" data-name="Контур 445" d="M121.9,12.719H103.192a1.728,1.728,0,0,1,0-3.457H121.9a1.728,1.728,0,0,1,0,3.457Z" transform="translate(-0.339 -0.014)" fill="none" stroke="#595757" stroke-linecap="round" stroke-linejoin="round" stroke-width="1.098"/>
    </g>
  </g>
  <g id="Сгруппировать_111" data-name="Сгруппировать 111" transform="translate(74.804 132.934)">
    <g id="Сгруппировать_110" data-name="Сгруппировать 110" clip-path="url(#clip-path-2)">
      <rect id="Прямоугольник_78" data-name="Прямоугольник 78" width="67.707" height="67.707" transform="translate(-10.123 10.124) rotate(-45)" fill="url(#linear-gradient)"/>
    </g>
  </g>
  <g id="Сгруппировать_113" data-name="Сгруппировать 113" transform="translate(0 4.632)">
    <g id="Сгруппировать_112" data-name="Сгруппировать 112" clip-path="url(#clip-path-3)">
      <path id="Контур_447" data-name="Контур 447" d="M201.887,221c-1.939-17.559-6.929-25.5-13.421-33.566s-15.982-2.8-15.982-2.8c-5.689-4.134-13.26.167-13.26.167-3.785-2.123-7.836-.812-9.9.152a3.438,3.438,0,0,1-3.433-.309,32.526,32.526,0,0,1-8.079-9.185c-4.52-7.207-12.941-20.191-15.7-26.314s-6.2-12.67-12.351-10.089.35,13.247,2.491,18.355,13.546,24.494,15.813,30.152,10.065,20.268,8.774,25.428-5.944,5.51-11.148,4.9-17.9-2.245-23.984.73c-6.111,2.991-7.483,9.625-4.248,10.743s17.722,1.678,23.721,2.973,15.5,5.6,21.149,9.24c9.289,5.98,20,6.216,23.259,7.766,5.3,2.518,10.766,9.316,13.781,16.307l43.187-9.978S203.825,238.559,201.887,221" transform="translate(-0.32 -4.849)" fill="#fff"/>
      <path id="Контур_448" data-name="Контур 448" d="M201.887,221c-1.939-17.559-6.929-25.5-13.421-33.566s-15.982-2.8-15.982-2.8c-5.689-4.134-13.26.167-13.26.167-3.785-2.123-7.836-.812-9.9.152a3.438,3.438,0,0,1-3.433-.309,32.526,32.526,0,0,1-8.079-9.185c-4.52-7.207-12.941-20.191-15.7-26.314-2.592-5.751-5.781-11.872-11.256-10.459a7.646,7.646,0,0,1-1.053,2.512c-1.837,2.882,2.617,11.178,3.759,14.058,2.622,6.612,6.5,12.595,10.063,18.722,6.574,11.294,15.917,23.46,13.75,37.248a5.3,5.3,0,0,1-.509,1.559c-.013.065-.012.145-.027.207-1.292,5.16-5.944,5.51-11.148,4.9s-17.9-2.245-23.984.731c-4.472,2.188-6.395,6.321-5.843,8.823a7.759,7.759,0,0,1,2.576-.408c9.45.035,19,.6,28.231,2.729a55.84,55.84,0,0,1,13.754,4.79c2.887,1.555,4.751,4.508,7.377,6.172,4.37.753,7.978,3.222,12.078,4.752,4.255,1.589,8.448,1.506,12.273,4.352,2.851,2.123,4.476,5.469,3.329,8.834a41.194,41.194,0,0,1,3.887,6.986l43.187-9.978S203.825,238.559,201.887,221" transform="translate(-0.32 -4.849)" fill="#fff0e2"/>
      <path id="Контур_449" data-name="Контур 449" d="M196.963,200.186c1.938,3.985,3.931,7.978,3.931,11.972,0,16.972,10.963,31.948,22,43.607" transform="translate(-0.657 -4.949)" fill="none" stroke="#595757" stroke-linecap="round" stroke-linejoin="round" stroke-width="1.098"/>
      <path id="Контур_450" data-name="Контур 450" d="M132.226,195.966c-7.379-16.857-18.343-31.832-25.319-49.8-1-2,1-4.992,1.993-6.989a6.055,6.055,0,0,1,7.973,0c10.963,14.976,12.957,33.945,28.9,44.927,3.987,3,8.97-1,12.957-1,7.973,2,14.95-2,22.923,0a20.847,20.847,0,0,1,5.98,3.994,16.924,16.924,0,0,0,4.524,5.177" transform="translate(-0.356 -4.848)" fill="none" stroke="#595757" stroke-linecap="round" stroke-linejoin="round" stroke-width="1.098"/>
      <path id="Контур_451" data-name="Контур 451" d="M179.367,265.75c-1.732-5.664-4.722-11.654-9.705-13.651-15.947-5.99-31.893-13.977-47.84-18.969-7.973-3-14.95-1-22.923-3-1-1-2.99-2-2.99-3.994,1-4.992,5.98-7.987,10.963-8.985,9.967-2,21.927,5.99,29.9-3,1.993-3-1-6.989-1.4-10.125" transform="translate(-0.32 -4.955)" fill="none" stroke="#595757" stroke-linecap="round" stroke-linejoin="round" stroke-width="1.098"/>
      <path id="Контур_452" data-name="Контур 452" d="M152.135,190.935a16.049,16.049,0,0,1,5.827,8.034" transform="translate(-0.508 -4.934)" fill="none" stroke="#595757" stroke-linecap="round" stroke-linejoin="round" stroke-width="1.098"/>
      <path id="Контур_453" data-name="Контур 453" d="M164.792,189.192s4.171,4,5.541,8.918" transform="translate(-0.55 -4.931)" fill="none" stroke="#595757" stroke-linecap="round" stroke-linejoin="round" stroke-width="1.098"/>
      <path id="Контур_454" data-name="Контур 454" d="M177.43,189.366a28.215,28.215,0,0,1,5.241,7.8" transform="translate(-0.592 -4.931)" fill="none" stroke="#595757" stroke-linecap="round" stroke-linejoin="round" stroke-width="1.098"/>
    </g>
  </g>
  <g id="Сгруппировать_115" data-name="Сгруппировать 115">
    <g id="Сгруппировать_114" data-name="Сгруппировать 114" clip-path="url(#clip-path)">
      <path id="Контур_455" data-name="Контур 455" d="M105.7,81.03,98.15,90.353a1.311,1.311,0,0,0,.143,1.8l13.056,11.72a1.3,1.3,0,0,0,1.82-.075l25.387-26.873a1.308,1.308,0,0,0-1.629-2.018L115.15,88.186a1.305,1.305,0,0,1-1.681-.279l-5.754-6.892a1.3,1.3,0,0,0-2.017.015m0,0L98.15,90.353a1.311,1.311,0,0,0,.143,1.8l13.056,11.72a1.3,1.3,0,0,0,1.82-.075l25.387-26.873a1.308,1.308,0,0,0-1.629-2.018L115.15,88.186a1.305,1.305,0,0,1-1.681-.279l-5.754-6.892a1.3,1.3,0,0,0-2.017.015m5.571,38.316A27.707,27.707,0,1,1,128.864,70.26a1.9,1.9,0,0,1-2.42,2.937,23.919,23.919,0,1,0,8.524,15.7,1.9,1.9,0,1,1,3.777-.434,28.036,28.036,0,0,1,.181,3.18,27.713,27.713,0,0,1-27.657,27.706" transform="translate(-0.279 -0.096)" fill="#5abba1"/>
    </g>
  </g>
  <text id="登録完" transform="translate(78.158 47.607)" fill="#fb7180" font-size="15.366" font-family="hanatotyoutyo"><tspan x="0" y="0">登録完</tspan></text>
  <text id="了" transform="translate(124.139 47.607)" fill="#fb7180" font-size="15.366" font-family="hanatotyoutyo"><tspan x="0" y="0">了</tspan></text>
  <text id="_" data-name="！" transform="translate(137.318 47.607)" fill="#fb7180" font-size="15.366" font-family="hanatotyoutyo"><tspan x="0" y="0">！</tspan></text>
</svg>
