	<svg xmlns="http://www.w3.org/2000/svg" width="333.054" height="88.494"
									viewBox="0 0 333.054 88.494">
									<path id="Контур_1745" data-name="Контур 1745"
										d="M10.568,12.409a.1.1,0,0,1-.109.109l-1.853-.027H5.38l-1.839.027a.1.1,0,0,1-.109-.109l.027-.978v-.889l-.027-.978a.1.1,0,0,1,.109-.109l1.839.027H8.606l1.853-.027a.1.1,0,0,1,.109.109l-.027.978v.889Zm-.854-.6V10.181H4.286v1.627ZM13.426,9a1.972,1.972,0,0,0-.362.5q-.116.212-.185.212a.712.712,0,0,1-.205-.068,15.147,15.147,0,0,1-3.589-2.16A9.005,9.005,0,0,1,6.932,4.835,11.885,11.885,0,0,1,4.525,7.686,15.832,15.832,0,0,1,1.319,9.723a.774.774,0,0,1-.212.068q-.068,0-.2-.226a1.452,1.452,0,0,0-.362-.424A14.34,14.34,0,0,0,3.726,7.31a10.19,10.19,0,0,0-1.6-1.4q-.062-.041-.062-.068T2.14,5.73l.342-.308q.075-.075.109-.075a.15.15,0,0,1,.082.034A12.724,12.724,0,0,1,4.341,6.8a10.592,10.592,0,0,0,1.791-2.14H4.115l-1.442.027q-.123,0-.123-.109V4.035q0-.109.123-.109l1.442.027H6.05l1.135-.027q.109,0,.178.157a6.638,6.638,0,0,0,.52.957,8.083,8.083,0,0,0,.6.813A9.042,9.042,0,0,0,9.618,4.664a2.832,2.832,0,0,0,.335-.54,4.359,4.359,0,0,1,.69.431.236.236,0,0,1,.109.164q0,.089-.137.157a1.227,1.227,0,0,0-.437.349,14.324,14.324,0,0,1-1.2,1.148,12.55,12.55,0,0,0,1.046.882,14.739,14.739,0,0,0,1.347-1.306,3.344,3.344,0,0,0,.376-.54,5.306,5.306,0,0,1,.67.431q.13.109.13.164v.021a.253.253,0,0,1-.185.164,1.175,1.175,0,0,0-.417.308A14.731,14.731,0,0,1,10.63,7.658,14.409,14.409,0,0,0,13.426,9Zm-.335,6.433a.1.1,0,0,1-.109.109l-1.839-.027H2.885l-1.832.027q-.116,0-.116-.109v-.595q0-.109.116-.109l1.832.027H7.923q.362-.595.677-1.217a3.484,3.484,0,0,0,.267-.786,6.731,6.731,0,0,1,.813.321.172.172,0,0,1,.123.157q0,.068-.123.164a1.064,1.064,0,0,0-.287.383q-.5.848-.588.978h2.338l1.839-.027a.1.1,0,0,1,.109.109ZM9.16,8.349q0,.109-.1.109l-1.4-.027H6.214l-1.381.027q-.116,0-.116-.109V7.8q0-.109.116-.109l1.381.027H7.656l1.4-.027q.1,0,.1.109Zm-3.35,5.838a.336.336,0,0,1,.021.082q0,.048-.157.13l-.369.185a.6.6,0,0,1-.171.055q-.048,0-.082-.089a5.968,5.968,0,0,0-.67-1.326.188.188,0,0,1-.034-.075q0-.041.15-.109l.362-.164A.383.383,0,0,1,5,12.819q.034,0,.1.082A7.463,7.463,0,0,1,5.811,14.187Zm21.841.28a1.981,1.981,0,0,0-.41.52q-.1.185-.15.185a.434.434,0,0,1-.185-.109,9.069,9.069,0,0,1-3.117-4.806v.95q0,1.142.027,2.434.027.875.027,1.183a2.079,2.079,0,0,1-.075.649.727.727,0,0,1-.287.355,2.839,2.839,0,0,1-1.374.239.507.507,0,0,1-.267-.041.769.769,0,0,1-.082-.239,1.6,1.6,0,0,0-.28-.6,7.663,7.663,0,0,0,.909.055.852.852,0,0,0,.561-.123.567.567,0,0,0,.109-.41V12.771a18.139,18.139,0,0,1-2.229,1.586,1.4,1.4,0,0,0-.444.335.173.173,0,0,1-.144.1.172.172,0,0,1-.15-.082,6.218,6.218,0,0,1-.424-.684,5.5,5.5,0,0,0,.759-.342,17.616,17.616,0,0,0,2.632-1.818V8.937h-1.2l-1.894.027a.1.1,0,0,1-.109-.109V8.294a.1.1,0,0,1,.109-.109l1.894.027H24.78l.1-1.347H22.524l-1.456.027a.1.1,0,0,1-.109-.109V6.236a.1.1,0,0,1,.109-.109l1.456.027h2.393l.1-1.265h-2.8l-1.552.027q-.116,0-.116-.109V4.247q0-.109.116-.109l1.552.027h1.976l1.559-.027a.109.109,0,0,1,.123.123q-.027.219-.048.526-.034.376-.041.438l-.219,2.987L27.3,8.185q.123,0,.123.109v.561q0,.109-.123.109l-1.894-.027H23.871a11.891,11.891,0,0,0,.964,2.55,10.69,10.69,0,0,0,1.2-1.429,2.521,2.521,0,0,0,.308-.547,4.052,4.052,0,0,1,.608.417.323.323,0,0,1,.109.2q0,.068-.157.171a1.885,1.885,0,0,0-.417.4,10.3,10.3,0,0,1-1.306,1.388A7.945,7.945,0,0,0,27.651,14.467Zm-7.725-4.409q0,.109-.116.109l-1.456-.027h-.321v3.869a17.042,17.042,0,0,0,1.682-.649,2.2,2.2,0,0,0-.068.52.411.411,0,0,1-.062.273.57.57,0,0,1-.205.1q-1.429.554-3.322,1.094a1.752,1.752,0,0,0-.52.212.333.333,0,0,1-.185.082.153.153,0,0,1-.164-.109q-.1-.246-.267-.772a8.4,8.4,0,0,0,1.066-.178q.978-.239,1.271-.328V10.14h-.547l-1.456.027a.1.1,0,0,1-.109-.109V9.524a.1.1,0,0,1,.109-.109l1.456.027h.547V7.918h-.1l-1.189.027q-.116,0-.116-.13v-.5a.1.1,0,0,1,.116-.116l1.189.027h1.08L19.421,7.2q.109,0,.109.116v.5q0,.13-.109.13l-1.176-.027h-.212V9.442h.321l1.456-.027q.116,0,.116.109Zm.232-3.985a1,1,0,0,0-.362.444q-.1.185-.144.185a1.16,1.16,0,0,1-.212-.144A10.816,10.816,0,0,1,17.808,4.7,12.423,12.423,0,0,1,15.34,7.487a.546.546,0,0,1-.205.109q-.082,0-.144-.185a1.241,1.241,0,0,0-.321-.485A8.657,8.657,0,0,0,17.145,4.22a2.053,2.053,0,0,0,.3-.752,4.523,4.523,0,0,1,.807.226q.144.041.144.123a.216.216,0,0,1-.13.185l-.109.082A9.861,9.861,0,0,0,20.159,6.072Zm-3.568,7.109q.007.055.007.068,0,.062-.15.123l-.335.144a.478.478,0,0,1-.137.034q-.062,0-.075-.1a10.431,10.431,0,0,0-.472-2.167.207.207,0,0,1-.021-.075q0-.055.171-.116l.294-.116a.559.559,0,0,1,.137-.034q.041,0,.075.075A11.889,11.889,0,0,1,16.591,13.182Zm3.37-2.017a.236.236,0,0,1-.109.164.979.979,0,0,0-.212.4q-.232.718-.451,1.23-.068.2-.123.2a.466.466,0,0,1-.15-.062,2.436,2.436,0,0,0-.437-.137,9.51,9.51,0,0,0,.547-1.654,2.009,2.009,0,0,0,.068-.526,6.21,6.21,0,0,1,.745.246Q19.961,11.09,19.961,11.165Zm2.215.123a.207.207,0,0,1,.021.075q0,.041-.123.137l-.28.226a.732.732,0,0,1-.164.1q-.034,0-.082-.1a6.081,6.081,0,0,0-1.053-1.668.112.112,0,0,1-.041-.068q0-.041.123-.13l.294-.191a.279.279,0,0,1,.123-.068q.041,0,.1.068A8.212,8.212,0,0,1,22.176,11.288ZM36.825,7.426q.021,2.769.123,4.689a7.23,7.23,0,0,1,2.468,1.832l-.677.841a6.685,6.685,0,0,0-1.791-1.634,2.112,2.112,0,0,1-.7,1.764,2.5,2.5,0,0,1-1.647.5q-2.42,0-2.42-1.9a1.583,1.583,0,0,1,.725-1.34,2.691,2.691,0,0,1,1.586-.451,6.841,6.841,0,0,1,1.483.15Q35.882,10,35.854,7.467q-1.907.062-3.821.041V6.626q1.7.055,3.808-.014V4.035h1q-.014.841-.014,2.522.875-.048,2.249-.185v.882Q38.076,7.357,36.825,7.426Zm-.854,5.407a4.28,4.28,0,0,0-1.545-.28,1.734,1.734,0,0,0-.964.253.806.806,0,0,0-.4.711q0,1.053,1.511,1.053a1.26,1.26,0,0,0,1.114-.526,1.833,1.833,0,0,0,.287-1.073ZM31.151,4.165a41.313,41.313,0,0,0-.841,6.87,33.207,33.207,0,0,0,.335,4.341l-.978.089q-.321-3.117-.321-4.457a30.522,30.522,0,0,1,.287-3.685q.226-1.764.526-3.24ZM44.693,8.376q1.429-.854,3.274-1.818l.5.882A29.874,29.874,0,0,0,44,9.935a3.4,3.4,0,0,0-1.709,2.714q0,1.8,2.885,1.8,1.483,0,3.391-.137v1q-2.345.068-3.459.068-3.78,0-3.78-2.755,0-2.085,2.475-3.7-.588-2.14-1.087-5.024l1.032-.041A41.146,41.146,0,0,0,44.693,8.376ZM59.65,4.739l.027.964a5.312,5.312,0,0,0-2.311.629A5.934,5.934,0,0,0,55.3,8.294a4.817,4.817,0,0,0-.813,2.659,2.958,2.958,0,0,0,1.285,2.529,6.17,6.17,0,0,0,2.933,1l-.239,1a6.1,6.1,0,0,1-3.63-1.381,3.89,3.89,0,0,1-1.312-3.049,5.709,5.709,0,0,1,2.994-5.024l.759-.335-.014-.027-.656.109q-1.189.068-5.66.479l-.082-.923Q52.862,5.177,59.65,4.739Zm3.9,5.25q-.7,0-2.126-.027v-.9q.588.027,2.215.027l.219-2.283q-1,0-2.352-.027v-.9q1.189.068,2.44.068Q64,5.532,64.073,4.8q.089-.813.109-1.06l1.012.075q-.048.451-.123,1.169-.082.752-.1.957,1.442-.014,3.767-.157l.014.9Q66.91,6.8,64.873,6.8q-.075.834-.253,2.283,2.235-.027,3.979-.157v.9q-2.16.137-4.061.157a32.724,32.724,0,0,0-.226,3.288,1.408,1.408,0,0,0,.5,1.23,2.723,2.723,0,0,0,1.531.335,3.8,3.8,0,0,0,2.208-.526,1.511,1.511,0,0,0,.649-1.292,3.093,3.093,0,0,0-.813-2.017l.923-.349a3.489,3.489,0,0,1,.937,2.311q0,2.816-3.9,2.816a3.309,3.309,0,0,1-2.454-.725,2.532,2.532,0,0,1-.54-1.784Q63.349,12.17,63.554,9.989Zm19.817,4.648a1.28,1.28,0,0,1-.349,1.032,3.386,3.386,0,0,1-1.668.253.427.427,0,0,1-.246-.041.527.527,0,0,1-.089-.226,2.367,2.367,0,0,0-.239-.574,8.91,8.91,0,0,0,1,.055.91.91,0,0,0,.622-.144.833.833,0,0,0,.116-.526V10.112h-2.27l-1.415.027a.1.1,0,0,1-.109-.109l.027-1.039V7.884l-.027-1.019q0-.123.109-.123l1.415.027h1.572l1.429-.027q.109,0,.109.123L83.33,8.431v4.19Zm-.854-5.113v-.8H79.522v.8Zm0-1.388V7.385H79.522v.752ZM77.41,10.03q0,.109-.123.109l-1.306-.027H73.739v3.78l.027,1.989q0,.109-.123.109h-.636a.1.1,0,0,1-.109-.109l.027-1.989V8.882L72.9,6.865q0-.123.109-.123l1.49.027h1.483l1.306-.027a.109.109,0,0,1,.123.123l-.034,1.094v.964Zm-.8-.506V8.711H73.739v.813Zm0-1.388V7.385H73.739v.752Zm3.678,7.1a.1.1,0,0,1-.109.109h-.547a.1.1,0,0,1-.109-.109v-.492H76.651v.6q0,.109-.116.109H76q-.116,0-.116-.109l.027-2.174v-.9l-.027-1.312a.1.1,0,0,1,.109-.109l1.374.027H78.8l1.374-.027a.1.1,0,0,1,.109.109l-.027,1.121v1.019Zm-.766-1.094V13.079H76.651v1.066Zm0-1.654v-1H76.651v1Zm-1.47-7.335q0,.109-.116.109l-1.524-.027H75.8a7.818,7.818,0,0,1,.492,1,.207.207,0,0,1,.021.068q0,.055-.15.1l-.4.13a.817.817,0,0,1-.157.034q-.062,0-.1-.1a7.918,7.918,0,0,0-.52-1.23H73.862a8.913,8.913,0,0,1-1.2,1.572q-.15.15-.2.15a.786.786,0,0,1-.219-.137,1.5,1.5,0,0,0-.492-.28,7.769,7.769,0,0,0,1.907-2.6,3.147,3.147,0,0,0,.205-.7,6.965,6.965,0,0,1,.827.185q.157.041.157.15t-.157.2A1.206,1.206,0,0,0,74.5,4.1q-.191.376-.239.458h2.153l1.524-.027q.116,0,.116.109Zm6.241,0a.1.1,0,0,1-.109.109L82.5,5.238H81.382a7.53,7.53,0,0,1,.574,1.012.123.123,0,0,1,.021.062q0,.062-.144.1l-.41.13a.579.579,0,0,1-.137.027q-.062,0-.1-.1a6.518,6.518,0,0,0-.629-1.23H79.406a10.218,10.218,0,0,1-.827,1.278q-.13.15-.164.15a.576.576,0,0,1-.226-.123,1.582,1.582,0,0,0-.492-.226A7.476,7.476,0,0,0,79.14,3.912a2.56,2.56,0,0,0,.144-.629q.444.089.766.185.157.041.157.137a.236.236,0,0,1-.123.2.9.9,0,0,0-.185.349l-.171.4H82.5l1.682-.027a.1.1,0,0,1,.109.109Zm13.959,8.36q0,.109-.116.109l-1.8-.027h-3.9v.335l.027,1.948a.1.1,0,0,1-.109.109H91.67q-.1,0-.1-.109l.027-1.948V13.6H87.9l-1.812.027a.1.1,0,0,1-.109-.109v-.608a.1.1,0,0,1,.109-.109l1.812.027H91.6V11.5H89.783l-2,.027a.1.1,0,0,1-.109-.109l.027-1.374V7.863l-.027-1.388q0-.1.109-.1l2,.027h4.676l1.982-.027q.116,0,.116.1L96.53,7.863v2.181l.027,1.374q0,.109-.116.109L94.459,11.5h-2.03v1.326h3.9l1.8-.027q.116,0,.116.109ZM95.717,10.8V9.244H92.429V10.8Zm0-2.229V7.1H92.429v1.47ZM91.6,10.8V9.244h-3.09V10.8Zm0-2.229V7.1h-3.09v1.47Zm5.366-4.566q0,.075-.157.2a1.322,1.322,0,0,0-.267.335,14.23,14.23,0,0,1-.909,1.34q-.1.144-.185.144a.66.66,0,0,1-.219-.082A1.652,1.652,0,0,0,94.7,5.8a10.11,10.11,0,0,0,.978-1.436,3.4,3.4,0,0,0,.335-.841,7.347,7.347,0,0,1,.827.321Q96.968,3.905,96.968,4.008ZM92.627,5.286a.266.266,0,0,1,.021.075q0,.041-.15.1l-.431.185A.52.52,0,0,1,91.9,5.7q-.068,0-.089-.089A6.819,6.819,0,0,0,91,3.755a.133.133,0,0,1-.027-.068q0-.041.185-.109l.39-.144a.478.478,0,0,1,.137-.034.133.133,0,0,1,.1.062A7.182,7.182,0,0,1,92.627,5.286Zm-3.514.123a.123.123,0,0,1,.021.062q0,.055-.109.109l-.472.205a.661.661,0,0,1-.178.068q-.048,0-.075-.082a6.731,6.731,0,0,0-1.06-1.688.174.174,0,0,1-.041-.075q0-.048.15-.123L87.78,3.7a.422.422,0,0,1,.123-.034.148.148,0,0,1,.1.062A8.741,8.741,0,0,1,89.113,5.409Zm12.824,6.918a1.915,1.915,0,0,1,1.463.643,1.916,1.916,0,0,1-.144,2.748,1.936,1.936,0,0,1-1.319.5,1.9,1.9,0,0,1-1.463-.643,1.916,1.916,0,0,1,.144-2.748A1.936,1.936,0,0,1,101.938,12.327Zm0,.7a1.269,1.269,0,0,0-1.251,1.251,1.253,1.253,0,0,0,2.181.834,1.247,1.247,0,0,0-.93-2.085Zm12.667-2.03a12.594,12.594,0,0,1-5,4.423l-.615-.807a12.291,12.291,0,0,0,4.573-3.931,14.161,14.161,0,0,0,2.051-5.045h-5.879V4.7H117a18.785,18.785,0,0,1-1.846,5.359,31.445,31.445,0,0,1,3.261,4.7l-1.032.656A25.127,25.127,0,0,0,114.6,10.994Zm10.384,1.278q.9,1.3,1.682,2.687l-.923.588A27.864,27.864,0,0,0,121.1,9.094l.8-.588a26.844,26.844,0,0,1,2.461,2.885,22.9,22.9,0,0,0,2.994-5.715h-7.4V4.739h8.47l.362.485A31.431,31.431,0,0,1,124.988,12.272Zm10.924-6.193h4.437v.93h-4.437v8.565h-1.066V7.009h-4.382v-.93h4.382V3.8h1.066Zm-2.762,2.96a17.191,17.191,0,0,1-2.03,5.469L130.184,14a14.227,14.227,0,0,0,1.948-5.271Zm4.354.1.978-.362a24.766,24.766,0,0,0,1.989,5.12l-1.019.547A37.418,37.418,0,0,1,137.5,9.135Zm7.909-1.7a41.522,41.522,0,0,1-2.646,7.841l-.923-.362a37.253,37.253,0,0,0,2.563-7.41q-.848.062-2.577.226l-.055-.882q.513-.034,1.518-.1l1.313-.089q.26-1.183.533-2.782l.991.137q-.308,1.6-.533,2.591.786-.055,1.429-.055a1.428,1.428,0,0,1,1.278.567,3.662,3.662,0,0,1,.4,1.982,19.506,19.506,0,0,1-.437,4.97,1.777,1.777,0,0,1-.636,1,1.828,1.828,0,0,1-1.073.28,9.249,9.249,0,0,1-1.422-.109l-.171-.978a6.216,6.216,0,0,0,1.244.164,1.47,1.47,0,0,0,.745-.144.9.9,0,0,0,.335-.485,16.429,16.429,0,0,0,.444-4.566,3.52,3.52,0,0,0-.219-1.538.713.713,0,0,0-.677-.321Q146.2,7.385,145.414,7.439Zm4.108-3.992.711-.28a19.251,19.251,0,0,1,1.039,2.372l-.759.308A14.765,14.765,0,0,0,149.522,3.447Zm1.5-.472.7-.253a11.327,11.327,0,0,1,.991,2.3l-.725.294A13.487,13.487,0,0,0,151.02,2.976Zm-2.311,2.844.882-.451A16.879,16.879,0,0,1,152,10.2l-.978.458A14.513,14.513,0,0,0,148.709,5.819Zm7.875.615q-1.613.027-2.42.014V5.58q1.08.034,2.461.014.1-1.442.13-1.88l.991.062q-.109,1.176-.15,1.777,2.283-.109,4.5-.369v.868q-2.208.232-4.566.335-.055,1.319-.068,1.976a7.454,7.454,0,0,1,2.126-.267,7.026,7.026,0,0,0,.226-.923l.957.185q-.116.485-.226.827a3.022,3.022,0,0,1,2.242,1.429,3.826,3.826,0,0,1,.526,2.023q0,3.377-4.211,3.992l-.4-.854a4.8,4.8,0,0,0,2.8-1.176,2.509,2.509,0,0,0,.779-1.859,2.96,2.96,0,0,0-.684-2.078,2.045,2.045,0,0,0-1.265-.67,15.223,15.223,0,0,1-2.393,4.553,3.414,3.414,0,0,1-2.55,1.47,1.659,1.659,0,0,1-1.388-.581,2.15,2.15,0,0,1-.39-1.367,4.571,4.571,0,0,1,.841-2.741,5.118,5.118,0,0,1,2.071-1.641Q156.557,7.2,156.584,6.435Zm1.23,5.763a13.391,13.391,0,0,0,1.559-3.3,5.87,5.87,0,0,0-1.907.308A14.063,14.063,0,0,0,157.814,12.2Zm-.738.93a13.988,13.988,0,0,1-.533-3.486,3.766,3.766,0,0,0-1.511,1.511,3.69,3.69,0,0,0-.479,1.832,1.261,1.261,0,0,0,.239.827.668.668,0,0,0,.547.253A2.572,2.572,0,0,0,157.076,13.127ZM167.33,3.789l.971.014q-.021.588-.068,1.381-.034.615-.048,1l.424.362a.186.186,0,0,1,.055.137.264.264,0,0,1-.055.157,5.623,5.623,0,0,0-.465.9l-.041.533-.068.52.253-.547a11.409,11.409,0,0,1,1.948-2.092,2.737,2.737,0,0,1,1.647-.622,1.461,1.461,0,0,1,1.347.636,3.053,3.053,0,0,1,.335,1.6q0,1.114-.13,2.8-.123,1.791-.123,2.365a1.674,1.674,0,0,0,.157.868.452.452,0,0,0,.417.2q.841,0,1.313-2.3l.841.547a5.045,5.045,0,0,1-1,2.229,1.613,1.613,0,0,1-1.224.513,1.339,1.339,0,0,1-1.107-.41,2.439,2.439,0,0,1-.349-1.483q0-1.039.1-2.557.109-1.764.109-2.509a3.748,3.748,0,0,0-.15-1.3.563.563,0,0,0-.561-.369q-1.408,0-3.78,3.445v5.756h-.964q0-2.338.055-4.464l.137-.882-.362.834q-.554,1.3-1.3,2.721l-.786-.656q.649-1.128,2.324-4.341.034-.779.055-1.75-.26.021-2.058.219l-.055-.834q1.271-.116,2.14-.212.007-.355.034-1.128Q167.323,4.315,167.33,3.789Zm17.1,3.678q-1.907.062-3.821.041V6.626q1.7.055,3.808-.014V4.179h1q-.014.841-.014,2.379.875-.048,2.249-.185v.882q-1.114.116-2.249.157.021,2.789.123,4.7A7.23,7.23,0,0,1,188,13.947l-.677.841a6.685,6.685,0,0,0-1.791-1.634,2.112,2.112,0,0,1-.7,1.764,2.5,2.5,0,0,1-1.647.5q-2.42,0-2.42-1.9a1.583,1.583,0,0,1,.725-1.34,2.691,2.691,0,0,1,1.586-.451,6.841,6.841,0,0,1,1.483.15Q184.461,10,184.434,7.467Zm.116,5.366a4.28,4.28,0,0,0-1.545-.28,1.734,1.734,0,0,0-.964.253.806.806,0,0,0-.4.711q0,1.053,1.511,1.053a1.26,1.26,0,0,0,1.114-.526,1.833,1.833,0,0,0,.287-1.073Zm1.046-9.5.7-.212a17.224,17.224,0,0,1,.868,2.427l-.745.246A14.325,14.325,0,0,0,185.6,3.338Zm-5.865.827a41.313,41.313,0,0,0-.841,6.87,33.206,33.206,0,0,0,.335,4.341l-.978.089q-.321-3.117-.321-4.457a30.522,30.522,0,0,1,.287-3.685q.226-1.764.526-3.24Zm7.362-1.176.718-.212a10.872,10.872,0,0,1,.827,2.365l-.745.239A13.711,13.711,0,0,0,187.093,2.989Zm6.774,8.3.854.615q-.677,3.377-2.27,3.377a1.651,1.651,0,0,1-1.538-1.019,9.207,9.207,0,0,1-.718-3.227q-.109-1.312-.109-3.541l.014-2.632h1.012l-.021,2.188q0,2.646.116,3.9.267,3.22,1.217,3.22.485,0,.813-.711A11.913,11.913,0,0,0,193.867,11.288Zm2.1-5.346.909-.267A17.059,17.059,0,0,1,199.3,13.25l-1.053.171A17.589,17.589,0,0,0,195.966,5.942ZM201.284,7.6,201,6.626a34.129,34.129,0,0,1,5.626-.991,3.159,3.159,0,0,1,2.748,1.278,5.128,5.128,0,0,1,.793,3.035,4.653,4.653,0,0,1-.615,2.393,3.914,3.914,0,0,1-1.395,1.4,11.22,11.22,0,0,1-4.368,1.2l-.355-.923A9.745,9.745,0,0,0,207.348,13a3.367,3.367,0,0,0,1.764-3.09q0-3.377-2.577-3.377A26.394,26.394,0,0,0,201.284,7.6Zm17.5.246.718-.273a18.274,18.274,0,0,1,1.032,2.365l-.752.308A15.122,15.122,0,0,0,218.784,7.843Zm1.586-.472.7-.253a11.566,11.566,0,0,1,1,2.3l-.731.294A13.487,13.487,0,0,0,220.37,7.371Zm.39-2.632.027.964a5.312,5.312,0,0,0-2.311.629,5.934,5.934,0,0,0-2.071,1.962,4.817,4.817,0,0,0-.813,2.659,2.958,2.958,0,0,0,1.285,2.529,6.17,6.17,0,0,0,2.933,1l-.239,1a6.1,6.1,0,0,1-3.63-1.381,3.89,3.89,0,0,1-1.312-3.049,5.709,5.709,0,0,1,2.994-5.024l.759-.335-.014-.027-.656.109q-1.189.068-5.66.479l-.082-.923Q213.972,5.177,220.76,4.739Zm4.655,5.25q-.7,0-2.126-.027v-.9q.588.027,2.215.027l.219-2.283q-1,0-2.352-.027v-.9q1.189.068,2.44.068.048-.424.123-1.155.089-.813.109-1.06l1.012.075q-.048.451-.123,1.169-.082.752-.1.957,1.442-.014,3.767-.157l.014.9q-1.839.116-3.876.116-.075.834-.253,2.283,2.235-.027,3.979-.157v.9q-2.16.137-4.061.157a32.724,32.724,0,0,0-.226,3.288,1.408,1.408,0,0,0,.5,1.23,2.723,2.723,0,0,0,1.531.335,3.8,3.8,0,0,0,2.208-.526,1.511,1.511,0,0,0,.649-1.292,3.093,3.093,0,0,0-.813-2.017l.923-.349a3.489,3.489,0,0,1,.937,2.311q0,2.816-3.9,2.816a3.309,3.309,0,0,1-2.454-.725,2.532,2.532,0,0,1-.54-1.784Q225.21,12.17,225.415,9.989Zm11.122-3.9V3.83h.964V6.038q1.511-.1,2.591-.219v.909q-1.224.123-2.591.205V9.641a8.692,8.692,0,0,1,2.646-.479,2.9,2.9,0,0,1,2.577,1.169,3.273,3.273,0,0,1,.533,1.894,2.654,2.654,0,0,1-1.3,2.591,6.067,6.067,0,0,1-2.707.465v-.9a3.954,3.954,0,0,0,2.167-.444,2.048,2.048,0,0,0,.772-1.825,2.11,2.11,0,0,0-.6-1.524,1.724,1.724,0,0,0-1.285-.561,7.651,7.651,0,0,0-2.8.533v3.609a1.437,1.437,0,0,1-.273,1,1.054,1.054,0,0,1-.786.26,2.259,2.259,0,0,1-1.189-.376,2.427,2.427,0,0,1-1.347-2.03q0-1.736,2.632-3.049v-3q-.813.048-2.434.075v-.9Q235.416,6.154,236.537,6.093Zm0,4.9a5.118,5.118,0,0,0-1.306,1.019,1.511,1.511,0,0,0-.39.984,1.078,1.078,0,0,0,.335.759,1.888,1.888,0,0,0,.69.458.9.9,0,0,0,.39.1q.28,0,.28-.465Zm3.9-5.64.6-.731a12.831,12.831,0,0,1,2.816,2.229l-.684.772A11,11,0,0,0,240.44,5.354Zm17.028,3.534q0,.109-.1.109L255.4,8.971H253.34V14.4h1.723l1.914-.027q.116,0,.116.109v.6q0,.13-.116.13l-1.914-.027h-4.047l-1.935.027q-.1,0-.1-.13v-.6q0-.109.1-.109l1.935.027h1.456V8.971h-1.723L248.787,9a.1.1,0,0,1-.109-.109V8.267a.1.1,0,0,1,.109-.109l1.962.027h1.723V5.621a13.69,13.69,0,0,0-.1-1.928,8.987,8.987,0,0,1,.964.082q.157.021.157.123a1.28,1.28,0,0,1-.055.239,5.984,5.984,0,0,0-.1,1.456V8.185H255.4l1.976-.027q.1,0,.1.109Zm-8.408-5.031a.284.284,0,0,1-.123.212,1.434,1.434,0,0,0-.267.5,22.7,22.7,0,0,1-.984,2.174v6.925l.027,2.2a.1.1,0,0,1-.109.109h-.677a.1.1,0,0,1-.109-.109l.027-2.2V10.044q0-.6.027-1.887a17.336,17.336,0,0,1-1.429,1.935q-.1.123-.164.123t-.13-.157a1.793,1.793,0,0,0-.349-.574,14.991,14.991,0,0,0,3.028-5.168,3.921,3.921,0,0,0,.191-.937,8.549,8.549,0,0,1,.882.308Q249.061,3.762,249.061,3.857Zm22.415,7.937q0,.109-.1.109L271.2,11.9q-.533-.014-1.2-.021v.9l.034,1.265q0,.109-.116.109H269.3a.1.1,0,0,1-.109-.109V13.6h-3.527l.014,1.025a2.005,2.005,0,0,1-.1.718.782.782,0,0,1-.294.342,4.308,4.308,0,0,1-1.894.253.411.411,0,0,1-.253-.048.736.736,0,0,1-.1-.219,2.774,2.774,0,0,0-.342-.629,8.522,8.522,0,0,0,.93.062q.137,0,.308-.007a1.255,1.255,0,0,0,.752-.144.713.713,0,0,0,.144-.526V13.6h-2.406l-1.976.027q-.116,0-.116-.109v-.492q0-.109.116-.109l1.976.027h2.406V11.876h-3.849l-1.812.027a.1.1,0,0,1-.109-.109V11.3a.1.1,0,0,1,.109-.109l1.812.027h3.849v-.984h-2.406l-1.976.027q-.116,0-.116-.1V9.661q0-.109.116-.109l1.976.027h2.406v-.95h-1.853l-1.976.027q-.109,0-.109-.123l.027-.772V7.173L260.9,6.4a.1.1,0,0,1,.109-.109l1.976.027h1.853V5.45h-3.753l-1.832.027q-.116,0-.116-.109v-.52q0-.109.116-.109l1.832.027h3.753a6.935,6.935,0,0,0-.1-1.456,6.54,6.54,0,0,1,.909.068q.171.027.171.116a.9.9,0,0,1-.082.267,3.844,3.844,0,0,0-.068.978v.027h3.746l1.839-.027a.1.1,0,0,1,.109.109v.52a.1.1,0,0,1-.109.109l-1.839-.027h-3.746v.868h1.9l1.989-.027a.1.1,0,0,1,.109.109l-.027.772v.588l.027.772q0,.123-.109.123l-1.989-.027h-1.9v.95h2.249l2.01-.027a.1.1,0,0,1,.109.109L270,10.912v.308l1.374-.027q.1,0,.1.109Zm-2.283,1.148V11.876h-3.527v1.066Zm0-1.723v-.984h-3.527v.984Zm-.321-3.206V6.934h-3.206v1.08Zm-4.033,0V6.934H261.7v1.08Zm13.938,2.6v2.769h-.937V11.049q-.321.164-.663.355-1.791,1.012-1.791,2.03a.927.927,0,0,0,.629.943,6.4,6.4,0,0,0,2.078.232q1.47,0,3.411-.171l.041.95q-2.55.13-3.384.13a5.879,5.879,0,0,1-2.967-.513,1.772,1.772,0,0,1-.7-1.6,3.066,3.066,0,0,1,1.88-2.55q.711-.4,1.456-.772-.068-1.312-.909-1.312-1.176,0-3.227,2.365l-.725-.643a16.348,16.348,0,0,0,2.9-4.136q-1.278.021-2.563,0V5.5q1.477.027,2.953,0a12.509,12.509,0,0,0,.629-1.873l1.012.185a14.375,14.375,0,0,1-.588,1.647q1.969-.062,3.739-.239l.027.854q-2.3.185-4.143.239a14.3,14.3,0,0,1-1.176,1.989l-.355.362.041.055a2.492,2.492,0,0,1,1.668-.711,1.521,1.521,0,0,1,1.114.424,1.982,1.982,0,0,1,.526,1.217q1.094-.5,2.844-1.237l.39.957Q279.706,10.208,278.776,10.618Zm10.233.376a12.594,12.594,0,0,1-5,4.423l-.615-.807a12.291,12.291,0,0,0,4.573-3.931,14.161,14.161,0,0,0,2.051-5.045h-5.879V4.7h7.26a18.785,18.785,0,0,1-1.846,5.359,31.444,31.444,0,0,1,3.261,4.7l-1.032.656A25.127,25.127,0,0,0,289.01,10.994Zm10.931-.041a15.455,15.455,0,0,0-2.9-1.962l.574-.766a21.308,21.308,0,0,1,2.857,1.75,13.506,13.506,0,0,0,1.162-4.02h-3.9a11.486,11.486,0,0,1-2.81,4.17l-.827-.561a11.585,11.585,0,0,0,3.247-5.893l1.08.267q-.116.451-.321,1.094h4.84a16.092,16.092,0,0,1-2.509,7.075,10.892,10.892,0,0,1-4.7,3.507l-.663-.786A10.256,10.256,0,0,0,299.94,10.953Zm4.7-1.7h7.615V10.3h-7.615Zm11.908-.349v6.651h-1.08V3.816h1.08V7.877a21.8,21.8,0,0,1,5.332,2.222l-.533,1.012A17.7,17.7,0,0,0,316.552,8.909Zm13.768-1.066.718-.273a18.274,18.274,0,0,1,1.032,2.365l-.752.308A15.124,15.124,0,0,0,330.319,7.843Zm1.586-.472.7-.253a11.567,11.567,0,0,1,1,2.3l-.731.294A13.489,13.489,0,0,0,331.905,7.371Zm.39-2.632.027.964a5.312,5.312,0,0,0-2.311.629,5.934,5.934,0,0,0-2.071,1.962,4.817,4.817,0,0,0-.813,2.659,2.958,2.958,0,0,0,1.285,2.529,6.169,6.169,0,0,0,2.933,1l-.239,1a6.1,6.1,0,0,1-3.63-1.381,3.89,3.89,0,0,1-1.312-3.049,5.709,5.709,0,0,1,2.994-5.024l.759-.335-.014-.027-.656.109q-1.189.068-5.66.479l-.082-.923Q325.507,5.177,332.295,4.739ZM7.014,33.67a12.542,12.542,0,0,0,2.078,2.857l-.574.9a7.984,7.984,0,0,0-3.657-.854,3.85,3.85,0,0,0-2,.444,1.157,1.157,0,0,0-.643,1.012q0,.813,1.1,1.21a7.484,7.484,0,0,0,2.5.335q.82,0,1.976-.089v.984q-.615.041-2.017.041-4.546,0-4.546-2.365a1.971,1.971,0,0,1,1.066-1.8,5.521,5.521,0,0,1,2.741-.567,6.3,6.3,0,0,1,2.851.615A11.321,11.321,0,0,1,6.05,33.8a34.235,34.235,0,0,1-4.341.28l-.137-.854A33.363,33.363,0,0,0,5.66,33q-.444-1.019-.69-1.682-1.757.185-3.794.226l-.123-.882a34.558,34.558,0,0,0,3.637-.171q-.205-.567-.526-1.62l1-.1q.246.9.479,1.62,1.422-.171,3.063-.52l.144.854q-1.647.328-2.912.479a16.614,16.614,0,0,0,.684,1.668q1.47-.212,2.6-.479l.171.841Q8.292,33.472,7.014,33.67Zm8.634-3.076q-.027-1.176-.027-1.853h1v1.812q1.7-.062,3.37-.267v.868q-1.531.185-3.356.253l.041,2.01q1.935-.089,3.247-.26v.868q-1.538.171-3.233.232.014.335.062,1.449.027.745.048,1.2a10.066,10.066,0,0,1,3.726,2.372l-.7.861a9.516,9.516,0,0,0-3.015-2.249v.15a2.184,2.184,0,0,1-2.475,2.468,3.271,3.271,0,0,1-2.017-.5,1.7,1.7,0,0,1-.6-1.436,1.679,1.679,0,0,1,.8-1.449,3.138,3.138,0,0,1,1.832-.5,8.4,8.4,0,0,1,1.47.1q-.048-.848-.1-2.427-1.825.048-3.644,0v-.848q1.7.055,3.63.014-.027-.383-.034-1.087-.014-.663-.027-.943-2.105.041-3.794-.027v-.841Q13.542,30.642,15.647,30.594Zm.171,7.055a5.407,5.407,0,0,0-1.374-.185q-1.832,0-1.832,1.107,0,1.066,1.654,1.066,1.552,0,1.552-1.866ZM28.335,31.5q-.041,1.518,0,3.035a5.324,5.324,0,0,1,.308,1.777,3.687,3.687,0,0,1-1.306,3.069,7.744,7.744,0,0,1-3.274,1.271l-.588-.841a6.334,6.334,0,0,0,3.411-1.381,2.741,2.741,0,0,0,.807-1.88,1.856,1.856,0,0,1-1.8.882,2.2,2.2,0,0,1-1.531-.574,2.3,2.3,0,0,1,.123-3.356,2.469,2.469,0,0,1,1.559-.492,2,2,0,0,1,1.36.39q-.027-1.312-.027-1.873-2.249.034-5.435.239l-.014-.9q2.584-.1,5.435-.171V28.8l1,.014q0,.629-.027,1.859,2.324-.027,3.363-.027v.9Q30.017,31.5,28.335,31.5ZM26,33.8a1.322,1.322,0,0,0-.984.4,1.413,1.413,0,0,0-.39,1.046,1.237,1.237,0,0,0,.444,1,1.288,1.288,0,0,0,.848.294,1.405,1.405,0,0,0,1.1-.41,1.3,1.3,0,0,0,.314-.916Q27.33,33.8,26,33.8Zm9.324,3.527a1.915,1.915,0,0,1,1.463.643,1.916,1.916,0,0,1-.144,2.748,1.936,1.936,0,0,1-1.319.5,1.9,1.9,0,0,1-1.463-.643A1.916,1.916,0,0,1,34,37.826,1.936,1.936,0,0,1,35.321,37.327Zm0,.7a1.269,1.269,0,0,0-1.251,1.251,1.253,1.253,0,0,0,2.181.834,1.247,1.247,0,0,0-.93-2.085ZM13.262,58.957q0,.109-.116.109l-1.8-.027h-.28v2.379l1.565-.027q.116,0,.116.109v.561q0,.109-.116.109l-1.914-.027H3.527l-1.9.027q-.116,0-.116-.109V61.5q0-.109.116-.109l1.552.027V59.039h-.4l-1.812.027a.1.1,0,0,1-.109-.109v-.595a.1.1,0,0,1,.109-.109l1.812.027h.4V56.236A14.026,14.026,0,0,1,2.071,57.4q-.137.144-.191.144-.075,0-.212-.185a1.413,1.413,0,0,0-.4-.335A9.471,9.471,0,0,0,3.78,54.049a3.566,3.566,0,0,0,.335-.868,3.593,3.593,0,0,1,.786.28q.123.048.123.137t-.123.171a1.286,1.286,0,0,0-.335.431q-.321.567-.629,1.025h6.631l1.989-.027q.116,0,.116.109v.581q0,.109-.116.109l-.191-.007q-.567-.014-1.306-.021V58.28h.28l1.8-.027q.116,0,.116.109Zm-2.974,2.461V59.039H8.654v2.379Zm-2.393,0V59.039H6.289v2.379Zm2.393-3.138V55.97H8.654V58.28ZM5.53,61.418V59.039H3.951v2.379ZM7.9,58.28V55.97H6.289V58.28Zm-2.365,0V55.97H3.951V58.28ZM3.6,63.209A9.142,9.142,0,0,1,1.8,65.656a.15.15,0,0,1-.1.055.408.408,0,0,1-.171-.082l-.349-.267q-.109-.089-.109-.144a.174.174,0,0,1,.055-.1,7.047,7.047,0,0,0,1.723-2.27q.034-.062.075-.062a.681.681,0,0,1,.191.068l.349.15q.137.075.137.137A.217.217,0,0,1,3.6,63.209Zm9.256,1.914a.213.213,0,0,1,.027.089q0,.062-.15.137l-.4.2a.533.533,0,0,1-.178.075q-.041,0-.089-.075a11.361,11.361,0,0,0-1.552-2.42.137.137,0,0,1-.041-.075q0-.034.157-.109l.335-.171a.489.489,0,0,1,.144-.048.192.192,0,0,1,.109.062A11.111,11.111,0,0,1,12.852,65.123Zm-3.568.144a.29.29,0,0,1,.014.068q0,.062-.157.1l-.444.116a.978.978,0,0,1-.178.034q-.068,0-.089-.1a9.954,9.954,0,0,0-.711-2.276.207.207,0,0,1-.021-.068q0-.048.171-.1l.39-.109a.561.561,0,0,1,.116-.021q.055,0,.109.089A10.743,10.743,0,0,1,9.283,65.267Zm-3.124.109a.288.288,0,0,1,.007.048q0,.082-.171.1l-.479.055q-.075.007-.109.007-.1,0-.1-.123a9.826,9.826,0,0,0-.39-2.249.555.555,0,0,1-.007-.068q0-.068.205-.1l.39-.068a.474.474,0,0,1,.1-.014q.075,0,.1.109A11.515,11.515,0,0,1,6.159,65.376Zm21.314-.205q0,.109-.1.109l-1.989-.027H20.262l-1.989.027a.1.1,0,0,1-.109-.109v-.622a.1.1,0,0,1,.109-.109l1.989.027h2.393V62.648H21.581l-1.839.027q-.109,0-.109-.116v-.6a.1.1,0,0,1,.109-.109l1.839.027h1.073V60.283H21.581l-1.839.027q-.123,0-.123-.1l.027-1.545V55.84l-.027-1.5q0-.116.123-.116l1.839.027h3.1l1.839-.027q.109,0,.109.116l-.027,1.5v2.83l.027,1.545q0,.1-.109.1l-1.839-.027H23.468v1.593h1.306l1.832-.027a.1.1,0,0,1,.109.109v.6q0,.116-.109.116l-1.832-.027H23.468v1.818h1.921l1.989-.027q.1,0,.1.109Zm-1.682-5.619V57.576H23.468v1.976Zm0-2.673V54.972H23.468v1.907Zm-3.138,2.673V57.576H20.446v1.976Zm0-2.673V54.972H20.446v1.907Zm-3.418,4.354a3.02,3.02,0,0,0-.041.533q.007.1.007.144,0,.157-.226.294a26.024,26.024,0,0,1-3.131,1.456,2.383,2.383,0,0,0-.5.226.361.361,0,0,1-.185.082q-.089,0-.144-.123a5.629,5.629,0,0,1-.246-.807,6.4,6.4,0,0,0,1.285-.349l.6-.226v-3.5h-.226L15.189,59q-.109,0-.109-.116v-.588a.1.1,0,0,1,.109-.109l1.244.027h.226V55.218h-.321l-1.36.027q-.1,0-.1-.116v-.6q0-.109.1-.109l1.36.027h1.429l1.347-.027a.1.1,0,0,1,.109.109v.6q0,.116-.109.116l-1.347-.027h-.28v2.994h.157l1.258-.027q.1,0,.1.109v.588Q19,59,18.9,59l-1.258-.034h-.157v3.151A17.49,17.49,0,0,0,19.236,61.233Zm13.118.2.957.082a5.458,5.458,0,0,0-.157,1.258,1.054,1.054,0,0,0,.444.978,3.167,3.167,0,0,0,1.545.273,25.984,25.984,0,0,0,2.769-.144l.027,1.012q-1.025.082-2.659.082a4.349,4.349,0,0,1-2.44-.492,1.783,1.783,0,0,1-.636-1.552A7.219,7.219,0,0,1,32.354,61.432Zm.28-4.676V55.8q1.75-.137,3.541-.137.889,0,1.668.041v.95q-.725-.055-1.764-.055Q34.289,56.6,32.635,56.756Zm-1.511-2.413a36.343,36.343,0,0,0-.786,6.61,24.829,24.829,0,0,0,.342,4.382l-1,.082a28.849,28.849,0,0,1-.321-4.491,40.268,40.268,0,0,1,.772-6.665ZM43.75,64.2q0,.116-.109.116H43.06q-.109,0-.109-.116v-.7H41.132v1.162a.1.1,0,0,1-.109.109h-.595a.1.1,0,0,1-.109-.109l.027-4.32V57.59l-.027-3.274a.1.1,0,0,1,.109-.109l1.121.027h.971l1.121-.027a.1.1,0,0,1,.109.109l-.027,2.83v2.905Zm-.8-1.442v-3.63H41.132v3.63Zm0-4.354V54.979H41.132V58.4Zm9.283.089a.1.1,0,0,1-.109.109l-1.935-.027H46.211L44.3,58.6a.1.1,0,0,1-.109-.109v-.581A.1.1,0,0,1,44.3,57.8l1.914.027h1.306V55.97h-.868L44.857,56q-.13,0-.13-.116v-.561q0-.123.13-.123l1.791.027h.868a11.93,11.93,0,0,0-.1-1.791q.567.021.909.068.171.027.171.123s-.023.089-.068.253a5.578,5.578,0,0,0-.089,1.347h1.271l1.8-.027q.109,0,.109.123v.561q0,.116-.109.116l-1.8-.034H48.344v1.859h1.846l1.935-.027a.1.1,0,0,1,.109.109Zm-.171,2.5a.1.1,0,0,1-.109.109l-1.682-.027v1.9l.014,1.791a1.053,1.053,0,0,1-.39.937,3.4,3.4,0,0,1-1.627.239.487.487,0,0,1-.26-.041.592.592,0,0,1-.089-.226,1.985,1.985,0,0,0-.28-.629q.567.055,1.313.055.492,0,.492-.513V61.069H46.279l-1.9.027q-.116,0-.116-.109v-.581q0-.1.116-.1l1.9.014h3.165V60.3a8.226,8.226,0,0,0-.1-1.483,6.171,6.171,0,0,1,.9.1q.185.021.185.116a.636.636,0,0,1-.082.232,3.673,3.673,0,0,0-.075,1v.068l1.682-.014q.109,0,.109.1Zm-4.56,2.57a.173.173,0,0,1,.027.082q0,.055-.1.13l-.376.253a.478.478,0,0,1-.164.089q-.041,0-.075-.062a8.338,8.338,0,0,0-1.34-1.75.131.131,0,0,1-.048-.082q0-.055.13-.13l.335-.212a.35.35,0,0,1,.13-.055.169.169,0,0,1,.1.041A8.419,8.419,0,0,1,47.5,63.558Zm18.026.82a1.3,1.3,0,0,1-.362,1.066,1.185,1.185,0,0,1-.608.232,9.47,9.47,0,0,1-1.142.048.409.409,0,0,1-.239-.041.64.64,0,0,1-.082-.226,2.378,2.378,0,0,0-.253-.615,9.706,9.706,0,0,0,1.08.055.91.91,0,0,0,.622-.144.833.833,0,0,0,.116-.526V58.191h-2.55l-1.511.027q-.123,0-.123-.109l.027-1.2V55.225l-.027-1.2q0-.109.123-.109l1.511.027h1.777l1.518-.027a.1.1,0,0,1,.109.109l-.027,2v6.357Zm-.868-6.856V56.387H61.3v1.135Zm0-1.8V54.623H61.3v1.094Zm-5.5,2.393a.1.1,0,0,1-.109.109l-1.4-.027H55.173v4.689l.027,2.912a.1.1,0,0,1-.109.109h-.663a.1.1,0,0,1-.109-.109l.027-2.912v-5.92l-.027-2.939a.1.1,0,0,1,.109-.109l1.586.027h1.641l1.4-.027a.1.1,0,0,1,.109.109l-.027,1.292v1.511Zm-.827-.588V56.387H55.173v1.135Zm0-1.8V54.623H55.173v1.094Zm3.9,8.866q0,.109-.116.109h-.574a.1.1,0,0,1-.109-.109V64H58.27v.725q0,.13-.109.13h-.574q-.116,0-.116-.13l.027-2.461V61.083l-.027-1.627a.1.1,0,0,1,.109-.109l1.463.027h1.62l1.463-.027a.1.1,0,0,1,.109.109l-.027,1.415v1.292Zm-.8-1.258V61.979H58.27v1.347Zm0-2V60.044H58.27v1.278Zm11.99-.7v2.769h-.937V61.049q-.321.164-.663.355-1.791,1.012-1.791,2.03a.927.927,0,0,0,.629.943,6.4,6.4,0,0,0,2.078.232q1.47,0,3.411-.171l.041.95q-2.55.13-3.384.13a5.879,5.879,0,0,1-2.967-.513,1.772,1.772,0,0,1-.7-1.6,3.066,3.066,0,0,1,1.88-2.55q.711-.4,1.456-.772-.068-1.312-.909-1.312-1.176,0-3.227,2.365l-.725-.643a16.348,16.348,0,0,0,2.9-4.136q-1.278.021-2.563,0V55.5q1.477.027,2.953,0a12.51,12.51,0,0,0,.629-1.873l1.012.185a14.376,14.376,0,0,1-.588,1.647q1.969-.062,3.739-.239l.027.854q-2.3.185-4.143.239A14.3,14.3,0,0,1,70.4,58.308l-.355.362.041.055a2.492,2.492,0,0,1,1.668-.711,1.521,1.521,0,0,1,1.114.424,1.982,1.982,0,0,1,.526,1.217q1.094-.5,2.844-1.237l.39.957Q74.354,60.208,73.425,60.618Zm17.2,4.478a.1.1,0,0,1-.116.116l-1.7-.027H84.731v.684a.1.1,0,0,1-.116.116h-.561q-.109,0-.109-.116l.027-1.367V60.994q0-.52.027-1.415-.28.355-.909,1.039-.1.1-.137.1-.068,0-.13-.137a1.166,1.166,0,0,0-.308-.465,11.1,11.1,0,0,0,2.816-4.19H83.679v1.237a.1.1,0,0,1-.109.109h-.561q-.116,0-.116-.109l.027-1.066v-.28l-.027-.506A.1.1,0,0,1,83,55.2l1.907.027h.656q.089-.273.185-.615a5.448,5.448,0,0,0,.178-1.217l.8.15q.2.055.2.157a.407.407,0,0,1-.13.219,2.4,2.4,0,0,0-.219.663l-.2.643h2.2L90.5,55.2a.1.1,0,0,1,.109.109l-.034.451v.321l.034,1.046a.1.1,0,0,1-.116.116H89.92q-.109,0-.109-.116v-1.2H86.126a13.263,13.263,0,0,1-1.06,2.133h1.8q.267-.533.424-.943a3.387,3.387,0,0,0,.185-.725q.267.068.684.191.171.068.171.171a.238.238,0,0,1-.109.171,1.024,1.024,0,0,0-.212.349q-.267.608-.355.786h.827l1.586-.027a.1.1,0,0,1,.109.109v.506a.1.1,0,0,1-.109.109l-1.586-.027h-.95v1.442h.547l1.75-.027a.1.1,0,0,1,.109.109v.479q0,.123-.109.123l-1.75-.027h-.547V62.3h.547l1.764-.027a.1.1,0,0,1,.109.109v.492a.1.1,0,0,1-.109.109l-1.764-.027h-.547V64.5h1.285l1.7-.027q.116,0,.116.109ZM86.782,64.5V62.956H84.731V64.5Zm0-2.2V60.823H84.731V62.3Zm0-2.133V58.725H84.731v1.442Zm-4.026-5.024q0,.116-.13.116l-1.395-.034h-.185a13.5,13.5,0,0,1-1.094,3.5h1.374l.984-.027a.1.1,0,0,1,.109.109l-.034,1.654v1.292l.034,2.461q0,.1-.116.1h-.533q-.109,0-.109-.1v-.561H80.124V64.9a.1.1,0,0,1-.109.109h-.554a.1.1,0,0,1-.109-.109l.027-2.632V59.825a13.783,13.783,0,0,1-.841,1.292q-.1.144-.15.144t-.144-.171a1.947,1.947,0,0,0-.321-.506,9.718,9.718,0,0,0,1.538-2.563,11.771,11.771,0,0,0,.786-2.8H79.9l-1.415.034q-.109,0-.109-.116v-.574a.1.1,0,0,1,.109-.109l1.415.027h1.333l1.395-.027q.13,0,.13.109Zm-1.094,7.8V59.436H80.124v3.507Zm23.324,1.189a2.182,2.182,0,0,0-.383.588q-.068.185-.137.185a.552.552,0,0,1-.212-.082,9.487,9.487,0,0,1-3.821-3.685q0,1.34.041,3.165.027,1.388.027,1.552a.1.1,0,0,1-.109.109h-.649a.1.1,0,0,1-.109-.109q0-.144.034-1.914.027-1.579.034-2.775a9.043,9.043,0,0,1-3.746,3.685.552.552,0,0,1-.212.082q-.082,0-.2-.2a1.754,1.754,0,0,0-.417-.458A8.927,8.927,0,0,0,99.2,60.762H97.665l-1.989.027q-.116,0-.116-.109V60.1q0-.109.116-.109l1.989.027h2V58.39h-.882l-1.764.034a.1.1,0,0,1-.109-.109l.027-1.224V55.539l-.027-1.2q0-.116.109-.116l1.764.027h2.734l1.75-.027q.109,0,.109.116l-.027,1.2v1.552l.027,1.224a.1.1,0,0,1-.109.109l-1.75-.034h-1.039v1.627h2.153l1.976-.027q.116,0,.116.109v.581q0,.109-.116.109l-1.976-.027h-1.764a8.8,8.8,0,0,0,1.866,2.044A11.078,11.078,0,0,0,104.986,64.132ZM102.5,57.679V54.992H97.761v2.687Zm-6.412-3.835a.25.25,0,0,1-.109.191,1.451,1.451,0,0,0-.294.533,22.932,22.932,0,0,1-1.012,2.283v6.891l.027,2.167q0,.116-.109.116h-.677q-.1,0-.1-.116l.027-2.167V60.215q0-.636.027-2a15.487,15.487,0,0,1-1.2,1.641q-.1.123-.157.123t-.137-.157a1.622,1.622,0,0,0-.362-.533,14.419,14.419,0,0,0,2.857-4.956,3.921,3.921,0,0,0,.191-.937,4.563,4.563,0,0,1,.868.294Q96.093,53.755,96.093,53.844ZM112.7,56.5q-.041,1.518,0,3.035A5.324,5.324,0,0,1,113,61.315a3.687,3.687,0,0,1-1.306,3.069,7.744,7.744,0,0,1-3.274,1.271l-.588-.841a6.334,6.334,0,0,0,3.411-1.381,2.741,2.741,0,0,0,.807-1.88,1.856,1.856,0,0,1-1.8.882,2.2,2.2,0,0,1-1.531-.574,2.3,2.3,0,0,1,.123-3.356,2.469,2.469,0,0,1,1.559-.492,2,2,0,0,1,1.36.39q-.027-1.312-.027-1.873-2.249.034-5.435.239l-.014-.9q2.584-.1,5.435-.171V53.8l1,.014q0,.629-.027,1.859,2.324-.027,3.363-.027v.9Q114.379,56.5,112.7,56.5Zm-2.338,2.3a1.322,1.322,0,0,0-.984.4,1.413,1.413,0,0,0-.39,1.046,1.237,1.237,0,0,0,.444,1,1.288,1.288,0,0,0,.848.294,1.405,1.405,0,0,0,1.1-.41,1.3,1.3,0,0,0,.314-.916Q111.692,58.8,110.359,58.8Zm8.627-4.259q1.853-.014,5.694-.2l.588.731q-2.728,2.769-4.327,4.156l-.629.547.055.041.718-.485a4.614,4.614,0,0,1,1.976-.533,3.547,3.547,0,0,1,2.707,1,3.071,3.071,0,0,1,.807,2.208A3.316,3.316,0,0,1,125.3,64.85a5.317,5.317,0,0,1-3.22.848q-2.741,0-2.741-1.859a1.625,1.625,0,0,1,.588-1.312,2.172,2.172,0,0,1,1.429-.451,2.3,2.3,0,0,1,1.777.752,3.444,3.444,0,0,1,.786,1.682,2.579,2.579,0,0,0,1.258-.978,2.922,2.922,0,0,0,.362-1.538,2.231,2.231,0,0,0-.868-1.873A2.671,2.671,0,0,0,123,59.593a4.9,4.9,0,0,0-3.384,1.36,12.447,12.447,0,0,0-1.162,1.217l-.827-.67q3.35-3.445,6.132-6.275-2.01.15-4.771.226Zm3.944,10.247a3.024,3.024,0,0,0-.622-1.429,1.275,1.275,0,0,0-.984-.472,1.119,1.119,0,0,0-.807.3.828.828,0,0,0-.273.622.87.87,0,0,0,.465.827,2.872,2.872,0,0,0,1.3.226A6.036,6.036,0,0,0,122.931,64.788Zm15.846-9.461a.4.4,0,0,1-.137.226,5.118,5.118,0,0,0-.588.991,19.131,19.131,0,0,1-2.755,4.313,18.533,18.533,0,0,1-2.153,2.03v.882q0,.608.362.766a3.778,3.778,0,0,0,1.374.171,3.429,3.429,0,0,0,1.661-.267,1.082,1.082,0,0,0,.444-.725,7.033,7.033,0,0,0,.109-1.456q0-.185-.007-.39a2.33,2.33,0,0,0,.67.308q.232.062.232.212,0,.021-.007.123a6.365,6.365,0,0,1-.26,1.935,1.462,1.462,0,0,1-.581.711,4.551,4.551,0,0,1-2.283.39,5.058,5.058,0,0,1-1.928-.253,1.074,1.074,0,0,1-.513-.451,1.761,1.761,0,0,1-.157-.82v-.465a17.619,17.619,0,0,1-3.056,1.7,1.042,1.042,0,0,1-.226.068q-.055,0-.191-.2a2.083,2.083,0,0,0-.479-.513,15.634,15.634,0,0,0,3.951-2.153V58.239a6.3,6.3,0,0,0-.089-1.176,5.573,5.573,0,0,1,.943.123q.178.041.178.13a.571.571,0,0,1-.068.212,2.447,2.447,0,0,0-.082.854v3.37a12.581,12.581,0,0,0,1.456-1.4,17.417,17.417,0,0,0,2.618-4.115,5.959,5.959,0,0,0,.526-1.524,5.194,5.194,0,0,1,.9.417A.246.246,0,0,1,138.776,55.327Zm1.989,7.362a.259.259,0,0,1,.027.1q0,.082-.178.157l-.437.2a.561.561,0,0,1-.191.075q-.048,0-.075-.089a15.3,15.3,0,0,0-1.75-4.19.168.168,0,0,1-.027-.075q0-.062.171-.15l.4-.191a.37.37,0,0,1,.137-.048q.041,0,.089.089A16.835,16.835,0,0,1,140.766,62.689Zm-9.912-3.89a16.015,16.015,0,0,1-1.442,4.129q-.034.068-.082.068a.628.628,0,0,1-.164-.055l-.451-.185q-.171-.075-.171-.15a.161.161,0,0,1,.021-.068,10.827,10.827,0,0,0,.937-2.078,17.485,17.485,0,0,0,.472-1.9q.021-.082.062-.082l.191.041.438.1q.2.041.2.137A.287.287,0,0,1,130.854,58.8Zm5.031-3.432q.068.048.068.082a.591.591,0,0,1-.1.185l-.232.39q-.116.178-.164.178-.027,0-.075-.048a11.2,11.2,0,0,0-2.926-1.709q-.075-.034-.075-.068a.466.466,0,0,1,.075-.157l.253-.362q.089-.137.137-.137a.207.207,0,0,1,.068.021A13.418,13.418,0,0,1,135.885,55.368Zm18.689-.656a.1.1,0,0,1-.109.109l-1.853-.027h-2.324v1.374h.95l2.01-.027a.1.1,0,0,1,.109.109l-.027,1.025v.964l.027,1.019a.1.1,0,0,1-.109.109l-2.01-.027h-5.4l-2.017.027a.1.1,0,0,1-.109-.109l.027-1.019v-.964l-.027-1.025a.1.1,0,0,1,.109-.109l2.017.027h.772V54.794h-2.1l-1.846.027q-.116,0-.116-.109v-.595q0-.109.116-.109l1.846.027h8.1l1.853-.027a.1.1,0,0,1,.109.109Zm-2.058,3.972V56.824h-2.229v1.859Zm-3.015,0V56.824H147.4v1.859Zm-2.892,0V56.824h-2.058v1.859Zm2.892-2.516V54.794H147.4v1.374Zm5.257,5.325q0,.109-.116.109l-1.791-.027H151.3a7.089,7.089,0,0,1-1.456,2.085q1.429.485,3.664,1.5.075.034.075.075a.316.316,0,0,1-.075.15l-.28.39q-.137.185-.171.185a.168.168,0,0,1-.075-.027,25.082,25.082,0,0,0-3.78-1.709,11.507,11.507,0,0,1-5.8,1.764l-.109.007a.244.244,0,0,1-.178-.055,1.153,1.153,0,0,1-.109-.205,1.436,1.436,0,0,0-.335-.472,12.215,12.215,0,0,0,5.544-1.347q-1.312-.355-2.461-.574-.123.164-.321.39a.268.268,0,0,1-.191.089.608.608,0,0,1-.116-.014l-.479-.116q-.1-.014-.1-.1,0-.041.137-.185.3-.328.643-.779.342-.424.772-1.053h-1.873l-1.8.027a.1.1,0,0,1-.109-.109v-.581a.1.1,0,0,1,.109-.109l1.8.027h2.352l.178-.308a4.793,4.793,0,0,0,.506-1.121,3.968,3.968,0,0,1,.841.226q.15.055.15.15t-.137.185a2,2,0,0,0-.465.6l-.164.267h5.359l1.791-.027q.116,0,.116.109Zm-4.409.082h-3.336q-.485.759-.786,1.148,1.511.3,2.721.656A5.852,5.852,0,0,0,150.35,61.575Zm9.57-4.136a41.522,41.522,0,0,1-2.646,7.841l-.923-.362a37.253,37.253,0,0,0,2.563-7.41q-.848.062-2.577.226l-.055-.882q.513-.034,1.518-.1l1.313-.089q.26-1.183.533-2.782l.991.137q-.308,1.6-.533,2.591.786-.055,1.429-.055a1.428,1.428,0,0,1,1.278.567,3.662,3.662,0,0,1,.4,1.982,19.506,19.506,0,0,1-.437,4.97,1.777,1.777,0,0,1-.636,1,1.828,1.828,0,0,1-1.073.28,9.25,9.25,0,0,1-1.422-.109l-.171-.978a6.216,6.216,0,0,0,1.244.164,1.47,1.47,0,0,0,.745-.144.9.9,0,0,0,.335-.485,16.429,16.429,0,0,0,.444-4.566,3.52,3.52,0,0,0-.219-1.538.713.713,0,0,0-.677-.321Q160.706,57.385,159.92,57.439Zm4.108-3.992.711-.28a19.251,19.251,0,0,1,1.039,2.372l-.759.308A14.765,14.765,0,0,0,164.028,53.447Zm1.5-.472.7-.253a11.327,11.327,0,0,1,.991,2.3l-.725.294A13.487,13.487,0,0,0,165.525,52.976Zm-2.311,2.844.882-.451A16.879,16.879,0,0,1,166.5,60.2l-.978.458A14.513,14.513,0,0,0,163.215,55.819Zm8.572.294q.82-.068,2.071-.2l.014.868q-1.142.137-2.3.191a38.417,38.417,0,0,1-2.468,6.487l-.909-.424a29.976,29.976,0,0,0,2.379-6.016q-1.135.062-2.27.041l-.027-.868q1.176.041,2.522-.027.273-1.169.465-2.365l1.019.123Q172.088,54.869,171.787,56.113Zm3,5.79q-.123-1.5-.144-3.568h.964q0,1.791.157,3.794a9.264,9.264,0,0,1,2.563,1.6l-.52.95a7.662,7.662,0,0,0-2.017-1.524v.232q0,2.229-2.475,2.229a2.629,2.629,0,0,1-1.846-.581,1.665,1.665,0,0,1-.54-1.292,1.7,1.7,0,0,1,.889-1.5,3.244,3.244,0,0,1,1.757-.458A5.891,5.891,0,0,1,174.788,61.9Zm0,.93a4.031,4.031,0,0,0-1.162-.2,2.4,2.4,0,0,0-1.429.349.867.867,0,0,0-.383.731.886.886,0,0,0,.41.772,1.931,1.931,0,0,0,1.107.273,1.305,1.305,0,0,0,1.47-1.483Zm.055-6.357.444-.8a14.091,14.091,0,0,1,3.192,1.5l-.513.868A12.767,12.767,0,0,0,174.843,56.476Zm10.432-2.536.9.615q-2.119,2.454-4.382,4.607a.681.681,0,0,0-.267.479q0,.226.376.513a45.7,45.7,0,0,1,4.9,4.71l-.868.725a50.558,50.558,0,0,0-5.024-5.065,1.118,1.118,0,0,1-.465-.841,1.139,1.139,0,0,1,.362-.827A64.9,64.9,0,0,0,185.274,53.939Zm3.91,8.538a14.949,14.949,0,0,1,1.641,1.531,10.045,10.045,0,0,1,1.169,1.483l-.923.684a11.119,11.119,0,0,0-2.7-3.035Zm20.993.957a3.38,3.38,0,0,1-.273,1.326,1.687,1.687,0,0,1-.437.479,5.82,5.82,0,0,1-2.9.417,10.217,10.217,0,0,1-1.579-.082,1.571,1.571,0,0,1-.67-.253,1.354,1.354,0,0,1-.4-1.135V60.6q-.4.123-.69.232l-.205.075a.225.225,0,0,1-.068.014q-.075,0-.1-.109l-.137-.533a.158.158,0,0,1-.014-.055q0-.055.1-.075.4-.075,1.121-.28v-.711a11.047,11.047,0,0,0-.082-1.613,8.3,8.3,0,0,1,.827.075q.164.021.164.109a.724.724,0,0,1-.068.253A4.438,4.438,0,0,0,204.7,59v.649l1.422-.424v-.615a10.812,10.812,0,0,0-.1-1.7,6.273,6.273,0,0,1,.834.075q.157.021.157.137a1.463,1.463,0,0,1-.055.226,4.022,4.022,0,0,0-.082,1.046V59l1-.308q.7-.2,1.258-.4.342-.116.369-.123h.021q.075,0,.075.1l-.027.643a16.706,16.706,0,0,1-.321,3.179.857.857,0,0,1-.868.663q-.123.007-.273.007-.219,0-.479-.021-.123-.014-.15-.055a.572.572,0,0,1-.048-.2,1.437,1.437,0,0,0-.185-.567,3.639,3.639,0,0,0,.882.116.4.4,0,0,0,.438-.349,16.326,16.326,0,0,0,.239-2.563l-1.935.588v1.887l.027,1.6a.1.1,0,0,1-.109.109H206.2a.1.1,0,0,1-.109-.109l.027-1.6V59.948l-1.422.417v3.206a4.377,4.377,0,0,0,.048.813.406.406,0,0,0,.178.287,4.189,4.189,0,0,0,1.716.2,13.123,13.123,0,0,0,1.729-.075,1.232,1.232,0,0,0,.595-.219,1.052,1.052,0,0,0,.349-.622,6.746,6.746,0,0,0,.1-1.169,1.361,1.361,0,0,0,.547.28q.226.062.226.253Q210.185,63.359,210.178,63.435Zm-7.191-6.973a.1.1,0,0,1-.116.116l-1.552-.034H200.1q-.027,1.285-.055,1.921h1.388l.868-.027a.109.109,0,0,1,.123.123q-.014.26-.027.779-.021.595-.027.9a22.077,22.077,0,0,1-.308,4.033,2.025,2.025,0,0,1-.485,1.053,1.214,1.214,0,0,1-.861.287q-.431,0-.7-.014-.157-.014-.191-.062a.694.694,0,0,1-.048-.232,1.711,1.711,0,0,0-.2-.615,5.74,5.74,0,0,0,1.053.109.535.535,0,0,0,.52-.294,3.454,3.454,0,0,0,.191-.813,33.646,33.646,0,0,0,.267-4.484H200.02a18.5,18.5,0,0,1-.54,3.773,8.717,8.717,0,0,1-1.169,2.536q-.109.15-.157.15t-.164-.123a1.806,1.806,0,0,0-.506-.437,7.835,7.835,0,0,0,1.524-3.671,34.938,34.938,0,0,0,.308-4.895l-1.511.034q-.1,0-.1-.116v-.588a.085.085,0,0,1,.1-.1l1.565.027h.916v-.937a6.96,6.96,0,0,0-.1-1.442q.54.021.909.068.185.021.185.123a.864.864,0,0,1-.082.253,3.335,3.335,0,0,0-.089,1v.937h.226l1.538-.027q.116,0,.116.1Zm7.082-.191a.1.1,0,0,1-.109.109l-1.668-.027h-3.979a10.35,10.35,0,0,1-1.23,1.764q-.116.144-.191.144t-.2-.157a1.274,1.274,0,0,0-.41-.294,8.668,8.668,0,0,0,2.092-3.473,4.21,4.21,0,0,0,.178-.943q.526.1.8.185.157.041.157.157a.332.332,0,0,1-.082.164,1.884,1.884,0,0,0-.267.574q-.26.7-.451,1.121h3.582l1.668-.027a.1.1,0,0,1,.109.109Zm10.083.937q0,.109-.116.109l-1.456-.027h-.417v6.05l.027,2.42a.1.1,0,0,1-.109.109h-.649a.1.1,0,0,1-.109-.109l.027-2.406V57.289h-.437l-1.47.027a.1.1,0,0,1-.109-.109v-.574q0-.116.109-.116l1.47.027h.438V55.354a11.11,11.11,0,0,0-.1-1.8,8.722,8.722,0,0,1,.9.082q.171.027.171.116a.379.379,0,0,1-.027.123,1.265,1.265,0,0,0-.048.13,6.158,6.158,0,0,0-.082,1.34v1.2h.417l1.456-.027a.1.1,0,0,1,.116.116Zm4.115.841q0,.123-.116.123l-1.244-.027h-.068V62.3l.014,2.194a1.173,1.173,0,0,1-.383,1.025,2.85,2.85,0,0,1-1.367.212h-.308q-.219,0-.26-.048a.6.6,0,0,1-.082-.246,2.487,2.487,0,0,0-.219-.595,10.78,10.78,0,0,0,1.258.089q.52-.021.52-.574V58.144h-.383l-1.244.027a.109.109,0,0,1-.123-.123v-.561q0-.116.123-.116l1.244.027h1.278l1.244-.027a.1.1,0,0,1,.116.116Zm-9.194-.984q0,.082-.13.164a1.094,1.094,0,0,0-.321.41A11.166,11.166,0,0,1,213.9,58.8v5.209l.027,1.8q0,.109-.116.109h-.643a.1.1,0,0,1-.109-.109l.027-1.8V61.5q0-.123.041-1.723a14.384,14.384,0,0,1-1.107,1.121q-.109.109-.164.109-.075,0-.144-.15a1.759,1.759,0,0,0-.321-.506,10.411,10.411,0,0,0,2.577-3.192,3.284,3.284,0,0,0,.267-.684,5.288,5.288,0,0,1,.684.39Q215.072,56.975,215.072,57.063Zm.041-3.042q0,.1-.13.157a1.182,1.182,0,0,0-.349.335A12.765,12.765,0,0,1,212.16,57.1a.578.578,0,0,1-.2.109q-.062,0-.171-.2a1.73,1.73,0,0,0-.362-.472,9.155,9.155,0,0,0,2.5-2.5,2.091,2.091,0,0,0,.308-.629,4.717,4.717,0,0,1,.738.41Q215.113,53.926,215.113,54.021Zm1.442,5.223a.4.4,0,0,1-.068.185,1.426,1.426,0,0,0-.144.547,13.911,13.911,0,0,1-.882,3.493q-.055.171-.13.171a.565.565,0,0,1-.178-.068,1.67,1.67,0,0,0-.547-.164,11.343,11.343,0,0,0,.957-3.432q.027-.342.027-.636a2.832,2.832,0,0,0-.021-.362,6.192,6.192,0,0,1,.8.116Q216.556,59.128,216.556,59.244Zm4.04,3.486a.112.112,0,0,0,.007.027v.021q0,.075-.144.137l-.39.137a.66.66,0,0,1-.171.048q-.062,0-.068-.1a21.241,21.241,0,0,0-.8-3.726.29.29,0,0,1-.014-.068q0-.048.144-.1l.376-.13a.4.4,0,0,1,.1-.021q.055,0,.082.1A22.955,22.955,0,0,1,220.6,62.73Zm3.35-7.588q0,.116-.1.116l-1.094-.027h-.909l-1.094.027q-.109,0-.109-.116v-.588a.1.1,0,0,1,.109-.109l1.094.027h.909l1.094-.027q.1,0,.1.109Zm-3.767.267a.207.207,0,0,1,.021.075q0,.055-.1.123l-.28.178a.524.524,0,0,1-.171.089q-.041,0-.082-.089a6.681,6.681,0,0,0-.841-1.381.166.166,0,0,1-.041-.082q0-.041.109-.1l.308-.171a.445.445,0,0,1,.123-.041.114.114,0,0,1,.075.041A6.778,6.778,0,0,1,220.179,55.409Zm11.129.438a22.039,22.039,0,0,1-1.483,7.362,2.1,2.1,0,0,1-1.894,1.483,1.749,1.749,0,0,1-1.606-1.06,6,6,0,0,1-.533-2.789,7.335,7.335,0,0,1,.458-2.618,5.114,5.114,0,0,1,1.039-1.723A4.675,4.675,0,0,1,229,55.375a5.426,5.426,0,0,1,1.969-.369,4.139,4.139,0,0,1,3.555,1.5,6.371,6.371,0,0,1,.964,3.808,5.114,5.114,0,0,1-1.121,3.4,5.6,5.6,0,0,1-3.274,1.784l-.485-.841a4.243,4.243,0,0,0,3.835-4.607,4.67,4.67,0,0,0-1.032-3.3A2.809,2.809,0,0,0,231.308,55.847Zm-1.053.109a3.075,3.075,0,0,0-1.292.4,4.459,4.459,0,0,0-1.06.93,5.252,5.252,0,0,0-1.148,3.582,4.6,4.6,0,0,0,.41,2.126q.328.615.752.615a.82.82,0,0,0,.622-.26,2.544,2.544,0,0,0,.444-.759A19.819,19.819,0,0,0,230.255,55.956Zm19.653,8.866a2.237,2.237,0,0,0-.479.513q-.13.2-.164.2-.055,0-.185-.123a12.237,12.237,0,0,1-3.2-3.876,14.349,14.349,0,0,1-1.292-4.71,13.131,13.131,0,0,1-1.374,2.42v4.9q1.066-.3,2.55-.827a3.658,3.658,0,0,0-.055.547.522.522,0,0,1-.055.253.635.635,0,0,1-.226.116,38.338,38.338,0,0,1-3.773,1.176,1.123,1.123,0,0,0-.526.226.251.251,0,0,1-.157.082q-.082,0-.137-.137-.137-.355-.28-.861a14.407,14.407,0,0,0,1.5-.28l.349-.082V60.229a13.086,13.086,0,0,1-1.921,1.654.426.426,0,0,1-.205.123q-.068,0-.171-.185a1.6,1.6,0,0,0-.417-.444,10.242,10.242,0,0,0,4.047-4.58h-1.08l-1.962.027a.1.1,0,0,1-.109-.109V56.12a.1.1,0,0,1,.109-.109l1.962.027h1.627v-1.2a6.313,6.313,0,0,0-.1-1.347,6.816,6.816,0,0,1,.923.089q.171.021.171.109a.724.724,0,0,1-.068.253,2.417,2.417,0,0,0-.082.8v1.3h2.29l1.976-.027q.1,0,.1.109v.595q0,.109-.1.109l-1.976-.027h-2.085a13.8,13.8,0,0,0,.827,3.4,19.371,19.371,0,0,0,1.907-1.7,4.012,4.012,0,0,0,.4-.561,4.769,4.769,0,0,1,.643.561.236.236,0,0,1,.082.164q0,.082-.164.157a2.009,2.009,0,0,0-.437.321,25.316,25.316,0,0,1-2.112,1.75A10.954,10.954,0,0,0,249.908,64.822Zm-9.085-10.91a.24.24,0,0,1-.13.185,1.374,1.374,0,0,0-.294.526,20.705,20.705,0,0,1-1.019,2.27v6.85l.027,2.153A.1.1,0,0,1,239.3,66h-.663a.1.1,0,0,1-.109-.109l.027-2.153V60.283q0-.643.027-2.017a15.838,15.838,0,0,1-1.217,1.641q-.1.137-.171.137-.048,0-.109-.123a1.833,1.833,0,0,0-.362-.561,14.5,14.5,0,0,0,2.871-4.97,4.659,4.659,0,0,0,.205-.943,4.976,4.976,0,0,1,.854.294Q240.823,53.83,240.823,53.912Zm22.784.793a.1.1,0,0,1-.116.116l-1.818-.027h-1.162a13.419,13.419,0,0,1-.561,1.4H261.1l1.6-.034a.1.1,0,0,1,.109.109l-.027,1.647v3.6l.027,1.654a.1.1,0,0,1-.109.109l-1.6-.027h-1.846l-1.593.027q-.13,0-.13-.109l.027-1.654V57.945l-.027-1.675q0-.109.13-.109l1.456.034a9.657,9.657,0,0,0,.526-1.4h-1.019l-1.791.027a.1.1,0,0,1-.116-.116v-.574q0-.109.116-.109l1.791.027h3.049l1.818-.027q.116,0,.116.109Zm-1.613,7.848V61.021h-3.637v1.531Zm0-4.259v-1.4h-3.637v1.4Zm0,2.071v-1.4h-3.637v1.4Zm-4.888-4.573A.1.1,0,0,1,257,55.9l-1.682-.027h-.807v1.442h.513l1.5-.027a.1.1,0,0,1,.109.109l-.027,1.094v1.176l.027,1.094a.1.1,0,0,1-.109.109l-1.5-.027h-.355a8.62,8.62,0,0,0,2.146,2.406,1.592,1.592,0,0,0-.376.362q-.123.185-.185.185t-.191-.157a9.581,9.581,0,0,1-1.593-2.153q.007,1.627.055,3.247.014.321.034.9.007.253.007.294,0,.1-.109.1H253.8q-.109,0-.109-.1,0-.048.014-.677.048-1.948.068-3.719a9.75,9.75,0,0,1-2.256,3.151.493.493,0,0,1-.171.109q-.048,0-.15-.178a1.3,1.3,0,0,0-.362-.437,8.76,8.76,0,0,0,2.673-3.329h-.253l-1.5.027a.1.1,0,0,1-.109-.109l.027-1.094V58.492l-.027-1.094a.1.1,0,0,1,.109-.109l1.5.027h.479V55.874H252.9l-1.682.027a.1.1,0,0,1-.109-.109v-.561q0-.1.109-.1l1.682.027h.841V54.89a8.412,8.412,0,0,0-.082-1.422q.506.021.841.068.178.021.178.109a1.742,1.742,0,0,1-.068.239,3.141,3.141,0,0,0-.1.964v.308h.807L257,55.129q.109,0,.109.1ZM255.862,60.2V57.959h-1.354V60.2Zm-2.126,0V57.959h-1.306V60.2Zm5.489,3.972q0,.089-.123.144-.021.007-.328.212a9.028,9.028,0,0,1-2.379,1.483,1.042,1.042,0,0,1-.226.068q-.055,0-.191-.226a1.185,1.185,0,0,0-.369-.4,7.678,7.678,0,0,0,2.509-1.374,2.636,2.636,0,0,0,.4-.479,6.738,6.738,0,0,1,.595.4A.241.241,0,0,1,259.226,64.173Zm4.662,1.066a1.282,1.282,0,0,0-.349.431q-.123.226-.2.226a.544.544,0,0,1-.226-.082,8.909,8.909,0,0,1-2.311-1.654.149.149,0,0,1-.055-.089q0-.048.123-.15l.267-.239a.339.339,0,0,1,.137-.075.155.155,0,0,1,.089.048A7.113,7.113,0,0,0,263.888,65.239Zm4.826-7.8a41.522,41.522,0,0,1-2.646,7.841l-.923-.362a37.251,37.251,0,0,0,2.563-7.41q-.848.062-2.577.226l-.055-.882q.513-.034,1.518-.1l1.313-.089q.26-1.183.533-2.782l.991.137q-.308,1.6-.533,2.591.786-.055,1.429-.055a1.428,1.428,0,0,1,1.278.567,3.662,3.662,0,0,1,.4,1.982,19.506,19.506,0,0,1-.437,4.97,1.777,1.777,0,0,1-.636,1,1.828,1.828,0,0,1-1.073.28,9.249,9.249,0,0,1-1.422-.109l-.171-.978a6.216,6.216,0,0,0,1.244.164,1.47,1.47,0,0,0,.745-.144.9.9,0,0,0,.335-.485,16.428,16.428,0,0,0,.444-4.566,3.52,3.52,0,0,0-.219-1.538.713.713,0,0,0-.677-.321Q269.5,57.385,268.714,57.439Zm4.108-3.992.711-.28a19.248,19.248,0,0,1,1.039,2.372l-.759.308A14.764,14.764,0,0,0,272.822,53.447Zm1.5-.472.7-.253a11.326,11.326,0,0,1,.991,2.3l-.725.294A13.489,13.489,0,0,0,274.319,52.976Zm-2.311,2.844.882-.451A16.879,16.879,0,0,1,275.3,60.2l-.978.458A14.512,14.512,0,0,0,272.009,55.819Zm7.875.615q-1.613.027-2.42.014V55.58q1.08.034,2.461.014.1-1.442.13-1.88l.991.062q-.109,1.176-.15,1.777,2.283-.109,4.5-.369v.868q-2.208.232-4.566.335-.055,1.319-.068,1.976a7.454,7.454,0,0,1,2.126-.267,7.031,7.031,0,0,0,.226-.923l.957.185q-.116.485-.226.827a3.022,3.022,0,0,1,2.242,1.429,3.826,3.826,0,0,1,.526,2.023q0,3.377-4.211,3.992l-.4-.854a4.8,4.8,0,0,0,2.8-1.176,2.509,2.509,0,0,0,.779-1.859,2.96,2.96,0,0,0-.684-2.078,2.045,2.045,0,0,0-1.265-.67,15.223,15.223,0,0,1-2.393,4.553,3.414,3.414,0,0,1-2.55,1.47,1.659,1.659,0,0,1-1.388-.581,2.15,2.15,0,0,1-.39-1.367,4.571,4.571,0,0,1,.841-2.741,5.117,5.117,0,0,1,2.071-1.641Q279.856,57.2,279.884,56.435Zm1.23,5.763a13.392,13.392,0,0,0,1.559-3.3,5.87,5.87,0,0,0-1.907.308A14.065,14.065,0,0,0,281.114,62.2Zm-.738.93a13.986,13.986,0,0,1-.533-3.486,3.766,3.766,0,0,0-1.511,1.511,3.69,3.69,0,0,0-.479,1.832,1.26,1.26,0,0,0,.239.827.668.668,0,0,0,.547.253A2.572,2.572,0,0,0,280.376,63.127Zm9.2-8.586q1.853-.014,5.694-.2l.588.731q-2.728,2.769-4.327,4.156l-.629.547.055.041.718-.485a4.614,4.614,0,0,1,1.976-.533,3.547,3.547,0,0,1,2.707,1,3.071,3.071,0,0,1,.807,2.208,3.316,3.316,0,0,1-1.278,2.844,5.317,5.317,0,0,1-3.22.848q-2.741,0-2.741-1.859a1.625,1.625,0,0,1,.588-1.312,2.172,2.172,0,0,1,1.429-.451,2.3,2.3,0,0,1,1.777.752,3.444,3.444,0,0,1,.786,1.682,2.579,2.579,0,0,0,1.258-.978,2.922,2.922,0,0,0,.362-1.538,2.231,2.231,0,0,0-.868-1.873,2.671,2.671,0,0,0-1.668-.526,4.9,4.9,0,0,0-3.384,1.36,12.446,12.446,0,0,0-1.162,1.217l-.827-.67q3.35-3.445,6.132-6.275-2.01.15-4.771.226Zm3.944,10.247a3.024,3.024,0,0,0-.622-1.429,1.275,1.275,0,0,0-.984-.472,1.119,1.119,0,0,0-.807.3.828.828,0,0,0-.273.622.87.87,0,0,0,.465.827,2.872,2.872,0,0,0,1.3.226A6.036,6.036,0,0,0,293.521,64.788Zm9.7-9.194q-.027-1.176-.027-1.853h1v1.812q1.7-.062,3.37-.267v.868q-1.531.185-3.356.253l.041,2.01q1.935-.089,3.247-.26v.868q-1.538.171-3.233.232.014.335.062,1.449.027.745.048,1.2a10.066,10.066,0,0,1,3.726,2.372l-.7.861a9.516,9.516,0,0,0-3.015-2.249v.15a2.184,2.184,0,0,1-2.475,2.468,3.271,3.271,0,0,1-2.017-.5,1.7,1.7,0,0,1-.6-1.436,1.679,1.679,0,0,1,.8-1.449,3.138,3.138,0,0,1,1.832-.5,8.4,8.4,0,0,1,1.47.1q-.048-.848-.1-2.427-1.825.048-3.644,0v-.848q1.7.055,3.63.014-.027-.383-.034-1.087-.014-.663-.027-.943-2.105.041-3.794-.027v-.841Q301.116,55.642,303.222,55.594Zm.171,7.055a5.407,5.407,0,0,0-1.374-.185q-1.832,0-1.832,1.107,0,1.066,1.654,1.066,1.552,0,1.552-1.866Zm12.988-4.806.718-.273a18.274,18.274,0,0,1,1.032,2.365l-.752.308A15.124,15.124,0,0,0,316.381,57.843Zm1.586-.472.7-.253a11.567,11.567,0,0,1,1,2.3l-.731.294A13.489,13.489,0,0,0,317.967,57.371Zm.39-2.632.027.964a5.312,5.312,0,0,0-2.311.629A5.934,5.934,0,0,0,314,58.294a4.817,4.817,0,0,0-.813,2.659,2.958,2.958,0,0,0,1.285,2.529,6.17,6.17,0,0,0,2.933,1l-.239,1a6.1,6.1,0,0,1-3.63-1.381,3.89,3.89,0,0,1-1.312-3.049,5.709,5.709,0,0,1,2.994-5.024l.759-.335-.014-.027-.656.109q-1.189.068-5.66.479l-.082-.923Q311.568,55.177,318.356,54.739Zm8.463-1.265.718-.273a18.274,18.274,0,0,1,1.032,2.365l-.752.308A14.312,14.312,0,0,0,326.819,53.475Zm-5.387,7.267.909.28a3.153,3.153,0,0,0-.533,1.825q0,1.593,2.871,1.593a31.8,31.8,0,0,0,3.555-.2l.014,1.053q-1.641.109-3.582.109a5.244,5.244,0,0,1-2.871-.622,2.206,2.206,0,0,1-.95-1.962A3.852,3.852,0,0,1,321.433,60.741ZM328.323,53l.7-.253a11.326,11.326,0,0,1,.991,2.3l-.725.294A13.489,13.489,0,0,0,328.323,53Zm-6.706,1.818q.868.041,2.5.041.718,0,2.481-.082l.52,1.258a22.682,22.682,0,0,0-2.83,1.866l-.629-.7q.3-.212,2.406-1.524a18.642,18.642,0,0,1-2.256.109q-.855,0-2.194-.055ZM11.354,90.759q0,.1-.109.1h-.663q-.109,0-.109-.1v-.786H3.541v.8q0,.1-.109.1H2.769q-.109,0-.109-.1l.027-4.437V83.745L2.659,80.4a.1.1,0,0,1,.109-.109l1.962.027h.827a12.481,12.481,0,0,0,.561-1.483,3.218,3.218,0,0,0,.1-.615q.41.055.9.164.171.048.171.157a.228.228,0,0,1-.082.15,1.128,1.128,0,0,0-.212.355q-.308.82-.533,1.271h2.83l1.962-.027a.1.1,0,0,1,.109.109l-.027,3.028v2.9Zm-.882-1.586V86.842H3.541v2.331Zm0-3.1v-2.1H3.541v2.1Zm0-2.871V81.113H3.541V83.2Zm16.577.321q0,.089-.15.164a1.564,1.564,0,0,0-.41.362A17.276,17.276,0,0,1,24.5,86.151v1.565l.027,1.777a1.217,1.217,0,0,1-.321.957,1.6,1.6,0,0,1-.82.273,12.271,12.271,0,0,1-1.292.048.507.507,0,0,1-.267-.041.471.471,0,0,1-.089-.226,1.708,1.708,0,0,0-.246-.615q.759.068,1.524.068a.58.58,0,0,0,.656-.656V86.835A26.363,26.363,0,0,1,15.859,90.7a1,1,0,0,1-.219.048q-.089,0-.212-.219a1.434,1.434,0,0,0-.39-.437,25.985,25.985,0,0,0,8.128-3.767q-3.384.533-6.706.854a2.083,2.083,0,0,0-.588.116.952.952,0,0,1-.205.068q-.1,0-.144-.123a7.7,7.7,0,0,1-.2-.834q.711,0,1.518-.055.068,0,.212-.007.3-.014.458-.034v-4.58l-.027-1.688a.1.1,0,0,1,.109-.109l1.839.027h.191a7.431,7.431,0,0,0,.506-.923,2.881,2.881,0,0,0,.253-.8,6.1,6.1,0,0,1,.861.2q.171.048.171.15a.2.2,0,0,1-.109.171.659.659,0,0,0-.226.267q-.246.472-.526.937h2.023l1.839-.027a.1.1,0,0,1,.109.109L24.5,81.906v3.3a12.218,12.218,0,0,0,1.429-1.675,3.505,3.505,0,0,0,.376-.663,4.72,4.72,0,0,1,.615.438A.3.3,0,0,1,27.05,83.52ZM23.673,85.6V84.579H18.327v1.668Q20.761,86.042,23.673,85.6Zm0-1.709V82.617H18.327V83.9Zm0-1.962V80.676H18.327v1.258ZM34.4,80.847a22.039,22.039,0,0,1-1.483,7.362,2.1,2.1,0,0,1-1.894,1.483,1.749,1.749,0,0,1-1.606-1.06,6,6,0,0,1-.533-2.789,7.336,7.336,0,0,1,.458-2.618A5.114,5.114,0,0,1,30.379,81.5a4.675,4.675,0,0,1,1.716-1.128,5.426,5.426,0,0,1,1.969-.369,4.139,4.139,0,0,1,3.555,1.5,6.371,6.371,0,0,1,.964,3.808,5.114,5.114,0,0,1-1.121,3.4,5.6,5.6,0,0,1-3.274,1.784l-.485-.841a4.243,4.243,0,0,0,3.835-4.607,4.671,4.671,0,0,0-1.032-3.3A2.809,2.809,0,0,0,34.4,80.847Zm-1.053.109a3.075,3.075,0,0,0-1.292.4,4.459,4.459,0,0,0-1.06.93,5.252,5.252,0,0,0-1.148,3.582A4.6,4.6,0,0,0,30.256,88q.328.615.752.615a.82.82,0,0,0,.622-.26,2.544,2.544,0,0,0,.444-.759A19.819,19.819,0,0,0,33.346,80.956ZM44.256,89.2q0,.116-.109.116h-.581q-.109,0-.109-.116v-.7H41.638v1.162a.1.1,0,0,1-.109.109h-.595a.1.1,0,0,1-.109-.109l.027-4.32V82.59l-.027-3.274a.1.1,0,0,1,.109-.109l1.121.027h.971l1.121-.027a.1.1,0,0,1,.109.109l-.027,2.83v2.905Zm-.8-1.442v-3.63H41.638v3.63Zm0-4.354V79.979H41.638V83.4Zm9.283.089a.1.1,0,0,1-.109.109L50.7,83.574H46.717L44.8,83.6a.1.1,0,0,1-.109-.109v-.581A.1.1,0,0,1,44.8,82.8l1.914.027h1.306V80.97h-.868L45.363,81q-.13,0-.13-.116v-.561q0-.123.13-.123l1.791.027h.868a11.93,11.93,0,0,0-.1-1.791q.567.021.909.068.171.027.171.123s-.023.089-.068.253a5.578,5.578,0,0,0-.089,1.347h1.271l1.8-.027q.109,0,.109.123v.561q0,.116-.109.116l-1.8-.034H48.85v1.859H50.7L52.63,82.8a.1.1,0,0,1,.109.109Zm-.171,2.5a.1.1,0,0,1-.109.109l-1.682-.027v1.9l.014,1.791a1.053,1.053,0,0,1-.39.937,3.4,3.4,0,0,1-1.627.239.487.487,0,0,1-.26-.041.592.592,0,0,1-.089-.226,1.985,1.985,0,0,0-.28-.629q.567.055,1.313.055.492,0,.492-.513V86.069H46.785l-1.9.027q-.116,0-.116-.109v-.581q0-.1.116-.1l1.9.014H49.95V85.3a8.226,8.226,0,0,0-.1-1.483,6.171,6.171,0,0,1,.9.1q.185.021.185.116a.636.636,0,0,1-.082.232,3.673,3.673,0,0,0-.075,1v.068l1.682-.014q.109,0,.109.1Zm-4.56,2.57a.173.173,0,0,1,.027.082q0,.055-.1.13l-.376.253a.478.478,0,0,1-.164.089q-.041,0-.075-.062a8.338,8.338,0,0,0-1.34-1.75.131.131,0,0,1-.048-.082q0-.055.13-.13l.335-.212a.35.35,0,0,1,.13-.055.169.169,0,0,1,.1.041A8.419,8.419,0,0,1,48.009,88.558Zm18.026.82a1.3,1.3,0,0,1-.362,1.066,1.185,1.185,0,0,1-.608.232,9.47,9.47,0,0,1-1.142.048.409.409,0,0,1-.239-.041.64.64,0,0,1-.082-.226,2.378,2.378,0,0,0-.253-.615,9.706,9.706,0,0,0,1.08.055.91.91,0,0,0,.622-.144.833.833,0,0,0,.116-.526V83.191h-2.55l-1.511.027q-.123,0-.123-.109l.027-1.2V80.225l-.027-1.2q0-.109.123-.109l1.511.027h1.777l1.518-.027a.1.1,0,0,1,.109.109l-.027,2v6.357Zm-.868-6.856V81.387H61.811v1.135Zm0-1.8V79.623H61.811v1.094Zm-5.5,2.393a.1.1,0,0,1-.109.109l-1.4-.027H55.679v4.689l.027,2.912a.1.1,0,0,1-.109.109h-.663a.1.1,0,0,1-.109-.109l.027-2.912v-5.92l-.027-2.939a.1.1,0,0,1,.109-.109l1.586.027H58.16l1.4-.027a.1.1,0,0,1,.109.109l-.027,1.292v1.511Zm-.827-.588V81.387H55.679v1.135Zm0-1.8V79.623H55.679v1.094Zm3.9,8.866q0,.109-.116.109H62.05a.1.1,0,0,1-.109-.109V89H58.775v.725q0,.13-.109.13h-.574q-.116,0-.116-.13L58,87.259V86.083l-.027-1.627a.1.1,0,0,1,.109-.109l1.463.027h1.62l1.463-.027a.1.1,0,0,1,.109.109l-.027,1.415v1.292Zm-.8-1.258V86.979H58.775v1.347Zm0-2V85.044H58.775v1.278Zm11.99-.7v2.769h-.937V86.049q-.321.164-.663.355-1.791,1.012-1.791,2.03a.927.927,0,0,0,.629.943,6.4,6.4,0,0,0,2.078.232q1.47,0,3.411-.171l.041.95q-2.55.13-3.384.13a5.879,5.879,0,0,1-2.967-.513,1.772,1.772,0,0,1-.7-1.6,3.066,3.066,0,0,1,1.88-2.55q.711-.4,1.456-.772-.068-1.312-.909-1.312-1.176,0-3.227,2.365L68.12,85.5a16.348,16.348,0,0,0,2.9-4.136q-1.278.021-2.563,0V80.5q1.477.027,2.953,0a12.51,12.51,0,0,0,.629-1.873l1.012.185a14.376,14.376,0,0,1-.588,1.647q1.969-.062,3.739-.239l.027.854q-2.3.185-4.143.239a14.3,14.3,0,0,1-1.176,1.989l-.355.362.041.055a2.492,2.492,0,0,1,1.668-.711,1.521,1.521,0,0,1,1.114.424,1.982,1.982,0,0,1,.526,1.217q1.094-.5,2.844-1.237l.39.957Q74.86,85.208,73.931,85.618ZM91.1,81.3q0,.109-.1.109l-1.832-.027H83.679a12.847,12.847,0,0,1-.8,1.606h4.1l1.914-.027q.116,0,.116.109l-.027,1.818v2.789l.027,1.818a1.232,1.232,0,0,1-.342,1,3.3,3.3,0,0,1-1.818.308.427.427,0,0,1-.246-.041.838.838,0,0,1-.089-.239,2.038,2.038,0,0,0-.28-.6q.615.055,1.285.055.636,0,.636-.574V87.97H82.927v1.162l.027,1.668q0,.109-.116.109h-.629q-.123,0-.123-.109l.027-1.668v-4.97a12.945,12.945,0,0,1-2.481,2.509.578.578,0,0,1-.2.109q-.075,0-.191-.157a1.739,1.739,0,0,0-.492-.417A11.051,11.051,0,0,0,82.8,81.38H80.821l-1.832.027q-.116,0-.116-.109v-.608q0-.109.116-.109l1.832.027H83.1q.253-.725.349-1.094a4.726,4.726,0,0,0,.212-1.176,7.863,7.863,0,0,1,.882.171q.2.062.2.164a.5.5,0,0,1-.13.212,1.986,1.986,0,0,0-.239.533q-.253.813-.39,1.189h5.175l1.832-.027q.1,0,.1.109Zm-2.939,5.961V85.81H82.927v1.449Zm0-2.16V83.711H82.927V85.1Zm16.7-3.165q-.027.868-.027,1.251a44.859,44.859,0,0,1-.39,6.173,1.7,1.7,0,0,1-.554,1.135,1.535,1.535,0,0,1-.964.267q-.533,0-1.019-.041-.205-.014-.246-.062a.581.581,0,0,1-.062-.246,2.056,2.056,0,0,0-.2-.608,8.01,8.01,0,0,0,1.429.13.679.679,0,0,0,.561-.205,1.77,1.77,0,0,0,.253-.745,45.59,45.59,0,0,0,.362-6.4h-2.03a18.731,18.731,0,0,1-.615,3.849,8.459,8.459,0,0,1-3.165,4.423.741.741,0,0,1-.191.123.729.729,0,0,1-.212-.15,1.644,1.644,0,0,0-.52-.4,7.215,7.215,0,0,0,3.336-4.307,18.7,18.7,0,0,0,.574-3.541h-.13l-1.579.027q-.116,0-.116-.109v-.574a.1.1,0,0,1,.116-.116l1.579.027h.171q.041-.807.041-1.675a9.4,9.4,0,0,0-.116-1.723,6.431,6.431,0,0,1,.943.1q.15.041.15.144a2.974,2.974,0,0,1-.082.308,5.972,5.972,0,0,0-.082,1.258q0,.779-.048,1.593h1.121l1.6-.027Q104.856,81.811,104.856,81.934Zm-6.59,6.4a.21.21,0,0,1,.027.082q0,.041-.089.13l-.321.335q-.1.109-.15.109-.034,0-.089-.068a17.634,17.634,0,0,0-1.087-1.429,9.837,9.837,0,0,1-3.192,3.158,1.925,1.925,0,0,1-.212.1q-.062,0-.2-.2a1.641,1.641,0,0,0-.4-.39,9.073,9.073,0,0,0,3.473-3.268q-.7-.738-1.593-1.524a.11.11,0,0,1-.048-.075q0-.034.075-.109l.273-.26q.1-.1.144-.1a.138.138,0,0,1,.082.041,15.981,15.981,0,0,1,1.429,1.319,5.9,5.9,0,0,0,.294-.745,5.088,5.088,0,0,0,.294-1.258,4.593,4.593,0,0,1,.772.308q.15.089.15.171a1.047,1.047,0,0,1-.15.253,2.666,2.666,0,0,0-.253.6,11.533,11.533,0,0,1-.547,1.285Q97.528,87.43,98.267,88.332Zm1.06-7.055q0,.1-.109.1l-1.75-.027H94.808l-1.736.027q-.116,0-.116-.1v-.588a.1.1,0,0,1,.116-.116l1.736.034h1.019v-.772a7.656,7.656,0,0,0-.109-1.483,8.167,8.167,0,0,1,.923.082q.171.021.171.109a.787.787,0,0,1-.089.267,3.9,3.9,0,0,0-.082,1.025v.772h.827l1.75-.034q.109,0,.109.116Zm-3.9,1.162q0,.082-.123.171a1.161,1.161,0,0,0-.28.349,10.3,10.3,0,0,1-1.477,2.058q-.15.15-.191.15t-.2-.15a1.014,1.014,0,0,0-.465-.321,7.15,7.15,0,0,0,1.641-2.146,1.933,1.933,0,0,0,.185-.629,4.128,4.128,0,0,1,.786.369Q95.423,82.378,95.423,82.439Zm4.266,2.017a1.327,1.327,0,0,0-.472.349q-.137.144-.185.144t-.205-.171a12.613,12.613,0,0,1-1.7-2.338.173.173,0,0,1-.027-.082q0-.055.123-.116l.376-.178a.46.46,0,0,1,.13-.048q.034,0,.082.075A9.457,9.457,0,0,0,99.688,84.456Zm19.558-.937q0,.109-.1.109l-1.969-.027H115.09v2.3h1.189l1.8-.034a.1.1,0,0,1,.109.109l-.027,1.319v1.2l.027,2.338q0,.1-.109.1h-.649q-.109,0-.109-.1v-.615h-5.161V90.9q0,.116-.109.116h-.615q-.13,0-.13-.116l.027-2.365V87.464l-.027-1.49q0-.109.123-.109l1.825.034h.978V83.6h-1.887l-1.976.027q-.116,0-.116-.109v-.608q0-.109.116-.109l1.976.027h1.887V80.566q-1.162.246-2.844.485a1.38,1.38,0,0,1-.178.021q-.13,0-.212-.239a1.419,1.419,0,0,0-.28-.506,33.794,33.794,0,0,0,3.7-.608,17.959,17.959,0,0,0,2.488-.7,3.494,3.494,0,0,0,.725-.369,6.359,6.359,0,0,1,.608.52.323.323,0,0,1,.109.2q0,.116-.171.137a2.852,2.852,0,0,0-.526.13,25.235,25.235,0,0,1-2.563.738v2.461h2.085l1.969-.027q.1,0,.1.109Zm-1.921,5.947V86.623h-5.161v2.844Zm-7.5-2.536q-.684,1.6-1.531,3.186A3.58,3.58,0,0,0,108,90.7q-.034.137-.15.137a.31.31,0,0,1-.185-.082q-.328-.239-.629-.506a6.783,6.783,0,0,0,.8-1.094q.766-1.442,1.47-3.09a3.466,3.466,0,0,0,.39.417q.2.157.2.226A1.127,1.127,0,0,1,109.826,86.931Zm-.41-3.247a.114.114,0,0,1,.041.075.492.492,0,0,1-.082.15l-.28.39q-.089.13-.137.13-.027,0-.089-.055a10.918,10.918,0,0,0-1.928-1.572q-.068-.034-.068-.068a.331.331,0,0,1,.082-.137l.267-.355q.075-.1.123-.1a.221.221,0,0,1,.089.034A9.858,9.858,0,0,1,109.416,83.684Zm.663-3.438a.155.155,0,0,1,.048.089.277.277,0,0,1-.082.144l-.294.383q-.1.116-.144.116t-.075-.055a10.753,10.753,0,0,0-1.873-1.606q-.068-.048-.068-.075t.089-.13l.308-.355q.082-.089.13-.089a.182.182,0,0,1,.082.034A10.969,10.969,0,0,1,110.079,80.245Zm22.2-.964-.027,2.194v6.214l.014,1.88a1.126,1.126,0,0,1-.41.964,3.382,3.382,0,0,1-1.736.28.484.484,0,0,1-.267-.041.581.581,0,0,1-.082-.239,1.71,1.71,0,0,0-.253-.643q.636.055,1.388.055.492,0,.492-.561V86.432h-3.917V88.1l.027,2.317a.1.1,0,0,1-.116.116h-.67q-.109,0-.109-.116l.027-2.317V86.432H122.89a9.556,9.556,0,0,1-.547,2.557,7.734,7.734,0,0,1-.882,1.613q-.123.171-.164.171t-.2-.144a2.74,2.74,0,0,0-.588-.349,6.672,6.672,0,0,0,1.292-2.646,18.46,18.46,0,0,0,.349-4.061v-2.1l-.027-2.194q0-.116.109-.116l1.989.027h5.947l2-.027A.1.1,0,0,1,132.282,79.281Zm-.882,3.158V79.965h-3.917v2.475Zm0,3.233V83.2h-3.917v2.475Zm-4.758,0V83.2h-3.637v.376q0,.916-.062,2.1Zm0-3.233V79.965h-3.637v2.475ZM141.2,81.5q-.041,1.518,0,3.035a5.324,5.324,0,0,1,.308,1.777,3.687,3.687,0,0,1-1.306,3.069,7.744,7.744,0,0,1-3.274,1.271l-.588-.841a6.334,6.334,0,0,0,3.411-1.381,2.741,2.741,0,0,0,.807-1.88,1.856,1.856,0,0,1-1.8.882,2.2,2.2,0,0,1-1.531-.574,2.3,2.3,0,0,1,.123-3.356,2.469,2.469,0,0,1,1.559-.492,2,2,0,0,1,1.36.39q-.027-1.312-.027-1.873-2.249.034-5.435.239l-.014-.9q2.584-.1,5.435-.171V78.8l1,.014q0,.629-.027,1.859,2.324-.027,3.363-.027v.9Q142.885,81.5,141.2,81.5Zm-2.338,2.3a1.322,1.322,0,0,0-.984.4,1.413,1.413,0,0,0-.39,1.046,1.237,1.237,0,0,0,.444,1,1.288,1.288,0,0,0,.848.294,1.406,1.406,0,0,0,1.1-.41,1.3,1.3,0,0,0,.314-.916Q140.2,83.8,138.865,83.8Zm8.627-4.259q1.853-.014,5.694-.2l.588.731q-2.728,2.769-4.327,4.156l-.629.547.055.041.718-.485a4.614,4.614,0,0,1,1.976-.533,3.547,3.547,0,0,1,2.707,1,3.071,3.071,0,0,1,.807,2.208A3.316,3.316,0,0,1,153.8,89.85a5.317,5.317,0,0,1-3.22.848q-2.741,0-2.741-1.859a1.625,1.625,0,0,1,.588-1.312,2.172,2.172,0,0,1,1.429-.451,2.3,2.3,0,0,1,1.777.752,3.445,3.445,0,0,1,.786,1.682,2.579,2.579,0,0,0,1.258-.978,2.922,2.922,0,0,0,.362-1.538,2.231,2.231,0,0,0-.868-1.873,2.671,2.671,0,0,0-1.668-.526,4.9,4.9,0,0,0-3.384,1.36,12.448,12.448,0,0,0-1.162,1.217l-.827-.67q3.35-3.445,6.132-6.275-2.01.15-4.771.226Zm3.944,10.247a3.024,3.024,0,0,0-.622-1.429,1.275,1.275,0,0,0-.984-.472,1.119,1.119,0,0,0-.807.3.828.828,0,0,0-.273.622.87.87,0,0,0,.465.827,2.872,2.872,0,0,0,1.3.226A6.036,6.036,0,0,0,151.437,89.788Zm17.814-2.994q0,.109-.1.109l-.178-.007q-.533-.014-1.2-.021v.9l.034,1.265q0,.109-.116.109h-.615a.1.1,0,0,1-.109-.109V88.6H163.44l.014,1.025a2.005,2.005,0,0,1-.1.718.782.782,0,0,1-.294.342,4.308,4.308,0,0,1-1.894.253.411.411,0,0,1-.253-.048.736.736,0,0,1-.1-.219,2.774,2.774,0,0,0-.342-.629,8.522,8.522,0,0,0,.93.062q.137,0,.308-.007a1.255,1.255,0,0,0,.752-.144.713.713,0,0,0,.144-.526V88.6h-2.406l-1.976.027q-.116,0-.116-.109v-.492q0-.109.116-.109l1.976.027h2.406V86.876h-3.849l-1.812.027a.1.1,0,0,1-.109-.109V86.3a.1.1,0,0,1,.109-.109l1.812.027h3.849v-.984h-2.406l-1.976.027q-.116,0-.116-.1v-.506q0-.109.116-.109l1.976.027h2.406v-.95h-1.853l-1.976.027q-.109,0-.109-.123l.027-.772v-.588l-.027-.772a.1.1,0,0,1,.109-.109l1.976.027h1.853V80.45H158.86l-1.832.027q-.116,0-.116-.109v-.52q0-.109.116-.109l1.832.027h3.753a6.935,6.935,0,0,0-.1-1.456,6.54,6.54,0,0,1,.909.068q.171.027.171.116a.905.905,0,0,1-.082.267,3.843,3.843,0,0,0-.068.978v.027h3.746l1.839-.027a.1.1,0,0,1,.109.109v.52a.1.1,0,0,1-.109.109l-1.839-.027H163.44v.868h1.9l1.989-.027a.1.1,0,0,1,.109.109l-.027.772v.588l.027.772q0,.123-.109.123l-1.989-.027h-1.9v.95h2.249l2.01-.027a.1.1,0,0,1,.109.109l-.034,1.251v.308l1.374-.027q.1,0,.1.109Zm-2.283,1.148V86.876H163.44v1.066Zm0-1.723v-.984H163.44v.984Zm-.321-3.206v-1.08H163.44v1.08Zm-4.033,0v-1.08h-3.138v1.08Zm11.813-.574a41.522,41.522,0,0,1-2.646,7.841l-.923-.362a37.253,37.253,0,0,0,2.563-7.41q-.848.062-2.577.226l-.055-.882q.513-.034,1.518-.1l1.313-.089q.26-1.183.533-2.782l.991.137q-.308,1.6-.533,2.591.786-.055,1.429-.055a1.428,1.428,0,0,1,1.278.567,3.662,3.662,0,0,1,.4,1.982,19.506,19.506,0,0,1-.437,4.97,1.777,1.777,0,0,1-.636,1,1.828,1.828,0,0,1-1.073.28,9.25,9.25,0,0,1-1.422-.109l-.171-.978a6.216,6.216,0,0,0,1.244.164,1.47,1.47,0,0,0,.745-.144.9.9,0,0,0,.335-.485,16.429,16.429,0,0,0,.444-4.566,3.52,3.52,0,0,0-.219-1.538.713.713,0,0,0-.677-.321Q175.212,82.385,174.426,82.439Zm4.108-3.992.711-.28a19.251,19.251,0,0,1,1.039,2.372l-.759.308A14.766,14.766,0,0,0,178.534,78.447Zm1.5-.472.7-.253a11.327,11.327,0,0,1,.991,2.3l-.725.294A13.487,13.487,0,0,0,180.031,77.976Zm-2.311,2.844.882-.451a16.879,16.879,0,0,1,2.406,4.833l-.978.458A14.513,14.513,0,0,0,177.721,80.819Zm11.724,2.023.718-.273a18.274,18.274,0,0,1,1.032,2.365l-.752.308A15.123,15.123,0,0,0,189.444,82.843Zm1.586-.472.7-.253a11.566,11.566,0,0,1,1,2.3l-.731.294A13.487,13.487,0,0,0,191.03,82.371Zm.39-2.632.027.964a5.312,5.312,0,0,0-2.311.629,5.934,5.934,0,0,0-2.071,1.962,4.817,4.817,0,0,0-.813,2.659,2.958,2.958,0,0,0,1.285,2.529,6.17,6.17,0,0,0,2.933,1l-.239,1A6.1,6.1,0,0,1,186.6,89.1a3.89,3.89,0,0,1-1.312-3.049,5.709,5.709,0,0,1,2.994-5.024l.759-.335-.014-.027-.656.109q-1.189.068-5.66.479l-.082-.923Q184.632,80.177,191.42,79.739Zm8.565,3.931a12.542,12.542,0,0,0,2.078,2.857l-.574.9a7.984,7.984,0,0,0-3.657-.854,3.849,3.849,0,0,0-2,.444,1.157,1.157,0,0,0-.643,1.012q0,.813,1.1,1.21a7.484,7.484,0,0,0,2.5.335q.82,0,1.976-.089v.984q-.615.041-2.017.041-4.546,0-4.546-2.365a1.971,1.971,0,0,1,1.066-1.8A5.521,5.521,0,0,1,198,85.775a6.3,6.3,0,0,1,2.851.615,11.321,11.321,0,0,1-1.832-2.591,34.235,34.235,0,0,1-4.341.28l-.137-.854A33.363,33.363,0,0,0,198.632,83q-.444-1.019-.69-1.682-1.757.185-3.794.226l-.123-.882a34.558,34.558,0,0,0,3.637-.171q-.205-.567-.526-1.62l1-.1q.246.9.479,1.62,1.422-.171,3.063-.52l.144.854q-1.647.328-2.912.479a16.615,16.615,0,0,0,.684,1.668q1.47-.212,2.6-.479l.171.841Q201.264,83.472,199.985,83.67Zm8.634-3.076q-.027-1.176-.027-1.853h1v1.812q1.7-.062,3.37-.267v.868q-1.531.185-3.356.253l.041,2.01q1.935-.089,3.247-.26v.868q-1.538.171-3.233.232.014.335.062,1.449.027.745.048,1.2a10.066,10.066,0,0,1,3.726,2.372l-.7.861a9.516,9.516,0,0,0-3.015-2.249v.15a2.184,2.184,0,0,1-2.475,2.468,3.271,3.271,0,0,1-2.017-.5,1.7,1.7,0,0,1-.6-1.436,1.679,1.679,0,0,1,.8-1.449,3.138,3.138,0,0,1,1.832-.5,8.4,8.4,0,0,1,1.47.1q-.048-.848-.1-2.427-1.825.048-3.644,0v-.848q1.7.055,3.63.014-.027-.383-.034-1.087-.014-.663-.027-.943-2.105.041-3.794-.027v-.841Q206.514,80.642,208.619,80.594Zm.171,7.055a5.407,5.407,0,0,0-1.374-.185q-1.832,0-1.832,1.107,0,1.066,1.654,1.066,1.552,0,1.552-1.866ZM221.307,81.5q-.041,1.518,0,3.035a5.324,5.324,0,0,1,.308,1.777,3.687,3.687,0,0,1-1.306,3.069,7.744,7.744,0,0,1-3.274,1.271l-.588-.841a6.334,6.334,0,0,0,3.411-1.381,2.741,2.741,0,0,0,.807-1.88,1.856,1.856,0,0,1-1.8.882,2.2,2.2,0,0,1-1.531-.574,2.3,2.3,0,0,1,.123-3.356,2.469,2.469,0,0,1,1.559-.492,2,2,0,0,1,1.36.39q-.027-1.312-.027-1.873-2.249.034-5.435.239l-.014-.9q2.584-.1,5.435-.171V78.8l1,.014q0,.629-.027,1.859,2.324-.027,3.363-.027v.9Q222.988,81.5,221.307,81.5Zm-2.338,2.3a1.322,1.322,0,0,0-.984.4,1.413,1.413,0,0,0-.39,1.046,1.237,1.237,0,0,0,.444,1,1.288,1.288,0,0,0,.848.294,1.406,1.406,0,0,0,1.1-.41,1.3,1.3,0,0,0,.314-.916Q220.3,83.8,218.969,83.8Zm9.324,3.527a1.915,1.915,0,0,1,1.463.643,1.916,1.916,0,0,1-.144,2.748,1.936,1.936,0,0,1-1.319.5,1.9,1.9,0,0,1-1.463-.643,1.916,1.916,0,0,1,.144-2.748A1.936,1.936,0,0,1,228.293,87.327Zm0,.7a1.269,1.269,0,0,0-1.251,1.251,1.253,1.253,0,0,0,2.181.834,1.247,1.247,0,0,0-.93-2.085Z"
										transform="translate(-0.547 -2.723)" fill="#5a5858" />
								</svg>