	<svg xmlns="http://www.w3.org/2000/svg" width="108.657" height="13.104"
								viewBox="0 0 108.657 13.104">
								<path id="Контур_1748" data-name="Контур 1748"
									d="M13.022-2.926q0,.123-.109.123L10.951-2.83H6.385L4.43-2.8q-.116,0-.116-.123V-3.4q0-.109.116-.109l1.955.027h.369V-4.751l-1.839.027q-.109,0-.109-.123v-.479a.1.1,0,0,1,.109-.109l1.839.027v-.082a4.536,4.536,0,0,0-.089-.984,6.937,6.937,0,0,1,.813.089q.171.021.171.109a.4.4,0,0,1-.068.212.914.914,0,0,0-.075.458v.2H9.6v-.055a4.769,4.769,0,0,0-.082-1.012q.629.055.827.089t.185.123a.481.481,0,0,1-.089.212.878.878,0,0,0-.068.4v.239h.055l1.894-.027a.1.1,0,0,1,.109.109v.479q0,.123-.109.123l-1.894-.027h-.055v1.265h.574l1.962-.027a.1.1,0,0,1,.109.109ZM9.6-3.486V-4.751h-2.1v1.265Zm3.979,3.1A1.255,1.255,0,0,0,13.33.2a.5.5,0,0,1-.082.253A.537.537,0,0,1,13.009.5Q10.281.67,8.039.67A8.923,8.923,0,0,1,4.594.219,2.781,2.781,0,0,1,3.247-1.162,17.094,17.094,0,0,1,1.777.2a1.187,1.187,0,0,0-.294.294Q1.4.615,1.319.615T1.148.492a5.581,5.581,0,0,1-.4-.731A5.346,5.346,0,0,0,1.6-.759,9.5,9.5,0,0,0,2.857-1.887V-5.359h-1L.9-5.332q-.109,0-.109-.13v-.6A.1.1,0,0,1,.9-6.173l.957.027h.711l1.012-.027a.1.1,0,0,1,.109.109L3.657-4.744v2.912A2.3,2.3,0,0,0,4.915-.451a8.237,8.237,0,0,0,2.8.335Q10.63-.116,13.583-.39Zm-.629-7.335a1.1,1.1,0,0,1-.321.67,3.663,3.663,0,0,1-1.764.239,3.3,3.3,0,0,1-1.586-.212.719.719,0,0,1-.226-.335,2.308,2.308,0,0,1-.068-.656v-.69l-.027-.547a.1.1,0,0,1,.109-.109l1.025.027h1.682v-1.025H10.151l-1.176.027q-.123,0-.123-.109v-.485q0-.116.123-.116l1.176.027h1.189l1.114-.027a.1.1,0,0,1,.109.109l-.034.813v.479l.034.854a.1.1,0,0,1-.109.109l-1.114-.027H9.762v.533q0,.5.123.608a2.983,2.983,0,0,0,1.148.109A2.153,2.153,0,0,0,12.1-7.6a1.248,1.248,0,0,0,.15-.745,1.756,1.756,0,0,0,.52.267q.205.082.205.185A1.412,1.412,0,0,1,12.954-7.725Zm-4.689,0a1.1,1.1,0,0,1-.321.67,3.311,3.311,0,0,1-1.654.239,3.157,3.157,0,0,1-1.552-.212.692.692,0,0,1-.246-.335,2.553,2.553,0,0,1-.062-.656v-.69L4.4-9.256q0-.109.123-.109l.991.027H7.171v-1.025H5.578l-1.2.027a.1.1,0,0,1-.109-.109v-.485q0-.116.109-.116l1.2.027H6.74l1.107-.027a.1.1,0,0,1,.109.109l-.027.813v.479l.027.854a.1.1,0,0,1-.109.109L6.74-8.709H5.2v.52q0,.513.13.622a2.432,2.432,0,0,0,1.019.109,2.111,2.111,0,0,0,1.107-.157q.123-.116.137-.731a1.556,1.556,0,0,0,.506.28q.185.068.185.178Q8.278-7.848,8.265-7.725ZM12.9-1.285a1.5,1.5,0,0,0-.308.431q-.123.219-.219.219a.841.841,0,0,1-.205-.048,11.179,11.179,0,0,1-2.625-1.47q-.075-.048-.075-.082t.082-.13L9.8-2.6q.1-.1.144-.1a.234.234,0,0,1,.109.055A8.988,8.988,0,0,0,12.9-1.285ZM3.616-9.044a.168.168,0,0,1,.027.075q0,.048-.123.15l-.328.253a.443.443,0,0,1-.185.1q-.048,0-.1-.075A9.982,9.982,0,0,0,1.36-10.555a.112.112,0,0,1-.041-.068q0-.041.137-.13l.314-.226a.494.494,0,0,1,.164-.082.138.138,0,0,1,.082.041A12.416,12.416,0,0,1,3.616-9.044ZM7.772-2.153q-.021.089-.185.137a.916.916,0,0,0-.2.123,2.245,2.245,0,0,1-.205.13A9.56,9.56,0,0,1,5.325-.8a.813.813,0,0,1-.219.062q-.082,0-.232-.185A1.026,1.026,0,0,0,4.5-1.258a10.769,10.769,0,0,0,2.044-.923A2.564,2.564,0,0,0,7.1-2.7a4.036,4.036,0,0,1,.54.362q.13.089.13.164Zm14.082-5.38q-1.907.062-3.821.041v-.882q1.7.055,3.808-.014v-2.434h1q-.014.841-.014,2.379.875-.048,2.249-.185v.882q-1.114.116-2.249.157.021,2.789.123,4.7a7.23,7.23,0,0,1,2.468,1.832l-.677.841a6.685,6.685,0,0,0-1.791-1.634,2.112,2.112,0,0,1-.7,1.764,2.5,2.5,0,0,1-1.647.5q-2.42,0-2.42-1.9a1.583,1.583,0,0,1,.725-1.34,2.691,2.691,0,0,1,1.586-.451,6.841,6.841,0,0,1,1.483.15Q21.882-5,21.854-7.533Zm.116,5.366a4.28,4.28,0,0,0-1.545-.28,1.734,1.734,0,0,0-.964.253.806.806,0,0,0-.4.711q0,1.053,1.511,1.053a1.26,1.26,0,0,0,1.114-.526,1.833,1.833,0,0,0,.287-1.073Zm1.046-9.5.7-.212a17.224,17.224,0,0,1,.868,2.427l-.745.246A14.325,14.325,0,0,0,23.017-11.662Zm-5.865.827a41.313,41.313,0,0,0-.841,6.87A33.207,33.207,0,0,0,16.646.376l-.978.089q-.321-3.117-.321-4.457a30.522,30.522,0,0,1,.287-3.685q.226-1.764.526-3.24Zm7.362-1.176.718-.212a10.872,10.872,0,0,1,.827,2.365l-.745.239A13.712,13.712,0,0,0,24.514-12.011Zm4.751.8.971.014q-.021.588-.068,1.381-.034.615-.048,1l.424.362a.185.185,0,0,1,.055.137.264.264,0,0,1-.055.157,5.623,5.623,0,0,0-.465.9l-.041.533-.068.52.253-.547A11.409,11.409,0,0,1,32.17-8.853a2.737,2.737,0,0,1,1.647-.622,1.461,1.461,0,0,1,1.347.636,3.053,3.053,0,0,1,.335,1.6q0,1.114-.13,2.8-.123,1.791-.123,2.365A1.674,1.674,0,0,0,35.4-1.2a.452.452,0,0,0,.417.2q.841,0,1.313-2.3l.841.547a5.045,5.045,0,0,1-1,2.229,1.613,1.613,0,0,1-1.224.513,1.339,1.339,0,0,1-1.107-.41A2.439,2.439,0,0,1,34.3-1.907q0-1.039.1-2.557.109-1.764.109-2.509a3.748,3.748,0,0,0-.15-1.3.563.563,0,0,0-.561-.369q-1.408,0-3.78,3.445V.561h-.964q0-2.338.055-4.464l.137-.882-.362.834q-.554,1.3-1.3,2.721l-.786-.656q.649-1.128,2.324-4.341.034-.779.055-1.75-.26.021-2.058.219l-.055-.834q1.271-.116,2.14-.212.007-.355.034-1.128Q29.258-10.685,29.265-11.211Zm11.368.752q1.853-.014,5.694-.2l.588.731Q44.188-7.157,42.588-5.77l-.629.547.055.041.718-.485A4.614,4.614,0,0,1,44.707-6.2a3.547,3.547,0,0,1,2.707,1,3.071,3.071,0,0,1,.807,2.208A3.316,3.316,0,0,1,46.942-.15,5.317,5.317,0,0,1,43.723.7q-2.741,0-2.741-1.859a1.625,1.625,0,0,1,.588-1.312A2.172,2.172,0,0,1,43-2.926a2.3,2.3,0,0,1,1.777.752,3.445,3.445,0,0,1,.786,1.682,2.579,2.579,0,0,0,1.258-.978,2.922,2.922,0,0,0,.362-1.538,2.231,2.231,0,0,0-.868-1.873,2.671,2.671,0,0,0-1.668-.526,4.9,4.9,0,0,0-3.384,1.36A12.447,12.447,0,0,0,40.1-2.83l-.827-.67q3.35-3.445,6.132-6.275-2.01.15-4.771.226ZM44.577-.212a3.024,3.024,0,0,0-.622-1.429,1.275,1.275,0,0,0-.984-.472,1.119,1.119,0,0,0-.807.3.828.828,0,0,0-.273.622.87.87,0,0,0,.465.827,2.872,2.872,0,0,0,1.3.226A6.036,6.036,0,0,0,44.577-.212ZM62.658.171q0,.109-.1.109L60.573.253H55.446L53.457.28a.1.1,0,0,1-.109-.109V-.451a.1.1,0,0,1,.109-.109l1.989.027h2.393V-2.352H56.766l-1.839.027q-.109,0-.109-.116v-.6a.1.1,0,0,1,.109-.109l1.839.027h1.073V-4.717H56.766l-1.839.027q-.123,0-.123-.1l.027-1.545V-9.16l-.027-1.5q0-.116.123-.116l1.839.027h3.1l1.839-.027q.109,0,.109.116l-.027,1.5v2.83l.027,1.545q0,.1-.109.1l-1.839-.027H58.652v1.593h1.306l1.832-.027a.1.1,0,0,1,.109.109v.6q0,.116-.109.116l-1.832-.027H58.652V-.533h1.921l1.989-.027q.1,0,.1.109ZM60.977-5.448V-7.424H58.652v1.976Zm0-2.673v-1.907H58.652v1.907ZM57.839-5.448V-7.424H55.631v1.976Zm0-2.673v-1.907H55.631v1.907ZM54.421-3.767a3.02,3.02,0,0,0-.041.533q.007.1.007.144,0,.157-.226.294A26.024,26.024,0,0,1,51.03-1.34a2.383,2.383,0,0,0-.5.226.361.361,0,0,1-.185.082q-.089,0-.144-.123a5.629,5.629,0,0,1-.246-.807,6.4,6.4,0,0,0,1.285-.349l.6-.226v-3.5h-.226L50.374-6q-.109,0-.109-.116v-.588a.1.1,0,0,1,.109-.109l1.244.027h.226V-9.782h-.321l-1.36.027q-.1,0-.1-.116v-.6q0-.109.1-.109l1.36.027h1.429l1.347-.027a.1.1,0,0,1,.109.109v.6q0,.116-.109.116l-1.347-.027h-.28v2.994h.157l1.258-.027q.1,0,.1.109v.588q0,.116-.1.116l-1.258-.034h-.157v3.151A17.489,17.489,0,0,0,54.421-3.767ZM75.489.745q0,.1-.109.1h-.69q-.109,0-.109-.1V0H65.8V.772a.1.1,0,0,1-.109.109h-.677a.1.1,0,0,1-.109-.109l.027-3.917V-5.482l-.027-2.974a.1.1,0,0,1,.109-.109l1.976.027h2.646V-9.632a11.875,11.875,0,0,0-.109-1.887,9.06,9.06,0,0,1,.978.082q.171.027.171.123a.44.44,0,0,1-.027.13q-.034.1-.041.137a6.8,6.8,0,0,0-.089,1.388v1.121H73.4l1.976-.027a.1.1,0,0,1,.109.109l-.027,2.707v2.591ZM74.58-.8V-3.985H70.52V-.8Zm-4.942,0V-3.985H65.8V-.8ZM74.58-4.771V-7.738H70.52v2.967Zm-4.942,0V-7.738H65.8v2.967ZM83.1-10.459q2.215-.034,5.913-.349l.417.725a48.787,48.787,0,0,1-5.079,4.149l-.677.4.014.055.772-.253q2.468-.54,5.879-1.019l.13.95a7.5,7.5,0,0,0-2.283.574,5.569,5.569,0,0,0-1.866,1.278,2.241,2.241,0,0,0-.7,1.511A1.725,1.725,0,0,0,86.871-.759a8,8,0,0,0,2.789.41l-.082.991A8.145,8.145,0,0,1,85.887-.1,2.351,2.351,0,0,1,84.7-2.283a2.946,2.946,0,0,1,.841-2.01,4.942,4.942,0,0,1,1.887-1.251l-.014-.041-.868.226q-2.085.458-4.464,1.114l-.267-.923a8.068,8.068,0,0,0,1.442-.909A47.752,47.752,0,0,0,87.814-9.9q-2.249.232-4.676.308ZM97.863-9.153A22.039,22.039,0,0,1,96.38-1.791,2.1,2.1,0,0,1,94.486-.308a1.749,1.749,0,0,1-1.606-1.06,6,6,0,0,1-.533-2.789A7.336,7.336,0,0,1,92.8-6.774,5.114,5.114,0,0,1,93.844-8.5,4.675,4.675,0,0,1,95.56-9.625a5.426,5.426,0,0,1,1.969-.369,4.139,4.139,0,0,1,3.555,1.5,6.371,6.371,0,0,1,.964,3.808,5.114,5.114,0,0,1-1.121,3.4A5.6,5.6,0,0,1,97.651.492l-.485-.841A4.243,4.243,0,0,0,101-4.956a4.671,4.671,0,0,0-1.032-3.3A2.809,2.809,0,0,0,97.863-9.153Zm-1.053.109a3.075,3.075,0,0,0-1.292.4,4.459,4.459,0,0,0-1.06.93,5.252,5.252,0,0,0-1.148,3.582A4.6,4.6,0,0,0,93.721-2q.328.615.752.615a.82.82,0,0,0,.622-.26,2.544,2.544,0,0,0,.444-.759A19.819,19.819,0,0,0,96.811-9.044ZM109.4-2.775a2.858,2.858,0,0,1-.25,1.207,2.664,2.664,0,0,1-.7.93,3.25,3.25,0,0,1-1.09.6,4.41,4.41,0,0,1-1.4.212,4.072,4.072,0,0,1-2.229-.533v-1.2A3.571,3.571,0,0,0,106-.786a3.084,3.084,0,0,0,.926-.13,2.077,2.077,0,0,0,.711-.376,1.67,1.67,0,0,0,.458-.595,1.857,1.857,0,0,0,.161-.786q0-1.921-2.734-1.921h-.813v-.95h.772q2.42,0,2.42-1.8,0-1.668-1.846-1.668a3.143,3.143,0,0,0-1.948.7V-9.406a4.259,4.259,0,0,1,2.229-.561,3.424,3.424,0,0,1,1.114.171,2.553,2.553,0,0,1,.854.479,2.121,2.121,0,0,1,.55.738,2.279,2.279,0,0,1,.195.95,2.393,2.393,0,0,1-1.955,2.488v.027a3.093,3.093,0,0,1,.923.243,2.463,2.463,0,0,1,.731.489,2.179,2.179,0,0,1,.482.708A2.259,2.259,0,0,1,109.4-2.775Z"
									transform="translate(-0.745 12.223)" fill="#fff" />
							</svg>