	<svg xmlns="http://www.w3.org/2000/svg" width="217.115" height="14.055"
											viewBox="0 0 217.115 14.055">
											<path id="Контур_1751" data-name="Контур 1751"
												d="M5.934,12.272q.9,1.3,1.682,2.687l-.923.588A27.864,27.864,0,0,0,2.044,9.094l.8-.588A26.844,26.844,0,0,1,5.3,11.391,22.9,22.9,0,0,0,8.3,5.676H.9V4.739h8.47l.362.485A31.431,31.431,0,0,1,5.934,12.272Zm11.1-1.319a15.455,15.455,0,0,0-2.9-1.962l.574-.766a21.307,21.307,0,0,1,2.857,1.75,13.505,13.505,0,0,0,1.162-4.02h-3.9a11.485,11.485,0,0,1-2.81,4.17L11.2,9.565a11.586,11.586,0,0,0,3.247-5.893l1.08.267q-.116.451-.321,1.094h4.84a16.092,16.092,0,0,1-2.509,7.075,10.892,10.892,0,0,1-4.7,3.507l-.663-.786A10.256,10.256,0,0,0,17.035,10.953Zm5.811-5.53H29.8v.984H22.846Zm-.923,8.08h8.723v.978H21.923ZM36.6,8.479H32.3V7.569h8.887v.909H37.673a22.951,22.951,0,0,1-.137,2.57,5.219,5.219,0,0,1-.335,1.333,6.225,6.225,0,0,1-3.35,3.22l-.7-.786A5.2,5.2,0,0,0,36.2,11.992,11.693,11.693,0,0,0,36.6,8.479ZM33.127,4.514h7.267v.923H33.127Zm13.1,5.236a29.849,29.849,0,0,1-3.274,1.962l-.588-.8a17.911,17.911,0,0,0,6.412-4.97l.854.643A15.86,15.86,0,0,1,47.25,8.964v6.61H46.225Zm9.98,2.522q.9,1.3,1.682,2.687l-.923.588a27.864,27.864,0,0,0-4.648-6.453l.8-.588a26.844,26.844,0,0,1,2.461,2.885A22.9,22.9,0,0,0,58.57,5.676h-7.4V4.739h8.47L60,5.225A31.431,31.431,0,0,1,56.205,12.272Zm5.448-4.86.9-.39a19.128,19.128,0,0,1,1.162,3.049l-.923.362A17.081,17.081,0,0,0,61.653,7.412Zm2.646-.6.882-.362a18.024,18.024,0,0,1,1.025,2.994l-.916.39A14.234,14.234,0,0,0,64.3,6.811ZM63.205,15a7.1,7.1,0,0,0,3.753-3.083,11.7,11.7,0,0,0,1.217-5.161l1.025.219a13.289,13.289,0,0,1-1.4,5.462,6.606,6.606,0,0,1-1.675,1.955,10.213,10.213,0,0,1-2.317,1.319ZM78.593,6.64h2.249v.943H78.593V8.629q0,3.445-1.47,5.052a7.427,7.427,0,0,1-3.814,1.935l-.567-.8a6.161,6.161,0,0,0,3.753-1.962A6.7,6.7,0,0,0,77.54,8.759V7.583H74.026v3.705H72.974V7.583h-2.14V6.64h2.14V3.871h1.053V6.64H77.54v-2.8h1.053Zm3.65,2.618h7.615V10.3H82.243Zm16.1-5.838.718-.28A14.091,14.091,0,0,1,100.092,5.5l-.752.314A12.262,12.262,0,0,0,98.342,3.42ZM91.526,8.267,92,7.426a28.873,28.873,0,0,1,3.288,1.429l-.52.937A19.992,19.992,0,0,0,91.526,8.267Zm1.258-2.994.52-.827A20.246,20.246,0,0,1,96.5,5.97l-.561.923A17.538,17.538,0,0,0,92.784,5.272ZM99.982,3l.7-.253a11.566,11.566,0,0,1,1,2.3l-.731.294A13.488,13.488,0,0,0,99.982,3Zm.137,3.192.971.547a14.6,14.6,0,0,1-1.148,3.151,9.741,9.741,0,0,1-1.47,2.235,10.073,10.073,0,0,1-5.558,2.994l-.574-.882a9.086,9.086,0,0,0,5.318-2.8A11.559,11.559,0,0,0,100.119,6.2Zm5.312,2.324a1.157,1.157,0,0,1,.779,2.017,1.159,1.159,0,1,1-.779-2.017Zm7,0a1.157,1.157,0,0,1,.779,2.017,1.159,1.159,0,1,1-.779-2.017Zm7,0a1.157,1.157,0,0,1,.779,2.017,1.159,1.159,0,1,1-.779-2.017Zm10.486,3.37a3.631,3.631,0,0,1-.232,1.319,3.171,3.171,0,0,1-.643,1.039,2.871,2.871,0,0,1-.978.68,3.1,3.1,0,0,1-1.23.243,2.713,2.713,0,0,1-2.314-1.193,4.246,4.246,0,0,1-.619-1.412,7.648,7.648,0,0,1-.212-1.88,8.834,8.834,0,0,1,.284-2.321,5.638,5.638,0,0,1,.807-1.784,3.719,3.719,0,0,1,1.261-1.145,3.379,3.379,0,0,1,1.647-.4,3.968,3.968,0,0,1,1.627.28v1.06a3.455,3.455,0,0,0-1.6-.39,2.384,2.384,0,0,0-1.183.294,2.716,2.716,0,0,0-.9.831,4.051,4.051,0,0,0-.578,1.3,6.573,6.573,0,0,0-.2,1.688h.027a2.354,2.354,0,0,1,2.235-1.224,2.942,2.942,0,0,1,1.159.219,2.5,2.5,0,0,1,.882.619,2.785,2.785,0,0,1,.564.954A3.63,3.63,0,0,1,129.917,11.89Zm-1.148.144a3.05,3.05,0,0,0-.13-.923,2,2,0,0,0-.373-.7,1.606,1.606,0,0,0-.6-.441,2.013,2.013,0,0,0-.807-.154,1.888,1.888,0,0,0-.772.157,1.924,1.924,0,0,0-.615.427,2,2,0,0,0-.554,1.391,3.041,3.041,0,0,0,.144.947,2.446,2.446,0,0,0,.4.769,1.918,1.918,0,0,0,.619.516,1.69,1.69,0,0,0,.8.188,1.824,1.824,0,0,0,.772-.161,1.723,1.723,0,0,0,.595-.448,2.073,2.073,0,0,0,.383-.687A2.723,2.723,0,0,0,128.769,12.033Zm8.682-1.976a9.629,9.629,0,0,1-.222,2.181,5.081,5.081,0,0,1-.643,1.6,2.892,2.892,0,0,1-1.032.991,2.826,2.826,0,0,1-1.391.338,2.639,2.639,0,0,1-1.316-.325,2.758,2.758,0,0,1-.974-.947,4.8,4.8,0,0,1-.6-1.528,9.447,9.447,0,0,1-.205-2.075,10.694,10.694,0,0,1,.215-2.27,5.191,5.191,0,0,1,.632-1.651,2.814,2.814,0,0,1,1.036-1,2.908,2.908,0,0,1,1.418-.338Q137.45,5.033,137.45,10.058Zm-1.148.109q0-4.184-1.989-4.184-2.1,0-2.1,4.259,0,3.972,2.058,3.972Q136.3,14.214,136.3,10.167ZM149.1,15h-1.121V10.98a3.032,3.032,0,0,0-.359-1.682,1.361,1.361,0,0,0-1.207-.52,1.494,1.494,0,0,0-1.22.656,2.511,2.511,0,0,0-.5,1.572V15h-1.121V10.844q0-2.064-1.593-2.064a1.475,1.475,0,0,0-1.217.619,2.557,2.557,0,0,0-.479,1.61V15h-1.121V8h1.121V9.107h.027a2.378,2.378,0,0,1,2.174-1.271,2.022,2.022,0,0,1,1.982,1.449,2.5,2.5,0,0,1,2.324-1.449q2.311,0,2.311,2.851Zm2.693-8.777a.71.71,0,0,1-.513-.205.692.692,0,0,1-.212-.52.718.718,0,0,1,.725-.731.724.724,0,0,1,.523.208.73.73,0,0,1,0,1.036A.718.718,0,0,1,151.792,6.223ZM152.339,15h-1.121V8h1.121Zm8.08,0H159.3V11.008q0-2.229-1.627-2.229a1.765,1.765,0,0,0-1.391.632,2.344,2.344,0,0,0-.55,1.6V15h-1.121V8h1.121V9.162h.027a2.526,2.526,0,0,1,2.3-1.326,2.142,2.142,0,0,1,1.757.742,3.3,3.3,0,0,1,.608,2.143Zm10.37-9.8-4.7,11.43H165.04L169.729,5.2Zm6.8.649q-.226.39-.543.971t-.673,1.306q-.355.725-.725,1.559t-.69,1.723q-.321.889-.564,1.8A13.4,13.4,0,0,0,174.043,15h-1.2a13.631,13.631,0,0,1,.379-1.788q.256-.913.581-1.791t.687-1.692q.362-.813.7-1.5t.625-1.207q.284-.523.455-.817h-4.915V5.2h6.234Zm2.8,7.595L179.3,16.8h-.8l.8-3.363Zm7.5-1.436a3.3,3.3,0,0,1-.246,1.3,2.84,2.84,0,0,1-.7,1,3.137,3.137,0,0,1-1.1.643,4.291,4.291,0,0,1-1.429.226,3.947,3.947,0,0,1-2.03-.41V13.571a3.733,3.733,0,0,0,2.044.643,2.766,2.766,0,0,0,.96-.157,2.134,2.134,0,0,0,.728-.437,1.873,1.873,0,0,0,.461-.677,2.291,2.291,0,0,0,.161-.868,1.86,1.86,0,0,0-.643-1.5,2.818,2.818,0,0,0-1.866-.543q-.2,0-.417.007t-.437.017q-.219.01-.427.024t-.379.034l.335-4.915h4.532V6.209H183.88l-.2,2.878q.219-.014.465-.024t.438-.01a4.4,4.4,0,0,1,1.395.205,2.955,2.955,0,0,1,1.042.584,2.451,2.451,0,0,1,.649.93A3.27,3.27,0,0,1,187.893,12.006Zm7.9-1.948a9.629,9.629,0,0,1-.222,2.181,5.081,5.081,0,0,1-.643,1.6,2.892,2.892,0,0,1-1.032.991,2.826,2.826,0,0,1-1.391.338,2.639,2.639,0,0,1-1.316-.325,2.758,2.758,0,0,1-.974-.947,4.8,4.8,0,0,1-.6-1.528A9.447,9.447,0,0,1,189.4,10.3a10.694,10.694,0,0,1,.215-2.27,5.191,5.191,0,0,1,.632-1.651,2.814,2.814,0,0,1,1.036-1,2.908,2.908,0,0,1,1.418-.338Q195.788,5.033,195.788,10.058Zm-1.148.109q0-4.184-1.989-4.184-2.1,0-2.1,4.259,0,3.972,2.058,3.972Q194.64,14.214,194.64,10.167Zm8.7-.109a9.629,9.629,0,0,1-.222,2.181,5.081,5.081,0,0,1-.643,1.6,2.892,2.892,0,0,1-1.032.991,2.826,2.826,0,0,1-1.391.338,2.639,2.639,0,0,1-1.316-.325,2.758,2.758,0,0,1-.974-.947,4.8,4.8,0,0,1-.6-1.528,9.447,9.447,0,0,1-.205-2.075,10.694,10.694,0,0,1,.215-2.27,5.191,5.191,0,0,1,.632-1.651,2.814,2.814,0,0,1,1.036-1,2.908,2.908,0,0,1,1.418-.338Q203.335,5.033,203.335,10.058Zm-1.148.109q0-4.184-1.989-4.184-2.1,0-2.1,4.259,0,3.972,2.058,3.972Q202.187,14.214,202.187,10.167Zm15.824,4.341a1.107,1.107,0,0,1-.362.923,3.782,3.782,0,0,1-1.88.267.527.527,0,0,1-.273-.041.623.623,0,0,1-.089-.239,2.205,2.205,0,0,0-.267-.643q.574.055,1.36.055a.783.783,0,0,0,.52-.123.546.546,0,0,0,.109-.39V10.071h-8.921v3.192l.027,2.447q0,.116-.109.116h-.69q-.109,0-.109-.116l.027-2.632V7.173l-.027-2.639q0-.13.109-.13l1.976.027h6.528L217.9,4.4q.109,0,.109.13L217.983,7.2v5.072ZM217.129,9.3V5.2h-4.1V9.3Zm-4.942,0V5.2h-3.979V9.3Z"
												transform="translate(-0.896 -2.75)" fill="#5a5858" />
										</svg>