	<svg xmlns="http://www.w3.org/2000/svg" width="330.921" height="87.845"
									viewBox="0 0 330.921 87.845">
									<path id="Контур_1744" data-name="Контур 1744"
										d="M7.957,14.59a5.749,5.749,0,0,1-2.707.574A4.366,4.366,0,0,1,1.9,13.817,4.969,4.969,0,0,1,.643,10.283a5.208,5.208,0,0,1,1.415-3.8A4.8,4.8,0,0,1,5.646,5.033a5.754,5.754,0,0,1,2.311.4V6.66a4.686,4.686,0,0,0-2.324-.588A3.566,3.566,0,0,0,2.9,7.2a4.249,4.249,0,0,0-1.049,3.015,4.043,4.043,0,0,0,.981,2.854A3.338,3.338,0,0,0,5.4,14.132a4.828,4.828,0,0,0,2.557-.656Zm9.584.41H16.27L15.23,12.252H11.074L10.1,15H8.818l3.76-9.8h1.189Zm-2.687-3.78L13.316,7.043a4,4,0,0,1-.15-.656h-.027a3.661,3.661,0,0,1-.157.656L11.457,11.22ZM26.011,15H24.644L23,12.252a5.985,5.985,0,0,0-.437-.653,2.494,2.494,0,0,0-.434-.441,1.5,1.5,0,0,0-.479-.25,1.968,1.968,0,0,0-.578-.079h-.943V15H18.983V5.2h2.926a4.17,4.17,0,0,1,1.186.161,2.654,2.654,0,0,1,.943.489,2.271,2.271,0,0,1,.625.817,2.709,2.709,0,0,1,.226,1.145,2.757,2.757,0,0,1-.154.94,2.455,2.455,0,0,1-.437.762,2.652,2.652,0,0,1-.684.571,3.49,3.49,0,0,1-.9.366v.027a2.068,2.068,0,0,1,.427.25,2.351,2.351,0,0,1,.345.332,4.391,4.391,0,0,1,.325.434q.161.243.359.564ZM20.132,6.236V9.791H21.69a2.364,2.364,0,0,0,.8-.13,1.844,1.844,0,0,0,.632-.373,1.689,1.689,0,0,0,.417-.595,1.991,1.991,0,0,0,.15-.79,1.537,1.537,0,0,0-.509-1.227A2.188,2.188,0,0,0,21.7,6.236ZM32.553,15h-5.2V5.2h4.977V6.236H28.506V9.5h3.541v1.032H28.506v3.432h4.047Zm6.973,0H34.439V5.2h1.148v8.764h3.938Zm1.928-8.777a.71.71,0,0,1-.513-.205.692.692,0,0,1-.212-.52.718.718,0,0,1,.725-.731.724.724,0,0,1,.523.208.73.73,0,0,1,0,1.036A.718.718,0,0,1,41.453,6.223ZM42,15H40.879V8H42Zm10.322,0H50.914L45.869,7.187a3.265,3.265,0,0,1-.314-.615h-.041a10.092,10.092,0,0,1,.055,1.347V15H44.42V5.2h1.49l4.908,7.69q.308.479.4.656h.027a10.371,10.371,0,0,1-.068-1.442V5.2h1.148Zm9.393,0h-1.6l-3.787-4.484a2.733,2.733,0,0,1-.26-.342h-.027V15H54.893V5.2h1.148V9.8h.027a2.7,2.7,0,0,1,.26-.335L59.992,5.2h1.429l-4.2,4.7Zm6.412-9.153a22.039,22.039,0,0,1-1.483,7.362,2.1,2.1,0,0,1-1.894,1.483,1.749,1.749,0,0,1-1.606-1.06,6,6,0,0,1-.533-2.789,7.335,7.335,0,0,1,.458-2.618A5.114,5.114,0,0,1,64.107,6.5a4.675,4.675,0,0,1,1.716-1.128,5.426,5.426,0,0,1,1.969-.369,4.139,4.139,0,0,1,3.555,1.5,6.371,6.371,0,0,1,.964,3.808,5.114,5.114,0,0,1-1.121,3.4,5.6,5.6,0,0,1-3.274,1.784l-.485-.841a4.243,4.243,0,0,0,3.835-4.607,4.671,4.671,0,0,0-1.032-3.3A2.809,2.809,0,0,0,68.127,5.847Zm-1.053.109a3.075,3.075,0,0,0-1.292.4,4.459,4.459,0,0,0-1.06.93,5.252,5.252,0,0,0-1.148,3.582A4.6,4.6,0,0,0,63.984,13q.328.615.752.615a.82.82,0,0,0,.622-.26,2.544,2.544,0,0,0,.444-.759A19.819,19.819,0,0,0,67.074,5.956ZM86.42,13.435a3.38,3.38,0,0,1-.273,1.326,1.687,1.687,0,0,1-.437.479,5.82,5.82,0,0,1-2.9.417,10.217,10.217,0,0,1-1.579-.082,1.571,1.571,0,0,1-.67-.253,1.354,1.354,0,0,1-.4-1.135V10.6q-.4.123-.69.232l-.205.075a.225.225,0,0,1-.068.014q-.075,0-.1-.109l-.137-.533a.158.158,0,0,1-.014-.055q0-.055.1-.075.4-.075,1.121-.28V9.162a11.047,11.047,0,0,0-.082-1.613,8.3,8.3,0,0,1,.827.075q.164.021.164.109a.724.724,0,0,1-.068.253A4.438,4.438,0,0,0,80.938,9v.649l1.422-.424V8.615a10.811,10.811,0,0,0-.1-1.7A6.273,6.273,0,0,1,83.1,7q.157.021.157.137a1.462,1.462,0,0,1-.055.226A4.022,4.022,0,0,0,83.118,8.4V9l1-.308q.7-.2,1.258-.4.342-.116.369-.123h.021q.075,0,.075.1l-.027.643A16.707,16.707,0,0,1,85.5,12.1a.857.857,0,0,1-.868.663q-.123.007-.273.007-.219,0-.479-.021-.123-.014-.15-.055a.572.572,0,0,1-.048-.2,1.437,1.437,0,0,0-.185-.567,3.64,3.64,0,0,0,.882.116.4.4,0,0,0,.438-.349,16.325,16.325,0,0,0,.239-2.563l-1.935.588v1.887l.027,1.6a.1.1,0,0,1-.109.109h-.595a.1.1,0,0,1-.109-.109l.027-1.6V9.948l-1.422.417v3.206a4.377,4.377,0,0,0,.048.813.406.406,0,0,0,.178.287,4.189,4.189,0,0,0,1.716.2,13.123,13.123,0,0,0,1.729-.075,1.232,1.232,0,0,0,.595-.219,1.052,1.052,0,0,0,.349-.622,6.746,6.746,0,0,0,.1-1.169,1.361,1.361,0,0,0,.547.28q.226.062.226.253Q86.427,13.359,86.42,13.435ZM79.229,6.462a.1.1,0,0,1-.116.116l-1.552-.034H76.344q-.027,1.285-.055,1.921h1.388l.868-.027a.109.109,0,0,1,.123.123q-.014.26-.027.779-.021.595-.027.9a22.077,22.077,0,0,1-.308,4.033,2.024,2.024,0,0,1-.485,1.053,1.214,1.214,0,0,1-.861.287q-.431,0-.7-.014-.157-.014-.191-.062a.694.694,0,0,1-.048-.232,1.711,1.711,0,0,0-.2-.615,5.739,5.739,0,0,0,1.053.109.535.535,0,0,0,.52-.294,3.454,3.454,0,0,0,.191-.813,33.649,33.649,0,0,0,.267-4.484H76.262a18.5,18.5,0,0,1-.54,3.773,8.716,8.716,0,0,1-1.169,2.536q-.109.15-.157.15t-.164-.123a1.806,1.806,0,0,0-.506-.437,7.835,7.835,0,0,0,1.524-3.671,34.938,34.938,0,0,0,.308-4.895l-1.511.034q-.1,0-.1-.116V5.874a.085.085,0,0,1,.1-.1l1.565.027h.916V4.869a6.96,6.96,0,0,0-.1-1.442q.54.021.909.068.185.021.185.123a.864.864,0,0,1-.082.253,3.335,3.335,0,0,0-.089,1v.937h.226l1.538-.027q.116,0,.116.1Zm7.082-.191a.1.1,0,0,1-.109.109l-1.668-.027H80.555a10.351,10.351,0,0,1-1.23,1.764q-.116.144-.191.144t-.2-.157a1.274,1.274,0,0,0-.41-.294,8.668,8.668,0,0,0,2.092-3.473,4.21,4.21,0,0,0,.178-.943q.526.1.8.185.157.041.157.157a.332.332,0,0,1-.082.164,1.884,1.884,0,0,0-.267.574q-.26.7-.451,1.121h3.582L86.2,5.566a.1.1,0,0,1,.109.109Zm10.083.937q0,.109-.116.109l-1.456-.027H94.4v6.05l.027,2.42a.1.1,0,0,1-.109.109h-.649a.1.1,0,0,1-.109-.109l.027-2.406V7.289h-.437l-1.47.027a.1.1,0,0,1-.109-.109V6.633q0-.116.109-.116l1.47.027h.438V5.354a11.11,11.11,0,0,0-.1-1.8,8.722,8.722,0,0,1,.9.082q.171.027.171.116a.379.379,0,0,1-.027.123,1.265,1.265,0,0,0-.048.13,6.158,6.158,0,0,0-.082,1.34v1.2h.417l1.456-.027a.1.1,0,0,1,.116.116Zm4.115.841q0,.123-.116.123l-1.244-.027H99.08V12.3l.014,2.194a1.172,1.172,0,0,1-.383,1.025,2.85,2.85,0,0,1-1.367.212h-.308q-.219,0-.26-.048a.6.6,0,0,1-.082-.246,2.487,2.487,0,0,0-.219-.595,10.779,10.779,0,0,0,1.258.089q.52-.021.52-.574V8.144H97.87l-1.244.027a.109.109,0,0,1-.123-.123V7.487q0-.116.123-.116L97.87,7.4h1.278l1.244-.027a.1.1,0,0,1,.116.116Zm-9.194-.984q0,.082-.13.164a1.094,1.094,0,0,0-.321.41A11.165,11.165,0,0,1,90.139,8.8v5.209l.027,1.8q0,.109-.116.109h-.643a.1.1,0,0,1-.109-.109l.027-1.8V11.5q0-.123.041-1.723A14.387,14.387,0,0,1,88.259,10.9q-.109.109-.164.109-.075,0-.144-.15a1.759,1.759,0,0,0-.321-.506,10.411,10.411,0,0,0,2.577-3.192,3.284,3.284,0,0,0,.267-.684,5.289,5.289,0,0,1,.684.39Q91.314,6.975,91.314,7.063Zm.041-3.042q0,.1-.13.157a1.182,1.182,0,0,0-.349.335A12.765,12.765,0,0,1,88.4,7.1a.578.578,0,0,1-.2.109q-.062,0-.171-.2a1.73,1.73,0,0,0-.362-.472,9.155,9.155,0,0,0,2.5-2.5,2.091,2.091,0,0,0,.308-.629,4.717,4.717,0,0,1,.738.41Q91.355,3.926,91.355,4.021ZM92.8,9.244a.4.4,0,0,1-.068.185,1.426,1.426,0,0,0-.144.547,13.911,13.911,0,0,1-.882,3.493q-.055.171-.13.171a.565.565,0,0,1-.178-.068,1.67,1.67,0,0,0-.547-.164,11.343,11.343,0,0,0,.957-3.432q.027-.342.027-.636a2.832,2.832,0,0,0-.021-.362,6.191,6.191,0,0,1,.8.116Q92.8,9.128,92.8,9.244Zm4.04,3.486a.112.112,0,0,0,.007.027v.021q0,.075-.144.137l-.39.137a.66.66,0,0,1-.171.048q-.062,0-.068-.1a21.241,21.241,0,0,0-.8-3.726.29.29,0,0,1-.014-.068q0-.048.144-.1l.376-.13a.4.4,0,0,1,.1-.021q.055,0,.082.1A22.953,22.953,0,0,1,96.838,12.73Zm3.35-7.588q0,.116-.1.116L99,5.231h-.909L97,5.259q-.109,0-.109-.116V4.555A.1.1,0,0,1,97,4.445l1.094.027H99l1.094-.027q.1,0,.1.109Zm-3.767.267a.207.207,0,0,1,.021.075q0,.055-.1.123l-.28.178a.524.524,0,0,1-.171.089q-.041,0-.082-.089A6.68,6.68,0,0,0,94.965,4.4a.166.166,0,0,1-.041-.082q0-.041.109-.1l.308-.171a.445.445,0,0,1,.123-.041.114.114,0,0,1,.075.041A6.778,6.778,0,0,1,96.421,5.409Zm9.83,4.676a27.762,27.762,0,0,0-3.192-2.81l.684-.649a35.427,35.427,0,0,1,2.98,2.522,19.8,19.8,0,0,0,1.49-4.874L109.3,4.5a22.439,22.439,0,0,1-1.777,5.435,21.946,21.946,0,0,1,2.536,3.158l-.868.718A22.085,22.085,0,0,0,107,10.9a12.72,12.72,0,0,1-4.676,4.7l-.7-.7A12,12,0,0,0,106.251,10.085Zm6.563-4.662h6.959v.984h-6.959Zm-.923,8.08h8.723v.978h-8.723Zm16.03.492h2.071V14.9h-7.978V14h4.847l.526-6.152h-4.252V6.934h5.4Zm3.288-4.737h7.615V10.3h-7.615Zm17.145-1.832q.021,2.769.123,4.689a7.23,7.23,0,0,1,2.468,1.832l-.677.841a6.685,6.685,0,0,0-1.791-1.634,2.112,2.112,0,0,1-.7,1.764,2.5,2.5,0,0,1-1.647.5q-2.42,0-2.42-1.9a1.583,1.583,0,0,1,.725-1.34,2.691,2.691,0,0,1,1.586-.451,6.841,6.841,0,0,1,1.483.15q-.089-1.873-.116-4.409-1.907.062-3.821.041V6.626q1.7.055,3.808-.014V4.035h1q-.014.841-.014,2.522.875-.048,2.249-.185v.882Q149.6,7.357,148.354,7.426Zm-.854,5.407a4.28,4.28,0,0,0-1.545-.28,1.734,1.734,0,0,0-.964.253.806.806,0,0,0-.4.711q0,1.053,1.511,1.053a1.26,1.26,0,0,0,1.114-.526,1.833,1.833,0,0,0,.287-1.073ZM142.68,4.165a41.313,41.313,0,0,0-.841,6.87,33.206,33.206,0,0,0,.335,4.341l-.978.089q-.321-3.117-.321-4.457a30.522,30.522,0,0,1,.287-3.685q.226-1.764.526-3.24Zm21.807,5.571a.1.1,0,0,1-.109.109l-1.853-.027h-3.637v3.739l.027,2.194q0,.116-.109.116h-.745q-.109,0-.109-.116l.027-2.194V9.818h-3.541l-1.853.027a.1.1,0,0,1-.109-.109v-.69q0-.1.109-.1l1.853.014h3.541V5.73q-1.675.294-3.821.52-.13.014-.171.014-.13,0-.212-.226a1.906,1.906,0,0,0-.321-.588,31.34,31.34,0,0,0,7.574-1.333,3.152,3.152,0,0,0,.937-.444,5.324,5.324,0,0,1,.684.506q.157.13.157.219,0,.164-.321.185a5.569,5.569,0,0,0-.813.226,24.779,24.779,0,0,1-2.782.738V8.964h3.637l1.853-.014q.109,0,.109.1Zm14.13.123q0,.123-.13.123l-1.832-.027H170.5a11.166,11.166,0,0,1-1.34,3.192,9.749,9.749,0,0,1-2.146,2.338.456.456,0,0,1-.212.123q-.062,0-.178-.178a1.818,1.818,0,0,0-.465-.451,8.22,8.22,0,0,0,3.514-5.024h-1.3l-1.839.027q-.109,0-.109-.123V9.313a.1.1,0,0,1,.109-.109l1.839.027h3.6V7.884h-1.976l-1.976.027q-.1,0-.1-.109V7.269q0-.109.1-.109l1.976.027h1.976V5.942h-2.659l-1.962.027a.1.1,0,0,1-.109-.109V5.327a.1.1,0,0,1,.109-.109l1.962.027h4.129a12.833,12.833,0,0,0,.718-1.23,2.6,2.6,0,0,0,.205-.643,4.459,4.459,0,0,1,.8.26q.157.082.157.171a.2.2,0,0,1-.123.171.728.728,0,0,0-.253.26q-.308.506-.677,1.012h1.47l1.948-.027a.1.1,0,0,1,.109.109V5.86a.1.1,0,0,1-.109.109l-1.948-.027h-2.926V7.187H175l1.962-.027q.116,0,.116.109V7.8q0,.109-.116.109L175,7.884h-2.194V9.23h3.849l1.832-.027q.13,0,.13.109Zm-.28,5.448a.1.1,0,0,1-.109.109l-1.989-.027h-5.3l-1.969.027q-.116,0-.116-.109v-.561q0-.109.116-.109l1.969.027h2.188V12.272h-.868l-1.846.027q-.1,0-.1-.109v-.547q0-.109.1-.109l1.846.027h3.179l1.818-.027q.116,0,.116.109v.547q0,.109-.116.109l-1.818-.027h-1.47v2.393h2.27l1.989-.027a.1.1,0,0,1,.109.109ZM171.151,4.671a.22.22,0,0,1,.034.1q0,.055-.144.123l-.383.2a.485.485,0,0,1-.171.075q-.048,0-.089-.089a5.9,5.9,0,0,0-.8-1.217.2.2,0,0,1-.055-.1q0-.062.137-.123l.376-.171a.414.414,0,0,1,.137-.041.174.174,0,0,1,.1.055A6.877,6.877,0,0,1,171.151,4.671Zm21.465.629a.1.1,0,0,1-.109.109l-1.832-.027h-5.031a24.937,24.937,0,0,1-.191,2.714h3.78l1.709-.027a.109.109,0,0,1,.123.123L191,9.606a26.245,26.245,0,0,1-.492,4.286,2.385,2.385,0,0,1-.67,1.347,1.792,1.792,0,0,1-1.189.362A15.8,15.8,0,0,1,187,15.533a.49.49,0,0,1-.26-.075.73.73,0,0,1-.075-.246,3.2,3.2,0,0,0-.226-.7,12.078,12.078,0,0,0,2.112.2.944.944,0,0,0,.766-.3,1.791,1.791,0,0,0,.314-.779,28.463,28.463,0,0,0,.492-4.7h-4.792a12.807,12.807,0,0,1-.882,2.994,8.757,8.757,0,0,1-3.206,3.753,1.038,1.038,0,0,1-.191.1q-.068,0-.212-.185a1.847,1.847,0,0,0-.588-.431,7.974,7.974,0,0,0,3.377-3.664,15.839,15.839,0,0,0,1.073-6.1h-2.3l-1.832.027a.1.1,0,0,1-.109-.109V4.637a.1.1,0,0,1,.109-.109l1.832.027h8.265l1.832-.027a.1.1,0,0,1,.109.109Zm7.861,4.819q-.041.834-.041,1.3a19.687,19.687,0,0,1-.239,2.769q-.26,1.47-1.483,1.47a7.716,7.716,0,0,1-.854-.041.465.465,0,0,1-.246-.062.561.561,0,0,1-.075-.246,1.417,1.417,0,0,0-.226-.615,7.693,7.693,0,0,0,1.326.137.608.608,0,0,0,.574-.349,2.731,2.731,0,0,0,.212-.772,18.94,18.94,0,0,0,.185-2.946h-2.393a9.035,9.035,0,0,1-.827,2.687,8.923,8.923,0,0,1-1.4,1.976q-.123.137-.185.137t-.178-.171a2.021,2.021,0,0,0-.465-.4A6.834,6.834,0,0,0,196.1,12.1a14,14,0,0,0,.52-3.862l-1.6.027a.1.1,0,0,1-.109-.109l.027-1.21V5.464l-.027-1.2a.1.1,0,0,1,.109-.109l1.613.027h2.058l1.606-.027q.116,0,.116.109l-.027,1.2V6.947l.027,1.21q0,.109-.116.109l-1.606-.027h-1.251q-.041.95-.123,1.777h1.9l1.121-.027Q200.478,9.989,200.478,10.119Zm-.9-2.584V4.9h-3.849V7.535Zm6.61-3.664a1.416,1.416,0,0,1-.1.267,5.727,5.727,0,0,0-.068,1.217v6.87l.027,2.112a1.27,1.27,0,0,1-.41,1.107,1.49,1.49,0,0,1-.643.219,11.417,11.417,0,0,1-1.271.048.446.446,0,0,1-.253-.041,1.963,1.963,0,0,1-.089-.253,1.892,1.892,0,0,0-.294-.629,12.385,12.385,0,0,0,1.36.068.858.858,0,0,0,.588-.144.727.727,0,0,0,.144-.526V5.368a9.936,9.936,0,0,0-.116-1.709,8.886,8.886,0,0,1,.943.082Q206.192,3.769,206.192,3.871Zm-2.96,1.012q0,.014-.068.219a10.149,10.149,0,0,0-.055,1.456v3.794l.027,1.812q0,.109-.13.109h-.629a.1.1,0,0,1-.109-.109l.027-1.812V6.571a11.842,11.842,0,0,0-.1-1.887q.383.014.882.068Q203.232,4.773,203.232,4.883Zm7.082,7.444a1.915,1.915,0,0,1,1.463.643,1.916,1.916,0,0,1-.144,2.748,1.936,1.936,0,0,1-1.319.5,1.9,1.9,0,0,1-1.463-.643A1.916,1.916,0,0,1,209,12.826,1.936,1.936,0,0,1,210.314,12.327Zm0,.7a1.269,1.269,0,0,0-1.251,1.251,1.253,1.253,0,0,0,2.181.834,1.247,1.247,0,0,0-.93-2.085ZM6.911,28.475l.718-.273a18.275,18.275,0,0,1,1.032,2.365l-.752.308A14.312,14.312,0,0,0,6.911,28.475ZM1.524,35.741l.909.28A3.153,3.153,0,0,0,1.9,37.847q0,1.593,2.871,1.593a31.8,31.8,0,0,0,3.555-.2l.014,1.053Q6.7,40.4,4.758,40.4a5.244,5.244,0,0,1-2.871-.622,2.206,2.206,0,0,1-.95-1.962A3.852,3.852,0,0,1,1.524,35.741ZM8.415,28l.7-.253a11.327,11.327,0,0,1,.991,2.3l-.725.294A13.488,13.488,0,0,0,8.415,28ZM1.709,29.821q.868.041,2.5.041.718,0,2.481-.082l.52,1.258A22.684,22.684,0,0,0,4.382,32.9l-.629-.7q.3-.212,2.406-1.524a18.643,18.643,0,0,1-2.256.109q-.854,0-2.194-.055Zm19.8,10.938q0,.1-.109.1h-.663q-.109,0-.109-.1v-.786H13.692v.8q0,.1-.109.1H12.92q-.109,0-.109-.1l.027-4.437V33.745l-.027-3.35a.1.1,0,0,1,.109-.109l1.962.027h.827a12.481,12.481,0,0,0,.561-1.483,3.218,3.218,0,0,0,.1-.615q.41.055.9.164.171.048.171.157a.228.228,0,0,1-.082.15,1.128,1.128,0,0,0-.212.355q-.308.82-.533,1.271h2.83l1.962-.027a.1.1,0,0,1,.109.109l-.027,3.028v2.9Zm-.882-1.586V36.842H13.692v2.331Zm0-3.1v-2.1H13.692v2.1Zm0-2.871V31.113H13.692V33.2ZM37.2,33.52q0,.089-.15.164a1.564,1.564,0,0,0-.41.362,17.276,17.276,0,0,1-1.989,2.105v1.565l.027,1.777a1.217,1.217,0,0,1-.321.957,1.6,1.6,0,0,1-.82.273,12.27,12.27,0,0,1-1.292.048.507.507,0,0,1-.267-.041.471.471,0,0,1-.089-.226,1.708,1.708,0,0,0-.246-.615q.759.068,1.524.068a.58.58,0,0,0,.656-.656V36.835A26.363,26.363,0,0,1,26.011,40.7a1,1,0,0,1-.219.048q-.089,0-.212-.219a1.434,1.434,0,0,0-.39-.437,25.985,25.985,0,0,0,8.128-3.767q-3.384.533-6.706.854a2.083,2.083,0,0,0-.588.116.952.952,0,0,1-.205.068q-.1,0-.144-.123a7.7,7.7,0,0,1-.2-.834q.711,0,1.518-.055.068,0,.212-.007.3-.014.458-.034v-4.58l-.027-1.688a.1.1,0,0,1,.109-.109l1.839.027h.191a7.431,7.431,0,0,0,.506-.923,2.881,2.881,0,0,0,.253-.8,6.1,6.1,0,0,1,.861.2q.171.048.171.15a.2.2,0,0,1-.109.171.659.659,0,0,0-.226.267q-.246.472-.526.937H32.73l1.839-.027a.1.1,0,0,1,.109.109l-.027,1.859v3.3a12.219,12.219,0,0,0,1.429-1.675,3.505,3.505,0,0,0,.376-.663,4.719,4.719,0,0,1,.615.438A.3.3,0,0,1,37.2,33.52ZM33.824,35.6V34.579H28.479v1.668Q30.912,36.042,33.824,35.6Zm0-1.709V32.617H28.479V33.9Zm0-1.962V30.676H28.479v1.258ZM44.55,30.847a22.039,22.039,0,0,1-1.483,7.362,2.1,2.1,0,0,1-1.894,1.483,1.749,1.749,0,0,1-1.606-1.06,6,6,0,0,1-.533-2.789,7.335,7.335,0,0,1,.458-2.618A5.114,5.114,0,0,1,40.53,31.5a4.675,4.675,0,0,1,1.716-1.128,5.426,5.426,0,0,1,1.969-.369,4.139,4.139,0,0,1,3.555,1.5,6.371,6.371,0,0,1,.964,3.808,5.114,5.114,0,0,1-1.121,3.4,5.6,5.6,0,0,1-3.274,1.784l-.485-.841a4.243,4.243,0,0,0,3.835-4.607,4.67,4.67,0,0,0-1.032-3.3A2.809,2.809,0,0,0,44.55,30.847Zm-1.053.109a3.075,3.075,0,0,0-1.292.4,4.459,4.459,0,0,0-1.06.93A5.252,5.252,0,0,0,40,35.871,4.6,4.6,0,0,0,40.407,38q.328.615.752.615a.82.82,0,0,0,.622-.26,2.544,2.544,0,0,0,.444-.759A19.819,19.819,0,0,0,43.5,30.956ZM61.236,33.28q0,.109-.116.109l-1.688-.027H57.039l-1.682.027a.1.1,0,0,1-.109-.109l.027-1.244V30.368L55.248,29.1a.1.1,0,0,1,.109-.109l1.682.027h2.393l1.688-.027q.116,0,.116.109l-.027,1.265v1.668Zm-.827-.6V31.517H56.055v1.162Zm0-1.818V29.705H56.055V30.86Zm2.167,6.05a.1.1,0,0,1-.109.109l-1.859-.027v.95l.014,1.777a.969.969,0,0,1-.4.9,4.5,4.5,0,0,1-1.791.212q-.205,0-.246-.048a.576.576,0,0,1-.089-.246,1.956,1.956,0,0,0-.28-.6,12.378,12.378,0,0,0,1.292.075q.123,0,.205-.007a.441.441,0,0,0,.465-.506v-2.5H55.815l-1.941.027q-.116,0-.116-.109V36.35q0-.109.116-.109l1.941.027H59.78v-1.21H55.959l-1.948.027a.1.1,0,0,1-.109-.109v-.561a.1.1,0,0,1,.109-.109l1.948.027h4.519l1.962-.027a.1.1,0,0,1,.109.109v.561a.1.1,0,0,1-.109.109l-1.832-.027v1.21l1.859-.027a.1.1,0,0,1,.109.109ZM54,32.009a.206.206,0,0,1-.116.164,1.12,1.12,0,0,0-.335.424q-.26.472-.684,1.1V39.05l.027,1.832q0,.109-.116.109h-.656a.1.1,0,0,1-.109-.109l.027-1.832V36.486q0-.157.041-1.75a13.951,13.951,0,0,1-1.306,1.333.413.413,0,0,1-.219.123q-.068,0-.144-.171a1.038,1.038,0,0,0-.349-.472A11.428,11.428,0,0,0,52.9,32.1a3.114,3.114,0,0,0,.267-.7,5.928,5.928,0,0,1,.7.4Q54,31.913,54,32.009ZM53.888,29.1q0,.075-.13.15a1.313,1.313,0,0,0-.349.335,13.192,13.192,0,0,1-2.488,2.6.525.525,0,0,1-.212.109q-.068,0-.185-.2a1.508,1.508,0,0,0-.39-.424,8.48,8.48,0,0,0,2.55-2.529,2.916,2.916,0,0,0,.335-.643,5.019,5.019,0,0,1,.725.4Q53.888,29,53.888,29.1Zm3.568,9.953a.165.165,0,0,1,.041.089q0,.041-.109.116l-.376.267a.409.409,0,0,1-.164.089q-.041,0-.089-.068a7.317,7.317,0,0,0-1.347-1.531q-.055-.048-.055-.082t.123-.13l.369-.232a.23.23,0,0,1,.116-.055.142.142,0,0,1,.089.041A7.885,7.885,0,0,1,57.456,39.05Zm17.261-2.03a.1.1,0,0,1-.109.109L72.659,37.1H68.5l-1.948.027a.1.1,0,0,1-.109-.109l.027-1.135V34.565l-.027-1.135a.1.1,0,0,1,.109-.109l1.948.027h4.156l1.948-.027a.1.1,0,0,1,.109.109l-.027,1.135v1.319Zm-.854-.547V35.5H67.286v.971Zm0-1.586v-.9H67.286v.9Zm2.734-2.42q0,.1-.116.1l-1.846-.027H66.541l-1.832.027q-.116,0-.116-.1V31.92q0-.109.116-.109l1.832.027h1.736a7.779,7.779,0,0,0-.431-1.094.182.182,0,0,1-.034-.082q0-.048.157-.1l.431-.13a.575.575,0,0,1,.109-.021q.048,0,.1.089a9.031,9.031,0,0,1,.533,1.333h2.7q.13-.26.349-.827a3.045,3.045,0,0,0,.144-.588q.451.089.813.2.15.041.15.137a.245.245,0,0,1-.109.185.83.83,0,0,0-.212.294l-.28.6h1.935l1.846-.027q.116,0,.116.109Zm-1.039-2.208q0,.123-.109.123l-1.976-.027H67.758l-1.976.027q-.109,0-.109-.123v-.506a.1.1,0,0,1,.109-.109l1.976.027h2.311v-.253a4.992,4.992,0,0,0-.1-1.121q.383.014.923.068.171.027.171.116a.905.905,0,0,1-.082.267,1.873,1.873,0,0,0-.075.67v.253h2.563l1.976-.027a.1.1,0,0,1,.109.109Zm-1.613,8.832q-.164,1.114-.711,1.388a7.074,7.074,0,0,1-2.591.308,7.541,7.541,0,0,1-2.126-.185q-.588-.219-.588-1.148v-.841a6.543,6.543,0,0,0-.082-1.107,5.318,5.318,0,0,1,.889.1q.171.034.171.109a.621.621,0,0,1-.068.185,2.42,2.42,0,0,0-.068.738V39.2q0,.6.308.7a5.98,5.98,0,0,0,1.552.123,5.615,5.615,0,0,0,2.058-.226q.437-.2.506-1.354a2.239,2.239,0,0,0,.561.294q.219.075.219.171A1.2,1.2,0,0,1,73.944,39.091Zm2.8.615a.15.15,0,0,1,.034.082q0,.048-.116.13l-.41.28a.441.441,0,0,1-.191.1q-.062,0-.1-.082A10.153,10.153,0,0,0,74.2,38.127q-.062-.055-.062-.082,0-.048.116-.13l.328-.253a.187.187,0,0,1,.109-.048.2.2,0,0,1,.123.062A11.8,11.8,0,0,1,76.747,39.706Zm-9.8-1.456a7.38,7.38,0,0,1-1.7,2.242.118.118,0,0,1-.082.041.376.376,0,0,1-.171-.1l-.349-.273q-.116-.1-.116-.144t.055-.082a6.042,6.042,0,0,0,1.627-2.03q.034-.082.089-.082a.42.42,0,0,1,.164.055l.376.164q.137.068.137.137A.168.168,0,0,1,66.944,38.25Zm4.915.465a.157.157,0,0,1,.048.082q0,.048-.1.123l-.294.253a.469.469,0,0,1-.191.109q-.041,0-.089-.068a6.258,6.258,0,0,0-1.217-1.271q-.089-.055-.089-.089t.116-.137l.253-.212a.255.255,0,0,1,.144-.075.188.188,0,0,1,.1.034A6,6,0,0,1,71.859,38.715Zm10.261-7.6q.82-.068,2.071-.2l.014.868q-1.142.137-2.3.191a38.416,38.416,0,0,1-2.468,6.487l-.909-.424A29.976,29.976,0,0,0,80.9,32.022q-1.135.062-2.27.041l-.027-.868q1.176.041,2.522-.027Q81.4,30,81.594,28.8l1.019.123Q82.421,29.869,82.12,31.113Zm3,5.79q-.123-1.5-.144-3.568h.964q0,1.791.157,3.794a9.263,9.263,0,0,1,2.563,1.6l-.52.95a7.662,7.662,0,0,0-2.017-1.524v.232q0,2.229-2.475,2.229a2.629,2.629,0,0,1-1.846-.581,1.665,1.665,0,0,1-.54-1.292,1.7,1.7,0,0,1,.889-1.5,3.244,3.244,0,0,1,1.757-.458A5.891,5.891,0,0,1,85.121,36.9Zm0,.93a4.031,4.031,0,0,0-1.162-.2,2.4,2.4,0,0,0-1.429.349.867.867,0,0,0-.383.731.886.886,0,0,0,.41.772,1.931,1.931,0,0,0,1.107.273,1.305,1.305,0,0,0,1.47-1.483Zm.055-6.357.444-.8a14.091,14.091,0,0,1,3.192,1.5l-.513.868A12.767,12.767,0,0,0,85.176,31.476Zm17.637,6.959a3.38,3.38,0,0,1-.273,1.326,1.687,1.687,0,0,1-.437.479,5.82,5.82,0,0,1-2.9.417,10.217,10.217,0,0,1-1.579-.082,1.571,1.571,0,0,1-.67-.253,1.354,1.354,0,0,1-.4-1.135V35.6q-.4.123-.69.232l-.205.075a.225.225,0,0,1-.068.014q-.075,0-.1-.109l-.137-.533a.157.157,0,0,1-.014-.055q0-.055.1-.075.4-.075,1.121-.28v-.711a11.047,11.047,0,0,0-.082-1.613,8.3,8.3,0,0,1,.827.075q.164.021.164.109a.724.724,0,0,1-.068.253A4.438,4.438,0,0,0,97.33,34v.649l1.422-.424v-.615a10.811,10.811,0,0,0-.1-1.7A6.273,6.273,0,0,1,99.49,32q.157.021.157.137a1.462,1.462,0,0,1-.055.226,4.022,4.022,0,0,0-.082,1.046V34l1-.308q.7-.2,1.258-.4.342-.116.369-.123h.021q.075,0,.075.1l-.027.643a16.707,16.707,0,0,1-.321,3.179.857.857,0,0,1-.868.663q-.123.007-.273.007-.219,0-.479-.021-.123-.014-.15-.055a.572.572,0,0,1-.048-.2,1.437,1.437,0,0,0-.185-.567,3.64,3.64,0,0,0,.882.116.4.4,0,0,0,.438-.349,16.325,16.325,0,0,0,.239-2.563l-1.935.588v1.887l.027,1.6a.1.1,0,0,1-.109.109h-.595a.1.1,0,0,1-.109-.109l.027-1.6V34.948l-1.422.417v3.206a4.377,4.377,0,0,0,.048.813.406.406,0,0,0,.178.287,4.189,4.189,0,0,0,1.716.2A13.123,13.123,0,0,0,101,39.795a1.232,1.232,0,0,0,.595-.219,1.052,1.052,0,0,0,.349-.622,6.746,6.746,0,0,0,.1-1.169,1.361,1.361,0,0,0,.547.28q.226.062.226.253Q102.819,38.359,102.813,38.435Zm-7.191-6.973a.1.1,0,0,1-.116.116l-1.552-.034H92.736q-.027,1.285-.055,1.921h1.388l.868-.027a.109.109,0,0,1,.123.123q-.014.26-.027.779-.021.595-.027.9a22.077,22.077,0,0,1-.308,4.033,2.024,2.024,0,0,1-.485,1.053,1.214,1.214,0,0,1-.861.287q-.431,0-.7-.014-.157-.014-.191-.062a.694.694,0,0,1-.048-.232,1.711,1.711,0,0,0-.2-.615,5.739,5.739,0,0,0,1.053.109.535.535,0,0,0,.52-.294,3.454,3.454,0,0,0,.191-.813,33.649,33.649,0,0,0,.267-4.484H92.654a18.5,18.5,0,0,1-.54,3.773,8.716,8.716,0,0,1-1.169,2.536q-.109.15-.157.15t-.164-.123a1.806,1.806,0,0,0-.506-.437,7.835,7.835,0,0,0,1.524-3.671,34.938,34.938,0,0,0,.308-4.895l-1.511.034q-.1,0-.1-.116v-.588a.085.085,0,0,1,.1-.1L92,30.806h.916v-.937a6.96,6.96,0,0,0-.1-1.442q.54.021.909.068.185.021.185.123a.864.864,0,0,1-.082.253,3.335,3.335,0,0,0-.089,1v.937h.226l1.538-.027q.116,0,.116.1Zm7.082-.191a.1.1,0,0,1-.109.109l-1.668-.027H96.947a10.351,10.351,0,0,1-1.23,1.764q-.116.144-.191.144t-.2-.157a1.274,1.274,0,0,0-.41-.294,8.668,8.668,0,0,0,2.092-3.473,4.21,4.21,0,0,0,.178-.943q.526.1.8.185.157.041.157.157a.332.332,0,0,1-.082.164,1.884,1.884,0,0,0-.267.574q-.26.7-.451,1.121h3.582l1.668-.027a.1.1,0,0,1,.109.109Zm10.083.937q0,.109-.116.109l-1.456-.027H110.8v6.05l.027,2.42a.1.1,0,0,1-.109.109h-.649a.1.1,0,0,1-.109-.109l.027-2.406V32.289h-.437l-1.47.027a.1.1,0,0,1-.109-.109v-.574q0-.116.109-.116l1.47.027h.438V30.354a11.11,11.11,0,0,0-.1-1.8,8.722,8.722,0,0,1,.9.082q.171.027.171.116a.379.379,0,0,1-.027.123,1.265,1.265,0,0,0-.048.13,6.158,6.158,0,0,0-.082,1.34v1.2h.417l1.456-.027a.1.1,0,0,1,.116.116Zm4.115.841q0,.123-.116.123l-1.244-.027h-.068V37.3l.014,2.194a1.172,1.172,0,0,1-.383,1.025,2.85,2.85,0,0,1-1.367.212h-.308q-.219,0-.26-.048a.6.6,0,0,1-.082-.246,2.487,2.487,0,0,0-.219-.595,10.779,10.779,0,0,0,1.258.089q.52-.021.52-.574V33.144h-.383l-1.244.027a.109.109,0,0,1-.123-.123v-.561q0-.116.123-.116l1.244.027h1.278l1.244-.027a.1.1,0,0,1,.116.116Zm-9.194-.984q0,.082-.13.164a1.094,1.094,0,0,0-.321.41,11.165,11.165,0,0,1-.725,1.162v5.209l.027,1.8q0,.109-.116.109H105.8a.1.1,0,0,1-.109-.109l.027-1.8V36.5q0-.123.041-1.723a14.387,14.387,0,0,1-1.107,1.121q-.109.109-.164.109-.075,0-.144-.15a1.759,1.759,0,0,0-.321-.506,10.411,10.411,0,0,0,2.577-3.192,3.284,3.284,0,0,0,.267-.684,5.289,5.289,0,0,1,.684.39Q107.707,31.975,107.707,32.063Zm.041-3.042q0,.1-.13.157a1.182,1.182,0,0,0-.349.335,12.765,12.765,0,0,1-2.475,2.591.578.578,0,0,1-.2.109q-.062,0-.171-.2a1.73,1.73,0,0,0-.362-.472,9.155,9.155,0,0,0,2.5-2.5,2.091,2.091,0,0,0,.308-.629,4.717,4.717,0,0,1,.738.41Q107.748,28.926,107.748,29.021Zm1.442,5.223a.4.4,0,0,1-.068.185,1.426,1.426,0,0,0-.144.547,13.911,13.911,0,0,1-.882,3.493q-.055.171-.13.171a.565.565,0,0,1-.178-.068,1.67,1.67,0,0,0-.547-.164,11.343,11.343,0,0,0,.957-3.432q.027-.342.027-.636a2.832,2.832,0,0,0-.021-.362,6.191,6.191,0,0,1,.8.116Q109.19,34.128,109.19,34.244Zm4.04,3.486a.112.112,0,0,0,.007.027v.021q0,.075-.144.137l-.39.137a.66.66,0,0,1-.171.048q-.062,0-.068-.1a21.241,21.241,0,0,0-.8-3.726.29.29,0,0,1-.014-.068q0-.048.144-.1l.376-.13a.4.4,0,0,1,.1-.021q.055,0,.082.1A22.953,22.953,0,0,1,113.23,37.73Zm3.35-7.588q0,.116-.1.116l-1.094-.027h-.909l-1.094.027q-.109,0-.109-.116v-.588a.1.1,0,0,1,.109-.109l1.094.027h.909l1.094-.027q.1,0,.1.109Zm-3.767.267a.207.207,0,0,1,.021.075q0,.055-.1.123l-.28.178a.524.524,0,0,1-.171.089q-.041,0-.082-.089a6.68,6.68,0,0,0-.841-1.381.166.166,0,0,1-.041-.082q0-.041.109-.1l.308-.171a.445.445,0,0,1,.123-.041.114.114,0,0,1,.075.041A6.778,6.778,0,0,1,112.813,30.409Zm17.138,9.03a1.107,1.107,0,0,1-.362.923,3.53,3.53,0,0,1-1.791.267.487.487,0,0,1-.26-.041.671.671,0,0,1-.1-.239,1.672,1.672,0,0,0-.28-.656q.759.068,1.278.068a.793.793,0,0,0,.513-.137.535.535,0,0,0,.116-.4V31.783h-4.2a8.371,8.371,0,0,0,1.641,3.1,8.891,8.891,0,0,0,2.352,1.832,1.751,1.751,0,0,0-.485.485q-.123.185-.185.185a.525.525,0,0,1-.212-.109A9.018,9.018,0,0,1,125.8,35.29a8.5,8.5,0,0,1-1.244-2.386,5.2,5.2,0,0,1-.246.752,7.553,7.553,0,0,1-1.2,2.044,8.591,8.591,0,0,1-1.969,1.641.578.578,0,0,1-.2.109q-.055,0-.185-.164a2.048,2.048,0,0,0-.472-.479,7.458,7.458,0,0,0,2.229-1.723,6.388,6.388,0,0,0,1-1.675,6.608,6.608,0,0,0,.4-1.627h-3.808v6.788l.027,2.058q0,.116-.109.116h-.69q-.109,0-.109-.116l.027-2.126V33.239l-.027-2.16a.1.1,0,0,1,.109-.109l1.962.027h2.707q.041-.649.041-1.3a8.29,8.29,0,0,0-.089-1.388q.485.021.937.082.157.021.157.144,0,.014-.068.26a5.011,5.011,0,0,0-.082,1.053A10.16,10.16,0,0,1,124.852,31h3.028l1.962-.027a.1.1,0,0,1,.109.109l-.027,2.215v3.9Zm14.923-2.577a1.539,1.539,0,0,0-.349.561q-.1.239-.164.239a.872.872,0,0,1-.2-.068,20.709,20.709,0,0,1-2.085-1.066l-.014,1.066v1.087l.027,2.215a.1.1,0,0,1-.116.116h-.615q-.123,0-.123-.116v-.656H135.8v.725q0,.1-.109.1h-.629q-.116,0-.116-.1l.027-2.242v-.964l-.014-1.189a18.974,18.974,0,0,1-1.9,1.012.713.713,0,0,1-.226.082q-.082,0-.185-.226a1.535,1.535,0,0,0-.362-.472,12.659,12.659,0,0,0,5.3-3.616,3.891,3.891,0,0,0,.588-.937q.526.1.854.2.157.062.157.157,0,.055-.116.123l-.055.041A12.515,12.515,0,0,0,144.874,36.862Zm-3.637,2.632V37.033H135.8v2.461Zm.417-3.22a10.946,10.946,0,0,1-3.1-2.81,12.274,12.274,0,0,1-3.124,2.81q.28.014,1.483.014h3.22Q141.374,36.288,141.654,36.274Zm2.509-3.691a.1.1,0,0,1-.109.109H143.4a.1.1,0,0,1-.109-.109V30.635h-9.509v1.948a.1.1,0,0,1-.109.109h-.649a.1.1,0,0,1-.109-.109l.027-1.442v-.451l-.027-.718a.1.1,0,0,1,.109-.109l1.935.027h3.056v-.1a6.572,6.572,0,0,0-.1-1.429q.41.014.909.068.185.021.185.109a.631.631,0,0,1-.082.253,3.785,3.785,0,0,0-.068.984v.109h3.261l1.935-.027a.1.1,0,0,1,.109.109l-.027.649v.52Zm-7.055-.677q0,.089-.2.185a1.827,1.827,0,0,0-.39.349,9.5,9.5,0,0,1-2.338,1.812.544.544,0,0,1-.226.082q-.068,0-.185-.2a1.413,1.413,0,0,0-.4-.451,7.921,7.921,0,0,0,2.352-1.593,2.753,2.753,0,0,0,.533-.745,3.745,3.745,0,0,1,.725.4Q137.108,31.831,137.108,31.906Zm6.761,1.682a2.054,2.054,0,0,0-.355.52q-.1.226-.164.226a.58.58,0,0,1-.2-.082,10.408,10.408,0,0,1-3.035-2.3.142.142,0,0,1-.041-.068q0-.034.137-.137l.335-.239a.234.234,0,0,1,.109-.055q.034,0,.075.055A8.626,8.626,0,0,0,143.869,33.588Zm9.782-2.6a3.552,3.552,0,0,1,.362-.014,2.4,2.4,0,0,1,2.023.93,2.83,2.83,0,0,1,.554,1.771,2.543,2.543,0,0,1-.978,2.194,3.92,3.92,0,0,1-2.358.622q-.349,0-.882-.027l-.15-.95q.759.055,1.148.055,2.181,0,2.181-1.853a1.982,1.982,0,0,0-.567-1.538,1.546,1.546,0,0,0-1.066-.39,14.2,14.2,0,0,0-4.074.95q1.012,3.794,1.859,7.731l-1,.205q-.813-3.931-1.791-7.615-.82.28-2.146.786l-.349-.868q1.914-.649,2.256-.759-.267-.978-.827-2.939l.964-.253.438,1.559q.226.793.376,1.326a23.04,23.04,0,0,1,2.98-.827,19.408,19.408,0,0,0-1.019-2.058l.9-.335A20.619,20.619,0,0,1,153.651,30.983Zm9.953,5.011a12.594,12.594,0,0,1-5,4.423l-.615-.807a12.291,12.291,0,0,0,4.573-3.931,14.161,14.161,0,0,0,2.051-5.045h-5.879V29.7H166a18.785,18.785,0,0,1-1.846,5.359,31.446,31.446,0,0,1,3.261,4.7l-1.032.656A25.126,25.126,0,0,0,163.6,35.994Zm9.543-.15-4.279.588-.157-.923L173,34.921l-.451-2.522-3.527.465-.15-.93,3.514-.458-.451-2.55,1.053-.171.444,2.577L177,30.874l.144.923-3.541.458.431,2.509,3.7-.506.137.923-3.664.506.827,4.7-1.039.185ZM185.4,38.838a10.457,10.457,0,0,0,3.637-4.812l.718.937a12.739,12.739,0,0,1-4.819,5.489l-.6-.314V29.247H185.4Zm-2.98-9.5q0,3.979-.137,5.742a10.742,10.742,0,0,1-.4,2.352,6.553,6.553,0,0,1-2.044,3.015l-.813-.636a5.191,5.191,0,0,0,1.907-2.782,13.31,13.31,0,0,0,.349-2.878q.068-1.552.068-4.812Zm12.052,7.089.957.082a5.458,5.458,0,0,0-.157,1.258,1.054,1.054,0,0,0,.444.978,3.167,3.167,0,0,0,1.545.273,25.984,25.984,0,0,0,2.769-.144l.027,1.012q-1.025.082-2.659.082a4.349,4.349,0,0,1-2.44-.492,1.783,1.783,0,0,1-.636-1.552A7.219,7.219,0,0,1,194.476,36.432Zm.28-4.676V30.8q1.75-.137,3.541-.137.889,0,1.668.041v.95q-.725-.055-1.764-.055Q196.41,31.6,194.756,31.756Zm-1.511-2.413a36.343,36.343,0,0,0-.786,6.61,24.83,24.83,0,0,0,.342,4.382l-1,.082a28.85,28.85,0,0,1-.321-4.491,40.269,40.269,0,0,1,.772-6.665Zm18.84,11.4q0,.109-.123.109H211.3a.1.1,0,0,1-.109-.109v-.574h-6.214v.643q0,.1-.109.1h-.677q-.109,0-.109-.1l.027-2.434V37.245l-.027-1.572a.1.1,0,0,1,.109-.109l1.935.027h3.917l1.921-.027q.123,0,.123.109l-.027,1.374v1.285Zm-.9-1.333V36.35h-6.214v3.063Zm3.541-5.824a2.1,2.1,0,0,0-.39.561q-.1.226-.185.226a.5.5,0,0,1-.219-.082,13.359,13.359,0,0,1-5.927-4.819,15.255,15.255,0,0,1-5.694,4.9.781.781,0,0,1-.212.082q-.062,0-.185-.2a1.858,1.858,0,0,0-.431-.5,12.624,12.624,0,0,0,5.742-4.737,3.549,3.549,0,0,0,.39-.793q.526.082.868.164.2.062.2.157a.208.208,0,0,1-.1.164l-.123.116A13.2,13.2,0,0,0,214.73,33.588Zm-3.794.1a.1.1,0,0,1-.109.109l-1.641-.027h-2.235l-1.641.027a.1.1,0,0,1-.109-.109v-.608a.1.1,0,0,1,.109-.109l1.641.027h2.235l1.641-.027a.1.1,0,0,1,.109.109Zm8.374-4.977q-.062,1.073-.1,2.188l.444-.027.144.513q-.506.9-.649,1.237l-.014.191-.109.506.239-.417A4.712,4.712,0,0,1,222.77,31a2.9,2.9,0,0,1,2.755,1.668,5.864,5.864,0,0,1,.588,2.728q0,4.238-4.368,4.833l-.458-.827a4.592,4.592,0,0,0,2.96-1.347,4,4,0,0,0,.82-2.687,4.4,4.4,0,0,0-.711-2.591,1.942,1.942,0,0,0-1.641-.923,3.126,3.126,0,0,0-1.818.567,9.108,9.108,0,0,0-1.757,1.743q-.014.786-.014,2.7,0,2.687.014,3.739h-.964q0-3.179.041-4.771l.089-.9-.342.766q-.1.2-1.408,2.646l-.745-.67q1.169-2.126,2.42-4.225l.027-1.627q-.144.014-.54.062-.909.1-1.613.191l-.068-.827q.971-.082,2.235-.226.014-.752.062-2.311Zm15.647,4.129q-1.989.089-3.931.212-.041,1.723-.041,3.083a15.212,15.212,0,0,0,.109,2.488,1.01,1.01,0,0,0,.745.67,6.091,6.091,0,0,0,1.675.171,32.991,32.991,0,0,0,3.363-.164v.978q-1.743.1-3.336.1a6.145,6.145,0,0,1-2.536-.383,1.543,1.543,0,0,1-.848-1.019,14.346,14.346,0,0,1-.13-2.611q0-.854.034-3.24-1.456.116-2.2.185V32.4l1.2-.082q.643-.041,1.019-.075.027-.984.055-3.008h.978q-.062,2.3-.068,2.953,2.687-.144,3.931-.191.027-1.08,0-3.24h.984q0,1.579-.041,3.192.355-.014,1.128-.034.656-.021,1.012-.034v.9l-2.153.041q-.048,1.675-.171,2.912-.13,1.36-1.271,1.36a4.812,4.812,0,0,1-1.907-.376V35.687a3.665,3.665,0,0,0,1.668.41q.492,0,.574-.7Q234.917,34.319,234.958,32.843Zm13.651-3.1.027.964a5.312,5.312,0,0,0-2.311.629,5.934,5.934,0,0,0-2.071,1.962,4.817,4.817,0,0,0-.813,2.659,2.958,2.958,0,0,0,1.285,2.529,6.17,6.17,0,0,0,2.933,1l-.239,1a6.1,6.1,0,0,1-3.63-1.381,3.89,3.89,0,0,1-1.312-3.049,5.709,5.709,0,0,1,2.994-5.024l.759-.335-.014-.027-.656.109q-1.189.068-5.66.479l-.082-.923Q241.821,30.177,248.609,29.739Zm5.9,5.346a27.762,27.762,0,0,0-3.192-2.81l.684-.649a35.425,35.425,0,0,1,2.98,2.522,19.8,19.8,0,0,0,1.49-4.874l1.087.226a22.439,22.439,0,0,1-1.777,5.435,21.946,21.946,0,0,1,2.536,3.158l-.868.718a22.086,22.086,0,0,0-2.187-2.912,12.72,12.72,0,0,1-4.676,4.7l-.7-.7A12,12,0,0,0,254.509,35.085Zm6.563-4.662h6.959v.984h-6.959Zm-.923,8.08h8.723v.978h-8.723Zm16.03.492h2.071V39.9h-7.978V39h4.847l.526-6.152h-4.252v-.909h5.4Zm3.288-4.737h7.615V35.3h-7.615Zm16.427-3.274a3.552,3.552,0,0,1,.362-.014,2.4,2.4,0,0,1,2.023.93,2.83,2.83,0,0,1,.554,1.771,2.543,2.543,0,0,1-.978,2.194,3.92,3.92,0,0,1-2.358.622q-.349,0-.882-.027l-.15-.95q.759.055,1.148.055,2.181,0,2.181-1.853a1.982,1.982,0,0,0-.567-1.538,1.546,1.546,0,0,0-1.066-.39,14.2,14.2,0,0,0-4.074.95q1.012,3.794,1.859,7.731l-1,.205q-.813-3.931-1.791-7.615-.82.28-2.146.786l-.349-.868q1.914-.649,2.256-.759-.267-.978-.827-2.939l.964-.253.438,1.559q.226.793.376,1.326a23.041,23.041,0,0,1,2.98-.827,19.411,19.411,0,0,0-1.019-2.058l.9-.335A20.619,20.619,0,0,1,295.894,30.983Zm16.55,9.365q0,.109-.116.109l-1.887-.027h-7.588l-1.894.027a.1.1,0,0,1-.109-.109V39.74a.1.1,0,0,1,.109-.109l1.894.027h3.261V36h-2.789l-1.928.027q-.116,0-.116-.109v-.595q0-.109.116-.109l1.928.027h2.789v-1.75h-.854l-1.75.014q-.109,0-.109-.1v-.588a.1.1,0,0,1,.109-.109l1.75.027h2.755l1.771-.027a.1.1,0,0,1,.109.109V33.4q0,.1-.109.1l-1.771-.014h-1.032v1.75h3.035l1.935-.027a.1.1,0,0,1,.109.109v.595a.081.081,0,0,1-.109.109L310.017,36h-3.035v3.657h3.459l1.887-.027q.116,0,.116.109ZM313.312,33a1.6,1.6,0,0,0-.41.547q-.116.212-.185.212a1.126,1.126,0,0,1-.219-.068,13.179,13.179,0,0,1-5.913-4.3,14.409,14.409,0,0,1-5.708,4.437.7.7,0,0,1-.2.062q-.068,0-.191-.191a1.314,1.314,0,0,0-.451-.431,13.147,13.147,0,0,0,5.77-4.286,3.041,3.041,0,0,0,.4-.779,4.172,4.172,0,0,1,.9.191q.2.068.2.185,0,.068-.1.123a.379.379,0,0,0-.13.089,11.238,11.238,0,0,0,3.049,2.769A15.984,15.984,0,0,0,313.312,33Zm-2.762,3.992q0,.068-.137.178a1.049,1.049,0,0,0-.226.342,13.259,13.259,0,0,1-1,1.675q-.116.144-.164.144a.433.433,0,0,1-.2-.1,1.184,1.184,0,0,0-.472-.226,9.909,9.909,0,0,0,1.1-1.88,3.2,3.2,0,0,0,.212-.615,4.029,4.029,0,0,1,.711.294Q310.55,36.91,310.55,36.992Zm-5.934,1.647a.268.268,0,0,1,.021.089q0,.062-.137.123l-.431.212a.833.833,0,0,1-.185.075q-.041,0-.068-.089a8.836,8.836,0,0,0-1-2,.133.133,0,0,1-.027-.068q0-.048.157-.13l.376-.164a.631.631,0,0,1,.157-.062q.048,0,.1.075A9.841,9.841,0,0,1,304.616,38.64Zm22.3-8.935q0,.116-.1.116l-1.791-.027h-1.107a11.3,11.3,0,0,1-.547,1.4h1.094l1.552-.034q.116,0,.116.109l-.027,1.647v3.6l.027,1.654q0,.109-.116.109l-1.552-.027h-1.736l-1.552.027a.1.1,0,0,1-.109-.109l.027-1.654V32.945l-.027-1.675a.1.1,0,0,1,.109-.109l1.36.034a10.654,10.654,0,0,0,.513-1.4h-.629l-1.791.027q-.109,0-.109-.116v-.574a.1.1,0,0,1,.109-.109l1.791.027h2.6l1.791-.027q.1,0,.1.109Zm-1.593,7.834V36.021h-3.438v1.518Zm0-4.245v-1.4h-3.438v1.4Zm0,2.071v-1.4h-3.438v1.4Zm-4.594.547a1.656,1.656,0,0,0-.335.492q-.1.226-.2.226a.52.52,0,0,1-.164-.048,11.147,11.147,0,0,1-2.365-1.408,10.429,10.429,0,0,1-1.606,1.189h2.1l1.271-.027q.116,0,.116.109l-.034.95v.854l.034,1.8q0,.109-.116.109h-.561a.1.1,0,0,1-.109-.109v-.28h-2.406v.772q0,.123-.116.123h-.574q-.1,0-.1-.123l.027-2.058v-.827l-.014-1.032q-.492.26-.772.39a.532.532,0,0,1-.191.068q-.089,0-.171-.2a1.2,1.2,0,0,0-.308-.4,9.136,9.136,0,0,0,3.008-1.791,6.977,6.977,0,0,1-1.019-1.312,9.29,9.29,0,0,1-1.012,1.019q-.164.144-.219.144t-.157-.157a1.062,1.062,0,0,0-.349-.349,6.462,6.462,0,0,0,2.085-2.42,2.621,2.621,0,0,0,.2-.622q.39.1.684.2.144.048.144.13,0,.062-.1.137a2.35,2.35,0,0,0-.212.308l-.137.267h1.7a.531.531,0,0,0,.232-.041.39.39,0,0,1,.13-.027.707.707,0,0,1,.39.239q.2.212.2.321,0,.089-.116.15a.905.905,0,0,0-.28.321,10.782,10.782,0,0,1-1.128,1.654A8.169,8.169,0,0,0,320.729,35.912Zm-1.969,3.22V37.02h-2.406v2.112Zm-.075-6.467h-2.023l-.13.185a5.725,5.725,0,0,0,1.107,1.367A7.4,7.4,0,0,0,318.685,32.665Zm1.675-.67q0,.109-.13.109H319.7a.1.1,0,0,1-.109-.109V30.662h-4.074V32q0,.109-.116.109h-.547A.1.1,0,0,1,314.74,32l.027-1.094v-.308l-.027-.52a.1.1,0,0,1,.109-.109l1.641.027h.615v-.383a5.964,5.964,0,0,0-.1-1.23q.308.014.882.068.185.027.185.13a.823.823,0,0,1-.1.253,2.676,2.676,0,0,0-.068.779v.383h.7l1.627-.027q.13,0,.13.109l-.034.465V30.9Zm2.529,7.178q0,.075-.13.13a1.916,1.916,0,0,0-.335.226A9.052,9.052,0,0,1,320.031,41a.579.579,0,0,1-.212.055q-.075,0-.212-.212a1.194,1.194,0,0,0-.362-.376,7.776,7.776,0,0,0,2.522-1.388,2.151,2.151,0,0,0,.39-.479,3.972,3.972,0,0,1,.615.41Q322.889,39.1,322.889,39.173Zm4.293,1.066a1.369,1.369,0,0,0-.362.444q-.1.2-.185.2a.75.75,0,0,1-.219-.068,9.189,9.189,0,0,1-2.311-1.654.149.149,0,0,1-.055-.089q0-.048.123-.15l.294-.253a.219.219,0,0,1,.116-.062.183.183,0,0,1,.1.048A7.174,7.174,0,0,0,327.182,40.239ZM6.508,60.618v2.769H5.571V61.049q-.321.164-.663.355-1.791,1.012-1.791,2.03a.927.927,0,0,0,.629.943,6.4,6.4,0,0,0,2.078.232q1.47,0,3.411-.171l.041.95q-2.55.13-3.384.13a5.879,5.879,0,0,1-2.967-.513,1.772,1.772,0,0,1-.7-1.6,3.066,3.066,0,0,1,1.88-2.55q.711-.4,1.456-.772-.068-1.312-.909-1.312-1.176,0-3.227,2.365L.7,60.5a16.348,16.348,0,0,0,2.9-4.136q-1.278.021-2.563,0V55.5q1.477.027,2.953,0a12.51,12.51,0,0,0,.629-1.873l1.012.185a14.377,14.377,0,0,1-.588,1.647q1.969-.062,3.739-.239l.027.854q-2.3.185-4.143.239a14.3,14.3,0,0,1-1.176,1.989l-.355.362.041.055a2.492,2.492,0,0,1,1.668-.711,1.521,1.521,0,0,1,1.114.424,1.982,1.982,0,0,1,.526,1.217q1.094-.5,2.844-1.237l.39.957Q7.438,60.208,6.508,60.618Zm10.958-7.144.718-.273a18.274,18.274,0,0,1,1.032,2.365l-.752.308A14.312,14.312,0,0,0,17.466,53.475Zm-5.387,7.267.909.28a3.153,3.153,0,0,0-.533,1.825q0,1.593,2.871,1.593a31.8,31.8,0,0,0,3.555-.2l.014,1.053q-1.641.109-3.582.109a5.244,5.244,0,0,1-2.871-.622,2.206,2.206,0,0,1-.95-1.962A3.852,3.852,0,0,1,12.079,60.741ZM18.97,53l.7-.253a11.327,11.327,0,0,1,.991,2.3l-.725.294A13.488,13.488,0,0,0,18.97,53Zm-6.706,1.818q.868.041,2.5.041.718,0,2.481-.082l.52,1.258a22.684,22.684,0,0,0-2.83,1.866l-.629-.7q.3-.212,2.406-1.524a18.642,18.642,0,0,1-2.256.109q-.854,0-2.194-.055Zm19.8,10.938q0,.1-.109.1h-.663q-.109,0-.109-.1v-.786H24.247v.8q0,.1-.109.1h-.663q-.109,0-.109-.1l.027-4.437V58.745l-.027-3.35a.1.1,0,0,1,.109-.109l1.962.027h.827a12.481,12.481,0,0,0,.561-1.483,3.218,3.218,0,0,0,.1-.615q.41.055.9.164.171.048.171.157a.228.228,0,0,1-.082.15,1.128,1.128,0,0,0-.212.355q-.308.82-.533,1.271h2.83l1.962-.027a.1.1,0,0,1,.109.109l-.027,3.028v2.9Zm-.882-1.586V61.842H24.247v2.331Zm0-3.1v-2.1H24.247v2.1Zm0-2.871V56.113H24.247V58.2Zm16.577.321q0,.089-.15.164a1.564,1.564,0,0,0-.41.362,17.276,17.276,0,0,1-1.989,2.105v1.565l.027,1.777a1.217,1.217,0,0,1-.321.957,1.6,1.6,0,0,1-.82.273,12.271,12.271,0,0,1-1.292.048.507.507,0,0,1-.267-.041.47.47,0,0,1-.089-.226,1.708,1.708,0,0,0-.246-.615q.759.068,1.524.068a.58.58,0,0,0,.656-.656V61.835A26.363,26.363,0,0,1,36.565,65.7a1,1,0,0,1-.219.048q-.089,0-.212-.219a1.434,1.434,0,0,0-.39-.437,25.985,25.985,0,0,0,8.128-3.767q-3.384.533-6.706.854a2.083,2.083,0,0,0-.588.116.952.952,0,0,1-.205.068q-.1,0-.144-.123a7.7,7.7,0,0,1-.2-.834q.711,0,1.518-.055.068,0,.212-.007.3-.014.458-.034v-4.58l-.027-1.688a.1.1,0,0,1,.109-.109l1.839.027h.191a7.432,7.432,0,0,0,.506-.923,2.881,2.881,0,0,0,.253-.8,6.1,6.1,0,0,1,.861.2q.171.048.171.15a.2.2,0,0,1-.109.171.659.659,0,0,0-.226.267q-.246.472-.526.937h2.023l1.839-.027a.1.1,0,0,1,.109.109l-.027,1.859v3.3a12.219,12.219,0,0,0,1.429-1.675,3.505,3.505,0,0,0,.376-.663,4.719,4.719,0,0,1,.615.438A.3.3,0,0,1,47.756,58.52ZM44.379,60.6V59.579H39.033v1.668Q41.467,61.042,44.379,60.6Zm0-1.709V57.617H39.033V58.9Zm0-1.962V55.676H39.033v1.258Zm12.024.909.718-.273a18.274,18.274,0,0,1,1.032,2.365l-.752.308A15.123,15.123,0,0,0,56.4,57.843Zm1.586-.472.7-.253a11.566,11.566,0,0,1,1,2.3l-.731.294A13.487,13.487,0,0,0,57.989,57.371Zm.39-2.632.027.964a5.312,5.312,0,0,0-2.311.629,5.934,5.934,0,0,0-2.071,1.962,4.817,4.817,0,0,0-.813,2.659A2.958,2.958,0,0,0,54.5,63.482a6.17,6.17,0,0,0,2.933,1l-.239,1A6.1,6.1,0,0,1,53.56,64.1a3.89,3.89,0,0,1-1.312-3.049,5.709,5.709,0,0,1,2.994-5.024L56,55.689l-.014-.027-.656.109q-1.189.068-5.66.479l-.082-.923Q51.591,55.177,58.379,54.739Zm14.854,5.674q0,.109-.116.109L71.148,60.5H68.626a7.7,7.7,0,0,0,1.9,2.878,9.869,9.869,0,0,0,2.68,1.839,1.829,1.829,0,0,0-.424.561q-.123.212-.178.212a.678.678,0,0,1-.226-.109,9.26,9.26,0,0,1-4.3-4.915A7.554,7.554,0,0,1,64.2,65.943a.552.552,0,0,1-.212.082q-.062,0-.212-.2a1.768,1.768,0,0,0-.458-.444,8.55,8.55,0,0,0,2.769-2.105,6.622,6.622,0,0,0,1.2-2.434l.082-.349H66.117l-1.989.027a.1.1,0,0,1-.109-.109v-.581q0-.123.109-.123l1.989.027h1.4a27.338,27.338,0,0,0,.185-2.885h-.984l-1.8.027a.1.1,0,0,1-.109-.109v-.608a.1.1,0,0,1,.109-.109l1.8.027h1V54.972a9.736,9.736,0,0,0-.1-1.565,8.167,8.167,0,0,1,.923.082q.185.041.185.144a1.25,1.25,0,0,1-.082.28,3.188,3.188,0,0,0-.089.978v1.189h1.36l1.853-.027a.1.1,0,0,1,.109.109l-.027,1.224v2.352l1.271-.027q.116,0,.116.123Zm-2.215-.677V56.852H68.537a25.042,25.042,0,0,1-.205,2.885Zm-7.4,2.1q-.554,1.538-1.347,3.261a4.508,4.508,0,0,0-.253.615q-.048.171-.137.171a.432.432,0,0,1-.212-.082,6.2,6.2,0,0,1-.643-.479,5.858,5.858,0,0,0,.745-1.148,30.623,30.623,0,0,0,1.271-3.192,2.425,2.425,0,0,0,.438.424q.191.144.191.226A.844.844,0,0,1,63.615,61.835Zm.492-6.562a.149.149,0,0,1,.055.089.315.315,0,0,1-.082.144l-.314.4q-.089.116-.13.116a.11.11,0,0,1-.075-.048,10.593,10.593,0,0,0-1.887-1.627q-.075-.048-.075-.082a.284.284,0,0,1,.082-.137l.294-.335q.1-.1.137-.1a.168.168,0,0,1,.075.027A10.085,10.085,0,0,1,64.107,55.272Zm-.786,3.4a.137.137,0,0,1,.041.075.423.423,0,0,1-.082.164l-.294.39q-.082.109-.123.109a.168.168,0,0,1-.1-.062,9.534,9.534,0,0,0-1.887-1.531q-.068-.034-.068-.068a.389.389,0,0,1,.1-.15l.267-.342q.075-.089.116-.089a.183.183,0,0,1,.089.034A10.079,10.079,0,0,1,63.321,58.67ZM86.885,64.6a2.535,2.535,0,0,0-.2.588.528.528,0,0,1-.1.26.43.43,0,0,1-.239.048q-.9.027-1.319.027-4.074-.007-5.6-.772a3.3,3.3,0,0,1-1.162-.957,6.411,6.411,0,0,1-.588-.971,7.278,7.278,0,0,1-2.058,2.816.644.644,0,0,1-.2.137q-.048,0-.191-.171a1.354,1.354,0,0,0-.479-.376,6.686,6.686,0,0,0,2.7-4.874,4.6,4.6,0,0,0,.048-.595q0-.089-.007-.185.362.048.813.15.212.055.212.157a.6.6,0,0,1-.1.219.746.746,0,0,0-.144.349,12.683,12.683,0,0,1-.308,1.429,4.633,4.633,0,0,0,1,1.593,3.732,3.732,0,0,0,1.572.82V58.355H79.044l-1.921.027q-.123,0-.123-.109v-.595q0-.109.123-.109l1.921.027h3.89l1.921-.027a.1.1,0,0,1,.109.109v.595a.1.1,0,0,1-.109.109l-1.921-.027H81.4V60.7H83.48l1.374-.027a.1.1,0,0,1,.109.109v.595a.1.1,0,0,1-.109.109l-1.374-.027H81.4V64.48a21.3,21.3,0,0,0,3.165.185Q85.5,64.665,86.885,64.6Zm-.253-6.891a.1.1,0,0,1-.116.116h-.643q-.109,0-.109-.116V55.778h-9.55v1.928a.1.1,0,0,1-.116.116h-.643q-.109,0-.109-.116l.027-1.436v-.437l-.027-.745q0-.1.109-.1l1.935.027h3.021v-.2a7.092,7.092,0,0,0-.1-1.429,8.839,8.839,0,0,1,.909.075q.171.021.171.109a.816.816,0,0,1-.089.253,4.573,4.573,0,0,0-.055.991v.2h3.322l1.941-.027q.116,0,.116.1l-.027.649v.533Zm3.124-3.739H90.8q-.239,7.191-.239,8.668a2.136,2.136,0,0,0,.458,1.579,2.222,2.222,0,0,0,1.545.424,3.218,3.218,0,0,0,2.44-.943,5.471,5.471,0,0,0,1.217-2.673l.95.479q-.93,4.074-4.58,4.074a3.2,3.2,0,0,1-2.4-.718,3.1,3.1,0,0,1-.608-2.153q0-.766.062-3.753Q89.729,55.334,89.756,53.967Zm17.623.772.027.964a5.312,5.312,0,0,0-2.311.629,5.934,5.934,0,0,0-2.071,1.962,4.817,4.817,0,0,0-.813,2.659,2.958,2.958,0,0,0,1.285,2.529,6.17,6.17,0,0,0,2.933,1l-.239,1a6.1,6.1,0,0,1-3.63-1.381,3.89,3.89,0,0,1-1.312-3.049,5.709,5.709,0,0,1,2.994-5.024l.759-.335-.014-.027-.656.109q-1.189.068-5.66.479l-.082-.923Q100.591,55.177,107.379,54.739Zm6,6.549.854.615q-.677,3.377-2.27,3.377a1.651,1.651,0,0,1-1.538-1.019,9.207,9.207,0,0,1-.718-3.227q-.109-1.312-.109-3.541l.014-2.632h1.012L110.6,57.05q0,2.646.116,3.9.267,3.22,1.217,3.22.485,0,.813-.711A11.913,11.913,0,0,0,113.374,61.288Zm2.1-5.346.909-.267a17.059,17.059,0,0,1,2.427,7.574l-1.053.171A17.589,17.589,0,0,0,115.473,55.942Zm7.444,1q-1.155.062-2.365.062v-.882q1.4,0,2.509-.062.191-1.422.267-2.447l1.032.1q-.109,1.025-.321,2.311,1.36-.089,3.1-.239l.014.882q-1.429.15-3.254.239a53.168,53.168,0,0,1-2.208,8.524l-.978-.335A47.881,47.881,0,0,0,122.917,56.947Zm1.709,5.38.868.068a3.679,3.679,0,0,0-.082.786,1.075,1.075,0,0,0,.513,1.08,4.218,4.218,0,0,0,1.559.191,16.52,16.52,0,0,0,2.167-.109l.055.964q-.834.082-2.044.082a4.645,4.645,0,0,1-2.5-.472,1.737,1.737,0,0,1-.636-1.531A5.222,5.222,0,0,1,124.626,62.327Zm.711-2.994V58.4a40.055,40.055,0,0,1,4.259-.191v.9A32.162,32.162,0,0,0,125.337,59.333Zm8.716-3.268q.191-1.422.267-2.447l1.032.1q-.109,1.025-.321,2.311,1.36-.089,3.1-.239l.014.882q-1.429.15-3.254.239a53.168,53.168,0,0,1-2.208,8.524L131.7,65.1a47.881,47.881,0,0,0,2.208-8.148q-1.155.062-2.365.062v-.882Q132.945,56.127,134.053,56.065Zm4.088-2.488.711-.28a18.727,18.727,0,0,1,1.039,2.365l-.759.308A14.486,14.486,0,0,0,138.141,53.577Zm-2.522,8.75.868.068a3.679,3.679,0,0,0-.082.786,1.075,1.075,0,0,0,.513,1.08,4.218,4.218,0,0,0,1.559.191,16.52,16.52,0,0,0,2.167-.109l.055.964q-.834.082-2.044.082a4.645,4.645,0,0,1-2.5-.472,1.737,1.737,0,0,1-.636-1.531A5.222,5.222,0,0,1,135.618,62.327Zm.711-2.994V58.4q1.982-.191,4.259-.191v.9A32.162,32.162,0,0,0,136.329,59.333Zm3.363-6.275.7-.253a11.566,11.566,0,0,1,1,2.3l-.731.294A13.487,13.487,0,0,0,139.692,53.058Zm10.459,3.473q.752-.068,1.723-.2l.041.9q-.772.1-1.764.171.014.725.014,2.126a8.667,8.667,0,0,1-.759,4.279,5.231,5.231,0,0,1-2.372,1.784l-.663-.745a5.251,5.251,0,0,0,1.777-1.1,3.429,3.429,0,0,0,.834-1.647,12.536,12.536,0,0,0,.205-2.6q0-1.34-.014-2.03-2.044.1-3.582.041l-.014-.882q1.8.062,3.6-.041-.027-1.846-.055-2.728h1Q150.124,54.739,150.151,56.53Zm-5.735-2.481q-.273,1.545-.472,3.548-.191,1.907-.191,3.145a17.717,17.717,0,0,0,.506,4.163l-.991.082a22.764,22.764,0,0,1-.492-4.272,37.518,37.518,0,0,1,.26-3.767q.185-1.7.383-2.98Zm13.228,1.545q-.027-1.176-.027-1.853h1v1.812q1.7-.062,3.37-.267v.868q-1.531.185-3.356.253l.041,2.01q1.935-.089,3.247-.26v.868q-1.538.171-3.233.232.014.335.062,1.449.027.745.048,1.2a10.066,10.066,0,0,1,3.726,2.372l-.7.861a9.516,9.516,0,0,0-3.015-2.249v.15a2.184,2.184,0,0,1-2.475,2.468,3.271,3.271,0,0,1-2.017-.5,1.7,1.7,0,0,1-.6-1.436,1.679,1.679,0,0,1,.8-1.449,3.138,3.138,0,0,1,1.832-.5,8.4,8.4,0,0,1,1.47.1q-.048-.848-.1-2.427-1.825.048-3.644,0v-.848q1.7.055,3.63.014-.027-.383-.034-1.087-.014-.663-.027-.943-2.105.041-3.794-.027v-.841Q155.538,55.642,157.644,55.594Zm.171,7.055a5.407,5.407,0,0,0-1.374-.185q-1.832,0-1.832,1.107,0,1.066,1.654,1.066,1.552,0,1.552-1.866ZM170.331,56.5q-.041,1.518,0,3.035a5.324,5.324,0,0,1,.308,1.777,3.687,3.687,0,0,1-1.306,3.069,7.744,7.744,0,0,1-3.274,1.271l-.588-.841a6.334,6.334,0,0,0,3.411-1.381,2.741,2.741,0,0,0,.807-1.88,1.856,1.856,0,0,1-1.8.882,2.2,2.2,0,0,1-1.531-.574,2.3,2.3,0,0,1,.123-3.356,2.469,2.469,0,0,1,1.559-.492,2,2,0,0,1,1.36.39q-.027-1.312-.027-1.873-2.249.034-5.435.239l-.014-.9q2.584-.1,5.435-.171V53.8l1,.014q0,.629-.027,1.859,2.324-.027,3.363-.027v.9Q172.013,56.5,170.331,56.5Zm-2.338,2.3a1.322,1.322,0,0,0-.984.4,1.413,1.413,0,0,0-.39,1.046,1.237,1.237,0,0,0,.444,1,1.288,1.288,0,0,0,.848.294,1.406,1.406,0,0,0,1.1-.41,1.3,1.3,0,0,0,.314-.916Q169.326,58.8,167.993,58.8Zm9.324,3.527a1.915,1.915,0,0,1,1.463.643,1.916,1.916,0,0,1-.144,2.748,1.936,1.936,0,0,1-1.319.5,1.9,1.9,0,0,1-1.463-.643A1.916,1.916,0,0,1,176,62.826,1.936,1.936,0,0,1,177.317,62.327Zm0,.7a1.269,1.269,0,0,0-1.251,1.251,1.253,1.253,0,0,0,2.181.834,1.247,1.247,0,0,0-.93-2.085Zm7.444-4.758.479-.841a28.874,28.874,0,0,1,3.288,1.429l-.52.937A19.993,19.993,0,0,0,184.762,58.267Zm1.258-2.994.52-.827a20.246,20.246,0,0,1,3.192,1.524l-.561.923A17.538,17.538,0,0,0,186.02,55.272Zm7.335.923.971.547a14.6,14.6,0,0,1-1.148,3.151,9.741,9.741,0,0,1-1.47,2.235,10.073,10.073,0,0,1-5.558,2.994l-.574-.882a9.086,9.086,0,0,0,5.318-2.8A11.559,11.559,0,0,0,193.354,56.2Zm7.827,4.8a12.594,12.594,0,0,1-5,4.423l-.615-.807a12.291,12.291,0,0,0,4.573-3.931,14.161,14.161,0,0,0,2.051-5.045h-5.879V54.7h7.26a18.785,18.785,0,0,1-1.846,5.359,31.446,31.446,0,0,1,3.261,4.7l-1.032.656A25.126,25.126,0,0,0,201.182,60.994Zm9.55-2.516h-4.3v-.909h8.887v.909H211.8a22.952,22.952,0,0,1-.137,2.57,5.219,5.219,0,0,1-.335,1.333,6.225,6.225,0,0,1-3.35,3.22l-.7-.786a5.2,5.2,0,0,0,3.049-2.823A11.693,11.693,0,0,0,210.731,58.479Zm-3.473-3.965h7.267v.923h-7.267Zm17.315,8.579a33.151,33.151,0,0,0-1.736-3.691l.9-.4a43.915,43.915,0,0,1,2.741,6.009l-1.019.479q-.267-.82-.547-1.545-4.2.663-7.909,1.08l-.226-1.019q.28-.014.841-.075,1.688-4.881,2.939-9.782l1.08.28q-1.2,4.478-2.926,9.393Q221.771,63.537,224.574,63.093Zm9.42-4.867q0,.116-.109.116l-1.668-.034h-.431a13.192,13.192,0,0,0,2.194,3.015,2.294,2.294,0,0,0-.376.547q-.075.15-.13.15t-.15-.123a12.67,12.67,0,0,1-1.791-3q.007,2.4.062,5.059.014.629.034,1.49.014.41.014.451,0,.116-.109.116h-.7q-.109,0-.109-.116s.009-.369.027-1.094q.089-3.179.1-5.886a17.614,17.614,0,0,1-2.646,4.573q-.1.144-.164.144t-.13-.157a1.588,1.588,0,0,0-.376-.574,15.973,15.973,0,0,0,3.008-4.594h-.978l-1.668.034q-.1,0-.1-.116v-.547q0-.109.1-.109l1.668.027h1.217V55.382q-1.025.294-2.03.492a1.755,1.755,0,0,1-.185.021q-.109,0-.219-.219a1.626,1.626,0,0,0-.342-.417,19.535,19.535,0,0,0,2.625-.608,13.689,13.689,0,0,0,1.688-.622,2.74,2.74,0,0,0,.636-.41,5.662,5.662,0,0,1,.6.492.35.35,0,0,1,.123.239q0,.1-.226.123a2.487,2.487,0,0,0-.6.185q-.52.219-1.244.465V57.6h.615l1.668-.027a.1.1,0,0,1,.109.109Zm5.421-4.327a.853.853,0,0,1-.089.267,5.36,5.36,0,0,0-.068,1.217v6.877l.014,2.112a1.252,1.252,0,0,1-.4,1.094,1.427,1.427,0,0,1-.643.232,11.507,11.507,0,0,1-1.278.048.411.411,0,0,1-.253-.048.8.8,0,0,1-.1-.246,2,2,0,0,0-.294-.649,9.247,9.247,0,0,0,1.388.089.816.816,0,0,0,.574-.144.766.766,0,0,0,.137-.533V55.4a10.854,10.854,0,0,0-.1-1.709,7.705,7.705,0,0,1,.937.089Q239.415,53.8,239.415,53.9Zm-3.391,1.012q0,.014-.068.219a9.266,9.266,0,0,0-.055,1.442v3.808l.027,1.812a.1.1,0,0,1-.109.109h-.663a.1.1,0,0,1-.109-.109l.027-1.812V56.6a12.07,12.07,0,0,0-.1-1.9,8.745,8.745,0,0,1,.909.082Q236.024,54.8,236.024,54.91Zm17.274-.629-.027,2.194v6.214l.014,1.88a1.126,1.126,0,0,1-.41.964,3.382,3.382,0,0,1-1.736.28.484.484,0,0,1-.267-.041.581.581,0,0,1-.082-.239,1.71,1.71,0,0,0-.253-.643q.636.055,1.388.055.492,0,.492-.561V61.432H248.5V63.1l.027,2.317a.1.1,0,0,1-.116.116h-.67q-.109,0-.109-.116l.027-2.317V61.432h-3.753a9.556,9.556,0,0,1-.547,2.557,7.734,7.734,0,0,1-.882,1.613q-.123.171-.164.171t-.2-.144a2.74,2.74,0,0,0-.588-.349,6.672,6.672,0,0,0,1.292-2.646,18.46,18.46,0,0,0,.349-4.061v-2.1l-.027-2.194q0-.116.109-.116l1.989.027h5.947l2-.027A.1.1,0,0,1,253.3,54.281Zm-.882,3.158V54.965H248.5v2.475Zm0,3.233V58.2H248.5v2.475Zm-4.758,0V58.2h-3.637v.376q0,.916-.062,2.1Zm0-3.233V54.965h-3.637v2.475Zm20.323,4.081q0,.109-.116.109l-1.846-.027h-3.541v.937l.027,1.777a1.226,1.226,0,0,1-.362,1,3.645,3.645,0,0,1-1.941.308h-.3a.417.417,0,0,1-.267-.055.532.532,0,0,1-.1-.239,2.218,2.218,0,0,0-.253-.684,14.073,14.073,0,0,0,1.565.082.858.858,0,0,0,.629-.171.709.709,0,0,0,.116-.458V61.6h-3.7l-1.846.027a.1.1,0,0,1-.109-.109v-.649a.1.1,0,0,1,.109-.109l1.846.027h3.7V58.561h-2.434l-1.976.027q-.116,0-.116-.109v-.649q0-.109.116-.109l1.976.027H261.6V55.5q-2.222.328-4.02.485a1.115,1.115,0,0,1-.144.014.16.16,0,0,1-.144-.062,1.3,1.3,0,0,1-.089-.212,1.7,1.7,0,0,0-.294-.533,43.986,43.986,0,0,0,4.648-.506,27.631,27.631,0,0,0,2.994-.67,4.864,4.864,0,0,0,1.08-.451,6.873,6.873,0,0,1,.684.6.271.271,0,0,1,.1.185q0,.123-.185.123a1.741,1.741,0,0,0-.54.1,28.1,28.1,0,0,1-3.206.766v2.406h2.481l1.955-.027q.116,0,.116.109v.649q0,.109-.116.109l-1.955-.027h-2.481v2.229h3.541l1.846-.027q.116,0,.116.109Zm14.533,3.562a1.754,1.754,0,0,0-.417.561q-.1.178-.171.178a.578.578,0,0,1-.2-.109,14.973,14.973,0,0,1-2.632-2.7,9.611,9.611,0,0,1-3.356,2.871.713.713,0,0,1-.226.082q-.075,0-.2-.2a1.343,1.343,0,0,0-.417-.431,8.821,8.821,0,0,0,3.726-3.056,12.549,12.549,0,0,1-1.388-3.808,11.491,11.491,0,0,1-.841,1.388q-.109.15-.164.15t-.2-.15a1.447,1.447,0,0,0-.437-.308,12.133,12.133,0,0,0,2.229-4.881,5.925,5.925,0,0,0,.2-1.265q.472.116.779.226.185.068.185.171a.493.493,0,0,1-.137.232,2.28,2.28,0,0,0-.226.663q-.3,1.08-.465,1.552h2.44l1.538-.027a.1.1,0,0,1,.109.109v.561a.1.1,0,0,1-.109.109l-.15-.007q-.444-.014-.984-.021a11.938,11.938,0,0,1-1.442,5.332A12.987,12.987,0,0,0,282.516,65.082Zm-2.324-8.107h-2.283l-.178.465a13.6,13.6,0,0,0,1.34,4.088A11.811,11.811,0,0,0,280.191,56.975Zm-3.712,4.43a.1.1,0,0,1-.109.109l-.15-.007q-.465-.014-1.025-.021a6.67,6.67,0,0,1-1.107,2.181q.636.376,1.135.731.075.048.075.1t-.089.144l-.239.294q-.116.15-.164.15a.2.2,0,0,1-.1-.055q-.588-.458-1.114-.813a8.175,8.175,0,0,1-3.028,1.627.876.876,0,0,1-.2.041q-.109,0-.219-.212a1.335,1.335,0,0,0-.349-.4,7.513,7.513,0,0,0,3.1-1.456,11.465,11.465,0,0,0-1.374-.67,5.066,5.066,0,0,1-.321.444q-.116.15-.185.15a.753.753,0,0,1-.205-.055l-.267-.109q-.171-.062-.171-.116a.22.22,0,0,1,.048-.1,6.868,6.868,0,0,0,.615-.82q.342-.533.629-1.053l-1.723.027a.1.1,0,0,1-.109-.109v-.492a.1.1,0,0,1,.109-.109l1.777.027H272q.082-.144.226-.451a3.42,3.42,0,0,0,.267-.807,4.592,4.592,0,0,1,.759.219q.137.048.137.144a.236.236,0,0,1-.109.164,2.3,2.3,0,0,0-.342.533l-.1.2h1.75l1.777-.027a.1.1,0,0,1,.109.109Zm-2.085.082h-1.887q-.369.663-.643,1.121a13.154,13.154,0,0,1,1.552.684A4.875,4.875,0,0,0,274.395,61.486Zm1.88-4.621a.1.1,0,0,1-.109.109l-1.75-.027h-.424a6.52,6.52,0,0,0,1.853,1.456,1.517,1.517,0,0,0-.41.424q-.062.109-.137.109a.576.576,0,0,1-.226-.123,8.054,8.054,0,0,1-1.5-1.572q.007.711.048,1.463.034.581.034.629a.1.1,0,0,1-.109.109h-.622a.1.1,0,0,1-.109-.109q0-.068.021-.369.055-.9.062-1.675a8.957,8.957,0,0,1-2.488,2.509.544.544,0,0,1-.239.123q-.055,0-.157-.144a1.4,1.4,0,0,0-.376-.39,8.884,8.884,0,0,0,2.379-1.935,4.762,4.762,0,0,0,.41-.506h-.69l-1.75.027q-.1,0-.1-.109v-.492q0-.123.1-.123l1.75.027h1.121V54.555a5.52,5.52,0,0,0-.1-1.121q.458.021.841.075.15.021.15.137a.735.735,0,0,1-.068.226,2.244,2.244,0,0,0-.068.711v1.7h.8l1.75-.027q.109,0,.109.123Zm-.185-2.522a.177.177,0,0,1-.082.144.95.95,0,0,0-.226.253,8.537,8.537,0,0,1-.711,1.053q-.123.137-.2.137a.429.429,0,0,1-.2-.082,1.146,1.146,0,0,0-.362-.157,9.658,9.658,0,0,0,.827-1.258,1.757,1.757,0,0,0,.178-.52,4.449,4.449,0,0,1,.649.294Q276.09,54.281,276.09,54.343Zm-4.156,1.066a.157.157,0,0,1,.021.062q0,.041-.137.123l-.308.15a.466.466,0,0,1-.157.075q-.048,0-.082-.089a5.729,5.729,0,0,0-.779-1.367.22.22,0,0,1-.048-.1q0-.048.13-.116l.308-.157a.318.318,0,0,1,.116-.041q.034,0,.082.055A5.891,5.891,0,0,1,271.934,55.409Zm17.295,6.077a2.634,2.634,0,0,0-.335.52q-.089.15-.144.15-.021,0-.137-.137a13.057,13.057,0,0,1-1.442-2.55q.007,2.153.062,4.614.014.574.034,1.388.014.383.014.424,0,.1-.109.1h-.649q-.109,0-.109-.1,0-.027.021-1,.068-2.926.089-5.312a18.978,18.978,0,0,1-2.1,4.2q-.1.137-.137.137-.062,0-.144-.171a1.217,1.217,0,0,0-.349-.5,16.365,16.365,0,0,0,2.461-4.464h-.533l-1.511.027q-.109,0-.109-.1v-.54q0-.116.109-.116l1.511.027h.731V55.074a10.573,10.573,0,0,0-.1-1.7q.6.027.868.068.185.027.185.13a.775.775,0,0,1-.1.267,5.361,5.361,0,0,0-.068,1.217v3.021h.267l1.511-.027q.109,0,.109.116v.54q0,.1-.109.1l-1.511-.027h-.157A11.889,11.889,0,0,0,289.229,61.486Zm7.178.055a.157.157,0,0,1,.014.055q0,.041-.109.075-.889.144-1.654.294v1.483l.027,2.42a.1.1,0,0,1-.109.109H293.9a.1.1,0,0,1-.109-.109l.027-2.406V62.129l-2.673.52q-.807.157-1.422.294-.4.082-.41.089a.411.411,0,0,1-.062.007q-.055,0-.068-.109l-.109-.6a.3.3,0,0,1-.007-.055q0-.055.1-.075.027-.007.232-.034.7-.1,1.613-.287l2.8-.561V55.45a14,14,0,0,0-.1-1.914,8.415,8.415,0,0,1,.909.068q.185.027.185.123a.908.908,0,0,1-.068.253,6.659,6.659,0,0,0-.089,1.442v5.729q.943-.191,1.511-.355h.041q.068,0,.089.116Zm-3.958-2.085a.174.174,0,0,1,.055.1q0,.034-.1.13l-.314.335q-.116.123-.157.123t-.075-.055a11.166,11.166,0,0,0-1.948-1.777q-.062-.034-.062-.075t.1-.144l.294-.28q.082-.082.123-.082a.2.2,0,0,1,.089.041A10.692,10.692,0,0,1,292.448,59.456Zm.349-3.117q.055.055.055.082t-.082.123l-.321.335a.665.665,0,0,1-.157.137q-.027,0-.068-.062A9.089,9.089,0,0,0,290.3,55.2q-.055-.041-.055-.068,0-.048.116-.157l.294-.294q.075-.082.109-.082a.166.166,0,0,1,.082.041A9.736,9.736,0,0,1,292.8,56.339Zm-3.322-1.572a.261.261,0,0,1-.1.157.862.862,0,0,0-.185.308,19.322,19.322,0,0,1-.725,1.846q-.082.185-.157.185a.4.4,0,0,1-.178-.082,1.555,1.555,0,0,0-.376-.157,10.545,10.545,0,0,0,.766-2.112,2,2,0,0,0,.089-.547,4.191,4.191,0,0,1,.711.253Q289.475,54.691,289.475,54.767Zm-3.65,2.174a.3.3,0,0,1,.007.055q0,.048-.178.123l-.321.13a.62.62,0,0,1-.157.048q-.041,0-.062-.089a11.033,11.033,0,0,0-.786-2.386.132.132,0,0,1-.027-.062q0-.048.137-.1l.321-.144a.489.489,0,0,1,.144-.048q.034,0,.068.075A12.458,12.458,0,0,1,285.824,56.94Zm20,.485q.021,2.769.123,4.689a7.23,7.23,0,0,1,2.468,1.832l-.677.841a6.685,6.685,0,0,0-1.791-1.634,2.112,2.112,0,0,1-.7,1.764,2.5,2.5,0,0,1-1.647.5q-2.42,0-2.42-1.9a1.583,1.583,0,0,1,.725-1.34,2.691,2.691,0,0,1,1.586-.451,6.841,6.841,0,0,1,1.483.15q-.089-1.873-.116-4.409-1.907.062-3.821.041v-.882q1.7.055,3.808-.014V54.035h1q-.014.841-.014,2.522.875-.048,2.249-.185v.882Q307.07,57.357,305.819,57.426Zm-.854,5.407a4.28,4.28,0,0,0-1.545-.28,1.734,1.734,0,0,0-.964.253.806.806,0,0,0-.4.711q0,1.053,1.511,1.053a1.26,1.26,0,0,0,1.114-.526,1.833,1.833,0,0,0,.287-1.073Zm-4.819-8.668a41.313,41.313,0,0,0-.841,6.87,33.209,33.209,0,0,0,.335,4.341l-.978.089q-.321-3.117-.321-4.457a30.522,30.522,0,0,1,.287-3.685q.226-1.764.526-3.24Zm10.391,8.313a14.946,14.946,0,0,1,1.641,1.531,10.045,10.045,0,0,1,1.169,1.483l-.923.684a11.119,11.119,0,0,0-2.7-3.035Zm21.027-2.064q0,.109-.116.109l-1.969-.027h-2.522a7.7,7.7,0,0,0,1.9,2.878,9.869,9.869,0,0,0,2.68,1.839,1.829,1.829,0,0,0-.424.561q-.123.212-.178.212a.678.678,0,0,1-.226-.109,9.26,9.26,0,0,1-4.3-4.915,7.554,7.554,0,0,1-3.876,4.983.552.552,0,0,1-.212.082q-.062,0-.212-.2a1.767,1.767,0,0,0-.458-.444,8.55,8.55,0,0,0,2.769-2.105,6.622,6.622,0,0,0,1.2-2.434l.082-.349h-1.258l-1.989.027a.1.1,0,0,1-.109-.109v-.581q0-.123.109-.123l1.989.027h1.4a27.334,27.334,0,0,0,.185-2.885h-.984l-1.8.027a.1.1,0,0,1-.109-.109v-.608a.1.1,0,0,1,.109-.109l1.8.027h1V54.972a9.736,9.736,0,0,0-.1-1.565,8.166,8.166,0,0,1,.923.082q.185.041.185.144a1.25,1.25,0,0,1-.082.28,3.188,3.188,0,0,0-.089.978v1.189h1.36l1.853-.027a.1.1,0,0,1,.109.109l-.027,1.224v2.352l1.271-.027q.116,0,.116.123Zm-2.215-.677V56.852h-2.481a25.042,25.042,0,0,1-.205,2.885Zm-7.4,2.1q-.554,1.538-1.347,3.261a4.507,4.507,0,0,0-.253.615q-.048.171-.137.171A.432.432,0,0,1,320,65.8a6.2,6.2,0,0,1-.643-.479,5.858,5.858,0,0,0,.745-1.148,30.628,30.628,0,0,0,1.271-3.192,2.425,2.425,0,0,0,.438.424q.191.144.191.226A.844.844,0,0,1,321.945,61.835Zm.492-6.562a.149.149,0,0,1,.055.089.315.315,0,0,1-.082.144l-.314.4q-.089.116-.13.116a.11.11,0,0,1-.075-.048A10.594,10.594,0,0,0,320,54.343q-.075-.048-.075-.082a.284.284,0,0,1,.082-.137l.294-.335q.1-.1.137-.1a.168.168,0,0,1,.075.027A10.085,10.085,0,0,1,322.438,55.272Zm-.786,3.4a.137.137,0,0,1,.041.075.423.423,0,0,1-.082.164l-.294.39q-.082.109-.123.109a.168.168,0,0,1-.1-.062,9.535,9.535,0,0,0-1.887-1.531q-.068-.034-.068-.068a.389.389,0,0,1,.1-.15l.267-.342q.075-.089.116-.089a.183.183,0,0,1,.089.034A10.078,10.078,0,0,1,321.651,58.67ZM13.48,83.991a2.034,2.034,0,0,0-.321.547q-.1.226-.191.226a1.294,1.294,0,0,1-.191-.027q-.813-.164-1.271-.28v4.635l.027,1.7q0,.116-.109.116h-.649q-.109,0-.109-.116l.027-1.7V88.024H5.975l-.041.137a5.06,5.06,0,0,1-1.75,2.625.578.578,0,0,1-.2.109q-.068,0-.212-.144a1.808,1.808,0,0,0-.533-.376,4.2,4.2,0,0,0,1.921-2.488,8.507,8.507,0,0,0,.294-1.5q.062-.656.068-1.941-.4.1-1.176.232a1.412,1.412,0,0,1-.171.021q-.116,0-.205-.232a1.485,1.485,0,0,0-.308-.5A13.06,13.06,0,0,0,7.752,82.87a6.943,6.943,0,0,1-2.03-2.1q-.588.007-1.032.021l-.226.007H4.389q-.123,0-.123-.109v-.547q0-.109.123-.109l1.962.027H7.991V79.63a6.048,6.048,0,0,0-.1-1.278q.479.021.93.082.164.027.164.116a.905.905,0,0,1-.082.267,2.676,2.676,0,0,0-.068.779v.465H11l1.976-.027a.1.1,0,0,1,.109.109v.547a.1.1,0,0,1-.109.109L11.2,80.771a7.1,7.1,0,0,1-1.935,2.071A15.426,15.426,0,0,0,13.48,83.991Zm-2.789,3.322V85.864H6.3a9.606,9.606,0,0,1-.171,1.449Zm0-2.146V84.23a10.4,10.4,0,0,1-2.187-.9,10.469,10.469,0,0,1-2.167.9q0,.656-.014.937Zm-.437-4.4H6.617a5.89,5.89,0,0,0,1.9,1.682A5.485,5.485,0,0,0,10.254,80.771Zm-6.6,6.036a34.783,34.783,0,0,1-1.456,3.22,2.941,2.941,0,0,0-.28.615q-.021.144-.137.144a.367.367,0,0,1-.2-.082q-.321-.226-.643-.492A5.507,5.507,0,0,0,1.7,89.091a24.812,24.812,0,0,0,1.381-3.138,3.272,3.272,0,0,0,.438.424q.2.15.2.226A.769.769,0,0,1,3.65,86.808Zm.321-6.535a.146.146,0,0,1,.062.1.328.328,0,0,1-.089.157l-.294.362Q3.568,81,3.521,81a.114.114,0,0,1-.075-.041,10.414,10.414,0,0,0-1.88-1.613Q1.5,79.3,1.5,79.268t.1-.144l.28-.321q.1-.116.15-.116a.168.168,0,0,1,.075.027A10.416,10.416,0,0,1,3.972,80.272Zm-.684,3.384a.131.131,0,0,1,.048.082q0,.041-.089.144l-.294.376q-.1.123-.144.123-.027,0-.082-.055A10.127,10.127,0,0,0,.854,82.815q-.062-.034-.062-.068a.339.339,0,0,1,.089-.15l.267-.355q.068-.089.116-.089a.221.221,0,0,1,.089.034A9.829,9.829,0,0,1,3.288,83.656Zm23.5,6.692q0,.109-.116.109l-1.887-.027H17.192l-1.894.027a.1.1,0,0,1-.109-.109V89.74a.1.1,0,0,1,.109-.109l1.894.027h3.261V86H17.664l-1.928.027q-.116,0-.116-.109v-.595q0-.109.116-.109l1.928.027h2.789v-1.75H19.6l-1.75.014q-.109,0-.109-.1v-.588a.1.1,0,0,1,.109-.109l1.75.027h2.755l1.771-.027a.1.1,0,0,1,.109.109V83.4q0,.1-.109.1l-1.771-.014H21.321v1.75h3.035l1.935-.027a.1.1,0,0,1,.109.109v.595a.081.081,0,0,1-.109.109L24.356,86H21.321v3.657H24.78l1.887-.027q.116,0,.116.109ZM27.651,83a1.6,1.6,0,0,0-.41.547q-.116.212-.185.212a1.127,1.127,0,0,1-.219-.068,13.179,13.179,0,0,1-5.913-4.3,14.409,14.409,0,0,1-5.708,4.437.7.7,0,0,1-.2.062q-.068,0-.191-.191a1.314,1.314,0,0,0-.451-.431,13.147,13.147,0,0,0,5.77-4.286,3.042,3.042,0,0,0,.4-.779,4.172,4.172,0,0,1,.9.191q.2.068.2.185,0,.068-.1.123a.379.379,0,0,0-.13.089,11.238,11.238,0,0,0,3.049,2.769A15.984,15.984,0,0,0,27.651,83ZM24.89,86.992q0,.068-.137.178a1.049,1.049,0,0,0-.226.342,13.26,13.26,0,0,1-1,1.675q-.116.144-.164.144a.433.433,0,0,1-.2-.1,1.184,1.184,0,0,0-.472-.226,9.909,9.909,0,0,0,1.1-1.88,3.2,3.2,0,0,0,.212-.615,4.029,4.029,0,0,1,.711.294Q24.89,86.91,24.89,86.992ZM18.956,88.64a.268.268,0,0,1,.021.089q0,.062-.137.123l-.431.212a.832.832,0,0,1-.185.075q-.041,0-.068-.089a8.837,8.837,0,0,0-1-2,.133.133,0,0,1-.027-.068q0-.048.157-.13l.376-.164a.631.631,0,0,1,.157-.062q.048,0,.1.075A9.842,9.842,0,0,1,18.956,88.64Zm22.3-8.935q0,.116-.1.116l-1.791-.027H38.261a11.3,11.3,0,0,1-.547,1.4h1.094l1.552-.034q.116,0,.116.109l-.027,1.647v3.6l.027,1.654q0,.109-.116.109l-1.552-.027H37.071l-1.552.027a.1.1,0,0,1-.109-.109l.027-1.654V82.945l-.027-1.675a.1.1,0,0,1,.109-.109l1.36.034a10.657,10.657,0,0,0,.513-1.4h-.629l-1.791.027q-.109,0-.109-.116v-.574a.1.1,0,0,1,.109-.109l1.791.027h2.6l1.791-.027q.1,0,.1.109Zm-1.593,7.834V86.021H36.224v1.518Zm0-4.245v-1.4H36.224v1.4Zm0,2.071v-1.4H36.224v1.4Zm-4.594.547a1.656,1.656,0,0,0-.335.492q-.1.226-.2.226a.52.52,0,0,1-.164-.048,11.147,11.147,0,0,1-2.365-1.408A10.43,10.43,0,0,1,30.4,86.363h2.1l1.271-.027q.116,0,.116.109l-.034.95v.854l.034,1.8q0,.109-.116.109h-.561a.1.1,0,0,1-.109-.109v-.28H30.693v.772q0,.123-.116.123H30q-.1,0-.1-.123l.027-2.058v-.827l-.014-1.032q-.492.26-.772.39a.533.533,0,0,1-.191.068q-.089,0-.171-.2a1.2,1.2,0,0,0-.308-.4A9.136,9.136,0,0,0,31.486,84.7a6.977,6.977,0,0,1-1.019-1.312A9.291,9.291,0,0,1,29.456,84.4q-.164.144-.219.144t-.157-.157a1.062,1.062,0,0,0-.349-.349,6.462,6.462,0,0,0,2.085-2.42,2.621,2.621,0,0,0,.2-.622q.39.1.684.2.144.048.144.13,0,.062-.1.137a2.35,2.35,0,0,0-.212.308l-.137.267h1.7A.531.531,0,0,0,33.318,82a.39.39,0,0,1,.13-.027.707.707,0,0,1,.39.239q.2.212.2.321,0,.089-.116.15a.905.905,0,0,0-.28.321,10.784,10.784,0,0,1-1.128,1.654A8.169,8.169,0,0,0,35.068,85.912ZM33.1,89.132V87.02H30.693v2.112Zm-.075-6.467H31l-.13.185a5.725,5.725,0,0,0,1.107,1.367A7.4,7.4,0,0,0,33.024,82.665ZM34.7,82q0,.109-.13.109h-.533A.1.1,0,0,1,33.927,82V80.662H29.853V82q0,.109-.116.109h-.547A.1.1,0,0,1,29.08,82l.027-1.094v-.308l-.027-.52a.1.1,0,0,1,.109-.109l1.641.027h.615v-.383a5.964,5.964,0,0,0-.1-1.23q.308.014.882.068.185.027.185.13a.823.823,0,0,1-.1.253,2.676,2.676,0,0,0-.068.779v.383h.7l1.627-.027q.13,0,.13.109l-.034.465V80.9Zm2.529,7.178q0,.075-.13.13a1.916,1.916,0,0,0-.335.226A9.052,9.052,0,0,1,34.371,91a.578.578,0,0,1-.212.055q-.075,0-.212-.212a1.194,1.194,0,0,0-.362-.376,7.775,7.775,0,0,0,2.522-1.388,2.151,2.151,0,0,0,.39-.479,3.972,3.972,0,0,1,.615.41Q37.229,89.1,37.229,89.173Zm4.293,1.066a1.369,1.369,0,0,0-.362.444q-.1.2-.185.2a.75.75,0,0,1-.219-.068,9.189,9.189,0,0,1-2.311-1.654.149.149,0,0,1-.055-.089q0-.048.123-.15l.294-.253a.219.219,0,0,1,.116-.062.183.183,0,0,1,.1.048A7.174,7.174,0,0,0,41.521,90.239ZM48.4,80.847a22.039,22.039,0,0,1-1.483,7.362,2.1,2.1,0,0,1-1.894,1.483,1.749,1.749,0,0,1-1.606-1.06,6,6,0,0,1-.533-2.789,7.335,7.335,0,0,1,.458-2.618A5.114,5.114,0,0,1,44.379,81.5a4.675,4.675,0,0,1,1.716-1.128,5.426,5.426,0,0,1,1.969-.369,4.139,4.139,0,0,1,3.555,1.5,6.371,6.371,0,0,1,.964,3.808,5.114,5.114,0,0,1-1.121,3.4,5.6,5.6,0,0,1-3.274,1.784l-.485-.841a4.243,4.243,0,0,0,3.835-4.607,4.671,4.671,0,0,0-1.032-3.3A2.809,2.809,0,0,0,48.4,80.847Zm-1.053.109a3.075,3.075,0,0,0-1.292.4,4.459,4.459,0,0,0-1.06.93,5.252,5.252,0,0,0-1.148,3.582A4.6,4.6,0,0,0,44.256,88q.328.615.752.615a.82.82,0,0,0,.622-.26,2.544,2.544,0,0,0,.444-.759A19.819,19.819,0,0,0,47.346,80.956ZM58.7,82.768a2.027,2.027,0,0,0-.14-.786,1.522,1.522,0,0,0-.954-.889,2.235,2.235,0,0,0-.711-.109,2.352,2.352,0,0,0-.643.089,3.123,3.123,0,0,0-.612.246,3.764,3.764,0,0,0-.574.376,4.148,4.148,0,0,0-.516.485v-1.2a3.352,3.352,0,0,1,1.056-.7,3.719,3.719,0,0,1,1.425-.243,3.441,3.441,0,0,1,1.114.174,2.555,2.555,0,0,1,.889.509,2.354,2.354,0,0,1,.591.827,2.79,2.79,0,0,1,.215,1.128,3.868,3.868,0,0,1-.133,1.053,3.256,3.256,0,0,1-.4.889,4.288,4.288,0,0,1-.68.8,9.634,9.634,0,0,1-.964.779q-.69.492-1.138.841a5.032,5.032,0,0,0-.711.653,1.894,1.894,0,0,0-.369.608,2.127,2.127,0,0,0-.106.7h4.881v1h-6.05v-.485a4.045,4.045,0,0,1,.137-1.107,2.876,2.876,0,0,1,.451-.909,5.046,5.046,0,0,1,.824-.861q.509-.431,1.248-.971a7.887,7.887,0,0,0,.892-.731,3.8,3.8,0,0,0,.578-.7,2.5,2.5,0,0,0,.311-.708A3.051,3.051,0,0,0,58.7,82.768Zm9.242,2.29a9.63,9.63,0,0,1-.222,2.181,5.081,5.081,0,0,1-.643,1.6,2.892,2.892,0,0,1-1.032.991,2.826,2.826,0,0,1-1.391.338,2.639,2.639,0,0,1-1.316-.325,2.758,2.758,0,0,1-.974-.947,4.8,4.8,0,0,1-.6-1.528,9.447,9.447,0,0,1-.205-2.075,10.694,10.694,0,0,1,.215-2.27,5.191,5.191,0,0,1,.632-1.651,2.814,2.814,0,0,1,1.036-1,2.908,2.908,0,0,1,1.418-.338Q67.942,80.033,67.942,85.058Zm-1.148.109q0-4.184-1.989-4.184-2.1,0-2.1,4.259,0,3.972,2.058,3.972Q66.794,89.214,66.794,85.167Zm5.906-1.8a6.43,6.43,0,0,1,2.816.882,12.286,12.286,0,0,0,1.8.841,3.625,3.625,0,0,0,1.148.2,3.87,3.87,0,0,0,2.7-1.429l.451.39A4.424,4.424,0,0,1,78.3,86.138a6.185,6.185,0,0,1-2.81-.909,11.039,11.039,0,0,0-1.777-.841,3.7,3.7,0,0,0-1.176-.2,2.764,2.764,0,0,0-1.326.342,6.744,6.744,0,0,0-1.347,1.046l-.451-.376a6.7,6.7,0,0,1,1.723-1.442A3.314,3.314,0,0,1,72.7,83.362Zm15.094-.595a2.027,2.027,0,0,0-.14-.786,1.522,1.522,0,0,0-.954-.889,2.235,2.235,0,0,0-.711-.109,2.352,2.352,0,0,0-.643.089,3.124,3.124,0,0,0-.612.246,3.764,3.764,0,0,0-.574.376,4.148,4.148,0,0,0-.516.485v-1.2a3.352,3.352,0,0,1,1.056-.7,3.719,3.719,0,0,1,1.425-.243,3.441,3.441,0,0,1,1.114.174,2.555,2.555,0,0,1,.889.509,2.354,2.354,0,0,1,.591.827,2.79,2.79,0,0,1,.215,1.128,3.868,3.868,0,0,1-.133,1.053,3.256,3.256,0,0,1-.4.889,4.288,4.288,0,0,1-.68.8,9.634,9.634,0,0,1-.964.779q-.69.492-1.138.841a5.032,5.032,0,0,0-.711.653,1.9,1.9,0,0,0-.369.608,2.127,2.127,0,0,0-.106.7h4.881v1h-6.05v-.485a4.044,4.044,0,0,1,.137-1.107,2.876,2.876,0,0,1,.451-.909,5.046,5.046,0,0,1,.824-.861q.509-.431,1.248-.971a7.887,7.887,0,0,0,.892-.731,3.8,3.8,0,0,0,.578-.7,2.5,2.5,0,0,0,.311-.708A3.051,3.051,0,0,0,87.794,82.768Zm8.894,4.238a3.3,3.3,0,0,1-.246,1.3,2.84,2.84,0,0,1-.7,1,3.138,3.138,0,0,1-1.1.643,4.291,4.291,0,0,1-1.429.226,3.947,3.947,0,0,1-2.03-.41V88.571a3.733,3.733,0,0,0,2.044.643,2.766,2.766,0,0,0,.96-.157,2.134,2.134,0,0,0,.728-.437,1.873,1.873,0,0,0,.461-.677,2.291,2.291,0,0,0,.161-.868,1.86,1.86,0,0,0-.643-1.5,2.818,2.818,0,0,0-1.866-.543q-.2,0-.417.007t-.437.017q-.219.01-.427.024t-.379.034L91.7,80.2h4.532v1.012H92.675l-.2,2.878q.219-.014.465-.024t.438-.01a4.4,4.4,0,0,1,1.395.205,2.955,2.955,0,0,1,1.042.584,2.451,2.451,0,0,1,.649.93A3.27,3.27,0,0,1,96.688,87.006Zm3.685-1.894a2.066,2.066,0,0,1-1.613-.667,2.557,2.557,0,0,1-.6-1.781,2.747,2.747,0,0,1,.636-1.917,2.2,2.2,0,0,1,1.716-.7,2.06,2.06,0,0,1,1.624.649,2.654,2.654,0,0,1,.578,1.825,2.685,2.685,0,0,1-.646,1.883A2.183,2.183,0,0,1,100.372,85.112Zm.1-4.313a1.23,1.23,0,0,0-1.025.482,2.1,2.1,0,0,0-.376,1.323,2.013,2.013,0,0,0,.369,1.289,1.218,1.218,0,0,0,1,.461,1.19,1.19,0,0,0,1-.479,2.153,2.153,0,0,0,.362-1.326,2.054,2.054,0,0,0-.359-1.289A1.175,1.175,0,0,0,100.468,80.8Zm6.467-.6-6.289,9.871h-.978L105.95,80.2Zm-.725,9.953a2.061,2.061,0,0,1-1.613-.67A2.56,2.56,0,0,1,104,87.7a2.754,2.754,0,0,1,.643-1.924,2.2,2.2,0,0,1,1.709-.708,2.051,2.051,0,0,1,1.62.656,3.121,3.121,0,0,1-.065,3.715A2.183,2.183,0,0,1,106.21,90.15Zm.1-4.307a1.232,1.232,0,0,0-1.029.479,2.11,2.11,0,0,0-.373,1.326,1.989,1.989,0,0,0,.369,1.275,1.218,1.218,0,0,0,1,.461,1.187,1.187,0,0,0,1-.482,2.156,2.156,0,0,0,.362-1.323,2.021,2.021,0,0,0-.359-1.285A1.186,1.186,0,0,0,106.306,85.844Zm10.459-3,.718-.273a18.274,18.274,0,0,1,1.032,2.365l-.752.308A15.123,15.123,0,0,0,116.765,82.843Zm1.586-.472.7-.253a11.566,11.566,0,0,1,1,2.3l-.731.294A13.488,13.488,0,0,0,118.351,82.371Zm.39-2.632.027.964a5.312,5.312,0,0,0-2.311.629,5.934,5.934,0,0,0-2.071,1.962,4.817,4.817,0,0,0-.813,2.659,2.958,2.958,0,0,0,1.285,2.529,6.17,6.17,0,0,0,2.933,1l-.239,1a6.1,6.1,0,0,1-3.63-1.381,3.89,3.89,0,0,1-1.312-3.049,5.709,5.709,0,0,1,2.994-5.024l.759-.335-.014-.027-.656.109q-1.189.068-5.66.479l-.082-.923Q111.952,80.177,118.74,79.739Zm8.777,1.764q-.041,1.518,0,3.035a5.324,5.324,0,0,1,.308,1.777,3.687,3.687,0,0,1-1.306,3.069,7.744,7.744,0,0,1-3.274,1.271l-.588-.841a6.334,6.334,0,0,0,3.411-1.381,2.741,2.741,0,0,0,.807-1.88,1.856,1.856,0,0,1-1.8.882,2.2,2.2,0,0,1-1.531-.574,2.3,2.3,0,0,1,.123-3.356,2.469,2.469,0,0,1,1.559-.492,2,2,0,0,1,1.36.39q-.027-1.312-.027-1.873-2.249.034-5.435.239l-.014-.9q2.584-.1,5.435-.171V78.8l1,.014q0,.629-.027,1.859,2.324-.027,3.363-.027v.9Q129.2,81.5,127.518,81.5Zm-2.338,2.3a1.322,1.322,0,0,0-.984.4,1.413,1.413,0,0,0-.39,1.046,1.237,1.237,0,0,0,.444,1,1.288,1.288,0,0,0,.848.294,1.405,1.405,0,0,0,1.1-.41,1.3,1.3,0,0,0,.314-.916Q126.513,83.8,125.18,83.8Zm9.324,3.527a1.915,1.915,0,0,1,1.463.643,1.916,1.916,0,0,1-.144,2.748,1.936,1.936,0,0,1-1.319.5,1.9,1.9,0,0,1-1.463-.643,1.916,1.916,0,0,1,.144-2.748A1.936,1.936,0,0,1,134.5,87.327Zm0,.7a1.269,1.269,0,0,0-1.251,1.251,1.253,1.253,0,0,0,2.181.834,1.247,1.247,0,0,0-.93-2.085Z"
										transform="translate(-0.643 -3.372)" fill="#5a5858" />
								</svg>