	<svg xmlns="http://www.w3.org/2000/svg" width="202.405" height="13.063"
											viewBox="0 0 202.405 13.063">
											<path id="Контур_1749" data-name="Контур 1749"
												d="M3.1,9.989q-.7,0-2.126-.027v-.9q.588.027,2.215.027l.219-2.283q-1,0-2.352-.027v-.9q1.189.068,2.44.068.048-.424.123-1.155.089-.813.109-1.06l1.012.075q-.048.451-.123,1.169-.082.752-.1.957,1.442-.014,3.767-.157l.014.9Q6.46,6.8,4.423,6.8q-.075.834-.253,2.283,2.235-.027,3.979-.157v.9q-2.16.137-4.061.157a32.724,32.724,0,0,0-.226,3.288,1.408,1.408,0,0,0,.5,1.23,2.723,2.723,0,0,0,1.531.335A3.8,3.8,0,0,0,8.1,14.3a1.511,1.511,0,0,0,.649-1.292,3.093,3.093,0,0,0-.813-2.017l.923-.349A3.489,3.489,0,0,1,9.8,12.956q0,2.816-3.9,2.816a3.309,3.309,0,0,1-2.454-.725,2.532,2.532,0,0,1-.54-1.784Q2.9,12.17,3.1,9.989Zm16.516.882a7.247,7.247,0,0,0-3.35-1.039,23.3,23.3,0,0,1-1.483,3.6Q14,14.863,12.968,14.863q-1.456,0-1.456-2.146A3.452,3.452,0,0,1,12.77,9.955a4.227,4.227,0,0,1,2.721-.978,37.636,37.636,0,0,0,.937-3.705q-2.071.144-3.767.219l-.014-.882q1.757-.027,4.272-.232l.7.554q-.622,2.427-1.107,4.061a8.552,8.552,0,0,1,3.3.916,27.181,27.181,0,0,0,.28-3.4l1,.212a29.281,29.281,0,0,1-.376,3.705,18.321,18.321,0,0,1,1.832,1.4l-.615.909a16.61,16.61,0,0,0-1.442-1.285,7.024,7.024,0,0,1-1.312,2.666,6.053,6.053,0,0,1-2.119,1.572l-.615-.725a5.026,5.026,0,0,0,2.153-1.682A6.894,6.894,0,0,0,19.619,10.871Zm-4.4-1A2.86,2.86,0,0,0,13.2,10.8a2.663,2.663,0,0,0-.766,1.907q0,1.121.561,1.121.451,0,.882-.745A16.772,16.772,0,0,0,15.224,9.873Zm15.709-.766q-1.121.027-3.37.027V8.267q1.955.048,3.356.014,0-1.777.014-2.728-2.317.055-3.247.1V4.794q.848-.021,3.356-.068,1.907-.034,2.857-.055l.014.82q-.731.021-2.03.048-.041,1.36-.041,2.728,1.429-.055,2.1-.1l.014.854q-.342.014-1.087.034-.677.021-1.012.034.041,1.415.13,2.967a7.792,7.792,0,0,1,2.488,1.832l-.629.841A6.323,6.323,0,0,0,32,13.065a2.191,2.191,0,0,1-.731,1.846,2.29,2.29,0,0,1-1.511.492q-2.447,0-2.447-1.777a1.751,1.751,0,0,1,.9-1.586,2.715,2.715,0,0,1,1.429-.383,5.687,5.687,0,0,1,1.395.137Q30.96,10.543,30.933,9.107Zm.13,3.609a3.792,3.792,0,0,0-1.415-.267,1.745,1.745,0,0,0-1.135.335.959.959,0,0,0-.362.772q0,1.025,1.524,1.025,1.388,0,1.388-1.613Zm-5.742-8.7.991.062a39.118,39.118,0,0,0-.656,4.061A28.25,28.25,0,0,0,25.43,11.3a16.464,16.464,0,0,0,.465,4.163l-.964.068a19.793,19.793,0,0,1-.451-4.17A41.332,41.332,0,0,1,25.32,4.021ZM40.729,7.159l.69-.349a18.707,18.707,0,0,1,1.258,2.27l-.731.376A12.74,12.74,0,0,0,40.729,7.159ZM42.2,6.5l.677-.308a11.008,11.008,0,0,1,1.2,2.181l-.7.369A13.251,13.251,0,0,0,42.2,6.5ZM41.125,3.939l.9.615Q39.9,7.009,37.639,9.162a.681.681,0,0,0-.267.479q0,.226.376.513a45.7,45.7,0,0,1,4.9,4.71l-.868.725a50.559,50.559,0,0,0-5.024-5.065,1.118,1.118,0,0,1-.465-.841,1.139,1.139,0,0,1,.362-.827A64.9,64.9,0,0,0,41.125,3.939Zm4.963.027h1.046q-.239,7.191-.239,8.668a2.135,2.135,0,0,0,.458,1.579,2.222,2.222,0,0,0,1.545.424,3.218,3.218,0,0,0,2.44-.943,5.471,5.471,0,0,0,1.217-2.673l.95.479q-.93,4.074-4.58,4.074a3.2,3.2,0,0,1-2.4-.718,3.1,3.1,0,0,1-.608-2.153q0-.766.062-3.753Q46.061,5.334,46.088,3.967ZM57.538,8.52a1.157,1.157,0,0,1,.779,2.017,1.159,1.159,0,1,1-.779-2.017Zm7,0a1.157,1.157,0,0,1,.779,2.017,1.159,1.159,0,1,1-.779-2.017Zm7,0a1.157,1.157,0,0,1,.779,2.017,1.159,1.159,0,1,1-.779-2.017Zm7,0a1.157,1.157,0,0,1,.779,2.017,1.159,1.159,0,1,1-.779-2.017Zm7,0a1.157,1.157,0,0,1,.779,2.017,1.159,1.159,0,1,1-.779-2.017Zm7,0a1.157,1.157,0,0,1,.779,2.017,1.159,1.159,0,1,1-.779-2.017Zm7,0a1.157,1.157,0,0,1,.779,2.017,1.159,1.159,0,1,1-.779-2.017Zm7,0a1.157,1.157,0,0,1,.779,2.017,1.159,1.159,0,1,1-.779-2.017Zm10.486,3.37a3.631,3.631,0,0,1-.232,1.319,3.171,3.171,0,0,1-.643,1.039,2.871,2.871,0,0,1-.978.68,3.1,3.1,0,0,1-1.23.243,2.713,2.713,0,0,1-2.314-1.193,4.246,4.246,0,0,1-.619-1.412,7.648,7.648,0,0,1-.212-1.88,8.834,8.834,0,0,1,.284-2.321,5.638,5.638,0,0,1,.807-1.784,3.719,3.719,0,0,1,1.261-1.145,3.379,3.379,0,0,1,1.647-.4,3.968,3.968,0,0,1,1.627.28v1.06a3.455,3.455,0,0,0-1.6-.39,2.384,2.384,0,0,0-1.183.294,2.716,2.716,0,0,0-.9.831,4.051,4.051,0,0,0-.578,1.3,6.573,6.573,0,0,0-.2,1.688h.027a2.354,2.354,0,0,1,2.235-1.224,2.942,2.942,0,0,1,1.159.219,2.5,2.5,0,0,1,.882.619,2.786,2.786,0,0,1,.564.954A3.63,3.63,0,0,1,117.024,11.89Zm-1.148.144a3.051,3.051,0,0,0-.13-.923,2,2,0,0,0-.373-.7,1.606,1.606,0,0,0-.6-.441,2.013,2.013,0,0,0-.807-.154,1.888,1.888,0,0,0-.772.157,1.924,1.924,0,0,0-.615.427,2,2,0,0,0-.554,1.391,3.041,3.041,0,0,0,.144.947,2.446,2.446,0,0,0,.4.769,1.918,1.918,0,0,0,.619.516,1.69,1.69,0,0,0,.8.188,1.824,1.824,0,0,0,.772-.161,1.723,1.723,0,0,0,.595-.448,2.073,2.073,0,0,0,.383-.687A2.723,2.723,0,0,0,115.876,12.033Zm8.682-1.976a9.63,9.63,0,0,1-.222,2.181,5.081,5.081,0,0,1-.643,1.6,2.892,2.892,0,0,1-1.032.991,2.826,2.826,0,0,1-1.391.338,2.639,2.639,0,0,1-1.316-.325,2.758,2.758,0,0,1-.974-.947,4.8,4.8,0,0,1-.6-1.528,9.447,9.447,0,0,1-.205-2.075,10.694,10.694,0,0,1,.215-2.27,5.191,5.191,0,0,1,.632-1.651,2.814,2.814,0,0,1,1.036-1,2.908,2.908,0,0,1,1.418-.338Q124.558,5.033,124.558,10.058Zm-1.148.109q0-4.184-1.989-4.184-2.1,0-2.1,4.259,0,3.972,2.058,3.972Q123.409,14.214,123.409,10.167ZM136.206,15h-1.121V10.98a3.032,3.032,0,0,0-.359-1.682,1.361,1.361,0,0,0-1.207-.52,1.494,1.494,0,0,0-1.22.656,2.511,2.511,0,0,0-.5,1.572V15h-1.121V10.844q0-2.064-1.593-2.064a1.475,1.475,0,0,0-1.217.619,2.557,2.557,0,0,0-.479,1.61V15h-1.121V8h1.121V9.107h.027a2.378,2.378,0,0,1,2.174-1.271,2.022,2.022,0,0,1,1.982,1.449A2.5,2.5,0,0,1,133.9,7.836q2.311,0,2.311,2.851ZM138.9,6.223a.71.71,0,0,1-.513-.205.692.692,0,0,1-.212-.52.718.718,0,0,1,.725-.731.724.724,0,0,1,.523.208.73.73,0,0,1,0,1.036A.718.718,0,0,1,138.9,6.223ZM139.446,15h-1.121V8h1.121Zm8.08,0h-1.121V11.008q0-2.229-1.627-2.229a1.765,1.765,0,0,0-1.391.632,2.344,2.344,0,0,0-.55,1.6V15h-1.121V8h1.121V9.162h.027a2.526,2.526,0,0,1,2.3-1.326,2.142,2.142,0,0,1,1.757.742,3.3,3.3,0,0,1,.608,2.143ZM157.9,5.2l-4.7,11.43h-1.046L156.837,5.2Zm6.8.649q-.226.39-.543.971t-.673,1.306q-.355.725-.725,1.559t-.69,1.723q-.321.889-.564,1.8A13.4,13.4,0,0,0,161.15,15h-1.2a13.631,13.631,0,0,1,.379-1.788q.256-.913.581-1.791t.687-1.692q.362-.813.7-1.5t.625-1.207q.284-.523.455-.817h-4.915V5.2H164.7Zm2.8,7.595L166.407,16.8h-.8l.8-3.363Zm7.5-1.436a3.3,3.3,0,0,1-.246,1.3,2.84,2.84,0,0,1-.7,1,3.137,3.137,0,0,1-1.1.643,4.291,4.291,0,0,1-1.429.226,3.947,3.947,0,0,1-2.03-.41V13.571a3.733,3.733,0,0,0,2.044.643,2.766,2.766,0,0,0,.96-.157,2.134,2.134,0,0,0,.728-.437,1.873,1.873,0,0,0,.461-.677,2.291,2.291,0,0,0,.161-.868,1.86,1.86,0,0,0-.643-1.5,2.818,2.818,0,0,0-1.866-.543q-.2,0-.417.007t-.437.017q-.219.01-.427.024t-.379.034l.335-4.915h4.532V6.209h-3.562l-.2,2.878q.219-.014.465-.024t.438-.01a4.4,4.4,0,0,1,1.395.205,2.955,2.955,0,0,1,1.042.584,2.451,2.451,0,0,1,.649.93A3.27,3.27,0,0,1,175,12.006Zm7.9-1.948a9.629,9.629,0,0,1-.222,2.181,5.081,5.081,0,0,1-.643,1.6,2.892,2.892,0,0,1-1.032.991,2.826,2.826,0,0,1-1.391.338,2.639,2.639,0,0,1-1.316-.325,2.758,2.758,0,0,1-.974-.947,4.8,4.8,0,0,1-.6-1.528,9.447,9.447,0,0,1-.205-2.075,10.694,10.694,0,0,1,.215-2.27,5.191,5.191,0,0,1,.632-1.651,2.814,2.814,0,0,1,1.036-1,2.908,2.908,0,0,1,1.418-.338Q182.9,5.033,182.9,10.058Zm-1.148.109q0-4.184-1.989-4.184-2.1,0-2.1,4.259,0,3.972,2.058,3.972Q181.747,14.214,181.747,10.167Zm8.7-.109a9.629,9.629,0,0,1-.222,2.181,5.081,5.081,0,0,1-.643,1.6,2.892,2.892,0,0,1-1.032.991,2.826,2.826,0,0,1-1.391.338,2.639,2.639,0,0,1-1.316-.325,2.758,2.758,0,0,1-.974-.947,4.8,4.8,0,0,1-.6-1.528,9.447,9.447,0,0,1-.205-2.075,10.694,10.694,0,0,1,.215-2.27,5.191,5.191,0,0,1,.632-1.651,2.814,2.814,0,0,1,1.036-1,2.908,2.908,0,0,1,1.418-.338Q190.442,5.033,190.442,10.058Zm-1.148.109q0-4.184-1.989-4.184-2.1,0-2.1,4.259,0,3.972,2.058,3.972Q189.294,14.214,189.294,10.167Zm14.089,4.341a1.107,1.107,0,0,1-.362.923,3.782,3.782,0,0,1-1.88.267.527.527,0,0,1-.273-.041.623.623,0,0,1-.089-.239,2.205,2.205,0,0,0-.267-.643q.574.055,1.36.055a.783.783,0,0,0,.52-.123.546.546,0,0,0,.109-.39V10.071H193.58v3.192l.027,2.447q0,.116-.109.116h-.69q-.109,0-.109-.116l.027-2.632V7.173L192.7,4.534q0-.13.109-.13l1.976.027h6.528l1.962-.027q.109,0,.109.13L203.355,7.2v5.072ZM202.5,9.3V5.2h-4.1V9.3Zm-4.942,0V5.2H193.58V9.3Z"
												transform="translate(-0.978 -3.741)" fill="#5a5858" />
										</svg>