	<svg xmlns="http://www.w3.org/2000/svg" width="327.421" height="63.494"
									viewBox="0 0 327.421 63.494">
									<path id="Контур_1746" data-name="Контур 1746"
										d="M7.957,14.59a5.749,5.749,0,0,1-2.707.574A4.366,4.366,0,0,1,1.9,13.817,4.969,4.969,0,0,1,.643,10.283a5.208,5.208,0,0,1,1.415-3.8A4.8,4.8,0,0,1,5.646,5.033a5.754,5.754,0,0,1,2.311.4V6.66a4.686,4.686,0,0,0-2.324-.588A3.566,3.566,0,0,0,2.9,7.2a4.249,4.249,0,0,0-1.049,3.015,4.043,4.043,0,0,0,.981,2.854A3.338,3.338,0,0,0,5.4,14.132a4.828,4.828,0,0,0,2.557-.656Zm9.584.41H16.27L15.23,12.252H11.074L10.1,15H8.818l3.76-9.8h1.189Zm-2.687-3.78L13.316,7.043a4,4,0,0,1-.15-.656h-.027a3.661,3.661,0,0,1-.157.656L11.457,11.22ZM26.011,15H24.644L23,12.252a5.985,5.985,0,0,0-.437-.653,2.494,2.494,0,0,0-.434-.441,1.5,1.5,0,0,0-.479-.25,1.968,1.968,0,0,0-.578-.079h-.943V15H18.983V5.2h2.926a4.17,4.17,0,0,1,1.186.161,2.654,2.654,0,0,1,.943.489,2.271,2.271,0,0,1,.625.817,2.709,2.709,0,0,1,.226,1.145,2.757,2.757,0,0,1-.154.94,2.455,2.455,0,0,1-.437.762,2.652,2.652,0,0,1-.684.571,3.49,3.49,0,0,1-.9.366v.027a2.068,2.068,0,0,1,.427.25,2.351,2.351,0,0,1,.345.332,4.391,4.391,0,0,1,.325.434q.161.243.359.564ZM20.132,6.236V9.791H21.69a2.364,2.364,0,0,0,.8-.13,1.844,1.844,0,0,0,.632-.373,1.689,1.689,0,0,0,.417-.595,1.991,1.991,0,0,0,.15-.79,1.537,1.537,0,0,0-.509-1.227A2.188,2.188,0,0,0,21.7,6.236ZM32.553,15h-5.2V5.2h4.977V6.236H28.506V9.5h3.541v1.032H28.506v3.432h4.047Zm6.973,0H34.439V5.2h1.148v8.764h3.938Zm1.928-8.777a.71.71,0,0,1-.513-.205.692.692,0,0,1-.212-.52.718.718,0,0,1,.725-.731.724.724,0,0,1,.523.208.73.73,0,0,1,0,1.036A.718.718,0,0,1,41.453,6.223ZM42,15H40.879V8H42Zm10.322,0H50.914L45.869,7.187a3.265,3.265,0,0,1-.314-.615h-.041a10.092,10.092,0,0,1,.055,1.347V15H44.42V5.2h1.49l4.908,7.69q.308.479.4.656h.027a10.371,10.371,0,0,1-.068-1.442V5.2h1.148Zm9.393,0h-1.6l-3.787-4.484a2.733,2.733,0,0,1-.26-.342h-.027V15H54.893V5.2h1.148V9.8h.027a2.7,2.7,0,0,1,.26-.335L59.992,5.2h1.429l-4.2,4.7Zm8.839-7.574q.021,2.769.123,4.689a7.23,7.23,0,0,1,2.468,1.832l-.677.841a6.685,6.685,0,0,0-1.791-1.634,2.112,2.112,0,0,1-.7,1.764,2.5,2.5,0,0,1-1.647.5q-2.42,0-2.42-1.9a1.583,1.583,0,0,1,.725-1.34,2.691,2.691,0,0,1,1.586-.451,6.841,6.841,0,0,1,1.483.15Q69.61,10,69.583,7.467q-1.907.062-3.821.041V6.626q1.7.055,3.808-.014V4.035h1q-.014.841-.014,2.522.875-.048,2.249-.185v.882Q71.8,7.357,70.554,7.426ZM69.7,12.833a4.28,4.28,0,0,0-1.545-.28,1.734,1.734,0,0,0-.964.253.806.806,0,0,0-.4.711q0,1.053,1.511,1.053a1.26,1.26,0,0,0,1.114-.526A1.833,1.833,0,0,0,69.7,12.97ZM64.88,4.165a41.313,41.313,0,0,0-.841,6.87,33.208,33.208,0,0,0,.335,4.341l-.978.089q-.321-3.117-.321-4.457a30.522,30.522,0,0,1,.287-3.685q.226-1.764.526-3.24Zm22.087,9.27a3.38,3.38,0,0,1-.273,1.326,1.687,1.687,0,0,1-.437.479,5.82,5.82,0,0,1-2.9.417,10.217,10.217,0,0,1-1.579-.082,1.571,1.571,0,0,1-.67-.253,1.354,1.354,0,0,1-.4-1.135V10.6q-.4.123-.69.232l-.205.075a.225.225,0,0,1-.068.014q-.075,0-.1-.109l-.137-.533a.158.158,0,0,1-.014-.055q0-.055.1-.075.4-.075,1.121-.28V9.162a11.047,11.047,0,0,0-.082-1.613,8.3,8.3,0,0,1,.827.075q.164.021.164.109a.724.724,0,0,1-.068.253A4.438,4.438,0,0,0,81.484,9v.649l1.422-.424V8.615a10.811,10.811,0,0,0-.1-1.7A6.273,6.273,0,0,1,83.645,7q.157.021.157.137a1.462,1.462,0,0,1-.055.226A4.022,4.022,0,0,0,83.665,8.4V9l1-.308q.7-.2,1.258-.4.342-.116.369-.123h.021q.075,0,.075.1l-.027.643a16.707,16.707,0,0,1-.321,3.179.857.857,0,0,1-.868.663q-.123.007-.273.007-.219,0-.479-.021-.123-.014-.15-.055a.572.572,0,0,1-.048-.2,1.437,1.437,0,0,0-.185-.567,3.64,3.64,0,0,0,.882.116.4.4,0,0,0,.438-.349A16.325,16.325,0,0,0,85.6,9.135l-1.935.588v1.887l.027,1.6a.1.1,0,0,1-.109.109h-.595a.1.1,0,0,1-.109-.109l.027-1.6V9.948l-1.422.417v3.206a4.377,4.377,0,0,0,.048.813.406.406,0,0,0,.178.287,4.189,4.189,0,0,0,1.716.2,13.123,13.123,0,0,0,1.729-.075,1.232,1.232,0,0,0,.595-.219,1.052,1.052,0,0,0,.349-.622,6.746,6.746,0,0,0,.1-1.169,1.361,1.361,0,0,0,.547.28q.226.062.226.253Q86.974,13.359,86.967,13.435ZM79.775,6.462a.1.1,0,0,1-.116.116l-1.552-.034H76.891q-.027,1.285-.055,1.921h1.388l.868-.027a.109.109,0,0,1,.123.123q-.014.26-.027.779-.021.595-.027.9a22.077,22.077,0,0,1-.308,4.033,2.024,2.024,0,0,1-.485,1.053,1.214,1.214,0,0,1-.861.287q-.431,0-.7-.014-.157-.014-.191-.062a.694.694,0,0,1-.048-.232,1.711,1.711,0,0,0-.2-.615,5.739,5.739,0,0,0,1.053.109.535.535,0,0,0,.52-.294,3.454,3.454,0,0,0,.191-.813A33.649,33.649,0,0,0,78.4,9.21H76.809a18.5,18.5,0,0,1-.54,3.773A8.716,8.716,0,0,1,75.1,15.52q-.109.15-.157.15t-.164-.123a1.806,1.806,0,0,0-.506-.437A7.835,7.835,0,0,0,75.8,11.438,34.938,34.938,0,0,0,76.1,6.544l-1.511.034q-.1,0-.1-.116V5.874a.085.085,0,0,1,.1-.1l1.565.027h.916V4.869a6.96,6.96,0,0,0-.1-1.442q.54.021.909.068.185.021.185.123a.864.864,0,0,1-.082.253,3.335,3.335,0,0,0-.089,1v.937h.226l1.538-.027q.116,0,.116.1Zm7.082-.191a.1.1,0,0,1-.109.109L85.08,6.353H81.1a10.351,10.351,0,0,1-1.23,1.764q-.116.144-.191.144t-.2-.157a1.274,1.274,0,0,0-.41-.294,8.668,8.668,0,0,0,2.092-3.473,4.21,4.21,0,0,0,.178-.943q.526.1.8.185.157.041.157.157a.332.332,0,0,1-.082.164,1.884,1.884,0,0,0-.267.574q-.26.7-.451,1.121H85.08l1.668-.027a.1.1,0,0,1,.109.109Zm10.083.937q0,.109-.116.109l-1.456-.027h-.417v6.05l.027,2.42a.1.1,0,0,1-.109.109H94.22a.1.1,0,0,1-.109-.109l.027-2.406V7.289H93.7l-1.47.027a.1.1,0,0,1-.109-.109V6.633q0-.116.109-.116l1.47.027h.438V5.354a11.11,11.11,0,0,0-.1-1.8,8.722,8.722,0,0,1,.9.082q.171.027.171.116a.379.379,0,0,1-.027.123,1.265,1.265,0,0,0-.048.13,6.158,6.158,0,0,0-.082,1.34v1.2h.417l1.456-.027a.1.1,0,0,1,.116.116Zm4.115.841q0,.123-.116.123L99.7,8.144h-.068V12.3l.014,2.194a1.172,1.172,0,0,1-.383,1.025,2.85,2.85,0,0,1-1.367.212h-.308q-.219,0-.26-.048a.6.6,0,0,1-.082-.246,2.487,2.487,0,0,0-.219-.595,10.779,10.779,0,0,0,1.258.089q.52-.021.52-.574V8.144h-.383l-1.244.027a.109.109,0,0,1-.123-.123V7.487q0-.116.123-.116l1.244.027H99.7l1.244-.027a.1.1,0,0,1,.116.116Zm-9.194-.984q0,.082-.13.164a1.094,1.094,0,0,0-.321.41A11.165,11.165,0,0,1,90.686,8.8v5.209l.027,1.8q0,.109-.116.109h-.643a.1.1,0,0,1-.109-.109l.027-1.8V11.5q0-.123.041-1.723A14.387,14.387,0,0,1,88.806,10.9q-.109.109-.164.109-.075,0-.144-.15a1.759,1.759,0,0,0-.321-.506,10.411,10.411,0,0,0,2.577-3.192,3.284,3.284,0,0,0,.267-.684,5.289,5.289,0,0,1,.684.39Q91.861,6.975,91.861,7.063ZM91.9,4.021q0,.1-.13.157a1.182,1.182,0,0,0-.349.335A12.765,12.765,0,0,1,88.949,7.1a.578.578,0,0,1-.2.109q-.062,0-.171-.2a1.73,1.73,0,0,0-.362-.472,9.155,9.155,0,0,0,2.5-2.5,2.091,2.091,0,0,0,.308-.629,4.717,4.717,0,0,1,.738.41Q91.9,3.926,91.9,4.021Zm1.442,5.223a.4.4,0,0,1-.068.185,1.426,1.426,0,0,0-.144.547,13.911,13.911,0,0,1-.882,3.493q-.055.171-.13.171a.565.565,0,0,1-.178-.068,1.67,1.67,0,0,0-.547-.164,11.343,11.343,0,0,0,.957-3.432q.027-.342.027-.636a2.832,2.832,0,0,0-.021-.362,6.191,6.191,0,0,1,.8.116Q93.345,9.128,93.345,9.244Zm4.04,3.486a.112.112,0,0,0,.007.027v.021q0,.075-.144.137l-.39.137a.66.66,0,0,1-.171.048q-.062,0-.068-.1a21.241,21.241,0,0,0-.8-3.726.29.29,0,0,1-.014-.068q0-.048.144-.1l.376-.13a.4.4,0,0,1,.1-.021q.055,0,.082.1A22.953,22.953,0,0,1,97.385,12.73Zm3.35-7.588q0,.116-.1.116l-1.094-.027h-.909l-1.094.027q-.109,0-.109-.116V4.555a.1.1,0,0,1,.109-.109l1.094.027h.909l1.094-.027q.1,0,.1.109Zm-3.767.267a.207.207,0,0,1,.021.075q0,.055-.1.123l-.28.178a.524.524,0,0,1-.171.089q-.041,0-.082-.089A6.68,6.68,0,0,0,95.512,4.4a.166.166,0,0,1-.041-.082q0-.041.109-.1l.308-.171a.445.445,0,0,1,.123-.041.114.114,0,0,1,.075.041A6.778,6.778,0,0,1,96.968,5.409Zm18.143,9.57a2.4,2.4,0,0,0-.349.547q-.116.246-.205.246a.878.878,0,0,1-.171-.034,14.015,14.015,0,0,1-4.088-1.682,10.684,10.684,0,0,1-4.156,1.771,1.477,1.477,0,0,1-.191.027q-.089,0-.205-.226a1.9,1.9,0,0,0-.335-.465,11.739,11.739,0,0,0,4.245-1.565,9.066,9.066,0,0,1-1.559-1.668,9.5,9.5,0,0,1-1.969,1.6,1.127,1.127,0,0,1-.2.1q-.062,0-.2-.2a1.749,1.749,0,0,0-.376-.362,8.027,8.027,0,0,0,2.967-2.632,2.314,2.314,0,0,0,.4-.854l-1.593.109a3.076,3.076,0,0,0-.711.1,1.188,1.188,0,0,1-.226.1q-.1,0-.171-.212-.062-.239-.137-.766.253.021.547.021.2,0,.349-.007.971-.027,1.5-.055l.772-.786a20.738,20.738,0,0,0-2.393-2.017q-.062-.041-.062-.075a.3.3,0,0,1,.068-.137l.28-.335q.068-.089.123-.089a.148.148,0,0,1,.075.034q.239.171.711.533a17.405,17.405,0,0,0,1.374-1.962,3.3,3.3,0,0,0,.308-.684,4.657,4.657,0,0,1,.745.349q.171.082.171.2,0,.089-.157.178a1.65,1.65,0,0,0-.362.41q-.889,1.251-1.518,1.969.608.506,1.162,1.039.937-1.039,1.853-2.27a2.413,2.413,0,0,0,.362-.629,5.478,5.478,0,0,1,.7.349q.171.1.171.212,0,.089-.157.164a3,3,0,0,0-.52.547,33.525,33.525,0,0,1-2.639,2.926q1.518-.082,3.6-.294-.383-.479-.841-.964-.048-.048-.048-.075t.13-.123l.308-.191a.338.338,0,0,1,.144-.068.112.112,0,0,1,.068.041,12.726,12.726,0,0,1,2.044,2.618.161.161,0,0,1,.021.068q0,.062-.116.137l-.369.212a.464.464,0,0,1-.171.082q-.041,0-.075-.082-.424-.7-.649-1.039-1.818.219-4.628.465.506.13.7.2.157.055.157.164t-.13.157a1.864,1.864,0,0,0-.267.335q-.068.1-.185.294h2.83a.823.823,0,0,0,.294-.041.33.33,0,0,1,.144-.041q.109,0,.376.267.239.219.239.349a.21.21,0,0,1-.13.191,2.166,2.166,0,0,0-.321.355,10.237,10.237,0,0,1-1.565,1.757A12.865,12.865,0,0,0,115.11,14.979Zm-3.3-3.582h-3.247a7.185,7.185,0,0,0,1.7,1.75A7.8,7.8,0,0,0,111.809,11.4Zm-5.64-4.423a.181.181,0,0,1-.1.157,1.007,1.007,0,0,0-.308.349q-.492.82-.889,1.36v5.223l.027,1.8q0,.109-.116.109h-.656q-.1,0-.1-.109l.027-1.8V11.555q0-.164.041-1.764a14.63,14.63,0,0,1-1.292,1.306.426.426,0,0,1-.205.123q-.068,0-.171-.185a1.535,1.535,0,0,0-.321-.431,11.928,11.928,0,0,0,2.939-3.5,2.97,2.97,0,0,0,.28-.684,4.429,4.429,0,0,1,.7.376Q106.169,6.9,106.169,6.975Zm-.041-2.98q0,.089-.171.185a1.205,1.205,0,0,0-.335.349,13.028,13.028,0,0,1-2.536,2.522.678.678,0,0,1-.226.109q-.062,0-.164-.185a1.46,1.46,0,0,0-.4-.431,9,9,0,0,0,2.646-2.522,2.14,2.14,0,0,0,.314-.629,3.945,3.945,0,0,1,.738.424Q106.128,3.9,106.128,3.994Zm16.8,2.509q-.041,1.518,0,3.035a5.324,5.324,0,0,1,.308,1.777,3.687,3.687,0,0,1-1.306,3.069,7.744,7.744,0,0,1-3.274,1.271l-.588-.841a6.334,6.334,0,0,0,3.411-1.381,2.741,2.741,0,0,0,.807-1.88,1.856,1.856,0,0,1-1.8.882,2.2,2.2,0,0,1-1.531-.574,2.082,2.082,0,0,1-.67-1.62,2.07,2.07,0,0,1,.793-1.736,2.469,2.469,0,0,1,1.559-.492,2,2,0,0,1,1.36.39q-.027-1.312-.027-1.873-2.249.034-5.435.239l-.014-.9q2.584-.1,5.435-.171V3.8l1,.014q0,.629-.027,1.859,2.324-.027,3.363-.027v.9Q124.605,6.5,122.924,6.5Zm-2.338,2.3a1.322,1.322,0,0,0-.984.4,1.413,1.413,0,0,0-.39,1.046,1.237,1.237,0,0,0,.444,1,1.288,1.288,0,0,0,.848.294,1.405,1.405,0,0,0,1.1-.41,1.3,1.3,0,0,0,.314-.916Q121.919,8.8,120.586,8.8Zm12.175-1.641.69-.349a18.706,18.706,0,0,1,1.258,2.27l-.731.376A12.74,12.74,0,0,0,132.761,7.159Zm1.47-.656.677-.308a11.008,11.008,0,0,1,1.2,2.181l-.7.369A13.251,13.251,0,0,0,134.23,6.5Zm-1.073-2.563.9.615q-2.119,2.454-4.382,4.607a.681.681,0,0,0-.267.479q0,.226.376.513a45.7,45.7,0,0,1,4.9,4.71l-.868.725a50.559,50.559,0,0,0-5.024-5.065,1.118,1.118,0,0,1-.465-.841,1.139,1.139,0,0,1,.362-.827A64.9,64.9,0,0,0,133.157,3.939Zm7.492,7.492.957.082a5.458,5.458,0,0,0-.157,1.258,1.054,1.054,0,0,0,.444.978,3.167,3.167,0,0,0,1.545.273,25.984,25.984,0,0,0,2.769-.144l.027,1.012q-1.025.082-2.659.082a4.349,4.349,0,0,1-2.44-.492,1.783,1.783,0,0,1-.636-1.552A7.219,7.219,0,0,1,140.649,11.432Zm.28-4.676V5.8q1.75-.137,3.541-.137.889,0,1.668.041v.95q-.725-.055-1.764-.055Q142.584,6.6,140.93,6.756Zm-1.511-2.413a36.343,36.343,0,0,0-.786,6.61,24.83,24.83,0,0,0,.342,4.382l-1,.082a28.85,28.85,0,0,1-.321-4.491,40.269,40.269,0,0,1,.772-6.665Zm20.07,6.986s-.023.089-.068.253a6,6,0,0,0-.089,1.319v1.647l.027,1.2q0,.109-.1.109h-.67q-.116,0-.116-.109v-.772H149.96v.813q0,.109-.116.109h-.663a.1.1,0,0,1-.109-.109l.027-1.148V12.956a11.343,11.343,0,0,0-.1-1.736,8.05,8.05,0,0,1,.937.082q.185.027.185.13a.371.371,0,0,1-.027.116.923.923,0,0,0-.041.123,4.887,4.887,0,0,0-.1,1.258v1.244h3.691V9.415h-3.288v.7q0,.116-.109.116h-.663q-.109,0-.109-.116l.027-1.244V6.961a11.633,11.633,0,0,0-.1-1.75,7.361,7.361,0,0,1,.937.089q.15.021.15.123a.768.768,0,0,1-.055.253,5.49,5.49,0,0,0-.082,1.271V8.629h3.288v-3.4a11.848,11.848,0,0,0-.1-1.791,7.839,7.839,0,0,1,.964.089q.171.021.171.109a.371.371,0,0,1-.027.116.691.691,0,0,0-.041.137,6.051,6.051,0,0,0-.089,1.326V8.629h3.555V6.879a11.633,11.633,0,0,0-.1-1.75,9.311,9.311,0,0,1,.937.082q.164.027.164.13a1.742,1.742,0,0,1-.068.239,6.8,6.8,0,0,0-.082,1.326V8.8l.027,1.285q0,.116-.109.116H158.2q-.109,0-.109-.116v-.67h-3.555v4.758h3.944v-1.3a11.425,11.425,0,0,0-.1-1.736,8.239,8.239,0,0,1,.937.082Q159.489,11.247,159.489,11.329ZM174,15.349q0,.109-.116.109l-1.887-.027H164.4l-1.894.027a.1.1,0,0,1-.109-.109V14.74a.1.1,0,0,1,.109-.109l1.894.027h3.261V11h-2.789l-1.928.027q-.116,0-.116-.109v-.595q0-.109.116-.109l1.928.027h2.789V8.492h-.854l-1.75.014q-.109,0-.109-.1V7.815a.1.1,0,0,1,.109-.109l1.75.027h2.755l1.771-.027a.1.1,0,0,1,.109.109V8.4q0,.1-.109.1l-1.771-.014h-1.032v1.75h3.035l1.935-.027a.1.1,0,0,1,.109.109v.595a.081.081,0,0,1-.109.109L171.568,11h-3.035v3.657h3.459l1.887-.027q.116,0,.116.109ZM174.863,8a1.6,1.6,0,0,0-.41.547q-.116.212-.185.212a1.127,1.127,0,0,1-.219-.068,13.179,13.179,0,0,1-5.913-4.3,14.409,14.409,0,0,1-5.708,4.437.7.7,0,0,1-.2.062q-.068,0-.191-.191a1.314,1.314,0,0,0-.451-.431,13.147,13.147,0,0,0,5.77-4.286,3.042,3.042,0,0,0,.4-.779,4.172,4.172,0,0,1,.9.191q.2.068.2.185,0,.068-.1.123a.378.378,0,0,0-.13.089,11.238,11.238,0,0,0,3.049,2.769A15.984,15.984,0,0,0,174.863,8ZM172.1,11.992q0,.068-.137.178a1.049,1.049,0,0,0-.226.342,13.261,13.261,0,0,1-1,1.675q-.116.144-.164.144a.433.433,0,0,1-.2-.1,1.184,1.184,0,0,0-.472-.226,9.909,9.909,0,0,0,1.1-1.88,3.2,3.2,0,0,0,.212-.615,4.029,4.029,0,0,1,.711.294Q172.1,11.91,172.1,11.992Zm-5.934,1.647a.268.268,0,0,1,.021.089q0,.062-.137.123l-.431.212a.832.832,0,0,1-.185.075q-.041,0-.068-.089a8.837,8.837,0,0,0-1-2,.133.133,0,0,1-.027-.068q0-.048.157-.13l.376-.164a.631.631,0,0,1,.157-.062q.048,0,.1.075A9.842,9.842,0,0,1,166.168,13.64Zm13.426-6.2a41.522,41.522,0,0,1-2.646,7.841l-.923-.362a37.253,37.253,0,0,0,2.563-7.41q-.848.062-2.577.226l-.055-.882q.513-.034,1.518-.1l1.313-.089q.26-1.183.533-2.782l.991.137q-.308,1.6-.533,2.591.786-.055,1.429-.055a1.428,1.428,0,0,1,1.278.567,3.662,3.662,0,0,1,.4,1.982,19.506,19.506,0,0,1-.437,4.97,1.777,1.777,0,0,1-.636,1,1.828,1.828,0,0,1-1.073.28,9.249,9.249,0,0,1-1.422-.109l-.171-.978a6.216,6.216,0,0,0,1.244.164,1.47,1.47,0,0,0,.745-.144.9.9,0,0,0,.335-.485,16.429,16.429,0,0,0,.444-4.566,3.52,3.52,0,0,0-.219-1.538.713.713,0,0,0-.677-.321Q180.38,7.385,179.594,7.439ZM183.7,3.447l.711-.28a19.251,19.251,0,0,1,1.039,2.372l-.759.308A14.765,14.765,0,0,0,183.7,3.447Zm1.5-.472.7-.253a11.327,11.327,0,0,1,.991,2.3l-.725.294A13.487,13.487,0,0,0,185.2,2.976Zm-2.311,2.844.882-.451a16.879,16.879,0,0,1,2.406,4.833l-.978.458A14.513,14.513,0,0,0,182.889,5.819ZM194.776,12.7a.1.1,0,0,1-.116.116h-.629q-.123,0-.123-.116V12.02h-3.377V13.1q0,.109-.116.109h-.643a.1.1,0,0,1-.109-.109l.027-2.6V9.121l-.027-1.764a.1.1,0,0,1,.109-.109l1.511.027h1.866l1.511-.027q.116,0,.116.109l-.027,1.456v1.415Zm-.868-1.47V8.062h-3.377v3.172Zm6.084-6.187a.1.1,0,0,1-.109.109l-.2-.007q-.588-.014-1.381-.021v6.638l.027,2.6a1.216,1.216,0,0,1-.4,1.066,3.469,3.469,0,0,1-1.757.273q-.26,0-.608-.007a.465.465,0,0,1-.26-.041.838.838,0,0,1-.089-.239,2.106,2.106,0,0,0-.28-.649,16.632,16.632,0,0,0,1.682.075,1.117,1.117,0,0,0,.622-.116.517.517,0,0,0,.15-.431V5.129H189.82l-1.839.027a.1.1,0,0,1-.109-.109V4.391q0-.116.109-.116l1.839.027h8.23l1.832-.027q.109,0,.109.116Zm7.28,9.536a1.126,1.126,0,0,1-.28.909,2.711,2.711,0,0,1-1.442.253.447.447,0,0,1-.26-.048.607.607,0,0,1-.089-.232,2.256,2.256,0,0,0-.226-.533,7.219,7.219,0,0,0,.868.055.692.692,0,0,0,.506-.144.577.577,0,0,0,.123-.417V12.847h-2.967v1.176l.027,1.736a.1.1,0,0,1-.109.109h-.608a.1.1,0,0,1-.109-.109l.027-1.723V10l-.027-1.743a.1.1,0,0,1,.109-.109l1.415.027h1.531l1.415-.027q.1,0,.1.109l-.014,1.832v2.652Zm-.8-2.406V10.823h-2.967v1.354Zm0-2.023V8.868h-2.967v1.285Zm7.588,3.739a2.034,2.034,0,0,1-.588,1.347,3.856,3.856,0,0,1-2.187.431,6.037,6.037,0,0,1-2.1-.226,1.008,1.008,0,0,1-.52-1.032V11.165a8.578,8.578,0,0,0-.082-1.415,8.469,8.469,0,0,1,.9.082q.171.021.171.13a.9.9,0,0,1-.089.253,3.684,3.684,0,0,0-.068.937v.9a14.974,14.974,0,0,0,2.673-1.2,2.98,2.98,0,0,0,.745-.561,4.509,4.509,0,0,1,.574.506.306.306,0,0,1,.109.205q0,.116-.185.144a2.331,2.331,0,0,0-.629.267,21.705,21.705,0,0,1-3.288,1.415v1.326a.636.636,0,0,0,.362.643,5.2,5.2,0,0,0,1.456.123,2.747,2.747,0,0,0,1.613-.308.933.933,0,0,0,.28-.52,7.039,7.039,0,0,0,.082-.848,3.35,3.35,0,0,0,.574.308q.219.089.219.185A1.473,1.473,0,0,1,214.061,13.893Zm-.1-6.467a2.867,2.867,0,0,1-.2.889,1.218,1.218,0,0,1-.335.431,4.315,4.315,0,0,1-2.29.376,7.066,7.066,0,0,1-1.989-.171.683.683,0,0,1-.4-.308,1.248,1.248,0,0,1-.109-.588V4.965a8.849,8.849,0,0,0-.082-1.429q.451.021.875.082.185.021.185.123a.631.631,0,0,1-.082.239,3.72,3.72,0,0,0-.068.95V5.942A14.985,14.985,0,0,0,212,4.821a2.716,2.716,0,0,0,.738-.561,5.568,5.568,0,0,1,.588.547.264.264,0,0,1,.1.171q0,.109-.185.137a3.844,3.844,0,0,0-.615.267,26.047,26.047,0,0,1-3.158,1.333v.991a.8.8,0,0,0,.075.41.485.485,0,0,0,.273.164,6.681,6.681,0,0,0,1.36.082,3.1,3.1,0,0,0,1.723-.28,2.285,2.285,0,0,0,.308-1.312,2.749,2.749,0,0,0,.547.308q.219.1.219.226A.823.823,0,0,1,213.958,7.426Zm-5.934-.362a.215.215,0,0,1,.021.082q0,.062-.116.144l-.355.2a.407.407,0,0,1-.164.068q-.048,0-.1-.1a7.709,7.709,0,0,0-.349-.718q-1.88.328-4.252.6a1.482,1.482,0,0,0-.588.157.283.283,0,0,1-.171.055q-.082,0-.137-.171a6.238,6.238,0,0,1-.171-.807q.868,0,1.217-.034a16.353,16.353,0,0,0,1.053-2.181,5.678,5.678,0,0,0,.267-.95,3.774,3.774,0,0,1,.779.205q.2.082.2.185a.315.315,0,0,1-.137.226.962.962,0,0,0-.239.362q-.554,1.183-1.066,2.071,1.668-.164,2.871-.349a10,10,0,0,0-.718-.978.133.133,0,0,1-.027-.068q0-.055.13-.13l.294-.171a.238.238,0,0,1,.116-.041.132.132,0,0,1,.1.055A11.015,11.015,0,0,1,208.024,7.063Zm14.588.779.718-.273a18.274,18.274,0,0,1,1.032,2.365l-.752.308A15.122,15.122,0,0,0,222.612,7.843Zm1.586-.472.7-.253a11.566,11.566,0,0,1,1,2.3l-.731.294A13.487,13.487,0,0,0,224.2,7.371Zm.39-2.632.027.964a5.312,5.312,0,0,0-2.311.629,5.934,5.934,0,0,0-2.071,1.962,4.817,4.817,0,0,0-.813,2.659,2.958,2.958,0,0,0,1.285,2.529,6.17,6.17,0,0,0,2.933,1l-.239,1a6.1,6.1,0,0,1-3.63-1.381,3.89,3.89,0,0,1-1.312-3.049,5.709,5.709,0,0,1,2.994-5.024l.759-.335-.014-.027-.656.109q-1.189.068-5.66.479l-.082-.923Q217.8,5.177,224.588,4.739ZM233.365,6.5q-.041,1.518,0,3.035a5.324,5.324,0,0,1,.308,1.777,3.687,3.687,0,0,1-1.306,3.069,7.744,7.744,0,0,1-3.274,1.271l-.588-.841a6.334,6.334,0,0,0,3.411-1.381,2.741,2.741,0,0,0,.807-1.88,1.856,1.856,0,0,1-1.8.882,2.2,2.2,0,0,1-1.531-.574,2.082,2.082,0,0,1-.67-1.62,2.07,2.07,0,0,1,.793-1.736,2.469,2.469,0,0,1,1.559-.492,2,2,0,0,1,1.36.39Q232.4,7.091,232.4,6.53q-2.249.034-5.435.239l-.014-.9q2.584-.1,5.435-.171V3.8l1,.014q0,.629-.027,1.859,2.324-.027,3.363-.027v.9Q235.047,6.5,233.365,6.5Zm-2.338,2.3a1.322,1.322,0,0,0-.984.4,1.413,1.413,0,0,0-.39,1.046,1.237,1.237,0,0,0,.444,1,1.288,1.288,0,0,0,.848.294,1.406,1.406,0,0,0,1.1-.41,1.3,1.3,0,0,0,.314-.916Q232.36,8.8,231.027,8.8Zm9.324,3.527a1.915,1.915,0,0,1,1.463.643,1.916,1.916,0,0,1-.144,2.748,1.936,1.936,0,0,1-1.319.5,1.9,1.9,0,0,1-1.463-.643,1.916,1.916,0,0,1,.144-2.748A1.936,1.936,0,0,1,240.352,12.327Zm0,.7a1.269,1.269,0,0,0-1.251,1.251,1.253,1.253,0,0,0,2.181.834,1.247,1.247,0,0,0-.93-2.085ZM5.154,31.346H9.229a56.3,56.3,0,0,1-.28,7.062,2.187,2.187,0,0,1-.8,1.634,5.824,5.824,0,0,1-2.406.308l-.328-1.032q.588.027.772.027a2.943,2.943,0,0,0,1.2-.157.7.7,0,0,0,.342-.335,3.539,3.539,0,0,0,.178-.813,47.628,47.628,0,0,0,.239-5.749H5.106A13.241,13.241,0,0,1,4.013,37.43a7.906,7.906,0,0,1-2.687,3.035l-.711-.718a6.978,6.978,0,0,0,2.7-3.322,12.846,12.846,0,0,0,.731-4.136H.923v-.943H4.074q.014-.7.014-2.516H5.182Q5.182,29.917,5.154,31.346Zm6.727-1.312a23.989,23.989,0,0,1,3.288,2.085l-.7.923a20.356,20.356,0,0,0-3.22-2.181Zm7.055.7,1.053.506a11.411,11.411,0,0,1-2.6,5.8A11.137,11.137,0,0,1,11.8,40.267l-.479-.95Q17.89,37.7,18.936,30.73Zm8.278,5.223a15.455,15.455,0,0,0-2.9-1.962l.574-.766a21.307,21.307,0,0,1,2.857,1.75,13.505,13.505,0,0,0,1.162-4.02h-3.9a11.485,11.485,0,0,1-2.81,4.17l-.827-.561a11.586,11.586,0,0,0,3.247-5.893l1.08.267q-.116.451-.321,1.094h4.84a16.092,16.092,0,0,1-2.509,7.075,10.892,10.892,0,0,1-4.7,3.507l-.663-.786A10.256,10.256,0,0,0,27.214,35.953Zm5.612-5.92a23.989,23.989,0,0,1,3.288,2.085l-.7.923A20.356,20.356,0,0,0,32.2,30.86Zm7.055.7,1.053.506a11.411,11.411,0,0,1-2.6,5.8,11.137,11.137,0,0,1-5.585,3.227l-.479-.95Q38.835,37.7,39.881,30.73Zm15.251,8.921a1.626,1.626,0,0,0-.335.5q-.1.212-.171.212a.544.544,0,0,1-.226-.082,9.65,9.65,0,0,1-3.541-2.926q0,.909.034,2.235.021,1.169.021,1.306,0,.116-.109.116h-.6q-.13,0-.13-.116,0-.226.027-1.49.027-1.176.034-1.928a9.049,9.049,0,0,1-3.575,2.905.532.532,0,0,1-.191.068q-.075,0-.2-.226a1.2,1.2,0,0,0-.321-.4,9.547,9.547,0,0,0,3.821-2.762H48.385l-1.962.027a.1.1,0,0,1-.109-.109v-.492a.1.1,0,0,1,.109-.109l1.962.027h1.723a6.624,6.624,0,0,0-.075-1.094q.438.021.854.082.171.027.171.116a.568.568,0,0,1-.1.253,1.661,1.661,0,0,0-.075.643h1.935l1.962-.027a.1.1,0,0,1,.109.109v.492a.1.1,0,0,1-.109.109l-1.962-.027H51.311A8.6,8.6,0,0,0,53.1,38.612,14.51,14.51,0,0,0,55.132,39.651Zm-8.641-7.677q0,.116-.109.116l-1.292-.027h-.068v2.823q.745-.342,1.189-.588a4.43,4.43,0,0,0-.027.547.522.522,0,0,1-.055.294.906.906,0,0,1-.226.144q-.39.212-.882.431v1.654l.027,2.112a1.339,1.339,0,0,1-.376,1.121,1.193,1.193,0,0,1-.513.205,5.609,5.609,0,0,1-.861.048.462.462,0,0,1-.273-.048.438.438,0,0,1-.089-.232,1.8,1.8,0,0,0-.253-.6,7.523,7.523,0,0,0,.978.055.5.5,0,0,0,.444-.171.916.916,0,0,0,.1-.5V36.069q-.082.027-.4.164-.219.089-.369.144a1.551,1.551,0,0,0-.5.267.361.361,0,0,1-.185.082.143.143,0,0,1-.137-.109,6.775,6.775,0,0,1-.253-.813,9.028,9.028,0,0,0,1.2-.342q.506-.164.643-.219V32.063h-.376l-1.292.027q-.109,0-.109-.116v-.588a.1.1,0,0,1,.109-.109l1.292.027h.376V30.156a10.732,10.732,0,0,0-.1-1.7,7.783,7.783,0,0,1,.909.089q.171.021.171.109a1.2,1.2,0,0,1-.1.267,5.727,5.727,0,0,0-.068,1.217V31.3h.068l1.292-.027a.1.1,0,0,1,.109.109Zm6.569-.417a.1.1,0,0,1-.109.109L51.42,31.64H49.656l-1.518.027a.1.1,0,0,1-.109-.109l.027-.909v-.772l-.027-.909a.1.1,0,0,1,.109-.109l1.518.027H51.42l1.531-.027a.1.1,0,0,1,.109.109l-.027.909v.772Zm-.813-.533V29.5H48.829v1.524ZM54.5,35.119a.1.1,0,0,1-.109.109L53.266,35.2H52.247l-1.121.027a.1.1,0,0,1-.109-.109l.027-.9v-.711l-.027-.9q0-.1.109-.1l1.121.027h1.019l1.121-.027q.109,0,.109.1l-.027.9v.711Zm-.711-.506v-1.49H51.714v1.49Zm-3.767.506a.1.1,0,0,1-.109.109L48.815,35.2h-.923l-1.107.027a.1.1,0,0,1-.109-.109l.027-.9v-.711l-.027-.9q0-.1.109-.1l1.107.027h.923l1.094-.027q.109,0,.109.1l-.027.9v.711Zm-.7-.506v-1.49H47.373v1.49Zm19.571-2.926a.1.1,0,0,1-.109.109l-1.777-.027H64.559v2.085h2.181l1.374-.014q.109,0,.109.1v.595a.1.1,0,0,1-.109.109l-1.374-.027H64.559v2.119h2.181l1.415-.027a.1.1,0,0,1,.109.109v.595a.1.1,0,0,1-.109.109l-1.415-.027H64.559v1.217l.027,2.188q0,.1-.116.1H63.8q-.109,0-.109-.1l.021-2.187V31.77H62.569a14.89,14.89,0,0,1-1.736,2.673q-.13.171-.185.171t-.157-.171a1.447,1.447,0,0,0-.417-.4A13.9,13.9,0,0,0,61.79,31.5a11.813,11.813,0,0,0,.943-2.146,4.177,4.177,0,0,0,.185-.978,7.318,7.318,0,0,1,.854.253q.185.068.185.15a.261.261,0,0,1-.116.212,1.5,1.5,0,0,0-.294.574q-.205.588-.6,1.442h4.061l1.777-.027a.1.1,0,0,1,.109.109Zm-8.2-2.9a.239.239,0,0,1-.116.178,1.353,1.353,0,0,0-.28.533,22.628,22.628,0,0,1-.95,2.085v7.082l.027,2.188q0,.109-.1.109h-.684a.1.1,0,0,1-.109-.109l.027-2.187V35.03q0-.67.027-2.071a13.528,13.528,0,0,1-1.545,1.976q-.123.123-.164.123-.068,0-.13-.137a1.735,1.735,0,0,0-.39-.561,13.312,13.312,0,0,0,3.165-5.1,3.676,3.676,0,0,0,.212-.937,5.569,5.569,0,0,1,.854.294Q60.689,28.693,60.689,28.789Zm16.687,4.054.718-.273a18.274,18.274,0,0,1,1.032,2.365l-.752.308A15.123,15.123,0,0,0,77.376,32.843Zm1.586-.472.7-.253a11.566,11.566,0,0,1,1,2.3l-.731.294A13.488,13.488,0,0,0,78.962,32.371Zm.39-2.632.027.964a5.312,5.312,0,0,0-2.311.629A5.934,5.934,0,0,0,75,33.294a4.817,4.817,0,0,0-.813,2.659,2.958,2.958,0,0,0,1.285,2.529,6.17,6.17,0,0,0,2.933,1l-.239,1a6.1,6.1,0,0,1-3.63-1.381,3.89,3.89,0,0,1-1.312-3.049,5.709,5.709,0,0,1,2.994-5.024l.759-.335-.014-.027-.656.109q-1.189.068-5.66.479l-.082-.923Q72.563,30.177,79.352,29.739Zm12.12,7.67a.1.1,0,0,1-.109.109l-1.853-.027H86.283l-1.839.027a.1.1,0,0,1-.109-.109l.027-.978v-.889l-.027-.978a.1.1,0,0,1,.109-.109l1.839.027H89.51l1.853-.027a.1.1,0,0,1,.109.109l-.027.978v.889Zm-.854-.6V35.181H85.189v1.627ZM94.329,34a1.972,1.972,0,0,0-.362.5q-.116.212-.185.212a.712.712,0,0,1-.205-.068,15.147,15.147,0,0,1-3.589-2.16,9.005,9.005,0,0,1-2.153-2.652,11.885,11.885,0,0,1-2.406,2.851,15.832,15.832,0,0,1-3.206,2.037.774.774,0,0,1-.212.068q-.068,0-.2-.226a1.452,1.452,0,0,0-.362-.424,14.34,14.34,0,0,0,3.179-1.832,10.19,10.19,0,0,0-1.6-1.4q-.062-.041-.062-.068t.075-.109l.342-.308q.075-.075.109-.075a.15.15,0,0,1,.082.034A12.724,12.724,0,0,1,85.244,31.8a10.591,10.591,0,0,0,1.791-2.14H85.019l-1.442.027q-.123,0-.123-.109v-.547q0-.109.123-.109l1.442.027h1.935l1.135-.027q.109,0,.178.157a6.638,6.638,0,0,0,.52.957,8.083,8.083,0,0,0,.6.813,9.043,9.043,0,0,0,1.135-1.189,2.833,2.833,0,0,0,.335-.54,4.359,4.359,0,0,1,.69.431.236.236,0,0,1,.109.164q0,.089-.137.157a1.227,1.227,0,0,0-.437.349,14.324,14.324,0,0,1-1.2,1.148,12.552,12.552,0,0,0,1.046.882,14.739,14.739,0,0,0,1.347-1.306,3.344,3.344,0,0,0,.376-.54,5.306,5.306,0,0,1,.67.431q.13.109.13.164v.021a.252.252,0,0,1-.185.164,1.176,1.176,0,0,0-.417.308,14.732,14.732,0,0,1-1.312,1.162A14.409,14.409,0,0,0,94.329,34Zm-.335,6.433a.1.1,0,0,1-.109.109l-1.839-.027H83.788l-1.832.027q-.116,0-.116-.109v-.595q0-.109.116-.109l1.832.027h5.038q.362-.595.677-1.217a3.484,3.484,0,0,0,.267-.786,6.731,6.731,0,0,1,.813.321.172.172,0,0,1,.123.157q0,.068-.123.164a1.064,1.064,0,0,0-.287.383q-.5.848-.588.978h2.338l1.839-.027a.1.1,0,0,1,.109.109Zm-3.931-7.089q0,.109-.1.109l-1.4-.027H87.117l-1.381.027q-.116,0-.116-.109V32.8q0-.109.116-.109l1.381.027H88.56l1.4-.027q.1,0,.1.109Zm-3.35,5.838a.336.336,0,0,1,.021.082q0,.048-.157.13l-.369.185a.6.6,0,0,1-.171.055q-.048,0-.082-.089a5.968,5.968,0,0,0-.67-1.326.188.188,0,0,1-.034-.075q0-.041.15-.109l.362-.164a.383.383,0,0,1,.144-.055q.034,0,.1.082A7.463,7.463,0,0,1,86.714,39.187Zm21.841.28a1.981,1.981,0,0,0-.41.52q-.1.185-.15.185a.434.434,0,0,1-.185-.109,9.069,9.069,0,0,1-3.117-4.806v.95q0,1.142.027,2.434.027.875.027,1.183a2.079,2.079,0,0,1-.075.649.727.727,0,0,1-.287.355,2.839,2.839,0,0,1-1.374.239.507.507,0,0,1-.267-.041.769.769,0,0,1-.082-.239,1.6,1.6,0,0,0-.28-.6,7.663,7.663,0,0,0,.909.055.852.852,0,0,0,.561-.123.567.567,0,0,0,.109-.41V37.771a18.139,18.139,0,0,1-2.229,1.586,1.4,1.4,0,0,0-.444.335.173.173,0,0,1-.144.1.172.172,0,0,1-.15-.082,6.218,6.218,0,0,1-.424-.684,5.5,5.5,0,0,0,.759-.342,17.616,17.616,0,0,0,2.632-1.818V33.937h-1.2l-1.894.027a.1.1,0,0,1-.109-.109v-.561a.1.1,0,0,1,.109-.109l1.894.027h2.926l.1-1.347h-2.352l-1.456.027a.1.1,0,0,1-.109-.109v-.547a.1.1,0,0,1,.109-.109l1.456.027h2.393l.1-1.265h-2.8l-1.552.027q-.116,0-.116-.109v-.561q0-.109.116-.109l1.552.027H105.1l1.559-.027a.109.109,0,0,1,.123.123q-.027.219-.048.526-.034.376-.041.438l-.219,2.987,1.736-.027q.123,0,.123.109v.561q0,.109-.123.109l-1.894-.027h-1.538a11.891,11.891,0,0,0,.964,2.55,10.69,10.69,0,0,0,1.2-1.429,2.521,2.521,0,0,0,.308-.547,4.052,4.052,0,0,1,.608.417.323.323,0,0,1,.109.2q0,.068-.157.171a1.885,1.885,0,0,0-.417.4,10.3,10.3,0,0,1-1.306,1.388A7.945,7.945,0,0,0,108.555,39.467Zm-7.725-4.409q0,.109-.116.109l-1.456-.027h-.321v3.869a17.041,17.041,0,0,0,1.682-.649,2.2,2.2,0,0,0-.068.52.411.411,0,0,1-.062.273.57.57,0,0,1-.205.1q-1.429.554-3.322,1.094a1.753,1.753,0,0,0-.52.212.333.333,0,0,1-.185.082.153.153,0,0,1-.164-.109q-.1-.246-.267-.772a8.4,8.4,0,0,0,1.066-.178q.978-.239,1.271-.328V35.14h-.547l-1.456.027a.1.1,0,0,1-.109-.109v-.533a.1.1,0,0,1,.109-.109l1.456.027h.547V32.918h-.1l-1.189.027q-.116,0-.116-.13v-.5a.1.1,0,0,1,.116-.116l1.189.027h1.08l1.176-.027q.109,0,.109.116v.5q0,.13-.109.13l-1.176-.027h-.212v1.524h.321l1.456-.027q.116,0,.116.109Zm.232-3.985a1,1,0,0,0-.362.444q-.1.185-.144.185a1.16,1.16,0,0,1-.212-.144A10.816,10.816,0,0,1,98.711,29.7a12.423,12.423,0,0,1-2.468,2.789.546.546,0,0,1-.205.109q-.082,0-.144-.185a1.241,1.241,0,0,0-.321-.485,8.657,8.657,0,0,0,2.475-2.707,2.053,2.053,0,0,0,.3-.752,4.523,4.523,0,0,1,.807.226q.144.041.144.123a.216.216,0,0,1-.13.185l-.109.082A9.861,9.861,0,0,0,101.063,31.072Zm-3.568,7.109q.007.055.007.068,0,.062-.15.123l-.335.144a.478.478,0,0,1-.137.034q-.062,0-.075-.1a10.431,10.431,0,0,0-.472-2.167.207.207,0,0,1-.021-.075q0-.055.171-.116l.294-.116a.559.559,0,0,1,.137-.034q.041,0,.075.075A11.889,11.889,0,0,1,97.494,38.182Zm3.37-2.017a.236.236,0,0,1-.109.164.979.979,0,0,0-.212.4q-.232.718-.451,1.23-.068.2-.123.2a.466.466,0,0,1-.15-.062,2.436,2.436,0,0,0-.437-.137,9.51,9.51,0,0,0,.547-1.654,2.009,2.009,0,0,0,.068-.526,6.211,6.211,0,0,1,.745.246Q100.864,36.09,100.864,36.165Zm2.215.123a.207.207,0,0,1,.021.075q0,.041-.123.137l-.28.226a.732.732,0,0,1-.164.1q-.034,0-.082-.1a6.081,6.081,0,0,0-1.053-1.668.112.112,0,0,1-.041-.068q0-.041.123-.13l.294-.191a.279.279,0,0,1,.123-.068q.041,0,.1.068A8.213,8.213,0,0,1,103.079,36.288Zm7.649-7.321h1.046q-.239,7.191-.239,8.668a2.136,2.136,0,0,0,.458,1.579,2.222,2.222,0,0,0,1.545.424,3.218,3.218,0,0,0,2.44-.943,5.471,5.471,0,0,0,1.217-2.673l.95.479q-.93,4.074-4.58,4.074a3.2,3.2,0,0,1-2.4-.718,3.1,3.1,0,0,1-.608-2.153q0-.766.062-3.753Q110.7,30.334,110.729,28.967Zm11.266,2.98q-1.155.062-2.365.062v-.882q1.4,0,2.509-.062.191-1.422.267-2.447l1.032.1q-.109,1.025-.321,2.311,1.36-.089,3.1-.239l.014.882q-1.429.15-3.254.239a53.168,53.168,0,0,1-2.208,8.524l-.978-.335A47.881,47.881,0,0,0,121.994,31.947Zm1.709,5.38.868.068a3.679,3.679,0,0,0-.082.786,1.075,1.075,0,0,0,.513,1.08,4.218,4.218,0,0,0,1.559.191,16.519,16.519,0,0,0,2.167-.109l.055.964q-.834.082-2.044.082a4.645,4.645,0,0,1-2.5-.472,1.737,1.737,0,0,1-.636-1.531A5.222,5.222,0,0,1,123.7,37.327Zm.711-2.994V33.4a40.055,40.055,0,0,1,4.259-.191v.9A32.162,32.162,0,0,0,124.414,34.333Zm18.874,5.838a1.739,1.739,0,0,0-.417.533q-.1.2-.171.2a.428.428,0,0,1-.205-.1,8.852,8.852,0,0,1-2.652-2.823,10.432,10.432,0,0,1-1.114-3.233h-1.258v4.662a18.217,18.217,0,0,0,2.3-.868q-.048.294-.068.561a.513.513,0,0,1-.048.26.43.43,0,0,1-.191.1q-1.565.615-3.425,1.148a1.2,1.2,0,0,0-.506.2.224.224,0,0,1-.164.068q-.082,0-.144-.123a6.643,6.643,0,0,1-.28-.772,10.043,10.043,0,0,0,1.189-.205s.1-.025.273-.062q.144-.034.246-.068V31.708l-.027-2.488a.1.1,0,0,1,.109-.109l1.682.027h1.969l1.531-.027a.1.1,0,0,1,.109.109L142,30.73v2.44l.027,1.5a.1.1,0,0,1-.109.109l-1.531-.034h-.937a10.849,10.849,0,0,0,.759,2.3,11.675,11.675,0,0,0,1.62-1.34,3.386,3.386,0,0,0,.41-.52,3.248,3.248,0,0,1,.6.479.276.276,0,0,1,.082.164q0,.1-.15.171a3.613,3.613,0,0,0-.649.472,17.473,17.473,0,0,1-1.565,1.217A7.823,7.823,0,0,0,143.288,40.171ZM141.2,34.039V32.269h-3.732v1.771Zm0-2.481v-1.7h-3.732v1.7Zm-5.25,6.665a2.217,2.217,0,0,0-.055.52.549.549,0,0,1-.055.273.527.527,0,0,1-.226.089q-1.422.479-3.767,1.135a1.2,1.2,0,0,0-.52.267.249.249,0,0,1-.185.068q-.1,0-.164-.15a5.664,5.664,0,0,1-.267-.772A6.042,6.042,0,0,0,132,39.412q.41-.089,1.066-.28V35.017h-.711l-1.456.027q-.116,0-.116-.109V34.4q0-.109.116-.109l1.456.027h.711V32.836h-.123l-1.21.027a.1.1,0,0,1-.109-.109v-.52q0-.116.109-.116l1.21.027h1.2l1.2-.027q.109,0,.109.116v.52a.1.1,0,0,1-.109.109l-1.2-.027h-.294v1.483h.533l1.456-.027a.1.1,0,0,1,.109.109v.533a.1.1,0,0,1-.109.109l-1.456-.027h-.533v3.9Q135.276,38.482,135.953,38.223Zm.226-7.068a1.573,1.573,0,0,0-.39.4q-.13.212-.171.212a.55.55,0,0,1-.212-.137,11.2,11.2,0,0,1-1.8-1.976,12.969,12.969,0,0,1-2.563,2.83.626.626,0,0,1-.191.109q-.075,0-.157-.212a1.39,1.39,0,0,0-.321-.485,8.751,8.751,0,0,0,2.591-2.748,2.376,2.376,0,0,0,.294-.725,5.134,5.134,0,0,1,.827.191q.137.048.137.13t-.123.164l-.116.1A10.48,10.48,0,0,0,136.179,31.154Zm-3.849,7V38.2q0,.082-.171.137l-.349.13a.435.435,0,0,1-.116.027q-.055,0-.068-.1a9.351,9.351,0,0,0-.513-2.153.161.161,0,0,1-.021-.068q0-.055.13-.1l.362-.13a.676.676,0,0,1,.116-.027q.048,0,.082.082A9.531,9.531,0,0,1,132.33,38.154Zm3.555-2.017a.238.238,0,0,1-.1.137.666.666,0,0,0-.171.294q-.191.588-.492,1.347-.1.2-.164.2a.872.872,0,0,1-.2-.068,1.049,1.049,0,0,0-.362-.116,12.159,12.159,0,0,0,.574-1.682,2.3,2.3,0,0,0,.082-.492,4.956,4.956,0,0,1,.684.239Q135.885,36.069,135.885,36.138Zm21.15-2.618q0,.109-.116.109l-1.9-.027h-.451v3.233l.027,2.577a1.313,1.313,0,0,1-.376,1.121,4.079,4.079,0,0,1-1.948.267q-.219,0-.26-.048a.576.576,0,0,1-.089-.246,2.03,2.03,0,0,0-.294-.629q.622.055,1.34.055a1.059,1.059,0,0,0,.615-.116.517.517,0,0,0,.13-.417V33.6h-2.536l-1.914.027q-.116,0-.116-.109V32.9q0-.109.116-.109l1.914.027h3.842l1.9-.027q.116,0,.116.109Zm-8.326-1.36a.207.207,0,0,1-.1.157.993.993,0,0,0-.308.335q-.451.7-.786,1.135v5.277l.027,1.8a.1.1,0,0,1-.109.109h-.677a.1.1,0,0,1-.109-.109l.027-1.8V36.555q0-.752.027-1.818a16,16,0,0,1-1.511,1.442.49.49,0,0,1-.2.123q-.055,0-.137-.171a1.8,1.8,0,0,0-.362-.485,11.989,11.989,0,0,0,3.063-3.4,2.66,2.66,0,0,0,.294-.67,5.051,5.051,0,0,1,.731.4A.256.256,0,0,1,148.709,32.159Zm7.588-2.064a.1.1,0,0,1-.109.109l-1.736-.027h-2.632L150.1,30.2a.1.1,0,0,1-.109-.109v-.622a.1.1,0,0,1,.109-.109l1.723.027h2.632l1.736-.027a.1.1,0,0,1,.109.109Zm-7.656-1.087q0,.089-.171.185a1.97,1.97,0,0,0-.335.362,13.477,13.477,0,0,1-2.728,2.6.34.34,0,0,1-.2.1q-.075,0-.191-.191a1.884,1.884,0,0,0-.41-.437,10.483,10.483,0,0,0,2.83-2.591,2.16,2.16,0,0,0,.308-.615,4.347,4.347,0,0,1,.772.424Q148.641,28.926,148.641,29.008ZM169.7,40.226q0,.109-.1.109h-.7a.1.1,0,0,1-.109-.109V39.036h-8.23v1.2q0,.109-.123.109h-.69q-.1,0-.1-.109l.014-4.45V33.2l-.014-3.322q0-.109.1-.109l2,.027H167.6l2-.027q.1,0,.1.109l-.014,3.028v2.885Zm-.909-2.017V30.621h-8.23v7.588Zm16.058,2.126a.1.1,0,0,1-.109.109l-1.962-.027h-6.289l-1.955.027q-.116,0-.116-.109V39.74q0-.109.116-.109l1.955.027h2.536V37.744h-1.47l-1.935.027q-.123,0-.123-.109v-.595q0-.109.123-.109l1.935.027h1.47v-4.1a10.455,10.455,0,0,0-.1-1.682,8.664,8.664,0,0,1,.882.082q.171.027.171.144a1.013,1.013,0,0,1-.089.294,5.3,5.3,0,0,0-.068,1.162v4.1h1.846l1.921-.027q.123,0,.123.109v.595q0,.109-.123.109l-1.921-.027h-1.846v1.914h2.953l1.962-.027a.1.1,0,0,1,.109.109Zm-.082-9.782a.1.1,0,0,1-.109.109l-1.935-.027h-8.148V32.85a31.276,31.276,0,0,1-.239,4.32,10.108,10.108,0,0,1-1.217,3.541q-.082.171-.144.171t-.178-.137a1.744,1.744,0,0,0-.547-.424,8.523,8.523,0,0,0,1.271-3.486,32.065,32.065,0,0,0,.2-4.1l-.027-2.775a.1.1,0,0,1,.109-.109l1.976.027h2.762v-.492a4.876,4.876,0,0,0-.1-1.148q.622.027.95.075.171.021.171.123a.864.864,0,0,1-.082.253,1.757,1.757,0,0,0-.089.67v.52h3.336l1.935-.027a.1.1,0,0,1,.109.109Zm-.321,5.024a1.169,1.169,0,0,0-.451.39q-.1.171-.164.171t-.2-.137a9.483,9.483,0,0,1-1.5-1.8,8.029,8.029,0,0,1-1.217,1.887q-.137.157-.171.157a.55.55,0,0,1-.212-.137,1.208,1.208,0,0,0-.431-.267,7.491,7.491,0,0,0,1.8-3.179,3.647,3.647,0,0,0,.116-.827,5.1,5.1,0,0,1,.711.212q.185.062.185.15a.232.232,0,0,1-.082.157.941.941,0,0,0-.2.444q-.055.212-.2.649A7.736,7.736,0,0,0,184.44,35.577Zm-5.756-.1a1.8,1.8,0,0,0-.39.383q-.109.164-.171.164t-.2-.137a9.353,9.353,0,0,1-1.189-1.586,6.878,6.878,0,0,1-1.128,1.777q-.144.185-.212.185-.041,0-.144-.1a1.433,1.433,0,0,0-.485-.321,7.186,7.186,0,0,0,1.764-3.192,3.254,3.254,0,0,0,.109-.813,4.974,4.974,0,0,1,.711.185q.2.075.2.164a.232.232,0,0,1-.068.157,1.138,1.138,0,0,0-.212.444q-.041.164-.116.41t-.109.335A7.24,7.24,0,0,0,178.685,35.475Zm11.341.957.957.082a5.458,5.458,0,0,0-.157,1.258,1.054,1.054,0,0,0,.444.978,3.167,3.167,0,0,0,1.545.273,25.984,25.984,0,0,0,2.769-.144l.027,1.012q-1.025.082-2.659.082a4.349,4.349,0,0,1-2.44-.492,1.783,1.783,0,0,1-.636-1.552A7.219,7.219,0,0,1,190.025,36.432Zm.28-4.676V30.8q1.75-.137,3.541-.137.889,0,1.668.041v.95q-.725-.055-1.764-.055Q191.96,31.6,190.306,31.756Zm-1.511-2.413a36.343,36.343,0,0,0-.786,6.61,24.83,24.83,0,0,0,.342,4.382l-1,.082a28.85,28.85,0,0,1-.321-4.491,40.269,40.269,0,0,1,.772-6.665Zm15.019,2.16q-.041,1.518,0,3.035a5.324,5.324,0,0,1,.308,1.777,3.687,3.687,0,0,1-1.306,3.069,7.744,7.744,0,0,1-3.274,1.271l-.588-.841a6.334,6.334,0,0,0,3.411-1.381,2.741,2.741,0,0,0,.807-1.88,1.856,1.856,0,0,1-1.8.882,2.2,2.2,0,0,1-1.531-.574,2.3,2.3,0,0,1,.123-3.356,2.469,2.469,0,0,1,1.559-.492,2,2,0,0,1,1.36.39q-.027-1.312-.027-1.873-2.249.034-5.435.239l-.014-.9q2.584-.1,5.435-.171V28.8l1,.014q0,.629-.027,1.859,2.324-.027,3.363-.027v.9Q205.5,31.5,203.813,31.5Zm-2.338,2.3a1.322,1.322,0,0,0-.984.4,1.413,1.413,0,0,0-.39,1.046,1.237,1.237,0,0,0,.444,1,1.288,1.288,0,0,0,.848.294,1.406,1.406,0,0,0,1.1-.41,1.3,1.3,0,0,0,.314-.916Q202.809,33.8,201.476,33.8Zm12.175-1.641.69-.349a18.706,18.706,0,0,1,1.258,2.27l-.731.376A12.74,12.74,0,0,0,213.65,32.159Zm1.47-.656.677-.308a11.008,11.008,0,0,1,1.2,2.181l-.7.369A13.251,13.251,0,0,0,215.12,31.5Zm-1.073-2.563.9.615q-2.119,2.454-4.382,4.607a.681.681,0,0,0-.267.479q0,.226.376.513a45.7,45.7,0,0,1,4.9,4.71l-.868.725a50.558,50.558,0,0,0-5.024-5.065,1.118,1.118,0,0,1-.465-.841,1.139,1.139,0,0,1,.362-.827A64.9,64.9,0,0,0,214.047,28.939Zm7.492,7.492.957.082a5.458,5.458,0,0,0-.157,1.258,1.054,1.054,0,0,0,.444.978,3.167,3.167,0,0,0,1.545.273,25.984,25.984,0,0,0,2.769-.144l.027,1.012q-1.025.082-2.659.082a4.349,4.349,0,0,1-2.44-.492,1.783,1.783,0,0,1-.636-1.552A7.219,7.219,0,0,1,221.539,36.432Zm.28-4.676V30.8q1.75-.137,3.541-.137.889,0,1.668.041v.95q-.725-.055-1.764-.055Q223.474,31.6,221.819,31.756Zm-1.511-2.413a36.343,36.343,0,0,0-.786,6.61,24.83,24.83,0,0,0,.342,4.382l-1,.082a28.85,28.85,0,0,1-.321-4.491,40.269,40.269,0,0,1,.772-6.665Zm20.843,4.525q0,.109-.116.109l-1.859-.027h-6.1q-.15.492-.321.971h4.662l1.941-.027q.116,0,.116.123l-.027,1.8V38.2l.027,2.68q0,.1-.116.1h-.615q-.109,0-.109-.1v-.561h-5.462v.6q0,.1-.109.1h-.574q-.109,0-.109-.1l.027-2.762V35.775a11.369,11.369,0,0,1-2.83,3.849.456.456,0,0,1-.212.123q-.062,0-.191-.15a1.805,1.805,0,0,0-.465-.369,9.979,9.979,0,0,0,3.541-5.277h-1.3l-1.853.027a.1.1,0,0,1-.109-.109v-.533a.1.1,0,0,1,.109-.109l1.853.027h3.65V32.187h-2.044l-1.976.027q-.1,0-.1-.109V31.6q0-.109.1-.109l1.976.027H234.6v-.984h-2.687l-1.962.027a.1.1,0,0,1-.109-.109v-.52a.1.1,0,0,1,.109-.109l1.962.027h1.066a7.059,7.059,0,0,0-.786-1.08.229.229,0,0,1-.055-.089q0-.048.123-.1l.4-.2a.368.368,0,0,1,.123-.041.15.15,0,0,1,.1.055,7.5,7.5,0,0,1,1.039,1.456h2.311a6.5,6.5,0,0,0,.547-.991,3.687,3.687,0,0,0,.191-.561,5.323,5.323,0,0,1,.772.205q.157.068.157.144t-.13.171a.993.993,0,0,0-.239.294q-.308.513-.479.738h1.306l1.948-.027a.1.1,0,0,1,.109.109v.52a.1.1,0,0,1-.109.109l-1.948-.027h-2.926v.984h2.112l1.962-.027q.123,0,.123.109V32.1q0,.109-.123.109l-1.962-.027h-2.112v1.066h3.753l1.859-.027q.116,0,.116.109Zm-2.522,5.783v-1h-5.462v1Zm0-1.586v-.95h-5.462v.95Zm0-1.538v-.937h-5.462v.937Zm16.256,3.821q0,.109-.116.109l-1.887-.027h-7.588l-1.894.027a.1.1,0,0,1-.109-.109V39.74a.1.1,0,0,1,.109-.109l1.894.027h3.261V36h-2.789l-1.928.027q-.116,0-.116-.109v-.595q0-.109.116-.109l1.928.027h2.789v-1.75H247.7l-1.75.014q-.109,0-.109-.1v-.588a.1.1,0,0,1,.109-.109l1.75.027h2.755l1.771-.027a.1.1,0,0,1,.109.109V33.4q0,.1-.109.1l-1.771-.014h-1.032v1.75h3.035l1.935-.027a.1.1,0,0,1,.109.109v.595a.081.081,0,0,1-.109.109L252.458,36h-3.035v3.657h3.459l1.887-.027q.116,0,.116.109ZM255.753,33a1.6,1.6,0,0,0-.41.547q-.116.212-.185.212a1.127,1.127,0,0,1-.219-.068,13.179,13.179,0,0,1-5.913-4.3,14.409,14.409,0,0,1-5.708,4.437.7.7,0,0,1-.2.062q-.068,0-.191-.191a1.314,1.314,0,0,0-.451-.431,13.147,13.147,0,0,0,5.77-4.286,3.042,3.042,0,0,0,.4-.779,4.172,4.172,0,0,1,.9.191q.2.068.2.185,0,.068-.1.123a.378.378,0,0,0-.13.089,11.238,11.238,0,0,0,3.049,2.769A15.984,15.984,0,0,0,255.753,33Zm-2.762,3.992q0,.068-.137.178a1.049,1.049,0,0,0-.226.342,13.261,13.261,0,0,1-1,1.675q-.116.144-.164.144a.433.433,0,0,1-.2-.1,1.184,1.184,0,0,0-.472-.226,9.909,9.909,0,0,0,1.1-1.88,3.2,3.2,0,0,0,.212-.615,4.029,4.029,0,0,1,.711.294Q252.991,36.91,252.991,36.992Zm-5.934,1.647a.268.268,0,0,1,.021.089q0,.062-.137.123l-.431.212a.832.832,0,0,1-.185.075q-.041,0-.068-.089a8.837,8.837,0,0,0-1-2,.133.133,0,0,1-.027-.068q0-.048.157-.13l.376-.164a.631.631,0,0,1,.157-.062q.048,0,.1.075A9.842,9.842,0,0,1,247.058,38.64Zm16.27-7.137q-.041,1.518,0,3.035a5.324,5.324,0,0,1,.308,1.777,3.687,3.687,0,0,1-1.306,3.069,7.744,7.744,0,0,1-3.274,1.271l-.588-.841a6.334,6.334,0,0,0,3.411-1.381,2.741,2.741,0,0,0,.807-1.88,1.856,1.856,0,0,1-1.8.882,2.2,2.2,0,0,1-1.531-.574,2.3,2.3,0,0,1,.123-3.356,2.469,2.469,0,0,1,1.559-.492,2,2,0,0,1,1.36.39q-.027-1.312-.027-1.873-2.249.034-5.435.239l-.014-.9q2.584-.1,5.435-.171V28.8l1,.014q0,.629-.027,1.859,2.324-.027,3.363-.027v.9Q265.009,31.5,263.327,31.5Zm-2.338,2.3a1.322,1.322,0,0,0-.984.4,1.413,1.413,0,0,0-.39,1.046,1.237,1.237,0,0,0,.444,1,1.288,1.288,0,0,0,.848.294,1.405,1.405,0,0,0,1.1-.41,1.3,1.3,0,0,0,.314-.916Q262.322,33.8,260.989,33.8Zm8.627-4.259q1.853-.014,5.694-.2l.588.731q-2.728,2.769-4.327,4.156l-.629.547.055.041.718-.485a4.614,4.614,0,0,1,1.976-.533,3.547,3.547,0,0,1,2.707,1,3.071,3.071,0,0,1,.807,2.208,3.316,3.316,0,0,1-1.278,2.844,5.317,5.317,0,0,1-3.22.848q-2.741,0-2.741-1.859a1.625,1.625,0,0,1,.588-1.312,2.172,2.172,0,0,1,1.429-.451,2.3,2.3,0,0,1,1.777.752,3.444,3.444,0,0,1,.786,1.682,2.579,2.579,0,0,0,1.258-.978,2.922,2.922,0,0,0,.362-1.538,2.231,2.231,0,0,0-.868-1.873,2.671,2.671,0,0,0-1.668-.526,4.9,4.9,0,0,0-3.384,1.36,12.446,12.446,0,0,0-1.162,1.217l-.827-.67q3.35-3.445,6.132-6.275-2.01.15-4.771.226Zm3.944,10.247a3.024,3.024,0,0,0-.622-1.429,1.275,1.275,0,0,0-.984-.472,1.119,1.119,0,0,0-.807.3.828.828,0,0,0-.273.622.87.87,0,0,0,.465.827,2.872,2.872,0,0,0,1.3.226A6.036,6.036,0,0,0,273.561,39.788Zm11.006-8.941a22.039,22.039,0,0,1-1.483,7.362,2.1,2.1,0,0,1-1.894,1.483,1.749,1.749,0,0,1-1.606-1.06,6,6,0,0,1-.533-2.789,7.336,7.336,0,0,1,.458-2.618,5.114,5.114,0,0,1,1.039-1.723,4.675,4.675,0,0,1,1.716-1.128,5.426,5.426,0,0,1,1.969-.369,4.139,4.139,0,0,1,3.555,1.5,6.371,6.371,0,0,1,.964,3.808,5.114,5.114,0,0,1-1.121,3.4,5.6,5.6,0,0,1-3.274,1.784l-.485-.841a4.243,4.243,0,0,0,3.835-4.607,4.671,4.671,0,0,0-1.032-3.3A2.809,2.809,0,0,0,284.566,30.847Zm-1.053.109a3.075,3.075,0,0,0-1.292.4,4.459,4.459,0,0,0-1.06.93,5.252,5.252,0,0,0-1.148,3.582,4.6,4.6,0,0,0,.41,2.126q.328.615.752.615a.82.82,0,0,0,.622-.26,2.544,2.544,0,0,0,.444-.759A19.819,19.819,0,0,0,283.514,30.956Zm13.774,1.887.718-.273a18.274,18.274,0,0,1,1.032,2.365l-.752.308A15.124,15.124,0,0,0,297.288,32.843Zm1.586-.472.7-.253a11.567,11.567,0,0,1,1,2.3l-.731.294A13.489,13.489,0,0,0,298.874,32.371Zm.39-2.632.027.964a5.312,5.312,0,0,0-2.311.629,5.934,5.934,0,0,0-2.071,1.962,4.817,4.817,0,0,0-.813,2.659,2.958,2.958,0,0,0,1.285,2.529,6.169,6.169,0,0,0,2.933,1l-.239,1a6.1,6.1,0,0,1-3.63-1.381,3.89,3.89,0,0,1-1.312-3.049,5.709,5.709,0,0,1,2.994-5.024l.759-.335-.014-.027-.656.109q-1.189.068-5.66.479l-.082-.923Q292.476,30.177,299.264,29.739Zm12.79.588a.4.4,0,0,1-.137.226,5.119,5.119,0,0,0-.588.991,19.13,19.13,0,0,1-2.755,4.313,18.531,18.531,0,0,1-2.153,2.03v.882q0,.608.362.766a3.778,3.778,0,0,0,1.374.171,3.429,3.429,0,0,0,1.661-.267,1.082,1.082,0,0,0,.444-.725,7.034,7.034,0,0,0,.109-1.456q0-.185-.007-.39a2.33,2.33,0,0,0,.67.308q.232.062.232.212,0,.021-.007.123a6.366,6.366,0,0,1-.26,1.935,1.462,1.462,0,0,1-.581.711,4.551,4.551,0,0,1-2.283.39,5.058,5.058,0,0,1-1.928-.253,1.074,1.074,0,0,1-.513-.451,1.761,1.761,0,0,1-.157-.82v-.465a17.619,17.619,0,0,1-3.056,1.7,1.042,1.042,0,0,1-.226.068q-.055,0-.191-.2a2.084,2.084,0,0,0-.479-.513,15.633,15.633,0,0,0,3.951-2.153V33.239a6.3,6.3,0,0,0-.089-1.176,5.573,5.573,0,0,1,.943.123q.178.041.178.13a.571.571,0,0,1-.068.212,2.447,2.447,0,0,0-.082.854v3.37a12.581,12.581,0,0,0,1.456-1.4,17.417,17.417,0,0,0,2.618-4.115,5.959,5.959,0,0,0,.526-1.524,5.194,5.194,0,0,1,.9.417A.246.246,0,0,1,312.054,30.327Zm1.989,7.362a.259.259,0,0,1,.027.1q0,.082-.178.157l-.437.2a.561.561,0,0,1-.191.075q-.048,0-.075-.089a15.3,15.3,0,0,0-1.75-4.19.168.168,0,0,1-.027-.075q0-.062.171-.15l.4-.191a.37.37,0,0,1,.137-.048q.041,0,.089.089A16.835,16.835,0,0,1,314.043,37.689Zm-9.912-3.89a16.015,16.015,0,0,1-1.442,4.129q-.034.068-.082.068a.627.627,0,0,1-.164-.055l-.451-.185q-.171-.075-.171-.15a.161.161,0,0,1,.021-.068,10.826,10.826,0,0,0,.937-2.078,17.485,17.485,0,0,0,.472-1.9q.021-.082.062-.082l.191.041.438.1q.2.041.2.137A.289.289,0,0,1,304.131,33.8Zm5.031-3.432q.068.048.068.082a.59.59,0,0,1-.1.185l-.232.39q-.116.178-.164.178-.027,0-.075-.048a11.2,11.2,0,0,0-2.926-1.709q-.075-.034-.075-.068a.465.465,0,0,1,.075-.157l.253-.362q.089-.137.137-.137a.207.207,0,0,1,.068.021A13.419,13.419,0,0,1,309.162,30.368Zm18.689-.656a.1.1,0,0,1-.109.109l-1.853-.027h-2.324v1.374h.95l2.01-.027a.1.1,0,0,1,.109.109l-.027,1.025v.964l.027,1.019a.1.1,0,0,1-.109.109l-2.01-.027h-5.4l-2.017.027a.1.1,0,0,1-.109-.109l.027-1.019v-.964l-.027-1.025a.1.1,0,0,1,.109-.109l2.017.027h.772V29.794h-2.1l-1.846.027q-.116,0-.116-.109v-.595q0-.109.116-.109l1.846.027h8.1l1.853-.027a.1.1,0,0,1,.109.109Zm-2.058,3.972V31.824h-2.229v1.859Zm-3.015,0V31.824h-2.105v1.859Zm-2.892,0V31.824H317.83v1.859Zm2.892-2.516V29.794h-2.105v1.374Zm5.257,5.325q0,.109-.116.109l-1.791-.027h-1.552a7.089,7.089,0,0,1-1.456,2.085q1.429.485,3.664,1.5.075.034.075.075a.316.316,0,0,1-.075.15l-.28.39q-.137.185-.171.185a.168.168,0,0,1-.075-.027,25.082,25.082,0,0,0-3.78-1.709,11.507,11.507,0,0,1-5.8,1.764l-.109.007a.244.244,0,0,1-.178-.055,1.153,1.153,0,0,1-.109-.205,1.436,1.436,0,0,0-.335-.472,12.215,12.215,0,0,0,5.544-1.347q-1.312-.355-2.461-.574-.123.164-.321.39a.268.268,0,0,1-.191.089.608.608,0,0,1-.116-.014l-.479-.116q-.1-.014-.1-.1,0-.041.137-.185.3-.328.643-.779.342-.424.772-1.053h-1.873l-1.8.027a.1.1,0,0,1-.109-.109v-.581a.1.1,0,0,1,.109-.109l1.8.027h2.352l.178-.308a4.793,4.793,0,0,0,.506-1.121,3.967,3.967,0,0,1,.841.226q.15.055.15.15t-.137.185a2,2,0,0,0-.465.6l-.164.267h5.359l1.791-.027q.116,0,.116.109Zm-4.409.082h-3.336q-.485.759-.786,1.148,1.511.3,2.721.656A5.852,5.852,0,0,0,323.627,36.575ZM4.546,56.113q.82-.068,2.071-.2l.014.868q-1.142.137-2.3.191a38.417,38.417,0,0,1-2.468,6.487L.95,63.038a29.976,29.976,0,0,0,2.379-6.016q-1.135.062-2.27.041L1.032,56.2q1.176.041,2.522-.027Q3.828,55,4.02,53.8l1.019.123Q4.847,54.869,4.546,56.113Zm3,5.79q-.123-1.5-.144-3.568h.964q0,1.791.157,3.794a9.264,9.264,0,0,1,2.563,1.6l-.52.95a7.662,7.662,0,0,0-2.017-1.524v.232q0,2.229-2.475,2.229a2.629,2.629,0,0,1-1.846-.581,1.665,1.665,0,0,1-.54-1.292,1.7,1.7,0,0,1,.889-1.5,3.244,3.244,0,0,1,1.757-.458A5.891,5.891,0,0,1,7.547,61.9Zm0,.93a4.031,4.031,0,0,0-1.162-.2,2.4,2.4,0,0,0-1.429.349.867.867,0,0,0-.383.731.886.886,0,0,0,.41.772,1.931,1.931,0,0,0,1.107.273,1.305,1.305,0,0,0,1.47-1.483ZM7.6,56.476l.444-.8a14.091,14.091,0,0,1,3.192,1.5l-.513.868A12.767,12.767,0,0,0,7.6,56.476ZM16.8,64.2q0,.116-.109.116h-.581Q16,64.316,16,64.2v-.7H14.185v1.162a.1.1,0,0,1-.109.109H13.48a.1.1,0,0,1-.109-.109l.027-4.32V57.59l-.027-3.274a.1.1,0,0,1,.109-.109l1.121.027h.971l1.121-.027a.1.1,0,0,1,.109.109l-.027,2.83v2.905ZM16,62.758v-3.63H14.185v3.63ZM16,58.4V54.979H14.185V58.4Zm9.283.089a.1.1,0,0,1-.109.109l-1.935-.027H19.264L17.35,58.6a.1.1,0,0,1-.109-.109v-.581a.1.1,0,0,1,.109-.109l1.914.027h1.306V55.97H19.7L17.91,56q-.13,0-.13-.116v-.561q0-.123.13-.123l1.791.027h.868a11.93,11.93,0,0,0-.1-1.791q.567.021.909.068.171.027.171.123s-.023.089-.068.253a5.578,5.578,0,0,0-.089,1.347h1.271l1.8-.027q.109,0,.109.123v.561q0,.116-.109.116l-1.8-.034H21.4v1.859h1.846l1.935-.027a.1.1,0,0,1,.109.109Zm-.171,2.5a.1.1,0,0,1-.109.109l-1.682-.027v1.9l.014,1.791a1.053,1.053,0,0,1-.39.937,3.4,3.4,0,0,1-1.627.239.487.487,0,0,1-.26-.041.592.592,0,0,1-.089-.226,1.986,1.986,0,0,0-.28-.629Q21.26,65.1,22,65.1q.492,0,.492-.513V61.069H19.332l-1.9.027q-.116,0-.116-.109v-.581q0-.1.116-.1l1.9.014H22.5V60.3a8.226,8.226,0,0,0-.1-1.483,6.171,6.171,0,0,1,.9.1q.185.021.185.116a.636.636,0,0,1-.082.232,3.673,3.673,0,0,0-.075,1v.068l1.682-.014q.109,0,.109.1Zm-4.56,2.57a.173.173,0,0,1,.027.082q0,.055-.1.13l-.376.253a.478.478,0,0,1-.164.089q-.041,0-.075-.062a8.338,8.338,0,0,0-1.34-1.75.131.131,0,0,1-.048-.082q0-.055.13-.13l.335-.212a.35.35,0,0,1,.13-.055.169.169,0,0,1,.1.041A8.419,8.419,0,0,1,20.556,63.558Zm9.769-2.126.957.082a5.458,5.458,0,0,0-.157,1.258,1.054,1.054,0,0,0,.444.978,3.167,3.167,0,0,0,1.545.273,25.984,25.984,0,0,0,2.769-.144l.027,1.012q-1.025.082-2.659.082a4.349,4.349,0,0,1-2.44-.492,1.783,1.783,0,0,1-.636-1.552A7.219,7.219,0,0,1,30.324,61.432Zm.28-4.676V55.8q1.75-.137,3.541-.137.889,0,1.668.041v.95q-.725-.055-1.764-.055Q32.259,56.6,30.6,56.756Zm-1.511-2.413a36.343,36.343,0,0,0-.786,6.61,24.829,24.829,0,0,0,.342,4.382l-1,.082a28.849,28.849,0,0,1-.321-4.491,40.268,40.268,0,0,1,.772-6.665ZM44.112,56.5q-.041,1.518,0,3.035a5.324,5.324,0,0,1,.308,1.777,3.687,3.687,0,0,1-1.306,3.069,7.744,7.744,0,0,1-3.274,1.271l-.588-.841a6.334,6.334,0,0,0,3.411-1.381,2.741,2.741,0,0,0,.807-1.88,1.856,1.856,0,0,1-1.8.882,2.2,2.2,0,0,1-1.531-.574,2.3,2.3,0,0,1,.123-3.356,2.469,2.469,0,0,1,1.559-.492,2,2,0,0,1,1.36.39q-.027-1.312-.027-1.873-2.249.034-5.435.239l-.014-.9q2.584-.1,5.435-.171V53.8l1,.014q0,.629-.027,1.859,2.324-.027,3.363-.027v.9Q45.794,56.5,44.112,56.5Zm-2.338,2.3a1.322,1.322,0,0,0-.984.4,1.413,1.413,0,0,0-.39,1.046,1.237,1.237,0,0,0,.444,1,1.288,1.288,0,0,0,.848.294,1.405,1.405,0,0,0,1.1-.41,1.3,1.3,0,0,0,.314-.916Q43.107,58.8,41.774,58.8Zm12.175-1.641.69-.349A18.707,18.707,0,0,1,55.9,59.08l-.731.376A12.74,12.74,0,0,0,53.949,57.159Zm1.47-.656L56.1,56.2a11.008,11.008,0,0,1,1.2,2.181l-.7.369A13.251,13.251,0,0,0,55.419,56.5Zm-1.073-2.563.9.615q-2.119,2.454-4.382,4.607a.681.681,0,0,0-.267.479q0,.226.376.513a45.7,45.7,0,0,1,4.9,4.71L55,65.588a50.558,50.558,0,0,0-5.024-5.065,1.118,1.118,0,0,1-.465-.841,1.139,1.139,0,0,1,.362-.827A64.9,64.9,0,0,0,54.346,53.939Zm7.492,7.492.957.082a5.458,5.458,0,0,0-.157,1.258,1.054,1.054,0,0,0,.444.978,3.167,3.167,0,0,0,1.545.273,25.984,25.984,0,0,0,2.769-.144l.027,1.012q-1.025.082-2.659.082a4.349,4.349,0,0,1-2.44-.492,1.783,1.783,0,0,1-.636-1.552A7.219,7.219,0,0,1,61.838,61.432Zm.28-4.676V55.8q1.75-.137,3.541-.137.889,0,1.668.041v.95Q66.6,56.6,65.563,56.6,63.772,56.6,62.118,56.756Zm-1.511-2.413a36.343,36.343,0,0,0-.786,6.61,24.829,24.829,0,0,0,.342,4.382l-1,.082a28.85,28.85,0,0,1-.321-4.491,40.269,40.269,0,0,1,.772-6.665Zm11.348,1.75V53.83h.964v2.208q1.511-.1,2.591-.219v.909q-1.224.123-2.591.205v2.707a8.692,8.692,0,0,1,2.646-.479,2.9,2.9,0,0,1,2.577,1.169,3.273,3.273,0,0,1,.533,1.894,2.654,2.654,0,0,1-1.3,2.591,6.067,6.067,0,0,1-2.707.465v-.9a3.954,3.954,0,0,0,2.167-.444,2.048,2.048,0,0,0,.772-1.825,2.11,2.11,0,0,0-.6-1.524,1.724,1.724,0,0,0-1.285-.561,7.652,7.652,0,0,0-2.8.533v3.609a1.437,1.437,0,0,1-.273,1,1.054,1.054,0,0,1-.786.26,2.259,2.259,0,0,1-1.189-.376,2.427,2.427,0,0,1-1.347-2.03q0-1.736,2.632-3.049v-3q-.813.048-2.434.075v-.9Q70.834,56.154,71.955,56.093Zm0,4.9a5.118,5.118,0,0,0-1.306,1.019,1.511,1.511,0,0,0-.39.984,1.078,1.078,0,0,0,.335.759,1.888,1.888,0,0,0,.69.458.9.9,0,0,0,.39.1q.28,0,.28-.465Zm3.9-5.64.6-.731a12.831,12.831,0,0,1,2.816,2.229l-.684.772A11,11,0,0,0,75.858,55.354Zm17.391,9.8a1.564,1.564,0,0,0-.417.458q-.123.2-.2.2a.576.576,0,0,1-.226-.123,8.738,8.738,0,0,1-3.315-6.077H87.972V64.33q1.039-.273,2.085-.649a1.618,1.618,0,0,0-.055.492.484.484,0,0,1-.041.267.751.751,0,0,1-.226.1q-1.408.465-2.885.813a1.436,1.436,0,0,0-.554.239.436.436,0,0,1-.185.082q-.1,0-.15-.137a8.014,8.014,0,0,1-.253-.8,13.2,13.2,0,0,0,1.449-.226V59.613H86q-.062,1.046-.171,1.887A9.938,9.938,0,0,1,84.4,65.54q-.109.157-.137.157t-.171-.137a1.5,1.5,0,0,0-.52-.39,7.975,7.975,0,0,0,1.47-3.965,29.668,29.668,0,0,0,.212-3.931l-.027-3.028a.1.1,0,0,1,.109-.109l1.887.027h3.445l1.866-.027a.1.1,0,0,1,.109.109v.608a.1.1,0,0,1-.109.109l-1.866-.027h-4.6v2.338q0,.588-.027,1.593h4.717l1.832-.027q.123,0,.123.109v.574q0,.116-.123.116l-1.832-.027h-.93a9.548,9.548,0,0,0,.636,2.29,10.881,10.881,0,0,0,1.189-.991,2.513,2.513,0,0,0,.431-.52,4.98,4.98,0,0,1,.547.506.2.2,0,0,1,.068.137q0,.116-.137.157a1.344,1.344,0,0,0-.451.28,14.507,14.507,0,0,1-1.354,1.053A6.4,6.4,0,0,0,93.249,65.157Zm-8.682-6a3.33,3.33,0,0,0-.041.533q.007.075.007.109a.272.272,0,0,1-.062.2.678.678,0,0,1-.205.123q-.41.2-1.224.561v1.682l.027,2.112a2.121,2.121,0,0,1-.1.766.818.818,0,0,1-.287.355,2.163,2.163,0,0,1-1.169.239H81.32a.445.445,0,0,1-.267-.048.533.533,0,0,1-.082-.219,1.909,1.909,0,0,0-.253-.615,7.4,7.4,0,0,0,.964.055.491.491,0,0,0,.444-.171.9.9,0,0,0,.1-.5V61.021q-.28.123-.8.314a1.443,1.443,0,0,0-.513.267.259.259,0,0,1-.171.082q-.089,0-.144-.13a5.309,5.309,0,0,1-.246-.813,10.148,10.148,0,0,0,1.244-.335l.629-.205V57.063h-.417l-1.292.027q-.109,0-.109-.116v-.588a.1.1,0,0,1,.109-.109l1.292.027h.417V55.156a10.574,10.574,0,0,0-.1-1.7q.335.014.9.075.171.021.171.123a.853.853,0,0,1-.089.267,5.317,5.317,0,0,0-.068,1.2V56.3h.068l1.292-.027a.1.1,0,0,1,.109.109v.588q0,.116-.109.116l-1.292-.027h-.068v2.81A16.2,16.2,0,0,0,84.567,59.162Zm7.267-2.071q0,.109-.1.109l-1.483-.027H88.532l-1.483.027a.1.1,0,0,1-.109-.109V56.53a.1.1,0,0,1,.109-.109l1.483.027h1.723l1.483-.027q.1,0,.1.109ZM95.785,54.1l.971.123a38.254,38.254,0,0,0-.424,4.9,10.01,10.01,0,0,0,.055,1.162q.506-1.2.957-2.1l.643.5a17.361,17.361,0,0,0-.978,2.2,6.693,6.693,0,0,0-.239.841l-1.08.014a13.113,13.113,0,0,1-.294-2.816A40.7,40.7,0,0,1,95.785,54.1Zm4.662.055,1.012-.041q.137,2.6.137,4.758a14.871,14.871,0,0,1-.239,3.042,4.749,4.749,0,0,1-.7,1.647,5.8,5.8,0,0,1-3.527,2.112l-.6-.807a4.78,4.78,0,0,0,3.151-1.7q.923-1.189.923-4.341Q100.6,56.94,100.447,54.151Zm16.174,8.593a2.362,2.362,0,0,0-.458.561q-.1.2-.185.2a.578.578,0,0,1-.2-.109,9.979,9.979,0,0,1-3.862-6.262,10.071,10.071,0,0,1-1.34,3.712,10.338,10.338,0,0,1-2.119,2.406.4.4,0,0,1-.178.109q-.048,0-.212-.171a1.7,1.7,0,0,0-.533-.431,8.811,8.811,0,0,0,2.851-3.268,12.112,12.112,0,0,0,1.114-4.307h-1.456l-1.107.027q-.13,0-.13-.109v-.629q0-.109.13-.109l1.107.027H111l1.189-.027a.109.109,0,0,1,.123.123v.41a8.071,8.071,0,0,0,.116,1.395,9.351,9.351,0,0,0,1.511,3.842A9.006,9.006,0,0,0,116.621,62.744Zm.253,1.791a1.555,1.555,0,0,0-.267.663.5.5,0,0,1-.082.253.537.537,0,0,1-.239.048q-2.728.171-4.97.171a8.806,8.806,0,0,1-3.445-.465,2.677,2.677,0,0,1-1.306-1.381,13.439,13.439,0,0,1-1.511,1.374,1.425,1.425,0,0,0-.294.294q-.082.123-.164.123a.2.2,0,0,1-.171-.109,7.227,7.227,0,0,1-.4-.759,6.7,6.7,0,0,0,.854-.506,9.089,9.089,0,0,0,1.3-1.128V59.641h-1.039l-.978.027q-.109,0-.109-.116v-.615a.1.1,0,0,1,.109-.109l.978.027h.759l1.012-.027a.1.1,0,0,1,.109.109l-.027,1.319v2.857a2.371,2.371,0,0,0,1.2,1.367,7.4,7.4,0,0,0,2.8.362A58.462,58.462,0,0,0,116.874,64.535Zm-9.967-8.579a.182.182,0,0,1,.034.082q0,.041-.1.116l-.369.267a.443.443,0,0,1-.185.1q-.041,0-.1-.082a11.5,11.5,0,0,0-1.531-2q-.055-.055-.055-.082,0-.048.1-.116l.383-.239a.44.44,0,0,1,.15-.068.112.112,0,0,1,.068.041A13.316,13.316,0,0,1,106.907,55.956Zm19.318,4.915a7.247,7.247,0,0,0-3.35-1.039,23.3,23.3,0,0,1-1.483,3.6q-.786,1.429-1.818,1.429-1.456,0-1.456-2.146a3.452,3.452,0,0,1,1.258-2.762,4.227,4.227,0,0,1,2.721-.978,37.636,37.636,0,0,0,.937-3.705q-2.071.144-3.767.219l-.014-.882q1.757-.027,4.272-.232l.7.554q-.622,2.427-1.107,4.061a8.552,8.552,0,0,1,3.3.916,27.181,27.181,0,0,0,.28-3.4l1,.212a29.281,29.281,0,0,1-.376,3.705,18.32,18.32,0,0,1,1.832,1.4l-.615.909a16.609,16.609,0,0,0-1.442-1.285,7.024,7.024,0,0,1-1.312,2.666,6.053,6.053,0,0,1-2.119,1.572l-.615-.725a5.026,5.026,0,0,0,2.153-1.682A6.894,6.894,0,0,0,126.226,60.871Zm-4.4-1a2.86,2.86,0,0,0-2.023.923,2.663,2.663,0,0,0-.766,1.907q0,1.121.561,1.121.451,0,.882-.745A16.772,16.772,0,0,0,121.83,59.873Zm13.063,1.415.854.615q-.677,3.377-2.27,3.377a1.651,1.651,0,0,1-1.538-1.019,9.207,9.207,0,0,1-.718-3.227q-.109-1.312-.109-3.541l.014-2.632h1.012l-.021,2.188q0,2.646.116,3.9.267,3.22,1.217,3.22.485,0,.813-.711A11.913,11.913,0,0,0,134.894,61.288Zm2.1-5.346.909-.267a17.059,17.059,0,0,1,2.427,7.574l-1.053.171A17.589,17.589,0,0,0,136.992,55.942Zm7.444,1q-1.155.062-2.365.062v-.882q1.4,0,2.509-.062.191-1.422.267-2.447l1.032.1q-.109,1.025-.321,2.311,1.36-.089,3.1-.239l.014.882q-1.429.15-3.254.239a53.168,53.168,0,0,1-2.208,8.524l-.978-.335A47.881,47.881,0,0,0,144.437,56.947Zm1.709,5.38.868.068a3.679,3.679,0,0,0-.082.786,1.075,1.075,0,0,0,.513,1.08,4.218,4.218,0,0,0,1.559.191,16.52,16.52,0,0,0,2.167-.109l.055.964q-.834.082-2.044.082a4.645,4.645,0,0,1-2.5-.472,1.737,1.737,0,0,1-.636-1.531A5.222,5.222,0,0,1,146.146,62.327Zm.711-2.994V58.4a40.055,40.055,0,0,1,4.259-.191v.9A32.162,32.162,0,0,0,146.856,59.333Zm8.716-3.268q.191-1.422.267-2.447l1.032.1q-.109,1.025-.321,2.311,1.36-.089,3.1-.239l.014.882q-1.429.15-3.254.239a53.168,53.168,0,0,1-2.208,8.524l-.978-.335a47.881,47.881,0,0,0,2.208-8.148q-1.155.062-2.365.062v-.882Q154.465,56.127,155.572,56.065Zm4.088-2.488.711-.28a18.727,18.727,0,0,1,1.039,2.365l-.759.308A14.486,14.486,0,0,0,159.66,53.577Zm-2.522,8.75.868.068a3.679,3.679,0,0,0-.082.786,1.075,1.075,0,0,0,.513,1.08,4.218,4.218,0,0,0,1.559.191,16.52,16.52,0,0,0,2.167-.109l.055.964q-.834.082-2.044.082a4.645,4.645,0,0,1-2.5-.472,1.737,1.737,0,0,1-.636-1.531A5.222,5.222,0,0,1,157.138,62.327Zm.711-2.994V58.4q1.982-.191,4.259-.191v.9A32.162,32.162,0,0,0,157.849,59.333Zm3.363-6.275.7-.253a11.566,11.566,0,0,1,1,2.3l-.731.294A13.487,13.487,0,0,0,161.212,53.058Zm10.459,3.473q.752-.068,1.723-.2l.041.9q-.772.1-1.764.171.014.725.014,2.126a8.667,8.667,0,0,1-.759,4.279,5.231,5.231,0,0,1-2.372,1.784l-.663-.745a5.251,5.251,0,0,0,1.777-1.1,3.429,3.429,0,0,0,.834-1.647,12.536,12.536,0,0,0,.205-2.6q0-1.34-.014-2.03-2.044.1-3.582.041l-.014-.882q1.8.062,3.6-.041-.027-1.846-.055-2.728h1Q171.644,54.739,171.671,56.53Zm-5.735-2.481q-.273,1.545-.472,3.548-.191,1.907-.191,3.145a17.717,17.717,0,0,0,.506,4.163l-.991.082a22.764,22.764,0,0,1-.492-4.272,37.518,37.518,0,0,1,.26-3.767q.185-1.7.383-2.98Zm13.228,1.545q-.027-1.176-.027-1.853h1v1.812q1.7-.062,3.37-.267v.868q-1.531.185-3.356.253l.041,2.01q1.935-.089,3.247-.26v.868q-1.538.171-3.233.232.014.335.062,1.449.027.745.048,1.2a10.066,10.066,0,0,1,3.726,2.372l-.7.861a9.516,9.516,0,0,0-3.015-2.249v.15a2.184,2.184,0,0,1-2.475,2.468,3.271,3.271,0,0,1-2.017-.5,1.7,1.7,0,0,1-.6-1.436,1.679,1.679,0,0,1,.8-1.449,3.138,3.138,0,0,1,1.832-.5,8.4,8.4,0,0,1,1.47.1q-.048-.848-.1-2.427-1.825.048-3.644,0v-.848q1.7.055,3.63.014-.027-.383-.034-1.087-.014-.663-.027-.943-2.105.041-3.794-.027v-.841Q177.058,55.642,179.163,55.594Zm.171,7.055a5.407,5.407,0,0,0-1.374-.185q-1.832,0-1.832,1.107,0,1.066,1.654,1.066,1.552,0,1.552-1.866ZM191.851,56.5q-.041,1.518,0,3.035a5.324,5.324,0,0,1,.308,1.777,3.687,3.687,0,0,1-1.306,3.069,7.744,7.744,0,0,1-3.274,1.271l-.588-.841a6.334,6.334,0,0,0,3.411-1.381,2.741,2.741,0,0,0,.807-1.88,1.856,1.856,0,0,1-1.8.882,2.2,2.2,0,0,1-1.531-.574A2.3,2.3,0,0,1,188,58.506a2.469,2.469,0,0,1,1.559-.492,2,2,0,0,1,1.36.39q-.027-1.312-.027-1.873-2.249.034-5.435.239l-.014-.9q2.584-.1,5.435-.171V53.8l1,.014q0,.629-.027,1.859,2.324-.027,3.363-.027v.9Q193.532,56.5,191.851,56.5Zm-2.338,2.3a1.322,1.322,0,0,0-.984.4,1.413,1.413,0,0,0-.39,1.046,1.237,1.237,0,0,0,.444,1,1.288,1.288,0,0,0,.848.294,1.406,1.406,0,0,0,1.1-.41,1.3,1.3,0,0,0,.314-.916Q190.846,58.8,189.513,58.8Zm9.324,3.527a1.915,1.915,0,0,1,1.463.643,1.916,1.916,0,0,1-.144,2.748,1.936,1.936,0,0,1-1.319.5,1.9,1.9,0,0,1-1.463-.643,1.916,1.916,0,0,1,.144-2.748A1.936,1.936,0,0,1,198.837,62.327Zm0,.7a1.269,1.269,0,0,0-1.251,1.251,1.253,1.253,0,0,0,2.181.834,1.247,1.247,0,0,0-.93-2.085Z"
										transform="translate(-0.615 -2.723)" fill="#5a5858" />
								</svg>