	<svg xmlns="http://www.w3.org/2000/svg" width="223.761" height="13.132"
											viewBox="0 0 223.761 13.132">
											<path id="Контур_1752" data-name="Контур 1752"
												d="M3.1,9.989q-.7,0-2.126-.027v-.9q.588.027,2.215.027l.219-2.283q-1,0-2.352-.027v-.9q1.189.068,2.44.068.048-.424.123-1.155.089-.813.109-1.06l1.012.075q-.048.451-.123,1.169-.082.752-.1.957,1.442-.014,3.767-.157l.014.9Q6.46,6.8,4.423,6.8q-.075.834-.253,2.283,2.235-.027,3.979-.157v.9q-2.16.137-4.061.157a32.724,32.724,0,0,0-.226,3.288,1.408,1.408,0,0,0,.5,1.23,2.723,2.723,0,0,0,1.531.335A3.8,3.8,0,0,0,8.1,14.3a1.511,1.511,0,0,0,.649-1.292,3.093,3.093,0,0,0-.813-2.017l.923-.349A3.489,3.489,0,0,1,9.8,12.956q0,2.816-3.9,2.816a3.309,3.309,0,0,1-2.454-.725,2.532,2.532,0,0,1-.54-1.784Q2.9,12.17,3.1,9.989Zm16.516.882a7.247,7.247,0,0,0-3.35-1.039,23.3,23.3,0,0,1-1.483,3.6Q14,14.863,12.968,14.863q-1.456,0-1.456-2.146A3.452,3.452,0,0,1,12.77,9.955a4.227,4.227,0,0,1,2.721-.978,37.636,37.636,0,0,0,.937-3.705q-2.071.144-3.767.219l-.014-.882q1.757-.027,4.272-.232l.7.554q-.622,2.427-1.107,4.061a8.552,8.552,0,0,1,3.3.916,27.181,27.181,0,0,0,.28-3.4l1,.212a29.281,29.281,0,0,1-.376,3.705,18.321,18.321,0,0,1,1.832,1.4l-.615.909a16.61,16.61,0,0,0-1.442-1.285,7.024,7.024,0,0,1-1.312,2.666,6.053,6.053,0,0,1-2.119,1.572l-.615-.725a5.026,5.026,0,0,0,2.153-1.682A6.894,6.894,0,0,0,19.619,10.871Zm-4.4-1A2.86,2.86,0,0,0,13.2,10.8a2.663,2.663,0,0,0-.766,1.907q0,1.121.561,1.121.451,0,.882-.745A16.772,16.772,0,0,0,15.224,9.873Zm15.709-.766q-1.121.027-3.37.027V8.267q1.955.048,3.356.014,0-1.777.014-2.728-2.317.055-3.247.1V4.794q.848-.021,3.356-.068,1.907-.034,2.857-.055l.014.82q-.731.021-2.03.048-.041,1.36-.041,2.728,1.429-.055,2.1-.1l.014.854q-.342.014-1.087.034-.677.021-1.012.034.041,1.415.13,2.967a7.792,7.792,0,0,1,2.488,1.832l-.629.841A6.323,6.323,0,0,0,32,13.065a2.191,2.191,0,0,1-.731,1.846,2.29,2.29,0,0,1-1.511.492q-2.447,0-2.447-1.777a1.751,1.751,0,0,1,.9-1.586,2.715,2.715,0,0,1,1.429-.383,5.687,5.687,0,0,1,1.395.137Q30.96,10.543,30.933,9.107Zm.13,3.609a3.792,3.792,0,0,0-1.415-.267,1.745,1.745,0,0,0-1.135.335.959.959,0,0,0-.362.772q0,1.025,1.524,1.025,1.388,0,1.388-1.613Zm-5.742-8.7.991.062a39.118,39.118,0,0,0-.656,4.061A28.25,28.25,0,0,0,25.43,11.3a16.464,16.464,0,0,0,.465,4.163l-.964.068a19.793,19.793,0,0,1-.451-4.17A41.332,41.332,0,0,1,25.32,4.021ZM40.729,7.159l.69-.349a18.707,18.707,0,0,1,1.258,2.27l-.731.376A12.74,12.74,0,0,0,40.729,7.159ZM42.2,6.5l.677-.308a11.008,11.008,0,0,1,1.2,2.181l-.7.369A13.251,13.251,0,0,0,42.2,6.5ZM41.125,3.939l.9.615Q39.9,7.009,37.639,9.162a.681.681,0,0,0-.267.479q0,.226.376.513a45.7,45.7,0,0,1,4.9,4.71l-.868.725a50.559,50.559,0,0,0-5.024-5.065,1.118,1.118,0,0,1-.465-.841,1.139,1.139,0,0,1,.362-.827A64.9,64.9,0,0,0,41.125,3.939Zm4.963.027h1.046q-.239,7.191-.239,8.668a2.135,2.135,0,0,0,.458,1.579,2.222,2.222,0,0,0,1.545.424,3.218,3.218,0,0,0,2.44-.943,5.471,5.471,0,0,0,1.217-2.673l.95.479q-.93,4.074-4.58,4.074a3.2,3.2,0,0,1-2.4-.718,3.1,3.1,0,0,1-.608-2.153q0-.766.062-3.753Q46.061,5.334,46.088,3.967Zm15.962,7.41H59.288v2.755h-.909V11.377H55.624v-.916h2.755V7.706h.909v2.755H62.05ZM70,7.932l-.533,1.23a15.524,15.524,0,0,1-4.594,5.079L64.2,13.5a15.011,15.011,0,0,0,5.065-6.275H64.552V6.291h5.264l-.1-2.461h1.066l.1,2.461h2.659v.937H70.909l.321,8.333H70.164l-.219-5.92Zm9.529.191A32.431,32.431,0,0,1,75.6,10.755l-.574-.807A25.788,25.788,0,0,0,79.393,6.94a19.644,19.644,0,0,0,3.1-3.268l.923.574a22.1,22.1,0,0,1-2.8,2.98v8.333h-1.08Zm11.6,5.715a10.457,10.457,0,0,0,3.637-4.812l.718.937a12.739,12.739,0,0,1-4.819,5.489l-.6-.314V4.247H91.13Zm-2.98-9.5q0,3.979-.137,5.742a10.742,10.742,0,0,1-.4,2.352,6.553,6.553,0,0,1-2.044,3.015l-.813-.636a5.191,5.191,0,0,0,1.907-2.782,13.309,13.309,0,0,0,.349-2.878q.068-1.552.068-4.812Zm11.2,4.177a1.157,1.157,0,0,1,.779,2.017,1.159,1.159,0,1,1-.779-2.017Zm7,0a1.157,1.157,0,0,1,.779,2.017,1.159,1.159,0,1,1-.779-2.017Zm7,0a1.157,1.157,0,0,1,.779,2.017,1.159,1.159,0,1,1-.779-2.017Zm7,0a1.157,1.157,0,0,1,.779,2.017,1.159,1.159,0,1,1-.779-2.017Zm10.486,3.37a3.631,3.631,0,0,1-.232,1.319,3.171,3.171,0,0,1-.643,1.039,2.871,2.871,0,0,1-.978.68,3.1,3.1,0,0,1-1.23.243,2.713,2.713,0,0,1-2.314-1.193,4.246,4.246,0,0,1-.619-1.412,7.648,7.648,0,0,1-.212-1.88,8.834,8.834,0,0,1,.284-2.321,5.638,5.638,0,0,1,.807-1.784,3.719,3.719,0,0,1,1.261-1.145,3.379,3.379,0,0,1,1.647-.4,3.968,3.968,0,0,1,1.627.28v1.06a3.455,3.455,0,0,0-1.6-.39,2.384,2.384,0,0,0-1.183.294,2.716,2.716,0,0,0-.9.831,4.051,4.051,0,0,0-.578,1.3,6.573,6.573,0,0,0-.2,1.688h.027a2.354,2.354,0,0,1,2.235-1.224,2.942,2.942,0,0,1,1.159.219,2.5,2.5,0,0,1,.882.619,2.785,2.785,0,0,1,.564.954A3.63,3.63,0,0,1,130.833,11.89Zm-1.148.144a3.05,3.05,0,0,0-.13-.923,2,2,0,0,0-.373-.7,1.606,1.606,0,0,0-.6-.441,2.013,2.013,0,0,0-.807-.154,1.888,1.888,0,0,0-.772.157,1.924,1.924,0,0,0-.615.427,2,2,0,0,0-.554,1.391,3.041,3.041,0,0,0,.144.947,2.446,2.446,0,0,0,.4.769,1.918,1.918,0,0,0,.619.516,1.69,1.69,0,0,0,.8.188,1.824,1.824,0,0,0,.772-.161,1.723,1.723,0,0,0,.595-.448,2.073,2.073,0,0,0,.383-.687A2.723,2.723,0,0,0,129.685,12.033Zm8.682-1.976a9.629,9.629,0,0,1-.222,2.181,5.081,5.081,0,0,1-.643,1.6,2.892,2.892,0,0,1-1.032.991,2.826,2.826,0,0,1-1.391.338,2.639,2.639,0,0,1-1.316-.325,2.758,2.758,0,0,1-.974-.947,4.8,4.8,0,0,1-.6-1.528,9.447,9.447,0,0,1-.205-2.075,10.694,10.694,0,0,1,.215-2.27,5.191,5.191,0,0,1,.632-1.651,2.814,2.814,0,0,1,1.036-1,2.908,2.908,0,0,1,1.418-.338Q138.366,5.033,138.366,10.058Zm-1.148.109q0-4.184-1.989-4.184-2.1,0-2.1,4.259,0,3.972,2.058,3.972Q137.218,14.214,137.218,10.167ZM150.015,15h-1.121V10.98a3.032,3.032,0,0,0-.359-1.682,1.361,1.361,0,0,0-1.207-.52,1.494,1.494,0,0,0-1.22.656,2.511,2.511,0,0,0-.5,1.572V15h-1.121V10.844q0-2.064-1.593-2.064a1.475,1.475,0,0,0-1.217.619,2.557,2.557,0,0,0-.479,1.61V15h-1.121V8H141.2V9.107h.027A2.378,2.378,0,0,1,143.4,7.836a2.022,2.022,0,0,1,1.982,1.449A2.5,2.5,0,0,1,147.7,7.836q2.311,0,2.311,2.851Zm2.693-8.777a.71.71,0,0,1-.513-.205.692.692,0,0,1-.212-.52.718.718,0,0,1,.725-.731.724.724,0,0,1,.523.208.73.73,0,0,1,0,1.036A.718.718,0,0,1,152.708,6.223ZM153.255,15h-1.121V8h1.121Zm8.08,0h-1.121V11.008q0-2.229-1.627-2.229a1.765,1.765,0,0,0-1.391.632,2.344,2.344,0,0,0-.55,1.6V15h-1.121V8h1.121V9.162h.027a2.526,2.526,0,0,1,2.3-1.326,2.142,2.142,0,0,1,1.757.742,3.3,3.3,0,0,1,.608,2.143Zm10.37-9.8L167,16.627h-1.046L170.646,5.2Zm4.847,9.8h-1.121V6.53a2.6,2.6,0,0,1-.379.3,6.184,6.184,0,0,1-.561.332q-.311.164-.656.308a4.769,4.769,0,0,1-.673.226V6.558a6.517,6.517,0,0,0,.783-.277q.414-.174.813-.39t.755-.451a6,6,0,0,0,.615-.461h.424Zm9.112-2.775a2.858,2.858,0,0,1-.25,1.207,2.664,2.664,0,0,1-.7.93,3.25,3.25,0,0,1-1.09.6,4.41,4.41,0,0,1-1.4.212,4.072,4.072,0,0,1-2.229-.533v-1.2a3.571,3.571,0,0,0,2.27.779,3.084,3.084,0,0,0,.926-.13,2.077,2.077,0,0,0,.711-.376,1.67,1.67,0,0,0,.458-.595,1.857,1.857,0,0,0,.161-.786q0-1.921-2.734-1.921h-.813v-.95h.772q2.42,0,2.42-1.8,0-1.668-1.846-1.668a3.143,3.143,0,0,0-1.948.7V5.594a4.259,4.259,0,0,1,2.229-.561,3.424,3.424,0,0,1,1.114.171,2.553,2.553,0,0,1,.854.479,2.12,2.12,0,0,1,.55.738,2.279,2.279,0,0,1,.195.95,2.393,2.393,0,0,1-1.955,2.488v.027a3.092,3.092,0,0,1,.923.243,2.463,2.463,0,0,1,.731.489,2.179,2.179,0,0,1,.482.708A2.259,2.259,0,0,1,185.664,12.225Zm3.192,1.217L187.763,16.8h-.8l.8-3.363Zm7.848-3.384a9.629,9.629,0,0,1-.222,2.181,5.081,5.081,0,0,1-.643,1.6,2.892,2.892,0,0,1-1.032.991,2.826,2.826,0,0,1-1.391.338,2.639,2.639,0,0,1-1.316-.325,2.758,2.758,0,0,1-.974-.947,4.8,4.8,0,0,1-.6-1.528,9.447,9.447,0,0,1-.205-2.075,10.694,10.694,0,0,1,.215-2.27,5.191,5.191,0,0,1,.632-1.651,2.814,2.814,0,0,1,1.036-1,2.908,2.908,0,0,1,1.418-.338Q196.7,5.033,196.7,10.058Zm-1.148.109q0-4.184-1.989-4.184-2.1,0-2.1,4.259,0,3.972,2.058,3.972Q195.556,14.214,195.556,10.167Zm8.7-.109a9.629,9.629,0,0,1-.222,2.181,5.081,5.081,0,0,1-.643,1.6,2.892,2.892,0,0,1-1.032.991,2.826,2.826,0,0,1-1.391.338,2.639,2.639,0,0,1-1.316-.325,2.758,2.758,0,0,1-.974-.947,4.8,4.8,0,0,1-.6-1.528,9.447,9.447,0,0,1-.205-2.075,10.694,10.694,0,0,1,.215-2.27,5.191,5.191,0,0,1,.632-1.651,2.814,2.814,0,0,1,1.036-1,2.908,2.908,0,0,1,1.418-.338Q204.251,5.033,204.251,10.058Zm-1.148.109q0-4.184-1.989-4.184-2.1,0-2.1,4.259,0,3.972,2.058,3.972Q203.1,14.214,203.1,10.167Zm8.7-.109a9.629,9.629,0,0,1-.222,2.181,5.081,5.081,0,0,1-.643,1.6,2.892,2.892,0,0,1-1.032.991,2.826,2.826,0,0,1-1.391.338,2.639,2.639,0,0,1-1.316-.325,2.758,2.758,0,0,1-.974-.947,4.8,4.8,0,0,1-.6-1.528,9.447,9.447,0,0,1-.205-2.075,10.694,10.694,0,0,1,.215-2.27,5.191,5.191,0,0,1,.632-1.651,2.814,2.814,0,0,1,1.036-1,2.908,2.908,0,0,1,1.418-.338Q211.8,5.033,211.8,10.058Zm-1.148.109q0-4.184-1.989-4.184-2.1,0-2.1,4.259,0,3.972,2.058,3.972Q210.649,14.214,210.649,10.167Zm14.089,4.341a1.107,1.107,0,0,1-.362.923,3.782,3.782,0,0,1-1.88.267.527.527,0,0,1-.273-.041.623.623,0,0,1-.089-.239,2.205,2.205,0,0,0-.267-.643q.574.055,1.36.055a.783.783,0,0,0,.52-.123.546.546,0,0,0,.109-.39V10.071h-8.921v3.192l.027,2.447q0,.116-.109.116h-.69q-.109,0-.109-.116l.027-2.632V7.173l-.027-2.639q0-.13.109-.13l1.976.027h6.528l1.962-.027q.109,0,.109.13L224.711,7.2v5.072ZM223.856,9.3V5.2h-4.1V9.3Zm-4.942,0V5.2h-3.979V9.3Z"
												transform="translate(-0.978 -3.673)" fill="#5a5858" />
										</svg>