<svg xmlns="http://www.w3.org/2000/svg" width="204.092" height="18.047" viewBox="0 0 204.092 18.047">
  <path id="Контур_1733" data-name="Контур 1733" d="M18.545.225a.138.138,0,0,1-.156.156L15.742.342H4.287L1.641.381A.138.138,0,0,1,1.484.225V-.664A.138.138,0,0,1,1.641-.82l2.646.039h5V-4.619H6.68L3.887-4.58q-.186,0-.186-.156v-.869q0-.156.186-.156l2.793.039h6.807l2.8-.039a.138.138,0,0,1,.156.156v.869a.138.138,0,0,1-.156.156l-2.8-.039h-3V-.781h5.254L18.389-.82a.138.138,0,0,1,.156.156ZM18.027-10.82a.147.147,0,0,1-.166.166h-.918q-.156,0-.156-.166v-2.354H3.223v2.656a.147.147,0,0,1-.166.166H2.139q-.156,0-.156-.166l.039-2v-.6L1.982-14.1q0-.176.156-.176l2.783.039h4.3v-.742a6.868,6.868,0,0,0-.137-1.543q.566.029,1.338.107.244.029.244.176a1.29,1.29,0,0,1-.127.361,2.823,2.823,0,0,0-.1.9v.742h4.648l2.773-.039q.166,0,.166.176l-.039.811v.615Zm-.967,1.26a2.39,2.39,0,0,1-.742,1.738,4.632,4.632,0,0,1-2.48.459,4.922,4.922,0,0,1-2.5-.4,1.709,1.709,0,0,1-.459-1.4v-1.3a14.266,14.266,0,0,0-.1-1.943q.85.078,1.2.146.264.029.264.176a1.29,1.29,0,0,1-.127.361,3.962,3.962,0,0,0-.1,1.162v1.074q0,.732.225.859a3.7,3.7,0,0,0,1.68.225,2.829,2.829,0,0,0,1.66-.322q.352-.3.371-1.719a2.669,2.669,0,0,0,.762.4q.352.117.352.313Q17.07-9.687,17.061-9.561Zm-8.34-2.2q0,.088-.225.342a3.3,3.3,0,0,0-.342.82Q7.139-7.539,3.281-6.455a1.276,1.276,0,0,1-.273.059q-.137,0-.3-.283a2.464,2.464,0,0,0-.645-.684A8.367,8.367,0,0,0,5.635-8.857,4.446,4.446,0,0,0,7.1-11.084a5.184,5.184,0,0,0,.244-1.338,7.447,7.447,0,0,1,1.133.4Q8.721-11.895,8.721-11.758ZM27.422-5.3l1.221.879Q27.676.4,25.4.4a2.359,2.359,0,0,1-2.2-1.455,13.153,13.153,0,0,1-1.025-4.609q-.156-1.875-.156-5.059l.02-3.76h1.445l-.029,3.125q0,3.779.166,5.576.381,4.6,1.738,4.6.693,0,1.162-1.016A17.018,17.018,0,0,0,27.422-5.3Zm3-7.637,1.3-.381A24.369,24.369,0,0,1,35.186-2.5l-1.5.244A25.127,25.127,0,0,0,30.42-12.939Zm19.717-1.719.039,1.377a7.589,7.589,0,0,0-3.3.9,8.477,8.477,0,0,0-2.959,2.8,6.881,6.881,0,0,0-1.162,3.8A4.226,4.226,0,0,0,44.59-2.168,8.814,8.814,0,0,0,48.779-.742L48.438.684a8.716,8.716,0,0,1-5.186-1.973,5.557,5.557,0,0,1-1.875-4.355q0-4.492,4.277-7.178l1.084-.479-.02-.039-.937.156q-1.7.1-8.086.684l-.117-1.318Q40.439-14.033,50.137-14.658Zm4.17-.283q2.646-.02,8.135-.283l.84,1.045q-3.9,3.955-6.182,5.938l-.9.781.078.059L57.3-8.1a6.592,6.592,0,0,1,2.822-.762,5.067,5.067,0,0,1,3.867,1.426,4.387,4.387,0,0,1,1.152,3.154A4.738,4.738,0,0,1,63.32-.215,7.6,7.6,0,0,1,58.721,1Q54.8,1,54.8-1.66a2.322,2.322,0,0,1,.84-1.875,3.1,3.1,0,0,1,2.041-.645,3.291,3.291,0,0,1,2.539,1.074A4.921,4.921,0,0,1,61.348-.7a3.684,3.684,0,0,0,1.8-1.4,4.174,4.174,0,0,0,.518-2.2,3.187,3.187,0,0,0-1.24-2.676,3.815,3.815,0,0,0-2.383-.752,7,7,0,0,0-4.834,1.943,17.782,17.782,0,0,0-1.66,1.738L52.363-5q4.785-4.922,8.76-8.965-2.871.215-6.816.322ZM59.941-.3a4.321,4.321,0,0,0-.889-2.041,1.822,1.822,0,0,0-1.406-.674,1.6,1.6,0,0,0-1.152.43A1.183,1.183,0,0,0,56.1-1.7a1.243,1.243,0,0,0,.664,1.182A4.1,4.1,0,0,0,58.623-.2,8.623,8.623,0,0,0,59.941-.3Zm13.486-.84q0,.166-.156.166h-.83q-.156,0-.156-.166v-1h-2.6v1.66a.138.138,0,0,1-.156.156h-.85a.138.138,0,0,1-.156-.156l.039-6.172v-3.936l-.039-4.678a.138.138,0,0,1,.156-.156l1.6.039H71.67l1.6-.039a.138.138,0,0,1,.156.156l-.039,4.043v4.15ZM72.285-3.2V-8.389h-2.6V-3.2Zm0-6.221v-4.893h-2.6v4.893ZM85.547-9.3a.138.138,0,0,1-.156.156L82.627-9.18H76.943l-2.734.039a.138.138,0,0,1-.156-.156v-.83a.138.138,0,0,1,.156-.156l2.734.039h1.865V-12.9h-1.24l-2.559.049q-.186,0-.186-.166v-.8q0-.176.186-.176l2.559.039h1.24a17.043,17.043,0,0,0-.137-2.559q.811.029,1.3.1.244.039.244.176,0,.01-.1.361a7.969,7.969,0,0,0-.127,1.924h1.816l2.568-.039q.156,0,.156.176v.8q0,.166-.156.166L81.807-12.9H79.99v2.656h2.637l2.764-.039a.138.138,0,0,1,.156.156ZM85.3-5.732a.138.138,0,0,1-.156.156l-2.4-.039V-2.9l.02,2.559A1.5,1.5,0,0,1,82.207,1a4.857,4.857,0,0,1-2.324.342.7.7,0,0,1-.371-.059.846.846,0,0,1-.127-.322,2.837,2.837,0,0,0-.4-.9q.811.078,1.875.078.7,0,.7-.732v-5.02H77.041l-2.715.039q-.166,0-.166-.156v-.83q0-.137.166-.137l2.715.02h4.521v-.039a11.751,11.751,0,0,0-.137-2.119,8.816,8.816,0,0,1,1.279.137q.264.029.264.166a.908.908,0,0,1-.117.332,5.248,5.248,0,0,0-.107,1.426v.1l2.4-.02q.156,0,.156.137ZM78.789-2.061a.247.247,0,0,1,.039.117q0,.078-.146.186l-.537.361a.683.683,0,0,1-.234.127q-.059,0-.107-.088a11.911,11.911,0,0,0-1.914-2.5.187.187,0,0,1-.068-.117q0-.078.186-.186l.479-.3a.5.5,0,0,1,.186-.078.241.241,0,0,1,.137.059A12.026,12.026,0,0,1,78.789-2.061ZM104.541-.889a1.857,1.857,0,0,1-.518,1.523,1.692,1.692,0,0,1-.869.332,13.528,13.528,0,0,1-1.631.068.584.584,0,0,1-.342-.059.914.914,0,0,1-.117-.322,3.4,3.4,0,0,0-.361-.879,13.866,13.866,0,0,0,1.543.078,1.3,1.3,0,0,0,.889-.205A1.19,1.19,0,0,0,103.3-1.1V-9.727H99.658L97.5-9.687q-.176,0-.176-.156l.039-1.719v-2.4l-.039-1.719q0-.156.176-.156l2.158.039H102.2l2.168-.039a.138.138,0,0,1,.156.156l-.039,2.861V-3.74Zm-1.24-9.795V-12.3H98.506v1.621Zm0-2.578v-1.562H98.506v1.563ZM95.449-9.844a.138.138,0,0,1-.156.156l-2-.039H89.746v6.7l.039,4.16a.138.138,0,0,1-.156.156h-.947a.138.138,0,0,1-.156-.156l.039-4.16v-8.457l-.039-4.2a.138.138,0,0,1,.156-.156l2.266.039h2.344l2-.039a.138.138,0,0,1,.156.156l-.039,1.846v2.158Zm-1.182-.84V-12.3H89.746v1.621Zm0-2.578v-1.562H89.746v1.563ZM99.834-.6q0,.156-.166.156h-.82A.138.138,0,0,1,98.691-.6v-.84H94.17V-.4q0,.186-.156.186h-.82q-.166,0-.166-.186l.039-3.516V-5.6L93.027-7.92a.138.138,0,0,1,.156-.156l2.09.039h2.314l2.09-.039a.138.138,0,0,1,.156.156L99.795-5.9v1.846Zm-1.143-1.8V-4.316H94.17v1.924Zm0-2.861V-7.08H94.17v1.826Zm18.828-4.971,1.025-.391a26.106,26.106,0,0,1,1.475,3.379l-1.074.439A21.6,21.6,0,0,0,117.52-10.225Zm2.266-.674,1-.361a16.523,16.523,0,0,1,1.426,3.281l-1.045.42A19.268,19.268,0,0,0,119.785-10.9Zm.557-3.76.039,1.377a7.589,7.589,0,0,0-3.3.9,8.477,8.477,0,0,0-2.959,2.8,6.881,6.881,0,0,0-1.162,3.8,4.226,4.226,0,0,0,1.836,3.613,8.814,8.814,0,0,0,4.189,1.426L118.643.684a8.716,8.716,0,0,1-5.186-1.973,5.557,5.557,0,0,1-1.875-4.355q0-4.492,4.277-7.178l1.084-.479-.02-.039-.937.156q-1.7.1-8.086.684l-.117-1.318Q110.645-14.033,120.342-14.658Zm3.594,5.039.684-1.2a41.248,41.248,0,0,1,4.7,2.041l-.742,1.338A28.561,28.561,0,0,0,123.936-9.619Zm1.8-4.277.742-1.182a28.923,28.923,0,0,1,4.561,2.178l-.8,1.318A25.054,25.054,0,0,0,125.732-13.9Zm10.479,1.318,1.387.781a20.854,20.854,0,0,1-1.641,4.5,13.915,13.915,0,0,1-2.1,3.193A14.39,14.39,0,0,1,125.918.176l-.82-1.26a12.979,12.979,0,0,0,7.6-3.994A16.513,16.513,0,0,0,136.211-12.578Zm3.545-1.963h11.016q-.059,7.158-2.578,10.723A13.746,13.746,0,0,1,141.475.84l-.84-1.2A12.181,12.181,0,0,0,147.139-5a15.077,15.077,0,0,0,1.953-8.2h-9.336ZM157.4-8.7V.8h-1.543V-15.977H157.4v5.8A31.148,31.148,0,0,1,165.02-7l-.762,1.445A25.279,25.279,0,0,0,157.4-8.7Zm23.77,5a.138.138,0,0,1-.156.156l-2.646-.039H173.76l-2.627.039a.138.138,0,0,1-.156-.156l.039-1.4v-1.27l-.039-1.4a.138.138,0,0,1,.156-.156l2.627.039h4.609l2.646-.039a.138.138,0,0,1,.156.156l-.039,1.4V-5.1Zm-1.221-.859V-6.885H172.2v2.324Zm5.3-4a2.818,2.818,0,0,0-.518.713q-.166.3-.264.3a1.016,1.016,0,0,1-.293-.1,21.639,21.639,0,0,1-5.127-3.086,12.864,12.864,0,0,1-3.076-3.789,16.978,16.978,0,0,1-3.437,4.072,22.617,22.617,0,0,1-4.58,2.91,1.106,1.106,0,0,1-.3.1q-.1,0-.283-.322a2.074,2.074,0,0,0-.518-.605,20.486,20.486,0,0,0,4.541-2.617,14.557,14.557,0,0,0-2.285-2q-.088-.059-.088-.1t.107-.156l.488-.439q.107-.107.156-.107a.215.215,0,0,1,.117.049,18.176,18.176,0,0,1,2.383,2.031,15.131,15.131,0,0,0,2.559-3.057h-2.881l-2.061.039q-.176,0-.176-.156v-.781q0-.156.176-.156l2.061.039h2.764l1.621-.039q.156,0,.254.225a9.482,9.482,0,0,0,.742,1.367,11.548,11.548,0,0,0,.859,1.162,12.918,12.918,0,0,0,1.621-1.7,4.046,4.046,0,0,0,.479-.771,6.226,6.226,0,0,1,.986.615.338.338,0,0,1,.156.234q0,.127-.2.225a1.753,1.753,0,0,0-.625.5,20.462,20.462,0,0,1-1.719,1.641,17.928,17.928,0,0,0,1.494,1.26,21.055,21.055,0,0,0,1.924-1.865,4.777,4.777,0,0,0,.537-.771,7.579,7.579,0,0,1,.957.615q.186.156.186.234v.029a.361.361,0,0,1-.264.234,1.679,1.679,0,0,0-.6.439,21.044,21.044,0,0,1-1.875,1.66A20.584,20.584,0,0,0,185.254-8.564ZM184.775.625a.138.138,0,0,1-.156.156L181.992.742H170.2l-2.617.039q-.166,0-.166-.156v-.85q0-.156.166-.156l2.617.039h7.2q.518-.85.967-1.738A4.976,4.976,0,0,0,178.74-3.2a9.616,9.616,0,0,1,1.162.459.246.246,0,0,1,.176.225q0,.1-.176.234a1.52,1.52,0,0,0-.41.547q-.713,1.211-.84,1.4h3.34l2.627-.039a.138.138,0,0,1,.156.156ZM179.16-9.5q0,.156-.146.156l-2-.039h-2.061l-1.973.039q-.166,0-.166-.156v-.781q0-.156.166-.156l1.973.039h2.061l2-.039q.146,0,.146.156Zm-4.785,8.34a.479.479,0,0,1,.029.117q0,.068-.225.186l-.527.264a.852.852,0,0,1-.244.078q-.068,0-.117-.127a8.526,8.526,0,0,0-.957-1.895.269.269,0,0,1-.049-.107q0-.059.215-.156l.518-.234a.547.547,0,0,1,.205-.078q.049,0,.137.117A10.661,10.661,0,0,1,174.375-1.162Zm31.2.4a2.83,2.83,0,0,0-.586.742q-.137.264-.215.264a.62.62,0,0,1-.264-.156,12.956,12.956,0,0,1-4.453-6.865V-5.42q0,1.631.039,3.477.039,1.25.039,1.689a2.97,2.97,0,0,1-.107.928,1.039,1.039,0,0,1-.41.508,4.056,4.056,0,0,1-1.963.342.724.724,0,0,1-.381-.059,1.1,1.1,0,0,1-.117-.342,2.282,2.282,0,0,0-.4-.859,10.947,10.947,0,0,0,1.3.078,1.217,1.217,0,0,0,.8-.176.81.81,0,0,0,.156-.586V-3.184A25.914,25.914,0,0,1,195.83-.918a2,2,0,0,0-.635.479.248.248,0,0,1-.205.137.245.245,0,0,1-.215-.117,8.882,8.882,0,0,1-.605-.977,7.858,7.858,0,0,0,1.084-.488,25.166,25.166,0,0,0,3.76-2.6v-4.18h-1.719l-2.705.039a.138.138,0,0,1-.156-.156v-.8a.138.138,0,0,1,.156-.156l2.705.039h4.18l.137-1.924h-3.359l-2.08.039a.138.138,0,0,1-.156-.156v-.781a.138.138,0,0,1,.156-.156l2.08.039h3.418l.146-1.807h-4L195.6-14.4q-.166,0-.166-.156v-.8q0-.156.166-.156l2.217.039h2.822l2.227-.039a.155.155,0,0,1,.176.176q-.039.313-.068.752-.049.537-.059.625L202.6-9.7l2.48-.039q.176,0,.176.156v.8q0,.156-.176.156l-2.705-.039h-2.2a16.986,16.986,0,0,0,1.377,3.643,15.271,15.271,0,0,0,1.719-2.041,3.6,3.6,0,0,0,.439-.781,5.788,5.788,0,0,1,.869.6.462.462,0,0,1,.156.283q0,.1-.225.244a2.693,2.693,0,0,0-.6.576,14.71,14.71,0,0,1-1.865,1.982A11.35,11.35,0,0,0,205.576-.762Zm-11.035-6.3q0,.156-.166.156l-2.08-.039h-.459v5.527a24.345,24.345,0,0,0,2.4-.928,3.146,3.146,0,0,0-.1.742.588.588,0,0,1-.088.391.814.814,0,0,1-.293.146Q191.719-.273,189.014.5a2.5,2.5,0,0,0-.742.3.476.476,0,0,1-.264.117.218.218,0,0,1-.234-.156q-.146-.352-.381-1.1A11.994,11.994,0,0,0,188.916-.6q1.4-.342,1.816-.469V-6.943h-.781l-2.08.039a.138.138,0,0,1-.156-.156v-.762a.138.138,0,0,1,.156-.156l2.08.039h.781v-2.178H190.6l-1.7.039q-.166,0-.166-.186v-.713a.147.147,0,0,1,.166-.166l1.7.039h1.543l1.68-.039q.156,0,.156.166v.713q0,.186-.156.186l-1.68-.039h-.3v2.178h.459l2.08-.039q.166,0,.166.156Zm.332-5.693a1.421,1.421,0,0,0-.518.635q-.146.264-.205.264a1.658,1.658,0,0,1-.3-.205,15.451,15.451,0,0,1-2.334-2.656,17.748,17.748,0,0,1-3.525,3.984.78.78,0,0,1-.293.156q-.117,0-.205-.264a1.772,1.772,0,0,0-.459-.693,12.367,12.367,0,0,0,3.535-3.867,2.932,2.932,0,0,0,.43-1.074,6.462,6.462,0,0,1,1.152.322q.205.059.205.176a.309.309,0,0,1-.186.264l-.156.117A14.088,14.088,0,0,0,194.873-12.754ZM189.775-2.6q.01.078.01.1,0,.088-.215.176l-.479.205a.683.683,0,0,1-.2.049q-.088,0-.107-.137a14.9,14.9,0,0,0-.674-3.1.3.3,0,0,1-.029-.107q0-.078.244-.166l.42-.166a.8.8,0,0,1,.2-.049q.059,0,.107.107A16.984,16.984,0,0,1,189.775-2.6Zm4.814-2.881a.338.338,0,0,1-.156.234,1.4,1.4,0,0,0-.3.566q-.332,1.025-.645,1.758-.1.283-.176.283a.666.666,0,0,1-.215-.088,3.48,3.48,0,0,0-.625-.2,13.587,13.587,0,0,0,.781-2.363,2.869,2.869,0,0,0,.1-.752,8.872,8.872,0,0,1,1.064.352Q194.59-5.586,194.59-5.479Zm3.164.176a.3.3,0,0,1,.029.107q0,.059-.176.2l-.4.322a1.046,1.046,0,0,1-.234.137q-.049,0-.117-.137a8.687,8.687,0,0,0-1.5-2.383.16.16,0,0,1-.059-.1q0-.059.176-.186l.42-.273a.4.4,0,0,1,.176-.1q.059,0,.146.1A11.732,11.732,0,0,1,197.754-5.3Z" transform="translate(-1.484 16.523)" fill="#215f87"/>
</svg>
