	<svg xmlns="http://www.w3.org/2000/svg" width="283.124" height="31.494"
									viewBox="0 0 283.124 31.494">
									<path id="Контур_1753" data-name="Контур 1753"
										d="M11.3,7.1l-3.65,3.644L11.313,14.4l-.69.6L7,11.391,3.377,15l-.656-.636,3.63-3.623L2.7,7.1l.656-.643L7,10.092l3.644-3.637ZM3.466,11.486a.715.715,0,0,1-.523-.219.779.779,0,0,1-.157-.239.744.744,0,0,1-.058-.294.769.769,0,0,1,.058-.3.812.812,0,0,1,.157-.246.739.739,0,0,1,.232-.167.685.685,0,0,1,.291-.062.692.692,0,0,1,.287.062.742.742,0,0,1,.239.171.878.878,0,0,1,.164.25.715.715,0,0,1,.062.291.747.747,0,0,1-.752.752Zm7.055,0A.715.715,0,0,1,10,11.268a.779.779,0,0,1-.157-.239.744.744,0,0,1-.058-.294.769.769,0,0,1,.058-.3A.812.812,0,0,1,10,10.191a.739.739,0,0,1,.232-.167.685.685,0,0,1,.291-.062.692.692,0,0,1,.287.062.742.742,0,0,1,.239.171.878.878,0,0,1,.164.25.715.715,0,0,1,.062.291.747.747,0,0,1-.752.752ZM7.759,14.262a.715.715,0,0,1-.219.523.779.779,0,0,1-.239.157A.744.744,0,0,1,7.007,15a.769.769,0,0,1-.3-.058.812.812,0,0,1-.246-.157.739.739,0,0,1-.167-.232.685.685,0,0,1-.062-.291.692.692,0,0,1,.062-.287.742.742,0,0,1,.171-.239.893.893,0,0,1,.246-.164.708.708,0,0,1,.294-.062.747.747,0,0,1,.752.752Zm0-7.055a.715.715,0,0,1-.219.523.779.779,0,0,1-.239.157.744.744,0,0,1-.294.058.769.769,0,0,1-.3-.058.812.812,0,0,1-.246-.157A.739.739,0,0,1,6.3,7.5a.685.685,0,0,1-.062-.291A.692.692,0,0,1,6.3,6.92a.742.742,0,0,1,.171-.239.893.893,0,0,1,.246-.164.708.708,0,0,1,.294-.062.747.747,0,0,1,.752.752Zm19.4,7.848a2.088,2.088,0,0,0-.41.629q-.089.239-.205.239a.722.722,0,0,1-.2-.041,12.748,12.748,0,0,1-5.387-2.7,12.863,12.863,0,0,1-5.182,2.7.95.95,0,0,1-.226.041q-.1,0-.212-.226a1.538,1.538,0,0,0-.39-.513,12.216,12.216,0,0,0,5.387-2.618A13.315,13.315,0,0,1,18.5,9.75a.262.262,0,0,1-.021-.082q0-.055.15-.13l.431-.205a.33.33,0,0,1,.109-.041q.041,0,.075.068a10.466,10.466,0,0,0,1.7,2.6,9.268,9.268,0,0,0,1.114-1.572,6.037,6.037,0,0,0,.547-1.2q.4.15.827.362.171.1.171.2t-.171.239a2.81,2.81,0,0,0-.5.656,14.193,14.193,0,0,1-1.374,1.921A12.582,12.582,0,0,0,27.159,15.055Zm-.185-9.037a.1.1,0,0,1-.109.109L25.02,6.1H17.008l-1.846.027q-.116,0-.116-.109V5.382q0-.109.116-.109l1.846.027H20.48V4.91a6.931,6.931,0,0,0-.1-1.415q.581.021.93.068.171.027.171.109a.864.864,0,0,1-.082.253,4.644,4.644,0,0,0-.055.984V5.3H25.02l1.846-.027a.1.1,0,0,1,.109.109ZM19.25,7.289q0,.068-.137.164a1.959,1.959,0,0,0-.424.431,12.368,12.368,0,0,1-2.714,2.44.837.837,0,0,1-.212.1q-.055,0-.185-.171a1.622,1.622,0,0,0-.458-.444A10.106,10.106,0,0,0,17.958,7.4a2.308,2.308,0,0,0,.4-.718,4.207,4.207,0,0,1,.738.4Q19.25,7.18,19.25,7.289Zm7.656,2.263a1.811,1.811,0,0,0-.451.52q-.116.2-.178.2a.544.544,0,0,1-.226-.082,10.779,10.779,0,0,1-3.343-2.96.166.166,0,0,1-.041-.082q0-.055.137-.137L23.14,6.8a.4.4,0,0,1,.15-.062.148.148,0,0,1,.1.062A9.47,9.47,0,0,0,26.906,9.552ZM40.4,6.64l-.027,1.791v2.242l.014,2.058a1.082,1.082,0,0,1-.308.9,2.635,2.635,0,0,1-1.374.267.523.523,0,0,1-.253-.034.448.448,0,0,1-.082-.205,1.3,1.3,0,0,0-.253-.574q.417.041.978.041a.441.441,0,0,0,.492-.506V11.343H36.928V12l.027,1.682q0,.109-.1.109h-.608a.1.1,0,0,1-.109-.109L36.169,12v-.656H33.756v.8l.027,1.7a.1.1,0,0,1-.109.109h-.608a.1.1,0,0,1-.109-.109l.027-1.682V8.349L32.956,6.64a.1.1,0,0,1,.109-.109l1.887.027h1.326a11.687,11.687,0,0,0-1.586-1.094q-.075-.041-.075-.082t.116-.144l.28-.219a.205.205,0,0,1,.123-.075.273.273,0,0,1,.109.041,15.65,15.65,0,0,1,1.511,1.107,22.415,22.415,0,0,0,1.962-1.511H34.706l-1.832.027q-.116,0-.116-.109V3.967q0-.123.116-.123l1.832.027h4.143a.981.981,0,0,0,.335-.041.42.42,0,0,1,.164-.055q.116,0,.4.28t.294.431q0,.137-.185.2a1.654,1.654,0,0,0-.492.308,24.753,24.753,0,0,1-2.1,1.552l.027.014H38.4l1.894-.027A.1.1,0,0,1,40.4,6.64Zm-.813,4.047V9.271H36.928v1.415Zm0-2.058V7.214H36.928V8.629Zm-3.418,0V7.214H33.756V8.629Zm0,2.058V9.271H33.756v1.415Zm5.421,3.835a1.649,1.649,0,0,0-.26.677.5.5,0,0,1-.082.253.652.652,0,0,1-.246.034q-2.646.185-5.093.185a8.482,8.482,0,0,1-3.432-.465,2.68,2.68,0,0,1-1.347-1.367q-.526.574-1.395,1.36a1.057,1.057,0,0,0-.267.321.18.18,0,0,1-.157.109.236.236,0,0,1-.164-.109,4.179,4.179,0,0,1-.451-.786,4.247,4.247,0,0,0,.868-.52,8.444,8.444,0,0,0,1.189-1.1V9.641H29.8l-.923.027q-.116,0-.116-.13V8.923q0-.1.116-.1l.923.027h.711l.957-.027q.109,0,.109.1l-.027,1.333v2.871a2.637,2.637,0,0,0,.52.854,2.3,2.3,0,0,0,.711.485,7.179,7.179,0,0,0,2.8.376A55.834,55.834,0,0,0,41.59,14.521Zm-10.1-8.565a.232.232,0,0,1,.034.082q0,.048-.137.144l-.335.253a.406.406,0,0,1-.185.1q-.041,0-.082-.068a9.866,9.866,0,0,0-1.545-2.03q-.048-.048-.048-.068,0-.041.137-.13l.335-.226a.318.318,0,0,1,.137-.062.168.168,0,0,1,.1.062A10.739,10.739,0,0,1,31.486,5.956ZM55.077,7.132l-.041.4a5.217,5.217,0,0,1-.253,1.128.861.861,0,0,1-.39.458,1.375,1.375,0,0,1-.588.1q-.157,0-.561-.027-.014.191-.014,1.176v2.126l.027,1.36q0,.109-.116.109L51.2,13.934H47.072l-1.962.027A.1.1,0,0,1,45,13.852l.027-1.36V9.524a11.142,11.142,0,0,1-1.531.492.877.877,0,0,1-.2.041q-.1,0-.205-.226a1.174,1.174,0,0,0-.308-.4,9.2,9.2,0,0,0,2.591-.752A3.2,3.2,0,0,0,46.635,7.6H44.563l-.15.349q-.068.15-.171.15a.691.691,0,0,1-.109-.014l-.321-.055q-.171-.034-.171-.1a.369.369,0,0,1,.027-.109,8.609,8.609,0,0,0,.52-1.306,4.728,4.728,0,0,0,.171-.738q0-.144.123-.144l1.976.027h.793a7.775,7.775,0,0,0,.062-.841h-1.4l-1.962.027q-.109,0-.109-.1v-.41a.1.1,0,0,1,.109-.109l1.962.027h1.415V4.151a3.087,3.087,0,0,0-.089-.786q.526.021.759.055.2.027.2.144a1.179,1.179,0,0,1-.075.191,1.452,1.452,0,0,0-.055.506H50.23a3.682,3.682,0,0,0-.1-.909q.383.014.786.055.185.021.185.13a.687.687,0,0,1-.089.205,1.512,1.512,0,0,0-.055.52h.8l2.126-.027A.1.1,0,0,1,54,4.35l-.034.7v.376l.034.7q0,.109-.116.109l-2.126-.027h-.8v.827h2.03l1.976-.027q.116,0,.116.089A.112.112,0,0,1,55.077,7.132Zm-.854.465H50.962l.027.923a.1.1,0,0,1-.109.109h-.561a.1.1,0,0,1-.109-.109l.007-.287q.007-.294.014-.636H47.448A3.79,3.79,0,0,1,46.19,8.923H51.2l1.764-.014a1.6,1.6,0,0,0-.144-.458,5.891,5.891,0,0,0,.868.068A.62.62,0,0,0,54,8.465a.4.4,0,0,0,.109-.212A2.992,2.992,0,0,0,54.223,7.6Zm-1.791,5.722v-.937h-6.61v.937Zm0-1.5v-.868h-6.61v.868Zm0-1.429V9.538h-6.61v.854Zm-2.2-3.356V6.209H47.913a4.163,4.163,0,0,1-.212.827ZM53.2,5.662V4.821H50.962v.841Zm-2.974,0V4.821H48.05q0,.308-.055.841Zm-3.049.547H45.015q-.089.349-.239.827h2.153A4.311,4.311,0,0,0,47.182,6.209Zm.39,8.374q0,.1-.157.123a2.01,2.01,0,0,0-.444.2A11.127,11.127,0,0,1,43.682,16a1.135,1.135,0,0,1-.205.034q-.1,0-.205-.185a1.38,1.38,0,0,0-.376-.492,10.912,10.912,0,0,0,3.274-.909,2.181,2.181,0,0,0,.52-.362,6.145,6.145,0,0,1,.738.335Q47.571,14.508,47.571,14.583Zm7.438.711a2.451,2.451,0,0,0-.4.52q-.1.178-.205.178a1.911,1.911,0,0,1-.2-.027,10.4,10.4,0,0,1-3.671-1.395q-.062-.041-.062-.075,0-.055.15-.137l.4-.212a.4.4,0,0,1,.15-.062.183.183,0,0,1,.089.034A9.24,9.24,0,0,0,55.009,15.294Zm9.1-9.311a3.553,3.553,0,0,1,.362-.014,2.4,2.4,0,0,1,2.023.93,2.83,2.83,0,0,1,.554,1.771,2.543,2.543,0,0,1-.978,2.194,3.92,3.92,0,0,1-2.358.622q-.349,0-.882-.027l-.15-.95q.759.055,1.148.055,2.181,0,2.181-1.853a1.982,1.982,0,0,0-.567-1.538,1.546,1.546,0,0,0-1.066-.39,14.2,14.2,0,0,0-4.074.95q1.012,3.794,1.859,7.731l-1,.205q-.813-3.931-1.791-7.615-.82.28-2.146.786l-.349-.868q1.914-.649,2.256-.759-.267-.978-.827-2.939l.964-.253L59.7,5.58q.226.793.376,1.326a23.04,23.04,0,0,1,2.98-.827,19.409,19.409,0,0,0-1.019-2.058l.9-.335A20.619,20.619,0,0,1,64.107,5.983Zm17.151,8.094a1.915,1.915,0,0,0-.376.54q-.1.212-.171.212a.552.552,0,0,1-.212-.082A9.61,9.61,0,0,1,76.542,11.3q.007,1.155.055,2.953.041,1.408.041,1.586a.1.1,0,0,1-.109.109H75.9q-.116,0-.116-.109,0-.246.034-1.894.034-1.62.055-2.618a9.157,9.157,0,0,1-3.739,3.521.58.58,0,0,1-.2.082q-.068,0-.2-.212a1.475,1.475,0,0,0-.4-.465,8.879,8.879,0,0,0,4.1-3.377H74.061l-1.969.027q-.116,0-.116-.123v-.533q0-.123.116-.123l1.969.027h1.75V9.736a8.219,8.219,0,0,0-.082-1.278q.431.021.868.082.171.027.171.13a1.972,1.972,0,0,1-.1.253,2.634,2.634,0,0,0-.055.711v.52h2.256l1.976-.027q.109,0,.109.123v.533q0,.123-.109.123l-1.976-.027H76.932A9.8,9.8,0,0,0,81.259,14.077ZM80.63,6.154q0,.1-.116.1H79.9q-.109,0-.109-.1V4.835H73.206V6.346q0,.13-.109.13h-.6q-.116,0-.116-.13l.027-1.23V4.794l-.027-.6a.1.1,0,0,1,.109-.109l1.935.027h4.149l1.948-.027a.1.1,0,0,1,.109.109l-.027.479V5.02Zm.226,1.354a1.507,1.507,0,0,1-.4.9,2.4,2.4,0,0,1-1.606.349,3.817,3.817,0,0,1-1.442-.171.938.938,0,0,1-.424-.923V6.756A7.379,7.379,0,0,0,76.9,5.45a7.552,7.552,0,0,1,.827.075q.185.021.185.123a.649.649,0,0,1-.089.239,2.461,2.461,0,0,0-.055.7v.909q0,.342.13.424a2.119,2.119,0,0,0,.991.13,1.565,1.565,0,0,0,1.019-.212,1.572,1.572,0,0,0,.239-.957,1.847,1.847,0,0,0,.492.28q.226.089.226.2A1.455,1.455,0,0,1,80.855,7.508ZM75.824,5.86a.332.332,0,0,1-.082.164,3.308,3.308,0,0,0-.2.533A3.974,3.974,0,0,1,72.9,9.244a.769.769,0,0,1-.205.062q-.082,0-.2-.185a1.7,1.7,0,0,0-.417-.451,4.688,4.688,0,0,0,2.03-1.094,2.655,2.655,0,0,0,.656-1.189,3.571,3.571,0,0,0,.109-.9,5.2,5.2,0,0,1,.827.226Q75.824,5.771,75.824,5.86ZM71.347,11.9a28.064,28.064,0,0,1-1.429,2.967,2.58,2.58,0,0,0-.294.6q-.021.157-.15.157a.31.31,0,0,1-.185-.082,6.532,6.532,0,0,1-.6-.506,5.617,5.617,0,0,0,.738-1.032,21.238,21.238,0,0,0,1.36-2.974,2.512,2.512,0,0,0,.431.424q.2.157.2.226A.678.678,0,0,1,71.347,11.9Zm.28-6.6a.131.131,0,0,1,.048.082.373.373,0,0,1-.089.157l-.294.362q-.089.109-.144.109a.15.15,0,0,1-.1-.055,9.976,9.976,0,0,0-1.791-1.641Q69.2,4.274,69.2,4.24t.1-.144l.267-.294q.1-.116.15-.116a.168.168,0,0,1,.075.027A12.119,12.119,0,0,1,71.627,5.3ZM71,8.588a.114.114,0,0,1,.041.075.348.348,0,0,1-.082.15l-.294.39q-.1.123-.15.123a.149.149,0,0,1-.089-.055,9.408,9.408,0,0,0-1.8-1.456q-.068-.041-.068-.082a.25.25,0,0,1,.082-.137l.28-.355q.075-.089.13-.089a.17.17,0,0,1,.075.021A11.1,11.1,0,0,1,71,8.588ZM91.28,10.311a.138.138,0,0,1,.041.082q0,.041-.1.116l-.294.232q-.109.1-.15.1t-.089-.075a8.839,8.839,0,0,0-1.285-1.306q-.055-.041-.055-.075t.123-.137l.239-.191a.212.212,0,0,1,.116-.068.174.174,0,0,1,.1.055A8.7,8.7,0,0,1,91.28,10.311Zm4.19,4.771a1.436,1.436,0,0,0-.424.588q-.1.239-.171.239a.769.769,0,0,1-.205-.062,14.274,14.274,0,0,1-4.184-2.3,13.308,13.308,0,0,1-3.814,2.338.712.712,0,0,1-.205.068q-.082,0-.185-.226a1.174,1.174,0,0,0-.349-.444A12.459,12.459,0,0,0,89.865,13,10.86,10.86,0,0,1,87.9,10.283a14.589,14.589,0,0,1-1.4,1.5.456.456,0,0,1-.212.123q-.068,0-.2-.164a1.2,1.2,0,0,0-.376-.321,10.985,10.985,0,0,0,2.249-2.475,9.578,9.578,0,0,0,1.025-1.921,3.173,3.173,0,0,0,.212-.738,6.876,6.876,0,0,1,.813.232q.123.041.123.144a.2.2,0,0,1-.109.178,1.972,1.972,0,0,0-.239.383l-.212.417h3.445a.543.543,0,0,0,.212-.027.422.422,0,0,1,.157-.055q.116,0,.4.253.239.2.239.328,0,.109-.157.226a1.092,1.092,0,0,0-.232.438,14.357,14.357,0,0,1-2.584,4.17A13.841,13.841,0,0,0,95.471,15.082ZM92.894,8.349H89.182a14.651,14.651,0,0,1-.813,1.285,9.03,9.03,0,0,0,2.071,2.816A12.123,12.123,0,0,0,92.894,8.349Zm2.071-2.529q0,.109-.116.109L92.989,5.9H84.854l-1.846.027q-.116,0-.116-.109V5.211q0-.109.116-.109l1.846.027H88.4v-.4a6.133,6.133,0,0,0-.1-1.292q.622.027.95.068.171.027.171.13a.9.9,0,0,1-.082.267,2.339,2.339,0,0,0-.075.766v.465h3.726L94.849,5.1q.116,0,.116.109Zm-8.285.95q0,.068-.123.164a1.348,1.348,0,0,0-.328.465q-.561.971-.868,1.415V14.1l.027,1.8q0,.116-.109.116h-.636q-.123,0-.123-.116l.027-1.8V11.6q0-.328.027-.943.027-.649.027-.82a13.116,13.116,0,0,1-1.456,1.531.55.55,0,0,1-.212.137q-.027,0-.123-.137a1.2,1.2,0,0,0-.349-.492A11.5,11.5,0,0,0,85.511,7a3.564,3.564,0,0,0,.239-.731,5.15,5.15,0,0,1,.759.308Q86.68,6.653,86.68,6.77Zm15.429,4.717a2.634,2.634,0,0,0-.335.52q-.089.15-.144.15-.021,0-.137-.137a13.057,13.057,0,0,1-1.442-2.55q.007,2.153.062,4.614.014.574.034,1.388.014.383.014.424,0,.1-.109.1H99.4q-.109,0-.109-.1,0-.027.021-1,.068-2.926.089-5.312a18.978,18.978,0,0,1-2.1,4.2q-.1.137-.137.137-.062,0-.144-.171a1.217,1.217,0,0,0-.349-.5,16.365,16.365,0,0,0,2.461-4.464H98.6l-1.511.027q-.109,0-.109-.1v-.54q0-.116.109-.116l1.511.027h.731V5.074a10.574,10.574,0,0,0-.1-1.7q.6.027.868.068.185.027.185.13a.775.775,0,0,1-.1.267,5.361,5.361,0,0,0-.068,1.217V8.082h.267l1.511-.027q.109,0,.109.116v.54q0,.1-.109.1l-1.511-.027h-.157A11.89,11.89,0,0,0,102.108,11.486Zm7.178.055a.158.158,0,0,1,.014.055q0,.041-.109.075-.889.144-1.654.294v1.483l.027,2.42a.1.1,0,0,1-.109.109h-.677a.1.1,0,0,1-.109-.109l.027-2.406V12.129l-2.673.52q-.807.157-1.422.294-.4.082-.41.089a.411.411,0,0,1-.062.007q-.055,0-.068-.109l-.109-.6a.294.294,0,0,1-.007-.055q0-.055.1-.075.027-.007.232-.034.7-.1,1.613-.287l2.8-.561V5.45a14,14,0,0,0-.1-1.914,8.416,8.416,0,0,1,.909.068q.185.027.185.123a.908.908,0,0,1-.068.253,6.658,6.658,0,0,0-.089,1.442v5.729q.943-.191,1.511-.355h.041q.068,0,.089.116Zm-3.958-2.085a.174.174,0,0,1,.055.1q0,.034-.1.13l-.314.335q-.116.123-.157.123t-.075-.055a11.166,11.166,0,0,0-1.948-1.777q-.062-.034-.062-.075t.1-.144l.294-.28q.082-.082.123-.082a.2.2,0,0,1,.089.041A10.693,10.693,0,0,1,105.328,9.456Zm.349-3.117q.055.055.055.082t-.082.123l-.321.335a.665.665,0,0,1-.157.137q-.027,0-.068-.062a9.089,9.089,0,0,0-1.921-1.75q-.055-.041-.055-.068,0-.048.116-.157l.294-.294q.075-.082.109-.082a.166.166,0,0,1,.082.041A9.736,9.736,0,0,1,105.677,6.339Zm-3.322-1.572a.261.261,0,0,1-.1.157.861.861,0,0,0-.185.308,19.32,19.32,0,0,1-.725,1.846q-.082.185-.157.185a.4.4,0,0,1-.178-.082,1.555,1.555,0,0,0-.376-.157A10.545,10.545,0,0,0,101.4,4.91a2,2,0,0,0,.089-.547,4.191,4.191,0,0,1,.711.253Q102.354,4.691,102.354,4.767ZM98.7,6.94A.294.294,0,0,1,98.711,7q0,.048-.178.123l-.321.13a.62.62,0,0,1-.157.048q-.041,0-.062-.089a11.033,11.033,0,0,0-.786-2.386.132.132,0,0,1-.027-.062q0-.048.137-.1l.321-.144a.49.49,0,0,1,.144-.048q.034,0,.068.075A12.458,12.458,0,0,1,98.7,6.94Zm23.953,8.408q0,.109-.116.109l-1.887-.027h-7.588l-1.894.027a.1.1,0,0,1-.109-.109V14.74a.1.1,0,0,1,.109-.109l1.894.027h3.261V11h-2.789l-1.928.027q-.116,0-.116-.109v-.595q0-.109.116-.109l1.928.027h2.789V8.492h-.854l-1.75.014q-.109,0-.109-.1V7.815a.1.1,0,0,1,.109-.109l1.75.027h2.755L120,7.706a.1.1,0,0,1,.109.109V8.4q0,.1-.109.1l-1.771-.014H117.2v1.75h3.035l1.935-.027a.1.1,0,0,1,.109.109v.595a.081.081,0,0,1-.109.109L120.23,11H117.2v3.657h3.459l1.887-.027q.116,0,.116.109ZM123.525,8a1.6,1.6,0,0,0-.41.547q-.116.212-.185.212a1.126,1.126,0,0,1-.219-.068,13.179,13.179,0,0,1-5.913-4.3,14.409,14.409,0,0,1-5.708,4.437.7.7,0,0,1-.2.062q-.068,0-.191-.191a1.314,1.314,0,0,0-.451-.431,13.147,13.147,0,0,0,5.77-4.286,3.041,3.041,0,0,0,.4-.779,4.172,4.172,0,0,1,.9.191q.2.068.2.185,0,.068-.1.123a.379.379,0,0,0-.13.089,11.238,11.238,0,0,0,3.049,2.769A15.984,15.984,0,0,0,123.525,8Zm-2.762,3.992q0,.068-.137.178a1.049,1.049,0,0,0-.226.342,13.26,13.26,0,0,1-1,1.675q-.116.144-.164.144a.433.433,0,0,1-.2-.1,1.184,1.184,0,0,0-.472-.226,9.909,9.909,0,0,0,1.1-1.88,3.2,3.2,0,0,0,.212-.615,4.029,4.029,0,0,1,.711.294Q120.764,11.91,120.764,11.992ZM114.83,13.64a.268.268,0,0,1,.021.089q0,.062-.137.123l-.431.212a.832.832,0,0,1-.185.075q-.041,0-.068-.089a8.837,8.837,0,0,0-1-2,.133.133,0,0,1-.027-.068q0-.048.157-.13l.376-.164a.631.631,0,0,1,.157-.062q.048,0,.1.075A9.841,9.841,0,0,1,114.83,13.64Zm12.147-3.65q-.7,0-2.126-.027v-.9q.588.027,2.215.027l.219-2.283q-1,0-2.352-.027v-.9q1.189.068,2.44.068.048-.424.123-1.155.089-.813.109-1.06l1.012.075q-.048.451-.123,1.169-.082.752-.1.957,1.442-.014,3.767-.157l.014.9q-1.839.116-3.876.116-.075.834-.253,2.283,2.235-.027,3.979-.157v.9q-2.16.137-4.061.157a32.724,32.724,0,0,0-.226,3.288,1.408,1.408,0,0,0,.5,1.23,2.723,2.723,0,0,0,1.531.335,3.8,3.8,0,0,0,2.208-.526,1.511,1.511,0,0,0,.649-1.292,3.093,3.093,0,0,0-.813-2.017l.923-.349a3.489,3.489,0,0,1,.937,2.311q0,2.816-3.9,2.816a3.309,3.309,0,0,1-2.454-.725,2.532,2.532,0,0,1-.54-1.784Q126.772,12.17,126.978,9.989Zm9.14,2.488a14.949,14.949,0,0,1,1.641,1.531,10.045,10.045,0,0,1,1.169,1.483l-.923.684a11.119,11.119,0,0,0-2.7-3.035ZM155.2,15.759q0,.1-.109.1h-.663q-.109,0-.109-.1v-.786h-6.932v.8q0,.1-.109.1h-.663q-.109,0-.109-.1l.027-4.437V8.745L146.5,5.4a.1.1,0,0,1,.109-.109l1.962.027h.827a12.48,12.48,0,0,0,.561-1.483,3.218,3.218,0,0,0,.1-.615q.41.055.9.164.171.048.171.157a.228.228,0,0,1-.082.15,1.128,1.128,0,0,0-.212.355q-.308.82-.533,1.271h2.83l1.962-.027a.1.1,0,0,1,.109.109l-.027,3.028v2.9Zm-.882-1.586V11.842h-6.932v2.331Zm0-3.1v-2.1h-6.932v2.1Zm0-2.871V6.113h-6.932V8.2Zm15.832,7.547q0,.1-.109.1h-.69q-.109,0-.109-.1V15H160.46v.772a.1.1,0,0,1-.109.109h-.677a.1.1,0,0,1-.109-.109l.027-3.917V9.518l-.027-2.974a.1.1,0,0,1,.109-.109l1.976.027h2.646V5.368a11.874,11.874,0,0,0-.109-1.887,9.06,9.06,0,0,1,.978.082q.171.027.171.123a.439.439,0,0,1-.027.13q-.034.1-.041.137a6.8,6.8,0,0,0-.089,1.388V6.462h2.885l1.976-.027a.1.1,0,0,1,.109.109l-.027,2.707v2.591Zm-.909-1.545V11.015h-4.061V14.2Zm-4.942,0V11.015H160.46V14.2Zm4.942-3.972V7.262h-4.061v2.967Zm-4.942,0V7.262H160.46v2.967Zm11.9,1.2.957.082A5.458,5.458,0,0,0,177,12.771a1.054,1.054,0,0,0,.444.978,3.167,3.167,0,0,0,1.545.273,25.984,25.984,0,0,0,2.769-.144l.027,1.012q-1.025.082-2.659.082a4.349,4.349,0,0,1-2.44-.492,1.783,1.783,0,0,1-.636-1.552A7.219,7.219,0,0,1,176.2,11.432Zm.28-4.676V5.8q1.75-.137,3.541-.137.889,0,1.668.041v.95q-.725-.055-1.764-.055Q178.131,6.6,176.477,6.756Zm-1.511-2.413a36.343,36.343,0,0,0-.786,6.61,24.83,24.83,0,0,0,.342,4.382l-1,.082a28.85,28.85,0,0,1-.321-4.491,40.269,40.269,0,0,1,.772-6.665ZM196.2,15.1a2.051,2.051,0,0,0-.4.533q-.123.239-.2.239a1.061,1.061,0,0,1-.2-.068,12.3,12.3,0,0,1-3.145-1.894,10.65,10.65,0,0,1-3.254,2,.879.879,0,0,1-.205.062q-.068,0-.2-.219a1.4,1.4,0,0,0-.431-.458,10.2,10.2,0,0,0,3.514-1.948,8.935,8.935,0,0,1-1.894-3.165L189,10.2q-.109,0-.109-.123V9.5q0-.1.109-.1l1.7.027h3.336a.819.819,0,0,0,.294-.055.785.785,0,0,1,.164-.041q.1,0,.349.267a1.148,1.148,0,0,1,.267.39q0,.1-.137.185a1.149,1.149,0,0,0-.294.438,10.133,10.133,0,0,1-1.846,2.728A10.839,10.839,0,0,0,196.2,15.1Zm-2.222-4.929h-3.391a7.526,7.526,0,0,0,1.668,2.632A7.84,7.84,0,0,0,193.977,10.174Zm-6.036,5.455q0,.109-.116.109h-.561a.1.1,0,0,1-.109-.109v-.561h-2.126v.813a.1.1,0,0,1-.109.109h-.561q-.13,0-.13-.109l.027-2.058v-.841l-.027-1.244q0-.1.123-.1l1.2.027h1.073l1.21-.027q.109,0,.109.1l-.027,1v.943Zm-.786-1.244v-2.03h-2.126v2.03Zm8.907-7.841a1.977,1.977,0,0,1-.451,1.36,1.9,1.9,0,0,1-1.258.294,2.177,2.177,0,0,1-1.025-.157q-.39-.205-.39-.991v-2.3h-1.989a6.411,6.411,0,0,1-.431,2.577,3.619,3.619,0,0,1-1.107,1.388.506.506,0,0,1-.226.137q-.075,0-.212-.15a1.081,1.081,0,0,0-.472-.321,3.591,3.591,0,0,0,1.237-1.271,4.482,4.482,0,0,0,.424-2.078l-.027-.943a.1.1,0,0,1,.109-.109l1.142.027h1.1l1.169-.027a.1.1,0,0,1,.109.109l-.027,1.183V6.715q0,.506.137.615a1.132,1.132,0,0,0,.622.109.765.765,0,0,0,.684-.267,2.967,2.967,0,0,0,.164-1.258,1.487,1.487,0,0,0,.479.28q.185.062.212.13A.508.508,0,0,1,196.062,6.544Zm-7.6.1q0,.109-.116.109l-1.456-.027h-1.723l-1.456.027q-.1,0-.1-.109V6.052q0-.109.1-.109l1.456.027h1.723l1.456-.027q.116,0,.116.109Zm-.437-1.907a.1.1,0,0,1-.109.109L186.7,4.821h-1.121l-1.217.027q-.116,0-.116-.109V4.179q0-.109.116-.109l1.217.027H186.7l1.217-.027a.1.1,0,0,1,.109.109Zm-.2,5.64q0,.116-.109.116l-1.135-.034H185.6l-1.135.034q-.109,0-.109-.116V9.832a.1.1,0,0,1,.109-.109l1.135.027h.978l1.135-.027a.1.1,0,0,1,.109.109Zm0-1.873q0,.116-.109.116l-1.135-.034H185.6l-1.135.034q-.109,0-.109-.116V7.959a.1.1,0,0,1,.109-.109l1.135.027h.978l1.135-.027a.1.1,0,0,1,.109.109ZM209.713,14.6a2.535,2.535,0,0,0-.2.588.528.528,0,0,1-.1.26.43.43,0,0,1-.239.048q-.9.027-1.319.027-4.074-.007-5.6-.772a3.3,3.3,0,0,1-1.162-.957,6.411,6.411,0,0,1-.588-.971,7.278,7.278,0,0,1-2.058,2.816.644.644,0,0,1-.2.137q-.048,0-.191-.171a1.354,1.354,0,0,0-.479-.376,6.686,6.686,0,0,0,2.7-4.874,4.6,4.6,0,0,0,.048-.595q0-.089-.007-.185.362.048.813.15.212.055.212.157a.6.6,0,0,1-.1.219.746.746,0,0,0-.144.349,12.679,12.679,0,0,1-.308,1.429,4.633,4.633,0,0,0,1,1.593,3.732,3.732,0,0,0,1.572.82V8.355h-1.511l-1.921.027q-.123,0-.123-.109V7.679q0-.109.123-.109l1.921.027h3.89l1.921-.027a.1.1,0,0,1,.109.109v.595a.1.1,0,0,1-.109.109l-1.921-.027h-1.538V10.7h2.085l1.374-.027a.1.1,0,0,1,.109.109v.595a.1.1,0,0,1-.109.109l-1.374-.027h-2.085V14.48a21.3,21.3,0,0,0,3.165.185Q208.332,14.665,209.713,14.6Zm-.253-6.891a.1.1,0,0,1-.116.116H208.7q-.109,0-.109-.116V5.778h-9.55V7.706a.1.1,0,0,1-.116.116h-.643q-.109,0-.109-.116l.027-1.436V5.833l-.027-.745q0-.1.109-.1l1.935.027h3.021v-.2a7.092,7.092,0,0,0-.1-1.429,8.84,8.84,0,0,1,.909.075q.171.021.171.109a.816.816,0,0,1-.089.253,4.573,4.573,0,0,0-.055.991v.2H207.4l1.941-.027q.116,0,.116.1l-.027.649v.533Zm8.524-1.2q-.041,1.518,0,3.035a5.324,5.324,0,0,1,.308,1.777,3.687,3.687,0,0,1-1.306,3.069,7.744,7.744,0,0,1-3.274,1.271l-.588-.841a6.334,6.334,0,0,0,3.411-1.381,2.741,2.741,0,0,0,.807-1.88,1.856,1.856,0,0,1-1.8.882,2.2,2.2,0,0,1-1.531-.574,2.082,2.082,0,0,1-.67-1.62,2.07,2.07,0,0,1,.793-1.736,2.469,2.469,0,0,1,1.559-.492,2,2,0,0,1,1.36.39q-.027-1.312-.027-1.873-2.249.034-5.435.239l-.014-.9q2.584-.1,5.435-.171V3.8l1,.014q0,.629-.027,1.859,2.324-.027,3.363-.027v.9Q219.666,6.5,217.984,6.5Zm-2.338,2.3a1.322,1.322,0,0,0-.984.4,1.413,1.413,0,0,0-.39,1.046,1.237,1.237,0,0,0,.444,1,1.288,1.288,0,0,0,.848.294,1.406,1.406,0,0,0,1.1-.41,1.3,1.3,0,0,0,.314-.916Q216.979,8.8,215.646,8.8Zm8.627-4.259q1.853-.014,5.694-.2l.588.731q-2.728,2.769-4.327,4.156l-.629.547.055.041.718-.485a4.614,4.614,0,0,1,1.976-.533,3.547,3.547,0,0,1,2.707,1,3.071,3.071,0,0,1,.807,2.208,3.316,3.316,0,0,1-1.278,2.844,5.317,5.317,0,0,1-3.22.848q-2.741,0-2.741-1.859a1.625,1.625,0,0,1,.588-1.312,2.172,2.172,0,0,1,1.429-.451,2.3,2.3,0,0,1,1.777.752,3.445,3.445,0,0,1,.786,1.682,2.579,2.579,0,0,0,1.258-.978,2.922,2.922,0,0,0,.362-1.538,2.231,2.231,0,0,0-.868-1.873,2.671,2.671,0,0,0-1.668-.526,4.9,4.9,0,0,0-3.384,1.36,12.448,12.448,0,0,0-1.162,1.217l-.827-.67q3.35-3.445,6.132-6.275-2.01.15-4.771.226Zm3.944,10.247a3.024,3.024,0,0,0-.622-1.429,1.275,1.275,0,0,0-.984-.472,1.119,1.119,0,0,0-.807.3.828.828,0,0,0-.273.622.87.87,0,0,0,.465.827,2.872,2.872,0,0,0,1.3.226A6.036,6.036,0,0,0,228.218,14.788Zm6.132-4.047.909.28a3.153,3.153,0,0,0-.533,1.825q0,1.593,2.871,1.593a31.8,31.8,0,0,0,3.555-.2l.014,1.053q-1.641.109-3.582.109a5.244,5.244,0,0,1-2.871-.622,2.206,2.206,0,0,1-.95-1.962A3.852,3.852,0,0,1,234.35,10.741Zm.185-5.92q.868.041,2.5.041,1.668,0,3.63-.15l.164.95A20.6,20.6,0,0,0,237.207,7.9l-.629-.7q.3-.212,2.406-1.524a18.642,18.642,0,0,1-2.256.109q-.854,0-2.194-.055Zm12.141,3.555q1.429-.854,3.274-1.818l.5.882a29.874,29.874,0,0,0-4.464,2.5,3.4,3.4,0,0,0-1.709,2.714q0,1.8,2.885,1.8,1.483,0,3.391-.137v1q-2.345.068-3.459.068-3.78,0-3.78-2.755,0-2.085,2.475-3.7Q245.2,6.8,244.7,3.912l1.032-.041A41.144,41.144,0,0,0,246.675,8.376Zm9.666-.937A41.522,41.522,0,0,1,253.7,15.28l-.923-.362a37.253,37.253,0,0,0,2.563-7.41q-.848.062-2.577.226l-.055-.882q.513-.034,1.518-.1l1.313-.089q.26-1.183.533-2.782l.991.137q-.308,1.6-.533,2.591.786-.055,1.429-.055a1.428,1.428,0,0,1,1.278.567,3.662,3.662,0,0,1,.4,1.982,19.506,19.506,0,0,1-.437,4.97,1.777,1.777,0,0,1-.636,1,1.828,1.828,0,0,1-1.073.28,9.249,9.249,0,0,1-1.422-.109l-.171-.978a6.216,6.216,0,0,0,1.244.164,1.47,1.47,0,0,0,.745-.144.9.9,0,0,0,.335-.485,16.428,16.428,0,0,0,.444-4.566,3.52,3.52,0,0,0-.219-1.538.713.713,0,0,0-.677-.321Q257.127,7.385,256.341,7.439Zm4.108-3.992.711-.28A19.249,19.249,0,0,1,262.2,5.539l-.759.308A14.764,14.764,0,0,0,260.449,3.447Zm1.5-.472.7-.253a11.326,11.326,0,0,1,.991,2.3l-.725.294A13.489,13.489,0,0,0,261.946,2.976Zm-2.311,2.844.882-.451a16.879,16.879,0,0,1,2.406,4.833l-.978.458A14.512,14.512,0,0,0,259.636,5.819Zm11.724,2.023.718-.273a18.274,18.274,0,0,1,1.032,2.365l-.752.308A15.124,15.124,0,0,0,271.359,7.843Zm1.586-.472.7-.253a11.567,11.567,0,0,1,1,2.3l-.731.294A13.489,13.489,0,0,0,272.945,7.371Zm.39-2.632.027.964a5.312,5.312,0,0,0-2.311.629,5.934,5.934,0,0,0-2.071,1.962,4.817,4.817,0,0,0-.813,2.659,2.958,2.958,0,0,0,1.285,2.529,6.169,6.169,0,0,0,2.933,1l-.239,1a6.1,6.1,0,0,1-3.63-1.381,3.89,3.89,0,0,1-1.312-3.049A5.709,5.709,0,0,1,270.2,6.024l.759-.335-.014-.027-.656.109q-1.189.068-5.66.479l-.082-.923Q266.547,5.177,273.335,4.739ZM281.9,8.67a12.541,12.541,0,0,0,2.078,2.857l-.574.9a7.984,7.984,0,0,0-3.657-.854,3.85,3.85,0,0,0-2,.444,1.157,1.157,0,0,0-.643,1.012q0,.813,1.1,1.21a7.484,7.484,0,0,0,2.5.335q.82,0,1.976-.089v.984q-.615.041-2.017.041-4.546,0-4.546-2.365a1.971,1.971,0,0,1,1.066-1.8,5.521,5.521,0,0,1,2.741-.567,6.3,6.3,0,0,1,2.851.615A11.321,11.321,0,0,1,280.937,8.8a34.235,34.235,0,0,1-4.341.28l-.137-.854A33.363,33.363,0,0,0,280.547,8q-.444-1.019-.69-1.682-1.757.185-3.794.226l-.123-.882a34.558,34.558,0,0,0,3.637-.171q-.205-.567-.526-1.62l1-.1q.246.9.479,1.62,1.422-.171,3.063-.52l.144.854q-1.647.328-2.912.479a16.611,16.611,0,0,0,.684,1.668q1.47-.212,2.6-.479l.171.841Q283.179,8.472,281.9,8.67ZM5.093,23.594q-.027-1.176-.027-1.853h1v1.812q1.7-.062,3.37-.267v.868q-1.531.185-3.356.253l.041,2.01q1.935-.089,3.247-.26v.868q-1.538.171-3.233.232.014.335.062,1.449.027.745.048,1.2a10.066,10.066,0,0,1,3.726,2.372l-.7.861a9.516,9.516,0,0,0-3.015-2.249v.15A2.184,2.184,0,0,1,3.78,33.506a3.271,3.271,0,0,1-2.017-.5,1.7,1.7,0,0,1-.6-1.436,1.679,1.679,0,0,1,.8-1.449,3.138,3.138,0,0,1,1.832-.5,8.4,8.4,0,0,1,1.47.1q-.048-.848-.1-2.427-1.825.048-3.644,0v-.848q1.7.055,3.63.014-.027-.383-.034-1.087-.014-.663-.027-.943-2.105.041-3.794-.027v-.841Q2.987,23.642,5.093,23.594Zm.171,7.055a5.407,5.407,0,0,0-1.374-.185q-1.832,0-1.832,1.107,0,1.066,1.654,1.066,1.552,0,1.552-1.866ZM17.78,24.5q-.041,1.518,0,3.035a5.324,5.324,0,0,1,.308,1.777,3.687,3.687,0,0,1-1.306,3.069,7.744,7.744,0,0,1-3.274,1.271l-.588-.841a6.334,6.334,0,0,0,3.411-1.381,2.741,2.741,0,0,0,.807-1.88,1.856,1.856,0,0,1-1.8.882,2.2,2.2,0,0,1-1.531-.574,2.3,2.3,0,0,1,.123-3.356,2.469,2.469,0,0,1,1.559-.492,2,2,0,0,1,1.36.39q-.027-1.312-.027-1.873-2.249.034-5.435.239l-.014-.9q2.584-.1,5.435-.171V21.8l1,.014q0,.629-.027,1.859,2.324-.027,3.363-.027v.9Q19.462,24.5,17.78,24.5Zm-2.338,2.3a1.322,1.322,0,0,0-.984.4,1.413,1.413,0,0,0-.39,1.046,1.237,1.237,0,0,0,.444,1,1.288,1.288,0,0,0,.848.294,1.405,1.405,0,0,0,1.1-.41,1.3,1.3,0,0,0,.314-.916Q16.775,26.8,15.442,26.8Zm9.324,3.527a1.915,1.915,0,0,1,1.463.643,1.916,1.916,0,0,1-.144,2.748,1.936,1.936,0,0,1-1.319.5,1.9,1.9,0,0,1-1.463-.643,1.916,1.916,0,0,1,.144-2.748A1.936,1.936,0,0,1,24.767,30.327Zm0,.7a1.269,1.269,0,0,0-1.251,1.251,1.253,1.253,0,0,0,2.181.834,1.247,1.247,0,0,0-.93-2.085Z"
										transform="translate(-1.162 -2.723)" fill="#5a5858" />
								</svg>