	<svg xmlns="http://www.w3.org/2000/svg" width="264.365" height="18.359"
									viewBox="0 0 264.365 18.359">
									<path id="Контур_1743" data-name="Контур 1743"
										d="M7.285-7.021a39.66,39.66,0,0,0-4.561-4.014l.977-.928a50.61,50.61,0,0,1,4.258,3.6,28.284,28.284,0,0,0,2.129-6.963L11.641-15A32.055,32.055,0,0,1,9.1-7.236a31.352,31.352,0,0,1,3.623,4.512L11.484-1.7a31.55,31.55,0,0,0-3.125-4.16A18.171,18.171,0,0,1,1.68.859l-1-1A17.139,17.139,0,0,0,7.285-7.021Zm9.375-6.66H26.6v1.406H16.66ZM15.342-2.139H27.8v1.4H15.342Zm22.9.7H41.2v1.3H29.8v-1.3h6.924l.752-8.789H31.406v-1.3h7.715Zm4.7-6.768H53.818v1.484H42.939Zm23.467-4.678a5.075,5.075,0,0,1,.518-.02,3.424,3.424,0,0,1,2.891,1.328,4.043,4.043,0,0,1,.791,2.529,3.633,3.633,0,0,1-1.4,3.135,5.6,5.6,0,0,1-3.369.889q-.5,0-1.26-.039l-.215-1.357q1.084.078,1.641.078,3.115,0,3.115-2.646a2.832,2.832,0,0,0-.811-2.2,2.209,2.209,0,0,0-1.523-.557,20.29,20.29,0,0,0-5.82,1.357Q62.412-4.961,63.623.664L62.188.957Q61.025-4.658,59.629-9.922q-1.172.4-3.066,1.123l-.5-1.24q2.734-.928,3.223-1.084-.381-1.4-1.182-4.2l1.377-.361.625,2.227q.322,1.133.537,1.895A32.914,32.914,0,0,1,64.9-12.744a27.728,27.728,0,0,0-1.455-2.939l1.279-.479A29.456,29.456,0,0,1,66.406-12.881ZM90.049.5q0,.156-.166.156l-2.7-.039H76.348L73.643.654A.138.138,0,0,1,73.486.5V-.371a.138.138,0,0,1,.156-.156l2.705.039h4.658V-5.713H77.021l-2.754.039q-.166,0-.166-.156v-.85q0-.156.166-.156l2.754.039h3.984V-9.3H79.785l-2.5.02q-.156,0-.156-.146v-.84a.138.138,0,0,1,.156-.156l2.5.039h3.936l2.529-.039a.138.138,0,0,1,.156.156v.84q0,.146-.156.146L83.721-9.3H82.246v2.5h4.336l2.764-.039a.138.138,0,0,1,.156.156v.85a.26.26,0,0,1-.02.137.26.26,0,0,1-.137.02l-2.764-.039H82.246V-.488h4.941l2.7-.039q.166,0,.166.156ZM91.289-10a2.287,2.287,0,0,0-.586.781q-.166.3-.264.3a1.609,1.609,0,0,1-.312-.1,18.827,18.827,0,0,1-8.447-6.143,20.584,20.584,0,0,1-8.154,6.338,1.006,1.006,0,0,1-.283.088q-.1,0-.273-.273a1.877,1.877,0,0,0-.645-.615,18.782,18.782,0,0,0,8.242-6.123,4.345,4.345,0,0,0,.576-1.113,5.96,5.96,0,0,1,1.279.273q.283.1.283.264,0,.1-.137.176a.541.541,0,0,0-.186.127,16.054,16.054,0,0,0,4.355,3.955A22.834,22.834,0,0,0,91.289-10ZM87.344-4.3q0,.1-.2.254a1.5,1.5,0,0,0-.322.488A18.943,18.943,0,0,1,85.4-1.162q-.166.205-.234.205a.618.618,0,0,1-.283-.137,1.691,1.691,0,0,0-.674-.322A14.156,14.156,0,0,0,85.781-4.1a4.568,4.568,0,0,0,.3-.879,5.756,5.756,0,0,1,1.016.42Q87.344-4.414,87.344-4.3ZM78.867-1.943a.382.382,0,0,1,.029.127q0,.088-.2.176l-.615.3a1.189,1.189,0,0,1-.264.107q-.059,0-.1-.127A12.624,12.624,0,0,0,76.3-4.219a.19.19,0,0,1-.039-.1q0-.068.225-.186l.537-.234a.9.9,0,0,1,.225-.088q.068,0,.137.107A14.059,14.059,0,0,1,78.867-1.943Zm31.855-12.764q0,.166-.137.166l-2.559-.039h-1.582a16.142,16.142,0,0,1-.781,2h1.563l2.217-.049q.166,0,.166.156l-.039,2.354V-4.98l.039,2.363q0,.156-.166.156L107.227-2.5h-2.48l-2.217.039a.138.138,0,0,1-.156-.156l.039-2.363v-5.1l-.039-2.393a.138.138,0,0,1,.156-.156l1.943.049a15.223,15.223,0,0,0,.732-2h-.9l-2.559.039q-.156,0-.156-.166v-.82a.138.138,0,0,1,.156-.156l2.559.039h3.721l2.559-.039q.137,0,.137.156ZM108.447-3.516V-5.684h-4.912v2.168Zm0-6.064v-2h-4.912v2Zm0,2.959v-2h-4.912v2Zm-6.562.781a2.366,2.366,0,0,0-.479.7q-.146.322-.283.322a.742.742,0,0,1-.234-.068A15.924,15.924,0,0,1,97.51-6.895a14.9,14.9,0,0,1-2.295,1.7h3l1.816-.039q.166,0,.166.156l-.049,1.357V-2.5L100.2.078q0,.156-.166.156h-.8a.138.138,0,0,1-.156-.156v-.4H95.635v1.1q0,.176-.166.176h-.82q-.137,0-.137-.176l.039-2.939V-3.34l-.02-1.475q-.7.371-1.1.557a.761.761,0,0,1-.273.1q-.127,0-.244-.283a1.721,1.721,0,0,0-.439-.576,13.052,13.052,0,0,0,4.3-2.559,9.968,9.968,0,0,1-1.455-1.875A13.273,13.273,0,0,1,93.867-8q-.234.205-.312.205t-.225-.225a1.517,1.517,0,0,0-.5-.5,9.232,9.232,0,0,0,2.979-3.457,3.744,3.744,0,0,0,.283-.889q.557.146.977.283.205.068.205.186,0,.088-.146.2a3.357,3.357,0,0,0-.3.439l-.2.381h2.422a.758.758,0,0,0,.332-.059.557.557,0,0,1,.186-.039,1.01,1.01,0,0,1,.557.342q.283.3.283.459,0,.127-.166.215a1.293,1.293,0,0,0-.4.459,15.4,15.4,0,0,1-1.611,2.363A11.67,11.67,0,0,0,101.885-5.84Zm-2.812,4.6V-4.258H95.635V-1.24Zm-.107-9.238H96.074l-.186.264a8.179,8.179,0,0,0,1.582,1.953A10.568,10.568,0,0,0,98.965-10.479Zm2.393-.957q0,.156-.186.156h-.762a.138.138,0,0,1-.156-.156v-1.9h-5.82v1.9q0,.156-.166.156h-.781a.138.138,0,0,1-.156-.156L93.369-13v-.439l-.039-.742a.138.138,0,0,1,.156-.156l2.344.039h.879v-.547a8.52,8.52,0,0,0-.137-1.758q.439.02,1.26.1.264.039.264.186a1.176,1.176,0,0,1-.146.361,3.823,3.823,0,0,0-.1,1.113v.547h1l2.324-.039q.186,0,.186.156l-.049.664V-13Zm3.613,10.254q0,.107-.186.186a2.737,2.737,0,0,0-.479.322,12.931,12.931,0,0,1-3.418,2.1.826.826,0,0,1-.3.078q-.107,0-.3-.3a1.706,1.706,0,0,0-.518-.537,11.108,11.108,0,0,0,3.6-1.982A3.073,3.073,0,0,0,103.926-2a5.674,5.674,0,0,1,.879.586Q104.971-1.289,104.971-1.182ZM111.1.342a1.956,1.956,0,0,0-.518.635q-.137.283-.264.283a1.072,1.072,0,0,1-.312-.1,13.127,13.127,0,0,1-3.3-2.363.213.213,0,0,1-.078-.127q0-.068.176-.215l.42-.361a.313.313,0,0,1,.166-.088.261.261,0,0,1,.137.068A10.248,10.248,0,0,0,111.1.342Zm9.98-6.6V-2.3h-1.338v-3.34q-.459.234-.947.508-2.559,1.445-2.559,2.9a1.325,1.325,0,0,0,.9,1.348,9.138,9.138,0,0,0,2.969.332q2.1,0,4.873-.244l.059,1.357q-3.643.186-4.834.186-3.135,0-4.238-.732a2.531,2.531,0,0,1-1.006-2.285q0-2.09,2.686-3.643,1.016-.576,2.08-1.1-.1-1.875-1.3-1.875-1.68,0-4.609,3.379l-1.035-.918a23.355,23.355,0,0,0,4.141-5.908q-1.826.029-3.662,0v-1.221q2.109.039,4.219,0a17.871,17.871,0,0,0,.9-2.676l1.445.264a20.538,20.538,0,0,1-.84,2.354q2.813-.088,5.342-.342l.039,1.221q-3.281.264-5.918.342a20.424,20.424,0,0,1-1.68,2.842l-.508.518.059.078A3.559,3.559,0,0,1,118.7-9.98a2.173,2.173,0,0,1,1.592.605,2.831,2.831,0,0,1,.752,1.738q1.562-.713,4.063-1.768l.557,1.367Q122.412-6.846,121.084-6.26Zm22,7.344q0,.137-.156.137h-.947q-.156,0-.156-.137V-.039h-9.9V1.1q0,.137-.156.137h-.947q-.156,0-.156-.137l.039-6.338v-3.7l-.039-4.785a.138.138,0,0,1,.156-.156l2.8.039H134.8a17.829,17.829,0,0,0,.8-2.119,4.6,4.6,0,0,0,.137-.879q.586.078,1.279.234.244.068.244.225a.325.325,0,0,1-.117.215,1.611,1.611,0,0,0-.3.508q-.439,1.172-.762,1.816h4.043l2.8-.039a.138.138,0,0,1,.156.156l-.039,4.326v4.141Zm-1.26-2.266v-3.33h-9.9v3.33Zm0-4.434v-3h-9.9v3Zm0-4.1V-12.7h-9.9v2.979Zm20.244,1.24q-.02.332-.039,1.045-.02.684-.039,1.074a37.764,37.764,0,0,1-.479,5.039A2.965,2.965,0,0,1,160.693.4a2.516,2.516,0,0,1-1.748.557q-1.035,0-1.592-.059-.312-.02-.371-.088a.906.906,0,0,1-.117-.371,2.287,2.287,0,0,0-.4-.937,14.638,14.638,0,0,0,2.285.2,1.413,1.413,0,0,0,1.1-.4,2.207,2.207,0,0,0,.439-1.1,38.428,38.428,0,0,0,.439-5.693H156.27a9.725,9.725,0,0,1-6.016,8.7,1.246,1.246,0,0,1-.283.1q-.107,0-.3-.3a2.171,2.171,0,0,0-.635-.654A8.655,8.655,0,0,0,155.01-7.5h-.9l-2.686.039a.138.138,0,0,1-.156-.156v-.889a.138.138,0,0,1,.156-.156l2.686.039h5.059l2.725-.039Q162.07-8.662,162.07-8.477Zm-6.445-6.885q0,.1-.156.225a1.155,1.155,0,0,0-.361.439,19.88,19.88,0,0,1-2.91,4.443,21,21,0,0,1-3.389,3.018.805.805,0,0,1-.3.176q-.107,0-.273-.264a2.289,2.289,0,0,0-.7-.654,16.13,16.13,0,0,0,4.014-3.467,15.03,15.03,0,0,0,2.227-3.516,4.825,4.825,0,0,0,.322-1.182,7.062,7.062,0,0,1,1.27.479Q155.625-15.547,155.625-15.361Zm10.586,7.119a2.871,2.871,0,0,0-.7.8q-.186.283-.234.283a.825.825,0,0,1-.283-.156,21.041,21.041,0,0,1-6.846-8.223.3.3,0,0,1-.029-.107q0-.049.215-.156l.6-.322a.614.614,0,0,1,.215-.078q.059,0,.107.137a17.244,17.244,0,0,0,3.1,4.7A16.707,16.707,0,0,0,166.211-8.242Zm11.65-1.982,1.025-.391a26.106,26.106,0,0,1,1.475,3.379l-1.074.439A21.6,21.6,0,0,0,177.861-10.225Zm2.266-.674,1-.361a16.523,16.523,0,0,1,1.426,3.281l-1.045.42A19.267,19.267,0,0,0,180.127-10.9Zm.557-3.76.039,1.377a7.589,7.589,0,0,0-3.3.9,8.477,8.477,0,0,0-2.959,2.8,6.881,6.881,0,0,0-1.162,3.8,4.226,4.226,0,0,0,1.836,3.613,8.814,8.814,0,0,0,4.189,1.426L178.984.684A8.716,8.716,0,0,1,173.8-1.289a5.557,5.557,0,0,1-1.875-4.355q0-4.492,4.277-7.178l1.084-.479-.02-.039-.937.156q-1.7.1-8.086.684l-.117-1.318Q170.986-14.033,180.684-14.658ZM201.9-6.553q0,.156-.166.156l-2.812-.039h-3.6a11,11,0,0,0,2.715,4.111A14.1,14.1,0,0,0,201.865.3a2.614,2.614,0,0,0-.605.8q-.176.3-.254.3a.969.969,0,0,1-.322-.156,13.228,13.228,0,0,1-6.143-7.021A10.791,10.791,0,0,1,189,1.348a.788.788,0,0,1-.3.117q-.088,0-.3-.283a2.525,2.525,0,0,0-.654-.635A12.214,12.214,0,0,0,191.7-2.461a9.461,9.461,0,0,0,1.719-3.477l.117-.5h-1.8L188.9-6.4a.138.138,0,0,1-.156-.156v-.83q0-.176.156-.176l2.842.039h2A39.06,39.06,0,0,0,194-11.641H192.6l-2.578.039a.138.138,0,0,1-.156-.156v-.869a.138.138,0,0,1,.156-.156l2.578.039h1.426v-1.582a13.908,13.908,0,0,0-.146-2.236,11.667,11.667,0,0,1,1.318.117q.264.059.264.205a1.786,1.786,0,0,1-.117.4,4.553,4.553,0,0,0-.127,1.4v1.7h1.943l2.646-.039a.138.138,0,0,1,.156.156l-.039,1.748V-7.52l1.816-.039q.166,0,.166.176ZM198.74-7.52v-4.121H195.2A35.774,35.774,0,0,1,194.9-7.52Zm-10.576,3q-.791,2.2-1.924,4.658a6.441,6.441,0,0,0-.361.879q-.068.244-.2.244a.617.617,0,0,1-.3-.117,8.856,8.856,0,0,1-.918-.684,8.369,8.369,0,0,0,1.064-1.641,43.746,43.746,0,0,0,1.816-4.561,3.465,3.465,0,0,0,.625.605q.273.205.273.322A1.206,1.206,0,0,1,188.164-4.521Zm.7-9.375a.214.214,0,0,1,.078.127.449.449,0,0,1-.117.205l-.449.566q-.127.166-.186.166a.157.157,0,0,1-.107-.068,15.133,15.133,0,0,0-2.7-2.324q-.107-.068-.107-.117a.405.405,0,0,1,.117-.2l.42-.479q.137-.146.2-.146a.24.24,0,0,1,.107.039A14.407,14.407,0,0,1,188.867-13.9Zm-1.123,4.854a.2.2,0,0,1,.059.107.6.6,0,0,1-.117.234l-.42.557q-.117.156-.176.156a.24.24,0,0,1-.146-.088,13.62,13.62,0,0,0-2.7-2.187q-.1-.049-.1-.1a.556.556,0,0,1,.137-.215l.381-.488q.107-.127.166-.127a.261.261,0,0,1,.127.049A14.4,14.4,0,0,1,187.744-9.043Zm19.912-2.021a8.269,8.269,0,0,1,4.326-1.191q.283-1.318.479-3.008l1.436.166q-.254,1.592-.518,2.92a4.889,4.889,0,0,1,3.506,2.188,7.666,7.666,0,0,1,1.055,4.229q0,5.42-6.123,6.582L211.2-.4a6.406,6.406,0,0,0,4.2-2.139,4.9,4.9,0,0,0,1.1-3.2,6.619,6.619,0,0,0-.986-3.828,3.164,3.164,0,0,0-2.422-1.445q-1.357,5.967-3.271,8.672Q208.369-.3,206.738-.3a2.137,2.137,0,0,1-1.865-1.016,5.59,5.59,0,0,1-.713-3.105,7.516,7.516,0,0,1,2.383-5.8q-.439-1.738-.8-4.131l1.318-.186Q207.314-12.715,207.656-11.064Zm2.168,6.045a33.434,33.434,0,0,0,1.875-6.045,6.675,6.675,0,0,0-3.74,1.26A20.682,20.682,0,0,0,209.824-5.02ZM209.063-3.6A26.47,26.47,0,0,1,206.9-8.8a6.333,6.333,0,0,0-1.445,4.219,4.813,4.813,0,0,0,.439,2.334.948.948,0,0,0,.8.547Q207.9-1.7,209.063-3.6ZM223.457-14.98l.576-1.143a31.137,31.137,0,0,1,6.221,1.807l-.713,1.24A29.812,29.812,0,0,0,223.457-14.98Zm-.42,2.461q-.469,4.658-.576,6.084l-.205,1.094.459-.742a7.036,7.036,0,0,1,2.4-1.816,6.1,6.1,0,0,1,2.539-.557,4.784,4.784,0,0,1,3.438,1.172A3.8,3.8,0,0,1,232.217-4.4a4.567,4.567,0,0,1-.693,2.627,4.816,4.816,0,0,1-1.709,1.455,9.712,9.712,0,0,1-2.988.879,26.452,26.452,0,0,1-3.408.322l-.459-1.338a13.858,13.858,0,0,0,5.82-1.006,3.649,3.649,0,0,0,1.494-1.27,3.517,3.517,0,0,0,.42-1.807,2.561,2.561,0,0,0-.879-2.021,3.064,3.064,0,0,0-2.08-.693,5.594,5.594,0,0,0-4.219,2.012,5.8,5.8,0,0,0-1.094,1.729l-1.484-.264q.146-2.871.7-8.945Zm14.932-3.5,1.387.02q-.029.84-.1,1.973-.049.879-.068,1.426l.605.518a.265.265,0,0,1,.078.2.376.376,0,0,1-.078.225,8.033,8.033,0,0,0-.664,1.279l-.059.762-.1.742.361-.781a16.3,16.3,0,0,1,2.783-2.988,3.911,3.911,0,0,1,2.354-.889,2.087,2.087,0,0,1,1.924.908,4.361,4.361,0,0,1,.479,2.285q0,1.592-.186,4-.176,2.559-.176,3.379a2.391,2.391,0,0,0,.225,1.24.645.645,0,0,0,.6.283q1.2,0,1.875-3.281l1.2.781a7.207,7.207,0,0,1-1.426,3.184,2.3,2.3,0,0,1-1.748.732,1.914,1.914,0,0,1-1.582-.586,3.484,3.484,0,0,1-.5-2.119q0-1.484.137-3.652.156-2.52.156-3.584a5.354,5.354,0,0,0-.215-1.855.8.8,0,0,0-.8-.527q-2.012,0-5.4,4.922V.8h-1.377q0-3.34.078-6.377l.2-1.26-.518,1.191q-.791,1.855-1.855,3.887L234.434-2.7q.928-1.611,3.32-6.2.049-1.113.078-2.5-.371.029-2.939.313l-.078-1.191q1.816-.166,3.057-.3.01-.508.049-1.611Q237.959-15.264,237.969-16.016Zm16.24,1.074q2.646-.02,8.135-.283l.84,1.045q-3.9,3.955-6.182,5.938l-.9.781.078.059,1.025-.693a6.592,6.592,0,0,1,2.822-.762A5.067,5.067,0,0,1,263.9-7.432a4.387,4.387,0,0,1,1.152,3.154,4.738,4.738,0,0,1-1.826,4.063A7.6,7.6,0,0,1,258.623,1q-3.916,0-3.916-2.656a2.322,2.322,0,0,1,.84-1.875,3.1,3.1,0,0,1,2.041-.645,3.291,3.291,0,0,1,2.539,1.074A4.921,4.921,0,0,1,261.25-.7a3.684,3.684,0,0,0,1.8-1.4,4.174,4.174,0,0,0,.518-2.2,3.187,3.187,0,0,0-1.24-2.676,3.815,3.815,0,0,0-2.383-.752,7,7,0,0,0-4.834,1.943,17.782,17.782,0,0,0-1.66,1.738L252.266-5q4.785-4.922,8.76-8.965-2.871.215-6.816.322ZM259.844-.3a4.321,4.321,0,0,0-.889-2.041,1.822,1.822,0,0,0-1.406-.674,1.6,1.6,0,0,0-1.152.43,1.183,1.183,0,0,0-.391.889,1.243,1.243,0,0,0,.664,1.182,4.1,4.1,0,0,0,1.855.322A8.623,8.623,0,0,0,259.844-.3Z"
										transform="translate(-0.684 16.855)" fill="#215f87" />
								</svg>