<svg xmlns="http://www.w3.org/2000/svg" width="219.727" height="19.443" viewBox="0 0 219.727 19.443">
  <path id="Контур_1734" data-name="Контур 1734" d="M18.955-2.236a4.829,4.829,0,0,1-.391,1.895,2.41,2.41,0,0,1-.625.684q-.732.6-4.141.6A14.6,14.6,0,0,1,11.543.82a2.245,2.245,0,0,1-.957-.361,1.934,1.934,0,0,1-.566-1.621V-6.279q-.566.176-.986.332L8.74-5.84a.321.321,0,0,1-.1.02q-.107,0-.146-.156l-.2-.762a.225.225,0,0,1-.02-.078q0-.078.137-.107.576-.107,1.6-.4V-8.34a15.781,15.781,0,0,0-.117-2.3,11.854,11.854,0,0,1,1.182.107q.234.029.234.156a1.035,1.035,0,0,1-.1.361,6.34,6.34,0,0,0-.1,1.455v.928l2.031-.605v-.879a15.444,15.444,0,0,0-.137-2.422,8.961,8.961,0,0,1,1.191.107q.225.029.225.2a2.089,2.089,0,0,1-.078.322,5.746,5.746,0,0,0-.117,1.494v.859L15.674-9q1-.283,1.8-.566.488-.166.527-.176h.029q.107,0,.107.146l-.039.918a23.867,23.867,0,0,1-.459,4.541,1.224,1.224,0,0,1-1.24.947q-.176.01-.391.01-.312,0-.684-.029-.176-.02-.215-.078a.818.818,0,0,1-.068-.283,2.053,2.053,0,0,0-.264-.811,5.2,5.2,0,0,0,1.26.166.576.576,0,0,0,.625-.5A23.323,23.323,0,0,0,17-8.379l-2.764.84v2.7l.039,2.285a.138.138,0,0,1-.156.156h-.85a.138.138,0,0,1-.156-.156l.039-2.285V-7.217l-2.031.6v4.58a6.253,6.253,0,0,0,.068,1.162.58.58,0,0,0,.254.41A5.985,5.985,0,0,0,13.9-.186a18.748,18.748,0,0,0,2.471-.107,1.76,1.76,0,0,0,.85-.312,1.5,1.5,0,0,0,.5-.889,9.637,9.637,0,0,0,.146-1.67,1.944,1.944,0,0,0,.781.4q.322.088.322.361Q18.965-2.344,18.955-2.236ZM8.682-12.2a.147.147,0,0,1-.166.166L6.3-12.08H4.561q-.039,1.836-.078,2.744H6.465l1.24-.039a.155.155,0,0,1,.176.176q-.02.371-.039,1.113Q7.813-7.236,7.8-6.8a31.538,31.538,0,0,1-.439,5.762A2.892,2.892,0,0,1,6.67.469a1.734,1.734,0,0,1-1.23.41q-.615,0-1-.02Q4.219.84,4.17.771A.992.992,0,0,1,4.1.439a2.445,2.445,0,0,0-.283-.879,8.2,8.2,0,0,0,1.5.156A.764.764,0,0,0,6.064-.7a4.934,4.934,0,0,0,.273-1.162,48.068,48.068,0,0,0,.381-6.406H4.443a26.434,26.434,0,0,1-.771,5.391A12.452,12.452,0,0,1,2,.742q-.156.215-.225.215-.088,0-.234-.176A2.581,2.581,0,0,0,.82.156,11.193,11.193,0,0,0,3-5.088a49.911,49.911,0,0,0,.439-6.992l-2.158.049q-.137,0-.137-.166v-.84a.121.121,0,0,1,.137-.137l2.236.039H4.824v-1.338a9.943,9.943,0,0,0-.146-2.061q.771.029,1.3.1.264.029.264.176a1.234,1.234,0,0,1-.117.361A4.765,4.765,0,0,0,6-14.473v1.338h.322l2.2-.039q.166,0,.166.137ZM18.8-12.471a.138.138,0,0,1-.156.156l-2.383-.039H10.576a14.787,14.787,0,0,1-1.758,2.52q-.166.205-.273.205-.088,0-.283-.225a1.82,1.82,0,0,0-.586-.42,12.383,12.383,0,0,0,2.988-4.961,6.015,6.015,0,0,0,.254-1.348q.752.146,1.143.264.225.059.225.225a.474.474,0,0,1-.117.234,2.692,2.692,0,0,0-.381.82q-.371,1.006-.645,1.6H16.26l2.383-.039a.138.138,0,0,1,.156.156Zm14.4,1.338q0,.156-.166.156l-2.08-.039h-.6v8.643L30.4,1.084a.138.138,0,0,1-.156.156h-.928a.138.138,0,0,1-.156-.156L29.2-2.354v-8.662h-.625l-2.1.039a.138.138,0,0,1-.156-.156v-.82q0-.166.156-.166l2.1.039H29.2v-1.7a15.872,15.872,0,0,0-.146-2.578,12.46,12.46,0,0,1,1.289.117q.244.039.244.166a.541.541,0,0,1-.039.176,1.807,1.807,0,0,0-.068.186,8.8,8.8,0,0,0-.117,1.914v1.719h.6l2.08-.039a.147.147,0,0,1,.166.166Zm5.879,1.2q0,.176-.166.176l-1.777-.039h-.1v5.938l.02,3.135A1.675,1.675,0,0,1,36.514.742a4.071,4.071,0,0,1-1.953.3h-.439q-.312,0-.371-.068a.854.854,0,0,1-.117-.352,3.553,3.553,0,0,0-.312-.85,15.4,15.4,0,0,0,1.8.127q.742-.029.742-.82V-9.795h-.547l-1.777.039a.155.155,0,0,1-.176-.176v-.8q0-.166.176-.166l1.777.039h1.826l1.777-.039a.147.147,0,0,1,.166.166ZM25.947-11.338q0,.117-.186.234a1.563,1.563,0,0,0-.459.586,15.95,15.95,0,0,1-1.035,1.66v7.441l.039,2.578q0,.156-.166.156h-.918a.138.138,0,0,1-.156-.156l.039-2.578V-5q0-.176.059-2.461a20.551,20.551,0,0,1-1.582,1.6q-.156.156-.234.156-.107,0-.205-.215a2.513,2.513,0,0,0-.459-.723A14.873,14.873,0,0,0,24.365-11.2a4.692,4.692,0,0,0,.381-.977,7.555,7.555,0,0,1,.977.557Q25.947-11.465,25.947-11.338Zm.059-4.346q0,.137-.186.225a1.689,1.689,0,0,0-.5.479,18.235,18.235,0,0,1-3.535,3.7.825.825,0,0,1-.283.156q-.088,0-.244-.283a2.471,2.471,0,0,0-.518-.674,13.078,13.078,0,0,0,3.564-3.564,2.987,2.987,0,0,0,.439-.9,6.738,6.738,0,0,1,1.055.586Q26.006-15.82,26.006-15.684Zm2.061,7.461a.574.574,0,0,1-.1.264,2.037,2.037,0,0,0-.205.781,19.873,19.873,0,0,1-1.26,4.99q-.078.244-.186.244a.807.807,0,0,1-.254-.1,2.385,2.385,0,0,0-.781-.234,16.2,16.2,0,0,0,1.367-4.9q.039-.488.039-.908A4.045,4.045,0,0,0,26.66-8.6a8.844,8.844,0,0,1,1.143.166Q28.066-8.389,28.066-8.223Zm5.771,4.98a.16.16,0,0,0,.01.039v.029q0,.107-.205.2l-.557.2a.943.943,0,0,1-.244.068q-.088,0-.1-.146A30.344,30.344,0,0,0,31.6-8.184a.414.414,0,0,1-.02-.1q0-.068.205-.137l.537-.186a.569.569,0,0,1,.137-.029q.078,0,.117.137A32.792,32.792,0,0,1,33.838-3.242Zm4.785-10.84q0,.166-.137.166l-1.562-.039h-1.3l-1.562.039q-.156,0-.156-.166v-.84a.138.138,0,0,1,.156-.156l1.563.039h1.3l1.563-.039q.137,0,.137.156Zm-5.381.381a.3.3,0,0,1,.029.107q0,.078-.146.176l-.4.254a.749.749,0,0,1-.244.127q-.059,0-.117-.127a9.543,9.543,0,0,0-1.2-1.973.237.237,0,0,1-.059-.117q0-.059.156-.146l.439-.244a.636.636,0,0,1,.176-.059.163.163,0,0,1,.107.059A9.683,9.683,0,0,1,33.242-13.7ZM59.16-.029a3.434,3.434,0,0,0-.5.781q-.166.352-.293.352a1.254,1.254,0,0,1-.244-.049,20.022,20.022,0,0,1-5.84-2.4,15.263,15.263,0,0,1-5.937,2.529,2.111,2.111,0,0,1-.273.039q-.127,0-.293-.322A2.715,2.715,0,0,0,45.3.234,16.77,16.77,0,0,0,51.367-2a12.95,12.95,0,0,1-2.227-2.383A13.566,13.566,0,0,1,46.328-2.1a1.609,1.609,0,0,1-.283.137q-.088,0-.283-.283a2.5,2.5,0,0,0-.537-.518,11.467,11.467,0,0,0,4.238-3.76,3.306,3.306,0,0,0,.576-1.221l-2.275.156a4.394,4.394,0,0,0-1.016.146,1.7,1.7,0,0,1-.322.137q-.146,0-.244-.3-.088-.342-.2-1.094.361.029.781.029.283,0,.5-.01,1.387-.039,2.139-.078l1.1-1.123a29.625,29.625,0,0,0-3.418-2.881Q47-12.822,47-12.871a.432.432,0,0,1,.1-.2l.4-.479q.1-.127.176-.127a.211.211,0,0,1,.107.049q.342.244,1.016.762a24.865,24.865,0,0,0,1.963-2.8,4.715,4.715,0,0,0,.439-.977,6.653,6.653,0,0,1,1.064.5q.244.117.244.283,0,.127-.225.254a2.357,2.357,0,0,0-.518.586Q50.5-13.232,49.6-12.207q.869.723,1.66,1.484,1.338-1.484,2.646-3.242a3.448,3.448,0,0,0,.518-.9,7.825,7.825,0,0,1,1,.5q.244.146.244.3,0,.127-.225.234a4.292,4.292,0,0,0-.742.781,47.893,47.893,0,0,1-3.77,4.18q2.168-.117,5.137-.42-.547-.684-1.2-1.377-.068-.068-.068-.107,0-.059.186-.176l.439-.273a.483.483,0,0,1,.205-.1.16.16,0,0,1,.1.059,18.18,18.18,0,0,1,2.92,3.74.23.23,0,0,1,.029.1q0,.088-.166.2l-.527.3a.663.663,0,0,1-.244.117q-.059,0-.107-.117-.605-1-.928-1.484-2.6.313-6.611.664.723.186,1,.283.225.078.225.234,0,.137-.186.225a2.664,2.664,0,0,0-.381.479q-.1.137-.264.42h4.043a1.176,1.176,0,0,0,.42-.059.472.472,0,0,1,.205-.059q.156,0,.537.381.342.313.342.5a.3.3,0,0,1-.186.273,3.094,3.094,0,0,0-.459.508,14.624,14.624,0,0,1-2.236,2.51A18.378,18.378,0,0,0,59.16-.029ZM54.443-5.146H49.8a10.265,10.265,0,0,0,2.422,2.5A11.147,11.147,0,0,0,54.443-5.146Zm-8.057-6.318a.258.258,0,0,1-.146.225,1.438,1.438,0,0,0-.439.5Q45.1-9.57,44.531-8.8v7.461L44.57,1.24q0,.156-.166.156h-.937q-.137,0-.137-.156l.039-2.578V-4.922q0-.234.059-2.52a20.9,20.9,0,0,1-1.846,1.865.608.608,0,0,1-.293.176q-.1,0-.244-.264a2.192,2.192,0,0,0-.459-.615,17.04,17.04,0,0,0,4.2-5,4.243,4.243,0,0,0,.4-.977,6.327,6.327,0,0,1,1,.537Q46.387-11.572,46.387-11.465Zm-.059-4.258q0,.127-.244.264a1.722,1.722,0,0,0-.479.5,18.611,18.611,0,0,1-3.623,3.6.969.969,0,0,1-.322.156q-.088,0-.234-.264a2.086,2.086,0,0,0-.566-.615,12.853,12.853,0,0,0,3.779-3.6,3.057,3.057,0,0,0,.449-.9,5.635,5.635,0,0,1,1.055.605Q46.328-15.859,46.328-15.723ZM63.184-17.1h6.123v1.035h-5V.2H63.184Zm17.139,4.961q-.059,2.168,0,4.336a7.606,7.606,0,0,1,.439,2.539A5.267,5.267,0,0,1,78.9-.879,11.063,11.063,0,0,1,74.219.938l-.84-1.2a9.048,9.048,0,0,0,4.873-1.973A3.916,3.916,0,0,0,79.4-4.922a2.652,2.652,0,0,1-2.578,1.26,3.15,3.15,0,0,1-2.187-.82A2.975,2.975,0,0,1,73.682-6.8a2.958,2.958,0,0,1,1.133-2.48,3.528,3.528,0,0,1,2.227-.7,2.862,2.862,0,0,1,1.943.557q-.039-1.875-.039-2.676-3.213.049-7.764.342l-.02-1.279q3.691-.146,7.764-.244V-16l1.436.02q0,.9-.039,2.656,3.32-.039,4.8-.039v1.279Q82.725-12.139,80.322-12.139Zm-3.34,3.281a1.889,1.889,0,0,0-1.406.566A2.019,2.019,0,0,0,75.02-6.8a1.768,1.768,0,0,0,.635,1.436,1.84,1.84,0,0,0,1.211.42,2.008,2.008,0,0,0,1.572-.586,1.857,1.857,0,0,0,.449-1.309Q78.887-8.857,76.982-8.857ZM94.375-11.2l.986-.5a26.725,26.725,0,0,1,1.8,3.242l-1.045.537A18.2,18.2,0,0,0,94.375-11.2Zm2.1-.937.967-.439A15.726,15.726,0,0,1,99.16-9.463l-1.006.527A18.929,18.929,0,0,0,96.475-12.139ZM94.941-15.8l1.279.879q-3.027,3.506-6.26,6.582a.973.973,0,0,0-.381.684q0,.322.537.732a65.283,65.283,0,0,1,7,6.729L95.879.84A72.227,72.227,0,0,0,88.7-6.4a1.6,1.6,0,0,1-.664-1.2,1.627,1.627,0,0,1,.518-1.182A92.718,92.718,0,0,0,94.941-15.8Zm10.7,10.7,1.367.117a7.8,7.8,0,0,0-.225,1.8,1.506,1.506,0,0,0,.635,1.4,4.524,4.524,0,0,0,2.207.391,37.12,37.12,0,0,0,3.955-.205l.039,1.445q-1.465.117-3.8.117a6.213,6.213,0,0,1-3.486-.7,2.547,2.547,0,0,1-.908-2.217A10.314,10.314,0,0,1,105.645-5.1Zm.4-6.68v-1.367q2.5-.2,5.059-.2,1.27,0,2.383.059v1.357Q112.451-12,110.967-12,108.408-12,106.045-11.777Zm-2.158-3.447a51.919,51.919,0,0,0-1.123,9.443,35.47,35.47,0,0,0,.488,6.26L101.826.6a41.213,41.213,0,0,1-.459-6.416,57.526,57.526,0,0,1,1.1-9.521ZM121.846,1.9h-6.123V.859h5V-15.4h1.123Zm20.713-7.148q0,.01-.1.361A8.575,8.575,0,0,0,142.334-3V-.645l.039,1.709q0,.156-.137.156h-.957q-.166,0-.166-.156v-1.1H128.945V1.123q0,.156-.166.156h-.947a.138.138,0,0,1-.156-.156l.039-1.641v-2.4a16.2,16.2,0,0,0-.137-2.48,11.5,11.5,0,0,1,1.338.117q.264.039.264.186a.53.53,0,0,1-.039.166,1.317,1.317,0,0,0-.059.176,6.982,6.982,0,0,0-.137,1.8v1.777h5.273v-6.8h-4.7v1q0,.166-.156.166h-.947q-.156,0-.156-.166L128.3-8.76v-2.725a16.618,16.618,0,0,0-.137-2.5,10.516,10.516,0,0,1,1.338.127q.215.029.215.176a1.1,1.1,0,0,1-.078.361,7.842,7.842,0,0,0-.117,1.816v2.4h4.7v-4.863a16.925,16.925,0,0,0-.137-2.559,11.2,11.2,0,0,1,1.377.127q.244.029.244.156a.53.53,0,0,1-.039.166.986.986,0,0,0-.059.2,8.644,8.644,0,0,0-.127,1.895V-9.1h5.078v-2.5a16.618,16.618,0,0,0-.137-2.5,13.3,13.3,0,0,1,1.338.117q.234.039.234.186a2.489,2.489,0,0,1-.1.342,9.712,9.712,0,0,0-.117,1.895v2.705l.039,1.836q0,.166-.156.166h-.947q-.156,0-.156-.166v-.957h-5.078v6.8h5.635V-3.037a16.321,16.321,0,0,0-.137-2.48,11.77,11.77,0,0,1,1.338.117Q142.559-5.361,142.559-5.244ZM163.281.5q0,.156-.166.156l-2.7-.039H149.58l-2.705.039A.138.138,0,0,1,146.719.5V-.371a.138.138,0,0,1,.156-.156l2.705.039h4.658V-5.713h-3.984l-2.754.039q-.166,0-.166-.156v-.85q0-.156.166-.156l2.754.039h3.984V-9.3h-1.221l-2.5.02q-.156,0-.156-.146v-.84a.138.138,0,0,1,.156-.156l2.5.039h3.936l2.529-.039a.138.138,0,0,1,.156.156v.84q0,.146-.156.146l-2.529-.02h-1.475v2.5h4.336l2.764-.039a.138.138,0,0,1,.156.156v.85a.26.26,0,0,1-.02.137.26.26,0,0,1-.137.02l-2.764-.039h-4.336V-.488h4.941l2.7-.039q.166,0,.166.156Zm1.24-10.5a2.287,2.287,0,0,0-.586.781q-.166.3-.264.3a1.609,1.609,0,0,1-.312-.1,18.827,18.827,0,0,1-8.447-6.143,20.584,20.584,0,0,1-8.154,6.338,1.006,1.006,0,0,1-.283.088q-.1,0-.273-.273a1.877,1.877,0,0,0-.645-.615,18.782,18.782,0,0,0,8.242-6.123,4.345,4.345,0,0,0,.576-1.113,5.96,5.96,0,0,1,1.279.273q.283.1.283.264,0,.1-.137.176a.541.541,0,0,0-.186.127,16.054,16.054,0,0,0,4.355,3.955A22.834,22.834,0,0,0,164.521-10Zm-3.945,5.7q0,.1-.2.254a1.5,1.5,0,0,0-.322.488,18.944,18.944,0,0,1-1.426,2.393q-.166.205-.234.205a.618.618,0,0,1-.283-.137,1.691,1.691,0,0,0-.674-.322A14.155,14.155,0,0,0,159.014-4.1a4.568,4.568,0,0,0,.3-.879,5.755,5.755,0,0,1,1.016.42Q160.576-4.414,160.576-4.3ZM152.1-1.943a.382.382,0,0,1,.029.127q0,.088-.2.176l-.615.3a1.188,1.188,0,0,1-.264.107q-.059,0-.1-.127a12.624,12.624,0,0,0-1.426-2.861.19.19,0,0,1-.039-.1q0-.068.225-.186l.537-.234a.9.9,0,0,1,.225-.088q.068,0,.137.107A14.06,14.06,0,0,1,152.1-1.943Zm19.18-8.857A59.317,59.317,0,0,1,167.5.4l-1.318-.518A53.218,53.218,0,0,0,169.844-10.7q-1.211.088-3.682.322l-.078-1.26q.732-.049,2.168-.137l1.875-.127q.371-1.689.762-3.975l1.416.2q-.439,2.285-.762,3.7,1.123-.078,2.041-.078a2.04,2.04,0,0,1,1.826.811,5.231,5.231,0,0,1,.576,2.832,27.865,27.865,0,0,1-.625,7.1,2.538,2.538,0,0,1-.908,1.436,2.611,2.611,0,0,1-1.533.4,13.213,13.213,0,0,1-2.031-.156l-.244-1.4a8.88,8.88,0,0,0,1.777.234,2.1,2.1,0,0,0,1.064-.205,1.287,1.287,0,0,0,.479-.693,23.469,23.469,0,0,0,.635-6.523,5.029,5.029,0,0,0-.312-2.2,1.018,1.018,0,0,0-.967-.459Q172.4-10.879,171.279-10.8Zm5.869-5.7,1.016-.4a27.5,27.5,0,0,1,1.484,3.389l-1.084.439A21.093,21.093,0,0,0,177.148-16.5Zm2.139-.674,1-.361a16.182,16.182,0,0,1,1.416,3.281l-1.035.42A19.267,19.267,0,0,0,179.287-17.178Zm-3.3,4.063,1.26-.645a24.113,24.113,0,0,1,3.438,6.9l-1.4.654A20.732,20.732,0,0,0,175.986-13.115Zm16.982,9.834a.147.147,0,0,1-.166.166h-.9q-.176,0-.176-.166v-.977H186.9v1.543q0,.156-.166.156h-.918a.138.138,0,0,1-.156-.156l.039-3.721V-8.4l-.039-2.52a.138.138,0,0,1,.156-.156l2.158.039h2.666l2.158-.039q.166,0,.166.156l-.039,2.08v2.021Zm-1.24-2.1V-9.912H186.9v4.531Zm8.691-8.838a.138.138,0,0,1-.156.156l-.283-.01q-.84-.02-1.973-.029v9.482L198.047-.9A1.737,1.737,0,0,1,197.48.625a4.955,4.955,0,0,1-2.51.391q-.371,0-.869-.01a.664.664,0,0,1-.371-.059A1.2,1.2,0,0,1,193.6.605a3.008,3.008,0,0,0-.4-.928,23.76,23.76,0,0,0,2.4.107,1.6,1.6,0,0,0,.889-.166A.739.739,0,0,0,196.709-1V-14.1h-10.82l-2.627.039a.138.138,0,0,1-.156-.156v-.937q0-.166.156-.166l2.627.039h11.758l2.617-.039q.156,0,.156.166ZM210.82-.6a1.608,1.608,0,0,1-.4,1.3,3.872,3.872,0,0,1-2.061.361A.639.639,0,0,1,207.988,1a.868.868,0,0,1-.127-.332,3.223,3.223,0,0,0-.322-.762,10.313,10.313,0,0,0,1.24.078.988.988,0,0,0,.723-.205.825.825,0,0,0,.176-.6V-3.076h-4.238V-1.4l.039,2.48a.138.138,0,0,1-.156.156h-.869a.138.138,0,0,1-.156-.156l.039-2.461V-7.148l-.039-2.49a.138.138,0,0,1,.156-.156l2.021.039h2.188l2.021-.039q.137,0,.137.156l-.02,2.617v3.789Zm-1.143-3.437V-5.967h-4.238v1.934Zm0-2.891V-8.76h-4.238v1.836Zm10.84,5.342a2.906,2.906,0,0,1-.84,1.924,5.508,5.508,0,0,1-3.125.615,8.624,8.624,0,0,1-3-.322,1.44,1.44,0,0,1-.742-1.475V-5.479A12.254,12.254,0,0,0,212.7-7.5a12.1,12.1,0,0,1,1.279.117q.244.029.244.186a1.29,1.29,0,0,1-.127.361,5.263,5.263,0,0,0-.1,1.338v1.279a21.392,21.392,0,0,0,3.818-1.719,4.258,4.258,0,0,0,1.064-.8,6.441,6.441,0,0,1,.82.723.437.437,0,0,1,.156.293q0,.166-.264.205a3.331,3.331,0,0,0-.9.381,31.008,31.008,0,0,1-4.7,2.021v1.895a.908.908,0,0,0,.518.918,7.422,7.422,0,0,0,2.08.176,3.924,3.924,0,0,0,2.3-.439,1.333,1.333,0,0,0,.4-.742,10.057,10.057,0,0,0,.117-1.211,4.786,4.786,0,0,0,.82.439q.312.127.313.264A2.1,2.1,0,0,1,220.518-1.582Zm-.146-9.238a4.1,4.1,0,0,1-.283,1.27,1.74,1.74,0,0,1-.479.615q-.674.537-3.271.537a10.094,10.094,0,0,1-2.842-.244.976.976,0,0,1-.566-.439,1.783,1.783,0,0,1-.156-.84v-4.414a12.642,12.642,0,0,0-.117-2.041q.645.029,1.25.117.264.029.264.176a.9.9,0,0,1-.117.342,5.314,5.314,0,0,0-.1,1.357v1.445a21.407,21.407,0,0,0,3.623-1.6,3.88,3.88,0,0,0,1.055-.8,7.954,7.954,0,0,1,.84.781.377.377,0,0,1,.137.244q0,.156-.264.2a5.492,5.492,0,0,0-.879.381,37.209,37.209,0,0,1-4.512,1.9v1.416a1.148,1.148,0,0,0,.107.586.692.692,0,0,0,.391.234,9.544,9.544,0,0,0,1.943.117,4.422,4.422,0,0,0,2.461-.4,3.264,3.264,0,0,0,.439-1.875,3.928,3.928,0,0,0,.781.439q.312.146.313.322A1.176,1.176,0,0,1,220.371-10.82Zm-8.477-.518a.307.307,0,0,1,.029.117q0,.088-.166.205l-.508.283a.582.582,0,0,1-.234.1q-.068,0-.146-.137a11.012,11.012,0,0,0-.5-1.025q-2.686.469-6.074.859a2.116,2.116,0,0,0-.84.225.4.4,0,0,1-.244.078q-.117,0-.2-.244a8.911,8.911,0,0,1-.244-1.152q1.24,0,1.738-.049a23.362,23.362,0,0,0,1.5-3.115,8.112,8.112,0,0,0,.381-1.357,5.391,5.391,0,0,1,1.113.293q.283.117.283.264a.45.45,0,0,1-.2.322,1.375,1.375,0,0,0-.342.518q-.791,1.689-1.523,2.959,2.383-.234,4.1-.5a14.293,14.293,0,0,0-1.025-1.4.19.19,0,0,1-.039-.1q0-.078.186-.186l.42-.244a.34.34,0,0,1,.166-.059.189.189,0,0,1,.137.078A15.735,15.735,0,0,1,211.895-11.338Z" transform="translate(-0.82 17.539)" fill="#215f87"/>
</svg>
