	<svg xmlns="http://www.w3.org/2000/svg" width="225.183" height="14.055"
											viewBox="0 0 225.183 14.055">
											<path id="Контур_1750" data-name="Контур 1750"
												d="M6.48,10.953a15.455,15.455,0,0,0-2.9-1.962l.574-.766a21.307,21.307,0,0,1,2.857,1.75,13.505,13.505,0,0,0,1.162-4.02h-3.9a11.485,11.485,0,0,1-2.81,4.17L.643,9.565A11.586,11.586,0,0,0,3.89,3.673l1.08.267q-.116.451-.321,1.094h4.84a16.092,16.092,0,0,1-2.509,7.075,10.892,10.892,0,0,1-4.7,3.507l-.663-.786A10.256,10.256,0,0,0,6.48,10.953Zm9.208-2.83a32.432,32.432,0,0,1-3.931,2.632l-.574-.807A25.788,25.788,0,0,0,15.552,6.94a19.643,19.643,0,0,0,3.1-3.268l.923.574a22.1,22.1,0,0,1-2.8,2.98v8.333h-1.08Zm17.746-1.06a.1.1,0,0,1-.109.109l-1.859-.027h-3.7V9.907h1.791l1.948-.027a.1.1,0,0,1,.109.109L31.589,11.6v1.483l.027,2.618a.1.1,0,0,1-.109.109h-.663a.1.1,0,0,1-.109-.109v-.772H24.151v.827a.1.1,0,0,1-.109.109h-.663a.1.1,0,0,1-.109-.109l.027-2.646V11.767L23.27,9.989a.1.1,0,0,1,.109-.109l1.948.027h1.559V7.146H23.434l-1.859.027a.1.1,0,0,1-.109-.109V6.428a.1.1,0,0,1,.109-.109l1.859.027h3.452v-1.3a10.972,10.972,0,0,0-.1-1.7,8.481,8.481,0,0,1,.978.082q.185.027.185.13a1.122,1.122,0,0,1-.1.273,4.506,4.506,0,0,0-.082,1.148v1.36h3.7l1.859-.027a.1.1,0,0,1,.109.109Zm-2.7,7.1V10.68H24.151v3.479Zm17.042-.8q-.328,2.468-1.5,2.468-1.5,0-2.516-2.83a22.224,22.224,0,0,1-1.053-5.906H37.673l-1.88.027a.1.1,0,0,1-.109-.109V6.346a.1.1,0,0,1,.109-.109l1.88.027h5q0-.014-.041-1.039a13.039,13.039,0,0,0-.144-1.716,7.618,7.618,0,0,1,.978.082q.185.027.185.15,0,.021-.068.267a2.529,2.529,0,0,0-.075.738q0,.185.007.438,0,.027.041,1.08H45.37l1.88-.027a.1.1,0,0,1,.109.109v.663a.1.1,0,0,1-.109.109l-1.88-.027H43.579a21.134,21.134,0,0,0,.937,5.407q.8,2.338,1.654,2.338.643,0,.813-2.3a2.608,2.608,0,0,0,.533.39q.273.157.273.308A.717.717,0,0,1,47.776,13.359Zm-5.359-.793a3.33,3.33,0,0,0-.041.533.483.483,0,0,1-.048.273.645.645,0,0,1-.232.116,45.213,45.213,0,0,1-5.154,1.5,1.629,1.629,0,0,0-.547.212.625.625,0,0,1-.212.1q-.082,0-.15-.157a8.119,8.119,0,0,1-.267-.834,9.452,9.452,0,0,0,1.285-.212l1.613-.362V10.174h-.745L36.23,10.2a.1.1,0,0,1-.116-.116V9.5q0-.123.116-.123l1.688.027h2.44l1.682-.027q.109,0,.109.123v.588q0,.116-.109.116l-1.682-.027h-.827v3.315A25.009,25.009,0,0,0,42.417,12.566Zm4.1-7.465a.138.138,0,0,1,.041.082q0,.055-.123.157l-.294.226a.418.418,0,0,1-.178.1q-.041,0-.1-.068a6.069,6.069,0,0,0-1.333-1.265q-.055-.034-.055-.068t.116-.137l.246-.2a.294.294,0,0,1,.157-.089.214.214,0,0,1,.109.048A8.537,8.537,0,0,1,46.519,5.1Zm7.854,7.171q.9,1.3,1.682,2.687l-.923.588a27.864,27.864,0,0,0-4.648-6.453l.8-.588a26.844,26.844,0,0,1,2.461,2.885,22.9,22.9,0,0,0,2.994-5.715h-7.4V4.739H57.8l.362.485A31.431,31.431,0,0,1,54.373,12.272Zm5.448-4.86.9-.39a19.128,19.128,0,0,1,1.162,3.049l-.923.362A17.081,17.081,0,0,0,59.821,7.412Zm2.646-.6.882-.362a18.024,18.024,0,0,1,1.025,2.994l-.916.39A14.234,14.234,0,0,0,62.467,6.811ZM61.373,15a7.1,7.1,0,0,0,3.753-3.083,11.7,11.7,0,0,0,1.217-5.161l1.025.219a13.289,13.289,0,0,1-1.4,5.462,6.606,6.606,0,0,1-1.675,1.955,10.213,10.213,0,0,1-2.317,1.319ZM76.761,6.64H79.01v.943H76.761V8.629q0,3.445-1.47,5.052a7.427,7.427,0,0,1-3.814,1.935l-.567-.8a6.161,6.161,0,0,0,3.753-1.962,6.7,6.7,0,0,0,1.046-4.095V7.583H72.194v3.705H71.142V7.583H69V6.64h2.14V3.871h1.053V6.64h3.514v-2.8h1.053Zm3.65,2.618h7.615V10.3H80.411ZM96.51,3.42l.718-.28A14.091,14.091,0,0,1,98.26,5.5l-.752.314A12.262,12.262,0,0,0,96.51,3.42ZM89.694,8.267l.479-.841a28.873,28.873,0,0,1,3.288,1.429l-.52.937A19.992,19.992,0,0,0,89.694,8.267Zm1.258-2.994.52-.827A20.246,20.246,0,0,1,94.664,5.97l-.561.923A17.538,17.538,0,0,0,90.952,5.272ZM98.15,3l.7-.253a11.566,11.566,0,0,1,1,2.3l-.731.294A13.488,13.488,0,0,0,98.15,3ZM98.287,6.2l.971.547a14.6,14.6,0,0,1-1.148,3.151,9.741,9.741,0,0,1-1.47,2.235,10.073,10.073,0,0,1-5.558,2.994l-.574-.882a9.086,9.086,0,0,0,5.318-2.8A11.559,11.559,0,0,0,98.287,6.2ZM103.6,8.52a1.157,1.157,0,0,1,.779,2.017A1.159,1.159,0,1,1,103.6,8.52Zm7,0a1.157,1.157,0,0,1,.779,2.017A1.159,1.159,0,1,1,110.6,8.52Zm7,0a1.157,1.157,0,0,1,.779,2.017A1.159,1.159,0,1,1,117.6,8.52Zm10.486,3.37a3.631,3.631,0,0,1-.232,1.319,3.171,3.171,0,0,1-.643,1.039,2.871,2.871,0,0,1-.978.68,3.1,3.1,0,0,1-1.23.243,2.713,2.713,0,0,1-2.314-1.193,4.246,4.246,0,0,1-.619-1.412,7.648,7.648,0,0,1-.212-1.88,8.834,8.834,0,0,1,.284-2.321,5.638,5.638,0,0,1,.807-1.784,3.719,3.719,0,0,1,1.261-1.145,3.379,3.379,0,0,1,1.647-.4,3.968,3.968,0,0,1,1.627.28v1.06a3.455,3.455,0,0,0-1.6-.39,2.384,2.384,0,0,0-1.183.294,2.716,2.716,0,0,0-.9.831,4.051,4.051,0,0,0-.578,1.3,6.573,6.573,0,0,0-.2,1.688h.027a2.354,2.354,0,0,1,2.235-1.224,2.942,2.942,0,0,1,1.159.219,2.5,2.5,0,0,1,.882.619,2.786,2.786,0,0,1,.564.954A3.63,3.63,0,0,1,128.085,11.89Zm-1.148.144a3.051,3.051,0,0,0-.13-.923,2,2,0,0,0-.373-.7,1.606,1.606,0,0,0-.6-.441,2.013,2.013,0,0,0-.807-.154,1.888,1.888,0,0,0-.772.157,1.924,1.924,0,0,0-.615.427,2,2,0,0,0-.554,1.391,3.041,3.041,0,0,0,.144.947,2.446,2.446,0,0,0,.4.769,1.918,1.918,0,0,0,.619.516,1.69,1.69,0,0,0,.8.188,1.824,1.824,0,0,0,.772-.161,1.723,1.723,0,0,0,.595-.448,2.073,2.073,0,0,0,.383-.687A2.723,2.723,0,0,0,126.937,12.033Zm8.682-1.976a9.629,9.629,0,0,1-.222,2.181,5.081,5.081,0,0,1-.643,1.6,2.892,2.892,0,0,1-1.032.991,2.826,2.826,0,0,1-1.391.338,2.639,2.639,0,0,1-1.316-.325,2.758,2.758,0,0,1-.974-.947,4.8,4.8,0,0,1-.6-1.528,9.447,9.447,0,0,1-.205-2.075,10.694,10.694,0,0,1,.215-2.27,5.191,5.191,0,0,1,.632-1.651,2.814,2.814,0,0,1,1.036-1,2.908,2.908,0,0,1,1.418-.338Q135.618,5.033,135.618,10.058Zm-1.148.109q0-4.184-1.989-4.184-2.1,0-2.1,4.259,0,3.972,2.058,3.972Q134.47,14.214,134.47,10.167ZM147.267,15h-1.121V10.98a3.032,3.032,0,0,0-.359-1.682,1.361,1.361,0,0,0-1.207-.52,1.494,1.494,0,0,0-1.22.656,2.511,2.511,0,0,0-.5,1.572V15h-1.121V10.844q0-2.064-1.593-2.064a1.475,1.475,0,0,0-1.217.619,2.557,2.557,0,0,0-.479,1.61V15h-1.121V8h1.121V9.107h.027a2.378,2.378,0,0,1,2.174-1.271,2.022,2.022,0,0,1,1.982,1.449,2.5,2.5,0,0,1,2.324-1.449q2.311,0,2.311,2.851Zm2.693-8.777a.71.71,0,0,1-.513-.205.692.692,0,0,1-.212-.52.718.718,0,0,1,.725-.731.724.724,0,0,1,.523.208.73.73,0,0,1,0,1.036A.718.718,0,0,1,149.96,6.223ZM150.507,15h-1.121V8h1.121Zm8.08,0h-1.121V11.008q0-2.229-1.627-2.229a1.765,1.765,0,0,0-1.391.632,2.344,2.344,0,0,0-.55,1.6V15h-1.121V8H153.9V9.162h.027a2.526,2.526,0,0,1,2.3-1.326,2.142,2.142,0,0,1,1.757.742,3.3,3.3,0,0,1,.608,2.143Zm10.37-9.8-4.7,11.43h-1.046L167.9,5.2Zm8.682,9.8h-1.121V6.53a2.6,2.6,0,0,1-.379.3,6.184,6.184,0,0,1-.561.332q-.311.164-.656.308a4.769,4.769,0,0,1-.673.226V6.558a6.517,6.517,0,0,0,.783-.277q.414-.174.813-.39t.755-.451a6,6,0,0,0,.615-.461h.424Zm7.875-7.232a2.027,2.027,0,0,0-.14-.786,1.522,1.522,0,0,0-.954-.889,2.235,2.235,0,0,0-.711-.109,2.352,2.352,0,0,0-.643.089,3.124,3.124,0,0,0-.612.246,3.764,3.764,0,0,0-.574.376,4.148,4.148,0,0,0-.516.485v-1.2a3.352,3.352,0,0,1,1.056-.7,3.719,3.719,0,0,1,1.425-.243,3.441,3.441,0,0,1,1.114.174,2.555,2.555,0,0,1,.889.509,2.354,2.354,0,0,1,.591.827,2.79,2.79,0,0,1,.215,1.128,3.868,3.868,0,0,1-.133,1.053,3.256,3.256,0,0,1-.4.889,4.288,4.288,0,0,1-.68.8,9.635,9.635,0,0,1-.964.779q-.69.492-1.138.841a5.031,5.031,0,0,0-.711.653,1.894,1.894,0,0,0-.369.608,2.127,2.127,0,0,0-.106.7h4.881v1h-6.05v-.485a4.045,4.045,0,0,1,.137-1.107,2.875,2.875,0,0,1,.451-.909,5.046,5.046,0,0,1,.824-.861q.509-.431,1.248-.971a7.887,7.887,0,0,0,.892-.731,3.8,3.8,0,0,0,.578-.7,2.5,2.5,0,0,0,.311-.708A3.051,3.051,0,0,0,185.514,7.768Zm4.43,5.674L188.85,16.8h-.8l.8-3.363Zm7.848-3.384a9.629,9.629,0,0,1-.222,2.181,5.081,5.081,0,0,1-.643,1.6,2.892,2.892,0,0,1-1.032.991,2.826,2.826,0,0,1-1.391.338,2.639,2.639,0,0,1-1.316-.325,2.758,2.758,0,0,1-.974-.947,4.8,4.8,0,0,1-.6-1.528,9.447,9.447,0,0,1-.205-2.075,10.694,10.694,0,0,1,.215-2.27,5.191,5.191,0,0,1,.632-1.651,2.814,2.814,0,0,1,1.036-1,2.908,2.908,0,0,1,1.418-.338Q197.791,5.033,197.791,10.058Zm-1.148.109q0-4.184-1.989-4.184-2.1,0-2.1,4.259,0,3.972,2.058,3.972Q196.643,14.214,196.643,10.167Zm8.7-.109a9.629,9.629,0,0,1-.222,2.181,5.081,5.081,0,0,1-.643,1.6,2.892,2.892,0,0,1-1.032.991,2.826,2.826,0,0,1-1.391.338,2.639,2.639,0,0,1-1.316-.325,2.758,2.758,0,0,1-.974-.947,4.8,4.8,0,0,1-.6-1.528,9.447,9.447,0,0,1-.205-2.075,10.694,10.694,0,0,1,.215-2.27,5.191,5.191,0,0,1,.632-1.651,2.814,2.814,0,0,1,1.036-1,2.908,2.908,0,0,1,1.418-.338Q205.338,5.033,205.338,10.058Zm-1.148.109q0-4.184-1.989-4.184-2.1,0-2.1,4.259,0,3.972,2.058,3.972Q204.189,14.214,204.189,10.167Zm8.7-.109a9.629,9.629,0,0,1-.222,2.181,5.081,5.081,0,0,1-.643,1.6,2.892,2.892,0,0,1-1.032.991,2.826,2.826,0,0,1-1.391.338,2.639,2.639,0,0,1-1.316-.325,2.758,2.758,0,0,1-.974-.947,4.8,4.8,0,0,1-.6-1.528A9.447,9.447,0,0,1,206.5,10.3a10.694,10.694,0,0,1,.215-2.27,5.191,5.191,0,0,1,.632-1.651,2.814,2.814,0,0,1,1.036-1,2.908,2.908,0,0,1,1.418-.338Q212.885,5.033,212.885,10.058Zm-1.148.109q0-4.184-1.989-4.184-2.1,0-2.1,4.259,0,3.972,2.058,3.972Q211.736,14.214,211.736,10.167Zm14.089,4.341a1.107,1.107,0,0,1-.362.923,3.782,3.782,0,0,1-1.88.267.527.527,0,0,1-.273-.041.623.623,0,0,1-.089-.239,2.205,2.205,0,0,0-.267-.643q.574.055,1.36.055a.783.783,0,0,0,.52-.123.546.546,0,0,0,.109-.39V10.071h-8.921v3.192l.027,2.447q0,.116-.109.116h-.69q-.109,0-.109-.116l.027-2.632V7.173l-.027-2.639q0-.13.109-.13l1.976.027h6.528l1.962-.027q.109,0,.109.13L225.8,7.2v5.072ZM224.943,9.3V5.2h-4.1V9.3ZM220,9.3V5.2h-3.979V9.3Z"
												transform="translate(-0.643 -2.75)" fill="#5a5858" />
										</svg>
