	<svg xmlns="http://www.w3.org/2000/svg" width="44.033" height="9.736"
										viewBox="0 0 44.033 9.736">
										<path id="Контур_1754" data-name="Контур 1754"
											d="M9.57-8.379A6.312,6.312,0,0,0,7.764-6.06,5.763,5.763,0,0,0,7.349-3.8,5.631,5.631,0,0,0,7.9-1.24,6.6,6.6,0,0,0,9.57.781l-.249.288a6.867,6.867,0,0,1-2.1-2.407A5.558,5.558,0,0,1,6.7-3.8a5.471,5.471,0,0,1,.688-2.778,7.254,7.254,0,0,1,1.934-2.09Zm4.072,4.868a19.83,19.83,0,0,0-2.28-2.007l.488-.464a25.3,25.3,0,0,1,2.129,1.8,14.142,14.142,0,0,0,1.064-3.481l.776.161a16.028,16.028,0,0,1-1.27,3.882,15.676,15.676,0,0,1,1.812,2.256l-.62.513A15.775,15.775,0,0,0,14.18-2.93,9.086,9.086,0,0,1,10.84.43l-.5-.5A8.57,8.57,0,0,0,13.643-3.511Zm4.688-3.33H23.3v.7H18.33Zm-.659,5.771H23.9v.7h-6.23Zm11.45.352H30.6v.649H24.9V-.718h3.462l.376-4.395H25.7v-.649h3.857ZM31.47-4.1h5.439v.742H31.47ZM43.813-7.08A.073.073,0,0,1,43.73-7l-1.04-.024h-.6a9.2,9.2,0,0,1-.3,1.4H42.8a.556.556,0,0,0,.249-.049.27.27,0,0,1,.122-.029q.088,0,.288.2.181.166.181.259a.218.218,0,0,1-.059.127.836.836,0,0,0-.122.371,9.206,9.206,0,0,1-1.147,3.105A9.064,9.064,0,0,1,40.522.317.413.413,0,0,1,40.381.4q-.039,0-.137-.132a1.236,1.236,0,0,0-.332-.278,7.168,7.168,0,0,0,2.261-2.529,7.429,7.429,0,0,0-.923-.869q-.059-.044-.059-.068a.217.217,0,0,1,.054-.093l.186-.239q.044-.059.078-.059a.1.1,0,0,1,.063.029,6.239,6.239,0,0,1,.85.762A8.306,8.306,0,0,0,42.944-5.1H41.611a7.13,7.13,0,0,1-1.221,2.124q-.083.1-.117.1t-.132-.112a1.131,1.131,0,0,0-.3-.259,6.693,6.693,0,0,0,1.689-3.77H41.5L40.464-7a.073.073,0,0,1-.083-.083v-.4q0-.078.083-.078l1.04.02H42.69l1.04-.02q.083,0,.083.078Zm-3.491-.889q0,.063-.1.146a1.312,1.312,0,0,0-.176.391q-.283.825-.562,1.45V-.952L39.5.62A.069.069,0,0,1,39.424.7H38.96A.069.069,0,0,1,38.882.62L38.9-.952v-2.49q0-.957.01-1.445a14.314,14.314,0,0,1-.85,1.265q-.068.1-.112.1t-.107-.132A1.324,1.324,0,0,0,37.593-4a10.163,10.163,0,0,0,1.88-3.589,3.359,3.359,0,0,0,.132-.693q.322.088.605.19Q40.322-8.042,40.322-7.969Zm6.284-.02a.646.646,0,0,1-.059.19,3.489,3.489,0,0,0-.054.869v4.971L46.5-.43a.949.949,0,0,1-.278.791,1.758,1.758,0,0,1-.981.19h-.2q-.156,0-.186-.034a.388.388,0,0,1-.063-.166.949.949,0,0,0-.2-.449,7.2,7.2,0,0,0,.811.049.557.557,0,0,0,.391-.1A.522.522,0,0,0,45.9-.532V-6.919a7.5,7.5,0,0,0-.068-1.211,6.156,6.156,0,0,1,.649.049Q46.606-8.062,46.606-7.988Zm-1.685.82s-.016.062-.049.176a5.617,5.617,0,0,0-.049,1.03V-3.34l.02,1.27a.069.069,0,0,1-.078.078h-.454a.069.069,0,0,1-.078-.078l.02-1.27v-2.6a10.15,10.15,0,0,0-.059-1.367q.317.015.62.059Q44.922-7.236,44.922-7.168Zm2.939-1.211.249-.288a6.867,6.867,0,0,1,2.1,2.407A5.558,5.558,0,0,1,50.732-3.8a5.471,5.471,0,0,1-.688,2.778,7.254,7.254,0,0,1-1.934,2.09L47.861.781a6.312,6.312,0,0,0,1.807-2.319A5.763,5.763,0,0,0,50.083-3.8a5.631,5.631,0,0,0-.552-2.559A6.6,6.6,0,0,0,47.861-8.379Z"
											transform="translate(-6.699 8.667)" fill="#215f87" />
									</svg>