<svg xmlns="http://www.w3.org/2000/svg" width="331.331" height="63.508"
								viewBox="0 0 331.331 63.508">
								<path id="Контур_1768" data-name="Контур 1768"
									d="M8.524,5.758a13.225,13.225,0,0,1-1.367,5.927,8.91,8.91,0,0,1-5.113,3.9l-.588-.841A8.527,8.527,0,0,0,6.009,11.5,10.554,10.554,0,0,0,7.376,5.758H.841V4.821H7.547a1.43,1.43,0,0,1-.1-.547,1.5,1.5,0,0,1,.513-1.162,1.53,1.53,0,0,1,1.053-.4,1.5,1.5,0,0,1,1.162.513,1.53,1.53,0,0,1,.4,1.053A1.559,1.559,0,0,1,9.017,5.847,1.366,1.366,0,0,1,8.524,5.758Zm.492-2.447a.939.939,0,0,0-.725.314.954.954,0,0,0-.239.649A.939.939,0,0,0,8.367,5a.923.923,0,0,0,.649.246.939.939,0,0,0,.725-.314.963.963,0,0,0,.239-.656.954.954,0,0,0-.964-.964Zm3.056,11.607V4.9H19.38V14.918Zm6.228-.943V5.847H13.139v8.128Zm3.336-9.153h7.711q-.041,5.011-1.8,7.506a9.622,9.622,0,0,1-4.7,3.261l-.588-.841A8.527,8.527,0,0,0,26.8,11.5a10.554,10.554,0,0,0,1.367-5.742H21.636ZM34.624,9.75a29.849,29.849,0,0,1-3.274,1.962l-.588-.8a17.911,17.911,0,0,0,6.412-4.97l.854.643a15.86,15.86,0,0,1-2.379,2.379v6.61H34.624Zm4.73-.492H46.97V10.3H39.354Zm15.169,4.58A10.457,10.457,0,0,0,58.16,9.025l.718.937a12.739,12.739,0,0,1-4.819,5.489l-.6-.314V4.247h1.066Zm-2.98-9.5q0,3.979-.137,5.742a10.742,10.742,0,0,1-.4,2.352,6.553,6.553,0,0,1-2.044,3.015l-.813-.636a5.191,5.191,0,0,0,1.907-2.782,13.31,13.31,0,0,0,.349-2.878q.068-1.552.068-4.812Zm12.079,3.1a41.522,41.522,0,0,1-2.646,7.841l-.923-.362a37.253,37.253,0,0,0,2.563-7.41q-.848.062-2.577.226l-.055-.882q.513-.034,1.518-.1l1.313-.089q.26-1.183.533-2.782l.991.137q-.308,1.6-.533,2.591.786-.055,1.429-.055a1.428,1.428,0,0,1,1.278.567,3.662,3.662,0,0,1,.4,1.982,19.506,19.506,0,0,1-.437,4.97,1.777,1.777,0,0,1-.636,1,1.828,1.828,0,0,1-1.073.28,9.249,9.249,0,0,1-1.422-.109l-.171-.978a6.216,6.216,0,0,0,1.244.164,1.47,1.47,0,0,0,.745-.144.9.9,0,0,0,.335-.485,16.428,16.428,0,0,0,.444-4.566,3.52,3.52,0,0,0-.219-1.538.713.713,0,0,0-.677-.321Q64.408,7.385,63.622,7.439ZM67.73,3.447l.711-.28A19.25,19.25,0,0,1,69.48,5.539l-.759.308A14.765,14.765,0,0,0,67.73,3.447Zm1.5-.472.7-.253a11.327,11.327,0,0,1,.991,2.3l-.725.294A13.488,13.488,0,0,0,69.228,2.976ZM66.917,5.819l.882-.451A16.879,16.879,0,0,1,70.205,10.2l-.978.458A14.513,14.513,0,0,0,66.917,5.819Zm17.145,7.417a2.852,2.852,0,0,1-.615,1.859,1.831,1.831,0,0,1-.937.458,8.094,8.094,0,0,1-1.559.116,6.581,6.581,0,0,1-1.34-.1,1.044,1.044,0,0,1-.574-.294,2.245,2.245,0,0,1-.335-1.442V9.723q-.533.048-1.866.137a11,11,0,0,1-.226,2.181A5.846,5.846,0,0,1,76,13.489a5.788,5.788,0,0,1-3.329,2.338.951.951,0,0,1-.212.041q-.1,0-.226-.2a1.681,1.681,0,0,0-.431-.5,5.31,5.31,0,0,0,3.486-2.146,4.972,4.972,0,0,0,.554-1.408,9.159,9.159,0,0,0,.144-1.7L74.307,10a4.454,4.454,0,0,0-1.053.109.526.526,0,0,1-.2.068q-.123,0-.164-.185-.1-.4-.185-.861.52.034.964.034.219,0,.465-.007l.684-.014A21.064,21.064,0,0,0,76.6,6.332H73.9l-1.846.027q-.116,0-.116-.123V5.587q0-.109.116-.109L73.9,5.5h3.473V5.211a9.719,9.719,0,0,0-.1-1.641q.608.027.937.075.185.021.185.123a.9.9,0,0,1-.089.253,5.5,5.5,0,0,0-.068,1.2V5.5H81.99l1.846-.027q.116,0,.116.109v.649q0,.123-.116.123L81.99,6.332H77.636q-.984,1.675-1.791,2.775,2.878-.116,5.134-.328a13.682,13.682,0,0,0-1.162-1.114q-.055-.055-.055-.082t.1-.13L80.2,7.2a.263.263,0,0,1,.13-.055.2.2,0,0,1,.109.055,16.526,16.526,0,0,1,2.543,2.775.165.165,0,0,1,.041.089q0,.048-.1.116l-.39.28a.408.408,0,0,1-.178.1q-.041,0-.089-.068-.376-.588-.718-1.025-.67.068-1.982.185v3.972a1.973,1.973,0,0,0,.15,1q.185.239,1.429.239a2.565,2.565,0,0,0,1.7-.376,3.219,3.219,0,0,0,.4-1.846,1.965,1.965,0,0,0,.574.28q.246.075.246.232A.566.566,0,0,1,84.062,13.236Zm14.123,1.777a2.1,2.1,0,0,0-.349.588q-.089.239-.2.239-.027,0-.191-.027A8.042,8.042,0,0,1,91.8,12.327a4.222,4.222,0,0,1-.458.8,5.719,5.719,0,0,1-2,1.668,12.425,12.425,0,0,1-2.741.991.951.951,0,0,1-.212.041q-.1,0-.2-.239a1.524,1.524,0,0,0-.349-.533q3.664-.677,4.86-2.434a5.226,5.226,0,0,0,.321-.6H88.259l-1.887.027q-.116,0-.116-.109v-.547q0-.109.116-.109l1.887.027h2.987a10.821,10.821,0,0,0,.15-1.292H90l-1.9.027q-.116,0-.116-.109v-.52q0-.123.116-.123l1.9.027h1.429l.014-1.237H89.872l-1.935.027A.1.1,0,0,1,87.828,8V7.467a.1.1,0,0,1,.109-.109l1.935.027h1.565a11.663,11.663,0,0,0-.1-1.333,6.023,6.023,0,0,1,.854.089q.226.048.226.137a1.517,1.517,0,0,1-.1.308,3.3,3.3,0,0,0-.055.8H94l1.921-.027a.1.1,0,0,1,.109.109V8a.1.1,0,0,1-.109.109L94,8.082H92.265q0,.875-.014,1.237h1.613l1.9-.027q.109,0,.109.123v.52a.1.1,0,0,1-.109.109l-1.9-.027H92.224a8.082,8.082,0,0,1-.13,1.292h3.657l1.907-.027a.1.1,0,0,1,.109.109v.547a.1.1,0,0,1-.109.109l-1.907-.027H92.49Q94.1,14.426,98.185,15.014Zm-.6-7.321q0,.116-.109.116h-.649q-.109,0-.109-.116v-2H87.158v2q0,.116-.109.116H86.4q-.109,0-.109-.116l.027-1.463V5.778l-.027-.745a.1.1,0,0,1,.109-.109l1.948.027H91.41V4.78A6.676,6.676,0,0,0,91.3,3.352q.444.021.937.075.171.021.171.109a1.328,1.328,0,0,1-.089.267,4.106,4.106,0,0,0-.068.978v.171h3.288l1.935-.027a.1.1,0,0,1,.109.109l-.027.663v.533Zm3.186-3.726h1.046q-.239,7.191-.239,8.668a2.136,2.136,0,0,0,.458,1.579,2.222,2.222,0,0,0,1.545.424,3.218,3.218,0,0,0,2.44-.943,5.471,5.471,0,0,0,1.217-2.673l.95.479q-.93,4.074-4.58,4.074a3.2,3.2,0,0,1-2.4-.718A3.1,3.1,0,0,1,100.6,12.7q0-.766.062-3.753Q100.741,5.334,100.769,3.967Zm11.266,2.98q-1.155.062-2.365.062V6.127q1.4,0,2.509-.062.191-1.422.267-2.447l1.032.1q-.109,1.025-.321,2.311,1.36-.089,3.1-.239l.014.882q-1.429.15-3.254.239a53.168,53.168,0,0,1-2.208,8.524l-.978-.335A47.881,47.881,0,0,0,112.034,6.947Zm1.709,5.38.868.068a3.679,3.679,0,0,0-.082.786,1.075,1.075,0,0,0,.513,1.08,4.218,4.218,0,0,0,1.559.191,16.519,16.519,0,0,0,2.167-.109l.055.964q-.834.082-2.044.082a4.645,4.645,0,0,1-2.5-.472,1.737,1.737,0,0,1-.636-1.531A5.222,5.222,0,0,1,113.743,12.327Zm.711-2.994V8.4a40.056,40.056,0,0,1,4.259-.191v.9A32.162,32.162,0,0,0,114.454,9.333Zm8.224-4.819.4-.8a21.8,21.8,0,0,1,4.354,1.265l-.5.868A20.869,20.869,0,0,0,122.678,4.514Zm-.294,1.723q-.328,3.261-.4,4.259l-.144.766.321-.52A4.925,4.925,0,0,1,123.84,9.47a4.268,4.268,0,0,1,1.777-.39,3.349,3.349,0,0,1,2.406.82,2.66,2.66,0,0,1,.786,2.017,3.2,3.2,0,0,1-.485,1.839,3.371,3.371,0,0,1-1.2,1.019,6.8,6.8,0,0,1-2.092.615,18.516,18.516,0,0,1-2.386.226l-.321-.937a9.7,9.7,0,0,0,4.074-.7,2.554,2.554,0,0,0,1.046-.889,2.462,2.462,0,0,0,.294-1.265,1.793,1.793,0,0,0-.615-1.415,2.145,2.145,0,0,0-1.456-.485,3.916,3.916,0,0,0-2.953,1.408,4.063,4.063,0,0,0-.766,1.21l-1.039-.185q.1-2.01.492-6.262Zm12.476,5.052.854.615q-.677,3.377-2.27,3.377a1.651,1.651,0,0,1-1.538-1.019,9.207,9.207,0,0,1-.718-3.227q-.109-1.312-.109-3.541l.014-2.632H132.1l-.021,2.188q0,2.646.116,3.9.267,3.22,1.217,3.22.485,0,.813-.711A11.913,11.913,0,0,0,134.859,11.288Zm2.1-5.346.909-.267a17.059,17.059,0,0,1,2.427,7.574l-1.053.171A17.589,17.589,0,0,0,136.958,5.942ZM146.863,7.6q.1,2.229.294,4a9.694,9.694,0,0,1,3.924,2.352l-.7.854a8.058,8.058,0,0,0-3.165-2.249q.027.472.027.725a1.94,1.94,0,0,1-.807,1.688,2.858,2.858,0,0,1-1.729.485q-2.646,0-2.646-1.989a1.848,1.848,0,0,1,.991-1.675,3.2,3.2,0,0,1,1.682-.444,9.773,9.773,0,0,1,1.442.075q-.349-3.309-.39-7.643h1.019q0,1.969.027,2.967,1.928-.062,3.657-.253l.014.882Q148.846,7.535,146.863,7.6Zm-.643,4.758a6.009,6.009,0,0,0-1.34-.144,2.563,2.563,0,0,0-1.422.328.984.984,0,0,0-.485.882q0,1.148,1.565,1.148,1.709,0,1.709-1.429Q146.248,12.888,146.221,12.354Zm10.616-1.066.854.615q-.677,3.377-2.27,3.377a1.651,1.651,0,0,1-1.538-1.019,9.207,9.207,0,0,1-.718-3.227q-.109-1.312-.109-3.541l.014-2.632h1.012l-.021,2.188q0,2.646.116,3.9.267,3.22,1.217,3.22.485,0,.813-.711A11.913,11.913,0,0,0,156.837,11.288Zm2.1-5.346.909-.267a17.059,17.059,0,0,1,2.427,7.574l-1.053.171A17.589,17.589,0,0,0,158.936,5.942ZM168.841,7.6q.1,2.229.294,4a9.694,9.694,0,0,1,3.924,2.352l-.7.854a8.058,8.058,0,0,0-3.165-2.249q.027.472.027.725a1.94,1.94,0,0,1-.807,1.688,2.858,2.858,0,0,1-1.729.485q-2.646,0-2.646-1.989a1.848,1.848,0,0,1,.991-1.675,3.2,3.2,0,0,1,1.682-.444,9.773,9.773,0,0,1,1.442.075q-.349-3.309-.39-7.643h1.019q0,1.969.027,2.967,1.928-.062,3.657-.253l.014.882Q170.823,7.535,168.841,7.6Zm-.643,4.758a6.009,6.009,0,0,0-1.34-.144,2.563,2.563,0,0,0-1.422.328.984.984,0,0,0-.485.882q0,1.148,1.565,1.148,1.709,0,1.709-1.429Q168.226,12.888,168.2,12.354Zm8.976-6.262V3.83h.964V6.038q1.511-.1,2.591-.219v.909q-1.224.123-2.591.205V9.641a8.692,8.692,0,0,1,2.646-.479,2.9,2.9,0,0,1,2.577,1.169,3.273,3.273,0,0,1,.533,1.894,2.654,2.654,0,0,1-1.3,2.591,6.067,6.067,0,0,1-2.707.465v-.9a3.954,3.954,0,0,0,2.167-.444,2.048,2.048,0,0,0,.772-1.825,2.11,2.11,0,0,0-.6-1.524,1.724,1.724,0,0,0-1.285-.561,7.651,7.651,0,0,0-2.8.533v3.609a1.437,1.437,0,0,1-.273,1,1.054,1.054,0,0,1-.786.26,2.259,2.259,0,0,1-1.189-.376,2.427,2.427,0,0,1-1.347-2.03q0-1.736,2.632-3.049v-3q-.813.048-2.434.075v-.9Q176.053,6.154,177.174,6.093Zm0,4.9a5.118,5.118,0,0,0-1.306,1.019,1.511,1.511,0,0,0-.39.984,1.078,1.078,0,0,0,.335.759,1.888,1.888,0,0,0,.69.458.9.9,0,0,0,.39.1q.28,0,.28-.465Zm3.9-5.64.6-.731A12.831,12.831,0,0,1,184.5,6.852l-.684.772A11,11,0,0,0,181.077,5.354Zm17.295,6.009a2.1,2.1,0,0,0-.362.595q-.089.212-.171.212a1.478,1.478,0,0,1-.191-.027,21.158,21.158,0,0,1-5.6-1.887,14.8,14.8,0,0,1-3.514,1.511q.28.027,1.8.027h3.3l1.866-.027q.109,0,.109.1l-.027,1.08v1.176l.027,1.8q0,.1-.109.1h-.636q-.109,0-.109-.1v-.588h-5.53V15.9q0,.1-.109.1h-.636q-.109,0-.109-.1l.027-1.777V13.065l-.027-1.2v-.041q-.807.246-1.948.513a1.079,1.079,0,0,1-.205.041q-.089,0-.185-.205a1.49,1.49,0,0,0-.349-.513A19.32,19.32,0,0,0,191.3,9.818a10.515,10.515,0,0,1-1.887-1.511A12.49,12.49,0,0,1,187.2,9.8a1.187,1.187,0,0,1-.226.1q-.041,0-.15-.157a1.274,1.274,0,0,0-.424-.417,10.162,10.162,0,0,0,3.821-2.926,3.067,3.067,0,0,0,.369-.643,5.962,5.962,0,0,1,.731.232q.123.068.123.144t-.144.185a1.612,1.612,0,0,0-.294.308q-.185.239-.308.376h3.473a.783.783,0,0,0,.335-.055.317.317,0,0,1,.13-.041q.109,0,.39.28.239.253.239.376a.206.206,0,0,1-.144.2,1.379,1.379,0,0,0-.417.321,15.542,15.542,0,0,1-1.935,1.688A20.549,20.549,0,0,0,198.372,11.363Zm-3.609,3.247V12.5h-5.53V14.61Zm-.711-6.945H190.1l-.171.185a10.306,10.306,0,0,0,2.105,1.524A12.59,12.59,0,0,0,194.052,7.665Zm3.5-.137a.1.1,0,0,1-.109.109h-.636a.1.1,0,0,1-.109-.109V5.56h-9.591V7.528a.1.1,0,0,1-.109.109h-.636a.1.1,0,0,1-.109-.109l.027-1.449V5.642l-.027-.725a.1.1,0,0,1,.109-.109l1.935.027h3.083V4.288a3.786,3.786,0,0,0-.1-.95q.41.021.923.068.171.021.171.116a.846.846,0,0,1-.082.26,1.819,1.819,0,0,0-.068.547v.506h3.288l1.935-.027a.1.1,0,0,1,.109.109l-.027.629v.533Zm14.841,7.007a1.86,1.86,0,0,0-.451.479q-.089.171-.164.171a.433.433,0,0,1-.2-.1,10.65,10.65,0,0,1-2.331-2.01,8.641,8.641,0,0,1-1.278-2.112q.055,2.939.055,3.657a1.138,1.138,0,0,1-.362.991,2.854,2.854,0,0,1-1.415.239.548.548,0,0,1-.28-.041.547.547,0,0,1-.089-.239,1.56,1.56,0,0,0-.246-.588,8.256,8.256,0,0,0,.923.055.82.82,0,0,0,.554-.123.62.62,0,0,0,.1-.424V12.888q-1.244.807-2.769,1.62a1.943,1.943,0,0,0-.506.314q-.089.109-.157.109t-.123-.123q-.144-.253-.362-.745a4.57,4.57,0,0,0,.807-.294,26.732,26.732,0,0,0,3.11-1.7V10.03h-1.3l-1.935.027q-.1,0-.1-.109V9.4q0-.109.1-.109l1.935.027h1.3V8.062h-.8l-1.764.027q-.109,0-.109-.116V7.46q0-.116.109-.116l1.764.027h.8v-1.2h-.991l-1.88.027q-.109,0-.109-.1V5.546a.1.1,0,0,1,.109-.109l1.88.027H208.3a12.2,12.2,0,0,0,.752-1.429,2.654,2.654,0,0,0,.185-.588,5.368,5.368,0,0,1,.725.212q.171.048.171.15,0,.075-.137.185a.677.677,0,0,0-.2.267,12.632,12.632,0,0,1-.7,1.2h.465l1.846-.027q.13,0,.13.109V6.1q0,.1-.13.1l-1.846-.027H208v1.2h1.176l1.75-.027q.109,0,.109.116v.513q0,.116-.109.116l-1.75-.027H208V9.319h1.941l1.935-.027a.1.1,0,0,1,.109.109v.547a.1.1,0,0,1-.109.109l-1.935-.027h-1.8a9.615,9.615,0,0,0,1.189,2.03,11.044,11.044,0,0,0,1.121-1.053,1.977,1.977,0,0,0,.335-.485,4.885,4.885,0,0,1,.574.444.258.258,0,0,1,.116.185q0,.109-.137.15a1.1,1.1,0,0,0-.424.294,13.719,13.719,0,0,1-1.135,1A10.167,10.167,0,0,0,212.393,14.535ZM203.848,6.92q0,.116-.109.116l-1.258-.027h-.089a9.323,9.323,0,0,0,1.442,3.035,1.831,1.831,0,0,0-.349.533q-.068.15-.123.15t-.13-.15a12.545,12.545,0,0,1-.964-2.673q.007,2.755.082,5.79.014.759.041,1.7.014.465.014.506a.085.085,0,0,1-.1.1h-.67q-.116,0-.116-.1s.009-.406.027-1.2q.1-3.541.116-6.6a15.75,15.75,0,0,1-1.641,4.437q-.089.157-.137.157-.075,0-.116-.137a1.211,1.211,0,0,0-.362-.547,15.308,15.308,0,0,0,2.058-5h-.308l-1.271.027a.1.1,0,0,1-.116-.116V6.373q0-.123.116-.123l1.271.027h.417v-1.2a8.8,8.8,0,0,0-.109-1.668,6.609,6.609,0,0,1,.882.089q.171.021.171.123a.676.676,0,0,1-.082.253,4.859,4.859,0,0,0-.075,1.189V6.277h.116l1.258-.027q.109,0,.109.123Zm2.146,4.819q.048.048.048.075t-.1.137l-.294.273q-.116.123-.164.123-.027,0-.068-.062a6.8,6.8,0,0,0-1.176-1.306q-.055-.041-.055-.068t.109-.137l.239-.226q.109-.1.15-.1t.068.048A6.8,6.8,0,0,1,205.994,11.739Zm.725-6.918a.168.168,0,0,1,.014.062q0,.048-.1.109l-.41.219a.441.441,0,0,1-.164.075q-.041,0-.075-.089a4.652,4.652,0,0,0-.786-1.258.112.112,0,0,1-.041-.068q0-.041.144-.116l.362-.178a.368.368,0,0,1,.123-.041.146.146,0,0,1,.1.068A6.6,6.6,0,0,1,206.719,4.821Zm10.568,2.618a41.522,41.522,0,0,1-2.646,7.841l-.923-.362a37.253,37.253,0,0,0,2.563-7.41q-.848.062-2.577.226l-.055-.882q.513-.034,1.518-.1l1.313-.089q.26-1.183.533-2.782l.991.137q-.308,1.6-.533,2.591.786-.055,1.429-.055a1.428,1.428,0,0,1,1.278.567,3.662,3.662,0,0,1,.4,1.982,19.506,19.506,0,0,1-.437,4.97,1.777,1.777,0,0,1-.636,1,1.828,1.828,0,0,1-1.073.28,9.249,9.249,0,0,1-1.422-.109l-.171-.978a6.216,6.216,0,0,0,1.244.164,1.47,1.47,0,0,0,.745-.144.9.9,0,0,0,.335-.485,16.429,16.429,0,0,0,.444-4.566,3.52,3.52,0,0,0-.219-1.538.713.713,0,0,0-.677-.321Q218.073,7.385,217.287,7.439Zm3.575-1.832.9-.4a19.306,19.306,0,0,1,2.112,5.031l-.991.4A17.207,17.207,0,0,0,220.862,5.607Zm6.433-1.094.4-.8a21.8,21.8,0,0,1,4.354,1.265l-.5.868A20.869,20.869,0,0,0,227.295,4.514ZM227,6.236q-.328,3.261-.4,4.259l-.144.766.321-.52a4.925,4.925,0,0,1,1.682-1.271,4.268,4.268,0,0,1,1.777-.39,3.349,3.349,0,0,1,2.406.82,2.66,2.66,0,0,1,.786,2.017,3.2,3.2,0,0,1-.485,1.839,3.371,3.371,0,0,1-1.2,1.019,6.8,6.8,0,0,1-2.092.615,18.516,18.516,0,0,1-2.386.226l-.321-.937a9.7,9.7,0,0,0,4.074-.7,2.554,2.554,0,0,0,1.046-.889,2.462,2.462,0,0,0,.294-1.265,1.793,1.793,0,0,0-.615-1.415,2.145,2.145,0,0,0-1.456-.485,3.916,3.916,0,0,0-2.953,1.408,4.063,4.063,0,0,0-.766,1.21l-1.039-.185q.1-2.01.492-6.262Zm13.679-.39a22.039,22.039,0,0,1-1.483,7.362,2.1,2.1,0,0,1-1.894,1.483,1.749,1.749,0,0,1-1.606-1.06,6,6,0,0,1-.533-2.789,7.335,7.335,0,0,1,.458-2.618A5.114,5.114,0,0,1,236.66,6.5a4.675,4.675,0,0,1,1.716-1.128,5.426,5.426,0,0,1,1.969-.369A4.139,4.139,0,0,1,243.9,6.5a6.371,6.371,0,0,1,.964,3.808,5.114,5.114,0,0,1-1.121,3.4,5.6,5.6,0,0,1-3.274,1.784l-.485-.841a4.243,4.243,0,0,0,3.835-4.607,4.67,4.67,0,0,0-1.032-3.3A2.809,2.809,0,0,0,240.68,5.847Zm-1.053.109a3.075,3.075,0,0,0-1.292.4,4.459,4.459,0,0,0-1.06.93,5.252,5.252,0,0,0-1.148,3.582,4.6,4.6,0,0,0,.41,2.126q.328.615.752.615a.82.82,0,0,0,.622-.26,2.544,2.544,0,0,0,.444-.759A19.819,19.819,0,0,0,239.627,5.956ZM258.768,9.2q0,.116-.171.212a2.011,2.011,0,0,0-.5.465,11.817,11.817,0,0,1-1.812,1.736q-.144.123-.2.123a.87.87,0,0,1-.232-.157,2.794,2.794,0,0,0-.608-.335,8.584,8.584,0,0,0,1.989-1.736h-3.89V12.58l.014,1.914A1.242,1.242,0,0,1,253,15.52a3.378,3.378,0,0,1-1.709.267H251q-.232,0-.273-.048a.64.64,0,0,1-.089-.246,2.856,2.856,0,0,0-.28-.69,14.115,14.115,0,0,0,1.456.089.739.739,0,0,0,.513-.13.585.585,0,0,0,.116-.417V9.511H248.9l-1.866.027a.1.1,0,0,1-.109-.109V8.752a.1.1,0,0,1,.109-.109l1.866.027h4.4a14.828,14.828,0,0,0-2.953-2.126q-.075-.041-.075-.062a.6.6,0,0,1,.1-.15l.28-.321q.075-.082.116-.082a.148.148,0,0,1,.075.034,15.894,15.894,0,0,1,1.784,1.1,17.941,17.941,0,0,0,3.09-2.071h-5.5l-1.969.027q-.1,0-.1-.109V4.261q0-.109.1-.109l1.969.027h5.865a1.046,1.046,0,0,0,.342-.041,1.254,1.254,0,0,1,.191-.068q.13,0,.438.308t.308.465q0,.116-.2.191a1.606,1.606,0,0,0-.485.294,18.989,18.989,0,0,1-3.363,2.235q.253.205.841.731.048.041.048.062a.686.686,0,0,1-.123.13l-.191.185h3.637a.792.792,0,0,0,.355-.055.42.42,0,0,1,.164-.055,1.068,1.068,0,0,1,.451.267Q258.768,9.073,258.768,9.2Zm7.369,1.306a.268.268,0,0,1,.021.089q0,.075-.178.13l-.321.1a.579.579,0,0,1-.137.027q-.062,0-.082-.089-.205-.629-.267-.807l-1.347.137v3.753l.027,2.044q0,.1-.109.1h-.636q-.109,0-.109-.1l.027-2.044V10.167l-1.538.116a1.534,1.534,0,0,0-.533.109.422.422,0,0,1-.157.055q-.089,0-.137-.178-.055-.212-.144-.772.444.041.882.041h.171q.5-.649,1.053-1.456a19.586,19.586,0,0,0-2.064-2.153.146.146,0,0,1-.062-.1q0-.041.109-.157l.239-.294q.089-.1.13-.1t.089.062l.533.52q.52-.807.923-1.586a3.59,3.59,0,0,0,.369-.95q.376.15.779.349.157.075.157.185,0,.075-.123.15a.821.821,0,0,0-.239.294q-.738,1.224-1.347,2.085.479.479.937,1.025.52-.834.909-1.5a6.472,6.472,0,0,0,.561-1.189,5.8,5.8,0,0,1,.772.39.209.209,0,0,1,.123.171q0,.089-.137.178a2.63,2.63,0,0,0-.492.615q-1.155,1.846-2.338,3.418,1.354-.075,2.468-.164a10.8,10.8,0,0,0-.547-1.08.168.168,0,0,1-.027-.075q0-.055.164-.123l.253-.1a.369.369,0,0,1,.15-.048q.055,0,.1.075A14.108,14.108,0,0,1,266.137,10.509Zm6.31-4.58q-.027.355-.027,1.066a45.94,45.94,0,0,1-.451,6.788,3.463,3.463,0,0,1-.608,1.634,1.439,1.439,0,0,1-1.142.479,10.86,10.86,0,0,1-1.3-.068.457.457,0,0,1-.267-.075.769.769,0,0,1-.082-.26,2.124,2.124,0,0,0-.226-.629,12.161,12.161,0,0,0,1.818.191.759.759,0,0,0,.69-.506,4.283,4.283,0,0,0,.294-1.073,44.315,44.315,0,0,0,.39-6.87h-4.088a11.224,11.224,0,0,1-1.176,1.818q-.116.157-.2.157t-.205-.144a1.731,1.731,0,0,0-.451-.335,10.017,10.017,0,0,0,2.03-3.568,5.634,5.634,0,0,0,.267-1.237,6.023,6.023,0,0,1,.868.226q.2.068.2.171a.392.392,0,0,1-.123.246,1.736,1.736,0,0,0-.355.677q-.144.451-.479,1.217h2.987l1.511-.027A.109.109,0,0,1,272.446,5.929Zm-2.9,5.558a.221.221,0,0,1,.034.089q0,.055-.144.137l-.39.219a.535.535,0,0,1-.185.089q-.041,0-.082-.082a11.6,11.6,0,0,0-1.7-2.68.131.131,0,0,1-.048-.082q0-.048.144-.137l.349-.212a.282.282,0,0,1,.13-.062q.034,0,.082.062A11.164,11.164,0,0,1,269.548,11.486Zm-7.349-.014a.659.659,0,0,1-.068.164,1.3,1.3,0,0,0-.1.41,11.775,11.775,0,0,1-.684,2.728q-.055.2-.123.2a.525.525,0,0,1-.212-.109,1.1,1.1,0,0,0-.479-.212,10.723,10.723,0,0,0,.759-2.762,2.919,2.919,0,0,0,.034-.437q0-.089-.007-.232a5.67,5.67,0,0,1,.684.109Q262.2,11.37,262.2,11.473Zm3.9,2.475a.225.225,0,0,1,.007.055q0,.1-.171.157l-.335.1a.612.612,0,0,1-.157.034q-.055,0-.082-.1a14.687,14.687,0,0,0-.731-2.687.262.262,0,0,1-.021-.082q0-.075.164-.116l.294-.082a.561.561,0,0,1,.116-.021q.068,0,.123.1A13.739,13.739,0,0,1,266.1,13.947Zm14.109-3.329v2.769h-.937V11.049q-.321.164-.663.355-1.791,1.012-1.791,2.03a.927.927,0,0,0,.629.943,6.4,6.4,0,0,0,2.078.232q1.47,0,3.411-.171l.041.95q-2.55.13-3.384.13a5.879,5.879,0,0,1-2.967-.513,1.772,1.772,0,0,1-.7-1.6,3.066,3.066,0,0,1,1.88-2.55q.711-.4,1.456-.772-.068-1.312-.909-1.312-1.176,0-3.227,2.365L274.4,10.5a16.348,16.348,0,0,0,2.9-4.136q-1.278.021-2.563,0V5.5q1.477.027,2.953,0a12.509,12.509,0,0,0,.629-1.873l1.012.185a14.375,14.375,0,0,1-.588,1.647q1.969-.062,3.739-.239l.027.854q-2.3.185-4.143.239a14.3,14.3,0,0,1-1.176,1.989l-.355.362.041.055a2.492,2.492,0,0,1,1.668-.711,1.521,1.521,0,0,1,1.114.424,1.982,1.982,0,0,1,.526,1.217q1.094-.5,2.844-1.237l.39.957Q281.142,10.208,280.212,10.618Zm16.967.8a.1.1,0,0,1-.109.109L295.2,11.5h-3.384l-1.894.027a.1.1,0,0,1-.109-.109l.027-1.374V8.157a9.207,9.207,0,0,1-.643.745q-.157.15-.2.15t-.178-.157a1.2,1.2,0,0,0-.342-.294,6.731,6.731,0,0,0,1.6-2.03,2.977,2.977,0,0,0,.253-.711,4.379,4.379,0,0,1,.636.191q.171.062.171.157,0,.068-.123.15a.775.775,0,0,0-.212.267q-.089.178-.137.253h2.352l.253-.431a1.815,1.815,0,0,0,.178-.547q.362.075.69.178.137.041.137.13,0,.062-.1.137a.73.73,0,0,0-.2.212l-.212.321h1.333l1.736-.027a.1.1,0,0,1,.109.109v.41a.1.1,0,0,1-.109.109l-1.736-.027h-1.36v.772h.772l1.846-.027q.13,0,.13.109v.369q0,.109-.13.109l-1.846-.027h-.772v.793h.772l1.846-.027q.13,0,.13.109V10q0,.109-.13.109l-1.846-.027h-.772v.827H295.2l1.866-.027a.1.1,0,0,1,.109.109Zm-4.156-.506v-.827h-2.447v.827Zm0-1.36V8.759h-2.447v.793Zm0-1.326V7.453h-2.447v.772Zm-3.89-4.19a.18.18,0,0,1-.109.171,2.223,2.223,0,0,0-.4.479,11.694,11.694,0,0,1-1.066,1.524,15.887,15.887,0,0,1,.916,5.961,6.4,6.4,0,0,1-.492,3.021,1.37,1.37,0,0,1-1.271.663q-.294,0-.8-.027-.164-.021-.2-.068a.768.768,0,0,1-.068-.226,1.6,1.6,0,0,0-.253-.615,9.142,9.142,0,0,0,1.2.1.841.841,0,0,0,.841-.574,6.717,6.717,0,0,0,.253-2.229q0-1.429-.1-2.461a9.66,9.66,0,0,1-2.119,2.632.4.4,0,0,1-.178.109q-.055,0-.157-.178a1.512,1.512,0,0,0-.321-.437,10.024,10.024,0,0,0,2.646-3.206,9.748,9.748,0,0,0-.479-1.846,11.191,11.191,0,0,1-1.456,1.189.487.487,0,0,1-.205.109q-.082,0-.2-.2a1.271,1.271,0,0,0-.321-.376,11.63,11.63,0,0,0,1.846-1.5,10.39,10.39,0,0,0-.725-1.217q-.137-.2-.4-.506a.2.2,0,0,1-.055-.1q0-.041.144-.116l.39-.212a.234.234,0,0,1,.109-.041q.062,0,.144.109a11.064,11.064,0,0,1,.937,1.47,8.148,8.148,0,0,0,.868-1.3,3.3,3.3,0,0,0,.267-.677,4.24,4.24,0,0,1,.69.41A.236.236,0,0,1,289.133,4.035ZM297.767,15.2a2.1,2.1,0,0,0-.349.506q-.1.232-.205.232a1.116,1.116,0,0,1-.157-.021,12.324,12.324,0,0,1-3.876-1.094,14.29,14.29,0,0,1-3.937,1.148,1.455,1.455,0,0,1-.15.014q-.109,0-.226-.226a1.761,1.761,0,0,0-.349-.451,15.39,15.39,0,0,0,3.89-.923,6.9,6.9,0,0,1-1.723-1.538q-.533.007-.943.021l-.287.007q-.109,0-.109-.123V12.3a.1.1,0,0,1,.109-.109l1.791.027h3.739a.543.543,0,0,0,.294-.055.441.441,0,0,1,.164-.027q.157,0,.424.267.226.219.226.321t-.171.178a5.005,5.005,0,0,0-.485.41,10.959,10.959,0,0,1-1.477,1.073A13.332,13.332,0,0,0,297.767,15.2Zm-2.837-2.352h-3.35a6.017,6.017,0,0,0,1.613,1.2A7.336,7.336,0,0,0,294.93,12.847Zm2.659-7.677q0,.109-.116.109l-1.955-.027h-.561l.027.656q0,.13-.109.13h-.561q-.116,0-.116-.13s0-.073.007-.205.016-.292.021-.451h-2.194l.027.643q0,.13-.116.13h-.554q-.116,0-.116-.13,0-.014.007-.205t.021-.437h-.267l-1.941.027q-.116,0-.116-.109V4.664q0-.1.116-.1l1.941.027h.267a6.617,6.617,0,0,0-.082-1.169q.355.014.8.068.137.021.137.137a.729.729,0,0,1-.055.185,2.633,2.633,0,0,0-.068.779h2.194a6.517,6.517,0,0,0-.082-1.155q.355.014.8.068.137.021.137.137a.638.638,0,0,1-.055.185,2.561,2.561,0,0,0-.068.766h.561l1.955-.027q.116,0,.116.1Zm12.332,3.11q0,.109-.116.109l-1.688-.027h-2.393l-1.682.027a.1.1,0,0,1-.109-.109l.027-1.244V5.368L303.933,4.1a.1.1,0,0,1,.109-.109l1.682.027h2.393l1.688-.027q.116,0,.116.109l-.027,1.265V7.036Zm-.827-.6V6.517h-4.354V7.679Zm0-1.818V4.705h-4.354V5.86Zm2.167,6.05a.1.1,0,0,1-.109.109l-1.859-.027v.95l.014,1.777a.969.969,0,0,1-.4.9,4.5,4.5,0,0,1-1.791.212q-.205,0-.246-.048a.576.576,0,0,1-.089-.246,1.955,1.955,0,0,0-.28-.6,12.378,12.378,0,0,0,1.292.075q.123,0,.205-.007a.441.441,0,0,0,.465-.506v-2.5H304.5l-1.941.027q-.116,0-.116-.109V11.35q0-.109.116-.109l1.941.027h3.965v-1.21h-3.821l-1.948.027a.1.1,0,0,1-.109-.109V9.415a.1.1,0,0,1,.109-.109l1.948.027h4.519l1.962-.027a.1.1,0,0,1,.109.109v.561a.1.1,0,0,1-.109.109l-1.832-.027v1.21l1.859-.027a.1.1,0,0,1,.109.109Zm-8.572-4.9a.206.206,0,0,1-.116.164,1.12,1.12,0,0,0-.335.424q-.26.472-.684,1.1V14.05l.027,1.832q0,.109-.116.109h-.656a.1.1,0,0,1-.109-.109l.027-1.832V11.486q0-.157.041-1.75a13.949,13.949,0,0,1-1.306,1.333.413.413,0,0,1-.219.123q-.068,0-.144-.171a1.038,1.038,0,0,0-.349-.472,11.428,11.428,0,0,0,2.83-3.445,3.115,3.115,0,0,0,.267-.7,5.93,5.93,0,0,1,.7.4Q302.688,6.913,302.688,7.009ZM302.572,4.1q0,.075-.13.15a1.313,1.313,0,0,0-.349.335,13.192,13.192,0,0,1-2.488,2.6.525.525,0,0,1-.212.109q-.068,0-.185-.2a1.509,1.509,0,0,0-.39-.424,8.48,8.48,0,0,0,2.55-2.529A2.916,2.916,0,0,0,301.7,3.5a5.019,5.019,0,0,1,.725.4Q302.572,4,302.572,4.1Zm3.568,9.953a.165.165,0,0,1,.041.089q0,.041-.109.116l-.376.267a.409.409,0,0,1-.164.089q-.041,0-.089-.068a7.318,7.318,0,0,0-1.347-1.531q-.055-.048-.055-.082t.123-.13l.369-.232a.23.23,0,0,1,.116-.055.142.142,0,0,1,.089.041A7.884,7.884,0,0,1,306.141,14.05Zm7.943-10.083h1.046q-.239,7.191-.239,8.668a2.136,2.136,0,0,0,.458,1.579,2.222,2.222,0,0,0,1.545.424,3.218,3.218,0,0,0,2.44-.943,5.471,5.471,0,0,0,1.217-2.673l.95.479q-.93,4.074-4.58,4.074a3.2,3.2,0,0,1-2.4-.718,3.1,3.1,0,0,1-.608-2.153q0-.766.062-3.753Q314.057,5.334,314.084,3.967Zm13.043,1.627q-.027-1.176-.027-1.853h1V5.553q1.7-.062,3.37-.267v.868q-1.531.185-3.356.253l.041,2.01q1.935-.089,3.247-.26v.868q-1.538.171-3.233.232.014.335.062,1.449.027.745.048,1.2A10.066,10.066,0,0,1,332,14.275l-.7.861a9.516,9.516,0,0,0-3.015-2.249v.15a2.184,2.184,0,0,1-2.475,2.468,3.271,3.271,0,0,1-2.017-.5,1.7,1.7,0,0,1-.6-1.436,1.679,1.679,0,0,1,.8-1.449,3.138,3.138,0,0,1,1.832-.5,8.4,8.4,0,0,1,1.47.1q-.048-.848-.1-2.427-1.825.048-3.644,0V8.451q1.7.055,3.63.014-.027-.383-.034-1.087-.014-.663-.027-.943-2.105.041-3.794-.027V5.566Q325.021,5.642,327.127,5.594Zm.171,7.055a5.407,5.407,0,0,0-1.374-.185q-1.832,0-1.832,1.107,0,1.066,1.654,1.066,1.552,0,1.552-1.866ZM1.825,28.967H2.871q-.239,7.191-.239,8.668a2.136,2.136,0,0,0,.458,1.579,2.222,2.222,0,0,0,1.545.424,3.218,3.218,0,0,0,2.44-.943,5.471,5.471,0,0,0,1.217-2.673l.95.479q-.93,4.074-4.58,4.074a3.2,3.2,0,0,1-2.4-.718A3.1,3.1,0,0,1,1.654,37.7q0-.766.062-3.753Q1.8,30.334,1.825,28.967ZM14.4,34.121q.021,1.162.171,3.247A9.291,9.291,0,0,1,17.7,39.255L17.083,40a7.983,7.983,0,0,0-2.454-1.736q.014.2.014.438a1.559,1.559,0,0,1-.656,1.347,2.251,2.251,0,0,1-1.347.383q-2.153,0-2.153-1.565a1.477,1.477,0,0,1,.69-1.244,2.651,2.651,0,0,1,1.606-.465,6.685,6.685,0,0,1,.882.055q-.178-2.461-.2-6.426H14.4q-.014.841-.014,2.536a28.509,28.509,0,0,0,2.885-.2v.827Q16.194,34.073,14.4,34.121Zm-.711,3.9a5.762,5.762,0,0,0-.964-.1,1.833,1.833,0,0,0-1.073.287.723.723,0,0,0-.355.608q0,.8,1.285.8,1.121,0,1.121-1.066Q13.706,38.209,13.692,38.024ZM20.74,28.7a32.631,32.631,0,0,0,4.86.827l-.239.95a42.05,42.05,0,0,1-4.888-.868ZM19.2,32.638a15.887,15.887,0,0,1,4.115-.718Q26,31.92,26,35.283a5.049,5.049,0,0,1-1.347,3.767,7.448,7.448,0,0,1-3.37,1.675l-.52-.848a6.683,6.683,0,0,0,3.206-1.613,4.374,4.374,0,0,0,.971-3.049q0-2.386-1.682-2.386a13.445,13.445,0,0,0-3.7.786Zm11.006,4.689a1.915,1.915,0,0,1,1.463.643,1.916,1.916,0,0,1-.144,2.748,1.936,1.936,0,0,1-1.319.5,1.9,1.9,0,0,1-1.463-.643,1.916,1.916,0,0,1,.144-2.748A1.936,1.936,0,0,1,30.208,37.327Zm0,.7a1.269,1.269,0,0,0-1.251,1.251,1.253,1.253,0,0,0,2.181.834,1.247,1.247,0,0,0-.93-2.085Zm7.444-4.758.479-.841a28.874,28.874,0,0,1,3.288,1.429l-.52.937A19.993,19.993,0,0,0,37.652,33.267Zm1.258-2.994.52-.827a20.246,20.246,0,0,1,3.192,1.524l-.561.923A17.538,17.538,0,0,0,38.91,30.272Zm7.335.923.971.547a14.6,14.6,0,0,1-1.148,3.151,9.741,9.741,0,0,1-1.47,2.235,10.073,10.073,0,0,1-5.558,2.994l-.574-.882a9.086,9.086,0,0,0,5.318-2.8A11.559,11.559,0,0,0,46.245,31.2Zm2.481-1.374h7.711q-.041,5.011-1.8,7.506a9.622,9.622,0,0,1-4.7,3.261l-.588-.841A8.527,8.527,0,0,0,53.895,36.5a10.554,10.554,0,0,0,1.367-5.742H48.727Zm12.353,4.088v6.651H60V28.816h1.08v4.061A21.8,21.8,0,0,1,66.411,35.1l-.533,1.012A17.7,17.7,0,0,0,61.079,33.909Zm16.639,3.5a.1.1,0,0,1-.109.109l-1.853-.027H72.529l-1.839.027a.1.1,0,0,1-.109-.109l.027-.978v-.889l-.027-.978a.1.1,0,0,1,.109-.109l1.839.027h3.227l1.853-.027a.1.1,0,0,1,.109.109l-.027.978v.889Zm-.854-.6V35.181H71.436v1.627ZM80.575,34a1.972,1.972,0,0,0-.362.5q-.116.212-.185.212a.712.712,0,0,1-.205-.068,15.147,15.147,0,0,1-3.589-2.16,9.005,9.005,0,0,1-2.153-2.652,11.885,11.885,0,0,1-2.406,2.851,15.832,15.832,0,0,1-3.206,2.037.774.774,0,0,1-.212.068q-.068,0-.2-.226a1.452,1.452,0,0,0-.362-.424,14.34,14.34,0,0,0,3.179-1.832,10.19,10.19,0,0,0-1.6-1.4q-.062-.041-.062-.068t.075-.109l.342-.308q.075-.075.109-.075a.15.15,0,0,1,.082.034A12.724,12.724,0,0,1,71.49,31.8a10.591,10.591,0,0,0,1.791-2.14H71.265l-1.442.027q-.123,0-.123-.109v-.547q0-.109.123-.109l1.442.027H73.2l1.135-.027q.109,0,.178.157a6.638,6.638,0,0,0,.52.957,8.083,8.083,0,0,0,.6.813,9.043,9.043,0,0,0,1.135-1.189,2.833,2.833,0,0,0,.335-.54,4.359,4.359,0,0,1,.69.431.236.236,0,0,1,.109.164q0,.089-.137.157a1.227,1.227,0,0,0-.437.349,14.324,14.324,0,0,1-1.2,1.148,12.552,12.552,0,0,0,1.046.882,14.739,14.739,0,0,0,1.347-1.306,3.344,3.344,0,0,0,.376-.54,5.306,5.306,0,0,1,.67.431q.13.109.13.164v.021a.252.252,0,0,1-.185.164,1.176,1.176,0,0,0-.417.308,14.732,14.732,0,0,1-1.312,1.162A14.409,14.409,0,0,0,80.575,34Zm-.335,6.433a.1.1,0,0,1-.109.109l-1.839-.027H70.034l-1.832.027q-.116,0-.116-.109v-.595q0-.109.116-.109l1.832.027h5.038q.362-.595.677-1.217a3.484,3.484,0,0,0,.267-.786,6.731,6.731,0,0,1,.813.321.172.172,0,0,1,.123.157q0,.068-.123.164a1.064,1.064,0,0,0-.287.383q-.5.848-.588.978h2.338l1.839-.027a.1.1,0,0,1,.109.109ZM76.31,33.349q0,.109-.1.109l-1.4-.027H73.363l-1.381.027q-.116,0-.116-.109V32.8q0-.109.116-.109l1.381.027h1.442l1.4-.027q.1,0,.1.109Zm-3.35,5.838a.336.336,0,0,1,.021.082q0,.048-.157.13l-.369.185a.6.6,0,0,1-.171.055q-.048,0-.082-.089a5.968,5.968,0,0,0-.67-1.326.188.188,0,0,1-.034-.075q0-.041.15-.109l.362-.164a.383.383,0,0,1,.144-.055q.034,0,.1.082A7.463,7.463,0,0,1,72.96,39.187Zm21.841.28a1.981,1.981,0,0,0-.41.52q-.1.185-.15.185a.434.434,0,0,1-.185-.109,9.069,9.069,0,0,1-3.117-4.806v.95q0,1.142.027,2.434.027.875.027,1.183a2.079,2.079,0,0,1-.075.649.727.727,0,0,1-.287.355,2.839,2.839,0,0,1-1.374.239.507.507,0,0,1-.267-.041.769.769,0,0,1-.082-.239,1.6,1.6,0,0,0-.28-.6,7.663,7.663,0,0,0,.909.055.852.852,0,0,0,.561-.123.567.567,0,0,0,.109-.41V37.771a18.139,18.139,0,0,1-2.229,1.586,1.4,1.4,0,0,0-.444.335.173.173,0,0,1-.144.1.172.172,0,0,1-.15-.082,6.218,6.218,0,0,1-.424-.684,5.5,5.5,0,0,0,.759-.342,17.616,17.616,0,0,0,2.632-1.818V33.937H89l-1.894.027A.1.1,0,0,1,87,33.854v-.561a.1.1,0,0,1,.109-.109L89,33.212H91.93l.1-1.347H89.674l-1.456.027a.1.1,0,0,1-.109-.109v-.547a.1.1,0,0,1,.109-.109l1.456.027h2.393l.1-1.265h-2.8l-1.552.027q-.116,0-.116-.109v-.561q0-.109.116-.109l1.552.027h1.976l1.559-.027a.109.109,0,0,1,.123.123q-.027.219-.048.526-.034.376-.041.438l-.219,2.987,1.736-.027q.123,0,.123.109v.561q0,.109-.123.109l-1.894-.027H91.021a11.891,11.891,0,0,0,.964,2.55,10.69,10.69,0,0,0,1.2-1.429,2.521,2.521,0,0,0,.308-.547,4.052,4.052,0,0,1,.608.417.323.323,0,0,1,.109.2q0,.068-.157.171a1.885,1.885,0,0,0-.417.4,10.3,10.3,0,0,1-1.306,1.388A7.945,7.945,0,0,0,94.8,39.467Zm-7.725-4.409q0,.109-.116.109L85.5,35.14h-.321v3.869a17.041,17.041,0,0,0,1.682-.649,2.2,2.2,0,0,0-.068.52.411.411,0,0,1-.062.273.57.57,0,0,1-.205.1q-1.429.554-3.322,1.094a1.753,1.753,0,0,0-.52.212.333.333,0,0,1-.185.082.153.153,0,0,1-.164-.109q-.1-.246-.267-.772a8.4,8.4,0,0,0,1.066-.178q.978-.239,1.271-.328V35.14h-.547l-1.456.027a.1.1,0,0,1-.109-.109v-.533a.1.1,0,0,1,.109-.109l1.456.027h.547V32.918h-.1l-1.189.027q-.116,0-.116-.13v-.5a.1.1,0,0,1,.116-.116l1.189.027h1.08L86.57,32.2q.109,0,.109.116v.5q0,.13-.109.13l-1.176-.027h-.212v1.524H85.5l1.456-.027q.116,0,.116.109Zm.232-3.985a1,1,0,0,0-.362.444q-.1.185-.144.185a1.16,1.16,0,0,1-.212-.144A10.816,10.816,0,0,1,84.957,29.7a12.423,12.423,0,0,1-2.468,2.789.546.546,0,0,1-.205.109q-.082,0-.144-.185a1.241,1.241,0,0,0-.321-.485,8.657,8.657,0,0,0,2.475-2.707,2.053,2.053,0,0,0,.3-.752,4.523,4.523,0,0,1,.807.226q.144.041.144.123a.216.216,0,0,1-.13.185l-.109.082A9.861,9.861,0,0,0,87.309,31.072ZM83.74,38.182q.007.055.007.068,0,.062-.15.123l-.335.144a.478.478,0,0,1-.137.034q-.062,0-.075-.1a10.431,10.431,0,0,0-.472-2.167.207.207,0,0,1-.021-.075q0-.055.171-.116l.294-.116a.559.559,0,0,1,.137-.034q.041,0,.075.075A11.889,11.889,0,0,1,83.74,38.182Zm3.37-2.017a.236.236,0,0,1-.109.164.979.979,0,0,0-.212.4q-.232.718-.451,1.23-.068.2-.123.2a.466.466,0,0,1-.15-.062,2.436,2.436,0,0,0-.437-.137,9.51,9.51,0,0,0,.547-1.654,2.009,2.009,0,0,0,.068-.526,6.211,6.211,0,0,1,.745.246Q87.11,36.09,87.11,36.165Zm2.215.123a.207.207,0,0,1,.021.075q0,.041-.123.137l-.28.226a.732.732,0,0,1-.164.1q-.034,0-.082-.1a6.081,6.081,0,0,0-1.053-1.668.112.112,0,0,1-.041-.068q0-.041.123-.13l.294-.191a.279.279,0,0,1,.123-.068q.041,0,.1.068A8.213,8.213,0,0,1,89.325,36.288Zm14.649-3.862q.021,2.769.123,4.689a7.23,7.23,0,0,1,2.468,1.832l-.677.841a6.685,6.685,0,0,0-1.791-1.634,2.112,2.112,0,0,1-.7,1.764,2.5,2.5,0,0,1-1.647.5q-2.42,0-2.42-1.9a1.583,1.583,0,0,1,.725-1.34,2.691,2.691,0,0,1,1.586-.451,6.841,6.841,0,0,1,1.483.15Q103.031,35,103,32.467q-1.907.062-3.821.041v-.882q1.7.055,3.808-.014V29.035h1q-.014.841-.014,2.522.875-.048,2.249-.185v.882Q105.226,32.357,103.975,32.426Zm-.854,5.407a4.28,4.28,0,0,0-1.545-.28,1.734,1.734,0,0,0-.964.253.806.806,0,0,0-.4.711q0,1.053,1.511,1.053a1.26,1.26,0,0,0,1.114-.526,1.833,1.833,0,0,0,.287-1.073ZM98.3,29.165a41.313,41.313,0,0,0-.841,6.87,33.208,33.208,0,0,0,.335,4.341l-.978.089q-.321-3.117-.321-4.457a30.522,30.522,0,0,1,.287-3.685q.226-1.764.526-3.24ZM120.183,34.2q0,.116-.171.212a2.011,2.011,0,0,0-.5.465,11.817,11.817,0,0,1-1.812,1.736q-.144.123-.2.123a.871.871,0,0,1-.232-.157,2.794,2.794,0,0,0-.608-.335,8.584,8.584,0,0,0,1.989-1.736h-3.89V37.58l.014,1.914a1.242,1.242,0,0,1-.362,1.025,3.378,3.378,0,0,1-1.709.267h-.294q-.232,0-.273-.048a.64.64,0,0,1-.089-.246,2.856,2.856,0,0,0-.28-.69,14.115,14.115,0,0,0,1.456.089.739.739,0,0,0,.513-.13.585.585,0,0,0,.116-.417V34.511h-3.541l-1.866.027a.1.1,0,0,1-.109-.109v-.677a.1.1,0,0,1,.109-.109l1.866.027h4.4a14.829,14.829,0,0,0-2.953-2.126q-.075-.041-.075-.062a.6.6,0,0,1,.1-.15l.28-.321q.075-.082.116-.082a.148.148,0,0,1,.075.034,15.9,15.9,0,0,1,1.784,1.1,17.941,17.941,0,0,0,3.09-2.071h-5.5l-1.969.027q-.1,0-.1-.109v-.649q0-.109.1-.109l1.969.027h5.865a1.046,1.046,0,0,0,.342-.041,1.254,1.254,0,0,1,.191-.068q.13,0,.438.308t.308.465q0,.116-.2.191a1.606,1.606,0,0,0-.485.294,18.988,18.988,0,0,1-3.363,2.235q.253.205.841.731.048.041.048.062a.686.686,0,0,1-.123.13l-.191.185h3.637a.792.792,0,0,0,.355-.055.42.42,0,0,1,.164-.055,1.068,1.068,0,0,1,.451.267Q120.183,34.073,120.183,34.2Zm7.369,1.306a.268.268,0,0,1,.021.089q0,.075-.178.13l-.321.1a.579.579,0,0,1-.137.027q-.062,0-.082-.089-.205-.629-.267-.807l-1.347.137v3.753l.027,2.044q0,.1-.109.1h-.636q-.109,0-.109-.1l.027-2.044V35.167l-1.538.116a1.534,1.534,0,0,0-.533.109.422.422,0,0,1-.157.055q-.089,0-.137-.178-.055-.212-.144-.772.444.041.882.041h.171q.5-.649,1.053-1.456a19.586,19.586,0,0,0-2.064-2.153.146.146,0,0,1-.062-.1q0-.041.109-.157l.239-.294q.089-.1.13-.1t.089.062l.533.52q.52-.807.923-1.586a3.59,3.59,0,0,0,.369-.95q.376.15.779.349.157.075.157.185,0,.075-.123.15a.821.821,0,0,0-.239.294q-.738,1.224-1.347,2.085.479.479.937,1.025.52-.834.909-1.5a6.472,6.472,0,0,0,.561-1.189,5.8,5.8,0,0,1,.772.39.209.209,0,0,1,.123.171q0,.089-.137.178a2.63,2.63,0,0,0-.492.615q-1.155,1.846-2.338,3.418,1.354-.075,2.468-.164a10.8,10.8,0,0,0-.547-1.08.168.168,0,0,1-.027-.075q0-.055.164-.123l.253-.1a.369.369,0,0,1,.15-.048q.055,0,.1.075A14.108,14.108,0,0,1,127.552,35.509Zm6.31-4.58q-.027.355-.027,1.066a45.94,45.94,0,0,1-.451,6.788,3.462,3.462,0,0,1-.608,1.634,1.439,1.439,0,0,1-1.142.479,10.86,10.86,0,0,1-1.3-.068.457.457,0,0,1-.267-.075.769.769,0,0,1-.082-.26,2.124,2.124,0,0,0-.226-.629,12.16,12.16,0,0,0,1.818.191.759.759,0,0,0,.69-.506,4.283,4.283,0,0,0,.294-1.073,44.315,44.315,0,0,0,.39-6.87h-4.088a11.224,11.224,0,0,1-1.176,1.818q-.116.157-.2.157t-.205-.144a1.731,1.731,0,0,0-.451-.335,10.017,10.017,0,0,0,2.03-3.568,5.634,5.634,0,0,0,.267-1.237,6.023,6.023,0,0,1,.868.226q.2.068.2.171a.392.392,0,0,1-.123.246,1.736,1.736,0,0,0-.355.677q-.144.451-.479,1.217h2.987l1.511-.027A.109.109,0,0,1,133.861,30.929Zm-2.9,5.558a.221.221,0,0,1,.034.089q0,.055-.144.137l-.39.219a.535.535,0,0,1-.185.089q-.041,0-.082-.082a11.6,11.6,0,0,0-1.7-2.68.131.131,0,0,1-.048-.082q0-.048.144-.137l.349-.212a.282.282,0,0,1,.13-.062q.034,0,.082.062A11.163,11.163,0,0,1,130.963,36.486Zm-7.349-.014a.658.658,0,0,1-.068.164,1.3,1.3,0,0,0-.1.41,11.775,11.775,0,0,1-.684,2.728q-.055.2-.123.2a.525.525,0,0,1-.212-.109,1.1,1.1,0,0,0-.479-.212,10.723,10.723,0,0,0,.759-2.762,2.92,2.92,0,0,0,.034-.437q0-.089-.007-.232a5.67,5.67,0,0,1,.684.109Q123.614,36.37,123.614,36.473Zm3.9,2.475a.225.225,0,0,1,.007.055q0,.1-.171.157l-.335.1a.612.612,0,0,1-.157.034q-.055,0-.082-.1a14.687,14.687,0,0,0-.731-2.687.262.262,0,0,1-.021-.082q0-.075.164-.116l.294-.082a.561.561,0,0,1,.116-.021q.068,0,.123.1A13.74,13.74,0,0,1,127.518,38.947Zm20.521-2.529a.1.1,0,0,1-.109.109l-1.866-.027H142.68l-1.894.027a.1.1,0,0,1-.109-.109l.027-1.374V33.157a9.2,9.2,0,0,1-.643.745q-.157.15-.2.15t-.178-.157a1.2,1.2,0,0,0-.342-.294,6.73,6.73,0,0,0,1.6-2.03,2.978,2.978,0,0,0,.253-.711,4.378,4.378,0,0,1,.636.191q.171.062.171.157,0,.068-.123.15a.775.775,0,0,0-.212.267q-.089.178-.137.253h2.352l.253-.431a1.814,1.814,0,0,0,.178-.547q.362.075.69.178.137.041.137.13,0,.062-.1.137a.729.729,0,0,0-.2.212l-.212.321h1.333l1.736-.027a.1.1,0,0,1,.109.109v.41a.1.1,0,0,1-.109.109l-1.736-.027h-1.36v.772h.772l1.846-.027q.13,0,.13.109v.369q0,.109-.13.109l-1.846-.027h-.772v.793h.772l1.846-.027q.13,0,.13.109V35q0,.109-.13.109l-1.846-.027h-.772v.827h1.456l1.866-.027a.1.1,0,0,1,.109.109Zm-4.156-.506v-.827h-2.447v.827Zm0-1.36v-.793h-2.447v.793Zm0-1.326v-.772h-2.447v.772Zm-3.89-4.19a.18.18,0,0,1-.109.171,2.223,2.223,0,0,0-.4.479,11.7,11.7,0,0,1-1.066,1.524,15.887,15.887,0,0,1,.916,5.961,6.4,6.4,0,0,1-.492,3.021,1.37,1.37,0,0,1-1.271.663q-.294,0-.8-.027-.164-.021-.2-.068a.768.768,0,0,1-.068-.226,1.6,1.6,0,0,0-.253-.615,9.142,9.142,0,0,0,1.2.1.841.841,0,0,0,.841-.574,6.717,6.717,0,0,0,.253-2.229q0-1.429-.1-2.461a9.66,9.66,0,0,1-2.119,2.632.4.4,0,0,1-.178.109q-.055,0-.157-.178a1.512,1.512,0,0,0-.321-.437,10.024,10.024,0,0,0,2.646-3.206,9.747,9.747,0,0,0-.479-1.846,11.189,11.189,0,0,1-1.456,1.189.488.488,0,0,1-.205.109q-.082,0-.2-.2a1.271,1.271,0,0,0-.321-.376,11.628,11.628,0,0,0,1.846-1.5,10.392,10.392,0,0,0-.725-1.217q-.137-.2-.4-.506a.2.2,0,0,1-.055-.1q0-.041.144-.116l.39-.212a.234.234,0,0,1,.109-.041q.062,0,.144.109a11.064,11.064,0,0,1,.937,1.47,8.148,8.148,0,0,0,.868-1.3,3.306,3.306,0,0,0,.267-.677,4.239,4.239,0,0,1,.69.41A.236.236,0,0,1,139.993,29.035ZM148.627,40.2a2.1,2.1,0,0,0-.349.506q-.1.232-.205.232a1.116,1.116,0,0,1-.157-.021,12.323,12.323,0,0,1-3.876-1.094,14.29,14.29,0,0,1-3.937,1.148,1.456,1.456,0,0,1-.15.014q-.109,0-.226-.226a1.76,1.76,0,0,0-.349-.451,15.39,15.39,0,0,0,3.89-.923,6.9,6.9,0,0,1-1.723-1.538q-.533.007-.943.021l-.287.007q-.109,0-.109-.123V37.3a.1.1,0,0,1,.109-.109l1.791.027h3.739a.543.543,0,0,0,.294-.055.442.442,0,0,1,.164-.027q.157,0,.424.267.226.219.226.321t-.171.178a5.006,5.006,0,0,0-.485.41,10.957,10.957,0,0,1-1.477,1.073A13.332,13.332,0,0,0,148.627,40.2Zm-2.837-2.352h-3.35a6.016,6.016,0,0,0,1.613,1.2A7.336,7.336,0,0,0,145.79,37.847Zm2.659-7.677q0,.109-.116.109l-1.955-.027h-.561l.027.656q0,.13-.109.13h-.561q-.116,0-.116-.13s0-.073.007-.205.016-.292.021-.451h-2.194l.027.643q0,.13-.116.13h-.554q-.116,0-.116-.13,0-.014.007-.205t.021-.437h-.267l-1.941.027q-.116,0-.116-.109v-.506q0-.1.116-.1l1.941.027h.267a6.617,6.617,0,0,0-.082-1.169q.355.014.8.068.137.021.137.137a.729.729,0,0,1-.055.185,2.633,2.633,0,0,0-.068.779h2.194A6.517,6.517,0,0,0,145,28.44q.355.014.8.068.137.021.137.137a.639.639,0,0,1-.055.185,2.561,2.561,0,0,0-.068.766h.561l1.955-.027q.116,0,.116.1Zm12.332,3.11q0,.109-.116.109l-1.688-.027h-2.393l-1.682.027a.1.1,0,0,1-.109-.109l.027-1.244V30.368l-.027-1.265a.1.1,0,0,1,.109-.109l1.682.027h2.393l1.688-.027q.116,0,.116.109l-.027,1.265v1.668Zm-.827-.6V31.517H155.6v1.162Zm0-1.818V29.705H155.6V30.86Zm2.167,6.05a.1.1,0,0,1-.109.109l-1.859-.027v.95l.014,1.777a.969.969,0,0,1-.4.9,4.5,4.5,0,0,1-1.791.212q-.205,0-.246-.048a.576.576,0,0,1-.089-.246,1.956,1.956,0,0,0-.28-.6,12.378,12.378,0,0,0,1.292.075q.123,0,.205-.007a.441.441,0,0,0,.465-.506v-2.5H155.36l-1.941.027q-.116,0-.116-.109V36.35q0-.109.116-.109l1.941.027h3.965v-1.21H155.5l-1.948.027a.1.1,0,0,1-.109-.109v-.561a.1.1,0,0,1,.109-.109l1.948.027h4.519l1.962-.027a.1.1,0,0,1,.109.109v.561a.1.1,0,0,1-.109.109l-1.832-.027v1.21l1.859-.027a.1.1,0,0,1,.109.109Zm-8.572-4.9a.206.206,0,0,1-.116.164,1.12,1.12,0,0,0-.335.424q-.26.472-.684,1.1V39.05l.027,1.832q0,.109-.116.109h-.656a.1.1,0,0,1-.109-.109l.027-1.832V36.486q0-.157.041-1.75a13.951,13.951,0,0,1-1.306,1.333.413.413,0,0,1-.219.123q-.068,0-.144-.171a1.038,1.038,0,0,0-.349-.472,11.428,11.428,0,0,0,2.83-3.445,3.114,3.114,0,0,0,.267-.7,5.927,5.927,0,0,1,.7.4Q153.549,31.913,153.549,32.009Zm-.116-2.912q0,.075-.13.15a1.313,1.313,0,0,0-.349.335,13.192,13.192,0,0,1-2.488,2.6.525.525,0,0,1-.212.109q-.068,0-.185-.2a1.508,1.508,0,0,0-.39-.424,8.48,8.48,0,0,0,2.55-2.529,2.915,2.915,0,0,0,.335-.643,5.019,5.019,0,0,1,.725.4Q153.433,29,153.433,29.1ZM157,39.05a.165.165,0,0,1,.041.089q0,.041-.109.116l-.376.267a.409.409,0,0,1-.164.089q-.041,0-.089-.068a7.317,7.317,0,0,0-1.347-1.531q-.055-.048-.055-.082t.123-.13l.369-.232a.23.23,0,0,1,.116-.055.142.142,0,0,1,.089.041A7.885,7.885,0,0,1,157,39.05Zm12.517-8.2a22.039,22.039,0,0,1-1.483,7.362,2.1,2.1,0,0,1-1.894,1.483,1.749,1.749,0,0,1-1.606-1.06A6,6,0,0,1,164,35.844a7.335,7.335,0,0,1,.458-2.618A5.114,5.114,0,0,1,165.5,31.5a4.675,4.675,0,0,1,1.716-1.128,5.426,5.426,0,0,1,1.969-.369,4.139,4.139,0,0,1,3.555,1.5,6.371,6.371,0,0,1,.964,3.808,5.114,5.114,0,0,1-1.121,3.4,5.6,5.6,0,0,1-3.274,1.784l-.485-.841a4.243,4.243,0,0,0,3.835-4.607,4.67,4.67,0,0,0-1.032-3.3A2.809,2.809,0,0,0,169.518,30.847Zm-1.053.109a3.075,3.075,0,0,0-1.292.4,4.459,4.459,0,0,0-1.06.93,5.252,5.252,0,0,0-1.148,3.582,4.6,4.6,0,0,0,.41,2.126q.328.615.752.615a.82.82,0,0,0,.622-.26,2.544,2.544,0,0,0,.444-.759A19.819,19.819,0,0,0,168.465,30.956Zm19.011,4.867q-.021.226-.048.567-.034.41-.048.567a10.99,10.99,0,0,1-.629,3.281,1.194,1.194,0,0,1-1.176.67q-.533,0-1-.041-.185-.021-.219-.068a.594.594,0,0,1-.075-.226,2.021,2.021,0,0,0-.239-.643,7.354,7.354,0,0,0,1.306.137.993.993,0,0,0,.485-.082.637.637,0,0,0,.253-.383,11.232,11.232,0,0,0,.465-3.165H177.96a15.125,15.125,0,0,1-1.976,1.729.87.87,0,0,1-.2.1q-.068,0-.2-.171a1.67,1.67,0,0,0-.417-.437,13.067,13.067,0,0,0,3.179-2.892,13.779,13.779,0,0,0,1.859-3.083h-2.044l-1.955.027q-.116,0-.116-.109v-.561q0-.109.116-.109l1.955.027H180.5q.109-.287.321-1.025a6.81,6.81,0,0,0,.267-1.5q.526.068.909.157.2.048.2.164a.441.441,0,0,1-.144.267,4.417,4.417,0,0,0-.349.957q-.13.431-.321.978h1.709l1.989-.027q.13,0,.13.1a.076.076,0,0,1-.007.034l-.15.882q-.068.355-.28,1.374l1.148-.027q.123,0,.123.109l-.15.841q-.1.656-.28,1.47l1.736-.027q.13,0,.13.1A.076.076,0,0,1,187.476,35.823Zm-2.365-1.777h-5.264a14.728,14.728,0,0,1-1.23,1.668h6.159Q184.974,34.941,185.11,34.046Zm-.841-2.365h-3.179a13.6,13.6,0,0,1-.807,1.641h3.664A14.661,14.661,0,0,0,184.27,31.681ZM178.842,37.7a8.757,8.757,0,0,1-1.5,2.974.114.114,0,0,1-.089.055.248.248,0,0,1-.13-.062L176.7,40.4q-.109-.075-.109-.116a.137.137,0,0,1,.041-.075,6.71,6.71,0,0,0,1.483-2.789q.021-.075.062-.075a1.345,1.345,0,0,1,.178.048l.376.13q.13.034.13.1A.377.377,0,0,1,178.842,37.7Zm2.085,2.283v.041q0,.082-.185.13l-.417.1a.474.474,0,0,1-.109.021q-.075,0-.089-.13a13.472,13.472,0,0,0-.376-2.563.294.294,0,0,1-.007-.055q0-.068.171-.1l.335-.068a1.07,1.07,0,0,1,.137-.021q.055,0,.075.089A14.144,14.144,0,0,1,180.927,39.986Zm2.3-.643a.294.294,0,0,1,.007.055q0,.055-.15.109l-.39.144a.5.5,0,0,1-.13.027q-.055,0-.082-.1a11.163,11.163,0,0,0-.725-2.194.157.157,0,0,1-.021-.062q0-.048.144-.1l.349-.109a.325.325,0,0,1,.089-.021q.041,0,.082.075A10.994,10.994,0,0,1,183.224,39.344Zm-3.685-9.215a.157.157,0,0,1,.021.062q0,.041-.116.109l-.451.239a.48.48,0,0,1-.137.055q-.041,0-.089-.1a6.188,6.188,0,0,0-.909-1.47.119.119,0,0,1-.034-.068q0-.041.137-.109l.39-.2a.332.332,0,0,1,.123-.048.133.133,0,0,1,.089.048A6.492,6.492,0,0,1,179.539,30.129Zm5.783,8.388a.161.161,0,0,1,.021.068q0,.062-.123.116l-.335.15a.481.481,0,0,1-.157.055q-.048,0-.082-.082a7.106,7.106,0,0,0-.923-1.613.133.133,0,0,1-.027-.068q0-.048.144-.109l.294-.144a.262.262,0,0,1,.1-.034q.041,0,.089.062A7.308,7.308,0,0,1,185.322,38.517Zm7.574-2.085.957.082a5.458,5.458,0,0,0-.157,1.258,1.054,1.054,0,0,0,.444.978,3.167,3.167,0,0,0,1.545.273,25.984,25.984,0,0,0,2.769-.144l.027,1.012q-1.025.082-2.659.082a4.349,4.349,0,0,1-2.44-.492,1.783,1.783,0,0,1-.636-1.552A7.219,7.219,0,0,1,192.9,36.432Zm.28-4.676V30.8q1.75-.137,3.541-.137.889,0,1.668.041v.95q-.725-.055-1.764-.055Q194.831,31.6,193.177,31.756Zm-1.511-2.413a36.343,36.343,0,0,0-.786,6.61,24.83,24.83,0,0,0,.342,4.382l-1,.082a28.85,28.85,0,0,1-.321-4.491,40.269,40.269,0,0,1,.772-6.665Zm13.727,7.93q.9,1.3,1.682,2.687l-.923.588a27.864,27.864,0,0,0-4.648-6.453l.8-.588a26.844,26.844,0,0,1,2.461,2.885,22.9,22.9,0,0,0,2.994-5.715h-7.4v-.937h8.47l.362.485A31.43,31.43,0,0,1,205.393,37.272ZM216.2,35.994a12.594,12.594,0,0,1-5,4.423l-.615-.807a12.291,12.291,0,0,0,4.573-3.931,14.161,14.161,0,0,0,2.051-5.045h-5.879V29.7h7.26a18.785,18.785,0,0,1-1.846,5.359,31.446,31.446,0,0,1,3.261,4.7l-1.032.656A25.126,25.126,0,0,0,216.2,35.994Zm8.039-2.085v6.651h-1.08V28.816h1.08v4.061a21.8,21.8,0,0,1,5.332,2.222l-.533,1.012A17.7,17.7,0,0,0,224.239,33.909Zm13.768-1.066.718-.273a18.274,18.274,0,0,1,1.032,2.365l-.752.308A15.122,15.122,0,0,0,238.007,32.843Zm1.586-.472.7-.253a11.566,11.566,0,0,1,1,2.3l-.731.294A13.487,13.487,0,0,0,239.593,32.371Zm.39-2.632.027.964a5.312,5.312,0,0,0-2.311.629,5.934,5.934,0,0,0-2.071,1.962,4.817,4.817,0,0,0-.813,2.659,2.958,2.958,0,0,0,1.285,2.529,6.17,6.17,0,0,0,2.933,1l-.239,1a6.1,6.1,0,0,1-3.63-1.381,3.89,3.89,0,0,1-1.312-3.049,5.709,5.709,0,0,1,2.994-5.024l.759-.335-.014-.027-.656.109q-1.189.068-5.66.479l-.082-.923Q233.194,30.177,239.982,29.739ZM248.76,31.5q-.041,1.518,0,3.035a5.324,5.324,0,0,1,.308,1.777,3.687,3.687,0,0,1-1.306,3.069,7.744,7.744,0,0,1-3.274,1.271l-.588-.841a6.334,6.334,0,0,0,3.411-1.381,2.741,2.741,0,0,0,.807-1.88,1.856,1.856,0,0,1-1.8.882,2.2,2.2,0,0,1-1.531-.574,2.3,2.3,0,0,1,.123-3.356,2.469,2.469,0,0,1,1.559-.492,2,2,0,0,1,1.36.39q-.027-1.312-.027-1.873-2.249.034-5.435.239l-.014-.9q2.584-.1,5.435-.171V28.8l1,.014q0,.629-.027,1.859,2.324-.027,3.363-.027v.9Q250.441,31.5,248.76,31.5Zm-2.338,2.3a1.322,1.322,0,0,0-.984.4,1.413,1.413,0,0,0-.39,1.046,1.237,1.237,0,0,0,.444,1,1.288,1.288,0,0,0,.848.294,1.406,1.406,0,0,0,1.1-.41,1.3,1.3,0,0,0,.314-.916Q247.755,33.8,246.422,33.8Zm14.246-4.635-.321,7.978h-.9l-.267-7.978Zm.014,9.577v1.5h-1.524v-1.5Zm7.772-3,.909.28a3.153,3.153,0,0,0-.533,1.825q0,1.593,2.871,1.593a31.8,31.8,0,0,0,3.555-.2l.014,1.053q-1.641.109-3.582.109a5.244,5.244,0,0,1-2.871-.622,2.206,2.206,0,0,1-.95-1.962A3.852,3.852,0,0,1,268.454,35.741Zm.185-5.92q.868.041,2.5.041,1.668,0,3.63-.15l.164.95a20.6,20.6,0,0,0-3.623,2.242l-.629-.7q.3-.212,2.406-1.524a18.643,18.643,0,0,1-2.256.109q-.855,0-2.194-.055Zm12.51.772q-.027-1.176-.027-1.853h1v1.812q1.7-.062,3.37-.267v.868q-1.531.185-3.356.253l.041,2.01q1.935-.089,3.247-.26v.868q-1.538.171-3.233.232.014.335.062,1.449.027.745.048,1.2a10.066,10.066,0,0,1,3.726,2.372l-.7.861a9.516,9.516,0,0,0-3.015-2.249v.15a2.184,2.184,0,0,1-2.475,2.468,3.271,3.271,0,0,1-2.017-.5,1.7,1.7,0,0,1-.6-1.436,1.679,1.679,0,0,1,.8-1.449,3.138,3.138,0,0,1,1.832-.5,8.4,8.4,0,0,1,1.47.1q-.048-.848-.1-2.427-1.825.048-3.644,0v-.848q1.7.055,3.63.014-.027-.383-.034-1.087-.014-.663-.027-.943-2.105.041-3.794-.027v-.841Q279.043,30.642,281.148,30.594Zm.171,7.055a5.407,5.407,0,0,0-1.374-.185q-1.832,0-1.832,1.107,0,1.066,1.654,1.066,1.552,0,1.552-1.866Zm8.62-5.394a5.788,5.788,0,0,1,3.028-.834q.2-.923.335-2.105l1,.116q-.178,1.114-.362,2.044a3.423,3.423,0,0,1,2.454,1.531,5.366,5.366,0,0,1,.738,2.96q0,3.794-4.286,4.607l-.431-.854a4.484,4.484,0,0,0,2.939-1.5,3.428,3.428,0,0,0,.772-2.242,4.633,4.633,0,0,0-.69-2.68,2.214,2.214,0,0,0-1.7-1.012,17.708,17.708,0,0,1-2.29,6.07,2.779,2.779,0,0,1-2.16,1.429,1.5,1.5,0,0,1-1.306-.711,3.913,3.913,0,0,1-.5-2.174,5.261,5.261,0,0,1,1.668-4.061q-.308-1.217-.561-2.892l.923-.13Q289.7,31.1,289.939,32.255Zm1.518,4.231a23.406,23.406,0,0,0,1.313-4.231,4.672,4.672,0,0,0-2.618.882A14.478,14.478,0,0,0,291.457,36.486Zm-.533.991a18.528,18.528,0,0,1-1.511-3.637,4.433,4.433,0,0,0-1.012,2.953,3.369,3.369,0,0,0,.308,1.634.663.663,0,0,0,.561.383Q290.11,38.811,290.924,37.478Zm11.464-1.046.957.082a5.457,5.457,0,0,0-.157,1.258,1.054,1.054,0,0,0,.444.978,3.167,3.167,0,0,0,1.545.273,25.984,25.984,0,0,0,2.769-.144l.027,1.012q-1.025.082-2.659.082a4.349,4.349,0,0,1-2.44-.492,1.783,1.783,0,0,1-.636-1.552A7.22,7.22,0,0,1,302.388,36.432Zm.28-4.676V30.8q1.75-.137,3.541-.137.889,0,1.668.041v.95q-.725-.055-1.764-.055Q304.322,31.6,302.668,31.756Zm-1.511-2.413a36.344,36.344,0,0,0-.786,6.61,24.828,24.828,0,0,0,.342,4.382l-1,.082a28.848,28.848,0,0,1-.321-4.491,40.267,40.267,0,0,1,.772-6.665Zm18.361,8.066a.1.1,0,0,1-.109.109l-1.853-.027H314.33l-1.839.027a.1.1,0,0,1-.109-.109l.027-.978v-.889l-.027-.978a.1.1,0,0,1,.109-.109l1.839.027h3.227l1.853-.027a.1.1,0,0,1,.109.109l-.027.978v.889Zm-.854-.6V35.181h-5.428v1.627Zm3.712-2.8a1.972,1.972,0,0,0-.362.5q-.116.212-.185.212a.712.712,0,0,1-.205-.068,15.147,15.147,0,0,1-3.589-2.16,9.005,9.005,0,0,1-2.153-2.652,11.885,11.885,0,0,1-2.406,2.851,15.832,15.832,0,0,1-3.206,2.037.775.775,0,0,1-.212.068q-.068,0-.2-.226a1.452,1.452,0,0,0-.362-.424,14.341,14.341,0,0,0,3.179-1.832,10.191,10.191,0,0,0-1.6-1.4q-.062-.041-.062-.068t.075-.109l.342-.308q.075-.075.109-.075a.15.15,0,0,1,.082.034,12.724,12.724,0,0,1,1.668,1.422,10.591,10.591,0,0,0,1.791-2.14h-2.017l-1.442.027q-.123,0-.123-.109v-.547q0-.109.123-.109l1.442.027H315l1.135-.027q.109,0,.178.157a6.639,6.639,0,0,0,.52.957,8.083,8.083,0,0,0,.6.813,9.043,9.043,0,0,0,1.135-1.189,2.833,2.833,0,0,0,.335-.54,4.359,4.359,0,0,1,.69.431.236.236,0,0,1,.109.164q0,.089-.137.157a1.227,1.227,0,0,0-.437.349,14.325,14.325,0,0,1-1.2,1.148,12.554,12.554,0,0,0,1.046.882,14.739,14.739,0,0,0,1.347-1.306,3.344,3.344,0,0,0,.376-.54,5.306,5.306,0,0,1,.67.431q.13.109.13.164v.021a.252.252,0,0,1-.185.164,1.176,1.176,0,0,0-.417.308,14.734,14.734,0,0,1-1.312,1.162A14.409,14.409,0,0,0,322.376,34Zm-.335,6.433a.1.1,0,0,1-.109.109l-1.839-.027h-8.258L310,40.547q-.116,0-.116-.109v-.595q0-.109.116-.109l1.832.027h5.038q.362-.595.677-1.217a3.485,3.485,0,0,0,.267-.786,6.731,6.731,0,0,1,.813.321.172.172,0,0,1,.123.157q0,.068-.123.164a1.064,1.064,0,0,0-.287.383q-.5.848-.588.978h2.338l1.839-.027a.1.1,0,0,1,.109.109Zm-3.931-7.089q0,.109-.1.109l-1.4-.027h-1.442l-1.381.027q-.116,0-.116-.109V32.8q0-.109.116-.109l1.381.027h1.442l1.4-.027q.1,0,.1.109Zm-3.35,5.838a.336.336,0,0,1,.021.082q0,.048-.157.13l-.369.185a.6.6,0,0,1-.171.055q-.048,0-.082-.089a5.967,5.967,0,0,0-.67-1.326.188.188,0,0,1-.034-.075q0-.041.15-.109l.362-.164a.383.383,0,0,1,.144-.055q.034,0,.1.082A7.463,7.463,0,0,1,314.761,39.187ZM13.651,64.467a1.981,1.981,0,0,0-.41.52q-.1.185-.15.185a.434.434,0,0,1-.185-.109,9.069,9.069,0,0,1-3.117-4.806v.95q0,1.142.027,2.434.027.875.027,1.183a2.079,2.079,0,0,1-.075.649.727.727,0,0,1-.287.355,2.839,2.839,0,0,1-1.374.239.507.507,0,0,1-.267-.041.769.769,0,0,1-.082-.239,1.6,1.6,0,0,0-.28-.6,7.662,7.662,0,0,0,.909.055.852.852,0,0,0,.561-.123.567.567,0,0,0,.109-.41V62.771a18.139,18.139,0,0,1-2.229,1.586,1.4,1.4,0,0,0-.444.335.173.173,0,0,1-.144.1.172.172,0,0,1-.15-.082,6.217,6.217,0,0,1-.424-.684,5.5,5.5,0,0,0,.759-.342,17.616,17.616,0,0,0,2.632-1.818V58.937h-1.2l-1.894.027a.1.1,0,0,1-.109-.109v-.561a.1.1,0,0,1,.109-.109l1.894.027H10.78l.1-1.347H8.524l-1.456.027a.1.1,0,0,1-.109-.109v-.547a.1.1,0,0,1,.109-.109l1.456.027h2.393l.1-1.265h-2.8l-1.552.027q-.116,0-.116-.109v-.561q0-.109.116-.109l1.552.027h1.976l1.559-.027a.109.109,0,0,1,.123.123q-.027.219-.048.526-.034.376-.041.438l-.219,2.987,1.736-.027q.123,0,.123.109v.561q0,.109-.123.109l-1.894-.027H9.871a11.891,11.891,0,0,0,.964,2.55,10.69,10.69,0,0,0,1.2-1.429,2.521,2.521,0,0,0,.308-.547,4.052,4.052,0,0,1,.608.417.323.323,0,0,1,.109.2q0,.068-.157.171a1.885,1.885,0,0,0-.417.4,10.3,10.3,0,0,1-1.306,1.388A7.945,7.945,0,0,0,13.651,64.467ZM5.927,60.058q0,.109-.116.109L4.354,60.14H4.033v3.869a17.041,17.041,0,0,0,1.682-.649,2.2,2.2,0,0,0-.068.52.411.411,0,0,1-.062.273.57.57,0,0,1-.205.1q-1.429.554-3.322,1.094a1.752,1.752,0,0,0-.52.212.333.333,0,0,1-.185.082.153.153,0,0,1-.164-.109q-.1-.246-.267-.772a8.4,8.4,0,0,0,1.066-.178q.978-.239,1.271-.328V60.14H2.714l-1.456.027a.1.1,0,0,1-.109-.109v-.533a.1.1,0,0,1,.109-.109l1.456.027h.547V57.918h-.1l-1.189.027q-.116,0-.116-.13v-.5a.1.1,0,0,1,.116-.116l1.189.027h1.08L5.421,57.2q.109,0,.109.116v.5q0,.13-.109.13l-1.176-.027H4.033v1.524h.321l1.456-.027q.116,0,.116.109Zm.232-3.985a1,1,0,0,0-.362.444q-.1.185-.144.185a1.16,1.16,0,0,1-.212-.144A10.816,10.816,0,0,1,3.808,54.7,12.423,12.423,0,0,1,1.34,57.487a.546.546,0,0,1-.205.109q-.082,0-.144-.185a1.241,1.241,0,0,0-.321-.485A8.657,8.657,0,0,0,3.145,54.22a2.053,2.053,0,0,0,.3-.752,4.523,4.523,0,0,1,.807.226q.144.041.144.123a.216.216,0,0,1-.13.185l-.109.082A9.861,9.861,0,0,0,6.159,56.072ZM2.591,63.182q.007.055.007.068,0,.062-.15.123l-.335.144a.478.478,0,0,1-.137.034q-.062,0-.075-.1a10.431,10.431,0,0,0-.472-2.167.207.207,0,0,1-.021-.075q0-.055.171-.116l.294-.116a.559.559,0,0,1,.137-.034q.041,0,.075.075A11.889,11.889,0,0,1,2.591,63.182Zm3.37-2.017a.236.236,0,0,1-.109.164.979.979,0,0,0-.212.4q-.232.718-.451,1.23-.068.2-.123.2a.466.466,0,0,1-.15-.062,2.436,2.436,0,0,0-.437-.137A9.51,9.51,0,0,0,5.024,61.3a2.009,2.009,0,0,0,.068-.526,6.211,6.211,0,0,1,.745.246Q5.961,61.09,5.961,61.165Zm2.215.123a.207.207,0,0,1,.021.075q0,.041-.123.137l-.28.226a.732.732,0,0,1-.164.1q-.034,0-.082-.1a6.081,6.081,0,0,0-1.053-1.668.112.112,0,0,1-.041-.068q0-.041.123-.13l.294-.191a.279.279,0,0,1,.123-.068q.041,0,.1.068A8.212,8.212,0,0,1,8.176,61.288Zm7.649-7.321h1.046q-.239,7.191-.239,8.668a2.136,2.136,0,0,0,.458,1.579,2.222,2.222,0,0,0,1.545.424,3.218,3.218,0,0,0,2.44-.943,5.471,5.471,0,0,0,1.217-2.673l.95.479q-.93,4.074-4.58,4.074a3.2,3.2,0,0,1-2.4-.718,3.1,3.1,0,0,1-.608-2.153q0-.766.062-3.753Q15.8,55.334,15.825,53.967Zm13.043,1.627q-.027-1.176-.027-1.853h1v1.812q1.7-.062,3.37-.267v.868q-1.531.185-3.356.253l.041,2.01q1.935-.089,3.247-.26v.868q-1.538.171-3.233.232.014.335.062,1.449.027.745.048,1.2a10.066,10.066,0,0,1,3.726,2.372l-.7.861a9.516,9.516,0,0,0-3.015-2.249v.15a2.184,2.184,0,0,1-2.475,2.468,3.271,3.271,0,0,1-2.017-.5,1.7,1.7,0,0,1-.6-1.436,1.679,1.679,0,0,1,.8-1.449,3.138,3.138,0,0,1,1.832-.5,8.4,8.4,0,0,1,1.47.1q-.048-.848-.1-2.427-1.825.048-3.644,0v-.848q1.7.055,3.63.014-.027-.383-.034-1.087-.014-.663-.027-.943-2.105.041-3.794-.027v-.841Q26.763,55.642,28.868,55.594Zm.171,7.055a5.407,5.407,0,0,0-1.374-.185q-1.832,0-1.832,1.107,0,1.066,1.654,1.066,1.552,0,1.552-1.866Zm7.116-8.682H37.2q-.239,7.191-.239,8.668a2.135,2.135,0,0,0,.458,1.579,2.222,2.222,0,0,0,1.545.424,3.218,3.218,0,0,0,2.44-.943,5.471,5.471,0,0,0,1.217-2.673l.95.479q-.93,4.074-4.58,4.074a3.2,3.2,0,0,1-2.4-.718,3.1,3.1,0,0,1-.608-2.153q0-.766.062-3.753Q36.128,55.334,36.155,53.967Zm12.578,5.154q.021,1.162.171,3.247a9.291,9.291,0,0,1,3.124,1.887L51.413,65a7.983,7.983,0,0,0-2.454-1.736q.014.2.014.438a1.559,1.559,0,0,1-.656,1.347,2.251,2.251,0,0,1-1.347.383q-2.153,0-2.153-1.565a1.477,1.477,0,0,1,.69-1.244,2.651,2.651,0,0,1,1.606-.465,6.685,6.685,0,0,1,.882.055q-.178-2.461-.2-6.426h.937q-.014.841-.014,2.536a28.509,28.509,0,0,0,2.885-.2v.827Q50.524,59.073,48.733,59.121Zm-.711,3.9a5.762,5.762,0,0,0-.964-.1,1.833,1.833,0,0,0-1.073.287.723.723,0,0,0-.355.608q0,.8,1.285.8,1.121,0,1.121-1.066Q48.036,63.209,48.022,63.024ZM55.07,53.7a32.631,32.631,0,0,0,4.86.827l-.239.95a42.05,42.05,0,0,1-4.888-.868Zm-1.538,3.938a15.887,15.887,0,0,1,4.115-.718q2.687,0,2.687,3.363a5.049,5.049,0,0,1-1.347,3.767,7.448,7.448,0,0,1-3.37,1.675l-.52-.848A6.683,6.683,0,0,0,58.3,63.264a4.374,4.374,0,0,0,.971-3.049q0-2.386-1.682-2.386a13.445,13.445,0,0,0-3.7.786Zm11.006,4.689A1.915,1.915,0,0,1,66,62.97a1.916,1.916,0,0,1-.144,2.748,1.936,1.936,0,0,1-1.319.5,1.9,1.9,0,0,1-1.463-.643,1.916,1.916,0,0,1,.144-2.748A1.936,1.936,0,0,1,64.538,62.327Zm0,.7a1.269,1.269,0,0,0-1.251,1.251,1.253,1.253,0,0,0,2.181.834,1.247,1.247,0,0,0-.93-2.085Z"
									transform="translate(-0.67 -2.709)" fill="#5a5858" />
							</svg>