	<svg xmlns="http://www.w3.org/2000/svg" width="328.316" height="113.494"
								viewBox="0 0 328.316 113.494">
								<path id="Контур_1771" data-name="Контур 1771"
									d="M3.555,6.093V3.83h.964V6.038q1.511-.1,2.591-.219v.909q-1.224.123-2.591.205V9.641a8.692,8.692,0,0,1,2.646-.479,2.9,2.9,0,0,1,2.577,1.169,3.273,3.273,0,0,1,.533,1.894,2.654,2.654,0,0,1-1.3,2.591,6.067,6.067,0,0,1-2.707.465v-.9a3.954,3.954,0,0,0,2.167-.444,2.048,2.048,0,0,0,.772-1.825,2.11,2.11,0,0,0-.6-1.524,1.724,1.724,0,0,0-1.285-.561,7.651,7.651,0,0,0-2.8.533v3.609a1.437,1.437,0,0,1-.273,1,1.054,1.054,0,0,1-.786.26,2.259,2.259,0,0,1-1.189-.376,2.427,2.427,0,0,1-1.347-2.03q0-1.736,2.632-3.049v-3q-.813.048-2.434.075v-.9Q2.434,6.154,3.555,6.093Zm0,4.9a5.118,5.118,0,0,0-1.306,1.019,1.511,1.511,0,0,0-.39.984,1.078,1.078,0,0,0,.335.759,1.888,1.888,0,0,0,.69.458.9.9,0,0,0,.39.1q.28,0,.28-.465Zm3.9-5.64.6-.731a12.831,12.831,0,0,1,2.816,2.229l-.684.772A11,11,0,0,0,7.458,5.354Zm17.295,6.009a2.1,2.1,0,0,0-.362.595q-.089.212-.171.212a1.477,1.477,0,0,1-.191-.027,21.157,21.157,0,0,1-5.6-1.887,14.8,14.8,0,0,1-3.514,1.511q.28.027,1.8.027h3.3l1.866-.027q.109,0,.109.1l-.027,1.08v1.176l.027,1.8q0,.1-.109.1h-.636q-.109,0-.109-.1v-.588h-5.53V15.9q0,.1-.109.1h-.636q-.109,0-.109-.1l.027-1.777V13.065l-.027-1.2v-.041q-.807.246-1.948.513a1.079,1.079,0,0,1-.205.041q-.089,0-.185-.205a1.49,1.49,0,0,0-.349-.513,19.32,19.32,0,0,0,5.612-1.839A10.515,10.515,0,0,1,15.8,8.308,12.49,12.49,0,0,1,13.583,9.8a1.188,1.188,0,0,1-.226.1q-.041,0-.15-.157a1.274,1.274,0,0,0-.424-.417A10.162,10.162,0,0,0,16.6,6.394a3.067,3.067,0,0,0,.369-.643,5.962,5.962,0,0,1,.731.232q.123.068.123.144t-.144.185a1.612,1.612,0,0,0-.294.308q-.185.239-.308.376h3.473a.782.782,0,0,0,.335-.055.317.317,0,0,1,.13-.041q.109,0,.39.28.239.253.239.376a.206.206,0,0,1-.144.2,1.379,1.379,0,0,0-.417.321,15.542,15.542,0,0,1-1.935,1.688A20.549,20.549,0,0,0,24.753,11.363ZM21.144,14.61V12.5h-5.53V14.61Zm-.711-6.945H16.481l-.171.185a10.306,10.306,0,0,0,2.105,1.524A12.59,12.59,0,0,0,20.433,7.665Zm3.5-.137a.1.1,0,0,1-.109.109h-.636a.1.1,0,0,1-.109-.109V5.56H13.487V7.528a.1.1,0,0,1-.109.109h-.636a.1.1,0,0,1-.109-.109l.027-1.449V5.642l-.027-.725a.1.1,0,0,1,.109-.109l1.935.027H17.76V4.288a3.786,3.786,0,0,0-.1-.95q.41.021.923.068.171.021.171.116a.846.846,0,0,1-.082.26,1.819,1.819,0,0,0-.068.547v.506h3.288l1.935-.027a.1.1,0,0,1,.109.109l-.027.629v.533Zm14.841,7.007a1.86,1.86,0,0,0-.451.479q-.089.171-.164.171a.433.433,0,0,1-.2-.1,10.65,10.65,0,0,1-2.331-2.01,8.641,8.641,0,0,1-1.278-2.112q.055,2.939.055,3.657a1.138,1.138,0,0,1-.362.991,2.854,2.854,0,0,1-1.415.239.548.548,0,0,1-.28-.041.547.547,0,0,1-.089-.239,1.561,1.561,0,0,0-.246-.588,8.256,8.256,0,0,0,.923.055.82.82,0,0,0,.554-.123.62.62,0,0,0,.1-.424V12.888q-1.244.807-2.769,1.62a1.943,1.943,0,0,0-.506.314q-.089.109-.157.109t-.123-.123q-.144-.253-.362-.745a4.57,4.57,0,0,0,.807-.294,26.732,26.732,0,0,0,3.11-1.7V10.03h-1.3l-1.935.027q-.1,0-.1-.109V9.4q0-.109.1-.109l1.935.027h1.3V8.062h-.8l-1.764.027q-.109,0-.109-.116V7.46q0-.116.109-.116l1.764.027h.8v-1.2H32.6l-1.88.027q-.109,0-.109-.1V5.546a.1.1,0,0,1,.109-.109l1.88.027h2.085a12.2,12.2,0,0,0,.752-1.429,2.654,2.654,0,0,0,.185-.588,5.368,5.368,0,0,1,.725.212q.171.048.171.15,0,.075-.137.185a.677.677,0,0,0-.2.267,12.632,12.632,0,0,1-.7,1.2h.465l1.846-.027q.13,0,.13.109V6.1q0,.1-.13.1l-1.846-.027H34.378v1.2h1.176l1.75-.027q.109,0,.109.116v.513q0,.116-.109.116l-1.75-.027H34.378V9.319h1.941l1.935-.027a.1.1,0,0,1,.109.109v.547a.1.1,0,0,1-.109.109l-1.935-.027h-1.8a9.615,9.615,0,0,0,1.189,2.03,11.044,11.044,0,0,0,1.121-1.053,1.977,1.977,0,0,0,.335-.485,4.885,4.885,0,0,1,.574.444.258.258,0,0,1,.116.185q0,.109-.137.15a1.1,1.1,0,0,0-.424.294,13.718,13.718,0,0,1-1.135,1A10.167,10.167,0,0,0,38.773,14.535ZM30.229,6.92q0,.116-.109.116l-1.258-.027h-.089a9.323,9.323,0,0,0,1.442,3.035,1.831,1.831,0,0,0-.349.533q-.068.15-.123.15t-.13-.15A12.545,12.545,0,0,1,28.649,7.9q.007,2.755.082,5.79.014.759.041,1.7.014.465.014.506a.085.085,0,0,1-.1.1h-.67q-.116,0-.116-.1s.009-.406.027-1.2q.1-3.541.116-6.6a15.75,15.75,0,0,1-1.641,4.437q-.089.157-.137.157-.075,0-.116-.137a1.211,1.211,0,0,0-.362-.547,15.308,15.308,0,0,0,2.058-5h-.308l-1.271.027a.1.1,0,0,1-.116-.116V6.373q0-.123.116-.123l1.271.027h.417v-1.2a8.8,8.8,0,0,0-.109-1.668,6.609,6.609,0,0,1,.882.089q.171.021.171.123a.676.676,0,0,1-.082.253,4.858,4.858,0,0,0-.075,1.189V6.277h.116l1.258-.027q.109,0,.109.123Zm2.146,4.819q.048.048.048.075t-.1.137l-.294.273q-.116.123-.164.123-.027,0-.068-.062a6.8,6.8,0,0,0-1.176-1.306q-.055-.041-.055-.068t.109-.137l.239-.226q.109-.1.15-.1t.068.048A6.8,6.8,0,0,1,32.375,11.739ZM33.1,4.821a.168.168,0,0,1,.014.062q0,.048-.1.109l-.41.219a.441.441,0,0,1-.164.075q-.041,0-.075-.089a4.652,4.652,0,0,0-.786-1.258.112.112,0,0,1-.041-.068q0-.041.144-.116l.362-.178a.368.368,0,0,1,.123-.041.146.146,0,0,1,.1.068A6.6,6.6,0,0,1,33.1,4.821ZM43.668,7.439a41.522,41.522,0,0,1-2.646,7.841l-.923-.362a37.253,37.253,0,0,0,2.563-7.41q-.848.062-2.577.226l-.055-.882q.513-.034,1.518-.1l1.313-.089q.26-1.183.533-2.782l.991.137q-.308,1.6-.533,2.591.786-.055,1.429-.055a1.428,1.428,0,0,1,1.278.567,3.662,3.662,0,0,1,.4,1.982,19.506,19.506,0,0,1-.437,4.97,1.777,1.777,0,0,1-.636,1,1.828,1.828,0,0,1-1.073.28,9.249,9.249,0,0,1-1.422-.109l-.171-.978a6.216,6.216,0,0,0,1.244.164,1.47,1.47,0,0,0,.745-.144.9.9,0,0,0,.335-.485,16.428,16.428,0,0,0,.444-4.566,3.52,3.52,0,0,0-.219-1.538.713.713,0,0,0-.677-.321Q44.454,7.385,43.668,7.439Zm3.575-1.832.9-.4a19.306,19.306,0,0,1,2.112,5.031l-.991.4A17.207,17.207,0,0,0,47.243,5.607Zm6.433-1.094.4-.8a21.8,21.8,0,0,1,4.354,1.265l-.5.868A20.869,20.869,0,0,0,53.676,4.514Zm-.294,1.723q-.328,3.261-.4,4.259l-.144.766.321-.52A4.925,4.925,0,0,1,54.838,9.47a4.268,4.268,0,0,1,1.777-.39,3.349,3.349,0,0,1,2.406.82,2.66,2.66,0,0,1,.786,2.017,3.2,3.2,0,0,1-.485,1.839,3.371,3.371,0,0,1-1.2,1.019,6.8,6.8,0,0,1-2.092.615,18.516,18.516,0,0,1-2.386.226l-.321-.937a9.7,9.7,0,0,0,4.074-.7,2.554,2.554,0,0,0,1.046-.889,2.462,2.462,0,0,0,.294-1.265,1.793,1.793,0,0,0-.615-1.415,2.145,2.145,0,0,0-1.456-.485,3.916,3.916,0,0,0-2.953,1.408,4.063,4.063,0,0,0-.766,1.21l-1.039-.185q.1-2.01.492-6.262ZM73.726,9.2q0,.116-.171.212a2.011,2.011,0,0,0-.5.465,11.817,11.817,0,0,1-1.812,1.736q-.144.123-.2.123a.871.871,0,0,1-.232-.157,2.794,2.794,0,0,0-.608-.335,8.584,8.584,0,0,0,1.989-1.736H68.3V12.58l.014,1.914a1.242,1.242,0,0,1-.362,1.025,3.378,3.378,0,0,1-1.709.267h-.294q-.232,0-.273-.048a.64.64,0,0,1-.089-.246,2.856,2.856,0,0,0-.28-.69,14.115,14.115,0,0,0,1.456.089.739.739,0,0,0,.513-.13.585.585,0,0,0,.116-.417V9.511H63.854l-1.866.027a.1.1,0,0,1-.109-.109V8.752a.1.1,0,0,1,.109-.109l1.866.027h4.4A14.829,14.829,0,0,0,65.3,6.544q-.075-.041-.075-.062a.6.6,0,0,1,.1-.15l.28-.321q.075-.082.116-.082a.148.148,0,0,1,.075.034,15.9,15.9,0,0,1,1.784,1.1,17.941,17.941,0,0,0,3.09-2.071h-5.5L63.2,5.02q-.1,0-.1-.109V4.261q0-.109.1-.109l1.969.027h5.865a1.046,1.046,0,0,0,.342-.041,1.254,1.254,0,0,1,.191-.068q.13,0,.438.308t.308.465q0,.116-.2.191a1.606,1.606,0,0,0-.485.294,18.988,18.988,0,0,1-3.363,2.235q.253.205.841.731.048.041.048.062a.686.686,0,0,1-.123.13l-.191.185h3.637a.792.792,0,0,0,.355-.055.42.42,0,0,1,.164-.055,1.068,1.068,0,0,1,.451.267Q73.726,9.073,73.726,9.2Zm7.369,1.306a.268.268,0,0,1,.021.089q0,.075-.178.13l-.321.1a.579.579,0,0,1-.137.027q-.062,0-.082-.089-.205-.629-.267-.807l-1.347.137v3.753l.027,2.044q0,.1-.109.1h-.636q-.109,0-.109-.1l.027-2.044V10.167l-1.538.116a1.534,1.534,0,0,0-.533.109.422.422,0,0,1-.157.055q-.089,0-.137-.178-.055-.212-.144-.772.444.041.882.041h.171q.5-.649,1.053-1.456a19.586,19.586,0,0,0-2.064-2.153.146.146,0,0,1-.062-.1q0-.041.109-.157l.239-.294q.089-.1.13-.1t.089.062l.533.52q.52-.807.923-1.586a3.59,3.59,0,0,0,.369-.95q.376.15.779.349.157.075.157.185,0,.075-.123.15a.821.821,0,0,0-.239.294q-.738,1.224-1.347,2.085.479.479.937,1.025.52-.834.909-1.5a6.472,6.472,0,0,0,.561-1.189,5.8,5.8,0,0,1,.772.39.209.209,0,0,1,.123.171q0,.089-.137.178a2.63,2.63,0,0,0-.492.615Q78.593,7.925,77.41,9.5q1.354-.075,2.468-.164a10.8,10.8,0,0,0-.547-1.08.168.168,0,0,1-.027-.075q0-.055.164-.123l.253-.1a.369.369,0,0,1,.15-.048q.055,0,.1.075A14.108,14.108,0,0,1,81.095,10.509Zm6.31-4.58q-.027.355-.027,1.066a45.94,45.94,0,0,1-.451,6.788,3.462,3.462,0,0,1-.608,1.634,1.439,1.439,0,0,1-1.142.479,10.86,10.86,0,0,1-1.3-.068.457.457,0,0,1-.267-.075.769.769,0,0,1-.082-.26,2.124,2.124,0,0,0-.226-.629,12.161,12.161,0,0,0,1.818.191.759.759,0,0,0,.69-.506,4.283,4.283,0,0,0,.294-1.073,44.315,44.315,0,0,0,.39-6.87H82.407a11.224,11.224,0,0,1-1.176,1.818q-.116.157-.2.157t-.205-.144a1.731,1.731,0,0,0-.451-.335,10.017,10.017,0,0,0,2.03-3.568A5.634,5.634,0,0,0,82.674,3.3a6.023,6.023,0,0,1,.868.226q.2.068.2.171a.392.392,0,0,1-.123.246,1.736,1.736,0,0,0-.355.677q-.144.451-.479,1.217h2.987l1.511-.027A.109.109,0,0,1,87.4,5.929Zm-2.9,5.558a.221.221,0,0,1,.034.089q0,.055-.144.137l-.39.219a.535.535,0,0,1-.185.089q-.041,0-.082-.082a11.6,11.6,0,0,0-1.7-2.68A.131.131,0,0,1,82,9.176q0-.048.144-.137l.349-.212a.282.282,0,0,1,.13-.062q.034,0,.082.062A11.164,11.164,0,0,1,84.506,11.486Zm-7.349-.014a.658.658,0,0,1-.068.164,1.3,1.3,0,0,0-.1.41,11.775,11.775,0,0,1-.684,2.728q-.055.2-.123.2a.525.525,0,0,1-.212-.109,1.1,1.1,0,0,0-.479-.212,10.723,10.723,0,0,0,.759-2.762,2.92,2.92,0,0,0,.034-.437q0-.089-.007-.232a5.67,5.67,0,0,1,.684.109Q77.157,11.37,77.157,11.473Zm3.9,2.475a.225.225,0,0,1,.007.055q0,.1-.171.157l-.335.1a.612.612,0,0,1-.157.034q-.055,0-.082-.1a14.687,14.687,0,0,0-.731-2.687.262.262,0,0,1-.021-.082q0-.075.164-.116l.294-.082a.561.561,0,0,1,.116-.021q.068,0,.123.1A13.74,13.74,0,0,1,81.061,13.947ZM93.044,7.439A41.522,41.522,0,0,1,90.4,15.28l-.923-.362a37.252,37.252,0,0,0,2.563-7.41q-.848.062-2.577.226l-.055-.882q.513-.034,1.518-.1l1.313-.089q.26-1.183.533-2.782l.991.137q-.308,1.6-.533,2.591.786-.055,1.429-.055a1.428,1.428,0,0,1,1.278.567,3.662,3.662,0,0,1,.4,1.982,19.506,19.506,0,0,1-.437,4.97,1.777,1.777,0,0,1-.636,1,1.828,1.828,0,0,1-1.073.28,9.249,9.249,0,0,1-1.422-.109l-.171-.978a6.216,6.216,0,0,0,1.244.164,1.47,1.47,0,0,0,.745-.144.9.9,0,0,0,.335-.485,16.428,16.428,0,0,0,.444-4.566,3.52,3.52,0,0,0-.219-1.538.713.713,0,0,0-.677-.321Q93.83,7.385,93.044,7.439Zm4.108-3.992.711-.28A19.25,19.25,0,0,1,98.9,5.539l-.759.308A14.765,14.765,0,0,0,97.152,3.447Zm1.5-.472.7-.253a11.327,11.327,0,0,1,.991,2.3l-.725.294A13.488,13.488,0,0,0,98.649,2.976ZM96.339,5.819l.882-.451A16.879,16.879,0,0,1,99.627,10.2l-.978.458A14.513,14.513,0,0,0,96.339,5.819Zm17.432,8.688a1.868,1.868,0,0,0-.437.547q-.116.212-.185.212a.812.812,0,0,1-.205-.068,15.217,15.217,0,0,1-3.254-1.962,9.9,9.9,0,0,1-2.051-2.338q.007,1.49.041,3.384.027,1.442.027,1.627,0,.1-.116.1h-.684q-.109,0-.109-.1,0-.164.027-1.982.034-1.627.041-2.987a11.33,11.33,0,0,1-2.276,2.55,14.748,14.748,0,0,1-2.666,1.7.713.713,0,0,1-.226.082q-.062,0-.185-.2a1.742,1.742,0,0,0-.4-.5,11.766,11.766,0,0,0,5.2-4.061h-2.912l-1.866.027q-.109,0-.109-.123V9.832a.1.1,0,0,1,.109-.109l1.866.027h3.445V6.264h-2.632l-1.948.027a.1.1,0,0,1-.109-.109V5.573a.1.1,0,0,1,.109-.109l1.948.027h2.632V4.985a9.092,9.092,0,0,0-.1-1.606,6.382,6.382,0,0,1,.93.068q.171.021.171.109a.454.454,0,0,1-.041.178l-.048.144a5.759,5.759,0,0,0-.068,1.107v.506h2.885l1.941-.027q.116,0,.116.109v.608q0,.109-.116.109l-1.941-.027H107.68V9.75h1.176a18.754,18.754,0,0,0,1.121-2.085,3.18,3.18,0,0,0,.246-.8,6.343,6.343,0,0,1,.841.267q.157.068.157.171a.213.213,0,0,1-.13.178,1.587,1.587,0,0,0-.4.588,17.059,17.059,0,0,1-.978,1.682h1.62l1.866-.027a.1.1,0,0,1,.109.109v.581q0,.123-.109.123l-1.866-.027h-3.179A11.946,11.946,0,0,0,113.771,14.508Zm-8.531-5.626a.158.158,0,0,1,.014.055q0,.055-.13.116l-.458.191a.53.53,0,0,1-.157.048q-.048,0-.082-.089a10.814,10.814,0,0,0-.95-1.948.148.148,0,0,1-.034-.075q0-.048.144-.1l.438-.171a.375.375,0,0,1,.109-.034q.041,0,.082.062A11.2,11.2,0,0,1,105.239,8.882Zm12.441-1.935q-1.155.062-2.365.062V6.127q1.4,0,2.509-.062.191-1.422.267-2.447l1.032.1q-.109,1.025-.321,2.311,1.36-.089,3.1-.239l.014.882q-1.429.15-3.254.239a53.168,53.168,0,0,1-2.208,8.524l-.978-.335A47.881,47.881,0,0,0,117.681,6.947Zm1.709,5.38.868.068a3.679,3.679,0,0,0-.082.786,1.075,1.075,0,0,0,.513,1.08,4.218,4.218,0,0,0,1.559.191,16.519,16.519,0,0,0,2.167-.109l.055.964q-.834.082-2.044.082a4.645,4.645,0,0,1-2.5-.472,1.737,1.737,0,0,1-.636-1.531A5.222,5.222,0,0,1,119.39,12.327Zm.711-2.994V8.4a40.056,40.056,0,0,1,4.259-.191v.9A32.162,32.162,0,0,0,120.1,9.333Zm8.224-4.819.4-.8a21.8,21.8,0,0,1,4.354,1.265l-.5.868A20.869,20.869,0,0,0,128.324,4.514Zm-.294,1.723q-.328,3.261-.4,4.259l-.144.766.321-.52a4.925,4.925,0,0,1,1.682-1.271,4.268,4.268,0,0,1,1.777-.39,3.349,3.349,0,0,1,2.406.82,2.66,2.66,0,0,1,.786,2.017,3.2,3.2,0,0,1-.485,1.839,3.371,3.371,0,0,1-1.2,1.019,6.8,6.8,0,0,1-2.092.615,18.516,18.516,0,0,1-2.386.226l-.321-.937a9.7,9.7,0,0,0,4.074-.7,2.554,2.554,0,0,0,1.046-.889,2.462,2.462,0,0,0,.294-1.265,1.793,1.793,0,0,0-.615-1.415,2.145,2.145,0,0,0-1.456-.485,3.916,3.916,0,0,0-2.953,1.408,4.063,4.063,0,0,0-.766,1.21l-1.039-.185q.1-2.01.492-6.262Zm8.853,6.241a14.949,14.949,0,0,1,1.641,1.531,10.045,10.045,0,0,1,1.169,1.483l-.923.684a11.119,11.119,0,0,0-2.7-3.035Zm20.993.957a3.38,3.38,0,0,1-.273,1.326,1.687,1.687,0,0,1-.437.479,5.82,5.82,0,0,1-2.9.417,10.217,10.217,0,0,1-1.579-.082,1.571,1.571,0,0,1-.67-.253,1.354,1.354,0,0,1-.4-1.135V10.6q-.4.123-.69.232l-.205.075a.225.225,0,0,1-.068.014q-.075,0-.1-.109l-.137-.533a.158.158,0,0,1-.014-.055q0-.055.1-.075.4-.075,1.121-.28V9.162a11.047,11.047,0,0,0-.082-1.613,8.3,8.3,0,0,1,.827.075q.164.021.164.109a.724.724,0,0,1-.068.253A4.438,4.438,0,0,0,152.394,9v.649l1.422-.424V8.615a10.812,10.812,0,0,0-.1-1.7,6.273,6.273,0,0,1,.834.075q.157.021.157.137a1.463,1.463,0,0,1-.055.226,4.022,4.022,0,0,0-.082,1.046V9l1-.308q.7-.2,1.258-.4.342-.116.369-.123h.021q.075,0,.075.1l-.027.643a16.706,16.706,0,0,1-.321,3.179.857.857,0,0,1-.868.663q-.123.007-.273.007-.219,0-.479-.021-.123-.014-.15-.055a.572.572,0,0,1-.048-.2,1.437,1.437,0,0,0-.185-.567,3.639,3.639,0,0,0,.882.116.4.4,0,0,0,.438-.349,16.326,16.326,0,0,0,.239-2.563l-1.935.588v1.887l.027,1.6a.1.1,0,0,1-.109.109H153.9a.1.1,0,0,1-.109-.109l.027-1.6V9.948l-1.422.417v3.206a4.377,4.377,0,0,0,.048.813.406.406,0,0,0,.178.287,4.189,4.189,0,0,0,1.716.2,13.123,13.123,0,0,0,1.729-.075,1.232,1.232,0,0,0,.595-.219,1.052,1.052,0,0,0,.349-.622,6.746,6.746,0,0,0,.1-1.169,1.361,1.361,0,0,0,.547.28q.226.062.226.253Q157.883,13.359,157.876,13.435Zm-7.191-6.973a.1.1,0,0,1-.116.116l-1.552-.034H147.8q-.027,1.285-.055,1.921h1.388L150,8.438a.109.109,0,0,1,.123.123q-.014.26-.027.779-.021.595-.027.9a22.077,22.077,0,0,1-.308,4.033,2.025,2.025,0,0,1-.485,1.053,1.214,1.214,0,0,1-.861.287q-.431,0-.7-.014-.157-.014-.191-.062a.694.694,0,0,1-.048-.232,1.711,1.711,0,0,0-.2-.615,5.739,5.739,0,0,0,1.053.109.535.535,0,0,0,.52-.294,3.454,3.454,0,0,0,.191-.813,33.646,33.646,0,0,0,.267-4.484h-1.593a18.5,18.5,0,0,1-.54,3.773,8.717,8.717,0,0,1-1.169,2.536q-.109.15-.157.15t-.164-.123a1.806,1.806,0,0,0-.506-.437,7.835,7.835,0,0,0,1.524-3.671,34.938,34.938,0,0,0,.308-4.895l-1.511.034q-.1,0-.1-.116V5.874a.085.085,0,0,1,.1-.1l1.565.027h.916V4.869a6.96,6.96,0,0,0-.1-1.442q.54.021.909.068.185.021.185.123a.864.864,0,0,1-.082.253,3.335,3.335,0,0,0-.089,1v.937h.226l1.538-.027q.116,0,.116.1Zm7.082-.191a.1.1,0,0,1-.109.109l-1.668-.027h-3.979a10.35,10.35,0,0,1-1.23,1.764q-.116.144-.191.144t-.2-.157a1.274,1.274,0,0,0-.41-.294,8.668,8.668,0,0,0,2.092-3.473,4.21,4.21,0,0,0,.178-.943q.526.1.8.185.157.041.157.157a.332.332,0,0,1-.082.164,1.884,1.884,0,0,0-.267.574q-.26.7-.451,1.121h3.582l1.668-.027a.1.1,0,0,1,.109.109Zm10.083.937q0,.109-.116.109l-1.456-.027h-.417v6.05l.027,2.42a.1.1,0,0,1-.109.109h-.649a.1.1,0,0,1-.109-.109l.027-2.406V7.289h-.437l-1.47.027a.1.1,0,0,1-.109-.109V6.633q0-.116.109-.116l1.47.027h.438V5.354a11.11,11.11,0,0,0-.1-1.8,8.722,8.722,0,0,1,.9.082q.171.027.171.116a.379.379,0,0,1-.027.123,1.265,1.265,0,0,0-.048.13,6.158,6.158,0,0,0-.082,1.34v1.2h.417l1.456-.027a.1.1,0,0,1,.116.116Zm4.115.841q0,.123-.116.123L170.6,8.144h-.068V12.3l.014,2.194a1.173,1.173,0,0,1-.383,1.025,2.85,2.85,0,0,1-1.367.212h-.308q-.219,0-.26-.048a.6.6,0,0,1-.082-.246,2.487,2.487,0,0,0-.219-.595,10.779,10.779,0,0,0,1.258.089q.52-.021.52-.574V8.144h-.383l-1.244.027a.109.109,0,0,1-.123-.123V7.487q0-.116.123-.116l1.244.027H170.6l1.244-.027a.1.1,0,0,1,.116.116Zm-9.194-.984q0,.082-.13.164a1.094,1.094,0,0,0-.321.41,11.166,11.166,0,0,1-.725,1.162v5.209l.027,1.8q0,.109-.116.109h-.643a.1.1,0,0,1-.109-.109l.027-1.8V11.5q0-.123.041-1.723a14.384,14.384,0,0,1-1.107,1.121q-.109.109-.164.109-.075,0-.144-.15a1.759,1.759,0,0,0-.321-.506,10.411,10.411,0,0,0,2.577-3.192,3.284,3.284,0,0,0,.267-.684,5.288,5.288,0,0,1,.684.39Q162.771,6.975,162.771,7.063Zm.041-3.042q0,.1-.13.157a1.182,1.182,0,0,0-.349.335A12.765,12.765,0,0,1,159.858,7.1a.578.578,0,0,1-.2.109q-.062,0-.171-.2a1.73,1.73,0,0,0-.362-.472,9.155,9.155,0,0,0,2.5-2.5,2.091,2.091,0,0,0,.308-.629,4.717,4.717,0,0,1,.738.41Q162.812,3.926,162.812,4.021Zm1.442,5.223a.4.4,0,0,1-.068.185,1.426,1.426,0,0,0-.144.547,13.911,13.911,0,0,1-.882,3.493q-.055.171-.13.171a.565.565,0,0,1-.178-.068,1.67,1.67,0,0,0-.547-.164,11.343,11.343,0,0,0,.957-3.432q.027-.342.027-.636a2.832,2.832,0,0,0-.021-.362,6.191,6.191,0,0,1,.8.116Q164.254,9.128,164.254,9.244Zm4.04,3.486a.112.112,0,0,0,.007.027v.021q0,.075-.144.137l-.39.137a.66.66,0,0,1-.171.048q-.062,0-.068-.1a21.241,21.241,0,0,0-.8-3.726.29.29,0,0,1-.014-.068q0-.048.144-.1l.376-.13a.4.4,0,0,1,.1-.021q.055,0,.082.1A22.955,22.955,0,0,1,168.294,12.73Zm3.35-7.588q0,.116-.1.116l-1.094-.027h-.909l-1.094.027q-.109,0-.109-.116V4.555a.1.1,0,0,1,.109-.109l1.094.027h.909l1.094-.027q.1,0,.1.109Zm-3.767.267a.207.207,0,0,1,.021.075q0,.055-.1.123l-.28.178a.524.524,0,0,1-.171.089q-.041,0-.082-.089a6.681,6.681,0,0,0-.841-1.381.166.166,0,0,1-.041-.082q0-.041.109-.1l.308-.171a.445.445,0,0,1,.123-.041.114.114,0,0,1,.075.041A6.778,6.778,0,0,1,167.877,5.409Zm18.061,4.129a.1.1,0,0,1-.109.109L183.88,9.62h-4.218q.13.034.308.1t.212.075q.144.055.144.15a.2.2,0,0,1-.1.157.974.974,0,0,0-.253.28l-.205.308h3.849l1.723-.027a.121.121,0,0,1,.137.137l-.123,1.4a15.238,15.238,0,0,1-.362,2.427,1.569,1.569,0,0,1-.526.9,1.408,1.408,0,0,1-.848.226q-.561,0-.882-.027a.338.338,0,0,1-.212-.062.789.789,0,0,1-.082-.246,2.4,2.4,0,0,0-.239-.581,7.339,7.339,0,0,0,1.347.116q.52,0,.67-.67a18.857,18.857,0,0,0,.376-2.905h-.978A8.916,8.916,0,0,1,180,15.69a.427.427,0,0,1-.212.1q-.075,0-.226-.171a1.335,1.335,0,0,0-.417-.321,7.844,7.844,0,0,0,3.637-3.924h-1.244a10.232,10.232,0,0,1-3.445,3.438,1.187,1.187,0,0,1-.226.1q-.062,0-.205-.171a1.151,1.151,0,0,0-.41-.308,9.182,9.182,0,0,0,3.4-3.056h-1.4a9.386,9.386,0,0,1-2.215,2,.721.721,0,0,1-.219.109q-.048,0-.2-.171a1.872,1.872,0,0,0-.451-.335,8.4,8.4,0,0,0,2.9-2.591,2.479,2.479,0,0,0,.355-.759h-.062l-1.941.027q-.116,0-.116-.109V8.991q0-.109.116-.109l1.941.027h4.512l1.948-.027a.1.1,0,0,1,.109.109Zm-1.47-1.579q0,.109-.116.109l-1.661-.027h-2.283l-1.668.027a.1.1,0,0,1-.109-.109l.027-1.2V5.238l-.027-1.217a.1.1,0,0,1,.109-.109l1.668.027h2.283l1.661-.027q.116,0,.116.109l-.027,1.217V6.756Zm-.813-.574V6.291h-4.218V7.385Zm0-1.723V4.6h-4.218V5.662Zm-6.084,4.956q-.007.034-.041.533a.573.573,0,0,1-.041.28.562.562,0,0,1-.2.137,25.674,25.674,0,0,1-2.871,1.374,3.365,3.365,0,0,0-.506.239.255.255,0,0,1-.185.082q-.068,0-.15-.137a3.587,3.587,0,0,1-.28-.772,9.432,9.432,0,0,0,1.333-.362q.39-.144.588-.226V7.932h-.383l-1.3.027a.1.1,0,0,1-.116-.116V7.255q0-.109.116-.109l1.3.027h.383V5.539a13.145,13.145,0,0,0-.1-1.921q.431.014.916.068.171.027.171.13a.371.371,0,0,1-.027.116q-.034.089-.048.137a6.644,6.644,0,0,0-.082,1.436V7.173h.1l1.3-.027q.1,0,.1.109v.588q0,.116-.1.116l-1.3-.027h-.1v3.486Q176.784,11.076,177.57,10.618Zm22.381-1.8q0,.109-.116.109L198.126,8.9h-.109V14.1l.027,1.764a.1.1,0,0,1-.109.109h-.663a.1.1,0,0,1-.109-.109l.027-1.764V8.9H195a19.963,19.963,0,0,1-.1,2.283,9.049,9.049,0,0,1-.376,1.654,6.8,6.8,0,0,1-1.791,2.769q-.15.157-.212.157-.034,0-.164-.157a1.68,1.68,0,0,0-.533-.4,5.56,5.56,0,0,0,1.962-2.844,12.561,12.561,0,0,0,.39-3.5V6.681a14.694,14.694,0,0,0-.082-1.818,3.752,3.752,0,0,1,.909.28,11.581,11.581,0,0,0,3.1-1.107,3.713,3.713,0,0,0,.677-.479,3.374,3.374,0,0,1,.643.6.321.321,0,0,1,.082.2q0,.1-.185.123a1.78,1.78,0,0,0-.5.171A22.17,22.17,0,0,1,195,5.922V8.137h3.131l1.709-.027q.116,0,.116.109Zm-7.109,2.44a.1.1,0,0,1-.109.109H192.1a.1.1,0,0,1-.109-.109v-.547h-2.762a12.911,12.911,0,0,1-.335,2.762,7.549,7.549,0,0,1-.882,2.105q-.109.2-.171.2t-.178-.15a1.357,1.357,0,0,0-.506-.383A6.229,6.229,0,0,0,188.3,12.2a26.08,26.08,0,0,0,.137-3.158l-.027-2.256a.1.1,0,0,1,.109-.109L189.9,6.7h1.477l1.36-.027a.1.1,0,0,1,.109.109l-.027,1.306V9.976Zm-.854-1.292V7.446h-2.734V9.08q0,.6-.014.882Zm1.5-4.983q0,.109-.116.109l-1.647-.014h-2.283l-1.654.014a.1.1,0,0,1-.109-.109V4.4q0-.116.109-.116l1.654.027h2.283l1.647-.027a.1.1,0,0,1,.116.116Zm13.631,5.64v2.769h-.937V11.049q-.321.164-.663.355-1.791,1.012-1.791,2.03a.927.927,0,0,0,.629.943,6.4,6.4,0,0,0,2.078.232q1.47,0,3.411-.171l.041.95q-2.55.13-3.384.13a5.879,5.879,0,0,1-2.967-.513,1.772,1.772,0,0,1-.7-1.6,3.066,3.066,0,0,1,1.88-2.55q.711-.4,1.456-.772-.068-1.312-.909-1.312-1.176,0-3.227,2.365L201.3,10.5a16.349,16.349,0,0,0,2.9-4.136q-1.278.021-2.563,0V5.5q1.477.027,2.953,0a12.511,12.511,0,0,0,.629-1.873l1.012.185a14.378,14.378,0,0,1-.588,1.647q1.969-.062,3.739-.239l.027.854q-2.3.185-4.143.239a14.3,14.3,0,0,1-1.176,1.989l-.355.362.041.055a2.492,2.492,0,0,1,1.668-.711,1.521,1.521,0,0,1,1.114.424,1.982,1.982,0,0,1,.526,1.217q1.094-.5,2.844-1.237l.39.957Q208.045,10.208,207.115,10.618Zm17.2,4.478a.1.1,0,0,1-.116.116l-1.7-.027h-4.081v.684a.1.1,0,0,1-.116.116h-.561q-.109,0-.109-.116l.027-1.367V10.994q0-.52.027-1.415-.28.355-.909,1.039-.1.1-.137.1-.068,0-.13-.137a1.166,1.166,0,0,0-.308-.465,11.1,11.1,0,0,0,2.816-4.19h-1.654V7.159a.1.1,0,0,1-.109.109H216.7q-.116,0-.116-.109l.027-1.066v-.28l-.027-.506a.1.1,0,0,1,.109-.109l1.907.027h.656q.089-.273.185-.615a5.448,5.448,0,0,0,.178-1.217l.8.15q.2.055.2.157a.407.407,0,0,1-.13.219,2.4,2.4,0,0,0-.219.663l-.2.643h2.2l1.921-.027a.1.1,0,0,1,.109.109l-.034.451v.321l.034,1.046a.1.1,0,0,1-.116.116h-.574q-.109,0-.109-.116v-1.2h-3.685a13.263,13.263,0,0,1-1.06,2.133h1.8q.267-.533.424-.943a3.387,3.387,0,0,0,.185-.725q.267.068.684.191.171.068.171.171a.238.238,0,0,1-.109.171,1.024,1.024,0,0,0-.212.349q-.267.608-.355.786h.827l1.586-.027a.1.1,0,0,1,.109.109v.506a.1.1,0,0,1-.109.109l-1.586-.027h-.95v1.442h.547l1.75-.027a.1.1,0,0,1,.109.109v.479q0,.123-.109.123l-1.75-.027h-.547V12.3h.547l1.764-.027a.1.1,0,0,1,.109.109v.492a.1.1,0,0,1-.109.109l-1.764-.027h-.547V14.5H222.5l1.7-.027q.116,0,.116.109Zm-3.842-.595V12.956h-2.051V14.5Zm0-2.2V10.823h-2.051V12.3Zm0-2.133V8.725h-2.051v1.442Zm-4.026-5.024q0,.116-.13.116l-1.395-.034h-.185a13.5,13.5,0,0,1-1.094,3.5h1.374L216,8.7a.1.1,0,0,1,.109.109l-.034,1.654v1.292l.034,2.461q0,.1-.116.1h-.533q-.109,0-.109-.1v-.561h-1.538V14.9a.1.1,0,0,1-.109.109h-.554a.1.1,0,0,1-.109-.109l.027-2.632V9.825a13.78,13.78,0,0,1-.841,1.292q-.1.144-.15.144t-.144-.171a1.947,1.947,0,0,0-.321-.506,9.718,9.718,0,0,0,1.538-2.563,11.771,11.771,0,0,0,.786-2.8h-.349l-1.415.034q-.109,0-.109-.116V4.568a.1.1,0,0,1,.109-.109l1.415.027h1.333l1.395-.027q.13,0,.13.109Zm-1.094,7.8V9.436h-1.538v3.507ZM237.9,4.179q-.021.164-.055.9a15.264,15.264,0,0,1-.437,3.835,1.181,1.181,0,0,1-1.258.786,9.25,9.25,0,0,1-.937-.041q-.171-.021-.205-.068a.671.671,0,0,1-.062-.239,1.622,1.622,0,0,0-.2-.574,6.492,6.492,0,0,0,1.2.123.665.665,0,0,0,.69-.376,12.933,12.933,0,0,0,.376-3.712h-2.468a7.849,7.849,0,0,1-.417,2.058q.752.376,1.292.67.062.027.062.062a.686.686,0,0,1-.068.15l-.178.376q-.075.15-.137.15a.183.183,0,0,1-.089-.034q-.472-.28-1.176-.656a5.778,5.778,0,0,1-2.55,2.563.645.645,0,0,1-.226.082q-.082,0-.191-.185a1.324,1.324,0,0,0-.424-.4,5.146,5.146,0,0,0,2.693-2.4,17.092,17.092,0,0,0-1.641-.656q-.068-.021-.068-.055a.542.542,0,0,1,.055-.144l.164-.362q.055-.1.116-.1a.215.215,0,0,1,.082.021q.95.328,1.572.6a6.667,6.667,0,0,0,.321-1.736h-.588l-1.764.027q-.116,0-.116-.109V4.165q0-.109.116-.109l1.764.027h2.823l1.8-.027A.109.109,0,0,1,237.9,4.179Zm-7.656,11.382q0,.109-.116.109h-.561a.1.1,0,0,1-.109-.109v-.451h-2.085v.725q0,.116-.109.116h-.561q-.13,0-.13-.116L226.6,13.8v-.841l-.027-1.244q0-.1.123-.1l1.2.027h1.032l1.21-.027q.109,0,.109.1l-.027,1v.854Zm-.786-1.135v-2.1h-2.085v2.1ZM236.756,14a3.9,3.9,0,0,1-.232,1.025,1.027,1.027,0,0,1-.458.485,3.067,3.067,0,0,1-1.436.239,3.568,3.568,0,0,1-1.292-.157.875.875,0,0,1-.506-.923v-2.44a9.294,9.294,0,0,0-.055-1.073,5.391,5.391,0,0,1,.779.082q.171.041.171.109a.847.847,0,0,1-.055.171,2.024,2.024,0,0,0-.068.656v2.16a.957.957,0,0,0,.055.4.43.43,0,0,0,.212.164,2.392,2.392,0,0,0,.786.082,2.082,2.082,0,0,0,.978-.137q.355-.26.376-1.477a1.686,1.686,0,0,0,.52.28q.232.082.232.232Q236.763,13.906,236.756,14ZM230.72,6.619a.1.1,0,0,1-.109.109L229.154,6.7h-1.627l-1.456.027q-.1,0-.1-.109V6.024q0-.109.1-.109l1.456.027h1.627l1.456-.027a.1.1,0,0,1,.109.109ZM230.3,4.712q0,.109-.116.109l-1.217-.027h-1.087l-1.224.027a.1.1,0,0,1-.109-.109V4.151q0-.116.109-.116l1.224.034h1.087l1.217-.034a.1.1,0,0,1,.116.116Zm-.226,5.64a.1.1,0,0,1-.109.109l-1.135-.027h-.882l-1.135.027q-.116,0-.116-.109V9.8q0-.109.116-.109l1.135.027h.882l1.135-.027a.1.1,0,0,1,.109.109Zm0-1.873a.1.1,0,0,1-.109.109l-1.135-.027h-.882l-1.135.027q-.116,0-.116-.109V7.932q0-.109.116-.109l1.135.027h.882l1.135-.027a.1.1,0,0,1,.109.109Zm2,3.5a9.016,9.016,0,0,1-.786,2.632q-.041.075-.082.075a.62.62,0,0,1-.157-.048l-.335-.171q-.164-.089-.164-.144a.207.207,0,0,1,.021-.068,6.955,6.955,0,0,0,.759-2.475q.014-.1.082-.1a.545.545,0,0,1,.144.034l.376.109q.15.048.15.109A.287.287,0,0,1,232.08,11.979Zm6.535,1.928a.217.217,0,0,1,.014.062q0,.041-.164.137l-.335.171a.728.728,0,0,1-.171.068q-.041,0-.068-.075a8.586,8.586,0,0,0-1.251-2.393.1.1,0,0,1-.027-.055q0-.034.171-.109l.308-.144a.4.4,0,0,1,.15-.062q.034,0,.089.075A10.514,10.514,0,0,1,238.615,13.906Zm-2.9-2.782q.062.055.062.089t-.116.164l-.267.26q-.13.137-.164.137a.11.11,0,0,1-.075-.048,6.894,6.894,0,0,0-1.7-1.47q-.062-.048-.062-.068t.109-.13l.267-.253q.1-.1.13-.1a.2.2,0,0,1,.1.041A11.427,11.427,0,0,1,235.717,11.124Zm9.844-5.277a22.039,22.039,0,0,1-1.483,7.362,2.1,2.1,0,0,1-1.894,1.483,1.749,1.749,0,0,1-1.606-1.06,6,6,0,0,1-.533-2.789,7.335,7.335,0,0,1,.458-2.618A5.114,5.114,0,0,1,241.541,6.5a4.675,4.675,0,0,1,1.716-1.128,5.426,5.426,0,0,1,1.969-.369,4.139,4.139,0,0,1,3.555,1.5,6.371,6.371,0,0,1,.964,3.808,5.114,5.114,0,0,1-1.121,3.4,5.6,5.6,0,0,1-3.274,1.784l-.485-.841a4.243,4.243,0,0,0,3.835-4.607,4.67,4.67,0,0,0-1.032-3.3A2.809,2.809,0,0,0,245.561,5.847Zm-1.053.109a3.075,3.075,0,0,0-1.292.4,4.459,4.459,0,0,0-1.06.93,5.252,5.252,0,0,0-1.148,3.582,4.6,4.6,0,0,0,.41,2.126q.328.615.752.615a.82.82,0,0,0,.622-.26,2.544,2.544,0,0,0,.444-.759A19.819,19.819,0,0,0,244.508,5.956Zm19.072,9.133a.1.1,0,0,1-.109.109l-1.853-.027h-8.046l-1.853.027a.1.1,0,0,1-.109-.109v-.718a.1.1,0,0,1,.109-.109l1.853.027h3.165V5.724a16.01,16.01,0,0,0-.089-2.017,8.174,8.174,0,0,1,.984.082q.185.027.185.123a.827.827,0,0,1-.075.267,5.587,5.587,0,0,0-.1,1.36V8.185h2.782l1.846-.027q.116,0,.116.109v.718q0,.109-.116.109l-1.846-.027h-2.782v5.223h3.972l1.853-.027a.1.1,0,0,1,.109.109Zm2.577-2.611a14.946,14.946,0,0,1,1.641,1.531,10.045,10.045,0,0,1,1.169,1.483l-.923.684a11.119,11.119,0,0,0-2.7-3.035ZM286.945,9.2q0,.116-.171.212a2.011,2.011,0,0,0-.5.465,11.817,11.817,0,0,1-1.812,1.736q-.144.123-.2.123a.871.871,0,0,1-.232-.157,2.793,2.793,0,0,0-.608-.335,8.584,8.584,0,0,0,1.989-1.736h-3.89V12.58l.014,1.914a1.242,1.242,0,0,1-.362,1.025,3.378,3.378,0,0,1-1.709.267h-.294q-.232,0-.273-.048a.639.639,0,0,1-.089-.246,2.856,2.856,0,0,0-.28-.69,14.115,14.115,0,0,0,1.456.089.739.739,0,0,0,.513-.13.585.585,0,0,0,.116-.417V9.511h-3.541l-1.866.027a.1.1,0,0,1-.109-.109V8.752a.1.1,0,0,1,.109-.109l1.866.027h4.4a14.829,14.829,0,0,0-2.953-2.126q-.075-.041-.075-.062a.6.6,0,0,1,.1-.15l.28-.321q.075-.082.116-.082a.148.148,0,0,1,.075.034,15.9,15.9,0,0,1,1.784,1.1,17.941,17.941,0,0,0,3.09-2.071h-5.5l-1.969.027q-.1,0-.1-.109V4.261q0-.109.1-.109l1.969.027h5.865a1.046,1.046,0,0,0,.342-.041,1.254,1.254,0,0,1,.191-.068q.13,0,.438.308t.308.465q0,.116-.2.191a1.606,1.606,0,0,0-.485.294,18.987,18.987,0,0,1-3.363,2.235q.253.205.841.731.048.041.048.062a.686.686,0,0,1-.123.13l-.191.185h3.637a.792.792,0,0,0,.355-.055.42.42,0,0,1,.164-.055,1.068,1.068,0,0,1,.451.267Q286.945,9.073,286.945,9.2Zm7.369,1.306a.268.268,0,0,1,.021.089q0,.075-.178.13l-.321.1a.579.579,0,0,1-.137.027q-.062,0-.082-.089-.205-.629-.267-.807L292,10.1v3.753l.027,2.044q0,.1-.109.1h-.636q-.109,0-.109-.1l.027-2.044V10.167l-1.538.116a1.534,1.534,0,0,0-.533.109.422.422,0,0,1-.157.055q-.089,0-.137-.178-.055-.212-.144-.772.444.041.882.041h.171q.5-.649,1.053-1.456a19.586,19.586,0,0,0-2.064-2.153.146.146,0,0,1-.062-.1q0-.041.109-.157l.239-.294q.089-.1.13-.1t.089.062l.533.52q.52-.807.923-1.586a3.59,3.59,0,0,0,.369-.95q.376.15.779.349.157.075.157.185,0,.075-.123.15a.821.821,0,0,0-.239.294q-.738,1.224-1.347,2.085.479.479.937,1.025.52-.834.909-1.5a6.472,6.472,0,0,0,.561-1.189,5.8,5.8,0,0,1,.772.39.209.209,0,0,1,.123.171q0,.089-.137.178a2.63,2.63,0,0,0-.492.615Q291.813,7.925,290.63,9.5q1.354-.075,2.468-.164a10.8,10.8,0,0,0-.547-1.08.168.168,0,0,1-.027-.075q0-.055.164-.123l.253-.1a.369.369,0,0,1,.15-.048q.055,0,.1.075A14.108,14.108,0,0,1,294.314,10.509Zm6.31-4.58Q300.6,6.284,300.6,7a45.94,45.94,0,0,1-.451,6.788,3.463,3.463,0,0,1-.608,1.634,1.439,1.439,0,0,1-1.142.479,10.86,10.86,0,0,1-1.3-.068.457.457,0,0,1-.267-.075.769.769,0,0,1-.082-.26,2.124,2.124,0,0,0-.226-.629,12.161,12.161,0,0,0,1.818.191.759.759,0,0,0,.69-.506,4.283,4.283,0,0,0,.294-1.073,44.315,44.315,0,0,0,.39-6.87h-4.088a11.224,11.224,0,0,1-1.176,1.818q-.116.157-.2.157t-.205-.144A1.731,1.731,0,0,0,293.6,8.1a10.017,10.017,0,0,0,2.03-3.568,5.634,5.634,0,0,0,.267-1.237,6.023,6.023,0,0,1,.868.226q.2.068.2.171a.392.392,0,0,1-.123.246,1.736,1.736,0,0,0-.355.677q-.144.451-.479,1.217h2.987l1.511-.027A.109.109,0,0,1,300.624,5.929Zm-2.9,5.558a.221.221,0,0,1,.034.089q0,.055-.144.137l-.39.219a.535.535,0,0,1-.185.089q-.041,0-.082-.082a11.6,11.6,0,0,0-1.7-2.68.131.131,0,0,1-.048-.082q0-.048.144-.137l.349-.212a.282.282,0,0,1,.13-.062q.034,0,.082.062A11.164,11.164,0,0,1,297.726,11.486Zm-7.349-.014a.659.659,0,0,1-.068.164,1.3,1.3,0,0,0-.1.41,11.775,11.775,0,0,1-.684,2.728q-.055.2-.123.2a.525.525,0,0,1-.212-.109,1.1,1.1,0,0,0-.479-.212,10.723,10.723,0,0,0,.759-2.762,2.919,2.919,0,0,0,.034-.437q0-.089-.007-.232a5.67,5.67,0,0,1,.684.109Q290.377,11.37,290.377,11.473Zm3.9,2.475a.225.225,0,0,1,.007.055q0,.1-.171.157l-.335.1a.612.612,0,0,1-.157.034q-.055,0-.082-.1a14.687,14.687,0,0,0-.731-2.687.262.262,0,0,1-.021-.082q0-.075.164-.116l.294-.082a.561.561,0,0,1,.116-.021q.068,0,.123.1A13.739,13.739,0,0,1,294.28,13.947Zm18.73,1.456a.1.1,0,0,1-.109.109h-.677a.1.1,0,0,1-.109-.109v-.854h-6.48v.882q0,.109-.1.109h-.69a.1.1,0,0,1-.109-.109l.027-4.8v-2.7L304.739,4.4q0-.116.109-.116l1.948.027h4.156l1.948-.027q.109,0,.109.116l-.027,3.172v3.056Zm-.9-1.654V9.7h-6.48v4.054Zm0-4.84V5.115h-6.48V8.909Zm8.6,5.291q0,.116-.109.116h-.581q-.109,0-.109-.116v-.7H318.1v1.162a.1.1,0,0,1-.109.109h-.595a.1.1,0,0,1-.109-.109l.027-4.32V7.59l-.027-3.274a.1.1,0,0,1,.109-.109l1.121.027h.971l1.121-.027a.1.1,0,0,1,.109.109l-.027,2.83v2.905Zm-.8-1.442V9.128H318.1v3.63Zm0-4.354V4.979H318.1V8.4Zm9.283.089a.1.1,0,0,1-.109.109l-1.935-.027h-3.979l-1.914.027a.1.1,0,0,1-.109-.109V7.911a.1.1,0,0,1,.109-.109l1.914.027h1.306V5.97h-.868L321.822,6q-.13,0-.13-.116V5.327q0-.123.13-.123l1.791.027h.868a11.929,11.929,0,0,0-.1-1.791q.567.021.909.068.171.027.171.123s-.023.089-.068.253a5.579,5.579,0,0,0-.089,1.347h1.271l1.8-.027q.109,0,.109.123v.561q0,.116-.109.116l-1.8-.034h-1.271V7.829h1.846l1.935-.027a.1.1,0,0,1,.109.109Zm-.171,2.5a.1.1,0,0,1-.109.109l-1.682-.027v1.9l.014,1.791a1.053,1.053,0,0,1-.39.937,3.4,3.4,0,0,1-1.627.239.487.487,0,0,1-.26-.041.592.592,0,0,1-.089-.226,1.986,1.986,0,0,0-.28-.629q.567.055,1.313.055.492,0,.492-.513V11.069h-3.165l-1.9.027q-.116,0-.116-.109v-.581q0-.1.116-.1l1.9.014h3.165V10.3a8.225,8.225,0,0,0-.1-1.483,6.171,6.171,0,0,1,.9.1q.185.021.185.116a.636.636,0,0,1-.082.232,3.673,3.673,0,0,0-.075,1v.068l1.682-.014q.109,0,.109.1Zm-4.56,2.57a.173.173,0,0,1,.027.082q0,.055-.1.13l-.376.253a.478.478,0,0,1-.164.089q-.041,0-.075-.062a8.338,8.338,0,0,0-1.34-1.75.131.131,0,0,1-.048-.082q0-.055.13-.13l.335-.212a.35.35,0,0,1,.13-.055.169.169,0,0,1,.1.041A8.418,8.418,0,0,1,324.468,13.558ZM4.354,36.432l.957.082a5.458,5.458,0,0,0-.157,1.258,1.054,1.054,0,0,0,.444.978,3.167,3.167,0,0,0,1.545.273,25.984,25.984,0,0,0,2.769-.144l.027,1.012q-1.025.082-2.659.082a4.349,4.349,0,0,1-2.44-.492A1.783,1.783,0,0,1,4.2,37.929,7.219,7.219,0,0,1,4.354,36.432Zm.28-4.676V30.8q1.75-.137,3.541-.137.889,0,1.668.041v.95Q9.119,31.6,8.08,31.6,6.289,31.6,4.635,31.756ZM3.124,29.343a36.343,36.343,0,0,0-.786,6.61,24.829,24.829,0,0,0,.342,4.382l-1,.082a28.849,28.849,0,0,1-.321-4.491,40.268,40.268,0,0,1,.772-6.665Zm21.062,9.092a3.38,3.38,0,0,1-.273,1.326,1.687,1.687,0,0,1-.437.479,5.82,5.82,0,0,1-2.9.417A10.217,10.217,0,0,1,19,40.574a1.571,1.571,0,0,1-.67-.253,1.354,1.354,0,0,1-.4-1.135V35.6q-.4.123-.69.232l-.205.075a.225.225,0,0,1-.068.014q-.075,0-.1-.109l-.137-.533a.158.158,0,0,1-.014-.055q0-.055.1-.075.4-.075,1.121-.28v-.711a11.047,11.047,0,0,0-.082-1.613,8.3,8.3,0,0,1,.827.075q.164.021.164.109a.724.724,0,0,1-.068.253A4.438,4.438,0,0,0,18.7,34v.649l1.422-.424v-.615a10.811,10.811,0,0,0-.1-1.7,6.273,6.273,0,0,1,.834.075q.157.021.157.137a1.462,1.462,0,0,1-.055.226,4.022,4.022,0,0,0-.082,1.046V34l1-.308q.7-.2,1.258-.4.342-.116.369-.123h.021q.075,0,.075.1l-.027.643a16.707,16.707,0,0,1-.321,3.179.857.857,0,0,1-.868.663q-.123.007-.273.007-.219,0-.479-.021-.123-.014-.15-.055a.572.572,0,0,1-.048-.2,1.437,1.437,0,0,0-.185-.567,3.64,3.64,0,0,0,.882.116.4.4,0,0,0,.438-.349,16.325,16.325,0,0,0,.239-2.563l-1.935.588v1.887l.027,1.6a.1.1,0,0,1-.109.109h-.595a.1.1,0,0,1-.109-.109l.027-1.6V34.948l-1.422.417v3.206a4.377,4.377,0,0,0,.048.813.406.406,0,0,0,.178.287,4.189,4.189,0,0,0,1.716.2,13.124,13.124,0,0,0,1.729-.075,1.232,1.232,0,0,0,.595-.219,1.052,1.052,0,0,0,.349-.622,6.746,6.746,0,0,0,.1-1.169,1.361,1.361,0,0,0,.547.28q.226.062.226.253Q24.192,38.359,24.186,38.435Zm-7.191-6.973a.1.1,0,0,1-.116.116l-1.552-.034H14.109q-.027,1.285-.055,1.921h1.388l.868-.027a.109.109,0,0,1,.123.123q-.014.26-.027.779-.021.595-.027.9a22.077,22.077,0,0,1-.308,4.033,2.024,2.024,0,0,1-.485,1.053,1.214,1.214,0,0,1-.861.287q-.431,0-.7-.014-.157-.014-.191-.062a.694.694,0,0,1-.048-.232,1.711,1.711,0,0,0-.2-.615,5.739,5.739,0,0,0,1.053.109.535.535,0,0,0,.52-.294,3.454,3.454,0,0,0,.191-.813,33.648,33.648,0,0,0,.267-4.484H14.027a18.5,18.5,0,0,1-.54,3.773,8.716,8.716,0,0,1-1.169,2.536q-.109.15-.157.15T12,40.547a1.806,1.806,0,0,0-.506-.437,7.835,7.835,0,0,0,1.524-3.671,34.938,34.938,0,0,0,.308-4.895l-1.511.034q-.1,0-.1-.116v-.588a.085.085,0,0,1,.1-.1l1.565.027h.916v-.937a6.96,6.96,0,0,0-.1-1.442q.54.021.909.068.185.021.185.123a.864.864,0,0,1-.082.253,3.335,3.335,0,0,0-.089,1v.937h.226l1.538-.027q.116,0,.116.1Zm7.082-.191a.1.1,0,0,1-.109.109L22.3,31.353H18.32a10.351,10.351,0,0,1-1.23,1.764q-.116.144-.191.144t-.2-.157a1.274,1.274,0,0,0-.41-.294,8.668,8.668,0,0,0,2.092-3.473,4.21,4.21,0,0,0,.178-.943q.526.1.8.185.157.041.157.157a.332.332,0,0,1-.082.164,1.884,1.884,0,0,0-.267.574q-.26.7-.451,1.121H22.3l1.668-.027a.1.1,0,0,1,.109.109Zm10.083.937q0,.109-.116.109l-1.456-.027H32.17v6.05l.027,2.42a.1.1,0,0,1-.109.109h-.649a.1.1,0,0,1-.109-.109l.027-2.406V32.289h-.437l-1.47.027a.1.1,0,0,1-.109-.109v-.574q0-.116.109-.116l1.47.027h.438V30.354a11.11,11.11,0,0,0-.1-1.8,8.722,8.722,0,0,1,.9.082q.171.027.171.116a.379.379,0,0,1-.027.123,1.265,1.265,0,0,0-.048.13,6.158,6.158,0,0,0-.082,1.34v1.2h.417l1.456-.027a.1.1,0,0,1,.116.116Zm4.115.841q0,.123-.116.123l-1.244-.027h-.068V37.3l.014,2.194a1.172,1.172,0,0,1-.383,1.025,2.85,2.85,0,0,1-1.367.212H34.8q-.219,0-.26-.048a.6.6,0,0,1-.082-.246,2.487,2.487,0,0,0-.219-.595,10.779,10.779,0,0,0,1.258.089q.52-.021.52-.574V33.144h-.383l-1.244.027a.109.109,0,0,1-.123-.123v-.561q0-.116.123-.116l1.244.027h1.278l1.244-.027a.1.1,0,0,1,.116.116Zm-9.194-.984q0,.082-.13.164a1.094,1.094,0,0,0-.321.41A11.165,11.165,0,0,1,27.9,33.8v5.209l.027,1.8q0,.109-.116.109h-.643a.1.1,0,0,1-.109-.109l.027-1.8V36.5q0-.123.041-1.723A14.386,14.386,0,0,1,26.024,35.9q-.109.109-.164.109-.075,0-.144-.15a1.759,1.759,0,0,0-.321-.506,10.411,10.411,0,0,0,2.577-3.192,3.284,3.284,0,0,0,.267-.684,5.289,5.289,0,0,1,.684.39Q29.08,31.975,29.08,32.063Zm.041-3.042q0,.1-.13.157a1.182,1.182,0,0,0-.349.335A12.765,12.765,0,0,1,26.168,32.1a.578.578,0,0,1-.2.109q-.062,0-.171-.2a1.73,1.73,0,0,0-.362-.472,9.155,9.155,0,0,0,2.5-2.5,2.091,2.091,0,0,0,.308-.629,4.717,4.717,0,0,1,.738.41Q29.121,28.926,29.121,29.021Zm1.442,5.223a.4.4,0,0,1-.068.185,1.426,1.426,0,0,0-.144.547,13.911,13.911,0,0,1-.882,3.493q-.055.171-.13.171a.565.565,0,0,1-.178-.068,1.67,1.67,0,0,0-.547-.164,11.343,11.343,0,0,0,.957-3.432q.027-.342.027-.636a2.832,2.832,0,0,0-.021-.362,6.191,6.191,0,0,1,.8.116Q30.563,34.128,30.563,34.244ZM34.6,37.73a.112.112,0,0,0,.007.027v.021q0,.075-.144.137l-.39.137a.66.66,0,0,1-.171.048q-.062,0-.068-.1a21.241,21.241,0,0,0-.8-3.726.29.29,0,0,1-.014-.068q0-.048.144-.1l.376-.13a.4.4,0,0,1,.1-.021q.055,0,.082.1A22.954,22.954,0,0,1,34.6,37.73Zm3.35-7.588q0,.116-.1.116l-1.094-.027h-.909l-1.094.027q-.109,0-.109-.116v-.588a.1.1,0,0,1,.109-.109l1.094.027h.909l1.094-.027q.1,0,.1.109Zm-3.767.267a.207.207,0,0,1,.021.075q0,.055-.1.123l-.28.178a.524.524,0,0,1-.171.089q-.041,0-.082-.089A6.68,6.68,0,0,0,32.73,29.4a.166.166,0,0,1-.041-.082q0-.041.109-.1l.308-.171a.445.445,0,0,1,.123-.041.114.114,0,0,1,.075.041A6.778,6.778,0,0,1,34.187,30.409Zm11.238,5.209v2.769h-.937V36.049q-.321.164-.663.355-1.791,1.012-1.791,2.03a.927.927,0,0,0,.629.943,6.4,6.4,0,0,0,2.078.232q1.47,0,3.411-.171l.041.95q-2.55.13-3.384.13a5.879,5.879,0,0,1-2.967-.513,1.772,1.772,0,0,1-.7-1.6,3.066,3.066,0,0,1,1.88-2.55q.711-.4,1.456-.772-.068-1.312-.909-1.312-1.176,0-3.227,2.365l-.725-.643a16.348,16.348,0,0,0,2.9-4.136q-1.278.021-2.563,0V30.5q1.477.027,2.953,0a12.51,12.51,0,0,0,.629-1.873l1.012.185a14.377,14.377,0,0,1-.588,1.647q1.969-.062,3.739-.239l.027.854q-2.3.185-4.143.239A14.3,14.3,0,0,1,42.4,33.308l-.355.362.041.055a2.492,2.492,0,0,1,1.668-.711,1.521,1.521,0,0,1,1.114.424,1.982,1.982,0,0,1,.526,1.217q1.094-.5,2.844-1.237l.39.957Q46.354,35.208,45.425,35.618Zm17.411-2.1q0,.109-.116.109l-1.9-.027h-.451v3.233l.027,2.577a1.313,1.313,0,0,1-.376,1.121,4.079,4.079,0,0,1-1.948.267q-.219,0-.26-.048a.576.576,0,0,1-.089-.246,2.03,2.03,0,0,0-.294-.629q.622.055,1.34.055a1.059,1.059,0,0,0,.615-.116.517.517,0,0,0,.13-.417V33.6H56.978l-1.914.027q-.116,0-.116-.109V32.9q0-.109.116-.109l1.914.027h3.842l1.9-.027q.116,0,.116.109Zm-8.326-1.36a.207.207,0,0,1-.1.157.993.993,0,0,0-.308.335q-.451.7-.786,1.135v5.277l.027,1.8a.1.1,0,0,1-.109.109h-.677a.1.1,0,0,1-.109-.109l.027-1.8V36.555q0-.752.027-1.818A16,16,0,0,1,51,36.179a.49.49,0,0,1-.2.123q-.055,0-.137-.171a1.8,1.8,0,0,0-.362-.485,11.989,11.989,0,0,0,3.063-3.4,2.66,2.66,0,0,0,.294-.67,5.052,5.052,0,0,1,.731.4A.256.256,0,0,1,54.51,32.159ZM62.1,30.095a.1.1,0,0,1-.109.109l-1.736-.027H57.62L55.9,30.2a.1.1,0,0,1-.109-.109v-.622a.1.1,0,0,1,.109-.109l1.723.027h2.632l1.736-.027a.1.1,0,0,1,.109.109Zm-7.656-1.087q0,.089-.171.185a1.971,1.971,0,0,0-.335.362,13.477,13.477,0,0,1-2.728,2.6.34.34,0,0,1-.2.1q-.075,0-.191-.191a1.884,1.884,0,0,0-.41-.437,10.483,10.483,0,0,0,2.83-2.591,2.16,2.16,0,0,0,.308-.615,4.347,4.347,0,0,1,.772.424Q54.441,28.926,54.441,29.008Zm14.226,7.28.854.615q-.677,3.377-2.27,3.377a1.651,1.651,0,0,1-1.538-1.019A9.207,9.207,0,0,1,65,36.035q-.109-1.312-.109-3.541l.014-2.632h1.012l-.021,2.188q0,2.646.116,3.9.267,3.22,1.217,3.22.485,0,.813-.711A11.913,11.913,0,0,0,68.667,36.288Zm2.1-5.346.909-.267A17.059,17.059,0,0,1,74.1,38.25l-1.053.171A17.589,17.589,0,0,0,70.766,30.942Zm9.222-.349q-.027-1.176-.027-1.853h1v1.812q1.7-.062,3.37-.267v.868q-1.531.185-3.356.253l.041,2.01q1.935-.089,3.247-.26v.868q-1.538.171-3.233.232.014.335.062,1.449.027.745.048,1.2a10.066,10.066,0,0,1,3.726,2.372l-.7.861a9.516,9.516,0,0,0-3.015-2.249v.15a2.184,2.184,0,0,1-2.475,2.468,3.271,3.271,0,0,1-2.017-.5,1.7,1.7,0,0,1-.6-1.436,1.679,1.679,0,0,1,.8-1.449,3.138,3.138,0,0,1,1.832-.5,8.4,8.4,0,0,1,1.47.1q-.048-.848-.1-2.427-1.825.048-3.644,0v-.848q1.7.055,3.63.014-.027-.383-.034-1.087-.014-.663-.027-.943-2.105.041-3.794-.027v-.841Q77.882,30.642,79.987,30.594Zm.171,7.055a5.407,5.407,0,0,0-1.374-.185q-1.832,0-1.832,1.107,0,1.066,1.654,1.066,1.552,0,1.552-1.866Zm7.116-8.682H88.32q-.239,7.191-.239,8.668a2.136,2.136,0,0,0,.458,1.579,2.222,2.222,0,0,0,1.545.424,3.218,3.218,0,0,0,2.44-.943,5.471,5.471,0,0,0,1.217-2.673l.95.479q-.93,4.074-4.58,4.074a3.2,3.2,0,0,1-2.4-.718A3.1,3.1,0,0,1,87.1,37.7q0-.766.062-3.753Q87.247,30.334,87.274,28.967Zm12.578,5.154q.021,1.162.171,3.247a9.291,9.291,0,0,1,3.124,1.887l-.615.745a7.983,7.983,0,0,0-2.454-1.736q.014.2.014.438a1.559,1.559,0,0,1-.656,1.347,2.251,2.251,0,0,1-1.347.383q-2.153,0-2.153-1.565a1.477,1.477,0,0,1,.69-1.244,2.651,2.651,0,0,1,1.606-.465,6.685,6.685,0,0,1,.882.055q-.178-2.461-.2-6.426h.937q-.014.841-.014,2.536a28.509,28.509,0,0,0,2.885-.2v.827Q101.644,34.073,99.853,34.121Zm-.711,3.9a5.762,5.762,0,0,0-.964-.1,1.833,1.833,0,0,0-1.073.287.723.723,0,0,0-.355.608q0,.8,1.285.8,1.121,0,1.121-1.066Q99.155,38.209,99.142,38.024Zm7.048-9.324a32.631,32.631,0,0,0,4.86.827l-.239.95a42.05,42.05,0,0,1-4.888-.868Zm-1.538,3.938a15.887,15.887,0,0,1,4.115-.718q2.687,0,2.687,3.363a5.049,5.049,0,0,1-1.347,3.767,7.448,7.448,0,0,1-3.37,1.675l-.52-.848a6.683,6.683,0,0,0,3.206-1.613,4.374,4.374,0,0,0,.971-3.049q0-2.386-1.682-2.386a13.445,13.445,0,0,0-3.7.786Zm11.006,4.689a1.915,1.915,0,0,1,1.463.643,1.916,1.916,0,0,1-.144,2.748,1.936,1.936,0,0,1-1.319.5,1.9,1.9,0,0,1-1.463-.643,1.916,1.916,0,0,1,.144-2.748A1.936,1.936,0,0,1,115.657,37.327Zm0,.7a1.269,1.269,0,0,0-1.251,1.251,1.253,1.253,0,0,0,2.181.834,1.247,1.247,0,0,0-.93-2.085Zm14.937-6.385h2.249v.943h-2.249v1.046q0,3.445-1.47,5.052a7.427,7.427,0,0,1-3.814,1.935l-.567-.8a6.161,6.161,0,0,0,3.753-1.962,6.7,6.7,0,0,0,1.046-4.095V32.583h-3.514v3.705h-1.053V32.583h-2.14V31.64h2.14V28.871h1.053V31.64h3.514v-2.8h1.053Zm8.155,1.483a32.432,32.432,0,0,1-3.931,2.632l-.574-.807a25.788,25.788,0,0,0,4.368-3.008,19.643,19.643,0,0,0,3.1-3.268l.923.574a22.1,22.1,0,0,1-2.8,2.98v8.333h-1.08Zm8.34.786v6.651h-1.08V28.816h1.08v4.061a21.8,21.8,0,0,1,5.332,2.222l-.533,1.012A17.7,17.7,0,0,0,147.089,33.909Zm18.478,5.53a1.107,1.107,0,0,1-.362.923,3.53,3.53,0,0,1-1.791.267.487.487,0,0,1-.26-.041.671.671,0,0,1-.1-.239,1.672,1.672,0,0,0-.28-.656q.759.068,1.278.068a.793.793,0,0,0,.513-.137.535.535,0,0,0,.116-.4V31.783h-4.2a8.371,8.371,0,0,0,1.641,3.1,8.891,8.891,0,0,0,2.352,1.832,1.751,1.751,0,0,0-.485.485q-.123.185-.185.185a.525.525,0,0,1-.212-.109,9.018,9.018,0,0,1-2.174-1.982,8.5,8.5,0,0,1-1.244-2.386,5.2,5.2,0,0,1-.246.752,7.553,7.553,0,0,1-1.2,2.044,8.591,8.591,0,0,1-1.969,1.641.578.578,0,0,1-.2.109q-.055,0-.185-.164a2.048,2.048,0,0,0-.472-.479,7.458,7.458,0,0,0,2.229-1.723,6.387,6.387,0,0,0,1-1.675,6.608,6.608,0,0,0,.4-1.627h-3.808v6.788l.027,2.058q0,.116-.109.116h-.69q-.109,0-.109-.116l.027-2.126V33.239l-.027-2.16a.1.1,0,0,1,.109-.109l1.962.027h2.707q.041-.649.041-1.3a8.289,8.289,0,0,0-.089-1.388q.485.021.937.082.157.021.157.144,0,.014-.068.26a5.01,5.01,0,0,0-.082,1.053A10.16,10.16,0,0,1,160.467,31H163.5l1.962-.027a.1.1,0,0,1,.109.109l-.027,2.215v3.9Zm14.9-4.026q0,.109-.116.109l-1.969-.027h-2.522a7.7,7.7,0,0,0,1.9,2.878,9.869,9.869,0,0,0,2.68,1.839,1.83,1.83,0,0,0-.424.561q-.123.212-.178.212a.678.678,0,0,1-.226-.109,9.26,9.26,0,0,1-4.3-4.915,7.554,7.554,0,0,1-3.876,4.983.552.552,0,0,1-.212.082q-.062,0-.212-.2a1.768,1.768,0,0,0-.458-.444,8.55,8.55,0,0,0,2.769-2.105,6.622,6.622,0,0,0,1.2-2.434l.082-.349h-1.258l-1.989.027a.1.1,0,0,1-.109-.109v-.581q0-.123.109-.123l1.989.027h1.4a27.343,27.343,0,0,0,.185-2.885h-.984l-1.8.027a.1.1,0,0,1-.109-.109v-.608a.1.1,0,0,1,.109-.109l1.8.027h1V29.972a9.736,9.736,0,0,0-.1-1.565,8.167,8.167,0,0,1,.923.082q.185.041.185.144a1.25,1.25,0,0,1-.082.28,3.187,3.187,0,0,0-.089.978v1.189h1.36l1.853-.027a.1.1,0,0,1,.109.109l-.027,1.224v2.352l1.271-.027q.116,0,.116.123Zm-2.215-.677V31.852h-2.481a25.042,25.042,0,0,1-.205,2.885Zm-7.4,2.1q-.554,1.538-1.347,3.261a4.509,4.509,0,0,0-.253.615q-.048.171-.137.171a.432.432,0,0,1-.212-.082,6.2,6.2,0,0,1-.643-.479A5.858,5.858,0,0,0,169,39.173a30.622,30.622,0,0,0,1.271-3.192,2.425,2.425,0,0,0,.438.424q.191.144.191.226A.845.845,0,0,1,170.844,36.835Zm.492-6.562a.149.149,0,0,1,.055.089.315.315,0,0,1-.082.144l-.314.4q-.089.116-.13.116a.11.11,0,0,1-.075-.048,10.593,10.593,0,0,0-1.887-1.627q-.075-.048-.075-.082a.284.284,0,0,1,.082-.137l.294-.335q.1-.1.137-.1a.168.168,0,0,1,.075.027A10.085,10.085,0,0,1,171.336,30.272Zm-.786,3.4a.137.137,0,0,1,.041.075.423.423,0,0,1-.082.164l-.294.39q-.082.109-.123.109a.168.168,0,0,1-.1-.062,9.534,9.534,0,0,0-1.887-1.531q-.068-.034-.068-.068a.389.389,0,0,1,.1-.15l.267-.342q.075-.089.116-.089a.183.183,0,0,1,.089.034A10.079,10.079,0,0,1,170.55,33.67Zm24.09.321a2.034,2.034,0,0,0-.321.547q-.1.226-.191.226a1.293,1.293,0,0,1-.191-.027q-.813-.164-1.271-.28v4.635l.027,1.7q0,.116-.109.116h-.649q-.109,0-.109-.116l.027-1.7V38.024h-4.717l-.041.137a5.06,5.06,0,0,1-1.75,2.625.578.578,0,0,1-.2.109q-.068,0-.212-.144a1.808,1.808,0,0,0-.533-.376,4.2,4.2,0,0,0,1.921-2.488,8.507,8.507,0,0,0,.294-1.5q.062-.656.068-1.941-.4.1-1.176.232a1.412,1.412,0,0,1-.171.021q-.116,0-.205-.232a1.485,1.485,0,0,0-.308-.5,13.06,13.06,0,0,0,4.088-1.094,6.943,6.943,0,0,1-2.03-2.1q-.588.007-1.032.021l-.226.007h-.075q-.123,0-.123-.109v-.547q0-.109.123-.109l1.962.027h1.641V29.63a6.048,6.048,0,0,0-.1-1.278q.479.021.93.082.164.027.164.116a.905.905,0,0,1-.082.267,2.676,2.676,0,0,0-.068.779v.465h2.167l1.976-.027a.1.1,0,0,1,.109.109v.547a.1.1,0,0,1-.109.109l-1.777-.027a7.1,7.1,0,0,1-1.935,2.071A15.426,15.426,0,0,0,194.64,33.991Zm-2.789,3.322V35.864h-4.4a9.607,9.607,0,0,1-.171,1.449Zm0-2.146V34.23a10.4,10.4,0,0,1-2.187-.9,10.469,10.469,0,0,1-2.167.9q0,.656-.014.937Zm-.437-4.4h-3.637a5.891,5.891,0,0,0,1.9,1.682A5.485,5.485,0,0,0,191.413,30.771Zm-6.6,6.036a34.78,34.78,0,0,1-1.456,3.22,2.941,2.941,0,0,0-.28.615q-.021.144-.137.144a.367.367,0,0,1-.2-.082q-.321-.226-.643-.492a5.507,5.507,0,0,0,.759-1.121,24.812,24.812,0,0,0,1.381-3.138,3.271,3.271,0,0,0,.438.424q.2.15.2.226A.769.769,0,0,1,184.81,36.808Zm.321-6.535a.146.146,0,0,1,.062.1.328.328,0,0,1-.089.157l-.294.362q-.082.109-.13.109a.114.114,0,0,1-.075-.041,10.414,10.414,0,0,0-1.88-1.613q-.062-.041-.062-.075t.1-.144l.28-.321q.1-.116.15-.116a.168.168,0,0,1,.075.027A10.416,10.416,0,0,1,185.131,30.272Zm-.684,3.384a.131.131,0,0,1,.048.082q0,.041-.089.144l-.294.376q-.1.123-.144.123-.027,0-.082-.055a10.127,10.127,0,0,0-1.873-1.511q-.062-.034-.062-.068a.339.339,0,0,1,.089-.15l.267-.355q.068-.089.116-.089a.221.221,0,0,1,.089.034A9.829,9.829,0,0,1,184.447,33.656Zm18.409-.813.718-.273a18.274,18.274,0,0,1,1.032,2.365l-.752.308A15.122,15.122,0,0,0,202.856,32.843Zm1.586-.472.7-.253a11.566,11.566,0,0,1,1,2.3l-.731.294A13.487,13.487,0,0,0,204.442,32.371Zm.39-2.632.027.964a5.312,5.312,0,0,0-2.311.629,5.934,5.934,0,0,0-2.071,1.962,4.817,4.817,0,0,0-.813,2.659,2.958,2.958,0,0,0,1.285,2.529,6.17,6.17,0,0,0,2.933,1l-.239,1a6.1,6.1,0,0,1-3.63-1.381,3.89,3.89,0,0,1-1.312-3.049,5.709,5.709,0,0,1,2.994-5.024l.759-.335-.014-.027-.656.109q-1.189.068-5.66.479l-.082-.923Q198.044,30.177,204.832,29.739Zm14.335,10.609q0,.109-.116.109l-1.887-.027h-7.588l-1.894.027a.1.1,0,0,1-.109-.109V39.74a.1.1,0,0,1,.109-.109l1.894.027h3.261V36h-2.789l-1.928.027q-.116,0-.116-.109v-.595q0-.109.116-.109l1.928.027h2.789v-1.75h-.854l-1.75.014q-.109,0-.109-.1v-.588a.1.1,0,0,1,.109-.109l1.75.027h2.755l1.771-.027a.1.1,0,0,1,.109.109V33.4q0,.1-.109.1l-1.771-.014h-1.032v1.75h3.035l1.935-.027a.1.1,0,0,1,.109.109v.595a.081.081,0,0,1-.109.109L216.74,36h-3.035v3.657h3.459l1.887-.027q.116,0,.116.109ZM220.035,33a1.6,1.6,0,0,0-.41.547q-.116.212-.185.212a1.127,1.127,0,0,1-.219-.068,13.179,13.179,0,0,1-5.913-4.3,14.409,14.409,0,0,1-5.708,4.437.7.7,0,0,1-.2.062q-.068,0-.191-.191a1.314,1.314,0,0,0-.451-.431,13.147,13.147,0,0,0,5.77-4.286,3.042,3.042,0,0,0,.4-.779,4.172,4.172,0,0,1,.9.191q.2.068.2.185,0,.068-.1.123a.378.378,0,0,0-.13.089,11.238,11.238,0,0,0,3.049,2.769A15.984,15.984,0,0,0,220.035,33Zm-2.762,3.992q0,.068-.137.178a1.049,1.049,0,0,0-.226.342,13.261,13.261,0,0,1-1,1.675q-.116.144-.164.144a.433.433,0,0,1-.2-.1,1.184,1.184,0,0,0-.472-.226,9.909,9.909,0,0,0,1.1-1.88,3.2,3.2,0,0,0,.212-.615,4.029,4.029,0,0,1,.711.294Q217.273,36.91,217.273,36.992ZM211.34,38.64a.268.268,0,0,1,.021.089q0,.062-.137.123l-.431.212a.832.832,0,0,1-.185.075q-.041,0-.068-.089a8.837,8.837,0,0,0-1-2,.133.133,0,0,1-.027-.068q0-.048.157-.13l.376-.164a.631.631,0,0,1,.157-.062q.048,0,.1.075A9.842,9.842,0,0,1,211.34,38.64Zm22.511-.014a5.24,5.24,0,0,1-.437,1.729.879.879,0,0,1-.793.513q-1.176,0-2.174-2.03a14.89,14.89,0,0,1-3.794,1.921.753.753,0,0,1-.205.055q-.075,0-.2-.226a1.6,1.6,0,0,0-.376-.451,13.577,13.577,0,0,0,4.252-2.01,18.113,18.113,0,0,1-.684-2.174l-.7.089q-.089.007-1.784.253h-.034q-.075,0-.089-.116l-.055-.574a.2.2,0,0,1-.007-.048q0-.062.1-.062a2.162,2.162,0,0,1,.226-.021q.649-.048,1.579-.164l.615-.068q-.1-.479-.232-1.483l-.2.014q-1.087.116-1.641.191a.129.129,0,0,1-.041.007q-.068,0-.082-.1l-.055-.561a.129.129,0,0,1-.007-.041q0-.068.13-.082.349,0,1.641-.137l.164-.014-.123-1.374-.253.027q-1.449.13-1.7.164a.288.288,0,0,1-.048.007q-.062,0-.075-.1l-.041-.561a.187.187,0,0,1-.007-.041q0-.068.1-.068.506,0,1.723-.116l.239-.014-.027-.588q-.116-1.456-.171-1.736a6,6,0,0,1,.923.062q.185.021.185.15,0,.021-.068.267a2.305,2.305,0,0,0-.068.69q0,.239.014.526,0,.2.027.547l1.538-.15q1.155-.123,1.709-.2l.034-.007q.062,0,.075.116l.041.547q0,.116-.1.116l-.5.034q-.54.041-1.224.1l-1.538.157.109,1.354,1.333-.137a15.907,15.907,0,0,0,1.634-.226.129.129,0,0,1,.041-.007q.055,0,.075.116l.055.533v.062q0,.068-.1.082-.226,0-1.661.15l-1.278.144q.082.711.239,1.483l1.668-.2q.841-.1,1.4-.191l.3-.055a.593.593,0,0,0,.1-.021h.041q.055,0,.068.109l.048.547v.055q0,.075-.089.075-.021,0-.239.021-.656.062-1.593.171l-1.565.2a14.531,14.531,0,0,0,.533,1.736,8,8,0,0,0,.923-1,2.3,2.3,0,0,0,.321-.567,3.566,3.566,0,0,1,.7.39.207.207,0,0,1,.109.164q0,.089-.109.13a1.107,1.107,0,0,0-.342.28,13.158,13.158,0,0,1-1.312,1.34,4.73,4.73,0,0,0,.827,1.278.987.987,0,0,0,.643.376q.451,0,.6-2.126a1.6,1.6,0,0,0,.485.349q.239.123.239.246Q233.864,38.5,233.851,38.626Zm-7.349-.28a2.217,2.217,0,0,0-.055.52q-.007.226-.055.267a.644.644,0,0,1-.226.1q-1.224.417-3.78,1.135a1.2,1.2,0,0,0-.52.267.249.249,0,0,1-.185.068q-.1,0-.164-.15a5.664,5.664,0,0,1-.267-.772,6.974,6.974,0,0,0,1.285-.239q.41-.089,1.066-.28V35.181h-.561l-1.456.034q-.109,0-.109-.116v-.533a.1.1,0,0,1,.109-.109l1.456.027h.561v-1.47h-.109l-1.2.027q-.116,0-.116-.109v-.52q0-.109.116-.109l1.2.027h1.162l1.2-.027a.1.1,0,0,1,.109.109v.52a.1.1,0,0,1-.109.109l-1.2-.027h-.267v1.47h.335l1.456-.027q.116,0,.116.109V35.1a.1.1,0,0,1-.116.116l-1.456-.034h-.335V39.05Q225.62,38.688,226.5,38.346Zm.027-7.137a1.441,1.441,0,0,0-.39.4q-.13.212-.185.212t-.2-.144a11.519,11.519,0,0,1-1.62-1.839,11.608,11.608,0,0,1-2.468,2.755.626.626,0,0,1-.191.109q-.075,0-.157-.212a1.529,1.529,0,0,0-.321-.485,8.479,8.479,0,0,0,2.5-2.673,2.358,2.358,0,0,0,.294-.731,5.648,5.648,0,0,1,.827.2q.137.048.137.123t-.13.171l-.109.1A11.113,11.113,0,0,0,226.529,31.209Zm-3.644,7.041a.287.287,0,0,1,.007.048q0,.075-.171.137l-.349.123a.363.363,0,0,1-.116.034q-.055,0-.068-.1a9.465,9.465,0,0,0-.513-2.16.161.161,0,0,1-.021-.068q0-.055.13-.1l.362-.13a.527.527,0,0,1,.116-.027q.048,0,.082.089A9.194,9.194,0,0,1,222.886,38.25Zm3.473-2.03a.191.191,0,0,1-.082.144.678.678,0,0,0-.171.308,11.232,11.232,0,0,1-.485,1.34q-.089.212-.171.212a.565.565,0,0,1-.178-.068,1.023,1.023,0,0,0-.383-.116,8.787,8.787,0,0,0,.561-1.661,4.607,4.607,0,0,0,.075-.52,4.828,4.828,0,0,1,.711.239Q226.358,36.151,226.358,36.22Zm6.009-6.521q.062.048.062.082t-.089.123l-.294.294q-.1.1-.13.1t-.1-.082a5.839,5.839,0,0,0-1.442-1.053q-.082-.041-.082-.089t.109-.137l.239-.212a.248.248,0,0,1,.144-.082.29.29,0,0,1,.068.014A7.238,7.238,0,0,1,232.367,29.7Zm8.415,1.148a22.039,22.039,0,0,1-1.483,7.362,2.1,2.1,0,0,1-1.894,1.483,1.749,1.749,0,0,1-1.606-1.06,6,6,0,0,1-.533-2.789,7.335,7.335,0,0,1,.458-2.618,5.114,5.114,0,0,1,1.039-1.723,4.675,4.675,0,0,1,1.716-1.128,5.426,5.426,0,0,1,1.969-.369A4.139,4.139,0,0,1,244,31.5a6.371,6.371,0,0,1,.964,3.808,5.114,5.114,0,0,1-1.121,3.4,5.6,5.6,0,0,1-3.274,1.784l-.485-.841a4.243,4.243,0,0,0,3.835-4.607,4.67,4.67,0,0,0-1.032-3.3A2.809,2.809,0,0,0,240.782,30.847Zm-1.053.109a3.075,3.075,0,0,0-1.292.4,4.459,4.459,0,0,0-1.06.93,5.252,5.252,0,0,0-1.148,3.582A4.6,4.6,0,0,0,236.64,38q.328.615.752.615a.82.82,0,0,0,.622-.26,2.544,2.544,0,0,0,.444-.759A19.819,19.819,0,0,0,239.729,30.956Zm9.666,2.953v6.651h-1.08V28.816h1.08v4.061a21.8,21.8,0,0,1,5.332,2.222l-.533,1.012A17.7,17.7,0,0,0,249.4,33.909Zm7.779-4.519h6.344v.937h-6.344Zm-.854,2.98h7.909q-.157,4-1.955,5.961a8.381,8.381,0,0,1-4.3,2.27l-.506-.8a7.477,7.477,0,0,0,4.238-2.413,6.915,6.915,0,0,0,1.36-4.081H256.32Zm16.618-2.406a11.7,11.7,0,0,0-.745-1.654l.718-.28a18.274,18.274,0,0,1,1.032,2.365l-.458.185.178.417q-.191,4.368-1.962,6.617a9.907,9.907,0,0,1-4.519,2.974l-.588-.841a8.6,8.6,0,0,0,4.553-3.2,10.245,10.245,0,0,0,1.367-5.646h-6.535v-.937Zm.868-1.989.7-.253a11.567,11.567,0,0,1,1,2.3l-.731.294A13.489,13.489,0,0,0,273.807,27.976Zm8.559,10.862A10.457,10.457,0,0,0,286,34.025l.718.937a12.739,12.739,0,0,1-4.819,5.489l-.6-.314V29.247h1.066Zm-2.98-9.5q0,3.979-.137,5.742a10.742,10.742,0,0,1-.4,2.352,6.553,6.553,0,0,1-2.044,3.015l-.813-.636a5.191,5.191,0,0,0,1.907-2.782,13.308,13.308,0,0,0,.349-2.878q.068-1.552.068-4.812Zm16.522,3.083q.021,2.769.123,4.689a7.23,7.23,0,0,1,2.468,1.832l-.677.841a6.685,6.685,0,0,0-1.791-1.634,2.112,2.112,0,0,1-.7,1.764,2.5,2.5,0,0,1-1.647.5q-2.42,0-2.42-1.9a1.583,1.583,0,0,1,.725-1.34,2.691,2.691,0,0,1,1.586-.451,6.841,6.841,0,0,1,1.483.15q-.089-1.873-.116-4.409-1.907.062-3.821.041v-.882q1.7.055,3.808-.014V29.035h1q-.014.841-.014,2.522.875-.048,2.249-.185v.882Q297.158,32.357,295.907,32.426Zm-.854,5.407a4.28,4.28,0,0,0-1.545-.28,1.734,1.734,0,0,0-.964.253.806.806,0,0,0-.4.711q0,1.053,1.511,1.053a1.26,1.26,0,0,0,1.114-.526,1.833,1.833,0,0,0,.287-1.073Zm-4.819-8.668a41.313,41.313,0,0,0-.841,6.87,33.209,33.209,0,0,0,.335,4.341l-.978.089q-.321-3.117-.321-4.457a30.522,30.522,0,0,1,.287-3.685q.226-1.764.526-3.24Zm10.391,8.313a14.946,14.946,0,0,1,1.641,1.531,10.044,10.044,0,0,1,1.169,1.483l-.923.684a11.119,11.119,0,0,0-2.7-3.035Zm18.252-.055a7.327,7.327,0,0,1-.226,1.894,1.31,1.31,0,0,1-.513.725,4.424,4.424,0,0,1-2.454.492,5.219,5.219,0,0,1-2.071-.267,1.02,1.02,0,0,1-.472-.444A1.925,1.925,0,0,1,313,39V33.533a7.823,7.823,0,0,0-.082-1.278,6.333,6.333,0,0,1,.937.116q.2.041.2.137a.527.527,0,0,1-.068.2,2.621,2.621,0,0,0-.089.909v5.113q0,.608.335.766a4.331,4.331,0,0,0,1.5.157,3.045,3.045,0,0,0,1.723-.308,1.145,1.145,0,0,0,.431-.752,11.366,11.366,0,0,0,.089-1.812,2.423,2.423,0,0,0,.67.308.646.646,0,0,1,.205.089.164.164,0,0,1,.041.13Q318.883,37.327,318.876,37.423Zm2.8.2a.215.215,0,0,1,.021.082q0,.075-.178.157l-.458.219a.915.915,0,0,1-.212.082q-.034,0-.055-.068a15.176,15.176,0,0,0-1.873-4.184.156.156,0,0,1-.034-.089q0-.082.13-.137l.472-.191a.466.466,0,0,1,.15-.041.149.149,0,0,1,.116.082A17.827,17.827,0,0,1,321.679,37.621Zm-4.2-7q.062.041.062.075a.44.44,0,0,1-.075.164l-.253.444q-.109.178-.157.178a.137.137,0,0,1-.075-.041,13.835,13.835,0,0,0-3.657-1.982q-.075-.034-.075-.075a.44.44,0,0,1,.075-.164l.253-.362q.1-.15.137-.15a.266.266,0,0,1,.075.021A16.317,16.317,0,0,1,317.475,30.621Zm-5.852,3.37a16.066,16.066,0,0,1-1.47,4.553q-.048.089-.116.089a.414.414,0,0,1-.15-.048l-.444-.2q-.205-.089-.205-.164a.161.161,0,0,1,.021-.068,12.986,12.986,0,0,0,1.483-4.389q.014-.082.055-.082a1.6,1.6,0,0,1,.2.041l.451.1q.185.041.185.123A.188.188,0,0,1,311.623,33.991ZM7.109,54.65a.1.1,0,0,1-.116.116l-1.7-.027H5.038v1.7l1.483-.027a.1.1,0,0,1,.109.109L6.6,59.135v2.55l.027,3.794a.1.1,0,0,1-.109.109H6a.1.1,0,0,1-.109-.109v-.547H2.14v.827q0,.109-.1.109H1.511a.1.1,0,0,1-.109-.109l.027-3.924V59.483L1.4,56.523a.1.1,0,0,1,.109-.109l1.483.027v-1.7H2.7l-1.709.027q-.109,0-.109-.116V54.1a.1.1,0,0,1,.109-.109l1.709.027H5.291l1.7-.027q.116,0,.116.109ZM5.893,62.074V60.5q-.185.014-.547.014a.923.923,0,0,1-.684-.212,1.255,1.255,0,0,1-.253-.923V57.091H3.623a15.675,15.675,0,0,1-.082,1.948,4.792,4.792,0,0,1-.7,2.03q-.068.109-.137.109t-.13-.109a.815.815,0,0,0-.335-.369,3.567,3.567,0,0,0,.69-1.873,16.291,16.291,0,0,0,.068-1.736H2.14v4.983Zm0,2.133V62.771H2.14v1.436Zm0-4.416v-2.7H5.038v1.955a1.474,1.474,0,0,0,.068.608q.1.157.438.157A2.34,2.34,0,0,0,5.893,59.791Zm-1.483-3.35v-1.7H3.623v1.7Zm8.846,6.925a2.834,2.834,0,0,1-.643,1.757,3.976,3.976,0,0,1-2.379.451,3.772,3.772,0,0,1-2.058-.321A1.536,1.536,0,0,1,7.854,64.1V60.174l-.027-1.545q0-.109.123-.109l1.415.027H11.8V54.808H9.447L8,54.835q-.109,0-.109-.1V54.1A.1.1,0,0,1,8,53.994l1.442.027h1.641l1.463-.027q.116,0,.116.109l-.027,1.49v2.885l.027,1.483q0,.116-.109.116h-.649q-.109,0-.109-.116v-.629H8.7v4.423a1.513,1.513,0,0,0,.123.82,2.805,2.805,0,0,0,1.456.212,3.048,3.048,0,0,0,1.764-.308,3.231,3.231,0,0,0,.431-1.791,1.769,1.769,0,0,0,.533.294q.267.1.267.219Q13.269,63.243,13.255,63.366Zm14.007-4.409q0,.109-.116.109l-1.8-.027h-.28v2.379l1.565-.027q.116,0,.116.109v.561q0,.109-.116.109l-1.914-.027H17.527l-1.9.027q-.116,0-.116-.109V61.5q0-.109.116-.109l1.552.027V59.039h-.4l-1.812.027a.1.1,0,0,1-.109-.109v-.595a.1.1,0,0,1,.109-.109l1.812.027h.4V56.236A14.026,14.026,0,0,1,16.071,57.4q-.137.144-.191.144-.075,0-.212-.185a1.413,1.413,0,0,0-.4-.335,9.471,9.471,0,0,0,2.509-2.974,3.566,3.566,0,0,0,.335-.868,3.593,3.593,0,0,1,.786.28q.123.048.123.137t-.123.171a1.286,1.286,0,0,0-.335.431q-.321.567-.629,1.025h6.631l1.989-.027q.116,0,.116.109v.581q0,.109-.116.109l-.191-.007q-.567-.014-1.306-.021V58.28h.28l1.8-.027q.116,0,.116.109Zm-2.974,2.461V59.039H22.654v2.379Zm-2.393,0V59.039H20.289v2.379Zm2.393-3.138V55.97H22.654V58.28ZM19.53,61.418V59.039H17.951v2.379ZM21.9,58.28V55.97H20.289V58.28Zm-2.365,0V55.97H17.951V58.28ZM17.6,63.209A9.142,9.142,0,0,1,15.8,65.656a.15.15,0,0,1-.1.055.408.408,0,0,1-.171-.082l-.349-.267q-.109-.089-.109-.144a.174.174,0,0,1,.055-.1,7.047,7.047,0,0,0,1.723-2.27q.034-.062.075-.062a.681.681,0,0,1,.191.068l.349.15q.137.075.137.137A.217.217,0,0,1,17.6,63.209Zm9.256,1.914a.213.213,0,0,1,.027.089q0,.062-.15.137l-.4.2a.533.533,0,0,1-.178.075q-.041,0-.089-.075a11.361,11.361,0,0,0-1.552-2.42.137.137,0,0,1-.041-.075q0-.034.157-.109l.335-.171a.49.49,0,0,1,.144-.048.192.192,0,0,1,.109.062A11.111,11.111,0,0,1,26.852,65.123Zm-3.568.144a.29.29,0,0,1,.014.068q0,.062-.157.1l-.444.116a.978.978,0,0,1-.178.034q-.068,0-.089-.1a9.954,9.954,0,0,0-.711-2.276.207.207,0,0,1-.021-.068q0-.048.171-.1l.39-.109a.561.561,0,0,1,.116-.021q.055,0,.109.089A10.742,10.742,0,0,1,23.283,65.267Zm-3.124.109a.288.288,0,0,1,.007.048q0,.082-.171.1l-.479.055q-.075.007-.109.007-.1,0-.1-.123a9.826,9.826,0,0,0-.39-2.249.555.555,0,0,1-.007-.068q0-.068.205-.1l.39-.068a.474.474,0,0,1,.1-.014q.075,0,.1.109A11.515,11.515,0,0,1,20.159,65.376ZM40.3,54.281l-.027,2.194v6.214l.014,1.88a1.126,1.126,0,0,1-.41.964,3.382,3.382,0,0,1-1.736.28.484.484,0,0,1-.267-.041.581.581,0,0,1-.082-.239,1.71,1.71,0,0,0-.253-.643q.636.055,1.388.055.492,0,.492-.561V61.432H35.506V63.1l.027,2.317a.1.1,0,0,1-.116.116h-.67q-.109,0-.109-.116l.027-2.317V61.432H30.912a9.556,9.556,0,0,1-.547,2.557,7.734,7.734,0,0,1-.882,1.613q-.123.171-.164.171t-.2-.144a2.74,2.74,0,0,0-.588-.349,6.672,6.672,0,0,0,1.292-2.646,18.46,18.46,0,0,0,.349-4.061v-2.1l-.027-2.194q0-.116.109-.116l1.989.027h5.947l2-.027A.1.1,0,0,1,40.3,54.281Zm-.882,3.158V54.965H35.506v2.475Zm0,3.233V58.2H35.506v2.475Zm-4.758,0V58.2H31.028v.376q0,.916-.062,2.1Zm0-3.233V54.965H31.028v2.475Zm10.151,4.888a1.915,1.915,0,0,1,1.463.643,1.916,1.916,0,0,1-.144,2.748,1.936,1.936,0,0,1-1.319.5,1.9,1.9,0,0,1-1.463-.643,1.916,1.916,0,0,1,.144-2.748A1.936,1.936,0,0,1,44.816,62.327Zm0,.7a1.269,1.269,0,0,0-1.251,1.251,1.253,1.253,0,0,0,2.181.834,1.247,1.247,0,0,0-.93-2.085ZM3.555,81.093V78.83h.964v2.208q1.511-.1,2.591-.219v.909q-1.224.123-2.591.205v2.707a8.692,8.692,0,0,1,2.646-.479,2.9,2.9,0,0,1,2.577,1.169,3.273,3.273,0,0,1,.533,1.894,2.654,2.654,0,0,1-1.3,2.591,6.067,6.067,0,0,1-2.707.465v-.9a3.954,3.954,0,0,0,2.167-.444,2.048,2.048,0,0,0,.772-1.825,2.11,2.11,0,0,0-.6-1.524,1.724,1.724,0,0,0-1.285-.561,7.651,7.651,0,0,0-2.8.533v3.609a1.437,1.437,0,0,1-.273,1,1.054,1.054,0,0,1-.786.26,2.259,2.259,0,0,1-1.189-.376,2.427,2.427,0,0,1-1.347-2.03q0-1.736,2.632-3.049v-3q-.813.048-2.434.075v-.9Q2.434,81.154,3.555,81.093Zm0,4.9a5.118,5.118,0,0,0-1.306,1.019,1.511,1.511,0,0,0-.39.984,1.078,1.078,0,0,0,.335.759,1.888,1.888,0,0,0,.69.458.9.9,0,0,0,.39.1q.28,0,.28-.465Zm3.9-5.64.6-.731a12.831,12.831,0,0,1,2.816,2.229l-.684.772A11,11,0,0,0,7.458,80.354Zm17.295,6.009a2.1,2.1,0,0,0-.362.595q-.089.212-.171.212a1.478,1.478,0,0,1-.191-.027,21.157,21.157,0,0,1-5.6-1.887,14.8,14.8,0,0,1-3.514,1.511q.28.027,1.8.027h3.3l1.866-.027q.109,0,.109.1l-.027,1.08v1.176l.027,1.8q0,.1-.109.1h-.636q-.109,0-.109-.1v-.588h-5.53V90.9q0,.1-.109.1h-.636q-.109,0-.109-.1l.027-1.777V88.065l-.027-1.2v-.041q-.807.246-1.948.513a1.079,1.079,0,0,1-.205.041q-.089,0-.185-.205a1.491,1.491,0,0,0-.349-.513,19.32,19.32,0,0,0,5.612-1.839A10.515,10.515,0,0,1,15.8,83.308a12.489,12.489,0,0,1-2.215,1.49,1.187,1.187,0,0,1-.226.1q-.041,0-.15-.157a1.274,1.274,0,0,0-.424-.417A10.162,10.162,0,0,0,16.6,81.394a3.067,3.067,0,0,0,.369-.643,5.962,5.962,0,0,1,.731.232q.123.068.123.144t-.144.185a1.613,1.613,0,0,0-.294.308q-.185.239-.308.376h3.473a.782.782,0,0,0,.335-.055.317.317,0,0,1,.13-.041q.109,0,.39.28.239.253.239.376a.206.206,0,0,1-.144.2,1.379,1.379,0,0,0-.417.321,15.543,15.543,0,0,1-1.935,1.688A20.55,20.55,0,0,0,24.753,86.363ZM21.144,89.61V87.5h-5.53V89.61Zm-.711-6.945H16.481l-.171.185a10.306,10.306,0,0,0,2.105,1.524A12.59,12.59,0,0,0,20.433,82.665Zm3.5-.137a.1.1,0,0,1-.109.109h-.636a.1.1,0,0,1-.109-.109V80.56H13.487v1.969a.1.1,0,0,1-.109.109h-.636a.1.1,0,0,1-.109-.109l.027-1.449v-.437l-.027-.725a.1.1,0,0,1,.109-.109l1.935.027H17.76v-.547a3.786,3.786,0,0,0-.1-.95q.41.021.923.068.171.021.171.116a.846.846,0,0,1-.082.26,1.819,1.819,0,0,0-.068.547v.506h3.288l1.935-.027a.1.1,0,0,1,.109.109l-.027.629v.533Zm14.841,7.007a1.86,1.86,0,0,0-.451.479q-.089.171-.164.171a.433.433,0,0,1-.2-.1,10.65,10.65,0,0,1-2.331-2.01,8.641,8.641,0,0,1-1.278-2.112q.055,2.939.055,3.657a1.138,1.138,0,0,1-.362.991,2.854,2.854,0,0,1-1.415.239.264.264,0,0,1-.369-.28,1.561,1.561,0,0,0-.246-.588,8.255,8.255,0,0,0,.923.055.82.82,0,0,0,.554-.123.62.62,0,0,0,.1-.424V87.888q-1.244.807-2.769,1.62a1.943,1.943,0,0,0-.506.314q-.089.109-.157.109t-.123-.123q-.144-.253-.362-.745a4.57,4.57,0,0,0,.807-.294,26.732,26.732,0,0,0,3.11-1.7V85.03h-1.3l-1.935.027q-.1,0-.1-.109V84.4q0-.109.1-.109l1.935.027h1.3V83.062h-.8l-1.764.027q-.109,0-.109-.116V82.46q0-.116.109-.116l1.764.027h.8v-1.2H32.6l-1.88.027q-.109,0-.109-.1v-.554a.1.1,0,0,1,.109-.109l1.88.027h2.085a12.2,12.2,0,0,0,.752-1.429,2.654,2.654,0,0,0,.185-.588,5.367,5.367,0,0,1,.725.212q.171.048.171.15,0,.075-.137.185a.677.677,0,0,0-.2.267,12.632,12.632,0,0,1-.7,1.2h.465l1.846-.027q.13,0,.13.109V81.1q0,.1-.13.1l-1.846-.027H34.378v1.2h1.176l1.75-.027q.109,0,.109.116v.513q0,.116-.109.116l-1.75-.027H34.378v1.258h1.941l1.935-.027a.1.1,0,0,1,.109.109v.547a.1.1,0,0,1-.109.109l-1.935-.027h-1.8a9.615,9.615,0,0,0,1.189,2.03,11.044,11.044,0,0,0,1.121-1.053,1.977,1.977,0,0,0,.335-.485,4.885,4.885,0,0,1,.574.444.258.258,0,0,1,.116.185q0,.109-.137.15a1.1,1.1,0,0,0-.424.294,13.718,13.718,0,0,1-1.135,1A10.167,10.167,0,0,0,38.773,89.535ZM30.229,81.92q0,.116-.109.116l-1.258-.027h-.089a9.323,9.323,0,0,0,1.442,3.035,1.831,1.831,0,0,0-.349.533q-.068.15-.123.15t-.13-.15a12.545,12.545,0,0,1-.964-2.673q.007,2.755.082,5.79.014.759.041,1.7.014.465.014.506a.085.085,0,0,1-.1.1h-.67q-.116,0-.116-.1s.009-.406.027-1.2q.1-3.541.116-6.6a15.75,15.75,0,0,1-1.641,4.437q-.089.157-.137.157-.075,0-.116-.137a1.211,1.211,0,0,0-.362-.547,15.308,15.308,0,0,0,2.058-5h-.308l-1.271.027a.1.1,0,0,1-.116-.116v-.547q0-.123.116-.123l1.271.027h.417v-1.2a8.8,8.8,0,0,0-.109-1.668,6.61,6.61,0,0,1,.882.089q.171.021.171.123a.676.676,0,0,1-.082.253,4.858,4.858,0,0,0-.075,1.189v1.217h.116l1.258-.027q.109,0,.109.123Zm2.146,4.819q.048.048.048.075t-.1.137l-.294.273q-.116.123-.164.123-.027,0-.068-.062a6.8,6.8,0,0,0-1.176-1.306q-.055-.041-.055-.068t.109-.137l.239-.226q.109-.1.15-.1t.068.048A6.8,6.8,0,0,1,32.375,86.739Zm.725-6.918a.168.168,0,0,1,.014.062q0,.048-.1.109l-.41.219a.44.44,0,0,1-.164.075q-.041,0-.075-.089a4.652,4.652,0,0,0-.786-1.258.112.112,0,0,1-.041-.068q0-.041.144-.116l.362-.178a.368.368,0,0,1,.123-.041.146.146,0,0,1,.1.068A6.6,6.6,0,0,1,33.1,79.821Zm12.585,1.025A22.039,22.039,0,0,1,44.2,88.209a2.1,2.1,0,0,1-1.894,1.483,1.749,1.749,0,0,1-1.606-1.06,6,6,0,0,1-.533-2.789,7.335,7.335,0,0,1,.458-2.618A5.114,5.114,0,0,1,41.665,81.5a4.675,4.675,0,0,1,1.716-1.128,5.426,5.426,0,0,1,1.969-.369A4.139,4.139,0,0,1,48.9,81.5a6.371,6.371,0,0,1,.964,3.808,5.114,5.114,0,0,1-1.121,3.4,5.6,5.6,0,0,1-3.274,1.784l-.485-.841a4.243,4.243,0,0,0,3.835-4.607,4.671,4.671,0,0,0-1.032-3.3A2.809,2.809,0,0,0,45.685,80.847Zm-1.053.109a3.075,3.075,0,0,0-1.292.4,4.459,4.459,0,0,0-1.06.93,5.252,5.252,0,0,0-1.148,3.582A4.6,4.6,0,0,0,41.542,88q.328.615.752.615a.82.82,0,0,0,.622-.26,2.544,2.544,0,0,0,.444-.759A19.819,19.819,0,0,0,44.632,80.956Zm19.5,5.018a.1.1,0,0,1-.109.109l-1.907-.027H60.566v3.363l.027,1.47a.1.1,0,0,1-.109.109h-.677a.1.1,0,0,1-.109-.109l.027-1.47V86.056H58.406l-1.9.027a.1.1,0,0,1-.109-.109v-.622a.1.1,0,0,1,.109-.109l1.9.027h1.319V79.9H58.687l-1.8.027q-.109,0-.109-.116V79.22a.1.1,0,0,1,.109-.109l1.8.027h3.124l1.839-.027a.1.1,0,0,1,.109.109v.588q0,.116-.109.116L61.811,79.9H60.566V85.27h1.552l1.907-.027a.1.1,0,0,1,.109.109ZM55.863,90.39a.1.1,0,0,1-.116.116h-.561q-.109,0-.109-.116v-.444H52.992v.711q0,.116-.109.116h-.561q-.13,0-.13-.116l.027-1.928v-.841l-.027-1.244q0-.1.123-.1l1.2.027h1.032l1.21-.027q.109,0,.109.1l-.027,1V88.5Zm-.786-1.128v-2H52.992v2Zm1.176-7.629a.1.1,0,0,1-.109.109l-1.456-.027H53.129l-1.456.027q-.1,0-.1-.109v-.595q0-.109.1-.109l1.456.027h1.559l1.456-.027a.1.1,0,0,1,.109.109Zm-.308-1.88a.1.1,0,0,1-.109.109l-1.224-.027H53.525l-1.224.027a.1.1,0,0,1-.109-.109v-.561a.1.1,0,0,1,.109-.109l1.224.027h1.087l1.224-.027a.1.1,0,0,1,.109.109ZM63.533,81.3a.248.248,0,0,1-.082.144.861.861,0,0,0-.185.308,21.18,21.18,0,0,1-1.08,2.393q-.1.185-.137.185a1.863,1.863,0,0,1-.212-.1,1.562,1.562,0,0,0-.472-.164,15.665,15.665,0,0,0,1.128-2.577,2.815,2.815,0,0,0,.13-.615,5.2,5.2,0,0,1,.786.28Q63.533,81.209,63.533,81.3Zm-4.819,2.454a.225.225,0,0,1,.014.068q0,.068-.178.137l-.335.144a.585.585,0,0,1-.185.062q-.048,0-.068-.089a15.457,15.457,0,0,0-1-2.871.17.17,0,0,1-.027-.068q0-.048.164-.116l.335-.137a.552.552,0,0,1,.15-.048q.041,0,.089.089A13.606,13.606,0,0,1,58.714,83.759Zm-2.98-.294a.1.1,0,0,1-.109.109l-1.135-.027h-.937l-1.135.027q-.116,0-.116-.109v-.547q0-.109.116-.109l1.135.027h.937l1.135-.027a.1.1,0,0,1,.109.109Zm0,1.846a.1.1,0,0,1-.109.109l-1.135-.027h-.937l-1.135.027q-.116,0-.116-.109v-.547q0-.109.116-.109l1.135.027h.937l1.135-.027a.1.1,0,0,1,.109.109Zm22.319-5.038q0,.109-.116.109l-1.955-.027H74.915v2.591h.52l1.976-.027a.1.1,0,0,1,.109.109l-.027,2.194v2.536l.027,2.816q0,.116-.109.116h-.636q-.109,0-.109-.116v-.684H70v.745a.1.1,0,0,1-.109.109h-.622a.1.1,0,0,1-.109-.109l.027-2.851V85.461l-.027-2.434a.1.1,0,0,1,.109-.109l1.948.027h.444V80.354h-.629l-1.955.027q-.116,0-.116-.109v-.581q0-.123.116-.123l1.955.027h4.949l1.955-.027q.116,0,.116.123Zm-1.388,8.873V83.67h-1.75v5.476Zm-2.536,0V83.67H72.447v5.476Zm-2.468,0V83.67H70v5.476Zm2.468-6.2V80.354H72.447v2.591Zm-5.175-4.129a.266.266,0,0,1-.123.205,1.3,1.3,0,0,0-.267.52,21.9,21.9,0,0,1-.943,2.3v6.918l.027,2.181q0,.1-.109.1h-.663q-.109,0-.109-.1l.027-2.181V85.324q0-.656.027-2.058a15.424,15.424,0,0,1-1.148,1.613q-.1.137-.164.137t-.13-.15a1.575,1.575,0,0,0-.335-.581A14.947,14.947,0,0,0,67.758,79.3a4.618,4.618,0,0,0,.185-.937,3.9,3.9,0,0,1,.854.28Q68.954,78.721,68.954,78.816Zm12.858,6.173q-.7,0-2.126-.027v-.9q.588.027,2.215.027l.219-2.283q-1,0-2.352-.027v-.9q1.189.068,2.44.068.048-.424.123-1.155.089-.813.109-1.06l1.012.075q-.048.451-.123,1.169-.082.752-.1.957,1.442-.014,3.767-.157l.014.9q-1.839.116-3.876.116-.075.834-.253,2.283,2.235-.027,3.979-.157v.9q-2.16.137-4.061.157a32.723,32.723,0,0,0-.226,3.288,1.408,1.408,0,0,0,.5,1.23,2.723,2.723,0,0,0,1.531.335A3.8,3.8,0,0,0,86.81,89.3a1.511,1.511,0,0,0,.649-1.292,3.093,3.093,0,0,0-.813-2.017l.923-.349a3.489,3.489,0,0,1,.937,2.311q0,2.816-3.9,2.816a3.309,3.309,0,0,1-2.454-.725,2.532,2.532,0,0,1-.54-1.784Q81.607,87.17,81.813,84.989Zm20.774,1.8q0,.109-.1.109l-.178-.007q-.533-.014-1.2-.021v.9l.034,1.265q0,.109-.116.109h-.615a.1.1,0,0,1-.109-.109V88.6H96.776l.014,1.025a2.005,2.005,0,0,1-.1.718.782.782,0,0,1-.294.342,4.308,4.308,0,0,1-1.894.253.411.411,0,0,1-.253-.048.736.736,0,0,1-.1-.219,2.774,2.774,0,0,0-.342-.629,8.522,8.522,0,0,0,.93.062q.137,0,.308-.007a1.255,1.255,0,0,0,.752-.144.713.713,0,0,0,.144-.526V88.6H93.543l-1.976.027q-.116,0-.116-.109v-.492q0-.109.116-.109l1.976.027h2.406V86.876H92.1l-1.812.027a.1.1,0,0,1-.109-.109V86.3a.1.1,0,0,1,.109-.109l1.812.027h3.849v-.984H93.543l-1.976.027q-.116,0-.116-.1v-.506q0-.109.116-.109l1.976.027h2.406v-.95H94.1l-1.976.027q-.109,0-.109-.123l.027-.772v-.588l-.027-.772a.1.1,0,0,1,.109-.109l1.976.027h1.853V80.45H92.2l-1.832.027q-.116,0-.116-.109v-.52q0-.109.116-.109l1.832.027h3.753a6.935,6.935,0,0,0-.1-1.456,6.54,6.54,0,0,1,.909.068q.171.027.171.116a.905.905,0,0,1-.082.267,3.844,3.844,0,0,0-.068.978v.027h3.746l1.839-.027a.1.1,0,0,1,.109.109v.52a.1.1,0,0,1-.109.109l-1.839-.027H96.776v.868h1.9l1.989-.027a.1.1,0,0,1,.109.109l-.027.772v.588l.027.772q0,.123-.109.123l-1.989-.027h-1.9v.95h2.249l2.01-.027a.1.1,0,0,1,.109.109l-.034,1.251v.308l1.374-.027q.1,0,.1.109ZM100.3,87.942V86.876H96.776v1.066Zm0-1.723v-.984H96.776v.984Zm-.321-3.206v-1.08H96.776v1.08Zm-4.033,0v-1.08H92.812v1.08Zm14.068,6.679a1.186,1.186,0,0,1-.294.937,3.387,3.387,0,0,1-1.6.226.546.546,0,0,1-.26-.034.614.614,0,0,1-.075-.232,1.944,1.944,0,0,0-.253-.561q.6.041,1.053.041a.806.806,0,0,0,.513-.109.492.492,0,0,0,.1-.362V87.9h-2.953v1.162l.027,1.818q0,.1-.109.1h-.636q-.109,0-.109-.1l.027-1.818V84.627l-.027-1.853a.1.1,0,0,1,.109-.109l1.415.027h1.545l1.415-.027a.1.1,0,0,1,.109.109L109.99,84.7v3.151Zm-.813-2.536V85.618h-2.953v1.538Zm0-2.249v-1.49h-2.953v1.49Zm7.308-3.568q0,.109-.116.109l-1.832-.027h-8.326l-1.825.027a.1.1,0,0,1-.109-.109V80.73a.1.1,0,0,1,.109-.109l1.825.027h4.956a15.964,15.964,0,0,0,1.087-1.627,3.514,3.514,0,0,0,.308-.738,5.771,5.771,0,0,1,.841.267q.144.055.144.15t-.13.171a2.683,2.683,0,0,0-.444.574q-.4.608-.868,1.2h2.434l1.832-.027q.116,0,.116.109Zm-.964,1.285a1.063,1.063,0,0,1-.1.28,6.289,6.289,0,0,0-.055,1.176v3.445l.014,1.955a1.245,1.245,0,0,1-.39,1.08,1.411,1.411,0,0,1-.629.212,12.28,12.28,0,0,1-1.237.041.465.465,0,0,1-.26-.041.623.623,0,0,1-.089-.239,1.521,1.521,0,0,0-.267-.6,11.393,11.393,0,0,0,1.319.068.8.8,0,0,0,.567-.144.767.767,0,0,0,.144-.54V84.094a9.328,9.328,0,0,0-.1-1.654q.485.021.909.075Q115.548,82.535,115.548,82.624Zm-2.789.615a.361.361,0,0,1-.034.123.892.892,0,0,0-.048.116,7.227,7.227,0,0,0-.055,1.258v1.791l.027,1.442q0,.109-.1.109h-.636a.1.1,0,0,1-.109-.109l.027-1.442V84.75a10.431,10.431,0,0,0-.1-1.723,8.387,8.387,0,0,1,.868.082Q112.759,83.137,112.759,83.239Zm-3.767-3.274a.161.161,0,0,1,.021.068q0,.048-.171.123l-.4.157a.585.585,0,0,1-.185.062q-.048,0-.082-.089a8.922,8.922,0,0,0-.882-1.531.166.166,0,0,1-.041-.082q0-.048.144-.1l.39-.157a.627.627,0,0,1,.164-.055.129.129,0,0,1,.089.055A7.82,7.82,0,0,1,108.992,79.965Zm12.742,6.467.957.082a5.457,5.457,0,0,0-.157,1.258,1.054,1.054,0,0,0,.444.978,3.167,3.167,0,0,0,1.545.273,25.984,25.984,0,0,0,2.769-.144l.027,1.012q-1.025.082-2.659.082a4.349,4.349,0,0,1-2.44-.492,1.783,1.783,0,0,1-.636-1.552A7.22,7.22,0,0,1,121.734,86.432Zm.28-4.676V80.8q1.75-.137,3.541-.137.889,0,1.668.041v.95q-.725-.055-1.764-.055Q123.669,81.6,122.015,81.756ZM120.5,79.343a36.344,36.344,0,0,0-.786,6.61,24.829,24.829,0,0,0,.342,4.382l-1,.082a28.849,28.849,0,0,1-.321-4.491,40.268,40.268,0,0,1,.772-6.665ZM141.449,90.1a.1.1,0,0,1-.116.116l-1.7-.027h-4.081v.684a.1.1,0,0,1-.116.116h-.561q-.109,0-.109-.116L134.8,89.5V85.994q0-.52.027-1.415-.28.355-.909,1.039-.1.1-.137.1-.068,0-.13-.137a1.166,1.166,0,0,0-.308-.465,11.1,11.1,0,0,0,2.816-4.19H134.5v1.237a.1.1,0,0,1-.109.109h-.561q-.116,0-.116-.109l.027-1.066v-.28l-.027-.506a.1.1,0,0,1,.109-.109l1.907.027h.656q.089-.273.185-.615a5.448,5.448,0,0,0,.178-1.217l.8.15q.2.055.2.157a.407.407,0,0,1-.13.219,2.4,2.4,0,0,0-.219.663l-.2.643h2.2l1.921-.027a.1.1,0,0,1,.109.109l-.034.451v.321l.034,1.046a.1.1,0,0,1-.116.116h-.574q-.109,0-.109-.116v-1.2h-3.685a13.263,13.263,0,0,1-1.06,2.133h1.8q.267-.533.424-.943a3.387,3.387,0,0,0,.185-.725q.267.068.684.191.171.068.171.171a.238.238,0,0,1-.109.171,1.024,1.024,0,0,0-.212.349q-.267.608-.355.786h.827l1.586-.027a.1.1,0,0,1,.109.109v.506a.1.1,0,0,1-.109.109l-1.586-.027h-.95v1.442h.547l1.75-.027a.1.1,0,0,1,.109.109v.479q0,.123-.109.123l-1.75-.027h-.547V87.3h.547l1.764-.027a.1.1,0,0,1,.109.109v.492a.1.1,0,0,1-.109.109l-1.764-.027h-.547V89.5h1.285l1.7-.027q.116,0,.116.109Zm-3.842-.595V87.956h-2.051V89.5Zm0-2.2V85.823h-2.051V87.3Zm0-2.133V83.725h-2.051v1.442Zm-4.026-5.024q0,.116-.13.116l-1.395-.034h-.185a13.5,13.5,0,0,1-1.094,3.5h1.374l.984-.027a.1.1,0,0,1,.109.109l-.034,1.654v1.292l.034,2.461q0,.1-.116.1H132.6q-.109,0-.109-.1v-.561h-1.538V89.9a.1.1,0,0,1-.109.109h-.554a.1.1,0,0,1-.109-.109l.027-2.632V84.825a13.78,13.78,0,0,1-.841,1.292q-.1.144-.15.144t-.144-.171a1.947,1.947,0,0,0-.321-.506,9.718,9.718,0,0,0,1.538-2.563,11.771,11.771,0,0,0,.786-2.8h-.349l-1.415.034q-.109,0-.109-.116v-.574a.1.1,0,0,1,.109-.109l1.415.027h1.333l1.395-.027q.13,0,.13.109Zm-1.094,7.8V84.436h-1.538v3.507Zm22.552-8.764q-.021.164-.055.9a15.264,15.264,0,0,1-.437,3.835,1.181,1.181,0,0,1-1.258.786,9.25,9.25,0,0,1-.937-.041q-.171-.021-.205-.068a.671.671,0,0,1-.062-.239,1.622,1.622,0,0,0-.2-.574,6.492,6.492,0,0,0,1.2.123.665.665,0,0,0,.69-.376,12.933,12.933,0,0,0,.376-3.712h-2.468a7.849,7.849,0,0,1-.417,2.058q.752.376,1.292.67.062.027.062.062a.686.686,0,0,1-.068.15l-.178.376q-.075.15-.137.15a.183.183,0,0,1-.089-.034q-.472-.28-1.176-.656a5.778,5.778,0,0,1-2.55,2.563.645.645,0,0,1-.226.082q-.082,0-.191-.185a1.324,1.324,0,0,0-.424-.4,5.146,5.146,0,0,0,2.693-2.4,17.092,17.092,0,0,0-1.641-.656q-.068-.021-.068-.055a.542.542,0,0,1,.055-.144l.164-.362q.055-.1.116-.1a.215.215,0,0,1,.082.021q.95.328,1.572.6a6.667,6.667,0,0,0,.321-1.736h-.588l-1.764.027q-.116,0-.116-.109v-.561q0-.109.116-.109l1.764.027h2.823l1.8-.027A.109.109,0,0,1,155.039,79.179Zm-7.656,11.382q0,.109-.116.109h-.561a.1.1,0,0,1-.109-.109v-.451h-2.085v.725q0,.116-.109.116h-.561q-.13,0-.13-.116l.027-2.037v-.841l-.027-1.244q0-.1.123-.1l1.2.027h1.032l1.21-.027q.109,0,.109.1l-.027,1v.854Zm-.786-1.135v-2.1h-2.085v2.1ZM153.891,89a3.9,3.9,0,0,1-.232,1.025,1.027,1.027,0,0,1-.458.485,3.067,3.067,0,0,1-1.436.239,3.568,3.568,0,0,1-1.292-.157.875.875,0,0,1-.506-.923v-2.44a9.294,9.294,0,0,0-.055-1.073,5.391,5.391,0,0,1,.779.082q.171.041.171.109a.847.847,0,0,1-.055.171,2.024,2.024,0,0,0-.068.656v2.16a.957.957,0,0,0,.055.4.43.43,0,0,0,.212.164,2.392,2.392,0,0,0,.786.082,2.082,2.082,0,0,0,.978-.137q.355-.26.376-1.477a1.686,1.686,0,0,0,.52.28q.232.082.232.232Q153.9,88.906,153.891,89Zm-6.036-7.376a.1.1,0,0,1-.109.109l-1.456-.027h-1.627l-1.456.027q-.1,0-.1-.109v-.595q0-.109.1-.109l1.456.027h1.627l1.456-.027a.1.1,0,0,1,.109.109Zm-.417-1.907q0,.109-.116.109l-1.217-.027h-1.087l-1.224.027a.1.1,0,0,1-.109-.109v-.561q0-.116.109-.116l1.224.034H146.1l1.217-.034a.1.1,0,0,1,.116.116Zm-.226,5.64a.1.1,0,0,1-.109.109l-1.135-.027h-.882l-1.135.027q-.116,0-.116-.109V84.8q0-.109.116-.109l1.135.027h.882L147.1,84.7a.1.1,0,0,1,.109.109Zm0-1.873a.1.1,0,0,1-.109.109l-1.135-.027h-.882l-1.135.027q-.116,0-.116-.109v-.547q0-.109.116-.109l1.135.027h.882l1.135-.027a.1.1,0,0,1,.109.109Zm2,3.5a9.016,9.016,0,0,1-.786,2.632q-.041.075-.082.075a.62.62,0,0,1-.157-.048l-.335-.171q-.164-.089-.164-.144a.207.207,0,0,1,.021-.068,6.955,6.955,0,0,0,.759-2.475q.014-.1.082-.1a.545.545,0,0,1,.144.034l.376.109q.15.048.15.109A.287.287,0,0,1,149.215,86.979Zm6.535,1.928a.217.217,0,0,1,.014.062q0,.041-.164.137l-.335.171a.728.728,0,0,1-.171.068q-.041,0-.068-.075a8.586,8.586,0,0,0-1.251-2.393.1.1,0,0,1-.027-.055q0-.034.171-.109l.308-.144a.4.4,0,0,1,.15-.062q.034,0,.089.075A10.514,10.514,0,0,1,155.75,88.906Zm-2.9-2.782q.062.055.062.089t-.116.164l-.267.26q-.13.137-.164.137a.11.11,0,0,1-.075-.048,6.894,6.894,0,0,0-1.7-1.47q-.062-.048-.062-.068t.109-.13l.267-.253q.1-.1.13-.1a.2.2,0,0,1,.1.041A11.427,11.427,0,0,1,152.852,86.124Zm11.143-3.281.718-.273a18.274,18.274,0,0,1,1.032,2.365l-.752.308A15.123,15.123,0,0,0,163.994,82.843Zm1.586-.472.7-.253a11.566,11.566,0,0,1,1,2.3l-.731.294A13.487,13.487,0,0,0,165.58,82.371Zm.39-2.632L166,80.7a5.312,5.312,0,0,0-2.311.629,5.934,5.934,0,0,0-2.071,1.962,4.817,4.817,0,0,0-.813,2.659,2.958,2.958,0,0,0,1.285,2.529,6.17,6.17,0,0,0,2.933,1l-.239,1a6.1,6.1,0,0,1-3.63-1.381,3.89,3.89,0,0,1-1.312-3.049,5.709,5.709,0,0,1,2.994-5.024l.759-.335-.014-.027-.656.109q-1.189.068-5.66.479l-.082-.923Q159.182,80.177,165.97,79.739Zm8.565,3.931a12.542,12.542,0,0,0,2.078,2.857l-.574.9a7.984,7.984,0,0,0-3.657-.854,3.849,3.849,0,0,0-2,.444,1.157,1.157,0,0,0-.643,1.012q0,.813,1.1,1.21a7.484,7.484,0,0,0,2.5.335q.82,0,1.976-.089v.984q-.615.041-2.017.041-4.546,0-4.546-2.365a1.971,1.971,0,0,1,1.066-1.8,5.521,5.521,0,0,1,2.741-.567,6.3,6.3,0,0,1,2.851.615,11.321,11.321,0,0,1-1.832-2.591,34.235,34.235,0,0,1-4.341.28l-.137-.854A33.363,33.363,0,0,0,173.182,83q-.444-1.019-.69-1.682-1.757.185-3.794.226l-.123-.882a34.558,34.558,0,0,0,3.637-.171q-.205-.567-.526-1.62l1-.1q.246.9.479,1.62,1.422-.171,3.063-.52l.144.854q-1.647.328-2.912.479a16.615,16.615,0,0,0,.684,1.668q1.47-.212,2.6-.479l.171.841Q175.813,83.472,174.535,83.67Zm5.66-4.129q1.853-.014,5.694-.2l.588.731q-2.728,2.769-4.327,4.156l-.629.547.055.041.718-.485a4.614,4.614,0,0,1,1.976-.533,3.547,3.547,0,0,1,2.707,1,3.071,3.071,0,0,1,.807,2.208A3.316,3.316,0,0,1,186.5,89.85a5.317,5.317,0,0,1-3.22.848q-2.741,0-2.741-1.859a1.625,1.625,0,0,1,.588-1.312,2.172,2.172,0,0,1,1.429-.451,2.3,2.3,0,0,1,1.777.752,3.445,3.445,0,0,1,.786,1.682,2.579,2.579,0,0,0,1.258-.978,2.922,2.922,0,0,0,.362-1.538,2.231,2.231,0,0,0-.868-1.873,2.671,2.671,0,0,0-1.668-.526,4.9,4.9,0,0,0-3.384,1.36,12.448,12.448,0,0,0-1.162,1.217l-.827-.67q3.35-3.445,6.132-6.275-2.01.15-4.771.226Zm3.944,10.247a3.024,3.024,0,0,0-.622-1.429,1.275,1.275,0,0,0-.984-.472,1.119,1.119,0,0,0-.807.3.828.828,0,0,0-.273.622.87.87,0,0,0,.465.827,2.872,2.872,0,0,0,1.3.226A6.036,6.036,0,0,0,184.14,89.788Zm11.006-8.941a22.039,22.039,0,0,1-1.483,7.362,2.1,2.1,0,0,1-1.894,1.483,1.749,1.749,0,0,1-1.606-1.06,6,6,0,0,1-.533-2.789,7.335,7.335,0,0,1,.458-2.618,5.114,5.114,0,0,1,1.039-1.723,4.675,4.675,0,0,1,1.716-1.128,5.426,5.426,0,0,1,1.969-.369,4.139,4.139,0,0,1,3.555,1.5,6.371,6.371,0,0,1,.964,3.808,5.114,5.114,0,0,1-1.121,3.4,5.6,5.6,0,0,1-3.274,1.784l-.485-.841a4.243,4.243,0,0,0,3.835-4.607,4.67,4.67,0,0,0-1.032-3.3A2.809,2.809,0,0,0,195.146,80.847Zm-1.053.109a3.075,3.075,0,0,0-1.292.4,4.459,4.459,0,0,0-1.06.93,5.252,5.252,0,0,0-1.148,3.582A4.6,4.6,0,0,0,191,88q.328.615.752.615a.82.82,0,0,0,.622-.26,2.544,2.544,0,0,0,.444-.759A19.819,19.819,0,0,0,194.093,80.956Zm13.774,1.887.718-.273a18.274,18.274,0,0,1,1.032,2.365l-.752.308A15.123,15.123,0,0,0,207.867,82.843Zm1.586-.472.7-.253a11.566,11.566,0,0,1,1,2.3l-.731.294A13.487,13.487,0,0,0,209.453,82.371Zm.39-2.632.027.964a5.312,5.312,0,0,0-2.311.629,5.934,5.934,0,0,0-2.071,1.962,4.817,4.817,0,0,0-.813,2.659,2.958,2.958,0,0,0,1.285,2.529,6.17,6.17,0,0,0,2.933,1l-.239,1a6.1,6.1,0,0,1-3.63-1.381,3.89,3.89,0,0,1-1.312-3.049,5.709,5.709,0,0,1,2.994-5.024l.759-.335-.014-.027-.656.109q-1.189.068-5.66.479l-.082-.923Q203.055,80.177,209.843,79.739Zm3.124,7.738a14.949,14.949,0,0,1,1.641,1.531,10.045,10.045,0,0,1,1.169,1.483l-.923.684a11.119,11.119,0,0,0-2.7-3.035ZM233.755,84.2q0,.116-.171.212a2.011,2.011,0,0,0-.5.465,11.817,11.817,0,0,1-1.812,1.736q-.144.123-.2.123a.871.871,0,0,1-.232-.157,2.794,2.794,0,0,0-.608-.335,8.584,8.584,0,0,0,1.989-1.736h-3.89V87.58l.014,1.914a1.242,1.242,0,0,1-.362,1.025,3.378,3.378,0,0,1-1.709.267h-.294q-.232,0-.273-.048a.64.64,0,0,1-.089-.246,2.856,2.856,0,0,0-.28-.69,14.116,14.116,0,0,0,1.456.089.739.739,0,0,0,.513-.13.585.585,0,0,0,.116-.417V84.511h-3.541l-1.866.027a.1.1,0,0,1-.109-.109v-.677a.1.1,0,0,1,.109-.109l1.866.027h4.4a14.828,14.828,0,0,0-2.953-2.126q-.075-.041-.075-.062a.6.6,0,0,1,.1-.15l.28-.321q.075-.082.116-.082a.148.148,0,0,1,.075.034,15.894,15.894,0,0,1,1.784,1.1,17.942,17.942,0,0,0,3.09-2.071h-5.5l-1.969.027q-.1,0-.1-.109v-.649q0-.109.1-.109l1.969.027h5.865a1.046,1.046,0,0,0,.342-.041,1.255,1.255,0,0,1,.191-.068q.13,0,.438.308t.308.465q0,.116-.2.191a1.606,1.606,0,0,0-.485.294,18.988,18.988,0,0,1-3.363,2.235q.253.205.841.731.048.041.048.062a.686.686,0,0,1-.123.13l-.191.185H232.5a.792.792,0,0,0,.355-.055.42.42,0,0,1,.164-.055,1.068,1.068,0,0,1,.451.267Q233.755,84.073,233.755,84.2Zm7.369,1.306a.268.268,0,0,1,.021.089q0,.075-.178.13l-.321.1a.579.579,0,0,1-.137.027q-.062,0-.082-.089-.205-.629-.267-.807l-1.347.137v3.753l.027,2.044q0,.1-.109.1H238.1q-.109,0-.109-.1l.027-2.044V85.167l-1.538.116a1.534,1.534,0,0,0-.533.109.422.422,0,0,1-.157.055q-.089,0-.137-.178-.055-.212-.144-.772.444.041.882.041h.171q.5-.649,1.053-1.456a19.585,19.585,0,0,0-2.064-2.153.146.146,0,0,1-.062-.1q0-.041.109-.157l.239-.294q.089-.1.13-.1t.089.062l.533.52q.52-.807.923-1.586a3.59,3.59,0,0,0,.369-.95q.376.15.779.349.157.075.157.185,0,.075-.123.15a.821.821,0,0,0-.239.294q-.738,1.224-1.347,2.085.479.479.937,1.025.52-.834.909-1.5a6.473,6.473,0,0,0,.561-1.189,5.8,5.8,0,0,1,.772.39.209.209,0,0,1,.123.171q0,.089-.137.178a2.63,2.63,0,0,0-.492.615q-1.155,1.846-2.338,3.418,1.354-.075,2.468-.164a10.8,10.8,0,0,0-.547-1.08.168.168,0,0,1-.027-.075q0-.055.164-.123l.253-.1a.369.369,0,0,1,.15-.048q.055,0,.1.075A14.107,14.107,0,0,1,241.124,85.509Zm6.31-4.58q-.027.355-.027,1.066a45.94,45.94,0,0,1-.451,6.788,3.462,3.462,0,0,1-.608,1.634,1.439,1.439,0,0,1-1.142.479,10.86,10.86,0,0,1-1.3-.068.457.457,0,0,1-.267-.075.769.769,0,0,1-.082-.26,2.124,2.124,0,0,0-.226-.629,12.161,12.161,0,0,0,1.818.191.759.759,0,0,0,.69-.506,4.283,4.283,0,0,0,.294-1.073,44.315,44.315,0,0,0,.39-6.87h-4.088a11.224,11.224,0,0,1-1.176,1.818q-.116.157-.2.157t-.205-.144a1.731,1.731,0,0,0-.451-.335,10.017,10.017,0,0,0,2.03-3.568A5.634,5.634,0,0,0,242.7,78.3a6.023,6.023,0,0,1,.868.226q.2.068.2.171a.392.392,0,0,1-.123.246,1.736,1.736,0,0,0-.355.677q-.144.451-.479,1.217H245.8l1.511-.027A.109.109,0,0,1,247.434,80.929Zm-2.9,5.558a.221.221,0,0,1,.034.089q0,.055-.144.137l-.39.219a.535.535,0,0,1-.185.089q-.041,0-.082-.082a11.6,11.6,0,0,0-1.7-2.68.131.131,0,0,1-.048-.082q0-.048.144-.137l.349-.212a.282.282,0,0,1,.13-.062q.034,0,.082.062A11.163,11.163,0,0,1,244.535,86.486Zm-7.349-.014a.658.658,0,0,1-.068.164,1.3,1.3,0,0,0-.1.41,11.775,11.775,0,0,1-.684,2.728q-.055.2-.123.2a.525.525,0,0,1-.212-.109,1.1,1.1,0,0,0-.479-.212,10.723,10.723,0,0,0,.759-2.762,2.921,2.921,0,0,0,.034-.437q0-.089-.007-.232a5.671,5.671,0,0,1,.684.109Q237.187,86.37,237.187,86.473Zm3.9,2.475A.224.224,0,0,1,241.1,89q0,.1-.171.157l-.335.1a.611.611,0,0,1-.157.034q-.055,0-.082-.1a14.686,14.686,0,0,0-.731-2.687.262.262,0,0,1-.021-.082q0-.075.164-.116l.294-.082a.561.561,0,0,1,.116-.021q.068,0,.123.1A13.74,13.74,0,0,1,241.09,88.947ZM255.2,85.618v2.769h-.937V86.049q-.321.164-.663.355-1.791,1.012-1.791,2.03a.927.927,0,0,0,.629.943,6.4,6.4,0,0,0,2.078.232q1.47,0,3.411-.171l.041.95q-2.55.13-3.384.13a5.879,5.879,0,0,1-2.967-.513,1.772,1.772,0,0,1-.7-1.6,3.066,3.066,0,0,1,1.88-2.55q.711-.4,1.456-.772-.068-1.312-.909-1.312-1.176,0-3.227,2.365l-.725-.643a16.349,16.349,0,0,0,2.9-4.136q-1.278.021-2.563,0V80.5q1.477.027,2.953,0a12.511,12.511,0,0,0,.629-1.873l1.012.185a14.377,14.377,0,0,1-.588,1.647q1.969-.062,3.739-.239l.027.854q-2.3.185-4.143.239a14.3,14.3,0,0,1-1.176,1.989l-.355.362.041.055a2.492,2.492,0,0,1,1.668-.711,1.521,1.521,0,0,1,1.114.424,1.982,1.982,0,0,1,.526,1.217q1.094-.5,2.844-1.237l.39.957Q256.129,85.208,255.2,85.618Zm15.094-5.763q0,.123-.171.171a2.153,2.153,0,0,0-.554.349,19.852,19.852,0,0,1-2.9,1.873v1.121h.253l1.3-.027q.1,0,.1.109v.506q0,.109-.1.109l-1.3-.027h-.253V85.3h.417l1.429-.027q.116,0,.116.109v.492q0,.109-.116.109l-1.429-.027h-.417v1.319h.923l1.736-.027a.1.1,0,0,1,.109.109v.506a.1.1,0,0,1-.109.109l-1.736-.027h-.923l.027,1.524a1.129,1.129,0,0,1-.294.882,2.587,2.587,0,0,1-1.552.3q-.2,0-.437-.007a.468.468,0,0,1-.253-.041.95.95,0,0,1-.1-.253,1.948,1.948,0,0,0-.294-.6,10.492,10.492,0,0,0,1.442.082.836.836,0,0,0,.52-.116.5.5,0,0,0,.137-.4V87.942h-.923l-1.736.027q-.13,0-.13-.109v-.506q0-.109.13-.109l1.736.027h.923V85.953h-.451l-1.442.027a.1.1,0,0,1-.109-.109v-.492a.1.1,0,0,1,.109-.109l1.442.027h.451V84.039h-.308l-1.292.027q-.1,0-.1-.109v-.506q0-.109.1-.109l1.292.027h.308v-.308a9.014,9.014,0,0,0-.1-1.6l.629.13a17.836,17.836,0,0,0,2.481-1.682H264.12l-1.921.027a.1.1,0,0,1-.109-.109v-.595a.1.1,0,0,1,.109-.109l1.921.027h4.929a.876.876,0,0,0,.39-.055.384.384,0,0,1,.157-.041q.116,0,.39.294A.981.981,0,0,1,270.293,79.855Zm2.522,9.167a2,2,0,0,0-.52.458q-.123.171-.185.171t-.205-.171a11.49,11.49,0,0,1-2.229-3.295,15.846,15.846,0,0,1-1.135-3.9.413.413,0,0,1-.007-.062q0-.062.191-.109l.362-.1A.369.369,0,0,1,269.2,82q.048,0,.062.089a20.243,20.243,0,0,0,.485,2.16,15.864,15.864,0,0,0,1.613-1.75,3.078,3.078,0,0,0,.4-.67,4.1,4.1,0,0,1,.643.492.332.332,0,0,1,.13.205q0,.1-.15.171a2.118,2.118,0,0,0-.581.52,22.239,22.239,0,0,1-1.791,1.818A10.111,10.111,0,0,0,272.815,89.022Zm-8.736-6.091a.211.211,0,0,1-.109.171.6.6,0,0,0-.212.349,12.336,12.336,0,0,1-3.179,6.077.644.644,0,0,1-.2.137q-.048,0-.191-.164a1.414,1.414,0,0,0-.465-.41,10.924,10.924,0,0,0,3.329-5.92h-1.408l-1.224.027a.1.1,0,0,1-.109-.109v-.561q0-.13.109-.13l1.224.027h1.381a.708.708,0,0,0,.253-.027.466.466,0,0,1,.171-.055q.109,0,.362.239Q264.079,82.85,264.079,82.932Zm11.286-3.391q1.853-.014,5.694-.2l.588.731q-2.728,2.769-4.327,4.156l-.629.547.055.041.718-.485a4.614,4.614,0,0,1,1.976-.533,3.547,3.547,0,0,1,2.707,1,3.071,3.071,0,0,1,.807,2.208,3.316,3.316,0,0,1-1.278,2.844,5.317,5.317,0,0,1-3.22.848q-2.741,0-2.741-1.859a1.625,1.625,0,0,1,.588-1.312,2.172,2.172,0,0,1,1.429-.451,2.3,2.3,0,0,1,1.777.752,3.444,3.444,0,0,1,.786,1.682,2.579,2.579,0,0,0,1.258-.978,2.922,2.922,0,0,0,.362-1.538,2.231,2.231,0,0,0-.868-1.873,2.671,2.671,0,0,0-1.668-.526,4.9,4.9,0,0,0-3.384,1.36,12.446,12.446,0,0,0-1.162,1.217L274,86.5q3.35-3.445,6.132-6.275-2.01.15-4.771.226Zm3.944,10.247a3.024,3.024,0,0,0-.622-1.429,1.275,1.275,0,0,0-.984-.472,1.119,1.119,0,0,0-.807.3.828.828,0,0,0-.273.622.87.87,0,0,0,.465.827,2.872,2.872,0,0,0,1.3.226A6.036,6.036,0,0,0,279.31,89.788Zm8.989-7.349a41.522,41.522,0,0,1-2.646,7.841l-.923-.362a37.251,37.251,0,0,0,2.563-7.41q-.848.062-2.577.226l-.055-.882q.513-.034,1.518-.1l1.313-.089q.26-1.183.533-2.782l.991.137q-.308,1.6-.533,2.591.786-.055,1.429-.055a1.428,1.428,0,0,1,1.278.567,3.662,3.662,0,0,1,.4,1.982,19.506,19.506,0,0,1-.437,4.97,1.777,1.777,0,0,1-.636,1,1.828,1.828,0,0,1-1.073.28,9.249,9.249,0,0,1-1.422-.109l-.171-.978a6.216,6.216,0,0,0,1.244.164,1.47,1.47,0,0,0,.745-.144.9.9,0,0,0,.335-.485,16.428,16.428,0,0,0,.444-4.566,3.52,3.52,0,0,0-.219-1.538.713.713,0,0,0-.677-.321Q289.085,82.385,288.3,82.439Zm3.575-1.832.9-.4a19.3,19.3,0,0,1,2.112,5.031l-.991.4A17.207,17.207,0,0,0,291.874,80.607Zm8.189,2.769q1.429-.854,3.274-1.818l.5.882a29.874,29.874,0,0,0-4.464,2.5,3.4,3.4,0,0,0-1.709,2.714q0,1.8,2.885,1.8,1.483,0,3.391-.137v1q-2.345.068-3.459.068-3.78,0-3.78-2.755,0-2.085,2.475-3.7-.588-2.14-1.087-5.024l1.032-.041A41.152,41.152,0,0,0,300.063,83.376Zm2-4.854.718-.28a18.274,18.274,0,0,1,1.032,2.365l-.752.308A14.832,14.832,0,0,0,302.06,78.522Zm1.586-.492.7-.253a11.567,11.567,0,0,1,1,2.3l-.731.294A13.489,13.489,0,0,0,303.646,78.03Zm4.4.67a32.631,32.631,0,0,0,4.86.827l-.239.95a42.051,42.051,0,0,1-4.888-.868ZM306.5,82.638a15.887,15.887,0,0,1,4.115-.718q2.687,0,2.687,3.363a5.049,5.049,0,0,1-1.347,3.767,7.448,7.448,0,0,1-3.37,1.675l-.52-.848a6.683,6.683,0,0,0,3.206-1.613,4.374,4.374,0,0,0,.971-3.049q0-2.386-1.682-2.386a13.446,13.446,0,0,0-3.7.786Zm12.571-.2a41.522,41.522,0,0,1-2.646,7.841l-.923-.362a37.251,37.251,0,0,0,2.563-7.41q-.848.062-2.577.226l-.055-.882q.513-.034,1.518-.1l1.313-.089q.26-1.183.533-2.782l.991.137q-.308,1.6-.533,2.591.786-.055,1.429-.055a1.428,1.428,0,0,1,1.278.567,3.662,3.662,0,0,1,.4,1.982,19.506,19.506,0,0,1-.437,4.97,1.777,1.777,0,0,1-.636,1,1.828,1.828,0,0,1-1.073.28,9.249,9.249,0,0,1-1.422-.109l-.171-.978a6.216,6.216,0,0,0,1.244.164,1.47,1.47,0,0,0,.745-.144.9.9,0,0,0,.335-.485,16.428,16.428,0,0,0,.444-4.566,3.52,3.52,0,0,0-.219-1.538.713.713,0,0,0-.677-.321Q319.86,82.385,319.074,82.439Zm3.575-1.832.9-.4a19.3,19.3,0,0,1,2.112,5.031l-.991.4A17.207,17.207,0,0,0,322.649,80.607ZM6.4,105.847a22.039,22.039,0,0,1-1.483,7.362,2.1,2.1,0,0,1-1.894,1.483,1.749,1.749,0,0,1-1.606-1.06,6,6,0,0,1-.533-2.789,7.336,7.336,0,0,1,.458-2.618A5.114,5.114,0,0,1,2.379,106.5a4.675,4.675,0,0,1,1.716-1.128,5.426,5.426,0,0,1,1.969-.369,4.139,4.139,0,0,1,3.555,1.5,6.371,6.371,0,0,1,.964,3.808,5.114,5.114,0,0,1-1.121,3.4,5.6,5.6,0,0,1-3.274,1.784l-.485-.841a4.243,4.243,0,0,0,3.835-4.607,4.671,4.671,0,0,0-1.032-3.3A2.809,2.809,0,0,0,6.4,105.847Zm-1.053.109a3.075,3.075,0,0,0-1.292.4,4.459,4.459,0,0,0-1.06.93,5.252,5.252,0,0,0-1.148,3.582A4.6,4.6,0,0,0,2.256,113q.328.615.752.615a.82.82,0,0,0,.622-.26,2.544,2.544,0,0,0,.444-.759A19.819,19.819,0,0,0,5.346,105.956Zm14.13,6q0,.109-.13.109l-1.832-.027H16.379v1.442l.027,2.393q0,.109-.1.109h-.69a.1.1,0,0,1-.109-.109l.027-2.379v-1.456H14.219l-1.846.027a.1.1,0,0,1-.109-.109v-.608a.1.1,0,0,1,.109-.109l1.846.027h1.319v-2.14H14.7l-1.709.027q-.109,0-.109-.116v-.588a.1.1,0,0,1,.109-.109l1.709.027h.841v-2.8a14.072,14.072,0,0,0-.1-1.921,8.532,8.532,0,0,1,.923.068q.171.027.171.13a2.265,2.265,0,0,1-.055.246,5.948,5.948,0,0,0-.1,1.442v2.83h.827l1.709-.027a.1.1,0,0,1,.109.109v.588q0,.116-.109.116l-1.709-.027h-.827v2.14h1.135l1.832-.027q.13,0,.13.109Zm4.888-8.121a1.416,1.416,0,0,1-.1.267,5.728,5.728,0,0,0-.068,1.217V112.2l.027,2.112a1.281,1.281,0,0,1-.4,1.107,1.552,1.552,0,0,1-.656.219,11.151,11.151,0,0,1-1.251.048q-.205,0-.246-.048a.576.576,0,0,1-.089-.246,1.987,1.987,0,0,0-.28-.643,9.818,9.818,0,0,0,1.333.082.816.816,0,0,0,.574-.144.753.753,0,0,0,.137-.526v-8.832a10.732,10.732,0,0,0-.1-1.7q.4.021.937.068Q24.363,103.728,24.363,103.83Zm-2.919,1.019a.912.912,0,0,1-.068.226,9.6,9.6,0,0,0-.055,1.456v3.808l.027,1.791q0,.116-.109.116h-.663q-.109,0-.109-.116l.027-1.791v-3.794a11.7,11.7,0,0,0-.1-1.887,8.52,8.52,0,0,1,.909.082Q21.444,104.76,21.444,104.849Zm-2.181.062a.2.2,0,0,1-.1.164.881.881,0,0,0-.185.308,15.362,15.362,0,0,1-.923,1.907q-.116.171-.157.171a.533.533,0,0,1-.191-.082,1.665,1.665,0,0,0-.492-.2,9.432,9.432,0,0,0,.991-2.119,2.531,2.531,0,0,0,.144-.6,4.1,4.1,0,0,1,.786.308Q19.264,104.821,19.264,104.91Zm-4.676,2.03A.158.158,0,0,1,14.6,107q0,.068-.137.137l-.383.185a.513.513,0,0,1-.171.068q-.041,0-.082-.1a10.957,10.957,0,0,0-1-2.215A.168.168,0,0,1,12.8,105q0-.048.137-.116l.369-.171a.249.249,0,0,1,.123-.048q.048,0,.1.075A12.432,12.432,0,0,1,14.588,106.94ZM38.9,108.759q0,.109-.1.109l-1.7-.027v4.983l.027,2.085q0,.116-.109.116h-.69q-.109,0-.109-.116l.027-2.085v-4.983H34.269a17.78,17.78,0,0,1-.321,4.033,7.423,7.423,0,0,1-1.388,2.864q-.13.171-.185.171t-.178-.164a1.86,1.86,0,0,0-.479-.424,6.139,6.139,0,0,0,1.5-2.994,21.153,21.153,0,0,0,.239-3.726v-1.723a17.683,17.683,0,0,0-.1-2,4.966,4.966,0,0,1,.9.253,11.4,11.4,0,0,0,2.707-1.039,3.4,3.4,0,0,0,.7-.485,3.708,3.708,0,0,1,.629.629.305.305,0,0,1,.082.178q0,.109-.185.13a1.827,1.827,0,0,0-.513.164,19.809,19.809,0,0,1-3.4,1.2v2.181h2.844l1.7-.027q.1,0,.1.109Zm-5.988,2.167a1.76,1.76,0,0,0-.376.479q-.062.123-.109.123t-.157-.123a8.593,8.593,0,0,1-1.524-2.475q.068,3.124.068,4.04,0,.116-.109.116h-.554q-.109,0-.109-.116,0-.349.055-3.931a9.1,9.1,0,0,1-1.8,2.974q-.1.123-.144.123t-.164-.144a1.287,1.287,0,0,0-.41-.335,9.217,9.217,0,0,0,2.2-3.192h-.253l-1.47.027a.1.1,0,0,1-.109-.109v-.533q0-.116.109-.116l1.47.034h.533v-2.912a9.422,9.422,0,0,0-.082-1.319,7.762,7.762,0,0,1,.827.082q.157.027.157.116a.533.533,0,0,1-.068.191,2.47,2.47,0,0,0-.089.868v2.974h.465l1.483-.034q.109,0,.109.116v.533a.1.1,0,0,1-.109.109l-1.483-.027H31A7.618,7.618,0,0,0,32.915,110.926Zm-.731,3.391q0,.109-.1.109L30.6,114.4H27.48v.786q0,.109-.1.109h-.622a.1.1,0,0,1-.109-.109l.027-1.812v-7.349a14.709,14.709,0,0,0-.082-1.873,7.889,7.889,0,0,1,.9.082q.144.027.144.116a.527.527,0,0,1-.089.253,5.989,5.989,0,0,0-.068,1.313v7.725H30.6l1.483-.027q.1,0,.1.109Zm.629-9.379a.224.224,0,0,1-.082.137,1.137,1.137,0,0,0-.171.355,10.454,10.454,0,0,1-.629,1.456q-.082.15-.144.15a.43.43,0,0,1-.15-.055,1.5,1.5,0,0,0-.39-.13,8.753,8.753,0,0,0,.7-1.75,2.575,2.575,0,0,0,.089-.485,6.612,6.612,0,0,1,.643.191Q32.812,104.855,32.813,104.938Zm-3.356,1.736a.374.374,0,0,1,.014.082q0,.062-.13.1l-.308.1a.5.5,0,0,1-.13.027q-.075,0-.1-.123a10.154,10.154,0,0,0-.615-1.853.266.266,0,0,1-.034-.1q0-.055.144-.1l.294-.1a.328.328,0,0,1,.1-.021q.062,0,.1.089A10.039,10.039,0,0,1,29.456,106.674Zm13.07,3.315q-.7,0-2.126-.027v-.9q.588.027,2.215.027l.219-2.283q-1,0-2.352-.027v-.9q1.189.068,2.44.068.048-.424.123-1.155.089-.813.109-1.06l1.012.075q-.048.451-.123,1.169-.082.752-.1.957,1.442-.014,3.767-.157l.014.9q-1.839.116-3.876.116-.075.834-.253,2.283,2.235-.027,3.979-.157v.9q-2.16.137-4.061.157a32.723,32.723,0,0,0-.226,3.288,1.408,1.408,0,0,0,.5,1.23,2.723,2.723,0,0,0,1.531.335,3.8,3.8,0,0,0,2.208-.526,1.511,1.511,0,0,0,.649-1.292,3.093,3.093,0,0,0-.813-2.017l.923-.349a3.489,3.489,0,0,1,.937,2.311q0,2.816-3.9,2.816a3.309,3.309,0,0,1-2.454-.725,2.532,2.532,0,0,1-.54-1.784Q42.321,112.17,42.526,109.989ZM57.955,112.7a.1.1,0,0,1-.116.116H57.21q-.123,0-.123-.116v-.684H53.71v1.08q0,.109-.116.109h-.643a.1.1,0,0,1-.109-.109l.027-2.6v-1.374l-.027-1.764a.1.1,0,0,1,.109-.109l1.511.027h1.866l1.511-.027q.116,0,.116.109l-.027,1.456v1.415Zm-.868-1.47v-3.172H53.71v3.172Zm6.084-6.187a.1.1,0,0,1-.109.109l-.2-.007q-.588-.014-1.381-.021v6.638l.027,2.6a1.216,1.216,0,0,1-.4,1.066,3.469,3.469,0,0,1-1.757.273q-.26,0-.608-.007a.465.465,0,0,1-.26-.041.838.838,0,0,1-.089-.239,2.106,2.106,0,0,0-.28-.649,16.631,16.631,0,0,0,1.682.075,1.117,1.117,0,0,0,.622-.116.517.517,0,0,0,.15-.431v-9.174H53l-1.839.027a.1.1,0,0,1-.109-.109v-.656q0-.116.109-.116L53,104.3h8.23l1.832-.027q.109,0,.109.116Zm7.28,9.536a1.126,1.126,0,0,1-.28.909,2.711,2.711,0,0,1-1.442.253.448.448,0,0,1-.26-.048.607.607,0,0,1-.089-.232,2.256,2.256,0,0,0-.226-.533,7.219,7.219,0,0,0,.868.055.692.692,0,0,0,.506-.144.577.577,0,0,0,.123-.417v-1.579H66.685v1.176l.027,1.736a.1.1,0,0,1-.109.109h-.608a.1.1,0,0,1-.109-.109l.027-1.723V110l-.027-1.743a.1.1,0,0,1,.109-.109l1.415.027H68.94l1.415-.027q.1,0,.1.109l-.014,1.832v2.652Zm-.8-2.406v-1.354H66.685v1.354Zm0-2.023v-1.285H66.685v1.285Zm7.588,3.739a2.034,2.034,0,0,1-.588,1.347,3.856,3.856,0,0,1-2.187.431,6.037,6.037,0,0,1-2.1-.226,1.008,1.008,0,0,1-.52-1.032v-3.247a8.578,8.578,0,0,0-.082-1.415,8.468,8.468,0,0,1,.9.082q.171.021.171.13a.9.9,0,0,1-.089.253,3.684,3.684,0,0,0-.068.937v.9a14.975,14.975,0,0,0,2.673-1.2,2.98,2.98,0,0,0,.745-.561,4.509,4.509,0,0,1,.574.506.306.306,0,0,1,.109.205q0,.116-.185.144a2.332,2.332,0,0,0-.629.267,21.7,21.7,0,0,1-3.288,1.415v1.326a.636.636,0,0,0,.362.643,5.2,5.2,0,0,0,1.456.123A2.747,2.747,0,0,0,76.1,114.6a.933.933,0,0,0,.28-.52,7.043,7.043,0,0,0,.082-.848,3.351,3.351,0,0,0,.574.308q.219.089.219.185A1.473,1.473,0,0,1,77.239,113.893Zm-.1-6.467a2.866,2.866,0,0,1-.2.889,1.218,1.218,0,0,1-.335.431,4.315,4.315,0,0,1-2.29.376,7.066,7.066,0,0,1-1.989-.171.683.683,0,0,1-.4-.308,1.248,1.248,0,0,1-.109-.588v-3.09a8.849,8.849,0,0,0-.082-1.429q.451.021.875.082.185.021.185.123a.631.631,0,0,1-.082.239,3.72,3.72,0,0,0-.068.95v1.012a14.985,14.985,0,0,0,2.536-1.121,2.716,2.716,0,0,0,.738-.561,5.568,5.568,0,0,1,.588.547.264.264,0,0,1,.1.171q0,.109-.185.137a3.844,3.844,0,0,0-.615.267,26.045,26.045,0,0,1-3.158,1.333v.991a.8.8,0,0,0,.075.41.485.485,0,0,0,.273.164,6.681,6.681,0,0,0,1.36.082,3.1,3.1,0,0,0,1.723-.28,2.285,2.285,0,0,0,.308-1.312,2.75,2.75,0,0,0,.547.308q.219.1.219.226A.822.822,0,0,1,77.137,107.426Zm-5.934-.362a.215.215,0,0,1,.021.082q0,.062-.116.144l-.355.2a.407.407,0,0,1-.164.068q-.048,0-.1-.1a7.706,7.706,0,0,0-.349-.718q-1.88.328-4.252.6a1.482,1.482,0,0,0-.588.157.283.283,0,0,1-.171.055q-.082,0-.137-.171a6.238,6.238,0,0,1-.171-.807q.868,0,1.217-.034a16.352,16.352,0,0,0,1.053-2.181,5.678,5.678,0,0,0,.267-.95,3.773,3.773,0,0,1,.779.205q.2.082.2.185a.315.315,0,0,1-.137.226.962.962,0,0,0-.239.362q-.554,1.183-1.066,2.071,1.668-.164,2.871-.349a10.008,10.008,0,0,0-.718-.978.133.133,0,0,1-.027-.068q0-.055.13-.13l.294-.171a.238.238,0,0,1,.116-.041.132.132,0,0,1,.1.055A11.015,11.015,0,0,1,71.2,107.063Zm14.588.779.718-.273a18.274,18.274,0,0,1,1.032,2.365l-.752.308A15.123,15.123,0,0,0,85.791,107.843Zm1.586-.472.7-.253a11.566,11.566,0,0,1,1,2.3l-.731.294A13.488,13.488,0,0,0,87.377,107.371Zm.39-2.632.027.964a5.312,5.312,0,0,0-2.311.629,5.934,5.934,0,0,0-2.071,1.962,4.817,4.817,0,0,0-.813,2.659,2.958,2.958,0,0,0,1.285,2.529,6.17,6.17,0,0,0,2.933,1l-.239,1a6.1,6.1,0,0,1-3.63-1.381,3.89,3.89,0,0,1-1.312-3.049,5.709,5.709,0,0,1,2.994-5.024l.759-.335-.014-.027-.656.109q-1.189.068-5.66.479l-.082-.923Q80.979,105.177,87.767,104.739Zm8.777,1.764q-.041,1.518,0,3.035a5.324,5.324,0,0,1,.308,1.777,3.687,3.687,0,0,1-1.306,3.069,7.744,7.744,0,0,1-3.274,1.271l-.588-.841a6.334,6.334,0,0,0,3.411-1.381,2.741,2.741,0,0,0,.807-1.88,1.856,1.856,0,0,1-1.8.882,2.2,2.2,0,0,1-1.531-.574,2.3,2.3,0,0,1,.123-3.356,2.469,2.469,0,0,1,1.559-.492,2,2,0,0,1,1.36.39q-.027-1.312-.027-1.873-2.249.034-5.435.239l-.014-.9q2.584-.1,5.435-.171v-1.9l1,.014q0,.629-.027,1.859,2.324-.027,3.363-.027v.9Q98.226,106.5,96.544,106.5Zm-2.338,2.3a1.322,1.322,0,0,0-.984.4,1.413,1.413,0,0,0-.39,1.046,1.237,1.237,0,0,0,.444,1,1.288,1.288,0,0,0,.848.294,1.405,1.405,0,0,0,1.1-.41,1.3,1.3,0,0,0,.314-.916Q95.539,108.8,94.206,108.8Zm9.324,3.527a1.915,1.915,0,0,1,1.463.643,1.916,1.916,0,0,1-.144,2.748,1.936,1.936,0,0,1-1.319.5,1.9,1.9,0,0,1-1.463-.643,1.916,1.916,0,0,1,.144-2.748A1.936,1.936,0,0,1,103.53,112.327Zm0,.7a1.269,1.269,0,0,0-1.251,1.251,1.253,1.253,0,0,0,2.181.834,1.247,1.247,0,0,0-.93-2.085Z"
									transform="translate(-0.882 -2.723)" fill="#5a5858" />
							</svg>