	<svg xmlns="http://www.w3.org/2000/svg" width="243.523" height="63.494"
								viewBox="0 0 243.523 63.494">
								<path id="Контур_1762" data-name="Контур 1762"
									d="M5.093,5.594q-.027-1.176-.027-1.853h1V5.553q1.7-.062,3.37-.267v.868q-1.531.185-3.356.253l.041,2.01q1.935-.089,3.247-.26v.868q-1.538.171-3.233.232.014.335.062,1.449.027.745.048,1.2a10.066,10.066,0,0,1,3.726,2.372l-.7.861a9.516,9.516,0,0,0-3.015-2.249v.15A2.184,2.184,0,0,1,3.78,15.506a3.271,3.271,0,0,1-2.017-.5,1.7,1.7,0,0,1-.6-1.436,1.679,1.679,0,0,1,.8-1.449,3.138,3.138,0,0,1,1.832-.5,8.4,8.4,0,0,1,1.47.1q-.048-.848-.1-2.427-1.825.048-3.644,0V8.451q1.7.055,3.63.014-.027-.383-.034-1.087-.014-.663-.027-.943Q2.987,6.476,1.3,6.407V5.566Q2.987,5.642,5.093,5.594Zm.171,7.055a5.407,5.407,0,0,0-1.374-.185q-1.832,0-1.832,1.107,0,1.066,1.654,1.066,1.552,0,1.552-1.866ZM17.835,6.5q-.021,1.518,0,3.035a5.324,5.324,0,0,1,.308,1.777,3.687,3.687,0,0,1-1.306,3.069,7.744,7.744,0,0,1-3.274,1.271l-.588-.841a6.334,6.334,0,0,0,3.411-1.381,2.741,2.741,0,0,0,.807-1.88,1.856,1.856,0,0,1-1.8.882,2.2,2.2,0,0,1-1.531-.574,2.082,2.082,0,0,1-.67-1.62,2.07,2.07,0,0,1,.793-1.736,2.469,2.469,0,0,1,1.559-.492,2,2,0,0,1,1.36.39q-.027-1.312-.027-1.873-2.249.034-5.435.239l-.014-.9q2.584-.1,5.435-.171V3.8l1,.014q0,.629-.027,1.859,2.324-.027,3.363-.027v.9Q20.063,6.5,18.826,6.5ZM15.5,8.8a1.322,1.322,0,0,0-.984.4,1.413,1.413,0,0,0-.39,1.046,1.237,1.237,0,0,0,.444,1,1.288,1.288,0,0,0,.848.294,1.405,1.405,0,0,0,1.1-.41,1.3,1.3,0,0,0,.314-.916Q16.83,8.8,15.5,8.8Zm3.247-5.6.684-.28a14.548,14.548,0,0,1,1,2.235l-.731.308A13.644,13.644,0,0,0,18.744,3.2ZM20.4,2.976l.7-.253a11.566,11.566,0,0,1,1,2.3l-.731.294A13.488,13.488,0,0,0,20.4,2.976Zm10.548,4.45q.021,2.769.123,4.689a7.23,7.23,0,0,1,2.468,1.832l-.677.841a6.685,6.685,0,0,0-1.791-1.634,2.112,2.112,0,0,1-.7,1.764,2.5,2.5,0,0,1-1.647.5q-2.42,0-2.42-1.9a1.583,1.583,0,0,1,.725-1.34,2.691,2.691,0,0,1,1.586-.451,6.841,6.841,0,0,1,1.483.15Q30,10,29.976,7.467q-1.907.062-3.821.041V6.626q1.7.055,3.808-.014V4.035h1q-.014.841-.014,2.522.875-.048,2.249-.185v.882Q32.2,7.357,30.946,7.426Zm-.854,5.407a4.28,4.28,0,0,0-1.545-.28,1.734,1.734,0,0,0-.964.253.806.806,0,0,0-.4.711q0,1.053,1.511,1.053a1.26,1.26,0,0,0,1.114-.526,1.833,1.833,0,0,0,.287-1.073ZM25.272,4.165a41.313,41.313,0,0,0-.841,6.87,33.207,33.207,0,0,0,.335,4.341l-.978.089q-.321-3.117-.321-4.457a30.522,30.522,0,0,1,.287-3.685q.226-1.764.526-3.24Zm15.333,8.06a2.858,2.858,0,0,1-.25,1.207,2.664,2.664,0,0,1-.7.93,3.25,3.25,0,0,1-1.09.6,4.41,4.41,0,0,1-1.4.212,4.072,4.072,0,0,1-2.229-.533v-1.2a3.571,3.571,0,0,0,2.27.779,3.084,3.084,0,0,0,.926-.13,2.077,2.077,0,0,0,.711-.376,1.67,1.67,0,0,0,.458-.595,1.857,1.857,0,0,0,.161-.786q0-1.921-2.734-1.921h-.813v-.95h.772q2.42,0,2.42-1.8,0-1.668-1.846-1.668a3.143,3.143,0,0,0-1.948.7V5.594a4.259,4.259,0,0,1,2.229-.561A3.424,3.424,0,0,1,38.65,5.2a2.553,2.553,0,0,1,.854.479,2.12,2.12,0,0,1,.55.738,2.279,2.279,0,0,1,.195.95,2.393,2.393,0,0,1-1.955,2.488v.027a3.093,3.093,0,0,1,.923.243,2.463,2.463,0,0,1,.731.489,2.179,2.179,0,0,1,.482.708A2.259,2.259,0,0,1,40.605,12.225Zm1.743,2.522v-1.2a3.318,3.318,0,0,0,2.017.677q1.477,0,1.477-.984a.854.854,0,0,0-.126-.475,1.26,1.26,0,0,0-.342-.345,2.631,2.631,0,0,0-.506-.27q-.291-.12-.625-.25a8.056,8.056,0,0,1-.817-.373,2.468,2.468,0,0,1-.588-.424,1.577,1.577,0,0,1-.355-.537,1.9,1.9,0,0,1-.12-.7,1.673,1.673,0,0,1,.226-.872,2,2,0,0,1,.6-.636,2.805,2.805,0,0,1,.858-.386,3.805,3.805,0,0,1,.995-.13,4.016,4.016,0,0,1,1.627.314V9.285a3.171,3.171,0,0,0-1.777-.506,2.078,2.078,0,0,0-.567.072,1.389,1.389,0,0,0-.434.2.932.932,0,0,0-.28.311.819.819,0,0,0-.1.4.959.959,0,0,0,.1.458,1.008,1.008,0,0,0,.291.328,2.221,2.221,0,0,0,.465.26q.273.116.622.253a8.658,8.658,0,0,1,.834.366,2.86,2.86,0,0,1,.629.424,1.656,1.656,0,0,1,.4.543,1.753,1.753,0,0,1,.14.731,1.725,1.725,0,0,1-.229.9,1.963,1.963,0,0,1-.612.636,2.8,2.8,0,0,1-.882.376,4.354,4.354,0,0,1-1.046.123A3.971,3.971,0,0,1,42.349,14.747Zm9.611.185a2.161,2.161,0,0,1-1.046.219q-1.839,0-1.839-2.051V8.957h-1.2V8h1.2V6.291L50.2,5.929V8H51.96v.957H50.2V12.9a1.635,1.635,0,0,0,.239,1,.955.955,0,0,0,.793.3,1.179,1.179,0,0,0,.731-.232Zm7.123-3.151H54.141a2.618,2.618,0,0,0,.629,1.8,2.168,2.168,0,0,0,1.654.636,3.439,3.439,0,0,0,2.174-.779v1.053a4.063,4.063,0,0,1-2.44.67,2.959,2.959,0,0,1-2.331-.954,3.9,3.9,0,0,1-.848-2.683A3.828,3.828,0,0,1,53.9,8.865a2.97,2.97,0,0,1,2.3-1.029,2.632,2.632,0,0,1,2.126.889,3.705,3.705,0,0,1,.752,2.468Zm-1.148-.95a2.281,2.281,0,0,0-.468-1.511,1.6,1.6,0,0,0-1.282-.54,1.811,1.811,0,0,0-1.347.567,2.575,2.575,0,0,0-.684,1.483Zm3.992,3.158H61.9V18.22H60.778V8H61.9V9.23h.027a2.651,2.651,0,0,1,2.42-1.395,2.563,2.563,0,0,1,2.112.94,3.893,3.893,0,0,1,.759,2.519,4.339,4.339,0,0,1-.854,2.813,2.845,2.845,0,0,1-2.338,1.056A2.342,2.342,0,0,1,61.927,13.988ZM61.9,11.165v.978a2.081,2.081,0,0,0,.564,1.473,2.012,2.012,0,0,0,3.028-.174,3.575,3.575,0,0,0,.578-2.167,2.822,2.822,0,0,0-.54-1.832,1.787,1.787,0,0,0-1.463-.663,1.986,1.986,0,0,0-1.572.68A2.5,2.5,0,0,0,61.9,11.165ZM74.272,5.847a22.039,22.039,0,0,1-1.483,7.362A2.1,2.1,0,0,1,70.9,14.692a1.749,1.749,0,0,1-1.606-1.06,6,6,0,0,1-.533-2.789,7.336,7.336,0,0,1,.458-2.618A5.114,5.114,0,0,1,70.253,6.5a4.675,4.675,0,0,1,1.716-1.128,5.426,5.426,0,0,1,1.969-.369,4.139,4.139,0,0,1,3.555,1.5,6.371,6.371,0,0,1,.964,3.808,5.114,5.114,0,0,1-1.121,3.4,5.6,5.6,0,0,1-3.274,1.784l-.485-.841a4.243,4.243,0,0,0,3.835-4.607,4.671,4.671,0,0,0-1.032-3.3A2.809,2.809,0,0,0,74.272,5.847Zm-1.053.109a3.075,3.075,0,0,0-1.292.4,4.459,4.459,0,0,0-1.06.93,5.252,5.252,0,0,0-1.148,3.582A4.6,4.6,0,0,0,70.13,13q.328.615.752.615a.82.82,0,0,0,.622-.26,2.544,2.544,0,0,0,.444-.759A19.819,19.819,0,0,0,73.22,5.956Zm18.327,8.682A1.28,1.28,0,0,1,91.2,15.67a3.386,3.386,0,0,1-1.668.253.427.427,0,0,1-.246-.041.527.527,0,0,1-.089-.226,2.367,2.367,0,0,0-.239-.574,8.91,8.91,0,0,0,1,.055.91.91,0,0,0,.622-.144.833.833,0,0,0,.116-.526V10.112h-2.27l-1.415.027a.1.1,0,0,1-.109-.109l.027-1.039V7.884L86.9,6.865q0-.123.109-.123l1.415.027H90l1.429-.027q.109,0,.109.123l-.027,1.565v4.19Zm-.854-5.113v-.8H87.7v.8Zm0-1.388V7.385H87.7v.752ZM85.586,10.03q0,.109-.123.109l-1.306-.027H81.915v3.78l.027,1.989q0,.109-.123.109h-.636a.1.1,0,0,1-.109-.109l.027-1.989V8.882l-.027-2.017q0-.123.109-.123l1.49.027h1.483l1.306-.027a.109.109,0,0,1,.123.123l-.034,1.094v.964Zm-.8-.506V8.711H81.915v.813Zm0-1.388V7.385H81.915v.752Zm3.678,7.1a.1.1,0,0,1-.109.109h-.547a.1.1,0,0,1-.109-.109v-.492H84.827v.6q0,.109-.116.109h-.54q-.116,0-.116-.109l.027-2.174v-.9l-.027-1.312a.1.1,0,0,1,.109-.109l1.374.027H86.98l1.374-.027a.1.1,0,0,1,.109.109l-.027,1.121v1.019ZM87.7,14.146V13.079H84.827v1.066Zm0-1.654v-1H84.827v1Zm-1.47-7.335q0,.109-.116.109l-1.524-.027h-.615a7.818,7.818,0,0,1,.492,1,.207.207,0,0,1,.021.068q0,.055-.15.1l-.4.13a.817.817,0,0,1-.157.034q-.062,0-.1-.1a7.918,7.918,0,0,0-.52-1.23H82.038a8.913,8.913,0,0,1-1.2,1.572q-.15.15-.2.15a.786.786,0,0,1-.219-.137,1.5,1.5,0,0,0-.492-.28,7.769,7.769,0,0,0,1.907-2.6,3.147,3.147,0,0,0,.205-.7,6.965,6.965,0,0,1,.827.185q.157.041.157.15t-.157.2a1.206,1.206,0,0,0-.191.321q-.191.376-.239.458h2.153l1.524-.027q.116,0,.116.109Zm6.241,0a.1.1,0,0,1-.109.109l-1.682-.027H89.558a7.53,7.53,0,0,1,.574,1.012.123.123,0,0,1,.021.062q0,.062-.144.1l-.41.13a.579.579,0,0,1-.137.027q-.062,0-.1-.1a6.518,6.518,0,0,0-.629-1.23H87.582a10.218,10.218,0,0,1-.827,1.278q-.13.15-.164.15a.576.576,0,0,1-.226-.123,1.582,1.582,0,0,0-.492-.226,7.476,7.476,0,0,0,1.442-2.406,2.56,2.56,0,0,0,.144-.629q.444.089.766.185.157.041.157.137a.236.236,0,0,1-.123.2.9.9,0,0,0-.185.349l-.171.4h2.775l1.682-.027a.1.1,0,0,1,.109.109Zm13.959,8.36q0,.109-.116.109l-1.8-.027h-3.9v.335l.027,1.948a.1.1,0,0,1-.109.109h-.677q-.1,0-.1-.109l.027-1.948V13.6H96.072l-1.812.027a.1.1,0,0,1-.109-.109v-.608a.1.1,0,0,1,.109-.109l1.812.027h3.705V11.5H97.959l-2,.027a.1.1,0,0,1-.109-.109l.027-1.374V7.863l-.027-1.388q0-.1.109-.1l2,.027h4.676l1.982-.027q.116,0,.116.1l-.027,1.388v2.181l.027,1.374q0,.109-.116.109l-1.982-.027H100.6v1.326h3.9l1.8-.027q.116,0,.116.109ZM103.893,10.8V9.244H100.6V10.8Zm0-2.229V7.1H100.6v1.47ZM99.777,10.8V9.244h-3.09V10.8Zm0-2.229V7.1h-3.09v1.47Zm5.366-4.566q0,.075-.157.2a1.322,1.322,0,0,0-.267.335,14.23,14.23,0,0,1-.909,1.34q-.1.144-.185.144a.66.66,0,0,1-.219-.082,1.652,1.652,0,0,0-.533-.144,10.11,10.11,0,0,0,.978-1.436,3.4,3.4,0,0,0,.335-.841,7.347,7.347,0,0,1,.827.321Q105.144,3.905,105.144,4.008ZM100.8,5.286a.266.266,0,0,1,.021.075q0,.041-.15.1l-.431.185a.52.52,0,0,1-.164.048q-.068,0-.089-.089a6.819,6.819,0,0,0-.813-1.853.133.133,0,0,1-.027-.068q0-.041.185-.109l.39-.144a.478.478,0,0,1,.137-.034.133.133,0,0,1,.1.062A7.182,7.182,0,0,1,100.8,5.286Zm-3.514.123a.123.123,0,0,1,.021.062q0,.055-.109.109l-.472.205a.661.661,0,0,1-.178.068q-.048,0-.075-.082a6.731,6.731,0,0,0-1.06-1.688.174.174,0,0,1-.041-.075q0-.048.15-.123l.431-.185a.422.422,0,0,1,.123-.034.148.148,0,0,1,.1.062A8.741,8.741,0,0,1,97.289,5.409Zm20.576,7a.1.1,0,0,1-.109.109l-1.853-.027h-3.227l-1.839.027a.1.1,0,0,1-.109-.109l.027-.978v-.889l-.027-.978a.1.1,0,0,1,.109-.109l1.839.027H115.9l1.853-.027a.1.1,0,0,1,.109.109l-.027.978v.889Zm-.854-.6V10.181h-5.428v1.627ZM120.723,9a1.972,1.972,0,0,0-.362.5q-.116.212-.185.212a.712.712,0,0,1-.205-.068,15.147,15.147,0,0,1-3.589-2.16,9.005,9.005,0,0,1-2.153-2.652,11.885,11.885,0,0,1-2.406,2.851,15.832,15.832,0,0,1-3.206,2.037.774.774,0,0,1-.212.068q-.068,0-.2-.226a1.452,1.452,0,0,0-.362-.424,14.34,14.34,0,0,0,3.179-1.832,10.19,10.19,0,0,0-1.6-1.4q-.062-.041-.062-.068t.075-.109l.342-.308q.075-.075.109-.075a.15.15,0,0,1,.082.034A12.724,12.724,0,0,1,111.638,6.8a10.591,10.591,0,0,0,1.791-2.14h-2.017l-1.442.027q-.123,0-.123-.109V4.035q0-.109.123-.109l1.442.027h1.935l1.135-.027q.109,0,.178.157a6.638,6.638,0,0,0,.52.957,8.083,8.083,0,0,0,.6.813,9.043,9.043,0,0,0,1.135-1.189,2.833,2.833,0,0,0,.335-.54,4.359,4.359,0,0,1,.69.431.236.236,0,0,1,.109.164q0,.089-.137.157a1.227,1.227,0,0,0-.437.349,14.324,14.324,0,0,1-1.2,1.148,12.551,12.551,0,0,0,1.046.882,14.739,14.739,0,0,0,1.347-1.306,3.344,3.344,0,0,0,.376-.54,5.306,5.306,0,0,1,.67.431q.13.109.13.164v.021a.252.252,0,0,1-.185.164,1.176,1.176,0,0,0-.417.308,14.732,14.732,0,0,1-1.312,1.162A14.409,14.409,0,0,0,120.723,9Zm-.335,6.433a.1.1,0,0,1-.109.109l-1.839-.027h-8.258l-1.832.027q-.116,0-.116-.109v-.595q0-.109.116-.109l1.832.027h5.038q.362-.595.677-1.217a3.484,3.484,0,0,0,.267-.786,6.731,6.731,0,0,1,.813.321.172.172,0,0,1,.123.157q0,.068-.123.164a1.064,1.064,0,0,0-.287.383q-.5.848-.588.978h2.338l1.839-.027a.1.1,0,0,1,.109.109Zm-3.931-7.089q0,.109-.1.109l-1.4-.027h-1.442l-1.381.027q-.116,0-.116-.109V7.8q0-.109.116-.109l1.381.027h1.442l1.4-.027q.1,0,.1.109Zm-3.35,5.838a.336.336,0,0,1,.021.082q0,.048-.157.13l-.369.185a.6.6,0,0,1-.171.055q-.048,0-.082-.089a5.968,5.968,0,0,0-.67-1.326.188.188,0,0,1-.034-.075q0-.041.15-.109l.362-.164a.383.383,0,0,1,.144-.055q.034,0,.1.082A7.463,7.463,0,0,1,113.107,14.187Zm21.841.28a1.981,1.981,0,0,0-.41.52q-.1.185-.15.185a.434.434,0,0,1-.185-.109,9.069,9.069,0,0,1-3.117-4.806v.95q0,1.142.027,2.434.027.875.027,1.183a2.079,2.079,0,0,1-.075.649.727.727,0,0,1-.287.355,2.839,2.839,0,0,1-1.374.239.507.507,0,0,1-.267-.041.769.769,0,0,1-.082-.239,1.6,1.6,0,0,0-.28-.6,7.663,7.663,0,0,0,.909.055.852.852,0,0,0,.561-.123.567.567,0,0,0,.109-.41V12.771a18.14,18.14,0,0,1-2.229,1.586,1.4,1.4,0,0,0-.444.335.173.173,0,0,1-.144.1.172.172,0,0,1-.15-.082,6.218,6.218,0,0,1-.424-.684,5.5,5.5,0,0,0,.759-.342,17.616,17.616,0,0,0,2.632-1.818V8.937h-1.2l-1.894.027a.1.1,0,0,1-.109-.109V8.294a.1.1,0,0,1,.109-.109l1.894.027h2.926l.1-1.347h-2.352l-1.456.027a.1.1,0,0,1-.109-.109V6.236a.1.1,0,0,1,.109-.109l1.456.027h2.393l.1-1.265h-2.8l-1.552.027q-.116,0-.116-.109V4.247q0-.109.116-.109l1.552.027h1.976l1.559-.027a.109.109,0,0,1,.123.123q-.027.219-.048.526-.034.376-.041.438l-.219,2.987,1.736-.027q.123,0,.123.109v.561q0,.109-.123.109l-1.894-.027h-1.538a11.89,11.89,0,0,0,.964,2.55,10.69,10.69,0,0,0,1.2-1.429,2.52,2.52,0,0,0,.308-.547,4.052,4.052,0,0,1,.608.417.323.323,0,0,1,.109.2q0,.068-.157.171a1.885,1.885,0,0,0-.417.4,10.3,10.3,0,0,1-1.306,1.388A7.945,7.945,0,0,0,134.948,14.467Zm-7.725-4.409q0,.109-.116.109l-1.456-.027h-.321v3.869a17.042,17.042,0,0,0,1.682-.649,2.2,2.2,0,0,0-.068.52.411.411,0,0,1-.062.273.57.57,0,0,1-.205.1q-1.429.554-3.322,1.094a1.752,1.752,0,0,0-.52.212.333.333,0,0,1-.185.082.153.153,0,0,1-.164-.109q-.1-.246-.267-.772a8.4,8.4,0,0,0,1.066-.178q.978-.239,1.271-.328V10.14h-.547l-1.456.027a.1.1,0,0,1-.109-.109V9.524a.1.1,0,0,1,.109-.109l1.456.027h.547V7.918h-.1l-1.189.027q-.116,0-.116-.13v-.5a.1.1,0,0,1,.116-.116l1.189.027h1.08l1.176-.027q.109,0,.109.116v.5q0,.13-.109.13l-1.176-.027h-.212V9.442h.321l1.456-.027q.116,0,.116.109Zm.232-3.985a1,1,0,0,0-.362.444q-.1.185-.144.185a1.16,1.16,0,0,1-.212-.144A10.816,10.816,0,0,1,125.1,4.7a12.423,12.423,0,0,1-2.468,2.789.546.546,0,0,1-.205.109q-.082,0-.144-.185a1.241,1.241,0,0,0-.321-.485,8.657,8.657,0,0,0,2.475-2.707,2.053,2.053,0,0,0,.3-.752,4.523,4.523,0,0,1,.807.226q.144.041.144.123a.216.216,0,0,1-.13.185l-.109.082A9.861,9.861,0,0,0,127.456,6.072Zm-3.568,7.109q.007.055.007.068,0,.062-.15.123l-.335.144a.478.478,0,0,1-.137.034q-.062,0-.075-.1a10.431,10.431,0,0,0-.472-2.167.207.207,0,0,1-.021-.075q0-.055.171-.116l.294-.116a.559.559,0,0,1,.137-.034q.041,0,.075.075A11.889,11.889,0,0,1,123.888,13.182Zm3.37-2.017a.236.236,0,0,1-.109.164.979.979,0,0,0-.212.4q-.232.718-.451,1.23-.068.2-.123.2a.466.466,0,0,1-.15-.062,2.436,2.436,0,0,0-.437-.137,9.51,9.51,0,0,0,.547-1.654,2.009,2.009,0,0,0,.068-.526,6.21,6.21,0,0,1,.745.246Q127.258,11.09,127.258,11.165Zm2.215.123a.207.207,0,0,1,.021.075q0,.041-.123.137l-.28.226a.732.732,0,0,1-.164.1q-.034,0-.082-.1a6.081,6.081,0,0,0-1.053-1.668.112.112,0,0,1-.041-.068q0-.041.123-.13l.294-.191a.279.279,0,0,1,.123-.068q.041,0,.1.068A8.212,8.212,0,0,1,129.473,11.288Zm12.332-.67v2.769h-.937V11.049q-.321.164-.663.355-1.791,1.012-1.791,2.03a.927.927,0,0,0,.629.943,6.4,6.4,0,0,0,2.078.232q1.47,0,3.411-.171l.041.95q-2.55.13-3.384.13a5.879,5.879,0,0,1-2.967-.513,1.772,1.772,0,0,1-.7-1.6,3.066,3.066,0,0,1,1.88-2.55q.711-.4,1.456-.772-.068-1.312-.909-1.312-1.176,0-3.227,2.365l-.725-.643a16.349,16.349,0,0,0,2.9-4.136q-1.278.021-2.563,0V5.5q1.477.027,2.953,0a12.511,12.511,0,0,0,.629-1.873l1.012.185a14.378,14.378,0,0,1-.588,1.647q1.969-.062,3.739-.239l.027.854q-2.3.185-4.143.239a14.3,14.3,0,0,1-1.176,1.989l-.355.362.041.055a2.492,2.492,0,0,1,1.668-.711,1.521,1.521,0,0,1,1.114.424,1.982,1.982,0,0,1,.526,1.217q1.094-.5,2.844-1.237l.39.957Q142.734,10.208,141.8,10.618Zm5.872-6.651h1.046q-.239,7.191-.239,8.668a2.135,2.135,0,0,0,.458,1.579,2.222,2.222,0,0,0,1.545.424,3.218,3.218,0,0,0,2.44-.943,5.471,5.471,0,0,0,1.217-2.673l.95.479q-.93,4.074-4.58,4.074a3.2,3.2,0,0,1-2.4-.718,3.1,3.1,0,0,1-.608-2.153q0-.766.062-3.753Q147.649,5.334,147.677,3.967ZM160.72,5.594q-.027-1.176-.027-1.853h1V5.553q1.7-.062,3.37-.267v.868q-1.531.185-3.356.253l.041,2.01q1.935-.089,3.247-.26v.868q-1.538.171-3.233.232.014.335.062,1.449.027.745.048,1.2a10.066,10.066,0,0,1,3.726,2.372l-.7.861a9.516,9.516,0,0,0-3.015-2.249v.15a2.184,2.184,0,0,1-2.475,2.468,3.271,3.271,0,0,1-2.017-.5,1.7,1.7,0,0,1-.6-1.436,1.679,1.679,0,0,1,.8-1.449,3.138,3.138,0,0,1,1.832-.5,8.4,8.4,0,0,1,1.47.1q-.048-.848-.1-2.427-1.825.048-3.644,0V8.451q1.7.055,3.63.014-.027-.383-.034-1.087-.014-.663-.027-.943-2.105.041-3.794-.027V5.566Q158.614,5.642,160.72,5.594Zm.171,7.055a5.407,5.407,0,0,0-1.374-.185q-1.832,0-1.832,1.107,0,1.066,1.654,1.066,1.552,0,1.552-1.866Zm7.116-8.682h1.046q-.239,7.191-.239,8.668a2.135,2.135,0,0,0,.458,1.579,2.222,2.222,0,0,0,1.545.424,3.218,3.218,0,0,0,2.44-.943,5.471,5.471,0,0,0,1.217-2.673l.95.479q-.93,4.074-4.58,4.074a3.2,3.2,0,0,1-2.4-.718,3.1,3.1,0,0,1-.608-2.153q0-.766.062-3.753Q167.979,5.334,168.007,3.967Zm12.578,5.154q.021,1.162.171,3.247a9.291,9.291,0,0,1,3.124,1.887l-.615.745a7.983,7.983,0,0,0-2.454-1.736q.014.2.014.438a1.559,1.559,0,0,1-.656,1.347,2.251,2.251,0,0,1-1.347.383q-2.153,0-2.153-1.565a1.477,1.477,0,0,1,.69-1.244,2.651,2.651,0,0,1,1.606-.465,6.685,6.685,0,0,1,.882.055q-.178-2.461-.2-6.426h.937q-.014.841-.014,2.536a28.509,28.509,0,0,0,2.885-.2V8.95Q182.376,9.073,180.585,9.121Zm-.711,3.9a5.762,5.762,0,0,0-.964-.1,1.833,1.833,0,0,0-1.073.287.723.723,0,0,0-.355.608q0,.8,1.285.8,1.121,0,1.121-1.066Q179.888,13.209,179.874,13.024ZM186.922,3.7a32.631,32.631,0,0,0,4.86.827l-.239.95a42.05,42.05,0,0,1-4.888-.868Zm-1.538,3.938A15.887,15.887,0,0,1,189.5,6.92q2.687,0,2.687,3.363a5.049,5.049,0,0,1-1.347,3.767,7.448,7.448,0,0,1-3.37,1.675l-.52-.848a6.683,6.683,0,0,0,3.206-1.613,4.374,4.374,0,0,0,.971-3.049q0-2.386-1.682-2.386a13.446,13.446,0,0,0-3.7.786Zm15.928-3.473-.321,7.978h-.9l-.267-7.978Zm.014,9.577v1.5H199.8v-1.5ZM7.957,39.59a5.749,5.749,0,0,1-2.707.574A4.366,4.366,0,0,1,1.9,38.817,4.969,4.969,0,0,1,.643,35.283a5.208,5.208,0,0,1,1.415-3.8,4.8,4.8,0,0,1,3.589-1.449,5.754,5.754,0,0,1,2.311.4V31.66a4.686,4.686,0,0,0-2.324-.588A3.566,3.566,0,0,0,2.9,32.2a4.249,4.249,0,0,0-1.049,3.015,4.043,4.043,0,0,0,.981,2.854A3.338,3.338,0,0,0,5.4,39.132a4.828,4.828,0,0,0,2.557-.656Zm9.584.41H16.27L15.23,37.252H11.074L10.1,40H8.818l3.76-9.8h1.189Zm-2.687-3.78-1.538-4.177a4,4,0,0,1-.15-.656h-.027a3.662,3.662,0,0,1-.157.656L11.457,36.22ZM26.011,40H24.644L23,37.252a5.985,5.985,0,0,0-.437-.653,2.494,2.494,0,0,0-.434-.441,1.5,1.5,0,0,0-.479-.25,1.968,1.968,0,0,0-.578-.079h-.943V40H18.983V30.2h2.926a4.17,4.17,0,0,1,1.186.161,2.654,2.654,0,0,1,.943.489,2.271,2.271,0,0,1,.625.817,2.709,2.709,0,0,1,.226,1.145,2.757,2.757,0,0,1-.154.94,2.455,2.455,0,0,1-.437.762,2.652,2.652,0,0,1-.684.571,3.49,3.49,0,0,1-.9.366v.027a2.068,2.068,0,0,1,.427.25,2.351,2.351,0,0,1,.345.332,4.391,4.391,0,0,1,.325.434q.161.243.359.564Zm-5.879-8.764v3.555H21.69a2.364,2.364,0,0,0,.8-.13,1.844,1.844,0,0,0,.632-.373,1.69,1.69,0,0,0,.417-.595,1.991,1.991,0,0,0,.15-.79,1.537,1.537,0,0,0-.509-1.227,2.188,2.188,0,0,0-1.473-.441ZM32.553,40h-5.2V30.2h4.977v1.039H28.506V34.5h3.541v1.032H28.506v3.432h4.047Zm6.973,0H34.439V30.2h1.148v8.764h3.938Zm1.928-8.777a.71.71,0,0,1-.513-.205.692.692,0,0,1-.212-.52.718.718,0,0,1,.725-.731.724.724,0,0,1,.523.208.73.73,0,0,1,0,1.036A.718.718,0,0,1,41.453,31.223ZM42,40H40.879V33H42Zm10.322,0H50.914l-5.045-7.813a3.265,3.265,0,0,1-.314-.615h-.041a10.092,10.092,0,0,1,.055,1.347V40H44.42V30.2h1.49l4.908,7.69q.308.479.4.656h.027a10.371,10.371,0,0,1-.068-1.442V30.2h1.148Zm9.393,0h-1.6l-3.787-4.484a2.733,2.733,0,0,1-.26-.342h-.027V40H54.893V30.2h1.148V34.8h.027a2.7,2.7,0,0,1,.26-.335L59.992,30.2h1.429l-4.2,4.7Zm8.839-7.574q.021,2.769.123,4.689a7.23,7.23,0,0,1,2.468,1.832l-.677.841a6.685,6.685,0,0,0-1.791-1.634,2.112,2.112,0,0,1-.7,1.764,2.5,2.5,0,0,1-1.647.5q-2.42,0-2.42-1.9a1.583,1.583,0,0,1,.725-1.34,2.691,2.691,0,0,1,1.586-.451,6.841,6.841,0,0,1,1.483.15Q69.61,35,69.583,32.467q-1.907.062-3.821.041v-.882q1.7.055,3.808-.014V29.035h1q-.014.841-.014,2.522.875-.048,2.249-.185v.882Q71.8,32.357,70.554,32.426ZM69.7,37.833a4.28,4.28,0,0,0-1.545-.28,1.734,1.734,0,0,0-.964.253.806.806,0,0,0-.4.711q0,1.053,1.511,1.053a1.26,1.26,0,0,0,1.114-.526A1.833,1.833,0,0,0,69.7,37.97ZM64.88,29.165a41.313,41.313,0,0,0-.841,6.87,33.208,33.208,0,0,0,.335,4.341l-.978.089q-.321-3.117-.321-4.457a30.522,30.522,0,0,1,.287-3.685q.226-1.764.526-3.24Zm19.387,8.244a.1.1,0,0,1-.109.109L82.3,37.491H79.078l-1.839.027a.1.1,0,0,1-.109-.109l.027-.978v-.889l-.027-.978a.1.1,0,0,1,.109-.109l1.839.027H82.3l1.853-.027a.1.1,0,0,1,.109.109l-.027.978v.889Zm-.854-.6V35.181H77.984v1.627ZM87.124,34a1.972,1.972,0,0,0-.362.5q-.116.212-.185.212a.712.712,0,0,1-.205-.068,15.147,15.147,0,0,1-3.589-2.16,9.005,9.005,0,0,1-2.153-2.652,11.885,11.885,0,0,1-2.406,2.851,15.832,15.832,0,0,1-3.206,2.037.774.774,0,0,1-.212.068q-.068,0-.2-.226a1.452,1.452,0,0,0-.362-.424,14.34,14.34,0,0,0,3.179-1.832,10.19,10.19,0,0,0-1.6-1.4q-.062-.041-.062-.068t.075-.109l.342-.308q.075-.075.109-.075a.15.15,0,0,1,.082.034A12.724,12.724,0,0,1,78.039,31.8a10.591,10.591,0,0,0,1.791-2.14H77.813l-1.442.027q-.123,0-.123-.109v-.547q0-.109.123-.109l1.442.027h1.935l1.135-.027q.109,0,.178.157a6.638,6.638,0,0,0,.52.957,8.083,8.083,0,0,0,.6.813,9.043,9.043,0,0,0,1.135-1.189,2.833,2.833,0,0,0,.335-.54,4.359,4.359,0,0,1,.69.431.236.236,0,0,1,.109.164q0,.089-.137.157a1.227,1.227,0,0,0-.437.349,14.324,14.324,0,0,1-1.2,1.148,12.552,12.552,0,0,0,1.046.882,14.739,14.739,0,0,0,1.347-1.306,3.344,3.344,0,0,0,.376-.54,5.306,5.306,0,0,1,.67.431q.13.109.13.164v.021a.252.252,0,0,1-.185.164,1.176,1.176,0,0,0-.417.308,14.732,14.732,0,0,1-1.312,1.162A14.409,14.409,0,0,0,87.124,34Zm-.335,6.433a.1.1,0,0,1-.109.109l-1.839-.027H76.583l-1.832.027q-.116,0-.116-.109v-.595q0-.109.116-.109l1.832.027h5.038q.362-.595.677-1.217a3.484,3.484,0,0,0,.267-.786,6.731,6.731,0,0,1,.813.321.172.172,0,0,1,.123.157q0,.068-.123.164a1.064,1.064,0,0,0-.287.383q-.5.848-.588.978h2.338l1.839-.027a.1.1,0,0,1,.109.109Zm-3.931-7.089q0,.109-.1.109l-1.4-.027H79.912l-1.381.027q-.116,0-.116-.109V32.8q0-.109.116-.109l1.381.027h1.442l1.4-.027q.1,0,.1.109Zm-3.35,5.838a.336.336,0,0,1,.021.082q0,.048-.157.13L79,39.583a.6.6,0,0,1-.171.055q-.048,0-.082-.089a5.968,5.968,0,0,0-.67-1.326.188.188,0,0,1-.034-.075q0-.041.15-.109l.362-.164a.383.383,0,0,1,.144-.055q.034,0,.1.082A7.463,7.463,0,0,1,79.509,39.187Zm21.841.28a1.981,1.981,0,0,0-.41.52q-.1.185-.15.185a.434.434,0,0,1-.185-.109,9.069,9.069,0,0,1-3.117-4.806v.95q0,1.142.027,2.434.027.875.027,1.183a2.079,2.079,0,0,1-.075.649.727.727,0,0,1-.287.355,2.839,2.839,0,0,1-1.374.239.507.507,0,0,1-.267-.041.769.769,0,0,1-.082-.239,1.6,1.6,0,0,0-.28-.6,7.663,7.663,0,0,0,.909.055.852.852,0,0,0,.561-.123.567.567,0,0,0,.109-.41V37.771a18.139,18.139,0,0,1-2.229,1.586,1.4,1.4,0,0,0-.444.335.173.173,0,0,1-.144.1.172.172,0,0,1-.15-.082,6.218,6.218,0,0,1-.424-.684,5.5,5.5,0,0,0,.759-.342,17.616,17.616,0,0,0,2.632-1.818V33.937h-1.2l-1.894.027a.1.1,0,0,1-.109-.109v-.561a.1.1,0,0,1,.109-.109l1.894.027h2.926l.1-1.347H96.223l-1.456.027a.1.1,0,0,1-.109-.109v-.547a.1.1,0,0,1,.109-.109l1.456.027h2.393l.1-1.265h-2.8l-1.552.027q-.116,0-.116-.109v-.561q0-.109.116-.109l1.552.027h1.976l1.559-.027a.109.109,0,0,1,.123.123q-.027.219-.048.526-.034.376-.041.438l-.219,2.987L101,33.185q.123,0,.123.109v.561q0,.109-.123.109l-1.894-.027H97.569a11.891,11.891,0,0,0,.964,2.55,10.69,10.69,0,0,0,1.2-1.429,2.521,2.521,0,0,0,.308-.547,4.052,4.052,0,0,1,.608.417.323.323,0,0,1,.109.2q0,.068-.157.171a1.885,1.885,0,0,0-.417.4,10.3,10.3,0,0,1-1.306,1.388A7.945,7.945,0,0,0,101.35,39.467Zm-7.725-4.409q0,.109-.116.109l-1.456-.027h-.321v3.869a17.041,17.041,0,0,0,1.682-.649,2.2,2.2,0,0,0-.068.52.411.411,0,0,1-.062.273.57.57,0,0,1-.205.1q-1.429.554-3.322,1.094a1.753,1.753,0,0,0-.52.212.333.333,0,0,1-.185.082.153.153,0,0,1-.164-.109q-.1-.246-.267-.772a8.4,8.4,0,0,0,1.066-.178q.978-.239,1.271-.328V35.14h-.547l-1.456.027a.1.1,0,0,1-.109-.109v-.533a.1.1,0,0,1,.109-.109l1.456.027h.547V32.918h-.1l-1.189.027q-.116,0-.116-.13v-.5a.1.1,0,0,1,.116-.116l1.189.027h1.08l1.176-.027q.109,0,.109.116v.5q0,.13-.109.13l-1.176-.027h-.212v1.524h.321l1.456-.027q.116,0,.116.109Zm.232-3.985a1,1,0,0,0-.362.444q-.1.185-.144.185a1.16,1.16,0,0,1-.212-.144A10.816,10.816,0,0,1,91.506,29.7a12.423,12.423,0,0,1-2.468,2.789.546.546,0,0,1-.205.109q-.082,0-.144-.185a1.241,1.241,0,0,0-.321-.485,8.657,8.657,0,0,0,2.475-2.707,2.053,2.053,0,0,0,.3-.752,4.523,4.523,0,0,1,.807.226q.144.041.144.123a.216.216,0,0,1-.13.185l-.109.082A9.861,9.861,0,0,0,93.857,31.072Zm-3.568,7.109q.007.055.007.068,0,.062-.15.123l-.335.144a.478.478,0,0,1-.137.034q-.062,0-.075-.1a10.431,10.431,0,0,0-.472-2.167.207.207,0,0,1-.021-.075q0-.055.171-.116l.294-.116a.559.559,0,0,1,.137-.034q.041,0,.075.075A11.889,11.889,0,0,1,90.289,38.182Zm3.37-2.017a.236.236,0,0,1-.109.164.979.979,0,0,0-.212.4q-.232.718-.451,1.23-.068.2-.123.2a.466.466,0,0,1-.15-.062,2.436,2.436,0,0,0-.437-.137,9.51,9.51,0,0,0,.547-1.654,2.009,2.009,0,0,0,.068-.526,6.211,6.211,0,0,1,.745.246Q93.659,36.09,93.659,36.165Zm2.215.123a.207.207,0,0,1,.021.075q0,.041-.123.137l-.28.226a.732.732,0,0,1-.164.1q-.034,0-.082-.1a6.081,6.081,0,0,0-1.053-1.668.112.112,0,0,1-.041-.068q0-.041.123-.13l.294-.191a.279.279,0,0,1,.123-.068q.041,0,.1.068A8.213,8.213,0,0,1,95.874,36.288ZM106.531,39.2q0,.116-.109.116h-.581q-.109,0-.109-.116v-.7h-1.818v1.162a.1.1,0,0,1-.109.109h-.595a.1.1,0,0,1-.109-.109l.027-4.32V32.59l-.027-3.274a.1.1,0,0,1,.109-.109l1.121.027h.971l1.121-.027a.1.1,0,0,1,.109.109l-.027,2.83v2.905Zm-.8-1.442v-3.63h-1.818v3.63Zm0-4.354V29.979h-1.818V33.4Zm9.283.089a.1.1,0,0,1-.109.109l-1.935-.027h-3.979l-1.914.027a.1.1,0,0,1-.109-.109v-.581a.1.1,0,0,1,.109-.109l1.914.027H110.3V30.97h-.868L107.639,31q-.13,0-.13-.116v-.561q0-.123.13-.123l1.791.027h.868a11.93,11.93,0,0,0-.1-1.791q.567.021.909.068.171.027.171.123s-.023.089-.068.253a5.578,5.578,0,0,0-.089,1.347H112.4l1.8-.027q.109,0,.109.123v.561q0,.116-.109.116l-1.8-.034h-1.271v1.859h1.846l1.935-.027a.1.1,0,0,1,.109.109Zm-.171,2.5a.1.1,0,0,1-.109.109l-1.682-.027v1.9l.014,1.791a1.053,1.053,0,0,1-.39.937,3.4,3.4,0,0,1-1.627.239.487.487,0,0,1-.26-.041.592.592,0,0,1-.089-.226,1.986,1.986,0,0,0-.28-.629q.567.055,1.313.055.492,0,.492-.513V36.069h-3.165l-1.9.027q-.116,0-.116-.109v-.581q0-.1.116-.1l1.9.014h3.165V35.3a8.226,8.226,0,0,0-.1-1.483,6.171,6.171,0,0,1,.9.1q.185.021.185.116a.636.636,0,0,1-.082.232,3.673,3.673,0,0,0-.075,1v.068l1.682-.014q.109,0,.109.1Zm-4.56,2.57a.173.173,0,0,1,.027.082q0,.055-.1.13l-.376.253a.478.478,0,0,1-.164.089q-.041,0-.075-.062a8.338,8.338,0,0,0-1.34-1.75.131.131,0,0,1-.048-.082q0-.055.13-.13l.335-.212a.35.35,0,0,1,.13-.055.169.169,0,0,1,.1.041A8.418,8.418,0,0,1,110.284,38.558Zm9.769-2.126.957.082a5.457,5.457,0,0,0-.157,1.258,1.054,1.054,0,0,0,.444.978,3.167,3.167,0,0,0,1.545.273,25.984,25.984,0,0,0,2.769-.144l.027,1.012q-1.025.082-2.659.082a4.349,4.349,0,0,1-2.44-.492,1.783,1.783,0,0,1-.636-1.552A7.22,7.22,0,0,1,120.053,36.432Zm.28-4.676V30.8q1.75-.137,3.541-.137.889,0,1.668.041v.95q-.725-.055-1.764-.055Q121.987,31.6,120.333,31.756Zm-1.511-2.413a36.343,36.343,0,0,0-.786,6.61,24.829,24.829,0,0,0,.342,4.382l-1,.082a28.849,28.849,0,0,1-.321-4.491,40.268,40.268,0,0,1,.772-6.665ZM132.986,40H127.9V30.2h1.148v8.764h3.938Zm2.652,0H134.49V30.2h1.148Zm10.479,0H144.71l-5.045-7.813a3.265,3.265,0,0,1-.314-.615h-.041a10.093,10.093,0,0,1,.055,1.347V40h-1.148V30.2h1.49l4.908,7.69q.308.479.4.656h.027a10.371,10.371,0,0,1-.068-1.442V30.2h1.148Zm7.766,0h-5.2V30.2h4.977v1.039h-3.828V34.5h3.541v1.032h-3.541v3.432h4.047Zm5.325-6.624q1.429-.854,3.274-1.818l.5.882a29.874,29.874,0,0,0-4.464,2.5,3.4,3.4,0,0,0-1.709,2.714q0,1.8,2.885,1.8,1.483,0,3.391-.137v1q-2.345.068-3.459.068-3.78,0-3.78-2.755,0-2.085,2.475-3.7-.588-2.14-1.087-5.024l1.032-.041A41.144,41.144,0,0,0,159.209,33.376Zm18.389,4.4a.1.1,0,0,1-.109.109l-1.976-.027h-2.058l.027,1.442a.1.1,0,0,1-.109.109h-.615q-.116,0-.116-.109,0-.014.007-.178.014-.54.021-1.265h-1.8l-1.969.027q-.116,0-.116-.109v-.547q0-.109.116-.109l1.969.027h1.8V36.042h-1.114l-1.866.027a.1.1,0,0,1-.109-.109l.027-1.265V33.014l-.027-1.258q0-.13.109-.13l1.866.027h1.114V30.587h-1.716l-1.962.027q-.116,0-.116-.109v-.547q0-.109.116-.109l1.962.027h1.716a8.757,8.757,0,0,0-.1-1.388,5.455,5.455,0,0,1,.868.075q.171.021.171.123a.311.311,0,0,1-.027.1.629.629,0,0,0-.041.123,3.16,3.16,0,0,0-.089.923v.041h2l1.962-.027a.1.1,0,0,1,.109.109V30.5a.1.1,0,0,1-.109.109l-1.962-.027h-2v1.066H174.7l1.853-.027q.109,0,.109.13l-.027,1.258V34.7l.027,1.265a.1.1,0,0,1-.109.109l-1.853-.027h-1.244v1.107h2.058l1.976-.027a.1.1,0,0,1,.109.109Zm-1.736-2.386V34.107h-2.406v1.285Zm-3.192,0V34.107h-2.3v1.285Zm3.192-1.914V32.3h-2.406v1.176Zm-3.192,0V32.3h-2.3v1.176Zm5.421,6.1a1.21,1.21,0,0,0-.267.595q-.041.239-.082.267a.506.506,0,0,1-.239.041q-2.748.171-4.97.171a9.05,9.05,0,0,1-3.445-.444,2.706,2.706,0,0,1-1.347-1.388,13.248,13.248,0,0,1-1.47,1.347,1.944,1.944,0,0,0-.308.294q-.068.137-.164.137-.075,0-.171-.137a5.619,5.619,0,0,1-.39-.718,5.5,5.5,0,0,0,.854-.52,7.028,7.028,0,0,0,1.244-1.114V34.627h-.978l-.971.027q-.109,0-.109-.116v-.615a.1.1,0,0,1,.109-.109l.971.027h.711l1-.027a.1.1,0,0,1,.109.109l-.027,1.319v2.9a2.4,2.4,0,0,0,1.244,1.367,7.352,7.352,0,0,0,2.816.362Q174.979,39.87,178.09,39.583ZM168.1,30.942a.173.173,0,0,1,.027.082q0,.055-.109.144l-.355.267a.35.35,0,0,1-.157.075q-.048,0-.1-.082a10.917,10.917,0,0,0-1.518-1.969q-.055-.055-.055-.082,0-.048.116-.144l.328-.239a.291.291,0,0,1,.137-.075q.034,0,.1.062A13.569,13.569,0,0,1,168.1,30.942Zm20.18,1.285v.93h.745l1.907-.027a.1.1,0,0,1,.109.109v.41q0,.137-.109.137l-1.907-.027h-.745v1h1.456l1.88-.027q.1,0,.1.109V35.3a.085.085,0,0,1-.1.1l-1.88-.014h-3.425l-1.894.014q-.109,0-.109-.1l.027-1.483V31.53a10.5,10.5,0,0,1-.772.834q-.109.116-.164.116t-.144-.13a1.865,1.865,0,0,0-.28-.294q-.014.034-.1.034l-1.08-.034V34.9q1.107-.479,1.429-.643a3.822,3.822,0,0,0-.027.561q.007.082.007.116a.291.291,0,0,1-.2.26q-.663.308-1.21.533v1.641l.027,2.112a1.406,1.406,0,0,1-.362,1.121,1.916,1.916,0,0,1-1.162.253h-.226a.484.484,0,0,1-.267-.041.44.44,0,0,1-.082-.226,1.928,1.928,0,0,0-.253-.615q.438.041,1.032.041a.442.442,0,0,0,.383-.144.826.826,0,0,0,.1-.458v-3.35l-.7.273a1.532,1.532,0,0,0-.506.267.27.27,0,0,1-.2.082.151.151,0,0,1-.137-.109,8.367,8.367,0,0,1-.267-.82,11.309,11.309,0,0,0,1.244-.335l.561-.2V32.057h-.431l-1.21.034q-.1,0-.1-.116v-.588q0-.109.1-.109l1.21.027h.431V30.156a10.732,10.732,0,0,0-.1-1.7,7.172,7.172,0,0,1,.9.089q.185.021.185.109a.834.834,0,0,1-.082.267,4.388,4.388,0,0,0-.089,1.217V31.3l1.08-.027a.1.1,0,0,1,.109.109v.492a6.556,6.556,0,0,0,1.764-2.283,3.052,3.052,0,0,0,.321-.991,3.839,3.839,0,0,1,.759.226q.144.055.144.15t-.123.171a2.344,2.344,0,0,0-.355.588q-.062.123-.2.362h2.229a7.523,7.523,0,0,0,.4-.9,2.811,2.811,0,0,0,.13-.561,4.285,4.285,0,0,1,.738.2q.157.055.157.123a.23.23,0,0,1-.1.171.661.661,0,0,0-.2.28,6.429,6.429,0,0,1-.383.684h1.388l1.736-.027q.116,0,.116.109v.451q0,.109-.116.109l-1.736-.027h-1.388v.909h.772l1.921-.027a.1.1,0,0,1,.109.109v.438a.1.1,0,0,1-.109.109l-1.921-.027Zm-.766,0H185.1v.93h2.406Zm0-.6v-.909H185.1v.909Zm0,3.138v-1H185.1v1Zm1.381,2.9h1.442l.95-.027q.116,0,.116.082v.027q-.082.588-.171,1.066A8.154,8.154,0,0,1,190.962,40a1.328,1.328,0,0,1-1.415.909q-.485,0-1.189-.068-.171-.021-.212-.082a.737.737,0,0,1-.048-.226,1.665,1.665,0,0,0-.185-.574,10.475,10.475,0,0,0,1.552.164.748.748,0,0,0,.786-.561,8.711,8.711,0,0,0,.226-1.271h-1.839q-.021.062-.075.191t-.075.185a.131.131,0,0,1-.123.082q-.034,0-.1-.007l-.4-.089q-.15-.027-.15-.1a.17.17,0,0,1,.021-.075,9.249,9.249,0,0,0,.6-1.545h-2.017a4.744,4.744,0,0,1-1.094,2.632,5.736,5.736,0,0,1-2.051,1.374.484.484,0,0,1-.2.055q-.089,0-.226-.212a1.608,1.608,0,0,0-.417-.4q2.892-.957,3.151-3.445h-.28l-1.935.027q-.109,0-.109-.123v-.492a.1.1,0,0,1,.109-.109l1.935.027h2.42l1.613-.027q.123,0,.123.1a.225.225,0,0,1-.014.068q-.116.314-.212.567ZM199.719,31.5q-.041,1.518,0,3.035a5.324,5.324,0,0,1,.308,1.777,3.687,3.687,0,0,1-1.306,3.069,7.744,7.744,0,0,1-3.274,1.271l-.588-.841a6.334,6.334,0,0,0,3.411-1.381,2.741,2.741,0,0,0,.807-1.88,1.856,1.856,0,0,1-1.8.882,2.2,2.2,0,0,1-1.531-.574,2.3,2.3,0,0,1,.123-3.356,2.469,2.469,0,0,1,1.559-.492,2,2,0,0,1,1.36.39q-.027-1.312-.027-1.873-2.249.034-5.435.239l-.014-.9q2.584-.1,5.435-.171V28.8l1,.014q0,.629-.027,1.859,2.324-.027,3.363-.027v.9Q201.4,31.5,199.719,31.5Zm-2.338,2.3a1.322,1.322,0,0,0-.984.4,1.413,1.413,0,0,0-.39,1.046,1.237,1.237,0,0,0,.444,1,1.288,1.288,0,0,0,.848.294,1.406,1.406,0,0,0,1.1-.41,1.3,1.3,0,0,0,.314-.916Q198.714,33.8,197.381,33.8Zm8.627-4.259q1.853-.014,5.694-.2l.588.731q-2.728,2.769-4.327,4.156l-.629.547.055.041.718-.485a4.614,4.614,0,0,1,1.976-.533,3.547,3.547,0,0,1,2.707,1,3.071,3.071,0,0,1,.807,2.208,3.316,3.316,0,0,1-1.278,2.844,5.317,5.317,0,0,1-3.22.848q-2.741,0-2.741-1.859a1.625,1.625,0,0,1,.588-1.312,2.172,2.172,0,0,1,1.429-.451,2.3,2.3,0,0,1,1.777.752,3.445,3.445,0,0,1,.786,1.682,2.579,2.579,0,0,0,1.258-.978,2.922,2.922,0,0,0,.362-1.538,2.231,2.231,0,0,0-.868-1.873,2.671,2.671,0,0,0-1.668-.526,4.9,4.9,0,0,0-3.384,1.36,12.447,12.447,0,0,0-1.162,1.217l-.827-.67q3.35-3.445,6.132-6.275-2.01.15-4.771.226Zm3.944,10.247a3.024,3.024,0,0,0-.622-1.429,1.275,1.275,0,0,0-.984-.472,1.119,1.119,0,0,0-.807.3.828.828,0,0,0-.273.622.87.87,0,0,0,.465.827,2.872,2.872,0,0,0,1.3.226A6.036,6.036,0,0,0,209.952,39.788Zm17.814-2.994q0,.109-.1.109l-.178-.007q-.533-.014-1.2-.021v.9l.034,1.265q0,.109-.116.109h-.615a.1.1,0,0,1-.109-.109V38.6h-3.527l.014,1.025a2.005,2.005,0,0,1-.1.718.782.782,0,0,1-.294.342,4.308,4.308,0,0,1-1.894.253.411.411,0,0,1-.253-.048.736.736,0,0,1-.1-.219,2.774,2.774,0,0,0-.342-.629,8.522,8.522,0,0,0,.93.062q.137,0,.308-.007a1.255,1.255,0,0,0,.752-.144.713.713,0,0,0,.144-.526V38.6h-2.406l-1.976.027q-.116,0-.116-.109v-.492q0-.109.116-.109l1.976.027h2.406V36.876H217.28l-1.812.027a.1.1,0,0,1-.109-.109V36.3a.1.1,0,0,1,.109-.109l1.812.027h3.849v-.984h-2.406l-1.976.027q-.116,0-.116-.1v-.506q0-.109.116-.109l1.976.027h2.406v-.95h-1.853l-1.976.027q-.109,0-.109-.123l.027-.772v-.588l-.027-.772a.1.1,0,0,1,.109-.109l1.976.027h1.853V30.45h-3.753l-1.832.027q-.116,0-.116-.109v-.52q0-.109.116-.109l1.832.027h3.753a6.935,6.935,0,0,0-.1-1.456,6.54,6.54,0,0,1,.909.068q.171.027.171.116a.905.905,0,0,1-.082.267,3.843,3.843,0,0,0-.068.978v.027H225.7l1.839-.027a.1.1,0,0,1,.109.109v.52a.1.1,0,0,1-.109.109L225.7,30.45h-3.746v.868h1.9l1.989-.027a.1.1,0,0,1,.109.109l-.027.772v.588l.027.772q0,.123-.109.123l-1.989-.027h-1.9v.95h2.249l2.01-.027a.1.1,0,0,1,.109.109l-.034,1.251v.308l1.374-.027q.1,0,.1.109Zm-2.283,1.148V36.876h-3.527v1.066Zm0-1.723v-.984h-3.527v.984Zm-.321-3.206v-1.08h-3.206v1.08Zm-4.033,0v-1.08h-3.138v1.08Zm15.128-.171.718-.273a18.274,18.274,0,0,1,1.032,2.365l-.752.308A15.122,15.122,0,0,0,236.257,32.843Zm1.586-.472.7-.253a11.566,11.566,0,0,1,1,2.3l-.731.294A13.487,13.487,0,0,0,237.843,32.371Zm.39-2.632.027.964a5.312,5.312,0,0,0-2.311.629,5.934,5.934,0,0,0-2.071,1.962,4.817,4.817,0,0,0-.813,2.659,2.958,2.958,0,0,0,1.285,2.529,6.17,6.17,0,0,0,2.933,1l-.239,1a6.1,6.1,0,0,1-3.63-1.381,3.89,3.89,0,0,1-1.312-3.049,5.709,5.709,0,0,1,2.994-5.024l.759-.335-.014-.027-.656.109q-1.189.068-5.66.479l-.082-.923Q231.444,30.177,238.232,29.739Zm3.124,7.738A14.949,14.949,0,0,1,243,39.009a10.044,10.044,0,0,1,1.169,1.483l-.923.684a11.119,11.119,0,0,0-2.7-3.035ZM13.063,59.2q0,.116-.171.212a2.011,2.011,0,0,0-.5.465,11.817,11.817,0,0,1-1.812,1.736q-.144.123-.2.123a.871.871,0,0,1-.232-.157,2.794,2.794,0,0,0-.608-.335,8.584,8.584,0,0,0,1.989-1.736H7.643V62.58l.014,1.914a1.242,1.242,0,0,1-.362,1.025,3.378,3.378,0,0,1-1.709.267H5.291q-.232,0-.273-.048a.64.64,0,0,1-.089-.246,2.856,2.856,0,0,0-.28-.69,14.116,14.116,0,0,0,1.456.089.739.739,0,0,0,.513-.13.585.585,0,0,0,.116-.417V59.511H3.192l-1.866.027a.1.1,0,0,1-.109-.109v-.677a.1.1,0,0,1,.109-.109l1.866.027h4.4a14.828,14.828,0,0,0-2.953-2.126q-.075-.041-.075-.062a.6.6,0,0,1,.1-.15l.28-.321q.075-.082.116-.082a.148.148,0,0,1,.075.034,15.9,15.9,0,0,1,1.784,1.1,17.941,17.941,0,0,0,3.09-2.071H4.5l-1.969.027q-.1,0-.1-.109v-.649q0-.109.1-.109l1.969.027H10.37a1.046,1.046,0,0,0,.342-.041,1.254,1.254,0,0,1,.191-.068q.13,0,.438.308t.308.465q0,.116-.2.191a1.606,1.606,0,0,0-.485.294A18.988,18.988,0,0,1,7.6,57.563q.253.205.841.731.048.041.048.062a.686.686,0,0,1-.123.13l-.191.185h3.637a.792.792,0,0,0,.355-.055.42.42,0,0,1,.164-.055,1.068,1.068,0,0,1,.451.267Q13.063,59.073,13.063,59.2Zm7.369,1.306a.268.268,0,0,1,.021.089q0,.075-.178.13l-.321.1a.579.579,0,0,1-.137.027q-.062,0-.082-.089-.205-.629-.267-.807l-1.347.137v3.753l.027,2.044q0,.1-.109.1H17.4q-.109,0-.109-.1l.027-2.044V60.167l-1.538.116a1.534,1.534,0,0,0-.533.109.422.422,0,0,1-.157.055q-.089,0-.137-.178-.055-.212-.144-.772.444.041.882.041h.171q.5-.649,1.053-1.456a19.586,19.586,0,0,0-2.064-2.153.146.146,0,0,1-.062-.1q0-.041.109-.157l.239-.294q.089-.1.13-.1t.089.062l.533.52q.52-.807.923-1.586a3.59,3.59,0,0,0,.369-.95q.376.15.779.349.157.075.157.185,0,.075-.123.15a.821.821,0,0,0-.239.294q-.738,1.224-1.347,2.085.479.479.937,1.025.52-.834.909-1.5a6.472,6.472,0,0,0,.561-1.189,5.8,5.8,0,0,1,.772.39.209.209,0,0,1,.123.171q0,.089-.137.178a2.63,2.63,0,0,0-.492.615q-1.155,1.846-2.338,3.418,1.354-.075,2.468-.164a10.8,10.8,0,0,0-.547-1.08.168.168,0,0,1-.027-.075q0-.055.164-.123l.253-.1a.369.369,0,0,1,.15-.048q.055,0,.1.075A14.108,14.108,0,0,1,20.433,60.509Zm6.31-4.58q-.027.355-.027,1.066a45.94,45.94,0,0,1-.451,6.788,3.462,3.462,0,0,1-.608,1.634,1.439,1.439,0,0,1-1.142.479,10.86,10.86,0,0,1-1.3-.068.457.457,0,0,1-.267-.075.769.769,0,0,1-.082-.26,2.124,2.124,0,0,0-.226-.629,12.161,12.161,0,0,0,1.818.191.759.759,0,0,0,.69-.506,4.283,4.283,0,0,0,.294-1.073,44.315,44.315,0,0,0,.39-6.87H21.745a11.224,11.224,0,0,1-1.176,1.818q-.116.157-.2.157t-.205-.144a1.731,1.731,0,0,0-.451-.335,10.017,10.017,0,0,0,2.03-3.568,5.634,5.634,0,0,0,.267-1.237,6.023,6.023,0,0,1,.868.226q.2.068.2.171a.392.392,0,0,1-.123.246,1.736,1.736,0,0,0-.355.677q-.144.451-.479,1.217h2.987l1.511-.027A.109.109,0,0,1,26.742,55.929Zm-2.9,5.558a.221.221,0,0,1,.034.089q0,.055-.144.137l-.39.219a.535.535,0,0,1-.185.089q-.041,0-.082-.082a11.6,11.6,0,0,0-1.7-2.68.131.131,0,0,1-.048-.082q0-.048.144-.137l.349-.212a.282.282,0,0,1,.13-.062q.034,0,.082.062A11.163,11.163,0,0,1,23.844,61.486ZM16.5,61.473a.658.658,0,0,1-.068.164,1.3,1.3,0,0,0-.1.41,11.775,11.775,0,0,1-.684,2.728q-.055.2-.123.2a.525.525,0,0,1-.212-.109,1.1,1.1,0,0,0-.479-.212,10.723,10.723,0,0,0,.759-2.762,2.92,2.92,0,0,0,.034-.437q0-.089-.007-.232a5.67,5.67,0,0,1,.684.109Q16.5,61.37,16.5,61.473Zm3.9,2.475a.225.225,0,0,1,.007.055q0,.1-.171.157l-.335.1a.611.611,0,0,1-.157.034q-.055,0-.082-.1a14.687,14.687,0,0,0-.731-2.687.262.262,0,0,1-.021-.082q0-.075.164-.116l.294-.082a.561.561,0,0,1,.116-.021q.068,0,.123.1A13.74,13.74,0,0,1,20.4,63.947Zm15.709-7.964a3.553,3.553,0,0,1,.362-.014,2.4,2.4,0,0,1,2.023.93,2.83,2.83,0,0,1,.554,1.771,2.543,2.543,0,0,1-.978,2.194,3.92,3.92,0,0,1-2.358.622q-.349,0-.882-.027l-.15-.95q.759.055,1.148.055,2.181,0,2.181-1.853a1.982,1.982,0,0,0-.567-1.538,1.546,1.546,0,0,0-1.066-.39,14.2,14.2,0,0,0-4.074.95q1.012,3.794,1.859,7.731l-1,.205q-.813-3.931-1.791-7.615-.82.28-2.146.786l-.349-.868q1.914-.649,2.256-.759-.267-.978-.827-2.939l.964-.253L31.7,55.58q.226.793.376,1.326a23.04,23.04,0,0,1,2.98-.827,19.409,19.409,0,0,0-1.019-2.058l.9-.335A20.619,20.619,0,0,1,36.107,55.983Zm16.379,8.429a1.3,1.3,0,0,1-.362,1.066,1.175,1.175,0,0,1-.6.232,9.389,9.389,0,0,1-1.135.048.409.409,0,0,1-.239-.041.64.64,0,0,1-.082-.226,2.251,2.251,0,0,0-.253-.615,9.618,9.618,0,0,0,1.06.055.893.893,0,0,0,.629-.15.833.833,0,0,0,.116-.526V58.321h-2.5l-1.518.027q-.123,0-.123-.109l.027-1.21v-1.8l-.027-1.2q0-.109.123-.109l1.518.027h1.729l1.518-.027a.1.1,0,0,1,.109.109l-.027,2v6.357Zm-.868-6.761V56.428H48.3v1.224Zm0-1.894V54.623H48.3v1.135Zm-5.462,2.481a.1.1,0,0,1-.109.109l-1.4-.027H42.2v4.594l.027,2.912a.1.1,0,0,1-.109.109h-.663a.1.1,0,0,1-.109-.109l.027-2.912V56.961l-.027-2.939a.1.1,0,0,1,.109-.109l1.586.027h1.606l1.4-.027a.1.1,0,0,1,.109.109l-.027,1.285v1.641Zm-.827-.588V56.428H42.2v1.224Zm0-1.894V54.623H42.2v1.135Zm3.842,8.333a.1.1,0,0,1-.116.116h-.588q-.123,0-.123-.116v-.684H45.322v.937q0,.116-.109.116h-.6a.1.1,0,0,1-.116-.116l.027-2.222v-.984L44.5,59.75a.1.1,0,0,1,.109-.109l1.442.027h1.572l1.442-.027a.1.1,0,0,1,.109.109L49.144,60.9v1.053Zm-.827-1.381V60.365H45.322V62.71Zm10.726-1.422.854.615q-.677,3.377-2.27,3.377a1.651,1.651,0,0,1-1.538-1.019,9.207,9.207,0,0,1-.718-3.227q-.109-1.312-.109-3.541l.014-2.632h1.012l-.021,2.188q0,2.646.116,3.9.267,3.22,1.217,3.22.485,0,.813-.711A11.913,11.913,0,0,0,59.069,61.288Zm2.1-5.346.909-.267A17.059,17.059,0,0,1,64.5,63.25l-1.053.171A17.589,17.589,0,0,0,61.168,55.942Zm15.176,9.8q0,.109-.123.109h-.663a.1.1,0,0,1-.109-.109v-.574H69.234v.643q0,.1-.109.1h-.677q-.109,0-.109-.1l.027-2.434V62.245l-.027-1.572a.1.1,0,0,1,.109-.109l1.935.027H74.3l1.921-.027q.123,0,.123.109l-.027,1.374v1.285Zm-.9-1.333V61.35H69.234v3.063Zm3.541-5.824a2.1,2.1,0,0,0-.39.561q-.1.226-.185.226a.5.5,0,0,1-.219-.082,13.358,13.358,0,0,1-5.927-4.819,15.255,15.255,0,0,1-5.694,4.9.781.781,0,0,1-.212.082q-.062,0-.185-.2a1.858,1.858,0,0,0-.431-.5,12.624,12.624,0,0,0,5.742-4.737,3.55,3.55,0,0,0,.39-.793q.526.082.868.164.2.062.2.157a.208.208,0,0,1-.1.164l-.123.116A13.2,13.2,0,0,0,78.989,58.588Zm-3.794.1a.1.1,0,0,1-.109.109l-1.641-.027H71.21l-1.641.027a.1.1,0,0,1-.109-.109v-.608a.1.1,0,0,1,.109-.109L71.21,58h2.235l1.641-.027a.1.1,0,0,1,.109.109Zm8.374-4.977q-.062,1.073-.1,2.188l.444-.027.144.513q-.506.9-.649,1.237l-.014.191-.109.506.239-.417A4.712,4.712,0,0,1,87.028,56a2.9,2.9,0,0,1,2.755,1.668,5.864,5.864,0,0,1,.588,2.728q0,4.238-4.368,4.833l-.458-.827a4.592,4.592,0,0,0,2.96-1.347,4,4,0,0,0,.82-2.687,4.4,4.4,0,0,0-.711-2.591,1.942,1.942,0,0,0-1.641-.923,3.126,3.126,0,0,0-1.818.567A9.108,9.108,0,0,0,83.4,59.162q-.014.786-.014,2.7,0,2.687.014,3.739h-.964q0-3.179.041-4.771l.089-.9-.342.766q-.1.2-1.408,2.646l-.745-.67q1.169-2.126,2.42-4.225l.027-1.627q-.144.014-.54.062-.909.1-1.613.191l-.068-.827q.971-.082,2.235-.226.014-.752.062-2.311Zm15.647,4.129q-1.989.089-3.931.212-.041,1.723-.041,3.083a15.213,15.213,0,0,0,.109,2.488,1.01,1.01,0,0,0,.745.67,6.092,6.092,0,0,0,1.675.171,32.991,32.991,0,0,0,3.363-.164v.978q-1.743.1-3.336.1a6.145,6.145,0,0,1-2.536-.383,1.543,1.543,0,0,1-.848-1.019,14.347,14.347,0,0,1-.13-2.611q0-.854.034-3.24-1.456.116-2.2.185V57.4l1.2-.082q.643-.041,1.019-.075.027-.984.055-3.008h.978q-.062,2.3-.068,2.953,2.687-.144,3.931-.191.027-1.08,0-3.24h.984q0,1.579-.041,3.192.355-.014,1.128-.034.656-.021,1.012-.034v.9l-2.153.041q-.048,1.675-.171,2.912-.13,1.36-1.271,1.36a4.812,4.812,0,0,1-1.907-.376V60.687a3.665,3.665,0,0,0,1.668.41q.492,0,.574-.7Q99.176,59.319,99.217,57.843Zm8.36-.4a41.522,41.522,0,0,1-2.646,7.841l-.923-.362a37.252,37.252,0,0,0,2.563-7.41q-.848.062-2.577.226l-.055-.882q.513-.034,1.518-.1l1.313-.089q.26-1.183.533-2.782l.991.137q-.308,1.6-.533,2.591.786-.055,1.429-.055a1.428,1.428,0,0,1,1.278.567,3.662,3.662,0,0,1,.4,1.982,19.506,19.506,0,0,1-.437,4.97,1.777,1.777,0,0,1-.636,1,1.828,1.828,0,0,1-1.073.28,9.25,9.25,0,0,1-1.422-.109l-.171-.978a6.216,6.216,0,0,0,1.244.164,1.47,1.47,0,0,0,.745-.144.9.9,0,0,0,.335-.485,16.428,16.428,0,0,0,.444-4.566,3.52,3.52,0,0,0-.219-1.538.713.713,0,0,0-.677-.321Q108.363,57.385,107.577,57.439Zm4.108-3.992.711-.28a19.25,19.25,0,0,1,1.039,2.372l-.759.308A14.765,14.765,0,0,0,111.686,53.447Zm1.5-.472.7-.253a11.327,11.327,0,0,1,.991,2.3l-.725.294A13.488,13.488,0,0,0,113.183,52.976Zm-2.311,2.844.882-.451A16.879,16.879,0,0,1,114.16,60.2l-.978.458A14.513,14.513,0,0,0,110.872,55.819ZM121.27,65h-5.086V55.2h1.148v8.764h3.938Zm2.652,0h-1.148V55.2h1.148ZM134.4,65h-1.408l-5.045-7.813a3.265,3.265,0,0,1-.314-.615h-.041a10.092,10.092,0,0,1,.055,1.347V65H126.5V55.2h1.49l4.908,7.69q.308.479.4.656h.027a10.371,10.371,0,0,1-.068-1.442V55.2H134.4Zm7.766,0h-5.2V55.2h4.977v1.039H138.12V59.5h3.541v1.032H138.12v3.432h4.047Zm4.956-3.568.957.082a5.458,5.458,0,0,0-.157,1.258,1.054,1.054,0,0,0,.444.978,3.167,3.167,0,0,0,1.545.273,25.984,25.984,0,0,0,2.769-.144l.027,1.012q-1.025.082-2.659.082a4.349,4.349,0,0,1-2.44-.492,1.783,1.783,0,0,1-.636-1.552A7.219,7.219,0,0,1,147.123,61.432Zm.28-4.676V55.8q1.75-.137,3.541-.137.889,0,1.668.041v.95q-.725-.055-1.764-.055Q149.058,56.6,147.4,56.756Zm-1.511-2.413a36.343,36.343,0,0,0-.786,6.61,24.83,24.83,0,0,0,.342,4.382l-1,.082a28.85,28.85,0,0,1-.321-4.491,40.269,40.269,0,0,1,.772-6.665Zm20.193,2.3-.027,1.791v2.242l.014,2.058a1.082,1.082,0,0,1-.308.9,2.635,2.635,0,0,1-1.374.267.523.523,0,0,1-.253-.034.448.448,0,0,1-.082-.205,1.3,1.3,0,0,0-.253-.574q.417.041.978.041a.441.441,0,0,0,.492-.506V61.343h-2.659V62l.027,1.682q0,.109-.1.109h-.608a.1.1,0,0,1-.109-.109L161.854,62v-.656h-2.413v.8l.027,1.7a.1.1,0,0,1-.109.109h-.608a.1.1,0,0,1-.109-.109l.027-1.682V58.349l-.027-1.709a.1.1,0,0,1,.109-.109l1.887.027h1.326a11.687,11.687,0,0,0-1.586-1.094q-.075-.041-.075-.082t.116-.144l.28-.219a.205.205,0,0,1,.123-.075.273.273,0,0,1,.109.041,15.649,15.649,0,0,1,1.511,1.107,22.415,22.415,0,0,0,1.962-1.511h-4.013l-1.832.027q-.116,0-.116-.109v-.533q0-.123.116-.123l1.832.027h4.143a.981.981,0,0,0,.335-.041.42.42,0,0,1,.164-.055q.116,0,.4.28t.294.431q0,.137-.185.2a1.654,1.654,0,0,0-.492.308,24.752,24.752,0,0,1-2.1,1.552l.027.014h1.107l1.894-.027A.1.1,0,0,1,166.086,56.64Zm-.813,4.047V59.271h-2.659v1.415Zm0-2.058V57.214h-2.659v1.415Zm-3.418,0V57.214h-2.413v1.415Zm0,2.058V59.271h-2.413v1.415Zm5.421,3.835a1.649,1.649,0,0,0-.26.677.5.5,0,0,1-.082.253.652.652,0,0,1-.246.034q-2.646.185-5.093.185a8.482,8.482,0,0,1-3.432-.465,2.68,2.68,0,0,1-1.347-1.367q-.526.574-1.395,1.36a1.056,1.056,0,0,0-.267.321.18.18,0,0,1-.157.109.236.236,0,0,1-.164-.109,4.179,4.179,0,0,1-.451-.786,4.246,4.246,0,0,0,.868-.52,8.444,8.444,0,0,0,1.189-1.1V59.641h-.95l-.923.027q-.116,0-.116-.13v-.615q0-.1.116-.1l.923.027h.711l.957-.027q.109,0,.109.1l-.027,1.333v2.871a2.637,2.637,0,0,0,.52.854,2.3,2.3,0,0,0,.711.485,7.179,7.179,0,0,0,2.8.376A55.833,55.833,0,0,0,167.275,64.521Zm-10.1-8.565a.232.232,0,0,1,.034.082q0,.048-.137.144l-.335.253a.406.406,0,0,1-.185.1q-.041,0-.082-.068a9.866,9.866,0,0,0-1.545-2.03q-.048-.048-.048-.068,0-.041.137-.13l.335-.226a.318.318,0,0,1,.137-.062.168.168,0,0,1,.1.062A10.74,10.74,0,0,1,157.172,55.956ZM180.3,65.191q0,.116-.109.116h-.649q-.109,0-.109-.116v-.978h-3.288v1.094a.1.1,0,0,1-.109.109H175.4a.1.1,0,0,1-.109-.109l.027-3.753V57.87l-.027-2.885q0-.1.109-.1l1.518.027h1.757l1.518-.027q.109,0,.109.1l-.027,2.536v3.958Zm-.868-1.764V55.689h-3.288v7.738Zm-4.689-3.773q0,.123-.109.123l-1.723-.027h-.745q-.055.321-.068.451a9.2,9.2,0,0,0,2.577,3.343,1.719,1.719,0,0,0-.39.561q-.082.185-.144.185t-.2-.144a10.62,10.62,0,0,1-2.085-2.9,8.31,8.31,0,0,1-2.714,4.081q-.13.123-.185.123-.075,0-.191-.185a1.465,1.465,0,0,0-.479-.424,7.859,7.859,0,0,0,1.962-2.017,7.184,7.184,0,0,0,.868-2.01,8.738,8.738,0,0,0,.219-1.066h-1l-1.723.027q-.109,0-.109-.123V59.08q0-.1.109-.1l1.723.027h1.107q.1-1.155.1-2.6h-1.271a9.4,9.4,0,0,1-.95,1.49q-.13.171-.185.171a.49.49,0,0,1-.2-.123,1.38,1.38,0,0,0-.472-.28,8.177,8.177,0,0,0,1.8-3.35,3.369,3.369,0,0,0,.137-.793,4.154,4.154,0,0,1,.813.219q.144.062.144.144a.236.236,0,0,1-.082.164,1.1,1.1,0,0,0-.239.465q-.191.6-.424,1.148h2.215l1.511-.027a.1.1,0,0,1,.109.109v.574q0,.116-.109.116l-1.511-.027h-.479q-.027,1.75-.109,2.6h.67l1.723-.027q.109,0,.109.1Zm11.9-2.522q-1.682.171-3.937.239l-.055-.9a34.669,34.669,0,0,0,3.623-.185,23.558,23.558,0,0,1-.779-2.42l1.032-.13a17.685,17.685,0,0,0,.759,2.44,28.98,28.98,0,0,0,2.953-.52l.109.9q-1.1.246-2.714.465a14.924,14.924,0,0,0,2.7,4.061l-.6.868a6.488,6.488,0,0,0-3.37-.957,3.2,3.2,0,0,0-2.071.6,1.5,1.5,0,0,0-.6,1.2q0,1.8,3.527,1.8a10.949,10.949,0,0,0,1.873-.144l.014.978a14.375,14.375,0,0,1-1.9.116,7.033,7.033,0,0,1-3.281-.6,2.223,2.223,0,0,1-1.217-2.1,2.317,2.317,0,0,1,1.3-2.153,4.746,4.746,0,0,1,2.317-.526,5.215,5.215,0,0,1,2.7.547A11.752,11.752,0,0,1,186.642,57.132Zm7.649-3.343.971.014q-.021.588-.068,1.381-.034.615-.048,1l.424.362a.186.186,0,0,1,.055.137.264.264,0,0,1-.055.157,5.623,5.623,0,0,0-.465.9l-.041.533-.068.52.253-.547a11.409,11.409,0,0,1,1.948-2.092,2.737,2.737,0,0,1,1.647-.622,1.461,1.461,0,0,1,1.347.636,3.053,3.053,0,0,1,.335,1.6q0,1.114-.13,2.8-.123,1.791-.123,2.365a1.674,1.674,0,0,0,.157.868.452.452,0,0,0,.417.2q.841,0,1.313-2.3l.841.547a5.045,5.045,0,0,1-1,2.229,1.613,1.613,0,0,1-1.224.513,1.339,1.339,0,0,1-1.107-.41,2.439,2.439,0,0,1-.349-1.483q0-1.039.1-2.557.109-1.764.109-2.509a3.748,3.748,0,0,0-.15-1.3.563.563,0,0,0-.561-.369q-1.408,0-3.78,3.445v5.756h-.964q0-2.338.055-4.464l.137-.882-.362.834q-.554,1.3-1.3,2.721l-.786-.656q.649-1.128,2.324-4.341.034-.779.055-1.75-.26.021-2.058.219l-.055-.834q1.271-.116,2.14-.212.007-.355.034-1.128Q194.284,54.315,194.291,53.789Zm14.342,1.8q-.027-1.176-.027-1.853h1v1.812q1.7-.062,3.37-.267v.868q-1.531.185-3.356.253l.041,2.01q1.935-.089,3.247-.26v.868q-1.538.171-3.233.232.014.335.062,1.449.027.745.048,1.2a10.066,10.066,0,0,1,3.726,2.372l-.7.861a9.516,9.516,0,0,0-3.015-2.249v.15a2.184,2.184,0,0,1-2.475,2.468,3.271,3.271,0,0,1-2.017-.5,1.7,1.7,0,0,1-.6-1.436,1.679,1.679,0,0,1,.8-1.449,3.138,3.138,0,0,1,1.832-.5,8.4,8.4,0,0,1,1.47.1q-.048-.848-.1-2.427-1.825.048-3.644,0v-.848q1.7.055,3.63.014-.027-.383-.034-1.087-.014-.663-.027-.943-2.105.041-3.794-.027v-.841Q206.527,55.642,208.633,55.594Zm.171,7.055a5.407,5.407,0,0,0-1.374-.185q-1.832,0-1.832,1.107,0,1.066,1.654,1.066,1.552,0,1.552-1.866ZM221.32,56.5q-.041,1.518,0,3.035a5.324,5.324,0,0,1,.308,1.777,3.687,3.687,0,0,1-1.306,3.069,7.744,7.744,0,0,1-3.274,1.271l-.588-.841a6.334,6.334,0,0,0,3.411-1.381,2.741,2.741,0,0,0,.807-1.88,1.856,1.856,0,0,1-1.8.882,2.2,2.2,0,0,1-1.531-.574,2.3,2.3,0,0,1,.123-3.356,2.469,2.469,0,0,1,1.559-.492,2,2,0,0,1,1.36.39q-.027-1.312-.027-1.873-2.249.034-5.435.239l-.014-.9q2.584-.1,5.435-.171V53.8l1,.014q0,.629-.027,1.859,2.324-.027,3.363-.027v.9Q223,56.5,221.32,56.5Zm-2.338,2.3a1.322,1.322,0,0,0-.984.4,1.413,1.413,0,0,0-.39,1.046,1.237,1.237,0,0,0,.444,1,1.288,1.288,0,0,0,.848.294,1.406,1.406,0,0,0,1.1-.41,1.3,1.3,0,0,0,.314-.916Q220.315,58.8,218.982,58.8Zm9.324,3.527a1.915,1.915,0,0,1,1.463.643,1.916,1.916,0,0,1-.144,2.748,1.936,1.936,0,0,1-1.319.5,1.9,1.9,0,0,1-1.463-.643,1.916,1.916,0,0,1,.144-2.748A1.936,1.936,0,0,1,228.307,62.327Zm0,.7a1.269,1.269,0,0,0-1.251,1.251,1.253,1.253,0,0,0,2.181.834,1.247,1.247,0,0,0-.93-2.085Z"
									transform="translate(-0.643 -2.723)" fill="#5a5858" />
							</svg>