	<svg xmlns="http://www.w3.org/2000/svg" width="243.879" height="30.266"
								viewBox="0 0 243.879 30.266">
								<g id="Сгруппировать_381" data-name="Сгруппировать 381"
									transform="translate(-1.891 -4.595)">
									<path id="Контур_1761" data-name="Контур 1761"
										d="M1.891-.906V-4a6.008,6.008,0,0,0,1.273.844,10.317,10.317,0,0,0,1.563.633,12.439,12.439,0,0,0,1.648.4,9.191,9.191,0,0,0,1.531.141,6,6,0,0,0,3.617-.9,3.039,3.039,0,0,0,1.2-2.586,3.036,3.036,0,0,0-.4-1.578,4.488,4.488,0,0,0-1.1-1.227A10.931,10.931,0,0,0,9.555-9.336q-.961-.508-2.07-1.07Q6.313-11,5.3-11.609a9.479,9.479,0,0,1-1.766-1.344,5.605,5.605,0,0,1-1.18-1.664,5.151,5.151,0,0,1-.43-2.18,5.125,5.125,0,0,1,.672-2.664,5.763,5.763,0,0,1,1.766-1.867,8,8,0,0,1,2.492-1.094A11.411,11.411,0,0,1,9.7-22.781a10.928,10.928,0,0,1,4.828.8v2.953a8.752,8.752,0,0,0-5.094-1.375,8.377,8.377,0,0,0-1.719.18,4.855,4.855,0,0,0-1.531.586,3.392,3.392,0,0,0-1.094,1.047,2.779,2.779,0,0,0-.422,1.563,3.217,3.217,0,0,0,.32,1.484,3.638,3.638,0,0,0,.945,1.141,9.415,9.415,0,0,0,1.523,1q.9.484,2.07,1.063,1.2.594,2.281,1.25A10.427,10.427,0,0,1,13.7-9.641a6.457,6.457,0,0,1,1.289,1.766,4.963,4.963,0,0,1,.477,2.219,5.627,5.627,0,0,1-.648,2.8A5.322,5.322,0,0,1,13.07-.984,7.643,7.643,0,0,1,10.531.055,13.905,13.905,0,0,1,7.5.375,12.352,12.352,0,0,1,6.188.289Q5.406.2,4.594.039A13,13,0,0,1,3.055-.367,4.789,4.789,0,0,1,1.891-.906Zm24.094.75a4.941,4.941,0,0,1-2.391.5q-4.2,0-4.2-4.687v-9.469h-2.75V-16h2.75v-3.906l2.563-.828V-16h4.031v2.188H21.953V-4.8A3.737,3.737,0,0,0,22.5-2.5a2.182,2.182,0,0,0,1.813.688,2.694,2.694,0,0,0,1.672-.531Zm16.281-7.2h-11.3a5.984,5.984,0,0,0,1.438,4.125,4.956,4.956,0,0,0,3.781,1.453,7.861,7.861,0,0,0,4.969-1.781v2.406A9.286,9.286,0,0,1,35.578.375,6.763,6.763,0,0,1,30.25-1.8a8.921,8.921,0,0,1-1.937-6.133,8.749,8.749,0,0,1,2.117-6.086,6.789,6.789,0,0,1,5.258-2.352,6.015,6.015,0,0,1,4.859,2.031A8.469,8.469,0,0,1,42.266-8.7ZM39.641-9.531a5.214,5.214,0,0,0-1.07-3.453,3.647,3.647,0,0,0-2.93-1.234,4.139,4.139,0,0,0-3.078,1.3A5.885,5.885,0,0,0,31-9.531Zm9.125,7.219H48.7V7.359H46.141V-16H48.7v2.813h.063A6.059,6.059,0,0,1,54.3-16.375a5.859,5.859,0,0,1,4.828,2.148,8.9,8.9,0,0,1,1.734,5.758,9.917,9.917,0,0,1-1.953,6.43A6.5,6.5,0,0,1,53.563.375,5.353,5.353,0,0,1,48.766-2.312ZM48.7-8.766v2.234a4.757,4.757,0,0,0,1.289,3.367,4.28,4.28,0,0,0,3.273,1.383,4.289,4.289,0,0,0,3.648-1.781,8.172,8.172,0,0,0,1.32-4.953A6.451,6.451,0,0,0,57-12.7a4.085,4.085,0,0,0-3.344-1.516,4.54,4.54,0,0,0-3.594,1.555A5.708,5.708,0,0,0,48.7-8.766ZM73.672,0H71.109V-19.359a5.931,5.931,0,0,1-.867.68,14.135,14.135,0,0,1-1.281.758q-.711.375-1.5.7a10.9,10.9,0,0,1-1.539.516V-19.3a14.9,14.9,0,0,0,1.789-.633q.945-.4,1.859-.891T71.3-21.852A13.708,13.708,0,0,0,72.7-22.906h.969Z"
										transform="translate(0 27.501)" fill="#5abba1" />
									<path id="Контур_1760" data-name="Контур 1760"
										d="M7.275-13.437q-.039-1.68-.039-2.646H8.662V-13.5q2.432-.088,4.814-.381v1.24q-2.187.264-4.795.361L8.74-9.4q2.764-.127,4.639-.371v1.24q-2.2.244-4.619.332.02.479.088,2.07.039,1.064.068,1.709a14.38,14.38,0,0,1,5.322,3.389l-1,1.23A13.594,13.594,0,0,0,8.936-3.018V-2.8Q8.936.723,5.4.723A4.672,4.672,0,0,1,2.52.01,2.429,2.429,0,0,1,1.66-2.041,2.4,2.4,0,0,1,2.8-4.111,4.483,4.483,0,0,1,5.42-4.824a12.007,12.007,0,0,1,2.1.146q-.068-1.211-.137-3.467-2.607.068-5.205,0V-9.355q2.422.078,5.186.02-.039-.547-.049-1.553-.02-.947-.039-1.348-3.008.059-5.42-.039v-1.2Q4.268-13.369,7.275-13.437ZM7.52-3.359a7.725,7.725,0,0,0-1.963-.264q-2.617,0-2.617,1.582Q2.939-.518,5.3-.518q2.217,0,2.217-2.666Zm17.959-8.779q-.029,2.168,0,4.336a7.606,7.606,0,0,1,.439,2.539A5.267,5.267,0,0,1,24.053-.879,11.063,11.063,0,0,1,19.375.938l-.84-1.2a9.048,9.048,0,0,0,4.873-1.973,3.916,3.916,0,0,0,1.152-2.686,2.652,2.652,0,0,1-2.578,1.26,3.15,3.15,0,0,1-2.187-.82A2.975,2.975,0,0,1,18.838-6.8a2.958,2.958,0,0,1,1.133-2.48,3.528,3.528,0,0,1,2.227-.7,2.862,2.862,0,0,1,1.943.557Q24.1-11.3,24.1-12.1q-3.213.049-7.764.342l-.02-1.279q3.691-.146,7.764-.244V-16l1.436.02q0,.9-.039,2.656,3.32-.039,4.8-.039v1.279q-1.621-.059-3.389-.059Zm-3.34,3.281a1.889,1.889,0,0,0-1.406.566A2.019,2.019,0,0,0,20.176-6.8a1.768,1.768,0,0,0,.635,1.436,1.84,1.84,0,0,0,1.211.42,2.008,2.008,0,0,0,1.572-.586,1.857,1.857,0,0,0,.449-1.309Q24.043-8.857,22.139-8.857Zm4.639-8,.977-.4a20.783,20.783,0,0,1,1.426,3.193l-1.045.439A19.491,19.491,0,0,0,26.777-16.855Zm2.363-.322,1-.361a16.523,16.523,0,0,1,1.426,3.281l-1.045.42A19.268,19.268,0,0,0,29.141-17.178ZM44.209-10.82q.029,3.955.176,6.7A10.329,10.329,0,0,1,47.91-1.5L46.943-.3a9.55,9.55,0,0,0-2.559-2.334,3.018,3.018,0,0,1-1.006,2.52A3.577,3.577,0,0,1,41.025.6q-3.457,0-3.457-2.715A2.262,2.262,0,0,1,38.6-4.033a3.845,3.845,0,0,1,2.266-.645,9.773,9.773,0,0,1,2.119.215q-.127-2.676-.166-6.3-2.725.088-5.459.059v-1.26q2.422.078,5.439-.02v-3.682h1.426q-.02,1.2-.02,3.6,1.25-.068,3.213-.264v1.26Q46-10.918,44.209-10.82ZM42.988-3.1a6.115,6.115,0,0,0-2.207-.4,2.478,2.478,0,0,0-1.377.361,1.151,1.151,0,0,0-.576,1.016q0,1.5,2.158,1.5a1.8,1.8,0,0,0,1.592-.752,2.619,2.619,0,0,0,.41-1.533ZM36.1-15.479a59.018,59.018,0,0,0-1.2,9.814,47.439,47.439,0,0,0,.479,6.2l-1.4.127q-.459-4.453-.459-6.367a43.6,43.6,0,0,1,.41-5.264q.322-2.52.752-4.629Zm17.432,4.16v-4.639h1.523v4.3L62.715-13.4l.84,1.074a24.982,24.982,0,0,1-4.238,7.549l-1.26-.8a18.45,18.45,0,0,0,3.623-6.182l-6.621,1.494v7.207q0,1.348.693,1.7a6.6,6.6,0,0,0,2.461.293q2.207,0,4.639-.234V.176Q60.723.322,57.9.322q-2.773,0-3.643-.84a3.392,3.392,0,0,1-.723-2.5v-6.9l-3.4.762-.4-1.3Zm13.926-3.838h9.063v1.338H67.461ZM66.24-10.9h11.3q-.225,5.713-2.793,8.516A11.973,11.973,0,0,1,68.6.859L67.881-.283A10.681,10.681,0,0,0,73.936-3.73a9.878,9.878,0,0,0,1.943-5.83H66.24ZM82.725-7.061v4.277q0,1.436.859,1.582A16.222,16.222,0,0,0,86.5-1q2.012,0,4.434-.244v1.5Q88.281.4,86.123.4A15.4,15.4,0,0,1,82.637.117Q81.2-.2,81.2-2.324v-13h1.523v6.865a21.6,21.6,0,0,0,6.24-4.1l1.016,1.221A25.778,25.778,0,0,1,82.725-7.061Zm7.9-10.322a2.135,2.135,0,0,1,1.66.742,2.163,2.163,0,0,1,.576,1.5,2.135,2.135,0,0,1-.742,1.66,2.151,2.151,0,0,1-1.494.576,2.146,2.146,0,0,1-1.67-.742,2.151,2.151,0,0,1-.576-1.494,2.165,2.165,0,0,1,.742-1.67A2.163,2.163,0,0,1,90.625-17.383Zm0,.859a1.323,1.323,0,0,0-1.035.449,1.353,1.353,0,0,0-.352.938,1.312,1.312,0,0,0,.449,1.025,1.353,1.353,0,0,0,.938.352,1.312,1.312,0,0,0,1.025-.449A1.34,1.34,0,0,0,92-15.137a1.323,1.323,0,0,0-.449-1.035A1.34,1.34,0,0,0,90.625-16.523Zm11.289,10.8A17.992,17.992,0,0,1,94.775.6L93.9-.557a17.558,17.558,0,0,0,6.533-5.615,20.23,20.23,0,0,0,2.93-7.207h-8.4v-1.338h10.371A26.835,26.835,0,0,1,102.7-7.061a44.922,44.922,0,0,1,4.658,6.719L105.879.6A35.9,35.9,0,0,0,101.914-5.723ZM113.4-8.7V.8h-1.543V-15.977H113.4v5.8A31.148,31.148,0,0,1,121.016-7l-.762,1.445A25.279,25.279,0,0,0,113.4-8.7Zm23.77,5a.138.138,0,0,1-.156.156l-2.646-.039h-4.609l-2.627.039a.138.138,0,0,1-.156-.156l.039-1.4v-1.27l-.039-1.4a.138.138,0,0,1,.156-.156l2.627.039h4.609l2.646-.039a.138.138,0,0,1,.156.156l-.039,1.4V-5.1Zm-1.221-.859V-6.885h-7.754v2.324Zm5.3-4a2.818,2.818,0,0,0-.518.713q-.166.3-.264.3a1.016,1.016,0,0,1-.293-.1,21.639,21.639,0,0,1-5.127-3.086,12.864,12.864,0,0,1-3.076-3.789,16.978,16.978,0,0,1-3.437,4.072,22.617,22.617,0,0,1-4.58,2.91,1.106,1.106,0,0,1-.3.1q-.1,0-.283-.322a2.074,2.074,0,0,0-.518-.605,20.486,20.486,0,0,0,4.541-2.617,14.558,14.558,0,0,0-2.285-2q-.088-.059-.088-.1t.107-.156l.488-.439q.107-.107.156-.107a.215.215,0,0,1,.117.049,18.177,18.177,0,0,1,2.383,2.031,15.131,15.131,0,0,0,2.559-3.057h-2.881l-2.061.039q-.176,0-.176-.156v-.781q0-.156.176-.156l2.061.039h2.764l1.621-.039q.156,0,.254.225a9.482,9.482,0,0,0,.742,1.367,11.548,11.548,0,0,0,.859,1.162,12.918,12.918,0,0,0,1.621-1.7,4.046,4.046,0,0,0,.479-.771,6.226,6.226,0,0,1,.986.615.338.338,0,0,1,.156.234q0,.127-.2.225a1.753,1.753,0,0,0-.625.5,20.462,20.462,0,0,1-1.719,1.641,17.928,17.928,0,0,0,1.494,1.26,21.055,21.055,0,0,0,1.924-1.865,4.777,4.777,0,0,0,.537-.771,7.579,7.579,0,0,1,.957.615q.186.156.186.234v.029a.361.361,0,0,1-.264.234,1.679,1.679,0,0,0-.6.439,21.044,21.044,0,0,1-1.875,1.66A20.584,20.584,0,0,0,141.25-8.564ZM140.771.625a.138.138,0,0,1-.156.156L137.988.742h-11.8l-2.617.039q-.166,0-.166-.156v-.85q0-.156.166-.156l2.617.039h7.2q.518-.85.967-1.738a4.976,4.976,0,0,0,.381-1.123,9.616,9.616,0,0,1,1.162.459.246.246,0,0,1,.176.225q0,.1-.176.234a1.52,1.52,0,0,0-.41.547q-.713,1.211-.84,1.4h3.34l2.627-.039a.138.138,0,0,1,.156.156ZM135.156-9.5q0,.156-.146.156l-2-.039h-2.061l-1.973.039q-.166,0-.166-.156v-.781q0-.156.166-.156l1.973.039h2.061l2-.039q.146,0,.146.156Zm-4.785,8.34a.479.479,0,0,1,.029.117q0,.068-.225.186l-.527.264a.852.852,0,0,1-.244.078q-.068,0-.117-.127a8.526,8.526,0,0,0-.957-1.895.269.269,0,0,1-.049-.107q0-.059.215-.156l.518-.234a.547.547,0,0,1,.205-.078q.049,0,.137.117A10.661,10.661,0,0,1,130.371-1.162Zm31.2.4a2.83,2.83,0,0,0-.586.742q-.137.264-.215.264a.62.62,0,0,1-.264-.156,12.956,12.956,0,0,1-4.453-6.865V-5.42q0,1.631.039,3.477.039,1.25.039,1.689a2.97,2.97,0,0,1-.107.928,1.039,1.039,0,0,1-.41.508,4.056,4.056,0,0,1-1.963.342.724.724,0,0,1-.381-.059,1.1,1.1,0,0,1-.117-.342,2.282,2.282,0,0,0-.4-.859,10.947,10.947,0,0,0,1.3.078,1.217,1.217,0,0,0,.8-.176.81.81,0,0,0,.156-.586V-3.184a25.914,25.914,0,0,1-3.184,2.266,2,2,0,0,0-.635.479.248.248,0,0,1-.205.137.245.245,0,0,1-.215-.117,8.882,8.882,0,0,1-.605-.977,7.858,7.858,0,0,0,1.084-.488,25.166,25.166,0,0,0,3.76-2.6v-4.18h-1.719l-2.705.039a.138.138,0,0,1-.156-.156v-.8a.138.138,0,0,1,.156-.156l2.705.039h4.18l.137-1.924h-3.359l-2.08.039a.138.138,0,0,1-.156-.156v-.781a.138.138,0,0,1,.156-.156l2.08.039h3.418l.146-1.807h-4l-2.217.039q-.166,0-.166-.156v-.8q0-.156.166-.156l2.217.039h2.822l2.227-.039a.155.155,0,0,1,.176.176q-.039.313-.068.752-.049.537-.059.625L158.594-9.7l2.48-.039q.176,0,.176.156v.8q0,.156-.176.156l-2.705-.039h-2.2a16.986,16.986,0,0,0,1.377,3.643,15.271,15.271,0,0,0,1.719-2.041,3.6,3.6,0,0,0,.439-.781,5.788,5.788,0,0,1,.869.6.462.462,0,0,1,.156.283q0,.1-.225.244a2.693,2.693,0,0,0-.6.576,14.71,14.71,0,0,1-1.865,1.982A11.35,11.35,0,0,0,161.572-.762Zm-11.035-6.3q0,.156-.166.156l-2.08-.039h-.459v5.527a24.345,24.345,0,0,0,2.4-.928,3.146,3.146,0,0,0-.1.742.588.588,0,0,1-.088.391.814.814,0,0,1-.293.146Q147.715-.273,145.01.5a2.5,2.5,0,0,0-.742.3A.476.476,0,0,1,144,.918a.218.218,0,0,1-.234-.156q-.146-.352-.381-1.1A11.994,11.994,0,0,0,144.912-.6q1.4-.342,1.816-.469V-6.943h-.781l-2.08.039a.138.138,0,0,1-.156-.156v-.762a.138.138,0,0,1,.156-.156l2.08.039h.781v-2.178h-.137l-1.7.039q-.166,0-.166-.186v-.713a.147.147,0,0,1,.166-.166l1.7.039h1.543l1.68-.039q.156,0,.156.166v.713q0,.186-.156.186l-1.68-.039h-.3v2.178h.459l2.08-.039q.166,0,.166.156Zm.332-5.693a1.421,1.421,0,0,0-.518.635q-.146.264-.205.264a1.658,1.658,0,0,1-.3-.205,15.451,15.451,0,0,1-2.334-2.656,17.748,17.748,0,0,1-3.525,3.984.78.78,0,0,1-.293.156q-.117,0-.205-.264a1.772,1.772,0,0,0-.459-.693,12.367,12.367,0,0,0,3.535-3.867,2.932,2.932,0,0,0,.43-1.074,6.462,6.462,0,0,1,1.152.322q.205.059.205.176a.309.309,0,0,1-.186.264l-.156.117A14.088,14.088,0,0,0,150.869-12.754ZM145.771-2.6q.01.078.01.1,0,.088-.215.176l-.479.205a.683.683,0,0,1-.2.049q-.088,0-.107-.137a14.9,14.9,0,0,0-.674-3.1.3.3,0,0,1-.029-.107q0-.078.244-.166l.42-.166a.8.8,0,0,1,.2-.049q.059,0,.107.107A16.984,16.984,0,0,1,145.771-2.6Zm4.814-2.881a.338.338,0,0,1-.156.234,1.4,1.4,0,0,0-.3.566q-.332,1.025-.645,1.758-.1.283-.176.283a.666.666,0,0,1-.215-.088,3.48,3.48,0,0,0-.625-.2,13.587,13.587,0,0,0,.781-2.363,2.869,2.869,0,0,0,.1-.752,8.872,8.872,0,0,1,1.064.352Q150.586-5.586,150.586-5.479Zm3.164.176a.3.3,0,0,1,.029.107q0,.059-.176.2l-.4.322a1.046,1.046,0,0,1-.234.137q-.049,0-.117-.137a8.687,8.687,0,0,0-1.5-2.383.16.16,0,0,1-.059-.1q0-.059.176-.186l.42-.273a.4.4,0,0,1,.176-.1q.059,0,.146.1A11.732,11.732,0,0,1,153.75-5.3Z"
										transform="translate(84.197 27.5)" fill="#215f87" />
								</g>
							</svg>