	<svg xmlns="http://www.w3.org/2000/svg" width="225.52" height="30.141"
								viewBox="0 0 225.52 30.141">
								<g id="Сгруппировать_380" data-name="Сгруппировать 380"
									transform="translate(-1.891 -4.719)">
									<path id="Контур_1764" data-name="Контур 1764"
										d="M1.891-.906V-4a6.008,6.008,0,0,0,1.273.844,10.317,10.317,0,0,0,1.563.633,12.439,12.439,0,0,0,1.648.4,9.191,9.191,0,0,0,1.531.141,6,6,0,0,0,3.617-.9,3.039,3.039,0,0,0,1.2-2.586,3.036,3.036,0,0,0-.4-1.578,4.488,4.488,0,0,0-1.1-1.227A10.931,10.931,0,0,0,9.555-9.336q-.961-.508-2.07-1.07Q6.313-11,5.3-11.609a9.479,9.479,0,0,1-1.766-1.344,5.605,5.605,0,0,1-1.18-1.664,5.151,5.151,0,0,1-.43-2.18,5.125,5.125,0,0,1,.672-2.664,5.763,5.763,0,0,1,1.766-1.867,8,8,0,0,1,2.492-1.094A11.411,11.411,0,0,1,9.7-22.781a10.928,10.928,0,0,1,4.828.8v2.953a8.752,8.752,0,0,0-5.094-1.375,8.377,8.377,0,0,0-1.719.18,4.855,4.855,0,0,0-1.531.586,3.392,3.392,0,0,0-1.094,1.047,2.779,2.779,0,0,0-.422,1.563,3.217,3.217,0,0,0,.32,1.484,3.638,3.638,0,0,0,.945,1.141,9.415,9.415,0,0,0,1.523,1q.9.484,2.07,1.063,1.2.594,2.281,1.25A10.427,10.427,0,0,1,13.7-9.641a6.457,6.457,0,0,1,1.289,1.766,4.963,4.963,0,0,1,.477,2.219,5.627,5.627,0,0,1-.648,2.8A5.322,5.322,0,0,1,13.07-.984,7.643,7.643,0,0,1,10.531.055,13.905,13.905,0,0,1,7.5.375,12.352,12.352,0,0,1,6.188.289Q5.406.2,4.594.039A13,13,0,0,1,3.055-.367,4.789,4.789,0,0,1,1.891-.906Zm24.094.75a4.941,4.941,0,0,1-2.391.5q-4.2,0-4.2-4.687v-9.469h-2.75V-16h2.75v-3.906l2.563-.828V-16h4.031v2.188H21.953V-4.8A3.737,3.737,0,0,0,22.5-2.5a2.182,2.182,0,0,0,1.813.688,2.694,2.694,0,0,0,1.672-.531Zm16.281-7.2h-11.3a5.984,5.984,0,0,0,1.438,4.125,4.956,4.956,0,0,0,3.781,1.453,7.861,7.861,0,0,0,4.969-1.781v2.406A9.286,9.286,0,0,1,35.578.375,6.763,6.763,0,0,1,30.25-1.8a8.921,8.921,0,0,1-1.937-6.133,8.749,8.749,0,0,1,2.117-6.086,6.789,6.789,0,0,1,5.258-2.352,6.015,6.015,0,0,1,4.859,2.031A8.469,8.469,0,0,1,42.266-8.7ZM39.641-9.531a5.214,5.214,0,0,0-1.07-3.453,3.647,3.647,0,0,0-2.93-1.234,4.139,4.139,0,0,0-3.078,1.3A5.885,5.885,0,0,0,31-9.531Zm9.125,7.219H48.7V7.359H46.141V-16H48.7v2.813h.063A6.059,6.059,0,0,1,54.3-16.375a5.859,5.859,0,0,1,4.828,2.148,8.9,8.9,0,0,1,1.734,5.758,9.917,9.917,0,0,1-1.953,6.43A6.5,6.5,0,0,1,53.563.375,5.353,5.353,0,0,1,48.766-2.312ZM48.7-8.766v2.234a4.757,4.757,0,0,0,1.289,3.367,4.28,4.28,0,0,0,3.273,1.383,4.289,4.289,0,0,0,3.648-1.781,8.172,8.172,0,0,0,1.32-4.953A6.451,6.451,0,0,0,57-12.7a4.085,4.085,0,0,0-3.344-1.516,4.54,4.54,0,0,0-3.594,1.555A5.708,5.708,0,0,0,48.7-8.766Zm25.719-7.766a4.633,4.633,0,0,0-.32-1.8,3.559,3.559,0,0,0-.875-1.273,3.585,3.585,0,0,0-1.3-.758,5.109,5.109,0,0,0-1.625-.25,5.375,5.375,0,0,0-1.469.2,7.14,7.14,0,0,0-1.4.563,8.6,8.6,0,0,0-1.312.859,9.481,9.481,0,0,0-1.18,1.109v-2.75a7.661,7.661,0,0,1,2.414-1.6,8.5,8.5,0,0,1,3.258-.555,7.865,7.865,0,0,1,2.547.4,5.839,5.839,0,0,1,2.031,1.164,5.381,5.381,0,0,1,1.352,1.891,6.377,6.377,0,0,1,.492,2.578,8.841,8.841,0,0,1-.3,2.406,7.441,7.441,0,0,1-.922,2.031,9.8,9.8,0,0,1-1.555,1.828,22.022,22.022,0,0,1-2.2,1.781q-1.578,1.125-2.6,1.922A11.5,11.5,0,0,0,67.82-5.289,4.33,4.33,0,0,0,66.977-3.9a4.861,4.861,0,0,0-.242,1.6H77.891V0H64.063V-1.109a9.245,9.245,0,0,1,.313-2.531,6.573,6.573,0,0,1,1.031-2.078,11.533,11.533,0,0,1,1.883-1.969q1.164-.984,2.852-2.219a18.028,18.028,0,0,0,2.039-1.672,8.692,8.692,0,0,0,1.32-1.594,5.724,5.724,0,0,0,.711-1.617A6.973,6.973,0,0,0,74.422-16.531Z"
										transform="translate(0 27.5)" fill="#5abba1" />
									<path id="Контур_1763" data-name="Контур 1763"
										d="M12.178-13.2a18.893,18.893,0,0,1-1.953,8.467Q8.115-.977,2.92.84l-.84-1.2A12.181,12.181,0,0,0,8.584-5a15.077,15.077,0,0,0,1.953-8.2H1.2v-1.338h9.58a2.044,2.044,0,0,1-.137-.781,2.148,2.148,0,0,1,.732-1.66,2.186,2.186,0,0,1,1.5-.576,2.148,2.148,0,0,1,1.66.732,2.186,2.186,0,0,1,.576,1.5,2.178,2.178,0,0,1-.732,1.67,2.186,2.186,0,0,1-1.5.576A1.952,1.952,0,0,1,12.178-13.2Zm.7-3.5a1.342,1.342,0,0,0-1.035.449,1.362,1.362,0,0,0-.342.928,1.342,1.342,0,0,0,.449,1.035,1.318,1.318,0,0,0,.928.352,1.342,1.342,0,0,0,1.035-.449,1.375,1.375,0,0,0,.342-.937,1.312,1.312,0,0,0-.449-1.025A1.318,1.318,0,0,0,12.881-16.7ZM17.246-.117V-14.424H27.686V-.117Zm8.9-1.348V-13.076H18.77V-1.465Zm4.766-13.076H41.924q-.059,7.158-2.578,10.723A13.746,13.746,0,0,1,32.627.84l-.84-1.2A12.181,12.181,0,0,0,38.291-5a15.077,15.077,0,0,0,1.953-8.2H30.908ZM49.463-7.5a42.641,42.641,0,0,1-4.678,2.8l-.84-1.143a25.588,25.588,0,0,0,9.16-7.1l1.221.918a22.658,22.658,0,0,1-3.4,3.4V.82H49.463Zm6.758-.7H67.1v1.484H56.221ZM77.891-1.66a14.939,14.939,0,0,0,5.2-6.875L84.111-7.2A18.2,18.2,0,0,1,77.227.645L76.367.2V-15.361h1.523ZM73.633-15.225q0,5.684-.2,8.2a15.346,15.346,0,0,1-.566,3.359A9.361,9.361,0,0,1,69.951.645L68.789-.264a7.415,7.415,0,0,0,2.725-3.975,19.014,19.014,0,0,0,.5-4.111q.1-2.217.1-6.875ZM93.926-6.26V-2.3H92.588v-3.34q-.459.234-.947.508-2.559,1.445-2.559,2.9a1.325,1.325,0,0,0,.9,1.348,9.138,9.138,0,0,0,2.969.332q2.1,0,4.873-.244L97.881.557q-3.643.186-4.834.186-3.135,0-4.238-.732A2.531,2.531,0,0,1,87.8-2.275q0-2.09,2.686-3.643,1.016-.576,2.08-1.1-.1-1.875-1.3-1.875-1.68,0-4.609,3.379l-1.035-.918a23.355,23.355,0,0,0,4.141-5.908q-1.826.029-3.662,0v-1.221q2.109.039,4.219,0a17.871,17.871,0,0,0,.9-2.676l1.445.264a20.538,20.538,0,0,1-.84,2.354q2.813-.088,5.342-.342l.039,1.221q-3.281.264-5.918.342a20.424,20.424,0,0,1-1.68,2.842l-.508.518.059.078A3.559,3.559,0,0,1,91.543-9.98a2.173,2.173,0,0,1,1.592.605,2.831,2.831,0,0,1,.752,1.738Q95.449-8.35,97.949-9.4l.557,1.367Q95.254-6.846,93.926-6.26ZM118.906.146a2.929,2.929,0,0,0-.576.762q-.176.342-.283.342a1.516,1.516,0,0,1-.283-.1,17.57,17.57,0,0,1-4.492-2.705,15.214,15.214,0,0,1-4.648,2.861,1.255,1.255,0,0,1-.293.088q-.1,0-.283-.312a1.993,1.993,0,0,0-.615-.654,14.57,14.57,0,0,0,5.02-2.783,12.764,12.764,0,0,1-2.705-4.521l-1.123.02q-.156,0-.156-.176v-.83q0-.137.156-.137l2.422.039h4.766a1.17,1.17,0,0,0,.42-.078,1.122,1.122,0,0,1,.234-.059q.146,0,.5.381a1.64,1.64,0,0,1,.381.557q0,.137-.2.264a1.642,1.642,0,0,0-.42.625,14.476,14.476,0,0,1-2.637,3.9A15.485,15.485,0,0,0,118.906.146Zm-3.174-7.041h-4.844a10.752,10.752,0,0,0,2.383,3.76A11.2,11.2,0,0,0,115.732-6.895ZM107.109.9q0,.156-.166.156h-.8A.138.138,0,0,1,105.986.9V.1h-3.037V1.26a.138.138,0,0,1-.156.156h-.8q-.186,0-.186-.156l.039-2.939v-1.2l-.039-1.777q0-.137.176-.137l1.709.039h1.533l1.729-.039q.156,0,.156.137l-.039,1.436v1.348ZM105.986-.879v-2.9h-3.037v2.9Zm12.725-11.2a2.825,2.825,0,0,1-.645,1.943,2.711,2.711,0,0,1-1.8.42,3.11,3.11,0,0,1-1.465-.225q-.557-.293-.557-1.416v-3.281h-2.842a9.158,9.158,0,0,1-.615,3.682,5.169,5.169,0,0,1-1.582,1.982.723.723,0,0,1-.322.2q-.107,0-.3-.215a1.544,1.544,0,0,0-.674-.459,5.13,5.13,0,0,0,1.768-1.816,6.4,6.4,0,0,0,.605-2.969l-.039-1.348a.138.138,0,0,1,.156-.156l1.631.039H113.6l1.67-.039a.138.138,0,0,1,.156.156l-.039,1.689v2.061q0,.723.2.879a1.618,1.618,0,0,0,.889.156,1.093,1.093,0,0,0,.977-.381,4.238,4.238,0,0,0,.234-1.8,2.124,2.124,0,0,0,.684.4q.264.088.3.186A.726.726,0,0,1,118.711-12.08Zm-10.859.146q0,.156-.166.156l-2.08-.039h-2.461l-2.08.039q-.137,0-.137-.156v-.85q0-.156.137-.156l2.08.039h2.461l2.08-.039q.166,0,.166.156Zm-.625-2.725a.138.138,0,0,1-.156.156l-1.738-.039h-1.6l-1.738.039q-.166,0-.166-.156v-.8q0-.156.166-.156l1.738.039h1.6l1.738-.039a.138.138,0,0,1,.156.156ZM106.943-6.6q0,.166-.156.166l-1.621-.049h-1.4l-1.621.049q-.156,0-.156-.166v-.781a.138.138,0,0,1,.156-.156l1.621.039h1.4l1.621-.039a.138.138,0,0,1,.156.156Zm0-2.676q0,.166-.156.166l-1.621-.049h-1.4l-1.621.049q-.156,0-.156-.166v-.781a.138.138,0,0,1,.156-.156l1.621.039h1.4l1.621-.039a.138.138,0,0,1,.156.156Zm31.27,8.7a3.621,3.621,0,0,0-.283.84.755.755,0,0,1-.137.371.614.614,0,0,1-.342.068q-1.279.039-1.885.039-5.82-.01-8-1.1a4.71,4.71,0,0,1-1.66-1.367,9.159,9.159,0,0,1-.84-1.387A10.4,10.4,0,0,1,122.129.908a.92.92,0,0,1-.283.2q-.068,0-.273-.244a1.934,1.934,0,0,0-.684-.537,9.552,9.552,0,0,0,3.857-6.963,6.567,6.567,0,0,0,.068-.85q0-.127-.01-.264.518.068,1.162.215.3.078.3.225a.86.86,0,0,1-.137.313,1.066,1.066,0,0,0-.205.5,18.117,18.117,0,0,1-.439,2.041,6.619,6.619,0,0,0,1.436,2.275,5.331,5.331,0,0,0,2.246,1.172V-9.492h-2.158l-2.744.039q-.176,0-.176-.156v-.85q0-.156.176-.156l2.744.039h5.557l2.744-.039a.138.138,0,0,1,.156.156v.85a.138.138,0,0,1-.156.156l-2.744-.039h-2.2v3.35h2.979l1.963-.039a.138.138,0,0,1,.156.156v.85a.138.138,0,0,1-.156.156l-1.963-.039h-2.979V-.742a30.425,30.425,0,0,0,4.521.264Q136.24-.479,138.213-.576Zm-.361-9.844a.147.147,0,0,1-.166.166h-.918q-.156,0-.156-.166v-2.754H122.969v2.754a.147.147,0,0,1-.166.166h-.918q-.156,0-.156-.166l.039-2.051V-13.1l-.039-1.064q0-.137.156-.137l2.764.039h4.316v-.283a10.131,10.131,0,0,0-.137-2.041,12.628,12.628,0,0,1,1.3.107q.244.029.244.156a1.166,1.166,0,0,1-.127.361,6.533,6.533,0,0,0-.078,1.416v.283h4.746l2.773-.039q.166,0,.166.137l-.039.928v.762Z"
										transform="translate(89.198 27.5)" fill="#215f87" />
								</g>
							</svg>