	<svg xmlns="http://www.w3.org/2000/svg" width="332.589" height="63.351"
								viewBox="0 0 332.589 63.351">
								<path id="Контур_1774" data-name="Контур 1774"
									d="M7.957,14.59a5.749,5.749,0,0,1-2.707.574A4.366,4.366,0,0,1,1.9,13.817,4.969,4.969,0,0,1,.643,10.283a5.208,5.208,0,0,1,1.415-3.8A4.8,4.8,0,0,1,5.646,5.033a5.754,5.754,0,0,1,2.311.4V6.66a4.686,4.686,0,0,0-2.324-.588A3.566,3.566,0,0,0,2.9,7.2a4.249,4.249,0,0,0-1.049,3.015,4.043,4.043,0,0,0,.981,2.854A3.338,3.338,0,0,0,5.4,14.132a4.828,4.828,0,0,0,2.557-.656Zm9.584.41H16.27L15.23,12.252H11.074L10.1,15H8.818l3.76-9.8h1.189Zm-2.687-3.78L13.316,7.043a4,4,0,0,1-.15-.656h-.027a3.661,3.661,0,0,1-.157.656L11.457,11.22ZM26.011,15H24.644L23,12.252a5.985,5.985,0,0,0-.437-.653,2.494,2.494,0,0,0-.434-.441,1.5,1.5,0,0,0-.479-.25,1.968,1.968,0,0,0-.578-.079h-.943V15H18.983V5.2h2.926a4.17,4.17,0,0,1,1.186.161,2.654,2.654,0,0,1,.943.489,2.271,2.271,0,0,1,.625.817,2.709,2.709,0,0,1,.226,1.145,2.757,2.757,0,0,1-.154.94,2.455,2.455,0,0,1-.437.762,2.652,2.652,0,0,1-.684.571,3.49,3.49,0,0,1-.9.366v.027a2.068,2.068,0,0,1,.427.25,2.351,2.351,0,0,1,.345.332,4.391,4.391,0,0,1,.325.434q.161.243.359.564ZM20.132,6.236V9.791H21.69a2.364,2.364,0,0,0,.8-.13,1.844,1.844,0,0,0,.632-.373,1.689,1.689,0,0,0,.417-.595,1.991,1.991,0,0,0,.15-.79,1.537,1.537,0,0,0-.509-1.227A2.188,2.188,0,0,0,21.7,6.236ZM32.553,15h-5.2V5.2h4.977V6.236H28.506V9.5h3.541v1.032H28.506v3.432h4.047Zm6.973,0H34.439V5.2h1.148v8.764h3.938Zm1.928-8.777a.71.71,0,0,1-.513-.205.692.692,0,0,1-.212-.52.718.718,0,0,1,.725-.731.724.724,0,0,1,.523.208.73.73,0,0,1,0,1.036A.718.718,0,0,1,41.453,6.223ZM42,15H40.879V8H42Zm10.322,0H50.914L45.869,7.187a3.265,3.265,0,0,1-.314-.615h-.041a10.092,10.092,0,0,1,.055,1.347V15H44.42V5.2h1.49l4.908,7.69q.308.479.4.656h.027a10.371,10.371,0,0,1-.068-1.442V5.2h1.148Zm9.393,0h-1.6l-3.787-4.484a2.733,2.733,0,0,1-.26-.342h-.027V15H54.893V5.2h1.148V9.8h.027a2.7,2.7,0,0,1,.26-.335L59.992,5.2h1.429l-4.2,4.7Zm7.711-7.157.718-.273a18.274,18.274,0,0,1,1.032,2.365l-.752.308A15.123,15.123,0,0,0,69.426,7.843Zm1.586-.472.7-.253a11.566,11.566,0,0,1,1,2.3l-.731.294A13.488,13.488,0,0,0,71.012,7.371Zm.39-2.632.027.964a5.312,5.312,0,0,0-2.311.629,5.934,5.934,0,0,0-2.071,1.962,4.817,4.817,0,0,0-.813,2.659,2.958,2.958,0,0,0,1.285,2.529,6.17,6.17,0,0,0,2.933,1l-.239,1a6.1,6.1,0,0,1-3.63-1.381,3.89,3.89,0,0,1-1.312-3.049,5.709,5.709,0,0,1,2.994-5.024l.759-.335-.014-.027-.656.109q-1.189.068-5.66.479l-.082-.923Q64.613,5.177,71.4,4.739ZM81.778,7.426q.021,2.769.123,4.689a7.23,7.23,0,0,1,2.468,1.832l-.677.841A6.685,6.685,0,0,0,81.9,13.154a2.112,2.112,0,0,1-.7,1.764,2.5,2.5,0,0,1-1.647.5q-2.42,0-2.42-1.9a1.583,1.583,0,0,1,.725-1.34,2.691,2.691,0,0,1,1.586-.451,6.841,6.841,0,0,1,1.483.15Q80.835,10,80.808,7.467q-1.907.062-3.821.041V6.626q1.7.055,3.808-.014V4.035h1q-.014.841-.014,2.522.875-.048,2.249-.185v.882Q83.029,7.357,81.778,7.426Zm-.854,5.407a4.28,4.28,0,0,0-1.545-.28,1.734,1.734,0,0,0-.964.253.806.806,0,0,0-.4.711q0,1.053,1.511,1.053a1.26,1.26,0,0,0,1.114-.526,1.833,1.833,0,0,0,.287-1.073ZM76.1,4.165a41.313,41.313,0,0,0-.841,6.87,33.208,33.208,0,0,0,.335,4.341l-.978.089q-.321-3.117-.321-4.457a30.522,30.522,0,0,1,.287-3.685q.226-1.764.526-3.24Zm22.087,9.27a3.38,3.38,0,0,1-.273,1.326,1.687,1.687,0,0,1-.437.479,5.82,5.82,0,0,1-2.9.417A10.217,10.217,0,0,1,93,15.574a1.571,1.571,0,0,1-.67-.253,1.354,1.354,0,0,1-.4-1.135V10.6q-.4.123-.69.232l-.205.075a.225.225,0,0,1-.068.014q-.075,0-.1-.109l-.137-.533a.158.158,0,0,1-.014-.055q0-.055.1-.075.4-.075,1.121-.28V9.162a11.047,11.047,0,0,0-.082-1.613,8.3,8.3,0,0,1,.827.075q.164.021.164.109a.724.724,0,0,1-.068.253A4.438,4.438,0,0,0,92.709,9v.649l1.422-.424V8.615a10.811,10.811,0,0,0-.1-1.7A6.273,6.273,0,0,1,94.869,7q.157.021.157.137a1.462,1.462,0,0,1-.055.226A4.022,4.022,0,0,0,94.89,8.4V9l1-.308q.7-.2,1.258-.4.342-.116.369-.123h.021q.075,0,.075.1l-.027.643a16.707,16.707,0,0,1-.321,3.179.857.857,0,0,1-.868.663q-.123.007-.273.007-.219,0-.479-.021-.123-.014-.15-.055a.572.572,0,0,1-.048-.2,1.437,1.437,0,0,0-.185-.567,3.64,3.64,0,0,0,.882.116.4.4,0,0,0,.438-.349,16.325,16.325,0,0,0,.239-2.563l-1.935.588v1.887l.027,1.6a.1.1,0,0,1-.109.109h-.595a.1.1,0,0,1-.109-.109l.027-1.6V9.948l-1.422.417v3.206a4.377,4.377,0,0,0,.048.813.406.406,0,0,0,.178.287,4.189,4.189,0,0,0,1.716.2,13.123,13.123,0,0,0,1.729-.075,1.232,1.232,0,0,0,.595-.219,1.052,1.052,0,0,0,.349-.622,6.746,6.746,0,0,0,.1-1.169,1.361,1.361,0,0,0,.547.28q.226.062.226.253Q98.2,13.359,98.191,13.435ZM91,6.462a.1.1,0,0,1-.116.116l-1.552-.034H88.115q-.027,1.285-.055,1.921h1.388l.868-.027a.109.109,0,0,1,.123.123q-.014.26-.027.779-.021.595-.027.9a22.077,22.077,0,0,1-.308,4.033,2.024,2.024,0,0,1-.485,1.053,1.214,1.214,0,0,1-.861.287q-.431,0-.7-.014-.157-.014-.191-.062a.694.694,0,0,1-.048-.232,1.711,1.711,0,0,0-.2-.615,5.739,5.739,0,0,0,1.053.109.535.535,0,0,0,.52-.294,3.454,3.454,0,0,0,.191-.813,33.649,33.649,0,0,0,.267-4.484H88.033a18.5,18.5,0,0,1-.54,3.773,8.716,8.716,0,0,1-1.169,2.536q-.109.15-.157.15T86,15.547a1.806,1.806,0,0,0-.506-.437,7.835,7.835,0,0,0,1.524-3.671,34.938,34.938,0,0,0,.308-4.895l-1.511.034q-.1,0-.1-.116V5.874a.085.085,0,0,1,.1-.1l1.565.027H88.3V4.869a6.96,6.96,0,0,0-.1-1.442q.54.021.909.068.185.021.185.123a.864.864,0,0,1-.082.253,3.335,3.335,0,0,0-.089,1v.937h.226l1.538-.027q.116,0,.116.1Zm7.082-.191a.1.1,0,0,1-.109.109L96.3,6.353H92.326A10.351,10.351,0,0,1,91.1,8.116q-.116.144-.191.144t-.2-.157a1.274,1.274,0,0,0-.41-.294,8.668,8.668,0,0,0,2.092-3.473,4.21,4.21,0,0,0,.178-.943q.526.1.8.185.157.041.157.157a.332.332,0,0,1-.082.164,1.884,1.884,0,0,0-.267.574q-.26.7-.451,1.121H96.3l1.668-.027a.1.1,0,0,1,.109.109Zm10.083.937q0,.109-.116.109l-1.456-.027h-.417v6.05l.027,2.42a.1.1,0,0,1-.109.109h-.649a.1.1,0,0,1-.109-.109l.027-2.406V7.289h-.437l-1.47.027a.1.1,0,0,1-.109-.109V6.633q0-.116.109-.116l1.47.027h.438V5.354a11.11,11.11,0,0,0-.1-1.8,8.722,8.722,0,0,1,.9.082q.171.027.171.116a.379.379,0,0,1-.027.123,1.265,1.265,0,0,0-.048.13,6.158,6.158,0,0,0-.082,1.34v1.2h.417l1.456-.027a.1.1,0,0,1,.116.116Zm4.115.841q0,.123-.116.123l-1.244-.027h-.068V12.3l.014,2.194a1.172,1.172,0,0,1-.383,1.025,2.85,2.85,0,0,1-1.367.212h-.308q-.219,0-.26-.048a.6.6,0,0,1-.082-.246,2.487,2.487,0,0,0-.219-.595,10.779,10.779,0,0,0,1.258.089q.52-.021.52-.574V8.144h-.383l-1.244.027a.109.109,0,0,1-.123-.123V7.487q0-.116.123-.116l1.244.027h1.278l1.244-.027a.1.1,0,0,1,.116.116Zm-9.194-.984q0,.082-.13.164a1.094,1.094,0,0,0-.321.41A11.165,11.165,0,0,1,101.91,8.8v5.209l.027,1.8q0,.109-.116.109h-.643a.1.1,0,0,1-.109-.109l.027-1.8V11.5q0-.123.041-1.723A14.387,14.387,0,0,1,100.03,10.9q-.109.109-.164.109-.075,0-.144-.15a1.759,1.759,0,0,0-.321-.506,10.411,10.411,0,0,0,2.577-3.192,3.284,3.284,0,0,0,.267-.684,5.289,5.289,0,0,1,.684.39Q103.086,6.975,103.086,7.063Zm.041-3.042q0,.1-.13.157a1.182,1.182,0,0,0-.349.335A12.765,12.765,0,0,1,100.174,7.1a.578.578,0,0,1-.2.109q-.062,0-.171-.2a1.73,1.73,0,0,0-.362-.472,9.155,9.155,0,0,0,2.5-2.5,2.091,2.091,0,0,0,.308-.629,4.717,4.717,0,0,1,.738.41Q103.127,3.926,103.127,4.021Zm1.442,5.223a.4.4,0,0,1-.068.185,1.426,1.426,0,0,0-.144.547,13.911,13.911,0,0,1-.882,3.493q-.055.171-.13.171a.565.565,0,0,1-.178-.068,1.67,1.67,0,0,0-.547-.164,11.343,11.343,0,0,0,.957-3.432q.027-.342.027-.636a2.832,2.832,0,0,0-.021-.362,6.191,6.191,0,0,1,.8.116Q104.569,9.128,104.569,9.244Zm4.04,3.486a.112.112,0,0,0,.007.027v.021q0,.075-.144.137l-.39.137a.66.66,0,0,1-.171.048q-.062,0-.068-.1a21.241,21.241,0,0,0-.8-3.726.29.29,0,0,1-.014-.068q0-.048.144-.1l.376-.13a.4.4,0,0,1,.1-.021q.055,0,.082.1A22.953,22.953,0,0,1,108.609,12.73Zm3.35-7.588q0,.116-.1.116l-1.094-.027h-.909l-1.094.027q-.109,0-.109-.116V4.555a.1.1,0,0,1,.109-.109l1.094.027h.909l1.094-.027q.1,0,.1.109Zm-3.767.267a.207.207,0,0,1,.021.075q0,.055-.1.123l-.28.178a.524.524,0,0,1-.171.089q-.041,0-.082-.089a6.68,6.68,0,0,0-.841-1.381.166.166,0,0,1-.041-.082q0-.041.109-.1l.308-.171a.445.445,0,0,1,.123-.041.114.114,0,0,1,.075.041A6.778,6.778,0,0,1,108.192,5.409ZM126.656,10.5a1.938,1.938,0,0,0-.349.54q-.116.246-.2.246a.585.585,0,0,1-.185-.062,13.353,13.353,0,0,1-3.274-2.14,13.708,13.708,0,0,1-3.165,2.112.5.5,0,0,1-.219.082q-.082,0-.2-.212a1.408,1.408,0,0,0-.349-.417,11.642,11.642,0,0,0,3.4-2.1A9.82,9.82,0,0,1,120.688,6.5a10.773,10.773,0,0,1-1.23,1.456q-.15.157-.191.157t-.171-.157a1.412,1.412,0,0,0-.465-.349,8.7,8.7,0,0,0,2.5-3.541,2.9,2.9,0,0,0,.185-.738,5.237,5.237,0,0,1,.793.205q.144.062.144.157a.248.248,0,0,1-.082.178.9.9,0,0,0-.253.369q-.157.383-.308.684h2.687a.912.912,0,0,0,.335-.041.315.315,0,0,1,.123-.041q.13,0,.362.253t.226.349a.221.221,0,0,1-.123.191.953.953,0,0,0-.253.335,10.117,10.117,0,0,1-1.75,2.563A12.431,12.431,0,0,0,126.656,10.5Zm-2.42-4.888h-2.987l-.123.212a7.95,7.95,0,0,0,1.538,2.181A8.771,8.771,0,0,0,124.236,5.614Zm-5.223,4.553a.2.2,0,0,1,.007.048q0,.062-.171.137l-.28.109a.537.537,0,0,1-.164.055q-.055,0-.075-.109-.062-.157-.144-.458-.369.048-1.244.137v3.753l.027,2.044a.085.085,0,0,1-.1.1h-.649q-.109,0-.109-.1l.027-2.044V10.153l-1.483.116a1.138,1.138,0,0,0-.533.123.762.762,0,0,1-.164.055q-.082,0-.13-.178a7.422,7.422,0,0,1-.123-.786q.513.048.711.048.089,0,.185-.007h.178q.533-.67,1.025-1.4a19.106,19.106,0,0,0-2.044-2.194.168.168,0,0,1-.062-.1.41.41,0,0,1,.089-.164l.226-.294q.075-.1.116-.1.021,0,.075.048l.547.533a17.166,17.166,0,0,0,.971-1.641,3.766,3.766,0,0,0,.349-.9,5.5,5.5,0,0,1,.738.335q.144.082.144.185a.2.2,0,0,1-.1.15.891.891,0,0,0-.253.294q-.7,1.169-1.333,2.085.54.567.991,1.094.513-.807,1.08-1.832a4.863,4.863,0,0,0,.41-.909,5.376,5.376,0,0,1,.759.349q.123.082.123.15a.228.228,0,0,1-.123.185,2.542,2.542,0,0,0-.479.629Q116.73,8.1,115.678,9.483q.9-.034,2.29-.15a8.979,8.979,0,0,0-.506-1.08.182.182,0,0,1-.034-.082q0-.055.157-.116l.267-.1A.55.55,0,0,1,118,7.918q.048,0,.1.082A13.241,13.241,0,0,1,119.014,10.167Zm6.173,5.3-.212.39q-.1.171-.171.171a.259.259,0,0,1-.1-.027,19.868,19.868,0,0,0-4.546-1.976q-.075-.021-.075-.068a.513.513,0,0,1,.075-.185l.178-.349q.089-.157.157-.157a.374.374,0,0,1,.082.014,23.739,23.739,0,0,1,4.594,1.962q.068.048.068.082A.383.383,0,0,1,125.187,15.465Zm-9.816-3.979a.32.32,0,0,1-.068.185,1.409,1.409,0,0,0-.144.513,15.338,15.338,0,0,1-.6,2.591q-.062.212-.137.212a.525.525,0,0,1-.212-.109,1.388,1.388,0,0,0-.458-.226,9.479,9.479,0,0,0,.67-2.591,5.636,5.636,0,0,0,.048-.649q0-.1-.007-.205.479.082.7.137T115.37,11.486Zm8.88.8q.068.062.068.1a.423.423,0,0,1-.082.164l-.253.321q-.123.144-.178.144a.133.133,0,0,1-.089-.048A12.85,12.85,0,0,0,121.3,11.3q-.062-.027-.062-.068a.36.36,0,0,1,.089-.164l.232-.328q.082-.1.144-.1a.161.161,0,0,1,.068.021A15,15,0,0,1,124.25,12.286Zm-5.168,1.634a.586.586,0,0,1,.007.062q0,.082-.178.15l-.308.109a.6.6,0,0,1-.171.055q-.055,0-.068-.109a13.851,13.851,0,0,0-.656-2.728.262.262,0,0,1-.021-.082q0-.062.164-.116l.294-.082a.4.4,0,0,1,.109-.021q.062,0,.1.089A14.9,14.9,0,0,1,119.082,13.92Zm20.33-9.037a.23.23,0,0,1-.157.232,2.483,2.483,0,0,0-.479.321,25.942,25.942,0,0,1-4.129,2.98v3.938l.027,1.764a1.871,1.871,0,0,1-.137.8,1.346,1.346,0,0,1-.308.376,1.752,1.752,0,0,1-1,.335q-.4.041-1.5.041a.507.507,0,0,1-.267-.041.874.874,0,0,1-.089-.253,1.693,1.693,0,0,0-.294-.684q.67.068,1.894.068.772,0,.772-.854V9.456a10.971,10.971,0,0,0-.13-2q.157.027.827.1a22.235,22.235,0,0,0,3.445-2.488H130.97l-1.935.027q-.109,0-.109-.123V4.3a.1.1,0,0,1,.109-.109l1.935.027h7.164a.969.969,0,0,0,.383-.055.322.322,0,0,1,.137-.041q.123,0,.417.294Q139.412,4.753,139.412,4.883Zm14.923,10.1a2.4,2.4,0,0,0-.349.547q-.116.246-.205.246a.878.878,0,0,1-.171-.034,14.015,14.015,0,0,1-4.088-1.682,10.684,10.684,0,0,1-4.156,1.771,1.478,1.478,0,0,1-.191.027q-.089,0-.205-.226a1.9,1.9,0,0,0-.335-.465A11.739,11.739,0,0,0,148.88,13.6a9.065,9.065,0,0,1-1.559-1.668,9.5,9.5,0,0,1-1.969,1.6,1.127,1.127,0,0,1-.2.1q-.062,0-.2-.2a1.749,1.749,0,0,0-.376-.362,8.027,8.027,0,0,0,2.967-2.632,2.314,2.314,0,0,0,.4-.854l-1.593.109a3.076,3.076,0,0,0-.711.1,1.187,1.187,0,0,1-.226.1q-.1,0-.171-.212-.062-.239-.137-.766.253.021.547.021.2,0,.349-.007.971-.027,1.5-.055l.772-.786a20.738,20.738,0,0,0-2.393-2.017q-.062-.041-.062-.075a.3.3,0,0,1,.068-.137l.28-.335q.068-.089.123-.089a.148.148,0,0,1,.075.034q.239.171.711.533a17.405,17.405,0,0,0,1.374-1.962,3.3,3.3,0,0,0,.308-.684,4.658,4.658,0,0,1,.745.349q.171.082.171.2,0,.089-.157.178a1.65,1.65,0,0,0-.362.41q-.889,1.251-1.518,1.969.608.506,1.162,1.039.937-1.039,1.853-2.27a2.414,2.414,0,0,0,.362-.629,5.477,5.477,0,0,1,.7.349q.171.1.171.212,0,.089-.157.164a3,3,0,0,0-.52.547,33.525,33.525,0,0,1-2.639,2.926q1.518-.082,3.6-.294-.383-.479-.841-.964-.048-.048-.048-.075t.13-.123l.308-.191a.338.338,0,0,1,.144-.068.112.112,0,0,1,.068.041,12.726,12.726,0,0,1,2.044,2.618.161.161,0,0,1,.021.068q0,.062-.116.137l-.369.212a.464.464,0,0,1-.171.082q-.041,0-.075-.082-.424-.7-.649-1.039-1.818.219-4.628.465.506.13.7.2.157.055.157.164t-.13.157a1.865,1.865,0,0,0-.267.335q-.068.1-.185.294h2.83a.823.823,0,0,0,.294-.041.33.33,0,0,1,.144-.041q.109,0,.376.267.239.219.239.349a.21.21,0,0,1-.13.191,2.166,2.166,0,0,0-.321.355,10.236,10.236,0,0,1-1.565,1.757A12.865,12.865,0,0,0,154.335,14.979Zm-3.3-3.582h-3.247a7.185,7.185,0,0,0,1.7,1.75A7.8,7.8,0,0,0,151.033,11.4Zm-5.64-4.423a.181.181,0,0,1-.1.157,1.007,1.007,0,0,0-.308.349q-.492.82-.889,1.36v5.223l.027,1.8q0,.109-.116.109h-.656q-.1,0-.1-.109l.027-1.8V11.555q0-.164.041-1.764A14.63,14.63,0,0,1,142.03,11.1a.426.426,0,0,1-.205.123q-.068,0-.171-.185a1.535,1.535,0,0,0-.321-.431,11.928,11.928,0,0,0,2.939-3.5,2.97,2.97,0,0,0,.28-.684,4.429,4.429,0,0,1,.7.376Q145.394,6.9,145.394,6.975Zm-.041-2.98q0,.089-.171.185a1.205,1.205,0,0,0-.335.349,13.028,13.028,0,0,1-2.536,2.522.678.678,0,0,1-.226.109q-.062,0-.164-.185a1.46,1.46,0,0,0-.4-.431,9,9,0,0,0,2.646-2.522,2.14,2.14,0,0,0,.314-.629,3.944,3.944,0,0,1,.738.424Q145.353,3.9,145.353,3.994ZM156.5,12.478a14.949,14.949,0,0,1,1.641,1.531,10.045,10.045,0,0,1,1.169,1.483l-.923.684a11.119,11.119,0,0,0-2.7-3.035Zm8.688-4.211.479-.841a28.874,28.874,0,0,1,3.288,1.429l-.52.937A19.993,19.993,0,0,0,165.184,8.267Zm1.258-2.994.52-.827a20.246,20.246,0,0,1,3.192,1.524l-.561.923A17.538,17.538,0,0,0,166.441,5.272Zm7.335.923.971.547A14.6,14.6,0,0,1,173.6,9.894a9.741,9.741,0,0,1-1.47,2.235,10.073,10.073,0,0,1-5.558,2.994L166,14.241a9.086,9.086,0,0,0,5.318-2.8A11.559,11.559,0,0,0,173.776,6.2Zm7.827,4.8a12.594,12.594,0,0,1-5,4.423l-.615-.807a12.291,12.291,0,0,0,4.573-3.931,14.161,14.161,0,0,0,2.051-5.045h-5.879V4.7H184a18.785,18.785,0,0,1-1.846,5.359,31.446,31.446,0,0,1,3.261,4.7l-1.032.656A25.126,25.126,0,0,0,181.6,10.994Zm9.55-2.516h-4.3V7.569h8.887v.909h-3.514a22.952,22.952,0,0,1-.137,2.57,5.219,5.219,0,0,1-.335,1.333,6.225,6.225,0,0,1-3.35,3.22l-.7-.786a5.2,5.2,0,0,0,3.049-2.823A11.693,11.693,0,0,0,191.153,8.479Zm-3.473-3.965h7.267v.923h-7.267ZM205,13.093A33.151,33.151,0,0,0,203.26,9.4l.9-.4a43.915,43.915,0,0,1,2.741,6.009l-1.019.479q-.267-.82-.547-1.545-4.2.663-7.909,1.08l-.226-1.019q.28-.014.841-.075,1.688-4.881,2.939-9.782l1.08.28q-1.2,4.478-2.926,9.393Q202.193,13.537,205,13.093Zm9.42-4.867q0,.116-.109.116l-1.668-.034h-.431a13.192,13.192,0,0,0,2.194,3.015,2.294,2.294,0,0,0-.376.547q-.075.15-.13.15t-.15-.123a12.67,12.67,0,0,1-1.791-3q.007,2.4.062,5.059.014.629.034,1.49.014.41.014.451,0,.116-.109.116h-.7q-.109,0-.109-.116s.009-.369.027-1.094q.089-3.179.1-5.886a17.614,17.614,0,0,1-2.646,4.573q-.1.144-.164.144t-.13-.157a1.588,1.588,0,0,0-.376-.574,15.973,15.973,0,0,0,3.008-4.594h-.978l-1.668.034q-.1,0-.1-.116V7.679q0-.109.1-.109l1.668.027H211.2V5.382q-1.025.294-2.03.492a1.755,1.755,0,0,1-.185.021q-.109,0-.219-.219a1.626,1.626,0,0,0-.342-.417,19.535,19.535,0,0,0,2.625-.608,13.69,13.69,0,0,0,1.688-.622,2.74,2.74,0,0,0,.636-.41,5.662,5.662,0,0,1,.6.492.35.35,0,0,1,.123.239q0,.1-.226.123a2.487,2.487,0,0,0-.6.185q-.52.219-1.244.465V7.6h.615l1.668-.027a.1.1,0,0,1,.109.109ZM219.837,3.9a.853.853,0,0,1-.089.267,5.36,5.36,0,0,0-.068,1.217v6.877l.014,2.112a1.252,1.252,0,0,1-.4,1.094,1.427,1.427,0,0,1-.643.232,11.506,11.506,0,0,1-1.278.048.411.411,0,0,1-.253-.048.8.8,0,0,1-.1-.246,2,2,0,0,0-.294-.649,9.246,9.246,0,0,0,1.388.089.816.816,0,0,0,.574-.144.766.766,0,0,0,.137-.533V5.4a10.854,10.854,0,0,0-.1-1.709,7.705,7.705,0,0,1,.937.089Q219.837,3.8,219.837,3.9ZM216.446,4.91q0,.014-.068.219a9.266,9.266,0,0,0-.055,1.442v3.808l.027,1.812a.1.1,0,0,1-.109.109h-.663a.1.1,0,0,1-.109-.109l.027-1.812V6.6a12.07,12.07,0,0,0-.1-1.9,8.745,8.745,0,0,1,.909.082Q216.446,4.8,216.446,4.91Zm17.274-.629-.027,2.194v6.214l.014,1.88a1.126,1.126,0,0,1-.41.964,3.382,3.382,0,0,1-1.736.28.484.484,0,0,1-.267-.041.581.581,0,0,1-.082-.239,1.71,1.71,0,0,0-.253-.643q.636.055,1.388.055.492,0,.492-.561V11.432h-3.917V13.1l.027,2.317a.1.1,0,0,1-.116.116h-.67q-.109,0-.109-.116l.027-2.317V11.432h-3.753a9.556,9.556,0,0,1-.547,2.557A7.734,7.734,0,0,1,222.9,15.6q-.123.171-.164.171t-.2-.144a2.739,2.739,0,0,0-.588-.349,6.672,6.672,0,0,0,1.292-2.646,18.46,18.46,0,0,0,.349-4.061v-2.1l-.027-2.194q0-.116.109-.116l1.989.027h5.947l2-.027A.1.1,0,0,1,233.721,4.281Zm-.882,3.158V4.965h-3.917V7.439Zm0,3.233V8.2h-3.917v2.475Zm-4.758,0V8.2h-3.637v.376q0,.916-.062,2.1Zm0-3.233V4.965h-3.637V7.439ZM248.4,11.521q0,.109-.116.109l-1.846-.027H242.9v.937l.027,1.777a1.226,1.226,0,0,1-.362,1,3.645,3.645,0,0,1-1.941.308h-.3a.417.417,0,0,1-.267-.055.532.532,0,0,1-.1-.239,2.218,2.218,0,0,0-.253-.684,14.073,14.073,0,0,0,1.565.082.858.858,0,0,0,.629-.171.709.709,0,0,0,.116-.458V11.6h-3.7l-1.846.027a.1.1,0,0,1-.109-.109v-.649a.1.1,0,0,1,.109-.109l1.846.027h3.7V8.561h-2.434l-1.976.027q-.116,0-.116-.109V7.829q0-.109.116-.109l1.976.027h2.434V5.5q-2.222.328-4.02.485a1.114,1.114,0,0,1-.144.014.16.16,0,0,1-.144-.062,1.3,1.3,0,0,1-.089-.212,1.7,1.7,0,0,0-.294-.533,43.986,43.986,0,0,0,4.648-.506,27.632,27.632,0,0,0,2.994-.67,4.864,4.864,0,0,0,1.08-.451,6.875,6.875,0,0,1,.684.6.271.271,0,0,1,.1.185q0,.123-.185.123a1.741,1.741,0,0,0-.54.1,28.1,28.1,0,0,1-3.206.766V7.747h2.481l1.955-.027q.116,0,.116.109v.649q0,.109-.116.109l-1.955-.027H242.9v2.229h3.541l1.846-.027q.116,0,.116.109Zm14.533,3.562a1.754,1.754,0,0,0-.417.561q-.1.178-.171.178a.578.578,0,0,1-.2-.109,14.973,14.973,0,0,1-2.632-2.7,9.611,9.611,0,0,1-3.356,2.871.713.713,0,0,1-.226.082q-.075,0-.2-.2a1.343,1.343,0,0,0-.417-.431,8.821,8.821,0,0,0,3.726-3.056,12.549,12.549,0,0,1-1.388-3.808,11.491,11.491,0,0,1-.841,1.388q-.109.15-.164.15t-.2-.15a1.447,1.447,0,0,0-.437-.308,12.133,12.133,0,0,0,2.229-4.881,5.925,5.925,0,0,0,.2-1.265q.472.116.779.226.185.068.185.171a.493.493,0,0,1-.137.232,2.28,2.28,0,0,0-.226.663q-.3,1.08-.465,1.552h2.44l1.538-.027a.1.1,0,0,1,.109.109v.561a.1.1,0,0,1-.109.109L262.411,7q-.444-.014-.984-.021a11.938,11.938,0,0,1-1.442,5.332A12.987,12.987,0,0,0,262.938,15.082Zm-2.324-8.107H258.33l-.178.465a13.6,13.6,0,0,0,1.34,4.088A11.811,11.811,0,0,0,260.613,6.975ZM256.9,11.4a.1.1,0,0,1-.109.109l-.15-.007q-.465-.014-1.025-.021a6.67,6.67,0,0,1-1.107,2.181q.636.376,1.135.731.075.048.075.1t-.089.144l-.239.294q-.116.15-.164.15a.2.2,0,0,1-.1-.055q-.588-.458-1.114-.813a8.175,8.175,0,0,1-3.028,1.627.877.877,0,0,1-.2.041q-.109,0-.219-.212a1.336,1.336,0,0,0-.349-.4,7.513,7.513,0,0,0,3.1-1.456,11.463,11.463,0,0,0-1.374-.67,5.069,5.069,0,0,1-.321.444q-.116.15-.185.15a.753.753,0,0,1-.205-.055l-.267-.109q-.171-.062-.171-.116a.22.22,0,0,1,.048-.1,6.865,6.865,0,0,0,.615-.82q.342-.533.629-1.053l-1.723.027a.1.1,0,0,1-.109-.109v-.492a.1.1,0,0,1,.109-.109l1.777.027h.28q.082-.144.226-.451a3.42,3.42,0,0,0,.267-.807,4.592,4.592,0,0,1,.759.219q.137.048.137.144a.236.236,0,0,1-.109.164,2.3,2.3,0,0,0-.342.533l-.1.2h1.75l1.777-.027a.1.1,0,0,1,.109.109Zm-2.085.082H252.93q-.369.663-.643,1.121a13.155,13.155,0,0,1,1.552.684A4.875,4.875,0,0,0,254.816,11.486Zm1.88-4.621a.1.1,0,0,1-.109.109l-1.75-.027h-.424A6.52,6.52,0,0,0,256.266,8.4a1.517,1.517,0,0,0-.41.424q-.062.109-.137.109a.577.577,0,0,1-.226-.123A8.054,8.054,0,0,1,254,7.241q.007.711.048,1.463.034.581.034.629a.1.1,0,0,1-.109.109h-.622a.1.1,0,0,1-.109-.109q0-.068.021-.369.055-.9.062-1.675A8.957,8.957,0,0,1,250.831,9.8a.544.544,0,0,1-.239.123q-.055,0-.157-.144a1.4,1.4,0,0,0-.376-.39,8.884,8.884,0,0,0,2.379-1.935,4.765,4.765,0,0,0,.41-.506h-.69l-1.75.027q-.1,0-.1-.109V6.373q0-.123.1-.123l1.75.027h1.121V4.555a5.521,5.521,0,0,0-.1-1.121q.458.021.841.075.15.021.15.137a.735.735,0,0,1-.068.226,2.244,2.244,0,0,0-.068.711v1.7h.8l1.75-.027q.109,0,.109.123Zm-.185-2.522a.177.177,0,0,1-.082.144.95.95,0,0,0-.226.253,8.539,8.539,0,0,1-.711,1.053q-.123.137-.2.137a.429.429,0,0,1-.2-.082,1.146,1.146,0,0,0-.362-.157,9.656,9.656,0,0,0,.827-1.258,1.757,1.757,0,0,0,.178-.52,4.45,4.45,0,0,1,.649.294Q256.512,4.281,256.512,4.343Zm-4.156,1.066a.157.157,0,0,1,.021.062q0,.041-.137.123l-.308.15a.466.466,0,0,1-.157.075q-.048,0-.082-.089a5.728,5.728,0,0,0-.779-1.367.22.22,0,0,1-.048-.1q0-.048.13-.116l.308-.157a.318.318,0,0,1,.116-.041q.034,0,.082.055A5.892,5.892,0,0,1,252.355,5.409Zm17.295,6.077a2.634,2.634,0,0,0-.335.52q-.089.15-.144.15-.021,0-.137-.137a13.057,13.057,0,0,1-1.442-2.55q.007,2.153.062,4.614.014.574.034,1.388.014.383.014.424,0,.1-.109.1h-.649q-.109,0-.109-.1,0-.027.021-1,.068-2.926.089-5.312a18.978,18.978,0,0,1-2.1,4.2q-.1.137-.137.137-.062,0-.144-.171a1.217,1.217,0,0,0-.349-.5,16.365,16.365,0,0,0,2.461-4.464h-.533l-1.511.027q-.109,0-.109-.1v-.54q0-.116.109-.116l1.511.027h.731V5.074a10.573,10.573,0,0,0-.1-1.7q.6.027.868.068.185.027.185.13a.775.775,0,0,1-.1.267,5.361,5.361,0,0,0-.068,1.217V8.082h.267l1.511-.027q.109,0,.109.116v.54q0,.1-.109.1l-1.511-.027h-.157A11.89,11.89,0,0,0,269.65,11.486Zm7.178.055a.157.157,0,0,1,.014.055q0,.041-.109.075-.889.144-1.654.294v1.483l.027,2.42a.1.1,0,0,1-.109.109h-.677a.1.1,0,0,1-.109-.109l.027-2.406V12.129l-2.673.52q-.807.157-1.422.294-.4.082-.41.089a.411.411,0,0,1-.062.007q-.055,0-.068-.109l-.109-.6a.3.3,0,0,1-.007-.055q0-.055.1-.075.027-.007.232-.034.7-.1,1.613-.287l2.8-.561V5.45a14,14,0,0,0-.1-1.914,8.416,8.416,0,0,1,.909.068q.185.027.185.123a.908.908,0,0,1-.068.253,6.659,6.659,0,0,0-.089,1.442v5.729q.943-.191,1.511-.355h.041q.068,0,.089.116ZM272.87,9.456a.174.174,0,0,1,.055.1q0,.034-.1.13l-.314.335q-.116.123-.157.123t-.075-.055a11.166,11.166,0,0,0-1.948-1.777q-.062-.034-.062-.075t.1-.144l.294-.28q.082-.082.123-.082a.2.2,0,0,1,.089.041A10.692,10.692,0,0,1,272.87,9.456Zm.349-3.117q.055.055.055.082t-.082.123l-.321.335a.665.665,0,0,1-.157.137q-.027,0-.068-.062a9.089,9.089,0,0,0-1.921-1.75q-.055-.041-.055-.068,0-.048.116-.157l.294-.294q.075-.082.109-.082a.166.166,0,0,1,.082.041A9.736,9.736,0,0,1,273.219,6.339ZM269.9,4.767a.261.261,0,0,1-.1.157.862.862,0,0,0-.185.308,19.322,19.322,0,0,1-.725,1.846q-.082.185-.157.185a.4.4,0,0,1-.178-.082,1.555,1.555,0,0,0-.376-.157,10.545,10.545,0,0,0,.766-2.112,2,2,0,0,0,.089-.547,4.192,4.192,0,0,1,.711.253Q269.9,4.691,269.9,4.767Zm-3.65,2.174a.3.3,0,0,1,.007.055q0,.048-.178.123l-.321.13a.62.62,0,0,1-.157.048q-.041,0-.062-.089a11.033,11.033,0,0,0-.786-2.386.132.132,0,0,1-.027-.062q0-.048.137-.1l.321-.144a.489.489,0,0,1,.144-.048q.034,0,.068.075A12.458,12.458,0,0,1,266.246,6.94ZM290.814,3.27a8.836,8.836,0,0,0-2.529,3.247,8.068,8.068,0,0,0-.581,3.165,7.883,7.883,0,0,0,.772,3.582,9.239,9.239,0,0,0,2.338,2.83l-.349.4a9.614,9.614,0,0,1-2.939-3.37,7.781,7.781,0,0,1-.731-3.445,7.659,7.659,0,0,1,.964-3.89,10.156,10.156,0,0,1,2.707-2.926Zm13.9,7.144q0,.109-.116.109l-1.969-.027h-2.522a7.7,7.7,0,0,0,1.9,2.878,9.869,9.869,0,0,0,2.68,1.839,1.829,1.829,0,0,0-.424.561q-.123.212-.178.212a.678.678,0,0,1-.226-.109,9.26,9.26,0,0,1-4.3-4.915,7.554,7.554,0,0,1-3.876,4.983.552.552,0,0,1-.212.082q-.062,0-.212-.2a1.767,1.767,0,0,0-.458-.444,8.55,8.55,0,0,0,2.769-2.105,6.622,6.622,0,0,0,1.2-2.434l.082-.349H297.6l-1.989.027a.1.1,0,0,1-.109-.109V9.832q0-.123.109-.123l1.989.027H299a27.334,27.334,0,0,0,.185-2.885H298.2l-1.8.027a.1.1,0,0,1-.109-.109V6.161a.1.1,0,0,1,.109-.109l1.8.027h1V4.972a9.736,9.736,0,0,0-.1-1.565,8.166,8.166,0,0,1,.923.082q.185.041.185.144a1.25,1.25,0,0,1-.082.28,3.188,3.188,0,0,0-.089.978V6.079h1.36l1.853-.027a.1.1,0,0,1,.109.109l-.027,1.224V9.736l1.271-.027q.116,0,.116.123ZM302.5,9.736V6.852h-2.481a25.042,25.042,0,0,1-.205,2.885Zm-7.4,2.1q-.554,1.538-1.347,3.261a4.507,4.507,0,0,0-.253.615q-.048.171-.137.171a.432.432,0,0,1-.212-.082,6.2,6.2,0,0,1-.643-.479,5.858,5.858,0,0,0,.745-1.148,30.628,30.628,0,0,0,1.271-3.192,2.425,2.425,0,0,0,.438.424q.191.144.191.226A.844.844,0,0,1,295.1,11.835Zm.492-6.562a.149.149,0,0,1,.055.089.315.315,0,0,1-.082.144l-.314.4q-.089.116-.13.116a.11.11,0,0,1-.075-.048,10.594,10.594,0,0,0-1.887-1.627q-.075-.048-.075-.082a.284.284,0,0,1,.082-.137l.294-.335q.1-.1.137-.1a.168.168,0,0,1,.075.027A10.085,10.085,0,0,1,295.593,5.272Zm-.786,3.4a.137.137,0,0,1,.041.075.423.423,0,0,1-.082.164l-.294.39q-.082.109-.123.109a.168.168,0,0,1-.1-.062,9.535,9.535,0,0,0-1.887-1.531q-.068-.034-.068-.068a.389.389,0,0,1,.1-.15l.267-.342q.075-.089.116-.089a.183.183,0,0,1,.089.034A10.078,10.078,0,0,1,294.807,8.67Zm24.09.321a2.034,2.034,0,0,0-.321.547q-.1.226-.191.226a1.293,1.293,0,0,1-.191-.027q-.813-.164-1.271-.28v4.635l.027,1.7q0,.116-.109.116h-.649q-.109,0-.109-.116l.027-1.7V13.024h-4.717l-.041.137a5.06,5.06,0,0,1-1.75,2.625.578.578,0,0,1-.2.109q-.068,0-.212-.144a1.808,1.808,0,0,0-.533-.376,4.2,4.2,0,0,0,1.921-2.488,8.507,8.507,0,0,0,.294-1.5q.062-.656.068-1.941-.4.1-1.176.232a1.412,1.412,0,0,1-.171.021q-.116,0-.205-.232a1.485,1.485,0,0,0-.308-.5,13.061,13.061,0,0,0,4.088-1.094,6.943,6.943,0,0,1-2.03-2.1q-.588.007-1.032.021l-.226.007H309.8q-.123,0-.123-.109V5.143q0-.109.123-.109l1.962.027h1.641V4.63a6.048,6.048,0,0,0-.1-1.278q.479.021.93.082.164.027.164.116a.9.9,0,0,1-.082.267,2.676,2.676,0,0,0-.068.779v.465h2.167l1.976-.027a.1.1,0,0,1,.109.109v.547a.1.1,0,0,1-.109.109l-1.777-.027a7.1,7.1,0,0,1-1.935,2.071A15.426,15.426,0,0,0,318.9,8.991Zm-2.789,3.322V10.864h-4.4a9.6,9.6,0,0,1-.171,1.449Zm0-2.146V9.23a10.4,10.4,0,0,1-2.187-.9,10.469,10.469,0,0,1-2.167.9q0,.656-.014.937Zm-.437-4.4h-3.637a5.891,5.891,0,0,0,1.9,1.682A5.484,5.484,0,0,0,315.67,5.771Zm-6.6,6.036a34.788,34.788,0,0,1-1.456,3.22,2.941,2.941,0,0,0-.28.615q-.021.144-.137.144a.367.367,0,0,1-.2-.082q-.321-.226-.643-.492a5.508,5.508,0,0,0,.759-1.121,24.812,24.812,0,0,0,1.381-3.138,3.272,3.272,0,0,0,.438.424q.2.15.2.226A.769.769,0,0,1,309.066,11.808Zm.321-6.535a.146.146,0,0,1,.062.1.328.328,0,0,1-.089.157l-.294.362q-.082.109-.13.109a.114.114,0,0,1-.075-.041,10.415,10.415,0,0,0-1.88-1.613q-.062-.041-.062-.075t.1-.144l.28-.321q.1-.116.15-.116a.168.168,0,0,1,.075.027A10.417,10.417,0,0,1,309.388,5.272ZM308.7,8.656a.131.131,0,0,1,.048.082q0,.041-.089.144l-.294.376q-.1.123-.144.123-.027,0-.082-.055a10.127,10.127,0,0,0-1.873-1.511q-.062-.034-.062-.068a.339.339,0,0,1,.089-.15l.267-.355q.068-.089.116-.089a.221.221,0,0,1,.089.034A9.829,9.829,0,0,1,308.7,8.656Zm23.5,6.692q0,.109-.116.109l-1.887-.027h-7.588l-1.894.027a.1.1,0,0,1-.109-.109V14.74a.1.1,0,0,1,.109-.109l1.894.027h3.261V11H323.08l-1.928.027q-.116,0-.116-.109v-.595q0-.109.116-.109l1.928.027h2.789V8.492h-.854l-1.75.014q-.109,0-.109-.1V7.815a.1.1,0,0,1,.109-.109l1.75.027h2.755l1.771-.027a.1.1,0,0,1,.109.109V8.4q0,.1-.109.1l-1.771-.014h-1.032v1.75h3.035l1.935-.027a.1.1,0,0,1,.109.109v.595a.081.081,0,0,1-.109.109L329.772,11h-3.035v3.657H330.2l1.887-.027q.116,0,.116.109ZM333.067,8a1.6,1.6,0,0,0-.41.547q-.116.212-.185.212a1.126,1.126,0,0,1-.219-.068,13.179,13.179,0,0,1-5.913-4.3,14.409,14.409,0,0,1-5.708,4.437.7.7,0,0,1-.2.062q-.068,0-.191-.191a1.314,1.314,0,0,0-.451-.431,13.147,13.147,0,0,0,5.77-4.286,3.041,3.041,0,0,0,.4-.779,4.172,4.172,0,0,1,.9.191q.2.068.2.185,0,.068-.1.123a.379.379,0,0,0-.13.089,11.238,11.238,0,0,0,3.049,2.769A15.984,15.984,0,0,0,333.067,8Zm-2.762,3.992q0,.068-.137.178a1.049,1.049,0,0,0-.226.342,13.259,13.259,0,0,1-1,1.675q-.116.144-.164.144a.433.433,0,0,1-.2-.1,1.184,1.184,0,0,0-.472-.226,9.91,9.91,0,0,0,1.1-1.88,3.2,3.2,0,0,0,.212-.615,4.029,4.029,0,0,1,.711.294Q330.306,11.91,330.306,11.992Zm-5.934,1.647a.268.268,0,0,1,.021.089q0,.062-.137.123l-.431.212a.832.832,0,0,1-.185.075q-.041,0-.068-.089a8.836,8.836,0,0,0-1-2,.133.133,0,0,1-.027-.068q0-.048.157-.13l.376-.164a.631.631,0,0,1,.157-.062q.048,0,.1.075A9.841,9.841,0,0,1,324.372,13.64ZM13.255,29.705q0,.116-.1.116l-1.791-.027H10.261a11.3,11.3,0,0,1-.547,1.4h1.094l1.552-.034q.116,0,.116.109l-.027,1.647v3.6l.027,1.654q0,.109-.116.109l-1.552-.027H9.071l-1.552.027a.1.1,0,0,1-.109-.109l.027-1.654V32.945L7.41,31.271a.1.1,0,0,1,.109-.109l1.36.034a10.657,10.657,0,0,0,.513-1.4H8.764l-1.791.027q-.109,0-.109-.116v-.574a.1.1,0,0,1,.109-.109l1.791.027h2.6l1.791-.027q.1,0,.1.109Zm-1.593,7.834V36.021H8.224v1.518Zm0-4.245v-1.4H8.224v1.4Zm0,2.071v-1.4H8.224v1.4Zm-4.594.547a1.656,1.656,0,0,0-.335.492q-.1.226-.2.226a.52.52,0,0,1-.164-.048,11.147,11.147,0,0,1-2.365-1.408A10.43,10.43,0,0,1,2.4,36.363H4.5l1.271-.027q.116,0,.116.109l-.034.95v.854l.034,1.8q0,.109-.116.109H5.209a.1.1,0,0,1-.109-.109v-.28H2.693v.772q0,.123-.116.123H2q-.1,0-.1-.123l.027-2.058v-.827L1.921,36.63q-.492.26-.772.39a.532.532,0,0,1-.191.068q-.089,0-.171-.2a1.2,1.2,0,0,0-.308-.4A9.136,9.136,0,0,0,3.486,34.7a6.977,6.977,0,0,1-1.019-1.312A9.291,9.291,0,0,1,1.456,34.4q-.164.144-.219.144t-.157-.157a1.062,1.062,0,0,0-.349-.349,6.462,6.462,0,0,0,2.085-2.42,2.621,2.621,0,0,0,.2-.622q.39.1.684.2.144.048.144.13,0,.062-.1.137a2.35,2.35,0,0,0-.212.308l-.137.267h1.7A.531.531,0,0,0,5.318,32a.39.39,0,0,1,.13-.027.707.707,0,0,1,.39.239q.2.212.2.321,0,.089-.116.15A.905.905,0,0,0,5.64,33a10.784,10.784,0,0,1-1.128,1.654A8.169,8.169,0,0,0,7.068,35.912ZM5.1,39.132V37.02H2.693v2.112Zm-.075-6.467H3l-.13.185a5.725,5.725,0,0,0,1.107,1.367A7.4,7.4,0,0,0,5.024,32.665ZM6.7,32q0,.109-.13.109H6.036A.1.1,0,0,1,5.927,32V30.662H1.853V32q0,.109-.116.109H1.189A.1.1,0,0,1,1.08,32L1.107,30.9v-.308l-.027-.52a.1.1,0,0,1,.109-.109l1.641.027h.615v-.383a5.964,5.964,0,0,0-.1-1.23q.308.014.882.068.185.027.185.13a.823.823,0,0,1-.1.253,2.676,2.676,0,0,0-.068.779v.383h.7l1.627-.027q.13,0,.13.109l-.034.465V30.9Zm2.529,7.178q0,.075-.13.13a1.916,1.916,0,0,0-.335.226A9.052,9.052,0,0,1,6.371,41a.579.579,0,0,1-.212.055q-.075,0-.212-.212a1.194,1.194,0,0,0-.362-.376,7.776,7.776,0,0,0,2.522-1.388A2.151,2.151,0,0,0,8.5,38.6a3.972,3.972,0,0,1,.615.41Q9.229,39.1,9.229,39.173Zm4.293,1.066a1.369,1.369,0,0,0-.362.444q-.1.2-.185.2a.75.75,0,0,1-.219-.068,9.189,9.189,0,0,1-2.311-1.654.149.149,0,0,1-.055-.089q0-.048.123-.15l.294-.253a.219.219,0,0,1,.116-.062.183.183,0,0,1,.1.048A7.174,7.174,0,0,0,13.521,40.239ZM20.4,30.847a22.039,22.039,0,0,1-1.483,7.362,2.1,2.1,0,0,1-1.894,1.483,1.749,1.749,0,0,1-1.606-1.06,6,6,0,0,1-.533-2.789,7.336,7.336,0,0,1,.458-2.618A5.114,5.114,0,0,1,16.379,31.5a4.675,4.675,0,0,1,1.716-1.128,5.426,5.426,0,0,1,1.969-.369,4.139,4.139,0,0,1,3.555,1.5,6.371,6.371,0,0,1,.964,3.808,5.114,5.114,0,0,1-1.121,3.4,5.6,5.6,0,0,1-3.274,1.784l-.485-.841a4.243,4.243,0,0,0,3.835-4.607,4.67,4.67,0,0,0-1.032-3.3A2.809,2.809,0,0,0,20.4,30.847Zm-1.053.109a3.075,3.075,0,0,0-1.292.4,4.459,4.459,0,0,0-1.06.93,5.252,5.252,0,0,0-1.148,3.582A4.6,4.6,0,0,0,16.256,38q.328.615.752.615a.82.82,0,0,0,.622-.26,2.544,2.544,0,0,0,.444-.759A19.819,19.819,0,0,0,19.346,30.956ZM30.7,32.768a2.027,2.027,0,0,0-.14-.786,1.522,1.522,0,0,0-.954-.889,2.235,2.235,0,0,0-.711-.109,2.352,2.352,0,0,0-.643.089,3.124,3.124,0,0,0-.612.246,3.764,3.764,0,0,0-.574.376,4.148,4.148,0,0,0-.516.485v-1.2a3.352,3.352,0,0,1,1.056-.7,3.719,3.719,0,0,1,1.425-.243,3.441,3.441,0,0,1,1.114.174,2.555,2.555,0,0,1,.889.509,2.354,2.354,0,0,1,.591.827,2.79,2.79,0,0,1,.215,1.128,3.868,3.868,0,0,1-.133,1.053,3.256,3.256,0,0,1-.4.889,4.288,4.288,0,0,1-.68.8,9.635,9.635,0,0,1-.964.779q-.69.492-1.138.841a5.031,5.031,0,0,0-.711.653,1.894,1.894,0,0,0-.369.608,2.127,2.127,0,0,0-.106.7h4.881v1h-6.05v-.485a4.045,4.045,0,0,1,.137-1.107,2.876,2.876,0,0,1,.451-.909,5.046,5.046,0,0,1,.824-.861q.509-.431,1.248-.971a7.887,7.887,0,0,0,.892-.731,3.8,3.8,0,0,0,.578-.7,2.5,2.5,0,0,0,.311-.708A3.051,3.051,0,0,0,30.7,32.768Zm9.242,2.29a9.63,9.63,0,0,1-.222,2.181,5.081,5.081,0,0,1-.643,1.6,2.892,2.892,0,0,1-1.032.991,2.826,2.826,0,0,1-1.391.338,2.639,2.639,0,0,1-1.316-.325,2.758,2.758,0,0,1-.974-.947,4.8,4.8,0,0,1-.6-1.528,9.447,9.447,0,0,1-.205-2.075,10.694,10.694,0,0,1,.215-2.27,5.191,5.191,0,0,1,.632-1.651,2.814,2.814,0,0,1,1.036-1,2.908,2.908,0,0,1,1.418-.338Q39.942,30.033,39.942,35.058Zm-1.148.109q0-4.184-1.989-4.184-2.1,0-2.1,4.259,0,3.972,2.058,3.972Q38.794,39.214,38.794,35.167Zm5.906-1.8a6.43,6.43,0,0,1,2.816.882,12.285,12.285,0,0,0,1.8.841,3.625,3.625,0,0,0,1.148.2,3.87,3.87,0,0,0,2.7-1.429l.451.39A4.424,4.424,0,0,1,50.3,36.138a6.185,6.185,0,0,1-2.81-.909,11.038,11.038,0,0,0-1.777-.841,3.7,3.7,0,0,0-1.176-.2,2.764,2.764,0,0,0-1.326.342,6.744,6.744,0,0,0-1.347,1.046l-.451-.376a6.7,6.7,0,0,1,1.723-1.442A3.314,3.314,0,0,1,44.7,33.362Zm15.094-.595a2.027,2.027,0,0,0-.14-.786,1.522,1.522,0,0,0-.954-.889,2.235,2.235,0,0,0-.711-.109,2.352,2.352,0,0,0-.643.089,3.124,3.124,0,0,0-.612.246,3.764,3.764,0,0,0-.574.376,4.148,4.148,0,0,0-.516.485v-1.2a3.352,3.352,0,0,1,1.056-.7,3.719,3.719,0,0,1,1.425-.243,3.441,3.441,0,0,1,1.114.174,2.555,2.555,0,0,1,.889.509,2.354,2.354,0,0,1,.591.827,2.79,2.79,0,0,1,.215,1.128,3.868,3.868,0,0,1-.133,1.053,3.256,3.256,0,0,1-.4.889,4.288,4.288,0,0,1-.68.8,9.635,9.635,0,0,1-.964.779q-.69.492-1.138.841a5.031,5.031,0,0,0-.711.653,1.894,1.894,0,0,0-.369.608,2.127,2.127,0,0,0-.106.7h4.881v1h-6.05v-.485a4.045,4.045,0,0,1,.137-1.107,2.876,2.876,0,0,1,.451-.909,5.046,5.046,0,0,1,.824-.861q.509-.431,1.248-.971a7.887,7.887,0,0,0,.892-.731,3.8,3.8,0,0,0,.578-.7,2.5,2.5,0,0,0,.311-.708A3.051,3.051,0,0,0,59.794,32.768Zm8.894,4.238a3.3,3.3,0,0,1-.246,1.3,2.84,2.84,0,0,1-.7,1,3.138,3.138,0,0,1-1.1.643,4.291,4.291,0,0,1-1.429.226,3.947,3.947,0,0,1-2.03-.41V38.571a3.733,3.733,0,0,0,2.044.643,2.766,2.766,0,0,0,.96-.157,2.134,2.134,0,0,0,.728-.437,1.873,1.873,0,0,0,.461-.677,2.291,2.291,0,0,0,.161-.868,1.86,1.86,0,0,0-.643-1.5,2.818,2.818,0,0,0-1.866-.543q-.2,0-.417.007t-.437.017q-.219.01-.427.024t-.379.034L63.7,30.2h4.532v1.012H64.675l-.2,2.878q.219-.014.465-.024t.438-.01a4.4,4.4,0,0,1,1.395.205,2.955,2.955,0,0,1,1.042.584,2.451,2.451,0,0,1,.649.93A3.27,3.27,0,0,1,68.688,37.006Zm3.685-1.894a2.066,2.066,0,0,1-1.613-.667,2.557,2.557,0,0,1-.6-1.781,2.747,2.747,0,0,1,.636-1.917,2.2,2.2,0,0,1,1.716-.7,2.06,2.06,0,0,1,1.624.649,2.654,2.654,0,0,1,.578,1.825,2.685,2.685,0,0,1-.646,1.883A2.183,2.183,0,0,1,72.372,35.112Zm.1-4.313a1.23,1.23,0,0,0-1.025.482,2.1,2.1,0,0,0-.376,1.323,2.013,2.013,0,0,0,.369,1.289,1.218,1.218,0,0,0,1,.461,1.19,1.19,0,0,0,1-.479,2.153,2.153,0,0,0,.362-1.326,2.054,2.054,0,0,0-.359-1.289A1.175,1.175,0,0,0,72.468,30.8Zm6.467-.6-6.289,9.871h-.978L77.95,30.2ZM78.21,40.15a2.061,2.061,0,0,1-1.613-.67A2.56,2.56,0,0,1,76,37.7a2.754,2.754,0,0,1,.643-1.924,2.2,2.2,0,0,1,1.709-.708,2.051,2.051,0,0,1,1.62.656,3.121,3.121,0,0,1-.065,3.715A2.183,2.183,0,0,1,78.21,40.15Zm.1-4.307a1.232,1.232,0,0,0-1.029.479,2.11,2.11,0,0,0-.373,1.326,1.989,1.989,0,0,0,.369,1.275,1.218,1.218,0,0,0,1,.461,1.187,1.187,0,0,0,1-.482,2.156,2.156,0,0,0,.362-1.323,2.021,2.021,0,0,0-.359-1.285A1.186,1.186,0,0,0,78.306,35.844ZM81.7,28.27l.349-.4a9.614,9.614,0,0,1,2.939,3.37,7.781,7.781,0,0,1,.731,3.445,7.659,7.659,0,0,1-.964,3.89A10.156,10.156,0,0,1,82.045,41.5l-.349-.4a8.836,8.836,0,0,0,2.529-3.247,8.068,8.068,0,0,0,.581-3.165,7.883,7.883,0,0,0-.772-3.582A9.239,9.239,0,0,0,81.7,28.27Zm19.879,7.349v2.769h-.937V36.049q-.321.164-.663.355-1.791,1.012-1.791,2.03a.927.927,0,0,0,.629.943,6.4,6.4,0,0,0,2.078.232q1.47,0,3.411-.171l.041.95q-2.55.13-3.384.13a5.879,5.879,0,0,1-2.967-.513,1.772,1.772,0,0,1-.7-1.6,3.066,3.066,0,0,1,1.88-2.55q.711-.4,1.456-.772-.068-1.312-.909-1.312-1.176,0-3.227,2.365l-.725-.643a16.348,16.348,0,0,0,2.9-4.136q-1.278.021-2.563,0V30.5q1.477.027,2.953,0a12.51,12.51,0,0,0,.629-1.873l1.012.185a14.376,14.376,0,0,1-.588,1.647q1.969-.062,3.739-.239l.027.854q-2.3.185-4.143.239a14.3,14.3,0,0,1-1.176,1.989l-.355.362.041.055a2.492,2.492,0,0,1,1.668-.711,1.521,1.521,0,0,1,1.114.424,1.982,1.982,0,0,1,.526,1.217q1.094-.5,2.844-1.237l.39.957Q102.5,35.208,101.575,35.618Zm17.165-.759q0,.123-.13.123l-1.832-.027h-6.159a11.166,11.166,0,0,1-1.34,3.192,9.749,9.749,0,0,1-2.146,2.338.456.456,0,0,1-.212.123q-.062,0-.178-.178a1.819,1.819,0,0,0-.465-.451,8.22,8.22,0,0,0,3.514-5.024h-1.3l-1.839.027q-.109,0-.109-.123v-.547a.1.1,0,0,1,.109-.109l1.839.027h3.6V32.884h-1.976l-1.976.027q-.1,0-.1-.109v-.533q0-.109.1-.109l1.976.027h1.976V30.942H109.43l-1.962.027a.1.1,0,0,1-.109-.109v-.533a.1.1,0,0,1,.109-.109l1.962.027h4.129a12.83,12.83,0,0,0,.718-1.23,2.6,2.6,0,0,0,.205-.643,4.459,4.459,0,0,1,.8.26q.157.082.157.171a.2.2,0,0,1-.123.171.728.728,0,0,0-.253.26q-.308.506-.677,1.012h1.47l1.948-.027a.1.1,0,0,1,.109.109v.533a.1.1,0,0,1-.109.109l-1.948-.027H112.93v1.244h2.194l1.962-.027q.116,0,.116.109V32.8q0,.109-.116.109l-1.962-.027H112.93V34.23h3.849l1.832-.027q.13,0,.13.109Zm-.28,5.448a.1.1,0,0,1-.109.109l-1.989-.027h-5.3l-1.969.027q-.116,0-.116-.109v-.561q0-.109.116-.109l1.969.027h2.188V37.272h-.868l-1.846.027q-.1,0-.1-.109v-.547q0-.109.1-.109l1.846.027h3.179l1.818-.027q.116,0,.116.109v.547q0,.109-.116.109l-1.818-.027h-1.47v2.393h2.27l1.989-.027a.1.1,0,0,1,.109.109Zm-7.185-10.637a.22.22,0,0,1,.034.1q0,.055-.144.123l-.383.2a.485.485,0,0,1-.171.075q-.048,0-.089-.089a5.9,5.9,0,0,0-.8-1.217.2.2,0,0,1-.055-.1q0-.062.137-.123l.376-.171a.414.414,0,0,1,.137-.041.174.174,0,0,1,.1.055A6.877,6.877,0,0,1,111.275,29.671Zm10.172-.7h1.046q-.239,7.191-.239,8.668a2.136,2.136,0,0,0,.458,1.579,2.222,2.222,0,0,0,1.545.424,3.218,3.218,0,0,0,2.44-.943,5.471,5.471,0,0,0,1.217-2.673l.95.479q-.93,4.074-4.58,4.074a3.2,3.2,0,0,1-2.4-.718,3.1,3.1,0,0,1-.608-2.153q0-.766.062-3.753Q121.42,30.334,121.447,28.967Zm15.23,6.173-.082.827A11.168,11.168,0,0,1,135.755,40a1.634,1.634,0,0,1-1.538.745q-.629,0-1.135-.041-.212-.021-.253-.075a.572.572,0,0,1-.068-.246,2.485,2.485,0,0,0-.2-.649,12.041,12.041,0,0,0,1.483.144,1.026,1.026,0,0,0,.9-.294,9.7,9.7,0,0,0,.786-3.814H131.79l-.267.937a.149.149,0,0,1-.15.13,2.371,2.371,0,0,1-.321-.041q-.4-.068-.4-.15a.325.325,0,0,1,.021-.089,18.947,18.947,0,0,0,.786-3.288,7.3,7.3,0,0,0,.089-1,.121.121,0,0,1,.137-.137l1.3.027h2.481v-2.29h-2.789l-1.538.027a.1.1,0,0,1-.109-.109v-.595a.1.1,0,0,1,.109-.109l1.538.027h2.058l1.518-.027q.1,0,.1.109l-.027,1.21v1.21l.027,1.189q0,.109-.1.109l-1.518-.027h-2.365q-.171,1.176-.4,2.16h3.063l1.531-.027A.109.109,0,0,1,136.678,35.14Zm4.457-6.549a.908.908,0,0,1-.068.253,7.527,7.527,0,0,0-.13,1.832v7.841l.027,2.352a.1.1,0,0,1-.109.109h-.718a.1.1,0,0,1-.109-.109l.027-2.338v-7.8a12.233,12.233,0,0,0-.137-2.338q.677.027,1.046.082Q141.135,28.5,141.135,28.591Zm7.458,7.7.854.615q-.677,3.377-2.27,3.377a1.651,1.651,0,0,1-1.538-1.019,9.207,9.207,0,0,1-.718-3.227q-.109-1.312-.109-3.541l.014-2.632h1.012l-.021,2.188q0,2.646.116,3.9.267,3.22,1.217,3.22.485,0,.813-.711A11.913,11.913,0,0,0,148.593,36.288Zm2.1-5.346.909-.267a17.059,17.059,0,0,1,2.427,7.574l-1.053.171A17.589,17.589,0,0,0,150.691,30.942Zm7.444,1q-1.155.062-2.365.062v-.882q1.4,0,2.509-.062.191-1.422.267-2.447l1.032.1q-.109,1.025-.321,2.311,1.36-.089,3.1-.239l.014.882q-1.429.15-3.254.239a53.168,53.168,0,0,1-2.208,8.524l-.978-.335A47.881,47.881,0,0,0,158.136,31.947Zm1.709,5.38.868.068a3.679,3.679,0,0,0-.082.786,1.075,1.075,0,0,0,.513,1.08,4.218,4.218,0,0,0,1.559.191,16.519,16.519,0,0,0,2.167-.109l.055.964q-.834.082-2.044.082a4.645,4.645,0,0,1-2.5-.472,1.737,1.737,0,0,1-.636-1.531A5.222,5.222,0,0,1,159.845,37.327Zm.711-2.994V33.4a40.055,40.055,0,0,1,4.259-.191v.9A32.162,32.162,0,0,0,160.556,34.333Zm18.04,6.016q0,.109-.116.109l-1.887-.027H169l-1.894.027a.1.1,0,0,1-.109-.109V39.74a.1.1,0,0,1,.109-.109l1.894.027h3.261V36h-2.789l-1.928.027q-.116,0-.116-.109v-.595q0-.109.116-.109l1.928.027h2.789v-1.75h-.854l-1.75.014q-.109,0-.109-.1v-.588a.1.1,0,0,1,.109-.109l1.75.027h2.755l1.771-.027a.1.1,0,0,1,.109.109V33.4q0,.1-.109.1l-1.771-.014h-1.032v1.75h3.035l1.935-.027a.1.1,0,0,1,.109.109v.595a.081.081,0,0,1-.109.109L176.169,36h-3.035v3.657h3.459l1.887-.027q.116,0,.116.109ZM179.464,33a1.6,1.6,0,0,0-.41.547q-.116.212-.185.212a1.127,1.127,0,0,1-.219-.068,13.179,13.179,0,0,1-5.913-4.3,14.409,14.409,0,0,1-5.708,4.437.7.7,0,0,1-.2.062q-.068,0-.191-.191a1.314,1.314,0,0,0-.451-.431,13.147,13.147,0,0,0,5.77-4.286,3.042,3.042,0,0,0,.4-.779,4.172,4.172,0,0,1,.9.191q.2.068.2.185,0,.068-.1.123a.378.378,0,0,0-.13.089,11.238,11.238,0,0,0,3.049,2.769A15.984,15.984,0,0,0,179.464,33ZM176.7,36.992q0,.068-.137.178a1.049,1.049,0,0,0-.226.342,13.261,13.261,0,0,1-1,1.675q-.116.144-.164.144a.433.433,0,0,1-.2-.1,1.184,1.184,0,0,0-.472-.226,9.909,9.909,0,0,0,1.1-1.88,3.2,3.2,0,0,0,.212-.615,4.029,4.029,0,0,1,.711.294Q176.7,36.91,176.7,36.992Zm-5.934,1.647a.268.268,0,0,1,.021.089q0,.062-.137.123l-.431.212a.832.832,0,0,1-.185.075q-.041,0-.068-.089a8.837,8.837,0,0,0-1-2,.133.133,0,0,1-.027-.068q0-.048.157-.13l.376-.164a.631.631,0,0,1,.157-.062q.048,0,.1.075A9.842,9.842,0,0,1,170.769,38.64Zm22.3-8.935q0,.116-.1.116l-1.791-.027h-1.107a11.3,11.3,0,0,1-.547,1.4h1.094l1.552-.034q.116,0,.116.109l-.027,1.647v3.6l.027,1.654q0,.109-.116.109l-1.552-.027h-1.736l-1.552.027a.1.1,0,0,1-.109-.109l.027-1.654V32.945l-.027-1.675a.1.1,0,0,1,.109-.109l1.36.034a10.658,10.658,0,0,0,.513-1.4h-.629l-1.791.027q-.109,0-.109-.116v-.574a.1.1,0,0,1,.109-.109l1.791.027h2.6l1.791-.027q.1,0,.1.109Zm-1.593,7.834V36.021h-3.438v1.518Zm0-4.245v-1.4h-3.438v1.4Zm0,2.071v-1.4h-3.438v1.4Zm-4.594.547a1.656,1.656,0,0,0-.335.492q-.1.226-.2.226a.519.519,0,0,1-.164-.048,11.147,11.147,0,0,1-2.365-1.408,10.43,10.43,0,0,1-1.606,1.189h2.1l1.271-.027q.116,0,.116.109l-.034.95v.854l.034,1.8q0,.109-.116.109h-.561a.1.1,0,0,1-.109-.109v-.28h-2.406v.772q0,.123-.116.123h-.574q-.1,0-.1-.123l.027-2.058v-.827l-.014-1.032q-.492.26-.772.39a.532.532,0,0,1-.191.068q-.089,0-.171-.2a1.205,1.205,0,0,0-.308-.4A9.136,9.136,0,0,0,183.3,34.7a6.977,6.977,0,0,1-1.019-1.312,9.292,9.292,0,0,1-1.012,1.019q-.164.144-.219.144t-.157-.157a1.062,1.062,0,0,0-.349-.349,6.462,6.462,0,0,0,2.085-2.42,2.621,2.621,0,0,0,.2-.622q.39.1.684.2.144.048.144.13,0,.062-.1.137a2.35,2.35,0,0,0-.212.308l-.137.267h1.7a.531.531,0,0,0,.232-.041.39.39,0,0,1,.13-.027.707.707,0,0,1,.39.239q.2.212.2.321,0,.089-.116.15a.905.905,0,0,0-.28.321,10.785,10.785,0,0,1-1.128,1.654A8.169,8.169,0,0,0,186.881,35.912Zm-1.969,3.22V37.02h-2.406v2.112Zm-.075-6.467h-2.023l-.13.185a5.725,5.725,0,0,0,1.107,1.367A7.4,7.4,0,0,0,184.837,32.665Zm1.675-.67q0,.109-.13.109h-.533a.1.1,0,0,1-.109-.109V30.662h-4.074V32q0,.109-.116.109H181a.1.1,0,0,1-.109-.109l.027-1.094v-.308l-.027-.52a.1.1,0,0,1,.109-.109l1.641.027h.615v-.383a5.965,5.965,0,0,0-.1-1.23q.308.014.882.068.185.027.185.13a.823.823,0,0,1-.1.253,2.676,2.676,0,0,0-.068.779v.383h.7l1.627-.027q.13,0,.13.109l-.034.465V30.9Zm2.529,7.178q0,.075-.13.13a1.916,1.916,0,0,0-.335.226A9.052,9.052,0,0,1,186.184,41a.579.579,0,0,1-.212.055q-.075,0-.212-.212a1.194,1.194,0,0,0-.362-.376,7.776,7.776,0,0,0,2.522-1.388,2.152,2.152,0,0,0,.39-.479,3.972,3.972,0,0,1,.615.41Q189.041,39.1,189.041,39.173Zm4.293,1.066a1.369,1.369,0,0,0-.362.444q-.1.2-.185.2a.75.75,0,0,1-.219-.068,9.189,9.189,0,0,1-2.311-1.654.149.149,0,0,1-.055-.089q0-.048.123-.15l.294-.253a.219.219,0,0,1,.116-.062.183.183,0,0,1,.1.048A7.174,7.174,0,0,0,193.334,40.239Zm6.986-4.621v2.769h-.937V36.049q-.321.164-.663.355-1.791,1.012-1.791,2.03a.927.927,0,0,0,.629.943,6.4,6.4,0,0,0,2.078.232q1.47,0,3.411-.171l.041.95q-2.55.13-3.384.13a5.879,5.879,0,0,1-2.967-.513,1.772,1.772,0,0,1-.7-1.6,3.066,3.066,0,0,1,1.88-2.55q.711-.4,1.456-.772-.068-1.312-.909-1.312-1.176,0-3.227,2.365l-.725-.643a16.349,16.349,0,0,0,2.9-4.136q-1.278.021-2.563,0V30.5q1.477.027,2.953,0a12.511,12.511,0,0,0,.629-1.873l1.012.185a14.378,14.378,0,0,1-.588,1.647q1.969-.062,3.739-.239l.027.854q-2.3.185-4.143.239a14.3,14.3,0,0,1-1.176,1.989l-.355.362.041.055a2.492,2.492,0,0,1,1.668-.711,1.521,1.521,0,0,1,1.114.424,1.982,1.982,0,0,1,.526,1.217q1.094-.5,2.844-1.237l.39.957Q201.25,35.208,200.32,35.618ZM211.593,31.5q-.041,1.518,0,3.035a5.324,5.324,0,0,1,.308,1.777,3.687,3.687,0,0,1-1.306,3.069,7.744,7.744,0,0,1-3.274,1.271l-.588-.841a6.334,6.334,0,0,0,3.411-1.381,2.741,2.741,0,0,0,.807-1.88,1.856,1.856,0,0,1-1.8.882,2.2,2.2,0,0,1-1.531-.574,2.3,2.3,0,0,1,.123-3.356,2.469,2.469,0,0,1,1.559-.492,2,2,0,0,1,1.36.39q-.027-1.312-.027-1.873-2.249.034-5.435.239l-.014-.9q2.584-.1,5.435-.171V28.8l1,.014q0,.629-.027,1.859,2.324-.027,3.363-.027v.9Q213.274,31.5,211.593,31.5Zm-2.338,2.3a1.322,1.322,0,0,0-.984.4,1.413,1.413,0,0,0-.39,1.046,1.237,1.237,0,0,0,.444,1,1.288,1.288,0,0,0,.848.294,1.406,1.406,0,0,0,1.1-.41,1.3,1.3,0,0,0,.314-.916Q210.588,33.8,209.255,33.8Zm12.175-1.641.69-.349a18.706,18.706,0,0,1,1.258,2.27l-.731.376A12.74,12.74,0,0,0,221.43,32.159Zm1.47-.656.677-.308a11.008,11.008,0,0,1,1.2,2.181l-.7.369A13.251,13.251,0,0,0,222.9,31.5Zm-1.073-2.563.9.615q-2.119,2.454-4.382,4.607a.681.681,0,0,0-.267.479q0,.226.376.513a45.7,45.7,0,0,1,4.9,4.71l-.868.725a50.558,50.558,0,0,0-5.024-5.065,1.118,1.118,0,0,1-.465-.841,1.139,1.139,0,0,1,.362-.827A64.9,64.9,0,0,0,221.826,28.939Zm7.492,7.492.957.082a5.458,5.458,0,0,0-.157,1.258,1.054,1.054,0,0,0,.444.978,3.167,3.167,0,0,0,1.545.273,25.984,25.984,0,0,0,2.769-.144l.027,1.012q-1.025.082-2.659.082a4.349,4.349,0,0,1-2.44-.492,1.783,1.783,0,0,1-.636-1.552A7.219,7.219,0,0,1,229.318,36.432Zm.28-4.676V30.8q1.75-.137,3.541-.137.889,0,1.668.041v.95q-.725-.055-1.764-.055Q231.253,31.6,229.6,31.756Zm-1.511-2.413a36.343,36.343,0,0,0-.786,6.61,24.83,24.83,0,0,0,.342,4.382l-1,.082a28.85,28.85,0,0,1-.321-4.491,40.269,40.269,0,0,1,.772-6.665Zm20.07,6.986s-.023.089-.068.253A6,6,0,0,0,248,37.9v1.647l.027,1.2q0,.109-.1.109h-.67q-.116,0-.116-.109v-.772h-8.518v.813q0,.109-.116.109h-.663a.1.1,0,0,1-.109-.109l.027-1.148V37.956a11.343,11.343,0,0,0-.1-1.736,8.05,8.05,0,0,1,.937.082q.185.027.185.13a.371.371,0,0,1-.027.116.923.923,0,0,0-.041.123,4.887,4.887,0,0,0-.1,1.258v1.244h3.691V34.415h-3.288v.7q0,.116-.109.116h-.663q-.109,0-.109-.116l.027-1.244V31.961a11.633,11.633,0,0,0-.1-1.75,7.361,7.361,0,0,1,.937.089q.15.021.15.123a.768.768,0,0,1-.055.253,5.49,5.49,0,0,0-.082,1.271v1.682h3.288v-3.4a11.848,11.848,0,0,0-.1-1.791,7.839,7.839,0,0,1,.964.089q.171.021.171.109a.371.371,0,0,1-.027.116.691.691,0,0,0-.041.137,6.051,6.051,0,0,0-.089,1.326v3.418h3.555v-1.75a11.633,11.633,0,0,0-.1-1.75,9.311,9.311,0,0,1,.937.082q.164.027.164.13a1.742,1.742,0,0,1-.068.239,6.8,6.8,0,0,0-.082,1.326V33.8l.027,1.285q0,.116-.109.116h-.663q-.109,0-.109-.116v-.67H243.2v4.758h3.944v-1.3a11.425,11.425,0,0,0-.1-1.736,8.239,8.239,0,0,1,.937.082Q248.158,36.247,248.158,36.329Zm14.506,4.02q0,.109-.116.109l-1.887-.027h-7.588l-1.894.027a.1.1,0,0,1-.109-.109V39.74a.1.1,0,0,1,.109-.109l1.894.027h3.261V36h-2.789l-1.928.027q-.116,0-.116-.109v-.595q0-.109.116-.109l1.928.027h2.789v-1.75h-.854l-1.75.014q-.109,0-.109-.1v-.588a.1.1,0,0,1,.109-.109l1.75.027h2.755L260,32.706a.1.1,0,0,1,.109.109V33.4q0,.1-.109.1l-1.771-.014H257.2v1.75h3.035l1.935-.027a.1.1,0,0,1,.109.109v.595a.081.081,0,0,1-.109.109L260.237,36H257.2v3.657h3.459l1.887-.027q.116,0,.116.109ZM263.532,33a1.6,1.6,0,0,0-.41.547q-.116.212-.185.212a1.126,1.126,0,0,1-.219-.068,13.179,13.179,0,0,1-5.913-4.3,14.409,14.409,0,0,1-5.708,4.437.7.7,0,0,1-.2.062q-.068,0-.191-.191a1.314,1.314,0,0,0-.451-.431,13.147,13.147,0,0,0,5.77-4.286,3.041,3.041,0,0,0,.4-.779,4.172,4.172,0,0,1,.9.191q.2.068.2.185,0,.068-.1.123a.379.379,0,0,0-.13.089,11.238,11.238,0,0,0,3.049,2.769A15.984,15.984,0,0,0,263.532,33Zm-2.762,3.992q0,.068-.137.178a1.049,1.049,0,0,0-.226.342,13.259,13.259,0,0,1-1,1.675q-.116.144-.164.144a.433.433,0,0,1-.2-.1,1.184,1.184,0,0,0-.472-.226,9.909,9.909,0,0,0,1.1-1.88,3.2,3.2,0,0,0,.212-.615,4.029,4.029,0,0,1,.711.294Q260.77,36.91,260.771,36.992Zm-5.934,1.647a.268.268,0,0,1,.021.089q0,.062-.137.123l-.431.212a.832.832,0,0,1-.185.075q-.041,0-.068-.089a8.837,8.837,0,0,0-1-2,.133.133,0,0,1-.027-.068q0-.048.157-.13l.376-.164a.631.631,0,0,1,.157-.062q.048,0,.1.075A9.842,9.842,0,0,1,254.837,38.64Zm16.27-7.137q-.041,1.518,0,3.035a5.324,5.324,0,0,1,.308,1.777,3.687,3.687,0,0,1-1.306,3.069,7.744,7.744,0,0,1-3.274,1.271l-.588-.841a6.334,6.334,0,0,0,3.411-1.381,2.741,2.741,0,0,0,.807-1.88,1.856,1.856,0,0,1-1.8.882,2.2,2.2,0,0,1-1.531-.574,2.3,2.3,0,0,1,.123-3.356,2.469,2.469,0,0,1,1.559-.492,2,2,0,0,1,1.36.39q-.027-1.312-.027-1.873-2.249.034-5.435.239l-.014-.9q2.584-.1,5.435-.171V28.8l1,.014q0,.629-.027,1.859,2.324-.027,3.363-.027v.9Q272.788,31.5,271.106,31.5Zm-2.338,2.3a1.322,1.322,0,0,0-.984.4,1.413,1.413,0,0,0-.39,1.046,1.237,1.237,0,0,0,.444,1,1.288,1.288,0,0,0,.848.294,1.405,1.405,0,0,0,1.1-.41,1.3,1.3,0,0,0,.314-.916Q270.1,33.8,268.769,33.8Zm8.627-4.259q1.853-.014,5.694-.2l.588.731q-2.728,2.769-4.327,4.156l-.629.547.055.041.718-.485a4.614,4.614,0,0,1,1.976-.533,3.547,3.547,0,0,1,2.707,1,3.071,3.071,0,0,1,.807,2.208,3.316,3.316,0,0,1-1.278,2.844,5.317,5.317,0,0,1-3.22.848q-2.741,0-2.741-1.859a1.625,1.625,0,0,1,.588-1.312,2.172,2.172,0,0,1,1.429-.451,2.3,2.3,0,0,1,1.777.752,3.444,3.444,0,0,1,.786,1.682,2.579,2.579,0,0,0,1.258-.978,2.922,2.922,0,0,0,.362-1.538,2.231,2.231,0,0,0-.868-1.873,2.671,2.671,0,0,0-1.668-.526,4.9,4.9,0,0,0-3.384,1.36,12.446,12.446,0,0,0-1.162,1.217l-.827-.67q3.35-3.445,6.132-6.275-2.01.15-4.771.226Zm3.944,10.247a3.024,3.024,0,0,0-.622-1.429,1.275,1.275,0,0,0-.984-.472,1.119,1.119,0,0,0-.807.3.828.828,0,0,0-.273.622.87.87,0,0,0,.465.827,2.872,2.872,0,0,0,1.3.226A6.036,6.036,0,0,0,281.34,39.788Zm17.814-2.994q0,.109-.1.109l-.178-.007q-.533-.014-1.2-.021v.9l.034,1.265q0,.109-.116.109h-.615a.1.1,0,0,1-.109-.109V38.6h-3.527l.014,1.025a2.005,2.005,0,0,1-.1.718.782.782,0,0,1-.294.342,4.308,4.308,0,0,1-1.894.253.411.411,0,0,1-.253-.048.736.736,0,0,1-.1-.219,2.774,2.774,0,0,0-.342-.629,8.522,8.522,0,0,0,.93.062q.137,0,.308-.007a1.255,1.255,0,0,0,.752-.144.713.713,0,0,0,.144-.526V38.6H290.11l-1.976.027q-.116,0-.116-.109v-.492q0-.109.116-.109l1.976.027h2.406V36.876h-3.849l-1.812.027a.1.1,0,0,1-.109-.109V36.3a.1.1,0,0,1,.109-.109l1.812.027h3.849v-.984H290.11l-1.976.027q-.116,0-.116-.1v-.506q0-.109.116-.109l1.976.027h2.406v-.95h-1.853l-1.976.027q-.109,0-.109-.123l.027-.772v-.588l-.027-.772a.1.1,0,0,1,.109-.109l1.976.027h1.853V30.45h-3.753l-1.832.027q-.116,0-.116-.109v-.52q0-.109.116-.109l1.832.027h3.753a6.935,6.935,0,0,0-.1-1.456,6.54,6.54,0,0,1,.909.068q.171.027.171.116a.905.905,0,0,1-.082.267,3.844,3.844,0,0,0-.068.978v.027h3.746l1.839-.027a.1.1,0,0,1,.109.109v.52a.1.1,0,0,1-.109.109l-1.839-.027h-3.746v.868h1.9l1.989-.027a.1.1,0,0,1,.109.109l-.027.772v.588l.027.772q0,.123-.109.123l-1.989-.027h-1.9v.95h2.249l2.01-.027a.1.1,0,0,1,.109.109l-.034,1.251v.308l1.374-.027q.1,0,.1.109Zm-2.283,1.148V36.876h-3.527v1.066Zm0-1.723v-.984h-3.527v.984Zm-.321-3.206v-1.08h-3.206v1.08Zm-4.033,0v-1.08h-3.138v1.08Zm11.813-.574a41.522,41.522,0,0,1-2.646,7.841l-.923-.362a37.251,37.251,0,0,0,2.563-7.41q-.848.062-2.577.226l-.055-.882q.513-.034,1.518-.1l1.313-.089q.26-1.183.533-2.782l.991.137q-.308,1.6-.533,2.591.786-.055,1.429-.055a1.428,1.428,0,0,1,1.278.567,3.662,3.662,0,0,1,.4,1.982,19.506,19.506,0,0,1-.437,4.97,1.777,1.777,0,0,1-.636,1,1.828,1.828,0,0,1-1.073.28,9.249,9.249,0,0,1-1.422-.109l-.171-.978a6.216,6.216,0,0,0,1.244.164,1.47,1.47,0,0,0,.745-.144.9.9,0,0,0,.335-.485,16.428,16.428,0,0,0,.444-4.566,3.52,3.52,0,0,0-.219-1.538.713.713,0,0,0-.677-.321Q305.115,32.385,304.329,32.439Zm4.108-3.992.711-.28a19.249,19.249,0,0,1,1.039,2.372l-.759.308A14.764,14.764,0,0,0,308.438,28.447Zm1.5-.472.7-.253a11.326,11.326,0,0,1,.991,2.3l-.725.294A13.489,13.489,0,0,0,309.935,27.976Zm-2.311,2.844.882-.451a16.879,16.879,0,0,1,2.406,4.833l-.978.458A14.512,14.512,0,0,0,307.624,30.819ZM319.512,37.7a.1.1,0,0,1-.116.116h-.629q-.123,0-.123-.116V37.02h-3.377V38.1q0,.109-.116.109h-.643a.1.1,0,0,1-.109-.109l.027-2.6V34.121l-.027-1.764a.1.1,0,0,1,.109-.109l1.511.027h1.866l1.511-.027q.116,0,.116.109l-.027,1.456v1.415Zm-.868-1.47V33.062h-3.377v3.172Zm6.084-6.187a.1.1,0,0,1-.109.109l-.2-.007q-.588-.014-1.381-.021v6.638l.027,2.6a1.216,1.216,0,0,1-.4,1.066,3.469,3.469,0,0,1-1.757.273q-.26,0-.608-.007a.465.465,0,0,1-.26-.041.838.838,0,0,1-.089-.239,2.106,2.106,0,0,0-.28-.649,16.632,16.632,0,0,0,1.682.075,1.117,1.117,0,0,0,.622-.116.517.517,0,0,0,.15-.431V30.129h-7.574l-1.839.027a.1.1,0,0,1-.109-.109v-.656q0-.116.109-.116l1.839.027h8.23l1.832-.027q.109,0,.109.116ZM6.357,64.583a1.126,1.126,0,0,1-.28.909,2.711,2.711,0,0,1-1.442.253.448.448,0,0,1-.26-.048.607.607,0,0,1-.089-.232,2.256,2.256,0,0,0-.226-.533,7.219,7.219,0,0,0,.868.055.692.692,0,0,0,.506-.144.577.577,0,0,0,.123-.417V62.847H2.591v1.176l.027,1.736a.1.1,0,0,1-.109.109H1.9a.1.1,0,0,1-.109-.109l.027-1.723V60l-.027-1.743a.1.1,0,0,1,.109-.109l1.415.027H4.847l1.415-.027q.1,0,.1.109l-.014,1.832v2.652Zm-.8-2.406V60.823H2.591v1.354Zm0-2.023V58.868H2.591v1.285Zm7.588,3.739a2.034,2.034,0,0,1-.588,1.347,3.856,3.856,0,0,1-2.187.431,6.037,6.037,0,0,1-2.1-.226,1.008,1.008,0,0,1-.52-1.032V61.165A8.578,8.578,0,0,0,7.67,59.75a8.469,8.469,0,0,1,.9.082q.171.021.171.13a.9.9,0,0,1-.089.253,3.684,3.684,0,0,0-.068.937v.9a14.974,14.974,0,0,0,2.673-1.2A2.98,2.98,0,0,0,12,60.283a4.509,4.509,0,0,1,.574.506.306.306,0,0,1,.109.205q0,.116-.185.144a2.331,2.331,0,0,0-.629.267,21.705,21.705,0,0,1-3.288,1.415v1.326a.636.636,0,0,0,.362.643,5.2,5.2,0,0,0,1.456.123,2.747,2.747,0,0,0,1.613-.308.933.933,0,0,0,.28-.52,7.041,7.041,0,0,0,.082-.848,3.35,3.35,0,0,0,.574.308q.219.089.219.185A1.474,1.474,0,0,1,13.146,63.893Zm-.1-6.467a2.866,2.866,0,0,1-.2.889,1.218,1.218,0,0,1-.335.431,4.315,4.315,0,0,1-2.29.376A7.066,7.066,0,0,1,8.23,58.95a.683.683,0,0,1-.4-.308,1.248,1.248,0,0,1-.109-.588v-3.09a8.849,8.849,0,0,0-.082-1.429q.451.021.875.082.185.021.185.123a.631.631,0,0,1-.082.239,3.72,3.72,0,0,0-.068.95v1.012a14.985,14.985,0,0,0,2.536-1.121,2.716,2.716,0,0,0,.738-.561,5.568,5.568,0,0,1,.588.547.264.264,0,0,1,.1.171q0,.109-.185.137a3.845,3.845,0,0,0-.615.267,26.046,26.046,0,0,1-3.158,1.333v.991a.8.8,0,0,0,.075.41.485.485,0,0,0,.273.164,6.681,6.681,0,0,0,1.36.082,3.1,3.1,0,0,0,1.723-.28,2.285,2.285,0,0,0,.308-1.312,2.75,2.75,0,0,0,.547.308q.219.1.219.226A.823.823,0,0,1,13.043,57.426Zm-5.934-.362a.215.215,0,0,1,.021.082q0,.062-.116.144l-.355.2a.407.407,0,0,1-.164.068q-.048,0-.1-.1a7.706,7.706,0,0,0-.349-.718q-1.88.328-4.252.6A1.481,1.481,0,0,0,1.2,57.5a.283.283,0,0,1-.171.055q-.082,0-.137-.171a6.238,6.238,0,0,1-.171-.807q.868,0,1.217-.034a16.353,16.353,0,0,0,1.053-2.181,5.679,5.679,0,0,0,.267-.95,3.773,3.773,0,0,1,.779.205q.2.082.2.185a.315.315,0,0,1-.137.226.962.962,0,0,0-.239.362Q3.309,55.573,2.8,56.462q1.668-.164,2.871-.349a10.007,10.007,0,0,0-.718-.978.133.133,0,0,1-.027-.068q0-.055.13-.13l.294-.171a.238.238,0,0,1,.116-.041.132.132,0,0,1,.1.055A11.015,11.015,0,0,1,7.109,57.063Zm14.588.779.718-.273a18.274,18.274,0,0,1,1.032,2.365l-.752.308A15.123,15.123,0,0,0,21.7,57.843Zm1.586-.472.7-.253a11.566,11.566,0,0,1,1,2.3l-.731.294A13.488,13.488,0,0,0,23.283,57.371Zm.39-2.632.027.964a5.312,5.312,0,0,0-2.311.629,5.934,5.934,0,0,0-2.071,1.962,4.817,4.817,0,0,0-.813,2.659,2.958,2.958,0,0,0,1.285,2.529,6.17,6.17,0,0,0,2.933,1l-.239,1a6.1,6.1,0,0,1-3.63-1.381,3.89,3.89,0,0,1-1.312-3.049,5.709,5.709,0,0,1,2.994-5.024l.759-.335-.014-.027-.656.109q-1.189.068-5.66.479l-.082-.923Q16.885,55.177,23.673,54.739ZM32.45,56.5q-.041,1.518,0,3.035a5.324,5.324,0,0,1,.308,1.777,3.687,3.687,0,0,1-1.306,3.069,7.744,7.744,0,0,1-3.274,1.271l-.588-.841A6.334,6.334,0,0,0,31,63.435a2.741,2.741,0,0,0,.807-1.88,1.856,1.856,0,0,1-1.8.882,2.2,2.2,0,0,1-1.531-.574,2.3,2.3,0,0,1,.123-3.356,2.469,2.469,0,0,1,1.559-.492,2,2,0,0,1,1.36.39q-.027-1.312-.027-1.873-2.249.034-5.435.239l-.014-.9q2.584-.1,5.435-.171V53.8l1,.014q0,.629-.027,1.859,2.324-.027,3.363-.027v.9Q34.132,56.5,32.45,56.5Zm-2.338,2.3a1.322,1.322,0,0,0-.984.4,1.413,1.413,0,0,0-.39,1.046,1.237,1.237,0,0,0,.444,1,1.288,1.288,0,0,0,.848.294,1.405,1.405,0,0,0,1.1-.41,1.3,1.3,0,0,0,.314-.916Q31.445,58.8,30.112,58.8Zm9.324,3.527a1.915,1.915,0,0,1,1.463.643,1.916,1.916,0,0,1-.144,2.748,1.936,1.936,0,0,1-1.319.5,1.9,1.9,0,0,1-1.463-.643,1.916,1.916,0,0,1,.144-2.748A1.936,1.936,0,0,1,39.437,62.327Zm0,.7a1.269,1.269,0,0,0-1.251,1.251,1.253,1.253,0,0,0,2.181.834,1.247,1.247,0,0,0-.93-2.085Z"
									transform="translate(-0.479 -2.866)" fill="#5a5858" />
							</svg>