<svg xmlns="http://www.w3.org/2000/svg" width="77.438" height="26.531" viewBox="0 0 77.438 26.531">
  <path id="Контур_1742" data-name="Контур 1742" d="M7.938.094A13.584,13.584,0,0,1,4.328-.562,27.781,27.781,0,0,1,1-1.906L.906-2.531H3.625A17.277,17.277,0,0,0,6.734-1.219a17.618,17.618,0,0,0,3.391.688,6.249,6.249,0,0,0,3.125-1.5,4.114,4.114,0,0,0,1.094-2.594,6.492,6.492,0,0,0-2-3.406l-.312-.406A16.551,16.551,0,0,0,7.078-10.8a28.572,28.572,0,0,1-5.172-2.047,2.7,2.7,0,0,1-.5-2.125l.906-1.594.313-.094.594-.812.688-.594a18.552,18.552,0,0,1,3.422-1.875,12.973,12.973,0,0,1,3.828-.937H15.25l1.406.406.313.281v.625H14.25a1.594,1.594,0,0,0-1.687-.625,13.13,13.13,0,0,0-2.937.969q-1.406.656-2.781,1.438l-.219.313a6.761,6.761,0,0,0-2.312,2.594l-.094.813.313.594A26.739,26.739,0,0,0,9.984-11.25,14.286,14.286,0,0,1,15.25-8.437l.5.5a5.478,5.478,0,0,1,1.313,4.5,5.776,5.776,0,0,1-1,1.906l-.719.625a7,7,0,0,1-3.312,1ZM21.719.375V-.031l-.094-2.906.594-7.5h-3.5v-.5l3.5-.312a21.516,21.516,0,0,0,.391-3.516,33.767,33.767,0,0,1,.3-3.516h2.719v.906l-.406,5.813h3.125v.5l-3.219.313q-.281,2.719-.531,5.516A45.806,45.806,0,0,0,24.438.375Zm11.906,0a5.888,5.888,0,0,1-2.594-.781l-.125-.312-.281-.094a5.828,5.828,0,0,1-1-4.531,8.539,8.539,0,0,1,1.906-4.094l1.906-1.406a6.741,6.741,0,0,1,2.641-.5h2.859a4.089,4.089,0,0,1,2.906,1.406,3.233,3.233,0,0,1,.5,1.781L41.75-6.625l-.281.094-.219.406-.312.094-.187.281a9.574,9.574,0,0,1-3.812,1.922,13.581,13.581,0,0,1-4.5.3v.406l.688,1.719.406.188.094.313,1.813.594a13.335,13.335,0,0,0,5.5-2.906l3.219.281v.406l-.094.219a18.442,18.442,0,0,1-4.875,2.25A14.358,14.358,0,0,1,33.625.375Zm2-5.219a8.734,8.734,0,0,0,2.625-1.5l1.188-1.5.125-.687L38.75-9.844a3.128,3.128,0,0,0-1.812-.812,5.06,5.06,0,0,0-2.594,1.719l-.406.281a9.239,9.239,0,0,0-1.625,4.531h1.313Zm9.094,9.281V2.656a57.855,57.855,0,0,1,.891-7.75q.7-3.813,1.609-7.5h2.813v.5l-.406,1.5h.219A7.409,7.409,0,0,1,53-11.547a27.015,27.015,0,0,1,3.563-.047,2.38,2.38,0,0,1,1.594.906,4.921,4.921,0,0,1,.406,2.813,11.046,11.046,0,0,1-.906,2.438,10.019,10.019,0,0,1-1.5,2.156l-.312.094-.094.313-1.187,1h-.219l-.187.313A9.718,9.718,0,0,1,51.141-.109a8.678,8.678,0,0,1-3.422.234l-.281,4.313ZM49.125-.875l2.219-1,.188-.281,1.625-1.219A16.042,16.042,0,0,0,55-6.094a7.358,7.358,0,0,0,.844-3.094L55.156-10.5a1.1,1.1,0,0,0-1-.312,19.144,19.144,0,0,0-4.031,2.125l-.094.406h-.906q-.406,1.906-.75,3.813T47.844-.562h.5ZM71.313,1.594v-.5q1-2.094,1.906-4.312a21.781,21.781,0,0,0,1.313-4.625,3.344,3.344,0,0,0-1-2.187,4.365,4.365,0,0,0-2.625-.812,25.72,25.72,0,0,0-3.859.906A10.3,10.3,0,0,1,63-9.531l-.125-1q.906-2.906,1.922-5.766l2.016-5.672,2.781-.125v.625l-1,2.688h.813q2.219-.187,4.422-.437a29.429,29.429,0,0,1,4.516-.156v.5q-2.5.219-5.016.469t-5.016.344L66-10.937h.406l2.594-.5h4.719a5.14,5.14,0,0,1,2.406.781l.094.313.313.094a5.365,5.365,0,0,1,.688,3.719,26.671,26.671,0,0,1-1.344,4.109q-.844,2.016-1.75,4.016Z" transform="translate(-0.906 22.094)" fill="#5abba1"/>
</svg>
