<svg xmlns="http://www.w3.org/2000/svg" width="77.152" height="26.625" viewBox="0 0 77.152 26.625">
  <path id="Контур_1740" data-name="Контур 1740" d="M7.938.094A13.584,13.584,0,0,1,4.328-.562,27.781,27.781,0,0,1,1-1.906L.906-2.531H3.625A17.277,17.277,0,0,0,6.734-1.219a17.618,17.618,0,0,0,3.391.688,6.249,6.249,0,0,0,3.125-1.5,4.114,4.114,0,0,0,1.094-2.594,6.492,6.492,0,0,0-2-3.406l-.312-.406A16.551,16.551,0,0,0,7.078-10.8a28.572,28.572,0,0,1-5.172-2.047,2.7,2.7,0,0,1-.5-2.125l.906-1.594.313-.094.594-.812.688-.594a18.552,18.552,0,0,1,3.422-1.875,12.973,12.973,0,0,1,3.828-.937H15.25l1.406.406.313.281v.625H14.25a1.594,1.594,0,0,0-1.687-.625,13.13,13.13,0,0,0-2.937.969q-1.406.656-2.781,1.438l-.219.313a6.761,6.761,0,0,0-2.312,2.594l-.094.813.313.594A26.739,26.739,0,0,0,9.984-11.25,14.286,14.286,0,0,1,15.25-8.437l.5.5a5.478,5.478,0,0,1,1.313,4.5,5.776,5.776,0,0,1-1,1.906l-.719.625a7,7,0,0,1-3.312,1ZM21.719.375V-.031l-.094-2.906.594-7.5h-3.5v-.5l3.5-.312a21.516,21.516,0,0,0,.391-3.516,33.767,33.767,0,0,1,.3-3.516h2.719v.906l-.406,5.813h3.125v.5l-3.219.313q-.281,2.719-.531,5.516A45.806,45.806,0,0,0,24.438.375Zm11.906,0a5.888,5.888,0,0,1-2.594-.781l-.125-.312-.281-.094a5.828,5.828,0,0,1-1-4.531,8.539,8.539,0,0,1,1.906-4.094l1.906-1.406a6.741,6.741,0,0,1,2.641-.5h2.859a4.089,4.089,0,0,1,2.906,1.406,3.233,3.233,0,0,1,.5,1.781L41.75-6.625l-.281.094-.219.406-.312.094-.187.281a9.574,9.574,0,0,1-3.812,1.922,13.581,13.581,0,0,1-4.5.3v.406l.688,1.719.406.188.094.313,1.813.594a13.335,13.335,0,0,0,5.5-2.906l3.219.281v.406l-.094.219a18.442,18.442,0,0,1-4.875,2.25A14.358,14.358,0,0,1,33.625.375Zm2-5.219a8.734,8.734,0,0,0,2.625-1.5l1.188-1.5.125-.687L38.75-9.844a3.128,3.128,0,0,0-1.812-.812,5.06,5.06,0,0,0-2.594,1.719l-.406.281a9.239,9.239,0,0,0-1.625,4.531h1.313Zm9.094,9.281V2.656a57.855,57.855,0,0,1,.891-7.75q.7-3.813,1.609-7.5h2.813v.5l-.406,1.5h.219A7.409,7.409,0,0,1,53-11.547a27.015,27.015,0,0,1,3.563-.047,2.38,2.38,0,0,1,1.594.906,4.921,4.921,0,0,1,.406,2.813,11.046,11.046,0,0,1-.906,2.438,10.019,10.019,0,0,1-1.5,2.156l-.312.094-.094.313-1.187,1h-.219l-.187.313A9.718,9.718,0,0,1,51.141-.109a8.678,8.678,0,0,1-3.422.234l-.281,4.313ZM49.125-.875l2.219-1,.188-.281,1.625-1.219A16.042,16.042,0,0,0,55-6.094a7.358,7.358,0,0,0,.844-3.094L55.156-10.5a1.1,1.1,0,0,0-1-.312,19.144,19.144,0,0,0-4.031,2.125l-.094.406h-.906q-.406,1.906-.75,3.813T47.844-.562h.5Zm13.469.75-.219-.094v-.5A20,20,0,0,0,68.2-1.172a14.488,14.488,0,0,0,5.109-2.359l.313-.406h.188a4.262,4.262,0,0,0,.813-2.187,5.389,5.389,0,0,0-1.312-2.406l-1-.625-.406-.375a13.628,13.628,0,0,0-4.5-1.812l-.094-.719q1.906-.5,3.75-1.141a14.334,14.334,0,0,0,3.469-1.766,2.66,2.66,0,0,0,.688-1.812l-1.094-1.5-.312-.406a23.09,23.09,0,0,0-3.25-1.7q-1.656-.7-3.375-1.3v-.5h2.906q1.625.594,3.234,1.3a20.122,20.122,0,0,1,3.109,1.7l.094.313.594.313a3.1,3.1,0,0,1,.906,2.688l-.5,1-.406.406a13.834,13.834,0,0,1-2.953,1.609A25.553,25.553,0,0,1,71-11.844v.188A18.617,18.617,0,0,1,75.125-9.75l.094.313.719.406.094.281.313.094a4.116,4.116,0,0,1,1.094,3.313l-.719,1.625h-.187l-.187.406-.312.094-.094.281A13.469,13.469,0,0,1,72.016-.969a20.385,20.385,0,0,1-4.422.844Z" transform="translate(-0.906 22.188)" fill="#5abba1"/>
</svg>
