<svg xmlns="http://www.w3.org/2000/svg" width="216.828" height="30.141"
								viewBox="0 0 216.828 30.141">
								<g id="Сгруппировать_382" data-name="Сгруппировать 382"
									transform="translate(-1.891 -4.718)">
									<path id="Контур_1772" data-name="Контур 1772"
										d="M1.891-.906V-4a6.008,6.008,0,0,0,1.273.844,10.317,10.317,0,0,0,1.563.633,12.439,12.439,0,0,0,1.648.4,9.191,9.191,0,0,0,1.531.141,6,6,0,0,0,3.617-.9,3.039,3.039,0,0,0,1.2-2.586,3.036,3.036,0,0,0-.4-1.578,4.488,4.488,0,0,0-1.1-1.227A10.931,10.931,0,0,0,9.555-9.336q-.961-.508-2.07-1.07Q6.313-11,5.3-11.609a9.479,9.479,0,0,1-1.766-1.344,5.605,5.605,0,0,1-1.18-1.664,5.151,5.151,0,0,1-.43-2.18,5.125,5.125,0,0,1,.672-2.664,5.763,5.763,0,0,1,1.766-1.867,8,8,0,0,1,2.492-1.094A11.411,11.411,0,0,1,9.7-22.781a10.928,10.928,0,0,1,4.828.8v2.953a8.752,8.752,0,0,0-5.094-1.375,8.377,8.377,0,0,0-1.719.18,4.855,4.855,0,0,0-1.531.586,3.392,3.392,0,0,0-1.094,1.047,2.779,2.779,0,0,0-.422,1.563,3.217,3.217,0,0,0,.32,1.484,3.638,3.638,0,0,0,.945,1.141,9.415,9.415,0,0,0,1.523,1q.9.484,2.07,1.063,1.2.594,2.281,1.25A10.427,10.427,0,0,1,13.7-9.641a6.457,6.457,0,0,1,1.289,1.766,4.963,4.963,0,0,1,.477,2.219,5.627,5.627,0,0,1-.648,2.8A5.322,5.322,0,0,1,13.07-.984,7.643,7.643,0,0,1,10.531.055,13.905,13.905,0,0,1,7.5.375,12.352,12.352,0,0,1,6.188.289Q5.406.2,4.594.039A13,13,0,0,1,3.055-.367,4.789,4.789,0,0,1,1.891-.906Zm24.094.75a4.941,4.941,0,0,1-2.391.5q-4.2,0-4.2-4.687v-9.469h-2.75V-16h2.75v-3.906l2.563-.828V-16h4.031v2.188H21.953V-4.8A3.737,3.737,0,0,0,22.5-2.5a2.182,2.182,0,0,0,1.813.688,2.694,2.694,0,0,0,1.672-.531Zm16.281-7.2h-11.3a5.984,5.984,0,0,0,1.438,4.125,4.956,4.956,0,0,0,3.781,1.453,7.861,7.861,0,0,0,4.969-1.781v2.406A9.286,9.286,0,0,1,35.578.375,6.763,6.763,0,0,1,30.25-1.8a8.921,8.921,0,0,1-1.937-6.133,8.749,8.749,0,0,1,2.117-6.086,6.789,6.789,0,0,1,5.258-2.352,6.015,6.015,0,0,1,4.859,2.031A8.469,8.469,0,0,1,42.266-8.7ZM39.641-9.531a5.214,5.214,0,0,0-1.07-3.453,3.647,3.647,0,0,0-2.93-1.234,4.139,4.139,0,0,0-3.078,1.3A5.885,5.885,0,0,0,31-9.531Zm9.125,7.219H48.7V7.359H46.141V-16H48.7v2.813h.063A6.059,6.059,0,0,1,54.3-16.375a5.859,5.859,0,0,1,4.828,2.148,8.9,8.9,0,0,1,1.734,5.758,9.917,9.917,0,0,1-1.953,6.43A6.5,6.5,0,0,1,53.563.375,5.353,5.353,0,0,1,48.766-2.312ZM48.7-8.766v2.234a4.757,4.757,0,0,0,1.289,3.367,4.28,4.28,0,0,0,3.273,1.383,4.289,4.289,0,0,0,3.648-1.781,8.172,8.172,0,0,0,1.32-4.953A6.451,6.451,0,0,0,57-12.7a4.085,4.085,0,0,0-3.344-1.516,4.54,4.54,0,0,0-3.594,1.555A5.708,5.708,0,0,0,48.7-8.766ZM77.5-6.844a7.541,7.541,0,0,1-.562,2.969,6.491,6.491,0,0,1-1.6,2.281A7.171,7.171,0,0,1,72.828-.125a9.808,9.808,0,0,1-3.266.516,9.021,9.021,0,0,1-4.641-.937V-3.266A8.533,8.533,0,0,0,69.594-1.8a6.322,6.322,0,0,0,2.2-.359,4.878,4.878,0,0,0,1.664-1A4.282,4.282,0,0,0,74.508-4.7a5.236,5.236,0,0,0,.367-1.984,4.251,4.251,0,0,0-1.469-3.43,6.441,6.441,0,0,0-4.266-1.242q-.453,0-.953.016t-1,.039q-.5.023-.977.055t-.867.078l.766-11.234H76.469v2.313H68.328l-.453,6.578q.5-.031,1.063-.055t1-.023a10.056,10.056,0,0,1,3.188.469,6.753,6.753,0,0,1,2.383,1.336,5.6,5.6,0,0,1,1.484,2.125A7.474,7.474,0,0,1,77.5-6.844Z"
										transform="translate(0 27.499)" fill="#5abba1" />
									<path id="Контур_1773" data-name="Контур 1773"
										d="M19.277.313a2.815,2.815,0,0,0-.537.762q-.146.264-.244.264a.663.663,0,0,1-.244-.117,18.689,18.689,0,0,1-3.076-2.842A15.817,15.817,0,0,1,13,1.006q-.205.205-.264.205-.1,0-.234-.264a2.88,2.88,0,0,0-.586-.635,14.587,14.587,0,0,0,2.539-2.881,16.381,16.381,0,0,1-2.295-5.537H11.6v5.283l.029,4.072q0,.166-.137.166h-.9q-.176,0-.176-.166l.039-3.975V-11.3l-.039-4.062q0-.156.176-.156l2.422.039h2.9l2.256-.039q.205,0,.205.176-.078.664-.107,1.045a13.14,13.14,0,0,1-.381,2.539,1.518,1.518,0,0,1-.713.938,2.49,2.49,0,0,1-1.162.225q-.361,0-1.318-.039a.657.657,0,0,1-.322-.068.61.61,0,0,1-.1-.293,3.2,3.2,0,0,0-.225-.762,14.867,14.867,0,0,0,1.826.127,1.031,1.031,0,0,0,.7-.2,1.406,1.406,0,0,0,.313-.645,8.677,8.677,0,0,0,.225-1.943H11.6v5.273h4.854a1.059,1.059,0,0,0,.459-.078.754.754,0,0,1,.244-.059q.156,0,.547.361.361.361.361.518a.272.272,0,0,1-.127.234A1.8,1.8,0,0,0,17.6-7.4a22.127,22.127,0,0,1-1.8,4.756A14.667,14.667,0,0,0,19.277.313ZM16.621-8.105H13.174a14.838,14.838,0,0,0,1.9,4.482A20.077,20.077,0,0,0,16.621-8.105ZM9.883-5.82a.138.138,0,0,1-.156.156L7.285-5.7H6.27v2.266h.9l2.256-.039a.138.138,0,0,1,.156.156v.742a.138.138,0,0,1-.156.156L7.168-2.461h-.9V-.82L6.3,1.3q0,.137-.156.137h-.9q-.156,0-.156-.137L5.127-.82V-2.461H4.063l-2.285.039a.138.138,0,0,1-.156-.156V-3.32a.138.138,0,0,1,.156-.156l2.285.039H5.127V-5.7H3.74L1.3-5.664q-.137,0-.137-.156v-.742q0-.156.137-.156L3.74-6.68H6.387a16.273,16.273,0,0,0,.9-2.178,7.4,7.4,0,0,0,.2-.84A5.355,5.355,0,0,1,8.525-9.4q.205.088.205.205,0,.1-.146.2a1.084,1.084,0,0,0-.264.42q-.469,1.064-.9,1.9l2.3-.039a.138.138,0,0,1,.156.156Zm-.02-4.3a.138.138,0,0,1-.156.156L7.266-10H3.76l-2.441.039q-.137,0-.137-.156v-.742q0-.156.137-.156l2.441.039H5.127v-2.1H4.2l-2.236.039q-.156,0-.156-.166v-.762q0-.137.156-.137l2.236.039h.928V-14.6a10.153,10.153,0,0,0-.146-2,9.866,9.866,0,0,1,1.27.117q.254.039.254.166a1.365,1.365,0,0,1-.117.361A3.235,3.235,0,0,0,6.27-14.8v.742h.713L9.209-14.1q.156,0,.156.137v.762q0,.166-.156.166l-2.227-.039H6.27v2.1h1l2.441-.039a.138.138,0,0,1,.156.156ZM4.541-7.441a.588.588,0,0,1,.01.088q0,.1-.215.176l-.459.156a.855.855,0,0,1-.225.059q-.078,0-.117-.117a15.428,15.428,0,0,0-.771-2.1A.26.26,0,0,1,2.715-9.3q0-.068.186-.127L3.418-9.6a.444.444,0,0,1,.146-.039q.068,0,.137.117A13.826,13.826,0,0,1,4.541-7.441Zm24.57-7.3q0,.146-.156.146l-2.295-.049h-.244v2.324l1.963-.039a.138.138,0,0,1,.156.156L28.5-8.564v3.447L28.535.1a.138.138,0,0,1-.156.156H27.7A.138.138,0,0,1,27.539.1v-.82h-4.99V1q0,.166-.156.166h-.7q-.156,0-.156-.166l.039-5.6v-3.34l-.039-4.268a.138.138,0,0,1,.156-.156l2.07.039v-2.324h-.342l-2.246.049q-.156,0-.156-.146v-.781a.138.138,0,0,1,.156-.156l2.324.039H26.66l2.295-.039a.138.138,0,0,1,.156.156ZM27.539-4.541v-2.1q-.205.02-.518.02a1.679,1.679,0,0,1-1.084-.244,1.578,1.578,0,0,1-.381-1.26v-3.262h-.937a25.974,25.974,0,0,1-.176,2.8,6.144,6.144,0,0,1-1.006,2.8q-.127.176-.205.176t-.156-.176a1.69,1.69,0,0,0-.449-.5,5.021,5.021,0,0,0,1-2.588q.1-.723.137-2.52H22.549v6.846Zm0,2.861V-3.6h-4.99V-1.68Zm0-5.859v-3.848H26.416v2.744a2.1,2.1,0,0,0,.117.938.712.712,0,0,0,.547.166Zm-1.982-4.785v-2.324h-.937v2.324Zm6.484-3.5a.683.683,0,0,1-.049.2,1.909,1.909,0,0,0-.078.225,20.7,20.7,0,0,0-.1,2.441V-8.4a33.082,33.082,0,0,1-.381,5.742A8.94,8.94,0,0,1,29.551,1.26q-.186.225-.234.225-.078,0-.225-.186a1.634,1.634,0,0,0-.7-.459,6.693,6.693,0,0,0,2-3.838,32.3,32.3,0,0,0,.342-5.4V-13a23.06,23.06,0,0,0-.137-3.086,9.861,9.861,0,0,1,1.182.107Q32.041-15.947,32.041-15.82Zm6.631-.117a.62.62,0,0,1-.039.176,1.613,1.613,0,0,0-.059.205,22.611,22.611,0,0,0-.078,2.5V-2.041l.039,3.281q0,.156-.176.156h-.83a.138.138,0,0,1-.156-.156l.039-3.281v-11a28.951,28.951,0,0,0-.117-3.184q.605.029,1.162.1Q38.672-16.094,38.672-15.937Zm-3.379.5a3.8,3.8,0,0,1-.078.4,11.712,11.712,0,0,0-.117,2.2V-3.4L35.137.117q0,.166-.176.166h-.83q-.156,0-.156-.166L34.014-3.4v-9.4a23.5,23.5,0,0,0-.117-2.9,10.705,10.705,0,0,1,1.182.107Q35.293-15.566,35.293-15.439ZM30.313-10a13.908,13.908,0,0,1-.576,3.525q-.029.1-.068.1a.94.94,0,0,1-.234-.1l-.4-.205q-.166-.068-.166-.166a.3.3,0,0,1,.029-.107,9.469,9.469,0,0,0,.537-3.359q0-.1.068-.1a1.077,1.077,0,0,1,.215.059l.381.137Q30.312-10.146,30.313-10Zm3.4,2.783q.01.059.01.068,0,.049-.244.234l-.283.2a.428.428,0,0,1-.186.078q-.078,0-.088-.137A13.268,13.268,0,0,0,32.2-9.912a.369.369,0,0,1-.039-.127q0-.049.176-.137l.322-.156a.375.375,0,0,1,.146-.049q.059,0,.117.107A13.017,13.017,0,0,1,33.711-7.217Zm3.34-.2a.487.487,0,0,1,.01.059q0,.127-.225.234l-.342.205a.6.6,0,0,1-.186.078q-.039,0-.049-.117a13.289,13.289,0,0,0-.742-3.125.175.175,0,0,1-.029-.088q0-.068.186-.146l.3-.146a.689.689,0,0,1,.146-.039q.068,0,.137.117A13.959,13.959,0,0,1,37.051-7.412ZM49.3-6.26V-2.3H47.959v-3.34q-.459.234-.947.508-2.559,1.445-2.559,2.9a1.325,1.325,0,0,0,.9,1.348,9.138,9.138,0,0,0,2.969.332q2.1,0,4.873-.244L53.252.557q-3.643.186-4.834.186Q45.283.742,44.18.01a2.531,2.531,0,0,1-1.006-2.285q0-2.09,2.686-3.643,1.016-.576,2.08-1.1-.1-1.875-1.3-1.875-1.68,0-4.609,3.379L41-6.436a23.355,23.355,0,0,0,4.141-5.908q-1.826.029-3.662,0v-1.221q2.109.039,4.219,0a17.872,17.872,0,0,0,.9-2.676l1.445.264a20.538,20.538,0,0,1-.84,2.354q2.813-.088,5.342-.342l.039,1.221q-3.281.264-5.918.342a20.424,20.424,0,0,1-1.68,2.842l-.508.518.059.078A3.559,3.559,0,0,1,46.914-9.98a2.173,2.173,0,0,1,1.592.605,2.831,2.831,0,0,1,.752,1.738Q50.82-8.35,53.32-9.4l.557,1.367Q50.625-6.846,49.3-6.26Zm23.086,5.3A9.365,9.365,0,0,1,67.7.234,6.405,6.405,0,0,1,62.847-1.7,7.092,7.092,0,0,1,61-6.816a7.282,7.282,0,0,1,2.056-5.337,7.008,7.008,0,0,1,5.21-2.085A8.866,8.866,0,0,1,72.1-13.5v1.816a7.371,7.371,0,0,0-4.023-1.074,5.027,5.027,0,0,0-3.857,1.621,5.929,5.929,0,0,0-1.5,4.2,5.932,5.932,0,0,0,1.4,4.175A4.895,4.895,0,0,0,67.9-1.24a5.854,5.854,0,0,0,2.842-.654V-5.82H67.676V-7.3h4.707ZM83.057,0H75.635V-14h7.109v1.484H77.275v4.658h5.059v1.475H77.275v4.9h5.781ZM94.033-12.52H89.99V0H88.35V-12.52H84.316V-14h9.717Zm15.664.381q-.059,2.168,0,4.336a7.606,7.606,0,0,1,.439,2.539,5.267,5.267,0,0,1-1.865,4.385A11.063,11.063,0,0,1,103.593.938l-.84-1.2a9.048,9.048,0,0,0,4.873-1.973,3.916,3.916,0,0,0,1.152-2.686,2.652,2.652,0,0,1-2.578,1.26,3.15,3.15,0,0,1-2.187-.82,2.975,2.975,0,0,1-.957-2.314,2.958,2.958,0,0,1,1.133-2.48,3.528,3.528,0,0,1,2.227-.7,2.862,2.862,0,0,1,1.943.557q-.039-1.875-.039-2.676-3.213.049-7.764.342l-.02-1.279q3.691-.146,7.764-.244V-16l1.436.02q0,.9-.039,2.656,3.32-.039,4.8-.039v1.279Q112.1-12.139,109.7-12.139Zm-3.34,3.281a1.889,1.889,0,0,0-1.406.566,2.019,2.019,0,0,0-.557,1.494,1.768,1.768,0,0,0,.635,1.436,1.84,1.84,0,0,0,1.211.42,2.008,2.008,0,0,0,1.572-.586,1.857,1.857,0,0,0,.449-1.309Q108.261-8.857,106.357-8.857Zm12.324-6.084q2.646-.02,8.135-.283l.84,1.045q-3.9,3.955-6.182,5.938l-.9.781.078.059,1.025-.693a6.592,6.592,0,0,1,2.822-.762,5.067,5.067,0,0,1,3.867,1.426,4.387,4.387,0,0,1,1.152,3.154,4.738,4.738,0,0,1-1.826,4.063A7.6,7.6,0,0,1,123.1,1q-3.916,0-3.916-2.656a2.322,2.322,0,0,1,.84-1.875,3.1,3.1,0,0,1,2.041-.645A3.291,3.291,0,0,1,124.6-3.105a4.921,4.921,0,0,1,1.123,2.4,3.684,3.684,0,0,0,1.8-1.4,4.174,4.174,0,0,0,.518-2.2,3.187,3.187,0,0,0-1.24-2.676,3.815,3.815,0,0,0-2.383-.752,7,7,0,0,0-4.834,1.943,17.781,17.781,0,0,0-1.66,1.738L116.738-5q4.785-4.922,8.76-8.965-2.871.215-6.816.322ZM124.316-.3a4.321,4.321,0,0,0-.889-2.041,1.822,1.822,0,0,0-1.406-.674,1.6,1.6,0,0,0-1.152.43,1.183,1.183,0,0,0-.391.889,1.243,1.243,0,0,0,.664,1.182A4.1,4.1,0,0,0,123-.2,8.623,8.623,0,0,0,124.316-.3Z"
										transform="translate(89.198 27.499)" fill="#215f87" />
								</g>
							</svg>