	<svg xmlns="http://www.w3.org/2000/svg" width="285.149" height="30.141"
								viewBox="0 0 285.149 30.141">
								<g id="Сгруппировать_378" data-name="Сгруппировать 378"
									transform="translate(-1.891 -4.719)">
									<path id="Контур_1767" data-name="Контур 1767"
										d="M1.891-.906V-4a6.008,6.008,0,0,0,1.273.844,10.317,10.317,0,0,0,1.563.633,12.439,12.439,0,0,0,1.648.4,9.191,9.191,0,0,0,1.531.141,6,6,0,0,0,3.617-.9,3.039,3.039,0,0,0,1.2-2.586,3.036,3.036,0,0,0-.4-1.578,4.488,4.488,0,0,0-1.1-1.227A10.931,10.931,0,0,0,9.555-9.336q-.961-.508-2.07-1.07Q6.313-11,5.3-11.609a9.479,9.479,0,0,1-1.766-1.344,5.605,5.605,0,0,1-1.18-1.664,5.151,5.151,0,0,1-.43-2.18,5.125,5.125,0,0,1,.672-2.664,5.763,5.763,0,0,1,1.766-1.867,8,8,0,0,1,2.492-1.094A11.411,11.411,0,0,1,9.7-22.781a10.928,10.928,0,0,1,4.828.8v2.953a8.752,8.752,0,0,0-5.094-1.375,8.377,8.377,0,0,0-1.719.18,4.855,4.855,0,0,0-1.531.586,3.392,3.392,0,0,0-1.094,1.047,2.779,2.779,0,0,0-.422,1.563,3.217,3.217,0,0,0,.32,1.484,3.638,3.638,0,0,0,.945,1.141,9.415,9.415,0,0,0,1.523,1q.9.484,2.07,1.063,1.2.594,2.281,1.25A10.427,10.427,0,0,1,13.7-9.641a6.457,6.457,0,0,1,1.289,1.766,4.963,4.963,0,0,1,.477,2.219,5.627,5.627,0,0,1-.648,2.8A5.322,5.322,0,0,1,13.07-.984,7.643,7.643,0,0,1,10.531.055,13.905,13.905,0,0,1,7.5.375,12.352,12.352,0,0,1,6.188.289Q5.406.2,4.594.039A13,13,0,0,1,3.055-.367,4.789,4.789,0,0,1,1.891-.906Zm24.094.75a4.941,4.941,0,0,1-2.391.5q-4.2,0-4.2-4.687v-9.469h-2.75V-16h2.75v-3.906l2.563-.828V-16h4.031v2.188H21.953V-4.8A3.737,3.737,0,0,0,22.5-2.5a2.182,2.182,0,0,0,1.813.688,2.694,2.694,0,0,0,1.672-.531Zm16.281-7.2h-11.3a5.984,5.984,0,0,0,1.438,4.125,4.956,4.956,0,0,0,3.781,1.453,7.861,7.861,0,0,0,4.969-1.781v2.406A9.286,9.286,0,0,1,35.578.375,6.763,6.763,0,0,1,30.25-1.8a8.921,8.921,0,0,1-1.937-6.133,8.749,8.749,0,0,1,2.117-6.086,6.789,6.789,0,0,1,5.258-2.352,6.015,6.015,0,0,1,4.859,2.031A8.469,8.469,0,0,1,42.266-8.7ZM39.641-9.531a5.214,5.214,0,0,0-1.07-3.453,3.647,3.647,0,0,0-2.93-1.234,4.139,4.139,0,0,0-3.078,1.3A5.885,5.885,0,0,0,31-9.531Zm9.125,7.219H48.7V7.359H46.141V-16H48.7v2.813h.063A6.059,6.059,0,0,1,54.3-16.375a5.859,5.859,0,0,1,4.828,2.148,8.9,8.9,0,0,1,1.734,5.758,9.917,9.917,0,0,1-1.953,6.43A6.5,6.5,0,0,1,53.563.375,5.353,5.353,0,0,1,48.766-2.312ZM48.7-8.766v2.234a4.757,4.757,0,0,0,1.289,3.367,4.28,4.28,0,0,0,3.273,1.383,4.289,4.289,0,0,0,3.648-1.781,8.172,8.172,0,0,0,1.32-4.953A6.451,6.451,0,0,0,57-12.7a4.085,4.085,0,0,0-3.344-1.516,4.54,4.54,0,0,0-3.594,1.555A5.708,5.708,0,0,0,48.7-8.766ZM77.25-6.344a6.532,6.532,0,0,1-.57,2.758A6.089,6.089,0,0,1,75.07-1.461,7.428,7.428,0,0,1,72.578-.094a10.081,10.081,0,0,1-3.2.484A9.308,9.308,0,0,1,64.281-.828v-2.75A8.163,8.163,0,0,0,69.469-1.8a7.05,7.05,0,0,0,2.117-.3,4.747,4.747,0,0,0,1.625-.859,3.817,3.817,0,0,0,1.047-1.359,4.245,4.245,0,0,0,.367-1.8q0-4.391-6.25-4.391H66.516v-2.172h1.766q5.531,0,5.531-4.125,0-3.812-4.219-3.812a7.183,7.183,0,0,0-4.453,1.594V-21.5a9.735,9.735,0,0,1,5.094-1.281,7.827,7.827,0,0,1,2.547.391A5.836,5.836,0,0,1,74.734-21.3a4.847,4.847,0,0,1,1.258,1.688,5.209,5.209,0,0,1,.445,2.172q0,4.422-4.469,5.688v.063a7.069,7.069,0,0,1,2.109.555,5.629,5.629,0,0,1,1.672,1.117,4.98,4.98,0,0,1,1.1,1.617A5.163,5.163,0,0,1,77.25-6.344Z"
										transform="translate(0 27.5)" fill="#5abba1" />
									<path id="Контур_1766" data-name="Контур 1766"
										d="M1.377-9.619l.684-1.2a41.248,41.248,0,0,1,4.7,2.041L6.016-7.441A28.561,28.561,0,0,0,1.377-9.619Zm1.8-4.277.742-1.182A28.923,28.923,0,0,1,8.477-12.9l-.8,1.318A25.055,25.055,0,0,0,3.174-13.9Zm10.479,1.318,1.387.781a20.854,20.854,0,0,1-1.641,4.5A13.915,13.915,0,0,1,11.3-4.1,14.39,14.39,0,0,1,3.359.176l-.82-1.26a12.979,12.979,0,0,0,7.6-3.994A16.513,16.513,0,0,0,13.652-12.578ZM17.2-14.541H28.213q-.059,7.158-2.578,10.723A13.746,13.746,0,0,1,18.916.84l-.84-1.2A12.181,12.181,0,0,0,24.58-5a15.077,15.077,0,0,0,1.953-8.2H17.2ZM34.844-8.7V.8H33.3V-15.977h1.543v5.8A31.148,31.148,0,0,1,42.461-7L41.7-5.557A25.279,25.279,0,0,0,34.844-8.7ZM56.455-14,49.736,2.324H48.242L54.941-14ZM80.264-2.236a4.829,4.829,0,0,1-.391,1.895,2.41,2.41,0,0,1-.625.684q-.732.6-4.141.6A14.6,14.6,0,0,1,72.852.82a2.245,2.245,0,0,1-.957-.361,1.934,1.934,0,0,1-.566-1.621V-6.279q-.566.176-.986.332l-.293.107a.321.321,0,0,1-.1.02q-.107,0-.146-.156l-.2-.762a.225.225,0,0,1-.02-.078q0-.078.137-.107.576-.107,1.6-.4V-8.34a15.781,15.781,0,0,0-.117-2.3,11.854,11.854,0,0,1,1.182.107q.234.029.234.156a1.035,1.035,0,0,1-.1.361,6.34,6.34,0,0,0-.1,1.455v.928l2.031-.605v-.879a15.444,15.444,0,0,0-.137-2.422,8.961,8.961,0,0,1,1.191.107q.225.029.225.2a2.089,2.089,0,0,1-.078.322,5.746,5.746,0,0,0-.117,1.494v.859L76.982-9q1-.283,1.8-.566.488-.166.527-.176h.029q.107,0,.107.146l-.039.918a23.867,23.867,0,0,1-.459,4.541,1.224,1.224,0,0,1-1.24.947q-.176.01-.391.01-.313,0-.684-.029-.176-.02-.215-.078a.818.818,0,0,1-.068-.283,2.053,2.053,0,0,0-.264-.811,5.2,5.2,0,0,0,1.26.166.576.576,0,0,0,.625-.5,23.322,23.322,0,0,0,.342-3.662l-2.764.84v2.7l.039,2.285a.138.138,0,0,1-.156.156h-.85a.138.138,0,0,1-.156-.156l.039-2.285V-7.217l-2.031.6v4.58A6.253,6.253,0,0,0,72.5-.879a.58.58,0,0,0,.254.41,5.985,5.985,0,0,0,2.451.283,18.748,18.748,0,0,0,2.471-.107,1.76,1.76,0,0,0,.85-.312,1.5,1.5,0,0,0,.5-.889,9.637,9.637,0,0,0,.146-1.67,1.944,1.944,0,0,0,.781.4q.322.088.322.361Q80.273-2.344,80.264-2.236ZM69.99-12.2a.147.147,0,0,1-.166.166l-2.217-.049H65.869q-.039,1.836-.078,2.744h1.982l1.24-.039a.155.155,0,0,1,.176.176q-.02.371-.039,1.113-.029.85-.039,1.289a31.538,31.538,0,0,1-.439,5.762,2.892,2.892,0,0,1-.693,1.5,1.734,1.734,0,0,1-1.23.41q-.615,0-1-.02-.225-.02-.273-.088A.992.992,0,0,1,65.41.439a2.445,2.445,0,0,0-.283-.879,8.2,8.2,0,0,0,1.5.156.764.764,0,0,0,.742-.42,4.934,4.934,0,0,0,.273-1.162,48.069,48.069,0,0,0,.381-6.406H65.752a26.434,26.434,0,0,1-.771,5.391A12.452,12.452,0,0,1,63.311.742q-.156.215-.225.215-.088,0-.234-.176a2.581,2.581,0,0,0-.723-.625,11.193,11.193,0,0,0,2.178-5.244,49.911,49.911,0,0,0,.439-6.992l-2.158.049q-.137,0-.137-.166v-.84a.121.121,0,0,1,.137-.137l2.236.039h1.309v-1.338a9.943,9.943,0,0,0-.146-2.061q.771.029,1.3.1.264.029.264.176a1.234,1.234,0,0,1-.117.361,4.765,4.765,0,0,0-.127,1.426v1.338h.322l2.2-.039q.166,0,.166.137Zm10.117-.273a.138.138,0,0,1-.156.156l-2.383-.039H71.885a14.787,14.787,0,0,1-1.758,2.52q-.166.205-.273.205-.088,0-.283-.225a1.82,1.82,0,0,0-.586-.42,12.384,12.384,0,0,0,2.988-4.961,6.014,6.014,0,0,0,.254-1.348q.752.146,1.143.264.225.059.225.225a.474.474,0,0,1-.117.234,2.692,2.692,0,0,0-.381.82q-.371,1.006-.645,1.6h5.117l2.383-.039a.138.138,0,0,1,.156.156Zm14.4,1.338q0,.156-.166.156l-2.08-.039h-.6v8.643l.039,3.457a.138.138,0,0,1-.156.156h-.928a.138.138,0,0,1-.156-.156l.039-3.437v-8.662h-.625l-2.1.039a.138.138,0,0,1-.156-.156v-.82q0-.166.156-.166l2.1.039h.625v-1.7a15.872,15.872,0,0,0-.146-2.578,12.459,12.459,0,0,1,1.289.117q.244.039.244.166a.541.541,0,0,1-.039.176,1.807,1.807,0,0,0-.068.186A8.8,8.8,0,0,0,91.67-13.8v1.719h.6l2.08-.039a.147.147,0,0,1,.166.166Zm5.879,1.2q0,.176-.166.176l-1.777-.039h-.1v5.938l.02,3.135A1.675,1.675,0,0,1,97.822.742a4.071,4.071,0,0,1-1.953.3H95.43q-.313,0-.371-.068a.854.854,0,0,1-.117-.352,3.553,3.553,0,0,0-.312-.85,15.4,15.4,0,0,0,1.8.127q.742-.029.742-.82V-9.795h-.547l-1.777.039a.155.155,0,0,1-.176-.176v-.8q0-.166.176-.166l1.777.039h1.826l1.777-.039a.147.147,0,0,1,.166.166ZM87.256-11.338q0,.117-.186.234a1.563,1.563,0,0,0-.459.586,15.949,15.949,0,0,1-1.035,1.66v7.441l.039,2.578q0,.156-.166.156h-.918a.138.138,0,0,1-.156-.156l.039-2.578V-5q0-.176.059-2.461a20.552,20.552,0,0,1-1.582,1.6q-.156.156-.234.156-.107,0-.205-.215a2.513,2.513,0,0,0-.459-.723A14.873,14.873,0,0,0,85.674-11.2a4.692,4.692,0,0,0,.381-.977,7.555,7.555,0,0,1,.977.557Q87.256-11.465,87.256-11.338Zm.059-4.346q0,.137-.186.225a1.689,1.689,0,0,0-.5.479,18.235,18.235,0,0,1-3.535,3.7.825.825,0,0,1-.283.156q-.088,0-.244-.283a2.471,2.471,0,0,0-.518-.674,13.078,13.078,0,0,0,3.564-3.564,2.987,2.987,0,0,0,.439-.9,6.738,6.738,0,0,1,1.055.586Q87.314-15.82,87.314-15.684Zm2.061,7.461a.574.574,0,0,1-.1.264,2.037,2.037,0,0,0-.205.781,19.873,19.873,0,0,1-1.26,4.99q-.078.244-.186.244a.807.807,0,0,1-.254-.1,2.385,2.385,0,0,0-.781-.234,16.2,16.2,0,0,0,1.367-4.9Q88-7.666,88-8.086a4.045,4.045,0,0,0-.029-.518,8.844,8.844,0,0,1,1.143.166Q89.375-8.389,89.375-8.223Zm5.771,4.98a.16.16,0,0,0,.01.039v.029q0,.107-.205.2l-.557.2a.943.943,0,0,1-.244.068q-.088,0-.1-.146A30.344,30.344,0,0,0,92.91-8.184a.414.414,0,0,1-.02-.1q0-.068.205-.137l.537-.186a.569.569,0,0,1,.137-.029q.078,0,.117.137A32.791,32.791,0,0,1,95.146-3.242Zm4.785-10.84q0,.166-.137.166l-1.562-.039h-1.3l-1.562.039q-.156,0-.156-.166v-.84a.138.138,0,0,1,.156-.156l1.563.039h1.3l1.563-.039q.137,0,.137.156Zm-5.381.381a.3.3,0,0,1,.029.107q0,.078-.146.176l-.4.254a.749.749,0,0,1-.244.127q-.059,0-.117-.127a9.543,9.543,0,0,0-1.2-1.973.237.237,0,0,1-.059-.117q0-.059.156-.146l.439-.244a.636.636,0,0,1,.176-.059.163.163,0,0,1,.107.059A9.682,9.682,0,0,1,94.551-13.7ZM113.213-.244h-9.961V-1.582h8.4v-11.4h-8.4v-1.338h9.961ZM116.182-8.2h10.879v1.484H116.182ZM136.9-5.723A17.992,17.992,0,0,1,129.766.6l-.879-1.152a17.558,17.558,0,0,0,6.533-5.615,20.23,20.23,0,0,0,2.93-7.207h-8.4v-1.338h10.371a26.835,26.835,0,0,1-2.637,7.656,44.923,44.923,0,0,1,4.658,6.719L140.869.6A35.9,35.9,0,0,0,136.9-5.723Zm15.654-.537V-2.3h-1.338v-3.34q-.459.234-.947.508-2.559,1.445-2.559,2.9a1.325,1.325,0,0,0,.9,1.348,9.137,9.137,0,0,0,2.969.332q2.1,0,4.873-.244l.059,1.357q-3.643.186-4.834.186-3.135,0-4.238-.732a2.531,2.531,0,0,1-1.006-2.285q0-2.09,2.686-3.643,1.016-.576,2.08-1.1Q151.1-8.9,149.9-8.9q-1.68,0-4.609,3.379l-1.035-.918a23.355,23.355,0,0,0,4.141-5.908q-1.826.029-3.662,0v-1.221q2.109.039,4.219,0a17.872,17.872,0,0,0,.9-2.676l1.445.264a20.539,20.539,0,0,1-.84,2.354q2.813-.088,5.342-.342l.039,1.221q-3.281.264-5.918.342a20.424,20.424,0,0,1-1.68,2.842l-.508.518.059.078a3.559,3.559,0,0,1,2.383-1.016,2.173,2.173,0,0,1,1.592.605,2.831,2.831,0,0,1,.752,1.738q1.563-.713,4.063-1.768l.557,1.367Q153.887-6.846,152.559-6.26ZM173.438-3.7a.138.138,0,0,1-.156.156l-2.646-.039h-4.609l-2.627.039a.138.138,0,0,1-.156-.156l.039-1.4v-1.27l-.039-1.4a.138.138,0,0,1,.156-.156l2.627.039h4.609l2.646-.039a.138.138,0,0,1,.156.156l-.039,1.4V-5.1Zm-1.221-.859V-6.885h-7.754v2.324Zm5.3-4a2.818,2.818,0,0,0-.518.713q-.166.3-.264.3a1.016,1.016,0,0,1-.293-.1,21.639,21.639,0,0,1-5.127-3.086,12.864,12.864,0,0,1-3.076-3.789,16.978,16.978,0,0,1-3.437,4.072,22.617,22.617,0,0,1-4.58,2.91,1.106,1.106,0,0,1-.3.1q-.1,0-.283-.322a2.074,2.074,0,0,0-.518-.605,20.486,20.486,0,0,0,4.541-2.617,14.557,14.557,0,0,0-2.285-2q-.088-.059-.088-.1t.107-.156l.488-.439q.107-.107.156-.107a.215.215,0,0,1,.117.049,18.176,18.176,0,0,1,2.383,2.031,15.131,15.131,0,0,0,2.559-3.057h-2.881l-2.061.039q-.176,0-.176-.156v-.781q0-.156.176-.156l2.061.039h2.764l1.621-.039q.156,0,.254.225a9.482,9.482,0,0,0,.742,1.367,11.548,11.548,0,0,0,.859,1.162,12.918,12.918,0,0,0,1.621-1.7,4.046,4.046,0,0,0,.479-.771,6.226,6.226,0,0,1,.986.615.338.338,0,0,1,.156.234q0,.127-.2.225a1.753,1.753,0,0,0-.625.5,20.462,20.462,0,0,1-1.719,1.641,17.928,17.928,0,0,0,1.494,1.26,21.055,21.055,0,0,0,1.924-1.865,4.777,4.777,0,0,0,.537-.771,7.579,7.579,0,0,1,.957.615q.186.156.186.234v.029a.361.361,0,0,1-.264.234,1.679,1.679,0,0,0-.6.439,21.044,21.044,0,0,1-1.875,1.66A20.584,20.584,0,0,0,177.52-8.564ZM177.041.625a.138.138,0,0,1-.156.156L174.258.742h-11.8l-2.617.039q-.166,0-.166-.156v-.85q0-.156.166-.156l2.617.039h7.2q.518-.85.967-1.738a4.976,4.976,0,0,0,.381-1.123,9.616,9.616,0,0,1,1.162.459.246.246,0,0,1,.176.225q0,.1-.176.234a1.52,1.52,0,0,0-.41.547q-.713,1.211-.84,1.4h3.34l2.627-.039a.138.138,0,0,1,.156.156ZM171.426-9.5q0,.156-.146.156l-2-.039h-2.061l-1.973.039q-.166,0-.166-.156v-.781q0-.156.166-.156l1.973.039h2.061l2-.039q.146,0,.146.156Zm-4.785,8.34a.479.479,0,0,1,.029.117q0,.068-.225.186l-.527.264a.852.852,0,0,1-.244.078q-.068,0-.117-.127a8.526,8.526,0,0,0-.957-1.895.269.269,0,0,1-.049-.107q0-.059.215-.156l.518-.234a.547.547,0,0,1,.205-.078q.049,0,.137.117A10.661,10.661,0,0,1,166.641-1.162Zm31.2.4a2.83,2.83,0,0,0-.586.742q-.137.264-.215.264a.62.62,0,0,1-.264-.156,12.956,12.956,0,0,1-4.453-6.865V-5.42q0,1.631.039,3.477.039,1.25.039,1.689a2.97,2.97,0,0,1-.107.928,1.039,1.039,0,0,1-.41.508,4.056,4.056,0,0,1-1.963.342.724.724,0,0,1-.381-.059,1.1,1.1,0,0,1-.117-.342,2.282,2.282,0,0,0-.4-.859,10.947,10.947,0,0,0,1.3.078,1.217,1.217,0,0,0,.8-.176.81.81,0,0,0,.156-.586V-3.184A25.914,25.914,0,0,1,188.1-.918a2,2,0,0,0-.635.479.248.248,0,0,1-.205.137.245.245,0,0,1-.215-.117,8.882,8.882,0,0,1-.605-.977,7.858,7.858,0,0,0,1.084-.488,25.166,25.166,0,0,0,3.76-2.6v-4.18h-1.719l-2.705.039a.138.138,0,0,1-.156-.156v-.8a.138.138,0,0,1,.156-.156l2.705.039h4.18l.137-1.924h-3.359l-2.08.039a.138.138,0,0,1-.156-.156v-.781a.138.138,0,0,1,.156-.156l2.08.039h3.418l.146-1.807h-4l-2.217.039q-.166,0-.166-.156v-.8q0-.156.166-.156l2.217.039H192.9l2.227-.039a.155.155,0,0,1,.176.176q-.039.313-.068.752-.049.537-.059.625L194.863-9.7l2.48-.039q.176,0,.176.156v.8q0,.156-.176.156l-2.705-.039h-2.2a16.986,16.986,0,0,0,1.377,3.643,15.271,15.271,0,0,0,1.719-2.041,3.6,3.6,0,0,0,.439-.781,5.788,5.788,0,0,1,.869.6.462.462,0,0,1,.156.283q0,.1-.225.244a2.693,2.693,0,0,0-.6.576,14.71,14.71,0,0,1-1.865,1.982A11.35,11.35,0,0,0,197.842-.762Zm-11.035-6.3q0,.156-.166.156l-2.08-.039H184.1v5.527a24.345,24.345,0,0,0,2.4-.928,3.146,3.146,0,0,0-.1.742.588.588,0,0,1-.088.391.814.814,0,0,1-.293.146Q183.984-.273,181.279.5a2.5,2.5,0,0,0-.742.3.476.476,0,0,1-.264.117.218.218,0,0,1-.234-.156q-.146-.352-.381-1.1A11.994,11.994,0,0,0,181.182-.6q1.4-.342,1.816-.469V-6.943h-.781l-2.08.039a.138.138,0,0,1-.156-.156v-.762a.138.138,0,0,1,.156-.156l2.08.039H183v-2.178h-.137l-1.7.039q-.166,0-.166-.186v-.713a.147.147,0,0,1,.166-.166l1.7.039H184.4l1.68-.039q.156,0,.156.166v.713q0,.186-.156.186l-1.68-.039h-.3v2.178h.459l2.08-.039q.166,0,.166.156Zm.332-5.693a1.421,1.421,0,0,0-.518.635q-.146.264-.205.264a1.658,1.658,0,0,1-.3-.205,15.451,15.451,0,0,1-2.334-2.656,17.748,17.748,0,0,1-3.525,3.984.78.78,0,0,1-.293.156q-.117,0-.205-.264a1.772,1.772,0,0,0-.459-.693,12.367,12.367,0,0,0,3.535-3.867,2.932,2.932,0,0,0,.43-1.074,6.462,6.462,0,0,1,1.152.322q.205.059.205.176a.309.309,0,0,1-.186.264l-.156.117A14.088,14.088,0,0,0,187.139-12.754ZM182.041-2.6q.01.078.01.1,0,.088-.215.176l-.479.205a.683.683,0,0,1-.2.049q-.088,0-.107-.137a14.9,14.9,0,0,0-.674-3.1.3.3,0,0,1-.029-.107q0-.078.244-.166l.42-.166a.8.8,0,0,1,.2-.049q.059,0,.107.107A16.984,16.984,0,0,1,182.041-2.6Zm4.814-2.881a.338.338,0,0,1-.156.234,1.4,1.4,0,0,0-.3.566q-.332,1.025-.645,1.758-.1.283-.176.283a.666.666,0,0,1-.215-.088,3.48,3.48,0,0,0-.625-.2,13.587,13.587,0,0,0,.781-2.363,2.869,2.869,0,0,0,.1-.752,8.872,8.872,0,0,1,1.064.352Q186.855-5.586,186.855-5.479Zm3.164.176a.3.3,0,0,1,.029.107q0,.059-.176.2l-.4.322a1.046,1.046,0,0,1-.234.137q-.049,0-.117-.137a8.687,8.687,0,0,0-1.5-2.383.16.16,0,0,1-.059-.1q0-.059.176-.186l.42-.273a.4.4,0,0,1,.176-.1q.059,0,.146.1A11.732,11.732,0,0,1,190.02-5.3Z"
										transform="translate(89.198 27.5)" fill="#215f87" />
								</g>
							</svg>