	<svg xmlns="http://www.w3.org/2000/svg" width="320.954" height="63.508"
								viewBox="0 0 320.954 63.508">
								<path id="Контур_1765" data-name="Контур 1765"
									d="M10.568,12.409a.1.1,0,0,1-.109.109l-1.853-.027H5.38l-1.839.027a.1.1,0,0,1-.109-.109l.027-.978v-.889l-.027-.978a.1.1,0,0,1,.109-.109l1.839.027H8.606l1.853-.027a.1.1,0,0,1,.109.109l-.027.978v.889Zm-.854-.6V10.181H4.286v1.627ZM13.426,9a1.972,1.972,0,0,0-.362.5q-.116.212-.185.212a.712.712,0,0,1-.205-.068,15.147,15.147,0,0,1-3.589-2.16A9.005,9.005,0,0,1,6.932,4.835,11.885,11.885,0,0,1,4.525,7.686,15.832,15.832,0,0,1,1.319,9.723a.774.774,0,0,1-.212.068q-.068,0-.2-.226a1.452,1.452,0,0,0-.362-.424A14.34,14.34,0,0,0,3.726,7.31a10.19,10.19,0,0,0-1.6-1.4q-.062-.041-.062-.068T2.14,5.73l.342-.308q.075-.075.109-.075a.15.15,0,0,1,.082.034A12.724,12.724,0,0,1,4.341,6.8a10.592,10.592,0,0,0,1.791-2.14H4.115l-1.442.027q-.123,0-.123-.109V4.035q0-.109.123-.109l1.442.027H6.05l1.135-.027q.109,0,.178.157a6.638,6.638,0,0,0,.52.957,8.083,8.083,0,0,0,.6.813A9.042,9.042,0,0,0,9.618,4.664a2.832,2.832,0,0,0,.335-.54,4.359,4.359,0,0,1,.69.431.236.236,0,0,1,.109.164q0,.089-.137.157a1.227,1.227,0,0,0-.437.349,14.324,14.324,0,0,1-1.2,1.148,12.55,12.55,0,0,0,1.046.882,14.739,14.739,0,0,0,1.347-1.306,3.344,3.344,0,0,0,.376-.54,5.306,5.306,0,0,1,.67.431q.13.109.13.164v.021a.253.253,0,0,1-.185.164,1.175,1.175,0,0,0-.417.308A14.731,14.731,0,0,1,10.63,7.658,14.409,14.409,0,0,0,13.426,9Zm-.335,6.433a.1.1,0,0,1-.109.109l-1.839-.027H2.885l-1.832.027q-.116,0-.116-.109v-.595q0-.109.116-.109l1.832.027H7.923q.362-.595.677-1.217a3.484,3.484,0,0,0,.267-.786,6.731,6.731,0,0,1,.813.321.172.172,0,0,1,.123.157q0,.068-.123.164a1.064,1.064,0,0,0-.287.383q-.5.848-.588.978h2.338l1.839-.027a.1.1,0,0,1,.109.109ZM9.16,8.349q0,.109-.1.109l-1.4-.027H6.214l-1.381.027q-.116,0-.116-.109V7.8q0-.109.116-.109l1.381.027H7.656l1.4-.027q.1,0,.1.109Zm-3.35,5.838a.336.336,0,0,1,.021.082q0,.048-.157.13l-.369.185a.6.6,0,0,1-.171.055q-.048,0-.082-.089a5.968,5.968,0,0,0-.67-1.326.188.188,0,0,1-.034-.075q0-.041.15-.109l.362-.164A.383.383,0,0,1,5,12.819q.034,0,.1.082A7.463,7.463,0,0,1,5.811,14.187Zm21.841.28a1.981,1.981,0,0,0-.41.52q-.1.185-.15.185a.434.434,0,0,1-.185-.109,9.069,9.069,0,0,1-3.117-4.806v.95q0,1.142.027,2.434.027.875.027,1.183a2.079,2.079,0,0,1-.075.649.727.727,0,0,1-.287.355,2.839,2.839,0,0,1-1.374.239.507.507,0,0,1-.267-.041.769.769,0,0,1-.082-.239,1.6,1.6,0,0,0-.28-.6,7.663,7.663,0,0,0,.909.055.852.852,0,0,0,.561-.123.567.567,0,0,0,.109-.41V12.771a18.139,18.139,0,0,1-2.229,1.586,1.4,1.4,0,0,0-.444.335.173.173,0,0,1-.144.1.172.172,0,0,1-.15-.082,6.218,6.218,0,0,1-.424-.684,5.5,5.5,0,0,0,.759-.342,17.616,17.616,0,0,0,2.632-1.818V8.937h-1.2l-1.894.027a.1.1,0,0,1-.109-.109V8.294a.1.1,0,0,1,.109-.109l1.894.027H24.78l.1-1.347H22.524l-1.456.027a.1.1,0,0,1-.109-.109V6.236a.1.1,0,0,1,.109-.109l1.456.027h2.393l.1-1.265h-2.8l-1.552.027q-.116,0-.116-.109V4.247q0-.109.116-.109l1.552.027h1.976l1.559-.027a.109.109,0,0,1,.123.123q-.027.219-.048.526-.034.376-.041.438l-.219,2.987L27.3,8.185q.123,0,.123.109v.561q0,.109-.123.109l-1.894-.027H23.871a11.891,11.891,0,0,0,.964,2.55,10.69,10.69,0,0,0,1.2-1.429,2.521,2.521,0,0,0,.308-.547,4.052,4.052,0,0,1,.608.417.323.323,0,0,1,.109.2q0,.068-.157.171a1.885,1.885,0,0,0-.417.4,10.3,10.3,0,0,1-1.306,1.388A7.945,7.945,0,0,0,27.651,14.467Zm-7.725-4.409q0,.109-.116.109l-1.456-.027h-.321v3.869a17.042,17.042,0,0,0,1.682-.649,2.2,2.2,0,0,0-.068.52.411.411,0,0,1-.062.273.57.57,0,0,1-.205.1q-1.429.554-3.322,1.094a1.752,1.752,0,0,0-.52.212.333.333,0,0,1-.185.082.153.153,0,0,1-.164-.109q-.1-.246-.267-.772a8.4,8.4,0,0,0,1.066-.178q.978-.239,1.271-.328V10.14h-.547l-1.456.027a.1.1,0,0,1-.109-.109V9.524a.1.1,0,0,1,.109-.109l1.456.027h.547V7.918h-.1l-1.189.027q-.116,0-.116-.13v-.5a.1.1,0,0,1,.116-.116l1.189.027h1.08L19.421,7.2q.109,0,.109.116v.5q0,.13-.109.13l-1.176-.027h-.212V9.442h.321l1.456-.027q.116,0,.116.109Zm.232-3.985a1,1,0,0,0-.362.444q-.1.185-.144.185a1.16,1.16,0,0,1-.212-.144A10.816,10.816,0,0,1,17.808,4.7,12.423,12.423,0,0,1,15.34,7.487a.546.546,0,0,1-.205.109q-.082,0-.144-.185a1.241,1.241,0,0,0-.321-.485A8.657,8.657,0,0,0,17.145,4.22a2.053,2.053,0,0,0,.3-.752,4.523,4.523,0,0,1,.807.226q.144.041.144.123a.216.216,0,0,1-.13.185l-.109.082A9.861,9.861,0,0,0,20.159,6.072Zm-3.568,7.109q.007.055.007.068,0,.062-.15.123l-.335.144a.478.478,0,0,1-.137.034q-.062,0-.075-.1a10.431,10.431,0,0,0-.472-2.167.207.207,0,0,1-.021-.075q0-.055.171-.116l.294-.116a.559.559,0,0,1,.137-.034q.041,0,.075.075A11.889,11.889,0,0,1,16.591,13.182Zm3.37-2.017a.236.236,0,0,1-.109.164.979.979,0,0,0-.212.4q-.232.718-.451,1.23-.068.2-.123.2a.466.466,0,0,1-.15-.062,2.436,2.436,0,0,0-.437-.137,9.51,9.51,0,0,0,.547-1.654,2.009,2.009,0,0,0,.068-.526,6.21,6.21,0,0,1,.745.246Q19.961,11.09,19.961,11.165Zm2.215.123a.207.207,0,0,1,.021.075q0,.041-.123.137l-.28.226a.732.732,0,0,1-.164.1q-.034,0-.082-.1a6.081,6.081,0,0,0-1.053-1.668.112.112,0,0,1-.041-.068q0-.041.123-.13l.294-.191a.279.279,0,0,1,.123-.068q.041,0,.1.068A8.212,8.212,0,0,1,22.176,11.288ZM32.382,7.439a41.522,41.522,0,0,1-2.646,7.841l-.923-.362a37.252,37.252,0,0,0,2.563-7.41q-.848.062-2.577.226l-.055-.882q.513-.034,1.518-.1l1.313-.089q.26-1.183.533-2.782l.991.137q-.308,1.6-.533,2.591.786-.055,1.429-.055a1.428,1.428,0,0,1,1.278.567,3.662,3.662,0,0,1,.4,1.982,19.506,19.506,0,0,1-.437,4.97,1.777,1.777,0,0,1-.636,1,1.828,1.828,0,0,1-1.073.28,9.249,9.249,0,0,1-1.422-.109l-.171-.978a6.216,6.216,0,0,0,1.244.164,1.47,1.47,0,0,0,.745-.144.9.9,0,0,0,.335-.485,16.428,16.428,0,0,0,.444-4.566,3.52,3.52,0,0,0-.219-1.538.713.713,0,0,0-.677-.321Q33.168,7.385,32.382,7.439ZM36.49,3.447l.711-.28A19.25,19.25,0,0,1,38.24,5.539l-.759.308A14.765,14.765,0,0,0,36.49,3.447Zm1.5-.472.7-.253a11.327,11.327,0,0,1,.991,2.3l-.725.294A13.487,13.487,0,0,0,37.987,2.976ZM35.677,5.819l.882-.451A16.879,16.879,0,0,1,38.965,10.2l-.978.458A14.513,14.513,0,0,0,35.677,5.819ZM52.821,13.53a2.247,2.247,0,0,1-.588,1.668,2.2,2.2,0,0,1-.882.349,8.439,8.439,0,0,1-1.456.1,8.355,8.355,0,0,1-1.518-.1,1.047,1.047,0,0,1-.608-.294,1.184,1.184,0,0,1-.232-.54,5.733,5.733,0,0,1-.048-.875V10.454H45.527a5.622,5.622,0,0,1-1.107,3.521,6.227,6.227,0,0,1-2.994,1.88q-.2.055-.212.055-.075,0-.191-.226a2.162,2.162,0,0,0-.451-.5A6.286,6.286,0,0,0,43.7,13.53a4.846,4.846,0,0,0,.95-3.076H42.9L41,10.481q-.109,0-.109-.123V9.764A.1.1,0,0,1,41,9.654l1.894.027h7.629l1.894-.027a.1.1,0,0,1,.109.109v.595q0,.123-.109.123l-1.894-.027H48.357V13.64a1.936,1.936,0,0,0,.137.964q.164.212,1.641.212a2.946,2.946,0,0,0,1.47-.239A.865.865,0,0,0,51.933,14a6.825,6.825,0,0,0,.089-1.06,1.775,1.775,0,0,0,.561.28.78.78,0,0,1,.205.075.154.154,0,0,1,.041.123Q52.828,13.455,52.821,13.53ZM52.3,7.836q0,.109-.116.109h-.643a.1.1,0,0,1-.109-.109V5.778H41.945V7.836q0,.109-.116.109h-.643a.1.1,0,0,1-.109-.109l.027-1.5V5.874L41.077,5.1a.1.1,0,0,1,.109-.109l1.935.027H46.17v-.2a7.318,7.318,0,0,0-.1-1.442q.513.027.909.089.171.021.171.109a.9.9,0,0,1-.089.253,4.825,4.825,0,0,0-.055.991v.2h3.247l1.928-.027q.116,0,.116.109l-.027.677v.561Zm-2.126.171q0,.109-.1.109l-1.818-.027H45.117L43.3,8.116a.1.1,0,0,1-.109-.109V7.426q0-.123.109-.123l1.818.027h3.138L50.073,7.3q.1,0,.1.123ZM66.192,4.883a.23.23,0,0,1-.157.232,2.483,2.483,0,0,0-.479.321,25.942,25.942,0,0,1-4.129,2.98v3.938l.027,1.764a1.871,1.871,0,0,1-.137.8,1.345,1.345,0,0,1-.308.376,1.752,1.752,0,0,1-1,.335q-.4.041-1.5.041a.507.507,0,0,1-.267-.041.874.874,0,0,1-.089-.253,1.693,1.693,0,0,0-.294-.684q.67.068,1.894.068.772,0,.772-.854V9.456a10.971,10.971,0,0,0-.13-2q.157.027.827.1a22.235,22.235,0,0,0,3.445-2.488H57.75l-1.935.027q-.109,0-.109-.123V4.3a.1.1,0,0,1,.109-.109l1.935.027h7.164a.969.969,0,0,0,.383-.055.322.322,0,0,1,.137-.041q.123,0,.417.294Q66.192,4.753,66.192,4.883Zm3.336-.916h1.046q-.239,7.191-.239,8.668a2.136,2.136,0,0,0,.458,1.579,2.222,2.222,0,0,0,1.545.424,3.218,3.218,0,0,0,2.44-.943A5.471,5.471,0,0,0,76,11.021l.95.479q-.93,4.074-4.58,4.074a3.2,3.2,0,0,1-2.4-.718,3.1,3.1,0,0,1-.608-2.153q0-.766.062-3.753Q69.5,5.334,69.528,3.967Zm11.266,2.98q-1.155.062-2.365.062V6.127q1.4,0,2.509-.062.191-1.422.267-2.447l1.032.1q-.109,1.025-.321,2.311,1.36-.089,3.1-.239l.014.882q-1.429.15-3.254.239a53.168,53.168,0,0,1-2.208,8.524l-.978-.335A47.881,47.881,0,0,0,80.794,6.947Zm1.709,5.38.868.068a3.679,3.679,0,0,0-.082.786,1.075,1.075,0,0,0,.513,1.08,4.218,4.218,0,0,0,1.559.191,16.519,16.519,0,0,0,2.167-.109l.055.964q-.834.082-2.044.082a4.645,4.645,0,0,1-2.5-.472,1.737,1.737,0,0,1-.636-1.531A5.222,5.222,0,0,1,82.5,12.327Zm.711-2.994V8.4a40.056,40.056,0,0,1,4.259-.191v.9A32.162,32.162,0,0,0,83.214,9.333Zm8.224-4.819.4-.8A21.8,21.8,0,0,1,96.2,4.979l-.5.868A20.869,20.869,0,0,0,91.438,4.514Zm-.294,1.723q-.328,3.261-.4,4.259l-.144.766.321-.52A4.925,4.925,0,0,1,92.6,9.47a4.268,4.268,0,0,1,1.777-.39,3.349,3.349,0,0,1,2.406.82,2.66,2.66,0,0,1,.786,2.017,3.2,3.2,0,0,1-.485,1.839,3.371,3.371,0,0,1-1.2,1.019,6.8,6.8,0,0,1-2.092.615,18.516,18.516,0,0,1-2.386.226l-.321-.937a9.7,9.7,0,0,0,4.074-.7,2.554,2.554,0,0,0,1.046-.889,2.462,2.462,0,0,0,.294-1.265,1.793,1.793,0,0,0-.615-1.415,2.145,2.145,0,0,0-1.456-.485,3.916,3.916,0,0,0-2.953,1.408,4.063,4.063,0,0,0-.766,1.21l-1.039-.185q.1-2.01.492-6.262ZM100,12.478a14.948,14.948,0,0,1,1.641,1.531,10.045,10.045,0,0,1,1.169,1.483l-.923.684a11.119,11.119,0,0,0-2.7-3.035Zm12.817-6.884q-.027-1.176-.027-1.853h1V5.553q1.7-.062,3.37-.267v.868q-1.531.185-3.356.253l.041,2.01q1.935-.089,3.247-.26v.868q-1.538.171-3.233.232.014.335.062,1.449.027.745.048,1.2a10.066,10.066,0,0,1,3.726,2.372l-.7.861a9.516,9.516,0,0,0-3.015-2.249v.15a2.184,2.184,0,0,1-2.475,2.468,3.271,3.271,0,0,1-2.017-.5,1.7,1.7,0,0,1-.6-1.436,1.679,1.679,0,0,1,.8-1.449,3.138,3.138,0,0,1,1.832-.5,8.4,8.4,0,0,1,1.47.1q-.048-.848-.1-2.427-1.825.048-3.644,0V8.451q1.7.055,3.63.014-.027-.383-.034-1.087-.014-.663-.027-.943-2.105.041-3.794-.027V5.566Q110.708,5.642,112.813,5.594Zm.171,7.055a5.407,5.407,0,0,0-1.374-.185q-1.832,0-1.832,1.107,0,1.066,1.654,1.066,1.552,0,1.552-1.866ZM125.556,6.5q-.021,1.518,0,3.035a5.324,5.324,0,0,1,.308,1.777,3.687,3.687,0,0,1-1.306,3.069,7.744,7.744,0,0,1-3.274,1.271l-.588-.841a6.334,6.334,0,0,0,3.411-1.381,2.741,2.741,0,0,0,.807-1.88,1.856,1.856,0,0,1-1.8.882,2.2,2.2,0,0,1-1.531-.574,2.082,2.082,0,0,1-.67-1.62,2.07,2.07,0,0,1,.793-1.736,2.469,2.469,0,0,1,1.559-.492,2,2,0,0,1,1.36.39q-.027-1.312-.027-1.873-2.249.034-5.435.239l-.014-.9q2.584-.1,5.435-.171V3.8l1,.014q0,.629-.027,1.859,2.324-.027,3.363-.027v.9q-1.135-.041-2.372-.041Zm-2.338,2.3a1.322,1.322,0,0,0-.984.4,1.413,1.413,0,0,0-.39,1.046,1.237,1.237,0,0,0,.444,1,1.288,1.288,0,0,0,.848.294,1.405,1.405,0,0,0,1.1-.41,1.3,1.3,0,0,0,.314-.916Q124.551,8.8,123.218,8.8Zm3.247-5.6.684-.28a14.548,14.548,0,0,1,1,2.235l-.731.308A13.643,13.643,0,0,0,126.465,3.2Zm1.654-.226.7-.253a11.566,11.566,0,0,1,1,2.3l-.731.294A13.487,13.487,0,0,0,128.119,2.976Zm10.548,4.45q.021,2.769.123,4.689a7.23,7.23,0,0,1,2.468,1.832l-.677.841a6.685,6.685,0,0,0-1.791-1.634,2.112,2.112,0,0,1-.7,1.764,2.5,2.5,0,0,1-1.647.5q-2.42,0-2.42-1.9a1.583,1.583,0,0,1,.725-1.34,2.691,2.691,0,0,1,1.586-.451,6.841,6.841,0,0,1,1.483.15Q137.724,10,137.7,7.467q-1.907.062-3.821.041V6.626q1.7.055,3.808-.014V4.035h1q-.014.841-.014,2.522.875-.048,2.249-.185v.882Q139.918,7.357,138.667,7.426Zm-.854,5.407a4.28,4.28,0,0,0-1.545-.28,1.734,1.734,0,0,0-.964.253.806.806,0,0,0-.4.711q0,1.053,1.511,1.053a1.26,1.26,0,0,0,1.114-.526,1.833,1.833,0,0,0,.287-1.073Zm-4.819-8.668a41.313,41.313,0,0,0-.841,6.87,33.206,33.206,0,0,0,.335,4.341l-.978.089q-.321-3.117-.321-4.457a30.522,30.522,0,0,1,.287-3.685q.226-1.764.526-3.24Zm17.343,1.593a13.225,13.225,0,0,1-1.367,5.927,8.91,8.91,0,0,1-5.113,3.9l-.588-.841A8.527,8.527,0,0,0,147.82,11.5a10.554,10.554,0,0,0,1.367-5.742h-6.535V4.821h6.706a1.431,1.431,0,0,1-.1-.547,1.5,1.5,0,0,1,.513-1.162,1.53,1.53,0,0,1,1.053-.4,1.5,1.5,0,0,1,1.162.513,1.53,1.53,0,0,1,.4,1.053,1.559,1.559,0,0,1-1.565,1.572A1.366,1.366,0,0,1,150.336,5.758Zm.492-2.447a.939.939,0,0,0-.725.314.954.954,0,0,0-.239.649.939.939,0,0,0,.314.725.923.923,0,0,0,.649.246.939.939,0,0,0,.725-.314.963.963,0,0,0,.239-.656.954.954,0,0,0-.964-.964Zm3.056,11.607V4.9h7.308V14.918Zm6.228-.943V5.847H154.95v8.128Zm3.336-9.153h7.711q-.041,5.011-1.8,7.506a9.622,9.622,0,0,1-4.7,3.261l-.588-.841a8.527,8.527,0,0,0,4.553-3.247,10.554,10.554,0,0,0,1.367-5.742h-6.535ZM176.436,9.75a29.849,29.849,0,0,1-3.274,1.962l-.588-.8a17.911,17.911,0,0,0,6.412-4.97l.854.643a15.86,15.86,0,0,1-2.379,2.379v6.61h-1.025Zm4.73-.492h7.615V10.3h-7.615Zm15.169,4.58a10.457,10.457,0,0,0,3.637-4.812l.718.937a12.739,12.739,0,0,1-4.819,5.489l-.6-.314V4.247h1.066Zm-2.98-9.5q0,3.979-.137,5.742a10.742,10.742,0,0,1-.4,2.352,6.553,6.553,0,0,1-2.044,3.015l-.813-.636a5.191,5.191,0,0,0,1.907-2.782,13.31,13.31,0,0,0,.349-2.878q.068-1.552.068-4.812Zm14.205,6.275v2.769h-.937V11.049q-.321.164-.663.355-1.791,1.012-1.791,2.03a.927.927,0,0,0,.629.943,6.4,6.4,0,0,0,2.078.232q1.47,0,3.411-.171l.041.95q-2.55.13-3.384.13a5.879,5.879,0,0,1-2.967-.513,1.772,1.772,0,0,1-.7-1.6,3.066,3.066,0,0,1,1.88-2.55q.711-.4,1.456-.772-.068-1.312-.909-1.312-1.176,0-3.227,2.365l-.725-.643a16.349,16.349,0,0,0,2.9-4.136q-1.278.021-2.563,0V5.5q1.477.027,2.953,0a12.511,12.511,0,0,0,.629-1.873l1.012.185a14.378,14.378,0,0,1-.588,1.647q1.969-.062,3.739-.239l.027.854q-2.3.185-4.143.239a14.3,14.3,0,0,1-1.176,1.989l-.355.362.041.055a2.492,2.492,0,0,1,1.668-.711,1.521,1.521,0,0,1,1.114.424,1.982,1.982,0,0,1,.526,1.217q1.094-.5,2.844-1.237l.39.957Q208.489,10.208,207.56,10.618Zm17.165,2.618a2.852,2.852,0,0,1-.615,1.859,1.831,1.831,0,0,1-.937.458,8.094,8.094,0,0,1-1.559.116,6.581,6.581,0,0,1-1.34-.1,1.044,1.044,0,0,1-.574-.294,2.245,2.245,0,0,1-.335-1.442V9.723q-.533.048-1.866.137a11,11,0,0,1-.226,2.181,5.846,5.846,0,0,1-.615,1.449,5.788,5.788,0,0,1-3.329,2.338.951.951,0,0,1-.212.041q-.1,0-.226-.2a1.682,1.682,0,0,0-.431-.5,5.31,5.31,0,0,0,3.486-2.146,4.971,4.971,0,0,0,.554-1.408,9.157,9.157,0,0,0,.144-1.7L214.97,10a4.454,4.454,0,0,0-1.053.109.526.526,0,0,1-.2.068q-.123,0-.164-.185-.1-.4-.185-.861.52.034.964.034.219,0,.465-.007l.684-.014a21.065,21.065,0,0,0,1.777-2.816h-2.7l-1.846.027q-.116,0-.116-.123V5.587q0-.109.116-.109l1.846.027h3.473V5.211a9.72,9.72,0,0,0-.1-1.641q.608.027.937.075.185.021.185.123a.9.9,0,0,1-.089.253,5.5,5.5,0,0,0-.068,1.2V5.5h3.753l1.846-.027q.116,0,.116.109v.649q0,.123-.116.123l-1.846-.027H218.3q-.984,1.675-1.791,2.775,2.878-.116,5.134-.328a13.683,13.683,0,0,0-1.162-1.114q-.055-.055-.055-.082t.1-.13l.335-.253a.263.263,0,0,1,.13-.055.2.2,0,0,1,.109.055,16.527,16.527,0,0,1,2.543,2.775.165.165,0,0,1,.041.089q0,.048-.1.116l-.39.28a.408.408,0,0,1-.178.1q-.041,0-.089-.068-.376-.588-.718-1.025-.67.068-1.982.185v3.972a1.973,1.973,0,0,0,.15,1q.185.239,1.429.239a2.565,2.565,0,0,0,1.7-.376,3.219,3.219,0,0,0,.4-1.846,1.965,1.965,0,0,0,.574.28q.246.075.246.232A.564.564,0,0,1,224.725,13.236Zm14.123,1.777a2.1,2.1,0,0,0-.349.588q-.089.239-.2.239-.027,0-.191-.027a8.042,8.042,0,0,1-5.646-3.486,4.222,4.222,0,0,1-.458.8,5.719,5.719,0,0,1-2,1.668,12.425,12.425,0,0,1-2.741.991.951.951,0,0,1-.212.041q-.1,0-.2-.239a1.523,1.523,0,0,0-.349-.533q3.664-.677,4.86-2.434a5.225,5.225,0,0,0,.321-.6h-2.762l-1.887.027q-.116,0-.116-.109v-.547q0-.109.116-.109l1.887.027h2.987a10.819,10.819,0,0,0,.15-1.292h-1.4l-1.9.027q-.116,0-.116-.109v-.52q0-.123.116-.123l1.9.027h1.429l.014-1.237h-1.565l-1.935.027A.1.1,0,0,1,228.491,8V7.467a.1.1,0,0,1,.109-.109l1.935.027H232.1a11.661,11.661,0,0,0-.1-1.333,6.023,6.023,0,0,1,.854.089q.226.048.226.137a1.517,1.517,0,0,1-.1.308,3.3,3.3,0,0,0-.055.8h1.736l1.921-.027a.1.1,0,0,1,.109.109V8a.1.1,0,0,1-.109.109l-1.921-.027h-1.736q0,.875-.014,1.237h1.613l1.9-.027q.109,0,.109.123v.52a.1.1,0,0,1-.109.109l-1.9-.027h-1.641a8.081,8.081,0,0,1-.13,1.292h3.657l1.907-.027a.1.1,0,0,1,.109.109v.547a.1.1,0,0,1-.109.109l-1.907-.027h-3.261Q234.767,14.426,238.848,15.014Zm-.6-7.321q0,.116-.109.116h-.649q-.109,0-.109-.116v-2h-9.557v2q0,.116-.109.116h-.649q-.109,0-.109-.116l.027-1.463V5.778l-.027-.745a.1.1,0,0,1,.109-.109l1.948.027h3.063V4.78a6.675,6.675,0,0,0-.109-1.429q.444.021.937.075.171.021.171.109a1.327,1.327,0,0,1-.089.267,4.105,4.105,0,0,0-.068.978v.171H236.2l1.935-.027a.1.1,0,0,1,.109.109l-.027.663v.533Zm6.316-.561q-1.682.171-3.937.239l-.055-.9a34.669,34.669,0,0,0,3.623-.185,23.558,23.558,0,0,1-.779-2.42l1.032-.13a17.685,17.685,0,0,0,.759,2.44,28.98,28.98,0,0,0,2.953-.52l.109.9q-1.1.246-2.714.465a14.924,14.924,0,0,0,2.7,4.061l-.6.868a6.488,6.488,0,0,0-3.37-.957,3.2,3.2,0,0,0-2.071.6,1.5,1.5,0,0,0-.6,1.2q0,1.8,3.527,1.8a10.949,10.949,0,0,0,1.873-.144l.014.978a14.375,14.375,0,0,1-1.9.116,7.033,7.033,0,0,1-3.281-.6,2.223,2.223,0,0,1-1.217-2.1,2.317,2.317,0,0,1,1.3-2.153,4.746,4.746,0,0,1,2.317-.526,5.215,5.215,0,0,1,2.7.547A11.752,11.752,0,0,1,244.563,7.132Zm12.373.711q-1.989.089-3.931.212-.041,1.723-.041,3.083a15.212,15.212,0,0,0,.109,2.488,1.01,1.01,0,0,0,.745.67,6.091,6.091,0,0,0,1.675.171,32.991,32.991,0,0,0,3.363-.164v.978q-1.743.1-3.336.1a6.145,6.145,0,0,1-2.536-.383,1.543,1.543,0,0,1-.848-1.019,14.346,14.346,0,0,1-.13-2.611q0-.854.034-3.24-1.456.116-2.2.185V7.4l1.2-.082q.643-.041,1.019-.075.027-.984.055-3.008h.978q-.062,2.3-.068,2.953,2.687-.144,3.931-.191.027-1.08,0-3.24h.984q0,1.579-.041,3.192.355-.014,1.128-.034.656-.021,1.012-.034v.9l-2.153.041q-.048,1.675-.171,2.912-.13,1.36-1.271,1.36a4.812,4.812,0,0,1-1.907-.376V10.687a3.665,3.665,0,0,0,1.668.41q.492,0,.574-.7Q256.895,9.319,256.936,7.843Zm9.071-2.249q-.027-1.176-.027-1.853h1V5.553q1.7-.062,3.37-.267v.868q-1.531.185-3.356.253l.041,2.01q1.935-.089,3.247-.26v.868q-1.538.171-3.233.232.014.335.062,1.449.027.745.048,1.2a10.066,10.066,0,0,1,3.726,2.372l-.7.861a9.516,9.516,0,0,0-3.015-2.249v.15a2.184,2.184,0,0,1-2.475,2.468,3.271,3.271,0,0,1-2.017-.5,1.7,1.7,0,0,1-.6-1.436,1.679,1.679,0,0,1,.8-1.449,3.138,3.138,0,0,1,1.832-.5,8.4,8.4,0,0,1,1.47.1q-.048-.848-.1-2.427-1.825.048-3.644,0V8.451q1.7.055,3.63.014-.027-.383-.034-1.087-.014-.663-.027-.943-2.105.041-3.794-.027V5.566Q263.9,5.642,266.007,5.594Zm.171,7.055a5.407,5.407,0,0,0-1.374-.185q-1.832,0-1.832,1.107,0,1.066,1.654,1.066,1.552,0,1.552-1.866Zm7.116-8.682h1.046q-.239,7.191-.239,8.668a2.136,2.136,0,0,0,.458,1.579,2.222,2.222,0,0,0,1.545.424,3.218,3.218,0,0,0,2.44-.943,5.471,5.471,0,0,0,1.217-2.673l.95.479q-.93,4.074-4.58,4.074a3.2,3.2,0,0,1-2.4-.718,3.1,3.1,0,0,1-.608-2.153q0-.766.062-3.753Q273.267,5.334,273.294,3.967Zm12.578,5.154q.021,1.162.171,3.247a9.291,9.291,0,0,1,3.124,1.887l-.615.745a7.983,7.983,0,0,0-2.454-1.736q.014.2.014.438a1.559,1.559,0,0,1-.656,1.347,2.251,2.251,0,0,1-1.347.383q-2.153,0-2.153-1.565a1.477,1.477,0,0,1,.69-1.244,2.651,2.651,0,0,1,1.606-.465,6.685,6.685,0,0,1,.882.055q-.178-2.461-.2-6.426h.937q-.014.841-.014,2.536a28.509,28.509,0,0,0,2.885-.2V8.95Q287.663,9.073,285.872,9.121Zm-.711,3.9a5.762,5.762,0,0,0-.964-.1,1.834,1.834,0,0,0-1.073.287.723.723,0,0,0-.355.608q0,.8,1.285.8,1.121,0,1.121-1.066Q285.175,13.209,285.161,13.024ZM292.209,3.7a32.631,32.631,0,0,0,4.86.827l-.239.95a42.05,42.05,0,0,1-4.888-.868Zm-1.538,3.938a15.887,15.887,0,0,1,4.115-.718q2.687,0,2.687,3.363a5.049,5.049,0,0,1-1.347,3.767,7.448,7.448,0,0,1-3.37,1.675l-.52-.848a6.683,6.683,0,0,0,3.206-1.613,4.374,4.374,0,0,0,.971-3.049q0-2.386-1.682-2.386a13.446,13.446,0,0,0-3.7.786Zm11.006,4.689a1.915,1.915,0,0,1,1.463.643A1.916,1.916,0,0,1,303,15.718a1.936,1.936,0,0,1-1.319.5,1.9,1.9,0,0,1-1.463-.643,1.916,1.916,0,0,1,.144-2.748A1.936,1.936,0,0,1,301.677,12.327Zm0,.7a1.269,1.269,0,0,0-1.251,1.251,1.253,1.253,0,0,0,2.181.834,1.247,1.247,0,0,0-.93-2.085Zm19.749.41a3.38,3.38,0,0,1-.273,1.326,1.687,1.687,0,0,1-.437.479,5.82,5.82,0,0,1-2.9.417,10.217,10.217,0,0,1-1.579-.082,1.571,1.571,0,0,1-.67-.253,1.354,1.354,0,0,1-.4-1.135V10.6q-.4.123-.69.232l-.205.075a.225.225,0,0,1-.068.014q-.075,0-.1-.109l-.137-.533a.157.157,0,0,1-.014-.055q0-.055.1-.075.4-.075,1.121-.28V9.162a11.047,11.047,0,0,0-.082-1.613,8.3,8.3,0,0,1,.827.075q.164.021.164.109a.724.724,0,0,1-.068.253A4.439,4.439,0,0,0,315.943,9v.649l1.422-.424V8.615a10.81,10.81,0,0,0-.1-1.7A6.273,6.273,0,0,1,318.1,7q.157.021.157.137a1.461,1.461,0,0,1-.055.226,4.022,4.022,0,0,0-.082,1.046V9l1-.308q.7-.2,1.258-.4.342-.116.369-.123h.021q.075,0,.075.1l-.027.643A16.708,16.708,0,0,1,320.5,12.1a.857.857,0,0,1-.868.663q-.123.007-.273.007-.219,0-.479-.021-.123-.014-.15-.055a.573.573,0,0,1-.048-.2,1.437,1.437,0,0,0-.185-.567,3.64,3.64,0,0,0,.882.116.4.4,0,0,0,.438-.349,16.324,16.324,0,0,0,.239-2.563l-1.935.588v1.887l.027,1.6a.1.1,0,0,1-.109.109h-.595a.1.1,0,0,1-.109-.109l.027-1.6V9.948l-1.422.417v3.206a4.378,4.378,0,0,0,.048.813.406.406,0,0,0,.178.287,4.189,4.189,0,0,0,1.716.2,13.123,13.123,0,0,0,1.729-.075,1.232,1.232,0,0,0,.595-.219,1.052,1.052,0,0,0,.349-.622,6.746,6.746,0,0,0,.1-1.169,1.361,1.361,0,0,0,.547.28q.226.062.226.253Q321.433,13.359,321.426,13.435Zm-7.191-6.973a.1.1,0,0,1-.116.116l-1.552-.034H311.35q-.027,1.285-.055,1.921h1.388l.868-.027a.109.109,0,0,1,.123.123q-.014.26-.027.779-.021.595-.027.9a22.077,22.077,0,0,1-.308,4.033,2.024,2.024,0,0,1-.485,1.053,1.214,1.214,0,0,1-.861.287q-.431,0-.7-.014-.157-.014-.191-.062a.694.694,0,0,1-.048-.232,1.711,1.711,0,0,0-.2-.615,5.739,5.739,0,0,0,1.053.109.535.535,0,0,0,.52-.294,3.454,3.454,0,0,0,.191-.813,33.651,33.651,0,0,0,.267-4.484h-1.593a18.5,18.5,0,0,1-.54,3.773,8.716,8.716,0,0,1-1.169,2.536q-.109.15-.157.15t-.164-.123a1.806,1.806,0,0,0-.506-.437,7.835,7.835,0,0,0,1.524-3.671,34.938,34.938,0,0,0,.308-4.895l-1.511.034q-.1,0-.1-.116V5.874a.085.085,0,0,1,.1-.1l1.565.027h.916V4.869a6.96,6.96,0,0,0-.1-1.442q.54.021.909.068.185.021.185.123a.864.864,0,0,1-.082.253,3.336,3.336,0,0,0-.089,1v.937h.226l1.538-.027q.116,0,.116.1Zm7.082-.191a.1.1,0,0,1-.109.109l-1.668-.027h-3.979a10.352,10.352,0,0,1-1.23,1.764q-.116.144-.191.144t-.2-.157a1.274,1.274,0,0,0-.41-.294,8.669,8.669,0,0,0,2.092-3.473,4.21,4.21,0,0,0,.178-.943q.526.1.8.185.157.041.157.157a.332.332,0,0,1-.082.164,1.884,1.884,0,0,0-.267.574q-.26.7-.451,1.121h3.582l1.668-.027a.1.1,0,0,1,.109.109ZM9.242,32.207q0,.109-.116.109L7.67,32.289H7.253v6.05l.027,2.42a.1.1,0,0,1-.109.109H6.521a.1.1,0,0,1-.109-.109l.027-2.406V32.289H6l-1.47.027a.1.1,0,0,1-.109-.109v-.574q0-.116.109-.116L6,31.544h.438V30.354a11.11,11.11,0,0,0-.1-1.8,8.722,8.722,0,0,1,.9.082q.171.027.171.116a.379.379,0,0,1-.027.123,1.265,1.265,0,0,0-.048.13,6.158,6.158,0,0,0-.082,1.34v1.2H7.67l1.456-.027a.1.1,0,0,1,.116.116Zm4.115.841q0,.123-.116.123L12,33.144h-.068V37.3l.014,2.194a1.172,1.172,0,0,1-.383,1.025,2.85,2.85,0,0,1-1.367.212H9.885q-.219,0-.26-.048a.6.6,0,0,1-.082-.246,2.487,2.487,0,0,0-.219-.595,10.779,10.779,0,0,0,1.258.089q.52-.021.52-.574V33.144h-.383l-1.244.027a.109.109,0,0,1-.123-.123v-.561q0-.116.123-.116l1.244.027H12l1.244-.027a.1.1,0,0,1,.116.116Zm-9.194-.984q0,.082-.13.164a1.094,1.094,0,0,0-.321.41A11.165,11.165,0,0,1,2.987,33.8v5.209l.027,1.8q0,.109-.116.109H2.256a.1.1,0,0,1-.109-.109l.027-1.8V36.5q0-.123.041-1.723A14.386,14.386,0,0,1,1.107,35.9q-.109.109-.164.109-.075,0-.144-.15a1.759,1.759,0,0,0-.321-.506,10.411,10.411,0,0,0,2.577-3.192,3.284,3.284,0,0,0,.267-.684,5.289,5.289,0,0,1,.684.39Q4.163,31.975,4.163,32.063ZM4.2,29.021q0,.1-.13.157a1.182,1.182,0,0,0-.349.335A12.765,12.765,0,0,1,1.251,32.1a.578.578,0,0,1-.2.109q-.062,0-.171-.2a1.73,1.73,0,0,0-.362-.472,9.155,9.155,0,0,0,2.5-2.5,2.091,2.091,0,0,0,.308-.629,4.717,4.717,0,0,1,.738.41Q4.2,28.926,4.2,29.021Zm1.442,5.223a.4.4,0,0,1-.068.185,1.426,1.426,0,0,0-.144.547,13.911,13.911,0,0,1-.882,3.493q-.055.171-.13.171a.565.565,0,0,1-.178-.068,1.67,1.67,0,0,0-.547-.164,11.343,11.343,0,0,0,.957-3.432q.027-.342.027-.636a2.832,2.832,0,0,0-.021-.362,6.191,6.191,0,0,1,.8.116Q5.646,34.128,5.646,34.244Zm4.04,3.486a.112.112,0,0,0,.007.027v.021q0,.075-.144.137l-.39.137a.66.66,0,0,1-.171.048q-.062,0-.068-.1a21.241,21.241,0,0,0-.8-3.726.29.29,0,0,1-.014-.068q0-.048.144-.1l.376-.13a.4.4,0,0,1,.1-.021q.055,0,.082.1A22.954,22.954,0,0,1,9.687,37.73Zm3.35-7.588q0,.116-.1.116l-1.094-.027h-.909l-1.094.027q-.109,0-.109-.116v-.588a.1.1,0,0,1,.109-.109l1.094.027h.909l1.094-.027q.1,0,.1.109Zm-3.767.267a.207.207,0,0,1,.021.075q0,.055-.1.123l-.28.178a.524.524,0,0,1-.171.089q-.041,0-.082-.089A6.68,6.68,0,0,0,7.813,29.4a.166.166,0,0,1-.041-.082q0-.041.109-.1l.308-.171a.445.445,0,0,1,.123-.041.114.114,0,0,1,.075.041A6.778,6.778,0,0,1,9.27,30.409Zm9.83,4.676a27.762,27.762,0,0,0-3.192-2.81l.684-.649a35.426,35.426,0,0,1,2.98,2.522,19.8,19.8,0,0,0,1.49-4.874l1.087.226a22.439,22.439,0,0,1-1.777,5.435,21.946,21.946,0,0,1,2.536,3.158l-.868.718A22.085,22.085,0,0,0,19.852,35.9a12.72,12.72,0,0,1-4.676,4.7l-.7-.7A12,12,0,0,0,19.1,35.085Zm6.563-4.662h6.959v.984H25.662Zm-.923,8.08h8.723v.978H24.739ZM40.77,39h2.071V39.9H34.863V39H39.71l.526-6.152H35.984v-.909h5.4Zm3.288-4.737h7.615V35.3H44.058Zm16.427-3.274a3.552,3.552,0,0,1,.362-.014,2.4,2.4,0,0,1,2.023.93,2.83,2.83,0,0,1,.554,1.771,2.543,2.543,0,0,1-.978,2.194,3.92,3.92,0,0,1-2.358.622q-.349,0-.882-.027l-.15-.95q.759.055,1.148.055,2.181,0,2.181-1.853a1.982,1.982,0,0,0-.567-1.538,1.546,1.546,0,0,0-1.066-.39,14.2,14.2,0,0,0-4.074.95q1.012,3.794,1.859,7.731l-1,.205q-.813-3.931-1.791-7.615-.82.28-2.146.786l-.349-.868q1.914-.649,2.256-.759-.267-.978-.827-2.939l.964-.253.438,1.559q.226.793.376,1.326a23.04,23.04,0,0,1,2.98-.827,19.409,19.409,0,0,0-1.019-2.058l.9-.335A20.619,20.619,0,0,1,60.484,30.983Zm16.55,9.365q0,.109-.116.109l-1.887-.027H67.443l-1.894.027a.1.1,0,0,1-.109-.109V39.74a.1.1,0,0,1,.109-.109l1.894.027H70.7V36H67.915l-1.928.027q-.116,0-.116-.109v-.595q0-.109.116-.109l1.928.027H70.7v-1.75H69.85l-1.75.014q-.109,0-.109-.1v-.588a.1.1,0,0,1,.109-.109l1.75.027H72.6l1.771-.027a.1.1,0,0,1,.109.109V33.4q0,.1-.109.1L72.6,33.492H71.572v1.75h3.035l1.935-.027a.1.1,0,0,1,.109.109v.595a.081.081,0,0,1-.109.109L74.607,36H71.572v3.657h3.459l1.887-.027q.116,0,.116.109ZM77.9,33a1.6,1.6,0,0,0-.41.547q-.116.212-.185.212a1.126,1.126,0,0,1-.219-.068,13.179,13.179,0,0,1-5.913-4.3,14.409,14.409,0,0,1-5.708,4.437.7.7,0,0,1-.2.062q-.068,0-.191-.191a1.314,1.314,0,0,0-.451-.431A13.147,13.147,0,0,0,70.4,28.98a3.041,3.041,0,0,0,.4-.779,4.172,4.172,0,0,1,.9.191q.2.068.2.185,0,.068-.1.123a.379.379,0,0,0-.13.089,11.238,11.238,0,0,0,3.049,2.769A15.984,15.984,0,0,0,77.9,33Zm-2.762,3.992q0,.068-.137.178a1.049,1.049,0,0,0-.226.342,13.26,13.26,0,0,1-1,1.675q-.116.144-.164.144a.433.433,0,0,1-.2-.1,1.184,1.184,0,0,0-.472-.226,9.909,9.909,0,0,0,1.1-1.88,3.2,3.2,0,0,0,.212-.615,4.029,4.029,0,0,1,.711.294Q75.141,36.91,75.141,36.992ZM69.207,38.64a.268.268,0,0,1,.021.089q0,.062-.137.123l-.431.212a.832.832,0,0,1-.185.075q-.041,0-.068-.089a8.837,8.837,0,0,0-1-2,.133.133,0,0,1-.027-.068q0-.048.157-.13l.376-.164a.631.631,0,0,1,.157-.062q.048,0,.1.075A9.841,9.841,0,0,1,69.207,38.64Zm22.3-8.935q0,.116-.1.116l-1.791-.027H88.512a11.3,11.3,0,0,1-.547,1.4h1.094l1.552-.034q.116,0,.116.109L90.7,32.918v3.6l.027,1.654q0,.109-.116.109l-1.552-.027H87.322l-1.552.027a.1.1,0,0,1-.109-.109l.027-1.654V32.945l-.027-1.675a.1.1,0,0,1,.109-.109l1.36.034a10.656,10.656,0,0,0,.513-1.4h-.629l-1.791.027q-.109,0-.109-.116v-.574a.1.1,0,0,1,.109-.109l1.791.027h2.6l1.791-.027q.1,0,.1.109Zm-1.593,7.834V36.021H86.475v1.518Zm0-4.245v-1.4H86.475v1.4Zm0,2.071v-1.4H86.475v1.4Zm-4.594.547a1.656,1.656,0,0,0-.335.492q-.1.226-.2.226a.52.52,0,0,1-.164-.048,11.147,11.147,0,0,1-2.365-1.408,10.429,10.429,0,0,1-1.606,1.189h2.1l1.271-.027q.116,0,.116.109l-.034.95v.854l.034,1.8q0,.109-.116.109H83.46a.1.1,0,0,1-.109-.109v-.28H80.944v.772q0,.123-.116.123h-.574q-.1,0-.1-.123l.027-2.058v-.827l-.014-1.032q-.492.26-.772.39a.532.532,0,0,1-.191.068q-.089,0-.171-.2a1.2,1.2,0,0,0-.308-.4A9.136,9.136,0,0,0,81.737,34.7a6.977,6.977,0,0,1-1.019-1.312A9.291,9.291,0,0,1,79.707,34.4q-.164.144-.219.144t-.157-.157a1.062,1.062,0,0,0-.349-.349,6.462,6.462,0,0,0,2.085-2.42,2.621,2.621,0,0,0,.2-.622q.39.1.684.2.144.048.144.13,0,.062-.1.137a2.35,2.35,0,0,0-.212.308l-.137.267h1.7A.531.531,0,0,0,83.569,32a.39.39,0,0,1,.13-.027.707.707,0,0,1,.39.239q.2.212.2.321,0,.089-.116.15a.905.905,0,0,0-.28.321,10.783,10.783,0,0,1-1.128,1.654A8.169,8.169,0,0,0,85.319,35.912Zm-1.969,3.22V37.02H80.944v2.112Zm-.075-6.467H81.252l-.13.185a5.725,5.725,0,0,0,1.107,1.367A7.4,7.4,0,0,0,83.275,32.665ZM84.95,32q0,.109-.13.109h-.533A.1.1,0,0,1,84.178,32V30.662H80.1V32q0,.109-.116.109H79.44A.1.1,0,0,1,79.331,32l.027-1.094v-.308l-.027-.52a.1.1,0,0,1,.109-.109l1.641.027H81.7v-.383a5.964,5.964,0,0,0-.1-1.23q.308.014.882.068.185.027.185.13a.823.823,0,0,1-.1.253,2.676,2.676,0,0,0-.068.779v.383h.7l1.627-.027q.13,0,.13.109l-.034.465V30.9Zm2.529,7.178q0,.075-.13.13a1.916,1.916,0,0,0-.335.226A9.052,9.052,0,0,1,84.622,41a.579.579,0,0,1-.212.055q-.075,0-.212-.212a1.194,1.194,0,0,0-.362-.376,7.776,7.776,0,0,0,2.522-1.388,2.151,2.151,0,0,0,.39-.479,3.972,3.972,0,0,1,.615.41Q87.479,39.1,87.479,39.173Zm4.293,1.066a1.369,1.369,0,0,0-.362.444q-.1.2-.185.2a.75.75,0,0,1-.219-.068A9.189,9.189,0,0,1,88.7,39.159a.149.149,0,0,1-.055-.089q0-.048.123-.15l.294-.253a.219.219,0,0,1,.116-.062.183.183,0,0,1,.1.048A7.174,7.174,0,0,0,91.772,40.239ZM96.8,31.113q.82-.068,2.071-.2l.014.868q-1.142.137-2.3.191a38.416,38.416,0,0,1-2.468,6.487l-.909-.424a29.976,29.976,0,0,0,2.379-6.016q-1.135.062-2.27.041l-.027-.868q1.176.041,2.522-.027.273-1.169.465-2.365l1.019.123Q97.1,29.869,96.8,31.113Zm3,5.79q-.123-1.5-.144-3.568h.964q0,1.791.157,3.794a9.263,9.263,0,0,1,2.563,1.6l-.52.95a7.662,7.662,0,0,0-2.017-1.524v.232q0,2.229-2.475,2.229a2.629,2.629,0,0,1-1.846-.581,1.665,1.665,0,0,1-.54-1.292,1.7,1.7,0,0,1,.889-1.5,3.244,3.244,0,0,1,1.757-.458A5.891,5.891,0,0,1,99.8,36.9Zm0,.93a4.031,4.031,0,0,0-1.162-.2,2.4,2.4,0,0,0-1.429.349.867.867,0,0,0-.383.731.886.886,0,0,0,.41.772,1.931,1.931,0,0,0,1.107.273,1.305,1.305,0,0,0,1.47-1.483Zm.055-6.357.444-.8a14.091,14.091,0,0,1,3.192,1.5l-.513.868A12.767,12.767,0,0,0,99.853,31.476Zm9.092,1.9q1.429-.854,3.274-1.818l.5.882a29.874,29.874,0,0,0-4.464,2.5,3.4,3.4,0,0,0-1.709,2.714q0,1.8,2.885,1.8,1.483,0,3.391-.137v1q-2.345.068-3.459.068-3.78,0-3.78-2.755,0-2.085,2.475-3.7-.588-2.14-1.087-5.024L108,28.871A41.148,41.148,0,0,0,108.944,33.376Zm2-4.854.718-.28a18.274,18.274,0,0,1,1.032,2.365l-.752.308A14.831,14.831,0,0,0,110.94,28.522Zm1.586-.492.7-.253a11.566,11.566,0,0,1,1,2.3l-.731.294A13.488,13.488,0,0,0,112.526,28.03Zm3.377,9.447a14.948,14.948,0,0,1,1.641,1.531,10.044,10.044,0,0,1,1.169,1.483l-.923.684a11.119,11.119,0,0,0-2.7-3.035Zm21.041.6q-.15,1.579-.772,1.989a7.29,7.29,0,0,1-3.473.533,11.669,11.669,0,0,1-2.536-.185,1.239,1.239,0,0,1-.978-1.34V34.442q-.54.185-.964.349l-.314.116a.215.215,0,0,1-.082.021q-.055,0-.068-.1l-.144-.67V34.1q0-.041.089-.062a1.093,1.093,0,0,1,.185-.055q.595-.157,1.3-.383V31.715a11.147,11.147,0,0,0-.089-1.559,5.577,5.577,0,0,1,.889.068q.185.021.185.13a.673.673,0,0,1-.075.253,3.3,3.3,0,0,0-.082.991v1.736l1.921-.615V30.58a10.912,10.912,0,0,0-.116-1.88,8.233,8.233,0,0,1,.923.089q.157.021.157.109a2.445,2.445,0,0,1-.055.253,6.991,6.991,0,0,0-.082,1.456v1.846l1.326-.431q.827-.267,1.388-.479.144-.055.294-.116l.1-.041h.034q.082,0,.082.13l-.027,1.032a28.484,28.484,0,0,1-.294,3.514,1.51,1.51,0,0,1-.451.93,1.1,1.1,0,0,1-.711.205q-.267,0-.772-.041-.185-.021-.219-.068a.612.612,0,0,1-.062-.239,1.52,1.52,0,0,0-.185-.547,7.1,7.1,0,0,0,1.066.109.454.454,0,0,0,.4-.205,1.542,1.542,0,0,0,.185-.581,26.94,26.94,0,0,0,.212-3.158l-2.365.786v2.5l.027,2.105q0,.109-.116.109h-.656a.1.1,0,0,1-.109-.109l.027-2.105V33.533l-1.921.629v4.621a.781.781,0,0,0,.643.882,12.55,12.55,0,0,0,2.146.123,5.718,5.718,0,0,0,2.7-.4q.547-.335.6-1.962a3.531,3.531,0,0,0,.615.321q.232.1.232.226a.419.419,0,0,1-.007.055Zm-8.661-9.14q0,.082-.144.2a1.442,1.442,0,0,0-.28.52q-.458,1.2-.95,2.194v6.815l.027,2.174q0,.109-.116.109h-.656a.1.1,0,0,1-.109-.109l.027-2.174V35.126q0-1.23.027-1.887a15.112,15.112,0,0,1-1.278,1.723q-.116.137-.164.137t-.144-.15a1.74,1.74,0,0,0-.376-.533,14.388,14.388,0,0,0,2.912-4.983,3.942,3.942,0,0,0,.212-.957,8.168,8.168,0,0,1,.841.3Q128.283,28.857,128.283,28.939Zm15.743,1.907a22.039,22.039,0,0,1-1.483,7.362,2.1,2.1,0,0,1-1.894,1.483,1.749,1.749,0,0,1-1.606-1.06,6,6,0,0,1-.533-2.789,7.335,7.335,0,0,1,.458-2.618,5.114,5.114,0,0,1,1.039-1.723,4.675,4.675,0,0,1,1.716-1.128,5.426,5.426,0,0,1,1.969-.369,4.139,4.139,0,0,1,3.555,1.5,6.371,6.371,0,0,1,.964,3.808,5.114,5.114,0,0,1-1.121,3.4,5.6,5.6,0,0,1-3.274,1.784l-.485-.841a4.243,4.243,0,0,0,3.835-4.607,4.67,4.67,0,0,0-1.032-3.3A2.809,2.809,0,0,0,144.026,30.847Zm-1.053.109a3.075,3.075,0,0,0-1.292.4,4.459,4.459,0,0,0-1.06.93,5.252,5.252,0,0,0-1.148,3.582,4.6,4.6,0,0,0,.41,2.126q.328.615.752.615a.82.82,0,0,0,.622-.26,2.544,2.544,0,0,0,.444-.759A19.819,19.819,0,0,0,142.974,30.956Zm9.461,1.121V28.83H153.5v3.008l5.359-1.217.588.752a17.487,17.487,0,0,1-2.967,5.284L155.6,36.1a12.915,12.915,0,0,0,2.536-4.327L153.5,32.815V37.86q0,.943.485,1.189a4.62,4.62,0,0,0,1.723.205q1.545,0,3.247-.164v1.032q-1.49.1-3.466.1a3.85,3.85,0,0,1-2.55-.588,2.375,2.375,0,0,1-.506-1.75V33.055l-2.379.533-.28-.909Zm9.748-2.687h6.344v.937h-6.344Zm-.854,2.98h7.909q-.157,4-1.955,5.961a8.381,8.381,0,0,1-4.3,2.27l-.506-.8a7.477,7.477,0,0,0,4.238-2.413,6.915,6.915,0,0,0,1.36-4.081h-6.747Zm11.539,2.687v2.994q0,1,.6,1.107a11.356,11.356,0,0,0,2.044.144q1.408,0,3.1-.171v1.053q-1.859.1-3.37.1a10.778,10.778,0,0,1-2.44-.2q-1-.219-1-1.709v-9.1h1.066V34.08a15.118,15.118,0,0,0,4.368-2.871l.711.854A18.045,18.045,0,0,1,172.867,35.058Zm5.53-7.226a1.5,1.5,0,0,1,1.162.52,1.514,1.514,0,0,1,.4,1.053,1.569,1.569,0,0,1-3.138,0,1.57,1.57,0,0,1,1.572-1.572Zm0,.6a.926.926,0,0,0-.725.314.947.947,0,0,0-.246.656.918.918,0,0,0,.314.718.947.947,0,0,0,.656.246.918.918,0,0,0,.718-.314.938.938,0,0,0,.246-.649.926.926,0,0,0-.314-.725A.938.938,0,0,0,178.4,28.434Zm7.9,7.561a12.594,12.594,0,0,1-5,4.423l-.615-.807a12.291,12.291,0,0,0,4.573-3.931,14.161,14.161,0,0,0,2.051-5.045h-5.879V29.7h7.26a18.785,18.785,0,0,1-1.846,5.359,31.446,31.446,0,0,1,3.261,4.7l-1.032.656A25.126,25.126,0,0,0,186.3,35.994Zm8.039-2.085v6.651h-1.08V28.816h1.08v4.061a21.8,21.8,0,0,1,5.332,2.222l-.533,1.012A17.7,17.7,0,0,0,194.339,33.909ZM213.9,39.535a1.86,1.86,0,0,0-.451.479q-.089.171-.164.171a.433.433,0,0,1-.2-.1,10.65,10.65,0,0,1-2.331-2.01,8.641,8.641,0,0,1-1.278-2.112q.055,2.939.055,3.657a1.138,1.138,0,0,1-.362.991,2.854,2.854,0,0,1-1.415.239.264.264,0,0,1-.369-.28,1.56,1.56,0,0,0-.246-.588,8.256,8.256,0,0,0,.923.055.82.82,0,0,0,.554-.123.62.62,0,0,0,.1-.424V37.888q-1.244.807-2.769,1.62a1.943,1.943,0,0,0-.506.314q-.089.109-.157.109t-.123-.123q-.144-.253-.362-.745a4.57,4.57,0,0,0,.807-.294,26.732,26.732,0,0,0,3.11-1.7V35.03h-1.3l-1.935.027q-.1,0-.1-.109V34.4q0-.109.1-.109l1.935.027h1.3V33.062h-.8l-1.764.027q-.109,0-.109-.116V32.46q0-.116.109-.116l1.764.027h.8v-1.2h-.991l-1.88.027q-.109,0-.109-.1v-.554a.1.1,0,0,1,.109-.109l1.88.027h2.085a12.2,12.2,0,0,0,.752-1.429,2.654,2.654,0,0,0,.185-.588,5.368,5.368,0,0,1,.725.212q.171.048.171.15,0,.075-.137.185a.677.677,0,0,0-.2.267,12.632,12.632,0,0,1-.7,1.2h.465l1.846-.027q.13,0,.13.109V31.1q0,.1-.13.1l-1.846-.027H209.5v1.2h1.176l1.75-.027q.109,0,.109.116v.513q0,.116-.109.116l-1.75-.027H209.5v1.258h1.941l1.935-.027a.1.1,0,0,1,.109.109v.547a.1.1,0,0,1-.109.109l-1.935-.027h-1.8a9.615,9.615,0,0,0,1.189,2.03,11.044,11.044,0,0,0,1.121-1.053,1.977,1.977,0,0,0,.335-.485,4.885,4.885,0,0,1,.574.444.258.258,0,0,1,.116.185q0,.109-.137.15a1.1,1.1,0,0,0-.424.294,13.719,13.719,0,0,1-1.135,1A10.167,10.167,0,0,0,213.9,39.535Zm-8.545-7.615q0,.116-.109.116l-1.258-.027H203.9a9.323,9.323,0,0,0,1.442,3.035,1.831,1.831,0,0,0-.349.533q-.068.15-.123.15t-.13-.15a12.545,12.545,0,0,1-.964-2.673q.007,2.755.082,5.79.014.759.041,1.7.014.465.014.506a.085.085,0,0,1-.1.1h-.67q-.116,0-.116-.1s.009-.406.027-1.2q.1-3.541.116-6.6a15.75,15.75,0,0,1-1.641,4.437q-.089.157-.137.157-.075,0-.116-.137a1.211,1.211,0,0,0-.362-.547,15.308,15.308,0,0,0,2.058-5h-.308l-1.271.027a.1.1,0,0,1-.116-.116v-.547q0-.123.116-.123l1.271.027h.417v-1.2a8.8,8.8,0,0,0-.109-1.668,6.609,6.609,0,0,1,.882.089q.171.021.171.123a.676.676,0,0,1-.082.253,4.859,4.859,0,0,0-.075,1.189v1.217h.116l1.258-.027q.109,0,.109.123Zm2.146,4.819q.048.048.048.075t-.1.137l-.294.273q-.116.123-.164.123-.027,0-.068-.062a6.8,6.8,0,0,0-1.176-1.306q-.055-.041-.055-.068t.109-.137l.239-.226q.109-.1.15-.1t.068.048A6.8,6.8,0,0,1,207.5,36.739Zm.725-6.918a.168.168,0,0,1,.014.062q0,.048-.1.109l-.41.219a.441.441,0,0,1-.164.075q-.041,0-.075-.089a4.652,4.652,0,0,0-.786-1.258.112.112,0,0,1-.041-.068q0-.041.144-.116l.362-.178a.368.368,0,0,1,.123-.041.146.146,0,0,1,.1.068A6.6,6.6,0,0,1,208.223,29.821Zm9.29,5.168q-.7,0-2.126-.027v-.9q.588.027,2.215.027l.219-2.283q-1,0-2.352-.027v-.9q1.189.068,2.44.068.048-.424.123-1.155.089-.813.109-1.06l1.012.075q-.048.451-.123,1.169-.082.752-.1.957,1.442-.014,3.767-.157l.014.9q-1.839.116-3.876.116-.075.834-.253,2.283,2.235-.027,3.979-.157v.9q-2.16.137-4.061.157a32.724,32.724,0,0,0-.226,3.288,1.408,1.408,0,0,0,.5,1.23,2.723,2.723,0,0,0,1.531.335,3.8,3.8,0,0,0,2.208-.526,1.511,1.511,0,0,0,.649-1.292,3.093,3.093,0,0,0-.813-2.017l.923-.349a3.489,3.489,0,0,1,.937,2.311q0,2.816-3.9,2.816a3.309,3.309,0,0,1-2.454-.725,2.532,2.532,0,0,1-.54-1.784Q217.308,37.17,217.513,34.989Zm20.938.991a2.176,2.176,0,0,0-.4.513q-.109.239-.2.239a.753.753,0,0,1-.205-.055,10.052,10.052,0,0,1-4.635-3.206h-1.928a9.5,9.5,0,0,1-4.58,3.343.743.743,0,0,1-.212.055q-.1,0-.226-.205a1.358,1.358,0,0,0-.39-.4,9.546,9.546,0,0,0,4.409-2.789h-2.058l-1.846.027q-.116,0-.116-.109v-.561q0-.109.116-.109l1.846.027h2.577a5.181,5.181,0,0,0,.6-1.244,5.807,5.807,0,0,1,.8.226q.15.068.15.185,0,.075-.15.164a2.162,2.162,0,0,0-.479.67h4.594l1.846-.027q.13,0,.13.109v.561q0,.109-.13.109l-1.846-.027h-2.2A9.552,9.552,0,0,0,238.451,35.98Zm-1.429-4.5a.166.166,0,0,1,.041.082q0,.048-.123.144l-.328.246a.408.408,0,0,1-.178.1.146.146,0,0,1-.1-.062q-.492-.533-.827-.834-2.83.273-6.569.417a3.338,3.338,0,0,0-1.06.13.372.372,0,0,1-.185.055q-.109,0-.157-.185-.123-.547-.164-.786.533.041.971.041.212,0,.458-.007.376,0,.574-.021a14.854,14.854,0,0,0,1.046-1.75,3.174,3.174,0,0,0,.267-.725q.355.082.786.226.2.062.2.178,0,.075-.171.212a2.638,2.638,0,0,0-.349.52,15.451,15.451,0,0,1-.854,1.326q2.762-.1,4.532-.232a10.4,10.4,0,0,0-1.312-.957q-.068-.034-.068-.068t.15-.137l.239-.171a.441.441,0,0,1,.191-.1.2.2,0,0,1,.1.041A15.882,15.882,0,0,1,237.022,31.476Zm-.451,6.31q0,.109-.185.157a1.684,1.684,0,0,0-.5.294,12.487,12.487,0,0,1-3.322,1.887,19.463,19.463,0,0,1-3.862.9q-.1.007-.137.007-.144,0-.239-.232a1.248,1.248,0,0,0-.321-.479,19.155,19.155,0,0,0,4.19-.909,11.9,11.9,0,0,0,2.933-1.593,2.461,2.461,0,0,0,.663-.677,7.906,7.906,0,0,1,.684.465A.234.234,0,0,1,236.571,37.785Zm-1.832-1.456q0,.089-.15.157a2.671,2.671,0,0,0-.424.253,12.981,12.981,0,0,1-5.558,2.434.976.976,0,0,1-.157.021q-.123,0-.219-.226a1.235,1.235,0,0,0-.321-.465,15.066,15.066,0,0,0,3.343-.923,9.924,9.924,0,0,0,2.215-1.306,2.992,2.992,0,0,0,.533-.547,4.69,4.69,0,0,1,.629.438Q234.739,36.261,234.739,36.329Zm-1.654-1.3q0,.089-.185.15a1.6,1.6,0,0,0-.472.294,11.106,11.106,0,0,1-3.821,1.921.951.951,0,0,1-.185.034q-.1,0-.232-.219a1.345,1.345,0,0,0-.383-.39,9.713,9.713,0,0,0,3.924-1.791,2.355,2.355,0,0,0,.6-.643,7,7,0,0,1,.615.431A.265.265,0,0,1,233.085,35.03Zm19.141-1.873a.1.1,0,0,1-.109.109l-1.818-.027h-2.8a18.526,18.526,0,0,1-2.242,1.483q-.13.438-.178.561,1.777-.273,3.486-.684a3.29,3.29,0,0,0,1.046-.4,3.73,3.73,0,0,1,.656.533.3.3,0,0,1,.116.212q0,.137-.212.137a3.958,3.958,0,0,0-.656.089q-2.618.561-4.689.82-.034.089-.15.4-.075.212-.13.342h3.835l1.7-.027q.13,0,.13.123-.021.171-.062.595-.034.328-.055.5a6.816,6.816,0,0,1-.52,2.27,1.27,1.27,0,0,1-1.244.67q-.506,0-1.176-.055a.45.45,0,0,1-.253-.068.816.816,0,0,1-.068-.239,1.909,1.909,0,0,0-.253-.615,9.79,9.79,0,0,0,1.511.137.813.813,0,0,0,.8-.437,3.851,3.851,0,0,0,.219-.9,11.487,11.487,0,0,0,.144-1.23h-5.011q-.048.109-.424.9-.041.082-.1.082a.474.474,0,0,1-.1-.014l-.561-.123q-.137-.041-.137-.089a.133.133,0,0,1,.027-.068,15.611,15.611,0,0,0,1.326-2.892,32.142,32.142,0,0,1-3.808,1.552.769.769,0,0,1-.205.062q-.068,0-.205-.2a1.585,1.585,0,0,0-.431-.451,22.371,22.371,0,0,0,6.638-2.98H241.9l-1.818.027q-.116,0-.116-.109v-.574a.1.1,0,0,1,.116-.116l1.818.027h3.192V31h-1.442l-1.791.027q-.116,0-.116-.109v-.581q0-.109.116-.109l1.791.027h1.442v-.267a7.793,7.793,0,0,0-.116-1.579,9.338,9.338,0,0,1,.943.082q.185.027.185.123a.843.843,0,0,1-.075.253,3.791,3.791,0,0,0-.1,1.107v.28h.643l1.777-.027a.1.1,0,0,1,.109.109v.581a.1.1,0,0,1-.109.109L246.572,31h-.643v1.49h1.285a15.785,15.785,0,0,0,2.379-2.42,3.606,3.606,0,0,0,.547-.937,5.389,5.389,0,0,1,.813.451.231.231,0,0,1,.13.191q0,.089-.13.144a2.01,2.01,0,0,0-.643.561,21.456,21.456,0,0,1-1.962,2.01H250.3l1.818-.027q.109,0,.109.116Zm5.209,3.274.957.082a5.457,5.457,0,0,0-.157,1.258,1.054,1.054,0,0,0,.444.978,3.167,3.167,0,0,0,1.545.273,25.984,25.984,0,0,0,2.769-.144l.027,1.012q-1.025.082-2.659.082a4.349,4.349,0,0,1-2.44-.492,1.783,1.783,0,0,1-.636-1.552A7.22,7.22,0,0,1,257.435,36.432Zm.28-4.676V30.8q1.75-.137,3.541-.137.889,0,1.668.041v.95q-.725-.055-1.764-.055Q259.369,31.6,257.715,31.756ZM256.2,29.343a36.343,36.343,0,0,0-.786,6.61,24.83,24.83,0,0,0,.342,4.382l-1,.082a28.85,28.85,0,0,1-.321-4.491,40.269,40.269,0,0,1,.772-6.665Zm9.618-.376h1.046q-.239,7.191-.239,8.668a2.136,2.136,0,0,0,.458,1.579,2.222,2.222,0,0,0,1.545.424,3.218,3.218,0,0,0,2.44-.943,5.471,5.471,0,0,0,1.217-2.673l.95.479q-.93,4.074-4.58,4.074a3.2,3.2,0,0,1-2.4-.718,3.1,3.1,0,0,1-.608-2.153q0-.766.062-3.753Q265.795,30.334,265.822,28.967Zm12.5,2.146q.82-.068,2.071-.2l.014.868q-1.142.137-2.3.191a38.416,38.416,0,0,1-2.468,6.487l-.909-.424a29.976,29.976,0,0,0,2.379-6.016q-1.135.062-2.27.041L274.8,31.2q1.176.041,2.522-.027.273-1.169.465-2.365l1.019.123Q278.619,29.869,278.318,31.113Zm3,5.79q-.123-1.5-.144-3.568h.964q0,1.791.157,3.794a9.263,9.263,0,0,1,2.563,1.6l-.52.95a7.662,7.662,0,0,0-2.017-1.524v.232q0,2.229-2.475,2.229A2.629,2.629,0,0,1,278,40.034a1.665,1.665,0,0,1-.54-1.292,1.7,1.7,0,0,1,.889-1.5,3.244,3.244,0,0,1,1.757-.458A5.891,5.891,0,0,1,281.319,36.9Zm0,.93a4.031,4.031,0,0,0-1.162-.2,2.4,2.4,0,0,0-1.429.349.867.867,0,0,0-.383.731.886.886,0,0,0,.41.772,1.931,1.931,0,0,0,1.107.273,1.305,1.305,0,0,0,1.47-1.483Zm.055-6.357.444-.8a14.091,14.091,0,0,1,3.192,1.5l-.513.868A12.767,12.767,0,0,0,281.374,31.476Zm8.75.964a41.522,41.522,0,0,1-2.646,7.841l-.923-.362a37.251,37.251,0,0,0,2.563-7.41q-.848.062-2.577.226l-.055-.882q.513-.034,1.518-.1l1.313-.089q.26-1.183.533-2.782l.991.137q-.308,1.6-.533,2.591.786-.055,1.429-.055a1.428,1.428,0,0,1,1.278.567,3.662,3.662,0,0,1,.4,1.982,19.506,19.506,0,0,1-.437,4.97,1.777,1.777,0,0,1-.636,1,1.828,1.828,0,0,1-1.073.28,9.249,9.249,0,0,1-1.422-.109l-.171-.978a6.216,6.216,0,0,0,1.244.164,1.47,1.47,0,0,0,.745-.144.9.9,0,0,0,.335-.485,16.428,16.428,0,0,0,.444-4.566,3.52,3.52,0,0,0-.219-1.538.713.713,0,0,0-.677-.321Q290.91,32.385,290.124,32.439Zm4.108-3.992.711-.28a19.249,19.249,0,0,1,1.039,2.372l-.759.308A14.764,14.764,0,0,0,294.232,28.447Zm1.5-.472.7-.253a11.326,11.326,0,0,1,.991,2.3l-.725.294A13.489,13.489,0,0,0,295.729,27.976Zm-2.311,2.844.882-.451a16.879,16.879,0,0,1,2.406,4.833l-.978.458A14.512,14.512,0,0,0,293.419,30.819Zm6.993-1.306.4-.8a21.8,21.8,0,0,1,4.354,1.265l-.5.868A20.869,20.869,0,0,0,300.412,29.514Zm-.294,1.723q-.328,3.261-.4,4.259l-.144.766.321-.52a4.925,4.925,0,0,1,1.682-1.271,4.268,4.268,0,0,1,1.777-.39,3.349,3.349,0,0,1,2.406.82,2.66,2.66,0,0,1,.786,2.017,3.2,3.2,0,0,1-.485,1.839,3.371,3.371,0,0,1-1.2,1.019,6.8,6.8,0,0,1-2.092.615,18.516,18.516,0,0,1-2.386.226l-.321-.937a9.7,9.7,0,0,0,4.074-.7,2.554,2.554,0,0,0,1.046-.889,2.462,2.462,0,0,0,.294-1.265,1.793,1.793,0,0,0-.615-1.415,2.145,2.145,0,0,0-1.456-.485,3.916,3.916,0,0,0-2.953,1.408,4.063,4.063,0,0,0-.766,1.21l-1.039-.185q.1-2.01.492-6.262Zm20.33,2.632a.1.1,0,0,1-.109.109l-1.846-.027h-4.806q.342.2.492.294.13.1.13.164a.053.053,0,0,1-.007.021q0,.041-.15.15a2.21,2.21,0,0,0-.383.294q-.643.622-1.271,1.135.485.335,1.121.868a24.617,24.617,0,0,0,1.948-1.764,3.145,3.145,0,0,0,.6-.786q.4.219.711.424a.2.2,0,0,1,.116.164q0,.082-.2.171a1.391,1.391,0,0,0-.39.294q-1.025.964-2,1.723,1.873-.116,3.78-.308-.444-.4-.813-.677-.062-.048-.062-.075,0-.048.116-.13l.308-.239a.247.247,0,0,1,.116-.048.15.15,0,0,1,.082.034,14.478,14.478,0,0,1,2.311,2.181.187.187,0,0,1,.048.089q0,.041-.1.123l-.383.294a.48.48,0,0,1-.15.089q-.027,0-.075-.062a8.819,8.819,0,0,0-.807-.991q-2.153.219-4.1.349v1.654l.027,1.524q0,.109-.116.109h-.67a.1.1,0,0,1-.109-.109l.027-1.524v-1.6q-1.251.089-4.286.239a1.64,1.64,0,0,0-.547.1.378.378,0,0,1-.171.041q-.109,0-.164-.171-.13-.458-.2-.779a9.9,9.9,0,0,0,1.121.062q.164,0,.308-.007,1.073-.014,2.953-.1a21.348,21.348,0,0,0-2.509-1.75q-.062-.041-.062-.068t.082-.13l.253-.267q.082-.082.116-.082a.168.168,0,0,1,.075.027q.656.39,1.121.7a14.088,14.088,0,0,0,1.162-1.107,2.5,2.5,0,0,0,.376-.547h-3.09l-1.853.027a.1.1,0,0,1-.109-.109v-.533a.1.1,0,0,1,.109-.109l1.853.027h3.5v-1.08h-1.7l-1.948.027a.1.1,0,0,1-.109-.109v-.506a.1.1,0,0,1,.109-.109l1.948.027h1.7V30.478h-2.481l-1.955.027q-.116,0-.116-.109v-.533q0-.109.116-.109l1.955.027h2.481v-.041a6.479,6.479,0,0,0-.1-1.415q.636.027.93.068.171.027.171.116a1.328,1.328,0,0,1-.089.267,3.67,3.67,0,0,0-.068.95v.055H317.4l1.976-.027a.1.1,0,0,1,.109.109V30.4a.1.1,0,0,1-.109.109l-1.976-.027h-2.687V31.5h2.017l1.928-.027q.116,0,.116.109v.506q0,.109-.116.109l-1.928-.027h-2.017v1.08h3.78l1.846-.027a.1.1,0,0,1,.109.109Zm-.547,6.3a2.615,2.615,0,0,0-.417.458q-.137.212-.212.212a.872.872,0,0,1-.2-.068,12.769,12.769,0,0,1-2.857-2.044.119.119,0,0,1-.034-.068q0-.034.109-.116l.349-.239a.129.129,0,0,1,.212,0A10.508,10.508,0,0,0,319.9,40.171Zm-7.362-1.292q0,.068-.2.171a1.351,1.351,0,0,0-.362.253,10.423,10.423,0,0,1-2.393,1.47.775.775,0,0,1-.212.068q-.075,0-.212-.212a1.182,1.182,0,0,0-.4-.39,8.705,8.705,0,0,0,2.461-1.347,3.138,3.138,0,0,0,.547-.6,3.7,3.7,0,0,1,.656.424Q312.539,38.8,312.539,38.879ZM13.781,65.041a1.655,1.655,0,0,0-.479.52q-.1.164-.171.164a.426.426,0,0,1-.205-.123,12.625,12.625,0,0,1-2.3-2.522,9.474,9.474,0,0,1-2.44,2.666.488.488,0,0,1-.205.109q-.082,0-.2-.2a1.508,1.508,0,0,0-.417-.417,8.647,8.647,0,0,0,2.782-2.912,14.994,14.994,0,0,1-1.429-3.91q-.308.588-.485.882-.116.157-.157.157-.068,0-.171-.137a1.386,1.386,0,0,0-.4-.41,11.662,11.662,0,0,0,1.764-4.32,7.788,7.788,0,0,0,.171-1.258,7.85,7.85,0,0,1,.779.191q.185.068.185.171a.423.423,0,0,1-.082.164,2.057,2.057,0,0,0-.226.731Q9.81,55.7,9.68,56.113h2.167l1.524-.027q.116,0,.116.109v.561q0,.109-.116.109l-.13-.007q-.39-.014-.848-.021a14.119,14.119,0,0,1-1.2,5.2l-.13.253A10.617,10.617,0,0,0,13.781,65.041Zm-2.187-8.2H9.427l-.212.52a14.229,14.229,0,0,0,1.374,4.156A14.31,14.31,0,0,0,11.594,56.838Zm-4.129.472-.027,1.928v2.9l.014,2.133a1.082,1.082,0,0,1-.308.9,2.586,2.586,0,0,1-1.415.267q-.219,0-.26-.048a.69.69,0,0,1-.075-.232,1.761,1.761,0,0,0-.226-.547q.424.041.95.041.561,0,.561-.506V57.925H2.037V63.79l.027,1.859q0,.116-.109.116H1.36q-.109,0-.109-.116l.027-1.873V59.2L1.251,57.31A.1.1,0,0,1,1.36,57.2l1.736.027H5.031q.13-.273.39-.978a3.325,3.325,0,0,0,.123-.6,4.652,4.652,0,0,1,.718.191q.15.062.15.13a.3.3,0,0,1-.109.191,1.331,1.331,0,0,0-.185.294l-.362.772,1.6-.027A.1.1,0,0,1,7.465,57.31ZM6.3,59.8q0,.109-.1.109l-1.23-.027h-.28v1.121h.144l.923-.027a.1.1,0,0,1,.109.109l-.027.718v.533l.027,1.565a.1.1,0,0,1-.109.109H5.312q-.123,0-.123-.109V63.64H3.548v.574q0,.109-.1.109H3q-.123,0-.123-.109l.027-1.7v-.472l-.014-.957A.1.1,0,0,1,3,60.98l.923.027h.1V59.887H3.814l-1.23.027q-.1,0-.1-.109v-.451q0-.109.1-.109l1.23.027h.212v-.185a5.194,5.194,0,0,0-.062-.868,4.987,4.987,0,0,1,.7.089q.144.021.144.109a.353.353,0,0,1-.055.171,1.2,1.2,0,0,0-.075.533v.15h.28l1.23-.027q.1,0,.1.109ZM5.188,63.052V61.6H3.548v1.456Zm2.782-7.67q0,.109-.116.109l-1.846-.027H2.721l-1.839.027a.1.1,0,0,1-.109-.109v-.533q0-.123.109-.123l1.839.027H4.047V54.63a7.558,7.558,0,0,0-.082-1.292,7.515,7.515,0,0,1,.868.082Q5,53.44,5,53.536a.956.956,0,0,1-.082.253,2.749,2.749,0,0,0-.068.793v.171H6.009l1.846-.027q.116,0,.116.123Zm-4.409,1.36a.29.29,0,0,1,.014.068q0,.062-.13.109l-.362.144a.817.817,0,0,1-.157.034q-.055,0-.082-.1a4.106,4.106,0,0,0-.417-1.019.2.2,0,0,1-.041-.089q0-.041.164-.109l.349-.123a.4.4,0,0,1,.1-.027q.041,0,.089.082A5.076,5.076,0,0,1,3.562,56.742Zm14.984-.629q.82-.068,2.071-.2l.014.868q-1.142.137-2.3.191a38.417,38.417,0,0,1-2.468,6.487l-.909-.424a29.976,29.976,0,0,0,2.379-6.016q-1.135.062-2.27.041l-.027-.868q1.176.041,2.522-.027Q17.828,55,18.02,53.8l1.019.123Q18.847,54.869,18.546,56.113Zm3,5.79q-.123-1.5-.144-3.568h.964q0,1.791.157,3.794a9.264,9.264,0,0,1,2.563,1.6l-.52.95a7.662,7.662,0,0,0-2.017-1.524v.232q0,2.229-2.475,2.229a2.629,2.629,0,0,1-1.846-.581,1.665,1.665,0,0,1-.54-1.292,1.7,1.7,0,0,1,.889-1.5,3.244,3.244,0,0,1,1.757-.458A5.891,5.891,0,0,1,21.547,61.9Zm0,.93a4.031,4.031,0,0,0-1.162-.2,2.4,2.4,0,0,0-1.429.349.867.867,0,0,0-.383.731.886.886,0,0,0,.41.772,1.931,1.931,0,0,0,1.107.273,1.305,1.305,0,0,0,1.47-1.483Zm.055-6.357.444-.8a14.091,14.091,0,0,1,3.192,1.5l-.513.868A12.767,12.767,0,0,0,21.6,56.476Zm5.065,5.455q1.764-3.329,2.967-5.975a.978.978,0,0,1,.882-.7,1.167,1.167,0,0,1,.984.574q.971,1.429,2.857,4.184,1.8,2.618,2.625,3.835l-.923.731q-1.887-2.8-5.182-7.882a.256.256,0,0,0-.219-.144.252.252,0,0,0-.239.185Q29.21,59.36,27.6,62.45ZM35.191,53.9a1.569,1.569,0,1,1,0,3.138,1.5,1.5,0,0,1-1.162-.52,1.574,1.574,0,0,1,.109-2.215A1.53,1.53,0,0,1,35.191,53.9Zm0,.6a.918.918,0,0,0-.718.314.938.938,0,0,0-.246.649.926.926,0,0,0,.314.725.967.967,0,0,0,1.62-.725.918.918,0,0,0-.314-.718A.947.947,0,0,0,35.191,54.5Zm3.015,4.758h7.615V60.3H38.206ZM54.3,53.42l.718-.28A14.091,14.091,0,0,1,56.055,55.5l-.752.314A12.262,12.262,0,0,0,54.3,53.42Zm-6.815,4.847.479-.841a28.874,28.874,0,0,1,3.288,1.429l-.52.937A19.993,19.993,0,0,0,47.489,58.267Zm1.258-2.994.52-.827a20.246,20.246,0,0,1,3.192,1.524l-.561.923A17.538,17.538,0,0,0,48.747,55.272Zm7.2-2.27.7-.253a11.566,11.566,0,0,1,1,2.3l-.731.294A13.487,13.487,0,0,0,55.945,53Zm.137,3.192.971.547A14.6,14.6,0,0,1,55.9,59.894a9.741,9.741,0,0,1-1.47,2.235,10.073,10.073,0,0,1-5.558,2.994l-.574-.882a9.086,9.086,0,0,0,5.318-2.8A11.559,11.559,0,0,0,56.082,56.2ZM64.4,60.618v2.769h-.937V61.049q-.321.164-.663.355-1.791,1.012-1.791,2.03a.927.927,0,0,0,.629.943,6.4,6.4,0,0,0,2.078.232q1.47,0,3.411-.171l.041.95q-2.55.13-3.384.13a5.879,5.879,0,0,1-2.967-.513,1.772,1.772,0,0,1-.7-1.6A3.066,3.066,0,0,1,62,60.857q.711-.4,1.456-.772-.068-1.312-.909-1.312-1.176,0-3.227,2.365l-.725-.643a16.348,16.348,0,0,0,2.9-4.136q-1.278.021-2.563,0V55.5q1.477.027,2.953,0a12.51,12.51,0,0,0,.629-1.873l1.012.185a14.377,14.377,0,0,1-.588,1.647q1.969-.062,3.739-.239l.027.854q-2.3.185-4.143.239a14.3,14.3,0,0,1-1.176,1.989l-.355.362.041.055a2.492,2.492,0,0,1,1.668-.711,1.521,1.521,0,0,1,1.114.424,1.982,1.982,0,0,1,.526,1.217q1.094-.5,2.844-1.237l.39.957Q65.331,60.208,64.4,60.618Zm17.261-3.931a.1.1,0,0,1-.109.109l-1.777-.027H77.328v2.085h2.181l1.374-.014q.109,0,.109.1v.595a.1.1,0,0,1-.109.109l-1.374-.027H77.328v2.119h2.181l1.415-.027a.1.1,0,0,1,.109.109v.595a.1.1,0,0,1-.109.109l-1.415-.027H77.328v1.217l.027,2.188q0,.1-.116.1h-.67q-.109,0-.109-.1l.021-2.187V56.77H75.339A14.89,14.89,0,0,1,73.6,59.442q-.13.171-.185.171t-.157-.171a1.447,1.447,0,0,0-.417-.4A13.9,13.9,0,0,0,74.56,56.5a11.813,11.813,0,0,0,.943-2.146,4.176,4.176,0,0,0,.185-.978,7.318,7.318,0,0,1,.854.253q.185.068.185.15a.261.261,0,0,1-.116.212,1.5,1.5,0,0,0-.294.574q-.205.588-.6,1.442h4.061l1.777-.027a.1.1,0,0,1,.109.109Zm-8.2-2.9a.239.239,0,0,1-.116.178,1.353,1.353,0,0,0-.28.533,22.627,22.627,0,0,1-.95,2.085v7.082l.027,2.188q0,.109-.1.109h-.684a.1.1,0,0,1-.109-.109l.027-2.187V60.03q0-.67.027-2.071a13.527,13.527,0,0,1-1.545,1.976q-.123.123-.164.123-.068,0-.13-.137a1.735,1.735,0,0,0-.39-.561,13.312,13.312,0,0,0,3.165-5.1,3.676,3.676,0,0,0,.212-.937,5.569,5.569,0,0,1,.854.294Q73.459,53.693,73.459,53.789Zm11.088.308.971.123a38.254,38.254,0,0,0-.424,4.9,10.01,10.01,0,0,0,.055,1.162q.506-1.2.957-2.1l.643.5a17.361,17.361,0,0,0-.978,2.2,6.693,6.693,0,0,0-.239.841l-1.08.014a13.113,13.113,0,0,1-.294-2.816A40.7,40.7,0,0,1,84.547,54.1Zm4.662.055,1.012-.041q.137,2.6.137,4.758a14.871,14.871,0,0,1-.239,3.042,4.749,4.749,0,0,1-.7,1.647,5.8,5.8,0,0,1-3.527,2.112l-.6-.807a4.78,4.78,0,0,0,3.151-1.7q.923-1.189.923-4.341Q89.366,56.94,89.209,54.151Zm7.923,1.442q-.027-1.176-.027-1.853h1v1.812q1.7-.062,3.37-.267v.868q-1.531.185-3.356.253l.041,2.01q1.935-.089,3.247-.26v.868q-1.538.171-3.233.232.014.335.062,1.449.027.745.048,1.2a10.066,10.066,0,0,1,3.726,2.372l-.7.861a9.516,9.516,0,0,0-3.015-2.249v.15a2.184,2.184,0,0,1-2.475,2.468,3.271,3.271,0,0,1-2.017-.5,1.7,1.7,0,0,1-.6-1.436,1.679,1.679,0,0,1,.8-1.449,3.138,3.138,0,0,1,1.832-.5,8.4,8.4,0,0,1,1.47.1q-.048-.848-.1-2.427-1.825.048-3.644,0v-.848q1.7.055,3.63.014-.027-.383-.034-1.087-.014-.663-.027-.943-2.105.041-3.794-.027v-.841Q95.026,55.642,97.132,55.594Zm.171,7.055a5.407,5.407,0,0,0-1.374-.185q-1.832,0-1.832,1.107,0,1.066,1.654,1.066,1.552,0,1.552-1.866Zm7.116-8.682h1.046q-.239,7.191-.239,8.668a2.136,2.136,0,0,0,.458,1.579,2.222,2.222,0,0,0,1.545.424,3.218,3.218,0,0,0,2.44-.943,5.471,5.471,0,0,0,1.217-2.673l.95.479q-.93,4.074-4.58,4.074a3.2,3.2,0,0,1-2.4-.718,3.1,3.1,0,0,1-.608-2.153q0-.766.062-3.753Q104.392,55.334,104.419,53.967ZM117,59.121q.021,1.162.171,3.247a9.291,9.291,0,0,1,3.124,1.887l-.615.745a7.983,7.983,0,0,0-2.454-1.736q.014.2.014.438a1.559,1.559,0,0,1-.656,1.347,2.251,2.251,0,0,1-1.347.383q-2.153,0-2.153-1.565a1.477,1.477,0,0,1,.69-1.244,2.651,2.651,0,0,1,1.606-.465,6.685,6.685,0,0,1,.882.055q-.178-2.461-.2-6.426H117q-.014.841-.014,2.536a28.509,28.509,0,0,0,2.885-.2v.827Q118.788,59.073,117,59.121Zm-.711,3.9a5.762,5.762,0,0,0-.964-.1,1.833,1.833,0,0,0-1.073.287.723.723,0,0,0-.355.608q0,.8,1.285.8,1.121,0,1.121-1.066Q116.3,63.209,116.286,63.024Zm7.048-9.324a32.631,32.631,0,0,0,4.86.827l-.239.95a42.05,42.05,0,0,1-4.888-.868ZM121.8,57.638a15.887,15.887,0,0,1,4.115-.718q2.687,0,2.687,3.363a5.049,5.049,0,0,1-1.347,3.767,7.448,7.448,0,0,1-3.37,1.675l-.52-.848a6.683,6.683,0,0,0,3.206-1.613,4.374,4.374,0,0,0,.971-3.049q0-2.386-1.682-2.386a13.445,13.445,0,0,0-3.7.786ZM132.8,62.327a1.915,1.915,0,0,1,1.463.643,1.916,1.916,0,0,1-.144,2.748,1.936,1.936,0,0,1-1.319.5,1.9,1.9,0,0,1-1.463-.643,1.916,1.916,0,0,1,.144-2.748A1.936,1.936,0,0,1,132.8,62.327Zm0,.7a1.269,1.269,0,0,0-1.251,1.251,1.253,1.253,0,0,0,2.181.834,1.247,1.247,0,0,0-.93-2.085Z"
									transform="translate(-0.479 -2.709)" fill="#5a5858" />
							</svg>