<svg xmlns="http://www.w3.org/2000/svg" width="186.389" height="30.141"
								viewBox="0 0 186.389 30.141">
								<g id="Сгруппировать_379" data-name="Сгруппировать 379"
									transform="translate(-1.891 -4.719)">
									<path id="Контур_1770" data-name="Контур 1770"
										d="M1.891-.906V-4a6.008,6.008,0,0,0,1.273.844,10.317,10.317,0,0,0,1.563.633,12.439,12.439,0,0,0,1.648.4,9.191,9.191,0,0,0,1.531.141,6,6,0,0,0,3.617-.9,3.039,3.039,0,0,0,1.2-2.586,3.036,3.036,0,0,0-.4-1.578,4.488,4.488,0,0,0-1.1-1.227A10.931,10.931,0,0,0,9.555-9.336q-.961-.508-2.07-1.07Q6.313-11,5.3-11.609a9.479,9.479,0,0,1-1.766-1.344,5.605,5.605,0,0,1-1.18-1.664,5.151,5.151,0,0,1-.43-2.18,5.125,5.125,0,0,1,.672-2.664,5.763,5.763,0,0,1,1.766-1.867,8,8,0,0,1,2.492-1.094A11.411,11.411,0,0,1,9.7-22.781a10.928,10.928,0,0,1,4.828.8v2.953a8.752,8.752,0,0,0-5.094-1.375,8.377,8.377,0,0,0-1.719.18,4.855,4.855,0,0,0-1.531.586,3.392,3.392,0,0,0-1.094,1.047,2.779,2.779,0,0,0-.422,1.563,3.217,3.217,0,0,0,.32,1.484,3.638,3.638,0,0,0,.945,1.141,9.415,9.415,0,0,0,1.523,1q.9.484,2.07,1.063,1.2.594,2.281,1.25A10.427,10.427,0,0,1,13.7-9.641a6.457,6.457,0,0,1,1.289,1.766,4.963,4.963,0,0,1,.477,2.219,5.627,5.627,0,0,1-.648,2.8A5.322,5.322,0,0,1,13.07-.984,7.643,7.643,0,0,1,10.531.055,13.905,13.905,0,0,1,7.5.375,12.352,12.352,0,0,1,6.188.289Q5.406.2,4.594.039A13,13,0,0,1,3.055-.367,4.789,4.789,0,0,1,1.891-.906Zm24.094.75a4.941,4.941,0,0,1-2.391.5q-4.2,0-4.2-4.687v-9.469h-2.75V-16h2.75v-3.906l2.563-.828V-16h4.031v2.188H21.953V-4.8A3.737,3.737,0,0,0,22.5-2.5a2.182,2.182,0,0,0,1.813.688,2.694,2.694,0,0,0,1.672-.531Zm16.281-7.2h-11.3a5.984,5.984,0,0,0,1.438,4.125,4.956,4.956,0,0,0,3.781,1.453,7.861,7.861,0,0,0,4.969-1.781v2.406A9.286,9.286,0,0,1,35.578.375,6.763,6.763,0,0,1,30.25-1.8a8.921,8.921,0,0,1-1.937-6.133,8.749,8.749,0,0,1,2.117-6.086,6.789,6.789,0,0,1,5.258-2.352,6.015,6.015,0,0,1,4.859,2.031A8.469,8.469,0,0,1,42.266-8.7ZM39.641-9.531a5.214,5.214,0,0,0-1.07-3.453,3.647,3.647,0,0,0-2.93-1.234,4.139,4.139,0,0,0-3.078,1.3A5.885,5.885,0,0,0,31-9.531Zm9.125,7.219H48.7V7.359H46.141V-16H48.7v2.813h.063A6.059,6.059,0,0,1,54.3-16.375a5.859,5.859,0,0,1,4.828,2.148,8.9,8.9,0,0,1,1.734,5.758,9.917,9.917,0,0,1-1.953,6.43A6.5,6.5,0,0,1,53.563.375,5.353,5.353,0,0,1,48.766-2.312ZM48.7-8.766v2.234a4.757,4.757,0,0,0,1.289,3.367,4.28,4.28,0,0,0,3.273,1.383,4.289,4.289,0,0,0,3.648-1.781,8.172,8.172,0,0,0,1.32-4.953A6.451,6.451,0,0,0,57-12.7a4.085,4.085,0,0,0-3.344-1.516,4.54,4.54,0,0,0-3.594,1.555A5.708,5.708,0,0,0,48.7-8.766ZM75.641-22.406v14.8h2.875v2.344H75.641V0H73.109V-5.266H62.578V-7.484q1.469-1.656,2.969-3.539t2.867-3.82q1.367-1.937,2.531-3.867a35.343,35.343,0,0,0,1.961-3.7ZM65.469-7.609h7.641V-18.578q-1.172,2.047-2.219,3.656T68.9-12q-.945,1.313-1.8,2.375T65.469-7.609Z"
										transform="translate(0 27.5)" fill="#5abba1" />
									<path id="Контур_1769" data-name="Контур 1769"
										d="M18.662-8.281q0,.166-.244.3a2.873,2.873,0,0,0-.713.664,16.882,16.882,0,0,1-2.588,2.48q-.205.176-.283.176a1.244,1.244,0,0,1-.332-.225,3.991,3.991,0,0,0-.869-.479,12.263,12.263,0,0,0,2.842-2.48H10.918v4.385l.02,2.734A1.775,1.775,0,0,1,10.42.742a4.826,4.826,0,0,1-2.441.381h-.42q-.332,0-.391-.068A.914.914,0,0,1,7.041.7a4.08,4.08,0,0,0-.4-.986,20.164,20.164,0,0,0,2.08.127,1.056,1.056,0,0,0,.732-.186.836.836,0,0,0,.166-.6v-6.9H4.561L1.895-7.8a.138.138,0,0,1-.156-.156v-.967a.138.138,0,0,1,.156-.156l2.666.039H10.84A21.183,21.183,0,0,0,6.621-12.08q-.107-.059-.107-.088a.86.86,0,0,1,.146-.215l.4-.459q.107-.117.166-.117a.211.211,0,0,1,.107.049,22.708,22.708,0,0,1,2.549,1.572A25.63,25.63,0,0,0,14.3-14.3H6.436l-2.812.039q-.146,0-.146-.156v-.928q0-.156.146-.156l2.813.039h8.379a1.5,1.5,0,0,0,.488-.059,1.792,1.792,0,0,1,.273-.1q.186,0,.625.439t.439.664q0,.166-.283.273a2.294,2.294,0,0,0-.693.42,27.126,27.126,0,0,1-4.8,3.193q.361.293,1.2,1.045.068.059.068.088a.981.981,0,0,1-.176.186l-.273.264h5.2a1.131,1.131,0,0,0,.508-.078.6.6,0,0,1,.234-.078,1.526,1.526,0,0,1,.645.381Q18.662-8.467,18.662-8.281ZM29.189-6.416a.382.382,0,0,1,.029.127q0,.107-.254.186l-.459.146a.828.828,0,0,1-.2.039q-.088,0-.117-.127-.293-.9-.381-1.152L25.889-7v5.361l.039,2.92q0,.137-.156.137h-.908q-.156,0-.156-.137l.039-2.92V-6.9l-2.2.166a2.192,2.192,0,0,0-.762.156.6.6,0,0,1-.225.078q-.127,0-.2-.254-.078-.3-.205-1.1.635.059,1.26.059h.244q.713-.928,1.5-2.08a27.979,27.979,0,0,0-2.949-3.076.209.209,0,0,1-.088-.137q0-.059.156-.225l.342-.42q.127-.146.186-.146t.127.088l.762.742q.742-1.152,1.318-2.266a5.129,5.129,0,0,0,.527-1.357q.537.215,1.113.5.225.107.225.264,0,.107-.176.215a1.173,1.173,0,0,0-.342.42q-1.055,1.748-1.924,2.979.684.684,1.338,1.465.742-1.191,1.3-2.139a9.246,9.246,0,0,0,.8-1.7,8.283,8.283,0,0,1,1.1.557.3.3,0,0,1,.176.244q0,.127-.2.254a3.757,3.757,0,0,0-.7.879q-1.65,2.637-3.34,4.883,1.934-.107,3.525-.234a15.429,15.429,0,0,0-.781-1.543.24.24,0,0,1-.039-.107q0-.078.234-.176l.361-.137a.527.527,0,0,1,.215-.068q.078,0,.146.107A20.154,20.154,0,0,1,29.189-6.416ZM38.2-12.959q-.039.508-.039,1.523a65.628,65.628,0,0,1-.645,9.7A4.946,4.946,0,0,1,36.65.6a2.056,2.056,0,0,1-1.631.684,15.514,15.514,0,0,1-1.855-.1.654.654,0,0,1-.381-.107A1.1,1.1,0,0,1,32.666.7a3.034,3.034,0,0,0-.322-.9,17.372,17.372,0,0,0,2.6.273,1.085,1.085,0,0,0,.986-.723,6.119,6.119,0,0,0,.42-1.533,63.307,63.307,0,0,0,.557-9.814h-5.84a16.035,16.035,0,0,1-1.68,2.6q-.166.225-.283.225-.1,0-.293-.205a2.473,2.473,0,0,0-.645-.479,14.31,14.31,0,0,0,2.9-5.1,8.049,8.049,0,0,0,.381-1.768,8.6,8.6,0,0,1,1.24.322q.283.1.283.244a.559.559,0,0,1-.176.352,2.48,2.48,0,0,0-.508.967q-.205.645-.684,1.738h4.268l2.158-.039A.155.155,0,0,1,38.2-12.959ZM34.063-5.02a.316.316,0,0,1,.049.127q0,.078-.205.2l-.557.313a.764.764,0,0,1-.264.127q-.059,0-.117-.117A16.568,16.568,0,0,0,30.547-8.2a.187.187,0,0,1-.068-.117q0-.068.205-.2l.5-.3a.4.4,0,0,1,.186-.088q.049,0,.117.088A15.948,15.948,0,0,1,34.063-5.02Zm-10.5-.02a.94.94,0,0,1-.1.234,1.85,1.85,0,0,0-.146.586,16.822,16.822,0,0,1-.977,3.9q-.078.283-.176.283a.749.749,0,0,1-.3-.156,1.575,1.575,0,0,0-.684-.3,15.319,15.319,0,0,0,1.084-3.945,4.171,4.171,0,0,0,.049-.625q0-.127-.01-.332a8.1,8.1,0,0,1,.977.156Q23.564-5.186,23.564-5.039ZM29.141-1.5a.321.321,0,0,1,.01.078q0,.146-.244.225l-.479.137a.874.874,0,0,1-.225.049q-.078,0-.117-.146A20.981,20.981,0,0,0,27.041-5a.374.374,0,0,1-.029-.117q0-.107.234-.166l.42-.117a.8.8,0,0,1,.166-.029q.1,0,.176.146A19.628,19.628,0,0,1,29.141-1.5ZM45.977-9.482A9.186,9.186,0,0,1,50-8.223a17.55,17.55,0,0,0,2.578,1.2,5.179,5.179,0,0,0,1.641.283,5.528,5.528,0,0,0,3.857-2.041l.645.557q-2.266,2.705-4.746,2.705a8.836,8.836,0,0,1-4.014-1.3,15.77,15.77,0,0,0-2.539-1.2,5.289,5.289,0,0,0-1.68-.283,3.948,3.948,0,0,0-1.895.488,9.635,9.635,0,0,0-1.924,1.494l-.645-.537A9.577,9.577,0,0,1,43.74-8.916,4.734,4.734,0,0,1,45.977-9.482ZM78.955-2.236a4.829,4.829,0,0,1-.391,1.895,2.41,2.41,0,0,1-.625.684q-.732.6-4.141.6A14.6,14.6,0,0,1,71.543.82a2.245,2.245,0,0,1-.957-.361,1.934,1.934,0,0,1-.566-1.621V-6.279q-.566.176-.986.332l-.293.107a.321.321,0,0,1-.1.02q-.107,0-.146-.156l-.2-.762a.225.225,0,0,1-.02-.078q0-.078.137-.107.576-.107,1.6-.4V-8.34a15.781,15.781,0,0,0-.117-2.3,11.854,11.854,0,0,1,1.182.107q.234.029.234.156a1.035,1.035,0,0,1-.1.361,6.34,6.34,0,0,0-.1,1.455v.928l2.031-.605v-.879a15.444,15.444,0,0,0-.137-2.422,8.961,8.961,0,0,1,1.191.107q.225.029.225.2a2.089,2.089,0,0,1-.078.322,5.746,5.746,0,0,0-.117,1.494v.859L75.674-9q1-.283,1.8-.566.488-.166.527-.176h.029q.107,0,.107.146l-.039.918a23.867,23.867,0,0,1-.459,4.541,1.224,1.224,0,0,1-1.24.947q-.176.01-.391.01-.313,0-.684-.029-.176-.02-.215-.078a.818.818,0,0,1-.068-.283,2.053,2.053,0,0,0-.264-.811,5.2,5.2,0,0,0,1.26.166.576.576,0,0,0,.625-.5A23.322,23.322,0,0,0,77-8.379l-2.764.84v2.7l.039,2.285a.138.138,0,0,1-.156.156h-.85a.138.138,0,0,1-.156-.156l.039-2.285V-7.217l-2.031.6v4.58a6.253,6.253,0,0,0,.068,1.162.58.58,0,0,0,.254.41A5.985,5.985,0,0,0,73.9-.186a18.748,18.748,0,0,0,2.471-.107,1.76,1.76,0,0,0,.85-.312,1.5,1.5,0,0,0,.5-.889,9.637,9.637,0,0,0,.146-1.67,1.944,1.944,0,0,0,.781.4q.322.088.322.361Q78.965-2.344,78.955-2.236ZM68.682-12.2a.147.147,0,0,1-.166.166L66.3-12.08H64.561q-.039,1.836-.078,2.744h1.982l1.24-.039a.155.155,0,0,1,.176.176q-.02.371-.039,1.113-.029.85-.039,1.289a31.538,31.538,0,0,1-.439,5.762,2.892,2.892,0,0,1-.693,1.5,1.734,1.734,0,0,1-1.23.41q-.615,0-1-.02Q64.219.84,64.17.771A.992.992,0,0,1,64.1.439a2.445,2.445,0,0,0-.283-.879,8.2,8.2,0,0,0,1.5.156.764.764,0,0,0,.742-.42,4.934,4.934,0,0,0,.273-1.162,48.069,48.069,0,0,0,.381-6.406H64.443a26.434,26.434,0,0,1-.771,5.391A12.452,12.452,0,0,1,62,.742q-.156.215-.225.215-.088,0-.234-.176A2.581,2.581,0,0,0,60.82.156,11.193,11.193,0,0,0,63-5.088a49.911,49.911,0,0,0,.439-6.992l-2.158.049q-.137,0-.137-.166v-.84a.121.121,0,0,1,.137-.137l2.236.039h1.309v-1.338a9.943,9.943,0,0,0-.146-2.061q.771.029,1.3.1.264.029.264.176a1.234,1.234,0,0,1-.117.361A4.765,4.765,0,0,0,66-14.473v1.338h.322l2.2-.039q.166,0,.166.137ZM78.8-12.471a.138.138,0,0,1-.156.156l-2.383-.039H70.576a14.787,14.787,0,0,1-1.758,2.52q-.166.205-.273.205-.088,0-.283-.225a1.82,1.82,0,0,0-.586-.42,12.384,12.384,0,0,0,2.988-4.961,6.014,6.014,0,0,0,.254-1.348q.752.146,1.143.264.225.059.225.225a.474.474,0,0,1-.117.234,2.692,2.692,0,0,0-.381.82q-.371,1.006-.645,1.6H76.26l2.383-.039a.138.138,0,0,1,.156.156Zm14.4,1.338q0,.156-.166.156l-2.08-.039h-.6v8.643L90.4,1.084a.138.138,0,0,1-.156.156h-.928a.138.138,0,0,1-.156-.156L89.2-2.354v-8.662h-.625l-2.1.039a.138.138,0,0,1-.156-.156v-.82q0-.166.156-.166l2.1.039H89.2v-1.7a15.872,15.872,0,0,0-.146-2.578,12.459,12.459,0,0,1,1.289.117q.244.039.244.166a.541.541,0,0,1-.039.176,1.807,1.807,0,0,0-.068.186,8.8,8.8,0,0,0-.117,1.914v1.719h.6l2.08-.039a.147.147,0,0,1,.166.166Zm5.879,1.2q0,.176-.166.176l-1.777-.039h-.1v5.938l.02,3.135A1.675,1.675,0,0,1,96.514.742a4.071,4.071,0,0,1-1.953.3h-.439q-.313,0-.371-.068a.854.854,0,0,1-.117-.352,3.553,3.553,0,0,0-.312-.85,15.4,15.4,0,0,0,1.8.127q.742-.029.742-.82V-9.795h-.547l-1.777.039a.155.155,0,0,1-.176-.176v-.8q0-.166.176-.166l1.777.039h1.826l1.777-.039a.147.147,0,0,1,.166.166ZM85.947-11.338q0,.117-.186.234a1.563,1.563,0,0,0-.459.586,15.949,15.949,0,0,1-1.035,1.66v7.441l.039,2.578q0,.156-.166.156h-.918a.138.138,0,0,1-.156-.156l.039-2.578V-5q0-.176.059-2.461a20.552,20.552,0,0,1-1.582,1.6q-.156.156-.234.156-.107,0-.205-.215a2.513,2.513,0,0,0-.459-.723A14.873,14.873,0,0,0,84.365-11.2a4.692,4.692,0,0,0,.381-.977,7.555,7.555,0,0,1,.977.557Q85.947-11.465,85.947-11.338Zm.059-4.346q0,.137-.186.225a1.689,1.689,0,0,0-.5.479,18.235,18.235,0,0,1-3.535,3.7.825.825,0,0,1-.283.156q-.088,0-.244-.283a2.471,2.471,0,0,0-.518-.674,13.078,13.078,0,0,0,3.564-3.564,2.987,2.987,0,0,0,.439-.9,6.738,6.738,0,0,1,1.055.586Q86.006-15.82,86.006-15.684Zm2.061,7.461a.574.574,0,0,1-.1.264,2.037,2.037,0,0,0-.205.781,19.873,19.873,0,0,1-1.26,4.99q-.078.244-.186.244a.807.807,0,0,1-.254-.1,2.385,2.385,0,0,0-.781-.234,16.2,16.2,0,0,0,1.367-4.9q.039-.488.039-.908A4.045,4.045,0,0,0,86.66-8.6a8.844,8.844,0,0,1,1.143.166Q88.066-8.389,88.066-8.223Zm5.771,4.98a.16.16,0,0,0,.01.039v.029q0,.107-.205.2l-.557.2a.943.943,0,0,1-.244.068q-.088,0-.1-.146A30.344,30.344,0,0,0,91.6-8.184a.414.414,0,0,1-.02-.1q0-.068.205-.137l.537-.186a.569.569,0,0,1,.137-.029q.078,0,.117.137A32.791,32.791,0,0,1,93.838-3.242Zm4.785-10.84q0,.166-.137.166l-1.562-.039h-1.3l-1.562.039q-.156,0-.156-.166v-.84a.138.138,0,0,1,.156-.156l1.563.039h1.3l1.563-.039q.137,0,.137.156Zm-5.381.381a.3.3,0,0,1,.029.107q0,.078-.146.176l-.4.254a.749.749,0,0,1-.244.127q-.059,0-.117-.127a9.543,9.543,0,0,0-1.2-1.973.237.237,0,0,1-.059-.117q0-.059.156-.146l.439-.244a.636.636,0,0,1,.176-.059.163.163,0,0,1,.107.059A9.682,9.682,0,0,1,93.242-13.7Z"
										transform="translate(89.198 27.5)" fill="#215f87" />
								</g>
							</svg>