<svg xmlns="http://www.w3.org/2000/svg" width="75.61" height="30.203" viewBox="0 0 75.61 30.203">
  <path id="Контур_1731" data-name="Контур 1731" d="M4.469-7.406a6.273,6.273,0,0,0,.922,3.172q1.547,2.281,5.453,2.281a9.652,9.652,0,0,0,3.188-.5q2.781-.969,2.781-3.469a3,3,0,0,0-1.172-2.672,11.833,11.833,0,0,0-3.719-1.359l-3.109-.7A14.08,14.08,0,0,1,4.5-12.172a4.8,4.8,0,0,1-2.187-4.3,6.617,6.617,0,0,1,2.141-5.078,8.588,8.588,0,0,1,6.063-1.984,10.53,10.53,0,0,1,6.133,1.742q2.523,1.742,2.523,5.57H16.25a5.751,5.751,0,0,0-1-2.828q-1.422-1.8-4.828-1.8a5.585,5.585,0,0,0-3.953,1.156A3.619,3.619,0,0,0,5.266-17a2.624,2.624,0,0,0,1.406,2.469,20.637,20.637,0,0,0,4.172,1.25l3.219.734a9.862,9.862,0,0,1,3.594,1.453,5.441,5.441,0,0,1,2.188,4.672A5.832,5.832,0,0,1,17.07-.969,12.421,12.421,0,0,1,10.625.672a9.638,9.638,0,0,1-6.7-2.187A7.381,7.381,0,0,1,1.547-7.406Zm19.5-14h2.844v4.672h2.672v2.3H26.813V-3.516a1.182,1.182,0,0,0,.594,1.172,2.524,2.524,0,0,0,1.094.172q.2,0,.438-.008t.547-.039V0a6.278,6.278,0,0,1-1.008.2,9.582,9.582,0,0,1-1.133.063A3.053,3.053,0,0,1,24.672-.742a4.479,4.479,0,0,1-.7-2.617V-14.437H21.7v-2.3h2.266Zm15.3,4.3a7.633,7.633,0,0,1,3.453.836,6.368,6.368,0,0,1,2.547,2.164,7.466,7.466,0,0,1,1.125,2.953,19.321,19.321,0,0,1,.25,3.688H34.375a7.157,7.157,0,0,0,1.2,4.086,4.029,4.029,0,0,0,3.484,1.539A4.5,4.5,0,0,0,42.578-3.3,4.9,4.9,0,0,0,43.641-5.25h2.766A5.825,5.825,0,0,1,45.68-3.2,7.308,7.308,0,0,1,44.3-1.344,6.554,6.554,0,0,1,41.125.344a9.636,9.636,0,0,1-2.3.25,7.047,7.047,0,0,1-5.3-2.273,8.846,8.846,0,0,1-2.172-6.367,9.618,9.618,0,0,1,2.188-6.547A7.216,7.216,0,0,1,39.266-17.109ZM43.75-9.7a7.287,7.287,0,0,0-.8-2.922,4.084,4.084,0,0,0-3.859-2.031,4.278,4.278,0,0,0-3.25,1.4A5.283,5.283,0,0,0,34.453-9.7ZM57.156-1.891A4.012,4.012,0,0,0,60.43-3.539a7.845,7.845,0,0,0,1.3-4.93,9.2,9.2,0,0,0-.578-3.437,3.99,3.99,0,0,0-4-2.766,3.989,3.989,0,0,0-4,2.922,11.58,11.58,0,0,0-.578,3.969,8.413,8.413,0,0,0,.578,3.3A3.988,3.988,0,0,0,57.156-1.891ZM49.875-16.656h2.734v2.219A6.827,6.827,0,0,1,54.453-16.2a5.935,5.935,0,0,1,3.344-.937,6.287,6.287,0,0,1,4.828,2.18,8.93,8.93,0,0,1,1.984,6.227q0,5.469-2.859,7.813A6.46,6.46,0,0,1,57.531.563a5.727,5.727,0,0,1-3.172-.828,7.308,7.308,0,0,1-1.672-1.609V6.672H49.875Zm19.016.813V-18a11.457,11.457,0,0,0,4.25-.992q1.2-.7,1.8-3.289h2.219V0h-3V-15.844Z" transform="translate(-1.546 23.531)" fill="#5abba1"/>
</svg>
