<svg id="Сгруппировать_63" data-name="Сгруппировать 63" xmlns="http://www.w3.org/2000/svg" xmlns:xlink="http://www.w3.org/1999/xlink" width="288.288" height="95.791" viewBox="0 0 288.288 95.791">
  <defs>
    <clipPath id="clip-path">
      <rect id="Прямоугольник_45" data-name="Прямоугольник 45" width="288.288" height="95.791" fill="none"/>
    </clipPath>
  </defs>
  <g id="Сгруппировать_62" data-name="Сгруппировать 62" clip-path="url(#clip-path)">
    <path id="Контур_1755" data-name="Контур 1755" d="M15.451-9.255l3.032-.158A1.343,1.343,0,0,1,19.67-9.1q.448.738-.422,1.081-.712.158-1.753.382t-2.413.567a9.907,9.907,0,0,0-.132,2.558,16.545,16.545,0,0,1,2.544-.369q1.6-.132,2.808-.185a1.666,1.666,0,0,1,.949.3,1.16,1.16,0,0,1,.527.8,1.7,1.7,0,0,1-.132.976A16.379,16.379,0,0,1,20.672-.9a4.12,4.12,0,0,0-.5,1.107,1.949,1.949,0,0,1,.2.936q-.013.514-1.252.725l-3.27.527q-1.45.211-3.3.58a1.927,1.927,0,0,1-1.4-.9,13.937,13.937,0,0,1-1.2-3.111q-.488-1.819-.883-3.48a.708.708,0,0,1,.936-.356,1.473,1.473,0,0,1,.91.672,3.8,3.8,0,0,1,.343,1,16.776,16.776,0,0,1,2.558-1,4.362,4.362,0,0,1-.448-1.714q.026-1.556.132-2.848v-.264q.132-1.371.185-2.347a.569.569,0,0,1,.277-.7.8.8,0,0,1,.8.04,1.084,1.084,0,0,1,.844,1,9.377,9.377,0,0,0-.132,1.134Q15.451-9.545,15.451-9.255Zm4.43,5.933a11.784,11.784,0,0,0-3.665.224,9.237,9.237,0,0,0-2.492.738q-.514.33-.817.5a.912.912,0,0,1-.686.079,4.864,4.864,0,0,1-.8-.277,5.759,5.759,0,0,0,.4,1.793,16.9,16.9,0,0,0,.712,1.582q2.162-.29,3.441-.5a15.54,15.54,0,0,0,2.386-.58q.58-1.292.923-2.03A14.567,14.567,0,0,0,19.881-3.322ZM14.344-15.346q2-.369,3.691-.633t2.637-.369a1.07,1.07,0,0,1,.87.369,1.073,1.073,0,0,1,.316.791.382.382,0,0,1-.2.435,1.253,1.253,0,0,1-.488.171,1.508,1.508,0,0,1-.791,0,6.053,6.053,0,0,0-1.833.105q-1.411.211-3.916.765a38.329,38.329,0,0,0-5.062,1.5A1.4,1.4,0,0,0,8.6-11.1Q7.752-8.358,6.75-5.563q-.158.448-.29.87Q5.669-2.531,5.194-1.4A9.706,9.706,0,0,0,4.5.765a3.032,3.032,0,0,0-.04,1.068,1.553,1.553,0,0,1,.026.646,1.626,1.626,0,0,1-.857.224.614.614,0,0,1-.593-.461A2.287,2.287,0,0,1,2.874.132q.633-1.74,1.239-3.454.158-.5.343-1Q5.221-6.565,5.827-8.4t.712-2.281a2.744,2.744,0,0,1-.923-.976q-.369-.633.58-1.266,2.848-.844,4.061-1.239t2.347-.659q.211-1.951.369-4.219a6.087,6.087,0,0,1,.053-.778q.053-.409.606-.409a1.1,1.1,0,0,1,.765.422,1.454,1.454,0,0,1,.369.9q-.079,1.371-.2,2.149T14.344-15.346Zm28.424,4.957a26.04,26.04,0,0,1,2.663-1.187q.343-.132.659-.264a16.662,16.662,0,0,0,.053-2.61q-1.055.343-2.979,1.107-.343.185-.527.29t-.527-.079a2.2,2.2,0,0,1-.606-1.556q1.134-.4,2.452-.738a21.124,21.124,0,0,0,2.083-.633q-.185-1.107-.29-1.978a1.973,1.973,0,0,1,.712-.316.828.828,0,0,1,.751.29,1.417,1.417,0,0,1,.448.7q.066.33.145.672l1.266-.343a4.156,4.156,0,0,1,.725-.211q.3-.053.593.33a5.109,5.109,0,0,1,.5.8.59.59,0,0,1-.369.514,1.368,1.368,0,0,1-.554.066,18.526,18.526,0,0,0-2.136.554q-.053.554-.079,1.055-.026.369-.053,1.028a3.618,3.618,0,0,0-.026.448q1.345-.343,2.281-.633a6.337,6.337,0,0,1,1.885-.29,1.708,1.708,0,0,1,1.582,1.45q-.079,1.16-.264,4.469t-.435,5.3q-.25,1.991-.409,3.836-.211,1.529-1.529.633a5.92,5.92,0,0,1-1.16-1.042,3.531,3.531,0,0,1-.606-.962.444.444,0,0,1,.5-.092,7.9,7.9,0,0,0,.738.3q.5.185.633-.369.29-1.819.448-3.995t.29-4.3a29.267,29.267,0,0,0,.026-3.7,6.252,6.252,0,0,0-1.4.158,16.892,16.892,0,0,0-2.558.791q-.132,1.714-.185,2.61.554-.105,1.081-.211a1.082,1.082,0,0,1,.778-.092.783.783,0,0,1,.62.488,2.182,2.182,0,0,1,.158.817q-1.5.5-2.821,1.028-.053,1.239-.053,2.057a13.527,13.527,0,0,0,1.437-.659q.751-.4,1.49-.791.475,0,.567.33a.991.991,0,0,1-.013.62.884.884,0,0,1-.343.448,8.737,8.737,0,0,1-1.5,1.028q-.976.554-1.661.976a6.7,6.7,0,0,0-.132,1.582A7.481,7.481,0,0,1,46.881.633a1.384,1.384,0,0,1-.738.013.777.777,0,0,1-.58-.435.9.9,0,0,1-.105-.567,8.779,8.779,0,0,0,.026-1.384,11.625,11.625,0,0,1-1.134.435q-.4.119-.646-.343a3.375,3.375,0,0,1-.3-.672.314.314,0,0,1,.105-.343q.158-.105,2.215-1.028.026-1,.066-1.279a3.3,3.3,0,0,0,.013-.672q-.791.448-1.45.844a.673.673,0,0,1-.659-.079,2.953,2.953,0,0,1-.659-1.239,1.382,1.382,0,0,1,.554-.369q.791-.422,2.268-1.16a13.9,13.9,0,0,0,.105-2.558,11.485,11.485,0,0,0-1.556.765,7.77,7.77,0,0,0-1.16.778,8.637,8.637,0,0,0-.738.751A66.359,66.359,0,0,0,42.557.211q.105.58.264,1.134a.9.9,0,0,1-.29.949.709.709,0,0,1-.9-.158A2.674,2.674,0,0,1,41.027.475q-.185-2.109-.264-4.219-.053-1.872.105-5.221l.053-.844a2.41,2.41,0,0,1,.33-1.068Q41.449-11.1,42.768-10.389ZM33.75-9.018q-.4.185-1.5.686-.422.264-.62.132a1.877,1.877,0,0,1-.461-.554,1.8,1.8,0,0,1-.29-.844q.686-.316,1.292-.606t1.529-.817a3.866,3.866,0,0,0,.092-1.042,2.4,2.4,0,0,1-.013-.554.528.528,0,0,1,.29-.382,1.4,1.4,0,0,1,.844.185,2.468,2.468,0,0,1,.606,1.187l.422-.132a1.342,1.342,0,0,1,.831-.132.581.581,0,0,1,.461.409,4.169,4.169,0,0,0,.237.593,3.581,3.581,0,0,1-.87.422l-1.239.633q-.079,1.371-.053,1.978a20.888,20.888,0,0,0,2.742-.976,1.346,1.346,0,0,1,1.556.475,1.022,1.022,0,0,1,.079.738.426.426,0,0,1-.527.316,10.093,10.093,0,0,0-1.556.237l-.132.026q-.659.185-2.821,1.081a15.768,15.768,0,0,0-3.48,1.9q-.448.712-1.371-.369a.79.79,0,0,1,.475-1.107q1.081-.606,3.164-1.608A1.782,1.782,0,0,0,33.6-8,3.222,3.222,0,0,1,33.75-9.018ZM31.878-2.742l.606.343q.765-.422,1.859-.962a16.09,16.09,0,0,1,2.149-.883,9.158,9.158,0,0,1,1.5-.4,1.3,1.3,0,0,1,1.266.461,1.029,1.029,0,0,1,.185,1.252q-.264,1.081-.5,1.872T38.5.343A6.056,6.056,0,0,1,36.7,1.661a9.108,9.108,0,0,1-2.347.9A.8.8,0,0,1,33.42,2.5a4.084,4.084,0,0,1-.62-.778q-.29-.461-.936-1.529a13.7,13.7,0,0,1-1.094-2.254q-.211-.554.053-.738T31.878-2.742ZM33.091-.9a4.1,4.1,0,0,0,.4,1,5.179,5.179,0,0,0,.633.9A13.158,13.158,0,0,0,37.283-.5a14.069,14.069,0,0,0,.4-2.558A25.061,25.061,0,0,0,34.95-1.951,12.878,12.878,0,0,0,33.091-.9ZM53.262-14.159a1.53,1.53,0,0,1-.712-.514,6.1,6.1,0,0,1-.422-.672,15.067,15.067,0,0,1-1.107-1.846,8.915,8.915,0,0,1-.606-1.239.608.608,0,0,1,.264-.606.468.468,0,0,1,.606-.026,2.848,2.848,0,0,1,.949.9q.527,1.055.976,2.083.185.422.343.817a1.338,1.338,0,0,1,.092.593A.558.558,0,0,1,53.262-14.159ZM34.251-19.433q.58.185,1,.343a.5.5,0,0,1,.33.633,6.449,6.449,0,0,1-.2.791q.4.4.857.791t1.635,1.6q1.173,1.2,1.859,1.885a3.4,3.4,0,0,1,.791,1,.955.955,0,0,1-.237.949.854.854,0,0,1-1.028-.158,2.651,2.651,0,0,1-.3-.554,14.193,14.193,0,0,0-2.03-2.136q-1.885-1.793-2.465-2.268-.237.4-1.2,1.991t-2.307,4.153a45.26,45.26,0,0,0-2.03,4.3q-.158.738-.4,1.556-1.582-.026-1.187-1.318a37.683,37.683,0,0,1,2.413-5.445q1.912-3.757,2.452-4.68t1.081-2A4.546,4.546,0,0,1,34.251-19.433ZM64.837-5.906A11.082,11.082,0,0,1,66.1-4.852a10.233,10.233,0,0,1,.844.949.96.96,0,0,1-.29.9.744.744,0,0,1-.751-.026q-.277-.211-.9-.62A16.4,16.4,0,0,1,63.65-4.667q-.58.633-1.068,1.2a6.187,6.187,0,0,0-.936,1.648q-.316.976.343,1.292a4.647,4.647,0,0,0,2.123.171,16.177,16.177,0,0,0,3.151-.593q.5-.264.791,0a1.169,1.169,0,0,1,.343.778.948.948,0,0,1-.343.857A3.152,3.152,0,0,1,66.894,1a16.57,16.57,0,0,1-2.373.409,5.408,5.408,0,0,1-2.716-.33,3.067,3.067,0,0,1-1.9-3.243,5.539,5.539,0,0,1,.738-1.78,10.169,10.169,0,0,1,1.5-1.78A3.783,3.783,0,0,1,60.7-7.093a2.629,2.629,0,0,1-.316-1.714,15.643,15.643,0,0,1,.765-2.426q-1.687.475-2.5.738a13.294,13.294,0,0,0-1.582.633,1.435,1.435,0,0,1-.87-.488A1.113,1.113,0,0,1,55.872-11a.65.65,0,0,1,.316-.5,5.293,5.293,0,0,1,1.371-.567q1.055-.33,2.373-.646.87-.211,1.925-.448.58-1.556.659-1.846.105-.343.4-1.187a.4.4,0,0,1,.316-.158.725.725,0,0,1,.369.132,1.471,1.471,0,0,1,.527.527q.105.237.211.461a2.513,2.513,0,0,1-.237,1.252q-.079.211-.158.4,1.081-.211,2.215-.4,1.688-.264,2.848-.343a.884.884,0,0,1,.765.514,2.074,2.074,0,0,1,.185.8q0,.369-.606.422a8.511,8.511,0,0,0-1.793-.026q-1.028.079-2.268.29-.844.158-2.136.5Q62.78-11,62.095-9.123a1.555,1.555,0,0,0,.013,1.015,3.443,3.443,0,0,0,1.252.989q.527-.448,1.49-1.173a12.427,12.427,0,0,1,1.912-1.2.581.581,0,0,1,.527-.053.892.892,0,0,1,.369.422,2.016,2.016,0,0,1,.185.791.578.578,0,0,1-.422.633q-.791.4-1.173.593A8.2,8.2,0,0,0,64.837-5.906Zm28.529-.976q-1,.237-2.228.567a16.97,16.97,0,0,0-2.637.976A8.852,8.852,0,0,0,86.221-3.9a1.16,1.16,0,0,1-1.042.132,1.186,1.186,0,0,1-.751-.712.63.63,0,0,1,.343-.844,10.86,10.86,0,0,1,1.688-.936Q87.513-6.75,89.029-7.3t2.61-.844q1.094-.29,1.727-.5-.079-.923-.105-1.872A4.862,4.862,0,0,1,94-10.573a.814.814,0,0,1,.646.29,2.687,2.687,0,0,1,.409.633q.158.343.29.633a11.22,11.22,0,0,1,1.74-.185,2.48,2.48,0,0,1,1.292.264.712.712,0,0,1,.119.923.668.668,0,0,1-.883.369q-.738.079-1.424.2a9.471,9.471,0,0,0-.949.2q-.053,1.925-.066,4.588a24.372,24.372,0,0,1-.7,5.537A1.521,1.521,0,0,1,93.867,3.9a.727.727,0,0,1-.672-.013,5.273,5.273,0,0,1-.9-.659,3.582,3.582,0,0,1-.857-1.042q1.239-.185,1.5-.738a3.96,3.96,0,0,0,.409-1.463q.119-.962.211-2.755A23.721,23.721,0,0,0,93.366-6.882Zm-6.618-9.387q.9-.185,1.529-.33t3.138-.7q.158-1.16.211-2.03a.418.418,0,0,1,.448-.369.867.867,0,0,1,.211.026,1.025,1.025,0,0,1,.725.435,5.183,5.183,0,0,1,.409,1.411q1.213-.264,1.6-.4a1.558,1.558,0,0,1,.857-.026,1.311,1.311,0,0,1,.158,1.134,11.039,11.039,0,0,1-1.45.554q-.422.105-1.5.5-.105.923-.185,1.437t-.211,1.753a6.218,6.218,0,0,1,1.292-.343q.475-.105,1.107-.237l1.187-.237a1.63,1.63,0,0,1,1.107.185,1.192,1.192,0,0,1,.448.844q0,.316-.5.5-2.136.4-3.9.778a22.757,22.757,0,0,0-3.111.883,12.107,12.107,0,0,0-1.187.5,4.916,4.916,0,0,0-.633.343l-.026.026a1.277,1.277,0,0,1-1.239-.132q-.738-.448-.712-.9a.885.885,0,0,1,.527-.659,16.472,16.472,0,0,1,2.017-.7q.857-.224,1.7-.488.079-.712.158-1.252t.211-1.859q-.527.185-1.134.343t-1.767.554a1.269,1.269,0,0,1-.962-.092,1.447,1.447,0,0,1-.554-.738Q86.511-16.058,86.748-16.269ZM91.811-.87a2.5,2.5,0,0,1-1.49-.145,5.132,5.132,0,0,1-1.542-1.042q-.158-.264-.3-.527a.426.426,0,0,1,.092-.527.878.878,0,0,1,1.16-.079q1.055.712,1.688,1.081.686.264.765.58T91.811-.87ZM81.791,2.953a1.781,1.781,0,0,1-1.279-.079,1.741,1.741,0,0,1-.672-.633q-.316-.475-.646-.936A9.378,9.378,0,0,1,78.561.277,1.553,1.553,0,0,1,78.39-.844,6.531,6.531,0,0,0,80.262.448,15.845,15.845,0,0,0,80.5-2.083q.053-1.556.026-2.979v-.211q-1.16.844-2.188,1.45a1.7,1.7,0,0,1-.883.33.725.725,0,0,1-.738-.409,4.646,4.646,0,0,1-.356-.765A15.2,15.2,0,0,1,78.35-5.959a16.828,16.828,0,0,0,2.228-1.477,20.209,20.209,0,0,0,.066-2.03q-.013-1.16-.04-3.533-1.635.738-2.465,1.213t-1.806,1.107a1.422,1.422,0,0,1-.936-.185,1.843,1.843,0,0,1-.751-.738.934.934,0,0,1,.58-.686q1.5-.817,2.9-1.463t2.452-1.121a15.719,15.719,0,0,0-.053-2.241q-.079-.5-.132-.791a.594.594,0,0,1,.237-.554,1.831,1.831,0,0,1,1.015.211q.409.237.461,1.134a10.954,10.954,0,0,0,.158,1.582q.527-.237,1.187-.554A1.371,1.371,0,0,1,84.665-15a1.153,1.153,0,0,1-.686.62q-.448.145-1.661.646-.132,2.795-.171,3.744a11.069,11.069,0,0,0,.04,1.661q.844-.422,1.951-1a2.1,2.1,0,0,1,.119.949,2.792,2.792,0,0,1-.646,1.028l-1.4,1.028-.053.316q-.079.738-.132,1.951Q82-2.584,81.989-.686t-.053,2.531A7.24,7.24,0,0,1,81.791,2.953ZM106.313-12.1a2.948,2.948,0,0,1-1.134-.053,2.356,2.356,0,0,1-.725-.448,1.112,1.112,0,0,1-.264-.58q-.066-.369.567-.554.606-.053,1.187-.079a5.461,5.461,0,0,0,1.345-.264q.369-1.424.448-1.767.237-.475.58-.475a.754.754,0,0,1,.4.132,2.235,2.235,0,0,1,.791,1.424q1.028-.316,1.846-.633.633-.264.87-.079a1.9,1.9,0,0,1,.461.593.945.945,0,0,1,.158.659q-.066.25-.751.567-1.213.448-1.885.646t-1.78.541q-.5,1.107-.923,2.215a24.681,24.681,0,0,0-.91,3.441,17.74,17.74,0,0,0-.448,3.955,6.93,6.93,0,0,0,.672,2.914q.158.765-.066.9a1.382,1.382,0,0,1-.527.171,1.361,1.361,0,0,1-.672-.105,1.006,1.006,0,0,1-.554-.62,12.978,12.978,0,0,1-.422-3.573,21.174,21.174,0,0,1,.461-4.008q.435-2.1.8-3.3T106.313-12.1Zm12.1,2.848a.614.614,0,0,1-.738.448,8.521,8.521,0,0,0-3.533.817,1.816,1.816,0,0,1-1.068-.105.917.917,0,0,1-.567-.765.944.944,0,0,1,.448-.686q1.951-.633,3.929-1.081a1.249,1.249,0,0,1,1.213.382A.977.977,0,0,1,118.415-9.255Zm-4.588,4.482a2.874,2.874,0,0,1,.844.527q1.4.87,2.268,1.463t1.213.857q.527.554.316.976a.915.915,0,0,1-.448.5,2.056,2.056,0,0,1-.949-.105q-.448-.369-1.252-.949t-2.175-1.371a1.407,1.407,0,0,1-.686-1.16Q112.983-4.878,113.827-4.772Zm20.145-6.117A7.776,7.776,0,0,0,134.525-13a24.308,24.308,0,0,0-2.914.5,19.44,19.44,0,0,0-2.795.765q-.857.343-2.281.923a5.481,5.481,0,0,1-.659.277.654.654,0,0,1-.633-.092,1.2,1.2,0,0,1-.422-.567,1.939,1.939,0,0,1-.132-.672,4.6,4.6,0,0,1,.672-.541,16.354,16.354,0,0,1,2.373-.738q2.1-.567,3.889-.923t3.059-.62q0-.422-.013-.751a2.647,2.647,0,0,0-.145-.725.986.986,0,0,1,.132-.817q.211-.211.738-.026a.994.994,0,0,1,.659.527,7.411,7.411,0,0,1,.4,1.424q1.978-.237,2.953-.4a1.347,1.347,0,0,1,.87.079q-.026-.316-.053-.712a9.582,9.582,0,0,1-.026-1.556q.105-.448.369-.448h.053a1.472,1.472,0,0,1,.686.369,1.357,1.357,0,0,1,.4,1.028q.237,2.03.29,3.8a1.224,1.224,0,0,1-1.345-.4l-.105-.369a12.671,12.671,0,0,0-1.424.026q-.791.053-2.689.343-.316,1.688-.923,3.8a7.987,7.987,0,0,1,.686,2.834,10.785,10.785,0,0,1-.237,2.7q-.343,1.846-.686,3.125t-.659,2.6a2.739,2.739,0,0,1-.541.831.56.56,0,0,1-.58.119,2.766,2.766,0,0,1-.7-.356q-.369-.25.026-1.2a15.108,15.108,0,0,0,1.121-3.335,26.052,26.052,0,0,0,.514-2.755,3.512,3.512,0,0,0-.105-1.4,7.66,7.66,0,0,1-.659,1.556,8.771,8.771,0,0,1-1.345,1.608.99.99,0,0,1-1.213.211,2.731,2.731,0,0,1-1.74-1.938,5.7,5.7,0,0,1,.132-2.7,3.882,3.882,0,0,1,1.45-2.188,6.852,6.852,0,0,1,1.74-.989A2.571,2.571,0,0,1,133.972-10.89Zm-.448,1.714a4.164,4.164,0,0,0-1.6.778,3.109,3.109,0,0,0-.962,1.252,3.834,3.834,0,0,0-.3,1.371,1.5,1.5,0,0,0,.461,1.134,7.754,7.754,0,0,0,1.463-1.912A11.494,11.494,0,0,0,133.523-9.176Zm10.89-4.245a5.783,5.783,0,0,1-1.266-3.217.665.665,0,0,1,.422-.606,1.007,1.007,0,0,1,.738.079q.633,1.925,1.187,3.349a.761.761,0,0,1-.158.422.536.536,0,0,1-.369.185A.817.817,0,0,1,144.413-13.421Zm9.519,11.944A4.215,4.215,0,0,1,153.1-.5q-.488.422-.962.791a2.11,2.11,0,0,1-.817.382,1.361,1.361,0,0,1-.883-.224,1.583,1.583,0,0,1-.725-.9,7.186,7.186,0,0,1-.554-2.755,28.6,28.6,0,0,1,.2-4.3,45.915,45.915,0,0,1,.831-5,11.6,11.6,0,0,0,.264-1.345q.079-.5.29-.58a.98.98,0,0,1,.237-.026,1.482,1.482,0,0,1,.343.053,1.352,1.352,0,0,1,.659.356.8.8,0,0,1,.264.659q-.026.382-.026.672-.448,1.74-.817,3.48a27.926,27.926,0,0,0-.514,3.916,20.769,20.769,0,0,0-.026,3.3,5.318,5.318,0,0,0,.224,1.305,8.891,8.891,0,0,1,1.608-1.081A1.106,1.106,0,0,1,153.207-2a.659.659,0,0,1,.448.105A.7.7,0,0,1,153.932-1.477Zm5.511-.738a1.488,1.488,0,0,1-1.687-.554,1.542,1.542,0,0,1-.105-.936q.105-.356.765-.382a16.228,16.228,0,0,0,3.111-.3q1.556-.3,3.059-.7.791-.185.989.29a.955.955,0,0,1,.092.712,1.1,1.1,0,0,1-.606.448,21.535,21.535,0,0,1-2.149.659Q161.262-2.531,159.442-2.215ZM157.86-8.6a2.031,2.031,0,0,1-.5-.316,2.713,2.713,0,0,1-.4-.435.955.955,0,0,1-.2-.527,2.1,2.1,0,0,1,.119-.7q2.531-.475,5.01-1.028.686-.079,1.147-.105a1.466,1.466,0,0,1,.844.2,1.608,1.608,0,0,1,.567,1.094,1.249,1.249,0,0,1-.712.356,6.925,6.925,0,0,1-.738.04,8.549,8.549,0,0,0-1.4.211,17.5,17.5,0,0,0-1.846.475Q158.941-9.07,157.86-8.6Zm24.178-5.273a3.749,3.749,0,0,0-.9.567q-.422.356-.844.765a2.791,2.791,0,0,1-1,.62,1.928,1.928,0,0,1-.356.092q-.119.013-.475-.606t-.066-.962q1.134-.87,1.688-1.305t2.874-2.07a2.893,2.893,0,0,1,.778.3.852.852,0,0,1,.461.686,1.688,1.688,0,0,1-.132.883q-.87,3.3-1.529,5.563t-1.068,3.968q-.409,1.7-.751,3.757a10.135,10.135,0,0,0-.158,3.138,1.5,1.5,0,0,1,.04.593.533.533,0,0,1-.382.435,2.115,2.115,0,0,1-1.015-.145A1.275,1.275,0,0,1,178.716,2a1.983,1.983,0,0,1-.158-.976q.132-.712.62-3.3t.989-4.509q.5-1.925.989-3.612t.7-2.5A3.932,3.932,0,0,0,182.038-13.869ZM208.722.923a2.969,2.969,0,0,1-.633.606.909.909,0,0,1-.8.145,1.9,1.9,0,0,1-.817-.488,1.158,1.158,0,0,1-.409-.7q-.026-.33.211-.409a1.571,1.571,0,0,0,1.516-.765,12.807,12.807,0,0,0,1.147-2.268q.58-1.424,1.292-3.349a9.532,9.532,0,0,0,.185-1.266,9.748,9.748,0,0,0-4.087.712q.686.369.593.712a2.578,2.578,0,0,1-.382.765q-1.239,2.742-2.9,6.064-.316.738-.791.4a1.463,1.463,0,0,1-.593-.527.774.774,0,0,1-.066-.791q.527-.923,1.042-1.991t1.147-2.439a12.859,12.859,0,0,0,.369-1.582,3.143,3.143,0,0,0-.58.171,6.812,6.812,0,0,0-.976.7,1.449,1.449,0,0,1-.593.422q-.382.158-.514-.158a3.592,3.592,0,0,1-.633-.633q-.158-.264-.29-.527a.427.427,0,0,1,.145-.435,1.351,1.351,0,0,1,.409-.25,30.1,30.1,0,0,1,4.878-1.767q.29-.053.527-.105,2.32-.5,3.4-.633a1.651,1.651,0,0,1,1.121.132,1.463,1.463,0,0,1,.751.8,1.671,1.671,0,0,1,.053,1.094q-.686,2.215-1.266,3.7t-1.147,2.637A9.835,9.835,0,0,1,208.722.923Zm-7.277-16.717a9.816,9.816,0,0,1,1-1.872,4.744,4.744,0,0,1,1,.4,1.069,1.069,0,0,1,.316,1.582q-3.19,5.3-5.089,8.622-1.608,2.874-2.241,4.219a3.613,3.613,0,0,0-.185.369,1.7,1.7,0,0,1-.33.606.56.56,0,0,1-.62.158,1.3,1.3,0,0,1-.4-.264,1.349,1.349,0,0,1-.343-1.081,1.564,1.564,0,0,1,.211-.686q.554-1.028,1.753-3.151t2.281-4.14Q199.889-13.052,201.445-15.794Zm7.726-.844a.821.821,0,0,1,1.239-.29,2.73,2.73,0,0,1,.923.976,17.751,17.751,0,0,0,2.109,3.27q.316.422.659.817,1.767,2.03,2.979,3.494t1.608,2.017a.66.66,0,0,1-.132.949.539.539,0,0,1-.541.2.686.686,0,0,1-.461-.33A39.533,39.533,0,0,0,214.786-8.7a30.789,30.789,0,0,1-2.61-3.243q-1.028-1.424-2.241-3.27Q209.539-15.873,209.17-16.638Zm22.966,19.2a.984.984,0,0,1-.883.053,1.056,1.056,0,0,1-.593-.738,5.416,5.416,0,0,1-.185-.9q-.053-.448-.079-.9-.475.158-.949.369A1.056,1.056,0,0,1,228.181.29a.97.97,0,0,1-.475-.923q.053-.211.475-.4.87-.343,2.109-.949.053-1.45.132-2.637-.58.105-.87.145a2.379,2.379,0,0,1-1.081-.356.747.747,0,0,1-.237-.686,2.483,2.483,0,0,1,1.094-.541q.883-.277,3.3-.817t3.52-.725a1.292,1.292,0,0,1,1.266.554q.5.712-.316.9-.9.079-1.846.237a4.194,4.194,0,0,1,.554,2.452q1.608-.316,2.03-.4a2.1,2.1,0,0,1,.936-.105,1.347,1.347,0,0,1,.857.448,1.134,1.134,0,0,1,.211.686.878.878,0,0,1-.712.316q-1.5.211-3.349.527a11.362,11.362,0,0,1-.066,1.833q-.119,1.358-.33,2.94a1.043,1.043,0,0,1-.053.554.575.575,0,0,1-.448.4.891.891,0,0,1-.606-.316,1.53,1.53,0,0,1-.29-.686,10.365,10.365,0,0,1,.079-1.437q.079-.541.158-2.755l-1.332.343a6.02,6.02,0,0,0-1.068.369q0,.738.079,1.688A10.9,10.9,0,0,0,232.136,2.558Zm-.791-7.594a1.909,1.909,0,0,1,.633,1.292q0,.633-.053,1.266,1.187-.264,2.294-.606a11.45,11.45,0,0,0-.132-2.637Q232.743-5.379,231.345-5.036Zm11.443,7.014a4.589,4.589,0,0,0,.343-1.49q.105-1.015.2-3.639t.145-5.643q.053-3.019-.026-5.076-1.582.606-3.085,1.292-.185.079-.4.185-1.266.58-2.347,1.028a2.088,2.088,0,0,0-.026.343,1.984,1.984,0,0,0,.026.554,1.7,1.7,0,0,0,.4.844q.5-.264,1.477-.672t1.806-.778a5.581,5.581,0,0,1,1.042-.4,1.782,1.782,0,0,1,.738.448,1.307,1.307,0,0,1-.264.712,20.112,20.112,0,0,1-1.846,1.121q-1,.541-2.136,1.2-1.4.765-2.057-.817a9.452,9.452,0,0,1-.448-1.477,8.968,8.968,0,0,1-.211-1.951q0-1.819.013-3.111t.013-2.057q0-1.134,1.028-.738.554.343,1.028.686,1.74-.369,2.94-.672a18.424,18.424,0,0,0,1.964-.593,2.676,2.676,0,0,1,.738-.105h.211a.914.914,0,0,1,.725.5,1.824,1.824,0,0,1,.25.9q.026,1.028.026,2.109,0,3.217-.132,7.04-.132,5.063-.3,7.95t-.171,3.177a.9.9,0,0,1-1.055.765A3.276,3.276,0,0,1,240.547.87a1.294,1.294,0,0,1,.857.369A4.42,4.42,0,0,0,242.788,1.978ZM225.7-16.189q.659-.185,1.859-.606t2.544-.923a1.122,1.122,0,0,1,1.266.211,1.665,1.665,0,0,1,.58,1.213q-.105,2.057-.171,3.731t-.145,2.94a1.218,1.218,0,0,1-.25.976.788.788,0,0,1-.58.3,3.615,3.615,0,0,1-.883-.224q-3.032,1.477-4.061,1.872a3.5,3.5,0,0,1-.976-.58q-.132,1.925-.132,3.665v.976Q224.78-.5,224.9.527a2.815,2.815,0,0,0,.382,1.345,1.351,1.351,0,0,1,.422.817.637.637,0,0,1-.211.659.528.528,0,0,1-.633.053.972.972,0,0,1-.923-.923,19.059,19.059,0,0,1-.5-4.456q0-.422-.026-.87-.026-2.742.132-6.275.185-4.14.382-6.012a13.788,13.788,0,0,0,.119-2.531q.026-.844.712-.712,1.081.738,1.028,1.266Q225.755-16.585,225.7-16.189Zm-.58,5.616a13.515,13.515,0,0,0,0,2.136,6.2,6.2,0,0,0,1.767-.527,32.051,32.051,0,0,0,3.059-1.4,4.782,4.782,0,0,0,.224-1.094,5.616,5.616,0,0,0,.013-1.147q-1.45.606-2.663,1.107T225.122-10.573Zm.211-1.74q2.979-1.028,3.546-1.292a1.962,1.962,0,0,1,1.358-.053q.053-1.107.026-2.373-1.45.58-2.663,1.015a12.256,12.256,0,0,0-2.215,1.042Q225.386-13.263,225.333-12.313Zm18.141-3.27a13.07,13.07,0,0,0-.105-1.556q-1.529.343-2.953.778a15.442,15.442,0,0,0-2.637,1.068l-.079,2.03a30.31,30.31,0,0,0,2.9-1.081,6.445,6.445,0,0,1,1.292-.488,1.544,1.544,0,0,1,.87.066,2.138,2.138,0,0,1,.686.369l.026.026Z" transform="translate(0 21.094)" fill="#fb7180"/>
    <path id="Контур_1754" data-name="Контур 1754" d="M15.029-6.908a8.977,8.977,0,0,1,1.74-.158,2.338,2.338,0,0,1,.831.2q.277.145.25,1.094a23.818,23.818,0,0,0-2.874.475L14.9-3.744l2.769-.369Q19.2-4.3,20.777-4.43a2.15,2.15,0,0,1,.989.2.865.865,0,0,1,.475.58.99.99,0,0,1-.092.725q-.079.132-.686.092a26.843,26.843,0,0,0-3.085.211,24.987,24.987,0,0,0-3.744.593,40.48,40.48,0,0,0,5.221,3.335q2.4,1.252,3.032,1.622a.625.625,0,0,1-.119.686.532.532,0,0,1-.725.158,22.082,22.082,0,0,1-3.388-1.542A40.615,40.615,0,0,1,14.607-.237Q14.5.817,14.423,1.9t-.105,1.859a6.086,6.086,0,0,1-.211,1.437,1.5,1.5,0,0,1-1.384-.026q-.514-.343-.382-.712a5.819,5.819,0,0,0,.211-.738A8.743,8.743,0,0,0,12.683,2.6q.053-.751.079-1.859A17.075,17.075,0,0,0,10.8,2.518q-1.173,1.2-2.123,2.07a1.329,1.329,0,0,1-.87-.672q-.211-.461.369-1.121Q9.519,1.4,10.666.356t2.1-2.017Q10.389-.791,9-.224a10.183,10.183,0,0,0-1.78.857,2.733,2.733,0,0,1-.7.158A.887.887,0,0,1,5.88.554,1.868,1.868,0,0,1,5.458.105.386.386,0,0,1,5.484-.3,3.171,3.171,0,0,1,6.592-.989Q7.567-1.45,9.611-2.2T13.1-3.349l.132-1.4a5.423,5.423,0,0,0-1.542.606,5.9,5.9,0,0,1-.8.448,1.56,1.56,0,0,1-.461.04,1.56,1.56,0,0,1-.62-.211.893.893,0,0,1-.448-.7.768.768,0,0,1,.409-.58q.3-.132,1.345-.646a17.6,17.6,0,0,1,2.228-.91q0-.343-.079-1.16a4.276,4.276,0,0,0-1.753.475Q10.494-6.908,9.123-6.2A1.753,1.753,0,0,1,8.279-6.3a1.029,1.029,0,0,1-.633-.686.815.815,0,0,1,.461-.606,9.72,9.72,0,0,1,1.173-.58q.738-.316,1.371-.606a1.8,1.8,0,0,1-1.042-1.226,10.814,10.814,0,0,0-.488-1.358q-1.055.448-1.674.751a6.958,6.958,0,0,0-.8.435,1.05,1.05,0,0,1-1.213-.158,2.287,2.287,0,0,1-.461-.633.589.589,0,0,1-.04-.4q.053-.158.475-.369a18.179,18.179,0,0,1,2.268-.91q1.239-.409,3.111-.989A9.131,9.131,0,0,1,10.4-14.95a15.349,15.349,0,0,1-.211-2.254q-.066-1.569-.066-2.808a.838.838,0,0,1,.976-.053,1.468,1.468,0,0,1,.738,1.213q-.079.923-.119,1.925a15.711,15.711,0,0,0,.013,1.727,2.979,2.979,0,0,0,.29,1.173,6.624,6.624,0,0,0,1.028-.185,11.908,11.908,0,0,0,1.134-.369q.633-2.5.9-3.533l.475-1.819q.079-.527.448-.527a1.021,1.021,0,0,1,.422.132,3.389,3.389,0,0,1,.659.475q.211.211-.053.844-.264.949-.461,1.608a6.351,6.351,0,0,0-.25,1.213,15.664,15.664,0,0,0,1.938-1.45,4.037,4.037,0,0,0,1.147-1.371,1.481,1.481,0,0,1,1.4.87,1.031,1.031,0,0,1-.316,1.055q-2.136,1.424-3.48,2.4,1.318-.105,2.584-.185a1.757,1.757,0,0,1,.857.053.788.788,0,0,1,.527.62,1.481,1.481,0,0,1-.013.857q-.791-.053-1.661-.066t-1.582.04q.422.765.277,1.042a6.031,6.031,0,0,1-.725.936q-.422.475-1.028,1.081-.185.158-.4.343,1.635-.211,2.294-.237a1.252,1.252,0,0,1,1.134.817q.29.686-.448.765a7.145,7.145,0,0,0-1.608.026q-.923.105-2.479.422A7.49,7.49,0,0,1,15.029-6.908Zm-4.535-4.983a6.443,6.443,0,0,1,.264,1.081,1.788,1.788,0,0,0,.369.883,2.665,2.665,0,0,0,.844.646,9.366,9.366,0,0,0,2.268-.606q.606-.844,1.318-1.767a3.041,3.041,0,0,0,.738-1.4,6.008,6.008,0,0,0-1.4.119q-.738.145-1.529.29t-1.529.316A7.786,7.786,0,0,0,10.494-11.892ZM8.7-13.605A3.41,3.41,0,0,1,6.5-14.7a3.949,3.949,0,0,1-1.173-1.753q-.132-.87.237-.936a1.209,1.209,0,0,1,.751.119,3.579,3.579,0,0,1,.778.527,7.809,7.809,0,0,0,.409.9,2.37,2.37,0,0,0,.725.817,1.131,1.131,0,0,1,.686.409Q9.1-14.344,8.7-13.605Z" transform="translate(247.166 21.094)" fill="#fb7180"/>
    <path id="Контур_1753" data-name="Контур 1753" d="M10.468-16.717A35.256,35.256,0,0,0,9.1-10.876,21.419,21.419,0,0,0,8.7-3.9a1.166,1.166,0,0,1-.053.62q-.105.25-.633.3a.926.926,0,0,1-.567-.409,3.27,3.27,0,0,1-.2-.541,14.51,14.51,0,0,1-.145-3.81q.171-2.1.5-4.654t.725-5.089q.158-.791.659-.791a1.5,1.5,0,0,1,.923.316,2.125,2.125,0,0,1,.58.593A.656.656,0,0,1,10.468-16.717ZM9.413,2.9q-.343.079-.58.158a.6.6,0,0,1-.488-.053.765.765,0,0,1-.356-.5A3.385,3.385,0,0,1,7.383.316a.641.641,0,0,1,.765-.686A1.221,1.221,0,0,1,9.2.659Q9.387,2.136,9.413,2.9Z" transform="translate(271.458 21.094)" fill="#fb7180"/>
    <path id="Контур_1752" data-name="Контур 1752" d="M13.263-7.778a1,1,0,0,1-.7-.633,1.606,1.606,0,0,1-.04-.976,15.475,15.475,0,0,0-2.241-.475q-1.635-.264-4.219-.686a1.9,1.9,0,0,1-.646-.119.946.946,0,0,1-.514-.448,1.481,1.481,0,0,1-.2-.672,1.447,1.447,0,0,1,.066-.554q.079-.211.475-.211,2.821.4,4.667.738a16.539,16.539,0,0,1,2.979.791,2,2,0,0,1,1.266,1.5,2.01,2.01,0,0,1,.119.751.766.766,0,0,1-.343.62A2.988,2.988,0,0,1,13.263-7.778ZM5.59-2.083a4.7,4.7,0,0,0,2.043.237,17.454,17.454,0,0,0,2.558-.488q1.49-.382,3.388-.8a.9.9,0,0,1,.606-.053.6.6,0,0,1,.435.409.569.569,0,0,1-.079.58,2.17,2.17,0,0,1-.461.435,13.125,13.125,0,0,1-1.885.791q-1.147.4-2.663.817A9.411,9.411,0,0,1,6.381.158,3.494,3.494,0,0,1,5.55-.053a1.077,1.077,0,0,1-.593-.514,2.376,2.376,0,0,1-.237-.844q-.053-.488.132-.62A1.124,1.124,0,0,1,5.59-2.083ZM17.9-13.632a24.424,24.424,0,0,1,.475-3.243.283.283,0,0,1,.316-.211,1.222,1.222,0,0,1,.237.026,2.231,2.231,0,0,1,.976.659,1.513,1.513,0,0,1,.158.87q-.264.686-.461,1.318a3.583,3.583,0,0,0-.145,1.345q-.316.58-.606.567a1.032,1.032,0,0,1-.646-.4A1.151,1.151,0,0,1,17.9-13.632Zm-4.034-2.953a.811.811,0,0,1,.672-.04,1.046,1.046,0,0,1,.633.422,1.507,1.507,0,0,1,.237.672,1.954,1.954,0,0,1-.04.686q0,.422.04.831a1.555,1.555,0,0,0,.25.725.686.686,0,0,1,.171.5.576.576,0,0,1-.33.475,1.1,1.1,0,0,1-.857-.145,1.532,1.532,0,0,1-.435-.58,7.643,7.643,0,0,1-.356-1.45A5.417,5.417,0,0,1,13.869-16.585Zm13.236,2.373a46.259,46.259,0,0,1,6.645-5.432.877.877,0,0,1,.475.2,2.642,2.642,0,0,1,.5.646q.29.475.158.738a7.936,7.936,0,0,1-1.767,1.16,16.414,16.414,0,0,0-3.639,3.059.793.793,0,0,0-.422.606,2.393,2.393,0,0,0,.026.791q-.053.738-.053,1.371.316-.079,1.912-.58t4.311-1.2a21.87,21.87,0,0,1,5.221-.725,1.593,1.593,0,0,1,1.187.5A1.881,1.881,0,0,1,42-11.865q-.105,1.028-.409,3.507t-.554,3.889q-.25,1.411-1.384,6.948a.934.934,0,0,1-.87.659A1.06,1.06,0,0,1,38,2.373a1.819,1.819,0,0,1-.132-.738,4.7,4.7,0,0,0-1.5-.013,21.006,21.006,0,0,0-4.192.989,2.571,2.571,0,0,0-1.187.554A1.514,1.514,0,0,1,29.4,2.953a3.5,3.5,0,0,1-.844-.989A2.907,2.907,0,0,1,28.134.712q-.237-1.767-.369-3.164-.053-.923-.132-2.531-.053-.844-.105-1.846-.105-3.006-.264-5.88Q27.185-13.526,27.105-14.212ZM38.18-11.76a24.155,24.155,0,0,0-4.14,1.028q-1.872.659-2.9,1.081a3.463,3.463,0,0,1-.58.224,1.336,1.336,0,0,1-.738-.026,1.282,1.282,0,0,1-.712-.541v1.424q.053,1.424.053,1.767a28.767,28.767,0,0,1,3.032-.87l.185-.053q1.767-.422,2.953-.606,1.266-.211,1.978-.29a1.6,1.6,0,0,1,1.424.369,1.133,1.133,0,0,1,.158.923q-.211.448-.9.343a34.75,34.75,0,0,0-3.85.62A42.31,42.31,0,0,0,29.821-5.01a.624.624,0,0,1-.58-.053q.026.844.185,2.4a11.583,11.583,0,0,0,2.386-.567q1.622-.514,3.309-.87t2.136-.461a2.132,2.132,0,0,1,1.318.105.88.88,0,0,1,.25.409.683.683,0,0,1,.013.475,6.861,6.861,0,0,0-.211.7q-.976.026-1.806.079a11.562,11.562,0,0,0-2.1.382,16.3,16.3,0,0,0-2.439.844q-1.173.514-1.556.633a1.561,1.561,0,0,1-1.121-.3,2.9,2.9,0,0,0,.4,2.188.378.378,0,0,0,.527.264q.949-.211,1.9-.448a26.343,26.343,0,0,1,5.036-.87q.633.026,1.028.053A4.049,4.049,0,0,0,38.9-1.424q.145-.923.3-1.608t.369-2.241q.211-1.556.33-2.571t.171-1.991a12.379,12.379,0,0,0-.026-1.819,3.559,3.559,0,0,0-.58-.158A4.084,4.084,0,0,0,38.18-11.76ZM63.044,3.032q.158-.9.382-3.059T63.7-3.19q-.712.58-2.465,1.978t-4.39,3.639a1.557,1.557,0,0,1-.527.422.676.676,0,0,1-.686-.066,1.658,1.658,0,0,1-.554-.514,2.369,2.369,0,0,1,.606-.765q2.821-2.479,4.337-3.691a23.268,23.268,0,0,0,1.806-1.529A56.435,56.435,0,0,0,56.61-1.569q-1.846.91-2.558,1.279A.975.975,0,0,1,53-.185q-1.081-.976-.185-1.661,1.266-.5,2.2-.883t1.833-.725q-.158-.738-.369-2.61-.053-.422-.105-.923-.29-2.61-.435-4.337t-.277-3.362a1.659,1.659,0,0,1,.185-1.134,1.36,1.36,0,0,1,.725-.013,2.333,2.333,0,0,1,.514.2q1.978-2.057,3.085-3.256t1.582-1.727a.931.931,0,0,1,.369-.079,1.473,1.473,0,0,1,.9.422q.527.817.185,1.107-1.081.923-2.347,2.07a36.1,36.1,0,0,0-2.716,2.782q.58-.105,1.9-.448t2.65-.672q1.332-.33,2.043-.435a2.05,2.05,0,0,1,1.094.5,1.165,1.165,0,0,1,.435,1.028q-.132,1.529-.264,2.795-.079,1.028-.158,1.9a21.592,21.592,0,0,1-.29,2.584.631.631,0,0,0,.461-.25q.224-.25.91-.962a26.32,26.32,0,0,0,1.872-2.294.866.866,0,0,1,.778.066,1.255,1.255,0,0,1,.633.514.643.643,0,0,1-.092.659,19.861,19.861,0,0,1-2.03,2.215q-.976.9-2.663,2.241Q65.021.316,64.6,3.4a7.81,7.81,0,0,1-.264,1.345q-.4.686-1.569.224t-1.74-.712a2.171,2.171,0,0,1-.883-.672,2.081,2.081,0,0,1-.382-.7q-.066-.277.2-.2a5.462,5.462,0,0,1,1.028.25q.712.224,1.266.382A.607.607,0,0,0,63.044,3.032Zm-5.3-13.79q1.978-.448,3.375-.791A10.571,10.571,0,0,1,63.2-11.9a1.619,1.619,0,0,1,1.028.25q.105-.686.211-1.714.158-1-.844-.712a21.526,21.526,0,0,0-3.4.87q-2,.659-2.5.817A4.013,4.013,0,0,0,57.744-10.758Zm6.3,3.691a11.746,11.746,0,0,0-1.767.3,29.721,29.721,0,0,0-4.14,1.384,4.494,4.494,0,0,0,.158,1.45,30.222,30.222,0,0,1,3.138-1.015q1.556-.409,2.426-.7Zm0-1.582a17.454,17.454,0,0,0,.237-1.9v-.105a29.293,29.293,0,0,0-3.388.686,21.789,21.789,0,0,0-3.2,1.107,8.019,8.019,0,0,0,.237,1.9l.237-.079Q61.093-7.91,64.046-8.648Zm22.729-2.584A16.18,16.18,0,0,1,85.6-7.857a16.658,16.658,0,0,1-1.819,2.993,9.317,9.317,0,0,1-2.544,2.281,7.632,7.632,0,0,1-1.45.686,1.433,1.433,0,0,1-.9.026,2.76,2.76,0,0,1-.857-.514,2.866,2.866,0,0,1-.751-.989,3.605,3.605,0,0,1-.237-1.5,7.4,7.4,0,0,1,.567-2.281,7.637,7.637,0,0,1,1.714-2.61,10.741,10.741,0,0,1,2.426-1.9,13.31,13.31,0,0,1,3.441-1.2,1.435,1.435,0,0,1,.712-.211h.158a5.993,5.993,0,0,1,.672.158q.25.079.541.185a4.169,4.169,0,0,1,1.318.514,6.484,6.484,0,0,1,1.239,1.042,4.253,4.253,0,0,1,1,2.136,8.59,8.59,0,0,1,.013,3.256A17.223,17.223,0,0,1,90.2-3.019a11.727,11.727,0,0,1-.87,1.885,2.643,2.643,0,0,1-.3.475.68.68,0,0,1-.382.185.945.945,0,0,1-.593-.132,1.318,1.318,0,0,1-.541-.422,1.387,1.387,0,0,1-.211-.527.569.569,0,0,1,.132-.5,5.567,5.567,0,0,0,.593-.725,8.3,8.3,0,0,0,.593-1.542,14.027,14.027,0,0,0,.554-2.452,7.706,7.706,0,0,0,.053-1.978,4.386,4.386,0,0,0-.25-1.2,1.625,1.625,0,0,0-.514-.672,2.568,2.568,0,0,0-.8-.409A5.037,5.037,0,0,0,86.774-11.232ZM78.6-3.56A1.782,1.782,0,0,0,80.1-3.9a10.825,10.825,0,0,0,2.268-2.175,11.782,11.782,0,0,0,1.608-2.729,16.487,16.487,0,0,0,.817-2.32,11.557,11.557,0,0,0-2.347,1.055,7.642,7.642,0,0,0-2.439,2.083,6.956,6.956,0,0,0-1.279,2.413A4.758,4.758,0,0,0,78.6-3.56Zm37.31-8.49q-.316,1.134-.7,1.252A1.425,1.425,0,0,1,114.2-11q-1.081.211-2.188.488t-3.375.936a1.854,1.854,0,0,1-.422.105,1.571,1.571,0,0,1-.633-.079,1.273,1.273,0,0,1-.738-.738,28.6,28.6,0,0,1-.831-4.021,20.231,20.231,0,0,1-.224-3.362q0-.791.475-.844a1.257,1.257,0,0,1,.844.185l.738.475q2.479-.554,4.72-1a17.59,17.59,0,0,1,2.479-.343h.185a1.764,1.764,0,0,1,1.279.4,1.775,1.775,0,0,1,.25,1.318q-.316,2.215-.5,3.375a1.932,1.932,0,0,1-.079.369Q115.989-12.577,115.91-12.05Zm-.976-3.8q0-.554.04-.989t.04-.883q-1.978.316-4.126.817a14.519,14.519,0,0,0-3.309,1.107,4.106,4.106,0,0,0,.079,1.45A64.889,64.889,0,0,1,114.935-15.847ZM112.746-5.59q.079-.369.145-.751a.992.992,0,0,1,.435-.646.668.668,0,0,1,.567.105q.277.185.514.369a5.116,5.116,0,0,1,.475.422q.87-.158,1.371-.29t1.635-.316a.853.853,0,0,1,.844.316,1.474,1.474,0,0,1,.4.87.9.9,0,0,1-.712.343q-.712.053-1.608.185a16.08,16.08,0,0,0-2.083.475,19.677,19.677,0,0,0-.145,2.188q-.066,1.819-.171,5.142a2.129,2.129,0,0,1-.343,1.134,1.138,1.138,0,0,1-.844.606,1.541,1.541,0,0,1-1.015-.211,6.243,6.243,0,0,1-1.028-.738,1.205,1.205,0,0,1-.488-.976,4.883,4.883,0,0,0,1.4.264q.554,0,.606-.686.237-2.426.33-3.995a13.087,13.087,0,0,0-.013-2.333q-.422.053-3.546,1.028a15.463,15.463,0,0,0-4.285,1.846.889.889,0,0,1-.857.3,1.248,1.248,0,0,1-.8-.541A.6.6,0,0,1,103.57-2.5a42.286,42.286,0,0,1,5.445-2.017Q111.4-5.194,112.746-5.59Zm4.351-3.3a.6.6,0,0,1-.712.4,5.668,5.668,0,0,0-2.03.264q-1.477.369-3.916,1.094a12.184,12.184,0,0,0-3.494,1.49.775.775,0,0,1-1-.053,2.314,2.314,0,0,1-.4-.791A.567.567,0,0,1,105.706-7a3.065,3.065,0,0,1,1.028-.527q.817-.3,2.663-.857t3.968-1.094q2.123-.541,2.7-.725a.918.918,0,0,1,.712.369A1.168,1.168,0,0,1,117.1-8.886ZM112.113.527a2.2,2.2,0,0,1-.844.448,6.141,6.141,0,0,1-3.059-1.16.842.842,0,0,1-.026-1.213.775.775,0,0,1,1.107.158,4.591,4.591,0,0,0,1.951.923.649.649,0,0,1,.593.264A1.351,1.351,0,0,1,112.113.527Zm-9.07-15.214a2.143,2.143,0,0,1,.989.316,1.327,1.327,0,0,1,.475.62q.145.382-.541,1.015-1.424,1.661-2.268,2.716t-1.107,1.45a3.63,3.63,0,0,1,.316,2.188q-.053.633-.105,1.187-.343,4.087-.475,5.3-.158,1.424-.185,1.806a5.328,5.328,0,0,0,.026.9,1.238,1.238,0,0,1-.185.857.945.945,0,0,1-.791-.026,1.231,1.231,0,0,1-.738-1.345q.29-1.925.554-4.772.105-.976.158-1.767a15.136,15.136,0,0,0-.026-2.426q-.923,1.371-1.2,1.885a5.6,5.6,0,0,0-.461,1.2q-.026.422-.527.488a1.014,1.014,0,0,1-.817-.2,1.006,1.006,0,0,1-.264-1.371q.738-1.292,1.859-2.9t2.2-3.072q1.081-1.463,1.74-2.333T103.043-14.687Zm-1.424-2.294a3.265,3.265,0,0,1-.4.659L98.4-12.683A22.657,22.657,0,0,0,96.188-9.2a.73.73,0,0,1-1.028.264,1.163,1.163,0,0,1-.316-1.45,13.312,13.312,0,0,1,1.5-2.241Q97.427-14,99.3-16.743a2.089,2.089,0,0,0,.4-.817.936.936,0,0,1,.751-.475.718.718,0,0,1,.686.3Q101.355-17.4,101.619-16.98Zm12.894,4.562q.079-.448.158-.765v-.053a4.434,4.434,0,0,0,.132-1.055,18.334,18.334,0,0,0-3.625.554,18.013,18.013,0,0,0-3.309,1.081,4,4,0,0,0,.04.883,2.5,2.5,0,0,0,.224.7q2.109-.5,4.614-1Q113.616-12.261,114.513-12.419Zm17.719-5.59q.105-.9.185-2.162.185-.527.606-.554a1.641,1.641,0,0,1,1,.633,6.113,6.113,0,0,1,.026.989,4.43,4.43,0,0,1-.132.91q1.345-.079,2.637-.224t2.479-.224a1.246,1.246,0,0,1,.633.185.773.773,0,0,1,.422,1.081.651.651,0,0,1-.817.5q-1.16-.026-2,0A1.684,1.684,0,0,1,137-15.293,13.979,13.979,0,0,0,135.9-12.92q1.055-.079,2.4-.158t3.929-.079a1.2,1.2,0,0,1,1.266.527q.29.9-.738,1.318-.264.026-2.175-.092a29.115,29.115,0,0,0-5.379.356,34.1,34.1,0,0,0-5.643,1.173,45.68,45.68,0,0,0-4.6,1.78.48.48,0,0,1-.606.04,2.273,2.273,0,0,1-.554-.567,1.944,1.944,0,0,1-.316-.58q-.026-.237,1.068-.725a24.91,24.91,0,0,1,2.769-1q1.674-.514,3.151-.91a4.43,4.43,0,0,1-.4-2.017q.026-1.121-.026-2.017a10.23,10.23,0,0,0-2.294.659q-.316.105-.606.2a.8.8,0,0,1-.633-.092.767.767,0,0,1-.409-.58q-.066-.4-.145-.686a20.059,20.059,0,0,1,3.322-.976Q130.887-17.666,132.231-18.009Zm-.132,1.767q-.079.554-.237,1.252t-.277,1.279a1.689,1.689,0,0,0,.026.949.609.609,0,0,0,.488.422q1.266-.237,1.872-.343.659-1.74,1.292-3.032a1.116,1.116,0,0,0,.185-1.081Q134-16.638,132.1-16.242Zm-1.9,7.778a25.142,25.142,0,0,1,4.153-.923A39.859,39.859,0,0,1,138.56-9.7a1.2,1.2,0,0,1,1.055.475,1.3,1.3,0,0,1,.343,1.107q-.4,1.187-.778,2.268a18.549,18.549,0,0,1-1.2,2.584q-.5.712-.778.593t-.8-.382q-.976.211-2.228.554t-2.492.686a1.887,1.887,0,0,1-.923.105,1.208,1.208,0,0,1-.9-.527,10.416,10.416,0,0,1-.725-2.057q-.25-1.055-.435-2.307a14.089,14.089,0,0,1-.185-1.806.858.858,0,0,1,.791-.33A2.027,2.027,0,0,1,130.2-8.464Zm7.726,1.45.29-1.213a2.481,2.481,0,0,0-1.134-.066q-.923.066-2.36.224a16.67,16.67,0,0,0-2.663.5,9.171,9.171,0,0,0-1.938.738q.079.633.158,1.16a20.4,20.4,0,0,1,3.691-.87Q136.081-6.855,137.927-7.014Zm-.369,1.266a18.014,18.014,0,0,0-3.006.448,27.309,27.309,0,0,0-3.981,1,3.518,3.518,0,0,0,.422,1.16,41.608,41.608,0,0,1,5.933-1.292A12.075,12.075,0,0,0,137.558-5.748ZM142.093.4a.982.982,0,0,1,.4,1.292,17.841,17.841,0,0,1-2.663,2.874,1.322,1.322,0,0,1-.962.356,2.2,2.2,0,0,1-1.015-.382,6.948,6.948,0,0,1-1.45-1.978,10.714,10.714,0,0,1-.976-3.217,1.249,1.249,0,0,1,.237-.844,1.011,1.011,0,0,1,.844.079.728.728,0,0,1,.593.541q.092.409.145.725a10.726,10.726,0,0,0,.435,1.912,4.087,4.087,0,0,0,.62,1.094q.4.5.976-.105Q140.88,1.4,142.093.4Zm-14.4,3.56q.923-1.239,1.846-2.36t1.846-2.307a1.092,1.092,0,0,1,1.292-.105,1.2,1.2,0,0,1,.264,1.45,7.921,7.921,0,0,1-.87.962q-.606.593-1.411,1.45a6.735,6.735,0,0,0-1.121,1.49.843.843,0,0,1-1.028.659A1.093,1.093,0,0,1,127.7,3.955ZM142.172-1.16a.786.786,0,0,1-.5.62.9.9,0,0,1-.817-.119,4.681,4.681,0,0,1-1.081-2.531.549.549,0,0,1,.277-.606.732.732,0,0,1,.7-.105.886.886,0,0,1,.633.633Q141.776-2.373,142.172-1.16Zm3.27-.9a1.036,1.036,0,0,1-.949.527,14.024,14.024,0,0,1-1.239-2.215q-.026-.5.316-.633a.728.728,0,0,1,.606,0,1.2,1.2,0,0,1,.659.527,5.507,5.507,0,0,1,.316.7A8.607,8.607,0,0,1,145.441-2.057ZM151-3.19a4.1,4.1,0,0,1-.2-3.111,23.68,23.68,0,0,1,1.042-2.742q.527-1.134,1.107-2.373-.712.053-1.279.105t-.936.105a.962.962,0,0,1-.817-.277,1.73,1.73,0,0,1-.369-.765,1.412,1.412,0,0,1,.053-.857l1.688-.158,2.5-.237q.4-.712.765-1.424a6.058,6.058,0,0,1,.633-1.028q.343-.369.527-.369a1.814,1.814,0,0,1,.593.29,1.08,1.08,0,0,1,.5.606,1.071,1.071,0,0,1-.119.765,3.783,3.783,0,0,1-.606,1.028,12.1,12.1,0,0,0,1.2-.171,6.592,6.592,0,0,1,.712-.119,1.222,1.222,0,0,1,.606.119.8.8,0,0,1,.448.5.838.838,0,0,1,.026.58.528.528,0,0,1-.461.277l-3.349.633a18.843,18.843,0,0,0-1.793,3.243,22.01,22.01,0,0,0-.857,2.439,11.553,11.553,0,0,0-.356,1.74,2.362,2.362,0,0,0,.712,1.674q.158.185-.053.448a.691.691,0,0,1-.646.224,1.371,1.371,0,0,1-.778-.33A1.664,1.664,0,0,1,151-3.19Zm11.944-.29q-.079.659-.211,1.45a7.151,7.151,0,0,1-.5,1.648A2.283,2.283,0,0,1,161.051.844a1.114,1.114,0,0,1-.923.158,3.706,3.706,0,0,1-1.4-.633,3.933,3.933,0,0,1-1.055-1.107,1.721,1.721,0,0,1,0-1.872,4.572,4.572,0,0,1,1.213-1.068,8.9,8.9,0,0,1,1.384-.7q.672-.264,1.252-.527.185-1.477.25-2.5t.119-1.78a8.619,8.619,0,0,1,.158-1.226,1.121,1.121,0,0,1,.593-.092,1.136,1.136,0,0,1,.593.343,1.764,1.764,0,0,1,.448.936q-.053.475-.145,1.371T163.187-5.3q.659-.026,1.305-.092a12.708,12.708,0,0,1,1.477-.053,9.3,9.3,0,0,1,1.727.2.9.9,0,0,1,.119.646.631.631,0,0,1-.5.461,7.286,7.286,0,0,1-1.371.211q-.936.079-1.622.185T162.949-3.48Zm-1.819.606a5.37,5.37,0,0,0-.923.409,2.43,2.43,0,0,0-.7.554q-.25.3-.356.435-.237.606.264.817a1.623,1.623,0,0,0,.5.132.385.385,0,0,0,.4-.185A5.342,5.342,0,0,0,161.13-2.874Zm1.4-10.758a26.48,26.48,0,0,1,3.48.949,1.186,1.186,0,0,1,.765.738,1.094,1.094,0,0,1,.053.8.468.468,0,0,1-.369.3q-1.477-.316-3.507-.9a1.052,1.052,0,0,1-.7-.672,1.893,1.893,0,0,1-.211-.923Q162.079-13.685,162.527-13.632ZM184.6-4.482a11.234,11.234,0,0,0-1.635,1.16.881.881,0,0,1-.844.369.942.942,0,0,1-.765-.448.686.686,0,0,1,.079-1A7.821,7.821,0,0,1,182.962-5.5q.949-.541,2.083-1.2a15.811,15.811,0,0,1,.659-2.4q.264-1.028,1.213-.4.686.633.422,1.213-.185.448-.422.923.791-.237,2-.712a18.027,18.027,0,0,0,.633-1.978q.105-.448.448-.422a1.348,1.348,0,0,1,.765.422A1.359,1.359,0,0,1,191-8.728a9.307,9.307,0,0,1,2.228-.475,6.219,6.219,0,0,1,1.437,0,1.093,1.093,0,0,1,.9.712,2.717,2.717,0,0,1-.369,1.846,12.338,12.338,0,0,1-1.674,2.61,5.872,5.872,0,0,1-1.806,1.661,1.421,1.421,0,0,1-1.437-.145q-.646-.461-.62-.91a1.9,1.9,0,0,0,1.187-.237A8.259,8.259,0,0,0,192.032-4.9a17.846,17.846,0,0,0,1.252-1.661,2.708,2.708,0,0,0,.488-1.055,3.122,3.122,0,0,0-1.226.119q-.8.2-2.2.62-.475,1.213-.936,2.241a14.309,14.309,0,0,1-.672,1.371,1.21,1.21,0,0,1-.488.475.658.658,0,0,1-.672,0,1.319,1.319,0,0,1-.527-.5q.316-.659.712-1.424a8.156,8.156,0,0,0,.606-1.5,10.787,10.787,0,0,0-1.9.9,15.7,15.7,0,0,0-.422,3.876,3.008,3.008,0,0,0,.778,1.885,2.6,2.6,0,0,0,1.991.686,6.624,6.624,0,0,0,2.927-.844q1.608-.831,3.533-1.991.369,0,.29.751A1.834,1.834,0,0,1,194.854.3a11.273,11.273,0,0,1-1.7,1.094,18.945,18.945,0,0,1-2.663,1.147,4.323,4.323,0,0,1-3.164-.066A3.845,3.845,0,0,1,185.2.751a6.755,6.755,0,0,1-.686-2.386A12.115,12.115,0,0,1,184.6-4.482ZM172.125-9.571a1.371,1.371,0,0,1-1.714-.448.632.632,0,0,1,.316-.949,13.707,13.707,0,0,1,1.542-.554q1.094-.343,2.254-.738a1.194,1.194,0,0,0,.844-1.213q.053-2.716.04-3.546t-.013-1.516q.105-.5.475-.5a1,1,0,0,1,.316.053,1.465,1.465,0,0,1,.976,1.292q-.132.9-.211,2.07a18.813,18.813,0,0,0,0,2.439q.422-.158,1.187-.369t1.793-.5q.9-.185,1.068.132a4.533,4.533,0,0,1,.277.606,1.769,1.769,0,0,1,.079.712q-1.16.185-2.2.448a8.962,8.962,0,0,0-1.912.712,1.237,1.237,0,0,1-.092.765q-.171.4-.409.844a11.315,11.315,0,0,0-1.16,2.136l1-.316q.5-.158,1.635-.4a1.527,1.527,0,0,1,1.345.4,1.4,1.4,0,0,1,.343,1.055l-.026.211a20.166,20.166,0,0,1-1.292,5.313,18.81,18.81,0,0,1-1.424,3.125,3.157,3.157,0,0,1-.844.91,1.517,1.517,0,0,1-.949.277,1.472,1.472,0,0,1-.9-.4,4.448,4.448,0,0,1-.725-.8,1.967,1.967,0,0,1-.3-1.147,7.355,7.355,0,0,0,1.437.725.841.841,0,0,0,.62-.277A18.736,18.736,0,0,0,177.029-2.1a18.289,18.289,0,0,0,1.028-3.125q.079-.422.132-.738a2.013,2.013,0,0,0,.026-.712,5.779,5.779,0,0,0-1.622.435,2.451,2.451,0,0,0-.883.686,1.989,1.989,0,0,1-.7.593.811.811,0,0,1-.751,0,9.107,9.107,0,0,0-1.187,1.925l-.316.791q-.554,1.582-.686,2.03a3.566,3.566,0,0,1-.751-.237.834.834,0,0,1-.475-.541,1,1,0,0,1,.013-.7,27.027,27.027,0,0,1,2.083-4.746q1.872-3.612,2.136-4.219-1.16.343-1.833.593A9.592,9.592,0,0,0,172.125-9.571Zm11.549-1.266q-.5,1.239-.765,2.136-.079.264-.132.527a12.034,12.034,0,0,0-.343,2.136,1.374,1.374,0,0,1-.936-.145q-.356-.224-.409-1.042.026-.211.079-.448a24.3,24.3,0,0,1,.923-3.612q.791-2.294,1.424-3.916t.949-2.544a1.784,1.784,0,0,1,.883.237,2.572,2.572,0,0,1,.541.448q.211.237-.158,1.266-.264.5-.646,1.411t-.778,1.938a33.523,33.523,0,0,1,5.036-1.266q1.793-.316,3.19-.527.58-.079,1.081-.158,1.081-.079,1.4.369a1.244,1.244,0,0,1,.29.672q-.026.2-.053.382t-.659.5a3.447,3.447,0,0,1-1.028-.079,9.49,9.49,0,0,0-2.742.211q-1.292.237-2.452.5-.58.132-1.134.29a8.917,8.917,0,0,0-2.07.751,1.08,1.08,0,0,1-.778.237A2.734,2.734,0,0,1,183.674-10.837Zm20.856.4a10.861,10.861,0,0,1,1.978-1.134q1.16-.527,1.978-.87v-2.479q.053-.712.224-.831a.764.764,0,0,1,.554-.053,1.019,1.019,0,0,1,.646.409,1.123,1.123,0,0,1,.264.686,9.138,9.138,0,0,1,.158,1.688,11.22,11.22,0,0,1,1.187-.369,1.106,1.106,0,0,1,.91.237,1.1,1.1,0,0,1,.435.633.629.629,0,0,1-.04.448,1.06,1.06,0,0,1-.514.264,10.86,10.86,0,0,0-1.978.633q-.105,1.028-.132,2.32-.053,1.345-.026,2.953.053,3.138-.053,4.772t-.158,2.9a.761.761,0,0,1-.3.541.873.873,0,0,1-.765.119.745.745,0,0,1-.593-.659q.105-.976.237-3.006T208.7-6.46V-7.989q0-1.925-.079-2.637a11.546,11.546,0,0,0-1.806.844,11.811,11.811,0,0,1-1.094.606.773.773,0,0,1-.857-.316A1.046,1.046,0,0,1,204.53-10.441Zm-.237,8.648q.369-1.4.712-2.531.343-1.081.58-1.872l.026-.105q.185-.923,1.028-.712l.264.053a.94.94,0,0,1,.686,1.055,19.677,19.677,0,0,0-1.055,2.465,12.681,12.681,0,0,0-.527,2.123.76.76,0,0,1-.844.844q-.686-.185-.8-.554A1.724,1.724,0,0,1,204.293-1.793Zm7.778-15.873q.185-.475.554-.461a1.007,1.007,0,0,1,.672.3,1.884,1.884,0,0,1,.461.712q.5,1.978.738,3.085.87-.369,2.241-.817,1.793-.606,3.349-1.16a1.023,1.023,0,0,1,1.424.448q.422.87-.448,1.134a12.816,12.816,0,0,0-2.347.686q-1.107.448-2.769,1.213a.922.922,0,0,1-.844.185,1.334,1.334,0,0,1-.633-.422.4.4,0,0,1-.316.158.837.837,0,0,1-.765-.29A4.549,4.549,0,0,1,212.9-14.3Q212.625-15.451,212.071-17.666Zm2.795,14.687a1.227,1.227,0,0,1-.488.567q-.277.145-.989-.145a17.111,17.111,0,0,0-1.226-2.123A11.129,11.129,0,0,1,211.1-6.565a.65.65,0,0,1,.738-.461,1.072,1.072,0,0,1,.844.3,11.506,11.506,0,0,1,.844,1.213q.606.949.91,1.556A9.365,9.365,0,0,1,214.866-2.979ZM202.5,3.111a.845.845,0,0,1-.606.369.766.766,0,0,1-.659-.145,2.506,2.506,0,0,1-.435-.409,3.426,3.426,0,0,1-.158-1.371q-.013-1.187.3-4.667L201-3.533q.264-3.111.448-3.981a30.167,30.167,0,0,0-2.162,3.546q-.554,1.173-.686,1.371t-.475.04a1.275,1.275,0,0,1-.686-1.424,30.409,30.409,0,0,1,1.9-3.19q1.819-2.874,4.271-6.987a.947.947,0,0,1,.422-.448.671.671,0,0,1,.633,0,1.011,1.011,0,0,1,.567.514,1.216,1.216,0,0,1,.119.8,5.2,5.2,0,0,1-.712,1.055q-.554.686-1.121,1.463a5.2,5.2,0,0,0-.778,1.437q.448.738.4.976t-.422,2.9q-.053.5-.105.976-.264,2.083-.316,3.85a24.146,24.146,0,0,0-.013,2.7A6.5,6.5,0,0,0,202.5,3.111Zm-5.168-14.027q.5-.791,1.4-2.32t2.742-4.562a1.555,1.555,0,0,1,.5-.448.756.756,0,0,1,.343-.079.875.875,0,0,1,.343.079,1.947,1.947,0,0,1,.554.686.851.851,0,0,1-.026.844q-.976,1.239-2.452,3.335t-1.806,2.6a5.248,5.248,0,0,0-.514.976q-.316.738-.593.725a.862.862,0,0,1-.488-.171.719.719,0,0,1-.25-.527A2.772,2.772,0,0,1,197.332-10.916ZM215.552,0a17.315,17.315,0,0,1,2.479,1.239q.237-.923.343-1.582t.224-3.441q.119-2.782-.013-5.55-1.239.554-2.426,1.16a1.189,1.189,0,0,1-1.424-.053,1.426,1.426,0,0,1-.4-.316.5.5,0,0,1-.105-.448,3.069,3.069,0,0,1,.132-.475q3.428-1.4,7.119-2.769a1.882,1.882,0,0,1,.659-.25q.29-.04.527.369a3.678,3.678,0,0,1,.343.751,2.279,2.279,0,0,1-.62.527,5.949,5.949,0,0,1-.778.356q-.448.171-1.028.461-.185,2.426-.33,5.142T219.981-.4q-.132,1.767-.211,2.848a1.168,1.168,0,0,1-.409.7.845.845,0,0,1-.778.171,5.981,5.981,0,0,1-1.622-1.173A7.091,7.091,0,0,1,215.684.8,1.363,1.363,0,0,1,215.552,0ZM235.38-11.153a1.414,1.414,0,0,0-.87-.105q-.5.079-2.109.5a21.283,21.283,0,0,0-2.294.7,9.573,9.573,0,0,0-1.015.461,1.739,1.739,0,0,1-.751.211,1.306,1.306,0,0,1-.87-.488,1.621,1.621,0,0,1-.514-.817.538.538,0,0,1,.3-.541,35.562,35.562,0,0,1,4.034-1,41.583,41.583,0,0,1,4.3-.712,1.279,1.279,0,0,1,1.042.316,4.084,4.084,0,0,1,.672.857,1.406,1.406,0,0,1,.079,1.173,20.618,20.618,0,0,1-1.345,1.767,26.627,26.627,0,0,0-1.951,2.769q-1.134,1.793-1.477,2.452a1.107,1.107,0,0,0-.079,1.107,2.676,2.676,0,0,0,1.121.883,5.669,5.669,0,0,0,1.042.461,11.234,11.234,0,0,0,1.318-.053.777.777,0,0,1,.409.237.763.763,0,0,1,.2.461,1.158,1.158,0,0,1-.119.593.945.945,0,0,1-.514.475A1.155,1.155,0,0,1,234.905.7,9.106,9.106,0,0,1,233.495.25a7.169,7.169,0,0,1-1.384-.778,4.968,4.968,0,0,1-1.187-1.16,3.258,3.258,0,0,1-.527-1.042,2.519,2.519,0,0,1,.343-1.305q1.371-2.241,2.663-4.153T235.38-11.153Zm4.641-1.872q-.237.606-.527.7a.466.466,0,0,1-.527-.2,3.892,3.892,0,0,1-.765-.923q-.422-.923-.765-1.872a.647.647,0,0,1,.105-.817q.5-.4.87-.132a1.673,1.673,0,0,1,.5.5Q239.493-14.238,240.021-13.025Zm1.767-1.028a15.977,15.977,0,0,1-.4-2,.636.636,0,0,1,.237-.765.523.523,0,0,1,.237-.053,1.538,1.538,0,0,1,.791.316,3.161,3.161,0,0,1,.475,1.252,5.688,5.688,0,0,1,.026,1.648.607.607,0,0,1-.461.5.6.6,0,0,1-.593-.158A1.31,1.31,0,0,1,241.787-14.054Z" transform="translate(0 55.087)" fill="#fb7180"/>
    <path id="Контур_1751" data-name="Контур 1751" d="M13.816-13.843q-.185,1.688-.356,2.742t-.33,1.951a3.7,3.7,0,0,1,.409.883,3.424,3.424,0,0,1,.026,1.239q-.092.831-.25,1.6a20.015,20.015,0,0,1-.554,2.558q-.4,1.424-.62,2.531a18.68,18.68,0,0,1-.672,2.4,1.086,1.086,0,0,1-.264.646.584.584,0,0,1-.606.2,1.333,1.333,0,0,1-.672-.422.951.951,0,0,1-.25-.712q.659-1.951.962-3.032t.883-3.691q-.949,1.608-1.437,1.767A2.215,2.215,0,0,1,8.675-3.4,10.411,10.411,0,0,1,7.409-4.43a2.176,2.176,0,0,1-.672-1.477,2.981,2.981,0,0,1,.409-1.635,8.363,8.363,0,0,1,1.173-1.6,10.925,10.925,0,0,1,1.279-1.2,2.221,2.221,0,0,1,1.134-.435,2.306,2.306,0,0,1,.949.171,3,3,0,0,0,.369-1.266,12.2,12.2,0,0,0,.053-1.608q-1.477.264-3.138.686A28.7,28.7,0,0,0,6-11.878q-1.305.488-2.36.857a.848.848,0,0,1-.672.04,1.312,1.312,0,0,1-.593-.4.962.962,0,0,1-.237-.646.793.793,0,0,1,.686-.712q1.582-.554,2.465-.817t2.9-.738q2.017-.475,3.863-.949.079-1.028.079-1.793a.543.543,0,0,1,.475-.316.434.434,0,0,1,.132.026,1.076,1.076,0,0,1,.659.58,9.754,9.754,0,0,1,.554,1.134q1-.079,1.529-.158a6.765,6.765,0,0,1,1-.079q.29-.026.646-.04a.6.6,0,0,1,.554.277,1.4,1.4,0,0,1,.237.646.742.742,0,0,1-.277.646q-.844.079-1.793.158A15.516,15.516,0,0,0,13.816-13.843ZM11.206-9.07A5.111,5.111,0,0,0,9.545-7.989,6.894,6.894,0,0,0,8.306-6.381a.878.878,0,0,0-.132.9,1.215,1.215,0,0,0,.633.686,1.1,1.1,0,0,0,1.318-.659,23.149,23.149,0,0,0,.817-2.307A5.768,5.768,0,0,0,11.206-9.07ZM33.46-11.865a1.554,1.554,0,0,1,.514.817q.04.343-.382.606a26.873,26.873,0,0,0-3.006,2.07q-1.951,1.49-2.558,1.978a13.764,13.764,0,0,0-1.107.989A9.993,9.993,0,0,0,28.74-3.995,13.487,13.487,0,0,0,31.588-2.5q1.371.5,2,.659.606.237.5.738a.79.79,0,0,1-.382.62,2.123,2.123,0,0,1-.8.119A18.633,18.633,0,0,1,29.914-1.6a21.783,21.783,0,0,1-2.637-1.582Q26.1-4.008,25.642-4.417a3.084,3.084,0,0,1-.751-1.042.8.8,0,0,1,.237-1.028q1.819-1.5,2.742-2.215t4.562-3.454a.658.658,0,0,1,.5-.053A2.8,2.8,0,0,1,33.46-11.865Zm6.407-.554a2.857,2.857,0,0,1-.58-1.912q.053-1.068.185-2.149.132-.5.29-.527h.026a.667.667,0,0,1,.316.105,5.23,5.23,0,0,1,.686.409,1.009,1.009,0,0,1,.409.606,1.289,1.289,0,0,1-.04.751,6.027,6.027,0,0,0-.2,1.213,10.762,10.762,0,0,1-.2,1.424q-.105.422-.316.409A1.17,1.17,0,0,1,39.867-12.419Zm-2.03.58q-.026.5-.185.58a3.234,3.234,0,0,1-.58.185.786.786,0,0,1-.488-.25,3.477,3.477,0,0,1-.58-.738,11.8,11.8,0,0,1-.8-1.819,8.568,8.568,0,0,1-.554-1.912q-.026-.606.224-.62a2.585,2.585,0,0,1,.738.119,1.3,1.3,0,0,1,.765.541,1.72,1.72,0,0,1,.3.883,5.622,5.622,0,0,0,.435,1.753A4.08,4.08,0,0,0,37.837-11.839ZM49.755-1.477a4.215,4.215,0,0,1-.831.976q-.488.422-.962.791a2.11,2.11,0,0,1-.817.382,1.361,1.361,0,0,1-.883-.224,1.583,1.583,0,0,1-.725-.9A7.186,7.186,0,0,1,44.982-3.2a28.6,28.6,0,0,1,.2-4.3,45.915,45.915,0,0,1,.831-5,11.6,11.6,0,0,0,.264-1.345q.079-.5.29-.58a.98.98,0,0,1,.237-.026,1.482,1.482,0,0,1,.343.053,1.352,1.352,0,0,1,.659.356.8.8,0,0,1,.264.659q-.026.382-.026.672-.448,1.74-.817,3.48a27.926,27.926,0,0,0-.514,3.916,20.769,20.769,0,0,0-.026,3.3,5.318,5.318,0,0,0,.224,1.305,8.891,8.891,0,0,1,1.608-1.081A1.106,1.106,0,0,1,49.03-2a.659.659,0,0,1,.448.105A.7.7,0,0,1,49.755-1.477Zm5.511-.738a1.488,1.488,0,0,1-1.687-.554,1.542,1.542,0,0,1-.105-.936q.105-.356.765-.382a16.228,16.228,0,0,0,3.111-.3q1.556-.3,3.059-.7.791-.185.989.29a.955.955,0,0,1,.092.712,1.1,1.1,0,0,1-.606.448,21.535,21.535,0,0,1-2.149.659Q57.085-2.531,55.266-2.215ZM53.684-8.6a2.031,2.031,0,0,1-.5-.316,2.713,2.713,0,0,1-.4-.435.955.955,0,0,1-.2-.527,2.1,2.1,0,0,1,.119-.7q2.531-.475,5.01-1.028.686-.079,1.147-.105a1.466,1.466,0,0,1,.844.2,1.608,1.608,0,0,1,.567,1.094,1.249,1.249,0,0,1-.712.356,6.925,6.925,0,0,1-.738.04,8.549,8.549,0,0,0-1.4.211,17.5,17.5,0,0,0-1.846.475Q54.765-9.07,53.684-8.6ZM68.4-14.766q.026,1.266-.013,2.861T68.4-9.65q.369-.158,1.292-.593t3.19-1.6a9.967,9.967,0,0,0,.277-1.107q.066-.4.224-1.266.211-1.055,1.081-.422.765.606.448,1.213-.105.475-.211.87l.633-.185a1.142,1.142,0,0,1,.949.765,13.169,13.169,0,0,1-2.057,1.318l-.105.9q-.29,1.846-.5,3.111a3.558,3.558,0,0,1-.079.422q-.211,1.371-.264,1.872a2.675,2.675,0,0,0,.976-.672,3.948,3.948,0,0,1,1.134-.8q.738.4.369,1A4.24,4.24,0,0,1,74.7-3.441,6.053,6.053,0,0,1,72.826-2.32q-.4,1.635-.541,2.175a2.5,2.5,0,0,1-.435.91,1.213,1.213,0,0,1-.817.079A.85.85,0,0,1,70.69.185q.158-.87.277-1.5t.171-.976a5.274,5.274,0,0,1-1.9-.923,6.484,6.484,0,0,1-.633-.554A5.33,5.33,0,0,1,67.79-4.9a8.393,8.393,0,0,1-.712-1.978,10.547,10.547,0,0,0-1.345.791,1.894,1.894,0,0,1-1.477-.633q-.58-.738.369-1.134a18.507,18.507,0,0,0,2.215-1.028q-.026-.29-.026-2.03t.053-4.166a1.051,1.051,0,0,1,.171-.791q.2-.185.633-.026a1.21,1.21,0,0,1,.62.435A.915.915,0,0,1,68.4-14.766ZM78.548-6.592a2.175,2.175,0,0,1,.976.053,1.006,1.006,0,0,1,.593.514q.2.382.461.857.58-.185,2.2-.725a16.577,16.577,0,0,1,2.386-.659q.765-.119,1.4-.25a1.392,1.392,0,0,1,1.226.58A1.487,1.487,0,0,1,88.146-4.9q-.475,2.057-1.345,4.8.606.475.435.976a.662.662,0,0,1-.672.5q-.422.132-2.32.514t-2.927.7q-.976.343-1.371.026a3.8,3.8,0,0,1-.817-1.028q-.422-2.268-.554-3.665t-.132-3.771A2.059,2.059,0,0,1,78.548-6.592Zm1.714,3.138a12.749,12.749,0,0,0,0,2.61A9.536,9.536,0,0,0,80.578.712Q81,.633,82.107.435a30.014,30.014,0,0,0,3.059-.778,20.377,20.377,0,0,0,.883-3.349,3.248,3.248,0,0,0,.013-1.239,18.666,18.666,0,0,0-4.351,1.424A3.361,3.361,0,0,1,80.262-3.454ZM79-9.308q2.769-1.187,4.39-1.925a15.173,15.173,0,0,0,1.938-.976q0-.9.5-.936a2.22,2.22,0,0,1,1.292.488q1.424,1.345,2.9,2.663a.853.853,0,0,1,.264.606.959.959,0,0,1-.053.686.923.923,0,0,1-.659.105A5.858,5.858,0,0,1,87.9-9.65a10.687,10.687,0,0,0-1.411-1.134q-1.055.369-2.861,1.213T80.011-7.989a12.64,12.64,0,0,1-2.413.817,1.994,1.994,0,0,1-1.556-.554l-.158-.237a1.036,1.036,0,0,1,.079-1.16q.686-1.187,1.859-3.019t2.241-3.349a14.706,14.706,0,0,0,1.516-2.571,1.552,1.552,0,0,1,.62.092q.2.092.422.211a2.024,2.024,0,0,1,.435.316.6.6,0,0,1,.185.514q-1.4,2.083-2.386,3.586t-1.648,2.373a18.627,18.627,0,0,0-1.187,1.793l-.026.026A1.948,1.948,0,0,0,79-9.308ZM71.982-6.8q.316-1.477.527-3.059a7.175,7.175,0,0,1-1.279.686A24.164,24.164,0,0,0,68.607-7.7a6.091,6.091,0,0,0,.277,1.622,3.826,3.826,0,0,0,.857,1.463l.105.132a1.6,1.6,0,0,0,1.608.606q.132-.844.29-1.687Q71.877-6.2,71.982-6.8Zm34.7,5.8a2.262,2.262,0,0,0,1.134-.831,8.114,8.114,0,0,0,.765-1.424,14.785,14.785,0,0,0,.672-1.978,8.049,8.049,0,0,0,.3-2.1,3.819,3.819,0,0,0-.369-1.793,3.084,3.084,0,0,0-1.463-1.358,4.1,4.1,0,0,0-2.175-.461q-.633.976-1.055,1.767t-1.279,2.123q-.857,1.332-2.07,2.887.29.369.448.541a.588.588,0,0,1,.079.541.673.673,0,0,1-.461.514,1.469,1.469,0,0,1-1.173-.224A17.011,17.011,0,0,1,98.31-1.318a6.874,6.874,0,0,1-2.017,1,2.4,2.4,0,0,1-1.49,0,2.057,2.057,0,0,1-1.147-.844,4.107,4.107,0,0,1-.316-1.477,5.034,5.034,0,0,1,.25-1.674,7.891,7.891,0,0,1,1.081-2.043A16.655,16.655,0,0,1,97-8.938q-.105-.659-.356-1.674t-.725-3.415q.053-.422.264-.461a1.309,1.309,0,0,1,.606.092,1.868,1.868,0,0,1,.672.382,2.144,2.144,0,0,1,.435,1.147q.264,1.45.659,2.979a14.64,14.64,0,0,1,2.9-1.661,17.262,17.262,0,0,1,2.663-.949,15.329,15.329,0,0,0,.738-1.846.956.956,0,0,1,.527-.554,1.341,1.341,0,0,1,.264-.026.584.584,0,0,1,.185.026,1.026,1.026,0,0,1,.382.3,1.993,1.993,0,0,1,.356.567,1.409,1.409,0,0,1,.105.659q-.211.5-.369.9a6.118,6.118,0,0,1,2.544.725,3.618,3.618,0,0,1,1.806,2.1,7.741,7.741,0,0,1,.475,2.979A11.415,11.415,0,0,1,110.5-3.4a16.435,16.435,0,0,1-.989,2.452A7.618,7.618,0,0,1,108.87.079a.785.785,0,0,1-.606.369,2.521,2.521,0,0,1-.791-.079,1.274,1.274,0,0,1-.7-.448A.943.943,0,0,1,106.682-1ZM98.851-4.245A13.109,13.109,0,0,1,97.717-7.04a8.2,8.2,0,0,0-1.78,2.1,8.059,8.059,0,0,0-.962,1.938,2.677,2.677,0,0,0,0,1.292,3.671,3.671,0,0,0,1.147-.356,6.1,6.1,0,0,0,1.384-.949Q98.244-3.665,98.851-4.245Zm.158-3.771A14.924,14.924,0,0,0,99.47-6.5a6.4,6.4,0,0,0,.593,1.173q.633-.817,1.608-2.241a34.747,34.747,0,0,0,1.925-3.19,14.926,14.926,0,0,0-2.373,1.121A11.617,11.617,0,0,0,99.009-8.016Zm27.132,2.057a1.255,1.255,0,0,0-1.068-.211,15.214,15.214,0,0,0-2.254.606,14.65,14.65,0,0,0-3.639,1.978q-.949.738-1.5-.237a1.922,1.922,0,0,1-.4-1.134,30.009,30.009,0,0,1,.712-3.836,25.193,25.193,0,0,1,1.081-3.494q.316-.5.712-.382a1.6,1.6,0,0,1,.778.646,1,1,0,0,1,.264.87,2.41,2.41,0,0,1-.33.633,17.129,17.129,0,0,0-.87,2.373q-.316,1.134-.554,2.32,1.688-.712,2.9-1.147a14.848,14.848,0,0,1,2.083-.606,5.516,5.516,0,0,1,1.74-.066A2.475,2.475,0,0,1,127.6-6.513a2.427,2.427,0,0,1,.277,2.162,17.088,17.088,0,0,1-1.2,2.729,16.211,16.211,0,0,1-2.175,2.808q-1,.976-1.608-.264a.883.883,0,0,1,.211-1.081,16.387,16.387,0,0,0,2.07-2.268,9.583,9.583,0,0,0,.9-1.78A2.157,2.157,0,0,0,126.141-5.959Zm-3.428-12.05a8.925,8.925,0,0,1,2.03,1.608,14.993,14.993,0,0,1,1.371,1.542,1.482,1.482,0,0,1,.316.936,1.514,1.514,0,0,1-.527.765,1.055,1.055,0,0,1-.844-.369,8.147,8.147,0,0,0-1.78-1.951,7.25,7.25,0,0,1-1.173-1.028,3.1,3.1,0,0,1-.224-.633A.757.757,0,0,1,122-17.8a.908.908,0,0,1,.58-.211Zm20.013,8.675q1.424-1.028,2.571-1.806t2.07-1.384a1.008,1.008,0,0,1,1.266-.053,2.031,2.031,0,0,1,.593.659,1.406,1.406,0,0,1,.171.87,33.135,33.135,0,0,0-.224,3.388,10.42,10.42,0,0,0,.211,2.795,4.9,4.9,0,0,0,.475,1.226.918.918,0,0,0,.567.422,2.855,2.855,0,0,0,1.371-.224,23.925,23.925,0,0,0,2.413-.949,10.4,10.4,0,0,1,1.833-.7.648.648,0,0,1,.026.593,6.662,6.662,0,0,1-.448.633,5.428,5.428,0,0,1-1.332,1.042,9.458,9.458,0,0,1-2.281,1.015,2.692,2.692,0,0,1-2.188-.145,4.294,4.294,0,0,1-1.7-2.268,9.151,9.151,0,0,1-.633-3.612q.04-1.925.013-2.268a1.507,1.507,0,0,0-.132-.554,16.445,16.445,0,0,0-1.978,1.266q-1.081.791-2.9,2.373-.185,1.74-.2,2.887t-.013,2.307q0,1.16.053,2.4a1.342,1.342,0,0,1-.04.62q-.092.3-.738.224a.859.859,0,0,1-.8-.633q-.053-.343-.105-1.885t.132-4.311a17.48,17.48,0,0,0-1.727,1.833q-.857,1.042-1.859,2.175a.664.664,0,0,1-1.134.132,1.419,1.419,0,0,1-.606-1.74Q135.87-4.614,136.5-6.7q.211-.765-.105-.844-.316-.026-.646-.066a1.468,1.468,0,0,1-.62-.224,1.611,1.611,0,0,1-.475-.541,2.445,2.445,0,0,1-.211-.514q-.026-.185.356-.382a2.129,2.129,0,0,1,1.081-.158,3.307,3.307,0,0,1,1.648.725,1.821,1.821,0,0,1,.765,1.569q-.026.962-.105,1.938.58-.58,1.305-1.358t1.516-1.674q.237-3.718.409-5.3t.33-3.164q.053-.844.053-1.266,0-.316.237-.343h.053a2.1,2.1,0,0,1,.606.132,1.131,1.131,0,0,1,.659.58,1.25,1.25,0,0,1,.105.87q-.343,2.953-.527,4.786T142.726-9.334Zm25.154.765q-1.055.4-2.149.791a12.667,12.667,0,0,1-2.175.58.793.793,0,0,1-.844-.3,2.889,2.889,0,0,1-.422-.686.525.525,0,0,1,.026-.488q.105-.185.844-.3a10.729,10.729,0,0,0,1.358-.3l1.371-.409a16.289,16.289,0,0,0,2.1-.857q.026-.765.026-1.358t-.026-1.384a17.7,17.7,0,0,0-1.806.224,18.121,18.121,0,0,0-2.136.461q-.91.264-1.912.58a.97.97,0,0,1-.475.132.63.63,0,0,1-.448-.211,1.611,1.611,0,0,1-.343-.527,1.133,1.133,0,0,1-.079-.633,1.89,1.89,0,0,1,1.094-.646,23.448,23.448,0,0,1,2.465-.58,33.218,33.218,0,0,1,3.48-.461,7.641,7.641,0,0,0-.158-1.134q.026-.316.422-.4a.5.5,0,0,1,.158-.026,1.023,1.023,0,0,1,.606.237,2.336,2.336,0,0,1,.633,1.16q.765.105,1,.132a1.485,1.485,0,0,1,.567.277.76.76,0,0,1,.29.527,2.677,2.677,0,0,1-.013.7q-.9,0-1.767-.026.026.844.053,2.294.5-.211,1.081-.475a1.271,1.271,0,0,1,.382.4,1.051,1.051,0,0,1,.132.686,1.175,1.175,0,0,1-.356.738,5.636,5.636,0,0,1-1.424.765,13.005,13.005,0,0,0-.171,1.582q-.04.817-.277,2.742,1.424-.158,2.492-.264a7,7,0,0,1,1.727,0,1.74,1.74,0,0,1,.237.778.666.666,0,0,1-.171.382,1.273,1.273,0,0,1-.725.224q-.58.066-1.846.3a11.73,11.73,0,0,0-1.819.448q-.185.976-.369,1.74a3.283,3.283,0,0,1-.593,1.371,2.106,2.106,0,0,1-1.305.817,2.936,2.936,0,0,1-1.9-.053,3.834,3.834,0,0,1-1.529-.962,4.377,4.377,0,0,1-.831-1.187.921.921,0,0,1-.066-.857,1.909,1.909,0,0,1,.738-.712,13.589,13.589,0,0,1,1.305-.725,10.862,10.862,0,0,1,1.463-.593q.738-.237,1.529-.5.211-.976.29-1.648T167.88-8.569Zm-.817,5.933a8.419,8.419,0,0,0-1.635.58,3.96,3.96,0,0,0-1.318.87,1.893,1.893,0,0,0,.751.9,1.041,1.041,0,0,0,1.015,0,1.791,1.791,0,0,0,.831-1.028A8.279,8.279,0,0,0,167.063-2.637Zm23.625-11.206q-.185,1.688-.356,2.742T190-9.149a3.7,3.7,0,0,1,.409.883,3.424,3.424,0,0,1,.026,1.239q-.092.831-.25,1.6a20.015,20.015,0,0,1-.554,2.558q-.4,1.424-.62,2.531a18.68,18.68,0,0,1-.672,2.4,1.086,1.086,0,0,1-.264.646.584.584,0,0,1-.606.2,1.333,1.333,0,0,1-.672-.422.951.951,0,0,1-.25-.712q.659-1.951.962-3.032t.883-3.691q-.949,1.608-1.437,1.767a2.215,2.215,0,0,1-1.411-.211A10.411,10.411,0,0,1,184.28-4.43a2.176,2.176,0,0,1-.672-1.477,2.981,2.981,0,0,1,.409-1.635,8.363,8.363,0,0,1,1.173-1.6,10.925,10.925,0,0,1,1.279-1.2,2.221,2.221,0,0,1,1.134-.435,2.306,2.306,0,0,1,.949.171,3,3,0,0,0,.369-1.266,12.2,12.2,0,0,0,.053-1.608q-1.477.264-3.138.686a28.7,28.7,0,0,0-2.966.91q-1.305.488-2.36.857a.848.848,0,0,1-.672.04,1.312,1.312,0,0,1-.593-.4.962.962,0,0,1-.237-.646.793.793,0,0,1,.686-.712q1.582-.554,2.465-.817t2.9-.738q2.017-.475,3.863-.949.079-1.028.079-1.793a.543.543,0,0,1,.475-.316.434.434,0,0,1,.132.026,1.076,1.076,0,0,1,.659.58,9.754,9.754,0,0,1,.554,1.134q1-.079,1.529-.158a6.765,6.765,0,0,1,1-.079q.29-.026.646-.04a.6.6,0,0,1,.554.277,1.4,1.4,0,0,1,.237.646.742.742,0,0,1-.277.646q-.844.079-1.793.158A15.516,15.516,0,0,0,190.688-13.843Zm-2.61,4.772a5.111,5.111,0,0,0-1.661,1.081,6.894,6.894,0,0,0-1.239,1.608.878.878,0,0,0-.132.9,1.215,1.215,0,0,0,.633.686A1.1,1.1,0,0,0,187-5.458a23.149,23.149,0,0,0,.817-2.307A5.768,5.768,0,0,0,188.077-9.07Zm19.934,6.855a4.049,4.049,0,0,1-.58,1.5,10.245,10.245,0,0,1-1.187,1.5,6.808,6.808,0,0,1-1.2,1.081,5.516,5.516,0,0,1-.936.475,3.057,3.057,0,0,1-.883.237,1.794,1.794,0,0,1-.923-.145,2.449,2.449,0,0,1-.778-.514,4.24,4.24,0,0,1-.751-1.173,3.523,3.523,0,0,1-.29-1.332,3.727,3.727,0,0,1,.224-1.345,14.474,14.474,0,0,1,.554-1.45,12.887,12.887,0,0,1,.765-1.45,2.949,2.949,0,0,1,.923-.817,6.106,6.106,0,0,1,.844-.422.756.756,0,0,1,.343-.079,1.657,1.657,0,0,1,.264.026q.316.105.778.224a8.173,8.173,0,0,1,.962.316,1.933,1.933,0,0,1,.817.593,3.935,3.935,0,0,1,.765,1.187A4.032,4.032,0,0,1,208.011-2.215Zm-4.377-1.661a3.685,3.685,0,0,0-1.094,1.358,5.731,5.731,0,0,0-.567,2.333,1.675,1.675,0,0,0,.316,1.042.737.737,0,0,0,.554.171,1.518,1.518,0,0,0,.606-.185,6.374,6.374,0,0,0,1.542-1.213,9.408,9.408,0,0,0,.923-1.173,8.678,8.678,0,0,0,.593-1.094.979.979,0,0,0,.132-.659.912.912,0,0,0-.343-.58,1.089,1.089,0,0,0-1.318-.158,1.622,1.622,0,0,1-.633.343A1.151,1.151,0,0,1,203.634-3.876Z" transform="translate(0 89.08)" fill="#fb7180"/>
  </g>
</svg>
