	<svg xmlns="http://www.w3.org/2000/svg" width="284.971" height="94.011"
						viewBox="0 0 284.971 94.011">
						<g id="Сгруппировать_378" data-name="Сгруппировать 378" transform="translate(-1.437 2.584)">
							<path id="Контур_1741" data-name="Контур 1741"
								d="M24.258-11.549q0,.211-.224.211l-3.151-.053H15.636v3.863h3.27l3.678-.053a.186.186,0,0,1,.211.211l-.053,2.333v2.123l.053,4.271a.186.186,0,0,1-.211.211H21.331a.186.186,0,0,1-.211-.211V.409H9.993V1.516a.163.163,0,0,1-.185.185H8.583q-.211,0-.211-.185l.053-4.324V-4.693L8.372-7.37a.186.186,0,0,1,.211-.211l3.652.053h1.806v-5.919a21.07,21.07,0,0,0-.158-3.138,15.227,15.227,0,0,1,1.727.171q.33.04.33.211a2.269,2.269,0,0,1-.171.541,9.305,9.305,0,0,0-.132,2.162v.646h5.247l3.151-.053q.224,0,.224.211ZM21.12-1.055V-6.091H9.993v5.036Zm4.021-16.677q0,.211-.2.211l-3.771-.053H6.157v3.889A44.853,44.853,0,0,1,5.59-5.59,21.838,21.838,0,0,1,3.138,1.081q-.224.356-.277.356t-.343-.3A3.96,3.96,0,0,0,1.437.356,19.122,19.122,0,0,0,3.995-6.236a43.817,43.817,0,0,0,.514-7.66l-.053-5.01a.186.186,0,0,1,.211-.211l3.836.053h5.1v-1.345a11.624,11.624,0,0,0-.158-2.188,12.219,12.219,0,0,1,1.78.132q.33.04.33.211a1.048,1.048,0,0,1-.158.514,3.536,3.536,0,0,0-.145,1.305v1.371h5.919l3.771-.053q.2,0,.2.211Zm27.422.026a.186.186,0,0,1-.211.211l-3.494-.053H46.406v2.676h1.859l3.362-.053a.186.186,0,0,1,.211.211l-.053,3.771v6.13L51.812-.7A2.242,2.242,0,0,1,51.271,1a3.605,3.605,0,0,1-2.241.461.9.9,0,0,1-.5-.079,1.075,1.075,0,0,1-.145-.409,2.864,2.864,0,0,0-.409-1.081q1.015.079,1.6.079.751,0,.751-.949V-4.891H46.406v2.136l.053,4.1q0,.224-.211.224H45.1q-.211,0-.211-.224l.053-4.1V-4.891H41.37v2.347l.053,4.034a.186.186,0,0,1-.211.211H40.091q-.237,0-.237-.211l.053-4.061v-8.5l-.053-3.639q0-.211.237-.211l3.322.053h1.529v-2.676h-2.07l-3.507.053a.186.186,0,0,1-.211-.211v-1.081q0-.224.211-.224l3.507.053h2.07v-.211a22.523,22.523,0,0,0-.185-3.3,15.6,15.6,0,0,1,1.622.158q.29.053.29.224a1.482,1.482,0,0,1-.105.488,9.578,9.578,0,0,0-.158,2.32v.316h2.452l3.494-.053q.211,0,.211.224ZM50.322-6.157V-9.268H46.406v3.111Zm0-4.377v-3.019H46.406v3.019ZM44.943-6.157V-9.268H41.37v3.111Zm0-4.377v-3.019H41.37v3.019ZM37.863,1.081q0,.211-.224.211H36.532a.186.186,0,0,1-.211-.211V.105H31.509V1.424q0,.224-.211.224H30.19a.2.2,0,0,1-.224-.224l.053-3.876V-4.074l-.053-2.268a.186.186,0,0,1,.211-.211l2.518.026h2.439l2.518-.026a.186.186,0,0,1,.211.211l-.053,1.885V-2.7ZM36.321-1.187V-5.208H31.509v4.021ZM38.852-8.82q0,.185-.211.185l-2.979-.053H31.878l-2.966.053q-.211,0-.211-.185V-9.848a.186.186,0,0,1,.211-.211l2.966.053h1.463v-2.9h-.488l-2.373.066q-.25,0-.25-.224v-1q0-.211.25-.211l2.373.053h.488v-.409a12.868,12.868,0,0,0-.185-2.5,14.288,14.288,0,0,1,1.622.158q.33.04.33.224a1.646,1.646,0,0,1-.171.514,5.274,5.274,0,0,0-.132,1.477v.541h.488l2.4-.053a.186.186,0,0,1,.211.211v1q0,.224-.211.224l-2.4-.066H34.8v2.9h.857l2.979-.053a.186.186,0,0,1,.211.211Zm.105-8.859a3.094,3.094,0,0,0-.7.857q-.211.409-.3.409a.774.774,0,0,1-.343-.211A17.9,17.9,0,0,1,34.264-20a22.029,22.029,0,0,1-5.3,5.59.677.677,0,0,1-.316.185q-.119,0-.277-.356a3.244,3.244,0,0,0-.62-.91,17.8,17.8,0,0,0,5.59-5.893,3.2,3.2,0,0,0,.29-.831,8.011,8.011,0,0,1,1.5.541q.264.132.264.264t-.224.277l-.105.079A13.989,13.989,0,0,0,38.958-17.679ZM51.35-20.171a.254.254,0,0,1,.053.119q0,.066-.158.211l-.62.488a.519.519,0,0,1-.25.132q-.066,0-.158-.132a14.185,14.185,0,0,0-2-2.109q-.105-.092-.105-.132,0-.079.158-.2l.541-.4a.56.56,0,0,1,.237-.119.319.319,0,0,1,.171.079A15.523,15.523,0,0,1,51.35-20.171Zm15.2,11.72v5.339H64.745V-7.62q-.62.316-1.279.686-3.454,1.951-3.454,3.916A1.789,1.789,0,0,0,61.225-1.2a12.336,12.336,0,0,0,4.008.448q2.834,0,6.579-.33L71.89.751Q66.973,1,65.364,1,61.132,1,59.643.013a3.417,3.417,0,0,1-1.358-3.085q0-2.821,3.625-4.917,1.371-.778,2.808-1.49-.132-2.531-1.753-2.531-2.268,0-6.223,4.562l-1.4-1.239a31.529,31.529,0,0,0,5.59-7.976q-2.465.04-4.944,0v-1.648q2.848.053,5.7,0A24.126,24.126,0,0,0,62.9-21.924l1.951.356a27.726,27.726,0,0,1-1.134,3.177q3.8-.119,7.211-.461L70.98-17.2q-4.43.356-7.989.461a27.573,27.573,0,0,1-2.268,3.836l-.686.7.079.105a4.805,4.805,0,0,1,3.217-1.371,2.933,2.933,0,0,1,2.149.817A3.822,3.822,0,0,1,66.5-10.31q2.109-.962,5.484-2.386l.751,1.846Q68.344-9.242,66.551-8.451ZM83.927-11.18a7.792,7.792,0,0,0-.053,1.055.934.934,0,0,1-.105.554,1.208,1.208,0,0,1-.409.25q-1.78.844-2.4,1.081v3.19L81.013-1a2.555,2.555,0,0,1-.738,2.162,4.946,4.946,0,0,1-2.676.488.931.931,0,0,1-.527-.092.971.971,0,0,1-.2-.448,3.287,3.287,0,0,0-.488-1.134,17.108,17.108,0,0,0,1.951.079.915.915,0,0,0,.831-.33,1.727,1.727,0,0,0,.2-.962V-7.554q-.765.3-1.6.593a3.194,3.194,0,0,0-1,.488.492.492,0,0,1-.356.158q-.158,0-.264-.25a10.247,10.247,0,0,1-.488-1.529,21.545,21.545,0,0,0,2.4-.659q.87-.264,1.305-.422v-6.13H78.5l-2.5.053a.2.2,0,0,1-.224-.224v-1.134q0-.211.224-.211l2.5.053h.87v-2.188a19.557,19.557,0,0,0-.2-3.3,14,14,0,0,1,1.767.171q.356.04.356.211a1.517,1.517,0,0,1-.171.514,9.145,9.145,0,0,0-.158,2.347v2.241h.079l2.5-.053q.224,0,.224.211v1.134a.2.2,0,0,1-.224.224l-2.5-.053H80.96v5.537Q82.371-10.375,83.927-11.18Zm15.9-1.4a.186.186,0,0,1-.211.211l-3.731-.053H88.027l-3.731.053a.186.186,0,0,1-.211-.211v-1.147q0-.185.211-.185l3.731.053H90.7v-3.56H88.937l-3.4.066q-.237,0-.237-.224v-1.107q0-.211.237-.211l3.4.053H90.7a16.81,16.81,0,0,0-.25-3.454,17.019,17.019,0,0,1,1.793.158q.356.053.356.237a1.625,1.625,0,0,1-.145.488,10.737,10.737,0,0,0-.185,2.571H94.7l3.454-.053a.186.186,0,0,1,.211.211v1.107q0,.224-.211.224L94.7-17.416H92.272v3.56h3.612l3.731-.053q.211,0,.211.185Zm-.013,4.759a.186.186,0,0,1-.211.211L96.069-7.66v3.744l.053,3.454a2.109,2.109,0,0,1-.765,1.833,6.592,6.592,0,0,1-3.164.461.86.86,0,0,1-.488-.079,1.025,1.025,0,0,1-.185-.461A2.99,2.99,0,0,0,90.98.079q.962.092,1.978.092.3,0,.672-.013.87-.04.87-1.015v-6.8H88.291l-3.7.053a.186.186,0,0,1-.211-.211V-8.938a.186.186,0,0,1,.211-.211l3.7.053H94.5a13.035,13.035,0,0,0-.2-2.808,11.755,11.755,0,0,1,1.74.185q.356.092.356.25a2.779,2.779,0,0,1-.171.461,5.585,5.585,0,0,0-.158,1.78V-9.1L99.6-9.149a.186.186,0,0,1,.211.211Zm-9.2,5.089a.291.291,0,0,1,.066.132q0,.053-.224.25l-.7.62a.725.725,0,0,1-.33.2q-.079,0-.158-.145a15.8,15.8,0,0,0-2.729-3.48.3.3,0,0,1-.092-.158q0-.053.25-.25l.62-.488a.583.583,0,0,1,.264-.132.319.319,0,0,1,.171.079A19.923,19.923,0,0,1,90.611-2.729Zm17.139-12.8q-2.228.119-4.562.119v-1.7q2.7,0,4.838-.119.369-2.742.514-4.72l1.991.185q-.211,1.978-.62,4.456,2.624-.171,5.972-.461l.026,1.7q-2.755.29-6.275.461A102.538,102.538,0,0,1,105.376.831L103.491.185A92.341,92.341,0,0,0,107.75-15.53Zm3.3,10.375,1.674.132a7.1,7.1,0,0,0-.158,1.516,2.072,2.072,0,0,0,.989,2.083,8.134,8.134,0,0,0,3.006.369,31.859,31.859,0,0,0,4.179-.211l.105,1.859q-1.608.158-3.942.158-3.52,0-4.812-.91a3.35,3.35,0,0,1-1.226-2.953A10.071,10.071,0,0,1,111.045-5.155Zm1.371-5.774v-1.793a77.251,77.251,0,0,1,8.213-.369v1.727A62.026,62.026,0,0,0,112.417-10.929ZM136.6-16.387q-.04,2.927,0,5.854a10.267,10.267,0,0,1,.593,3.428,7.111,7.111,0,0,1-2.518,5.919,14.935,14.935,0,0,1-6.315,2.452L127.222-.356q4.667-.778,6.579-2.663a5.287,5.287,0,0,0,1.556-3.625q-.91,1.7-3.48,1.7a4.252,4.252,0,0,1-2.953-1.107,4.016,4.016,0,0,1-1.292-3.125,3.993,3.993,0,0,1,1.529-3.349,4.762,4.762,0,0,1,3.006-.949,3.864,3.864,0,0,1,2.624.751q-.053-2.531-.053-3.612-4.337.066-10.481.461l-.026-1.727q4.983-.2,10.481-.33v-3.665l1.938.026q0,1.213-.053,3.586,4.482-.053,6.486-.053v1.727q-2.188-.079-4.575-.079Zm-4.509,4.43a2.55,2.55,0,0,0-1.9.765,2.726,2.726,0,0,0-.751,2.017,2.386,2.386,0,0,0,.857,1.938,2.484,2.484,0,0,0,1.635.567,2.711,2.711,0,0,0,2.123-.791,2.507,2.507,0,0,0,.606-1.767Q134.657-11.958,132.086-11.958Zm6.262-10.8,1.318-.541a28.057,28.057,0,0,1,1.925,4.311l-1.411.593A26.313,26.313,0,0,0,138.349-22.755Zm3.19-.435,1.345-.488a22.306,22.306,0,0,1,1.925,4.43l-1.411.567A26.012,26.012,0,0,0,141.539-23.19Zm11.72,16.308,1.846.158a10.525,10.525,0,0,0-.3,2.426,2.033,2.033,0,0,0,.857,1.885,6.108,6.108,0,0,0,2.979.527,50.112,50.112,0,0,0,5.339-.277l.053,1.951q-1.978.158-5.128.158-3.415,0-4.707-.949a3.439,3.439,0,0,1-1.226-2.993A13.923,13.923,0,0,1,153.259-6.882ZM153.8-15.9v-1.846q3.375-.264,6.829-.264,1.714,0,3.217.079V-16.1q-1.4-.105-3.4-.105Q156.99-16.2,153.8-15.9Zm-2.914-4.654A70.091,70.091,0,0,0,149.37-7.8a47.885,47.885,0,0,0,.659,8.451L148.1.8a55.638,55.638,0,0,1-.62-8.662,77.661,77.661,0,0,1,1.49-12.854ZM182.183,0h-2.162V-16.334a5,5,0,0,1-.732.573,11.927,11.927,0,0,1-1.081.639q-.6.316-1.266.593a9.2,9.2,0,0,1-1.3.435v-2.188a12.569,12.569,0,0,0,1.51-.534q.8-.336,1.569-.751t1.457-.87a11.566,11.566,0,0,0,1.187-.89h.817ZM214.47-11.443q-.026.448-.053,1.411-.026.923-.053,1.45a50.982,50.982,0,0,1-.646,6.8,4,4,0,0,1-1.107,2.32,3.4,3.4,0,0,1-2.36.751q-1.4,0-2.149-.079-.422-.026-.5-.119a1.223,1.223,0,0,1-.158-.5A3.087,3.087,0,0,0,206.9-.672a19.761,19.761,0,0,0,3.085.264,1.908,1.908,0,0,0,1.49-.541,2.979,2.979,0,0,0,.593-1.49,51.878,51.878,0,0,0,.593-7.686h-6.025a13.129,13.129,0,0,1-8.121,11.747,1.682,1.682,0,0,1-.382.132q-.145,0-.409-.409a2.931,2.931,0,0,0-.857-.883q7.462-2.927,8.068-10.586h-1.213l-3.625.053a.186.186,0,0,1-.211-.211v-1.2a.186.186,0,0,1,.211-.211l3.625.053h6.829l3.678-.053Q214.47-11.694,214.47-11.443Zm-8.7-9.294q0,.132-.211.3a1.559,1.559,0,0,0-.488.593,26.837,26.837,0,0,1-3.929,6,28.344,28.344,0,0,1-4.575,4.074,1.087,1.087,0,0,1-.409.237q-.145,0-.369-.356a3.091,3.091,0,0,0-.949-.883,21.776,21.776,0,0,0,5.418-4.68,20.29,20.29,0,0,0,3.006-4.746,6.514,6.514,0,0,0,.435-1.6,9.533,9.533,0,0,1,1.714.646Q205.769-20.988,205.769-20.738Zm14.291,9.611a3.876,3.876,0,0,0-.949,1.081q-.25.382-.316.382a1.114,1.114,0,0,1-.382-.211,28.4,28.4,0,0,1-9.242-11.1.4.4,0,0,1-.04-.145q0-.066.29-.211l.8-.435a.83.83,0,0,1,.29-.105q.079,0,.145.185a23.28,23.28,0,0,0,4.179,6.341A22.555,22.555,0,0,0,220.06-11.127Zm25.3,10.02a2.507,2.507,0,0,1-.7,2.057,2.216,2.216,0,0,1-1.121.448,17.25,17.25,0,0,1-2.149.092.824.824,0,0,1-.475-.079,1.389,1.389,0,0,1-.145-.435,4.341,4.341,0,0,0-.488-1.187,17.325,17.325,0,0,0,1.964.105,1.721,1.721,0,0,0,1.213-.29,1.578,1.578,0,0,0,.224-1V-13.421h-4.944l-2.927.053q-.237,0-.237-.211l.053-2.32v-3.138l-.053-2.32q0-.211.237-.211l2.927.053H242.2l2.927-.053a.186.186,0,0,1,.211.211l-.053,3.863V-5.023Zm-1.674-13.605v-2.136h-6.513v2.136Zm0-3.428V-20.2h-6.513v2.057Zm-10.639,4.562a.186.186,0,0,1-.211.211l-2.7-.053h-4.891v9.426l.053,5.616a.186.186,0,0,1-.211.211H223.8a.186.186,0,0,1-.211-.211l.053-5.616V-15.688l-.053-5.669a.186.186,0,0,1,.211-.211l3.059.053h3.27l2.7-.053a.186.186,0,0,1,.211.211l-.053,2.492v2.795Zm-1.6-1.134v-2.136h-6.209v2.136Zm0-3.428V-20.2h-6.209v2.057ZM241.958-5.313q0,.211-.224.211l-3.665-.053h-.382v2.887L237.739.7q0,.224-.211.224h-1.2q-.211,0-.211-.224l.053-2.966V-5.155h-3.836a11.066,11.066,0,0,1-.8,3.072A8.174,8.174,0,0,1,229.117.976a.774.774,0,0,1-.343.211q-.105,0-.435-.316a2.9,2.9,0,0,0-.949-.646,6.581,6.581,0,0,0,2.7-2.808,6.651,6.651,0,0,0,.7-2.571h-.158l-3.665.053q-.224,0-.224-.211v-1q0-.211.224-.211l3.665.053h.277q.079-2.531.079-3.23l-3.032.053q-.237,0-.237-.211v-1q0-.211.237-.211l3.494.053h5.985l3.52-.053q.185,0,.185.211v1q0,.211-.185.211l-3.27-.053v3.23h.382l3.665-.053q.224,0,.224.211Zm-5.788-1.16V-9.7h-3.652q0,1.885-.079,3.23Z"
								transform="translate(0 21.094)" fill="#fb7180" />
							<path id="Контур_1740" data-name="Контур 1740"
								d="M25.642-.541a4.526,4.526,0,0,0-.7.976q-.237.448-.4.448a1.9,1.9,0,0,1-.382-.092A23.919,23.919,0,0,1,14.014-4.562q0,2.821.079,4.931.053,1.279.053,1.305a.186.186,0,0,1-.211.211H12.63a.186.186,0,0,1-.211-.211q0-.105.026-.9.092-2.36.105-5.287A19.237,19.237,0,0,1,7.884-1.121,31.182,31.182,0,0,1,2.782.923a1.622,1.622,0,0,1-.4.092q-.185,0-.4-.422A2.751,2.751,0,0,0,1.266-.33Q8.042-2.1,11.206-5.076H5.59l-3.546.053q-.237,0-.237-.211v-.976q0-.211.237-.211l3.546.053H12.5V-8.53H8.477l-3.836.053q-.211,0-.211-.185v-.949q0-.237.211-.237L8.477-9.8H12.5v-2.083H7.146l-3.718.053q-.25,0-.25-.211v-.976q0-.211.25-.211l3.718.053H9.308a9.512,9.512,0,0,0-1.134-2.32.351.351,0,0,1-.066-.158q0-.092.29-.2l.7-.237a.816.816,0,0,1,.25-.079q.092,0,.185.132a14.088,14.088,0,0,1,1.424,2.861h5a20.077,20.077,0,0,0,1-1.978,7.089,7.089,0,0,0,.316-1.068q.672.145,1.437.369.3.105.3.3,0,.145-.237.316a1.66,1.66,0,0,0-.382.567q-.4.738-.9,1.49h2.347l3.757-.053a.186.186,0,0,1,.211.211v.976a.186.186,0,0,1-.211.211l-3.757-.053H14.067V-9.8h4.562l3.836-.053q.211,0,.211.237v.949q0,.185-.211.185L18.628-8.53H14.067v2.162h7.422l3.56-.053q.224,0,.224.211v.976q0,.211-.224.211l-3.56-.053H15.333A25.744,25.744,0,0,0,25.642-.541Zm-.369-16.124q0,.211-.224.211l-3.56-.053H5.59l-3.546.053q-.237,0-.237-.211v-.976a.21.21,0,0,1,.237-.237l3.546.053h.936a12.591,12.591,0,0,0-1.912-2.861.236.236,0,0,1-.066-.145q0-.092.224-.211l.738-.369a.451.451,0,0,1,.211-.079.213.213,0,0,1,.158.105,15.572,15.572,0,0,1,1.951,2.729.311.311,0,0,1,.04.132q0,.092-.211.211l-.883.488h3.56v-2.03a12.8,12.8,0,0,0-.158-2.452q.91.04,1.635.132.277.053.277.25a.85.85,0,0,1-.105.369,5.042,5.042,0,0,0-.158,1.7v2.03h2.887v-2a11.012,11.012,0,0,0-.185-2.452q.949.053,1.674.132.264.053.264.25a1.274,1.274,0,0,1-.105.343,5.9,5.9,0,0,0-.158,1.7v2.03h2.5a21.128,21.128,0,0,0,1.516-2.531,4.623,4.623,0,0,0,.422-1.279,12.154,12.154,0,0,1,1.542.514q.277.092.277.277a.414.414,0,0,1-.211.343,1.852,1.852,0,0,0-.461.541q-.7,1.121-1.437,2.136h1.134l3.56-.053q.224,0,.224.237Z"
								transform="translate(247.166 21.094)" fill="#fb7180" />
							<path id="Контур_1739" data-name="Контур 1739"
								d="M14.924-20.9,14.3-5.511H12.577L12.063-20.9Zm.026,18.47V.461H12.01V-2.426Z"
								transform="translate(271.458 21.094)" fill="#fb7180" />
							<path id="Контур_1738" data-name="Контур 1738"
								d="M13.329-22.228l1.384-.527A35.244,35.244,0,0,1,16.7-18.193l-1.45.593A27.6,27.6,0,0,0,13.329-22.228ZM2.94-8.213l1.753.541a6.081,6.081,0,0,0-1.028,3.52q0,3.072,5.537,3.072a61.326,61.326,0,0,0,6.855-.382l.026,2.03Q12.92.778,9.176.778a10.113,10.113,0,0,1-5.537-1.2A4.254,4.254,0,0,1,1.806-4.206,7.429,7.429,0,0,1,2.94-8.213ZM16.229-23.137l1.345-.488a21.845,21.845,0,0,1,1.912,4.43l-1.4.567A26.012,26.012,0,0,0,16.229-23.137ZM3.3-19.63q1.674.079,4.825.079,1.384,0,4.786-.158l1,2.426a43.747,43.747,0,0,0-5.458,3.6L7.238-15.042q.58-.409,4.641-2.94a35.953,35.953,0,0,1-4.351.211q-1.648,0-4.232-.105ZM41.476,1.463q0,.185-.211.185H39.986q-.211,0-.211-.185V-.053H26.407V1.49q0,.185-.211.185H24.917q-.211,0-.211-.185l.053-8.556v-5l-.053-6.46a.186.186,0,0,1,.211-.211l3.784.053h1.6a24.07,24.07,0,0,0,1.081-2.861,6.206,6.206,0,0,0,.185-1.187q.791.105,1.727.316.33.092.33.3a.439.439,0,0,1-.158.29,2.176,2.176,0,0,0-.409.686q-.593,1.582-1.028,2.452h5.458l3.784-.053a.186.186,0,0,1,.211.211l-.053,5.84v5.59ZM39.775-1.6v-4.5H26.407v4.5Zm0-5.985v-4.047H26.407v4.047Zm0-5.537v-4.021H26.407v4.021Zm31.97.62q0,.171-.29.316a3.016,3.016,0,0,0-.791.7,33.319,33.319,0,0,1-3.836,4.061V-4.4L66.88-.976A2.347,2.347,0,0,1,66.261.87a3.094,3.094,0,0,1-1.582.527,23.664,23.664,0,0,1-2.492.092.978.978,0,0,1-.514-.079A.907.907,0,0,1,61.5.976a3.293,3.293,0,0,0-.475-1.187q1.463.132,2.94.132a1.119,1.119,0,0,0,1.266-1.266V-6.1q-5.55,4.3-15.069,7.462a1.934,1.934,0,0,1-.422.092q-.171,0-.409-.422a2.766,2.766,0,0,0-.751-.844Q58.6-2.821,64.257-7.08,57.731-6.051,51.324-5.432a4.017,4.017,0,0,0-1.134.224,1.836,1.836,0,0,1-.4.132q-.2,0-.277-.237a14.849,14.849,0,0,1-.382-1.608q1.371,0,2.927-.105.132,0,.409-.013.58-.026.883-.066v-8.833L53.3-19.2a.186.186,0,0,1,.211-.211l3.546.053h.369a14.332,14.332,0,0,0,.976-1.78,5.556,5.556,0,0,0,.488-1.542,11.759,11.759,0,0,1,1.661.382q.33.092.33.29a.384.384,0,0,1-.211.33,1.271,1.271,0,0,0-.435.514q-.475.91-1.015,1.806h3.9l3.546-.053a.186.186,0,0,1,.211.211l-.053,3.586v6.368a23.564,23.564,0,0,0,2.755-3.23,6.76,6.76,0,0,0,.725-1.279,9.1,9.1,0,0,1,1.187.844A.571.571,0,0,1,71.745-12.5ZM65.232-8.477v-1.978H54.923v3.217Q59.616-7.633,65.232-8.477Zm0-3.3v-2.465H54.923v2.465Zm0-3.784v-2.426H54.923v2.426Zm20.685-2.1Q85.3-8.4,83.057-3.454,81.751-.593,79.4-.593a3.373,3.373,0,0,1-3.1-2.043,11.561,11.561,0,0,1-1.028-5.379,14.147,14.147,0,0,1,.883-5.049,9.863,9.863,0,0,1,2-3.322,9.015,9.015,0,0,1,3.309-2.175,10.465,10.465,0,0,1,3.8-.712q4.707,0,6.855,2.887,1.859,2.531,1.859,7.343a9.863,9.863,0,0,1-2.162,6.552A10.8,10.8,0,0,1,85.509.949L84.573-.672q7.4-1.411,7.4-8.886,0-4.245-1.991-6.368A5.417,5.417,0,0,0,85.917-17.653Zm-2.03.211a5.931,5.931,0,0,0-2.492.778,8.6,8.6,0,0,0-2.043,1.793,10.129,10.129,0,0,0-2.215,6.908,8.878,8.878,0,0,0,.791,4.1q.633,1.187,1.45,1.187a1.582,1.582,0,0,0,1.2-.5,4.907,4.907,0,0,0,.857-1.463A38.222,38.222,0,0,0,83.887-17.442ZM118.1-12.959q0,.211-.224.211l-3.256-.053H110l-3.243.053a.186.186,0,0,1-.211-.211l.053-2.4v-3.217l-.053-2.439a.186.186,0,0,1,.211-.211l3.243.053h4.614l3.256-.053q.224,0,.224.211l-.053,2.439v3.217Zm-1.6-1.16v-2.241h-8.4v2.241Zm0-3.507v-2.228h-8.4v2.228Zm4.179,11.667a.186.186,0,0,1-.211.211L116.886-5.8v1.833l.026,3.428a1.868,1.868,0,0,1-.765,1.727,8.669,8.669,0,0,1-3.454.409q-.4,0-.475-.092a1.112,1.112,0,0,1-.171-.475,3.771,3.771,0,0,0-.541-1.16A23.872,23.872,0,0,0,114,.013q.237,0,.4-.013a.851.851,0,0,0,.9-.976V-5.8h-7.646l-3.744.053q-.224,0-.224-.211V-7.04q0-.211.224-.211l3.744.053h7.646V-9.532h-7.37l-3.757.053a.186.186,0,0,1-.211-.211v-1.081a.186.186,0,0,1,.211-.211l3.757.053h8.714l3.784-.053a.186.186,0,0,1,.211.211V-9.69a.186.186,0,0,1-.211.211l-3.533-.053V-7.2l3.586-.053a.186.186,0,0,1,.211.211ZM104.15-15.412a.4.4,0,0,1-.224.316,2.159,2.159,0,0,0-.646.817q-.5.91-1.318,2.123V-1.833l.053,3.533q0,.211-.224.211h-1.266a.186.186,0,0,1-.211-.211l.053-3.533V-6.776q0-.3.079-3.375a26.9,26.9,0,0,1-2.518,2.571.8.8,0,0,1-.422.237q-.132,0-.277-.33a2,2,0,0,0-.672-.91,22.04,22.04,0,0,0,5.458-6.645,6.006,6.006,0,0,0,.514-1.345,11.433,11.433,0,0,1,1.345.778Q104.15-15.6,104.15-15.412Zm-.224-5.616q0,.145-.25.29a2.532,2.532,0,0,0-.672.646,25.442,25.442,0,0,1-4.8,5.01,1.012,1.012,0,0,1-.409.211q-.132,0-.356-.382a2.909,2.909,0,0,0-.751-.817,16.355,16.355,0,0,0,4.917-4.878,5.623,5.623,0,0,0,.646-1.239,9.68,9.68,0,0,1,1.4.778Q103.926-21.212,103.926-21.028Zm6.882,19.2a.319.319,0,0,1,.079.171q0,.079-.211.224l-.725.514a.79.79,0,0,1-.316.171q-.079,0-.171-.132a14.112,14.112,0,0,0-2.6-2.953q-.105-.092-.105-.158,0-.092.237-.25l.712-.448a.444.444,0,0,1,.224-.105.273.273,0,0,1,.171.079A15.206,15.206,0,0,1,110.808-1.833ZM144.1-5.748a.186.186,0,0,1-.211.211l-3.757-.053h-8.016l-3.757.053a.186.186,0,0,1-.211-.211l.053-2.188v-2.544l-.053-2.188a.186.186,0,0,1,.211-.211l3.757.053h8.016l3.757-.053a.186.186,0,0,1,.211.211l-.053,2.188v2.544ZM142.449-6.8V-8.675H129.766V-6.8Zm0-3.059v-1.727H129.766v1.727Zm5.273-4.667q0,.185-.224.185l-3.56-.053H128.329l-3.533.053q-.224,0-.224-.185v-1.055q0-.211.224-.211l3.533.053h3.349a15,15,0,0,0-.831-2.109.351.351,0,0,1-.066-.158q0-.092.3-.185l.831-.25a1.108,1.108,0,0,1,.211-.04q.092,0,.2.171a17.416,17.416,0,0,1,1.028,2.571h5.208q.25-.5.672-1.6a5.873,5.873,0,0,0,.277-1.134q.87.171,1.569.382.29.079.29.264a.473.473,0,0,1-.211.356,1.6,1.6,0,0,0-.409.567l-.541,1.16h3.731l3.56-.053q.224,0,.224.211Zm-2-4.258q0,.237-.211.237L141.7-18.6H130.676l-3.81.053q-.211,0-.211-.237v-.976a.186.186,0,0,1,.211-.211l3.81.053h4.456v-.488a9.628,9.628,0,0,0-.185-2.162q.738.026,1.78.132.33.053.33.224a1.745,1.745,0,0,1-.158.514,3.612,3.612,0,0,0-.145,1.292v.488H141.7l3.81-.053a.186.186,0,0,1,.211.211ZM142.607-1.753Q142.291.4,141.236.923a13.643,13.643,0,0,1-5,.593,14.543,14.543,0,0,1-4.1-.356q-1.134-.422-1.134-2.215V-2.676a12.619,12.619,0,0,0-.158-2.136,10.257,10.257,0,0,1,1.714.2q.33.066.33.211a1.2,1.2,0,0,1-.132.356,4.668,4.668,0,0,0-.132,1.424v1.081q0,1.16.593,1.358a11.532,11.532,0,0,0,2.993.237,10.829,10.829,0,0,0,3.968-.435q.844-.382.976-2.61a4.318,4.318,0,0,0,1.081.567q.422.145.422.33A2.315,2.315,0,0,1,142.607-1.753Zm5.405,1.187a.29.29,0,0,1,.066.158q0,.092-.224.25l-.791.541a.85.85,0,0,1-.369.185q-.119,0-.2-.158a19.581,19.581,0,0,0-3.4-4.021q-.119-.105-.119-.158,0-.092.224-.25l.633-.488a.362.362,0,0,1,.211-.092.378.378,0,0,1,.237.119A22.756,22.756,0,0,1,148.012-.567ZM129.107-3.375A14.233,14.233,0,0,1,125.824.949a.228.228,0,0,1-.158.079.725.725,0,0,1-.33-.2L124.664.3q-.224-.2-.224-.277,0-.053.105-.158a11.653,11.653,0,0,0,3.138-3.916q.066-.158.171-.158a.809.809,0,0,1,.316.105l.725.316q.264.132.264.264A.325.325,0,0,1,129.107-3.375Zm9.479.9a.3.3,0,0,1,.092.158q0,.092-.2.237l-.567.488a.905.905,0,0,1-.369.211q-.079,0-.171-.132a12.068,12.068,0,0,0-2.347-2.452q-.171-.105-.171-.171t.224-.264l.488-.409a.492.492,0,0,1,.277-.145.363.363,0,0,1,.185.066A11.573,11.573,0,0,1,138.586-2.479Zm19.789-14.66q1.582-.132,3.995-.382l.026,1.674q-2.2.264-4.443.369a74.089,74.089,0,0,1-4.759,12.511l-1.753-.817a57.81,57.81,0,0,0,4.588-11.6q-2.188.119-4.377.079L151.6-16.98q2.268.079,4.865-.053.527-2.254.9-4.562l1.964.237Q158.955-19.538,158.375-17.139Zm5.788,11.167q-.237-2.887-.277-6.882h1.859q0,3.454.3,7.317a17.865,17.865,0,0,1,4.944,3.085l-1,1.833A14.776,14.776,0,0,0,166.1-3.56v.448q0,4.3-4.772,4.3a5.071,5.071,0,0,1-3.56-1.121,3.212,3.212,0,0,1-1.042-2.492,3.274,3.274,0,0,1,1.714-2.9,6.256,6.256,0,0,1,3.388-.883A11.361,11.361,0,0,1,164.162-5.972Zm0,1.793a7.775,7.775,0,0,0-2.241-.382,4.629,4.629,0,0,0-2.755.672,1.671,1.671,0,0,0-.738,1.411,1.709,1.709,0,0,0,.791,1.49,3.724,3.724,0,0,0,2.136.527,2.517,2.517,0,0,0,2.834-2.861Zm.105-12.261.857-1.542a27.176,27.176,0,0,1,6.157,2.887l-.989,1.674A24.622,24.622,0,0,0,164.268-16.44ZM198.281-3.019a6.519,6.519,0,0,1-.527,2.558,3.253,3.253,0,0,1-.844.923q-.989.8-5.59.8a19.7,19.7,0,0,1-3.045-.158A3.03,3.03,0,0,1,186.983.62a2.61,2.61,0,0,1-.765-2.188V-8.477q-.765.237-1.332.448l-.4.145a.434.434,0,0,1-.132.026q-.145,0-.2-.211L183.9-9.1a.3.3,0,0,1-.026-.105q0-.105.185-.145.778-.145,2.162-.541v-1.371a21.3,21.3,0,0,0-.158-3.111,16,16,0,0,1,1.6.145q.316.04.316.211a1.4,1.4,0,0,1-.132.488,8.559,8.559,0,0,0-.132,1.964v1.252l2.742-.817v-1.187a20.85,20.85,0,0,0-.185-3.27,12.1,12.1,0,0,1,1.608.145q.3.04.3.264a2.82,2.82,0,0,1-.105.435,7.757,7.757,0,0,0-.158,2.017v1.16l1.938-.593q1.345-.382,2.426-.765.659-.224.712-.237h.04q.145,0,.145.2l-.053,1.239a32.22,32.22,0,0,1-.62,6.13,1.653,1.653,0,0,1-1.674,1.279q-.237.013-.527.013-.422,0-.923-.04-.237-.026-.29-.105a1.1,1.1,0,0,1-.092-.382,2.771,2.771,0,0,0-.356-1.094,7.019,7.019,0,0,0,1.7.224.777.777,0,0,0,.844-.672,31.485,31.485,0,0,0,.461-4.944l-3.731,1.134v3.639l.053,3.085a.186.186,0,0,1-.211.211h-1.147a.186.186,0,0,1-.211-.211l.053-3.085v-3.2l-2.742.8v6.183a8.442,8.442,0,0,0,.092,1.569.783.783,0,0,0,.343.554,8.079,8.079,0,0,0,3.309.382A25.309,25.309,0,0,0,194.788-.4a2.376,2.376,0,0,0,1.147-.422,2.028,2.028,0,0,0,.672-1.2,13.011,13.011,0,0,0,.2-2.254,2.625,2.625,0,0,0,1.055.541q.435.119.435.488Q198.294-3.164,198.281-3.019ZM184.412-16.466a.2.2,0,0,1-.224.224l-2.993-.066h-2.347q-.053,2.479-.105,3.7h2.676l1.674-.053a.21.21,0,0,1,.237.237q-.026.5-.053,1.5-.04,1.147-.053,1.74a42.576,42.576,0,0,1-.593,7.778A3.9,3.9,0,0,1,181.7.633a2.341,2.341,0,0,1-1.661.554q-.831,0-1.345-.026-.3-.026-.369-.119a1.339,1.339,0,0,1-.092-.448,3.3,3.3,0,0,0-.382-1.187,11.069,11.069,0,0,0,2.03.211,1.032,1.032,0,0,0,1-.567,6.661,6.661,0,0,0,.369-1.569,64.892,64.892,0,0,0,.514-8.648H178.69a35.686,35.686,0,0,1-1.042,7.277A16.81,16.81,0,0,1,175.395,1q-.211.29-.3.29-.119,0-.316-.237A3.484,3.484,0,0,0,173.8.211a15.111,15.111,0,0,0,2.94-7.08,67.38,67.38,0,0,0,.593-9.439l-2.914.066q-.185,0-.185-.224V-17.6a.163.163,0,0,1,.185-.185l3.019.053H179.2v-1.806a13.423,13.423,0,0,0-.2-2.782q1.042.04,1.753.132.356.04.356.237a1.666,1.666,0,0,1-.158.488,6.432,6.432,0,0,0-.171,1.925v1.806h.435l2.966-.053q.224,0,.224.185Zm13.658-.369a.186.186,0,0,1-.211.211l-3.217-.053H186.97a19.963,19.963,0,0,1-2.373,3.4q-.224.277-.369.277-.119,0-.382-.3a2.457,2.457,0,0,0-.791-.567,16.718,16.718,0,0,0,4.034-6.7,8.12,8.12,0,0,0,.343-1.819q1.015.2,1.542.356.3.079.3.3a.64.64,0,0,1-.158.316A3.634,3.634,0,0,0,188.6-20.3q-.5,1.358-.87,2.162h6.908l3.217-.053a.186.186,0,0,1,.211.211Zm19.446,1.806q0,.211-.224.211l-2.808-.053h-.8V-3.2l.053,4.667a.186.186,0,0,1-.211.211h-1.252a.186.186,0,0,1-.211-.211l.053-4.641V-14.871h-.844l-2.834.053a.186.186,0,0,1-.211-.211v-1.107q0-.224.211-.224l2.834.053h.844V-18.6a21.427,21.427,0,0,0-.2-3.48,16.82,16.82,0,0,1,1.74.158q.33.053.33.224a.731.731,0,0,1-.053.237,2.44,2.44,0,0,0-.092.25,11.876,11.876,0,0,0-.158,2.584v2.32h.8l2.808-.053a.2.2,0,0,1,.224.224Zm7.937,1.622q0,.237-.224.237l-2.4-.053H222.7v8.016l.026,4.232A2.261,2.261,0,0,1,221.985,1a5.5,5.5,0,0,1-2.637.409h-.593q-.422,0-.5-.092A1.153,1.153,0,0,1,218.1.844,4.8,4.8,0,0,0,217.674-.3a20.789,20.789,0,0,0,2.426.171q1-.04,1-1.107V-13.223h-.738l-2.4.053a.21.21,0,0,1-.237-.237v-1.081q0-.224.237-.224l2.4.053h2.465l2.4-.053a.2.2,0,0,1,.224.224Zm-17.732-1.9q0,.158-.25.316a2.11,2.11,0,0,0-.62.791,21.532,21.532,0,0,1-1.4,2.241V-1.912l.053,3.48q0,.211-.224.211h-1.239a.186.186,0,0,1-.211-.211l.053-3.48V-6.75q0-.237.079-3.322a27.744,27.744,0,0,1-2.136,2.162q-.211.211-.316.211-.145,0-.277-.29a3.393,3.393,0,0,0-.62-.976,20.078,20.078,0,0,0,4.97-6.157,6.334,6.334,0,0,0,.514-1.318,10.2,10.2,0,0,1,1.318.751Q207.721-15.478,207.721-15.306Zm.079-5.867q0,.185-.25.3a2.28,2.28,0,0,0-.672.646,24.618,24.618,0,0,1-4.772,5,1.114,1.114,0,0,1-.382.211q-.119,0-.33-.382a3.337,3.337,0,0,0-.7-.91,17.656,17.656,0,0,0,4.812-4.812,4.032,4.032,0,0,0,.593-1.213,9.1,9.1,0,0,1,1.424.791Q207.8-21.357,207.8-21.173ZM210.582-11.1a.775.775,0,0,1-.132.356,2.749,2.749,0,0,0-.277,1.055,26.829,26.829,0,0,1-1.7,6.737q-.105.33-.25.33a1.09,1.09,0,0,1-.343-.132,3.22,3.22,0,0,0-1.055-.316A21.876,21.876,0,0,0,208.67-9.69q.053-.659.053-1.226a5.461,5.461,0,0,0-.04-.7,11.94,11.94,0,0,1,1.542.224Q210.582-11.325,210.582-11.1Zm7.792,6.724a.216.216,0,0,0,.013.053v.04q0,.145-.277.264l-.751.264a1.274,1.274,0,0,1-.33.092q-.119,0-.132-.2a40.965,40.965,0,0,0-1.542-7.185.559.559,0,0,1-.026-.132q0-.092.277-.185l.725-.25a.768.768,0,0,1,.185-.04q.105,0,.158.185A44.268,44.268,0,0,1,218.373-4.377Zm6.46-14.634q0,.224-.185.224l-2.109-.053h-1.753l-2.109.053q-.211,0-.211-.224v-1.134a.186.186,0,0,1,.211-.211l2.109.053h1.753l2.109-.053q.185,0,.185.211Zm-7.264.514a.4.4,0,0,1,.04.145q0,.105-.2.237l-.541.343a1.011,1.011,0,0,1-.33.171q-.079,0-.158-.171a12.883,12.883,0,0,0-1.622-2.663.32.32,0,0,1-.079-.158q0-.079.211-.2l.593-.33a.859.859,0,0,1,.237-.079.22.22,0,0,1,.145.079A13.072,13.072,0,0,1,217.569-18.5ZM241.537-13.8l1.384-.527a35.244,35.244,0,0,1,1.991,4.562l-1.45.593A29.166,29.166,0,0,0,241.537-13.8Zm3.059-.91,1.345-.488a22.306,22.306,0,0,1,1.925,4.43l-1.411.567A26.012,26.012,0,0,0,244.6-14.713Zm.751-5.076.053,1.859a10.245,10.245,0,0,0-4.456,1.213,11.444,11.444,0,0,0-3.995,3.784A9.29,9.29,0,0,0,235.38-7.8a5.705,5.705,0,0,0,2.479,4.878A11.9,11.9,0,0,0,243.514-1L243.053.923a11.767,11.767,0,0,1-7-2.663,7.5,7.5,0,0,1-2.531-5.88q0-6.064,5.774-9.69l1.463-.646-.026-.053-1.266.211q-2.294.132-10.916.923l-.158-1.78Q232.255-18.945,245.347-19.789Z"
								transform="translate(0 55.087)" fill="#fb7180" />
							<path id="Контур_1737" data-name="Контур 1737"
								d="M13.935-16.387q-.079,2.927,0,5.854a10.267,10.267,0,0,1,.593,3.428A7.111,7.111,0,0,1,12.01-1.187,14.935,14.935,0,0,1,5.7,1.266L4.562-.356q4.667-.778,6.579-2.663A5.287,5.287,0,0,0,12.7-6.645q-.91,1.7-3.48,1.7A4.252,4.252,0,0,1,6.262-6.051,4.016,4.016,0,0,1,4.97-9.176,3.993,3.993,0,0,1,6.5-12.524a4.762,4.762,0,0,1,3.006-.949,3.864,3.864,0,0,1,2.624.751q-.053-2.531-.053-3.612-4.337.066-10.481.461L1.569-17.6q4.983-.2,10.481-.33v-3.665l1.938.026q0,1.213-.053,3.586,4.482-.053,6.486-.053v1.727Q17.178-16.387,13.935-16.387Zm-4.509,4.43a2.55,2.55,0,0,0-1.9.765,2.726,2.726,0,0,0-.751,2.017,2.386,2.386,0,0,0,.857,1.938,2.484,2.484,0,0,0,1.635.567,2.711,2.711,0,0,0,2.123-.791A2.507,2.507,0,0,0,12-9.229Q12-11.958,9.426-11.958Zm23.48-3.164,1.332-.672a36.078,36.078,0,0,1,2.426,4.377l-1.411.725A24.571,24.571,0,0,0,32.906-15.122Zm2.834-1.266,1.305-.593a21.23,21.23,0,0,1,2.32,4.206l-1.358.712A25.555,25.555,0,0,0,35.741-16.387Zm-2.07-4.944L35.4-20.145q-4.087,4.733-8.451,8.886a1.314,1.314,0,0,0-.514.923q0,.435.725.989A88.131,88.131,0,0,1,36.611-.264l-1.674,1.4a97.506,97.506,0,0,0-9.69-9.769,2.157,2.157,0,0,1-.9-1.622,2.2,2.2,0,0,1,.7-1.6A125.17,125.17,0,0,0,33.671-21.331ZM48.12-6.882l1.846.158a10.525,10.525,0,0,0-.3,2.426,2.033,2.033,0,0,0,.857,1.885,6.108,6.108,0,0,0,2.979.527,50.112,50.112,0,0,0,5.339-.277l.053,1.951q-1.978.158-5.128.158-3.415,0-4.707-.949A3.439,3.439,0,0,1,47.83-3.995,13.923,13.923,0,0,1,48.12-6.882Zm.541-9.018v-1.846q3.375-.264,6.829-.264,1.714,0,3.217.079V-16.1q-1.4-.105-3.4-.105Q51.851-16.2,48.661-15.9Zm-2.914-4.654A70.091,70.091,0,0,0,44.231-7.8,47.885,47.885,0,0,0,44.89.646L42.965.8a55.638,55.638,0,0,1-.62-8.662,77.661,77.661,0,0,1,1.49-12.854Zm38.865,22q0,.2-.237.2H83.149q-.211,0-.211-.2V.211H75.16V1.556q0,.224-.211.224H73.723q-.211,0-.211-.224l.053-4.6V-5.181l-.053-2.979a.186.186,0,0,1,.211-.211l3.217.053h4.245l3.19-.053q.237,0,.237.211L84.56-5.537v2.386ZM82.938-1.187V-6.855H75.16v5.669ZM71.917-3.3a.219.219,0,0,1,.105.171.606.606,0,0,1-.185.316l-.461.62q-.185.264-.3.264a.257.257,0,0,1-.171-.092A30.179,30.179,0,0,0,68.41-4.4,18.733,18.733,0,0,1,63.69.9a.739.739,0,0,1-.33.185q-.132,0-.409-.382a2.306,2.306,0,0,0-.778-.725,15.718,15.718,0,0,0,4.97-5.379q-.976-.7-2.492-1.622l-.4,1.16q-.066.211-.211.211a1.1,1.1,0,0,1-.25-.04l-.672-.224q-.4-.092-.4-.211a.647.647,0,0,1,.04-.158,56.989,56.989,0,0,0,2.544-8.728l-2.7.053q-.2,0-.2-.211v-1.134q0-.224.2-.224l2.729.053H65.6q.316-1.793.567-3.586a8.426,8.426,0,0,0,.092-1.292q0-.409-.04-.817a11.483,11.483,0,0,1,1.753.224q.33.092.33.264a.974.974,0,0,1-.185.409,3.875,3.875,0,0,0-.33,1.16q-.554,3.19-.646,3.639h1.239l2.729-.053q.277,0,.277.237v.053q-.092.435-.158,1.042-.013.092-.026.224-.053.356-.066.475a29.218,29.218,0,0,1-2.03,8.754Q70.677-4.482,71.917-3.3Zm-2.241-11.72H66.841A60.719,60.719,0,0,1,65.114-8.4,29.62,29.62,0,0,1,67.79-6.7,26.035,26.035,0,0,0,69.675-15.016Zm16.664,4.192a.325.325,0,0,1,.053.145q0,.079-.33.25l-.672.356a1.082,1.082,0,0,1-.369.145q-.079,0-.145-.145-.567-1.279-.989-2.109-4.456.7-10.217,1.266a2.491,2.491,0,0,0-1.015.25.708.708,0,0,1-.382.158q-.185,0-.277-.33a10.848,10.848,0,0,1-.343-1.635q.659.04,1.305.04t1.173-.04q1.49-3.428,2.808-7.515a7.051,7.051,0,0,0,.409-1.912,9.851,9.851,0,0,1,1.6.409q.409.171.409.369a.659.659,0,0,1-.237.435,2.964,2.964,0,0,0-.541,1.081q-1.49,4.219-2.769,7,3.955-.382,7.343-.9a32.2,32.2,0,0,0-2.175-3.19.32.32,0,0,1-.079-.158q0-.066.29-.237l.646-.33a.709.709,0,0,1,.237-.079.288.288,0,0,1,.171.105A33.055,33.055,0,0,1,86.339-10.824ZM94.2-14.937a11.163,11.163,0,0,1,5.84-1.608q.382-1.78.646-4.061l1.938.224q-.343,2.149-.7,3.942a6.6,6.6,0,0,1,4.733,2.953,10.349,10.349,0,0,1,1.424,5.708q0,7.317-8.266,8.886L98.982-.541a8.648,8.648,0,0,0,5.669-2.887,6.612,6.612,0,0,0,1.49-4.324,8.936,8.936,0,0,0-1.332-5.168,4.271,4.271,0,0,0-3.27-1.951Q99.708-6.816,97.124-3.164,95.159-.409,92.958-.409A2.884,2.884,0,0,1,90.439-1.78a7.546,7.546,0,0,1-.962-4.192A10.147,10.147,0,0,1,92.694-13.8Q92.1-16.15,91.613-19.38l1.78-.25Q93.735-17.165,94.2-14.937Zm2.927,8.161a45.136,45.136,0,0,0,2.531-8.161,9.011,9.011,0,0,0-5.049,1.7A27.921,27.921,0,0,0,97.124-6.776ZM96.1-4.865a35.734,35.734,0,0,1-2.914-7.014,8.55,8.55,0,0,0-1.951,5.7,6.5,6.5,0,0,0,.593,3.151,1.279,1.279,0,0,0,1.081.738Q94.526-2.294,96.1-4.865Zm19.433-15.359.778-1.542a42.035,42.035,0,0,1,8.4,2.439l-.962,1.674A40.247,40.247,0,0,0,115.528-20.224Zm-.567,3.322q-.633,6.289-.778,8.213l-.277,1.477.62-1a9.5,9.5,0,0,1,3.243-2.452,8.232,8.232,0,0,1,3.428-.751,6.458,6.458,0,0,1,4.641,1.582,5.13,5.13,0,0,1,1.516,3.889,6.166,6.166,0,0,1-.936,3.546A6.5,6.5,0,0,1,124.11-.435,13.112,13.112,0,0,1,120.076.751a35.71,35.71,0,0,1-4.6.435l-.62-1.806q5.432-.092,7.857-1.358a4.926,4.926,0,0,0,2.017-1.714A4.748,4.748,0,0,0,125.3-6.13a3.457,3.457,0,0,0-1.187-2.729A4.136,4.136,0,0,0,121.3-9.8a7.551,7.551,0,0,0-5.7,2.716,7.835,7.835,0,0,0-1.477,2.333l-2-.356q.2-3.876.949-12.076Zm20.158-4.72,1.872.026q-.04,1.134-.132,2.663-.066,1.187-.092,1.925l.817.7a.358.358,0,0,1,.105.264.508.508,0,0,1-.105.3,10.845,10.845,0,0,0-.9,1.727l-.079,1.028-.132,1,.488-1.055a22,22,0,0,1,3.757-4.034,5.279,5.279,0,0,1,3.177-1.2,2.818,2.818,0,0,1,2.6,1.226,5.888,5.888,0,0,1,.646,3.085q0,2.149-.25,5.405-.237,3.454-.237,4.562a3.228,3.228,0,0,0,.3,1.674.871.871,0,0,0,.8.382q1.622,0,2.531-4.43l1.622,1.055a9.729,9.729,0,0,1-1.925,4.3,3.112,3.112,0,0,1-2.36.989,2.583,2.583,0,0,1-2.136-.791,4.7,4.7,0,0,1-.672-2.861q0-2,.185-4.931.211-3.4.211-4.838a7.229,7.229,0,0,0-.29-2.5,1.086,1.086,0,0,0-1.081-.712q-2.716,0-7.291,6.645v11.1H134.7q0-4.509.105-8.609l.264-1.7-.7,1.608q-1.068,2.5-2.5,5.247l-1.516-1.266q1.252-2.175,4.482-8.372.066-1.5.105-3.375-.5.04-3.968.422l-.105-1.608q2.452-.224,4.126-.409.013-.686.066-2.175Q135.105-20.606,135.119-21.621Zm27.659,3.48q-.053-2.268-.053-3.573h1.925v3.494q3.283-.119,6.5-.514v1.674q-2.953.356-6.473.488l.079,3.876q3.731-.171,6.262-.5v1.674q-2.966.33-6.236.448.026.646.119,2.795.053,1.437.092,2.307A19.413,19.413,0,0,1,172.178-1.4L170.833.264a18.352,18.352,0,0,0-5.814-4.337v.29q0,4.759-4.772,4.759a6.307,6.307,0,0,1-3.889-.962,3.279,3.279,0,0,1-1.16-2.769A3.239,3.239,0,0,1,156.74-5.55a6.052,6.052,0,0,1,3.533-.962,16.21,16.21,0,0,1,2.834.2q-.092-1.635-.185-4.68-3.52.092-7.027,0V-12.63q3.27.105,7,.026-.053-.738-.066-2.1-.026-1.279-.053-1.819-4.061.079-7.317-.053v-1.622Q158.717-18.048,162.778-18.141Zm.33,13.605a10.429,10.429,0,0,0-2.65-.356q-3.533,0-3.533,2.136,0,2.057,3.19,2.057,2.993,0,2.993-3.6Zm24.139-11.852q-.079,2.927,0,5.854a10.267,10.267,0,0,1,.593,3.428,7.111,7.111,0,0,1-2.518,5.919,14.935,14.935,0,0,1-6.315,2.452L177.873-.356q4.667-.778,6.579-2.663a5.287,5.287,0,0,0,1.556-3.625q-.91,1.7-3.48,1.7a4.252,4.252,0,0,1-2.953-1.107,4.016,4.016,0,0,1-1.292-3.125,3.993,3.993,0,0,1,1.529-3.349,4.762,4.762,0,0,1,3.006-.949,3.864,3.864,0,0,1,2.624.751q-.053-2.531-.053-3.612-4.337.066-10.481.461L174.88-17.6q4.983-.2,10.481-.33v-3.665l1.938.026q0,1.213-.053,3.586,4.482-.053,6.486-.053v1.727Q190.49-16.387,187.247-16.387Zm-4.509,4.43a2.55,2.55,0,0,0-1.9.765,2.726,2.726,0,0,0-.751,2.017,2.386,2.386,0,0,0,.857,1.938,2.484,2.484,0,0,0,1.635.567,2.711,2.711,0,0,0,2.123-.791,2.507,2.507,0,0,0,.606-1.767Q185.309-11.958,182.738-11.958Zm17.982,6.8a3.694,3.694,0,0,1,2.821,1.239A3.584,3.584,0,0,1,204.53-1.4a3.566,3.566,0,0,1-1.266,2.782,3.734,3.734,0,0,1-2.544.962A3.668,3.668,0,0,1,197.9,1.107a3.568,3.568,0,0,1-.989-2.5,3.58,3.58,0,0,1,1.266-2.795A3.734,3.734,0,0,1,200.72-5.155Zm0,1.345a2.279,2.279,0,0,0-1.78.8,2.3,2.3,0,0,0-.633,1.608,2.3,2.3,0,0,0,.8,1.78A2.322,2.322,0,0,0,200.72,1a2.309,2.309,0,0,0,1.793-.791A2.35,2.35,0,0,0,203.12-1.4a2.327,2.327,0,0,0-.778-1.793A2.338,2.338,0,0,0,200.72-3.81Z"
								transform="translate(0 89.08)" fill="#fb7180" />
						</g>
					</svg>