	<svg xmlns="http://www.w3.org/2000/svg" width="277.675" height="28.603"
						viewBox="0 0 277.675 28.603">
						<path id="Контур_1743" data-name="Контур 1743"
							d="M1.751,2.6H5.119v.569H2.369v8.943H1.751Zm13.632,4.7q0,.086-.091.086l-1.284-.021H11.87V8.933H13.2l1.5-.021A.076.076,0,0,1,14.787,9l-.021.951v.865l.021,1.74a.076.076,0,0,1-.086.086h-.51a.076.076,0,0,1-.086-.086v-.387H9.571v.451a.066.066,0,0,1-.075.075H9q-.086,0-.086-.075l.021-1.762v-.768L8.911,9A.076.076,0,0,1,9,8.912l1.488.021h.736V6.521a8.584,8.584,0,0,0-.064-1.278,6.2,6.2,0,0,1,.7.07q.134.016.134.086a.924.924,0,0,1-.07.22,3.791,3.791,0,0,0-.054.881v.263h2.138l1.284-.021q.091,0,.091.086ZM14.1,11.57V9.519H9.571V11.57Zm1.638-6.794q0,.086-.081.086L14.126,4.84H8.008V6.425a18.274,18.274,0,0,1-.231,3.3,8.9,8.9,0,0,1-1,2.718q-.091.145-.113.145t-.14-.124a1.613,1.613,0,0,0-.44-.317A7.79,7.79,0,0,0,7.127,9.459a17.852,17.852,0,0,0,.209-3.121L7.315,4.3A.076.076,0,0,1,7.4,4.212l1.563.021h2.079V3.686a4.736,4.736,0,0,0-.064-.892,4.978,4.978,0,0,1,.725.054q.134.016.134.086a.427.427,0,0,1-.064.209,1.44,1.44,0,0,0-.059.532v.559h2.412l1.536-.021q.081,0,.081.086Zm11.172.011a.076.076,0,0,1-.086.086l-1.423-.021h-1v1.09h.757l1.37-.021a.076.076,0,0,1,.086.086L26.6,7.542v2.5l.011,1.676a.913.913,0,0,1-.22.693,1.469,1.469,0,0,1-.913.188.365.365,0,0,1-.2-.032.438.438,0,0,1-.059-.167,1.167,1.167,0,0,0-.167-.44q.414.032.65.032.306,0,.306-.387v-1.6h-1.6v.87l.021,1.67q0,.091-.086.091h-.467q-.086,0-.086-.091l.021-1.67v-.87H22.354v.956l.021,1.644a.076.076,0,0,1-.086.086h-.457q-.1,0-.1-.086l.021-1.654V7.488l-.021-1.482q0-.086.1-.086l1.354.021h.623V4.851h-.843l-1.429.021a.076.076,0,0,1-.086-.086v-.44q0-.091.086-.091l1.429.021h.843V4.19a9.176,9.176,0,0,0-.075-1.343,6.355,6.355,0,0,1,.661.064q.118.021.118.091a.6.6,0,0,1-.043.2,3.9,3.9,0,0,0-.064.945v.129h1l1.423-.021q.086,0,.086.091ZM26,9.492V8.224h-1.6V9.492Zm0-1.783V6.479h-1.6v1.23ZM23.81,9.492V8.224H22.354V9.492Zm0-1.783V6.479H22.354v1.23ZM20.926,12.44q0,.086-.091.086h-.451a.076.076,0,0,1-.086-.086v-.4h-1.96v.537q0,.091-.086.091H17.8a.081.081,0,0,1-.091-.091L17.73,11V10.34l-.021-.924a.076.076,0,0,1,.086-.086l1.026.011h.994l1.026-.011a.076.076,0,0,1,.086.086l-.021.768V10.9Zm-.628-.924V9.878h-1.96v1.638Zm1.031-3.11q0,.075-.086.075L20.029,8.46H18.487l-1.208.021q-.086,0-.086-.075V7.988a.076.076,0,0,1,.086-.086l1.208.021h.6V6.742h-.2l-.967.027q-.1,0-.1-.091V6.269q0-.086.1-.086l.967.021h.2V6.038a5.242,5.242,0,0,0-.075-1.021,5.821,5.821,0,0,1,.661.064q.134.016.134.091a.671.671,0,0,1-.07.209,2.149,2.149,0,0,0-.054.6V6.2h.2l.978-.021a.076.076,0,0,1,.086.086v.408q0,.091-.086.091l-.978-.027h-.2V7.923h.349L21.243,7.9a.076.076,0,0,1,.086.086ZM21.372,4.8a1.26,1.26,0,0,0-.285.349q-.086.167-.124.167a.315.315,0,0,1-.14-.086,7.294,7.294,0,0,1-1.364-1.375A8.975,8.975,0,0,1,17.3,6.129a.276.276,0,0,1-.129.075q-.048,0-.113-.145a1.322,1.322,0,0,0-.252-.371,7.252,7.252,0,0,0,2.277-2.4A1.306,1.306,0,0,0,19.2,2.95a3.264,3.264,0,0,1,.612.22q.107.054.107.107t-.091.113l-.043.032A5.7,5.7,0,0,0,21.372,4.8ZM26.42,3.782a.1.1,0,0,1,.021.048q0,.027-.064.086l-.252.2a.212.212,0,0,1-.1.054q-.027,0-.064-.054a5.779,5.779,0,0,0-.816-.859Q25.1,3.218,25.1,3.2q0-.032.064-.081l.22-.161a.228.228,0,0,1,.1-.048.13.13,0,0,1,.07.032A6.324,6.324,0,0,1,26.42,3.782Zm7.428,2.369q0,.07-.086.07L32.409,6.21V7.343l.021,1.273q0,.091-.1.091h-.489q-.086,0-.086-.091l.021-1.273V6.21H30.417a5.666,5.666,0,0,1-.231,1.021,3.948,3.948,0,0,1-1.278,1.719.511.511,0,0,1-.14.086q-.032,0-.167-.129a1.325,1.325,0,0,0-.376-.29,3.15,3.15,0,0,0,1.354-1.6,3.234,3.234,0,0,0,.2-.811l-1.45.011q-.086,0-.086-.07V5.716a.076.076,0,0,1,.086-.086l1.45.021h.07q.043-.661.043-1.123V3.959l-1.235.021a.076.076,0,0,1-.086-.086V3.476a.076.076,0,0,1,.086-.086l1.364.021h2.105l1.364-.021a.076.076,0,0,1,.086.086V3.9a.076.076,0,0,1-.086.086l-.14-.005q-.408-.011-.94-.016V5.651l1.354-.021a.076.076,0,0,1,.086.086Zm-2.068-.5V3.959H30.513v.628q0,.623-.043,1.063Zm6.037,6.639a.076.076,0,0,1-.086.086L36.3,12.354H29.7l-1.429.021a.076.076,0,0,1-.086-.086v-.467a.076.076,0,0,1,.086-.086l1.429.021H32.6v-1.45H31.131l-1.552.021q-.091,0-.091-.086V9.8q0-.1.091-.1l1.552.021H32.6V9.513a6.056,6.056,0,0,0-.075-1.09,6.468,6.468,0,0,1,.725.07q.118.016.118.107a.488.488,0,0,1-.043.188,2.506,2.506,0,0,0-.064.725v.209H35L36.55,9.7q.091,0,.091.1v.446q0,.086-.091.086L35,10.308h-1.74v1.45H36.3l1.434-.021a.076.076,0,0,1,.086.086Zm-.494-9.109a.612.612,0,0,1-.07.215,3.836,3.836,0,0,0-.054.881V6.731l.011,1.187a.74.74,0,0,1-.274.65,2.632,2.632,0,0,1-1.278.188.365.365,0,0,1-.2-.032.557.557,0,0,1-.059-.188,2.311,2.311,0,0,0-.2-.473,8.094,8.094,0,0,0,.859.054.6.6,0,0,0,.419-.107.416.416,0,0,0,.1-.312V4.287A7.128,7.128,0,0,0,36.5,3.025q.285.011.693.054Q37.324,3.095,37.324,3.181Zm-2.234.462a.282.282,0,0,1-.043.15,2.146,2.146,0,0,0-.064.693V5.861L35,6.908q0,.1-.086.1h-.489q-.086,0-.086-.1l.021-1.047V4.486a4.8,4.8,0,0,0-.075-1q.252.011.677.054Q35.089,3.562,35.089,3.643Zm13.9,8.578q0,.1-.086.1L47.357,12.3H43.694l-1.542.021q-.086,0-.086-.1v-.467a.076.076,0,0,1,.086-.086l1.542.021h1.6V9.019h-.838l-1.418.021a.076.076,0,0,1-.086-.086V8.5q0-.091.086-.091l1.418.021h.838V6.1h-1.74a9.7,9.7,0,0,1-.779,1.568q-.1.145-.134.145a.314.314,0,0,1-.14-.064,1.338,1.338,0,0,0-.44-.177,7.85,7.85,0,0,0,.9-1.687A8.329,8.329,0,0,0,43.441,4.3a3.65,3.65,0,0,0,.043-.585,3.828,3.828,0,0,1,.65.177q.134.054.134.118a.262.262,0,0,1-.064.145.816.816,0,0,0-.134.317,10.246,10.246,0,0,1-.312,1.037h1.531V4.368A10.619,10.619,0,0,0,45.2,2.858a5.731,5.731,0,0,1,.725.07q.134.016.134.086a.942.942,0,0,1-.043.2,5.237,5.237,0,0,0-.081,1.133V5.512H47.1l1.407-.021q.091,0,.091.086v.457q0,.086-.091.086L47.1,6.1H45.939V8.434h.827l1.407-.021q.086,0,.086.091v.451a.076.076,0,0,1-.086.086l-1.407-.021h-.827v2.669h1.418l1.542-.021a.076.076,0,0,1,.086.086ZM41.255,3.014a1.92,1.92,0,0,1-.043.2,4.469,4.469,0,0,0-.081,1.133v6.386l.021,1.939a.076.076,0,0,1-.086.086h-.521a.076.076,0,0,1-.086-.086l.021-1.923V4.368a9.226,9.226,0,0,0-.086-1.5,4.764,4.764,0,0,1,.725.054Q41.255,2.944,41.255,3.014ZM40.042,5.42a7.966,7.966,0,0,1-.483,2.256q-.021.048-.059.048a.284.284,0,0,1-.1-.027l-.274-.1q-.145-.048-.145-.091A.248.248,0,0,1,39,7.424a7.234,7.234,0,0,0,.462-2.165q.011-.07.054-.07a.61.61,0,0,1,.113.021l.285.091q.124.032.124.086Zm2.342,1.123a.242.242,0,0,1,.011.048q0,.054-.118.1l-.242.1a.519.519,0,0,1-.134.038q-.048,0-.054-.07a9.685,9.685,0,0,0-.4-1.52.124.124,0,0,1-.016-.048q0-.038.14-.091L41.792,5a.248.248,0,0,1,.086-.021q.048,0,.064.059A11.329,11.329,0,0,1,42.383,6.543Zm15.469,5.393a.171.171,0,0,1,.011.048q0,.038-.107.091l-.258.134a.517.517,0,0,1-.129.054q-.038,0-.054-.086a9.3,9.3,0,0,0-.354-.892q-1.6.322-4.27.714a1.04,1.04,0,0,0-.44.134.259.259,0,0,1-.129.054q-.075,0-.134-.134a5,5,0,0,1-.188-.639,10.484,10.484,0,0,0,1.235-.075q.317-.032,1.536-.2V9.513h-.526l-1.268.021q-.086,0-.086-.075l.021-.838V7.8l-.021-.827a.076.076,0,0,1,.086-.086l1.268.021h.526V5.732q-.865.129-1.649.22-.1.011-.134.011-.107,0-.161-.167a1.042,1.042,0,0,0-.209-.365A16.707,16.707,0,0,0,55.961,4.9a2.416,2.416,0,0,0,.714-.306,2.406,2.406,0,0,1,.446.381.253.253,0,0,1,.091.167q0,.1-.188.1-.027,0-.473.1-.854.183-1.386.274V6.908h.516l1.257-.021q.1,0,.1.086l-.027.827v.822l.027.838q0,.075-.1.075l-1.257-.021h-.516v1.542l1.542-.252q-.2-.354-.3-.5a.157.157,0,0,1-.032-.07q0-.043.124-.1l.231-.113a.244.244,0,0,1,.091-.027q.032,0,.075.064A8.766,8.766,0,0,1,57.852,11.936ZM54.57,9.019V7.4H53.276V9.019Zm1.885,0V7.4H55.167V9.019Zm3.84,1.7a3.772,3.772,0,0,1-.338,1.5.635.635,0,0,1-.575.349q-.473,0-.795-.65a7.535,7.535,0,0,1-.494-1.67A31.764,31.764,0,0,1,57.82,5.3V4.029H51.912v1.88a26.226,26.226,0,0,1-.188,3.62,6.819,6.819,0,0,1-1.176,2.992q-.086.118-.124.118t-.14-.124a1.248,1.248,0,0,0-.408-.306,5.037,5.037,0,0,0,1.23-2.836A27.6,27.6,0,0,0,51.272,5.9l-.021-2.4a.076.076,0,0,1,.086-.086l1.552.021h3.953L58.4,3.412q.091,0,.091.086l-.032,1.542v.3A31.635,31.635,0,0,0,58.679,10q.344,1.815.725,1.815.328,0,.408-1.756a1.289,1.289,0,0,0,.371.338q.124.075.124.161Q60.307,10.571,60.3,10.716ZM71.188,8.643a1.117,1.117,0,0,0-.285.473q-.064.156-.124.156a.419.419,0,0,1-.15-.064,11.794,11.794,0,0,1-2.175-1.66,9.237,9.237,0,0,1-1.348-1.708,11.509,11.509,0,0,1-2.175,2.573q.2.021,1.3.021h1.832l1.321-.021q.091,0,.091.086l-.027,1.123v1.037l.027,1.939q0,.075-.091.075H68.89q-.086,0-.086-.075V12H65.49v.65a.076.076,0,0,1-.086.086H64.91a.076.076,0,0,1-.086-.086l.021-1.95V9.776l-.021-1.268a10.586,10.586,0,0,1-1,.773.533.533,0,0,1-.177.086q-.054,0-.129-.156a1.2,1.2,0,0,0-.312-.381,9.356,9.356,0,0,0,1.987-1.584,9.058,9.058,0,0,0,1.337-1.729,2.339,2.339,0,0,0,.263-.661,4.871,4.871,0,0,1,.661.177q.134.043.134.124a.111.111,0,0,1-.07.1L67.45,5.3A8.753,8.753,0,0,0,71.188,8.643ZM68.8,11.415V9.041H65.49v2.374ZM63.927,3.181a.181.181,0,0,1-.1.15,1.217,1.217,0,0,0-.22.419,17.81,17.81,0,0,1-.725,1.67v5.532l.021,1.729q0,.075-.091.075h-.5q-.086,0-.086-.075l.021-1.729V8.1q0-.5.021-1.584A12.311,12.311,0,0,1,61.247,7.9q-.091.107-.129.107T61,7.886a1.189,1.189,0,0,0-.263-.419,11.329,11.329,0,0,0,2.245-3.894,4.348,4.348,0,0,0,.167-.747,3.455,3.455,0,0,1,.65.231Q63.927,3.111,63.927,3.181Zm6.864,2.052a1.923,1.923,0,0,0-.285.419q-.075.167-.129.167a.439.439,0,0,1-.167-.075A7.882,7.882,0,0,1,68,3.519a.119.119,0,0,1-.027-.054q0-.032.118-.1l.274-.183a.237.237,0,0,1,.107-.054.086.086,0,0,1,.059.038A7.124,7.124,0,0,0,70.791,5.232Zm-4.463-1.67a.163.163,0,0,1-.113.145.948.948,0,0,0-.252.285,7.625,7.625,0,0,1-1.735,1.864.412.412,0,0,1-.167.086q-.054,0-.134-.145a.969.969,0,0,0-.317-.333,6.237,6.237,0,0,0,1.729-1.724,2.89,2.89,0,0,0,.285-.639,3.142,3.142,0,0,1,.612.344Q66.328,3.5,66.328,3.562Zm9.491,2.267q0,.086-.1.086l-1.058-.021H74.6V8.127q.628-.312,1.176-.618-.005.086-.005.177a1.871,1.871,0,0,0,.016.252,1.281,1.281,0,0,1,.011.129q0,.1-.188.193-.843.435-1.01.516v2l.021,1.944q0,.091-.1.091h-.5q-.086,0-.086-.091l.021-1.934v-1.7l-.967.451a1.158,1.158,0,0,0-.365.231q-.086.113-.15.113h-.016q-.07,0-.129-.124a6.126,6.126,0,0,1-.274-.639,5.862,5.862,0,0,0,.967-.3q.752-.312.935-.4V5.893H73a10.931,10.931,0,0,1-.333,1.4q-.064.177-.107.177A.4.4,0,0,1,72.4,7.4a1.05,1.05,0,0,0-.36-.113,11.352,11.352,0,0,0,.548-2.75q.016-.242.016-.414a2.457,2.457,0,0,0-.016-.3,3.2,3.2,0,0,1,.591.1q.145.032.145.118a.316.316,0,0,1-.054.134.711.711,0,0,0-.064.285q-.011.054-.048.43-.027.236-.054.4h.859V4.411A11.056,11.056,0,0,0,73.885,2.9q.247.011.7.059.134.016.134.107a.837.837,0,0,1-.054.188,5,5,0,0,0-.07,1.133v.9h.064l1.058-.021q.1,0,.1.086Zm6.15,1.037a.076.076,0,0,1-.086.086l-1.52-.021H77.247l-1.515.021q-.091,0-.091-.086V6.4q0-.075.091-.075l1.515.021h1.026V4.894h-.65l-1.386.021q-.1,0-.1-.086V4.378q0-.086.1-.086l1.386.021h.65a7.22,7.22,0,0,0-.1-1.407,5.3,5.3,0,0,1,.725.064q.145.021.145.1a.714.714,0,0,1-.054.2,4.091,4.091,0,0,0-.081,1.047h.967l1.407-.021q.091,0,.091.086V4.83q0,.086-.091.086l-1.407-.021h-.967v1.45h1.45l1.52-.021q.086,0,.086.075Zm-.005,1.95q0,.086-.091.086l-1.407-.021v1.515l.021,1.407a.857.857,0,0,1-.306.747,2.705,2.705,0,0,1-1.289.188.383.383,0,0,1-.2-.032.489.489,0,0,1-.07-.188,1.218,1.218,0,0,0-.22-.494q.381.038.806.038.134,0,.269-.005.354-.016.354-.414V8.879H77.349l-1.5.021q-.091,0-.091-.086V8.358q0-.086.091-.086l1.5.021h2.476a5.76,5.76,0,0,0-.075-1.155,4.658,4.658,0,0,1,.7.075q.145.038.145.1a1.132,1.132,0,0,1-.07.188,2.5,2.5,0,0,0-.064.768v.021l1.407-.021q.091,0,.091.086ZM78.316,10.9a.119.119,0,0,1,.027.054q0,.021-.091.1l-.285.252a.3.3,0,0,1-.134.081q-.032,0-.064-.059a6.436,6.436,0,0,0-1.112-1.418q-.038-.043-.038-.059t.1-.107l.258-.2a.209.209,0,0,1,.107-.054.13.13,0,0,1,.064.032A7.8,7.8,0,0,1,78.316,10.9Zm14.932.209a1.694,1.694,0,0,0-.312.462q-.064.145-.107.145a.328.328,0,0,1-.167-.1A9.274,9.274,0,0,1,90.111,8.5q.005,1.676.038,3.137.011.317.021.79.005.215.005.252a.076.076,0,0,1-.086.086h-.521a.076.076,0,0,1-.086-.086q0-.032.011-.58.038-1.687.054-3.545A9.018,9.018,0,0,1,86.458,12a.454.454,0,0,1-.156.086q-.043,0-.145-.129a1.25,1.25,0,0,0-.36-.354,9.188,9.188,0,0,0,3.464-3.572h-.736l-1.477.021q-.086,0-.086-.091V7.51a.076.076,0,0,1,.086-.086l1.477.021h.988V5.684H88.15a7.43,7.43,0,0,1-.516,1.042q-.086.134-.124.134a.492.492,0,0,1-.15-.086,1.083,1.083,0,0,0-.387-.188,7.536,7.536,0,0,0,1.053-2.438,2.756,2.756,0,0,0,.081-.618,5.743,5.743,0,0,1,.58.167q.156.048.156.118a.316.316,0,0,1-.086.167.96.96,0,0,0-.134.328q-.124.478-.242.806h1.133V4.368a10.092,10.092,0,0,0-.075-1.4,5.522,5.522,0,0,1,.7.064q.145.021.145.086a.341.341,0,0,1-.027.118q-.032.086-.038.1a3.847,3.847,0,0,0-.081,1.026v.747h.935l1.332-.021a.076.076,0,0,1,.086.086v.44a.076.076,0,0,1-.086.086l-1.332-.021h-.935V7.445h1.176l1.488-.021a.076.076,0,0,1,.086.086v.451q0,.091-.086.091l-1.488-.021h-.978a8.322,8.322,0,0,0,1.4,1.869A9.646,9.646,0,0,0,93.248,11.108ZM87.232,4.024a.081.081,0,0,1-.091.091l-1.2-.021H85.2a13.072,13.072,0,0,1-.3,1.525h1.123a.491.491,0,0,0,.22-.032.267.267,0,0,1,.124-.043q.086,0,.274.177.22.2.22.317a.287.287,0,0,1-.075.156.824.824,0,0,0-.113.344,11.476,11.476,0,0,1-1.182,3.668,9.254,9.254,0,0,1-1.864,2.283q-.113.107-.156.107t-.161-.145a1.211,1.211,0,0,0-.354-.3,8.111,8.111,0,0,0,2.385-3.1,7.107,7.107,0,0,0-1.01-1.031q-.048-.048-.048-.075a.313.313,0,0,1,.059-.124l.177-.231q.054-.059.086-.059a.144.144,0,0,1,.081.038,7.513,7.513,0,0,1,.9.87,11.007,11.007,0,0,0,.5-2.234H84.724A9.488,9.488,0,0,1,83.569,8.46q-.086.118-.145.118t-.118-.1a1.225,1.225,0,0,0-.333-.333,8,8,0,0,0,1.6-4.055h-.054l-1.2.021q-.081,0-.081-.091v-.44q0-.086.081-.086l1.2.021h1.429l1.2-.021q.091,0,.091.086Zm15.383,8.626a.066.066,0,0,1-.075.075h-.51q-.086,0-.086-.075v-.419H96.051v.462a.066.066,0,0,1-.075.075h-.521q-.086,0-.086-.075l.021-1.568v-.585l-.021-.9a.076.076,0,0,1,.086-.086l1.574.011h.988a7.811,7.811,0,0,0,.419-1.08h-.591L96.411,8.5q-.075,0-.075-.091l.021-.747v-.73l-.021-.741q0-.091.075-.091l1.434.021h2.283l1.434-.021q.075,0,.075.091l-.021.741v.73l.021.747q0,.091-.075.091l-1.434-.021h-1.01a9.175,9.175,0,0,1-.419,1.08h2.267l1.574-.011q.075,0,.075.086l-.011.779V11.1Zm-.671-.988V10.131H96.051v1.531Zm-.967-3.711V6.65H97v1.3Zm2.5-1.144a.076.076,0,0,1-.086.086h-.5a.076.076,0,0,1-.086-.086V5.189H95.192V6.806a.076.076,0,0,1-.086.086h-.494q-.091,0-.091-.086l.021-1.155V5.286l-.021-.58a.076.076,0,0,1,.086-.086l1.531.021h4.63A10.57,10.57,0,0,0,101.5,3.3a1.713,1.713,0,0,0,.145-.451q.392.124.623.22.134.064.134.134a.138.138,0,0,1-.086.129.786.786,0,0,0-.231.29q-.376.661-.628,1.021h.408l1.52-.021a.076.076,0,0,1,.086.086l-.021.516v.43ZM97.007,4.169a.162.162,0,0,1,.016.054q0,.027-.107.075l-.306.145a.378.378,0,0,1-.124.043q-.048,0-.1-.118A4.024,4.024,0,0,0,95.7,3.234a.13.13,0,0,1-.032-.064q0-.032.124-.081l.285-.107a.324.324,0,0,1,.113-.032.1.1,0,0,1,.075.043A6.41,6.41,0,0,1,97.007,4.169Zm2.455-.081a.209.209,0,0,1,.016.059q0,.038-.129.1l-.285.134a.434.434,0,0,1-.118.038q-.043,0-.081-.1a5.347,5.347,0,0,0-.618-1.208.116.116,0,0,1-.027-.059q0-.027.118-.07l.306-.124a.258.258,0,0,1,.075-.016q.038,0,.091.059A5.685,5.685,0,0,1,99.462,4.088Zm15.485,7.691a1.844,1.844,0,0,0-.285.4q-.1.183-.161.183a.772.772,0,0,1-.156-.038,9.745,9.745,0,0,1-4.136-2.181q0,1.149.032,2.009.021.521.021.532a.076.076,0,0,1-.086.086h-.532a.076.076,0,0,1-.086-.086q0-.043.011-.365.038-.961.043-2.154a7.837,7.837,0,0,1-1.9,1.38,12.7,12.7,0,0,1-2.079.833.661.661,0,0,1-.161.038q-.075,0-.161-.172a1.121,1.121,0,0,0-.3-.376,9.319,9.319,0,0,0,4.05-1.934h-2.288l-1.445.021q-.1,0-.1-.086v-.4q0-.086.1-.086l1.445.021h2.814V8.525h-1.638l-1.563.021q-.086,0-.086-.075V8.084q0-.1.086-.1l1.563.021h1.638V7.161h-2.181l-1.515.021q-.1,0-.1-.086V6.7q0-.086.1-.086l1.515.021h.881a3.875,3.875,0,0,0-.462-.945.143.143,0,0,1-.027-.064q0-.038.118-.081l.285-.1a.332.332,0,0,1,.1-.032q.038,0,.075.054a5.739,5.739,0,0,1,.58,1.166H111a8.179,8.179,0,0,0,.408-.806,2.888,2.888,0,0,0,.129-.435q.274.059.585.15.124.043.124.124,0,.059-.1.129a.676.676,0,0,0-.156.231q-.161.3-.365.607h.956l1.531-.021a.076.076,0,0,1,.086.086v.4a.076.076,0,0,1-.086.086l-1.531-.021h-2.353v.849h1.858l1.563-.021q.086,0,.086.1v.387q0,.075-.086.075l-1.563-.021h-1.858v.881h3.024l1.45-.021q.091,0,.091.086v.4q0,.086-.091.086l-1.45-.021h-2.508A10.488,10.488,0,0,0,114.947,11.78Zm-.15-6.569q0,.086-.091.086l-1.45-.021h-6.478l-1.445.021q-.1,0-.1-.086v-.4a.085.085,0,0,1,.1-.1l1.445.021h.381a5.13,5.13,0,0,0-.779-1.166.1.1,0,0,1-.027-.059q0-.038.091-.086l.3-.15a.184.184,0,0,1,.086-.032.087.087,0,0,1,.064.043A6.344,6.344,0,0,1,107.69,4.4a.127.127,0,0,1,.016.054q0,.038-.086.086l-.36.2h1.45V3.911a5.215,5.215,0,0,0-.064-1q.371.016.666.054.113.021.113.1a.346.346,0,0,1-.043.15,2.054,2.054,0,0,0-.064.693v.827h1.176V3.922a4.486,4.486,0,0,0-.075-1q.387.021.682.054.107.021.107.1a.519.519,0,0,1-.043.14,2.4,2.4,0,0,0-.064.693v.827h1.021a8.608,8.608,0,0,0,.618-1.031,1.884,1.884,0,0,0,.172-.521,4.952,4.952,0,0,1,.628.209q.113.038.113.113a.169.169,0,0,1-.086.14.754.754,0,0,0-.188.22q-.285.457-.585.87h.462l1.45-.021q.091,0,.091.1Zm5.269-.913V9.384h.988v.806h-.988V12h-.87V10.19h-3.62V9.427q.5-.569,1.021-1.217t.986-1.313q.47-.666.87-1.329a12.15,12.15,0,0,0,.674-1.27Zm-3.5,5.086H119.2V5.614q-.4.7-.763,1.257t-.685,1q-.325.451-.62.816Zm13.417-3.158q0,.075-.086.075l-1.509-.021h-2.927l-1.509.021q-.086,0-.086-.075l.021-.908V4.335l-.021-.9a.076.076,0,0,1,.086-.086l1.509.021h2.927l1.509-.021a.076.076,0,0,1,.086.086l-.021.9v.983Zm-.671-.532V3.959H124.54V5.694Zm2.422,2.084q0,.086-.091.086l-1.439-.021h-4.345a11.245,11.245,0,0,1-.548,1.166h3.341l1.407-.021q.113,0,.113.086V9.1q-.032.263-.156,1.1a11.513,11.513,0,0,1-.328,1.536,1.2,1.2,0,0,1-1.289.9q-.612,0-1.155-.032a.37.37,0,0,1-.2-.048.5.5,0,0,1-.07-.193,1.435,1.435,0,0,0-.2-.473q.972.1,1.584.1a.679.679,0,0,0,.693-.548A13.4,13.4,0,0,0,129.39,9.6h-4.431a6.681,6.681,0,0,1-.494.688.119.119,0,0,1-.091.054.592.592,0,0,1-.107-.016l-.376-.086q-.161-.054-.161-.086a.148.148,0,0,1,.027-.059,8.9,8.9,0,0,0,1.359-2.256h-1.4l-1.445.021a.076.076,0,0,1-.086-.086V7.29a.076.076,0,0,1,.086-.086l1.445.021h6.488l1.439-.021q.091,0,.091.086Zm11.22-5a6.943,6.943,0,0,0-1.987,2.551,6.339,6.339,0,0,0-.457,2.487,6.194,6.194,0,0,0,.607,2.814,7.259,7.259,0,0,0,1.837,2.224l-.274.317a7.554,7.554,0,0,1-2.31-2.648,6.114,6.114,0,0,1-.575-2.707,6.018,6.018,0,0,1,.757-3.056,7.979,7.979,0,0,1,2.127-2.3Zm1.815.881h4.984V4.4h-4.984ZM144.1,6.006h6.214a7.178,7.178,0,0,1-1.536,4.684,6.585,6.585,0,0,1-3.378,1.783l-.4-.628a5.874,5.874,0,0,0,3.33-1.9A5.433,5.433,0,0,0,149.4,6.742h-5.3Zm13.057-1.891a9.193,9.193,0,0,0-.585-1.3l.564-.22a14.359,14.359,0,0,1,.811,1.858l-.36.145.14.328a8.94,8.94,0,0,1-1.542,5.2,7.784,7.784,0,0,1-3.55,2.336l-.462-.661a6.759,6.759,0,0,0,3.577-2.514,8.05,8.05,0,0,0,1.074-4.437H151.69V4.115Zm.682-1.563.548-.2a9.087,9.087,0,0,1,.784,1.8l-.575.231A10.6,10.6,0,0,0,157.84,2.552Zm6.295,2.438h3.486v.73h-3.486v6.73H163.3V5.721h-3.443v-.73H163.3V3.2h.838Zm-2.17,2.326a13.507,13.507,0,0,1-1.6,4.3l-.736-.4a11.178,11.178,0,0,0,1.531-4.141Zm3.421.075.768-.285a19.459,19.459,0,0,0,1.563,4.023l-.8.43A29.4,29.4,0,0,1,165.387,7.392Zm6.778-.516h-3.378V6.162h6.982v.714h-2.761A18.034,18.034,0,0,1,172.9,8.9a4.1,4.1,0,0,1-.263,1.047,4.891,4.891,0,0,1-2.632,2.53l-.548-.618a4.084,4.084,0,0,0,2.4-2.218A9.188,9.188,0,0,0,172.165,6.876Zm-2.729-3.115h5.709v.725h-5.709Zm12.354,7.326a8.217,8.217,0,0,0,2.857-3.781l.564.736a10.009,10.009,0,0,1-3.787,4.313l-.473-.247V3.551h.838Zm-2.342-7.46q0,3.126-.107,4.512a8.44,8.44,0,0,1-.312,1.848,5.149,5.149,0,0,1-1.606,2.369l-.639-.5a4.078,4.078,0,0,0,1.5-2.186,10.458,10.458,0,0,0,.274-2.261q.054-1.219.054-3.781ZM195.8,8.246q0,.086-.075.086l-1.439-.021h-6.547l-1.445.021a.076.076,0,0,1-.086-.086v-.44a.076.076,0,0,1,.086-.086l1.445.021h2.814V6.683h-1.627l-1.563.021a.076.076,0,0,1-.086-.086V6.183q0-.091.086-.091l1.563.021h1.627a3.536,3.536,0,0,0-.064-.768,4.923,4.923,0,0,1,.693.075q.118.021.118.086a.725.725,0,0,1-.043.167,1.265,1.265,0,0,0-.054.44h1.869l1.563-.021q.075,0,.075.091v.435q0,.086-.075.086l-1.563-.021h-1.869V7.741h3.083l1.439-.021q.075,0,.075.086Zm-.242,1.708q0,.086-.091.086l-1.493-.021h-.661V10.4l.011,1.332a.87.87,0,0,1-.306.757,2.792,2.792,0,0,1-1.289.2.365.365,0,0,1-.2-.032.49.49,0,0,1-.07-.188,1.7,1.7,0,0,0-.231-.473q.483.043,1.031.043.408,0,.408-.451V10.018h-4.63l-1.488.021a.076.076,0,0,1-.086-.086v-.44a.076.076,0,0,1,.086-.086l1.488.021h4.63a4.638,4.638,0,0,0-.086-.956,5.182,5.182,0,0,1,.7.064q.134.021.134.086a.751.751,0,0,1-.064.2,1.033,1.033,0,0,0-.032.322v.285h.661l1.493-.021q.091,0,.091.086Zm.209-5.667q0,.086-.091.086l-1.321-.021h-.822a5.6,5.6,0,0,1,.5.935.132.132,0,0,1,.011.048q0,.043-.118.086l-.365.124a.4.4,0,0,1-.1.021q-.048,0-.081-.091a5.935,5.935,0,0,0-.526-1.123h-.988a4.64,4.64,0,0,1-.6.827q-.118.134-.167.134t-.161-.1a1.258,1.258,0,0,0-.365-.2,4.31,4.31,0,0,0,1.08-1.724,2.105,2.105,0,0,0,.107-.462,5.048,5.048,0,0,1,.65.124q.107.032.107.107a.228.228,0,0,1-.075.145.943.943,0,0,0-.156.252l-.14.349h2.2l1.321-.021q.091,0,.091.086Zm-4.888,0a.076.076,0,0,1-.086.086l-1.155-.021H189.3a5.823,5.823,0,0,1,.451.924.127.127,0,0,1,.016.054q0,.048-.113.081l-.376.124a.414.414,0,0,1-.091.021q-.043,0-.07-.091a6.816,6.816,0,0,0-.462-1.112h-.913a7.257,7.257,0,0,1-1.08,1.332q-.129.113-.167.113t-.156-.124a1.106,1.106,0,0,0-.328-.274A5.97,5.97,0,0,0,187.6,3.267a1.671,1.671,0,0,0,.129-.44q.322.054.628.134.113.038.113.107a.234.234,0,0,1-.091.156.905.905,0,0,0-.172.263l-.156.317h1.6l1.155-.021a.076.076,0,0,1,.086.086Zm-.822,7.283a.144.144,0,0,1,.027.07q0,.032-.075.1l-.338.242a.322.322,0,0,1-.129.07q-.027,0-.07-.059a6.388,6.388,0,0,0-1.166-1.3q-.043-.032-.043-.059t.075-.091l.3-.209a.209.209,0,0,1,.107-.054.137.137,0,0,1,.081.043A6.946,6.946,0,0,1,190.062,11.57Zm6.929-8.787.274-.317a7.554,7.554,0,0,1,2.31,2.648,6.114,6.114,0,0,1,.575,2.707,6.018,6.018,0,0,1-.757,3.056,7.979,7.979,0,0,1-2.127,2.3l-.274-.317a6.943,6.943,0,0,0,1.987-2.551,6.339,6.339,0,0,0,.457-2.487,6.194,6.194,0,0,0-.607-2.814A7.259,7.259,0,0,0,196.99,2.783Zm16.554,3.593.564-.215a14.359,14.359,0,0,1,.811,1.858l-.591.242A11.882,11.882,0,0,0,213.544,6.376Zm1.246-.371.548-.2a9.087,9.087,0,0,1,.784,1.8l-.575.231A10.6,10.6,0,0,0,214.79,6.006Zm.306-2.068.021.757a4.174,4.174,0,0,0-1.815.494,4.662,4.662,0,0,0-1.627,1.542,3.785,3.785,0,0,0-.639,2.089,2.324,2.324,0,0,0,1.01,1.987,4.848,4.848,0,0,0,2.3.784l-.188.784a4.794,4.794,0,0,1-2.852-1.085,3.057,3.057,0,0,1-1.031-2.4,4.485,4.485,0,0,1,2.353-3.948l.6-.263-.011-.021-.516.086q-.935.054-4.447.376l-.064-.725Q209.763,4.282,215.1,3.938Zm6.247.87a17.317,17.317,0,0,1-1.166,5.785,1.649,1.649,0,0,1-1.488,1.166,1.374,1.374,0,0,1-1.262-.833,4.71,4.71,0,0,1-.419-2.191,5.764,5.764,0,0,1,.36-2.057,4.018,4.018,0,0,1,.816-1.354,3.673,3.673,0,0,1,1.348-.886,4.264,4.264,0,0,1,1.547-.29,3.252,3.252,0,0,1,2.793,1.176,5.006,5.006,0,0,1,.757,2.992,4.018,4.018,0,0,1-.881,2.669,4.4,4.4,0,0,1-2.573,1.4l-.381-.661a3.334,3.334,0,0,0,3.013-3.62A3.67,3.67,0,0,0,223,5.512,2.207,2.207,0,0,0,221.343,4.808Zm-.827.086a2.416,2.416,0,0,0-1.015.317,3.5,3.5,0,0,0-.833.73,4.127,4.127,0,0,0-.9,2.814,3.617,3.617,0,0,0,.322,1.67q.258.483.591.483a.644.644,0,0,0,.489-.2,2,2,0,0,0,.349-.6A15.572,15.572,0,0,0,220.516,4.894Zm15.2,5.876a2.656,2.656,0,0,1-.215,1.042,1.325,1.325,0,0,1-.344.376,4.573,4.573,0,0,1-2.277.328,8.027,8.027,0,0,1-1.241-.064,1.234,1.234,0,0,1-.526-.2,1.064,1.064,0,0,1-.312-.892V8.546q-.312.1-.542.183l-.161.059a.177.177,0,0,1-.054.011q-.059,0-.081-.086l-.107-.419a.124.124,0,0,1-.011-.043q0-.043.075-.059.317-.059.881-.22V7.413a8.679,8.679,0,0,0-.064-1.268,6.52,6.52,0,0,1,.65.059q.129.016.129.086a.569.569,0,0,1-.054.2,3.487,3.487,0,0,0-.054.8V7.8l1.117-.333V6.983a8.5,8.5,0,0,0-.075-1.332,4.929,4.929,0,0,1,.655.059q.124.016.124.107a1.15,1.15,0,0,1-.043.177,3.16,3.16,0,0,0-.064.822V7.29l.79-.242q.548-.156.988-.312.269-.091.29-.1h.016q.059,0,.059.081l-.021.5a13.126,13.126,0,0,1-.252,2.5.673.673,0,0,1-.682.521q-.1.005-.215.005-.172,0-.376-.016-.1-.011-.118-.043a.45.45,0,0,1-.038-.156,1.129,1.129,0,0,0-.145-.446,2.86,2.86,0,0,0,.693.091.317.317,0,0,0,.344-.274,12.828,12.828,0,0,0,.188-2.014l-1.52.462V9.336l.021,1.257a.076.076,0,0,1-.086.086h-.467a.076.076,0,0,1-.086-.086l.021-1.257V8.031l-1.117.328v2.519a3.439,3.439,0,0,0,.038.639.319.319,0,0,0,.14.226,3.292,3.292,0,0,0,1.348.156,10.311,10.311,0,0,0,1.359-.059.968.968,0,0,0,.467-.172.826.826,0,0,0,.274-.489,5.3,5.3,0,0,0,.081-.918,1.069,1.069,0,0,0,.43.22q.177.048.177.2Q235.721,10.711,235.716,10.77Zm-5.65-5.479a.081.081,0,0,1-.091.091l-1.219-.027H227.8q-.021,1.01-.043,1.509h1.09l.682-.021a.085.085,0,0,1,.1.1q-.011.2-.021.612-.016.467-.021.709a17.346,17.346,0,0,1-.242,3.169,1.591,1.591,0,0,1-.381.827.954.954,0,0,1-.677.226q-.338,0-.548-.011-.124-.011-.15-.048a.545.545,0,0,1-.038-.183,1.345,1.345,0,0,0-.156-.483,4.509,4.509,0,0,0,.827.086.42.42,0,0,0,.408-.231,2.714,2.714,0,0,0,.15-.639,26.436,26.436,0,0,0,.209-3.523h-1.251a14.538,14.538,0,0,1-.424,2.965,6.849,6.849,0,0,1-.918,1.993q-.086.118-.124.118t-.129-.1a1.419,1.419,0,0,0-.4-.344,6.156,6.156,0,0,0,1.2-2.884,27.451,27.451,0,0,0,.242-3.846l-1.187.027q-.075,0-.075-.091V4.83a.066.066,0,0,1,.075-.075l1.23.021h.72V4.04a5.469,5.469,0,0,0-.081-1.133q.424.016.714.054.145.016.145.1a.679.679,0,0,1-.064.2,2.62,2.62,0,0,0-.07.784v.736h.177l1.208-.021q.091,0,.091.075Zm5.564-.15a.076.076,0,0,1-.086.086l-1.311-.021h-3.126a8.132,8.132,0,0,1-.967,1.386q-.091.113-.15.113t-.156-.124a1,1,0,0,0-.322-.231,6.811,6.811,0,0,0,1.644-2.729,3.308,3.308,0,0,0,.14-.741q.414.081.628.145.124.032.124.124a.261.261,0,0,1-.064.129,1.481,1.481,0,0,0-.209.451q-.2.553-.354.881h2.814l1.311-.021a.076.076,0,0,1,.086.086Zm7.922.736q0,.086-.091.086l-1.144-.021h-.328v4.753l.021,1.9a.076.076,0,0,1-.086.086h-.51a.076.076,0,0,1-.086-.086l.021-1.891V5.941h-.344l-1.155.021a.076.076,0,0,1-.086-.086V5.426q0-.091.086-.091l1.155.021h.344V4.421A8.729,8.729,0,0,0,241.27,3a6.853,6.853,0,0,1,.709.064q.134.021.134.091a.3.3,0,0,1-.021.1.994.994,0,0,0-.038.1,4.838,4.838,0,0,0-.064,1.053v.945h.328l1.144-.021a.081.081,0,0,1,.091.091Zm3.233.661q0,.1-.091.1l-.978-.021h-.054V9.878l.011,1.724a.921.921,0,0,1-.3.806,2.239,2.239,0,0,1-1.074.167h-.242q-.172,0-.2-.038a.47.47,0,0,1-.064-.193,1.954,1.954,0,0,0-.172-.467,8.469,8.469,0,0,0,.988.07q.408-.016.408-.451V6.613h-.3l-.978.021a.085.085,0,0,1-.1-.1V6.1q0-.091.1-.091l.978.021h1l.978-.021a.081.081,0,0,1,.091.091Zm-7.224-.773q0,.064-.1.129a.86.86,0,0,0-.252.322,8.773,8.773,0,0,1-.569.913v4.093l.021,1.418q0,.086-.091.086h-.5a.076.076,0,0,1-.086-.086L238,11.221V9.25q0-.1.032-1.354a11.3,11.3,0,0,1-.87.881q-.086.086-.129.086-.059,0-.113-.118a1.382,1.382,0,0,0-.252-.4,8.18,8.18,0,0,0,2.025-2.508A2.58,2.58,0,0,0,238.9,5.3a4.155,4.155,0,0,1,.537.306Q239.562,5.694,239.562,5.764Zm.032-2.39q0,.075-.1.124a.929.929,0,0,0-.274.263A10.029,10.029,0,0,1,237.273,5.8a.454.454,0,0,1-.156.086q-.048,0-.134-.156a1.359,1.359,0,0,0-.285-.371,7.193,7.193,0,0,0,1.96-1.96A1.643,1.643,0,0,0,238.9,2.9a3.706,3.706,0,0,1,.58.322Q239.594,3.3,239.594,3.374Zm1.133,4.1a.316.316,0,0,1-.054.145,1.12,1.12,0,0,0-.113.43,10.93,10.93,0,0,1-.693,2.745q-.043.134-.1.134a.444.444,0,0,1-.14-.054,1.312,1.312,0,0,0-.43-.129,8.912,8.912,0,0,0,.752-2.7q.021-.269.021-.5a2.225,2.225,0,0,0-.016-.285,4.865,4.865,0,0,1,.628.091Q240.727,7.386,240.727,7.478Zm3.174,2.739a.088.088,0,0,0,.005.021v.016q0,.059-.113.107l-.306.107a.519.519,0,0,1-.134.038q-.048,0-.054-.081a16.689,16.689,0,0,0-.628-2.927.228.228,0,0,1-.011-.054q0-.038.113-.075l.3-.1a.313.313,0,0,1,.075-.016q.043,0,.064.075A18.036,18.036,0,0,1,243.9,10.217Zm2.632-5.962q0,.091-.075.091l-.859-.021h-.714l-.859.021q-.086,0-.086-.091V3.793a.076.076,0,0,1,.086-.086l.859.021h.714l.859-.021q.075,0,.075.086Zm-2.959.209a.163.163,0,0,1,.016.059q0,.043-.081.1l-.22.14a.412.412,0,0,1-.134.07q-.032,0-.064-.07a5.249,5.249,0,0,0-.661-1.085.13.13,0,0,1-.032-.064q0-.032.086-.081l.242-.134a.35.35,0,0,1,.1-.032.089.089,0,0,1,.059.032A5.326,5.326,0,0,1,243.574,4.464Zm14.384,7.4a1.758,1.758,0,0,0-.376.4q-.1.156-.129.156-.043,0-.145-.1a9.615,9.615,0,0,1-2.514-3.045,11.274,11.274,0,0,1-1.015-3.7,10.317,10.317,0,0,1-1.08,1.9v3.851q.838-.236,2-.65a2.874,2.874,0,0,0-.043.43.41.41,0,0,1-.043.2.5.5,0,0,1-.177.091,30.124,30.124,0,0,1-2.965.924.882.882,0,0,0-.414.177.2.2,0,0,1-.124.064q-.064,0-.107-.107-.107-.279-.22-.677a11.32,11.32,0,0,0,1.176-.22l.274-.064V8.251a10.282,10.282,0,0,1-1.509,1.3.334.334,0,0,1-.161.1q-.054,0-.134-.145a1.259,1.259,0,0,0-.328-.349,8.047,8.047,0,0,0,3.18-3.6h-.849l-1.542.021a.076.076,0,0,1-.086-.086V5.023a.076.076,0,0,1,.086-.086l1.542.021h1.278V4.013a4.96,4.96,0,0,0-.081-1.058,5.355,5.355,0,0,1,.725.07q.134.016.134.086a.569.569,0,0,1-.054.2,1.9,1.9,0,0,0-.064.628V4.958H256l1.552-.021q.081,0,.081.086V5.49q0,.086-.081.086L256,5.555h-1.638a10.841,10.841,0,0,0,.65,2.675,15.219,15.219,0,0,0,1.5-1.332,3.152,3.152,0,0,0,.317-.44,3.747,3.747,0,0,1,.5.44.186.186,0,0,1,.064.129q0,.064-.129.124a1.578,1.578,0,0,0-.344.252,19.889,19.889,0,0,1-1.66,1.375A8.607,8.607,0,0,0,257.958,11.86Zm-7.138-8.572a.189.189,0,0,1-.1.145,1.08,1.08,0,0,0-.231.414,16.268,16.268,0,0,1-.8,1.783v5.382l.021,1.692a.076.076,0,0,1-.086.086H249.1a.076.076,0,0,1-.086-.086l.021-1.692V8.294q0-.5.021-1.584A12.444,12.444,0,0,1,248.1,8q-.081.107-.134.107-.038,0-.086-.1a1.44,1.44,0,0,0-.285-.44,11.391,11.391,0,0,0,2.256-3.9,3.661,3.661,0,0,0,.161-.741,3.91,3.91,0,0,1,.671.231Q250.819,3.224,250.819,3.288Zm17.9.623A.081.081,0,0,1,268.63,4L267.2,3.981h-.913a10.544,10.544,0,0,1-.44,1.1h.9l1.257-.027a.076.076,0,0,1,.086.086l-.021,1.294V9.261l.021,1.3a.076.076,0,0,1-.086.086l-1.257-.021H265.3l-1.251.021q-.1,0-.1-.086l.021-1.3v-2.8l-.021-1.316q0-.086.1-.086l1.144.027a7.588,7.588,0,0,0,.414-1.1h-.8L263.4,4a.081.081,0,0,1-.091-.091V3.46q0-.086.091-.086l1.407.021h2.4l1.429-.021q.091,0,.091.086Zm-1.268,6.166v-1.2H264.6v1.2Zm0-3.346V5.63H264.6v1.1Zm0,1.627v-1.1H264.6v1.1Zm-3.84-3.593a.076.076,0,0,1-.086.086l-1.321-.021h-.634V5.963h.4l1.182-.021a.076.076,0,0,1,.086.086l-.021.859v.924l.021.859a.076.076,0,0,1-.086.086l-1.182-.021H261.7a6.773,6.773,0,0,0,1.687,1.891,1.251,1.251,0,0,0-.3.285q-.1.145-.145.145t-.15-.124a7.528,7.528,0,0,1-1.251-1.692q.005,1.278.043,2.551.011.252.027.7.005.2.005.231,0,.081-.086.081h-.51q-.086,0-.086-.081,0-.038.011-.532.038-1.531.054-2.922a7.661,7.661,0,0,1-1.772,2.476.387.387,0,0,1-.134.086q-.038,0-.118-.14a1.017,1.017,0,0,0-.285-.344,6.883,6.883,0,0,0,2.1-2.616h-.2l-1.182.021a.076.076,0,0,1-.086-.086l.021-.859V6.887l-.021-.859a.076.076,0,0,1,.086-.086l1.182.021h.376V4.83H260.3l-1.321.021a.076.076,0,0,1-.086-.086v-.44q0-.081.086-.081l1.321.021h.661V4.056a6.609,6.609,0,0,0-.064-1.117q.4.016.661.054.14.016.14.086a1.371,1.371,0,0,1-.054.188,2.467,2.467,0,0,0-.075.757v.242h.634l1.321-.021q.086,0,.086.081Zm-.978,3.464V6.468h-1.063V8.229Zm-1.67,0V6.468h-1.026V8.229Zm4.313,3.121q0,.07-.1.113-.016.005-.258.167a7.094,7.094,0,0,1-1.869,1.166.818.818,0,0,1-.177.054q-.043,0-.15-.177a.931.931,0,0,0-.29-.317,6.033,6.033,0,0,0,1.971-1.08,2.071,2.071,0,0,0,.317-.376,5.293,5.293,0,0,1,.467.312A.19.19,0,0,1,265.278,11.35Zm3.663.838a1.007,1.007,0,0,0-.274.338q-.1.177-.156.177a.427.427,0,0,1-.177-.064,7,7,0,0,1-1.815-1.3.117.117,0,0,1-.043-.07q0-.038.1-.118l.209-.188a.267.267,0,0,1,.107-.059.122.122,0,0,1,.07.038A5.589,5.589,0,0,0,268.941,12.188Zm7.283-6.139q.016,2.175.1,3.685a5.681,5.681,0,0,1,1.939,1.439l-.532.661a5.253,5.253,0,0,0-1.407-1.284,1.66,1.66,0,0,1-.553,1.386,1.967,1.967,0,0,1-1.294.392q-1.9,0-1.9-1.493a1.244,1.244,0,0,1,.569-1.053,2.115,2.115,0,0,1,1.246-.354,5.375,5.375,0,0,1,1.166.118q-.07-1.472-.091-3.464-1.5.048-3,.032V5.42q1.332.043,2.992-.011V3.385h.784q-.011.661-.011,1.982.688-.038,1.767-.145v.693Q277.208,6,276.225,6.049Zm-.671,4.249a3.363,3.363,0,0,0-1.214-.22,1.363,1.363,0,0,0-.757.2.633.633,0,0,0-.317.559q0,.827,1.187.827a.99.99,0,0,0,.875-.414,1.441,1.441,0,0,0,.226-.843Zm-3.787-6.811a32.46,32.46,0,0,0-.661,5.4,26.093,26.093,0,0,0,.263,3.411l-.768.07q-.252-2.449-.252-3.5a23.982,23.982,0,0,1,.226-2.9q.177-1.386.414-2.546ZM10.549,29.087a3.411,3.411,0,0,1-.167.854.911.911,0,0,1-.269.371,1.821,1.821,0,0,1-1.139.285,3.707,3.707,0,0,1-.951-.1q-.387-.118-.387-.7V27.277H6.778a3.5,3.5,0,0,1-2.771,3.448.515.515,0,0,1-.15.032q-.064,0-.188-.156a1.4,1.4,0,0,0-.354-.338,3.067,3.067,0,0,0,2.809-2.986q-.424.005-.752.016L5.14,27.3a.076.076,0,0,1-.086-.086l.021-1.348V22.84l-.021-1.354A.076.076,0,0,1,5.14,21.4l1.3.021H8.164l1.3-.021a.076.076,0,0,1,.086.086L9.528,22.84v3.024l.021,1.348a.076.076,0,0,1-.086.086l-1.187-.021v2.229a.876.876,0,0,0,.038.312.237.237,0,0,0,.161.118,2.4,2.4,0,0,0,.548.043,1.108,1.108,0,0,0,.65-.156.7.7,0,0,0,.231-.467,5.755,5.755,0,0,0,.054-.773,1.529,1.529,0,0,0,.43.231q.167.054.167.188Q10.554,29.022,10.549,29.087Zm-1.66-2.4V25.445H5.7v1.246Zm0-1.794V23.716H5.7V24.9Zm0-1.729V22.019H5.7v1.149ZM4.657,28.206a1.379,1.379,0,0,0-.333.312q-.1.129-.14.129t-.156-.134a6.217,6.217,0,0,1-1.1-1.67,6.658,6.658,0,0,1-1.67,3.25q-.124.118-.167.118t-.15-.134a1.612,1.612,0,0,0-.354-.3,5.642,5.642,0,0,0,1.826-3.55l.032-.312H1.928l-1.176.021q-.081,0-.081-.086v-.462q0-.086.081-.086l1.176.021H2.5q.048-.677.048-1.7H2.138l-1.08.021a.076.076,0,0,1-.086-.086V23.1a.076.076,0,0,1,.086-.086l1.08.021h.419v-.827a6.776,6.776,0,0,0-.081-1.155q.269.011.693.054.134.021.134.1a1.92,1.92,0,0,1-.043.2,1.975,1.975,0,0,0-.059.494L3.18,23.039h.134l1.08-.021a.076.076,0,0,1,.086.086v.462a.076.076,0,0,1-.086.086l-1.08-.021H3.158q-.011.725-.054,1.7h.252l1.176-.021q.091,0,.091.086v.462q0,.086-.091.086l-1.176-.021H3.072l-.011.054A6.353,6.353,0,0,0,4.657,28.206Zm11.4-1.735a.21.21,0,0,1,.016.07q0,.059-.14.1l-.252.081a.455.455,0,0,1-.107.021q-.048,0-.064-.07-.161-.494-.209-.634l-1.058.107V29.1L14.26,30.7q0,.075-.086.075h-.5q-.086,0-.086-.075L13.61,29.1V26.2l-1.208.091a1.206,1.206,0,0,0-.419.086.332.332,0,0,1-.124.043q-.07,0-.107-.14-.043-.167-.113-.607.349.032.693.032h.134q.392-.51.827-1.144a15.389,15.389,0,0,0-1.622-1.692.115.115,0,0,1-.048-.075q0-.032.086-.124l.188-.231q.07-.081.1-.081t.07.048l.419.408q.408-.634.725-1.246a2.821,2.821,0,0,0,.29-.747q.3.118.612.274.124.059.124.145,0,.059-.1.118a.645.645,0,0,0-.188.231q-.58.961-1.058,1.638.376.376.736.806.408-.655.714-1.176a5.085,5.085,0,0,0,.44-.935,4.556,4.556,0,0,1,.607.306.164.164,0,0,1,.1.134q0,.07-.107.14a2.066,2.066,0,0,0-.387.483q-.908,1.45-1.837,2.686,1.063-.059,1.939-.129a8.486,8.486,0,0,0-.43-.849.132.132,0,0,1-.021-.059q0-.043.129-.1l.2-.075a.29.29,0,0,1,.118-.038q.043,0,.081.059A11.085,11.085,0,0,1,16.054,26.471Zm4.958-3.6q-.021.279-.021.838a36.1,36.1,0,0,1-.354,5.333,2.72,2.72,0,0,1-.478,1.284,1.131,1.131,0,0,1-.9.376,8.533,8.533,0,0,1-1.021-.054.359.359,0,0,1-.209-.059.6.6,0,0,1-.064-.2,1.669,1.669,0,0,0-.177-.494,9.555,9.555,0,0,0,1.429.15.6.6,0,0,0,.542-.4,3.365,3.365,0,0,0,.231-.843,34.819,34.819,0,0,0,.306-5.4H17.085a8.819,8.819,0,0,1-.924,1.429q-.091.124-.156.124t-.161-.113a1.36,1.36,0,0,0-.354-.263,7.87,7.87,0,0,0,1.6-2.8,4.427,4.427,0,0,0,.209-.972,4.732,4.732,0,0,1,.682.177q.156.054.156.134a.308.308,0,0,1-.1.193,1.364,1.364,0,0,0-.279.532q-.113.354-.376.956h2.347l1.187-.021A.085.085,0,0,1,21.012,22.873Zm-2.277,4.367a.174.174,0,0,1,.027.07q0,.043-.113.107l-.306.172a.42.42,0,0,1-.145.07q-.032,0-.064-.064A9.113,9.113,0,0,0,16.8,25.488a.1.1,0,0,1-.038-.064q0-.038.113-.107l.274-.167a.221.221,0,0,1,.1-.048q.027,0,.064.048A8.771,8.771,0,0,1,18.734,27.239Zm-5.774-.011a.517.517,0,0,1-.054.129,1.018,1.018,0,0,0-.081.322,9.252,9.252,0,0,1-.537,2.143q-.043.156-.1.156a.412.412,0,0,1-.167-.086.866.866,0,0,0-.376-.167,8.425,8.425,0,0,0,.6-2.17,2.294,2.294,0,0,0,.027-.344q0-.07-.005-.183a4.455,4.455,0,0,1,.537.086Q12.96,27.148,12.96,27.229Zm3.067,1.944a.177.177,0,0,1,.005.043q0,.081-.134.124l-.263.075a.48.48,0,0,1-.124.027q-.043,0-.064-.081a11.539,11.539,0,0,0-.575-2.111.206.206,0,0,1-.016-.064q0-.059.129-.091l.231-.064a.441.441,0,0,1,.091-.016q.054,0,.1.081A10.8,10.8,0,0,1,16.027,29.173Zm12.021-4.8.564-.215a14.358,14.358,0,0,1,.811,1.858l-.591.242A11.882,11.882,0,0,0,28.048,24.376Zm1.246-.371.548-.2a9.088,9.088,0,0,1,.784,1.8l-.575.231A10.6,10.6,0,0,0,29.294,24.006Zm.306-2.068.021.757a4.174,4.174,0,0,0-1.815.494,4.662,4.662,0,0,0-1.627,1.542,3.785,3.785,0,0,0-.639,2.089,2.324,2.324,0,0,0,1.01,1.987,4.848,4.848,0,0,0,2.3.784l-.188.784a4.794,4.794,0,0,1-2.852-1.085,3.057,3.057,0,0,1-1.031-2.4,4.485,4.485,0,0,1,2.353-3.948l.6-.263-.011-.021-.516.086q-.935.054-4.447.376l-.064-.725Q24.267,22.282,29.6,21.938Zm11.779,2.637a2.267,2.267,0,0,0-.252.4q-.081.145-.134.145a.419.419,0,0,1-.15-.064A7.66,7.66,0,0,1,38.672,23q.021.806.054,1.617.021.559.021.585a.076.076,0,0,1-.086.086H38.2a.076.076,0,0,1-.086-.086q0-.038.016-.344.043-.945.059-1.858a7.624,7.624,0,0,1-1.794,2.03.454.454,0,0,1-.156.086q-.032,0-.15-.156A1.251,1.251,0,0,0,35.8,24.7a7.605,7.605,0,0,0,1.2-.908,6.63,6.63,0,0,0,.865-1.031h-.1l-1.311.027q-.086,0-.086-.091v-.408a.076.076,0,0,1,.086-.086l1.311.021h.365V21.9a4.941,4.941,0,0,0-.081-1,5.115,5.115,0,0,1,.671.07q.113.011.113.1a.369.369,0,0,1-.043.145,2.027,2.027,0,0,0-.07.682v.338h.87l1.311-.021a.076.076,0,0,1,.086.086V22.7q0,.091-.086.091L39.6,22.76h-.639a7.371,7.371,0,0,0,1.155,1.074A8.614,8.614,0,0,0,41.379,24.575Zm-.58,3.147q0,.086-.091.086l-1.482-.021H36.749v.671L36.76,29.7a.807.807,0,0,1-.306.725,2.168,2.168,0,0,1-1.192.22h-.2a.4.4,0,0,1-.209-.032.659.659,0,0,1-.07-.188,1.316,1.316,0,0,0-.2-.44,8,8,0,0,0,.9.054.7.7,0,0,0,.494-.118.6.6,0,0,0,.091-.387V27.787H33.349l-1.493.021q-.091,0-.091-.086v-.44q0-.086.091-.086l1.493.021h5.876l1.482-.021q.091,0,.091.086Zm-4.888-3.771a1.656,1.656,0,0,0-.274.3q-.1.156-.145.156t-.14-.113a7.18,7.18,0,0,1-1.058-1.241q.011.843.048,1.606,0,.027.021.414.005.113.005.15a.076.076,0,0,1-.086.086h-.462a.076.076,0,0,1-.086-.086q0-.038.016-.317.043-.865.059-1.8a8.852,8.852,0,0,1-1.917,2.105.266.266,0,0,1-.14.075q-.064,0-.145-.145a1.029,1.029,0,0,0-.285-.328,8,8,0,0,0,2.213-2.046h-.553l-1.241.021q-.091,0-.091-.086v-.408a.081.081,0,0,1,.091-.091l1.241.021h.773v-.317a4.833,4.833,0,0,0-.081-1.01,4.57,4.57,0,0,1,.671.064q.124.016.124.086a.491.491,0,0,1-.043.167,1.974,1.974,0,0,0-.081.693v.317h.22l1.246-.021q.075,0,.075.091V22.7q0,.086-.075.086l-1.246-.021h-.021A6.234,6.234,0,0,0,35.911,23.952Zm3.787,2.32q0,.075-.091.075l-1.531-.021H34.59l-1.536.021q-.091,0-.091-.075v-.44q0-.086.091-.086l1.536.021h3.486l1.531-.021q.091,0,.091.086Zm1.262,3.593a1.318,1.318,0,0,0-.338.387q-.1.167-.156.167a.412.412,0,0,1-.167-.086,10.1,10.1,0,0,1-2.138-1.783.1.1,0,0,1-.021-.048q0-.038.113-.107l.274-.209a.194.194,0,0,1,.091-.038.13.13,0,0,1,.086.054A7.58,7.58,0,0,0,40.96,29.866Zm-6.268-1.337q0,.081-.124.129a.9.9,0,0,0-.317.263,7.825,7.825,0,0,1-1.772,1.423.561.561,0,0,1-.167.075q-.054,0-.161-.145a1.477,1.477,0,0,0-.376-.3A6.319,6.319,0,0,0,33.569,28.7a2.157,2.157,0,0,0,.43-.569,3.655,3.655,0,0,1,.6.285Q34.692,28.464,34.692,28.528ZM52.057,30.1a.076.076,0,0,1-.086.086l-1.45-.021H44.14l-1.456.021A.076.076,0,0,1,42.6,30.1v-.553a.076.076,0,0,1,.086-.086l1.456.021h.328v-4.6a10.035,10.035,0,0,0-.075-1.456q.457.021.779.07.134.016.134.1a.713.713,0,0,1-.054.2,4.078,4.078,0,0,0-.07,1.031v4.657h2.213V22.411a9.531,9.531,0,0,0-.086-1.439,6.946,6.946,0,0,1,.79.064q.134.016.134.1a.4.4,0,0,1-.021.1q-.027.081-.032.107a4.792,4.792,0,0,0-.07,1.047V24.72h1.66l1.509-.021a.076.076,0,0,1,.086.086v.564a.076.076,0,0,1-.086.086l-1.509-.021h-1.66v4.071h2.412l1.45-.021a.076.076,0,0,1,.086.086Zm2.2-8.771h.822q-.188,5.65-.188,6.811a1.678,1.678,0,0,0,.36,1.241,1.746,1.746,0,0,0,1.214.333,2.529,2.529,0,0,0,1.917-.741,4.3,4.3,0,0,0,.956-2.1l.747.376q-.73,3.2-3.6,3.2a2.512,2.512,0,0,1-1.885-.564,2.437,2.437,0,0,1-.478-1.692q0-.6.048-2.949Q54.232,22.405,54.253,21.331Zm13.847.607.021.757a4.174,4.174,0,0,0-1.815.494,4.662,4.662,0,0,0-1.627,1.542,3.785,3.785,0,0,0-.639,2.089,2.324,2.324,0,0,0,1.01,1.987,4.848,4.848,0,0,0,2.3.784l-.188.784a4.794,4.794,0,0,1-2.852-1.085,3.057,3.057,0,0,1-1.031-2.4,4.485,4.485,0,0,1,2.353-3.948l.6-.263-.011-.021-.516.086q-.935.054-4.447.376l-.064-.725Q62.767,22.282,68.1,21.938ZM71.521,23V21.224h.757v1.735q1.187-.075,2.036-.172V23.5q-.961.1-2.036.161v2.127a6.829,6.829,0,0,1,2.079-.376,2.277,2.277,0,0,1,2.025.918,2.571,2.571,0,0,1,.419,1.488,2.086,2.086,0,0,1-1.021,2.036,4.767,4.767,0,0,1-2.127.365v-.7a3.107,3.107,0,0,0,1.7-.349,1.609,1.609,0,0,0,.607-1.434,1.658,1.658,0,0,0-.473-1.2,1.355,1.355,0,0,0-1.01-.44,6.012,6.012,0,0,0-2.2.419V29.35a1.129,1.129,0,0,1-.215.784.829.829,0,0,1-.618.2,1.775,1.775,0,0,1-.935-.3,1.907,1.907,0,0,1-1.058-1.6q0-1.364,2.068-2.4V23.694q-.639.038-1.912.059v-.7Q70.641,23.05,71.521,23Zm0,3.851a4.021,4.021,0,0,0-1.026.8,1.187,1.187,0,0,0-.306.773.847.847,0,0,0,.263.6,1.483,1.483,0,0,0,.542.36.71.71,0,0,0,.306.081q.22,0,.22-.365Zm3.067-4.431.473-.575A10.082,10.082,0,0,1,77.274,23.6l-.537.607A8.642,8.642,0,0,0,74.588,22.421Zm4.657-.988.763.1a30.056,30.056,0,0,0-.333,3.851,7.865,7.865,0,0,0,.043.913q.4-.945.752-1.649l.5.392a13.64,13.64,0,0,0-.768,1.729,5.259,5.259,0,0,0-.188.661l-.849.011a10.3,10.3,0,0,1-.231-2.213A31.977,31.977,0,0,1,79.245,21.433Zm3.663.043.795-.032q.107,2.046.107,3.738a11.684,11.684,0,0,1-.188,2.39,3.731,3.731,0,0,1-.548,1.294,4.559,4.559,0,0,1-2.771,1.66l-.473-.634a3.756,3.756,0,0,0,2.476-1.332,5.818,5.818,0,0,0,.725-3.411Q83.032,23.667,82.908,21.476Zm6.225,1.133q-.021-.924-.021-1.456H89.9v1.423q1.337-.048,2.648-.209v.682q-1.2.145-2.637.2l.032,1.579q1.52-.07,2.551-.2v.682q-1.208.134-2.541.183.011.263.048,1.139.021.585.038.94a7.909,7.909,0,0,1,2.927,1.864l-.548.677a7.477,7.477,0,0,0-2.369-1.767v.118A1.716,1.716,0,0,1,88.1,30.4a2.57,2.57,0,0,1-1.584-.392,1.336,1.336,0,0,1-.473-1.128,1.319,1.319,0,0,1,.628-1.139,2.466,2.466,0,0,1,1.439-.392,6.6,6.6,0,0,1,1.155.081q-.038-.666-.075-1.907-1.434.038-2.863,0v-.666q1.332.043,2.852.011-.021-.3-.027-.854-.011-.521-.021-.741-1.654.032-2.981-.021v-.661Q87.479,22.647,89.133,22.609Zm.134,5.543a4.249,4.249,0,0,0-1.08-.145q-1.439,0-1.439.87,0,.838,1.3.838,1.219,0,1.219-1.466ZM99.1,23.324q-.032,1.192,0,2.385a4.183,4.183,0,0,1,.242,1.4,2.9,2.9,0,0,1-1.026,2.412,6.084,6.084,0,0,1-2.573,1l-.462-.661a4.977,4.977,0,0,0,2.68-1.085,2.154,2.154,0,0,0,.634-1.477,1.459,1.459,0,0,1-1.418.693,1.732,1.732,0,0,1-1.2-.451,1.8,1.8,0,0,1,.1-2.637,1.94,1.94,0,0,1,1.225-.387,1.574,1.574,0,0,1,1.069.306q-.021-1.031-.021-1.472-1.767.027-4.27.188l-.011-.7q2.03-.081,4.27-.134V21.2l.79.011q0,.494-.021,1.461,1.826-.021,2.643-.021v.7Q100.423,23.324,99.1,23.324Zm-1.837,1.8a1.039,1.039,0,0,0-.773.312,1.111,1.111,0,0,0-.306.822.972.972,0,0,0,.349.79,1.012,1.012,0,0,0,.666.231,1.1,1.1,0,0,0,.865-.322,1.021,1.021,0,0,0,.247-.72Q98.313,25.128,97.265,25.128Zm7.326,2.771a1.5,1.5,0,0,1,1.149.5,1.505,1.505,0,0,1-.113,2.159,1.521,1.521,0,0,1-1.037.392,1.494,1.494,0,0,1-1.149-.5,1.505,1.505,0,0,1,.113-2.159A1.521,1.521,0,0,1,104.591,27.9Zm0,.548a1,1,0,0,0-.983.983.985.985,0,0,0,1.713.655.98.98,0,0,0-.73-1.638Z"
							transform="translate(-0.585 -2.354)" fill="#5a5858" />
					</svg>