	<svg xmlns="http://www.w3.org/2000/svg" width="291.361" height="79.865"
							viewBox="0 0 291.361 79.865">
							<g id="Сгруппировать_377" data-name="Сгруппировать 377"
								transform="translate(-13.235 -7672.859)">
								<path id="Контур_1735" data-name="Контур 1735"
									d="M7.226,6.5q-.041,1.518,0,3.035a5.324,5.324,0,0,1,.308,1.777,3.687,3.687,0,0,1-1.306,3.069,7.744,7.744,0,0,1-3.274,1.271l-.588-.841a6.334,6.334,0,0,0,3.411-1.381,2.741,2.741,0,0,0,.807-1.88,1.856,1.856,0,0,1-1.8.882,2.2,2.2,0,0,1-1.531-.574,2.082,2.082,0,0,1-.67-1.62A2.07,2.07,0,0,1,3.37,8.506a2.469,2.469,0,0,1,1.559-.492,2,2,0,0,1,1.36.39Q6.262,7.091,6.262,6.53,4.013,6.564.827,6.77l-.014-.9Q3.4,5.771,6.248,5.7V3.8l1,.014q0,.629-.027,1.859,2.324-.027,3.363-.027v.9Q8.907,6.5,7.226,6.5ZM4.888,8.8a1.322,1.322,0,0,0-.984.4,1.413,1.413,0,0,0-.39,1.046,1.237,1.237,0,0,0,.444,1,1.288,1.288,0,0,0,.848.294,1.405,1.405,0,0,0,1.1-.41,1.3,1.3,0,0,0,.314-.916Q6.221,8.8,4.888,8.8Zm14.205-.957.718-.273a18.274,18.274,0,0,1,1.032,2.365l-.752.308A15.123,15.123,0,0,0,19.093,7.843Zm1.586-.472.7-.253a11.566,11.566,0,0,1,1,2.3l-.731.294A13.488,13.488,0,0,0,20.679,7.371Zm.39-2.632L21.1,5.7a5.312,5.312,0,0,0-2.311.629,5.934,5.934,0,0,0-2.071,1.962,4.817,4.817,0,0,0-.813,2.659,2.958,2.958,0,0,0,1.285,2.529,6.17,6.17,0,0,0,2.933,1l-.239,1a6.1,6.1,0,0,1-3.63-1.381,3.89,3.89,0,0,1-1.312-3.049,5.709,5.709,0,0,1,2.994-5.024l.759-.335-.014-.027-.656.109q-1.189.068-5.66.479l-.082-.923Q14.28,5.177,21.068,4.739Zm5.906,6.692.957.082a5.458,5.458,0,0,0-.157,1.258,1.054,1.054,0,0,0,.444.978,3.167,3.167,0,0,0,1.545.273,25.984,25.984,0,0,0,2.769-.144l.027,1.012q-1.025.082-2.659.082a4.349,4.349,0,0,1-2.44-.492,1.783,1.783,0,0,1-.636-1.552A7.219,7.219,0,0,1,26.975,11.432Zm.28-4.676V5.8Q29,5.662,30.8,5.662q.889,0,1.668.041v.95Q31.739,6.6,30.7,6.6,28.909,6.6,27.255,6.756ZM25.744,4.343a36.343,36.343,0,0,0-.786,6.61,24.829,24.829,0,0,0,.342,4.382l-1,.082a28.849,28.849,0,0,1-.321-4.491,40.268,40.268,0,0,1,.772-6.665ZM40.523,11.89a3.631,3.631,0,0,1-.232,1.319,3.171,3.171,0,0,1-.643,1.039,2.871,2.871,0,0,1-.978.68,3.1,3.1,0,0,1-1.23.243,2.713,2.713,0,0,1-2.314-1.193,4.246,4.246,0,0,1-.619-1.412,7.648,7.648,0,0,1-.212-1.88,8.834,8.834,0,0,1,.284-2.321,5.638,5.638,0,0,1,.807-1.784,3.719,3.719,0,0,1,1.261-1.145,3.379,3.379,0,0,1,1.647-.4,3.968,3.968,0,0,1,1.627.28v1.06a3.455,3.455,0,0,0-1.6-.39,2.384,2.384,0,0,0-1.183.294,2.716,2.716,0,0,0-.9.831,4.051,4.051,0,0,0-.578,1.3,6.572,6.572,0,0,0-.2,1.688h.027a2.354,2.354,0,0,1,2.235-1.224,2.942,2.942,0,0,1,1.159.219,2.5,2.5,0,0,1,.882.619,2.785,2.785,0,0,1,.564.954A3.63,3.63,0,0,1,40.523,11.89Zm-1.148.144a3.051,3.051,0,0,0-.13-.923,2,2,0,0,0-.373-.7,1.606,1.606,0,0,0-.6-.441,2.013,2.013,0,0,0-.807-.154,1.888,1.888,0,0,0-.772.157,1.924,1.924,0,0,0-.615.427,2,2,0,0,0-.554,1.391,3.041,3.041,0,0,0,.144.947,2.446,2.446,0,0,0,.4.769,1.918,1.918,0,0,0,.619.516,1.69,1.69,0,0,0,.8.188,1.824,1.824,0,0,0,.772-.161,1.723,1.723,0,0,0,.595-.448,2.073,2.073,0,0,0,.383-.687A2.723,2.723,0,0,0,39.375,12.033Zm8.682-1.976a9.63,9.63,0,0,1-.222,2.181,5.081,5.081,0,0,1-.643,1.6,2.892,2.892,0,0,1-1.032.991,2.826,2.826,0,0,1-1.391.338,2.639,2.639,0,0,1-1.316-.325,2.758,2.758,0,0,1-.974-.947,4.8,4.8,0,0,1-.6-1.528,9.447,9.447,0,0,1-.205-2.075,10.694,10.694,0,0,1,.215-2.27,5.191,5.191,0,0,1,.632-1.651,2.814,2.814,0,0,1,1.036-1,2.908,2.908,0,0,1,1.418-.338Q48.057,5.033,48.057,10.058Zm-1.148.109q0-4.184-1.989-4.184-2.1,0-2.1,4.259,0,3.972,2.058,3.972Q46.908,14.214,46.908,10.167Zm8.7-.109a9.63,9.63,0,0,1-.222,2.181,5.081,5.081,0,0,1-.643,1.6,2.892,2.892,0,0,1-1.032.991,2.826,2.826,0,0,1-1.391.338A2.639,2.639,0,0,1,51,14.846a2.758,2.758,0,0,1-.974-.947,4.8,4.8,0,0,1-.6-1.528,9.447,9.447,0,0,1-.205-2.075,10.694,10.694,0,0,1,.215-2.27,5.191,5.191,0,0,1,.632-1.651,2.814,2.814,0,0,1,1.036-1,2.908,2.908,0,0,1,1.418-.338Q55.6,5.033,55.6,10.058Zm-1.148.109q0-4.184-1.989-4.184-2.1,0-2.1,4.259,0,3.972,2.058,3.972Q54.455,14.214,54.455,10.167Zm13.788,5.7q0,.116-.109.116h-.69q-.109,0-.109-.116v-.711H61.722v.8q0,.1-.109.1h-.677q-.109,0-.109-.1l.027-2.44V11.4A27.786,27.786,0,0,1,57.8,12.942.769.769,0,0,1,57.6,13q-.068,0-.191-.212a1.431,1.431,0,0,0-.4-.479,18.824,18.824,0,0,0,5.318-2.885A10.386,10.386,0,0,0,60.5,7.945q-.075-.055-.075-.082t.089-.13l.308-.273q.089-.1.144-.1a.266.266,0,0,1,.1.034,13.328,13.328,0,0,1,1.928,1.47,20.978,20.978,0,0,0,2.775-3.049H61.64a15.085,15.085,0,0,1-3.527,2.844.714.714,0,0,1-.212.1q-.068,0-.2-.212a1.347,1.347,0,0,0-.417-.4,12.947,12.947,0,0,0,4.594-3.992,2.9,2.9,0,0,0,.431-.813,7.384,7.384,0,0,1,.854.294q.123.062.123.157,0,.075-.157.178a1.579,1.579,0,0,0-.376.424q-.239.349-.5.67h3.664a.981.981,0,0,0,.335-.041.656.656,0,0,1,.171-.041.7.7,0,0,1,.4.239q.28.26.28.39t-.171.212a1.722,1.722,0,0,0-.417.424A20.321,20.321,0,0,1,62,10.659h4.225l1.907-.027q.109,0,.109.1l-.027,1.613v1.148Zm-.909-1.47V11.4H61.722V14.4Zm16.215.451a2.845,2.845,0,0,0-.492.581q-.1.171-.15.171t-.185-.123a21.1,21.1,0,0,1-2.871-3.432,9.116,9.116,0,0,1-1.982,2.105,15.856,15.856,0,0,1-2.885,1.675.774.774,0,0,1-.212.068q-.082,0-.2-.212a1.636,1.636,0,0,0-.458-.485A14.081,14.081,0,0,0,77.54,13.3,8.387,8.387,0,0,0,79.3,11.377,11.011,11.011,0,0,0,80.9,6.168q.062-.731.062-1.2a5.151,5.151,0,0,0-.048-.738q.533.041.964.116.185.041.185.15a1.909,1.909,0,0,1-.1.294,7.2,7.2,0,0,0-.185,1.347,12.7,12.7,0,0,1-1.442,5.12A14.031,14.031,0,0,0,83.549,14.85ZM77.431,11a1.236,1.236,0,0,1,.021.171q0,.109-.239.246a41.113,41.113,0,0,1-5.127,2.242,1.809,1.809,0,0,0-.492.239.236.236,0,0,1-.164.082q-.1,0-.157-.144a7.28,7.28,0,0,1-.308-.868,9.023,9.023,0,0,0,1.135-.294q.226-.068.67-.239L72.7,6.291a12.954,12.954,0,0,0-.109-1.914,7.736,7.736,0,0,1,.943.082q.185.021.185.13a.846.846,0,0,1-.082.26,3.358,3.358,0,0,0-.089,1.019q0,.185.007.41l.068,5.852a36.512,36.512,0,0,0,3.808-1.716,1.848,1.848,0,0,0-.021.287A2.126,2.126,0,0,0,77.431,11Zm1.08-3a.133.133,0,0,1,.027.068q0,.055-.123.144l-.4.28a.4.4,0,0,1-.178.082q-.041,0-.1-.082A13.407,13.407,0,0,0,75.667,5.9a.112.112,0,0,1-.041-.068q0-.041.123-.13l.383-.267a.248.248,0,0,1,.13-.062.133.133,0,0,1,.089.048A14.167,14.167,0,0,1,78.511,8Zm18.662,7.089a.1.1,0,0,1-.109.109l-1.853-.027H87.165l-1.853.027a.1.1,0,0,1-.109-.109v-.718a.1.1,0,0,1,.109-.109l1.853.027H90.33V5.724a16.009,16.009,0,0,0-.089-2.017,8.173,8.173,0,0,1,.984.082q.185.027.185.123a.828.828,0,0,1-.075.267,5.587,5.587,0,0,0-.1,1.36V8.185h2.782l1.846-.027q.116,0,.116.109v.718q0,.109-.116.109l-1.846-.027H91.239v5.223h3.972l1.853-.027a.1.1,0,0,1,.109.109Zm7.4-9.242a22.039,22.039,0,0,1-1.483,7.362,2.1,2.1,0,0,1-1.894,1.483,1.749,1.749,0,0,1-1.606-1.06,6,6,0,0,1-.533-2.789,7.336,7.336,0,0,1,.458-2.618A5.114,5.114,0,0,1,100.557,6.5a4.675,4.675,0,0,1,1.716-1.128,5.426,5.426,0,0,1,1.969-.369A4.139,4.139,0,0,1,107.8,6.5a6.371,6.371,0,0,1,.964,3.808,5.114,5.114,0,0,1-1.121,3.4,5.6,5.6,0,0,1-3.274,1.784l-.485-.841a4.243,4.243,0,0,0,3.835-4.607,4.671,4.671,0,0,0-1.032-3.3A2.809,2.809,0,0,0,104.576,5.847Zm-1.053.109a3.075,3.075,0,0,0-1.292.4,4.459,4.459,0,0,0-1.06.93,5.252,5.252,0,0,0-1.148,3.582,4.6,4.6,0,0,0,.41,2.126q.328.615.752.615a.82.82,0,0,0,.622-.26,2.544,2.544,0,0,0,.444-.759A19.819,19.819,0,0,0,103.523,5.956Zm9.461,1.121V3.83h1.066V6.838l5.359-1.217.588.752a17.488,17.488,0,0,1-2.967,5.284l-.882-.561a12.915,12.915,0,0,0,2.536-4.327l-4.635,1.046V12.86q0,.943.485,1.189a4.62,4.62,0,0,0,1.723.205q1.545,0,3.247-.164v1.032q-1.49.1-3.466.1a3.85,3.85,0,0,1-2.55-.588,2.375,2.375,0,0,1-.506-1.75V8.055l-2.379.533-.28-.909Zm9.748-2.687h6.344v.937h-6.344Zm-.854,2.98h7.909q-.157,4-1.955,5.961a8.381,8.381,0,0,1-4.3,2.27l-.506-.8a7.477,7.477,0,0,0,4.238-2.413,6.915,6.915,0,0,0,1.36-4.081h-6.747Zm11.539,2.687v2.994q0,1,.6,1.107a11.356,11.356,0,0,0,2.044.144q1.408,0,3.1-.171v1.053q-1.859.1-3.37.1a10.778,10.778,0,0,1-2.44-.2q-1-.219-1-1.709v-9.1h1.066V9.08a15.118,15.118,0,0,0,4.368-2.871l.711.854A18.045,18.045,0,0,1,133.417,10.058Zm5.53-7.226a1.5,1.5,0,0,1,1.162.52,1.514,1.514,0,0,1,.4,1.053,1.569,1.569,0,0,1-3.138,0,1.57,1.57,0,0,1,1.572-1.572Zm0,.6a.926.926,0,0,0-.725.314.947.947,0,0,0-.246.656.918.918,0,0,0,.314.718.947.947,0,0,0,.656.246.918.918,0,0,0,.718-.314.938.938,0,0,0,.246-.649.926.926,0,0,0-.314-.725A.938.938,0,0,0,138.947,3.434Zm7.9,7.561a12.594,12.594,0,0,1-5,4.423l-.615-.807a12.291,12.291,0,0,0,4.573-3.931,14.161,14.161,0,0,0,2.051-5.045h-5.879V4.7h7.26a18.785,18.785,0,0,1-1.846,5.359,31.446,31.446,0,0,1,3.261,4.7l-1.032.656A25.126,25.126,0,0,0,146.85,10.994Zm8.039-2.085v6.651h-1.08V3.816h1.08V7.877a21.8,21.8,0,0,1,5.332,2.222l-.533,1.012A17.7,17.7,0,0,0,154.889,8.909Zm19.558,5.626a1.86,1.86,0,0,0-.451.479q-.089.171-.164.171a.433.433,0,0,1-.2-.1,10.65,10.65,0,0,1-2.331-2.01,8.641,8.641,0,0,1-1.278-2.112q.055,2.939.055,3.657a1.138,1.138,0,0,1-.362.991,2.854,2.854,0,0,1-1.415.239.548.548,0,0,1-.28-.041.547.547,0,0,1-.089-.239,1.56,1.56,0,0,0-.246-.588,8.256,8.256,0,0,0,.923.055.82.82,0,0,0,.554-.123.62.62,0,0,0,.1-.424V12.888q-1.244.807-2.769,1.62a1.943,1.943,0,0,0-.506.314q-.089.109-.157.109t-.123-.123q-.144-.253-.362-.745a4.57,4.57,0,0,0,.807-.294,26.732,26.732,0,0,0,3.11-1.7V10.03h-1.3l-1.935.027q-.1,0-.1-.109V9.4q0-.109.1-.109l1.935.027h1.3V8.062h-.8l-1.764.027q-.109,0-.109-.116V7.46q0-.116.109-.116l1.764.027h.8v-1.2h-.991l-1.88.027q-.109,0-.109-.1V5.546a.1.1,0,0,1,.109-.109l1.88.027h2.085a12.2,12.2,0,0,0,.752-1.429,2.654,2.654,0,0,0,.185-.588,5.368,5.368,0,0,1,.725.212q.171.048.171.15,0,.075-.137.185a.677.677,0,0,0-.2.267,12.632,12.632,0,0,1-.7,1.2h.465l1.846-.027q.13,0,.13.109V6.1q0,.1-.13.1l-1.846-.027h-1.565v1.2h1.176l1.75-.027q.109,0,.109.116v.513q0,.116-.109.116l-1.75-.027h-1.176V9.319h1.941l1.935-.027a.1.1,0,0,1,.109.109v.547a.1.1,0,0,1-.109.109l-1.935-.027h-1.8a9.615,9.615,0,0,0,1.189,2.03,11.044,11.044,0,0,0,1.121-1.053,1.977,1.977,0,0,0,.335-.485,4.885,4.885,0,0,1,.574.444.258.258,0,0,1,.116.185q0,.109-.137.15a1.1,1.1,0,0,0-.424.294,13.719,13.719,0,0,1-1.135,1A10.167,10.167,0,0,0,174.446,14.535ZM165.9,6.92q0,.116-.109.116l-1.258-.027h-.089a9.323,9.323,0,0,0,1.442,3.035,1.831,1.831,0,0,0-.349.533q-.068.15-.123.15t-.13-.15a12.545,12.545,0,0,1-.964-2.673q.007,2.755.082,5.79.014.759.041,1.7.014.465.014.506a.085.085,0,0,1-.1.1h-.67q-.116,0-.116-.1s.009-.406.027-1.2q.1-3.541.116-6.6a15.75,15.75,0,0,1-1.641,4.437q-.089.157-.137.157-.075,0-.116-.137a1.211,1.211,0,0,0-.362-.547,15.308,15.308,0,0,0,2.058-5h-.308l-1.271.027a.1.1,0,0,1-.116-.116V6.373q0-.123.116-.123l1.271.027h.417v-1.2a8.8,8.8,0,0,0-.109-1.668,6.609,6.609,0,0,1,.882.089q.171.021.171.123a.676.676,0,0,1-.082.253,4.859,4.859,0,0,0-.075,1.189V6.277h.116l1.258-.027q.109,0,.109.123Zm2.146,4.819q.048.048.048.075t-.1.137l-.294.273q-.116.123-.164.123-.027,0-.068-.062A6.8,6.8,0,0,0,166.3,10.98q-.055-.041-.055-.068t.109-.137l.239-.226q.109-.1.15-.1t.068.048A6.8,6.8,0,0,1,168.048,11.739Zm.725-6.918a.168.168,0,0,1,.014.062q0,.048-.1.109l-.41.219a.441.441,0,0,1-.164.075q-.041,0-.075-.089a4.652,4.652,0,0,0-.786-1.258.112.112,0,0,1-.041-.068q0-.041.144-.116l.362-.178a.368.368,0,0,1,.123-.041.146.146,0,0,1,.1.068A6.6,6.6,0,0,1,168.772,4.821Zm10.568,2.618A41.522,41.522,0,0,1,176.7,15.28l-.923-.362a37.253,37.253,0,0,0,2.563-7.41q-.848.062-2.577.226l-.055-.882q.513-.034,1.518-.1l1.313-.089q.26-1.183.533-2.782l.991.137q-.308,1.6-.533,2.591.786-.055,1.429-.055a1.428,1.428,0,0,1,1.278.567,3.662,3.662,0,0,1,.4,1.982,19.506,19.506,0,0,1-.437,4.97,1.777,1.777,0,0,1-.636,1,1.828,1.828,0,0,1-1.073.28,9.249,9.249,0,0,1-1.422-.109l-.171-.978a6.216,6.216,0,0,0,1.244.164,1.47,1.47,0,0,0,.745-.144.9.9,0,0,0,.335-.485,16.429,16.429,0,0,0,.444-4.566,3.52,3.52,0,0,0-.219-1.538.713.713,0,0,0-.677-.321Q180.127,7.385,179.341,7.439Zm4.108-3.992.711-.28A19.251,19.251,0,0,1,185.2,5.539l-.759.308A14.765,14.765,0,0,0,183.449,3.447Zm1.5-.472.7-.253a11.327,11.327,0,0,1,.991,2.3l-.725.294A13.487,13.487,0,0,0,184.946,2.976Zm-2.311,2.844.882-.451a16.879,16.879,0,0,1,2.406,4.833l-.978.458A14.513,14.513,0,0,0,182.636,5.819Zm14.595,6.59a.1.1,0,0,1-.109.109l-1.853-.027h-3.227l-1.839.027a.1.1,0,0,1-.109-.109l.027-.978v-.889l-.027-.978a.1.1,0,0,1,.109-.109l1.839.027h3.227l1.853-.027a.1.1,0,0,1,.109.109l-.027.978v.889Zm-.854-.6V10.181h-5.428v1.627ZM200.088,9a1.973,1.973,0,0,0-.362.5q-.116.212-.185.212a.711.711,0,0,1-.205-.068,15.148,15.148,0,0,1-3.589-2.16,9.005,9.005,0,0,1-2.153-2.652,11.885,11.885,0,0,1-2.406,2.851,15.832,15.832,0,0,1-3.206,2.037.774.774,0,0,1-.212.068q-.068,0-.2-.226a1.452,1.452,0,0,0-.362-.424,14.34,14.34,0,0,0,3.179-1.832,10.19,10.19,0,0,0-1.6-1.4q-.062-.041-.062-.068t.075-.109l.342-.308q.075-.075.109-.075a.15.15,0,0,1,.082.034A12.723,12.723,0,0,1,191,6.8a10.592,10.592,0,0,0,1.791-2.14h-2.017l-1.442.027q-.123,0-.123-.109V4.035q0-.109.123-.109l1.442.027h1.935l1.135-.027q.109,0,.178.157a6.637,6.637,0,0,0,.52.957,8.083,8.083,0,0,0,.6.813,9.042,9.042,0,0,0,1.135-1.189,2.832,2.832,0,0,0,.335-.54,4.358,4.358,0,0,1,.69.431.236.236,0,0,1,.109.164q0,.089-.137.157a1.227,1.227,0,0,0-.437.349,14.323,14.323,0,0,1-1.2,1.148,12.549,12.549,0,0,0,1.046.882,14.739,14.739,0,0,0,1.347-1.306,3.344,3.344,0,0,0,.376-.54,5.306,5.306,0,0,1,.67.431q.13.109.13.164v.021a.253.253,0,0,1-.185.164,1.176,1.176,0,0,0-.417.308,14.73,14.73,0,0,1-1.312,1.162A14.409,14.409,0,0,0,200.088,9Zm-.335,6.433a.1.1,0,0,1-.109.109L197.8,15.52h-8.258l-1.832.027q-.116,0-.116-.109v-.595q0-.109.116-.109l1.832.027h5.038q.362-.595.677-1.217a3.483,3.483,0,0,0,.267-.786,6.731,6.731,0,0,1,.813.321.172.172,0,0,1,.123.157q0,.068-.123.164a1.064,1.064,0,0,0-.287.383q-.5.848-.588.978H197.8l1.839-.027a.1.1,0,0,1,.109.109Zm-3.931-7.089q0,.109-.1.109l-1.4-.027h-1.442l-1.381.027q-.116,0-.116-.109V7.8q0-.109.116-.109l1.381.027h1.442l1.4-.027q.1,0,.1.109Zm-3.35,5.838a.336.336,0,0,1,.021.082q0,.048-.157.13l-.369.185a.6.6,0,0,1-.171.055q-.048,0-.082-.089a5.968,5.968,0,0,0-.67-1.326.188.188,0,0,1-.034-.075q0-.041.15-.109l.362-.164a.383.383,0,0,1,.144-.055q.034,0,.1.082A7.462,7.462,0,0,1,192.473,14.187Zm21.841.28a1.981,1.981,0,0,0-.41.52q-.1.185-.15.185a.434.434,0,0,1-.185-.109,9.069,9.069,0,0,1-3.117-4.806v.95q0,1.142.027,2.434.027.875.027,1.183a2.079,2.079,0,0,1-.075.649.727.727,0,0,1-.287.355,2.839,2.839,0,0,1-1.374.239.507.507,0,0,1-.267-.041.769.769,0,0,1-.082-.239,1.6,1.6,0,0,0-.28-.6,7.663,7.663,0,0,0,.909.055.852.852,0,0,0,.561-.123.567.567,0,0,0,.109-.41V12.771a18.14,18.14,0,0,1-2.229,1.586,1.4,1.4,0,0,0-.444.335.173.173,0,0,1-.144.1.172.172,0,0,1-.15-.082,6.217,6.217,0,0,1-.424-.684,5.5,5.5,0,0,0,.759-.342,17.616,17.616,0,0,0,2.632-1.818V8.937h-1.2l-1.894.027a.1.1,0,0,1-.109-.109V8.294a.1.1,0,0,1,.109-.109l1.894.027h2.926l.1-1.347h-2.352l-1.456.027a.1.1,0,0,1-.109-.109V6.236a.1.1,0,0,1,.109-.109l1.456.027h2.393l.1-1.265h-2.8l-1.552.027q-.116,0-.116-.109V4.247q0-.109.116-.109l1.552.027h1.976l1.559-.027a.109.109,0,0,1,.123.123q-.027.219-.048.526-.034.376-.041.438l-.219,2.987,1.736-.027q.123,0,.123.109v.561q0,.109-.123.109l-1.894-.027h-1.538a11.89,11.89,0,0,0,.964,2.55,10.69,10.69,0,0,0,1.2-1.429,2.52,2.52,0,0,0,.308-.547,4.052,4.052,0,0,1,.608.417.323.323,0,0,1,.109.2q0,.068-.157.171a1.885,1.885,0,0,0-.417.4,10.3,10.3,0,0,1-1.306,1.388A7.945,7.945,0,0,0,214.313,14.467Zm-7.725-4.409q0,.109-.116.109l-1.456-.027H204.7v3.869a17.042,17.042,0,0,0,1.682-.649,2.2,2.2,0,0,0-.068.52.411.411,0,0,1-.062.273.57.57,0,0,1-.205.1q-1.429.554-3.322,1.094a1.752,1.752,0,0,0-.52.212.333.333,0,0,1-.185.082.153.153,0,0,1-.164-.109q-.1-.246-.267-.772a8.4,8.4,0,0,0,1.066-.178q.978-.239,1.271-.328V10.14h-.547l-1.456.027a.1.1,0,0,1-.109-.109V9.524a.1.1,0,0,1,.109-.109l1.456.027h.547V7.918h-.1l-1.189.027q-.116,0-.116-.13v-.5a.1.1,0,0,1,.116-.116l1.189.027h1.08l1.176-.027q.109,0,.109.116v.5q0,.13-.109.13l-1.176-.027H204.7V9.442h.321l1.456-.027q.116,0,.116.109Zm.232-3.985a1,1,0,0,0-.362.444q-.1.185-.144.185a1.161,1.161,0,0,1-.212-.144A10.816,10.816,0,0,1,204.47,4.7,12.423,12.423,0,0,1,202,7.487a.546.546,0,0,1-.205.109q-.082,0-.144-.185a1.241,1.241,0,0,0-.321-.485,8.657,8.657,0,0,0,2.475-2.707,2.053,2.053,0,0,0,.3-.752,4.523,4.523,0,0,1,.807.226q.144.041.144.123a.216.216,0,0,1-.13.185l-.109.082A9.861,9.861,0,0,0,206.821,6.072Zm-3.568,7.109q.007.055.007.068,0,.062-.15.123l-.335.144a.478.478,0,0,1-.137.034q-.062,0-.075-.1a10.431,10.431,0,0,0-.472-2.167.207.207,0,0,1-.021-.075q0-.055.171-.116l.294-.116a.559.559,0,0,1,.137-.034q.041,0,.075.075A11.889,11.889,0,0,1,203.253,13.182Zm3.37-2.017a.236.236,0,0,1-.109.164.979.979,0,0,0-.212.4q-.232.718-.451,1.23-.068.2-.123.2a.466.466,0,0,1-.15-.062,2.436,2.436,0,0,0-.437-.137,9.511,9.511,0,0,0,.547-1.654,2.008,2.008,0,0,0,.068-.526,6.211,6.211,0,0,1,.745.246Q206.623,11.09,206.623,11.165Zm2.215.123a.207.207,0,0,1,.021.075q0,.041-.123.137l-.28.226a.732.732,0,0,1-.164.1q-.034,0-.082-.1a6.081,6.081,0,0,0-1.053-1.668.112.112,0,0,1-.041-.068q0-.041.123-.13l.294-.191a.279.279,0,0,1,.123-.068q.041,0,.1.068A8.212,8.212,0,0,1,208.838,11.288Zm8.641,1.039a1.915,1.915,0,0,1,1.463.643,1.916,1.916,0,0,1-.144,2.748,1.936,1.936,0,0,1-1.319.5,1.9,1.9,0,0,1-1.463-.643,1.916,1.916,0,0,1,.144-2.748A1.936,1.936,0,0,1,217.479,12.327Zm0,.7a1.269,1.269,0,0,0-1.251,1.251,1.253,1.253,0,0,0,2.181.834,1.247,1.247,0,0,0-.93-2.085ZM11.354,40.759q0,.1-.109.1h-.663q-.109,0-.109-.1v-.786H3.541v.8q0,.1-.109.1H2.769q-.109,0-.109-.1l.027-4.437V33.745L2.659,30.4a.1.1,0,0,1,.109-.109l1.962.027h.827a12.481,12.481,0,0,0,.561-1.483,3.218,3.218,0,0,0,.1-.615q.41.055.9.164.171.048.171.157a.228.228,0,0,1-.082.15,1.128,1.128,0,0,0-.212.355q-.308.82-.533,1.271h2.83l1.962-.027a.1.1,0,0,1,.109.109l-.027,3.028v2.9Zm-.882-1.586V36.842H3.541v2.331Zm0-3.1v-2.1H3.541v2.1Zm0-2.871V31.113H3.541V33.2Zm14.171.868q-.014.232-.027.731-.014.479-.027.752a26.435,26.435,0,0,1-.335,3.527,2.075,2.075,0,0,1-.574,1.2,1.761,1.761,0,0,1-1.224.39q-.725,0-1.114-.041-.219-.014-.26-.062a.634.634,0,0,1-.082-.26,1.6,1.6,0,0,0-.28-.656,10.247,10.247,0,0,0,1.6.137.989.989,0,0,0,.772-.28,1.544,1.544,0,0,0,.308-.772,26.9,26.9,0,0,0,.308-3.985H20.583a6.808,6.808,0,0,1-4.211,6.091.872.872,0,0,1-.2.068q-.075,0-.212-.212a1.52,1.52,0,0,0-.444-.458A6.058,6.058,0,0,0,19.7,34.75h-.629l-1.88.027a.1.1,0,0,1-.109-.109v-.622a.1.1,0,0,1,.109-.109l1.88.027h3.541l1.907-.027Q24.644,33.937,24.644,34.066Zm-4.512-4.819q0,.068-.109.157a.808.808,0,0,0-.253.308,13.916,13.916,0,0,1-2.037,3.11,14.7,14.7,0,0,1-2.372,2.112.564.564,0,0,1-.212.123q-.075,0-.191-.185a1.6,1.6,0,0,0-.492-.458,11.291,11.291,0,0,0,2.81-2.427,10.521,10.521,0,0,0,1.559-2.461,3.377,3.377,0,0,0,.226-.827,4.943,4.943,0,0,1,.889.335Q20.132,29.117,20.132,29.247Zm7.41,4.983a2.01,2.01,0,0,0-.492.561q-.13.2-.164.2a.578.578,0,0,1-.2-.109A14.728,14.728,0,0,1,21.9,29.124a.207.207,0,0,1-.021-.075q0-.034.15-.109l.417-.226a.43.43,0,0,1,.15-.055q.041,0,.075.1a12.071,12.071,0,0,0,2.167,3.288A11.7,11.7,0,0,0,27.542,34.23Zm3.425-4.717.4-.8a21.8,21.8,0,0,1,4.354,1.265l-.5.868A20.869,20.869,0,0,0,30.967,29.514Zm-.294,1.723q-.328,3.261-.4,4.259l-.144.766.321-.52a4.925,4.925,0,0,1,1.682-1.271,4.268,4.268,0,0,1,1.777-.39,3.349,3.349,0,0,1,2.406.82,2.66,2.66,0,0,1,.786,2.017,3.2,3.2,0,0,1-.485,1.839,3.371,3.371,0,0,1-1.2,1.019,6.8,6.8,0,0,1-2.092.615,18.516,18.516,0,0,1-2.386.226l-.321-.937a9.7,9.7,0,0,0,4.074-.7,2.554,2.554,0,0,0,1.046-.889,2.462,2.462,0,0,0,.294-1.265,1.793,1.793,0,0,0-.615-1.415,2.145,2.145,0,0,0-1.456-.485,3.916,3.916,0,0,0-2.953,1.408,4.063,4.063,0,0,0-.766,1.21L29.2,37.354q.1-2.01.492-6.262Zm9.105-2.27h1.046q-.239,7.191-.239,8.668a2.135,2.135,0,0,0,.458,1.579,2.222,2.222,0,0,0,1.545.424,3.218,3.218,0,0,0,2.44-.943,5.471,5.471,0,0,0,1.217-2.673l.95.479q-.93,4.074-4.58,4.074a3.2,3.2,0,0,1-2.4-.718,3.1,3.1,0,0,1-.608-2.153q0-.766.062-3.753Q39.751,30.334,39.778,28.967Zm13.146,7.321.854.615q-.677,3.377-2.27,3.377a1.651,1.651,0,0,1-1.538-1.019,9.207,9.207,0,0,1-.718-3.227q-.109-1.312-.109-3.541l.014-2.632h1.012l-.021,2.188q0,2.646.116,3.9.267,3.22,1.217,3.22.485,0,.813-.711A11.913,11.913,0,0,0,52.924,36.288Zm2.1-5.346.909-.267a17.059,17.059,0,0,1,2.427,7.574l-1.053.171A17.589,17.589,0,0,0,55.022,30.942Zm15.483,9.816q0,.1-.109.1h-.663q-.109,0-.109-.1v-.786H62.692v.8q0,.1-.109.1H61.92q-.109,0-.109-.1l.027-4.437V33.745l-.027-3.35a.1.1,0,0,1,.109-.109l1.962.027h.827a12.481,12.481,0,0,0,.561-1.483,3.218,3.218,0,0,0,.1-.615q.41.055.9.164.171.048.171.157a.228.228,0,0,1-.082.15,1.128,1.128,0,0,0-.212.355q-.308.82-.533,1.271h2.83l1.962-.027a.1.1,0,0,1,.109.109l-.027,3.028v2.9Zm-.882-1.586V36.842H62.692v2.331Zm0-3.1v-2.1H62.692v2.1Zm0-2.871V31.113H62.692V33.2Zm15.832,7.547q0,.1-.109.1h-.69q-.109,0-.109-.1V40H75.77v.772a.1.1,0,0,1-.109.109h-.677a.1.1,0,0,1-.109-.109l.027-3.917V34.518l-.027-2.974a.1.1,0,0,1,.109-.109l1.976.027H79.6V30.368a11.875,11.875,0,0,0-.109-1.887,9.06,9.06,0,0,1,.978.082q.171.027.171.123a.44.44,0,0,1-.027.13q-.034.1-.041.137a6.8,6.8,0,0,0-.089,1.388v1.121h2.885l1.976-.027a.1.1,0,0,1,.109.109l-.027,2.707v2.591ZM84.547,39.2V36.015H80.486V39.2Zm-4.942,0V36.015H75.77V39.2Zm4.942-3.972V32.262H80.486v2.967Zm-4.942,0V32.262H75.77v2.967ZM91.7,31.113q.82-.068,2.071-.2l.014.868q-1.142.137-2.3.191a38.416,38.416,0,0,1-2.468,6.487l-.909-.424a29.976,29.976,0,0,0,2.379-6.016q-1.135.062-2.27.041l-.027-.868q1.176.041,2.522-.027.273-1.169.465-2.365l1.019.123Q92,29.869,91.7,31.113Zm3,5.79q-.123-1.5-.144-3.568h.964q0,1.791.157,3.794a9.263,9.263,0,0,1,2.563,1.6l-.52.95A7.662,7.662,0,0,0,95.7,38.154v.232q0,2.229-2.475,2.229a2.629,2.629,0,0,1-1.846-.581,1.665,1.665,0,0,1-.54-1.292,1.7,1.7,0,0,1,.889-1.5,3.244,3.244,0,0,1,1.757-.458A5.891,5.891,0,0,1,94.7,36.9Zm0,.93a4.031,4.031,0,0,0-1.162-.2,2.4,2.4,0,0,0-1.429.349.867.867,0,0,0-.383.731.886.886,0,0,0,.41.772,1.931,1.931,0,0,0,1.107.273,1.305,1.305,0,0,0,1.47-1.483Zm.055-6.357.444-.8a14.091,14.091,0,0,1,3.192,1.5l-.513.868A12.767,12.767,0,0,0,94.753,31.476Zm13.214.239q0,.109-.1.109L106.3,31.8h-.6v.882h.547l1.49-.027q.123,0,.123.109l-.027,1.162v1.285l.027,1.155q0,.109-.123.109l-1.49-.027H105.7v.909h.41l1.47-.027a.1.1,0,0,1,.109.109v.479a.1.1,0,0,1-.109.109L106.107,38h-.41v1q1.176-.191,1.88-.369l-.082.424a.49.49,0,0,1-.075.26.751.751,0,0,1-.253.075q-1.306.287-3.637.615a1.532,1.532,0,0,0-.6.157.343.343,0,0,1-.185.068q-.075,0-.123-.185a6.811,6.811,0,0,1-.171-.725q.123.007.267.007a10.166,10.166,0,0,0,1.025-.062q.472-.041,1.258-.157V38h-.629l-1.47.027q-.116,0-.116-.109v-.479q0-.109.116-.109l1.47.027H105v-.909h-.451l-1.5.027a.1.1,0,0,1-.109-.109l.027-1.155V33.923l-.027-1.162a.1.1,0,0,1,.109-.109l1.5.027H105V31.8h-.711l-1.572.027a.1.1,0,0,1-.109-.109v-.492a.1.1,0,0,1,.109-.109l1.572.027H105v-.964q-.718.123-1.456.205a.959.959,0,0,1-.13.014q-.109,0-.219-.205a1.81,1.81,0,0,0-.308-.437,16.965,16.965,0,0,0,3.767-.615,2.107,2.107,0,0,0,.574-.253,3.51,3.51,0,0,1,.492.479.31.31,0,0,1,.082.185q0,.109-.185.109a1.365,1.365,0,0,0-.39.055q-.684.185-1.531.335v1.094h.6l1.572-.027q.1,0,.1.109Zm-.813,4.129V34.832H105.7v1.012Zm0-1.6V33.28H105.7v.964ZM105,35.844V34.832h-1.347v1.012Zm0-1.6V33.28h-1.347v.964Zm7.253-2.283q-.027.438-.027,1.251a54.065,54.065,0,0,1-.349,6.159,1.931,1.931,0,0,1-.472,1.107,1.237,1.237,0,0,1-.9.308q-.444,0-.882-.041-.157-.014-.185-.062a.808.808,0,0,1-.055-.246,1.6,1.6,0,0,0-.185-.574,6.374,6.374,0,0,0,1.21.123.568.568,0,0,0,.526-.273,2.02,2.02,0,0,0,.212-.7,47.406,47.406,0,0,0,.321-6.412h-1.23a25.694,25.694,0,0,1-.451,3.821,8.251,8.251,0,0,1-2.249,4.327q-.109.123-.157.123t-.178-.144a2.181,2.181,0,0,0-.492-.335,7.326,7.326,0,0,0,2.365-4.225,22.344,22.344,0,0,0,.4-3.568l-1.162.027a.1.1,0,0,1-.109-.109v-.561q0-.116.109-.116l1.189.034q.034-.984.034-1.518a11.521,11.521,0,0,0-.1-1.723,6.014,6.014,0,0,1,.854.089q.171.041.171.137a1.594,1.594,0,0,1-.082.294,5.3,5.3,0,0,0-.089,1.306q0,.458-.027,1.415h.574l1.292-.034A.109.109,0,0,1,112.253,31.961Zm-9.242-3.1q0,.075-.137.191a1.358,1.358,0,0,0-.267.533q-.513,1.477-.868,2.283v6.85l.027,2.167a.1.1,0,0,1-.109.109h-.636a.1.1,0,0,1-.109-.109l.027-2.167V35.2q0-.561.027-1.853a13.4,13.4,0,0,1-.937,1.388q-.1.137-.157.137t-.109-.157a2.324,2.324,0,0,0-.308-.595,13.406,13.406,0,0,0,2.393-4.758,4.211,4.211,0,0,0,.2-.957,5.342,5.342,0,0,1,.793.28Q103.011,28.762,103.011,28.857Zm17.124,4.813a12.542,12.542,0,0,0,2.078,2.857l-.574.9a7.984,7.984,0,0,0-3.657-.854,3.85,3.85,0,0,0-2,.444,1.157,1.157,0,0,0-.643,1.012q0,.813,1.1,1.21a7.484,7.484,0,0,0,2.5.335q.82,0,1.976-.089v.984q-.615.041-2.017.041-4.546,0-4.546-2.365a1.971,1.971,0,0,1,1.066-1.8,5.521,5.521,0,0,1,2.741-.567,6.3,6.3,0,0,1,2.851.615,11.321,11.321,0,0,1-1.832-2.591,34.235,34.235,0,0,1-4.341.28l-.137-.854A33.363,33.363,0,0,0,118.781,33q-.444-1.019-.69-1.682-1.757.185-3.794.226l-.123-.882a34.558,34.558,0,0,0,3.637-.171q-.205-.567-.526-1.62l1-.1q.246.9.479,1.62,1.422-.171,3.063-.52l.144.854q-1.647.328-2.912.479a16.613,16.613,0,0,0,.684,1.668q1.47-.212,2.6-.479l.171.841Q121.413,33.472,120.135,33.67Zm16.7-1.955q0,.109-.116.109L134.9,31.8h-4.983q-.041,1.148-.171,2.14h3.527l1.641-.027q.13,0,.13.116v.041l-.075.978a28.969,28.969,0,0,1-.5,4.225,1.97,1.97,0,0,1-.649,1.169,1.831,1.831,0,0,1-1.087.273,13.115,13.115,0,0,1-1.347-.082.434.434,0,0,1-.246-.068.845.845,0,0,1-.048-.253,1.491,1.491,0,0,0-.2-.656,10.734,10.734,0,0,0,1.777.164q.711,0,.93-.854a24.978,24.978,0,0,0,.472-4.2h-4.437a8.355,8.355,0,0,1-1.511,3.691,9.036,9.036,0,0,1-2.789,2.29.5.5,0,0,1-.212.082q-.075,0-.219-.226a1.723,1.723,0,0,0-.506-.444,7.611,7.611,0,0,0,3.671-3.336,12.068,12.068,0,0,0,.923-5.024h-2.468l-1.818.027a.1.1,0,0,1-.109-.109v-.649a.1.1,0,0,1,.109-.109l1.818.027h3.616V29.9a6.723,6.723,0,0,0-.1-1.442,5.831,5.831,0,0,1,.971.075q.164.021.164.109a.905.905,0,0,1-.082.267,3.9,3.9,0,0,0-.068.978v1.094H134.9l1.818-.027q.116,0,.116.109Zm7.349,3.9v2.769h-.937V36.049q-.321.164-.663.355-1.791,1.012-1.791,2.03a.927.927,0,0,0,.629.943,6.4,6.4,0,0,0,2.078.232q1.47,0,3.411-.171l.041.95q-2.55.13-3.384.13a5.879,5.879,0,0,1-2.967-.513,1.772,1.772,0,0,1-.7-1.6,3.066,3.066,0,0,1,1.88-2.55q.711-.4,1.456-.772-.068-1.312-.909-1.312-1.176,0-3.227,2.365l-.725-.643a16.349,16.349,0,0,0,2.9-4.136q-1.278.021-2.563,0V30.5q1.477.027,2.953,0a12.511,12.511,0,0,0,.629-1.873l1.012.185a14.378,14.378,0,0,1-.588,1.647q1.969-.062,3.739-.239l.027.854q-2.3.185-4.143.239a14.3,14.3,0,0,1-1.176,1.989l-.355.362.041.055a2.492,2.492,0,0,1,1.668-.711,1.521,1.521,0,0,1,1.114.424,1.982,1.982,0,0,1,.526,1.217q1.094-.5,2.844-1.237l.39.957Q145.113,35.208,144.184,35.618Zm10.233.376a12.594,12.594,0,0,1-5,4.423l-.615-.807a12.291,12.291,0,0,0,4.573-3.931,14.161,14.161,0,0,0,2.051-5.045H149.55V29.7h7.26a18.785,18.785,0,0,1-1.846,5.359,31.446,31.446,0,0,1,3.261,4.7l-1.032.656A25.126,25.126,0,0,0,154.417,35.994Zm10.931-.041a15.455,15.455,0,0,0-2.9-1.962l.574-.766a21.307,21.307,0,0,1,2.857,1.75,13.505,13.505,0,0,0,1.162-4.02h-3.9a11.485,11.485,0,0,1-2.81,4.17l-.827-.561a11.586,11.586,0,0,0,3.247-5.893l1.08.267q-.116.451-.321,1.094h4.84a16.092,16.092,0,0,1-2.509,7.075,10.892,10.892,0,0,1-4.7,3.507l-.663-.786A10.256,10.256,0,0,0,165.348,35.953Zm4.7-1.7h7.615V35.3h-7.615Zm11.908-.349v6.651h-1.08V28.816h1.08v4.061a21.8,21.8,0,0,1,5.332,2.222l-.533,1.012A17.7,17.7,0,0,0,181.959,33.909Zm11.026-1.777q-1.682.171-3.937.239l-.055-.9a34.669,34.669,0,0,0,3.623-.185,23.558,23.558,0,0,1-.779-2.42l1.032-.13a17.685,17.685,0,0,0,.759,2.44,28.981,28.981,0,0,0,2.953-.52l.109.9q-1.1.246-2.714.465a14.924,14.924,0,0,0,2.7,4.061l-.6.868a6.488,6.488,0,0,0-3.37-.957,3.2,3.2,0,0,0-2.071.6,1.5,1.5,0,0,0-.6,1.2q0,1.8,3.527,1.8a10.949,10.949,0,0,0,1.873-.144l.014.978a14.376,14.376,0,0,1-1.9.116,7.033,7.033,0,0,1-3.281-.6,2.223,2.223,0,0,1-1.217-2.1,2.317,2.317,0,0,1,1.3-2.153,4.746,4.746,0,0,1,2.317-.526,5.215,5.215,0,0,1,2.7.547A11.752,11.752,0,0,1,192.985,32.132Zm12.373.711q-1.989.089-3.931.212-.041,1.723-.041,3.083a15.212,15.212,0,0,0,.109,2.488,1.01,1.01,0,0,0,.745.67,6.091,6.091,0,0,0,1.675.171,32.991,32.991,0,0,0,3.363-.164v.978q-1.743.1-3.336.1a6.145,6.145,0,0,1-2.536-.383,1.543,1.543,0,0,1-.848-1.019,14.346,14.346,0,0,1-.13-2.611q0-.854.034-3.24-1.456.116-2.2.185V32.4l1.2-.082q.643-.041,1.019-.075.027-.984.055-3.008h.978q-.062,2.3-.068,2.953,2.687-.144,3.931-.191.027-1.08,0-3.24h.984q0,1.579-.041,3.192.355-.014,1.128-.034.656-.021,1.012-.034v.9l-2.153.041q-.048,1.675-.171,2.912-.13,1.36-1.271,1.36a4.812,4.812,0,0,1-1.907-.376V35.687a3.665,3.665,0,0,0,1.668.41q.492,0,.574-.7Q205.317,34.319,205.358,32.843Zm13.651-3.1.027.964a5.312,5.312,0,0,0-2.311.629,5.934,5.934,0,0,0-2.071,1.962,4.817,4.817,0,0,0-.813,2.659,2.958,2.958,0,0,0,1.285,2.529,6.17,6.17,0,0,0,2.933,1l-.239,1a6.1,6.1,0,0,1-3.63-1.381,3.89,3.89,0,0,1-1.312-3.049,5.709,5.709,0,0,1,2.994-5.024l.759-.335-.014-.027-.656.109q-1.189.068-5.66.479l-.082-.923Q212.222,30.177,219.01,29.739Zm6,6.549.854.615q-.677,3.377-2.27,3.377a1.651,1.651,0,0,1-1.538-1.019,9.207,9.207,0,0,1-.718-3.227q-.109-1.312-.109-3.541l.014-2.632h1.012l-.021,2.188q0,2.646.116,3.9.267,3.22,1.217,3.22.485,0,.813-.711A11.913,11.913,0,0,0,225,36.288Zm2.1-5.346.909-.267a17.059,17.059,0,0,1,2.427,7.574l-1.053.171A17.589,17.589,0,0,0,227.1,30.942Zm9.222-.349q-.027-1.176-.027-1.853h1v1.812q1.7-.062,3.37-.267v.868q-1.531.185-3.356.253l.041,2.01q1.935-.089,3.247-.26v.868q-1.538.171-3.233.232.014.335.062,1.449.027.745.048,1.2a10.066,10.066,0,0,1,3.726,2.372l-.7.861a9.516,9.516,0,0,0-3.015-2.249v.15a2.184,2.184,0,0,1-2.475,2.468,3.271,3.271,0,0,1-2.017-.5,1.7,1.7,0,0,1-.6-1.436,1.679,1.679,0,0,1,.8-1.449,3.138,3.138,0,0,1,1.832-.5,8.4,8.4,0,0,1,1.47.1q-.048-.848-.1-2.427-1.825.048-3.644,0v-.848q1.7.055,3.63.014-.027-.383-.034-1.087-.014-.663-.027-.943-2.105.041-3.794-.027v-.841Q234.22,30.642,236.325,30.594Zm.171,7.055a5.407,5.407,0,0,0-1.374-.185q-1.832,0-1.832,1.107,0,1.066,1.654,1.066,1.552,0,1.552-1.866ZM249.013,31.5q-.041,1.518,0,3.035a5.324,5.324,0,0,1,.308,1.777,3.687,3.687,0,0,1-1.306,3.069,7.744,7.744,0,0,1-3.274,1.271l-.588-.841a6.334,6.334,0,0,0,3.411-1.381,2.741,2.741,0,0,0,.807-1.88,1.856,1.856,0,0,1-1.8.882,2.2,2.2,0,0,1-1.531-.574,2.3,2.3,0,0,1,.123-3.356,2.469,2.469,0,0,1,1.559-.492,2,2,0,0,1,1.36.39q-.027-1.312-.027-1.873-2.249.034-5.435.239l-.014-.9q2.584-.1,5.435-.171V28.8l1,.014q0,.629-.027,1.859,2.324-.027,3.363-.027v.9Q250.694,31.5,249.013,31.5Zm-2.338,2.3a1.322,1.322,0,0,0-.984.4,1.413,1.413,0,0,0-.39,1.046,1.237,1.237,0,0,0,.444,1,1.288,1.288,0,0,0,.848.294,1.406,1.406,0,0,0,1.1-.41,1.3,1.3,0,0,0,.314-.916Q248.008,33.8,246.675,33.8ZM256,37.327a1.915,1.915,0,0,1,1.463.643,1.916,1.916,0,0,1-.144,2.748,1.936,1.936,0,0,1-1.319.5,1.9,1.9,0,0,1-1.463-.643,1.916,1.916,0,0,1,.144-2.748A1.936,1.936,0,0,1,256,37.327Zm0,.7a1.269,1.269,0,0,0-1.251,1.251,1.253,1.253,0,0,0,2.181.834,1.247,1.247,0,0,0-.93-2.085ZM178.3,53.27a8.836,8.836,0,0,0-2.529,3.247,8.068,8.068,0,0,0-.581,3.165,7.883,7.883,0,0,0,.772,3.582,9.239,9.239,0,0,0,2.338,2.83l-.349.4a9.614,9.614,0,0,1-2.939-3.37,7.781,7.781,0,0,1-.731-3.445,7.659,7.659,0,0,1,.964-3.89,10.156,10.156,0,0,1,2.707-2.926Zm5.879,4.5a2.027,2.027,0,0,0-.14-.786,1.522,1.522,0,0,0-.954-.889,2.235,2.235,0,0,0-.711-.109,2.352,2.352,0,0,0-.643.089,3.124,3.124,0,0,0-.612.246,3.764,3.764,0,0,0-.574.376,4.147,4.147,0,0,0-.516.485v-1.2a3.352,3.352,0,0,1,1.056-.7,3.719,3.719,0,0,1,1.425-.243,3.441,3.441,0,0,1,1.114.174,2.555,2.555,0,0,1,.889.509,2.354,2.354,0,0,1,.591.827,2.79,2.79,0,0,1,.215,1.128,3.868,3.868,0,0,1-.133,1.053,3.256,3.256,0,0,1-.4.889,4.288,4.288,0,0,1-.68.8,9.635,9.635,0,0,1-.964.779q-.69.492-1.138.841a5.031,5.031,0,0,0-.711.653,1.894,1.894,0,0,0-.369.608,2.127,2.127,0,0,0-.106.7H185.7v1h-6.05v-.485a4.045,4.045,0,0,1,.137-1.107,2.875,2.875,0,0,1,.451-.909,5.046,5.046,0,0,1,.824-.861q.509-.431,1.248-.971a7.887,7.887,0,0,0,.892-.731,3.8,3.8,0,0,0,.578-.7,2.5,2.5,0,0,0,.311-.708A3.051,3.051,0,0,0,184.181,57.768Zm9.242,2.29a9.629,9.629,0,0,1-.222,2.181,5.081,5.081,0,0,1-.643,1.6,2.892,2.892,0,0,1-1.032.991,2.826,2.826,0,0,1-1.391.338,2.639,2.639,0,0,1-1.316-.325,2.758,2.758,0,0,1-.974-.947,4.8,4.8,0,0,1-.6-1.528,9.447,9.447,0,0,1-.205-2.075,10.694,10.694,0,0,1,.215-2.27,5.191,5.191,0,0,1,.632-1.651,2.814,2.814,0,0,1,1.036-1,2.908,2.908,0,0,1,1.418-.338Q193.423,55.033,193.423,60.058Zm-1.148.109q0-4.184-1.989-4.184-2.1,0-2.1,4.259,0,3.972,2.058,3.972Q192.274,64.214,192.274,60.167Zm7-2.4a2.027,2.027,0,0,0-.14-.786,1.522,1.522,0,0,0-.954-.889,2.235,2.235,0,0,0-.711-.109,2.352,2.352,0,0,0-.643.089,3.124,3.124,0,0,0-.612.246,3.764,3.764,0,0,0-.574.376,4.147,4.147,0,0,0-.516.485v-1.2a3.352,3.352,0,0,1,1.056-.7,3.719,3.719,0,0,1,1.425-.243,3.441,3.441,0,0,1,1.114.174,2.555,2.555,0,0,1,.889.509,2.354,2.354,0,0,1,.591.827,2.79,2.79,0,0,1,.215,1.128,3.868,3.868,0,0,1-.133,1.053,3.256,3.256,0,0,1-.4.889,4.288,4.288,0,0,1-.68.8,9.635,9.635,0,0,1-.964.779q-.69.492-1.138.841a5.031,5.031,0,0,0-.711.653,1.894,1.894,0,0,0-.369.608,2.127,2.127,0,0,0-.106.7h4.881v1h-6.05v-.485a4.045,4.045,0,0,1,.137-1.107,2.875,2.875,0,0,1,.451-.909,5.046,5.046,0,0,1,.824-.861q.509-.431,1.248-.971a7.887,7.887,0,0,0,.892-.731,3.8,3.8,0,0,0,.578-.7,2.5,2.5,0,0,0,.311-.708A3.051,3.051,0,0,0,199.274,57.768Zm7.547,0a2.027,2.027,0,0,0-.14-.786,1.522,1.522,0,0,0-.954-.889,2.235,2.235,0,0,0-.711-.109,2.352,2.352,0,0,0-.643.089,3.124,3.124,0,0,0-.612.246,3.764,3.764,0,0,0-.574.376,4.147,4.147,0,0,0-.516.485v-1.2a3.352,3.352,0,0,1,1.056-.7,3.719,3.719,0,0,1,1.425-.243,3.441,3.441,0,0,1,1.114.174,2.555,2.555,0,0,1,.889.509,2.354,2.354,0,0,1,.591.827,2.79,2.79,0,0,1,.215,1.128,3.868,3.868,0,0,1-.133,1.053,3.256,3.256,0,0,1-.4.889,4.288,4.288,0,0,1-.68.8,9.635,9.635,0,0,1-.964.779q-.69.492-1.138.841a5.031,5.031,0,0,0-.711.653,1.894,1.894,0,0,0-.369.608,2.127,2.127,0,0,0-.106.7h4.881v1h-6.05v-.485a4.045,4.045,0,0,1,.137-1.107,2.875,2.875,0,0,1,.451-.909,5.046,5.046,0,0,1,.824-.861q.509-.431,1.248-.971a7.887,7.887,0,0,0,.892-.731,3.8,3.8,0,0,0,.578-.7,2.5,2.5,0,0,0,.311-.708A3.051,3.051,0,0,0,206.821,57.768Zm15.326,4.813a.1.1,0,0,1-.109.109l-1.832-.027h-3.151V63.6l.027,2.311a.085.085,0,0,1-.1.1h-.7q-.123,0-.123-.1l.027-2.311v-.937h-4.252l-1.839.027a.1.1,0,0,1-.109-.109v-.636a.1.1,0,0,1,.109-.109l1.839.027h.417V59.812l-.027-1.224a.1.1,0,0,1,.109-.109l1.962.027h1.791V56.2h-3.192a14.262,14.262,0,0,1-1.777,2.174q-.13.15-.185.15t-.191-.171a1.427,1.427,0,0,0-.479-.376,11.287,11.287,0,0,0,2.748-3.685,3.91,3.91,0,0,0,.294-.923q.355.089.868.267a.2.2,0,0,1,.137.185.274.274,0,0,1-.123.191,1.442,1.442,0,0,0-.355.506q-.308.615-.472.909h5.893L221.3,55.4a.1.1,0,0,1,.109.109v.608a.1.1,0,0,1-.109.109l-1.948-.027h-2.3v2.311h1.7l1.941-.027q.1,0,.1.109V59.2q0,.109-.1.109l-1.941-.027h-1.7v2.584h3.151l1.832-.027a.1.1,0,0,1,.109.109Zm-5.961-.718V59.278h-2.98v2.584ZM228.04,65h-1.121V56.53a2.6,2.6,0,0,1-.379.3,6.185,6.185,0,0,1-.561.332q-.311.164-.656.308a4.769,4.769,0,0,1-.673.226V56.558a6.517,6.517,0,0,0,.783-.277q.414-.174.813-.39T227,55.44a6,6,0,0,0,.615-.461h.424Zm13.357-.472a1.141,1.141,0,0,1-1.155,1.3q-.308.027-1.244.027a.465.465,0,0,1-.26-.041.838.838,0,0,1-.089-.239,2.217,2.217,0,0,0-.253-.656q.82.068,1.47.068a.565.565,0,0,0,.636-.643V61.281h-5.476a8.168,8.168,0,0,1-.793,2.693,7.969,7.969,0,0,1-1.381,1.839q-.13.15-.178.15a.715.715,0,0,1-.226-.137,1.839,1.839,0,0,0-.6-.321,6.916,6.916,0,0,0,2.085-3.2,18.173,18.173,0,0,0,.41-4.512V56.086l-.027-1.839a.1.1,0,0,1,.109-.109l1.832.027h3.192l1.832-.027q.116,0,.116.109l-.027,1.839V62.3Zm-.9-4.033V58.089h-5.291q-.027,1.456-.1,2.406Zm0-3.192V54.965h-5.291V57.3Zm8.969,6.9q0,.116-.109.116h-.581q-.109,0-.109-.116v-.7h-1.818v1.162a.1.1,0,0,1-.109.109h-.595a.1.1,0,0,1-.109-.109l.027-4.32V57.59l-.027-3.274a.1.1,0,0,1,.109-.109l1.121.027h.971l1.121-.027a.1.1,0,0,1,.109.109l-.027,2.83v2.905Zm-.8-1.442v-3.63h-1.818v3.63Zm0-4.354V54.979h-1.818V58.4Zm9.283.089a.1.1,0,0,1-.109.109l-1.935-.027h-3.979l-1.914.027a.1.1,0,0,1-.109-.109v-.581a.1.1,0,0,1,.109-.109l1.914.027h1.306V55.97h-.868L250.578,56q-.13,0-.13-.116v-.561q0-.123.13-.123l1.791.027h.868a11.931,11.931,0,0,0-.1-1.791q.567.021.909.068.171.027.171.123s-.023.089-.068.253a5.578,5.578,0,0,0-.089,1.347h1.271l1.8-.027q.109,0,.109.123v.561q0,.116-.109.116l-1.8-.034h-1.271v1.859h1.846l1.935-.027a.1.1,0,0,1,.109.109Zm-.171,2.5a.1.1,0,0,1-.109.109l-1.682-.027v1.9l.014,1.791a1.053,1.053,0,0,1-.39.937,3.4,3.4,0,0,1-1.627.239.487.487,0,0,1-.26-.041.592.592,0,0,1-.089-.226,1.985,1.985,0,0,0-.28-.629q.567.055,1.313.055.492,0,.492-.513V61.069H252l-1.9.027q-.116,0-.116-.109v-.581q0-.1.116-.1l1.9.014h3.165V60.3a8.226,8.226,0,0,0-.1-1.483,6.171,6.171,0,0,1,.9.1q.185.021.185.116a.636.636,0,0,1-.082.232,3.673,3.673,0,0,0-.075,1v.068l1.682-.014q.109,0,.109.1Zm-4.56,2.57a.173.173,0,0,1,.027.082q0,.055-.1.13l-.376.253a.478.478,0,0,1-.164.089q-.041,0-.075-.062a8.338,8.338,0,0,0-1.34-1.75.131.131,0,0,1-.048-.082q0-.055.13-.13l.335-.212a.35.35,0,0,1,.13-.055.169.169,0,0,1,.1.041A8.419,8.419,0,0,1,253.224,63.558Zm17.855-7.595a.1.1,0,0,1-.109.109l-1.935-.027H265.8V57.72h1.976l1.976-.027q.109,0,.109.1l-.027,1.237v1.647l.027,1.237a.1.1,0,0,1-.109.109l-1.976-.027h-4.259l-1.962.027a.1.1,0,0,1-.109-.109l.027-1.237V59.025l-.027-1.237q0-.1.109-.1l1.962.027h1.415V55.074a11.53,11.53,0,0,0-.1-1.7,8.315,8.315,0,0,1,.95.082q.171.021.171.109a.768.768,0,0,1-.055.253,3.771,3.771,0,0,0-.1,1.135v.294h3.233l1.935-.027a.1.1,0,0,1,.109.109Zm-2.112,5.243v-2.7h-6.624v2.7Zm2.5,4.088a.173.173,0,0,1,.027.082q0,.048-.157.13l-.39.178a.64.64,0,0,1-.191.075q-.041,0-.075-.075a11.43,11.43,0,0,0-1.613-2.618.119.119,0,0,1-.034-.068q0-.048.164-.123l.308-.157a.377.377,0,0,1,.157-.055.165.165,0,0,1,.109.068A11.281,11.281,0,0,1,271.462,65.294Zm-9.44-2.058a8.353,8.353,0,0,1-1.579,2.509.169.169,0,0,1-.13.082.4.4,0,0,1-.178-.082l-.349-.2q-.178-.1-.178-.157,0-.027.048-.068a7.148,7.148,0,0,0,1.613-2.379q.034-.1.109-.1a.466.466,0,0,1,.171.048l.335.137q.157.068.157.137A.207.207,0,0,1,262.021,63.236Zm5.852,2.153a.293.293,0,0,1,.014.075q0,.068-.15.109l-.437.1a.834.834,0,0,1-.178.041q-.062,0-.089-.1a10.007,10.007,0,0,0-.813-2.42.266.266,0,0,1-.021-.075q0-.055.164-.109l.4-.123a.293.293,0,0,1,.075-.014q.075,0,.123.109A10.315,10.315,0,0,1,267.873,65.39Zm-3.09.1v.041q0,.109-.171.123l-.458.041a1.124,1.124,0,0,1-.13.014q-.1,0-.1-.109a12.861,12.861,0,0,0-.417-2.447.217.217,0,0,1-.014-.062q0-.068.178-.1l.4-.041a.748.748,0,0,1,.089-.007q.1,0,.123.116A14.3,14.3,0,0,1,264.783,65.492Zm8.483-12.223.349-.4a9.614,9.614,0,0,1,2.939,3.37,7.781,7.781,0,0,1,.731,3.445,7.659,7.659,0,0,1-.964,3.89,10.156,10.156,0,0,1-2.707,2.926l-.349-.4a8.836,8.836,0,0,0,2.529-3.247,8.068,8.068,0,0,0,.581-3.165A7.883,7.883,0,0,0,275.6,56.1,9.239,9.239,0,0,0,273.267,53.27Z"
									transform="translate(20 7678)" fill="#fff" stroke="#fff" stroke-linecap="round"
									stroke-width="5" />
								<path id="Контур_1734" data-name="Контур 1734"
									d="M7.226,6.5q-.041,1.518,0,3.035a5.324,5.324,0,0,1,.308,1.777,3.687,3.687,0,0,1-1.306,3.069,7.744,7.744,0,0,1-3.274,1.271l-.588-.841a6.334,6.334,0,0,0,3.411-1.381,2.741,2.741,0,0,0,.807-1.88,1.856,1.856,0,0,1-1.8.882,2.2,2.2,0,0,1-1.531-.574,2.082,2.082,0,0,1-.67-1.62A2.07,2.07,0,0,1,3.37,8.506a2.469,2.469,0,0,1,1.559-.492,2,2,0,0,1,1.36.39Q6.262,7.091,6.262,6.53,4.013,6.564.827,6.77l-.014-.9Q3.4,5.771,6.248,5.7V3.8l1,.014q0,.629-.027,1.859,2.324-.027,3.363-.027v.9Q8.907,6.5,7.226,6.5ZM4.888,8.8a1.322,1.322,0,0,0-.984.4,1.413,1.413,0,0,0-.39,1.046,1.237,1.237,0,0,0,.444,1,1.288,1.288,0,0,0,.848.294,1.405,1.405,0,0,0,1.1-.41,1.3,1.3,0,0,0,.314-.916Q6.221,8.8,4.888,8.8Zm14.205-.957.718-.273a18.274,18.274,0,0,1,1.032,2.365l-.752.308A15.123,15.123,0,0,0,19.093,7.843Zm1.586-.472.7-.253a11.566,11.566,0,0,1,1,2.3l-.731.294A13.488,13.488,0,0,0,20.679,7.371Zm.39-2.632L21.1,5.7a5.312,5.312,0,0,0-2.311.629,5.934,5.934,0,0,0-2.071,1.962,4.817,4.817,0,0,0-.813,2.659,2.958,2.958,0,0,0,1.285,2.529,6.17,6.17,0,0,0,2.933,1l-.239,1a6.1,6.1,0,0,1-3.63-1.381,3.89,3.89,0,0,1-1.312-3.049,5.709,5.709,0,0,1,2.994-5.024l.759-.335-.014-.027-.656.109q-1.189.068-5.66.479l-.082-.923Q14.28,5.177,21.068,4.739Zm5.906,6.692.957.082a5.458,5.458,0,0,0-.157,1.258,1.054,1.054,0,0,0,.444.978,3.167,3.167,0,0,0,1.545.273,25.984,25.984,0,0,0,2.769-.144l.027,1.012q-1.025.082-2.659.082a4.349,4.349,0,0,1-2.44-.492,1.783,1.783,0,0,1-.636-1.552A7.219,7.219,0,0,1,26.975,11.432Zm.28-4.676V5.8Q29,5.662,30.8,5.662q.889,0,1.668.041v.95Q31.739,6.6,30.7,6.6,28.909,6.6,27.255,6.756ZM25.744,4.343a36.343,36.343,0,0,0-.786,6.61,24.829,24.829,0,0,0,.342,4.382l-1,.082a28.849,28.849,0,0,1-.321-4.491,40.268,40.268,0,0,1,.772-6.665ZM40.523,11.89a3.631,3.631,0,0,1-.232,1.319,3.171,3.171,0,0,1-.643,1.039,2.871,2.871,0,0,1-.978.68,3.1,3.1,0,0,1-1.23.243,2.713,2.713,0,0,1-2.314-1.193,4.246,4.246,0,0,1-.619-1.412,7.648,7.648,0,0,1-.212-1.88,8.834,8.834,0,0,1,.284-2.321,5.638,5.638,0,0,1,.807-1.784,3.719,3.719,0,0,1,1.261-1.145,3.379,3.379,0,0,1,1.647-.4,3.968,3.968,0,0,1,1.627.28v1.06a3.455,3.455,0,0,0-1.6-.39,2.384,2.384,0,0,0-1.183.294,2.716,2.716,0,0,0-.9.831,4.051,4.051,0,0,0-.578,1.3,6.572,6.572,0,0,0-.2,1.688h.027a2.354,2.354,0,0,1,2.235-1.224,2.942,2.942,0,0,1,1.159.219,2.5,2.5,0,0,1,.882.619,2.785,2.785,0,0,1,.564.954A3.63,3.63,0,0,1,40.523,11.89Zm-1.148.144a3.051,3.051,0,0,0-.13-.923,2,2,0,0,0-.373-.7,1.606,1.606,0,0,0-.6-.441,2.013,2.013,0,0,0-.807-.154,1.888,1.888,0,0,0-.772.157,1.924,1.924,0,0,0-.615.427,2,2,0,0,0-.554,1.391,3.041,3.041,0,0,0,.144.947,2.446,2.446,0,0,0,.4.769,1.918,1.918,0,0,0,.619.516,1.69,1.69,0,0,0,.8.188,1.824,1.824,0,0,0,.772-.161,1.723,1.723,0,0,0,.595-.448,2.073,2.073,0,0,0,.383-.687A2.723,2.723,0,0,0,39.375,12.033Zm8.682-1.976a9.63,9.63,0,0,1-.222,2.181,5.081,5.081,0,0,1-.643,1.6,2.892,2.892,0,0,1-1.032.991,2.826,2.826,0,0,1-1.391.338,2.639,2.639,0,0,1-1.316-.325,2.758,2.758,0,0,1-.974-.947,4.8,4.8,0,0,1-.6-1.528,9.447,9.447,0,0,1-.205-2.075,10.694,10.694,0,0,1,.215-2.27,5.191,5.191,0,0,1,.632-1.651,2.814,2.814,0,0,1,1.036-1,2.908,2.908,0,0,1,1.418-.338Q48.057,5.033,48.057,10.058Zm-1.148.109q0-4.184-1.989-4.184-2.1,0-2.1,4.259,0,3.972,2.058,3.972Q46.908,14.214,46.908,10.167Zm8.7-.109a9.63,9.63,0,0,1-.222,2.181,5.081,5.081,0,0,1-.643,1.6,2.892,2.892,0,0,1-1.032.991,2.826,2.826,0,0,1-1.391.338A2.639,2.639,0,0,1,51,14.846a2.758,2.758,0,0,1-.974-.947,4.8,4.8,0,0,1-.6-1.528,9.447,9.447,0,0,1-.205-2.075,10.694,10.694,0,0,1,.215-2.27,5.191,5.191,0,0,1,.632-1.651,2.814,2.814,0,0,1,1.036-1,2.908,2.908,0,0,1,1.418-.338Q55.6,5.033,55.6,10.058Zm-1.148.109q0-4.184-1.989-4.184-2.1,0-2.1,4.259,0,3.972,2.058,3.972Q54.455,14.214,54.455,10.167Zm13.788,5.7q0,.116-.109.116h-.69q-.109,0-.109-.116v-.711H61.722v.8q0,.1-.109.1h-.677q-.109,0-.109-.1l.027-2.44V11.4A27.786,27.786,0,0,1,57.8,12.942.769.769,0,0,1,57.6,13q-.068,0-.191-.212a1.431,1.431,0,0,0-.4-.479,18.824,18.824,0,0,0,5.318-2.885A10.386,10.386,0,0,0,60.5,7.945q-.075-.055-.075-.082t.089-.13l.308-.273q.089-.1.144-.1a.266.266,0,0,1,.1.034,13.328,13.328,0,0,1,1.928,1.47,20.978,20.978,0,0,0,2.775-3.049H61.64a15.085,15.085,0,0,1-3.527,2.844.714.714,0,0,1-.212.1q-.068,0-.2-.212a1.347,1.347,0,0,0-.417-.4,12.947,12.947,0,0,0,4.594-3.992,2.9,2.9,0,0,0,.431-.813,7.384,7.384,0,0,1,.854.294q.123.062.123.157,0,.075-.157.178a1.579,1.579,0,0,0-.376.424q-.239.349-.5.67h3.664a.981.981,0,0,0,.335-.041.656.656,0,0,1,.171-.041.7.7,0,0,1,.4.239q.28.26.28.39t-.171.212a1.722,1.722,0,0,0-.417.424A20.321,20.321,0,0,1,62,10.659h4.225l1.907-.027q.109,0,.109.1l-.027,1.613v1.148Zm-.909-1.47V11.4H61.722V14.4Zm16.215.451a2.845,2.845,0,0,0-.492.581q-.1.171-.15.171t-.185-.123a21.1,21.1,0,0,1-2.871-3.432,9.116,9.116,0,0,1-1.982,2.105,15.856,15.856,0,0,1-2.885,1.675.774.774,0,0,1-.212.068q-.082,0-.2-.212a1.636,1.636,0,0,0-.458-.485A14.081,14.081,0,0,0,77.54,13.3,8.387,8.387,0,0,0,79.3,11.377,11.011,11.011,0,0,0,80.9,6.168q.062-.731.062-1.2a5.151,5.151,0,0,0-.048-.738q.533.041.964.116.185.041.185.15a1.909,1.909,0,0,1-.1.294,7.2,7.2,0,0,0-.185,1.347,12.7,12.7,0,0,1-1.442,5.12A14.031,14.031,0,0,0,83.549,14.85ZM77.431,11a1.236,1.236,0,0,1,.021.171q0,.109-.239.246a41.113,41.113,0,0,1-5.127,2.242,1.809,1.809,0,0,0-.492.239.236.236,0,0,1-.164.082q-.1,0-.157-.144a7.28,7.28,0,0,1-.308-.868,9.023,9.023,0,0,0,1.135-.294q.226-.068.67-.239L72.7,6.291a12.954,12.954,0,0,0-.109-1.914,7.736,7.736,0,0,1,.943.082q.185.021.185.13a.846.846,0,0,1-.082.26,3.358,3.358,0,0,0-.089,1.019q0,.185.007.41l.068,5.852a36.512,36.512,0,0,0,3.808-1.716,1.848,1.848,0,0,0-.021.287A2.126,2.126,0,0,0,77.431,11Zm1.08-3a.133.133,0,0,1,.027.068q0,.055-.123.144l-.4.28a.4.4,0,0,1-.178.082q-.041,0-.1-.082A13.407,13.407,0,0,0,75.667,5.9a.112.112,0,0,1-.041-.068q0-.041.123-.13l.383-.267a.248.248,0,0,1,.13-.062.133.133,0,0,1,.089.048A14.167,14.167,0,0,1,78.511,8Zm18.662,7.089a.1.1,0,0,1-.109.109l-1.853-.027H87.165l-1.853.027a.1.1,0,0,1-.109-.109v-.718a.1.1,0,0,1,.109-.109l1.853.027H90.33V5.724a16.009,16.009,0,0,0-.089-2.017,8.173,8.173,0,0,1,.984.082q.185.027.185.123a.828.828,0,0,1-.075.267,5.587,5.587,0,0,0-.1,1.36V8.185h2.782l1.846-.027q.116,0,.116.109v.718q0,.109-.116.109l-1.846-.027H91.239v5.223h3.972l1.853-.027a.1.1,0,0,1,.109.109Zm7.4-9.242a22.039,22.039,0,0,1-1.483,7.362,2.1,2.1,0,0,1-1.894,1.483,1.749,1.749,0,0,1-1.606-1.06,6,6,0,0,1-.533-2.789,7.336,7.336,0,0,1,.458-2.618A5.114,5.114,0,0,1,100.557,6.5a4.675,4.675,0,0,1,1.716-1.128,5.426,5.426,0,0,1,1.969-.369A4.139,4.139,0,0,1,107.8,6.5a6.371,6.371,0,0,1,.964,3.808,5.114,5.114,0,0,1-1.121,3.4,5.6,5.6,0,0,1-3.274,1.784l-.485-.841a4.243,4.243,0,0,0,3.835-4.607,4.671,4.671,0,0,0-1.032-3.3A2.809,2.809,0,0,0,104.576,5.847Zm-1.053.109a3.075,3.075,0,0,0-1.292.4,4.459,4.459,0,0,0-1.06.93,5.252,5.252,0,0,0-1.148,3.582,4.6,4.6,0,0,0,.41,2.126q.328.615.752.615a.82.82,0,0,0,.622-.26,2.544,2.544,0,0,0,.444-.759A19.819,19.819,0,0,0,103.523,5.956Zm9.461,1.121V3.83h1.066V6.838l5.359-1.217.588.752a17.488,17.488,0,0,1-2.967,5.284l-.882-.561a12.915,12.915,0,0,0,2.536-4.327l-4.635,1.046V12.86q0,.943.485,1.189a4.62,4.62,0,0,0,1.723.205q1.545,0,3.247-.164v1.032q-1.49.1-3.466.1a3.85,3.85,0,0,1-2.55-.588,2.375,2.375,0,0,1-.506-1.75V8.055l-2.379.533-.28-.909Zm9.748-2.687h6.344v.937h-6.344Zm-.854,2.98h7.909q-.157,4-1.955,5.961a8.381,8.381,0,0,1-4.3,2.27l-.506-.8a7.477,7.477,0,0,0,4.238-2.413,6.915,6.915,0,0,0,1.36-4.081h-6.747Zm11.539,2.687v2.994q0,1,.6,1.107a11.356,11.356,0,0,0,2.044.144q1.408,0,3.1-.171v1.053q-1.859.1-3.37.1a10.778,10.778,0,0,1-2.44-.2q-1-.219-1-1.709v-9.1h1.066V9.08a15.118,15.118,0,0,0,4.368-2.871l.711.854A18.045,18.045,0,0,1,133.417,10.058Zm5.53-7.226a1.5,1.5,0,0,1,1.162.52,1.514,1.514,0,0,1,.4,1.053,1.569,1.569,0,0,1-3.138,0,1.57,1.57,0,0,1,1.572-1.572Zm0,.6a.926.926,0,0,0-.725.314.947.947,0,0,0-.246.656.918.918,0,0,0,.314.718.947.947,0,0,0,.656.246.918.918,0,0,0,.718-.314.938.938,0,0,0,.246-.649.926.926,0,0,0-.314-.725A.938.938,0,0,0,138.947,3.434Zm7.9,7.561a12.594,12.594,0,0,1-5,4.423l-.615-.807a12.291,12.291,0,0,0,4.573-3.931,14.161,14.161,0,0,0,2.051-5.045h-5.879V4.7h7.26a18.785,18.785,0,0,1-1.846,5.359,31.446,31.446,0,0,1,3.261,4.7l-1.032.656A25.126,25.126,0,0,0,146.85,10.994Zm8.039-2.085v6.651h-1.08V3.816h1.08V7.877a21.8,21.8,0,0,1,5.332,2.222l-.533,1.012A17.7,17.7,0,0,0,154.889,8.909Zm19.558,5.626a1.86,1.86,0,0,0-.451.479q-.089.171-.164.171a.433.433,0,0,1-.2-.1,10.65,10.65,0,0,1-2.331-2.01,8.641,8.641,0,0,1-1.278-2.112q.055,2.939.055,3.657a1.138,1.138,0,0,1-.362.991,2.854,2.854,0,0,1-1.415.239.548.548,0,0,1-.28-.041.547.547,0,0,1-.089-.239,1.56,1.56,0,0,0-.246-.588,8.256,8.256,0,0,0,.923.055.82.82,0,0,0,.554-.123.62.62,0,0,0,.1-.424V12.888q-1.244.807-2.769,1.62a1.943,1.943,0,0,0-.506.314q-.089.109-.157.109t-.123-.123q-.144-.253-.362-.745a4.57,4.57,0,0,0,.807-.294,26.732,26.732,0,0,0,3.11-1.7V10.03h-1.3l-1.935.027q-.1,0-.1-.109V9.4q0-.109.1-.109l1.935.027h1.3V8.062h-.8l-1.764.027q-.109,0-.109-.116V7.46q0-.116.109-.116l1.764.027h.8v-1.2h-.991l-1.88.027q-.109,0-.109-.1V5.546a.1.1,0,0,1,.109-.109l1.88.027h2.085a12.2,12.2,0,0,0,.752-1.429,2.654,2.654,0,0,0,.185-.588,5.368,5.368,0,0,1,.725.212q.171.048.171.15,0,.075-.137.185a.677.677,0,0,0-.2.267,12.632,12.632,0,0,1-.7,1.2h.465l1.846-.027q.13,0,.13.109V6.1q0,.1-.13.1l-1.846-.027h-1.565v1.2h1.176l1.75-.027q.109,0,.109.116v.513q0,.116-.109.116l-1.75-.027h-1.176V9.319h1.941l1.935-.027a.1.1,0,0,1,.109.109v.547a.1.1,0,0,1-.109.109l-1.935-.027h-1.8a9.615,9.615,0,0,0,1.189,2.03,11.044,11.044,0,0,0,1.121-1.053,1.977,1.977,0,0,0,.335-.485,4.885,4.885,0,0,1,.574.444.258.258,0,0,1,.116.185q0,.109-.137.15a1.1,1.1,0,0,0-.424.294,13.719,13.719,0,0,1-1.135,1A10.167,10.167,0,0,0,174.446,14.535ZM165.9,6.92q0,.116-.109.116l-1.258-.027h-.089a9.323,9.323,0,0,0,1.442,3.035,1.831,1.831,0,0,0-.349.533q-.068.15-.123.15t-.13-.15a12.545,12.545,0,0,1-.964-2.673q.007,2.755.082,5.79.014.759.041,1.7.014.465.014.506a.085.085,0,0,1-.1.1h-.67q-.116,0-.116-.1s.009-.406.027-1.2q.1-3.541.116-6.6a15.75,15.75,0,0,1-1.641,4.437q-.089.157-.137.157-.075,0-.116-.137a1.211,1.211,0,0,0-.362-.547,15.308,15.308,0,0,0,2.058-5h-.308l-1.271.027a.1.1,0,0,1-.116-.116V6.373q0-.123.116-.123l1.271.027h.417v-1.2a8.8,8.8,0,0,0-.109-1.668,6.609,6.609,0,0,1,.882.089q.171.021.171.123a.676.676,0,0,1-.082.253,4.859,4.859,0,0,0-.075,1.189V6.277h.116l1.258-.027q.109,0,.109.123Zm2.146,4.819q.048.048.048.075t-.1.137l-.294.273q-.116.123-.164.123-.027,0-.068-.062A6.8,6.8,0,0,0,166.3,10.98q-.055-.041-.055-.068t.109-.137l.239-.226q.109-.1.15-.1t.068.048A6.8,6.8,0,0,1,168.048,11.739Zm.725-6.918a.168.168,0,0,1,.014.062q0,.048-.1.109l-.41.219a.441.441,0,0,1-.164.075q-.041,0-.075-.089a4.652,4.652,0,0,0-.786-1.258.112.112,0,0,1-.041-.068q0-.041.144-.116l.362-.178a.368.368,0,0,1,.123-.041.146.146,0,0,1,.1.068A6.6,6.6,0,0,1,168.772,4.821Zm10.568,2.618A41.522,41.522,0,0,1,176.7,15.28l-.923-.362a37.253,37.253,0,0,0,2.563-7.41q-.848.062-2.577.226l-.055-.882q.513-.034,1.518-.1l1.313-.089q.26-1.183.533-2.782l.991.137q-.308,1.6-.533,2.591.786-.055,1.429-.055a1.428,1.428,0,0,1,1.278.567,3.662,3.662,0,0,1,.4,1.982,19.506,19.506,0,0,1-.437,4.97,1.777,1.777,0,0,1-.636,1,1.828,1.828,0,0,1-1.073.28,9.249,9.249,0,0,1-1.422-.109l-.171-.978a6.216,6.216,0,0,0,1.244.164,1.47,1.47,0,0,0,.745-.144.9.9,0,0,0,.335-.485,16.429,16.429,0,0,0,.444-4.566,3.52,3.52,0,0,0-.219-1.538.713.713,0,0,0-.677-.321Q180.127,7.385,179.341,7.439Zm4.108-3.992.711-.28A19.251,19.251,0,0,1,185.2,5.539l-.759.308A14.765,14.765,0,0,0,183.449,3.447Zm1.5-.472.7-.253a11.327,11.327,0,0,1,.991,2.3l-.725.294A13.487,13.487,0,0,0,184.946,2.976Zm-2.311,2.844.882-.451a16.879,16.879,0,0,1,2.406,4.833l-.978.458A14.513,14.513,0,0,0,182.636,5.819Zm14.595,6.59a.1.1,0,0,1-.109.109l-1.853-.027h-3.227l-1.839.027a.1.1,0,0,1-.109-.109l.027-.978v-.889l-.027-.978a.1.1,0,0,1,.109-.109l1.839.027h3.227l1.853-.027a.1.1,0,0,1,.109.109l-.027.978v.889Zm-.854-.6V10.181h-5.428v1.627ZM200.088,9a1.973,1.973,0,0,0-.362.5q-.116.212-.185.212a.711.711,0,0,1-.205-.068,15.148,15.148,0,0,1-3.589-2.16,9.005,9.005,0,0,1-2.153-2.652,11.885,11.885,0,0,1-2.406,2.851,15.832,15.832,0,0,1-3.206,2.037.774.774,0,0,1-.212.068q-.068,0-.2-.226a1.452,1.452,0,0,0-.362-.424,14.34,14.34,0,0,0,3.179-1.832,10.19,10.19,0,0,0-1.6-1.4q-.062-.041-.062-.068t.075-.109l.342-.308q.075-.075.109-.075a.15.15,0,0,1,.082.034A12.723,12.723,0,0,1,191,6.8a10.592,10.592,0,0,0,1.791-2.14h-2.017l-1.442.027q-.123,0-.123-.109V4.035q0-.109.123-.109l1.442.027h1.935l1.135-.027q.109,0,.178.157a6.637,6.637,0,0,0,.52.957,8.083,8.083,0,0,0,.6.813,9.042,9.042,0,0,0,1.135-1.189,2.832,2.832,0,0,0,.335-.54,4.358,4.358,0,0,1,.69.431.236.236,0,0,1,.109.164q0,.089-.137.157a1.227,1.227,0,0,0-.437.349,14.323,14.323,0,0,1-1.2,1.148,12.549,12.549,0,0,0,1.046.882,14.739,14.739,0,0,0,1.347-1.306,3.344,3.344,0,0,0,.376-.54,5.306,5.306,0,0,1,.67.431q.13.109.13.164v.021a.253.253,0,0,1-.185.164,1.176,1.176,0,0,0-.417.308,14.73,14.73,0,0,1-1.312,1.162A14.409,14.409,0,0,0,200.088,9Zm-.335,6.433a.1.1,0,0,1-.109.109L197.8,15.52h-8.258l-1.832.027q-.116,0-.116-.109v-.595q0-.109.116-.109l1.832.027h5.038q.362-.595.677-1.217a3.483,3.483,0,0,0,.267-.786,6.731,6.731,0,0,1,.813.321.172.172,0,0,1,.123.157q0,.068-.123.164a1.064,1.064,0,0,0-.287.383q-.5.848-.588.978H197.8l1.839-.027a.1.1,0,0,1,.109.109Zm-3.931-7.089q0,.109-.1.109l-1.4-.027h-1.442l-1.381.027q-.116,0-.116-.109V7.8q0-.109.116-.109l1.381.027h1.442l1.4-.027q.1,0,.1.109Zm-3.35,5.838a.336.336,0,0,1,.021.082q0,.048-.157.13l-.369.185a.6.6,0,0,1-.171.055q-.048,0-.082-.089a5.968,5.968,0,0,0-.67-1.326.188.188,0,0,1-.034-.075q0-.041.15-.109l.362-.164a.383.383,0,0,1,.144-.055q.034,0,.1.082A7.462,7.462,0,0,1,192.473,14.187Zm21.841.28a1.981,1.981,0,0,0-.41.52q-.1.185-.15.185a.434.434,0,0,1-.185-.109,9.069,9.069,0,0,1-3.117-4.806v.95q0,1.142.027,2.434.027.875.027,1.183a2.079,2.079,0,0,1-.075.649.727.727,0,0,1-.287.355,2.839,2.839,0,0,1-1.374.239.507.507,0,0,1-.267-.041.769.769,0,0,1-.082-.239,1.6,1.6,0,0,0-.28-.6,7.663,7.663,0,0,0,.909.055.852.852,0,0,0,.561-.123.567.567,0,0,0,.109-.41V12.771a18.14,18.14,0,0,1-2.229,1.586,1.4,1.4,0,0,0-.444.335.173.173,0,0,1-.144.1.172.172,0,0,1-.15-.082,6.217,6.217,0,0,1-.424-.684,5.5,5.5,0,0,0,.759-.342,17.616,17.616,0,0,0,2.632-1.818V8.937h-1.2l-1.894.027a.1.1,0,0,1-.109-.109V8.294a.1.1,0,0,1,.109-.109l1.894.027h2.926l.1-1.347h-2.352l-1.456.027a.1.1,0,0,1-.109-.109V6.236a.1.1,0,0,1,.109-.109l1.456.027h2.393l.1-1.265h-2.8l-1.552.027q-.116,0-.116-.109V4.247q0-.109.116-.109l1.552.027h1.976l1.559-.027a.109.109,0,0,1,.123.123q-.027.219-.048.526-.034.376-.041.438l-.219,2.987,1.736-.027q.123,0,.123.109v.561q0,.109-.123.109l-1.894-.027h-1.538a11.89,11.89,0,0,0,.964,2.55,10.69,10.69,0,0,0,1.2-1.429,2.52,2.52,0,0,0,.308-.547,4.052,4.052,0,0,1,.608.417.323.323,0,0,1,.109.2q0,.068-.157.171a1.885,1.885,0,0,0-.417.4,10.3,10.3,0,0,1-1.306,1.388A7.945,7.945,0,0,0,214.313,14.467Zm-7.725-4.409q0,.109-.116.109l-1.456-.027H204.7v3.869a17.042,17.042,0,0,0,1.682-.649,2.2,2.2,0,0,0-.068.52.411.411,0,0,1-.062.273.57.57,0,0,1-.205.1q-1.429.554-3.322,1.094a1.752,1.752,0,0,0-.52.212.333.333,0,0,1-.185.082.153.153,0,0,1-.164-.109q-.1-.246-.267-.772a8.4,8.4,0,0,0,1.066-.178q.978-.239,1.271-.328V10.14h-.547l-1.456.027a.1.1,0,0,1-.109-.109V9.524a.1.1,0,0,1,.109-.109l1.456.027h.547V7.918h-.1l-1.189.027q-.116,0-.116-.13v-.5a.1.1,0,0,1,.116-.116l1.189.027h1.08l1.176-.027q.109,0,.109.116v.5q0,.13-.109.13l-1.176-.027H204.7V9.442h.321l1.456-.027q.116,0,.116.109Zm.232-3.985a1,1,0,0,0-.362.444q-.1.185-.144.185a1.161,1.161,0,0,1-.212-.144A10.816,10.816,0,0,1,204.47,4.7,12.423,12.423,0,0,1,202,7.487a.546.546,0,0,1-.205.109q-.082,0-.144-.185a1.241,1.241,0,0,0-.321-.485,8.657,8.657,0,0,0,2.475-2.707,2.053,2.053,0,0,0,.3-.752,4.523,4.523,0,0,1,.807.226q.144.041.144.123a.216.216,0,0,1-.13.185l-.109.082A9.861,9.861,0,0,0,206.821,6.072Zm-3.568,7.109q.007.055.007.068,0,.062-.15.123l-.335.144a.478.478,0,0,1-.137.034q-.062,0-.075-.1a10.431,10.431,0,0,0-.472-2.167.207.207,0,0,1-.021-.075q0-.055.171-.116l.294-.116a.559.559,0,0,1,.137-.034q.041,0,.075.075A11.889,11.889,0,0,1,203.253,13.182Zm3.37-2.017a.236.236,0,0,1-.109.164.979.979,0,0,0-.212.4q-.232.718-.451,1.23-.068.2-.123.2a.466.466,0,0,1-.15-.062,2.436,2.436,0,0,0-.437-.137,9.511,9.511,0,0,0,.547-1.654,2.008,2.008,0,0,0,.068-.526,6.211,6.211,0,0,1,.745.246Q206.623,11.09,206.623,11.165Zm2.215.123a.207.207,0,0,1,.021.075q0,.041-.123.137l-.28.226a.732.732,0,0,1-.164.1q-.034,0-.082-.1a6.081,6.081,0,0,0-1.053-1.668.112.112,0,0,1-.041-.068q0-.041.123-.13l.294-.191a.279.279,0,0,1,.123-.068q.041,0,.1.068A8.212,8.212,0,0,1,208.838,11.288Zm8.641,1.039a1.915,1.915,0,0,1,1.463.643,1.916,1.916,0,0,1-.144,2.748,1.936,1.936,0,0,1-1.319.5,1.9,1.9,0,0,1-1.463-.643,1.916,1.916,0,0,1,.144-2.748A1.936,1.936,0,0,1,217.479,12.327Zm0,.7a1.269,1.269,0,0,0-1.251,1.251,1.253,1.253,0,0,0,2.181.834,1.247,1.247,0,0,0-.93-2.085ZM11.354,40.759q0,.1-.109.1h-.663q-.109,0-.109-.1v-.786H3.541v.8q0,.1-.109.1H2.769q-.109,0-.109-.1l.027-4.437V33.745L2.659,30.4a.1.1,0,0,1,.109-.109l1.962.027h.827a12.481,12.481,0,0,0,.561-1.483,3.218,3.218,0,0,0,.1-.615q.41.055.9.164.171.048.171.157a.228.228,0,0,1-.082.15,1.128,1.128,0,0,0-.212.355q-.308.82-.533,1.271h2.83l1.962-.027a.1.1,0,0,1,.109.109l-.027,3.028v2.9Zm-.882-1.586V36.842H3.541v2.331Zm0-3.1v-2.1H3.541v2.1Zm0-2.871V31.113H3.541V33.2Zm14.171.868q-.014.232-.027.731-.014.479-.027.752a26.435,26.435,0,0,1-.335,3.527,2.075,2.075,0,0,1-.574,1.2,1.761,1.761,0,0,1-1.224.39q-.725,0-1.114-.041-.219-.014-.26-.062a.634.634,0,0,1-.082-.26,1.6,1.6,0,0,0-.28-.656,10.247,10.247,0,0,0,1.6.137.989.989,0,0,0,.772-.28,1.544,1.544,0,0,0,.308-.772,26.9,26.9,0,0,0,.308-3.985H20.583a6.808,6.808,0,0,1-4.211,6.091.872.872,0,0,1-.2.068q-.075,0-.212-.212a1.52,1.52,0,0,0-.444-.458A6.058,6.058,0,0,0,19.7,34.75h-.629l-1.88.027a.1.1,0,0,1-.109-.109v-.622a.1.1,0,0,1,.109-.109l1.88.027h3.541l1.907-.027Q24.644,33.937,24.644,34.066Zm-4.512-4.819q0,.068-.109.157a.808.808,0,0,0-.253.308,13.916,13.916,0,0,1-2.037,3.11,14.7,14.7,0,0,1-2.372,2.112.564.564,0,0,1-.212.123q-.075,0-.191-.185a1.6,1.6,0,0,0-.492-.458,11.291,11.291,0,0,0,2.81-2.427,10.521,10.521,0,0,0,1.559-2.461,3.377,3.377,0,0,0,.226-.827,4.943,4.943,0,0,1,.889.335Q20.132,29.117,20.132,29.247Zm7.41,4.983a2.01,2.01,0,0,0-.492.561q-.13.2-.164.2a.578.578,0,0,1-.2-.109A14.728,14.728,0,0,1,21.9,29.124a.207.207,0,0,1-.021-.075q0-.034.15-.109l.417-.226a.43.43,0,0,1,.15-.055q.041,0,.075.1a12.071,12.071,0,0,0,2.167,3.288A11.7,11.7,0,0,0,27.542,34.23Zm3.425-4.717.4-.8a21.8,21.8,0,0,1,4.354,1.265l-.5.868A20.869,20.869,0,0,0,30.967,29.514Zm-.294,1.723q-.328,3.261-.4,4.259l-.144.766.321-.52a4.925,4.925,0,0,1,1.682-1.271,4.268,4.268,0,0,1,1.777-.39,3.349,3.349,0,0,1,2.406.82,2.66,2.66,0,0,1,.786,2.017,3.2,3.2,0,0,1-.485,1.839,3.371,3.371,0,0,1-1.2,1.019,6.8,6.8,0,0,1-2.092.615,18.516,18.516,0,0,1-2.386.226l-.321-.937a9.7,9.7,0,0,0,4.074-.7,2.554,2.554,0,0,0,1.046-.889,2.462,2.462,0,0,0,.294-1.265,1.793,1.793,0,0,0-.615-1.415,2.145,2.145,0,0,0-1.456-.485,3.916,3.916,0,0,0-2.953,1.408,4.063,4.063,0,0,0-.766,1.21L29.2,37.354q.1-2.01.492-6.262Zm9.105-2.27h1.046q-.239,7.191-.239,8.668a2.135,2.135,0,0,0,.458,1.579,2.222,2.222,0,0,0,1.545.424,3.218,3.218,0,0,0,2.44-.943,5.471,5.471,0,0,0,1.217-2.673l.95.479q-.93,4.074-4.58,4.074a3.2,3.2,0,0,1-2.4-.718,3.1,3.1,0,0,1-.608-2.153q0-.766.062-3.753Q39.751,30.334,39.778,28.967Zm13.146,7.321.854.615q-.677,3.377-2.27,3.377a1.651,1.651,0,0,1-1.538-1.019,9.207,9.207,0,0,1-.718-3.227q-.109-1.312-.109-3.541l.014-2.632h1.012l-.021,2.188q0,2.646.116,3.9.267,3.22,1.217,3.22.485,0,.813-.711A11.913,11.913,0,0,0,52.924,36.288Zm2.1-5.346.909-.267a17.059,17.059,0,0,1,2.427,7.574l-1.053.171A17.589,17.589,0,0,0,55.022,30.942Zm15.483,9.816q0,.1-.109.1h-.663q-.109,0-.109-.1v-.786H62.692v.8q0,.1-.109.1H61.92q-.109,0-.109-.1l.027-4.437V33.745l-.027-3.35a.1.1,0,0,1,.109-.109l1.962.027h.827a12.481,12.481,0,0,0,.561-1.483,3.218,3.218,0,0,0,.1-.615q.41.055.9.164.171.048.171.157a.228.228,0,0,1-.082.15,1.128,1.128,0,0,0-.212.355q-.308.82-.533,1.271h2.83l1.962-.027a.1.1,0,0,1,.109.109l-.027,3.028v2.9Zm-.882-1.586V36.842H62.692v2.331Zm0-3.1v-2.1H62.692v2.1Zm0-2.871V31.113H62.692V33.2Zm15.832,7.547q0,.1-.109.1h-.69q-.109,0-.109-.1V40H75.77v.772a.1.1,0,0,1-.109.109h-.677a.1.1,0,0,1-.109-.109l.027-3.917V34.518l-.027-2.974a.1.1,0,0,1,.109-.109l1.976.027H79.6V30.368a11.875,11.875,0,0,0-.109-1.887,9.06,9.06,0,0,1,.978.082q.171.027.171.123a.44.44,0,0,1-.027.13q-.034.1-.041.137a6.8,6.8,0,0,0-.089,1.388v1.121h2.885l1.976-.027a.1.1,0,0,1,.109.109l-.027,2.707v2.591ZM84.547,39.2V36.015H80.486V39.2Zm-4.942,0V36.015H75.77V39.2Zm4.942-3.972V32.262H80.486v2.967Zm-4.942,0V32.262H75.77v2.967ZM91.7,31.113q.82-.068,2.071-.2l.014.868q-1.142.137-2.3.191a38.416,38.416,0,0,1-2.468,6.487l-.909-.424a29.976,29.976,0,0,0,2.379-6.016q-1.135.062-2.27.041l-.027-.868q1.176.041,2.522-.027.273-1.169.465-2.365l1.019.123Q92,29.869,91.7,31.113Zm3,5.79q-.123-1.5-.144-3.568h.964q0,1.791.157,3.794a9.263,9.263,0,0,1,2.563,1.6l-.52.95A7.662,7.662,0,0,0,95.7,38.154v.232q0,2.229-2.475,2.229a2.629,2.629,0,0,1-1.846-.581,1.665,1.665,0,0,1-.54-1.292,1.7,1.7,0,0,1,.889-1.5,3.244,3.244,0,0,1,1.757-.458A5.891,5.891,0,0,1,94.7,36.9Zm0,.93a4.031,4.031,0,0,0-1.162-.2,2.4,2.4,0,0,0-1.429.349.867.867,0,0,0-.383.731.886.886,0,0,0,.41.772,1.931,1.931,0,0,0,1.107.273,1.305,1.305,0,0,0,1.47-1.483Zm.055-6.357.444-.8a14.091,14.091,0,0,1,3.192,1.5l-.513.868A12.767,12.767,0,0,0,94.753,31.476Zm13.214.239q0,.109-.1.109L106.3,31.8h-.6v.882h.547l1.49-.027q.123,0,.123.109l-.027,1.162v1.285l.027,1.155q0,.109-.123.109l-1.49-.027H105.7v.909h.41l1.47-.027a.1.1,0,0,1,.109.109v.479a.1.1,0,0,1-.109.109L106.107,38h-.41v1q1.176-.191,1.88-.369l-.082.424a.49.49,0,0,1-.075.26.751.751,0,0,1-.253.075q-1.306.287-3.637.615a1.532,1.532,0,0,0-.6.157.343.343,0,0,1-.185.068q-.075,0-.123-.185a6.811,6.811,0,0,1-.171-.725q.123.007.267.007a10.166,10.166,0,0,0,1.025-.062q.472-.041,1.258-.157V38h-.629l-1.47.027q-.116,0-.116-.109v-.479q0-.109.116-.109l1.47.027H105v-.909h-.451l-1.5.027a.1.1,0,0,1-.109-.109l.027-1.155V33.923l-.027-1.162a.1.1,0,0,1,.109-.109l1.5.027H105V31.8h-.711l-1.572.027a.1.1,0,0,1-.109-.109v-.492a.1.1,0,0,1,.109-.109l1.572.027H105v-.964q-.718.123-1.456.205a.959.959,0,0,1-.13.014q-.109,0-.219-.205a1.81,1.81,0,0,0-.308-.437,16.965,16.965,0,0,0,3.767-.615,2.107,2.107,0,0,0,.574-.253,3.51,3.51,0,0,1,.492.479.31.31,0,0,1,.082.185q0,.109-.185.109a1.365,1.365,0,0,0-.39.055q-.684.185-1.531.335v1.094h.6l1.572-.027q.1,0,.1.109Zm-.813,4.129V34.832H105.7v1.012Zm0-1.6V33.28H105.7v.964ZM105,35.844V34.832h-1.347v1.012Zm0-1.6V33.28h-1.347v.964Zm7.253-2.283q-.027.438-.027,1.251a54.065,54.065,0,0,1-.349,6.159,1.931,1.931,0,0,1-.472,1.107,1.237,1.237,0,0,1-.9.308q-.444,0-.882-.041-.157-.014-.185-.062a.808.808,0,0,1-.055-.246,1.6,1.6,0,0,0-.185-.574,6.374,6.374,0,0,0,1.21.123.568.568,0,0,0,.526-.273,2.02,2.02,0,0,0,.212-.7,47.406,47.406,0,0,0,.321-6.412h-1.23a25.694,25.694,0,0,1-.451,3.821,8.251,8.251,0,0,1-2.249,4.327q-.109.123-.157.123t-.178-.144a2.181,2.181,0,0,0-.492-.335,7.326,7.326,0,0,0,2.365-4.225,22.344,22.344,0,0,0,.4-3.568l-1.162.027a.1.1,0,0,1-.109-.109v-.561q0-.116.109-.116l1.189.034q.034-.984.034-1.518a11.521,11.521,0,0,0-.1-1.723,6.014,6.014,0,0,1,.854.089q.171.041.171.137a1.594,1.594,0,0,1-.082.294,5.3,5.3,0,0,0-.089,1.306q0,.458-.027,1.415h.574l1.292-.034A.109.109,0,0,1,112.253,31.961Zm-9.242-3.1q0,.075-.137.191a1.358,1.358,0,0,0-.267.533q-.513,1.477-.868,2.283v6.85l.027,2.167a.1.1,0,0,1-.109.109h-.636a.1.1,0,0,1-.109-.109l.027-2.167V35.2q0-.561.027-1.853a13.4,13.4,0,0,1-.937,1.388q-.1.137-.157.137t-.109-.157a2.324,2.324,0,0,0-.308-.595,13.406,13.406,0,0,0,2.393-4.758,4.211,4.211,0,0,0,.2-.957,5.342,5.342,0,0,1,.793.28Q103.011,28.762,103.011,28.857Zm17.124,4.813a12.542,12.542,0,0,0,2.078,2.857l-.574.9a7.984,7.984,0,0,0-3.657-.854,3.85,3.85,0,0,0-2,.444,1.157,1.157,0,0,0-.643,1.012q0,.813,1.1,1.21a7.484,7.484,0,0,0,2.5.335q.82,0,1.976-.089v.984q-.615.041-2.017.041-4.546,0-4.546-2.365a1.971,1.971,0,0,1,1.066-1.8,5.521,5.521,0,0,1,2.741-.567,6.3,6.3,0,0,1,2.851.615,11.321,11.321,0,0,1-1.832-2.591,34.235,34.235,0,0,1-4.341.28l-.137-.854A33.363,33.363,0,0,0,118.781,33q-.444-1.019-.69-1.682-1.757.185-3.794.226l-.123-.882a34.558,34.558,0,0,0,3.637-.171q-.205-.567-.526-1.62l1-.1q.246.9.479,1.62,1.422-.171,3.063-.52l.144.854q-1.647.328-2.912.479a16.613,16.613,0,0,0,.684,1.668q1.47-.212,2.6-.479l.171.841Q121.413,33.472,120.135,33.67Zm16.7-1.955q0,.109-.116.109L134.9,31.8h-4.983q-.041,1.148-.171,2.14h3.527l1.641-.027q.13,0,.13.116v.041l-.075.978a28.969,28.969,0,0,1-.5,4.225,1.97,1.97,0,0,1-.649,1.169,1.831,1.831,0,0,1-1.087.273,13.115,13.115,0,0,1-1.347-.082.434.434,0,0,1-.246-.068.845.845,0,0,1-.048-.253,1.491,1.491,0,0,0-.2-.656,10.734,10.734,0,0,0,1.777.164q.711,0,.93-.854a24.978,24.978,0,0,0,.472-4.2h-4.437a8.355,8.355,0,0,1-1.511,3.691,9.036,9.036,0,0,1-2.789,2.29.5.5,0,0,1-.212.082q-.075,0-.219-.226a1.723,1.723,0,0,0-.506-.444,7.611,7.611,0,0,0,3.671-3.336,12.068,12.068,0,0,0,.923-5.024h-2.468l-1.818.027a.1.1,0,0,1-.109-.109v-.649a.1.1,0,0,1,.109-.109l1.818.027h3.616V29.9a6.723,6.723,0,0,0-.1-1.442,5.831,5.831,0,0,1,.971.075q.164.021.164.109a.905.905,0,0,1-.082.267,3.9,3.9,0,0,0-.068.978v1.094H134.9l1.818-.027q.116,0,.116.109Zm7.349,3.9v2.769h-.937V36.049q-.321.164-.663.355-1.791,1.012-1.791,2.03a.927.927,0,0,0,.629.943,6.4,6.4,0,0,0,2.078.232q1.47,0,3.411-.171l.041.95q-2.55.13-3.384.13a5.879,5.879,0,0,1-2.967-.513,1.772,1.772,0,0,1-.7-1.6,3.066,3.066,0,0,1,1.88-2.55q.711-.4,1.456-.772-.068-1.312-.909-1.312-1.176,0-3.227,2.365l-.725-.643a16.349,16.349,0,0,0,2.9-4.136q-1.278.021-2.563,0V30.5q1.477.027,2.953,0a12.511,12.511,0,0,0,.629-1.873l1.012.185a14.378,14.378,0,0,1-.588,1.647q1.969-.062,3.739-.239l.027.854q-2.3.185-4.143.239a14.3,14.3,0,0,1-1.176,1.989l-.355.362.041.055a2.492,2.492,0,0,1,1.668-.711,1.521,1.521,0,0,1,1.114.424,1.982,1.982,0,0,1,.526,1.217q1.094-.5,2.844-1.237l.39.957Q145.113,35.208,144.184,35.618Zm10.233.376a12.594,12.594,0,0,1-5,4.423l-.615-.807a12.291,12.291,0,0,0,4.573-3.931,14.161,14.161,0,0,0,2.051-5.045H149.55V29.7h7.26a18.785,18.785,0,0,1-1.846,5.359,31.446,31.446,0,0,1,3.261,4.7l-1.032.656A25.126,25.126,0,0,0,154.417,35.994Zm10.931-.041a15.455,15.455,0,0,0-2.9-1.962l.574-.766a21.307,21.307,0,0,1,2.857,1.75,13.505,13.505,0,0,0,1.162-4.02h-3.9a11.485,11.485,0,0,1-2.81,4.17l-.827-.561a11.586,11.586,0,0,0,3.247-5.893l1.08.267q-.116.451-.321,1.094h4.84a16.092,16.092,0,0,1-2.509,7.075,10.892,10.892,0,0,1-4.7,3.507l-.663-.786A10.256,10.256,0,0,0,165.348,35.953Zm4.7-1.7h7.615V35.3h-7.615Zm11.908-.349v6.651h-1.08V28.816h1.08v4.061a21.8,21.8,0,0,1,5.332,2.222l-.533,1.012A17.7,17.7,0,0,0,181.959,33.909Zm11.026-1.777q-1.682.171-3.937.239l-.055-.9a34.669,34.669,0,0,0,3.623-.185,23.558,23.558,0,0,1-.779-2.42l1.032-.13a17.685,17.685,0,0,0,.759,2.44,28.981,28.981,0,0,0,2.953-.52l.109.9q-1.1.246-2.714.465a14.924,14.924,0,0,0,2.7,4.061l-.6.868a6.488,6.488,0,0,0-3.37-.957,3.2,3.2,0,0,0-2.071.6,1.5,1.5,0,0,0-.6,1.2q0,1.8,3.527,1.8a10.949,10.949,0,0,0,1.873-.144l.014.978a14.376,14.376,0,0,1-1.9.116,7.033,7.033,0,0,1-3.281-.6,2.223,2.223,0,0,1-1.217-2.1,2.317,2.317,0,0,1,1.3-2.153,4.746,4.746,0,0,1,2.317-.526,5.215,5.215,0,0,1,2.7.547A11.752,11.752,0,0,1,192.985,32.132Zm12.373.711q-1.989.089-3.931.212-.041,1.723-.041,3.083a15.212,15.212,0,0,0,.109,2.488,1.01,1.01,0,0,0,.745.67,6.091,6.091,0,0,0,1.675.171,32.991,32.991,0,0,0,3.363-.164v.978q-1.743.1-3.336.1a6.145,6.145,0,0,1-2.536-.383,1.543,1.543,0,0,1-.848-1.019,14.346,14.346,0,0,1-.13-2.611q0-.854.034-3.24-1.456.116-2.2.185V32.4l1.2-.082q.643-.041,1.019-.075.027-.984.055-3.008h.978q-.062,2.3-.068,2.953,2.687-.144,3.931-.191.027-1.08,0-3.24h.984q0,1.579-.041,3.192.355-.014,1.128-.034.656-.021,1.012-.034v.9l-2.153.041q-.048,1.675-.171,2.912-.13,1.36-1.271,1.36a4.812,4.812,0,0,1-1.907-.376V35.687a3.665,3.665,0,0,0,1.668.41q.492,0,.574-.7Q205.317,34.319,205.358,32.843Zm13.651-3.1.027.964a5.312,5.312,0,0,0-2.311.629,5.934,5.934,0,0,0-2.071,1.962,4.817,4.817,0,0,0-.813,2.659,2.958,2.958,0,0,0,1.285,2.529,6.17,6.17,0,0,0,2.933,1l-.239,1a6.1,6.1,0,0,1-3.63-1.381,3.89,3.89,0,0,1-1.312-3.049,5.709,5.709,0,0,1,2.994-5.024l.759-.335-.014-.027-.656.109q-1.189.068-5.66.479l-.082-.923Q212.222,30.177,219.01,29.739Zm6,6.549.854.615q-.677,3.377-2.27,3.377a1.651,1.651,0,0,1-1.538-1.019,9.207,9.207,0,0,1-.718-3.227q-.109-1.312-.109-3.541l.014-2.632h1.012l-.021,2.188q0,2.646.116,3.9.267,3.22,1.217,3.22.485,0,.813-.711A11.913,11.913,0,0,0,225,36.288Zm2.1-5.346.909-.267a17.059,17.059,0,0,1,2.427,7.574l-1.053.171A17.589,17.589,0,0,0,227.1,30.942Zm9.222-.349q-.027-1.176-.027-1.853h1v1.812q1.7-.062,3.37-.267v.868q-1.531.185-3.356.253l.041,2.01q1.935-.089,3.247-.26v.868q-1.538.171-3.233.232.014.335.062,1.449.027.745.048,1.2a10.066,10.066,0,0,1,3.726,2.372l-.7.861a9.516,9.516,0,0,0-3.015-2.249v.15a2.184,2.184,0,0,1-2.475,2.468,3.271,3.271,0,0,1-2.017-.5,1.7,1.7,0,0,1-.6-1.436,1.679,1.679,0,0,1,.8-1.449,3.138,3.138,0,0,1,1.832-.5,8.4,8.4,0,0,1,1.47.1q-.048-.848-.1-2.427-1.825.048-3.644,0v-.848q1.7.055,3.63.014-.027-.383-.034-1.087-.014-.663-.027-.943-2.105.041-3.794-.027v-.841Q234.22,30.642,236.325,30.594Zm.171,7.055a5.407,5.407,0,0,0-1.374-.185q-1.832,0-1.832,1.107,0,1.066,1.654,1.066,1.552,0,1.552-1.866ZM249.013,31.5q-.041,1.518,0,3.035a5.324,5.324,0,0,1,.308,1.777,3.687,3.687,0,0,1-1.306,3.069,7.744,7.744,0,0,1-3.274,1.271l-.588-.841a6.334,6.334,0,0,0,3.411-1.381,2.741,2.741,0,0,0,.807-1.88,1.856,1.856,0,0,1-1.8.882,2.2,2.2,0,0,1-1.531-.574,2.3,2.3,0,0,1,.123-3.356,2.469,2.469,0,0,1,1.559-.492,2,2,0,0,1,1.36.39q-.027-1.312-.027-1.873-2.249.034-5.435.239l-.014-.9q2.584-.1,5.435-.171V28.8l1,.014q0,.629-.027,1.859,2.324-.027,3.363-.027v.9Q250.694,31.5,249.013,31.5Zm-2.338,2.3a1.322,1.322,0,0,0-.984.4,1.413,1.413,0,0,0-.39,1.046,1.237,1.237,0,0,0,.444,1,1.288,1.288,0,0,0,.848.294,1.406,1.406,0,0,0,1.1-.41,1.3,1.3,0,0,0,.314-.916Q248.008,33.8,246.675,33.8ZM256,37.327a1.915,1.915,0,0,1,1.463.643,1.916,1.916,0,0,1-.144,2.748,1.936,1.936,0,0,1-1.319.5,1.9,1.9,0,0,1-1.463-.643,1.916,1.916,0,0,1,.144-2.748A1.936,1.936,0,0,1,256,37.327Zm0,.7a1.269,1.269,0,0,0-1.251,1.251,1.253,1.253,0,0,0,2.181.834,1.247,1.247,0,0,0-.93-2.085ZM178.3,53.27a8.836,8.836,0,0,0-2.529,3.247,8.068,8.068,0,0,0-.581,3.165,7.883,7.883,0,0,0,.772,3.582,9.239,9.239,0,0,0,2.338,2.83l-.349.4a9.614,9.614,0,0,1-2.939-3.37,7.781,7.781,0,0,1-.731-3.445,7.659,7.659,0,0,1,.964-3.89,10.156,10.156,0,0,1,2.707-2.926Zm5.879,4.5a2.027,2.027,0,0,0-.14-.786,1.522,1.522,0,0,0-.954-.889,2.235,2.235,0,0,0-.711-.109,2.352,2.352,0,0,0-.643.089,3.124,3.124,0,0,0-.612.246,3.764,3.764,0,0,0-.574.376,4.147,4.147,0,0,0-.516.485v-1.2a3.352,3.352,0,0,1,1.056-.7,3.719,3.719,0,0,1,1.425-.243,3.441,3.441,0,0,1,1.114.174,2.555,2.555,0,0,1,.889.509,2.354,2.354,0,0,1,.591.827,2.79,2.79,0,0,1,.215,1.128,3.868,3.868,0,0,1-.133,1.053,3.256,3.256,0,0,1-.4.889,4.288,4.288,0,0,1-.68.8,9.635,9.635,0,0,1-.964.779q-.69.492-1.138.841a5.031,5.031,0,0,0-.711.653,1.894,1.894,0,0,0-.369.608,2.127,2.127,0,0,0-.106.7H185.7v1h-6.05v-.485a4.045,4.045,0,0,1,.137-1.107,2.875,2.875,0,0,1,.451-.909,5.046,5.046,0,0,1,.824-.861q.509-.431,1.248-.971a7.887,7.887,0,0,0,.892-.731,3.8,3.8,0,0,0,.578-.7,2.5,2.5,0,0,0,.311-.708A3.051,3.051,0,0,0,184.181,57.768Zm9.242,2.29a9.629,9.629,0,0,1-.222,2.181,5.081,5.081,0,0,1-.643,1.6,2.892,2.892,0,0,1-1.032.991,2.826,2.826,0,0,1-1.391.338,2.639,2.639,0,0,1-1.316-.325,2.758,2.758,0,0,1-.974-.947,4.8,4.8,0,0,1-.6-1.528,9.447,9.447,0,0,1-.205-2.075,10.694,10.694,0,0,1,.215-2.27,5.191,5.191,0,0,1,.632-1.651,2.814,2.814,0,0,1,1.036-1,2.908,2.908,0,0,1,1.418-.338Q193.423,55.033,193.423,60.058Zm-1.148.109q0-4.184-1.989-4.184-2.1,0-2.1,4.259,0,3.972,2.058,3.972Q192.274,64.214,192.274,60.167Zm7-2.4a2.027,2.027,0,0,0-.14-.786,1.522,1.522,0,0,0-.954-.889,2.235,2.235,0,0,0-.711-.109,2.352,2.352,0,0,0-.643.089,3.124,3.124,0,0,0-.612.246,3.764,3.764,0,0,0-.574.376,4.147,4.147,0,0,0-.516.485v-1.2a3.352,3.352,0,0,1,1.056-.7,3.719,3.719,0,0,1,1.425-.243,3.441,3.441,0,0,1,1.114.174,2.555,2.555,0,0,1,.889.509,2.354,2.354,0,0,1,.591.827,2.79,2.79,0,0,1,.215,1.128,3.868,3.868,0,0,1-.133,1.053,3.256,3.256,0,0,1-.4.889,4.288,4.288,0,0,1-.68.8,9.635,9.635,0,0,1-.964.779q-.69.492-1.138.841a5.031,5.031,0,0,0-.711.653,1.894,1.894,0,0,0-.369.608,2.127,2.127,0,0,0-.106.7h4.881v1h-6.05v-.485a4.045,4.045,0,0,1,.137-1.107,2.875,2.875,0,0,1,.451-.909,5.046,5.046,0,0,1,.824-.861q.509-.431,1.248-.971a7.887,7.887,0,0,0,.892-.731,3.8,3.8,0,0,0,.578-.7,2.5,2.5,0,0,0,.311-.708A3.051,3.051,0,0,0,199.274,57.768Zm7.547,0a2.027,2.027,0,0,0-.14-.786,1.522,1.522,0,0,0-.954-.889,2.235,2.235,0,0,0-.711-.109,2.352,2.352,0,0,0-.643.089,3.124,3.124,0,0,0-.612.246,3.764,3.764,0,0,0-.574.376,4.147,4.147,0,0,0-.516.485v-1.2a3.352,3.352,0,0,1,1.056-.7,3.719,3.719,0,0,1,1.425-.243,3.441,3.441,0,0,1,1.114.174,2.555,2.555,0,0,1,.889.509,2.354,2.354,0,0,1,.591.827,2.79,2.79,0,0,1,.215,1.128,3.868,3.868,0,0,1-.133,1.053,3.256,3.256,0,0,1-.4.889,4.288,4.288,0,0,1-.68.8,9.635,9.635,0,0,1-.964.779q-.69.492-1.138.841a5.031,5.031,0,0,0-.711.653,1.894,1.894,0,0,0-.369.608,2.127,2.127,0,0,0-.106.7h4.881v1h-6.05v-.485a4.045,4.045,0,0,1,.137-1.107,2.875,2.875,0,0,1,.451-.909,5.046,5.046,0,0,1,.824-.861q.509-.431,1.248-.971a7.887,7.887,0,0,0,.892-.731,3.8,3.8,0,0,0,.578-.7,2.5,2.5,0,0,0,.311-.708A3.051,3.051,0,0,0,206.821,57.768Zm15.326,4.813a.1.1,0,0,1-.109.109l-1.832-.027h-3.151V63.6l.027,2.311a.085.085,0,0,1-.1.1h-.7q-.123,0-.123-.1l.027-2.311v-.937h-4.252l-1.839.027a.1.1,0,0,1-.109-.109v-.636a.1.1,0,0,1,.109-.109l1.839.027h.417V59.812l-.027-1.224a.1.1,0,0,1,.109-.109l1.962.027h1.791V56.2h-3.192a14.262,14.262,0,0,1-1.777,2.174q-.13.15-.185.15t-.191-.171a1.427,1.427,0,0,0-.479-.376,11.287,11.287,0,0,0,2.748-3.685,3.91,3.91,0,0,0,.294-.923q.355.089.868.267a.2.2,0,0,1,.137.185.274.274,0,0,1-.123.191,1.442,1.442,0,0,0-.355.506q-.308.615-.472.909h5.893L221.3,55.4a.1.1,0,0,1,.109.109v.608a.1.1,0,0,1-.109.109l-1.948-.027h-2.3v2.311h1.7l1.941-.027q.1,0,.1.109V59.2q0,.109-.1.109l-1.941-.027h-1.7v2.584h3.151l1.832-.027a.1.1,0,0,1,.109.109Zm-5.961-.718V59.278h-2.98v2.584ZM228.04,65h-1.121V56.53a2.6,2.6,0,0,1-.379.3,6.185,6.185,0,0,1-.561.332q-.311.164-.656.308a4.769,4.769,0,0,1-.673.226V56.558a6.517,6.517,0,0,0,.783-.277q.414-.174.813-.39T227,55.44a6,6,0,0,0,.615-.461h.424Zm13.357-.472a1.141,1.141,0,0,1-1.155,1.3q-.308.027-1.244.027a.465.465,0,0,1-.26-.041.838.838,0,0,1-.089-.239,2.217,2.217,0,0,0-.253-.656q.82.068,1.47.068a.565.565,0,0,0,.636-.643V61.281h-5.476a8.168,8.168,0,0,1-.793,2.693,7.969,7.969,0,0,1-1.381,1.839q-.13.15-.178.15a.715.715,0,0,1-.226-.137,1.839,1.839,0,0,0-.6-.321,6.916,6.916,0,0,0,2.085-3.2,18.173,18.173,0,0,0,.41-4.512V56.086l-.027-1.839a.1.1,0,0,1,.109-.109l1.832.027h3.192l1.832-.027q.116,0,.116.109l-.027,1.839V62.3Zm-.9-4.033V58.089h-5.291q-.027,1.456-.1,2.406Zm0-3.192V54.965h-5.291V57.3Zm8.969,6.9q0,.116-.109.116h-.581q-.109,0-.109-.116v-.7h-1.818v1.162a.1.1,0,0,1-.109.109h-.595a.1.1,0,0,1-.109-.109l.027-4.32V57.59l-.027-3.274a.1.1,0,0,1,.109-.109l1.121.027h.971l1.121-.027a.1.1,0,0,1,.109.109l-.027,2.83v2.905Zm-.8-1.442v-3.63h-1.818v3.63Zm0-4.354V54.979h-1.818V58.4Zm9.283.089a.1.1,0,0,1-.109.109l-1.935-.027h-3.979l-1.914.027a.1.1,0,0,1-.109-.109v-.581a.1.1,0,0,1,.109-.109l1.914.027h1.306V55.97h-.868L250.578,56q-.13,0-.13-.116v-.561q0-.123.13-.123l1.791.027h.868a11.931,11.931,0,0,0-.1-1.791q.567.021.909.068.171.027.171.123s-.023.089-.068.253a5.578,5.578,0,0,0-.089,1.347h1.271l1.8-.027q.109,0,.109.123v.561q0,.116-.109.116l-1.8-.034h-1.271v1.859h1.846l1.935-.027a.1.1,0,0,1,.109.109Zm-.171,2.5a.1.1,0,0,1-.109.109l-1.682-.027v1.9l.014,1.791a1.053,1.053,0,0,1-.39.937,3.4,3.4,0,0,1-1.627.239.487.487,0,0,1-.26-.041.592.592,0,0,1-.089-.226,1.985,1.985,0,0,0-.28-.629q.567.055,1.313.055.492,0,.492-.513V61.069H252l-1.9.027q-.116,0-.116-.109v-.581q0-.1.116-.1l1.9.014h3.165V60.3a8.226,8.226,0,0,0-.1-1.483,6.171,6.171,0,0,1,.9.1q.185.021.185.116a.636.636,0,0,1-.082.232,3.673,3.673,0,0,0-.075,1v.068l1.682-.014q.109,0,.109.1Zm-4.56,2.57a.173.173,0,0,1,.027.082q0,.055-.1.13l-.376.253a.478.478,0,0,1-.164.089q-.041,0-.075-.062a8.338,8.338,0,0,0-1.34-1.75.131.131,0,0,1-.048-.082q0-.055.13-.13l.335-.212a.35.35,0,0,1,.13-.055.169.169,0,0,1,.1.041A8.419,8.419,0,0,1,253.224,63.558Zm17.855-7.595a.1.1,0,0,1-.109.109l-1.935-.027H265.8V57.72h1.976l1.976-.027q.109,0,.109.1l-.027,1.237v1.647l.027,1.237a.1.1,0,0,1-.109.109l-1.976-.027h-4.259l-1.962.027a.1.1,0,0,1-.109-.109l.027-1.237V59.025l-.027-1.237q0-.1.109-.1l1.962.027h1.415V55.074a11.53,11.53,0,0,0-.1-1.7,8.315,8.315,0,0,1,.95.082q.171.021.171.109a.768.768,0,0,1-.055.253,3.771,3.771,0,0,0-.1,1.135v.294h3.233l1.935-.027a.1.1,0,0,1,.109.109Zm-2.112,5.243v-2.7h-6.624v2.7Zm2.5,4.088a.173.173,0,0,1,.027.082q0,.048-.157.13l-.39.178a.64.64,0,0,1-.191.075q-.041,0-.075-.075a11.43,11.43,0,0,0-1.613-2.618.119.119,0,0,1-.034-.068q0-.048.164-.123l.308-.157a.377.377,0,0,1,.157-.055.165.165,0,0,1,.109.068A11.281,11.281,0,0,1,271.462,65.294Zm-9.44-2.058a8.353,8.353,0,0,1-1.579,2.509.169.169,0,0,1-.13.082.4.4,0,0,1-.178-.082l-.349-.2q-.178-.1-.178-.157,0-.027.048-.068a7.148,7.148,0,0,0,1.613-2.379q.034-.1.109-.1a.466.466,0,0,1,.171.048l.335.137q.157.068.157.137A.207.207,0,0,1,262.021,63.236Zm5.852,2.153a.293.293,0,0,1,.014.075q0,.068-.15.109l-.437.1a.834.834,0,0,1-.178.041q-.062,0-.089-.1a10.007,10.007,0,0,0-.813-2.42.266.266,0,0,1-.021-.075q0-.055.164-.109l.4-.123a.293.293,0,0,1,.075-.014q.075,0,.123.109A10.315,10.315,0,0,1,267.873,65.39Zm-3.09.1v.041q0,.109-.171.123l-.458.041a1.124,1.124,0,0,1-.13.014q-.1,0-.1-.109a12.861,12.861,0,0,0-.417-2.447.217.217,0,0,1-.014-.062q0-.068.178-.1l.4-.041a.748.748,0,0,1,.089-.007q.1,0,.123.116A14.3,14.3,0,0,1,264.783,65.492Zm8.483-12.223.349-.4a9.614,9.614,0,0,1,2.939,3.37,7.781,7.781,0,0,1,.731,3.445,7.659,7.659,0,0,1-.964,3.89,10.156,10.156,0,0,1-2.707,2.926l-.349-.4a8.836,8.836,0,0,0,2.529-3.247,8.068,8.068,0,0,0,.581-3.165A7.883,7.883,0,0,0,275.6,56.1,9.239,9.239,0,0,0,273.267,53.27Z"
									transform="translate(20 7678)" fill="#5a5858" />
							</g>
						</svg>